<?xml version="1.0" encoding="utf-8" standalone="no"?>
<!DOCTYPE svg PUBLIC "-//W3C//DTD SVG 1.1//EN"
  "http://www.w3.org/Graphics/SVG/1.1/DTD/svg11.dtd">
<!-- Created with matplotlib (https://matplotlib.org/) -->
<svg height="537.345047pt" version="1.1" viewBox="0 0 791.118 537.345047" width="791.118pt" xmlns="http://www.w3.org/2000/svg" xmlns:xlink="http://www.w3.org/1999/xlink">
 <defs>
  <style type="text/css">
*{stroke-linecap:butt;stroke-linejoin:round;white-space:pre;}
  </style>
 </defs>
 <g id="figure_1">
  <g id="patch_1">
   <path d="M 0 537.345047 
L 791.118 537.345047 
L 791.118 0 
L 0 0 
z
" style="fill:#ffffff;"/>
  </g>
  <g id="axes_1">
   <g id="patch_2">
    <path d="M 71.39 489.880047 
L 638.570363 489.880047 
L 638.570363 7.2 
L 71.39 7.2 
z
" style="fill:#ffffff;"/>
   </g>
   <g id="matplotlib.axis_1">
    <g id="xtick_1">
     <g id="text_1">
      <!-- 1506-1 -->
      <defs>
       <path d="M 37.25 0 
L 28.46875 0 
L 28.46875 56 
Q 25.296875 52.984375 20.140625 49.953125 
Q 14.984375 46.921875 10.890625 45.40625 
L 10.890625 53.90625 
Q 18.265625 57.375 23.78125 62.296875 
Q 29.296875 67.234375 31.59375 71.875 
L 37.25 71.875 
z
" id="ArialMT-49"/>
       <path d="M 4.15625 18.75 
L 13.375 19.53125 
Q 14.40625 12.796875 18.140625 9.390625 
Q 21.875 6 27.15625 6 
Q 33.5 6 37.890625 10.78125 
Q 42.28125 15.578125 42.28125 23.484375 
Q 42.28125 31 38.0625 35.34375 
Q 33.84375 39.703125 27 39.703125 
Q 22.75 39.703125 19.328125 37.765625 
Q 15.921875 35.84375 13.96875 32.765625 
L 5.71875 33.84375 
L 12.640625 70.609375 
L 48.25 70.609375 
L 48.25 62.203125 
L 19.671875 62.203125 
L 15.828125 42.96875 
Q 22.265625 47.46875 29.34375 47.46875 
Q 38.71875 47.46875 45.15625 40.96875 
Q 51.609375 34.46875 51.609375 24.265625 
Q 51.609375 14.546875 45.953125 7.46875 
Q 39.0625 -1.21875 27.15625 -1.21875 
Q 17.390625 -1.21875 11.203125 4.25 
Q 5.03125 9.71875 4.15625 18.75 
z
" id="ArialMT-53"/>
       <path d="M 4.15625 35.296875 
Q 4.15625 48 6.765625 55.734375 
Q 9.375 63.484375 14.515625 67.671875 
Q 19.671875 71.875 27.484375 71.875 
Q 33.25 71.875 37.59375 69.546875 
Q 41.9375 67.234375 44.765625 62.859375 
Q 47.609375 58.5 49.21875 52.21875 
Q 50.828125 45.953125 50.828125 35.296875 
Q 50.828125 22.703125 48.234375 14.96875 
Q 45.65625 7.234375 40.5 3 
Q 35.359375 -1.21875 27.484375 -1.21875 
Q 17.140625 -1.21875 11.234375 6.203125 
Q 4.15625 15.140625 4.15625 35.296875 
z
M 13.1875 35.296875 
Q 13.1875 17.671875 17.3125 11.828125 
Q 21.4375 6 27.484375 6 
Q 33.546875 6 37.671875 11.859375 
Q 41.796875 17.71875 41.796875 35.296875 
Q 41.796875 52.984375 37.671875 58.78125 
Q 33.546875 64.59375 27.390625 64.59375 
Q 21.34375 64.59375 17.71875 59.46875 
Q 13.1875 52.9375 13.1875 35.296875 
z
" id="ArialMT-48"/>
       <path d="M 49.75 54.046875 
L 41.015625 53.375 
Q 39.84375 58.546875 37.703125 60.890625 
Q 34.125 64.65625 28.90625 64.65625 
Q 24.703125 64.65625 21.53125 62.3125 
Q 17.390625 59.28125 14.984375 53.46875 
Q 12.59375 47.65625 12.5 36.921875 
Q 15.671875 41.75 20.265625 44.09375 
Q 24.859375 46.4375 29.890625 46.4375 
Q 38.671875 46.4375 44.84375 39.96875 
Q 51.03125 33.5 51.03125 23.25 
Q 51.03125 16.5 48.125 10.71875 
Q 45.21875 4.9375 40.140625 1.859375 
Q 35.0625 -1.21875 28.609375 -1.21875 
Q 17.625 -1.21875 10.6875 6.859375 
Q 3.765625 14.9375 3.765625 33.5 
Q 3.765625 54.25 11.421875 63.671875 
Q 18.109375 71.875 29.4375 71.875 
Q 37.890625 71.875 43.28125 67.140625 
Q 48.6875 62.40625 49.75 54.046875 
z
M 13.875 23.1875 
Q 13.875 18.65625 15.796875 14.5 
Q 17.71875 10.359375 21.1875 8.171875 
Q 24.65625 6 28.46875 6 
Q 34.03125 6 38.03125 10.484375 
Q 42.046875 14.984375 42.046875 22.703125 
Q 42.046875 30.125 38.078125 34.390625 
Q 34.125 38.671875 28.125 38.671875 
Q 22.171875 38.671875 18.015625 34.390625 
Q 13.875 30.125 13.875 23.1875 
z
" id="ArialMT-54"/>
       <path d="M 3.171875 21.484375 
L 3.171875 30.328125 
L 30.171875 30.328125 
L 30.171875 21.484375 
z
" id="ArialMT-45"/>
      </defs>
      <g style="fill:#262626;" transform="translate(103.200536 508.332547)scale(0.16 -0.16)">
       <use xlink:href="#ArialMT-49"/>
       <use x="55.615234" xlink:href="#ArialMT-53"/>
       <use x="111.230469" xlink:href="#ArialMT-48"/>
       <use x="166.845703" xlink:href="#ArialMT-54"/>
       <use x="222.460938" xlink:href="#ArialMT-45"/>
       <use x="255.761719" xlink:href="#ArialMT-49"/>
      </g>
     </g>
    </g>
    <g id="xtick_2">
     <g id="text_2">
      <!-- 1506-2 -->
      <defs>
       <path d="M 50.34375 8.453125 
L 50.34375 0 
L 3.03125 0 
Q 2.9375 3.171875 4.046875 6.109375 
Q 5.859375 10.9375 9.828125 15.625 
Q 13.8125 20.3125 21.34375 26.46875 
Q 33.015625 36.03125 37.109375 41.625 
Q 41.21875 47.21875 41.21875 52.203125 
Q 41.21875 57.421875 37.46875 61 
Q 33.734375 64.59375 27.734375 64.59375 
Q 21.390625 64.59375 17.578125 60.78125 
Q 13.765625 56.984375 13.71875 50.25 
L 4.6875 51.171875 
Q 5.609375 61.28125 11.65625 66.578125 
Q 17.71875 71.875 27.9375 71.875 
Q 38.234375 71.875 44.234375 66.15625 
Q 50.25 60.453125 50.25 52 
Q 50.25 47.703125 48.484375 43.546875 
Q 46.734375 39.40625 42.65625 34.8125 
Q 38.578125 30.21875 29.109375 22.21875 
Q 21.1875 15.578125 18.9375 13.203125 
Q 16.703125 10.84375 15.234375 8.453125 
z
" id="ArialMT-50"/>
      </defs>
      <g style="fill:#262626;" transform="translate(216.636609 508.332547)scale(0.16 -0.16)">
       <use xlink:href="#ArialMT-49"/>
       <use x="55.615234" xlink:href="#ArialMT-53"/>
       <use x="111.230469" xlink:href="#ArialMT-48"/>
       <use x="166.845703" xlink:href="#ArialMT-54"/>
       <use x="222.460938" xlink:href="#ArialMT-45"/>
       <use x="255.761719" xlink:href="#ArialMT-50"/>
      </g>
     </g>
    </g>
    <g id="xtick_3">
     <g id="text_3">
      <!-- 1950-1 -->
      <defs>
       <path d="M 5.46875 16.546875 
L 13.921875 17.328125 
Q 14.984375 11.375 18.015625 8.6875 
Q 21.046875 6 25.78125 6 
Q 29.828125 6 32.875 7.859375 
Q 35.9375 9.71875 37.890625 12.8125 
Q 39.84375 15.921875 41.15625 21.1875 
Q 42.484375 26.46875 42.484375 31.9375 
Q 42.484375 32.515625 42.4375 33.6875 
Q 39.796875 29.5 35.234375 26.875 
Q 30.671875 24.265625 25.34375 24.265625 
Q 16.453125 24.265625 10.296875 30.703125 
Q 4.15625 37.15625 4.15625 47.703125 
Q 4.15625 58.59375 10.578125 65.234375 
Q 17 71.875 26.65625 71.875 
Q 33.640625 71.875 39.421875 68.109375 
Q 45.21875 64.359375 48.21875 57.390625 
Q 51.21875 50.4375 51.21875 37.25 
Q 51.21875 23.53125 48.234375 15.40625 
Q 45.265625 7.28125 39.375 3.03125 
Q 33.5 -1.21875 25.59375 -1.21875 
Q 17.1875 -1.21875 11.859375 3.4375 
Q 6.546875 8.109375 5.46875 16.546875 
z
M 41.453125 48.140625 
Q 41.453125 55.71875 37.421875 60.15625 
Q 33.40625 64.59375 27.734375 64.59375 
Q 21.875 64.59375 17.53125 59.8125 
Q 13.1875 55.03125 13.1875 47.40625 
Q 13.1875 40.578125 17.3125 36.296875 
Q 21.4375 32.03125 27.484375 32.03125 
Q 33.59375 32.03125 37.515625 36.296875 
Q 41.453125 40.578125 41.453125 48.140625 
z
" id="ArialMT-57"/>
      </defs>
      <g style="fill:#262626;" transform="translate(330.072681 508.332547)scale(0.16 -0.16)">
       <use xlink:href="#ArialMT-49"/>
       <use x="55.615234" xlink:href="#ArialMT-57"/>
       <use x="111.230469" xlink:href="#ArialMT-53"/>
       <use x="166.845703" xlink:href="#ArialMT-48"/>
       <use x="222.460938" xlink:href="#ArialMT-45"/>
       <use x="255.761719" xlink:href="#ArialMT-49"/>
      </g>
     </g>
    </g>
    <g id="xtick_4">
     <g id="text_4">
      <!-- 1950-2 -->
      <g style="fill:#262626;" transform="translate(443.508754 508.332547)scale(0.16 -0.16)">
       <use xlink:href="#ArialMT-49"/>
       <use x="55.615234" xlink:href="#ArialMT-57"/>
       <use x="111.230469" xlink:href="#ArialMT-53"/>
       <use x="166.845703" xlink:href="#ArialMT-48"/>
       <use x="222.460938" xlink:href="#ArialMT-45"/>
       <use x="255.761719" xlink:href="#ArialMT-50"/>
      </g>
     </g>
    </g>
    <g id="xtick_5">
     <g id="text_5">
      <!-- 0529-1 -->
      <g style="fill:#262626;" transform="translate(556.944827 508.332547)scale(0.16 -0.16)">
       <use xlink:href="#ArialMT-48"/>
       <use x="55.615234" xlink:href="#ArialMT-53"/>
       <use x="111.230469" xlink:href="#ArialMT-50"/>
       <use x="166.845703" xlink:href="#ArialMT-57"/>
       <use x="222.460938" xlink:href="#ArialMT-45"/>
       <use x="255.761719" xlink:href="#ArialMT-49"/>
      </g>
     </g>
    </g>
    <g id="text_6">
     <!-- Counter id -->
     <defs>
      <path d="M 58.796875 25.09375 
L 68.265625 22.703125 
Q 65.28125 11.03125 57.546875 4.90625 
Q 49.8125 -1.21875 38.625 -1.21875 
Q 27.046875 -1.21875 19.796875 3.484375 
Q 12.546875 8.203125 8.765625 17.140625 
Q 4.984375 26.078125 4.984375 36.328125 
Q 4.984375 47.515625 9.25 55.828125 
Q 13.53125 64.15625 21.40625 68.46875 
Q 29.296875 72.796875 38.765625 72.796875 
Q 49.515625 72.796875 56.828125 67.328125 
Q 64.15625 61.859375 67.046875 51.953125 
L 57.71875 49.75 
Q 55.21875 57.5625 50.484375 61.125 
Q 45.75 64.703125 38.578125 64.703125 
Q 30.328125 64.703125 24.78125 60.734375 
Q 19.234375 56.78125 16.984375 50.109375 
Q 14.75 43.453125 14.75 36.375 
Q 14.75 27.25 17.40625 20.4375 
Q 20.0625 13.625 25.671875 10.25 
Q 31.296875 6.890625 37.84375 6.890625 
Q 45.796875 6.890625 51.3125 11.46875 
Q 56.84375 16.0625 58.796875 25.09375 
z
" id="ArialMT-67"/>
      <path d="M 3.328125 25.921875 
Q 3.328125 40.328125 11.328125 47.265625 
Q 18.015625 53.03125 27.640625 53.03125 
Q 38.328125 53.03125 45.109375 46.015625 
Q 51.90625 39.015625 51.90625 26.65625 
Q 51.90625 16.65625 48.90625 10.90625 
Q 45.90625 5.171875 40.15625 2 
Q 34.421875 -1.171875 27.640625 -1.171875 
Q 16.75 -1.171875 10.03125 5.8125 
Q 3.328125 12.796875 3.328125 25.921875 
z
M 12.359375 25.921875 
Q 12.359375 15.96875 16.703125 11.015625 
Q 21.046875 6.0625 27.640625 6.0625 
Q 34.1875 6.0625 38.53125 11.03125 
Q 42.875 16.015625 42.875 26.21875 
Q 42.875 35.84375 38.5 40.796875 
Q 34.125 45.75 27.640625 45.75 
Q 21.046875 45.75 16.703125 40.8125 
Q 12.359375 35.890625 12.359375 25.921875 
z
" id="ArialMT-111"/>
      <path d="M 40.578125 0 
L 40.578125 7.625 
Q 34.515625 -1.171875 24.125 -1.171875 
Q 19.53125 -1.171875 15.546875 0.578125 
Q 11.578125 2.34375 9.640625 5 
Q 7.71875 7.671875 6.9375 11.53125 
Q 6.390625 14.109375 6.390625 19.734375 
L 6.390625 51.859375 
L 15.1875 51.859375 
L 15.1875 23.09375 
Q 15.1875 16.21875 15.71875 13.8125 
Q 16.546875 10.359375 19.234375 8.375 
Q 21.921875 6.390625 25.875 6.390625 
Q 29.828125 6.390625 33.296875 8.421875 
Q 36.765625 10.453125 38.203125 13.9375 
Q 39.65625 17.4375 39.65625 24.078125 
L 39.65625 51.859375 
L 48.4375 51.859375 
L 48.4375 0 
z
" id="ArialMT-117"/>
      <path d="M 6.59375 0 
L 6.59375 51.859375 
L 14.5 51.859375 
L 14.5 44.484375 
Q 20.21875 53.03125 31 53.03125 
Q 35.6875 53.03125 39.625 51.34375 
Q 43.5625 49.65625 45.515625 46.921875 
Q 47.46875 44.1875 48.25 40.4375 
Q 48.734375 37.984375 48.734375 31.890625 
L 48.734375 0 
L 39.9375 0 
L 39.9375 31.546875 
Q 39.9375 36.921875 38.90625 39.578125 
Q 37.890625 42.234375 35.28125 43.8125 
Q 32.671875 45.40625 29.15625 45.40625 
Q 23.53125 45.40625 19.453125 41.84375 
Q 15.375 38.28125 15.375 28.328125 
L 15.375 0 
z
" id="ArialMT-110"/>
      <path d="M 25.78125 7.859375 
L 27.046875 0.09375 
Q 23.34375 -0.6875 20.40625 -0.6875 
Q 15.625 -0.6875 12.984375 0.828125 
Q 10.359375 2.34375 9.28125 4.8125 
Q 8.203125 7.28125 8.203125 15.1875 
L 8.203125 45.015625 
L 1.765625 45.015625 
L 1.765625 51.859375 
L 8.203125 51.859375 
L 8.203125 64.703125 
L 16.9375 69.96875 
L 16.9375 51.859375 
L 25.78125 51.859375 
L 25.78125 45.015625 
L 16.9375 45.015625 
L 16.9375 14.703125 
Q 16.9375 10.9375 17.40625 9.859375 
Q 17.875 8.796875 18.921875 8.15625 
Q 19.96875 7.515625 21.921875 7.515625 
Q 23.390625 7.515625 25.78125 7.859375 
z
" id="ArialMT-116"/>
      <path d="M 42.09375 16.703125 
L 51.171875 15.578125 
Q 49.03125 7.625 43.21875 3.21875 
Q 37.40625 -1.171875 28.375 -1.171875 
Q 17 -1.171875 10.328125 5.828125 
Q 3.65625 12.84375 3.65625 25.484375 
Q 3.65625 38.578125 10.390625 45.796875 
Q 17.140625 53.03125 27.875 53.03125 
Q 38.28125 53.03125 44.875 45.953125 
Q 51.46875 38.875 51.46875 26.03125 
Q 51.46875 25.25 51.421875 23.6875 
L 12.75 23.6875 
Q 13.234375 15.140625 17.578125 10.59375 
Q 21.921875 6.0625 28.421875 6.0625 
Q 33.25 6.0625 36.671875 8.59375 
Q 40.09375 11.140625 42.09375 16.703125 
z
M 13.234375 30.90625 
L 42.1875 30.90625 
Q 41.609375 37.453125 38.875 40.71875 
Q 34.671875 45.796875 27.984375 45.796875 
Q 21.921875 45.796875 17.796875 41.75 
Q 13.671875 37.703125 13.234375 30.90625 
z
" id="ArialMT-101"/>
      <path d="M 6.5 0 
L 6.5 51.859375 
L 14.40625 51.859375 
L 14.40625 44 
Q 17.4375 49.515625 20 51.265625 
Q 22.5625 53.03125 25.640625 53.03125 
Q 30.078125 53.03125 34.671875 50.203125 
L 31.640625 42.046875 
Q 28.421875 43.953125 25.203125 43.953125 
Q 22.3125 43.953125 20.015625 42.21875 
Q 17.71875 40.484375 16.75 37.40625 
Q 15.28125 32.71875 15.28125 27.15625 
L 15.28125 0 
z
" id="ArialMT-114"/>
      <path id="ArialMT-32"/>
      <path d="M 6.640625 61.46875 
L 6.640625 71.578125 
L 15.4375 71.578125 
L 15.4375 61.46875 
z
M 6.640625 0 
L 6.640625 51.859375 
L 15.4375 51.859375 
L 15.4375 0 
z
" id="ArialMT-105"/>
      <path d="M 40.234375 0 
L 40.234375 6.546875 
Q 35.296875 -1.171875 25.734375 -1.171875 
Q 19.53125 -1.171875 14.328125 2.25 
Q 9.125 5.671875 6.265625 11.796875 
Q 3.421875 17.921875 3.421875 25.875 
Q 3.421875 33.640625 6 39.96875 
Q 8.59375 46.296875 13.765625 49.65625 
Q 18.953125 53.03125 25.34375 53.03125 
Q 30.03125 53.03125 33.6875 51.046875 
Q 37.359375 49.078125 39.65625 45.90625 
L 39.65625 71.578125 
L 48.390625 71.578125 
L 48.390625 0 
z
M 12.453125 25.875 
Q 12.453125 15.921875 16.640625 10.984375 
Q 20.84375 6.0625 26.5625 6.0625 
Q 32.328125 6.0625 36.34375 10.765625 
Q 40.375 15.484375 40.375 25.140625 
Q 40.375 35.796875 36.265625 40.765625 
Q 32.171875 45.75 26.171875 45.75 
Q 20.3125 45.75 16.375 40.96875 
Q 12.453125 36.1875 12.453125 25.875 
z
" id="ArialMT-100"/>
     </defs>
     <g style="fill:#262626;" transform="translate(318.072681 526.965047)scale(0.16 -0.16)">
      <use xlink:href="#ArialMT-67"/>
      <use x="72.216797" xlink:href="#ArialMT-111"/>
      <use x="127.832031" xlink:href="#ArialMT-117"/>
      <use x="183.447266" xlink:href="#ArialMT-110"/>
      <use x="239.0625" xlink:href="#ArialMT-116"/>
      <use x="266.845703" xlink:href="#ArialMT-101"/>
      <use x="322.460938" xlink:href="#ArialMT-114"/>
      <use x="355.761719" xlink:href="#ArialMT-32"/>
      <use x="383.544922" xlink:href="#ArialMT-105"/>
      <use x="405.761719" xlink:href="#ArialMT-100"/>
     </g>
    </g>
   </g>
   <g id="matplotlib.axis_2">
    <g id="ytick_1">
     <g id="text_7">
      <!-- 0 -->
      <g style="fill:#262626;" transform="translate(55.4925 472.537141)scale(0.16 -0.16)">
       <use xlink:href="#ArialMT-48"/>
      </g>
     </g>
    </g>
    <g id="ytick_2">
     <g id="text_8">
      <!-- 200 -->
      <g style="fill:#262626;" transform="translate(37.6975 381.989468)scale(0.16 -0.16)">
       <use xlink:href="#ArialMT-50"/>
       <use x="55.615234" xlink:href="#ArialMT-48"/>
       <use x="111.230469" xlink:href="#ArialMT-48"/>
      </g>
     </g>
    </g>
    <g id="ytick_3">
     <g id="text_9">
      <!-- 400 -->
      <defs>
       <path d="M 32.328125 0 
L 32.328125 17.140625 
L 1.265625 17.140625 
L 1.265625 25.203125 
L 33.9375 71.578125 
L 41.109375 71.578125 
L 41.109375 25.203125 
L 50.78125 25.203125 
L 50.78125 17.140625 
L 41.109375 17.140625 
L 41.109375 0 
z
M 32.328125 25.203125 
L 32.328125 57.46875 
L 9.90625 25.203125 
z
" id="ArialMT-52"/>
      </defs>
      <g style="fill:#262626;" transform="translate(37.6975 291.441795)scale(0.16 -0.16)">
       <use xlink:href="#ArialMT-52"/>
       <use x="55.615234" xlink:href="#ArialMT-48"/>
       <use x="111.230469" xlink:href="#ArialMT-48"/>
      </g>
     </g>
    </g>
    <g id="ytick_4">
     <g id="text_10">
      <!-- 600 -->
      <g style="fill:#262626;" transform="translate(37.6975 200.894122)scale(0.16 -0.16)">
       <use xlink:href="#ArialMT-54"/>
       <use x="55.615234" xlink:href="#ArialMT-48"/>
       <use x="111.230469" xlink:href="#ArialMT-48"/>
      </g>
     </g>
    </g>
    <g id="ytick_5">
     <g id="text_11">
      <!-- 800 -->
      <defs>
       <path d="M 17.671875 38.8125 
Q 12.203125 40.828125 9.5625 44.53125 
Q 6.9375 48.25 6.9375 53.421875 
Q 6.9375 61.234375 12.546875 66.546875 
Q 18.171875 71.875 27.484375 71.875 
Q 36.859375 71.875 42.578125 66.421875 
Q 48.296875 60.984375 48.296875 53.171875 
Q 48.296875 48.1875 45.671875 44.5 
Q 43.0625 40.828125 37.75 38.8125 
Q 44.34375 36.671875 47.78125 31.875 
Q 51.21875 27.09375 51.21875 20.453125 
Q 51.21875 11.28125 44.71875 5.03125 
Q 38.234375 -1.21875 27.640625 -1.21875 
Q 17.046875 -1.21875 10.546875 5.046875 
Q 4.046875 11.328125 4.046875 20.703125 
Q 4.046875 27.6875 7.59375 32.390625 
Q 11.140625 37.109375 17.671875 38.8125 
z
M 15.921875 53.71875 
Q 15.921875 48.640625 19.1875 45.40625 
Q 22.46875 42.1875 27.6875 42.1875 
Q 32.765625 42.1875 36.015625 45.375 
Q 39.265625 48.578125 39.265625 53.21875 
Q 39.265625 58.0625 35.90625 61.359375 
Q 32.5625 64.65625 27.59375 64.65625 
Q 22.5625 64.65625 19.234375 61.421875 
Q 15.921875 58.203125 15.921875 53.71875 
z
M 13.09375 20.65625 
Q 13.09375 16.890625 14.875 13.375 
Q 16.65625 9.859375 20.171875 7.921875 
Q 23.6875 6 27.734375 6 
Q 34.03125 6 38.125 10.046875 
Q 42.234375 14.109375 42.234375 20.359375 
Q 42.234375 26.703125 38.015625 30.859375 
Q 33.796875 35.015625 27.4375 35.015625 
Q 21.234375 35.015625 17.15625 30.90625 
Q 13.09375 26.8125 13.09375 20.65625 
z
" id="ArialMT-56"/>
      </defs>
      <g style="fill:#262626;" transform="translate(37.6975 110.346449)scale(0.16 -0.16)">
       <use xlink:href="#ArialMT-56"/>
       <use x="55.615234" xlink:href="#ArialMT-48"/>
       <use x="111.230469" xlink:href="#ArialMT-48"/>
      </g>
     </g>
    </g>
    <g id="ytick_6">
     <g id="text_12">
      <!-- 1000 -->
      <g style="fill:#262626;" transform="translate(28.8 19.798777)scale(0.16 -0.16)">
       <use xlink:href="#ArialMT-49"/>
       <use x="55.615234" xlink:href="#ArialMT-48"/>
       <use x="111.230469" xlink:href="#ArialMT-48"/>
       <use x="166.845703" xlink:href="#ArialMT-48"/>
      </g>
     </g>
    </g>
    <g id="text_13">
     <!-- Count [$h^{-1}$] -->
     <defs>
      <path d="M 6.78125 -19.875 
L 6.78125 71.578125 
L 26.171875 71.578125 
L 26.171875 64.3125 
L 15.578125 64.3125 
L 15.578125 -12.59375 
L 26.171875 -12.59375 
L 26.171875 -19.875 
z
" id="ArialMT-91"/>
      <path d="M 55.71875 33.015625 
L 49.3125 0 
L 40.28125 0 
L 46.6875 32.671875 
Q 47.125 34.96875 47.359375 36.71875 
Q 47.609375 38.484375 47.609375 39.5 
Q 47.609375 43.609375 45.015625 45.890625 
Q 42.4375 48.1875 37.796875 48.1875 
Q 30.5625 48.1875 25.265625 43.296875 
Q 19.96875 38.421875 18.40625 30.328125 
L 12.5 0 
L 3.515625 0 
L 18.3125 75.984375 
L 27.296875 75.984375 
L 21.484375 46.09375 
Q 24.90625 50.6875 30.21875 53.34375 
Q 35.546875 56 41.40625 56 
Q 48.640625 56 52.609375 52.09375 
Q 56.59375 48.1875 56.59375 41.109375 
Q 56.59375 39.359375 56.375 37.359375 
Q 56.15625 35.359375 55.71875 33.015625 
z
" id="DejaVuSans-Oblique-104"/>
      <path d="M 10.59375 35.5 
L 73.1875 35.5 
L 73.1875 27.203125 
L 10.59375 27.203125 
z
" id="DejaVuSans-8722"/>
      <path d="M 12.40625 8.296875 
L 28.515625 8.296875 
L 28.515625 63.921875 
L 10.984375 60.40625 
L 10.984375 69.390625 
L 28.421875 72.90625 
L 38.28125 72.90625 
L 38.28125 8.296875 
L 54.390625 8.296875 
L 54.390625 0 
L 12.40625 0 
z
" id="DejaVuSans-49"/>
      <path d="M 21.296875 -19.875 
L 1.90625 -19.875 
L 1.90625 -12.59375 
L 12.5 -12.59375 
L 12.5 64.3125 
L 1.90625 64.3125 
L 1.90625 71.578125 
L 21.296875 71.578125 
z
" id="ArialMT-93"/>
     </defs>
     <g style="fill:#262626;" transform="translate(21.6 290.700024)rotate(-90)scale(0.16 -0.16)">
      <use transform="translate(0 0.684375)" xlink:href="#ArialMT-67"/>
      <use transform="translate(72.216797 0.684375)" xlink:href="#ArialMT-111"/>
      <use transform="translate(127.832031 0.684375)" xlink:href="#ArialMT-117"/>
      <use transform="translate(183.447266 0.684375)" xlink:href="#ArialMT-110"/>
      <use transform="translate(239.0625 0.684375)" xlink:href="#ArialMT-116"/>
      <use transform="translate(266.845703 0.684375)" xlink:href="#ArialMT-32"/>
      <use transform="translate(294.628906 0.684375)" xlink:href="#ArialMT-91"/>
      <use transform="translate(322.412109 0.684375)" xlink:href="#DejaVuSans-Oblique-104"/>
      <use transform="translate(393.238724 38.965625)scale(0.7)" xlink:href="#DejaVuSans-8722"/>
      <use transform="translate(451.891068 38.965625)scale(0.7)" xlink:href="#DejaVuSans-49"/>
      <use transform="translate(499.161576 0.684375)" xlink:href="#ArialMT-93"/>
     </g>
    </g>
   </g>
   <g id="PolyCollection_1">
    <defs>
     <path d="M 109.523919 -73.139845 
L 101.317725 -73.139845 
L 100.772972 -74.277346 
L 100.214575 -75.414846 
L 99.650583 -76.552347 
L 99.088788 -77.689847 
L 98.536232 -78.827348 
L 97.99876 -79.964849 
L 97.480678 -81.102349 
L 96.984536 -82.23985 
L 96.511079 -83.37735 
L 96.059357 -84.514851 
L 95.626989 -85.652351 
L 95.210549 -86.789852 
L 94.806027 -87.927353 
L 94.409298 -89.064853 
L 94.01656 -90.202354 
L 93.624659 -91.339854 
L 93.231293 -92.477355 
L 92.835059 -93.614856 
L 92.435356 -94.752356 
L 92.032173 -95.889857 
L 91.625808 -97.027357 
L 91.216571 -98.164858 
L 90.804522 -99.302359 
L 90.389294 -100.439859 
L 89.970028 -101.57736 
L 89.545431 -102.71486 
L 89.113946 -103.852361 
L 88.674016 -104.989861 
L 88.224395 -106.127362 
L 87.76448 -107.264863 
L 87.294606 -108.402363 
L 86.816303 -109.539864 
L 86.33247 -110.677364 
L 85.847465 -111.814865 
L 85.367121 -112.952366 
L 84.89868 -114.089866 
L 84.450655 -115.227367 
L 84.032618 -116.364867 
L 83.654915 -117.502368 
L 83.328296 -118.639868 
L 83.063448 -119.777369 
L 82.870457 -120.91487 
L 82.758182 -122.05237 
L 82.733607 -123.189871 
L 82.801218 -124.327371 
L 82.96247 -125.464872 
L 83.21544 -126.602373 
L 83.554728 -127.739873 
L 83.971651 -128.877374 
L 84.454755 -130.014874 
L 84.990605 -131.152375 
L 85.564781 -132.289876 
L 86.162968 -133.427376 
L 86.772009 -134.564877 
L 87.380788 -135.702377 
L 87.980834 -136.839878 
L 88.566574 -137.977378 
L 89.135222 -139.114879 
L 89.686325 -140.25238 
L 90.221067 -141.38988 
L 90.741435 -142.527381 
L 91.249372 -143.664881 
L 91.746055 -144.802382 
L 92.231369 -145.939883 
L 92.70367 -147.077383 
L 93.159824 -148.214884 
L 93.595531 -149.352384 
L 94.005851 -150.489885 
L 94.385886 -151.627385 
L 94.731505 -152.764886 
L 95.040031 -153.902387 
L 95.310812 -155.039887 
L 95.545596 -156.177388 
L 95.74867 -157.314888 
L 95.926729 -158.452389 
L 96.088488 -159.58989 
L 96.244052 -160.72739 
L 96.404118 -161.864891 
L 96.579068 -163.002391 
L 96.778074 -164.139892 
L 97.008292 -165.277393 
L 97.274259 -166.414893 
L 97.577544 -167.552394 
L 97.916715 -168.689894 
L 98.28761 -169.827395 
L 98.683871 -170.964895 
L 99.097685 -172.102396 
L 99.520604 -173.239897 
L 99.944373 -174.377397 
L 100.36163 -175.514898 
L 100.766429 -176.652398 
L 101.154521 -177.789899 
L 101.523394 -178.9274 
L 101.872094 -180.0649 
L 102.200886 -181.202401 
L 102.510828 -182.339901 
L 102.80332 -183.477402 
L 103.079715 -184.614902 
L 103.341026 -185.752403 
L 107.500618 -185.752403 
L 107.500618 -185.752403 
L 107.761929 -184.614902 
L 108.038324 -183.477402 
L 108.330815 -182.339901 
L 108.640757 -181.202401 
L 108.96955 -180.0649 
L 109.31825 -178.9274 
L 109.687122 -177.789899 
L 110.075214 -176.652398 
L 110.480013 -175.514898 
L 110.89727 -174.377397 
L 111.321039 -173.239897 
L 111.743959 -172.102396 
L 112.157772 -170.964895 
L 112.554034 -169.827395 
L 112.924928 -168.689894 
L 113.2641 -167.552394 
L 113.567384 -166.414893 
L 113.833351 -165.277393 
L 114.06357 -164.139892 
L 114.262576 -163.002391 
L 114.437526 -161.864891 
L 114.597591 -160.72739 
L 114.753156 -159.58989 
L 114.914915 -158.452389 
L 115.092974 -157.314888 
L 115.296047 -156.177388 
L 115.530832 -155.039887 
L 115.801613 -153.902387 
L 116.110139 -152.764886 
L 116.455758 -151.627385 
L 116.835793 -150.489885 
L 117.246113 -149.352384 
L 117.681819 -148.214884 
L 118.137974 -147.077383 
L 118.610274 -145.939883 
L 119.095589 -144.802382 
L 119.592271 -143.664881 
L 120.100209 -142.527381 
L 120.620577 -141.38988 
L 121.155319 -140.25238 
L 121.706422 -139.114879 
L 122.275069 -137.977378 
L 122.86081 -136.839878 
L 123.460856 -135.702377 
L 124.069634 -134.564877 
L 124.678675 -133.427376 
L 125.276862 -132.289876 
L 125.851038 -131.152375 
L 126.386888 -130.014874 
L 126.869992 -128.877374 
L 127.286915 -127.739873 
L 127.626203 -126.602373 
L 127.879174 -125.464872 
L 128.040426 -124.327371 
L 128.108036 -123.189871 
L 128.083462 -122.05237 
L 127.971186 -120.91487 
L 127.778195 -119.777369 
L 127.513348 -118.639868 
L 127.186728 -117.502368 
L 126.809026 -116.364867 
L 126.390989 -115.227367 
L 125.942964 -114.089866 
L 125.474523 -112.952366 
L 124.994179 -111.814865 
L 124.509173 -110.677364 
L 124.02534 -109.539864 
L 123.547038 -108.402363 
L 123.077164 -107.264863 
L 122.617248 -106.127362 
L 122.167628 -104.989861 
L 121.727698 -103.852361 
L 121.296213 -102.71486 
L 120.871615 -101.57736 
L 120.452349 -100.439859 
L 120.037121 -99.302359 
L 119.625072 -98.164858 
L 119.215835 -97.027357 
L 118.809471 -95.889857 
L 118.406288 -94.752356 
L 118.006584 -93.614856 
L 117.610351 -92.477355 
L 117.216985 -91.339854 
L 116.825084 -90.202354 
L 116.432345 -89.064853 
L 116.035617 -87.927353 
L 115.631094 -86.789852 
L 115.214654 -85.652351 
L 114.782286 -84.514851 
L 114.330565 -83.37735 
L 113.857108 -82.23985 
L 113.360966 -81.102349 
L 112.842883 -79.964849 
L 112.305411 -78.827348 
L 111.752855 -77.689847 
L 111.191061 -76.552347 
L 110.627068 -75.414846 
L 110.068671 -74.277346 
L 109.523919 -73.139845 
z
" id="m308f22adbb" style="stroke:#141414;stroke-width:1.5;"/>
    </defs>
    <g clip-path="url(#p5333e08ccc)">
     <use style="fill:#083c1d;stroke:#141414;stroke-width:1.5;" x="0" xlink:href="#m308f22adbb" y="537.345047"/>
    </g>
   </g>
   <g id="PolyCollection_2">
    <defs>
     <path d="M 151.638382 -73.333398 
L 149.952119 -73.333398 
L 149.800444 -75.075933 
L 149.634181 -76.818469 
L 149.449877 -78.561004 
L 149.24225 -80.30354 
L 149.004493 -82.046075 
L 148.729016 -83.788611 
L 148.408571 -85.531146 
L 148.037599 -87.273682 
L 147.613546 -89.016217 
L 147.137857 -90.758752 
L 146.616358 -92.501288 
L 146.058845 -94.243823 
L 145.477845 -95.986359 
L 144.886721 -97.728894 
L 144.29747 -99.47143 
L 143.71865 -101.213965 
L 143.15392 -102.956501 
L 142.601525 -104.699036 
L 142.054883 -106.441572 
L 141.504205 -108.184107 
L 140.938812 -109.926643 
L 140.349722 -111.669178 
L 139.731959 -113.411714 
L 139.08614 -115.154249 
L 138.41901 -116.896785 
L 137.74282 -118.63932 
L 137.073674 -120.381856 
L 136.429178 -122.124391 
L 135.825903 -123.866927 
L 135.277166 -125.609462 
L 134.791634 -127.351998 
L 134.372984 -129.094533 
L 134.02068 -130.837069 
L 133.731578 -132.579604 
L 133.501924 -134.32214 
L 133.329162 -136.064675 
L 133.213073 -137.807211 
L 133.155934 -139.549746 
L 133.161665 -141.292281 
L 133.234252 -143.034817 
L 133.375896 -144.777352 
L 133.585449 -146.519888 
L 133.857582 -148.262423 
L 134.182912 -150.004959 
L 134.549045 -151.747494 
L 134.942268 -153.49003 
L 135.349432 -155.232565 
L 135.759637 -156.975101 
L 136.165363 -158.717636 
L 136.562925 -160.460172 
L 136.952262 -162.202707 
L 137.336222 -163.945243 
L 137.719537 -165.687778 
L 138.107691 -167.430314 
L 138.505846 -169.172849 
L 138.917931 -170.915385 
L 139.34599 -172.65792 
L 139.789863 -174.400456 
L 140.247212 -176.142991 
L 140.71393 -177.885527 
L 141.184821 -179.628062 
L 141.654451 -181.370598 
L 142.117951 -183.113133 
L 142.571598 -184.855669 
L 143.013028 -186.598204 
L 143.441027 -188.340739 
L 143.855004 -190.083275 
L 144.254313 -191.82581 
L 144.637674 -193.568346 
L 145.002867 -195.310881 
L 145.346824 -197.053417 
L 145.666067 -198.795952 
L 145.957342 -200.538488 
L 146.218231 -202.281023 
L 146.447554 -204.023559 
L 146.645453 -205.766094 
L 146.813183 -207.50863 
L 146.952756 -209.251165 
L 147.066594 -210.993701 
L 147.157362 -212.736236 
L 147.228015 -214.478772 
L 147.282033 -216.221307 
L 147.323676 -217.963843 
L 147.358122 -219.706378 
L 147.391356 -221.448914 
L 147.429793 -223.191449 
L 147.479697 -224.933985 
L 147.546556 -226.67652 
L 147.634543 -228.419056 
L 147.746203 -230.161591 
L 147.882377 -231.904127 
L 148.042345 -233.646662 
L 148.224076 -235.389197 
L 148.424495 -237.131733 
L 148.639701 -238.874268 
L 148.865108 -240.616804 
L 149.095572 -242.359339 
L 149.325542 -244.101875 
L 149.549306 -245.84441 
L 152.041196 -245.84441 
L 152.041196 -245.84441 
L 152.264959 -244.101875 
L 152.494929 -242.359339 
L 152.725394 -240.616804 
L 152.950801 -238.874268 
L 153.166006 -237.131733 
L 153.366426 -235.389197 
L 153.548156 -233.646662 
L 153.708124 -231.904127 
L 153.844298 -230.161591 
L 153.955958 -228.419056 
L 154.043946 -226.67652 
L 154.110804 -224.933985 
L 154.160709 -223.191449 
L 154.199145 -221.448914 
L 154.23238 -219.706378 
L 154.266826 -217.963843 
L 154.308469 -216.221307 
L 154.362487 -214.478772 
L 154.43314 -212.736236 
L 154.523907 -210.993701 
L 154.637746 -209.251165 
L 154.777319 -207.50863 
L 154.945049 -205.766094 
L 155.142947 -204.023559 
L 155.372271 -202.281023 
L 155.63316 -200.538488 
L 155.924435 -198.795952 
L 156.243678 -197.053417 
L 156.587635 -195.310881 
L 156.952828 -193.568346 
L 157.336188 -191.82581 
L 157.735498 -190.083275 
L 158.149474 -188.340739 
L 158.577473 -186.598204 
L 159.018903 -184.855669 
L 159.472551 -183.113133 
L 159.936051 -181.370598 
L 160.40568 -179.628062 
L 160.876572 -177.885527 
L 161.343289 -176.142991 
L 161.800639 -174.400456 
L 162.244511 -172.65792 
L 162.672571 -170.915385 
L 163.084655 -169.172849 
L 163.482811 -167.430314 
L 163.870965 -165.687778 
L 164.25428 -163.945243 
L 164.63824 -162.202707 
L 165.027577 -160.460172 
L 165.425139 -158.717636 
L 165.830865 -156.975101 
L 166.24107 -155.232565 
L 166.648234 -153.49003 
L 167.041456 -151.747494 
L 167.40759 -150.004959 
L 167.732919 -148.262423 
L 168.005053 -146.519888 
L 168.214606 -144.777352 
L 168.35625 -143.034817 
L 168.428837 -141.292281 
L 168.434568 -139.549746 
L 168.377428 -137.807211 
L 168.261339 -136.064675 
L 168.088577 -134.32214 
L 167.858923 -132.579604 
L 167.569822 -130.837069 
L 167.217518 -129.094533 
L 166.798868 -127.351998 
L 166.313335 -125.609462 
L 165.764599 -123.866927 
L 165.161323 -122.124391 
L 164.516828 -120.381856 
L 163.847681 -118.63932 
L 163.171492 -116.896785 
L 162.504362 -115.154249 
L 161.858543 -113.411714 
L 161.24078 -111.669178 
L 160.65169 -109.926643 
L 160.086297 -108.184107 
L 159.535618 -106.441572 
L 158.988977 -104.699036 
L 158.436581 -102.956501 
L 157.871852 -101.213965 
L 157.293032 -99.47143 
L 156.70378 -97.728894 
L 156.112657 -95.986359 
L 155.531656 -94.243823 
L 154.974144 -92.501288 
L 154.452645 -90.758752 
L 153.976956 -89.016217 
L 153.552902 -87.273682 
L 153.18193 -85.531146 
L 152.861486 -83.788611 
L 152.586009 -82.046075 
L 152.348251 -80.30354 
L 152.140624 -78.561004 
L 151.956321 -76.818469 
L 151.790058 -75.075933 
L 151.638382 -73.333398 
z
" id="m72ef7821a2" style="stroke:#141414;stroke-width:1.5;"/>
    </defs>
    <g clip-path="url(#p5333e08ccc)">
     <use style="fill:#0e5f2f;stroke:#141414;stroke-width:1.5;" x="0" xlink:href="#m72ef7821a2" y="537.345047"/>
    </g>
   </g>
   <g id="PolyCollection_3">
    <defs>
     <path d="M 222.006755 -72.366144 
L 215.707034 -72.366144 
L 215.128621 -73.544304 
L 214.533377 -74.722465 
L 213.938536 -75.900625 
L 213.36057 -77.078785 
L 212.813298 -78.256946 
L 212.306226 -79.435106 
L 211.843386 -80.613266 
L 211.422868 -81.791427 
L 211.037126 -82.969587 
L 210.674012 -84.147748 
L 210.318362 -85.325908 
L 209.953837 -86.504068 
L 209.564692 -87.682229 
L 209.137164 -88.860389 
L 208.660284 -90.038549 
L 208.126073 -91.21671 
L 207.529256 -92.39487 
L 206.866768 -93.57303 
L 206.137351 -94.751191 
L 205.341543 -95.929351 
L 204.482196 -97.107511 
L 203.565478 -98.285672 
L 202.602161 -99.463832 
L 201.608817 -100.641993 
L 200.608524 -101.820153 
L 199.630708 -102.998313 
L 198.709889 -104.176474 
L 197.883317 -105.354634 
L 197.187713 -106.532794 
L 196.655565 -107.710955 
L 196.311545 -108.889115 
L 196.16968 -110.067275 
L 196.231761 -111.245436 
L 196.487297 -112.423596 
L 196.914993 -113.601756 
L 197.485516 -114.779917 
L 198.165048 -115.958077 
L 198.919084 -117.136238 
L 199.715922 -118.314398 
L 200.52938 -119.492558 
L 201.340463 -120.670719 
L 202.137808 -121.848879 
L 202.916948 -123.027039 
L 203.678552 -124.2052 
L 204.426008 -125.38336 
L 205.162776 -126.56152 
L 205.890068 -127.739681 
L 206.605337 -128.917841 
L 207.301918 -130.096001 
L 207.96991 -131.274162 
L 208.598074 -132.452322 
L 209.176286 -133.630483 
L 209.697909 -134.808643 
L 210.161476 -135.986803 
L 210.571252 -137.164964 
L 210.936534 -138.343124 
L 211.269858 -139.521284 
L 211.584549 -140.699445 
L 211.892207 -141.877605 
L 212.200676 -143.055765 
L 212.512946 -144.233926 
L 212.827176 -145.412086 
L 213.137751 -146.590246 
L 213.437106 -147.768407 
L 213.717835 -148.946567 
L 213.974647 -150.124728 
L 214.205728 -151.302888 
L 214.413282 -152.481048 
L 214.603186 -153.659209 
L 214.783908 -154.837369 
L 214.964955 -156.015529 
L 215.155226 -157.19369 
L 215.361584 -158.37185 
L 215.587893 -159.55001 
L 215.834639 -160.728171 
L 216.099107 -161.906331 
L 216.375981 -163.084491 
L 216.658197 -164.262652 
L 216.937865 -165.440812 
L 217.207124 -166.618973 
L 217.458855 -167.797133 
L 217.687212 -168.975293 
L 217.887977 -170.153454 
L 218.058753 -171.331614 
L 218.198981 -172.509774 
L 218.309816 -173.687935 
L 218.393848 -174.866095 
L 218.454716 -176.044255 
L 218.49665 -177.222416 
L 218.524018 -178.400576 
L 218.540947 -179.578736 
L 218.551047 -180.756897 
L 218.55729 -181.935057 
L 218.562002 -183.113218 
L 218.566943 -184.291378 
L 218.573416 -185.469538 
L 218.582357 -186.647699 
L 218.594381 -187.825859 
L 218.609786 -189.004019 
L 219.104003 -189.004019 
L 219.104003 -189.004019 
L 219.119408 -187.825859 
L 219.131432 -186.647699 
L 219.140372 -185.469538 
L 219.146845 -184.291378 
L 219.151787 -183.113218 
L 219.156499 -181.935057 
L 219.162742 -180.756897 
L 219.172842 -179.578736 
L 219.18977 -178.400576 
L 219.217139 -177.222416 
L 219.259073 -176.044255 
L 219.319941 -174.866095 
L 219.403973 -173.687935 
L 219.514808 -172.509774 
L 219.655036 -171.331614 
L 219.825811 -170.153454 
L 220.026577 -168.975293 
L 220.254934 -167.797133 
L 220.506665 -166.618973 
L 220.775924 -165.440812 
L 221.055592 -164.262652 
L 221.337808 -163.084491 
L 221.614682 -161.906331 
L 221.87915 -160.728171 
L 222.125896 -159.55001 
L 222.352204 -158.37185 
L 222.558562 -157.19369 
L 222.748834 -156.015529 
L 222.929881 -154.837369 
L 223.110602 -153.659209 
L 223.300507 -152.481048 
L 223.508061 -151.302888 
L 223.739142 -150.124728 
L 223.995954 -148.946567 
L 224.276683 -147.768407 
L 224.576037 -146.590246 
L 224.886613 -145.412086 
L 225.200843 -144.233926 
L 225.513113 -143.055765 
L 225.821582 -141.877605 
L 226.129239 -140.699445 
L 226.443931 -139.521284 
L 226.777254 -138.343124 
L 227.142536 -137.164964 
L 227.552312 -135.986803 
L 228.015879 -134.808643 
L 228.537503 -133.630483 
L 229.115715 -132.452322 
L 229.743879 -131.274162 
L 230.41187 -130.096001 
L 231.108452 -128.917841 
L 231.823721 -127.739681 
L 232.551013 -126.56152 
L 233.28778 -125.38336 
L 234.035237 -124.2052 
L 234.796841 -123.027039 
L 235.57598 -121.848879 
L 236.373326 -120.670719 
L 237.184409 -119.492558 
L 237.997867 -118.314398 
L 238.794704 -117.136238 
L 239.548741 -115.958077 
L 240.228273 -114.779917 
L 240.798796 -113.601756 
L 241.226492 -112.423596 
L 241.482027 -111.245436 
L 241.544109 -110.067275 
L 241.402243 -108.889115 
L 241.058223 -107.710955 
L 240.526075 -106.532794 
L 239.830472 -105.354634 
L 239.0039 -104.176474 
L 238.083081 -102.998313 
L 237.105264 -101.820153 
L 236.104972 -100.641993 
L 235.111628 -99.463832 
L 234.148311 -98.285672 
L 233.231593 -97.107511 
L 232.372246 -95.929351 
L 231.576438 -94.751191 
L 230.847021 -93.57303 
L 230.184532 -92.39487 
L 229.587716 -91.21671 
L 229.053504 -90.038549 
L 228.576624 -88.860389 
L 228.149096 -87.682229 
L 227.759951 -86.504068 
L 227.395426 -85.325908 
L 227.039776 -84.147748 
L 226.676662 -82.969587 
L 226.29092 -81.791427 
L 225.870403 -80.613266 
L 225.407563 -79.435106 
L 224.900491 -78.256946 
L 224.353218 -77.078785 
L 223.775253 -75.900625 
L 223.180412 -74.722465 
L 222.585168 -73.544304 
L 222.006755 -72.366144 
z
" id="mf6966eccbd" style="stroke:#141414;stroke-width:1.5;"/>
    </defs>
    <g clip-path="url(#p5333e08ccc)">
     <use style="fill:#083c1d;stroke:#141414;stroke-width:1.5;" x="0" xlink:href="#mf6966eccbd" y="537.345047"/>
    </g>
   </g>
   <g id="PolyCollection_4">
    <defs>
     <path d="M 265.036503 -71.977147 
L 263.426144 -71.977147 
L 263.241653 -73.771324 
L 263.03551 -75.5655 
L 262.804851 -77.359676 
L 262.544624 -79.153853 
L 262.247584 -80.948029 
L 261.904635 -82.742206 
L 261.505433 -84.536382 
L 261.03911 -86.330558 
L 260.495054 -88.124735 
L 259.863793 -89.918911 
L 259.138084 -91.713087 
L 258.314313 -93.507264 
L 257.394163 -95.30144 
L 256.386268 -97.095616 
L 255.30736 -98.889793 
L 254.182393 -100.683969 
L 253.043268 -102.478145 
L 251.926204 -104.272322 
L 250.86822 -106.066498 
L 249.903524 -107.860674 
L 249.060623 -109.654851 
L 248.360734 -111.449027 
L 247.817569 -113.243203 
L 247.438116 -115.03738 
L 247.223734 -116.831556 
L 247.170894 -118.625733 
L 247.271171 -120.419909 
L 247.510557 -122.214085 
L 247.868589 -124.008262 
L 248.318064 -125.802438 
L 248.826053 -127.596614 
L 249.356631 -129.390791 
L 249.87516 -131.184967 
L 250.353361 -132.979143 
L 250.773984 -134.77332 
L 251.1338 -136.567496 
L 251.443975 -138.361672 
L 251.727602 -140.155849 
L 252.014953 -141.950025 
L 252.337587 -143.744201 
L 252.722649 -145.538378 
L 253.188455 -147.332554 
L 253.741969 -149.12673 
L 254.378298 -150.920907 
L 255.08196 -152.715083 
L 255.829526 -154.50926 
L 256.593173 -156.303436 
L 257.344592 -158.097612 
L 258.058658 -159.891789 
L 258.716232 -161.685965 
L 259.30564 -163.480141 
L 259.822655 -165.274318 
L 260.269216 -167.068494 
L 260.651402 -168.86267 
L 260.97732 -170.656847 
L 261.255408 -172.451023 
L 261.49344 -174.245199 
L 261.698168 -176.039376 
L 261.875373 -177.833552 
L 262.030044 -179.627728 
L 262.166477 -181.421905 
L 262.288248 -183.216081 
L 262.398131 -185.010258 
L 262.498048 -186.804434 
L 262.589131 -188.59861 
L 262.671875 -190.392787 
L 262.746331 -192.186963 
L 262.812265 -193.981139 
L 262.869278 -195.775316 
L 262.916928 -197.569492 
L 262.954918 -199.363668 
L 262.983388 -201.157845 
L 263.003241 -202.952021 
L 263.016398 -204.746197 
L 263.025815 -206.540374 
L 263.035167 -208.33455 
L 263.048202 -210.128726 
L 263.067906 -211.922903 
L 263.09574 -213.717079 
L 263.131175 -215.511255 
L 263.171736 -217.305432 
L 263.21354 -219.099608 
L 263.252217 -220.893785 
L 263.283947 -222.687961 
L 263.306345 -224.482137 
L 263.318968 -226.276314 
L 263.323363 -228.07049 
L 263.322672 -229.864666 
L 263.320957 -231.658843 
L 263.322425 -233.453019 
L 263.330752 -235.247195 
L 263.348652 -237.041372 
L 263.377711 -238.835548 
L 263.418442 -240.629724 
L 263.470462 -242.423901 
L 263.532645 -244.218077 
L 263.603224 -246.012253 
L 263.679841 -247.80643 
L 263.75961 -249.600606 
L 264.703037 -249.600606 
L 264.703037 -249.600606 
L 264.782805 -247.80643 
L 264.859422 -246.012253 
L 264.930002 -244.218077 
L 264.992185 -242.423901 
L 265.044204 -240.629724 
L 265.084936 -238.835548 
L 265.113994 -237.041372 
L 265.131895 -235.247195 
L 265.140222 -233.453019 
L 265.141689 -231.658843 
L 265.139975 -229.864666 
L 265.139284 -228.07049 
L 265.143678 -226.276314 
L 265.156302 -224.482137 
L 265.178699 -222.687961 
L 265.21043 -220.893785 
L 265.249107 -219.099608 
L 265.290911 -217.305432 
L 265.331472 -215.511255 
L 265.366907 -213.717079 
L 265.39474 -211.922903 
L 265.414445 -210.128726 
L 265.427479 -208.33455 
L 265.436832 -206.540374 
L 265.446249 -204.746197 
L 265.459406 -202.952021 
L 265.479259 -201.157845 
L 265.507729 -199.363668 
L 265.545719 -197.569492 
L 265.593368 -195.775316 
L 265.650381 -193.981139 
L 265.716316 -192.186963 
L 265.790772 -190.392787 
L 265.873516 -188.59861 
L 265.964598 -186.804434 
L 266.064515 -185.010258 
L 266.174399 -183.216081 
L 266.29617 -181.421905 
L 266.432602 -179.627728 
L 266.587274 -177.833552 
L 266.764479 -176.039376 
L 266.969207 -174.245199 
L 267.207239 -172.451023 
L 267.485327 -170.656847 
L 267.811244 -168.86267 
L 268.193431 -167.068494 
L 268.639992 -165.274318 
L 269.157007 -163.480141 
L 269.746414 -161.685965 
L 270.403989 -159.891789 
L 271.118055 -158.097612 
L 271.869474 -156.303436 
L 272.63312 -154.50926 
L 273.380687 -152.715083 
L 274.084348 -150.920907 
L 274.720678 -149.12673 
L 275.274192 -147.332554 
L 275.739997 -145.538378 
L 276.12506 -143.744201 
L 276.447694 -141.950025 
L 276.735045 -140.155849 
L 277.018672 -138.361672 
L 277.328846 -136.567496 
L 277.688663 -134.77332 
L 278.109286 -132.979143 
L 278.587486 -131.184967 
L 279.106015 -129.390791 
L 279.636594 -127.596614 
L 280.144583 -125.802438 
L 280.594058 -124.008262 
L 280.95209 -122.214085 
L 281.191476 -120.419909 
L 281.291753 -118.625733 
L 281.238913 -116.831556 
L 281.024531 -115.03738 
L 280.645077 -113.243203 
L 280.101912 -111.449027 
L 279.402024 -109.654851 
L 278.559123 -107.860674 
L 277.594427 -106.066498 
L 276.536443 -104.272322 
L 275.419379 -102.478145 
L 274.280253 -100.683969 
L 273.155286 -98.889793 
L 272.076379 -97.095616 
L 271.068484 -95.30144 
L 270.148334 -93.507264 
L 269.324563 -91.713087 
L 268.598853 -89.918911 
L 267.967593 -88.124735 
L 267.423537 -86.330558 
L 266.957213 -84.536382 
L 266.558012 -82.742206 
L 266.215063 -80.948029 
L 265.918023 -79.153853 
L 265.657796 -77.359676 
L 265.427137 -75.5655 
L 265.220994 -73.771324 
L 265.036503 -71.977147 
z
" id="m0aea21522d" style="stroke:#141414;stroke-width:1.5;"/>
    </defs>
    <g clip-path="url(#p5333e08ccc)">
     <use style="fill:#0e5f2f;stroke:#141414;stroke-width:1.5;" x="0" xlink:href="#m0aea21522d" y="537.345047"/>
    </g>
   </g>
   <g id="PolyCollection_5">
    <defs>
     <path d="M 338.06414 -158.247238 
L 326.521794 -158.247238 
L 326.389937 -160.304349 
L 326.267428 -162.361461 
L 326.154557 -164.418572 
L 326.051525 -166.475683 
L 325.95844 -168.532795 
L 325.875327 -170.589906 
L 325.802126 -172.647017 
L 325.738699 -174.704128 
L 325.684835 -176.76124 
L 325.64026 -178.818351 
L 325.604637 -180.875462 
L 325.577581 -182.932574 
L 325.558661 -184.989685 
L 325.547412 -187.046796 
L 325.543337 -189.103907 
L 325.545916 -191.161019 
L 325.554612 -193.21813 
L 325.568869 -195.275241 
L 325.588123 -197.332352 
L 325.611798 -199.389464 
L 325.639306 -201.446575 
L 325.670049 -203.503686 
L 325.703413 -205.560798 
L 325.738765 -207.617909 
L 325.775449 -209.67502 
L 325.812779 -211.732131 
L 325.850033 -213.789243 
L 325.886448 -215.846354 
L 325.921208 -217.903465 
L 325.953445 -219.960577 
L 325.982227 -222.017688 
L 326.006554 -224.074799 
L 326.02536 -226.13191 
L 326.037503 -228.189022 
L 326.041769 -230.246133 
L 326.036875 -232.303244 
L 326.02147 -234.360355 
L 325.994145 -236.417467 
L 325.953439 -238.474578 
L 325.897851 -240.531689 
L 325.825859 -242.588801 
L 325.73593 -244.645912 
L 325.626543 -246.703023 
L 325.49621 -248.760134 
L 325.343496 -250.817246 
L 325.167048 -252.874357 
L 324.965617 -254.931468 
L 324.738086 -256.98858 
L 324.483495 -259.045691 
L 324.201068 -261.102802 
L 323.89024 -263.159913 
L 323.550681 -265.217025 
L 323.182316 -267.274136 
L 322.785349 -269.331247 
L 322.36028 -271.388358 
L 321.907919 -273.44547 
L 321.429398 -275.502581 
L 320.926177 -277.559692 
L 320.40005 -279.616804 
L 319.853141 -281.673915 
L 319.287898 -283.731026 
L 318.707085 -285.788137 
L 318.113762 -287.845249 
L 317.511271 -289.90236 
L 316.903202 -291.959471 
L 316.293372 -294.016582 
L 315.685786 -296.073694 
L 315.084601 -298.130805 
L 314.494086 -300.187916 
L 313.918575 -302.245028 
L 313.362427 -304.302139 
L 312.829969 -306.35925 
L 312.325458 -308.416361 
L 311.853023 -310.473473 
L 311.416622 -312.530584 
L 311.019993 -314.587695 
L 310.666609 -316.644807 
L 310.359637 -318.701918 
L 310.101897 -320.759029 
L 309.895829 -322.81614 
L 309.743462 -324.873252 
L 309.64639 -326.930363 
L 309.605752 -328.987474 
L 309.622221 -331.044585 
L 309.695992 -333.101697 
L 309.826787 -335.158808 
L 310.013855 -337.215919 
L 310.25599 -339.273031 
L 310.551542 -341.330142 
L 310.898444 -343.387253 
L 311.29424 -345.444364 
L 311.736117 -347.501476 
L 312.220941 -349.558587 
L 312.745302 -351.615698 
L 313.305551 -353.67281 
L 313.89785 -355.729921 
L 314.518214 -357.787032 
L 315.162562 -359.844143 
L 315.826761 -361.901255 
L 348.759173 -361.901255 
L 348.759173 -361.901255 
L 349.423371 -359.844143 
L 350.06772 -357.787032 
L 350.688084 -355.729921 
L 351.280382 -353.67281 
L 351.840632 -351.615698 
L 352.364992 -349.558587 
L 352.849817 -347.501476 
L 353.291694 -345.444364 
L 353.687489 -343.387253 
L 354.034392 -341.330142 
L 354.329944 -339.273031 
L 354.572078 -337.215919 
L 354.759147 -335.158808 
L 354.889942 -333.101697 
L 354.963713 -331.044585 
L 354.980181 -328.987474 
L 354.939544 -326.930363 
L 354.842472 -324.873252 
L 354.690105 -322.81614 
L 354.484037 -320.759029 
L 354.226297 -318.701918 
L 353.919325 -316.644807 
L 353.565941 -314.587695 
L 353.169312 -312.530584 
L 352.732911 -310.473473 
L 352.260476 -308.416361 
L 351.755964 -306.35925 
L 351.223507 -304.302139 
L 350.667358 -302.245028 
L 350.091848 -300.187916 
L 349.501333 -298.130805 
L 348.900148 -296.073694 
L 348.292562 -294.016582 
L 347.682732 -291.959471 
L 347.074663 -289.90236 
L 346.472171 -287.845249 
L 345.878849 -285.788137 
L 345.298036 -283.731026 
L 344.732793 -281.673915 
L 344.185884 -279.616804 
L 343.659757 -277.559692 
L 343.156536 -275.502581 
L 342.678015 -273.44547 
L 342.225654 -271.388358 
L 341.800585 -269.331247 
L 341.403618 -267.274136 
L 341.035253 -265.217025 
L 340.695694 -263.159913 
L 340.384866 -261.102802 
L 340.102439 -259.045691 
L 339.847848 -256.98858 
L 339.620316 -254.931468 
L 339.418886 -252.874357 
L 339.242438 -250.817246 
L 339.089724 -248.760134 
L 338.959391 -246.703023 
L 338.850004 -244.645912 
L 338.760075 -242.588801 
L 338.688082 -240.531689 
L 338.632495 -238.474578 
L 338.591789 -236.417467 
L 338.564463 -234.360355 
L 338.549059 -232.303244 
L 338.544165 -230.246133 
L 338.548431 -228.189022 
L 338.560574 -226.13191 
L 338.579379 -224.074799 
L 338.603707 -222.017688 
L 338.632489 -219.960577 
L 338.664726 -217.903465 
L 338.699486 -215.846354 
L 338.735901 -213.789243 
L 338.773155 -211.732131 
L 338.810485 -209.67502 
L 338.847169 -207.617909 
L 338.882521 -205.560798 
L 338.915885 -203.503686 
L 338.946628 -201.446575 
L 338.974136 -199.389464 
L 338.997811 -197.332352 
L 339.017065 -195.275241 
L 339.031322 -193.21813 
L 339.040017 -191.161019 
L 339.042597 -189.103907 
L 339.038522 -187.046796 
L 339.027273 -184.989685 
L 339.008353 -182.932574 
L 338.981297 -180.875462 
L 338.945674 -178.818351 
L 338.901098 -176.76124 
L 338.847235 -174.704128 
L 338.783808 -172.647017 
L 338.710607 -170.589906 
L 338.627494 -168.532795 
L 338.534409 -166.475683 
L 338.431377 -164.418572 
L 338.318506 -162.361461 
L 338.195997 -160.304349 
L 338.06414 -158.247238 
z
" id="m8627d9c4b6" style="stroke:#141414;stroke-width:1.5;"/>
    </defs>
    <g clip-path="url(#p5333e08ccc)">
     <use style="fill:#083c1d;stroke:#141414;stroke-width:1.5;" x="0" xlink:href="#m8627d9c4b6" y="537.345047"/>
    </g>
   </g>
   <g id="PolyCollection_6">
    <defs>
     <path d="M 378.701891 -71.214398 
L 376.632901 -71.214398 
L 376.642937 -75.628445 
L 376.674263 -80.042492 
L 376.724905 -84.456539 
L 376.791761 -88.870586 
L 376.870903 -93.284633 
L 376.957944 -97.69868 
L 377.048414 -102.112726 
L 377.138104 -106.526773 
L 377.223329 -110.94082 
L 377.301104 -115.354867 
L 377.369209 -119.768914 
L 377.42616 -124.182961 
L 377.471102 -128.597008 
L 377.50366 -133.011055 
L 377.523767 -137.425102 
L 377.531493 -141.839149 
L 377.526912 -146.253196 
L 377.509994 -150.667243 
L 377.480547 -155.08129 
L 377.438193 -159.495337 
L 377.38238 -163.909384 
L 377.312404 -168.323431 
L 377.227459 -172.737478 
L 377.126673 -177.151525 
L 377.009155 -181.565571 
L 376.874037 -185.979618 
L 376.720523 -190.393665 
L 376.547942 -194.807712 
L 376.355822 -199.221759 
L 376.143993 -203.635806 
L 375.912695 -208.049853 
L 375.662724 -212.4639 
L 375.395568 -216.877947 
L 375.113534 -221.291994 
L 374.819823 -225.706041 
L 374.518547 -230.120088 
L 374.214636 -234.534135 
L 373.913637 -238.948182 
L 373.621381 -243.362229 
L 373.343539 -247.776276 
L 373.085076 -252.190323 
L 372.849662 -256.60437 
L 372.639076 -261.018416 
L 372.452686 -265.432463 
L 372.287069 -269.84651 
L 372.135828 -274.260557 
L 371.989674 -278.674604 
L 371.836786 -283.088651 
L 371.663458 -287.502698 
L 371.455 -291.916745 
L 371.196816 -296.330792 
L 370.875582 -300.744839 
L 370.480392 -305.158886 
L 370.003776 -309.572933 
L 369.442465 -313.98698 
L 368.797839 -318.401027 
L 368.076008 -322.815074 
L 367.287522 -327.229121 
L 366.446748 -331.643168 
L 365.570986 -336.057215 
L 364.67942 -340.471261 
L 363.791993 -344.885308 
L 362.928335 -349.299355 
L 362.10681 -353.713402 
L 361.343771 -358.127449 
L 360.653061 -362.541496 
L 360.045793 -366.955543 
L 359.530383 -371.36959 
L 359.112816 -375.783637 
L 358.797072 -380.197684 
L 358.585629 -384.611731 
L 358.47995 -389.025778 
L 358.480871 -393.439825 
L 358.588814 -397.853872 
L 358.803772 -402.267919 
L 359.125087 -406.681966 
L 359.551041 -411.096013 
L 360.07835 -415.510059 
L 360.701653 -419.924106 
L 361.413116 -424.338153 
L 362.202239 -428.7522 
L 363.055943 -433.166247 
L 363.958947 -437.580294 
L 364.89443 -441.994341 
L 365.844909 -446.408388 
L 366.793215 -450.822435 
L 367.723478 -455.236482 
L 368.621981 -459.650529 
L 369.477806 -464.064576 
L 370.283177 -468.478623 
L 371.033513 -472.89267 
L 371.727176 -477.306717 
L 372.364992 -481.720764 
L 372.949604 -486.134811 
L 373.484781 -490.548858 
L 373.974745 -494.962904 
L 374.423607 -499.376951 
L 374.834966 -503.790998 
L 375.211686 -508.205045 
L 380.123106 -508.205045 
L 380.123106 -508.205045 
L 380.499826 -503.790998 
L 380.911185 -499.376951 
L 381.360047 -494.962904 
L 381.85001 -490.548858 
L 382.385188 -486.134811 
L 382.9698 -481.720764 
L 383.607615 -477.306717 
L 384.301279 -472.89267 
L 385.051615 -468.478623 
L 385.856986 -464.064576 
L 386.71281 -459.650529 
L 387.611314 -455.236482 
L 388.541577 -450.822435 
L 389.489883 -446.408388 
L 390.440361 -441.994341 
L 391.375845 -437.580294 
L 392.278849 -433.166247 
L 393.132553 -428.7522 
L 393.921676 -424.338153 
L 394.633139 -419.924106 
L 395.256442 -415.510059 
L 395.78375 -411.096013 
L 396.209705 -406.681966 
L 396.53102 -402.267919 
L 396.745978 -397.853872 
L 396.85392 -393.439825 
L 396.854842 -389.025778 
L 396.749163 -384.611731 
L 396.537719 -380.197684 
L 396.221976 -375.783637 
L 395.804409 -371.36959 
L 395.288999 -366.955543 
L 394.681731 -362.541496 
L 393.991021 -358.127449 
L 393.227982 -353.713402 
L 392.406457 -349.299355 
L 391.542799 -344.885308 
L 390.655372 -340.471261 
L 389.763805 -336.057215 
L 388.888044 -331.643168 
L 388.04727 -327.229121 
L 387.258784 -322.815074 
L 386.536953 -318.401027 
L 385.892327 -313.98698 
L 385.331015 -309.572933 
L 384.8544 -305.158886 
L 384.45921 -300.744839 
L 384.137976 -296.330792 
L 383.879792 -291.916745 
L 383.671334 -287.502698 
L 383.498006 -283.088651 
L 383.345118 -278.674604 
L 383.198964 -274.260557 
L 383.047723 -269.84651 
L 382.882106 -265.432463 
L 382.695716 -261.018416 
L 382.48513 -256.60437 
L 382.249715 -252.190323 
L 381.991253 -247.776276 
L 381.71341 -243.362229 
L 381.421155 -238.948182 
L 381.120156 -234.534135 
L 380.816245 -230.120088 
L 380.514969 -225.706041 
L 380.221258 -221.291994 
L 379.939223 -216.877947 
L 379.672068 -212.4639 
L 379.422097 -208.049853 
L 379.190799 -203.635806 
L 378.978969 -199.221759 
L 378.78685 -194.807712 
L 378.614269 -190.393665 
L 378.460755 -185.979618 
L 378.325637 -181.565571 
L 378.208119 -177.151525 
L 378.107333 -172.737478 
L 378.022387 -168.323431 
L 377.952412 -163.909384 
L 377.896599 -159.495337 
L 377.854245 -155.08129 
L 377.824798 -150.667243 
L 377.80788 -146.253196 
L 377.803299 -141.839149 
L 377.811025 -137.425102 
L 377.831132 -133.011055 
L 377.86369 -128.597008 
L 377.908632 -124.182961 
L 377.965582 -119.768914 
L 378.033688 -115.354867 
L 378.111463 -110.94082 
L 378.196688 -106.526773 
L 378.286377 -102.112726 
L 378.376848 -97.69868 
L 378.463889 -93.284633 
L 378.543031 -88.870586 
L 378.609886 -84.456539 
L 378.660528 -80.042492 
L 378.691855 -75.628445 
L 378.701891 -71.214398 
z
" id="m246f4e0198" style="stroke:#141414;stroke-width:1.5;"/>
    </defs>
    <g clip-path="url(#p5333e08ccc)">
     <use style="fill:#0e5f2f;stroke:#141414;stroke-width:1.5;" x="0" xlink:href="#m246f4e0198" y="537.345047"/>
    </g>
   </g>
   <g id="PolyCollection_7">
    <defs>
     <path d="M 452.531287 -122.703375 
L 438.926792 -122.703375 
L 438.605884 -125.512731 
L 438.290184 -128.322088 
L 437.98129 -131.131444 
L 437.68075 -133.9408 
L 437.390047 -136.750157 
L 437.110578 -139.559513 
L 436.843629 -142.368869 
L 436.590357 -145.178225 
L 436.35177 -147.987582 
L 436.128706 -150.796938 
L 435.921812 -153.606294 
L 435.731531 -156.41565 
L 435.558082 -159.225007 
L 435.401448 -162.034363 
L 435.261362 -164.843719 
L 435.137302 -167.653076 
L 435.02848 -170.462432 
L 434.933845 -173.271788 
L 434.852083 -176.081144 
L 434.781626 -178.890501 
L 434.720662 -181.699857 
L 434.667151 -184.509213 
L 434.618852 -187.31857 
L 434.573345 -190.127926 
L 434.528066 -192.937282 
L 434.480343 -195.746638 
L 434.427438 -198.555995 
L 434.36659 -201.365351 
L 434.295062 -204.174707 
L 434.21019 -206.984064 
L 434.109435 -209.79342 
L 433.990426 -212.602776 
L 433.851015 -215.412132 
L 433.689316 -218.221489 
L 433.503748 -221.030845 
L 433.293074 -223.840201 
L 433.056426 -226.649558 
L 432.793337 -229.458914 
L 432.50375 -232.26827 
L 432.188033 -235.077626 
L 431.846981 -237.886983 
L 431.481808 -240.696339 
L 431.094135 -243.505695 
L 430.685971 -246.315052 
L 430.259687 -249.124408 
L 429.817981 -251.933764 
L 429.363845 -254.74312 
L 428.900521 -257.552477 
L 428.43146 -260.361833 
L 427.960275 -263.171189 
L 427.490695 -265.980546 
L 427.026519 -268.789902 
L 426.571569 -271.599258 
L 426.129651 -274.408614 
L 425.704505 -277.217971 
L 425.299775 -280.027327 
L 424.918965 -282.836683 
L 424.565412 -285.646039 
L 424.242252 -288.455396 
L 423.952394 -291.264752 
L 423.698502 -294.074108 
L 423.482964 -296.883465 
L 423.307886 -299.692821 
L 423.175066 -302.502177 
L 423.085993 -305.311533 
L 423.041825 -308.12089 
L 423.043392 -310.930246 
L 423.091184 -313.739602 
L 423.185351 -316.548959 
L 423.325704 -319.358315 
L 423.511716 -322.167671 
L 423.742527 -324.977027 
L 424.016958 -327.786384 
L 424.333515 -330.59574 
L 424.690412 -333.405096 
L 425.085588 -336.214453 
L 425.516726 -339.023809 
L 425.981284 -341.833165 
L 426.476519 -344.642521 
L 426.999521 -347.451878 
L 427.547247 -350.261234 
L 428.116554 -353.07059 
L 428.704235 -355.879947 
L 429.307058 -358.689303 
L 429.921798 -361.498659 
L 430.545276 -364.308015 
L 431.174388 -367.117372 
L 431.806136 -369.926728 
L 432.43766 -372.736084 
L 433.066252 -375.545441 
L 433.689387 -378.354797 
L 434.304728 -381.164153 
L 434.910146 -383.973509 
L 435.503722 -386.782866 
L 436.083752 -389.592222 
L 436.648745 -392.401578 
L 437.197422 -395.210935 
L 437.728707 -398.020291 
L 438.241715 -400.829647 
L 453.216364 -400.829647 
L 453.216364 -400.829647 
L 453.729372 -398.020291 
L 454.260656 -395.210935 
L 454.809334 -392.401578 
L 455.374327 -389.592222 
L 455.954357 -386.782866 
L 456.547933 -383.973509 
L 457.153351 -381.164153 
L 457.768692 -378.354797 
L 458.391826 -375.545441 
L 459.020419 -372.736084 
L 459.651942 -369.926728 
L 460.283691 -367.117372 
L 460.912803 -364.308015 
L 461.536281 -361.498659 
L 462.151021 -358.689303 
L 462.753844 -355.879947 
L 463.341525 -353.07059 
L 463.910832 -350.261234 
L 464.458558 -347.451878 
L 464.98156 -344.642521 
L 465.476795 -341.833165 
L 465.941353 -339.023809 
L 466.372491 -336.214453 
L 466.767667 -333.405096 
L 467.124564 -330.59574 
L 467.441121 -327.786384 
L 467.715552 -324.977027 
L 467.946363 -322.167671 
L 468.132375 -319.358315 
L 468.272728 -316.548959 
L 468.366895 -313.739602 
L 468.414687 -310.930246 
L 468.416254 -308.12089 
L 468.372086 -305.311533 
L 468.283013 -302.502177 
L 468.150193 -299.692821 
L 467.975115 -296.883465 
L 467.759577 -294.074108 
L 467.505684 -291.264752 
L 467.215827 -288.455396 
L 466.892667 -285.646039 
L 466.539114 -282.836683 
L 466.158304 -280.027327 
L 465.753574 -277.217971 
L 465.328428 -274.408614 
L 464.88651 -271.599258 
L 464.43156 -268.789902 
L 463.967384 -265.980546 
L 463.497804 -263.171189 
L 463.026619 -260.361833 
L 462.557558 -257.552477 
L 462.094234 -254.74312 
L 461.640098 -251.933764 
L 461.198392 -249.124408 
L 460.772108 -246.315052 
L 460.363944 -243.505695 
L 459.976271 -240.696339 
L 459.611098 -237.886983 
L 459.270046 -235.077626 
L 458.954329 -232.26827 
L 458.664742 -229.458914 
L 458.401653 -226.649558 
L 458.165005 -223.840201 
L 457.954331 -221.030845 
L 457.768763 -218.221489 
L 457.607064 -215.412132 
L 457.467653 -212.602776 
L 457.348644 -209.79342 
L 457.247889 -206.984064 
L 457.163017 -204.174707 
L 457.091489 -201.365351 
L 457.030641 -198.555995 
L 456.977736 -195.746638 
L 456.930013 -192.937282 
L 456.884734 -190.127926 
L 456.839227 -187.31857 
L 456.790928 -184.509213 
L 456.737417 -181.699857 
L 456.676453 -178.890501 
L 456.605996 -176.081144 
L 456.524234 -173.271788 
L 456.429599 -170.462432 
L 456.320777 -167.653076 
L 456.196717 -164.843719 
L 456.056631 -162.034363 
L 455.899997 -159.225007 
L 455.726548 -156.41565 
L 455.536267 -153.606294 
L 455.329373 -150.796938 
L 455.106309 -147.987582 
L 454.867722 -145.178225 
L 454.61445 -142.368869 
L 454.347501 -139.559513 
L 454.068032 -136.750157 
L 453.777329 -133.9408 
L 453.476789 -131.131444 
L 453.167895 -128.322088 
L 452.852195 -125.512731 
L 452.531287 -122.703375 
z
" id="md075d21ed4" style="stroke:#141414;stroke-width:1.5;"/>
    </defs>
    <g clip-path="url(#p5333e08ccc)">
     <use style="fill:#083c1d;stroke:#141414;stroke-width:1.5;" x="0" xlink:href="#md075d21ed4" y="537.345047"/>
    </g>
   </g>
   <g id="PolyCollection_8">
    <defs>
     <path d="M 493.178778 -71.421396 
L 489.028159 -71.421396 
L 488.944235 -75.530252 
L 488.875836 -79.639107 
L 488.821414 -83.747963 
L 488.778185 -87.856819 
L 488.742224 -91.965675 
L 488.708638 -96.074531 
L 488.671801 -100.183387 
L 488.625655 -104.292243 
L 488.564033 -108.401099 
L 488.48099 -112.509955 
L 488.371126 -116.61881 
L 488.22986 -120.727666 
L 488.053654 -124.836522 
L 487.84015 -128.945378 
L 487.588229 -133.054234 
L 487.297974 -137.16309 
L 486.970539 -141.271946 
L 486.607951 -145.380802 
L 486.212843 -149.489658 
L 485.788156 -153.598513 
L 485.336831 -157.707369 
L 484.861537 -161.816225 
L 484.364445 -165.925081 
L 483.847096 -170.033937 
L 483.31037 -174.142793 
L 482.754573 -178.251649 
L 482.179639 -182.360505 
L 481.585431 -186.469361 
L 480.972113 -190.578216 
L 480.340557 -194.687072 
L 479.692735 -198.795928 
L 479.032049 -202.904784 
L 478.363553 -207.01364 
L 477.694026 -211.122496 
L 477.031869 -215.231352 
L 476.386832 -219.340208 
L 475.769559 -223.449064 
L 475.191013 -227.557919 
L 474.661798 -231.666775 
L 474.191463 -235.775631 
L 473.787838 -239.884487 
L 473.45647 -243.993343 
L 473.200209 -248.102199 
L 473.018995 -252.211055 
L 472.909844 -256.319911 
L 472.867052 -260.428767 
L 472.88258 -264.537622 
L 472.946595 -268.646478 
L 473.048104 -272.755334 
L 473.175632 -276.86419 
L 473.317888 -280.973046 
L 473.464369 -285.081902 
L 473.605854 -289.190758 
L 473.734771 -293.299614 
L 473.845426 -297.40847 
L 473.934082 -301.517325 
L 473.998915 -305.626181 
L 474.039865 -309.735037 
L 474.058412 -313.843893 
L 474.057309 -317.952749 
L 474.040305 -322.061605 
L 474.01189 -326.170461 
L 473.977071 -330.279317 
L 473.941209 -334.388173 
L 473.909906 -338.497028 
L 473.888942 -342.605884 
L 473.884249 -346.71474 
L 473.901898 -350.823596 
L 473.948073 -354.932452 
L 474.029017 -359.041308 
L 474.150918 -363.150164 
L 474.319744 -367.25902 
L 474.541006 -371.367876 
L 474.819481 -375.476731 
L 475.158901 -379.585587 
L 475.561641 -383.694443 
L 476.028455 -387.803299 
L 476.558262 -391.912155 
L 477.148041 -396.021011 
L 477.792832 -400.129867 
L 478.485858 -404.238723 
L 479.21876 -408.347579 
L 479.981928 -412.456434 
L 480.764908 -416.56529 
L 481.556843 -420.674146 
L 482.346923 -424.783002 
L 483.124811 -428.891858 
L 483.881021 -433.000714 
L 484.607222 -437.10957 
L 485.296463 -441.218426 
L 485.943306 -445.327282 
L 486.543882 -449.436137 
L 487.095854 -453.544993 
L 487.598326 -457.653849 
L 488.051688 -461.762705 
L 488.457423 -465.871561 
L 488.817888 -469.980417 
L 489.136088 -474.089273 
L 489.41545 -478.198129 
L 492.791487 -478.198129 
L 492.791487 -478.198129 
L 493.070849 -474.089273 
L 493.389049 -469.980417 
L 493.749514 -465.871561 
L 494.155249 -461.762705 
L 494.608611 -457.653849 
L 495.111083 -453.544993 
L 495.663055 -449.436137 
L 496.263631 -445.327282 
L 496.910474 -441.218426 
L 497.599715 -437.10957 
L 498.325916 -433.000714 
L 499.082126 -428.891858 
L 499.860014 -424.783002 
L 500.650094 -420.674146 
L 501.442029 -416.56529 
L 502.225009 -412.456434 
L 502.988177 -408.347579 
L 503.721079 -404.238723 
L 504.414105 -400.129867 
L 505.058896 -396.021011 
L 505.648675 -391.912155 
L 506.178482 -387.803299 
L 506.645296 -383.694443 
L 507.048036 -379.585587 
L 507.387456 -375.476731 
L 507.665931 -371.367876 
L 507.887193 -367.25902 
L 508.056019 -363.150164 
L 508.17792 -359.041308 
L 508.258864 -354.932452 
L 508.305039 -350.823596 
L 508.322688 -346.71474 
L 508.317995 -342.605884 
L 508.297031 -338.497028 
L 508.265728 -334.388173 
L 508.229866 -330.279317 
L 508.195047 -326.170461 
L 508.166632 -322.061605 
L 508.149628 -317.952749 
L 508.148525 -313.843893 
L 508.167072 -309.735037 
L 508.208022 -305.626181 
L 508.272855 -301.517325 
L 508.361511 -297.40847 
L 508.472166 -293.299614 
L 508.601083 -289.190758 
L 508.742568 -285.081902 
L 508.889049 -280.973046 
L 509.031305 -276.86419 
L 509.158833 -272.755334 
L 509.260342 -268.646478 
L 509.324357 -264.537622 
L 509.339885 -260.428767 
L 509.297093 -256.319911 
L 509.187942 -252.211055 
L 509.006728 -248.102199 
L 508.750467 -243.993343 
L 508.419099 -239.884487 
L 508.015474 -235.775631 
L 507.545139 -231.666775 
L 507.015924 -227.557919 
L 506.437378 -223.449064 
L 505.820105 -219.340208 
L 505.175068 -215.231352 
L 504.512911 -211.122496 
L 503.843384 -207.01364 
L 503.174888 -202.904784 
L 502.514202 -198.795928 
L 501.86638 -194.687072 
L 501.234824 -190.578216 
L 500.621506 -186.469361 
L 500.027298 -182.360505 
L 499.452364 -178.251649 
L 498.896567 -174.142793 
L 498.359841 -170.033937 
L 497.842492 -165.925081 
L 497.3454 -161.816225 
L 496.870106 -157.707369 
L 496.418781 -153.598513 
L 495.994094 -149.489658 
L 495.598986 -145.380802 
L 495.236398 -141.271946 
L 494.908963 -137.16309 
L 494.618708 -133.054234 
L 494.366787 -128.945378 
L 494.153283 -124.836522 
L 493.977077 -120.727666 
L 493.835811 -116.61881 
L 493.725947 -112.509955 
L 493.642904 -108.401099 
L 493.581282 -104.292243 
L 493.535136 -100.183387 
L 493.498299 -96.074531 
L 493.464713 -91.965675 
L 493.428752 -87.856819 
L 493.385523 -83.747963 
L 493.331101 -79.639107 
L 493.262702 -75.530252 
L 493.178778 -71.421396 
z
" id="m3f9ac8cb68" style="stroke:#141414;stroke-width:1.5;"/>
    </defs>
    <g clip-path="url(#p5333e08ccc)">
     <use style="fill:#0e5f2f;stroke:#141414;stroke-width:1.5;" x="0" xlink:href="#m3f9ac8cb68" y="537.345047"/>
    </g>
   </g>
   <g id="PolyCollection_9">
    <defs>
     <path d="M 580.335115 -70.824788 
L 537.995109 -70.824788 
L 537.161032 -71.444914 
L 536.656313 -72.06504 
L 536.477898 -72.685166 
L 536.602677 -73.305293 
L 536.991005 -73.925419 
L 537.591835 -74.545545 
L 538.34869 -75.165671 
L 539.205614 -75.785798 
L 540.112333 -76.405924 
L 541.028044 -77.02605 
L 541.923517 -77.646176 
L 542.781508 -78.266303 
L 543.595673 -78.886429 
L 544.368414 -79.506555 
L 545.10811 -80.126681 
L 545.826211 -80.746808 
L 546.534583 -81.366934 
L 547.243385 -81.98706 
L 547.959614 -82.607186 
L 548.686362 -83.227313 
L 549.422707 -83.847439 
L 550.164127 -84.467565 
L 550.903277 -85.087692 
L 551.630983 -85.707818 
L 552.337297 -86.327944 
L 553.012501 -86.94807 
L 553.647969 -87.568197 
L 554.23682 -88.188323 
L 554.77433 -88.808449 
L 555.258105 -89.428575 
L 555.68802 -90.048702 
L 556.065968 -90.668828 
L 556.39547 -91.288954 
L 556.681193 -91.90908 
L 556.928446 -92.529207 
L 557.14271 -93.149333 
L 557.329228 -93.769459 
L 557.492719 -94.389585 
L 557.637193 -95.009712 
L 557.765898 -95.629838 
L 557.881354 -96.249964 
L 557.985474 -96.870091 
L 558.079712 -97.490217 
L 558.165225 -98.110343 
L 558.243009 -98.730469 
L 558.313999 -99.350596 
L 558.379108 -99.970722 
L 558.439228 -100.590848 
L 558.495179 -101.210974 
L 558.547646 -101.831101 
L 558.597101 -102.451227 
L 558.643752 -103.071353 
L 558.687508 -103.691479 
L 558.727993 -104.311606 
L 558.764593 -104.931732 
L 558.796543 -105.551858 
L 558.823029 -106.171984 
L 558.843308 -106.792111 
L 558.856811 -107.412237 
L 558.863225 -108.032363 
L 558.862535 -108.65249 
L 558.855033 -109.272616 
L 558.841268 -109.892742 
L 558.821981 -110.512868 
L 558.798003 -111.132995 
L 558.770162 -111.753121 
L 558.739188 -112.373247 
L 558.705667 -112.993373 
L 558.670013 -113.6135 
L 558.632499 -114.233626 
L 558.593316 -114.853752 
L 558.552662 -115.473878 
L 558.510842 -116.094005 
L 558.46836 -116.714131 
L 558.425979 -117.334257 
L 558.384751 -117.954383 
L 558.345985 -118.57451 
L 558.31118 -119.194636 
L 558.28191 -119.814762 
L 558.259682 -120.434888 
L 558.245783 -121.055015 
L 558.241143 -121.675141 
L 558.246222 -122.295267 
L 558.260943 -122.915394 
L 558.284675 -123.53552 
L 558.316285 -124.155646 
L 558.354227 -124.775772 
L 558.396684 -125.395899 
L 558.441738 -126.016025 
L 558.487539 -126.636151 
L 558.532471 -127.256277 
L 558.575279 -127.876404 
L 558.615155 -128.49653 
L 558.651764 -129.116656 
L 558.685215 -129.736782 
L 558.715982 -130.356909 
L 558.744781 -130.977035 
L 558.772433 -131.597161 
L 558.799724 -132.217287 
L 559.5305 -132.217287 
L 559.5305 -132.217287 
L 559.557791 -131.597161 
L 559.585443 -130.977035 
L 559.614242 -130.356909 
L 559.645009 -129.736782 
L 559.67846 -129.116656 
L 559.715069 -128.49653 
L 559.754945 -127.876404 
L 559.797753 -127.256277 
L 559.842685 -126.636151 
L 559.888487 -126.016025 
L 559.93354 -125.395899 
L 559.975997 -124.775772 
L 560.013939 -124.155646 
L 560.045549 -123.53552 
L 560.069281 -122.915394 
L 560.084002 -122.295267 
L 560.089081 -121.675141 
L 560.084441 -121.055015 
L 560.070542 -120.434888 
L 560.048314 -119.814762 
L 560.019044 -119.194636 
L 559.98424 -118.57451 
L 559.945473 -117.954383 
L 559.904245 -117.334257 
L 559.861864 -116.714131 
L 559.819382 -116.094005 
L 559.777562 -115.473878 
L 559.736908 -114.853752 
L 559.697725 -114.233626 
L 559.660211 -113.6135 
L 559.624557 -112.993373 
L 559.591036 -112.373247 
L 559.560063 -111.753121 
L 559.532221 -111.132995 
L 559.508243 -110.512868 
L 559.488956 -109.892742 
L 559.475191 -109.272616 
L 559.467689 -108.65249 
L 559.466999 -108.032363 
L 559.473413 -107.412237 
L 559.486916 -106.792111 
L 559.507195 -106.171984 
L 559.533681 -105.551858 
L 559.565631 -104.931732 
L 559.602231 -104.311606 
L 559.642716 -103.691479 
L 559.686472 -103.071353 
L 559.733123 -102.451227 
L 559.782578 -101.831101 
L 559.835045 -101.210974 
L 559.890996 -100.590848 
L 559.951116 -99.970722 
L 560.016225 -99.350596 
L 560.087215 -98.730469 
L 560.164999 -98.110343 
L 560.250512 -97.490217 
L 560.34475 -96.870091 
L 560.44887 -96.249964 
L 560.564326 -95.629838 
L 560.693031 -95.009712 
L 560.837505 -94.389585 
L 561.000996 -93.769459 
L 561.187515 -93.149333 
L 561.401778 -92.529207 
L 561.649031 -91.90908 
L 561.934754 -91.288954 
L 562.264256 -90.668828 
L 562.642204 -90.048702 
L 563.072119 -89.428575 
L 563.555894 -88.808449 
L 564.093404 -88.188323 
L 564.682255 -87.568197 
L 565.317723 -86.94807 
L 565.992928 -86.327944 
L 566.699241 -85.707818 
L 567.426947 -85.087692 
L 568.166097 -84.467565 
L 568.907517 -83.847439 
L 569.643862 -83.227313 
L 570.37061 -82.607186 
L 571.08684 -81.98706 
L 571.795641 -81.366934 
L 572.504013 -80.746808 
L 573.222114 -80.126681 
L 573.96181 -79.506555 
L 574.734551 -78.886429 
L 575.548716 -78.266303 
L 576.406707 -77.646176 
L 577.30218 -77.02605 
L 578.217891 -76.405924 
L 579.12461 -75.785798 
L 579.981535 -75.165671 
L 580.738389 -74.545545 
L 581.33922 -73.925419 
L 581.727547 -73.305293 
L 581.852327 -72.685166 
L 581.673911 -72.06504 
L 581.169192 -71.444914 
L 580.335115 -70.824788 
z
" id="mce740dfd41" style="stroke:#141414;stroke-width:1.5;"/>
    </defs>
    <g clip-path="url(#p5333e08ccc)">
     <use style="fill:#083c1d;stroke:#141414;stroke-width:1.5;" x="0" xlink:href="#mce740dfd41" y="537.345047"/>
    </g>
   </g>
   <g id="PolyCollection_10">
    <defs>
     <path d="M 626.505438 -70.834149 
L 582.573645 -70.834149 
L 582.268008 -71.58278 
L 582.585144 -72.331411 
L 583.494317 -73.080042 
L 584.916395 -73.828673 
L 586.734638 -74.577304 
L 588.80979 -75.325935 
L 590.996732 -76.074566 
L 593.159897 -76.823197 
L 595.185246 -77.571828 
L 596.987537 -78.320458 
L 598.512677 -79.069089 
L 599.735886 -79.81772 
L 600.656922 -80.566351 
L 601.29386 -81.314982 
L 601.676707 -82.063613 
L 601.841813 -82.812244 
L 601.827542 -83.560875 
L 601.671323 -84.309506 
L 601.407903 -85.058137 
L 601.068483 -85.806768 
L 600.680451 -86.555399 
L 600.26742 -87.30403 
L 599.849432 -88.052661 
L 599.443206 -88.801292 
L 599.062405 -89.549923 
L 598.717895 -90.298554 
L 598.417993 -91.047185 
L 598.168693 -91.795816 
L 597.97389 -92.544447 
L 597.835588 -93.293078 
L 597.754137 -94.041709 
L 597.72848 -94.79034 
L 597.756431 -95.538971 
L 597.834958 -96.287601 
L 597.960438 -97.036232 
L 598.128839 -97.784863 
L 598.335817 -98.533494 
L 598.576713 -99.282125 
L 598.846487 -100.030756 
L 599.139653 -100.779387 
L 599.450272 -101.528018 
L 599.772061 -102.276649 
L 600.098652 -103.02528 
L 600.42396 -103.773911 
L 600.742605 -104.522542 
L 601.050305 -105.271173 
L 601.344137 -106.019804 
L 601.622616 -106.768435 
L 601.885566 -107.517066 
L 602.133807 -108.265697 
L 602.368719 -109.014328 
L 602.591774 -109.762959 
L 602.804126 -110.51159 
L 603.006306 -111.260221 
L 603.198094 -112.008852 
L 603.378538 -112.757483 
L 603.546128 -113.506114 
L 603.69906 -114.254745 
L 603.835549 -115.003375 
L 603.954136 -115.752006 
L 604.053951 -116.500637 
L 604.13489 -117.249268 
L 604.197704 -117.997899 
L 604.243972 -118.74653 
L 604.27599 -119.495161 
L 604.296574 -120.243792 
L 604.308805 -120.992423 
L 604.315745 -121.741054 
L 604.320169 -122.489685 
L 604.324324 -123.238316 
L 604.329772 -123.986947 
L 604.337312 -124.735578 
L 604.347007 -125.484209 
L 604.358301 -126.23284 
L 604.370196 -126.981471 
L 604.381482 -127.730102 
L 604.390955 -128.478733 
L 604.397615 -129.227364 
L 604.400797 -129.975995 
L 604.400249 -130.724626 
L 604.396118 -131.473257 
L 604.388893 -132.221888 
L 604.379298 -132.970518 
L 604.368159 -133.719149 
L 604.356293 -134.46778 
L 604.344399 -135.216411 
L 604.333005 -135.965042 
L 604.322449 -136.713673 
L 604.312909 -137.462304 
L 604.304464 -138.210935 
L 604.297172 -138.959566 
L 604.29115 -139.708197 
L 604.286628 -140.456828 
L 604.283967 -141.205459 
L 604.283637 -141.95409 
L 604.286148 -142.702721 
L 604.291958 -143.451352 
L 604.301366 -144.199983 
L 604.314426 -144.948614 
L 604.764656 -144.948614 
L 604.764656 -144.948614 
L 604.777716 -144.199983 
L 604.787124 -143.451352 
L 604.792934 -142.702721 
L 604.795445 -141.95409 
L 604.795115 -141.205459 
L 604.792454 -140.456828 
L 604.787932 -139.708197 
L 604.78191 -138.959566 
L 604.774618 -138.210935 
L 604.766173 -137.462304 
L 604.756633 -136.713673 
L 604.746077 -135.965042 
L 604.734683 -135.216411 
L 604.722789 -134.46778 
L 604.710923 -133.719149 
L 604.699785 -132.970518 
L 604.690189 -132.221888 
L 604.682964 -131.473257 
L 604.678833 -130.724626 
L 604.678285 -129.975995 
L 604.681467 -129.227364 
L 604.688127 -128.478733 
L 604.6976 -127.730102 
L 604.708886 -126.981471 
L 604.720781 -126.23284 
L 604.732075 -125.484209 
L 604.74177 -124.735578 
L 604.74931 -123.986947 
L 604.754758 -123.238316 
L 604.758913 -122.489685 
L 604.763337 -121.741054 
L 604.770277 -120.992423 
L 604.782508 -120.243792 
L 604.803092 -119.495161 
L 604.835111 -118.74653 
L 604.881378 -117.997899 
L 604.944192 -117.249268 
L 605.025132 -116.500637 
L 605.124946 -115.752006 
L 605.243533 -115.003375 
L 605.380022 -114.254745 
L 605.532954 -113.506114 
L 605.700544 -112.757483 
L 605.880989 -112.008852 
L 606.072776 -111.260221 
L 606.274957 -110.51159 
L 606.487308 -109.762959 
L 606.710363 -109.014328 
L 606.945275 -108.265697 
L 607.193516 -107.517066 
L 607.456466 -106.768435 
L 607.734945 -106.019804 
L 608.028777 -105.271173 
L 608.336477 -104.522542 
L 608.655122 -103.773911 
L 608.98043 -103.02528 
L 609.307021 -102.276649 
L 609.62881 -101.528018 
L 609.939429 -100.779387 
L 610.232595 -100.030756 
L 610.50237 -99.282125 
L 610.743265 -98.533494 
L 610.950243 -97.784863 
L 611.118644 -97.036232 
L 611.244124 -96.287601 
L 611.322651 -95.538971 
L 611.350602 -94.79034 
L 611.324945 -94.041709 
L 611.243494 -93.293078 
L 611.105192 -92.544447 
L 610.910389 -91.795816 
L 610.661089 -91.047185 
L 610.361187 -90.298554 
L 610.016677 -89.549923 
L 609.635876 -88.801292 
L 609.22965 -88.052661 
L 608.811662 -87.30403 
L 608.398632 -86.555399 
L 608.010599 -85.806768 
L 607.67118 -85.058137 
L 607.407759 -84.309506 
L 607.25154 -83.560875 
L 607.237269 -82.812244 
L 607.402375 -82.063613 
L 607.785223 -81.314982 
L 608.42216 -80.566351 
L 609.343196 -79.81772 
L 610.566405 -79.069089 
L 612.091545 -78.320458 
L 613.893836 -77.571828 
L 615.919185 -76.823197 
L 618.08235 -76.074566 
L 620.269292 -75.325935 
L 622.344444 -74.577304 
L 624.162687 -73.828673 
L 625.584765 -73.080042 
L 626.493938 -72.331411 
L 626.811074 -71.58278 
L 626.505438 -70.834149 
z
" id="m8c81ab7db9" style="stroke:#141414;stroke-width:1.5;"/>
    </defs>
    <g clip-path="url(#p5333e08ccc)">
     <use style="fill:#0e5f2f;stroke:#141414;stroke-width:1.5;" x="0" xlink:href="#m8c81ab7db9" y="537.345047"/>
    </g>
   </g>
   <g id="patch_3">
    <path clip-path="url(#p5333e08ccc)" d="M 128.108036 466.810891 
L 128.108036 466.810891 
L 128.108036 466.810891 
L 128.108036 466.810891 
z
" style="fill:#083c1d;stroke:#141414;stroke-linejoin:miter;stroke-width:0.75;"/>
   </g>
   <g id="patch_4">
    <path clip-path="url(#p5333e08ccc)" d="M 128.108036 466.810891 
L 128.108036 466.810891 
L 128.108036 466.810891 
L 128.108036 466.810891 
z
" style="fill:#0e5f2f;stroke:#141414;stroke-linejoin:miter;stroke-width:0.75;"/>
   </g>
   <g id="line2d_1">
    <path clip-path="url(#p5333e08ccc)" d="M 105.420822 464.205202 
L 105.420822 351.592644 
" style="fill:none;stroke:#141414;stroke-linecap:round;stroke-width:1.5;"/>
   </g>
   <g id="line2d_2">
    <path clip-path="url(#p5333e08ccc)" d="M 105.420822 431.29319 
L 105.420822 395.462625 
" style="fill:none;stroke:#141414;stroke-linecap:round;stroke-width:4.5;"/>
   </g>
   <g id="line2d_3">
    <path clip-path="url(#p5333e08ccc)" d="M 150.795251 464.01165 
L 150.795251 296.411198 
" style="fill:none;stroke:#141414;stroke-linecap:round;stroke-width:1.5;"/>
   </g>
   <g id="line2d_4">
    <path clip-path="url(#p5333e08ccc)" d="M 150.795251 411.19251 
L 150.795251 365.113909 
" style="fill:none;stroke:#141414;stroke-linecap:round;stroke-width:4.5;"/>
   </g>
   <g id="line2d_5">
    <path clip-path="url(#p5333e08ccc)" d="M 218.856894 464.978903 
L 218.856894 377.337968 
" style="fill:none;stroke:#141414;stroke-linecap:round;stroke-width:1.5;"/>
   </g>
   <g id="line2d_6">
    <path clip-path="url(#p5333e08ccc)" d="M 218.856894 436.151172 
L 218.856894 411.116573 
" style="fill:none;stroke:#141414;stroke-linecap:round;stroke-width:4.5;"/>
   </g>
   <g id="line2d_7">
    <path clip-path="url(#p5333e08ccc)" d="M 264.231323 465.3679 
L 264.231323 340.237442 
" style="fill:none;stroke:#141414;stroke-linecap:round;stroke-width:1.5;"/>
   </g>
   <g id="line2d_8">
    <path clip-path="url(#p5333e08ccc)" d="M 264.231323 425.288271 
L 264.231323 391.239107 
" style="fill:none;stroke:#141414;stroke-linecap:round;stroke-width:4.5;"/>
   </g>
   <g id="line2d_9">
    <path clip-path="url(#p5333e08ccc)" d="M 332.292967 379.097809 
L 332.292967 175.443793 
" style="fill:none;stroke:#141414;stroke-linecap:round;stroke-width:1.5;"/>
   </g>
   <g id="line2d_10">
    <path clip-path="url(#p5333e08ccc)" d="M 332.292967 288.852424 
L 332.292967 202.064368 
" style="fill:none;stroke:#141414;stroke-linecap:round;stroke-width:4.5;"/>
   </g>
   <g id="line2d_11">
    <path clip-path="url(#p5333e08ccc)" d="M 377.667396 309.54388 
L 377.667396 29.140002 
" style="fill:none;stroke:#141414;stroke-linecap:round;stroke-width:1.5;"/>
   </g>
   <g id="line2d_12">
    <path clip-path="url(#p5333e08ccc)" d="M 377.667396 196.40192 
L 377.667396 120.353414 
" style="fill:none;stroke:#141414;stroke-linecap:round;stroke-width:4.5;"/>
   </g>
   <g id="line2d_13">
    <path clip-path="url(#p5333e08ccc)" d="M 445.729039 414.641672 
L 445.729039 136.5154 
" style="fill:none;stroke:#141414;stroke-linecap:round;stroke-width:1.5;"/>
   </g>
   <g id="line2d_14">
    <path clip-path="url(#p5333e08ccc)" d="M 445.729039 327.533231 
L 445.729039 208.931894 
" style="fill:none;stroke:#141414;stroke-linecap:round;stroke-width:4.5;"/>
   </g>
   <g id="line2d_15">
    <path clip-path="url(#p5333e08ccc)" d="M 491.103468 465.923652 
L 491.103468 59.146919 
" style="fill:none;stroke:#141414;stroke-linecap:round;stroke-width:1.5;"/>
   </g>
   <g id="line2d_16">
    <path clip-path="url(#p5333e08ccc)" d="M 491.103468 299.566445 
L 491.103468 173.851109 
" style="fill:none;stroke:#141414;stroke-linecap:round;stroke-width:4.5;"/>
   </g>
   <g id="line2d_17">
    <path clip-path="url(#p5333e08ccc)" d="M 559.165112 466.52026 
L 559.165112 442.546734 
" style="fill:none;stroke:#141414;stroke-linecap:round;stroke-width:1.5;"/>
   </g>
   <g id="line2d_18">
    <path clip-path="url(#p5333e08ccc)" d="M 559.165112 466.185456 
L 559.165112 456.429208 
" style="fill:none;stroke:#141414;stroke-linecap:round;stroke-width:4.5;"/>
   </g>
   <g id="line2d_19">
    <path clip-path="url(#p5333e08ccc)" d="M 604.539541 466.510899 
L 604.539541 413.64408 
" style="fill:none;stroke:#141414;stroke-linecap:round;stroke-width:1.5;"/>
   </g>
   <g id="line2d_20">
    <path clip-path="url(#p5333e08ccc)" d="M 604.539541 466.20791 
L 604.539541 444.068685 
" style="fill:none;stroke:#141414;stroke-linecap:round;stroke-width:4.5;"/>
   </g>
   <g id="patch_5">
    <path d="M 71.39 489.880047 
L 71.39 7.2 
" style="fill:none;stroke:#262626;stroke-linecap:square;stroke-linejoin:miter;stroke-width:0.8;"/>
   </g>
   <g id="patch_6">
    <path d="M 71.39 489.880047 
L 638.570363 489.880047 
" style="fill:none;stroke:#262626;stroke-linecap:square;stroke-linejoin:miter;stroke-width:0.8;"/>
   </g>
   <g id="PathCollection_1">
    <defs>
     <path d="M 0 1.5 
C 0.397805 1.5 0.77937 1.341951 1.06066 1.06066 
C 1.341951 0.77937 1.5 0.397805 1.5 0 
C 1.5 -0.397805 1.341951 -0.77937 1.06066 -1.06066 
C 0.77937 -1.341951 0.397805 -1.5 0 -1.5 
C -0.397805 -1.5 -0.77937 -1.341951 -1.06066 -1.06066 
C -1.341951 -0.77937 -1.5 -0.397805 -1.5 0 
C -1.5 0.397805 -1.341951 0.77937 -1.06066 1.06066 
C -0.77937 1.341951 -0.397805 1.5 0 1.5 
z
" id="md8e1ecc8cb" style="stroke:#141414;"/>
    </defs>
    <g clip-path="url(#p5333e08ccc)">
     <use style="fill:#ffffff;stroke:#141414;" x="105.420822" xlink:href="#md8e1ecc8cb" y="413.72105"/>
    </g>
   </g>
   <g id="PathCollection_2">
    <g clip-path="url(#p5333e08ccc)">
     <use style="fill:#ffffff;stroke:#141414;" x="150.795251" xlink:href="#md8e1ecc8cb" y="390.957678"/>
    </g>
   </g>
   <g id="PathCollection_3">
    <g clip-path="url(#p5333e08ccc)">
     <use style="fill:#ffffff;stroke:#141414;" x="218.856894" xlink:href="#md8e1ecc8cb" y="425.557821"/>
    </g>
   </g>
   <g id="PathCollection_4">
    <g clip-path="url(#p5333e08ccc)">
     <use style="fill:#ffffff;stroke:#141414;" x="264.231323" xlink:href="#md8e1ecc8cb" y="410.456046"/>
    </g>
   </g>
   <g id="PathCollection_5">
    <g clip-path="url(#p5333e08ccc)">
     <use style="fill:#ffffff;stroke:#141414;" x="332.292967" xlink:href="#md8e1ecc8cb" y="213.080932"/>
    </g>
   </g>
   <g id="PathCollection_6">
    <g clip-path="url(#p5333e08ccc)">
     <use style="fill:#ffffff;stroke:#141414;" x="377.667396" xlink:href="#md8e1ecc8cb" y="156.050575"/>
    </g>
   </g>
   <g id="PathCollection_7">
    <g clip-path="url(#p5333e08ccc)">
     <use style="fill:#ffffff;stroke:#141414;" x="445.729039" xlink:href="#md8e1ecc8cb" y="250.913089"/>
    </g>
   </g>
   <g id="PathCollection_8">
    <g clip-path="url(#p5333e08ccc)">
     <use style="fill:#ffffff;stroke:#141414;" x="491.103468" xlink:href="#md8e1ecc8cb" y="242.094464"/>
    </g>
   </g>
   <g id="PathCollection_9">
    <g clip-path="url(#p5333e08ccc)">
     <use style="fill:#ffffff;stroke:#141414;" x="559.165112" xlink:href="#md8e1ecc8cb" y="462.947142"/>
    </g>
   </g>
   <g id="PathCollection_10">
    <g clip-path="url(#p5333e08ccc)">
     <use style="fill:#ffffff;stroke:#141414;" x="604.539541" xlink:href="#md8e1ecc8cb" y="465.51375"/>
    </g>
   </g>
  </g>
  <g id="legend_1">
   <g id="text_14">
    <!-- workday -->
    <defs>
     <path d="M 16.15625 0 
L 0.296875 51.859375 
L 9.375 51.859375 
L 17.625 21.921875 
L 20.703125 10.796875 
Q 20.90625 11.625 23.390625 21.484375 
L 31.640625 51.859375 
L 40.671875 51.859375 
L 48.4375 21.78125 
L 51.03125 11.859375 
L 54 21.875 
L 62.890625 51.859375 
L 71.4375 51.859375 
L 55.21875 0 
L 46.09375 0 
L 37.84375 31.0625 
L 35.84375 39.890625 
L 25.34375 0 
z
" id="ArialMT-119"/>
     <path d="M 6.640625 0 
L 6.640625 71.578125 
L 15.4375 71.578125 
L 15.4375 30.765625 
L 36.234375 51.859375 
L 47.609375 51.859375 
L 27.78125 32.625 
L 49.609375 0 
L 38.765625 0 
L 21.625 26.515625 
L 15.4375 20.5625 
L 15.4375 0 
z
" id="ArialMT-107"/>
     <path d="M 40.4375 6.390625 
Q 35.546875 2.25 31.03125 0.53125 
Q 26.515625 -1.171875 21.34375 -1.171875 
Q 12.796875 -1.171875 8.203125 3 
Q 3.609375 7.171875 3.609375 13.671875 
Q 3.609375 17.484375 5.34375 20.625 
Q 7.078125 23.78125 9.890625 25.6875 
Q 12.703125 27.59375 16.21875 28.5625 
Q 18.796875 29.25 24.03125 29.890625 
Q 34.671875 31.15625 39.703125 32.90625 
Q 39.75 34.71875 39.75 35.203125 
Q 39.75 40.578125 37.25 42.78125 
Q 33.890625 45.75 27.25 45.75 
Q 21.046875 45.75 18.09375 43.578125 
Q 15.140625 41.40625 13.71875 35.890625 
L 5.125 37.0625 
Q 6.296875 42.578125 8.984375 45.96875 
Q 11.671875 49.359375 16.75 51.1875 
Q 21.828125 53.03125 28.515625 53.03125 
Q 35.15625 53.03125 39.296875 51.46875 
Q 43.453125 49.90625 45.40625 47.53125 
Q 47.359375 45.171875 48.140625 41.546875 
Q 48.578125 39.3125 48.578125 33.453125 
L 48.578125 21.734375 
Q 48.578125 9.46875 49.140625 6.21875 
Q 49.703125 2.984375 51.375 0 
L 42.1875 0 
Q 40.828125 2.734375 40.4375 6.390625 
z
M 39.703125 26.03125 
Q 34.90625 24.078125 25.34375 22.703125 
Q 19.921875 21.921875 17.671875 20.9375 
Q 15.4375 19.96875 14.203125 18.09375 
Q 12.984375 16.21875 12.984375 13.921875 
Q 12.984375 10.40625 15.640625 8.0625 
Q 18.3125 5.71875 23.4375 5.71875 
Q 28.515625 5.71875 32.46875 7.9375 
Q 36.421875 10.15625 38.28125 14.015625 
Q 39.703125 17 39.703125 22.796875 
z
" id="ArialMT-97"/>
     <path d="M 6.203125 -19.96875 
L 5.21875 -11.71875 
Q 8.109375 -12.5 10.25 -12.5 
Q 13.1875 -12.5 14.9375 -11.515625 
Q 16.703125 -10.546875 17.828125 -8.796875 
Q 18.65625 -7.46875 20.515625 -2.25 
Q 20.75 -1.515625 21.296875 -0.09375 
L 1.609375 51.859375 
L 11.078125 51.859375 
L 21.875 21.828125 
Q 23.96875 16.109375 25.640625 9.8125 
Q 27.15625 15.875 29.25 21.625 
L 40.328125 51.859375 
L 49.125 51.859375 
L 29.390625 -0.875 
Q 26.21875 -9.421875 24.46875 -12.640625 
Q 22.125 -17 19.09375 -19.015625 
Q 16.0625 -21.046875 11.859375 -21.046875 
Q 9.328125 -21.046875 6.203125 -19.96875 
z
" id="ArialMT-121"/>
    </defs>
    <g style="fill:#262626;" transform="translate(717.143 250.082524)scale(0.16 -0.16)">
     <use xlink:href="#ArialMT-119"/>
     <use x="72.216797" xlink:href="#ArialMT-111"/>
     <use x="127.832031" xlink:href="#ArialMT-114"/>
     <use x="161.132812" xlink:href="#ArialMT-107"/>
     <use x="211.132812" xlink:href="#ArialMT-100"/>
     <use x="266.748047" xlink:href="#ArialMT-97"/>
     <use x="322.363281" xlink:href="#ArialMT-121"/>
    </g>
   </g>
   <g id="patch_7">
    <path d="M 720.08175 272.902524 
L 752.08175 272.902524 
L 752.08175 261.702524 
L 720.08175 261.702524 
z
" style="fill:#083c1d;stroke:#141414;stroke-linejoin:miter;stroke-width:0.75;"/>
   </g>
   <g id="text_15">
    <!-- 0 -->
    <g style="fill:#262626;" transform="translate(764.88175 272.902524)scale(0.16 -0.16)">
     <use xlink:href="#ArialMT-48"/>
    </g>
   </g>
   <g id="patch_8">
    <path d="M 720.08175 295.535024 
L 752.08175 295.535024 
L 752.08175 284.335024 
L 720.08175 284.335024 
z
" style="fill:#0e5f2f;stroke:#141414;stroke-linejoin:miter;stroke-width:0.75;"/>
   </g>
   <g id="text_16">
    <!-- 1 -->
    <g style="fill:#262626;" transform="translate(764.88175 295.535024)scale(0.16 -0.16)">
     <use xlink:href="#ArialMT-49"/>
    </g>
   </g>
  </g>
 </g>
 <defs>
  <clipPath id="p5333e08ccc">
   <rect height="482.680047" width="567.180363" x="71.39" y="7.2"/>
  </clipPath>
 </defs>
</svg>
