<?xml version="1.0" encoding="utf-8" standalone="no"?>
<!DOCTYPE svg PUBLIC "-//W3C//DTD SVG 1.1//EN"
  "http://www.w3.org/Graphics/SVG/1.1/DTD/svg11.dtd">
<!-- Created with matplotlib (https://matplotlib.org/) -->
<svg height="536.278723pt" version="1.1" viewBox="0 0 757.646 536.278723" width="757.646pt" xmlns="http://www.w3.org/2000/svg" xmlns:xlink="http://www.w3.org/1999/xlink">
 <defs>
  <style type="text/css">
*{stroke-linecap:butt;stroke-linejoin:round;white-space:pre;}
  </style>
 </defs>
 <g id="figure_1">
  <g id="patch_1">
   <path d="M 0 536.278723 
L 757.646 536.278723 
L 757.646 0 
L 0 0 
z
" style="fill:#ffffff;"/>
  </g>
  <g id="axes_1">
   <g id="patch_2">
    <path d="M 71.39 488.813723 
L 750.446 488.813723 
L 750.446 10.105197 
L 71.39 10.105197 
z
" style="fill:#ffffff;"/>
   </g>
   <g id="matplotlib.axis_1">
    <g id="xtick_1">
     <g id="text_1">
      <!-- 0656-2 -->
      <defs>
       <path d="M 4.15625 35.296875 
Q 4.15625 48 6.765625 55.734375 
Q 9.375 63.484375 14.515625 67.671875 
Q 19.671875 71.875 27.484375 71.875 
Q 33.25 71.875 37.59375 69.546875 
Q 41.9375 67.234375 44.765625 62.859375 
Q 47.609375 58.5 49.21875 52.21875 
Q 50.828125 45.953125 50.828125 35.296875 
Q 50.828125 22.703125 48.234375 14.96875 
Q 45.65625 7.234375 40.5 3 
Q 35.359375 -1.21875 27.484375 -1.21875 
Q 17.140625 -1.21875 11.234375 6.203125 
Q 4.15625 15.140625 4.15625 35.296875 
z
M 13.1875 35.296875 
Q 13.1875 17.671875 17.3125 11.828125 
Q 21.4375 6 27.484375 6 
Q 33.546875 6 37.671875 11.859375 
Q 41.796875 17.71875 41.796875 35.296875 
Q 41.796875 52.984375 37.671875 58.78125 
Q 33.546875 64.59375 27.390625 64.59375 
Q 21.34375 64.59375 17.71875 59.46875 
Q 13.1875 52.9375 13.1875 35.296875 
z
" id="ArialMT-48"/>
       <path d="M 49.75 54.046875 
L 41.015625 53.375 
Q 39.84375 58.546875 37.703125 60.890625 
Q 34.125 64.65625 28.90625 64.65625 
Q 24.703125 64.65625 21.53125 62.3125 
Q 17.390625 59.28125 14.984375 53.46875 
Q 12.59375 47.65625 12.5 36.921875 
Q 15.671875 41.75 20.265625 44.09375 
Q 24.859375 46.4375 29.890625 46.4375 
Q 38.671875 46.4375 44.84375 39.96875 
Q 51.03125 33.5 51.03125 23.25 
Q 51.03125 16.5 48.125 10.71875 
Q 45.21875 4.9375 40.140625 1.859375 
Q 35.0625 -1.21875 28.609375 -1.21875 
Q 17.625 -1.21875 10.6875 6.859375 
Q 3.765625 14.9375 3.765625 33.5 
Q 3.765625 54.25 11.421875 63.671875 
Q 18.109375 71.875 29.4375 71.875 
Q 37.890625 71.875 43.28125 67.140625 
Q 48.6875 62.40625 49.75 54.046875 
z
M 13.875 23.1875 
Q 13.875 18.65625 15.796875 14.5 
Q 17.71875 10.359375 21.1875 8.171875 
Q 24.65625 6 28.46875 6 
Q 34.03125 6 38.03125 10.484375 
Q 42.046875 14.984375 42.046875 22.703125 
Q 42.046875 30.125 38.078125 34.390625 
Q 34.125 38.671875 28.125 38.671875 
Q 22.171875 38.671875 18.015625 34.390625 
Q 13.875 30.125 13.875 23.1875 
z
" id="ArialMT-54"/>
       <path d="M 4.15625 18.75 
L 13.375 19.53125 
Q 14.40625 12.796875 18.140625 9.390625 
Q 21.875 6 27.15625 6 
Q 33.5 6 37.890625 10.78125 
Q 42.28125 15.578125 42.28125 23.484375 
Q 42.28125 31 38.0625 35.34375 
Q 33.84375 39.703125 27 39.703125 
Q 22.75 39.703125 19.328125 37.765625 
Q 15.921875 35.84375 13.96875 32.765625 
L 5.71875 33.84375 
L 12.640625 70.609375 
L 48.25 70.609375 
L 48.25 62.203125 
L 19.671875 62.203125 
L 15.828125 42.96875 
Q 22.265625 47.46875 29.34375 47.46875 
Q 38.71875 47.46875 45.15625 40.96875 
Q 51.609375 34.46875 51.609375 24.265625 
Q 51.609375 14.546875 45.953125 7.46875 
Q 39.0625 -1.21875 27.15625 -1.21875 
Q 17.390625 -1.21875 11.203125 4.25 
Q 5.03125 9.71875 4.15625 18.75 
z
" id="ArialMT-53"/>
       <path d="M 3.171875 21.484375 
L 3.171875 30.328125 
L 30.171875 30.328125 
L 30.171875 21.484375 
z
" id="ArialMT-45"/>
       <path d="M 50.34375 8.453125 
L 50.34375 0 
L 3.03125 0 
Q 2.9375 3.171875 4.046875 6.109375 
Q 5.859375 10.9375 9.828125 15.625 
Q 13.8125 20.3125 21.34375 26.46875 
Q 33.015625 36.03125 37.109375 41.625 
Q 41.21875 47.21875 41.21875 52.203125 
Q 41.21875 57.421875 37.46875 61 
Q 33.734375 64.59375 27.734375 64.59375 
Q 21.390625 64.59375 17.578125 60.78125 
Q 13.765625 56.984375 13.71875 50.25 
L 4.6875 51.171875 
Q 5.609375 61.28125 11.65625 66.578125 
Q 17.71875 71.875 27.9375 71.875 
Q 38.234375 71.875 44.234375 66.15625 
Q 50.25 60.453125 50.25 52 
Q 50.25 47.703125 48.484375 43.546875 
Q 46.734375 39.40625 42.65625 34.8125 
Q 38.578125 30.21875 29.109375 22.21875 
Q 21.1875 15.578125 18.9375 13.203125 
Q 16.703125 10.84375 15.234375 8.453125 
z
" id="ArialMT-50"/>
      </defs>
      <g style="fill:#262626;" transform="translate(114.3881 507.266223)scale(0.16 -0.16)">
       <use xlink:href="#ArialMT-48"/>
       <use x="55.615234" xlink:href="#ArialMT-54"/>
       <use x="111.230469" xlink:href="#ArialMT-53"/>
       <use x="166.845703" xlink:href="#ArialMT-54"/>
       <use x="222.460938" xlink:href="#ArialMT-45"/>
       <use x="255.761719" xlink:href="#ArialMT-50"/>
      </g>
     </g>
    </g>
    <g id="xtick_2">
     <g id="text_2">
      <!-- 0655-1 -->
      <defs>
       <path d="M 37.25 0 
L 28.46875 0 
L 28.46875 56 
Q 25.296875 52.984375 20.140625 49.953125 
Q 14.984375 46.921875 10.890625 45.40625 
L 10.890625 53.90625 
Q 18.265625 57.375 23.78125 62.296875 
Q 29.296875 67.234375 31.59375 71.875 
L 37.25 71.875 
z
" id="ArialMT-49"/>
      </defs>
      <g style="fill:#262626;" transform="translate(250.1993 507.266223)scale(0.16 -0.16)">
       <use xlink:href="#ArialMT-48"/>
       <use x="55.615234" xlink:href="#ArialMT-54"/>
       <use x="111.230469" xlink:href="#ArialMT-53"/>
       <use x="166.845703" xlink:href="#ArialMT-53"/>
       <use x="222.460938" xlink:href="#ArialMT-45"/>
       <use x="255.761719" xlink:href="#ArialMT-49"/>
      </g>
     </g>
    </g>
    <g id="xtick_3">
     <g id="text_3">
      <!-- 0655-2 -->
      <g style="fill:#262626;" transform="translate(386.0105 507.266223)scale(0.16 -0.16)">
       <use xlink:href="#ArialMT-48"/>
       <use x="55.615234" xlink:href="#ArialMT-54"/>
       <use x="111.230469" xlink:href="#ArialMT-53"/>
       <use x="166.845703" xlink:href="#ArialMT-53"/>
       <use x="222.460938" xlink:href="#ArialMT-45"/>
       <use x="255.761719" xlink:href="#ArialMT-50"/>
      </g>
     </g>
    </g>
    <g id="xtick_4">
     <g id="text_4">
      <!-- 0820-1 -->
      <defs>
       <path d="M 17.671875 38.8125 
Q 12.203125 40.828125 9.5625 44.53125 
Q 6.9375 48.25 6.9375 53.421875 
Q 6.9375 61.234375 12.546875 66.546875 
Q 18.171875 71.875 27.484375 71.875 
Q 36.859375 71.875 42.578125 66.421875 
Q 48.296875 60.984375 48.296875 53.171875 
Q 48.296875 48.1875 45.671875 44.5 
Q 43.0625 40.828125 37.75 38.8125 
Q 44.34375 36.671875 47.78125 31.875 
Q 51.21875 27.09375 51.21875 20.453125 
Q 51.21875 11.28125 44.71875 5.03125 
Q 38.234375 -1.21875 27.640625 -1.21875 
Q 17.046875 -1.21875 10.546875 5.046875 
Q 4.046875 11.328125 4.046875 20.703125 
Q 4.046875 27.6875 7.59375 32.390625 
Q 11.140625 37.109375 17.671875 38.8125 
z
M 15.921875 53.71875 
Q 15.921875 48.640625 19.1875 45.40625 
Q 22.46875 42.1875 27.6875 42.1875 
Q 32.765625 42.1875 36.015625 45.375 
Q 39.265625 48.578125 39.265625 53.21875 
Q 39.265625 58.0625 35.90625 61.359375 
Q 32.5625 64.65625 27.59375 64.65625 
Q 22.5625 64.65625 19.234375 61.421875 
Q 15.921875 58.203125 15.921875 53.71875 
z
M 13.09375 20.65625 
Q 13.09375 16.890625 14.875 13.375 
Q 16.65625 9.859375 20.171875 7.921875 
Q 23.6875 6 27.734375 6 
Q 34.03125 6 38.125 10.046875 
Q 42.234375 14.109375 42.234375 20.359375 
Q 42.234375 26.703125 38.015625 30.859375 
Q 33.796875 35.015625 27.4375 35.015625 
Q 21.234375 35.015625 17.15625 30.90625 
Q 13.09375 26.8125 13.09375 20.65625 
z
" id="ArialMT-56"/>
      </defs>
      <g style="fill:#262626;" transform="translate(521.8217 507.266223)scale(0.16 -0.16)">
       <use xlink:href="#ArialMT-48"/>
       <use x="55.615234" xlink:href="#ArialMT-56"/>
       <use x="111.230469" xlink:href="#ArialMT-50"/>
       <use x="166.845703" xlink:href="#ArialMT-48"/>
       <use x="222.460938" xlink:href="#ArialMT-45"/>
       <use x="255.761719" xlink:href="#ArialMT-49"/>
      </g>
     </g>
    </g>
    <g id="xtick_5">
     <g id="text_5">
      <!-- 0820-2 -->
      <g style="fill:#262626;" transform="translate(657.6329 507.266223)scale(0.16 -0.16)">
       <use xlink:href="#ArialMT-48"/>
       <use x="55.615234" xlink:href="#ArialMT-56"/>
       <use x="111.230469" xlink:href="#ArialMT-50"/>
       <use x="166.845703" xlink:href="#ArialMT-48"/>
       <use x="222.460938" xlink:href="#ArialMT-45"/>
       <use x="255.761719" xlink:href="#ArialMT-50"/>
      </g>
     </g>
    </g>
    <g id="text_6">
     <!-- Counter id -->
     <defs>
      <path d="M 58.796875 25.09375 
L 68.265625 22.703125 
Q 65.28125 11.03125 57.546875 4.90625 
Q 49.8125 -1.21875 38.625 -1.21875 
Q 27.046875 -1.21875 19.796875 3.484375 
Q 12.546875 8.203125 8.765625 17.140625 
Q 4.984375 26.078125 4.984375 36.328125 
Q 4.984375 47.515625 9.25 55.828125 
Q 13.53125 64.15625 21.40625 68.46875 
Q 29.296875 72.796875 38.765625 72.796875 
Q 49.515625 72.796875 56.828125 67.328125 
Q 64.15625 61.859375 67.046875 51.953125 
L 57.71875 49.75 
Q 55.21875 57.5625 50.484375 61.125 
Q 45.75 64.703125 38.578125 64.703125 
Q 30.328125 64.703125 24.78125 60.734375 
Q 19.234375 56.78125 16.984375 50.109375 
Q 14.75 43.453125 14.75 36.375 
Q 14.75 27.25 17.40625 20.4375 
Q 20.0625 13.625 25.671875 10.25 
Q 31.296875 6.890625 37.84375 6.890625 
Q 45.796875 6.890625 51.3125 11.46875 
Q 56.84375 16.0625 58.796875 25.09375 
z
" id="ArialMT-67"/>
      <path d="M 3.328125 25.921875 
Q 3.328125 40.328125 11.328125 47.265625 
Q 18.015625 53.03125 27.640625 53.03125 
Q 38.328125 53.03125 45.109375 46.015625 
Q 51.90625 39.015625 51.90625 26.65625 
Q 51.90625 16.65625 48.90625 10.90625 
Q 45.90625 5.171875 40.15625 2 
Q 34.421875 -1.171875 27.640625 -1.171875 
Q 16.75 -1.171875 10.03125 5.8125 
Q 3.328125 12.796875 3.328125 25.921875 
z
M 12.359375 25.921875 
Q 12.359375 15.96875 16.703125 11.015625 
Q 21.046875 6.0625 27.640625 6.0625 
Q 34.1875 6.0625 38.53125 11.03125 
Q 42.875 16.015625 42.875 26.21875 
Q 42.875 35.84375 38.5 40.796875 
Q 34.125 45.75 27.640625 45.75 
Q 21.046875 45.75 16.703125 40.8125 
Q 12.359375 35.890625 12.359375 25.921875 
z
" id="ArialMT-111"/>
      <path d="M 40.578125 0 
L 40.578125 7.625 
Q 34.515625 -1.171875 24.125 -1.171875 
Q 19.53125 -1.171875 15.546875 0.578125 
Q 11.578125 2.34375 9.640625 5 
Q 7.71875 7.671875 6.9375 11.53125 
Q 6.390625 14.109375 6.390625 19.734375 
L 6.390625 51.859375 
L 15.1875 51.859375 
L 15.1875 23.09375 
Q 15.1875 16.21875 15.71875 13.8125 
Q 16.546875 10.359375 19.234375 8.375 
Q 21.921875 6.390625 25.875 6.390625 
Q 29.828125 6.390625 33.296875 8.421875 
Q 36.765625 10.453125 38.203125 13.9375 
Q 39.65625 17.4375 39.65625 24.078125 
L 39.65625 51.859375 
L 48.4375 51.859375 
L 48.4375 0 
z
" id="ArialMT-117"/>
      <path d="M 6.59375 0 
L 6.59375 51.859375 
L 14.5 51.859375 
L 14.5 44.484375 
Q 20.21875 53.03125 31 53.03125 
Q 35.6875 53.03125 39.625 51.34375 
Q 43.5625 49.65625 45.515625 46.921875 
Q 47.46875 44.1875 48.25 40.4375 
Q 48.734375 37.984375 48.734375 31.890625 
L 48.734375 0 
L 39.9375 0 
L 39.9375 31.546875 
Q 39.9375 36.921875 38.90625 39.578125 
Q 37.890625 42.234375 35.28125 43.8125 
Q 32.671875 45.40625 29.15625 45.40625 
Q 23.53125 45.40625 19.453125 41.84375 
Q 15.375 38.28125 15.375 28.328125 
L 15.375 0 
z
" id="ArialMT-110"/>
      <path d="M 25.78125 7.859375 
L 27.046875 0.09375 
Q 23.34375 -0.6875 20.40625 -0.6875 
Q 15.625 -0.6875 12.984375 0.828125 
Q 10.359375 2.34375 9.28125 4.8125 
Q 8.203125 7.28125 8.203125 15.1875 
L 8.203125 45.015625 
L 1.765625 45.015625 
L 1.765625 51.859375 
L 8.203125 51.859375 
L 8.203125 64.703125 
L 16.9375 69.96875 
L 16.9375 51.859375 
L 25.78125 51.859375 
L 25.78125 45.015625 
L 16.9375 45.015625 
L 16.9375 14.703125 
Q 16.9375 10.9375 17.40625 9.859375 
Q 17.875 8.796875 18.921875 8.15625 
Q 19.96875 7.515625 21.921875 7.515625 
Q 23.390625 7.515625 25.78125 7.859375 
z
" id="ArialMT-116"/>
      <path d="M 42.09375 16.703125 
L 51.171875 15.578125 
Q 49.03125 7.625 43.21875 3.21875 
Q 37.40625 -1.171875 28.375 -1.171875 
Q 17 -1.171875 10.328125 5.828125 
Q 3.65625 12.84375 3.65625 25.484375 
Q 3.65625 38.578125 10.390625 45.796875 
Q 17.140625 53.03125 27.875 53.03125 
Q 38.28125 53.03125 44.875 45.953125 
Q 51.46875 38.875 51.46875 26.03125 
Q 51.46875 25.25 51.421875 23.6875 
L 12.75 23.6875 
Q 13.234375 15.140625 17.578125 10.59375 
Q 21.921875 6.0625 28.421875 6.0625 
Q 33.25 6.0625 36.671875 8.59375 
Q 40.09375 11.140625 42.09375 16.703125 
z
M 13.234375 30.90625 
L 42.1875 30.90625 
Q 41.609375 37.453125 38.875 40.71875 
Q 34.671875 45.796875 27.984375 45.796875 
Q 21.921875 45.796875 17.796875 41.75 
Q 13.671875 37.703125 13.234375 30.90625 
z
" id="ArialMT-101"/>
      <path d="M 6.5 0 
L 6.5 51.859375 
L 14.40625 51.859375 
L 14.40625 44 
Q 17.4375 49.515625 20 51.265625 
Q 22.5625 53.03125 25.640625 53.03125 
Q 30.078125 53.03125 34.671875 50.203125 
L 31.640625 42.046875 
Q 28.421875 43.953125 25.203125 43.953125 
Q 22.3125 43.953125 20.015625 42.21875 
Q 17.71875 40.484375 16.75 37.40625 
Q 15.28125 32.71875 15.28125 27.15625 
L 15.28125 0 
z
" id="ArialMT-114"/>
      <path id="ArialMT-32"/>
      <path d="M 6.640625 61.46875 
L 6.640625 71.578125 
L 15.4375 71.578125 
L 15.4375 61.46875 
z
M 6.640625 0 
L 6.640625 51.859375 
L 15.4375 51.859375 
L 15.4375 0 
z
" id="ArialMT-105"/>
      <path d="M 40.234375 0 
L 40.234375 6.546875 
Q 35.296875 -1.171875 25.734375 -1.171875 
Q 19.53125 -1.171875 14.328125 2.25 
Q 9.125 5.671875 6.265625 11.796875 
Q 3.421875 17.921875 3.421875 25.875 
Q 3.421875 33.640625 6 39.96875 
Q 8.59375 46.296875 13.765625 49.65625 
Q 18.953125 53.03125 25.34375 53.03125 
Q 30.03125 53.03125 33.6875 51.046875 
Q 37.359375 49.078125 39.65625 45.90625 
L 39.65625 71.578125 
L 48.390625 71.578125 
L 48.390625 0 
z
M 12.453125 25.875 
Q 12.453125 15.921875 16.640625 10.984375 
Q 20.84375 6.0625 26.5625 6.0625 
Q 32.328125 6.0625 36.34375 10.765625 
Q 40.375 15.484375 40.375 25.140625 
Q 40.375 35.796875 36.265625 40.765625 
Q 32.171875 45.75 26.171875 45.75 
Q 20.3125 45.75 16.375 40.96875 
Q 12.453125 36.1875 12.453125 25.875 
z
" id="ArialMT-100"/>
     </defs>
     <g style="fill:#262626;" transform="translate(374.0105 525.898723)scale(0.16 -0.16)">
      <use xlink:href="#ArialMT-67"/>
      <use x="72.216797" xlink:href="#ArialMT-111"/>
      <use x="127.832031" xlink:href="#ArialMT-117"/>
      <use x="183.447266" xlink:href="#ArialMT-110"/>
      <use x="239.0625" xlink:href="#ArialMT-116"/>
      <use x="266.845703" xlink:href="#ArialMT-101"/>
      <use x="322.460938" xlink:href="#ArialMT-114"/>
      <use x="355.761719" xlink:href="#ArialMT-32"/>
      <use x="383.544922" xlink:href="#ArialMT-105"/>
      <use x="405.761719" xlink:href="#ArialMT-100"/>
     </g>
    </g>
   </g>
   <g id="matplotlib.axis_2">
    <g id="ytick_1">
     <g id="text_7">
      <!-- 0 -->
      <g style="fill:#262626;" transform="translate(55.4925 474.327486)scale(0.16 -0.16)">
       <use xlink:href="#ArialMT-48"/>
      </g>
     </g>
    </g>
    <g id="ytick_2">
     <g id="text_8">
      <!-- 200 -->
      <g style="fill:#262626;" transform="translate(37.6975 398.381655)scale(0.16 -0.16)">
       <use xlink:href="#ArialMT-50"/>
       <use x="55.615234" xlink:href="#ArialMT-48"/>
       <use x="111.230469" xlink:href="#ArialMT-48"/>
      </g>
     </g>
    </g>
    <g id="ytick_3">
     <g id="text_9">
      <!-- 400 -->
      <defs>
       <path d="M 32.328125 0 
L 32.328125 17.140625 
L 1.265625 17.140625 
L 1.265625 25.203125 
L 33.9375 71.578125 
L 41.109375 71.578125 
L 41.109375 25.203125 
L 50.78125 25.203125 
L 50.78125 17.140625 
L 41.109375 17.140625 
L 41.109375 0 
z
M 32.328125 25.203125 
L 32.328125 57.46875 
L 9.90625 25.203125 
z
" id="ArialMT-52"/>
      </defs>
      <g style="fill:#262626;" transform="translate(37.6975 322.435824)scale(0.16 -0.16)">
       <use xlink:href="#ArialMT-52"/>
       <use x="55.615234" xlink:href="#ArialMT-48"/>
       <use x="111.230469" xlink:href="#ArialMT-48"/>
      </g>
     </g>
    </g>
    <g id="ytick_4">
     <g id="text_10">
      <!-- 600 -->
      <g style="fill:#262626;" transform="translate(37.6975 246.489993)scale(0.16 -0.16)">
       <use xlink:href="#ArialMT-54"/>
       <use x="55.615234" xlink:href="#ArialMT-48"/>
       <use x="111.230469" xlink:href="#ArialMT-48"/>
      </g>
     </g>
    </g>
    <g id="ytick_5">
     <g id="text_11">
      <!-- 800 -->
      <g style="fill:#262626;" transform="translate(37.6975 170.544162)scale(0.16 -0.16)">
       <use xlink:href="#ArialMT-56"/>
       <use x="55.615234" xlink:href="#ArialMT-48"/>
       <use x="111.230469" xlink:href="#ArialMT-48"/>
      </g>
     </g>
    </g>
    <g id="ytick_6">
     <g id="text_12">
      <!-- 1000 -->
      <g style="fill:#262626;" transform="translate(28.8 94.598331)scale(0.16 -0.16)">
       <use xlink:href="#ArialMT-49"/>
       <use x="55.615234" xlink:href="#ArialMT-48"/>
       <use x="111.230469" xlink:href="#ArialMT-48"/>
       <use x="166.845703" xlink:href="#ArialMT-48"/>
      </g>
     </g>
    </g>
    <g id="ytick_7">
     <g id="text_13">
      <!-- 1200 -->
      <g style="fill:#262626;" transform="translate(28.8 18.6525)scale(0.16 -0.16)">
       <use xlink:href="#ArialMT-49"/>
       <use x="55.615234" xlink:href="#ArialMT-50"/>
       <use x="111.230469" xlink:href="#ArialMT-48"/>
       <use x="166.845703" xlink:href="#ArialMT-48"/>
      </g>
     </g>
    </g>
    <g id="text_14">
     <!-- Count [$h^{-1}$] -->
     <defs>
      <path d="M 6.78125 -19.875 
L 6.78125 71.578125 
L 26.171875 71.578125 
L 26.171875 64.3125 
L 15.578125 64.3125 
L 15.578125 -12.59375 
L 26.171875 -12.59375 
L 26.171875 -19.875 
z
" id="ArialMT-91"/>
      <path d="M 55.71875 33.015625 
L 49.3125 0 
L 40.28125 0 
L 46.6875 32.671875 
Q 47.125 34.96875 47.359375 36.71875 
Q 47.609375 38.484375 47.609375 39.5 
Q 47.609375 43.609375 45.015625 45.890625 
Q 42.4375 48.1875 37.796875 48.1875 
Q 30.5625 48.1875 25.265625 43.296875 
Q 19.96875 38.421875 18.40625 30.328125 
L 12.5 0 
L 3.515625 0 
L 18.3125 75.984375 
L 27.296875 75.984375 
L 21.484375 46.09375 
Q 24.90625 50.6875 30.21875 53.34375 
Q 35.546875 56 41.40625 56 
Q 48.640625 56 52.609375 52.09375 
Q 56.59375 48.1875 56.59375 41.109375 
Q 56.59375 39.359375 56.375 37.359375 
Q 56.15625 35.359375 55.71875 33.015625 
z
" id="DejaVuSans-Oblique-104"/>
      <path d="M 10.59375 35.5 
L 73.1875 35.5 
L 73.1875 27.203125 
L 10.59375 27.203125 
z
" id="DejaVuSans-8722"/>
      <path d="M 12.40625 8.296875 
L 28.515625 8.296875 
L 28.515625 63.921875 
L 10.984375 60.40625 
L 10.984375 69.390625 
L 28.421875 72.90625 
L 38.28125 72.90625 
L 38.28125 8.296875 
L 54.390625 8.296875 
L 54.390625 0 
L 12.40625 0 
z
" id="DejaVuSans-49"/>
      <path d="M 21.296875 -19.875 
L 1.90625 -19.875 
L 1.90625 -12.59375 
L 12.5 -12.59375 
L 12.5 64.3125 
L 1.90625 64.3125 
L 1.90625 71.578125 
L 21.296875 71.578125 
z
" id="ArialMT-93"/>
     </defs>
     <g style="fill:#262626;" transform="translate(21.6 291.61946)rotate(-90)scale(0.16 -0.16)">
      <use transform="translate(0 0.684375)" xlink:href="#ArialMT-67"/>
      <use transform="translate(72.216797 0.684375)" xlink:href="#ArialMT-111"/>
      <use transform="translate(127.832031 0.684375)" xlink:href="#ArialMT-117"/>
      <use transform="translate(183.447266 0.684375)" xlink:href="#ArialMT-110"/>
      <use transform="translate(239.0625 0.684375)" xlink:href="#ArialMT-116"/>
      <use transform="translate(266.845703 0.684375)" xlink:href="#ArialMT-32"/>
      <use transform="translate(294.628906 0.684375)" xlink:href="#ArialMT-91"/>
      <use transform="translate(322.412109 0.684375)" xlink:href="#DejaVuSans-Oblique-104"/>
      <use transform="translate(393.238724 38.965625)scale(0.7)" xlink:href="#DejaVuSans-8722"/>
      <use transform="translate(451.891068 38.965625)scale(0.7)" xlink:href="#DejaVuSans-49"/>
      <use transform="translate(499.161576 0.684375)" xlink:href="#ArialMT-93"/>
     </g>
    </g>
   </g>
   <g id="PolyCollection_1">
    <defs>
     <path d="M 140.400808 -82.248489 
L 138.190392 -82.248489 
L 137.942528 -84.782199 
L 137.695915 -87.315909 
L 137.457543 -89.849619 
L 137.230943 -92.383329 
L 137.01778 -94.917038 
L 136.820204 -97.450748 
L 136.642537 -99.984458 
L 136.491198 -102.518168 
L 136.372736 -105.051878 
L 136.290894 -107.585587 
L 136.244202 -110.119297 
L 136.225353 -112.653007 
L 136.222728 -115.186717 
L 136.223373 -117.720427 
L 136.216067 -120.254137 
L 136.193169 -122.787846 
L 136.15064 -125.321556 
L 136.086485 -127.855266 
L 135.998479 -130.388976 
L 135.882138 -132.922686 
L 135.729621 -135.456395 
L 135.529741 -137.990105 
L 135.268861 -140.523815 
L 134.932264 -143.057525 
L 134.505705 -145.591235 
L 133.977132 -148.124945 
L 133.338734 -150.658654 
L 132.589276 -153.192364 
L 131.73619 -155.726074 
L 130.79639 -158.259784 
L 129.794746 -160.793494 
L 128.759879 -163.327204 
L 127.718264 -165.860913 
L 126.688761 -168.394623 
L 125.680074 -170.928333 
L 124.692636 -173.462043 
L 123.72442 -175.995753 
L 122.778008 -178.529462 
L 121.865299 -181.063172 
L 121.007089 -183.596882 
L 120.227423 -186.130592 
L 119.545486 -188.664302 
L 118.969254 -191.198012 
L 118.494153 -193.731721 
L 118.107115 -196.265431 
L 117.793462 -198.799141 
L 117.54288 -201.332851 
L 117.351816 -203.866561 
L 117.222125 -206.40027 
L 117.157851 -208.93398 
L 117.162483 -211.46769 
L 117.237944 -214.0014 
L 117.385033 -216.53511 
L 117.604248 -219.06882 
L 117.896193 -221.602529 
L 118.26162 -224.136239 
L 118.701548 -226.669949 
L 119.217582 -229.203659 
L 119.811894 -231.737369 
L 120.486156 -234.271079 
L 121.239425 -236.804788 
L 122.065923 -239.338498 
L 122.953934 -241.872208 
L 123.88632 -244.405918 
L 124.84206 -246.939628 
L 125.797912 -249.473337 
L 126.730025 -252.007047 
L 127.616284 -254.540757 
L 128.440043 -257.074467 
L 129.194498 -259.608177 
L 129.885403 -262.141887 
L 130.529737 -264.675596 
L 131.14978 -267.209306 
L 131.764733 -269.743016 
L 132.383587 -272.276726 
L 133.0024 -274.810436 
L 133.60686 -277.344145 
L 134.178496 -279.877855 
L 134.701546 -282.411565 
L 135.167761 -284.945275 
L 135.577775 -287.478985 
L 135.939353 -290.012695 
L 136.26393 -292.546404 
L 136.563118 -295.080114 
L 136.846327 -297.613824 
L 137.119703 -300.147534 
L 137.385969 -302.681244 
L 137.644595 -305.214954 
L 137.892112 -307.748663 
L 138.122804 -310.282373 
L 138.330041 -312.816083 
L 138.50815 -315.349793 
L 138.654253 -317.883503 
L 138.76933 -320.417212 
L 138.858003 -322.950922 
L 138.927169 -325.484632 
L 138.984035 -328.018342 
L 139.034343 -330.552052 
L 139.081365 -333.085762 
L 139.509835 -333.085762 
L 139.509835 -333.085762 
L 139.556857 -330.552052 
L 139.607165 -328.018342 
L 139.664031 -325.484632 
L 139.733197 -322.950922 
L 139.82187 -320.417212 
L 139.936947 -317.883503 
L 140.08305 -315.349793 
L 140.261159 -312.816083 
L 140.468396 -310.282373 
L 140.699088 -307.748663 
L 140.946605 -305.214954 
L 141.205231 -302.681244 
L 141.471497 -300.147534 
L 141.744873 -297.613824 
L 142.028082 -295.080114 
L 142.32727 -292.546404 
L 142.651847 -290.012695 
L 143.013425 -287.478985 
L 143.423439 -284.945275 
L 143.889654 -282.411565 
L 144.412704 -279.877855 
L 144.98434 -277.344145 
L 145.5888 -274.810436 
L 146.207613 -272.276726 
L 146.826467 -269.743016 
L 147.44142 -267.209306 
L 148.061463 -264.675596 
L 148.705797 -262.141887 
L 149.396702 -259.608177 
L 150.151157 -257.074467 
L 150.974916 -254.540757 
L 151.861175 -252.007047 
L 152.793288 -249.473337 
L 153.74914 -246.939628 
L 154.70488 -244.405918 
L 155.637266 -241.872208 
L 156.525277 -239.338498 
L 157.351775 -236.804788 
L 158.105044 -234.271079 
L 158.779306 -231.737369 
L 159.373618 -229.203659 
L 159.889652 -226.669949 
L 160.32958 -224.136239 
L 160.695007 -221.602529 
L 160.986952 -219.06882 
L 161.206167 -216.53511 
L 161.353256 -214.0014 
L 161.428717 -211.46769 
L 161.433349 -208.93398 
L 161.369075 -206.40027 
L 161.239384 -203.866561 
L 161.04832 -201.332851 
L 160.797738 -198.799141 
L 160.484085 -196.265431 
L 160.097047 -193.731721 
L 159.621946 -191.198012 
L 159.045714 -188.664302 
L 158.363777 -186.130592 
L 157.584111 -183.596882 
L 156.725901 -181.063172 
L 155.813192 -178.529462 
L 154.86678 -175.995753 
L 153.898564 -173.462043 
L 152.911126 -170.928333 
L 151.902439 -168.394623 
L 150.872936 -165.860913 
L 149.831321 -163.327204 
L 148.796454 -160.793494 
L 147.79481 -158.259784 
L 146.85501 -155.726074 
L 146.001924 -153.192364 
L 145.252466 -150.658654 
L 144.614068 -148.124945 
L 144.085495 -145.591235 
L 143.658936 -143.057525 
L 143.322339 -140.523815 
L 143.061459 -137.990105 
L 142.861579 -135.456395 
L 142.709062 -132.922686 
L 142.592721 -130.388976 
L 142.504715 -127.855266 
L 142.44056 -125.321556 
L 142.398031 -122.787846 
L 142.375133 -120.254137 
L 142.367827 -117.720427 
L 142.368472 -115.186717 
L 142.365847 -112.653007 
L 142.346998 -110.119297 
L 142.300306 -107.585587 
L 142.218464 -105.051878 
L 142.100002 -102.518168 
L 141.948663 -99.984458 
L 141.770996 -97.450748 
L 141.57342 -94.917038 
L 141.360257 -92.383329 
L 141.133657 -89.849619 
L 140.895285 -87.315909 
L 140.648672 -84.782199 
L 140.400808 -82.248489 
z
" id="m1c4a05188c" style="stroke:#141414;stroke-width:1.5;"/>
    </defs>
    <g clip-path="url(#p78d06a1b8e)">
     <use style="fill:#083c1d;stroke:#141414;stroke-width:1.5;" x="0" xlink:href="#m1c4a05188c" y="536.278723"/>
    </g>
   </g>
   <g id="PolyCollection_2">
    <defs>
     <path d="M 275.521932 -69.224478 
L 274.691668 -69.224478 
L 274.550914 -73.620333 
L 274.382312 -78.016187 
L 274.186323 -82.412041 
L 273.964869 -86.807895 
L 273.721196 -91.20375 
L 273.459597 -95.599604 
L 273.185055 -99.995458 
L 272.902847 -104.391312 
L 272.618108 -108.787167 
L 272.335353 -113.183021 
L 272.057966 -117.578875 
L 271.787748 -121.974729 
L 271.52465 -126.370583 
L 271.266837 -130.766438 
L 271.011109 -135.162292 
L 270.753555 -139.558146 
L 270.490168 -143.954 
L 270.217172 -148.349855 
L 269.930962 -152.745709 
L 269.627857 -157.141563 
L 269.304081 -161.537417 
L 268.956359 -165.933272 
L 268.583178 -170.329126 
L 268.186277 -174.72498 
L 267.771633 -179.120834 
L 267.34924 -183.516688 
L 266.931529 -187.912543 
L 266.530903 -192.308397 
L 266.157314 -196.704251 
L 265.816782 -201.100105 
L 265.511246 -205.49596 
L 265.239605 -209.891814 
L 264.999369 -214.287668 
L 264.788322 -218.683522 
L 264.605753 -223.079377 
L 264.453016 -227.475231 
L 264.333309 -231.871085 
L 264.250677 -236.266939 
L 264.208433 -240.662793 
L 264.207407 -245.058648 
L 264.244653 -249.454502 
L 264.31314 -253.850356 
L 264.402689 -258.24621 
L 264.501902 -262.642065 
L 264.600532 -267.037919 
L 264.691581 -271.433773 
L 264.772632 -275.829627 
L 264.846221 -280.225482 
L 264.919331 -284.621336 
L 265.002221 -289.01719 
L 265.106827 -293.413044 
L 265.244904 -297.808898 
L 265.426142 -302.204753 
L 265.656558 -306.600607 
L 265.937567 -310.996461 
L 266.266056 -315.392315 
L 266.635481 -319.78817 
L 267.037604 -324.184024 
L 267.464124 -328.579878 
L 267.907526 -332.975732 
L 268.360881 -337.371587 
L 268.816958 -341.767441 
L 269.267419 -346.163295 
L 269.702846 -350.559149 
L 270.113817 -354.955003 
L 270.492666 -359.350858 
L 270.835136 -363.746712 
L 271.141234 -368.142566 
L 271.414949 -372.53842 
L 271.663025 -376.934275 
L 271.893244 -381.330129 
L 272.112753 -385.725983 
L 272.326781 -390.121837 
L 272.53792 -394.517692 
L 272.745969 -398.913546 
L 272.94826 -403.3094 
L 273.140373 -407.705254 
L 273.317123 -412.101108 
L 273.473672 -416.496963 
L 273.606567 -420.892817 
L 273.714508 -425.288671 
L 273.798645 -429.684525 
L 273.862365 -434.08038 
L 273.910637 -438.476234 
L 273.949117 -442.872088 
L 273.983238 -447.267942 
L 274.017478 -451.663797 
L 274.054903 -456.059651 
L 274.097019 -460.455505 
L 274.143945 -464.851359 
L 274.194869 -469.247213 
L 274.248688 -473.643068 
L 274.304638 -478.038922 
L 274.362693 -482.434776 
L 274.423562 -486.83063 
L 274.488252 -491.226485 
L 274.557386 -495.622339 
L 274.630575 -500.018193 
L 274.706101 -504.414047 
L 275.507499 -504.414047 
L 275.507499 -504.414047 
L 275.583025 -500.018193 
L 275.656214 -495.622339 
L 275.725348 -491.226485 
L 275.790038 -486.83063 
L 275.850907 -482.434776 
L 275.908962 -478.038922 
L 275.964912 -473.643068 
L 276.018731 -469.247213 
L 276.069655 -464.851359 
L 276.116581 -460.455505 
L 276.158697 -456.059651 
L 276.196122 -451.663797 
L 276.230362 -447.267942 
L 276.264483 -442.872088 
L 276.302963 -438.476234 
L 276.351235 -434.08038 
L 276.414955 -429.684525 
L 276.499092 -425.288671 
L 276.607033 -420.892817 
L 276.739928 -416.496963 
L 276.896477 -412.101108 
L 277.073227 -407.705254 
L 277.26534 -403.3094 
L 277.467631 -398.913546 
L 277.67568 -394.517692 
L 277.886819 -390.121837 
L 278.100847 -385.725983 
L 278.320356 -381.330129 
L 278.550575 -376.934275 
L 278.798651 -372.53842 
L 279.072366 -368.142566 
L 279.378464 -363.746712 
L 279.720934 -359.350858 
L 280.099783 -354.955003 
L 280.510754 -350.559149 
L 280.946181 -346.163295 
L 281.396642 -341.767441 
L 281.852719 -337.371587 
L 282.306074 -332.975732 
L 282.749476 -328.579878 
L 283.175996 -324.184024 
L 283.578119 -319.78817 
L 283.947544 -315.392315 
L 284.276033 -310.996461 
L 284.557042 -306.600607 
L 284.787458 -302.204753 
L 284.968696 -297.808898 
L 285.106773 -293.413044 
L 285.211379 -289.01719 
L 285.294269 -284.621336 
L 285.367379 -280.225482 
L 285.440968 -275.829627 
L 285.522019 -271.433773 
L 285.613068 -267.037919 
L 285.711698 -262.642065 
L 285.810911 -258.24621 
L 285.90046 -253.850356 
L 285.968947 -249.454502 
L 286.006193 -245.058648 
L 286.005167 -240.662793 
L 285.962923 -236.266939 
L 285.880291 -231.871085 
L 285.760584 -227.475231 
L 285.607847 -223.079377 
L 285.425278 -218.683522 
L 285.214231 -214.287668 
L 284.973995 -209.891814 
L 284.702354 -205.49596 
L 284.396818 -201.100105 
L 284.056286 -196.704251 
L 283.682697 -192.308397 
L 283.282071 -187.912543 
L 282.86436 -183.516688 
L 282.441967 -179.120834 
L 282.027323 -174.72498 
L 281.630422 -170.329126 
L 281.257241 -165.933272 
L 280.909519 -161.537417 
L 280.585743 -157.141563 
L 280.282638 -152.745709 
L 279.996428 -148.349855 
L 279.723432 -143.954 
L 279.460045 -139.558146 
L 279.202491 -135.162292 
L 278.946763 -130.766438 
L 278.68895 -126.370583 
L 278.425852 -121.974729 
L 278.155634 -117.578875 
L 277.878247 -113.183021 
L 277.595492 -108.787167 
L 277.310753 -104.391312 
L 277.028545 -99.995458 
L 276.754003 -95.599604 
L 276.492404 -91.20375 
L 276.248731 -86.807895 
L 276.027277 -82.412041 
L 275.831288 -78.016187 
L 275.662686 -73.620333 
L 275.521932 -69.224478 
z
" id="med36303644" style="stroke:#141414;stroke-width:1.5;"/>
    </defs>
    <g clip-path="url(#p78d06a1b8e)">
     <use style="fill:#0e5f2f;stroke:#141414;stroke-width:1.5;" x="0" xlink:href="#med36303644" y="536.278723"/>
    </g>
   </g>
   <g id="PolyCollection_3">
    <defs>
     <path d="M 411.755575 -71.287134 
L 410.080425 -71.287134 
L 409.83954 -75.606906 
L 409.565885 -79.926677 
L 409.260275 -84.246449 
L 408.923075 -88.56622 
L 408.554831 -92.885992 
L 408.157464 -97.205763 
L 407.735453 -101.525535 
L 407.296341 -105.845306 
L 406.850122 -110.165078 
L 406.407512 -114.48485 
L 405.977659 -118.804621 
L 405.566006 -123.124393 
L 405.172998 -127.444164 
L 404.793939 -131.763936 
L 404.419922 -136.083707 
L 404.03949 -140.403479 
L 403.640621 -144.72325 
L 403.212697 -149.043022 
L 402.748231 -153.362793 
L 402.244203 -157.682565 
L 401.702943 -162.002337 
L 401.132546 -166.322108 
L 400.546826 -170.64188 
L 399.964806 -174.961651 
L 399.409669 -179.281423 
L 398.907064 -183.601194 
L 398.482746 -187.920966 
L 398.159757 -192.240737 
L 397.95555 -196.560509 
L 397.879547 -200.880281 
L 397.931513 -205.200052 
L 398.100945 -209.519824 
L 398.367626 -213.839595 
L 398.703533 -218.159367 
L 399.076235 -222.479138 
L 399.45362 -226.79891 
L 399.809131 -231.118681 
L 400.126134 -235.438453 
L 400.399967 -239.758225 
L 400.63689 -244.077996 
L 400.850278 -248.397768 
L 401.055521 -252.717539 
L 401.265465 -257.037311 
L 401.487896 -261.357082 
L 401.725535 -265.676854 
L 401.978002 -269.996625 
L 402.244487 -274.316397 
L 402.525807 -278.636168 
L 402.824944 -282.95594 
L 403.145912 -287.275712 
L 403.491513 -291.595483 
L 403.860988 -295.915255 
L 404.248639 -300.235026 
L 404.644073 -304.554798 
L 405.034155 -308.874569 
L 405.406015 -313.194341 
L 405.750113 -317.514112 
L 406.062298 -321.833884 
L 406.344234 -326.153656 
L 406.602171 -330.473427 
L 406.844592 -334.793199 
L 407.079626 -339.11297 
L 407.313021 -343.432742 
L 407.547189 -347.752513 
L 407.781367 -352.072285 
L 408.01261 -356.392056 
L 408.237118 -360.711828 
L 408.451433 -365.0316 
L 408.653163 -369.351371 
L 408.841113 -373.671143 
L 409.014897 -377.990914 
L 409.174285 -382.310686 
L 409.318636 -386.630457 
L 409.446709 -390.950229 
L 409.556978 -395.27 
L 409.64834 -399.589772 
L 409.720923 -403.909544 
L 409.776645 -408.229315 
L 409.81929 -412.549087 
L 409.854042 -416.868858 
L 409.886602 -421.18863 
L 409.922149 -425.508401 
L 409.964404 -429.828173 
L 410.015068 -434.147944 
L 410.073731 -438.467716 
L 410.138248 -442.787487 
L 410.205411 -447.107259 
L 410.271675 -451.427031 
L 410.333746 -455.746802 
L 410.388973 -460.066574 
L 410.435584 -464.386345 
L 410.472867 -468.706117 
L 410.501337 -473.025888 
L 410.522807 -477.34566 
L 410.540243 -481.665431 
L 410.557299 -485.985203 
L 410.577551 -490.304975 
L 410.603646 -494.624746 
L 410.636617 -498.944518 
L 411.199383 -498.944518 
L 411.199383 -498.944518 
L 411.232354 -494.624746 
L 411.258449 -490.304975 
L 411.278701 -485.985203 
L 411.295757 -481.665431 
L 411.313193 -477.34566 
L 411.334663 -473.025888 
L 411.363133 -468.706117 
L 411.400416 -464.386345 
L 411.447027 -460.066574 
L 411.502254 -455.746802 
L 411.564325 -451.427031 
L 411.630589 -447.107259 
L 411.697752 -442.787487 
L 411.762269 -438.467716 
L 411.820932 -434.147944 
L 411.871596 -429.828173 
L 411.913851 -425.508401 
L 411.949398 -421.18863 
L 411.981958 -416.868858 
L 412.01671 -412.549087 
L 412.059355 -408.229315 
L 412.115077 -403.909544 
L 412.18766 -399.589772 
L 412.279022 -395.27 
L 412.389291 -390.950229 
L 412.517364 -386.630457 
L 412.661715 -382.310686 
L 412.821103 -377.990914 
L 412.994887 -373.671143 
L 413.182837 -369.351371 
L 413.384567 -365.0316 
L 413.598882 -360.711828 
L 413.82339 -356.392056 
L 414.054633 -352.072285 
L 414.288811 -347.752513 
L 414.522979 -343.432742 
L 414.756374 -339.11297 
L 414.991408 -334.793199 
L 415.233829 -330.473427 
L 415.491766 -326.153656 
L 415.773702 -321.833884 
L 416.085887 -317.514112 
L 416.429985 -313.194341 
L 416.801845 -308.874569 
L 417.191927 -304.554798 
L 417.587361 -300.235026 
L 417.975012 -295.915255 
L 418.344487 -291.595483 
L 418.690088 -287.275712 
L 419.011056 -282.95594 
L 419.310193 -278.636168 
L 419.591513 -274.316397 
L 419.857998 -269.996625 
L 420.110465 -265.676854 
L 420.348104 -261.357082 
L 420.570535 -257.037311 
L 420.780479 -252.717539 
L 420.985722 -248.397768 
L 421.19911 -244.077996 
L 421.436033 -239.758225 
L 421.709866 -235.438453 
L 422.026869 -231.118681 
L 422.38238 -226.79891 
L 422.759765 -222.479138 
L 423.132467 -218.159367 
L 423.468374 -213.839595 
L 423.735055 -209.519824 
L 423.904487 -205.200052 
L 423.956453 -200.880281 
L 423.88045 -196.560509 
L 423.676243 -192.240737 
L 423.353254 -187.920966 
L 422.928936 -183.601194 
L 422.426331 -179.281423 
L 421.871194 -174.961651 
L 421.289174 -170.64188 
L 420.703454 -166.322108 
L 420.133057 -162.002337 
L 419.591797 -157.682565 
L 419.087769 -153.362793 
L 418.623303 -149.043022 
L 418.195379 -144.72325 
L 417.79651 -140.403479 
L 417.416078 -136.083707 
L 417.042061 -131.763936 
L 416.663002 -127.444164 
L 416.269994 -123.124393 
L 415.858341 -118.804621 
L 415.428488 -114.48485 
L 414.985878 -110.165078 
L 414.539659 -105.845306 
L 414.100547 -101.525535 
L 413.678536 -97.205763 
L 413.281169 -92.885992 
L 412.912925 -88.56622 
L 412.575725 -84.246449 
L 412.270115 -79.926677 
L 411.99646 -75.606906 
L 411.755575 -71.287134 
z
" id="m18cc0e61fe" style="stroke:#141414;stroke-width:1.5;"/>
    </defs>
    <g clip-path="url(#p78d06a1b8e)">
     <use style="fill:#307e4a;stroke:#141414;stroke-width:1.5;" x="0" xlink:href="#m18cc0e61fe" y="536.278723"/>
    </g>
   </g>
   <g id="PolyCollection_4">
    <defs>
     <path d="M 547.84881 -71.172225 
L 545.60959 -71.172225 
L 545.22325 -72.953267 
L 544.772178 -74.734309 
L 544.266737 -76.515352 
L 543.720564 -78.296394 
L 543.146977 -80.077436 
L 542.554766 -81.858479 
L 541.944478 -83.639521 
L 541.306155 -85.420564 
L 540.619014 -87.201606 
L 539.852927 -88.982648 
L 538.971227 -90.763691 
L 537.934298 -92.544733 
L 536.703773 -94.325775 
L 535.247359 -96.106818 
L 533.544285 -97.88786 
L 531.59085 -99.668902 
L 529.404948 -101.449945 
L 527.028138 -103.230987 
L 524.524157 -105.01203 
L 521.97375 -106.793072 
L 519.466882 -108.574114 
L 517.094202 -110.355157 
L 514.939653 -112.136199 
L 513.075334 -113.917241 
L 511.558531 -115.698284 
L 510.429952 -117.479326 
L 509.712076 -119.260368 
L 509.40724 -121.041411 
L 509.496169 -122.822453 
L 509.938418 -124.603496 
L 510.676044 -126.384538 
L 511.640772 -128.16558 
L 512.763471 -129.946623 
L 513.983612 -131.727665 
L 515.256226 -133.508707 
L 516.554678 -135.28975 
L 517.868944 -137.070792 
L 519.200467 -138.851834 
L 520.555499 -140.632877 
L 521.93899 -142.413919 
L 523.350574 -144.194961 
L 524.783281 -145.976004 
L 526.224526 -147.757046 
L 527.65818 -149.538089 
L 529.06634 -151.319131 
L 530.429907 -153.100173 
L 531.728023 -154.881216 
L 532.937237 -156.662258 
L 534.031664 -158.4433 
L 534.985079 -160.224343 
L 535.775101 -162.005385 
L 536.388695 -163.786427 
L 536.827501 -165.56747 
L 537.111192 -167.348512 
L 537.277338 -169.129555 
L 537.377018 -170.910597 
L 537.46664 -172.691639 
L 537.597657 -174.472682 
L 537.806798 -176.253724 
L 538.109485 -178.034766 
L 538.498283 -179.815809 
L 538.946651 -181.596851 
L 539.416653 -183.377893 
L 539.868152 -185.158936 
L 540.266913 -186.939978 
L 540.589783 -188.721021 
L 540.826376 -190.502063 
L 540.977883 -192.283105 
L 541.054239 -194.064148 
L 541.070935 -195.84519 
L 541.046268 -197.626232 
L 540.999269 -199.407275 
L 540.948157 -201.188317 
L 540.909065 -202.969359 
L 540.894907 -204.750402 
L 540.914515 -206.531444 
L 540.972263 -208.312487 
L 541.068343 -210.093529 
L 541.199678 -211.874571 
L 541.361246 -213.655614 
L 541.547434 -215.436656 
L 541.753117 -217.217698 
L 541.974249 -218.998741 
L 542.207958 -220.779783 
L 542.452267 -222.560825 
L 542.705628 -224.341868 
L 542.966456 -226.12291 
L 543.232791 -227.903953 
L 543.502177 -229.684995 
L 543.771742 -231.466037 
L 544.038481 -233.24708 
L 544.299635 -235.028122 
L 544.553071 -236.809164 
L 544.79752 -238.590207 
L 545.032545 -240.371249 
L 545.258175 -242.152291 
L 545.474292 -243.933334 
L 545.679988 -245.714376 
L 545.87319 -247.495418 
L 547.58521 -247.495418 
L 547.58521 -247.495418 
L 547.778412 -245.714376 
L 547.984108 -243.933334 
L 548.200225 -242.152291 
L 548.425855 -240.371249 
L 548.66088 -238.590207 
L 548.905329 -236.809164 
L 549.158765 -235.028122 
L 549.419919 -233.24708 
L 549.686658 -231.466037 
L 549.956223 -229.684995 
L 550.225609 -227.903953 
L 550.491944 -226.12291 
L 550.752772 -224.341868 
L 551.006133 -222.560825 
L 551.250442 -220.779783 
L 551.484151 -218.998741 
L 551.705283 -217.217698 
L 551.910966 -215.436656 
L 552.097154 -213.655614 
L 552.258722 -211.874571 
L 552.390057 -210.093529 
L 552.486137 -208.312487 
L 552.543885 -206.531444 
L 552.563493 -204.750402 
L 552.549335 -202.969359 
L 552.510243 -201.188317 
L 552.459131 -199.407275 
L 552.412132 -197.626232 
L 552.387465 -195.84519 
L 552.404161 -194.064148 
L 552.480517 -192.283105 
L 552.632024 -190.502063 
L 552.868617 -188.721021 
L 553.191487 -186.939978 
L 553.590248 -185.158936 
L 554.041747 -183.377893 
L 554.511749 -181.596851 
L 554.960117 -179.815809 
L 555.348915 -178.034766 
L 555.651602 -176.253724 
L 555.860743 -174.472682 
L 555.99176 -172.691639 
L 556.081382 -170.910597 
L 556.181062 -169.129555 
L 556.347208 -167.348512 
L 556.630899 -165.56747 
L 557.069705 -163.786427 
L 557.683299 -162.005385 
L 558.473321 -160.224343 
L 559.426736 -158.4433 
L 560.521163 -156.662258 
L 561.730377 -154.881216 
L 563.028493 -153.100173 
L 564.39206 -151.319131 
L 565.80022 -149.538089 
L 567.233874 -147.757046 
L 568.675119 -145.976004 
L 570.107826 -144.194961 
L 571.51941 -142.413919 
L 572.902901 -140.632877 
L 574.257933 -138.851834 
L 575.589456 -137.070792 
L 576.903722 -135.28975 
L 578.202174 -133.508707 
L 579.474788 -131.727665 
L 580.694929 -129.946623 
L 581.817628 -128.16558 
L 582.782356 -126.384538 
L 583.519982 -124.603496 
L 583.962231 -122.822453 
L 584.05116 -121.041411 
L 583.746324 -119.260368 
L 583.028448 -117.479326 
L 581.899869 -115.698284 
L 580.383066 -113.917241 
L 578.518747 -112.136199 
L 576.364198 -110.355157 
L 573.991518 -108.574114 
L 571.48465 -106.793072 
L 568.934243 -105.01203 
L 566.430262 -103.230987 
L 564.053452 -101.449945 
L 561.86755 -99.668902 
L 559.914115 -97.88786 
L 558.211041 -96.106818 
L 556.754627 -94.325775 
L 555.524102 -92.544733 
L 554.487173 -90.763691 
L 553.605473 -88.982648 
L 552.839386 -87.201606 
L 552.152245 -85.420564 
L 551.513922 -83.639521 
L 550.903634 -81.858479 
L 550.311423 -80.077436 
L 549.737836 -78.296394 
L 549.191663 -76.515352 
L 548.686222 -74.734309 
L 548.23515 -72.953267 
L 547.84881 -71.172225 
z
" id="m6a9c7d1414" style="stroke:#141414;stroke-width:1.5;"/>
    </defs>
    <g clip-path="url(#p78d06a1b8e)">
     <use style="fill:#4fa076;stroke:#141414;stroke-width:1.5;" x="0" xlink:href="#m6a9c7d1414" y="536.278723"/>
    </g>
   </g>
   <g id="PolyCollection_5">
    <defs>
     <path d="M 684.627011 -73.977141 
L 680.453789 -73.977141 
L 679.670141 -75.731166 
L 678.885886 -77.48519 
L 678.193648 -79.239215 
L 677.654538 -80.993239 
L 677.278615 -82.747264 
L 677.027141 -84.501288 
L 676.830445 -86.255313 
L 676.609851 -88.009337 
L 676.296639 -89.763362 
L 675.845829 -91.517386 
L 675.241748 -93.271411 
L 674.491442 -95.025435 
L 673.60746 -96.77946 
L 672.588862 -98.533485 
L 671.409797 -100.287509 
L 670.019706 -102.041534 
L 668.35616 -103.795558 
L 666.370091 -105.549583 
L 664.055313 -107.303607 
L 661.461952 -109.057632 
L 658.674714 -110.811656 
L 655.762407 -112.565681 
L 652.735926 -114.319705 
L 649.55494 -116.07373 
L 646.18851 -117.827754 
L 642.688689 -119.581779 
L 639.21896 -121.335804 
L 636.008896 -123.089828 
L 633.262769 -124.843853 
L 631.089333 -126.597877 
L 629.507759 -128.351902 
L 628.52478 -130.105926 
L 628.21592 -131.859951 
L 628.732864 -133.613975 
L 630.215985 -135.368 
L 632.673555 -137.122024 
L 635.925161 -138.876049 
L 639.658414 -140.630073 
L 643.555544 -142.384098 
L 647.396317 -144.138123 
L 651.079866 -145.892147 
L 654.584204 -147.646172 
L 657.91803 -149.400196 
L 661.09385 -151.154221 
L 664.113956 -152.908245 
L 666.956965 -154.66227 
L 669.571835 -156.416294 
L 671.891694 -158.170319 
L 673.863248 -159.924343 
L 675.4721 -161.678368 
L 676.747832 -163.432393 
L 677.748526 -165.186417 
L 678.53665 -166.940442 
L 679.159707 -168.694466 
L 679.643286 -170.448491 
L 679.996573 -172.202515 
L 680.224374 -173.95654 
L 680.337481 -175.710564 
L 680.355798 -177.464589 
L 680.304102 -179.218613 
L 680.204681 -180.972638 
L 680.071893 -182.726662 
L 679.911929 -184.480687 
L 679.728506 -186.234712 
L 679.532165 -187.988736 
L 679.34753 -189.742761 
L 679.212098 -191.496785 
L 679.164884 -193.25081 
L 679.231017 -195.004834 
L 679.411883 -196.758859 
L 679.685664 -198.512883 
L 680.015158 -200.266908 
L 680.356605 -202.020932 
L 680.666688 -203.774957 
L 680.909272 -205.528981 
L 681.063845 -207.283006 
L 681.133838 -209.037031 
L 681.149107 -210.791055 
L 681.157098 -212.54508 
L 681.203433 -214.299104 
L 681.311325 -216.053129 
L 681.472455 -217.807153 
L 681.655186 -219.561178 
L 681.823992 -221.315202 
L 681.957032 -223.069227 
L 682.052074 -224.823251 
L 682.120397 -226.577276 
L 682.175807 -228.3313 
L 682.226677 -230.085325 
L 682.274493 -231.83935 
L 682.317142 -233.593374 
L 682.352795 -235.347399 
L 682.381383 -237.101423 
L 682.403607 -238.855448 
L 682.419603 -240.609472 
L 682.429202 -242.363497 
L 682.433568 -244.117521 
L 682.436192 -245.871546 
L 682.441712 -247.62557 
L 682.639088 -247.62557 
L 682.639088 -247.62557 
L 682.644608 -245.871546 
L 682.647232 -244.117521 
L 682.651598 -242.363497 
L 682.661197 -240.609472 
L 682.677193 -238.855448 
L 682.699417 -237.101423 
L 682.728005 -235.347399 
L 682.763658 -233.593374 
L 682.806307 -231.83935 
L 682.854123 -230.085325 
L 682.904993 -228.3313 
L 682.960403 -226.577276 
L 683.028726 -224.823251 
L 683.123768 -223.069227 
L 683.256808 -221.315202 
L 683.425614 -219.561178 
L 683.608345 -217.807153 
L 683.769475 -216.053129 
L 683.877367 -214.299104 
L 683.923702 -212.54508 
L 683.931693 -210.791055 
L 683.946962 -209.037031 
L 684.016955 -207.283006 
L 684.171528 -205.528981 
L 684.414112 -203.774957 
L 684.724195 -202.020932 
L 685.065642 -200.266908 
L 685.395136 -198.512883 
L 685.668917 -196.758859 
L 685.849783 -195.004834 
L 685.915916 -193.25081 
L 685.868702 -191.496785 
L 685.73327 -189.742761 
L 685.548635 -187.988736 
L 685.352294 -186.234712 
L 685.168871 -184.480687 
L 685.008907 -182.726662 
L 684.876119 -180.972638 
L 684.776698 -179.218613 
L 684.725002 -177.464589 
L 684.743319 -175.710564 
L 684.856426 -173.95654 
L 685.084227 -172.202515 
L 685.437514 -170.448491 
L 685.921093 -168.694466 
L 686.54415 -166.940442 
L 687.332274 -165.186417 
L 688.332968 -163.432393 
L 689.6087 -161.678368 
L 691.217552 -159.924343 
L 693.189106 -158.170319 
L 695.508965 -156.416294 
L 698.123835 -154.66227 
L 700.966844 -152.908245 
L 703.98695 -151.154221 
L 707.16277 -149.400196 
L 710.496596 -147.646172 
L 714.000934 -145.892147 
L 717.684483 -144.138123 
L 721.525256 -142.384098 
L 725.422386 -140.630073 
L 729.155639 -138.876049 
L 732.407245 -137.122024 
L 734.864815 -135.368 
L 736.347936 -133.613975 
L 736.86488 -131.859951 
L 736.55602 -130.105926 
L 735.573041 -128.351902 
L 733.991467 -126.597877 
L 731.818031 -124.843853 
L 729.071904 -123.089828 
L 725.86184 -121.335804 
L 722.392111 -119.581779 
L 718.89229 -117.827754 
L 715.52586 -116.07373 
L 712.344874 -114.319705 
L 709.318393 -112.565681 
L 706.406086 -110.811656 
L 703.618848 -109.057632 
L 701.025487 -107.303607 
L 698.710709 -105.549583 
L 696.72464 -103.795558 
L 695.061094 -102.041534 
L 693.671003 -100.287509 
L 692.491938 -98.533485 
L 691.47334 -96.77946 
L 690.589358 -95.025435 
L 689.839052 -93.271411 
L 689.234971 -91.517386 
L 688.784161 -89.763362 
L 688.470949 -88.009337 
L 688.250355 -86.255313 
L 688.053659 -84.501288 
L 687.802185 -82.747264 
L 687.426262 -80.993239 
L 686.887152 -79.239215 
L 686.194914 -77.48519 
L 685.410659 -75.731166 
L 684.627011 -73.977141 
z
" id="m8e1c702985" style="stroke:#141414;stroke-width:1.5;"/>
    </defs>
    <g clip-path="url(#p78d06a1b8e)">
     <use style="fill:#72b6a0;stroke:#141414;stroke-width:1.5;" x="0" xlink:href="#m8e1c702985" y="536.278723"/>
    </g>
   </g>
   <g id="line2d_1">
    <path clip-path="url(#p78d06a1b8e)" d="M 139.2956 433.25864 
L 139.2956 225.198729 
" style="fill:none;stroke:#141414;stroke-linecap:round;stroke-width:1.5;"/>
   </g>
   <g id="line2d_2">
    <path clip-path="url(#p78d06a1b8e)" d="M 139.2956 353.590617 
L 139.2956 300.464476 
" style="fill:none;stroke:#141414;stroke-linecap:round;stroke-width:4.5;"/>
   </g>
   <g id="line2d_3">
    <path clip-path="url(#p78d06a1b8e)" d="M 275.1068 467.054244 
L 275.1068 63.237368 
" style="fill:none;stroke:#141414;stroke-linecap:round;stroke-width:1.5;"/>
   </g>
   <g id="line2d_4">
    <path clip-path="url(#p78d06a1b8e)" d="M 275.1068 333.256094 
L 275.1068 224.710869 
" style="fill:none;stroke:#141414;stroke-linecap:round;stroke-width:4.5;"/>
   </g>
   <g id="line2d_5">
    <path clip-path="url(#p78d06a1b8e)" d="M 410.918 464.991589 
L 410.918 106.990839 
" style="fill:none;stroke:#141414;stroke-linecap:round;stroke-width:1.5;"/>
   </g>
   <g id="line2d_6">
    <path clip-path="url(#p78d06a1b8e)" d="M 410.918 359.130026 
L 410.918 258.104583 
" style="fill:none;stroke:#141414;stroke-linecap:round;stroke-width:4.5;"/>
   </g>
   <g id="line2d_7">
    <path clip-path="url(#p78d06a1b8e)" d="M 546.7292 465.106498 
L 546.7292 326.300896 
" style="fill:none;stroke:#141414;stroke-linecap:round;stroke-width:1.5;"/>
   </g>
   <g id="line2d_8">
    <path clip-path="url(#p78d06a1b8e)" d="M 546.7292 420.645346 
L 546.7292 382.868122 
" style="fill:none;stroke:#141414;stroke-linecap:round;stroke-width:4.5;"/>
   </g>
   <g id="line2d_9">
    <path clip-path="url(#p78d06a1b8e)" d="M 682.5404 450.556311 
L 682.5404 361.404403 
" style="fill:none;stroke:#141414;stroke-linecap:round;stroke-width:1.5;"/>
   </g>
   <g id="line2d_10">
    <path clip-path="url(#p78d06a1b8e)" d="M 682.5404 417.090151 
L 682.5404 394.707995 
" style="fill:none;stroke:#141414;stroke-linecap:round;stroke-width:4.5;"/>
   </g>
   <g id="patch_3">
    <path d="M 71.39 488.813723 
L 71.39 10.105197 
" style="fill:none;stroke:#262626;stroke-linecap:square;stroke-linejoin:miter;stroke-width:0.8;"/>
   </g>
   <g id="patch_4">
    <path d="M 71.39 488.813723 
L 750.446 488.813723 
" style="fill:none;stroke:#262626;stroke-linecap:square;stroke-linejoin:miter;stroke-width:0.8;"/>
   </g>
   <g id="PathCollection_1">
    <defs>
     <path d="M 0 1.5 
C 0.397805 1.5 0.77937 1.341951 1.06066 1.06066 
C 1.341951 0.77937 1.5 0.397805 1.5 0 
C 1.5 -0.397805 1.341951 -0.77937 1.06066 -1.06066 
C 0.77937 -1.341951 0.397805 -1.5 0 -1.5 
C -0.397805 -1.5 -0.77937 -1.341951 -1.06066 -1.06066 
C -1.341951 -0.77937 -1.5 -0.397805 -1.5 0 
C -1.5 0.397805 -1.341951 0.77937 -1.06066 1.06066 
C -0.77937 1.341951 -0.397805 1.5 0 1.5 
z
" id="mddf9f66fb3" style="stroke:#141414;"/>
    </defs>
    <g clip-path="url(#p78d06a1b8e)">
     <use style="fill:#ffffff;stroke:#141414;" x="139.2956" xlink:href="#mddf9f66fb3" y="327.184861"/>
    </g>
   </g>
   <g id="PathCollection_2">
    <g clip-path="url(#p78d06a1b8e)">
     <use style="fill:#ffffff;stroke:#141414;" x="275.1068" xlink:href="#mddf9f66fb3" y="281.135392"/>
    </g>
   </g>
   <g id="PathCollection_3">
    <g clip-path="url(#p78d06a1b8e)">
     <use style="fill:#ffffff;stroke:#141414;" x="410.918" xlink:href="#mddf9f66fb3" y="316.896214"/>
    </g>
   </g>
   <g id="PathCollection_4">
    <g clip-path="url(#p78d06a1b8e)">
     <use style="fill:#ffffff;stroke:#141414;" x="546.7292" xlink:href="#mddf9f66fb3" y="405.642928"/>
    </g>
   </g>
   <g id="PathCollection_5">
    <g clip-path="url(#p78d06a1b8e)">
     <use style="fill:#ffffff;stroke:#141414;" x="682.5404" xlink:href="#mddf9f66fb3" y="405.632776"/>
    </g>
   </g>
  </g>
 </g>
 <defs>
  <clipPath id="p78d06a1b8e">
   <rect height="478.708526" width="679.056" x="71.39" y="10.105197"/>
  </clipPath>
 </defs>
</svg>
