<?xml version="1.0" encoding="utf-8" standalone="no"?>
<!DOCTYPE svg PUBLIC "-//W3C//DTD SVG 1.1//EN"
  "http://www.w3.org/Graphics/SVG/1.1/DTD/svg11.dtd">
<!-- Created with matplotlib (https://matplotlib.org/) -->
<svg height="540.169pt" version="1.1" viewBox="0 0 757.646 540.169" width="757.646pt" xmlns="http://www.w3.org/2000/svg" xmlns:xlink="http://www.w3.org/1999/xlink">
 <defs>
  <style type="text/css">
*{stroke-linecap:butt;stroke-linejoin:round;white-space:pre;}
  </style>
 </defs>
 <g id="figure_1">
  <g id="patch_1">
   <path d="M 0 540.169 
L 757.646 540.169 
L 757.646 0 
L 0 0 
z
" style="fill:#ffffff;"/>
  </g>
  <g id="axes_1">
   <g id="patch_2">
    <path d="M 71.39 492.704 
L 750.446 492.704 
L 750.446 7.2 
L 71.39 7.2 
z
" style="fill:#ffffff;"/>
   </g>
   <g id="matplotlib.axis_1">
    <g id="xtick_1">
     <g id="text_1">
      <!-- 0619-1 -->
      <defs>
       <path d="M 4.15625 35.296875 
Q 4.15625 48 6.765625 55.734375 
Q 9.375 63.484375 14.515625 67.671875 
Q 19.671875 71.875 27.484375 71.875 
Q 33.25 71.875 37.59375 69.546875 
Q 41.9375 67.234375 44.765625 62.859375 
Q 47.609375 58.5 49.21875 52.21875 
Q 50.828125 45.953125 50.828125 35.296875 
Q 50.828125 22.703125 48.234375 14.96875 
Q 45.65625 7.234375 40.5 3 
Q 35.359375 -1.21875 27.484375 -1.21875 
Q 17.140625 -1.21875 11.234375 6.203125 
Q 4.15625 15.140625 4.15625 35.296875 
z
M 13.1875 35.296875 
Q 13.1875 17.671875 17.3125 11.828125 
Q 21.4375 6 27.484375 6 
Q 33.546875 6 37.671875 11.859375 
Q 41.796875 17.71875 41.796875 35.296875 
Q 41.796875 52.984375 37.671875 58.78125 
Q 33.546875 64.59375 27.390625 64.59375 
Q 21.34375 64.59375 17.71875 59.46875 
Q 13.1875 52.9375 13.1875 35.296875 
z
" id="ArialMT-48"/>
       <path d="M 49.75 54.046875 
L 41.015625 53.375 
Q 39.84375 58.546875 37.703125 60.890625 
Q 34.125 64.65625 28.90625 64.65625 
Q 24.703125 64.65625 21.53125 62.3125 
Q 17.390625 59.28125 14.984375 53.46875 
Q 12.59375 47.65625 12.5 36.921875 
Q 15.671875 41.75 20.265625 44.09375 
Q 24.859375 46.4375 29.890625 46.4375 
Q 38.671875 46.4375 44.84375 39.96875 
Q 51.03125 33.5 51.03125 23.25 
Q 51.03125 16.5 48.125 10.71875 
Q 45.21875 4.9375 40.140625 1.859375 
Q 35.0625 -1.21875 28.609375 -1.21875 
Q 17.625 -1.21875 10.6875 6.859375 
Q 3.765625 14.9375 3.765625 33.5 
Q 3.765625 54.25 11.421875 63.671875 
Q 18.109375 71.875 29.4375 71.875 
Q 37.890625 71.875 43.28125 67.140625 
Q 48.6875 62.40625 49.75 54.046875 
z
M 13.875 23.1875 
Q 13.875 18.65625 15.796875 14.5 
Q 17.71875 10.359375 21.1875 8.171875 
Q 24.65625 6 28.46875 6 
Q 34.03125 6 38.03125 10.484375 
Q 42.046875 14.984375 42.046875 22.703125 
Q 42.046875 30.125 38.078125 34.390625 
Q 34.125 38.671875 28.125 38.671875 
Q 22.171875 38.671875 18.015625 34.390625 
Q 13.875 30.125 13.875 23.1875 
z
" id="ArialMT-54"/>
       <path d="M 37.25 0 
L 28.46875 0 
L 28.46875 56 
Q 25.296875 52.984375 20.140625 49.953125 
Q 14.984375 46.921875 10.890625 45.40625 
L 10.890625 53.90625 
Q 18.265625 57.375 23.78125 62.296875 
Q 29.296875 67.234375 31.59375 71.875 
L 37.25 71.875 
z
" id="ArialMT-49"/>
       <path d="M 5.46875 16.546875 
L 13.921875 17.328125 
Q 14.984375 11.375 18.015625 8.6875 
Q 21.046875 6 25.78125 6 
Q 29.828125 6 32.875 7.859375 
Q 35.9375 9.71875 37.890625 12.8125 
Q 39.84375 15.921875 41.15625 21.1875 
Q 42.484375 26.46875 42.484375 31.9375 
Q 42.484375 32.515625 42.4375 33.6875 
Q 39.796875 29.5 35.234375 26.875 
Q 30.671875 24.265625 25.34375 24.265625 
Q 16.453125 24.265625 10.296875 30.703125 
Q 4.15625 37.15625 4.15625 47.703125 
Q 4.15625 58.59375 10.578125 65.234375 
Q 17 71.875 26.65625 71.875 
Q 33.640625 71.875 39.421875 68.109375 
Q 45.21875 64.359375 48.21875 57.390625 
Q 51.21875 50.4375 51.21875 37.25 
Q 51.21875 23.53125 48.234375 15.40625 
Q 45.265625 7.28125 39.375 3.03125 
Q 33.5 -1.21875 25.59375 -1.21875 
Q 17.1875 -1.21875 11.859375 3.4375 
Q 6.546875 8.109375 5.46875 16.546875 
z
M 41.453125 48.140625 
Q 41.453125 55.71875 37.421875 60.15625 
Q 33.40625 64.59375 27.734375 64.59375 
Q 21.875 64.59375 17.53125 59.8125 
Q 13.1875 55.03125 13.1875 47.40625 
Q 13.1875 40.578125 17.3125 36.296875 
Q 21.4375 32.03125 27.484375 32.03125 
Q 33.59375 32.03125 37.515625 36.296875 
Q 41.453125 40.578125 41.453125 48.140625 
z
" id="ArialMT-57"/>
       <path d="M 3.171875 21.484375 
L 3.171875 30.328125 
L 30.171875 30.328125 
L 30.171875 21.484375 
z
" id="ArialMT-45"/>
      </defs>
      <g style="fill:#262626;" transform="translate(114.3881 511.1565)scale(0.16 -0.16)">
       <use xlink:href="#ArialMT-48"/>
       <use x="55.615234" xlink:href="#ArialMT-54"/>
       <use x="111.230469" xlink:href="#ArialMT-49"/>
       <use x="166.845703" xlink:href="#ArialMT-57"/>
       <use x="222.460938" xlink:href="#ArialMT-45"/>
       <use x="255.761719" xlink:href="#ArialMT-49"/>
      </g>
     </g>
    </g>
    <g id="xtick_2">
     <g id="text_2">
      <!-- 0619-2 -->
      <defs>
       <path d="M 50.34375 8.453125 
L 50.34375 0 
L 3.03125 0 
Q 2.9375 3.171875 4.046875 6.109375 
Q 5.859375 10.9375 9.828125 15.625 
Q 13.8125 20.3125 21.34375 26.46875 
Q 33.015625 36.03125 37.109375 41.625 
Q 41.21875 47.21875 41.21875 52.203125 
Q 41.21875 57.421875 37.46875 61 
Q 33.734375 64.59375 27.734375 64.59375 
Q 21.390625 64.59375 17.578125 60.78125 
Q 13.765625 56.984375 13.71875 50.25 
L 4.6875 51.171875 
Q 5.609375 61.28125 11.65625 66.578125 
Q 17.71875 71.875 27.9375 71.875 
Q 38.234375 71.875 44.234375 66.15625 
Q 50.25 60.453125 50.25 52 
Q 50.25 47.703125 48.484375 43.546875 
Q 46.734375 39.40625 42.65625 34.8125 
Q 38.578125 30.21875 29.109375 22.21875 
Q 21.1875 15.578125 18.9375 13.203125 
Q 16.703125 10.84375 15.234375 8.453125 
z
" id="ArialMT-50"/>
      </defs>
      <g style="fill:#262626;" transform="translate(250.1993 511.1565)scale(0.16 -0.16)">
       <use xlink:href="#ArialMT-48"/>
       <use x="55.615234" xlink:href="#ArialMT-54"/>
       <use x="111.230469" xlink:href="#ArialMT-49"/>
       <use x="166.845703" xlink:href="#ArialMT-57"/>
       <use x="222.460938" xlink:href="#ArialMT-45"/>
       <use x="255.761719" xlink:href="#ArialMT-50"/>
      </g>
     </g>
    </g>
    <g id="xtick_3">
     <g id="text_3">
      <!-- 1783-1 -->
      <defs>
       <path d="M 4.734375 62.203125 
L 4.734375 70.65625 
L 51.078125 70.65625 
L 51.078125 63.8125 
Q 44.234375 56.546875 37.515625 44.484375 
Q 30.8125 32.421875 27.15625 19.671875 
Q 24.515625 10.6875 23.78125 0 
L 14.75 0 
Q 14.890625 8.453125 18.0625 20.40625 
Q 21.234375 32.375 27.171875 43.484375 
Q 33.109375 54.59375 39.796875 62.203125 
z
" id="ArialMT-55"/>
       <path d="M 17.671875 38.8125 
Q 12.203125 40.828125 9.5625 44.53125 
Q 6.9375 48.25 6.9375 53.421875 
Q 6.9375 61.234375 12.546875 66.546875 
Q 18.171875 71.875 27.484375 71.875 
Q 36.859375 71.875 42.578125 66.421875 
Q 48.296875 60.984375 48.296875 53.171875 
Q 48.296875 48.1875 45.671875 44.5 
Q 43.0625 40.828125 37.75 38.8125 
Q 44.34375 36.671875 47.78125 31.875 
Q 51.21875 27.09375 51.21875 20.453125 
Q 51.21875 11.28125 44.71875 5.03125 
Q 38.234375 -1.21875 27.640625 -1.21875 
Q 17.046875 -1.21875 10.546875 5.046875 
Q 4.046875 11.328125 4.046875 20.703125 
Q 4.046875 27.6875 7.59375 32.390625 
Q 11.140625 37.109375 17.671875 38.8125 
z
M 15.921875 53.71875 
Q 15.921875 48.640625 19.1875 45.40625 
Q 22.46875 42.1875 27.6875 42.1875 
Q 32.765625 42.1875 36.015625 45.375 
Q 39.265625 48.578125 39.265625 53.21875 
Q 39.265625 58.0625 35.90625 61.359375 
Q 32.5625 64.65625 27.59375 64.65625 
Q 22.5625 64.65625 19.234375 61.421875 
Q 15.921875 58.203125 15.921875 53.71875 
z
M 13.09375 20.65625 
Q 13.09375 16.890625 14.875 13.375 
Q 16.65625 9.859375 20.171875 7.921875 
Q 23.6875 6 27.734375 6 
Q 34.03125 6 38.125 10.046875 
Q 42.234375 14.109375 42.234375 20.359375 
Q 42.234375 26.703125 38.015625 30.859375 
Q 33.796875 35.015625 27.4375 35.015625 
Q 21.234375 35.015625 17.15625 30.90625 
Q 13.09375 26.8125 13.09375 20.65625 
z
" id="ArialMT-56"/>
       <path d="M 4.203125 18.890625 
L 12.984375 20.0625 
Q 14.5 12.59375 18.140625 9.296875 
Q 21.78125 6 27 6 
Q 33.203125 6 37.46875 10.296875 
Q 41.75 14.59375 41.75 20.953125 
Q 41.75 27 37.796875 30.921875 
Q 33.84375 34.859375 27.734375 34.859375 
Q 25.25 34.859375 21.53125 33.890625 
L 22.515625 41.609375 
Q 23.390625 41.5 23.921875 41.5 
Q 29.546875 41.5 34.03125 44.421875 
Q 38.53125 47.359375 38.53125 53.46875 
Q 38.53125 58.296875 35.25 61.46875 
Q 31.984375 64.65625 26.8125 64.65625 
Q 21.6875 64.65625 18.265625 61.421875 
Q 14.84375 58.203125 13.875 51.765625 
L 5.078125 53.328125 
Q 6.6875 62.15625 12.390625 67.015625 
Q 18.109375 71.875 26.609375 71.875 
Q 32.46875 71.875 37.390625 69.359375 
Q 42.328125 66.84375 44.9375 62.5 
Q 47.5625 58.15625 47.5625 53.265625 
Q 47.5625 48.640625 45.0625 44.828125 
Q 42.578125 41.015625 37.703125 38.765625 
Q 44.046875 37.3125 47.5625 32.6875 
Q 51.078125 28.078125 51.078125 21.140625 
Q 51.078125 11.765625 44.234375 5.25 
Q 37.40625 -1.265625 26.953125 -1.265625 
Q 17.53125 -1.265625 11.296875 4.34375 
Q 5.078125 9.96875 4.203125 18.890625 
z
" id="ArialMT-51"/>
      </defs>
      <g style="fill:#262626;" transform="translate(386.0105 511.1565)scale(0.16 -0.16)">
       <use xlink:href="#ArialMT-49"/>
       <use x="55.615234" xlink:href="#ArialMT-55"/>
       <use x="111.230469" xlink:href="#ArialMT-56"/>
       <use x="166.845703" xlink:href="#ArialMT-51"/>
       <use x="222.460938" xlink:href="#ArialMT-45"/>
       <use x="255.761719" xlink:href="#ArialMT-49"/>
      </g>
     </g>
    </g>
    <g id="xtick_4">
     <g id="text_4">
      <!-- 1783-2 -->
      <g style="fill:#262626;" transform="translate(521.8217 511.1565)scale(0.16 -0.16)">
       <use xlink:href="#ArialMT-49"/>
       <use x="55.615234" xlink:href="#ArialMT-55"/>
       <use x="111.230469" xlink:href="#ArialMT-56"/>
       <use x="166.845703" xlink:href="#ArialMT-51"/>
       <use x="222.460938" xlink:href="#ArialMT-45"/>
       <use x="255.761719" xlink:href="#ArialMT-50"/>
      </g>
     </g>
    </g>
    <g id="xtick_5">
     <g id="text_5">
      <!-- 0656-1 -->
      <defs>
       <path d="M 4.15625 18.75 
L 13.375 19.53125 
Q 14.40625 12.796875 18.140625 9.390625 
Q 21.875 6 27.15625 6 
Q 33.5 6 37.890625 10.78125 
Q 42.28125 15.578125 42.28125 23.484375 
Q 42.28125 31 38.0625 35.34375 
Q 33.84375 39.703125 27 39.703125 
Q 22.75 39.703125 19.328125 37.765625 
Q 15.921875 35.84375 13.96875 32.765625 
L 5.71875 33.84375 
L 12.640625 70.609375 
L 48.25 70.609375 
L 48.25 62.203125 
L 19.671875 62.203125 
L 15.828125 42.96875 
Q 22.265625 47.46875 29.34375 47.46875 
Q 38.71875 47.46875 45.15625 40.96875 
Q 51.609375 34.46875 51.609375 24.265625 
Q 51.609375 14.546875 45.953125 7.46875 
Q 39.0625 -1.21875 27.15625 -1.21875 
Q 17.390625 -1.21875 11.203125 4.25 
Q 5.03125 9.71875 4.15625 18.75 
z
" id="ArialMT-53"/>
      </defs>
      <g style="fill:#262626;" transform="translate(657.6329 511.1565)scale(0.16 -0.16)">
       <use xlink:href="#ArialMT-48"/>
       <use x="55.615234" xlink:href="#ArialMT-54"/>
       <use x="111.230469" xlink:href="#ArialMT-53"/>
       <use x="166.845703" xlink:href="#ArialMT-54"/>
       <use x="222.460938" xlink:href="#ArialMT-45"/>
       <use x="255.761719" xlink:href="#ArialMT-49"/>
      </g>
     </g>
    </g>
    <g id="text_6">
     <!-- Counter id -->
     <defs>
      <path d="M 58.796875 25.09375 
L 68.265625 22.703125 
Q 65.28125 11.03125 57.546875 4.90625 
Q 49.8125 -1.21875 38.625 -1.21875 
Q 27.046875 -1.21875 19.796875 3.484375 
Q 12.546875 8.203125 8.765625 17.140625 
Q 4.984375 26.078125 4.984375 36.328125 
Q 4.984375 47.515625 9.25 55.828125 
Q 13.53125 64.15625 21.40625 68.46875 
Q 29.296875 72.796875 38.765625 72.796875 
Q 49.515625 72.796875 56.828125 67.328125 
Q 64.15625 61.859375 67.046875 51.953125 
L 57.71875 49.75 
Q 55.21875 57.5625 50.484375 61.125 
Q 45.75 64.703125 38.578125 64.703125 
Q 30.328125 64.703125 24.78125 60.734375 
Q 19.234375 56.78125 16.984375 50.109375 
Q 14.75 43.453125 14.75 36.375 
Q 14.75 27.25 17.40625 20.4375 
Q 20.0625 13.625 25.671875 10.25 
Q 31.296875 6.890625 37.84375 6.890625 
Q 45.796875 6.890625 51.3125 11.46875 
Q 56.84375 16.0625 58.796875 25.09375 
z
" id="ArialMT-67"/>
      <path d="M 3.328125 25.921875 
Q 3.328125 40.328125 11.328125 47.265625 
Q 18.015625 53.03125 27.640625 53.03125 
Q 38.328125 53.03125 45.109375 46.015625 
Q 51.90625 39.015625 51.90625 26.65625 
Q 51.90625 16.65625 48.90625 10.90625 
Q 45.90625 5.171875 40.15625 2 
Q 34.421875 -1.171875 27.640625 -1.171875 
Q 16.75 -1.171875 10.03125 5.8125 
Q 3.328125 12.796875 3.328125 25.921875 
z
M 12.359375 25.921875 
Q 12.359375 15.96875 16.703125 11.015625 
Q 21.046875 6.0625 27.640625 6.0625 
Q 34.1875 6.0625 38.53125 11.03125 
Q 42.875 16.015625 42.875 26.21875 
Q 42.875 35.84375 38.5 40.796875 
Q 34.125 45.75 27.640625 45.75 
Q 21.046875 45.75 16.703125 40.8125 
Q 12.359375 35.890625 12.359375 25.921875 
z
" id="ArialMT-111"/>
      <path d="M 40.578125 0 
L 40.578125 7.625 
Q 34.515625 -1.171875 24.125 -1.171875 
Q 19.53125 -1.171875 15.546875 0.578125 
Q 11.578125 2.34375 9.640625 5 
Q 7.71875 7.671875 6.9375 11.53125 
Q 6.390625 14.109375 6.390625 19.734375 
L 6.390625 51.859375 
L 15.1875 51.859375 
L 15.1875 23.09375 
Q 15.1875 16.21875 15.71875 13.8125 
Q 16.546875 10.359375 19.234375 8.375 
Q 21.921875 6.390625 25.875 6.390625 
Q 29.828125 6.390625 33.296875 8.421875 
Q 36.765625 10.453125 38.203125 13.9375 
Q 39.65625 17.4375 39.65625 24.078125 
L 39.65625 51.859375 
L 48.4375 51.859375 
L 48.4375 0 
z
" id="ArialMT-117"/>
      <path d="M 6.59375 0 
L 6.59375 51.859375 
L 14.5 51.859375 
L 14.5 44.484375 
Q 20.21875 53.03125 31 53.03125 
Q 35.6875 53.03125 39.625 51.34375 
Q 43.5625 49.65625 45.515625 46.921875 
Q 47.46875 44.1875 48.25 40.4375 
Q 48.734375 37.984375 48.734375 31.890625 
L 48.734375 0 
L 39.9375 0 
L 39.9375 31.546875 
Q 39.9375 36.921875 38.90625 39.578125 
Q 37.890625 42.234375 35.28125 43.8125 
Q 32.671875 45.40625 29.15625 45.40625 
Q 23.53125 45.40625 19.453125 41.84375 
Q 15.375 38.28125 15.375 28.328125 
L 15.375 0 
z
" id="ArialMT-110"/>
      <path d="M 25.78125 7.859375 
L 27.046875 0.09375 
Q 23.34375 -0.6875 20.40625 -0.6875 
Q 15.625 -0.6875 12.984375 0.828125 
Q 10.359375 2.34375 9.28125 4.8125 
Q 8.203125 7.28125 8.203125 15.1875 
L 8.203125 45.015625 
L 1.765625 45.015625 
L 1.765625 51.859375 
L 8.203125 51.859375 
L 8.203125 64.703125 
L 16.9375 69.96875 
L 16.9375 51.859375 
L 25.78125 51.859375 
L 25.78125 45.015625 
L 16.9375 45.015625 
L 16.9375 14.703125 
Q 16.9375 10.9375 17.40625 9.859375 
Q 17.875 8.796875 18.921875 8.15625 
Q 19.96875 7.515625 21.921875 7.515625 
Q 23.390625 7.515625 25.78125 7.859375 
z
" id="ArialMT-116"/>
      <path d="M 42.09375 16.703125 
L 51.171875 15.578125 
Q 49.03125 7.625 43.21875 3.21875 
Q 37.40625 -1.171875 28.375 -1.171875 
Q 17 -1.171875 10.328125 5.828125 
Q 3.65625 12.84375 3.65625 25.484375 
Q 3.65625 38.578125 10.390625 45.796875 
Q 17.140625 53.03125 27.875 53.03125 
Q 38.28125 53.03125 44.875 45.953125 
Q 51.46875 38.875 51.46875 26.03125 
Q 51.46875 25.25 51.421875 23.6875 
L 12.75 23.6875 
Q 13.234375 15.140625 17.578125 10.59375 
Q 21.921875 6.0625 28.421875 6.0625 
Q 33.25 6.0625 36.671875 8.59375 
Q 40.09375 11.140625 42.09375 16.703125 
z
M 13.234375 30.90625 
L 42.1875 30.90625 
Q 41.609375 37.453125 38.875 40.71875 
Q 34.671875 45.796875 27.984375 45.796875 
Q 21.921875 45.796875 17.796875 41.75 
Q 13.671875 37.703125 13.234375 30.90625 
z
" id="ArialMT-101"/>
      <path d="M 6.5 0 
L 6.5 51.859375 
L 14.40625 51.859375 
L 14.40625 44 
Q 17.4375 49.515625 20 51.265625 
Q 22.5625 53.03125 25.640625 53.03125 
Q 30.078125 53.03125 34.671875 50.203125 
L 31.640625 42.046875 
Q 28.421875 43.953125 25.203125 43.953125 
Q 22.3125 43.953125 20.015625 42.21875 
Q 17.71875 40.484375 16.75 37.40625 
Q 15.28125 32.71875 15.28125 27.15625 
L 15.28125 0 
z
" id="ArialMT-114"/>
      <path id="ArialMT-32"/>
      <path d="M 6.640625 61.46875 
L 6.640625 71.578125 
L 15.4375 71.578125 
L 15.4375 61.46875 
z
M 6.640625 0 
L 6.640625 51.859375 
L 15.4375 51.859375 
L 15.4375 0 
z
" id="ArialMT-105"/>
      <path d="M 40.234375 0 
L 40.234375 6.546875 
Q 35.296875 -1.171875 25.734375 -1.171875 
Q 19.53125 -1.171875 14.328125 2.25 
Q 9.125 5.671875 6.265625 11.796875 
Q 3.421875 17.921875 3.421875 25.875 
Q 3.421875 33.640625 6 39.96875 
Q 8.59375 46.296875 13.765625 49.65625 
Q 18.953125 53.03125 25.34375 53.03125 
Q 30.03125 53.03125 33.6875 51.046875 
Q 37.359375 49.078125 39.65625 45.90625 
L 39.65625 71.578125 
L 48.390625 71.578125 
L 48.390625 0 
z
M 12.453125 25.875 
Q 12.453125 15.921875 16.640625 10.984375 
Q 20.84375 6.0625 26.5625 6.0625 
Q 32.328125 6.0625 36.34375 10.765625 
Q 40.375 15.484375 40.375 25.140625 
Q 40.375 35.796875 36.265625 40.765625 
Q 32.171875 45.75 26.171875 45.75 
Q 20.3125 45.75 16.375 40.96875 
Q 12.453125 36.1875 12.453125 25.875 
z
" id="ArialMT-100"/>
     </defs>
     <g style="fill:#262626;" transform="translate(374.0105 529.789)scale(0.16 -0.16)">
      <use xlink:href="#ArialMT-67"/>
      <use x="72.216797" xlink:href="#ArialMT-111"/>
      <use x="127.832031" xlink:href="#ArialMT-117"/>
      <use x="183.447266" xlink:href="#ArialMT-110"/>
      <use x="239.0625" xlink:href="#ArialMT-116"/>
      <use x="266.845703" xlink:href="#ArialMT-101"/>
      <use x="322.460938" xlink:href="#ArialMT-114"/>
      <use x="355.761719" xlink:href="#ArialMT-32"/>
      <use x="383.544922" xlink:href="#ArialMT-105"/>
      <use x="405.761719" xlink:href="#ArialMT-100"/>
     </g>
    </g>
   </g>
   <g id="matplotlib.axis_2">
    <g id="ytick_1">
     <g id="text_7">
      <!-- 0 -->
      <g style="fill:#262626;" transform="translate(55.4925 476.798067)scale(0.16 -0.16)">
       <use xlink:href="#ArialMT-48"/>
      </g>
     </g>
    </g>
    <g id="ytick_2">
     <g id="text_8">
      <!-- 200 -->
      <g style="fill:#262626;" transform="translate(37.6975 409.044644)scale(0.16 -0.16)">
       <use xlink:href="#ArialMT-50"/>
       <use x="55.615234" xlink:href="#ArialMT-48"/>
       <use x="111.230469" xlink:href="#ArialMT-48"/>
      </g>
     </g>
    </g>
    <g id="ytick_3">
     <g id="text_9">
      <!-- 400 -->
      <defs>
       <path d="M 32.328125 0 
L 32.328125 17.140625 
L 1.265625 17.140625 
L 1.265625 25.203125 
L 33.9375 71.578125 
L 41.109375 71.578125 
L 41.109375 25.203125 
L 50.78125 25.203125 
L 50.78125 17.140625 
L 41.109375 17.140625 
L 41.109375 0 
z
M 32.328125 25.203125 
L 32.328125 57.46875 
L 9.90625 25.203125 
z
" id="ArialMT-52"/>
      </defs>
      <g style="fill:#262626;" transform="translate(37.6975 341.291221)scale(0.16 -0.16)">
       <use xlink:href="#ArialMT-52"/>
       <use x="55.615234" xlink:href="#ArialMT-48"/>
       <use x="111.230469" xlink:href="#ArialMT-48"/>
      </g>
     </g>
    </g>
    <g id="ytick_4">
     <g id="text_10">
      <!-- 600 -->
      <g style="fill:#262626;" transform="translate(37.6975 273.537798)scale(0.16 -0.16)">
       <use xlink:href="#ArialMT-54"/>
       <use x="55.615234" xlink:href="#ArialMT-48"/>
       <use x="111.230469" xlink:href="#ArialMT-48"/>
      </g>
     </g>
    </g>
    <g id="ytick_5">
     <g id="text_11">
      <!-- 800 -->
      <g style="fill:#262626;" transform="translate(37.6975 205.784375)scale(0.16 -0.16)">
       <use xlink:href="#ArialMT-56"/>
       <use x="55.615234" xlink:href="#ArialMT-48"/>
       <use x="111.230469" xlink:href="#ArialMT-48"/>
      </g>
     </g>
    </g>
    <g id="ytick_6">
     <g id="text_12">
      <!-- 1000 -->
      <g style="fill:#262626;" transform="translate(28.8 138.030951)scale(0.16 -0.16)">
       <use xlink:href="#ArialMT-49"/>
       <use x="55.615234" xlink:href="#ArialMT-48"/>
       <use x="111.230469" xlink:href="#ArialMT-48"/>
       <use x="166.845703" xlink:href="#ArialMT-48"/>
      </g>
     </g>
    </g>
    <g id="ytick_7">
     <g id="text_13">
      <!-- 1200 -->
      <g style="fill:#262626;" transform="translate(28.8 70.277528)scale(0.16 -0.16)">
       <use xlink:href="#ArialMT-49"/>
       <use x="55.615234" xlink:href="#ArialMT-50"/>
       <use x="111.230469" xlink:href="#ArialMT-48"/>
       <use x="166.845703" xlink:href="#ArialMT-48"/>
      </g>
     </g>
    </g>
    <g id="text_14">
     <!-- Count [$h^{-1}$] -->
     <defs>
      <path d="M 6.78125 -19.875 
L 6.78125 71.578125 
L 26.171875 71.578125 
L 26.171875 64.3125 
L 15.578125 64.3125 
L 15.578125 -12.59375 
L 26.171875 -12.59375 
L 26.171875 -19.875 
z
" id="ArialMT-91"/>
      <path d="M 55.71875 33.015625 
L 49.3125 0 
L 40.28125 0 
L 46.6875 32.671875 
Q 47.125 34.96875 47.359375 36.71875 
Q 47.609375 38.484375 47.609375 39.5 
Q 47.609375 43.609375 45.015625 45.890625 
Q 42.4375 48.1875 37.796875 48.1875 
Q 30.5625 48.1875 25.265625 43.296875 
Q 19.96875 38.421875 18.40625 30.328125 
L 12.5 0 
L 3.515625 0 
L 18.3125 75.984375 
L 27.296875 75.984375 
L 21.484375 46.09375 
Q 24.90625 50.6875 30.21875 53.34375 
Q 35.546875 56 41.40625 56 
Q 48.640625 56 52.609375 52.09375 
Q 56.59375 48.1875 56.59375 41.109375 
Q 56.59375 39.359375 56.375 37.359375 
Q 56.15625 35.359375 55.71875 33.015625 
z
" id="DejaVuSans-Oblique-104"/>
      <path d="M 10.59375 35.5 
L 73.1875 35.5 
L 73.1875 27.203125 
L 10.59375 27.203125 
z
" id="DejaVuSans-8722"/>
      <path d="M 12.40625 8.296875 
L 28.515625 8.296875 
L 28.515625 63.921875 
L 10.984375 60.40625 
L 10.984375 69.390625 
L 28.421875 72.90625 
L 38.28125 72.90625 
L 38.28125 8.296875 
L 54.390625 8.296875 
L 54.390625 0 
L 12.40625 0 
z
" id="DejaVuSans-49"/>
      <path d="M 21.296875 -19.875 
L 1.90625 -19.875 
L 1.90625 -12.59375 
L 12.5 -12.59375 
L 12.5 64.3125 
L 1.90625 64.3125 
L 1.90625 71.578125 
L 21.296875 71.578125 
z
" id="ArialMT-93"/>
     </defs>
     <g style="fill:#262626;" transform="translate(21.6 292.112)rotate(-90)scale(0.16 -0.16)">
      <use transform="translate(0 0.684375)" xlink:href="#ArialMT-67"/>
      <use transform="translate(72.216797 0.684375)" xlink:href="#ArialMT-111"/>
      <use transform="translate(127.832031 0.684375)" xlink:href="#ArialMT-117"/>
      <use transform="translate(183.447266 0.684375)" xlink:href="#ArialMT-110"/>
      <use transform="translate(239.0625 0.684375)" xlink:href="#ArialMT-116"/>
      <use transform="translate(266.845703 0.684375)" xlink:href="#ArialMT-32"/>
      <use transform="translate(294.628906 0.684375)" xlink:href="#ArialMT-91"/>
      <use transform="translate(322.412109 0.684375)" xlink:href="#DejaVuSans-Oblique-104"/>
      <use transform="translate(393.238724 38.965625)scale(0.7)" xlink:href="#DejaVuSans-8722"/>
      <use transform="translate(451.891068 38.965625)scale(0.7)" xlink:href="#DejaVuSans-49"/>
      <use transform="translate(499.161576 0.684375)" xlink:href="#ArialMT-93"/>
     </g>
    </g>
   </g>
   <g id="PolyCollection_1">
    <defs>
     <path d="M 141.545032 -69.632078 
L 137.046168 -69.632078 
L 136.228479 -70.788485 
L 135.24689 -71.944893 
L 134.116111 -73.1013 
L 132.864478 -74.257707 
L 131.529144 -75.414114 
L 130.148295 -76.570521 
L 128.752752 -77.726928 
L 127.359984 -78.883336 
L 125.972871 -80.039743 
L 124.583689 -81.19615 
L 123.1816 -82.352557 
L 121.760504 -83.508964 
L 120.324158 -84.665372 
L 118.886861 -85.821779 
L 117.469971 -86.978186 
L 116.095951 -88.134593 
L 114.782074 -89.291 
L 113.535411 -90.447407 
L 112.349919 -91.603815 
L 111.205906 -92.760222 
L 110.07194 -93.916629 
L 108.909231 -95.073036 
L 107.678251 -96.229443 
L 106.34684 -97.38585 
L 104.89837 -98.542258 
L 103.338181 -99.698665 
L 101.696542 -100.855072 
L 100.027204 -102.011479 
L 98.401719 -103.167886 
L 96.900824 -104.324293 
L 95.604609 -105.480701 
L 94.582933 -106.637108 
L 93.886893 -107.793515 
L 93.541898 -108.949922 
L 93.543302 -110.106329 
L 93.856211 -111.262737 
L 94.420999 -112.419144 
L 95.164614 -113.575551 
L 96.015431 -114.731958 
L 96.917413 -115.888365 
L 97.839136 -117.044772 
L 98.77505 -118.20118 
L 99.739277 -119.357587 
L 100.754874 -120.513994 
L 101.842638 -121.670401 
L 103.013028 -122.826808 
L 104.263306 -123.983215 
L 105.580116 -125.139623 
L 106.94609 -126.29603 
L 108.34772 -127.452437 
L 109.781099 -128.608844 
L 111.252535 -129.765251 
L 112.772958 -130.921658 
L 114.347891 -132.078066 
L 115.967337 -133.234473 
L 117.600626 -134.39088 
L 119.199333 -135.547287 
L 120.707669 -136.703694 
L 122.076207 -137.860102 
L 123.273478 -139.016509 
L 124.291323 -140.172916 
L 125.143126 -141.329323 
L 125.857091 -142.48573 
L 126.468226 -143.642137 
L 127.012049 -144.798545 
L 127.52116 -145.954952 
L 128.023918 -147.111359 
L 128.543535 -148.267766 
L 129.096316 -149.424173 
L 129.688985 -150.58058 
L 130.316302 -151.736988 
L 130.960671 -152.893395 
L 131.594913 -154.049802 
L 132.188124 -155.206209 
L 132.713151 -156.362616 
L 133.153371 -157.519023 
L 133.506532 -158.675431 
L 133.78438 -159.831838 
L 134.008311 -160.988245 
L 134.202741 -162.144652 
L 134.388703 -163.301059 
L 134.579871 -164.457467 
L 134.782026 -165.613874 
L 134.995297 -166.770281 
L 135.217384 -167.926688 
L 135.445878 -169.083095 
L 135.678728 -170.239502 
L 135.913252 -171.39591 
L 136.144983 -172.552317 
L 136.367637 -173.708724 
L 136.574667 -174.865131 
L 136.761844 -176.021538 
L 136.92963 -177.177945 
L 137.084113 -178.334353 
L 137.235864 -179.49076 
L 137.396949 -180.647167 
L 137.577076 -181.803574 
L 137.780255 -182.959981 
L 138.003163 -184.116388 
L 140.588037 -184.116388 
L 140.588037 -184.116388 
L 140.810945 -182.959981 
L 141.014124 -181.803574 
L 141.194251 -180.647167 
L 141.355336 -179.49076 
L 141.507087 -178.334353 
L 141.66157 -177.177945 
L 141.829356 -176.021538 
L 142.016533 -174.865131 
L 142.223563 -173.708724 
L 142.446217 -172.552317 
L 142.677948 -171.39591 
L 142.912472 -170.239502 
L 143.145322 -169.083095 
L 143.373816 -167.926688 
L 143.595903 -166.770281 
L 143.809174 -165.613874 
L 144.011329 -164.457467 
L 144.202497 -163.301059 
L 144.388459 -162.144652 
L 144.582889 -160.988245 
L 144.80682 -159.831838 
L 145.084668 -158.675431 
L 145.437829 -157.519023 
L 145.878049 -156.362616 
L 146.403076 -155.206209 
L 146.996287 -154.049802 
L 147.630529 -152.893395 
L 148.274898 -151.736988 
L 148.902215 -150.58058 
L 149.494884 -149.424173 
L 150.047665 -148.267766 
L 150.567282 -147.111359 
L 151.07004 -145.954952 
L 151.579151 -144.798545 
L 152.122974 -143.642137 
L 152.734109 -142.48573 
L 153.448074 -141.329323 
L 154.299877 -140.172916 
L 155.317722 -139.016509 
L 156.514993 -137.860102 
L 157.883531 -136.703694 
L 159.391867 -135.547287 
L 160.990574 -134.39088 
L 162.623863 -133.234473 
L 164.243309 -132.078066 
L 165.818242 -130.921658 
L 167.338665 -129.765251 
L 168.810101 -128.608844 
L 170.24348 -127.452437 
L 171.64511 -126.29603 
L 173.011084 -125.139623 
L 174.327894 -123.983215 
L 175.578172 -122.826808 
L 176.748562 -121.670401 
L 177.836326 -120.513994 
L 178.851923 -119.357587 
L 179.81615 -118.20118 
L 180.752064 -117.044772 
L 181.673787 -115.888365 
L 182.575769 -114.731958 
L 183.426586 -113.575551 
L 184.170201 -112.419144 
L 184.734989 -111.262737 
L 185.047898 -110.106329 
L 185.049302 -108.949922 
L 184.704307 -107.793515 
L 184.008267 -106.637108 
L 182.986591 -105.480701 
L 181.690376 -104.324293 
L 180.189481 -103.167886 
L 178.563996 -102.011479 
L 176.894658 -100.855072 
L 175.253019 -99.698665 
L 173.69283 -98.542258 
L 172.24436 -97.38585 
L 170.912949 -96.229443 
L 169.681969 -95.073036 
L 168.51926 -93.916629 
L 167.385294 -92.760222 
L 166.241281 -91.603815 
L 165.055789 -90.447407 
L 163.809126 -89.291 
L 162.495249 -88.134593 
L 161.121229 -86.978186 
L 159.704339 -85.821779 
L 158.267042 -84.665372 
L 156.830696 -83.508964 
L 155.4096 -82.352557 
L 154.007511 -81.19615 
L 152.618329 -80.039743 
L 151.231216 -78.883336 
L 149.838448 -77.726928 
L 148.442905 -76.570521 
L 147.062056 -75.414114 
L 145.726722 -74.257707 
L 144.475089 -73.1013 
L 143.34431 -71.944893 
L 142.362721 -70.788485 
L 141.545032 -69.632078 
z
" id="mb968237384" style="stroke:#141414;stroke-width:1.5;"/>
    </defs>
    <g clip-path="url(#p3e5b90d5ae)">
     <use style="fill:#083c1d;stroke:#141414;stroke-width:1.5;" x="0" xlink:href="#mb968237384" y="540.169"/>
    </g>
   </g>
   <g id="PolyCollection_2">
    <defs>
     <path d="M 276.746474 -69.712191 
L 273.467126 -69.712191 
L 272.915293 -70.869996 
L 272.249082 -72.027801 
L 271.458048 -73.185605 
L 270.541539 -74.34341 
L 269.516374 -75.501215 
L 268.420597 -76.659019 
L 267.310478 -77.816824 
L 266.250582 -78.974629 
L 265.299275 -80.132433 
L 264.49358 -81.290238 
L 263.837706 -82.448043 
L 263.299131 -83.605847 
L 262.814649 -84.763652 
L 262.306097 -85.921457 
L 261.701863 -87.079261 
L 260.957036 -88.237066 
L 260.064209 -89.394871 
L 259.050146 -90.552675 
L 257.960239 -91.71048 
L 256.83937 -92.868285 
L 255.719623 -94.02609 
L 254.619958 -95.183894 
L 253.553567 -96.341699 
L 252.532492 -97.499504 
L 251.56167 -98.657308 
L 250.624426 -99.815113 
L 249.670745 -100.972918 
L 248.620337 -102.130722 
L 247.38337 -103.288527 
L 245.889755 -104.446332 
L 244.112179 -105.604136 
L 242.072614 -106.761941 
L 239.832298 -107.919746 
L 237.4731 -109.07755 
L 235.079175 -110.235355 
L 232.723828 -111.39316 
L 230.462794 -112.550964 
L 228.334312 -113.708769 
L 226.366675 -114.866574 
L 224.592177 -116.024378 
L 223.062177 -117.182183 
L 221.854391 -118.339988 
L 221.064635 -119.497793 
L 220.78232 -120.655597 
L 221.058602 -121.813402 
L 221.882238 -122.971207 
L 223.176066 -124.129011 
L 224.81724 -125.286816 
L 226.672576 -126.444621 
L 228.633794 -127.602425 
L 230.639018 -128.76023 
L 232.674571 -129.918035 
L 234.759867 -131.075839 
L 236.923966 -132.233644 
L 239.183925 -133.391449 
L 241.532624 -134.549253 
L 243.938584 -135.707058 
L 246.35468 -136.864863 
L 248.729404 -138.022667 
L 251.015415 -139.180472 
L 253.174117 -140.338277 
L 255.178348 -141.496081 
L 257.015078 -142.653886 
L 258.687242 -143.811691 
L 260.212018 -144.969496 
L 261.614252 -146.1273 
L 262.917183 -147.285105 
L 264.134731 -148.44291 
L 265.268695 -149.600714 
L 266.311188 -150.758519 
L 267.250141 -151.916324 
L 268.075166 -153.074128 
L 268.782 -154.231933 
L 269.374928 -155.389738 
L 269.867295 -156.547542 
L 270.280269 -157.705347 
L 270.63997 -158.863152 
L 270.97307 -160.020956 
L 271.301369 -161.178761 
L 271.636621 -162.336566 
L 271.977538 -163.49437 
L 272.310727 -164.652175 
L 272.616006 -165.80998 
L 272.87445 -166.967784 
L 273.076041 -168.125589 
L 273.223657 -169.283394 
L 273.331777 -170.441199 
L 273.420661 -171.599003 
L 273.508774 -172.756808 
L 273.606833 -173.914613 
L 273.715793 -175.072417 
L 273.829116 -176.230222 
L 273.937819 -177.388027 
L 274.035769 -178.545831 
L 274.122926 -179.703636 
L 274.205268 -180.861441 
L 274.29166 -182.019245 
L 274.389302 -183.17705 
L 274.500021 -184.334855 
L 275.713579 -184.334855 
L 275.713579 -184.334855 
L 275.824298 -183.17705 
L 275.92194 -182.019245 
L 276.008332 -180.861441 
L 276.090674 -179.703636 
L 276.177831 -178.545831 
L 276.275781 -177.388027 
L 276.384484 -176.230222 
L 276.497807 -175.072417 
L 276.606767 -173.914613 
L 276.704826 -172.756808 
L 276.792939 -171.599003 
L 276.881823 -170.441199 
L 276.989943 -169.283394 
L 277.137559 -168.125589 
L 277.33915 -166.967784 
L 277.597594 -165.80998 
L 277.902873 -164.652175 
L 278.236062 -163.49437 
L 278.576979 -162.336566 
L 278.912231 -161.178761 
L 279.24053 -160.020956 
L 279.57363 -158.863152 
L 279.933331 -157.705347 
L 280.346305 -156.547542 
L 280.838672 -155.389738 
L 281.4316 -154.231933 
L 282.138434 -153.074128 
L 282.963459 -151.916324 
L 283.902412 -150.758519 
L 284.944905 -149.600714 
L 286.078869 -148.44291 
L 287.296417 -147.285105 
L 288.599348 -146.1273 
L 290.001582 -144.969496 
L 291.526358 -143.811691 
L 293.198522 -142.653886 
L 295.035252 -141.496081 
L 297.039483 -140.338277 
L 299.198185 -139.180472 
L 301.484196 -138.022667 
L 303.85892 -136.864863 
L 306.275016 -135.707058 
L 308.680976 -134.549253 
L 311.029675 -133.391449 
L 313.289634 -132.233644 
L 315.453733 -131.075839 
L 317.539029 -129.918035 
L 319.574582 -128.76023 
L 321.579806 -127.602425 
L 323.541024 -126.444621 
L 325.39636 -125.286816 
L 327.037534 -124.129011 
L 328.331362 -122.971207 
L 329.154998 -121.813402 
L 329.43128 -120.655597 
L 329.148965 -119.497793 
L 328.359209 -118.339988 
L 327.151423 -117.182183 
L 325.621423 -116.024378 
L 323.846925 -114.866574 
L 321.879288 -113.708769 
L 319.750806 -112.550964 
L 317.489772 -111.39316 
L 315.134425 -110.235355 
L 312.7405 -109.07755 
L 310.381302 -107.919746 
L 308.140986 -106.761941 
L 306.101421 -105.604136 
L 304.323845 -104.446332 
L 302.83023 -103.288527 
L 301.593263 -102.130722 
L 300.542855 -100.972918 
L 299.589174 -99.815113 
L 298.65193 -98.657308 
L 297.681108 -97.499504 
L 296.660033 -96.341699 
L 295.593642 -95.183894 
L 294.493977 -94.02609 
L 293.37423 -92.868285 
L 292.253361 -91.71048 
L 291.163454 -90.552675 
L 290.149391 -89.394871 
L 289.256564 -88.237066 
L 288.511737 -87.079261 
L 287.907503 -85.921457 
L 287.398951 -84.763652 
L 286.914469 -83.605847 
L 286.375894 -82.448043 
L 285.72002 -81.290238 
L 284.914325 -80.132433 
L 283.963018 -78.974629 
L 282.903122 -77.816824 
L 281.793003 -76.659019 
L 280.697226 -75.501215 
L 279.672061 -74.34341 
L 278.755552 -73.185605 
L 277.964518 -72.027801 
L 277.298307 -70.869996 
L 276.746474 -69.712191 
z
" id="m5390f0d2e9" style="stroke:#141414;stroke-width:1.5;"/>
    </defs>
    <g clip-path="url(#p3e5b90d5ae)">
     <use style="fill:#0e5f2f;stroke:#141414;stroke-width:1.5;" x="0" xlink:href="#m5390f0d2e9" y="540.169"/>
    </g>
   </g>
   <g id="PolyCollection_3">
    <defs>
     <path d="M 427.994292 -69.533364 
L 393.841708 -69.533364 
L 392.950069 -73.991619 
L 392.292068 -78.449874 
L 391.890142 -82.908129 
L 391.755081 -87.366385 
L 391.885596 -91.82464 
L 392.26881 -96.282895 
L 392.881601 -100.741151 
L 393.692602 -105.199406 
L 394.664643 -109.657661 
L 395.75738 -114.115916 
L 396.929857 -118.574172 
L 398.142817 -123.032427 
L 399.360581 -127.490682 
L 400.552427 -131.948938 
L 401.693427 -136.407193 
L 402.764772 -140.865448 
L 403.75365 -145.323703 
L 404.652758 -149.781959 
L 405.459563 -154.240214 
L 406.175407 -158.698469 
L 406.804553 -163.156725 
L 407.353247 -167.61498 
L 407.828864 -172.073235 
L 408.239181 -176.53149 
L 408.591806 -180.989746 
L 408.893767 -185.448001 
L 409.151264 -189.906256 
L 409.369574 -194.364511 
L 409.553074 -198.822767 
L 409.705351 -203.281022 
L 409.829388 -207.739277 
L 409.927754 -212.197533 
L 410.002809 -216.655788 
L 410.056867 -221.114043 
L 410.092315 -225.572298 
L 410.111667 -230.030554 
L 410.117572 -234.488809 
L 410.112755 -238.947064 
L 410.099924 -243.40532 
L 410.081658 -247.863575 
L 410.060288 -252.32183 
L 410.037792 -256.780085 
L 410.015722 -261.238341 
L 409.995171 -265.696596 
L 409.97678 -270.154851 
L 409.960785 -274.613107 
L 409.947094 -279.071362 
L 409.935381 -283.529617 
L 409.925185 -287.987872 
L 409.916 -292.446128 
L 409.907348 -296.904383 
L 409.89882 -301.362638 
L 409.890104 -305.820893 
L 409.880976 -310.279149 
L 409.871285 -314.737404 
L 409.860921 -319.195659 
L 409.849788 -323.653915 
L 409.837777 -328.11217 
L 409.824746 -332.570425 
L 409.810516 -337.02868 
L 409.794866 -341.486936 
L 409.777548 -345.945191 
L 409.758293 -350.403446 
L 409.736831 -354.861702 
L 409.712908 -359.319957 
L 409.686306 -363.778212 
L 409.656867 -368.236467 
L 409.624516 -372.694723 
L 409.589289 -377.152978 
L 409.551361 -381.611233 
L 409.511071 -386.069489 
L 409.468945 -390.527744 
L 409.425703 -394.985999 
L 409.382256 -399.444254 
L 409.339691 -403.90251 
L 409.299231 -408.360765 
L 409.262191 -412.81902 
L 409.229914 -417.277275 
L 409.203707 -421.735531 
L 409.184775 -426.193786 
L 409.17416 -430.652041 
L 409.172694 -435.110297 
L 409.180962 -439.568552 
L 409.199284 -444.026807 
L 409.227709 -448.485062 
L 409.26603 -452.943318 
L 409.3138 -457.401573 
L 409.370362 -461.859828 
L 409.434884 -466.318084 
L 409.506392 -470.776339 
L 409.583804 -475.234594 
L 409.665965 -479.692849 
L 409.751675 -484.151105 
L 409.839718 -488.60936 
L 409.928887 -493.067615 
L 410.018009 -497.525871 
L 410.105965 -501.984126 
L 410.191714 -506.442381 
L 410.274306 -510.900636 
L 411.561694 -510.900636 
L 411.561694 -510.900636 
L 411.644286 -506.442381 
L 411.730035 -501.984126 
L 411.817991 -497.525871 
L 411.907113 -493.067615 
L 411.996282 -488.60936 
L 412.084325 -484.151105 
L 412.170035 -479.692849 
L 412.252196 -475.234594 
L 412.329608 -470.776339 
L 412.401116 -466.318084 
L 412.465638 -461.859828 
L 412.5222 -457.401573 
L 412.56997 -452.943318 
L 412.608291 -448.485062 
L 412.636716 -444.026807 
L 412.655038 -439.568552 
L 412.663306 -435.110297 
L 412.66184 -430.652041 
L 412.651225 -426.193786 
L 412.632293 -421.735531 
L 412.606086 -417.277275 
L 412.573809 -412.81902 
L 412.536769 -408.360765 
L 412.496309 -403.90251 
L 412.453744 -399.444254 
L 412.410297 -394.985999 
L 412.367055 -390.527744 
L 412.324929 -386.069489 
L 412.284639 -381.611233 
L 412.246711 -377.152978 
L 412.211484 -372.694723 
L 412.179133 -368.236467 
L 412.149694 -363.778212 
L 412.123092 -359.319957 
L 412.099169 -354.861702 
L 412.077707 -350.403446 
L 412.058452 -345.945191 
L 412.041134 -341.486936 
L 412.025484 -337.02868 
L 412.011254 -332.570425 
L 411.998223 -328.11217 
L 411.986212 -323.653915 
L 411.975079 -319.195659 
L 411.964715 -314.737404 
L 411.955024 -310.279149 
L 411.945896 -305.820893 
L 411.93718 -301.362638 
L 411.928652 -296.904383 
L 411.92 -292.446128 
L 411.910815 -287.987872 
L 411.900619 -283.529617 
L 411.888906 -279.071362 
L 411.875215 -274.613107 
L 411.85922 -270.154851 
L 411.840829 -265.696596 
L 411.820278 -261.238341 
L 411.798208 -256.780085 
L 411.775712 -252.32183 
L 411.754342 -247.863575 
L 411.736076 -243.40532 
L 411.723245 -238.947064 
L 411.718428 -234.488809 
L 411.724333 -230.030554 
L 411.743685 -225.572298 
L 411.779133 -221.114043 
L 411.833191 -216.655788 
L 411.908246 -212.197533 
L 412.006612 -207.739277 
L 412.130649 -203.281022 
L 412.282926 -198.822767 
L 412.466426 -194.364511 
L 412.684736 -189.906256 
L 412.942233 -185.448001 
L 413.244194 -180.989746 
L 413.596819 -176.53149 
L 414.007136 -172.073235 
L 414.482753 -167.61498 
L 415.031447 -163.156725 
L 415.660593 -158.698469 
L 416.376437 -154.240214 
L 417.183242 -149.781959 
L 418.08235 -145.323703 
L 419.071228 -140.865448 
L 420.142573 -136.407193 
L 421.283573 -131.948938 
L 422.475419 -127.490682 
L 423.693183 -123.032427 
L 424.906143 -118.574172 
L 426.07862 -114.115916 
L 427.171357 -109.657661 
L 428.143398 -105.199406 
L 428.954399 -100.741151 
L 429.56719 -96.282895 
L 429.950404 -91.82464 
L 430.080919 -87.366385 
L 429.945858 -82.908129 
L 429.543932 -78.449874 
L 428.885931 -73.991619 
L 427.994292 -69.533364 
z
" id="m30b6b35b0f" style="stroke:#141414;stroke-width:1.5;"/>
    </defs>
    <g clip-path="url(#p3e5b90d5ae)">
     <use style="fill:#307e4a;stroke:#141414;stroke-width:1.5;" x="0" xlink:href="#m30b6b35b0f" y="540.169"/>
    </g>
   </g>
   <g id="PolyCollection_4">
    <defs>
     <path d="M 566.911085 -69.533364 
L 526.547315 -69.533364 
L 526.192338 -73.984695 
L 526.176763 -78.436027 
L 526.498841 -82.887359 
L 527.139928 -87.338691 
L 528.066166 -91.790023 
L 529.231367 -96.241355 
L 530.580752 -100.692686 
L 532.055138 -105.144018 
L 533.595126 -109.59535 
L 535.144881 -114.046682 
L 536.655201 -118.498014 
L 538.085659 -122.949346 
L 539.405759 -127.400677 
L 540.595128 -131.852009 
L 541.642918 -136.303341 
L 542.546585 -140.754673 
L 543.310295 -145.206005 
L 543.943171 -149.657336 
L 544.457577 -154.108668 
L 544.867574 -158.56 
L 545.187655 -163.011332 
L 545.431785 -167.462664 
L 545.61276 -171.913996 
L 545.74185 -176.365327 
L 545.828663 -180.816659 
L 545.881196 -185.267991 
L 545.905988 -189.719323 
L 545.908348 -194.170655 
L 545.892592 -198.621987 
L 545.862284 -203.073318 
L 545.820434 -207.52465 
L 545.769671 -211.975982 
L 545.712363 -216.427314 
L 545.650701 -220.878646 
L 545.586745 -225.329978 
L 545.52244 -229.781309 
L 545.45961 -234.232641 
L 545.399928 -238.683973 
L 545.344882 -243.135305 
L 545.295726 -247.586637 
L 545.253436 -252.037968 
L 545.218672 -256.4893 
L 545.191744 -260.940632 
L 545.172604 -265.391964 
L 545.16085 -269.843296 
L 545.155759 -274.294628 
L 545.15634 -278.745959 
L 545.161407 -283.197291 
L 545.169669 -287.648623 
L 545.179825 -292.099955 
L 545.190665 -296.551287 
L 545.201146 -301.002619 
L 545.210466 -305.45395 
L 545.218105 -309.905282 
L 545.22383 -314.356614 
L 545.227685 -318.807946 
L 545.229943 -323.259278 
L 545.231038 -327.71061 
L 545.231493 -332.161941 
L 545.231836 -336.613273 
L 545.232526 -341.064605 
L 545.233898 -345.515937 
L 545.236124 -349.967269 
L 545.239202 -354.4186 
L 545.24297 -358.869932 
L 545.247139 -363.321264 
L 545.251344 -367.772596 
L 545.255199 -372.223928 
L 545.258352 -376.67526 
L 545.260535 -381.126591 
L 545.261594 -385.577923 
L 545.261507 -390.029255 
L 545.260387 -394.480587 
L 545.258467 -398.931919 
L 545.256077 -403.383251 
L 545.253624 -407.834582 
L 545.251559 -412.285914 
L 545.250364 -416.737246 
L 545.250535 -421.188578 
L 545.252582 -425.63991 
L 545.257021 -430.091241 
L 545.264383 -434.542573 
L 545.27521 -438.993905 
L 545.290045 -443.445237 
L 545.309422 -447.896569 
L 545.333839 -452.347901 
L 545.36373 -456.799232 
L 545.399423 -461.250564 
L 545.441113 -465.701896 
L 545.488821 -470.153228 
L 545.54238 -474.60456 
L 545.601418 -479.055892 
L 545.665363 -483.507223 
L 545.733462 -487.958555 
L 545.804807 -492.409887 
L 545.878374 -496.861219 
L 545.953067 -501.312551 
L 546.027767 -505.763883 
L 546.101376 -510.215214 
L 547.357024 -510.215214 
L 547.357024 -510.215214 
L 547.430633 -505.763883 
L 547.505333 -501.312551 
L 547.580026 -496.861219 
L 547.653593 -492.409887 
L 547.724938 -487.958555 
L 547.793037 -483.507223 
L 547.856982 -479.055892 
L 547.91602 -474.60456 
L 547.969579 -470.153228 
L 548.017287 -465.701896 
L 548.058977 -461.250564 
L 548.09467 -456.799232 
L 548.124561 -452.347901 
L 548.148978 -447.896569 
L 548.168355 -443.445237 
L 548.18319 -438.993905 
L 548.194017 -434.542573 
L 548.201379 -430.091241 
L 548.205818 -425.63991 
L 548.207865 -421.188578 
L 548.208036 -416.737246 
L 548.206841 -412.285914 
L 548.204776 -407.834582 
L 548.202323 -403.383251 
L 548.199933 -398.931919 
L 548.198013 -394.480587 
L 548.196893 -390.029255 
L 548.196806 -385.577923 
L 548.197865 -381.126591 
L 548.200048 -376.67526 
L 548.203201 -372.223928 
L 548.207056 -367.772596 
L 548.211261 -363.321264 
L 548.21543 -358.869932 
L 548.219198 -354.4186 
L 548.222276 -349.967269 
L 548.224502 -345.515937 
L 548.225874 -341.064605 
L 548.226564 -336.613273 
L 548.226907 -332.161941 
L 548.227362 -327.71061 
L 548.228457 -323.259278 
L 548.230715 -318.807946 
L 548.23457 -314.356614 
L 548.240295 -309.905282 
L 548.247934 -305.45395 
L 548.257254 -301.002619 
L 548.267735 -296.551287 
L 548.278575 -292.099955 
L 548.288731 -287.648623 
L 548.296993 -283.197291 
L 548.30206 -278.745959 
L 548.302641 -274.294628 
L 548.29755 -269.843296 
L 548.285796 -265.391964 
L 548.266656 -260.940632 
L 548.239728 -256.4893 
L 548.204964 -252.037968 
L 548.162674 -247.586637 
L 548.113518 -243.135305 
L 548.058472 -238.683973 
L 547.99879 -234.232641 
L 547.93596 -229.781309 
L 547.871655 -225.329978 
L 547.807699 -220.878646 
L 547.746037 -216.427314 
L 547.688729 -211.975982 
L 547.637966 -207.52465 
L 547.596116 -203.073318 
L 547.565808 -198.621987 
L 547.550052 -194.170655 
L 547.552412 -189.719323 
L 547.577204 -185.267991 
L 547.629737 -180.816659 
L 547.71655 -176.365327 
L 547.84564 -171.913996 
L 548.026615 -167.462664 
L 548.270745 -163.011332 
L 548.590826 -158.56 
L 549.000823 -154.108668 
L 549.515229 -149.657336 
L 550.148105 -145.206005 
L 550.911815 -140.754673 
L 551.815482 -136.303341 
L 552.863272 -131.852009 
L 554.052641 -127.400677 
L 555.372741 -122.949346 
L 556.803199 -118.498014 
L 558.313519 -114.046682 
L 559.863274 -109.59535 
L 561.403262 -105.144018 
L 562.877648 -100.692686 
L 564.227033 -96.241355 
L 565.392234 -91.790023 
L 566.318472 -87.338691 
L 566.959559 -82.887359 
L 567.281637 -78.436027 
L 567.266062 -73.984695 
L 566.911085 -69.533364 
z
" id="m701069d143" style="stroke:#141414;stroke-width:1.5;"/>
    </defs>
    <g clip-path="url(#p3e5b90d5ae)">
     <use style="fill:#4fa076;stroke:#141414;stroke-width:1.5;" x="0" xlink:href="#m701069d143" y="540.169"/>
    </g>
   </g>
   <g id="PolyCollection_5">
    <defs>
     <path d="M 683.754366 -82.566237 
L 681.326434 -82.566237 
L 681.01043 -84.842884 
L 680.707798 -87.119532 
L 680.44433 -89.396179 
L 680.238575 -91.672826 
L 680.097838 -93.949474 
L 680.017363 -96.226121 
L 679.982828 -98.502769 
L 679.975209 -100.779416 
L 679.976209 -103.056063 
L 679.972295 -105.332711 
L 679.955959 -107.609358 
L 679.924093 -109.886005 
L 679.874624 -112.162653 
L 679.803314 -114.4393 
L 679.7024 -116.715948 
L 679.561774 -118.992595 
L 679.372214 -121.269242 
L 679.129305 -123.54589 
L 678.83632 -125.822537 
L 678.504591 -128.099185 
L 678.150801 -130.375832 
L 677.791919 -132.652479 
L 677.439716 -134.929127 
L 677.097165 -137.205774 
L 676.758052 -139.482422 
L 676.409506 -141.759069 
L 676.035777 -144.035716 
L 675.621618 -146.312364 
L 675.154745 -148.589011 
L 674.628054 -150.865659 
L 674.042346 -153.142306 
L 673.409075 -155.418953 
L 672.751084 -157.695601 
L 672.098917 -159.972248 
L 671.481971 -162.248895 
L 670.916796 -164.525543 
L 670.397413 -166.80219 
L 669.892752 -169.078838 
L 669.353666 -171.355485 
L 668.727632 -173.632132 
L 667.975692 -175.90878 
L 667.085046 -178.185427 
L 666.072643 -180.462075 
L 664.97896 -182.738722 
L 663.85498 -185.015369 
L 662.74748 -187.292017 
L 661.687394 -189.568664 
L 660.683997 -191.845312 
L 659.725549 -194.121959 
L 658.786021 -196.398606 
L 657.836841 -198.675254 
L 656.861356 -200.951901 
L 655.867514 -203.228548 
L 654.893244 -205.505196 
L 654.001105 -207.781843 
L 653.263959 -210.058491 
L 652.748425 -212.335138 
L 652.503742 -214.611785 
L 652.559526 -216.888433 
L 652.929834 -219.16508 
L 653.617714 -221.441728 
L 654.616141 -223.718375 
L 655.905824 -225.995022 
L 657.453486 -228.27167 
L 659.2136 -230.548317 
L 661.133212 -232.824965 
L 663.156871 -235.101612 
L 665.228907 -237.378259 
L 667.292969 -239.654907 
L 669.291378 -241.931554 
L 671.167383 -244.208202 
L 672.871427 -246.484849 
L 674.369518 -248.761496 
L 675.649767 -251.038144 
L 676.723543 -253.314791 
L 677.620187 -255.591438 
L 678.377211 -257.868086 
L 679.029817 -260.144733 
L 679.603332 -262.421381 
L 680.110471 -264.698028 
L 680.553323 -266.974675 
L 680.928428 -269.251323 
L 681.23271 -271.52797 
L 681.468105 -273.804618 
L 681.64339 -276.081265 
L 681.772888 -278.357912 
L 681.872934 -280.63456 
L 681.957761 -282.911207 
L 682.036504 -285.187855 
L 682.112306 -287.464502 
L 682.18352 -289.741149 
L 682.246219 -292.017797 
L 682.296858 -294.294444 
L 682.334118 -296.571091 
L 682.359469 -298.847739 
L 682.376561 -301.124386 
L 682.389905 -303.401034 
L 682.403461 -305.677681 
L 682.419606 -307.954328 
L 682.661194 -307.954328 
L 682.661194 -307.954328 
L 682.677339 -305.677681 
L 682.690895 -303.401034 
L 682.704239 -301.124386 
L 682.721331 -298.847739 
L 682.746682 -296.571091 
L 682.783942 -294.294444 
L 682.834581 -292.017797 
L 682.89728 -289.741149 
L 682.968494 -287.464502 
L 683.044296 -285.187855 
L 683.123039 -282.911207 
L 683.207866 -280.63456 
L 683.307912 -278.357912 
L 683.43741 -276.081265 
L 683.612695 -273.804618 
L 683.84809 -271.52797 
L 684.152372 -269.251323 
L 684.527477 -266.974675 
L 684.970329 -264.698028 
L 685.477468 -262.421381 
L 686.050983 -260.144733 
L 686.703589 -257.868086 
L 687.460613 -255.591438 
L 688.357257 -253.314791 
L 689.431033 -251.038144 
L 690.711282 -248.761496 
L 692.209373 -246.484849 
L 693.913417 -244.208202 
L 695.789422 -241.931554 
L 697.787831 -239.654907 
L 699.851893 -237.378259 
L 701.923929 -235.101612 
L 703.947588 -232.824965 
L 705.8672 -230.548317 
L 707.627314 -228.27167 
L 709.174976 -225.995022 
L 710.464659 -223.718375 
L 711.463086 -221.441728 
L 712.150966 -219.16508 
L 712.521274 -216.888433 
L 712.577058 -214.611785 
L 712.332375 -212.335138 
L 711.816841 -210.058491 
L 711.079695 -207.781843 
L 710.187556 -205.505196 
L 709.213286 -203.228548 
L 708.219444 -200.951901 
L 707.243959 -198.675254 
L 706.294779 -196.398606 
L 705.355251 -194.121959 
L 704.396803 -191.845312 
L 703.393406 -189.568664 
L 702.33332 -187.292017 
L 701.22582 -185.015369 
L 700.10184 -182.738722 
L 699.008157 -180.462075 
L 697.995754 -178.185427 
L 697.105108 -175.90878 
L 696.353168 -173.632132 
L 695.727134 -171.355485 
L 695.188048 -169.078838 
L 694.683387 -166.80219 
L 694.164004 -164.525543 
L 693.598829 -162.248895 
L 692.981883 -159.972248 
L 692.329716 -157.695601 
L 691.671725 -155.418953 
L 691.038454 -153.142306 
L 690.452746 -150.865659 
L 689.926055 -148.589011 
L 689.459182 -146.312364 
L 689.045023 -144.035716 
L 688.671294 -141.759069 
L 688.322748 -139.482422 
L 687.983635 -137.205774 
L 687.641084 -134.929127 
L 687.288881 -132.652479 
L 686.929999 -130.375832 
L 686.576209 -128.099185 
L 686.24448 -125.822537 
L 685.951495 -123.54589 
L 685.708586 -121.269242 
L 685.519026 -118.992595 
L 685.3784 -116.715948 
L 685.277486 -114.4393 
L 685.206176 -112.162653 
L 685.156707 -109.886005 
L 685.124841 -107.609358 
L 685.108505 -105.332711 
L 685.104591 -103.056063 
L 685.105591 -100.779416 
L 685.097972 -98.502769 
L 685.063437 -96.226121 
L 684.982962 -93.949474 
L 684.842225 -91.672826 
L 684.63647 -89.396179 
L 684.373002 -87.119532 
L 684.07037 -84.842884 
L 683.754366 -82.566237 
z
" id="ma842447e06" style="stroke:#141414;stroke-width:1.5;"/>
    </defs>
    <g clip-path="url(#p3e5b90d5ae)">
     <use style="fill:#72b6a0;stroke:#141414;stroke-width:1.5;" x="0" xlink:href="#ma842447e06" y="540.169"/>
    </g>
   </g>
   <g id="line2d_1">
    <path clip-path="url(#p3e5b90d5ae)" d="M 139.2956 470.536922 
L 139.2956 373.840253 
" style="fill:none;stroke:#141414;stroke-linecap:round;stroke-width:1.5;"/>
   </g>
   <g id="line2d_2">
    <path clip-path="url(#p3e5b90d5ae)" d="M 139.2956 440.154508 
L 139.2956 413.35962 
" style="fill:none;stroke:#141414;stroke-linecap:round;stroke-width:4.5;"/>
   </g>
   <g id="line2d_3">
    <path clip-path="url(#p3e5b90d5ae)" d="M 275.1068 466.898809 
L 275.1068 375.385181 
" style="fill:none;stroke:#141414;stroke-linecap:round;stroke-width:1.5;"/>
   </g>
   <g id="line2d_4">
    <path clip-path="url(#p3e5b90d5ae)" d="M 275.1068 433.200033 
L 275.1068 409.894787 
" style="fill:none;stroke:#141414;stroke-linecap:round;stroke-width:4.5;"/>
   </g>
   <g id="line2d_5">
    <path clip-path="url(#p3e5b90d5ae)" d="M 410.918 470.635636 
L 410.918 349.292148 
" style="fill:none;stroke:#141414;stroke-linecap:round;stroke-width:1.5;"/>
   </g>
   <g id="line2d_6">
    <path clip-path="url(#p3e5b90d5ae)" d="M 410.918 464.248119 
L 410.918 413.327444 
" style="fill:none;stroke:#141414;stroke-linecap:round;stroke-width:4.5;"/>
   </g>
   <g id="line2d_7">
    <path clip-path="url(#p3e5b90d5ae)" d="M 546.7292 470.635636 
L 546.7292 394.021043 
" style="fill:none;stroke:#141414;stroke-linecap:round;stroke-width:1.5;"/>
   </g>
   <g id="line2d_8">
    <path clip-path="url(#p3e5b90d5ae)" d="M 546.7292 468.531064 
L 546.7292 438.484341 
" style="fill:none;stroke:#141414;stroke-linecap:round;stroke-width:4.5;"/>
   </g>
   <g id="line2d_9">
    <path clip-path="url(#p3e5b90d5ae)" d="M 682.5404 428.091672 
L 682.5404 253.663737 
" style="fill:none;stroke:#141414;stroke-linecap:round;stroke-width:1.5;"/>
   </g>
   <g id="line2d_10">
    <path clip-path="url(#p3e5b90d5ae)" d="M 682.5404 361.498627 
L 682.5404 317.018756 
" style="fill:none;stroke:#141414;stroke-linecap:round;stroke-width:4.5;"/>
   </g>
   <g id="patch_3">
    <path d="M 71.39 492.704 
L 71.39 7.2 
" style="fill:none;stroke:#262626;stroke-linecap:square;stroke-linejoin:miter;stroke-width:0.8;"/>
   </g>
   <g id="patch_4">
    <path d="M 71.39 492.704 
L 750.446 492.704 
" style="fill:none;stroke:#262626;stroke-linecap:square;stroke-linejoin:miter;stroke-width:0.8;"/>
   </g>
   <g id="PathCollection_1">
    <defs>
     <path d="M 0 1.5 
C 0.397805 1.5 0.77937 1.341951 1.06066 1.06066 
C 1.341951 0.77937 1.5 0.397805 1.5 0 
C 1.5 -0.397805 1.341951 -0.77937 1.06066 -1.06066 
C 0.77937 -1.341951 0.397805 -1.5 0 -1.5 
C -0.397805 -1.5 -0.77937 -1.341951 -1.06066 -1.06066 
C -1.341951 -0.77937 -1.5 -0.397805 -1.5 0 
C -1.5 0.397805 -1.341951 0.77937 -1.06066 1.06066 
C -0.77937 1.341951 -0.397805 1.5 0 1.5 
z
" id="m599c1bdd0f" style="stroke:#141414;"/>
    </defs>
    <g clip-path="url(#p3e5b90d5ae)">
     <use style="fill:#ffffff;stroke:#141414;" x="139.2956" xlink:href="#m599c1bdd0f" y="427.774603"/>
    </g>
   </g>
   <g id="PathCollection_2">
    <g clip-path="url(#p3e5b90d5ae)">
     <use style="fill:#ffffff;stroke:#141414;" x="275.1068" xlink:href="#m599c1bdd0f" y="420.795425"/>
    </g>
   </g>
   <g id="PathCollection_3">
    <g clip-path="url(#p3e5b90d5ae)">
     <use style="fill:#ffffff;stroke:#141414;" x="410.918" xlink:href="#m599c1bdd0f" y="446.449408"/>
    </g>
   </g>
   <g id="PathCollection_4">
    <g clip-path="url(#p3e5b90d5ae)">
     <use style="fill:#ffffff;stroke:#141414;" x="546.7292" xlink:href="#m599c1bdd0f" y="464.119447"/>
    </g>
   </g>
   <g id="PathCollection_5">
    <g clip-path="url(#p3e5b90d5ae)">
     <use style="fill:#ffffff;stroke:#141414;" x="682.5404" xlink:href="#m599c1bdd0f" y="335.089508"/>
    </g>
   </g>
  </g>
 </g>
 <defs>
  <clipPath id="p3e5b90d5ae">
   <rect height="485.504" width="679.056" x="71.39" y="7.2"/>
  </clipPath>
 </defs>
</svg>
