<?xml version="1.0" encoding="utf-8" standalone="no"?>
<!DOCTYPE svg PUBLIC "-//W3C//DTD SVG 1.1//EN"
  "http://www.w3.org/Graphics/SVG/1.1/DTD/svg11.dtd">
<!-- Created with matplotlib (https://matplotlib.org/) -->
<svg height="536.278723pt" version="1.1" viewBox="0 0 791.118 536.278723" width="791.118pt" xmlns="http://www.w3.org/2000/svg" xmlns:xlink="http://www.w3.org/1999/xlink">
 <defs>
  <style type="text/css">
*{stroke-linecap:butt;stroke-linejoin:round;white-space:pre;}
  </style>
 </defs>
 <g id="figure_1">
  <g id="patch_1">
   <path d="M 0 536.278723 
L 791.118 536.278723 
L 791.118 0 
L 0 0 
z
" style="fill:#ffffff;"/>
  </g>
  <g id="axes_1">
   <g id="patch_2">
    <path d="M 71.39 488.813723 
L 638.570363 488.813723 
L 638.570363 10.105197 
L 71.39 10.105197 
z
" style="fill:#ffffff;"/>
   </g>
   <g id="matplotlib.axis_1">
    <g id="xtick_1">
     <g id="text_1">
      <!-- 0656-2 -->
      <defs>
       <path d="M 4.15625 35.296875 
Q 4.15625 48 6.765625 55.734375 
Q 9.375 63.484375 14.515625 67.671875 
Q 19.671875 71.875 27.484375 71.875 
Q 33.25 71.875 37.59375 69.546875 
Q 41.9375 67.234375 44.765625 62.859375 
Q 47.609375 58.5 49.21875 52.21875 
Q 50.828125 45.953125 50.828125 35.296875 
Q 50.828125 22.703125 48.234375 14.96875 
Q 45.65625 7.234375 40.5 3 
Q 35.359375 -1.21875 27.484375 -1.21875 
Q 17.140625 -1.21875 11.234375 6.203125 
Q 4.15625 15.140625 4.15625 35.296875 
z
M 13.1875 35.296875 
Q 13.1875 17.671875 17.3125 11.828125 
Q 21.4375 6 27.484375 6 
Q 33.546875 6 37.671875 11.859375 
Q 41.796875 17.71875 41.796875 35.296875 
Q 41.796875 52.984375 37.671875 58.78125 
Q 33.546875 64.59375 27.390625 64.59375 
Q 21.34375 64.59375 17.71875 59.46875 
Q 13.1875 52.9375 13.1875 35.296875 
z
" id="ArialMT-48"/>
       <path d="M 49.75 54.046875 
L 41.015625 53.375 
Q 39.84375 58.546875 37.703125 60.890625 
Q 34.125 64.65625 28.90625 64.65625 
Q 24.703125 64.65625 21.53125 62.3125 
Q 17.390625 59.28125 14.984375 53.46875 
Q 12.59375 47.65625 12.5 36.921875 
Q 15.671875 41.75 20.265625 44.09375 
Q 24.859375 46.4375 29.890625 46.4375 
Q 38.671875 46.4375 44.84375 39.96875 
Q 51.03125 33.5 51.03125 23.25 
Q 51.03125 16.5 48.125 10.71875 
Q 45.21875 4.9375 40.140625 1.859375 
Q 35.0625 -1.21875 28.609375 -1.21875 
Q 17.625 -1.21875 10.6875 6.859375 
Q 3.765625 14.9375 3.765625 33.5 
Q 3.765625 54.25 11.421875 63.671875 
Q 18.109375 71.875 29.4375 71.875 
Q 37.890625 71.875 43.28125 67.140625 
Q 48.6875 62.40625 49.75 54.046875 
z
M 13.875 23.1875 
Q 13.875 18.65625 15.796875 14.5 
Q 17.71875 10.359375 21.1875 8.171875 
Q 24.65625 6 28.46875 6 
Q 34.03125 6 38.03125 10.484375 
Q 42.046875 14.984375 42.046875 22.703125 
Q 42.046875 30.125 38.078125 34.390625 
Q 34.125 38.671875 28.125 38.671875 
Q 22.171875 38.671875 18.015625 34.390625 
Q 13.875 30.125 13.875 23.1875 
z
" id="ArialMT-54"/>
       <path d="M 4.15625 18.75 
L 13.375 19.53125 
Q 14.40625 12.796875 18.140625 9.390625 
Q 21.875 6 27.15625 6 
Q 33.5 6 37.890625 10.78125 
Q 42.28125 15.578125 42.28125 23.484375 
Q 42.28125 31 38.0625 35.34375 
Q 33.84375 39.703125 27 39.703125 
Q 22.75 39.703125 19.328125 37.765625 
Q 15.921875 35.84375 13.96875 32.765625 
L 5.71875 33.84375 
L 12.640625 70.609375 
L 48.25 70.609375 
L 48.25 62.203125 
L 19.671875 62.203125 
L 15.828125 42.96875 
Q 22.265625 47.46875 29.34375 47.46875 
Q 38.71875 47.46875 45.15625 40.96875 
Q 51.609375 34.46875 51.609375 24.265625 
Q 51.609375 14.546875 45.953125 7.46875 
Q 39.0625 -1.21875 27.15625 -1.21875 
Q 17.390625 -1.21875 11.203125 4.25 
Q 5.03125 9.71875 4.15625 18.75 
z
" id="ArialMT-53"/>
       <path d="M 3.171875 21.484375 
L 3.171875 30.328125 
L 30.171875 30.328125 
L 30.171875 21.484375 
z
" id="ArialMT-45"/>
       <path d="M 50.34375 8.453125 
L 50.34375 0 
L 3.03125 0 
Q 2.9375 3.171875 4.046875 6.109375 
Q 5.859375 10.9375 9.828125 15.625 
Q 13.8125 20.3125 21.34375 26.46875 
Q 33.015625 36.03125 37.109375 41.625 
Q 41.21875 47.21875 41.21875 52.203125 
Q 41.21875 57.421875 37.46875 61 
Q 33.734375 64.59375 27.734375 64.59375 
Q 21.390625 64.59375 17.578125 60.78125 
Q 13.765625 56.984375 13.71875 50.25 
L 4.6875 51.171875 
Q 5.609375 61.28125 11.65625 66.578125 
Q 17.71875 71.875 27.9375 71.875 
Q 38.234375 71.875 44.234375 66.15625 
Q 50.25 60.453125 50.25 52 
Q 50.25 47.703125 48.484375 43.546875 
Q 46.734375 39.40625 42.65625 34.8125 
Q 38.578125 30.21875 29.109375 22.21875 
Q 21.1875 15.578125 18.9375 13.203125 
Q 16.703125 10.84375 15.234375 8.453125 
z
" id="ArialMT-50"/>
      </defs>
      <g style="fill:#262626;" transform="translate(103.200536 507.266223)scale(0.16 -0.16)">
       <use xlink:href="#ArialMT-48"/>
       <use x="55.615234" xlink:href="#ArialMT-54"/>
       <use x="111.230469" xlink:href="#ArialMT-53"/>
       <use x="166.845703" xlink:href="#ArialMT-54"/>
       <use x="222.460938" xlink:href="#ArialMT-45"/>
       <use x="255.761719" xlink:href="#ArialMT-50"/>
      </g>
     </g>
    </g>
    <g id="xtick_2">
     <g id="text_2">
      <!-- 0655-1 -->
      <defs>
       <path d="M 37.25 0 
L 28.46875 0 
L 28.46875 56 
Q 25.296875 52.984375 20.140625 49.953125 
Q 14.984375 46.921875 10.890625 45.40625 
L 10.890625 53.90625 
Q 18.265625 57.375 23.78125 62.296875 
Q 29.296875 67.234375 31.59375 71.875 
L 37.25 71.875 
z
" id="ArialMT-49"/>
      </defs>
      <g style="fill:#262626;" transform="translate(216.636609 507.266223)scale(0.16 -0.16)">
       <use xlink:href="#ArialMT-48"/>
       <use x="55.615234" xlink:href="#ArialMT-54"/>
       <use x="111.230469" xlink:href="#ArialMT-53"/>
       <use x="166.845703" xlink:href="#ArialMT-53"/>
       <use x="222.460938" xlink:href="#ArialMT-45"/>
       <use x="255.761719" xlink:href="#ArialMT-49"/>
      </g>
     </g>
    </g>
    <g id="xtick_3">
     <g id="text_3">
      <!-- 0655-2 -->
      <g style="fill:#262626;" transform="translate(330.072681 507.266223)scale(0.16 -0.16)">
       <use xlink:href="#ArialMT-48"/>
       <use x="55.615234" xlink:href="#ArialMT-54"/>
       <use x="111.230469" xlink:href="#ArialMT-53"/>
       <use x="166.845703" xlink:href="#ArialMT-53"/>
       <use x="222.460938" xlink:href="#ArialMT-45"/>
       <use x="255.761719" xlink:href="#ArialMT-50"/>
      </g>
     </g>
    </g>
    <g id="xtick_4">
     <g id="text_4">
      <!-- 0820-1 -->
      <defs>
       <path d="M 17.671875 38.8125 
Q 12.203125 40.828125 9.5625 44.53125 
Q 6.9375 48.25 6.9375 53.421875 
Q 6.9375 61.234375 12.546875 66.546875 
Q 18.171875 71.875 27.484375 71.875 
Q 36.859375 71.875 42.578125 66.421875 
Q 48.296875 60.984375 48.296875 53.171875 
Q 48.296875 48.1875 45.671875 44.5 
Q 43.0625 40.828125 37.75 38.8125 
Q 44.34375 36.671875 47.78125 31.875 
Q 51.21875 27.09375 51.21875 20.453125 
Q 51.21875 11.28125 44.71875 5.03125 
Q 38.234375 -1.21875 27.640625 -1.21875 
Q 17.046875 -1.21875 10.546875 5.046875 
Q 4.046875 11.328125 4.046875 20.703125 
Q 4.046875 27.6875 7.59375 32.390625 
Q 11.140625 37.109375 17.671875 38.8125 
z
M 15.921875 53.71875 
Q 15.921875 48.640625 19.1875 45.40625 
Q 22.46875 42.1875 27.6875 42.1875 
Q 32.765625 42.1875 36.015625 45.375 
Q 39.265625 48.578125 39.265625 53.21875 
Q 39.265625 58.0625 35.90625 61.359375 
Q 32.5625 64.65625 27.59375 64.65625 
Q 22.5625 64.65625 19.234375 61.421875 
Q 15.921875 58.203125 15.921875 53.71875 
z
M 13.09375 20.65625 
Q 13.09375 16.890625 14.875 13.375 
Q 16.65625 9.859375 20.171875 7.921875 
Q 23.6875 6 27.734375 6 
Q 34.03125 6 38.125 10.046875 
Q 42.234375 14.109375 42.234375 20.359375 
Q 42.234375 26.703125 38.015625 30.859375 
Q 33.796875 35.015625 27.4375 35.015625 
Q 21.234375 35.015625 17.15625 30.90625 
Q 13.09375 26.8125 13.09375 20.65625 
z
" id="ArialMT-56"/>
      </defs>
      <g style="fill:#262626;" transform="translate(443.508754 507.266223)scale(0.16 -0.16)">
       <use xlink:href="#ArialMT-48"/>
       <use x="55.615234" xlink:href="#ArialMT-56"/>
       <use x="111.230469" xlink:href="#ArialMT-50"/>
       <use x="166.845703" xlink:href="#ArialMT-48"/>
       <use x="222.460938" xlink:href="#ArialMT-45"/>
       <use x="255.761719" xlink:href="#ArialMT-49"/>
      </g>
     </g>
    </g>
    <g id="xtick_5">
     <g id="text_5">
      <!-- 0820-2 -->
      <g style="fill:#262626;" transform="translate(556.944827 507.266223)scale(0.16 -0.16)">
       <use xlink:href="#ArialMT-48"/>
       <use x="55.615234" xlink:href="#ArialMT-56"/>
       <use x="111.230469" xlink:href="#ArialMT-50"/>
       <use x="166.845703" xlink:href="#ArialMT-48"/>
       <use x="222.460938" xlink:href="#ArialMT-45"/>
       <use x="255.761719" xlink:href="#ArialMT-50"/>
      </g>
     </g>
    </g>
    <g id="text_6">
     <!-- Counter id -->
     <defs>
      <path d="M 58.796875 25.09375 
L 68.265625 22.703125 
Q 65.28125 11.03125 57.546875 4.90625 
Q 49.8125 -1.21875 38.625 -1.21875 
Q 27.046875 -1.21875 19.796875 3.484375 
Q 12.546875 8.203125 8.765625 17.140625 
Q 4.984375 26.078125 4.984375 36.328125 
Q 4.984375 47.515625 9.25 55.828125 
Q 13.53125 64.15625 21.40625 68.46875 
Q 29.296875 72.796875 38.765625 72.796875 
Q 49.515625 72.796875 56.828125 67.328125 
Q 64.15625 61.859375 67.046875 51.953125 
L 57.71875 49.75 
Q 55.21875 57.5625 50.484375 61.125 
Q 45.75 64.703125 38.578125 64.703125 
Q 30.328125 64.703125 24.78125 60.734375 
Q 19.234375 56.78125 16.984375 50.109375 
Q 14.75 43.453125 14.75 36.375 
Q 14.75 27.25 17.40625 20.4375 
Q 20.0625 13.625 25.671875 10.25 
Q 31.296875 6.890625 37.84375 6.890625 
Q 45.796875 6.890625 51.3125 11.46875 
Q 56.84375 16.0625 58.796875 25.09375 
z
" id="ArialMT-67"/>
      <path d="M 3.328125 25.921875 
Q 3.328125 40.328125 11.328125 47.265625 
Q 18.015625 53.03125 27.640625 53.03125 
Q 38.328125 53.03125 45.109375 46.015625 
Q 51.90625 39.015625 51.90625 26.65625 
Q 51.90625 16.65625 48.90625 10.90625 
Q 45.90625 5.171875 40.15625 2 
Q 34.421875 -1.171875 27.640625 -1.171875 
Q 16.75 -1.171875 10.03125 5.8125 
Q 3.328125 12.796875 3.328125 25.921875 
z
M 12.359375 25.921875 
Q 12.359375 15.96875 16.703125 11.015625 
Q 21.046875 6.0625 27.640625 6.0625 
Q 34.1875 6.0625 38.53125 11.03125 
Q 42.875 16.015625 42.875 26.21875 
Q 42.875 35.84375 38.5 40.796875 
Q 34.125 45.75 27.640625 45.75 
Q 21.046875 45.75 16.703125 40.8125 
Q 12.359375 35.890625 12.359375 25.921875 
z
" id="ArialMT-111"/>
      <path d="M 40.578125 0 
L 40.578125 7.625 
Q 34.515625 -1.171875 24.125 -1.171875 
Q 19.53125 -1.171875 15.546875 0.578125 
Q 11.578125 2.34375 9.640625 5 
Q 7.71875 7.671875 6.9375 11.53125 
Q 6.390625 14.109375 6.390625 19.734375 
L 6.390625 51.859375 
L 15.1875 51.859375 
L 15.1875 23.09375 
Q 15.1875 16.21875 15.71875 13.8125 
Q 16.546875 10.359375 19.234375 8.375 
Q 21.921875 6.390625 25.875 6.390625 
Q 29.828125 6.390625 33.296875 8.421875 
Q 36.765625 10.453125 38.203125 13.9375 
Q 39.65625 17.4375 39.65625 24.078125 
L 39.65625 51.859375 
L 48.4375 51.859375 
L 48.4375 0 
z
" id="ArialMT-117"/>
      <path d="M 6.59375 0 
L 6.59375 51.859375 
L 14.5 51.859375 
L 14.5 44.484375 
Q 20.21875 53.03125 31 53.03125 
Q 35.6875 53.03125 39.625 51.34375 
Q 43.5625 49.65625 45.515625 46.921875 
Q 47.46875 44.1875 48.25 40.4375 
Q 48.734375 37.984375 48.734375 31.890625 
L 48.734375 0 
L 39.9375 0 
L 39.9375 31.546875 
Q 39.9375 36.921875 38.90625 39.578125 
Q 37.890625 42.234375 35.28125 43.8125 
Q 32.671875 45.40625 29.15625 45.40625 
Q 23.53125 45.40625 19.453125 41.84375 
Q 15.375 38.28125 15.375 28.328125 
L 15.375 0 
z
" id="ArialMT-110"/>
      <path d="M 25.78125 7.859375 
L 27.046875 0.09375 
Q 23.34375 -0.6875 20.40625 -0.6875 
Q 15.625 -0.6875 12.984375 0.828125 
Q 10.359375 2.34375 9.28125 4.8125 
Q 8.203125 7.28125 8.203125 15.1875 
L 8.203125 45.015625 
L 1.765625 45.015625 
L 1.765625 51.859375 
L 8.203125 51.859375 
L 8.203125 64.703125 
L 16.9375 69.96875 
L 16.9375 51.859375 
L 25.78125 51.859375 
L 25.78125 45.015625 
L 16.9375 45.015625 
L 16.9375 14.703125 
Q 16.9375 10.9375 17.40625 9.859375 
Q 17.875 8.796875 18.921875 8.15625 
Q 19.96875 7.515625 21.921875 7.515625 
Q 23.390625 7.515625 25.78125 7.859375 
z
" id="ArialMT-116"/>
      <path d="M 42.09375 16.703125 
L 51.171875 15.578125 
Q 49.03125 7.625 43.21875 3.21875 
Q 37.40625 -1.171875 28.375 -1.171875 
Q 17 -1.171875 10.328125 5.828125 
Q 3.65625 12.84375 3.65625 25.484375 
Q 3.65625 38.578125 10.390625 45.796875 
Q 17.140625 53.03125 27.875 53.03125 
Q 38.28125 53.03125 44.875 45.953125 
Q 51.46875 38.875 51.46875 26.03125 
Q 51.46875 25.25 51.421875 23.6875 
L 12.75 23.6875 
Q 13.234375 15.140625 17.578125 10.59375 
Q 21.921875 6.0625 28.421875 6.0625 
Q 33.25 6.0625 36.671875 8.59375 
Q 40.09375 11.140625 42.09375 16.703125 
z
M 13.234375 30.90625 
L 42.1875 30.90625 
Q 41.609375 37.453125 38.875 40.71875 
Q 34.671875 45.796875 27.984375 45.796875 
Q 21.921875 45.796875 17.796875 41.75 
Q 13.671875 37.703125 13.234375 30.90625 
z
" id="ArialMT-101"/>
      <path d="M 6.5 0 
L 6.5 51.859375 
L 14.40625 51.859375 
L 14.40625 44 
Q 17.4375 49.515625 20 51.265625 
Q 22.5625 53.03125 25.640625 53.03125 
Q 30.078125 53.03125 34.671875 50.203125 
L 31.640625 42.046875 
Q 28.421875 43.953125 25.203125 43.953125 
Q 22.3125 43.953125 20.015625 42.21875 
Q 17.71875 40.484375 16.75 37.40625 
Q 15.28125 32.71875 15.28125 27.15625 
L 15.28125 0 
z
" id="ArialMT-114"/>
      <path id="ArialMT-32"/>
      <path d="M 6.640625 61.46875 
L 6.640625 71.578125 
L 15.4375 71.578125 
L 15.4375 61.46875 
z
M 6.640625 0 
L 6.640625 51.859375 
L 15.4375 51.859375 
L 15.4375 0 
z
" id="ArialMT-105"/>
      <path d="M 40.234375 0 
L 40.234375 6.546875 
Q 35.296875 -1.171875 25.734375 -1.171875 
Q 19.53125 -1.171875 14.328125 2.25 
Q 9.125 5.671875 6.265625 11.796875 
Q 3.421875 17.921875 3.421875 25.875 
Q 3.421875 33.640625 6 39.96875 
Q 8.59375 46.296875 13.765625 49.65625 
Q 18.953125 53.03125 25.34375 53.03125 
Q 30.03125 53.03125 33.6875 51.046875 
Q 37.359375 49.078125 39.65625 45.90625 
L 39.65625 71.578125 
L 48.390625 71.578125 
L 48.390625 0 
z
M 12.453125 25.875 
Q 12.453125 15.921875 16.640625 10.984375 
Q 20.84375 6.0625 26.5625 6.0625 
Q 32.328125 6.0625 36.34375 10.765625 
Q 40.375 15.484375 40.375 25.140625 
Q 40.375 35.796875 36.265625 40.765625 
Q 32.171875 45.75 26.171875 45.75 
Q 20.3125 45.75 16.375 40.96875 
Q 12.453125 36.1875 12.453125 25.875 
z
" id="ArialMT-100"/>
     </defs>
     <g style="fill:#262626;" transform="translate(318.072681 525.898723)scale(0.16 -0.16)">
      <use xlink:href="#ArialMT-67"/>
      <use x="72.216797" xlink:href="#ArialMT-111"/>
      <use x="127.832031" xlink:href="#ArialMT-117"/>
      <use x="183.447266" xlink:href="#ArialMT-110"/>
      <use x="239.0625" xlink:href="#ArialMT-116"/>
      <use x="266.845703" xlink:href="#ArialMT-101"/>
      <use x="322.460938" xlink:href="#ArialMT-114"/>
      <use x="355.761719" xlink:href="#ArialMT-32"/>
      <use x="383.544922" xlink:href="#ArialMT-105"/>
      <use x="405.761719" xlink:href="#ArialMT-100"/>
     </g>
    </g>
   </g>
   <g id="matplotlib.axis_2">
    <g id="ytick_1">
     <g id="text_7">
      <!-- 0 -->
      <g style="fill:#262626;" transform="translate(55.4925 474.327486)scale(0.16 -0.16)">
       <use xlink:href="#ArialMT-48"/>
      </g>
     </g>
    </g>
    <g id="ytick_2">
     <g id="text_8">
      <!-- 200 -->
      <g style="fill:#262626;" transform="translate(37.6975 398.381655)scale(0.16 -0.16)">
       <use xlink:href="#ArialMT-50"/>
       <use x="55.615234" xlink:href="#ArialMT-48"/>
       <use x="111.230469" xlink:href="#ArialMT-48"/>
      </g>
     </g>
    </g>
    <g id="ytick_3">
     <g id="text_9">
      <!-- 400 -->
      <defs>
       <path d="M 32.328125 0 
L 32.328125 17.140625 
L 1.265625 17.140625 
L 1.265625 25.203125 
L 33.9375 71.578125 
L 41.109375 71.578125 
L 41.109375 25.203125 
L 50.78125 25.203125 
L 50.78125 17.140625 
L 41.109375 17.140625 
L 41.109375 0 
z
M 32.328125 25.203125 
L 32.328125 57.46875 
L 9.90625 25.203125 
z
" id="ArialMT-52"/>
      </defs>
      <g style="fill:#262626;" transform="translate(37.6975 322.435824)scale(0.16 -0.16)">
       <use xlink:href="#ArialMT-52"/>
       <use x="55.615234" xlink:href="#ArialMT-48"/>
       <use x="111.230469" xlink:href="#ArialMT-48"/>
      </g>
     </g>
    </g>
    <g id="ytick_4">
     <g id="text_10">
      <!-- 600 -->
      <g style="fill:#262626;" transform="translate(37.6975 246.489993)scale(0.16 -0.16)">
       <use xlink:href="#ArialMT-54"/>
       <use x="55.615234" xlink:href="#ArialMT-48"/>
       <use x="111.230469" xlink:href="#ArialMT-48"/>
      </g>
     </g>
    </g>
    <g id="ytick_5">
     <g id="text_11">
      <!-- 800 -->
      <g style="fill:#262626;" transform="translate(37.6975 170.544162)scale(0.16 -0.16)">
       <use xlink:href="#ArialMT-56"/>
       <use x="55.615234" xlink:href="#ArialMT-48"/>
       <use x="111.230469" xlink:href="#ArialMT-48"/>
      </g>
     </g>
    </g>
    <g id="ytick_6">
     <g id="text_12">
      <!-- 1000 -->
      <g style="fill:#262626;" transform="translate(28.8 94.598331)scale(0.16 -0.16)">
       <use xlink:href="#ArialMT-49"/>
       <use x="55.615234" xlink:href="#ArialMT-48"/>
       <use x="111.230469" xlink:href="#ArialMT-48"/>
       <use x="166.845703" xlink:href="#ArialMT-48"/>
      </g>
     </g>
    </g>
    <g id="ytick_7">
     <g id="text_13">
      <!-- 1200 -->
      <g style="fill:#262626;" transform="translate(28.8 18.6525)scale(0.16 -0.16)">
       <use xlink:href="#ArialMT-49"/>
       <use x="55.615234" xlink:href="#ArialMT-50"/>
       <use x="111.230469" xlink:href="#ArialMT-48"/>
       <use x="166.845703" xlink:href="#ArialMT-48"/>
      </g>
     </g>
    </g>
    <g id="text_14">
     <!-- Count [$h^{-1}$] -->
     <defs>
      <path d="M 6.78125 -19.875 
L 6.78125 71.578125 
L 26.171875 71.578125 
L 26.171875 64.3125 
L 15.578125 64.3125 
L 15.578125 -12.59375 
L 26.171875 -12.59375 
L 26.171875 -19.875 
z
" id="ArialMT-91"/>
      <path d="M 55.71875 33.015625 
L 49.3125 0 
L 40.28125 0 
L 46.6875 32.671875 
Q 47.125 34.96875 47.359375 36.71875 
Q 47.609375 38.484375 47.609375 39.5 
Q 47.609375 43.609375 45.015625 45.890625 
Q 42.4375 48.1875 37.796875 48.1875 
Q 30.5625 48.1875 25.265625 43.296875 
Q 19.96875 38.421875 18.40625 30.328125 
L 12.5 0 
L 3.515625 0 
L 18.3125 75.984375 
L 27.296875 75.984375 
L 21.484375 46.09375 
Q 24.90625 50.6875 30.21875 53.34375 
Q 35.546875 56 41.40625 56 
Q 48.640625 56 52.609375 52.09375 
Q 56.59375 48.1875 56.59375 41.109375 
Q 56.59375 39.359375 56.375 37.359375 
Q 56.15625 35.359375 55.71875 33.015625 
z
" id="DejaVuSans-Oblique-104"/>
      <path d="M 10.59375 35.5 
L 73.1875 35.5 
L 73.1875 27.203125 
L 10.59375 27.203125 
z
" id="DejaVuSans-8722"/>
      <path d="M 12.40625 8.296875 
L 28.515625 8.296875 
L 28.515625 63.921875 
L 10.984375 60.40625 
L 10.984375 69.390625 
L 28.421875 72.90625 
L 38.28125 72.90625 
L 38.28125 8.296875 
L 54.390625 8.296875 
L 54.390625 0 
L 12.40625 0 
z
" id="DejaVuSans-49"/>
      <path d="M 21.296875 -19.875 
L 1.90625 -19.875 
L 1.90625 -12.59375 
L 12.5 -12.59375 
L 12.5 64.3125 
L 1.90625 64.3125 
L 1.90625 71.578125 
L 21.296875 71.578125 
z
" id="ArialMT-93"/>
     </defs>
     <g style="fill:#262626;" transform="translate(21.6 291.61946)rotate(-90)scale(0.16 -0.16)">
      <use transform="translate(0 0.684375)" xlink:href="#ArialMT-67"/>
      <use transform="translate(72.216797 0.684375)" xlink:href="#ArialMT-111"/>
      <use transform="translate(127.832031 0.684375)" xlink:href="#ArialMT-117"/>
      <use transform="translate(183.447266 0.684375)" xlink:href="#ArialMT-110"/>
      <use transform="translate(239.0625 0.684375)" xlink:href="#ArialMT-116"/>
      <use transform="translate(266.845703 0.684375)" xlink:href="#ArialMT-32"/>
      <use transform="translate(294.628906 0.684375)" xlink:href="#ArialMT-91"/>
      <use transform="translate(322.412109 0.684375)" xlink:href="#DejaVuSans-Oblique-104"/>
      <use transform="translate(393.238724 38.965625)scale(0.7)" xlink:href="#DejaVuSans-8722"/>
      <use transform="translate(451.891068 38.965625)scale(0.7)" xlink:href="#DejaVuSans-49"/>
      <use transform="translate(499.161576 0.684375)" xlink:href="#ArialMT-93"/>
     </g>
    </g>
   </g>
   <g id="PolyCollection_1">
    <defs>
     <path d="M 108.843605 -82.248489 
L 101.998038 -82.248489 
L 101.54362 -83.928881 
L 101.08447 -85.609273 
L 100.62744 -87.289664 
L 100.178745 -88.970056 
L 99.743866 -90.650447 
L 99.327591 -92.330839 
L 98.934151 -94.011231 
L 98.567405 -95.691622 
L 98.230987 -97.372014 
L 97.928362 -99.052406 
L 97.662773 -100.732797 
L 97.437051 -102.413189 
L 97.253351 -104.09358 
L 97.112841 -105.773972 
L 97.015438 -107.454364 
L 96.959619 -109.134755 
L 96.942377 -110.815147 
L 96.959309 -112.495539 
L 97.004827 -114.17593 
L 97.072453 -115.856322 
L 97.155132 -117.536713 
L 97.245533 -119.217105 
L 97.336281 -120.897497 
L 97.420131 -122.577888 
L 97.490076 -124.25828 
L 97.539417 -125.938672 
L 97.561834 -127.619063 
L 97.551463 -129.299455 
L 97.503009 -130.979847 
L 97.411863 -132.660238 
L 97.274227 -134.34063 
L 97.0872 -136.021021 
L 96.848805 -137.701413 
L 96.557962 -139.381805 
L 96.214403 -141.062196 
L 95.818555 -142.742588 
L 95.371439 -144.42298 
L 94.874613 -146.103371 
L 94.330186 -147.783763 
L 93.740918 -149.464154 
L 93.110369 -151.144546 
L 92.443064 -152.824938 
L 91.744619 -154.505329 
L 91.021762 -156.185721 
L 90.282216 -157.866113 
L 89.53444 -159.546504 
L 88.787256 -161.226896 
L 88.049431 -162.907287 
L 87.329317 -164.587679 
L 86.634629 -166.268071 
L 85.972435 -167.948462 
L 85.349392 -169.628854 
L 84.772157 -171.309246 
L 84.247895 -172.989637 
L 83.784724 -174.670029 
L 83.391937 -176.350421 
L 83.07988 -178.030812 
L 82.859421 -179.711204 
L 82.741031 -181.391595 
L 82.733607 -183.071987 
L 82.843223 -184.752379 
L 83.072035 -186.43277 
L 83.41755 -188.113162 
L 83.872429 -189.793554 
L 84.42486 -191.473945 
L 85.059485 -193.154337 
L 85.75873 -194.834728 
L 86.504356 -196.51512 
L 87.278984 -198.195512 
L 88.067407 -199.875903 
L 88.857522 -201.556295 
L 89.640789 -203.236687 
L 90.412226 -204.917078 
L 91.169981 -206.59747 
L 91.914597 -208.277862 
L 92.648114 -209.958253 
L 93.373131 -211.638645 
L 94.091965 -213.319036 
L 94.805984 -214.999428 
L 95.515184 -216.67982 
L 96.21802 -218.360211 
L 96.911485 -220.040603 
L 97.591394 -221.720995 
L 98.252814 -223.401386 
L 98.890573 -225.081778 
L 99.499779 -226.762169 
L 100.076277 -228.442561 
L 100.616986 -230.122953 
L 101.12009 -231.803344 
L 101.585072 -233.483736 
L 102.012583 -235.164128 
L 102.404204 -236.844519 
L 102.762134 -238.524911 
L 103.088854 -240.205302 
L 103.386831 -241.885694 
L 103.658294 -243.566086 
L 103.905093 -245.246477 
L 104.12867 -246.926869 
L 104.330103 -248.607261 
L 106.51154 -248.607261 
L 106.51154 -248.607261 
L 106.712973 -246.926869 
L 106.93655 -245.246477 
L 107.18335 -243.566086 
L 107.454812 -241.885694 
L 107.75279 -240.205302 
L 108.07951 -238.524911 
L 108.437439 -236.844519 
L 108.829061 -235.164128 
L 109.256572 -233.483736 
L 109.721553 -231.803344 
L 110.224658 -230.122953 
L 110.765366 -228.442561 
L 111.341864 -226.762169 
L 111.951071 -225.081778 
L 112.58883 -223.401386 
L 113.250249 -221.720995 
L 113.930159 -220.040603 
L 114.623624 -218.360211 
L 115.32646 -216.67982 
L 116.035659 -214.999428 
L 116.749678 -213.319036 
L 117.468512 -211.638645 
L 118.19353 -209.958253 
L 118.927046 -208.277862 
L 119.671663 -206.59747 
L 120.429417 -204.917078 
L 121.200855 -203.236687 
L 121.984122 -201.556295 
L 122.774236 -199.875903 
L 123.56266 -198.195512 
L 124.337288 -196.51512 
L 125.082913 -194.834728 
L 125.782159 -193.154337 
L 126.416783 -191.473945 
L 126.969214 -189.793554 
L 127.424093 -188.113162 
L 127.769609 -186.43277 
L 127.99842 -184.752379 
L 128.108036 -183.071987 
L 128.100612 -181.391595 
L 127.982222 -179.711204 
L 127.761763 -178.030812 
L 127.449707 -176.350421 
L 127.05692 -174.670029 
L 126.593748 -172.989637 
L 126.069486 -171.309246 
L 125.492251 -169.628854 
L 124.869208 -167.948462 
L 124.207015 -166.268071 
L 123.512326 -164.587679 
L 122.792213 -162.907287 
L 122.054388 -161.226896 
L 121.307203 -159.546504 
L 120.559427 -157.866113 
L 119.819881 -156.185721 
L 119.097025 -154.505329 
L 118.39858 -152.824938 
L 117.731275 -151.144546 
L 117.100725 -149.464154 
L 116.511458 -147.783763 
L 115.967031 -146.103371 
L 115.470204 -144.42298 
L 115.023088 -142.742588 
L 114.627241 -141.062196 
L 114.283682 -139.381805 
L 113.992839 -137.701413 
L 113.754444 -136.021021 
L 113.567416 -134.34063 
L 113.429781 -132.660238 
L 113.338635 -130.979847 
L 113.29018 -129.299455 
L 113.279809 -127.619063 
L 113.302226 -125.938672 
L 113.351568 -124.25828 
L 113.421513 -122.577888 
L 113.505363 -120.897497 
L 113.596111 -119.217105 
L 113.686511 -117.536713 
L 113.769191 -115.856322 
L 113.836816 -114.17593 
L 113.882335 -112.495539 
L 113.899267 -110.815147 
L 113.882025 -109.134755 
L 113.826206 -107.454364 
L 113.728802 -105.773972 
L 113.588293 -104.09358 
L 113.404592 -102.413189 
L 113.178871 -100.732797 
L 112.913281 -99.052406 
L 112.610657 -97.372014 
L 112.274238 -95.691622 
L 111.907493 -94.011231 
L 111.514053 -92.330839 
L 111.097777 -90.650447 
L 110.662899 -88.970056 
L 110.214203 -87.289664 
L 109.757173 -85.609273 
L 109.298024 -83.928881 
L 108.843605 -82.248489 
z
" id="md6663a0080" style="stroke:#141414;stroke-width:1.5;"/>
    </defs>
    <g clip-path="url(#pf986cee592)">
     <use style="fill:#083c1d;stroke:#141414;stroke-width:1.5;" x="0" xlink:href="#md6663a0080" y="536.278723"/>
    </g>
   </g>
   <g id="PolyCollection_2">
    <defs>
     <path d="M 150.928573 -86.347023 
L 150.661929 -86.347023 
L 150.637264 -88.839334 
L 150.611454 -91.331644 
L 150.582208 -93.823955 
L 150.547544 -96.316265 
L 150.507174 -98.808576 
L 150.463094 -101.300886 
L 150.418901 -103.793197 
L 150.378096 -106.285507 
L 150.342146 -108.777818 
L 150.309238 -111.270128 
L 150.274324 -113.762439 
L 150.23052 -116.254749 
L 150.171421 -118.74706 
L 150.093621 -121.23937 
L 149.998533 -123.731681 
L 149.892672 -126.223991 
L 149.785849 -128.716302 
L 149.687447 -131.208612 
L 149.601897 -133.700923 
L 149.525222 -136.193233 
L 149.444266 -138.685544 
L 149.339058 -141.177854 
L 149.187145 -143.670165 
L 148.967939 -146.162475 
L 148.665588 -148.654786 
L 148.270271 -151.147096 
L 147.778793 -153.639407 
L 147.195207 -156.131717 
L 146.531189 -158.624027 
L 145.805165 -161.116338 
L 145.039527 -163.608648 
L 144.256261 -166.100959 
L 143.472025 -168.593269 
L 142.693918 -171.08558 
L 141.917242 -173.57789 
L 141.126843 -176.070201 
L 140.303027 -178.562511 
L 139.43085 -181.054822 
L 138.50863 -183.547132 
L 137.550737 -186.039443 
L 136.582773 -188.531753 
L 135.632416 -191.024064 
L 134.722058 -193.516374 
L 133.8673 -196.008685 
L 133.080224 -198.500995 
L 132.372621 -200.993306 
L 131.755366 -203.485616 
L 131.234311 -205.977927 
L 130.806721 -208.470237 
L 130.46207 -210.962548 
L 130.187607 -213.454858 
L 129.975442 -215.947169 
L 129.826816 -218.439479 
L 129.751365 -220.93179 
L 129.762691 -223.4241 
L 129.873853 -225.916411 
L 130.095549 -228.408721 
L 130.436612 -230.901032 
L 130.903871 -233.393342 
L 131.49918 -235.885653 
L 132.215056 -238.377963 
L 133.033057 -240.870274 
L 133.927421 -243.362584 
L 134.87154 -245.854895 
L 135.841741 -248.347205 
L 136.815277 -250.839515 
L 137.765753 -253.331826 
L 138.662985 -255.824136 
L 139.481176 -258.316447 
L 140.211501 -260.808757 
L 140.869752 -263.301068 
L 141.491836 -265.793378 
L 142.118162 -268.285689 
L 142.775492 -270.777999 
L 143.466122 -273.27031 
L 144.168993 -275.76262 
L 144.850375 -278.254931 
L 145.477707 -280.747241 
L 146.030398 -283.239552 
L 146.504234 -285.731862 
L 146.909271 -288.224173 
L 147.263446 -290.716483 
L 147.585387 -293.208794 
L 147.889485 -295.701104 
L 148.184585 -298.193415 
L 148.475238 -300.685725 
L 148.763224 -303.178036 
L 149.047653 -305.670346 
L 149.323936 -308.162657 
L 149.583371 -310.654967 
L 149.814872 -313.147278 
L 150.008636 -315.639588 
L 150.159953 -318.131899 
L 150.271148 -320.624209 
L 150.350725 -323.11652 
L 150.410335 -325.60883 
L 150.461042 -328.101141 
L 150.510433 -330.593451 
L 150.561431 -333.085762 
L 151.029071 -333.085762 
L 151.029071 -333.085762 
L 151.080068 -330.593451 
L 151.12946 -328.101141 
L 151.180167 -325.60883 
L 151.239776 -323.11652 
L 151.319354 -320.624209 
L 151.430549 -318.131899 
L 151.581866 -315.639588 
L 151.77563 -313.147278 
L 152.007131 -310.654967 
L 152.266566 -308.162657 
L 152.542848 -305.670346 
L 152.827278 -303.178036 
L 153.115264 -300.685725 
L 153.405917 -298.193415 
L 153.701017 -295.701104 
L 154.005115 -293.208794 
L 154.327055 -290.716483 
L 154.681231 -288.224173 
L 155.086267 -285.731862 
L 155.560104 -283.239552 
L 156.112794 -280.747241 
L 156.740127 -278.254931 
L 157.421509 -275.76262 
L 158.12438 -273.27031 
L 158.81501 -270.777999 
L 159.47234 -268.285689 
L 160.098665 -265.793378 
L 160.72075 -263.301068 
L 161.379 -260.808757 
L 162.109325 -258.316447 
L 162.927516 -255.824136 
L 163.824749 -253.331826 
L 164.775225 -250.839515 
L 165.74876 -248.347205 
L 166.718961 -245.854895 
L 167.663081 -243.362584 
L 168.557445 -240.870274 
L 169.375446 -238.377963 
L 170.091321 -235.885653 
L 170.68663 -233.393342 
L 171.153889 -230.901032 
L 171.494952 -228.408721 
L 171.716648 -225.916411 
L 171.827811 -223.4241 
L 171.839137 -220.93179 
L 171.763685 -218.439479 
L 171.61506 -215.947169 
L 171.402894 -213.454858 
L 171.128431 -210.962548 
L 170.78378 -208.470237 
L 170.356191 -205.977927 
L 169.835136 -203.485616 
L 169.217881 -200.993306 
L 168.510278 -198.500995 
L 167.723201 -196.008685 
L 166.868444 -193.516374 
L 165.958085 -191.024064 
L 165.007729 -188.531753 
L 164.039764 -186.039443 
L 163.081871 -183.547132 
L 162.159651 -181.054822 
L 161.287474 -178.562511 
L 160.463659 -176.070201 
L 159.67326 -173.57789 
L 158.896584 -171.08558 
L 158.118476 -168.593269 
L 157.334241 -166.100959 
L 156.550975 -163.608648 
L 155.785337 -161.116338 
L 155.059312 -158.624027 
L 154.395294 -156.131717 
L 153.811708 -153.639407 
L 153.32023 -151.147096 
L 152.924913 -148.654786 
L 152.622562 -146.162475 
L 152.403356 -143.670165 
L 152.251444 -141.177854 
L 152.146235 -138.685544 
L 152.065279 -136.193233 
L 151.988604 -133.700923 
L 151.903055 -131.208612 
L 151.804652 -128.716302 
L 151.69783 -126.223991 
L 151.591968 -123.731681 
L 151.496881 -121.23937 
L 151.419081 -118.74706 
L 151.359982 -116.254749 
L 151.316177 -113.762439 
L 151.281264 -111.270128 
L 151.248356 -108.777818 
L 151.212405 -106.285507 
L 151.171601 -103.793197 
L 151.127408 -101.300886 
L 151.083327 -98.808576 
L 151.042958 -96.316265 
L 151.008294 -93.823955 
L 150.979048 -91.331644 
L 150.953237 -88.839334 
L 150.928573 -86.347023 
z
" id="m2b2e674cff" style="stroke:#141414;stroke-width:1.5;"/>
    </defs>
    <g clip-path="url(#pf986cee592)">
     <use style="fill:#0e5f2f;stroke:#141414;stroke-width:1.5;" x="0" xlink:href="#m2b2e674cff" y="536.278723"/>
    </g>
   </g>
   <g id="PolyCollection_3">
    <defs>
     <path d="M 219.837047 -69.224478 
L 217.876742 -69.224478 
L 217.654786 -71.923694 
L 217.396985 -74.62291 
L 217.100125 -77.322125 
L 216.761976 -80.021341 
L 216.381901 -82.720556 
L 215.961352 -85.419772 
L 215.504102 -88.118988 
L 215.016135 -90.818203 
L 214.505185 -93.517419 
L 213.980018 -96.216635 
L 213.449617 -98.91585 
L 212.922446 -101.615066 
L 212.405945 -104.314281 
L 211.906309 -107.013497 
L 211.428507 -109.712713 
L 210.97642 -112.411928 
L 210.552926 -115.111144 
L 210.159823 -117.810359 
L 209.797568 -120.509575 
L 209.464911 -123.208791 
L 209.158608 -125.908006 
L 208.873405 -128.607222 
L 208.602413 -131.306437 
L 208.337911 -134.005653 
L 208.072428 -136.704869 
L 207.79988 -139.404084 
L 207.516474 -142.1033 
L 207.221148 -144.802516 
L 206.91539 -147.501731 
L 206.60246 -150.200947 
L 206.286106 -152.900162 
L 205.96904 -155.599378 
L 205.651468 -158.298594 
L 205.329992 -160.997809 
L 204.997232 -163.697025 
L 204.642361 -166.39624 
L 204.25263 -169.095456 
L 203.815711 -171.794672 
L 203.322418 -174.493887 
L 202.769194 -177.193103 
L 202.159711 -179.892318 
L 201.505096 -182.591534 
L 200.822656 -185.29075 
L 200.133401 -187.989965 
L 199.459046 -190.689181 
L 198.819276 -193.388396 
L 198.22996 -196.087612 
L 197.702649 -198.786828 
L 197.245196 -201.486043 
L 196.863047 -204.185259 
L 196.560549 -206.884475 
L 196.341745 -209.58369 
L 196.210451 -212.282906 
L 196.16968 -214.982121 
L 196.220814 -217.681337 
L 196.362942 -220.380553 
L 196.592708 -223.079768 
L 196.904781 -225.778984 
L 197.292836 -228.478199 
L 197.750729 -231.177415 
L 198.273537 -233.876631 
L 198.858166 -236.575846 
L 199.503379 -239.275062 
L 200.209247 -241.974277 
L 200.976158 -244.673493 
L 201.803602 -247.372709 
L 202.688967 -250.071924 
L 203.626601 -252.77114 
L 204.607313 -255.470355 
L 205.618454 -258.169571 
L 206.644587 -260.868787 
L 207.668679 -263.568002 
L 208.673585 -266.267218 
L 209.643573 -268.966434 
L 210.565602 -271.665649 
L 211.430118 -274.364865 
L 212.231297 -277.06408 
L 212.966752 -279.763296 
L 213.636877 -282.462512 
L 214.244023 -285.161727 
L 214.791712 -287.860943 
L 215.284016 -290.560158 
L 215.725156 -293.259374 
L 216.119296 -295.95859 
L 216.470467 -298.657805 
L 216.782544 -301.357021 
L 217.059216 -304.056236 
L 217.303934 -306.755452 
L 217.519827 -309.454668 
L 217.709645 -312.153883 
L 217.875742 -314.853099 
L 218.020132 -317.552315 
L 218.144616 -320.25153 
L 218.250942 -322.950746 
L 218.340955 -325.649961 
L 218.416685 -328.349177 
L 218.480333 -331.048393 
L 218.534167 -333.747608 
L 218.580351 -336.446824 
L 219.133437 -336.446824 
L 219.133437 -336.446824 
L 219.179622 -333.747608 
L 219.233456 -331.048393 
L 219.297104 -328.349177 
L 219.372833 -325.649961 
L 219.462847 -322.950746 
L 219.569173 -320.25153 
L 219.693656 -317.552315 
L 219.838047 -314.853099 
L 220.004143 -312.153883 
L 220.193962 -309.454668 
L 220.409855 -306.755452 
L 220.654572 -304.056236 
L 220.931245 -301.357021 
L 221.243322 -298.657805 
L 221.594493 -295.95859 
L 221.988633 -293.259374 
L 222.429773 -290.560158 
L 222.922077 -287.860943 
L 223.469766 -285.161727 
L 224.076912 -282.462512 
L 224.747037 -279.763296 
L 225.482492 -277.06408 
L 226.283671 -274.364865 
L 227.148187 -271.665649 
L 228.070215 -268.966434 
L 229.040204 -266.267218 
L 230.045109 -263.568002 
L 231.069201 -260.868787 
L 232.095335 -258.169571 
L 233.106475 -255.470355 
L 234.087188 -252.77114 
L 235.024822 -250.071924 
L 235.910187 -247.372709 
L 236.73763 -244.673493 
L 237.504541 -241.974277 
L 238.210409 -239.275062 
L 238.855622 -236.575846 
L 239.440252 -233.876631 
L 239.96306 -231.177415 
L 240.420952 -228.478199 
L 240.809007 -225.778984 
L 241.121081 -223.079768 
L 241.350847 -220.380553 
L 241.492975 -217.681337 
L 241.544109 -214.982121 
L 241.503338 -212.282906 
L 241.372043 -209.58369 
L 241.15324 -206.884475 
L 240.850741 -204.185259 
L 240.468593 -201.486043 
L 240.01114 -198.786828 
L 239.483828 -196.087612 
L 238.894513 -193.388396 
L 238.254742 -190.689181 
L 237.580388 -187.989965 
L 236.891133 -185.29075 
L 236.208692 -182.591534 
L 235.554078 -179.892318 
L 234.944595 -177.193103 
L 234.391371 -174.493887 
L 233.898078 -171.794672 
L 233.461159 -169.095456 
L 233.071428 -166.39624 
L 232.716557 -163.697025 
L 232.383797 -160.997809 
L 232.062321 -158.298594 
L 231.744748 -155.599378 
L 231.427683 -152.900162 
L 231.111329 -150.200947 
L 230.798398 -147.501731 
L 230.492641 -144.802516 
L 230.197314 -142.1033 
L 229.913909 -139.404084 
L 229.64136 -136.704869 
L 229.375878 -134.005653 
L 229.111376 -131.306437 
L 228.840384 -128.607222 
L 228.55518 -125.908006 
L 228.248878 -123.208791 
L 227.916221 -120.509575 
L 227.553966 -117.810359 
L 227.160863 -115.111144 
L 226.737369 -112.411928 
L 226.285282 -109.712713 
L 225.80748 -107.013497 
L 225.307843 -104.314281 
L 224.791343 -101.615066 
L 224.264172 -98.91585 
L 223.733771 -96.216635 
L 223.208604 -93.517419 
L 222.697654 -90.818203 
L 222.209687 -88.118988 
L 221.752437 -85.419772 
L 221.331888 -82.720556 
L 220.951813 -80.021341 
L 220.613663 -77.322125 
L 220.316804 -74.62291 
L 220.059002 -71.923694 
L 219.837047 -69.224478 
z
" id="m5a6e220e48" style="stroke:#141414;stroke-width:1.5;"/>
    </defs>
    <g clip-path="url(#pf986cee592)">
     <use style="fill:#083c1d;stroke:#141414;stroke-width:1.5;" x="0" xlink:href="#m5a6e220e48" y="536.278723"/>
    </g>
   </g>
   <g id="PolyCollection_4">
    <defs>
     <path d="M 264.738511 -82.319999 
L 263.724135 -82.319999 
L 263.604405 -86.583575 
L 263.471357 -90.847152 
L 263.324873 -95.110728 
L 263.164736 -99.374304 
L 262.990928 -103.63788 
L 262.803933 -107.901457 
L 262.604872 -112.165033 
L 262.39541 -116.428609 
L 262.177429 -120.692185 
L 261.952587 -124.955762 
L 261.721896 -129.219338 
L 261.485471 -133.482914 
L 261.242481 -137.74649 
L 260.991308 -142.010067 
L 260.729811 -146.273643 
L 260.455642 -150.537219 
L 260.166588 -154.800795 
L 259.860982 -159.064372 
L 259.538231 -163.327948 
L 259.199416 -167.591524 
L 258.847764 -171.8551 
L 258.488672 -176.118677 
L 258.129031 -180.382253 
L 257.775813 -184.645829 
L 257.434231 -188.909405 
L 257.106045 -193.172982 
L 256.788612 -197.436558 
L 256.475081 -201.700134 
L 256.155722 -205.96371 
L 255.820034 -210.227286 
L 255.45907 -214.490863 
L 255.06741 -218.754439 
L 254.644334 -223.018015 
L 254.193944 -227.281591 
L 253.724219 -231.545168 
L 253.245201 -235.808744 
L 252.766759 -240.07232 
L 252.296545 -244.335896 
L 251.838757 -248.599473 
L 251.3941 -252.863049 
L 250.960942 -257.126625 
L 250.537261 -261.390201 
L 250.122728 -265.653778 
L 249.720315 -269.917354 
L 249.337068 -274.18093 
L 248.984019 -278.444506 
L 248.675408 -282.708083 
L 248.427465 -286.971659 
L 248.256901 -291.235235 
L 248.17919 -295.498811 
L 248.20672 -299.762388 
L 248.347042 -304.025964 
L 248.601617 -308.28954 
L 248.965463 -312.553116 
L 249.427978 -316.816693 
L 249.974746 -321.080269 
L 250.589751 -325.343845 
L 251.257182 -329.607421 
L 251.962224 -333.870998 
L 252.690754 -338.134574 
L 253.428444 -342.39815 
L 254.160155 -346.661726 
L 254.870275 -350.925303 
L 255.544186 -355.188879 
L 256.170366 -359.452455 
L 256.742299 -363.716031 
L 257.25943 -367.979607 
L 257.726786 -372.243184 
L 258.153433 -376.50676 
L 258.550249 -380.770336 
L 258.927641 -385.033912 
L 259.293667 -389.297489 
L 259.65286 -393.561065 
L 260.005801 -397.824641 
L 260.349404 -402.088217 
L 260.677787 -406.351794 
L 260.983554 -410.61537 
L 261.259325 -414.878946 
L 261.49922 -419.142522 
L 261.700072 -423.406099 
L 261.862094 -427.669675 
L 261.988887 -431.933251 
L 262.086815 -436.196827 
L 262.163923 -440.460404 
L 262.228677 -444.72398 
L 262.288786 -448.987556 
L 262.350318 -453.251132 
L 262.417214 -457.514709 
L 262.491242 -461.778285 
L 262.57238 -466.041861 
L 262.659525 -470.305437 
L 262.751353 -474.569014 
L 262.847085 -478.83259 
L 262.946868 -483.096166 
L 263.051654 -487.359742 
L 263.162586 -491.623319 
L 263.280132 -495.886895 
L 263.40334 -500.150471 
L 263.529497 -504.414047 
L 264.933149 -504.414047 
L 264.933149 -504.414047 
L 265.059307 -500.150471 
L 265.182514 -495.886895 
L 265.300061 -491.623319 
L 265.410992 -487.359742 
L 265.515779 -483.096166 
L 265.615562 -478.83259 
L 265.711293 -474.569014 
L 265.803122 -470.305437 
L 265.890266 -466.041861 
L 265.971404 -461.778285 
L 266.045433 -457.514709 
L 266.112328 -453.251132 
L 266.173861 -448.987556 
L 266.23397 -444.72398 
L 266.298723 -440.460404 
L 266.375832 -436.196827 
L 266.47376 -431.933251 
L 266.600553 -427.669675 
L 266.762575 -423.406099 
L 266.963427 -419.142522 
L 267.203322 -414.878946 
L 267.479092 -410.61537 
L 267.78486 -406.351794 
L 268.113242 -402.088217 
L 268.456846 -397.824641 
L 268.809787 -393.561065 
L 269.16898 -389.297489 
L 269.535006 -385.033912 
L 269.912398 -380.770336 
L 270.309214 -376.50676 
L 270.735861 -372.243184 
L 271.203217 -367.979607 
L 271.720347 -363.716031 
L 272.292281 -359.452455 
L 272.91846 -355.188879 
L 273.592371 -350.925303 
L 274.302492 -346.661726 
L 275.034203 -342.39815 
L 275.771893 -338.134574 
L 276.500422 -333.870998 
L 277.205465 -329.607421 
L 277.872896 -325.343845 
L 278.487901 -321.080269 
L 279.034669 -316.816693 
L 279.497184 -312.553116 
L 279.86103 -308.28954 
L 280.115605 -304.025964 
L 280.255927 -299.762388 
L 280.283456 -295.498811 
L 280.205745 -291.235235 
L 280.035182 -286.971659 
L 279.787238 -282.708083 
L 279.478627 -278.444506 
L 279.125579 -274.18093 
L 278.742332 -269.917354 
L 278.339918 -265.653778 
L 277.925385 -261.390201 
L 277.501705 -257.126625 
L 277.068547 -252.863049 
L 276.623889 -248.599473 
L 276.166102 -244.335896 
L 275.695888 -240.07232 
L 275.217446 -235.808744 
L 274.738428 -231.545168 
L 274.268703 -227.281591 
L 273.818312 -223.018015 
L 273.395236 -218.754439 
L 273.003577 -214.490863 
L 272.642613 -210.227286 
L 272.306924 -205.96371 
L 271.987566 -201.700134 
L 271.674035 -197.436558 
L 271.356602 -193.172982 
L 271.028415 -188.909405 
L 270.686834 -184.645829 
L 270.333616 -180.382253 
L 269.973975 -176.118677 
L 269.614883 -171.8551 
L 269.263231 -167.591524 
L 268.924416 -163.327948 
L 268.601665 -159.064372 
L 268.296058 -154.800795 
L 268.007005 -150.537219 
L 267.732836 -146.273643 
L 267.471338 -142.010067 
L 267.220165 -137.74649 
L 266.977176 -133.482914 
L 266.740751 -129.219338 
L 266.51006 -124.955762 
L 266.285217 -120.692185 
L 266.067237 -116.428609 
L 265.857775 -112.165033 
L 265.658714 -107.901457 
L 265.471719 -103.63788 
L 265.297911 -99.374304 
L 265.137773 -95.110728 
L 264.991289 -90.847152 
L 264.858242 -86.583575 
L 264.738511 -82.319999 
z
" id="m58a995b05c" style="stroke:#141414;stroke-width:1.5;"/>
    </defs>
    <g clip-path="url(#pf986cee592)">
     <use style="fill:#0e5f2f;stroke:#141414;stroke-width:1.5;" x="0" xlink:href="#m58a995b05c" y="536.278723"/>
    </g>
   </g>
   <g id="PolyCollection_5">
    <defs>
     <path d="M 333.258534 -71.287134 
L 331.3274 -71.287134 
L 331.16796 -73.851251 
L 330.999657 -76.415368 
L 330.821025 -78.979485 
L 330.629445 -81.543602 
L 330.42148 -84.107719 
L 330.193308 -86.671836 
L 329.941104 -89.235953 
L 329.661328 -91.80007 
L 329.350917 -94.364187 
L 329.007481 -96.928305 
L 328.629625 -99.492422 
L 328.217469 -102.056539 
L 327.773351 -104.620656 
L 327.30254 -107.184773 
L 326.813706 -109.74889 
L 326.318848 -112.313007 
L 325.832475 -114.877124 
L 325.369993 -117.441241 
L 324.945504 -120.005358 
L 324.569425 -122.569475 
L 324.246444 -125.133592 
L 323.974324 -127.697709 
L 323.74391 -130.261826 
L 323.540394 -132.825943 
L 323.345644 -135.39006 
L 323.141088 -137.954177 
L 322.910538 -140.518294 
L 322.64232 -143.082412 
L 322.330225 -145.646529 
L 321.973107 -148.210646 
L 321.573253 -150.774763 
L 321.134013 -153.33888 
L 320.657381 -155.902997 
L 320.142225 -158.467114 
L 319.583735 -161.031231 
L 318.9743 -163.595348 
L 318.305645 -166.159465 
L 317.571719 -168.723582 
L 316.771635 -171.287699 
L 315.911967 -173.851816 
L 315.007871 -176.415933 
L 314.08279 -178.98005 
L 313.166774 -181.544167 
L 312.293757 -184.108284 
L 311.498289 -186.672401 
L 310.812366 -189.236519 
L 310.262925 -191.800636 
L 309.870439 -194.364753 
L 309.648728 -196.92887 
L 309.605752 -199.492987 
L 309.74485 -202.057104 
L 310.065738 -204.621221 
L 310.564755 -207.185338 
L 311.234138 -209.749455 
L 312.060653 -212.313572 
L 313.024203 -214.877689 
L 314.097233 -217.441806 
L 315.24551 -220.005923 
L 316.430427 -222.57004 
L 317.612486 -225.134157 
L 318.755212 -227.698274 
L 319.828643 -230.262391 
L 320.811707 -232.826508 
L 321.693162 -235.390626 
L 322.471171 -237.954743 
L 323.151868 -240.51886 
L 323.747387 -243.082977 
L 324.273769 -245.647094 
L 324.748986 -248.211211 
L 325.191179 -250.775328 
L 325.617087 -253.339445 
L 326.040672 -255.903562 
L 326.471975 -258.467679 
L 326.916328 -261.031796 
L 327.374062 -263.595913 
L 327.840802 -266.16003 
L 328.308348 -268.724147 
L 328.766018 -271.288264 
L 329.202218 -273.852381 
L 329.605993 -276.416498 
L 329.968322 -278.980615 
L 330.283002 -281.544733 
L 330.547091 -284.10885 
L 330.760931 -286.672967 
L 330.927836 -289.237084 
L 331.053558 -291.801201 
L 331.145581 -294.365318 
L 331.212356 -296.929435 
L 331.262492 -299.493552 
L 331.304014 -302.057669 
L 331.343729 -304.621786 
L 331.386785 -307.185903 
L 331.436452 -309.75002 
L 331.494154 -312.314137 
L 331.559691 -314.878254 
L 331.631616 -317.442371 
L 331.707671 -320.006488 
L 331.785213 -322.570605 
L 331.861576 -325.134722 
L 332.724358 -325.134722 
L 332.724358 -325.134722 
L 332.800721 -322.570605 
L 332.878262 -320.006488 
L 332.954318 -317.442371 
L 333.026243 -314.878254 
L 333.09178 -312.314137 
L 333.149482 -309.75002 
L 333.199149 -307.185903 
L 333.242204 -304.621786 
L 333.28192 -302.057669 
L 333.323442 -299.493552 
L 333.373578 -296.929435 
L 333.440352 -294.365318 
L 333.532376 -291.801201 
L 333.658097 -289.237084 
L 333.825003 -286.672967 
L 334.038843 -284.10885 
L 334.302932 -281.544733 
L 334.617612 -278.980615 
L 334.97994 -276.416498 
L 335.383716 -273.852381 
L 335.819916 -271.288264 
L 336.277586 -268.724147 
L 336.745132 -266.16003 
L 337.211872 -263.595913 
L 337.669606 -261.031796 
L 338.113959 -258.467679 
L 338.545262 -255.903562 
L 338.968847 -253.339445 
L 339.394755 -250.775328 
L 339.836948 -248.211211 
L 340.312165 -245.647094 
L 340.838547 -243.082977 
L 341.434066 -240.51886 
L 342.114763 -237.954743 
L 342.892772 -235.390626 
L 343.774227 -232.826508 
L 344.75729 -230.262391 
L 345.830721 -227.698274 
L 346.973448 -225.134157 
L 348.155507 -222.57004 
L 349.340424 -220.005923 
L 350.488701 -217.441806 
L 351.561731 -214.877689 
L 352.525281 -212.313572 
L 353.351796 -209.749455 
L 354.021179 -207.185338 
L 354.520195 -204.621221 
L 354.841084 -202.057104 
L 354.980181 -199.492987 
L 354.937206 -196.92887 
L 354.715495 -194.364753 
L 354.323009 -191.800636 
L 353.773568 -189.236519 
L 353.087645 -186.672401 
L 352.292177 -184.108284 
L 351.419159 -181.544167 
L 350.503144 -178.98005 
L 349.578063 -176.415933 
L 348.673967 -173.851816 
L 347.814298 -171.287699 
L 347.014215 -168.723582 
L 346.280289 -166.159465 
L 345.611634 -163.595348 
L 345.002199 -161.031231 
L 344.443709 -158.467114 
L 343.928553 -155.902997 
L 343.451921 -153.33888 
L 343.012681 -150.774763 
L 342.612826 -148.210646 
L 342.255709 -145.646529 
L 341.943614 -143.082412 
L 341.675395 -140.518294 
L 341.444846 -137.954177 
L 341.24029 -135.39006 
L 341.04554 -132.825943 
L 340.842024 -130.261826 
L 340.611609 -127.697709 
L 340.33949 -125.133592 
L 340.016509 -122.569475 
L 339.64043 -120.005358 
L 339.215941 -117.441241 
L 338.753458 -114.877124 
L 338.267086 -112.313007 
L 337.772228 -109.74889 
L 337.283394 -107.184773 
L 336.812583 -104.620656 
L 336.368465 -102.056539 
L 335.956309 -99.492422 
L 335.578453 -96.928305 
L 335.235017 -94.364187 
L 334.924606 -91.80007 
L 334.64483 -89.235953 
L 334.392626 -86.671836 
L 334.164453 -84.107719 
L 333.956489 -81.543602 
L 333.764909 -78.979485 
L 333.586277 -76.415368 
L 333.417974 -73.851251 
L 333.258534 -71.287134 
z
" id="ma00c9c8464" style="stroke:#141414;stroke-width:1.5;"/>
    </defs>
    <g clip-path="url(#pf986cee592)">
     <use style="fill:#083c1d;stroke:#141414;stroke-width:1.5;" x="0" xlink:href="#ma00c9c8464" y="536.278723"/>
    </g>
   </g>
   <g id="PolyCollection_6">
    <defs>
     <path d="M 378.506641 -72.897353 
L 376.828151 -72.897353 
L 376.611272 -77.20086 
L 376.369601 -81.504366 
L 376.105822 -85.807873 
L 375.822892 -90.11138 
L 375.523994 -94.414887 
L 375.212587 -98.718393 
L 374.892407 -103.0219 
L 374.567311 -107.325407 
L 374.240948 -111.628913 
L 373.916319 -115.93242 
L 373.595389 -120.235927 
L 373.278855 -124.539434 
L 372.966137 -128.84294 
L 372.655575 -133.146447 
L 372.344789 -137.449954 
L 372.031181 -141.75346 
L 371.712553 -146.056967 
L 371.387782 -150.360474 
L 371.057432 -154.663981 
L 370.724115 -158.967487 
L 370.392442 -163.270994 
L 370.068503 -167.574501 
L 369.75899 -171.878007 
L 369.47019 -176.181514 
L 369.207098 -180.485021 
L 368.972844 -184.788528 
L 368.768471 -189.092034 
L 368.593022 -193.395541 
L 368.443782 -197.699048 
L 368.31661 -202.002554 
L 368.206274 -206.306061 
L 368.106837 -210.609568 
L 368.012134 -214.913075 
L 367.916419 -219.216581 
L 367.815186 -223.520088 
L 367.706043 -227.823595 
L 367.58943 -232.127101 
L 367.468882 -236.430608 
L 367.350651 -240.734115 
L 367.242691 -245.037622 
L 367.153286 -249.341128 
L 367.089786 -253.644635 
L 367.057889 -257.948142 
L 367.061685 -262.251648 
L 367.104354 -266.555155 
L 367.189076 -270.858662 
L 367.319613 -275.162169 
L 367.500148 -279.465675 
L 367.734268 -283.769182 
L 368.023366 -288.072689 
L 368.365035 -292.376195 
L 368.752083 -296.679702 
L 369.17265 -300.983209 
L 369.611573 -305.286716 
L 370.052713 -309.590222 
L 370.481642 -313.893729 
L 370.887959 -318.197236 
L 371.266619 -322.500742 
L 371.617958 -326.804249 
L 371.946525 -331.107756 
L 372.259125 -335.411263 
L 372.562689 -339.714769 
L 372.862535 -344.018276 
L 373.161388 -348.321783 
L 373.459258 -352.625289 
L 373.753996 -356.928796 
L 374.042222 -361.232303 
L 374.32027 -365.53581 
L 374.584865 -369.839316 
L 374.833423 -374.142823 
L 375.064008 -378.44633 
L 375.275104 -382.749836 
L 375.465408 -387.053343 
L 375.633803 -391.35685 
L 375.779578 -395.660357 
L 375.902824 -399.963863 
L 376.004848 -404.26737 
L 376.088414 -408.570877 
L 376.157677 -412.874383 
L 376.217758 -417.17789 
L 376.274055 -421.481397 
L 376.331433 -425.784904 
L 376.393504 -430.08841 
L 376.462156 -434.391917 
L 376.537432 -438.695424 
L 376.617737 -442.99893 
L 376.700314 -447.302437 
L 376.781838 -451.605944 
L 376.859014 -455.909451 
L 376.929097 -460.212957 
L 376.990288 -464.516464 
L 377.041991 -468.819971 
L 377.084911 -473.123477 
L 377.120958 -477.426984 
L 377.152953 -481.730491 
L 377.184122 -486.033998 
L 377.217473 -490.337504 
L 377.255175 -494.641011 
L 377.298108 -498.944518 
L 378.036684 -498.944518 
L 378.036684 -498.944518 
L 378.079617 -494.641011 
L 378.117319 -490.337504 
L 378.150669 -486.033998 
L 378.181839 -481.730491 
L 378.213834 -477.426984 
L 378.249881 -473.123477 
L 378.292801 -468.819971 
L 378.344504 -464.516464 
L 378.405695 -460.212957 
L 378.475778 -455.909451 
L 378.552954 -451.605944 
L 378.634478 -447.302437 
L 378.717055 -442.99893 
L 378.79736 -438.695424 
L 378.872635 -434.391917 
L 378.941288 -430.08841 
L 379.003359 -425.784904 
L 379.060737 -421.481397 
L 379.117034 -417.17789 
L 379.177115 -412.874383 
L 379.246378 -408.570877 
L 379.329944 -404.26737 
L 379.431968 -399.963863 
L 379.555214 -395.660357 
L 379.700989 -391.35685 
L 379.869384 -387.053343 
L 380.059688 -382.749836 
L 380.270784 -378.44633 
L 380.501369 -374.142823 
L 380.749927 -369.839316 
L 381.014522 -365.53581 
L 381.29257 -361.232303 
L 381.580796 -356.928796 
L 381.875534 -352.625289 
L 382.173403 -348.321783 
L 382.472257 -344.018276 
L 382.772103 -339.714769 
L 383.075666 -335.411263 
L 383.388266 -331.107756 
L 383.716834 -326.804249 
L 384.068173 -322.500742 
L 384.446833 -318.197236 
L 384.85315 -313.893729 
L 385.282079 -309.590222 
L 385.723219 -305.286716 
L 386.162142 -300.983209 
L 386.582709 -296.679702 
L 386.969757 -292.376195 
L 387.311426 -288.072689 
L 387.600524 -283.769182 
L 387.834644 -279.465675 
L 388.015179 -275.162169 
L 388.145716 -270.858662 
L 388.230438 -266.555155 
L 388.273107 -262.251648 
L 388.276903 -257.948142 
L 388.245006 -253.644635 
L 388.181506 -249.341128 
L 388.092101 -245.037622 
L 387.984141 -240.734115 
L 387.86591 -236.430608 
L 387.745362 -232.127101 
L 387.628749 -227.823595 
L 387.519606 -223.520088 
L 387.418373 -219.216581 
L 387.322658 -214.913075 
L 387.227954 -210.609568 
L 387.128518 -206.306061 
L 387.018182 -202.002554 
L 386.89101 -197.699048 
L 386.74177 -193.395541 
L 386.56632 -189.092034 
L 386.361948 -184.788528 
L 386.127694 -180.485021 
L 385.864602 -176.181514 
L 385.575802 -171.878007 
L 385.266289 -167.574501 
L 384.942349 -163.270994 
L 384.610676 -158.967487 
L 384.27736 -154.663981 
L 383.94701 -150.360474 
L 383.622239 -146.056967 
L 383.303611 -141.75346 
L 382.990003 -137.449954 
L 382.679217 -133.146447 
L 382.368655 -128.84294 
L 382.055937 -124.539434 
L 381.739403 -120.235927 
L 381.418473 -115.93242 
L 381.093844 -111.628913 
L 380.767481 -107.325407 
L 380.442385 -103.0219 
L 380.122205 -98.718393 
L 379.810798 -94.414887 
L 379.5119 -90.11138 
L 379.22897 -85.807873 
L 378.965191 -81.504366 
L 378.72352 -77.20086 
L 378.506641 -72.897353 
z
" id="m97ed06c935" style="stroke:#141414;stroke-width:1.5;"/>
    </defs>
    <g clip-path="url(#pf986cee592)">
     <use style="fill:#0e5f2f;stroke:#141414;stroke-width:1.5;" x="0" xlink:href="#m97ed06c935" y="536.278723"/>
    </g>
   </g>
   <g id="PolyCollection_7">
    <defs>
     <path d="M 446.982916 -71.172225 
L 444.475163 -71.172225 
L 444.055267 -72.392227 
L 443.552882 -73.61223 
L 442.973555 -74.832232 
L 442.330373 -76.052235 
L 441.64336 -77.272238 
L 440.937396 -78.49224 
L 440.238818 -79.712243 
L 439.57125 -80.932246 
L 438.951532 -82.152248 
L 438.386749 -83.372251 
L 437.873214 -84.592253 
L 437.397841 -85.812256 
L 436.94165 -87.032259 
L 436.484481 -88.252261 
L 436.009594 -89.472264 
L 435.506804 -90.692266 
L 434.973326 -91.912269 
L 434.412238 -93.132272 
L 433.829243 -94.352274 
L 433.228904 -95.572277 
L 432.611572 -96.792279 
L 431.97199 -98.012282 
L 431.299995 -99.232285 
L 430.583245 -100.452287 
L 429.811374 -101.67229 
L 428.980645 -102.892292 
L 428.09795 -104.112295 
L 427.183032 -105.332298 
L 426.268157 -106.5523 
L 425.394981 -107.772303 
L 424.609129 -108.992306 
L 423.95362 -110.212308 
L 423.46262 -111.432311 
L 423.156893 -112.652313 
L 423.041825 -113.872316 
L 423.108151 -115.092319 
L 423.334858 -116.312321 
L 423.693314 -117.532324 
L 424.151601 -118.752326 
L 424.678276 -119.972329 
L 425.245135 -121.192332 
L 425.828894 -122.412334 
L 426.411937 -123.632337 
L 426.982337 -124.852339 
L 427.533329 -126.072342 
L 428.062353 -127.292345 
L 428.569738 -128.512347 
L 429.057136 -129.73235 
L 429.525966 -130.952353 
L 429.976294 -132.172355 
L 430.406627 -133.392358 
L 430.814955 -134.61236 
L 431.200917 -135.832363 
L 431.568345 -137.052366 
L 431.927071 -138.272368 
L 432.292856 -139.492371 
L 432.684999 -140.712373 
L 433.122173 -141.932376 
L 433.617938 -143.152379 
L 434.177664 -144.372381 
L 434.798068 -145.592384 
L 435.469376 -146.812386 
L 436.179011 -148.032389 
L 436.915079 -149.252392 
L 437.668194 -150.472394 
L 438.431147 -151.692397 
L 439.19698 -152.912399 
L 439.956764 -154.132402 
L 440.698328 -155.352405 
L 441.406653 -156.572407 
L 442.06578 -157.79241 
L 442.661467 -159.012413 
L 443.183624 -160.232415 
L 443.627781 -161.452418 
L 443.995317 -162.67242 
L 444.292578 -163.892423 
L 444.529335 -165.112426 
L 444.717037 -166.332428 
L 444.867227 -167.552431 
L 444.990316 -168.772433 
L 445.094798 -169.992436 
L 445.186876 -171.212439 
L 445.270443 -172.432441 
L 445.347352 -173.652444 
L 445.417872 -174.872446 
L 445.481256 -176.092449 
L 445.536291 -177.312452 
L 445.581782 -178.532454 
L 445.616877 -179.752457 
L 445.641263 -180.972459 
L 445.655236 -182.192462 
L 445.659696 -183.412465 
L 445.65612 -184.632467 
L 445.646508 -185.85247 
L 445.633282 -187.072473 
L 445.619117 -188.292475 
L 445.60667 -189.512478 
L 445.598236 -190.73248 
L 445.595415 -191.952483 
L 445.862664 -191.952483 
L 445.862664 -191.952483 
L 445.859843 -190.73248 
L 445.851409 -189.512478 
L 445.838962 -188.292475 
L 445.824797 -187.072473 
L 445.811571 -185.85247 
L 445.801959 -184.632467 
L 445.798383 -183.412465 
L 445.802843 -182.192462 
L 445.816816 -180.972459 
L 445.841202 -179.752457 
L 445.876297 -178.532454 
L 445.921788 -177.312452 
L 445.976823 -176.092449 
L 446.040207 -174.872446 
L 446.110727 -173.652444 
L 446.187636 -172.432441 
L 446.271203 -171.212439 
L 446.363281 -169.992436 
L 446.467763 -168.772433 
L 446.590852 -167.552431 
L 446.741041 -166.332428 
L 446.928744 -165.112426 
L 447.165501 -163.892423 
L 447.462761 -162.67242 
L 447.830298 -161.452418 
L 448.274455 -160.232415 
L 448.796612 -159.012413 
L 449.392299 -157.79241 
L 450.051426 -156.572407 
L 450.759751 -155.352405 
L 451.501315 -154.132402 
L 452.261099 -152.912399 
L 453.026932 -151.692397 
L 453.789884 -150.472394 
L 454.543 -149.252392 
L 455.279068 -148.032389 
L 455.988703 -146.812386 
L 456.660011 -145.592384 
L 457.280415 -144.372381 
L 457.840141 -143.152379 
L 458.335906 -141.932376 
L 458.77308 -140.712373 
L 459.165223 -139.492371 
L 459.531008 -138.272368 
L 459.889734 -137.052366 
L 460.257162 -135.832363 
L 460.643124 -134.61236 
L 461.051452 -133.392358 
L 461.481785 -132.172355 
L 461.932113 -130.952353 
L 462.400943 -129.73235 
L 462.888341 -128.512347 
L 463.395726 -127.292345 
L 463.92475 -126.072342 
L 464.475742 -124.852339 
L 465.046142 -123.632337 
L 465.629185 -122.412334 
L 466.212944 -121.192332 
L 466.779803 -119.972329 
L 467.306478 -118.752326 
L 467.764765 -117.532324 
L 468.123221 -116.312321 
L 468.349928 -115.092319 
L 468.416254 -113.872316 
L 468.301186 -112.652313 
L 467.995459 -111.432311 
L 467.504459 -110.212308 
L 466.84895 -108.992306 
L 466.063098 -107.772303 
L 465.189922 -106.5523 
L 464.275047 -105.332298 
L 463.360129 -104.112295 
L 462.477433 -102.892292 
L 461.646705 -101.67229 
L 460.874834 -100.452287 
L 460.158084 -99.232285 
L 459.486089 -98.012282 
L 458.846507 -96.792279 
L 458.229175 -95.572277 
L 457.628835 -94.352274 
L 457.045841 -93.132272 
L 456.484753 -91.912269 
L 455.951275 -90.692266 
L 455.448485 -89.472264 
L 454.973597 -88.252261 
L 454.516429 -87.032259 
L 454.060238 -85.812256 
L 453.584865 -84.592253 
L 453.07133 -83.372251 
L 452.506547 -82.152248 
L 451.886829 -80.932246 
L 451.219261 -79.712243 
L 450.520682 -78.49224 
L 449.814719 -77.272238 
L 449.127706 -76.052235 
L 448.484524 -74.832232 
L 447.905197 -73.61223 
L 447.402812 -72.392227 
L 446.982916 -71.172225 
z
" id="m2174012590" style="stroke:#141414;stroke-width:1.5;"/>
    </defs>
    <g clip-path="url(#pf986cee592)">
     <use style="fill:#083c1d;stroke:#141414;stroke-width:1.5;" x="0" xlink:href="#m2174012590" y="536.278723"/>
    </g>
   </g>
   <g id="PolyCollection_8">
    <defs>
     <path d="M 491.25415 -74.549837 
L 490.952787 -74.549837 
L 490.912026 -76.296762 
L 490.861596 -78.043687 
L 490.798331 -79.790612 
L 490.71769 -81.537537 
L 490.61334 -83.284462 
L 490.476745 -85.031387 
L 490.296862 -86.778312 
L 490.060097 -88.525237 
L 489.750689 -90.272162 
L 489.351671 -92.019087 
L 488.846436 -93.766013 
L 488.22081 -95.512938 
L 487.465309 -97.259863 
L 486.577178 -99.006788 
L 485.561758 -100.753713 
L 484.432893 -102.500638 
L 483.212299 -104.247563 
L 481.928149 -105.994488 
L 480.613249 -107.741413 
L 479.30324 -109.488338 
L 478.035084 -111.235263 
L 476.845797 -112.982188 
L 475.771176 -114.729113 
L 474.844174 -116.476038 
L 474.092741 -118.222963 
L 473.537278 -119.969889 
L 473.18821 -121.716814 
L 473.044402 -123.463739 
L 473.093084 -125.210664 
L 473.311583 -126.957589 
L 473.670614 -128.704514 
L 474.138427 -130.451439 
L 474.6848 -132.198364 
L 475.284007 -133.945289 
L 475.916226 -135.692214 
L 476.567393 -137.439139 
L 477.227937 -139.186064 
L 477.891084 -140.932989 
L 478.551335 -142.679914 
L 479.203521 -144.42684 
L 479.84249 -146.173765 
L 480.463232 -147.92069 
L 481.061084 -149.667615 
L 481.631742 -151.41454 
L 482.170924 -153.161465 
L 482.673803 -154.90839 
L 483.13449 -156.655315 
L 483.545955 -158.40224 
L 483.900684 -160.149165 
L 484.192142 -161.89609 
L 484.416835 -163.643015 
L 484.576429 -165.38994 
L 484.679259 -167.136865 
L 484.740579 -168.88379 
L 484.781193 -170.630716 
L 484.824545 -172.377641 
L 484.892819 -174.124566 
L 485.002952 -175.871491 
L 485.163566 -177.618416 
L 485.373582 -179.365341 
L 485.622845 -181.112266 
L 485.894507 -182.859191 
L 486.168503 -184.606116 
L 486.425226 -186.353041 
L 486.648585 -188.099966 
L 486.827945 -189.846891 
L 486.958808 -191.593816 
L 487.04242 -193.340741 
L 487.084664 -195.087666 
L 487.094634 -196.834592 
L 487.083169 -198.581517 
L 487.06154 -200.328442 
L 487.040343 -202.075367 
L 487.028643 -203.822292 
L 487.033383 -205.569217 
L 487.059093 -207.316142 
L 487.107897 -209.063067 
L 487.179819 -210.809992 
L 487.273297 -212.556917 
L 487.385804 -214.303842 
L 487.514442 -216.050767 
L 487.656405 -217.797692 
L 487.809252 -219.544617 
L 487.970986 -221.291542 
L 488.139979 -223.038468 
L 488.314809 -224.785393 
L 488.494098 -226.532318 
L 488.676378 -228.279243 
L 488.860055 -230.026168 
L 489.04345 -231.773093 
L 489.224911 -233.520018 
L 489.402958 -235.266943 
L 489.576392 -237.013868 
L 489.744339 -238.760793 
L 489.906194 -240.507718 
L 490.061453 -242.254643 
L 490.20951 -244.001568 
L 490.349465 -245.748493 
L 490.48005 -247.495418 
L 491.726887 -247.495418 
L 491.726887 -247.495418 
L 491.857472 -245.748493 
L 491.997427 -244.001568 
L 492.145484 -242.254643 
L 492.300743 -240.507718 
L 492.462598 -238.760793 
L 492.630545 -237.013868 
L 492.803979 -235.266943 
L 492.982026 -233.520018 
L 493.163487 -231.773093 
L 493.346882 -230.026168 
L 493.530559 -228.279243 
L 493.712839 -226.532318 
L 493.892128 -224.785393 
L 494.066958 -223.038468 
L 494.235951 -221.291542 
L 494.397685 -219.544617 
L 494.550532 -217.797692 
L 494.692495 -216.050767 
L 494.821133 -214.303842 
L 494.93364 -212.556917 
L 495.027118 -210.809992 
L 495.09904 -209.063067 
L 495.147844 -207.316142 
L 495.173554 -205.569217 
L 495.178294 -203.822292 
L 495.166594 -202.075367 
L 495.145397 -200.328442 
L 495.123768 -198.581517 
L 495.112303 -196.834592 
L 495.122273 -195.087666 
L 495.164517 -193.340741 
L 495.248129 -191.593816 
L 495.378992 -189.846891 
L 495.558352 -188.099966 
L 495.781711 -186.353041 
L 496.038434 -184.606116 
L 496.31243 -182.859191 
L 496.584092 -181.112266 
L 496.833355 -179.365341 
L 497.043371 -177.618416 
L 497.203985 -175.871491 
L 497.314118 -174.124566 
L 497.382392 -172.377641 
L 497.425744 -170.630716 
L 497.466358 -168.88379 
L 497.527678 -167.136865 
L 497.630508 -165.38994 
L 497.790102 -163.643015 
L 498.014795 -161.89609 
L 498.306253 -160.149165 
L 498.660982 -158.40224 
L 499.072447 -156.655315 
L 499.533134 -154.90839 
L 500.036013 -153.161465 
L 500.575195 -151.41454 
L 501.145853 -149.667615 
L 501.743705 -147.92069 
L 502.364447 -146.173765 
L 503.003416 -144.42684 
L 503.655602 -142.679914 
L 504.315853 -140.932989 
L 504.979 -139.186064 
L 505.639544 -137.439139 
L 506.290711 -135.692214 
L 506.92293 -133.945289 
L 507.522137 -132.198364 
L 508.06851 -130.451439 
L 508.536323 -128.704514 
L 508.895354 -126.957589 
L 509.113853 -125.210664 
L 509.162535 -123.463739 
L 509.018727 -121.716814 
L 508.669659 -119.969889 
L 508.114196 -118.222963 
L 507.362763 -116.476038 
L 506.435761 -114.729113 
L 505.36114 -112.982188 
L 504.171853 -111.235263 
L 502.903697 -109.488338 
L 501.593688 -107.741413 
L 500.278788 -105.994488 
L 498.994638 -104.247563 
L 497.774044 -102.500638 
L 496.645179 -100.753713 
L 495.629759 -99.006788 
L 494.741628 -97.259863 
L 493.986127 -95.512938 
L 493.360501 -93.766013 
L 492.855266 -92.019087 
L 492.456248 -90.272162 
L 492.14684 -88.525237 
L 491.910075 -86.778312 
L 491.730192 -85.031387 
L 491.593597 -83.284462 
L 491.489247 -81.537537 
L 491.408606 -79.790612 
L 491.345341 -78.043687 
L 491.294911 -76.296762 
L 491.25415 -74.549837 
z
" id="m3df145d0b2" style="stroke:#141414;stroke-width:1.5;"/>
    </defs>
    <g clip-path="url(#pf986cee592)">
     <use style="fill:#0e5f2f;stroke:#141414;stroke-width:1.5;" x="0" xlink:href="#m3df145d0b2" y="536.278723"/>
    </g>
   </g>
   <g id="PolyCollection_9">
    <defs>
     <path d="M 561.880565 -74.531064 
L 556.449659 -74.531064 
L 555.934258 -75.629395 
L 555.419098 -76.727726 
L 554.92564 -77.826057 
L 554.473024 -78.924388 
L 554.075679 -80.022719 
L 553.741666 -81.12105 
L 553.471983 -82.219381 
L 553.26088 -83.317712 
L 553.096996 -84.416043 
L 552.965042 -85.514375 
L 552.847726 -86.612706 
L 552.727661 -87.711037 
L 552.589092 -88.809368 
L 552.41931 -89.907699 
L 552.209642 -91.00603 
L 551.955899 -92.104361 
L 551.65821 -93.202692 
L 551.320172 -94.301023 
L 550.947435 -95.399355 
L 550.545932 -96.497686 
L 550.120122 -97.596017 
L 549.671642 -98.694348 
L 549.198791 -99.792679 
L 548.69706 -100.89101 
L 548.160777 -101.989341 
L 547.585594 -103.087672 
L 546.971336 -104.186003 
L 546.324465 -105.284334 
L 545.659462 -106.382666 
L 544.998505 -107.480997 
L 544.36928 -108.579328 
L 543.801203 -109.677659 
L 543.320847 -110.77599 
L 542.947653 -111.874321 
L 542.69101 -112.972652 
L 542.549433 -114.070983 
L 542.511968 -115.169314 
L 542.56135 -116.267645 
L 542.677919 -117.365977 
L 542.843203 -118.464308 
L 543.042263 -119.562639 
L 543.264431 -120.66097 
L 543.502602 -121.759301 
L 543.751736 -122.857632 
L 544.007367 -123.955963 
L 544.264805 -125.054294 
L 544.519364 -126.152625 
L 544.767528 -127.250957 
L 545.008603 -128.349288 
L 545.246231 -129.447619 
L 545.489177 -130.54595 
L 545.75097 -131.644281 
L 546.048304 -132.742612 
L 546.398424 -133.840943 
L 546.815984 -134.939274 
L 547.310051 -136.037605 
L 547.88193 -137.135936 
L 548.524325 -138.234268 
L 549.222074 -139.332599 
L 549.9543 -140.43093 
L 550.697492 -141.529261 
L 551.428825 -142.627592 
L 552.129005 -143.725923 
L 552.784111 -144.824254 
L 553.38622 -145.922585 
L 553.932913 -147.020916 
L 554.426008 -148.119248 
L 554.869956 -149.217579 
L 555.270311 -150.31591 
L 555.63252 -151.414241 
L 555.961169 -152.512572 
L 556.259672 -153.610903 
L 556.530303 -154.709234 
L 556.774497 -155.807565 
L 556.993276 -156.905896 
L 557.187723 -158.004227 
L 557.359386 -159.102559 
L 557.510525 -160.20089 
L 557.64416 -161.299221 
L 557.763875 -162.397552 
L 557.873453 -163.495883 
L 557.976405 -164.594214 
L 558.075522 -165.692545 
L 558.172551 -166.790876 
L 558.26806 -167.889207 
L 558.361515 -168.987539 
L 558.451522 -170.08587 
L 558.536193 -171.184201 
L 558.613524 -172.282532 
L 558.681765 -173.380863 
L 558.739704 -174.479194 
L 558.786869 -175.577525 
L 558.823627 -176.675856 
L 558.851172 -177.774187 
L 558.871415 -178.872518 
L 558.886759 -179.97085 
L 558.899784 -181.069181 
L 558.912898 -182.167512 
L 558.927996 -183.265843 
L 559.402228 -183.265843 
L 559.402228 -183.265843 
L 559.417326 -182.167512 
L 559.43044 -181.069181 
L 559.443465 -179.97085 
L 559.458809 -178.872518 
L 559.479052 -177.774187 
L 559.506597 -176.675856 
L 559.543355 -175.577525 
L 559.59052 -174.479194 
L 559.648459 -173.380863 
L 559.7167 -172.282532 
L 559.794031 -171.184201 
L 559.878702 -170.08587 
L 559.96871 -168.987539 
L 560.062164 -167.889207 
L 560.157673 -166.790876 
L 560.254702 -165.692545 
L 560.353819 -164.594214 
L 560.456771 -163.495883 
L 560.566349 -162.397552 
L 560.686064 -161.299221 
L 560.819699 -160.20089 
L 560.970838 -159.102559 
L 561.142501 -158.004227 
L 561.336948 -156.905896 
L 561.555727 -155.807565 
L 561.799921 -154.709234 
L 562.070552 -153.610903 
L 562.369055 -152.512572 
L 562.697705 -151.414241 
L 563.059913 -150.31591 
L 563.460268 -149.217579 
L 563.904216 -148.119248 
L 564.397311 -147.020916 
L 564.944004 -145.922585 
L 565.546113 -144.824254 
L 566.201219 -143.725923 
L 566.901399 -142.627592 
L 567.632732 -141.529261 
L 568.375924 -140.43093 
L 569.10815 -139.332599 
L 569.805899 -138.234268 
L 570.448294 -137.135936 
L 571.020173 -136.037605 
L 571.51424 -134.939274 
L 571.9318 -133.840943 
L 572.28192 -132.742612 
L 572.579254 -131.644281 
L 572.841047 -130.54595 
L 573.083993 -129.447619 
L 573.321621 -128.349288 
L 573.562696 -127.250957 
L 573.81086 -126.152625 
L 574.065419 -125.054294 
L 574.322857 -123.955963 
L 574.578488 -122.857632 
L 574.827622 -121.759301 
L 575.065793 -120.66097 
L 575.287961 -119.562639 
L 575.487022 -118.464308 
L 575.652305 -117.365977 
L 575.768874 -116.267645 
L 575.818256 -115.169314 
L 575.780791 -114.070983 
L 575.639214 -112.972652 
L 575.382571 -111.874321 
L 575.009377 -110.77599 
L 574.529021 -109.677659 
L 573.960945 -108.579328 
L 573.33172 -107.480997 
L 572.670762 -106.382666 
L 572.005759 -105.284334 
L 571.358888 -104.186003 
L 570.74463 -103.087672 
L 570.169447 -101.989341 
L 569.633164 -100.89101 
L 569.131433 -99.792679 
L 568.658582 -98.694348 
L 568.210103 -97.596017 
L 567.784292 -96.497686 
L 567.38279 -95.399355 
L 567.010052 -94.301023 
L 566.672014 -93.202692 
L 566.374325 -92.104361 
L 566.120583 -91.00603 
L 565.910914 -89.907699 
L 565.741132 -88.809368 
L 565.602563 -87.711037 
L 565.482498 -86.612706 
L 565.365182 -85.514375 
L 565.233228 -84.416043 
L 565.069344 -83.317712 
L 564.858241 -82.219381 
L 564.588558 -81.12105 
L 564.254545 -80.022719 
L 563.857201 -78.924388 
L 563.404584 -77.826057 
L 562.911126 -76.727726 
L 562.395966 -75.629395 
L 561.880565 -74.531064 
z
" id="m8c7fac7c40" style="stroke:#141414;stroke-width:1.5;"/>
    </defs>
    <g clip-path="url(#pf986cee592)">
     <use style="fill:#083c1d;stroke:#141414;stroke-width:1.5;" x="0" xlink:href="#m8c7fac7c40" y="536.278723"/>
    </g>
   </g>
   <g id="PolyCollection_10">
    <defs>
     <path d="M 604.633948 -73.977141 
L 604.445134 -73.977141 
L 604.422046 -75.731166 
L 604.397298 -77.48519 
L 604.369348 -79.239215 
L 604.336793 -80.993239 
L 604.298732 -82.747264 
L 604.25411 -84.501288 
L 604.200839 -86.255313 
L 604.135979 -88.009337 
L 604.056971 -89.763362 
L 603.962075 -91.517386 
L 603.848348 -93.271411 
L 603.708192 -95.025435 
L 603.527969 -96.77946 
L 603.291084 -98.533485 
L 602.983409 -100.287509 
L 602.595712 -102.041534 
L 602.119769 -103.795558 
L 601.540783 -105.549583 
L 600.832798 -107.303607 
L 599.961748 -109.057632 
L 598.894826 -110.811656 
L 597.610531 -112.565681 
L 596.104844 -114.319705 
L 594.393938 -116.07373 
L 592.517535 -117.827754 
L 590.544562 -119.581779 
L 588.574957 -121.335804 
L 586.727269 -123.089828 
L 585.110334 -124.843853 
L 583.794692 -126.597877 
L 582.806834 -128.351902 
L 582.153184 -130.105926 
L 581.852327 -131.859951 
L 581.942405 -133.613975 
L 582.452047 -135.368 
L 583.359456 -137.122024 
L 584.578877 -138.876049 
L 585.989657 -140.630073 
L 587.484137 -142.384098 
L 588.99661 -144.138123 
L 590.498811 -145.892147 
L 591.979051 -147.646172 
L 593.428359 -149.400196 
L 594.83831 -151.154221 
L 596.199848 -152.908245 
L 597.497098 -154.66227 
L 598.702601 -156.416294 
L 599.781974 -158.170319 
L 600.706326 -159.924343 
L 601.46334 -161.678368 
L 602.060199 -163.432393 
L 602.518401 -165.186417 
L 602.864791 -166.940442 
L 603.123357 -168.694466 
L 603.310829 -170.448491 
L 603.437138 -172.202515 
L 603.509319 -173.95654 
L 603.535496 -175.710564 
L 603.525842 -177.464589 
L 603.490127 -179.218613 
L 603.434375 -180.972638 
L 603.359787 -182.726662 
L 603.265191 -184.480687 
L 603.151878 -186.234712 
L 603.028231 -187.988736 
L 602.911425 -189.742761 
L 602.824426 -191.496785 
L 602.788864 -193.25081 
L 602.817248 -195.004834 
L 602.908816 -196.758859 
L 603.050727 -198.512883 
L 603.222564 -200.266908 
L 603.400951 -202.020932 
L 603.563016 -203.774957 
L 603.689749 -205.528981 
L 603.770333 -207.283006 
L 603.806521 -209.037031 
L 603.813974 -210.791055 
L 603.817648 -212.54508 
L 603.841565 -214.299104 
L 603.897932 -216.053129 
L 603.982319 -217.807153 
L 604.078009 -219.561178 
L 604.166283 -221.315202 
L 604.235687 -223.069227 
L 604.285128 -224.823251 
L 604.320612 -226.577276 
L 604.349424 -228.3313 
L 604.375944 -230.085325 
L 604.400909 -231.83935 
L 604.423173 -233.593374 
L 604.441768 -235.347399 
L 604.45667 -237.101423 
L 604.46826 -238.855448 
L 604.476606 -240.609472 
L 604.481601 -242.363497 
L 604.483841 -244.117521 
L 604.485159 -245.871546 
L 604.488003 -247.62557 
L 604.591079 -247.62557 
L 604.591079 -247.62557 
L 604.593923 -245.871546 
L 604.595241 -244.117521 
L 604.597481 -242.363497 
L 604.602476 -240.609472 
L 604.610823 -238.855448 
L 604.622413 -237.101423 
L 604.637314 -235.347399 
L 604.655909 -233.593374 
L 604.678173 -231.83935 
L 604.703138 -230.085325 
L 604.729658 -228.3313 
L 604.75847 -226.577276 
L 604.793954 -224.823251 
L 604.843395 -223.069227 
L 604.9128 -221.315202 
L 605.001073 -219.561178 
L 605.096763 -217.807153 
L 605.18115 -216.053129 
L 605.237517 -214.299104 
L 605.261434 -212.54508 
L 605.265108 -210.791055 
L 605.272561 -209.037031 
L 605.308749 -207.283006 
L 605.389334 -205.528981 
L 605.516066 -203.774957 
L 605.678131 -202.020932 
L 605.856518 -200.266908 
L 606.028355 -198.512883 
L 606.170266 -196.758859 
L 606.261834 -195.004834 
L 606.290218 -193.25081 
L 606.254656 -191.496785 
L 606.167657 -189.742761 
L 606.050851 -187.988736 
L 605.927204 -186.234712 
L 605.813891 -184.480687 
L 605.719295 -182.726662 
L 605.644707 -180.972638 
L 605.588956 -179.218613 
L 605.55324 -177.464589 
L 605.543586 -175.710564 
L 605.569763 -173.95654 
L 605.641944 -172.202515 
L 605.768253 -170.448491 
L 605.955726 -168.694466 
L 606.214291 -166.940442 
L 606.560681 -165.186417 
L 607.018883 -163.432393 
L 607.615742 -161.678368 
L 608.372756 -159.924343 
L 609.297108 -158.170319 
L 610.376481 -156.416294 
L 611.581984 -154.66227 
L 612.879234 -152.908245 
L 614.240773 -151.154221 
L 615.650723 -149.400196 
L 617.100031 -147.646172 
L 618.580271 -145.892147 
L 620.082472 -144.138123 
L 621.594945 -142.384098 
L 623.089425 -140.630073 
L 624.500205 -138.876049 
L 625.719626 -137.122024 
L 626.627035 -135.368 
L 627.136677 -133.613975 
L 627.226756 -131.859951 
L 626.925898 -130.105926 
L 626.272248 -128.351902 
L 625.28439 -126.597877 
L 623.968748 -124.843853 
L 622.351813 -123.089828 
L 620.504125 -121.335804 
L 618.53452 -119.581779 
L 616.561547 -117.827754 
L 614.685144 -116.07373 
L 612.974239 -114.319705 
L 611.468551 -112.565681 
L 610.184256 -110.811656 
L 609.117334 -109.057632 
L 608.246284 -107.303607 
L 607.538299 -105.549583 
L 606.959313 -103.795558 
L 606.48337 -102.041534 
L 606.095674 -100.287509 
L 605.787998 -98.533485 
L 605.551113 -96.77946 
L 605.37089 -95.025435 
L 605.230734 -93.271411 
L 605.117007 -91.517386 
L 605.022111 -89.763362 
L 604.943103 -88.009337 
L 604.878243 -86.255313 
L 604.824972 -84.501288 
L 604.780351 -82.747264 
L 604.74229 -80.993239 
L 604.709734 -79.239215 
L 604.681785 -77.48519 
L 604.657036 -75.731166 
L 604.633948 -73.977141 
z
" id="m4216b5732a" style="stroke:#141414;stroke-width:1.5;"/>
    </defs>
    <g clip-path="url(#pf986cee592)">
     <use style="fill:#0e5f2f;stroke:#141414;stroke-width:1.5;" x="0" xlink:href="#m4216b5732a" y="536.278723"/>
    </g>
   </g>
   <g id="patch_3">
    <path clip-path="url(#pf986cee592)" d="M 128.108036 468.601236 
L 128.108036 468.601236 
L 128.108036 468.601236 
L 128.108036 468.601236 
z
" style="fill:#083c1d;stroke:#141414;stroke-linejoin:miter;stroke-width:0.75;"/>
   </g>
   <g id="patch_4">
    <path clip-path="url(#pf986cee592)" d="M 128.108036 468.601236 
L 128.108036 468.601236 
L 128.108036 468.601236 
L 128.108036 468.601236 
z
" style="fill:#0e5f2f;stroke:#141414;stroke-linejoin:miter;stroke-width:0.75;"/>
   </g>
   <g id="line2d_1">
    <path clip-path="url(#pf986cee592)" d="M 105.420822 454.030234 
L 105.420822 287.671462 
" style="fill:none;stroke:#141414;stroke-linecap:round;stroke-width:1.5;"/>
   </g>
   <g id="line2d_2">
    <path clip-path="url(#pf986cee592)" d="M 105.420822 392.840853 
L 105.420822 342.890751 
" style="fill:none;stroke:#141414;stroke-linecap:round;stroke-width:4.5;"/>
   </g>
   <g id="line2d_3">
    <path clip-path="url(#pf986cee592)" d="M 150.795251 410.206321 
L 150.795251 225.198729 
" style="fill:none;stroke:#141414;stroke-linecap:round;stroke-width:1.5;"/>
   </g>
   <g id="line2d_4">
    <path clip-path="url(#pf986cee592)" d="M 150.795251 339.538338 
L 150.795251 292.05489 
" style="fill:none;stroke:#141414;stroke-linecap:round;stroke-width:4.5;"/>
   </g>
   <g id="line2d_5">
    <path clip-path="url(#pf986cee592)" d="M 218.856894 467.054244 
L 218.856894 199.831899 
" style="fill:none;stroke:#141414;stroke-linecap:round;stroke-width:1.5;"/>
   </g>
   <g id="line2d_6">
    <path clip-path="url(#pf986cee592)" d="M 218.856894 372.634584 
L 218.856894 302.313872 
" style="fill:none;stroke:#141414;stroke-linecap:round;stroke-width:4.5;"/>
   </g>
   <g id="line2d_7">
    <path clip-path="url(#pf986cee592)" d="M 264.231323 442.999288 
L 264.231323 59.968198 
" style="fill:none;stroke:#141414;stroke-linecap:round;stroke-width:1.5;"/>
   </g>
   <g id="line2d_8">
    <path clip-path="url(#pf986cee592)" d="M 264.231323 299.962263 
L 264.231323 203.604703 
" style="fill:none;stroke:#141414;stroke-linecap:round;stroke-width:4.5;"/>
   </g>
   <g id="line2d_9">
    <path clip-path="url(#pf986cee592)" d="M 332.292967 457.841496 
L 332.292967 237.719144 
" style="fill:none;stroke:#141414;stroke-linecap:round;stroke-width:1.5;"/>
   </g>
   <g id="line2d_10">
    <path clip-path="url(#pf986cee592)" d="M 332.292967 376.723795 
L 332.292967 320.828111 
" style="fill:none;stroke:#141414;stroke-linecap:round;stroke-width:4.5;"/>
   </g>
   <g id="line2d_11">
    <path clip-path="url(#pf986cee592)" d="M 377.667396 463.38137 
L 377.667396 76.119558 
" style="fill:none;stroke:#141414;stroke-linecap:round;stroke-width:1.5;"/>
   </g>
   <g id="line2d_12">
    <path clip-path="url(#pf986cee592)" d="M 377.667396 347.598872 
L 377.667396 238.982004 
" style="fill:none;stroke:#141414;stroke-linecap:round;stroke-width:4.5;"/>
   </g>
   <g id="line2d_13">
    <path clip-path="url(#pf986cee592)" d="M 445.729039 465.106498 
L 445.729039 363.406753 
" style="fill:none;stroke:#141414;stroke-linecap:round;stroke-width:1.5;"/>
   </g>
   <g id="line2d_14">
    <path clip-path="url(#pf986cee592)" d="M 445.729039 432.278209 
L 445.729039 403.766156 
" style="fill:none;stroke:#141414;stroke-linecap:round;stroke-width:4.5;"/>
   </g>
   <g id="line2d_15">
    <path clip-path="url(#pf986cee592)" d="M 491.103468 461.728886 
L 491.103468 293.951613 
" style="fill:none;stroke:#141414;stroke-linecap:round;stroke-width:1.5;"/>
   </g>
   <g id="line2d_16">
    <path clip-path="url(#pf986cee592)" d="M 491.103468 414.950903 
L 491.103468 366.362191 
" style="fill:none;stroke:#141414;stroke-linecap:round;stroke-width:4.5;"/>
   </g>
   <g id="line2d_17">
    <path clip-path="url(#pf986cee592)" d="M 559.165112 461.747659 
L 559.165112 365.477465 
" style="fill:none;stroke:#141414;stroke-linecap:round;stroke-width:1.5;"/>
   </g>
   <g id="line2d_18">
    <path clip-path="url(#pf986cee592)" d="M 559.165112 432.554425 
L 559.165112 404.67618 
" style="fill:none;stroke:#141414;stroke-linecap:round;stroke-width:4.5;"/>
   </g>
   <g id="line2d_19">
    <path clip-path="url(#pf986cee592)" d="M 604.539541 440.163867 
L 604.539541 362.552015 
" style="fill:none;stroke:#141414;stroke-linecap:round;stroke-width:1.5;"/>
   </g>
   <g id="line2d_20">
    <path clip-path="url(#pf986cee592)" d="M 604.539541 411.364023 
L 604.539541 391.698225 
" style="fill:none;stroke:#141414;stroke-linecap:round;stroke-width:4.5;"/>
   </g>
   <g id="patch_5">
    <path d="M 71.39 488.813723 
L 71.39 10.105197 
" style="fill:none;stroke:#262626;stroke-linecap:square;stroke-linejoin:miter;stroke-width:0.8;"/>
   </g>
   <g id="patch_6">
    <path d="M 71.39 488.813723 
L 638.570363 488.813723 
" style="fill:none;stroke:#262626;stroke-linecap:square;stroke-linejoin:miter;stroke-width:0.8;"/>
   </g>
   <g id="PathCollection_1">
    <defs>
     <path d="M 0 1.5 
C 0.397805 1.5 0.77937 1.341951 1.06066 1.06066 
C 1.341951 0.77937 1.5 0.397805 1.5 0 
C 1.5 -0.397805 1.341951 -0.77937 1.06066 -1.06066 
C 0.77937 -1.341951 0.397805 -1.5 0 -1.5 
C -0.397805 -1.5 -0.77937 -1.341951 -1.06066 -1.06066 
C -1.341951 -0.77937 -1.5 -0.397805 -1.5 0 
C -1.5 0.397805 -1.341951 0.77937 -1.06066 1.06066 
C -0.77937 1.341951 -0.397805 1.5 0 1.5 
z
" id="mf49bb11e04" style="stroke:#141414;"/>
    </defs>
    <g clip-path="url(#pf986cee592)">
     <use style="fill:#ffffff;stroke:#141414;" x="105.420822" xlink:href="#mf49bb11e04" y="362.721328"/>
    </g>
   </g>
   <g id="PathCollection_2">
    <g clip-path="url(#pf986cee592)">
     <use style="fill:#ffffff;stroke:#141414;" x="150.795251" xlink:href="#mf49bb11e04" y="315.120365"/>
    </g>
   </g>
   <g id="PathCollection_3">
    <g clip-path="url(#pf986cee592)">
     <use style="fill:#ffffff;stroke:#141414;" x="218.856894" xlink:href="#mf49bb11e04" y="332.853999"/>
    </g>
   </g>
   <g id="PathCollection_4">
    <g clip-path="url(#pf986cee592)">
     <use style="fill:#ffffff;stroke:#141414;" x="264.231323" xlink:href="#mf49bb11e04" y="249.147573"/>
    </g>
   </g>
   <g id="PathCollection_5">
    <g clip-path="url(#pf986cee592)">
     <use style="fill:#ffffff;stroke:#141414;" x="332.292967" xlink:href="#mf49bb11e04" y="343.166598"/>
    </g>
   </g>
   <g id="PathCollection_6">
    <g clip-path="url(#pf986cee592)">
     <use style="fill:#ffffff;stroke:#141414;" x="377.667396" xlink:href="#mf49bb11e04" y="290.528895"/>
    </g>
   </g>
   <g id="PathCollection_7">
    <g clip-path="url(#pf986cee592)">
     <use style="fill:#ffffff;stroke:#141414;" x="445.729039" xlink:href="#mf49bb11e04" y="419.379388"/>
    </g>
   </g>
   <g id="PathCollection_8">
    <g clip-path="url(#pf986cee592)">
     <use style="fill:#ffffff;stroke:#141414;" x="491.103468" xlink:href="#mf49bb11e04" y="399.160989"/>
    </g>
   </g>
   <g id="PathCollection_9">
    <g clip-path="url(#pf986cee592)">
     <use style="fill:#ffffff;stroke:#141414;" x="559.165112" xlink:href="#mf49bb11e04" y="419.078452"/>
    </g>
   </g>
   <g id="PathCollection_10">
    <g clip-path="url(#pf986cee592)">
     <use style="fill:#ffffff;stroke:#141414;" x="604.539541" xlink:href="#mf49bb11e04" y="402.101414"/>
    </g>
   </g>
  </g>
  <g id="legend_1">
   <g id="text_15">
    <!-- workday -->
    <defs>
     <path d="M 16.15625 0 
L 0.296875 51.859375 
L 9.375 51.859375 
L 17.625 21.921875 
L 20.703125 10.796875 
Q 20.90625 11.625 23.390625 21.484375 
L 31.640625 51.859375 
L 40.671875 51.859375 
L 48.4375 21.78125 
L 51.03125 11.859375 
L 54 21.875 
L 62.890625 51.859375 
L 71.4375 51.859375 
L 55.21875 0 
L 46.09375 0 
L 37.84375 31.0625 
L 35.84375 39.890625 
L 25.34375 0 
z
" id="ArialMT-119"/>
     <path d="M 6.640625 0 
L 6.640625 71.578125 
L 15.4375 71.578125 
L 15.4375 30.765625 
L 36.234375 51.859375 
L 47.609375 51.859375 
L 27.78125 32.625 
L 49.609375 0 
L 38.765625 0 
L 21.625 26.515625 
L 15.4375 20.5625 
L 15.4375 0 
z
" id="ArialMT-107"/>
     <path d="M 40.4375 6.390625 
Q 35.546875 2.25 31.03125 0.53125 
Q 26.515625 -1.171875 21.34375 -1.171875 
Q 12.796875 -1.171875 8.203125 3 
Q 3.609375 7.171875 3.609375 13.671875 
Q 3.609375 17.484375 5.34375 20.625 
Q 7.078125 23.78125 9.890625 25.6875 
Q 12.703125 27.59375 16.21875 28.5625 
Q 18.796875 29.25 24.03125 29.890625 
Q 34.671875 31.15625 39.703125 32.90625 
Q 39.75 34.71875 39.75 35.203125 
Q 39.75 40.578125 37.25 42.78125 
Q 33.890625 45.75 27.25 45.75 
Q 21.046875 45.75 18.09375 43.578125 
Q 15.140625 41.40625 13.71875 35.890625 
L 5.125 37.0625 
Q 6.296875 42.578125 8.984375 45.96875 
Q 11.671875 49.359375 16.75 51.1875 
Q 21.828125 53.03125 28.515625 53.03125 
Q 35.15625 53.03125 39.296875 51.46875 
Q 43.453125 49.90625 45.40625 47.53125 
Q 47.359375 45.171875 48.140625 41.546875 
Q 48.578125 39.3125 48.578125 33.453125 
L 48.578125 21.734375 
Q 48.578125 9.46875 49.140625 6.21875 
Q 49.703125 2.984375 51.375 0 
L 42.1875 0 
Q 40.828125 2.734375 40.4375 6.390625 
z
M 39.703125 26.03125 
Q 34.90625 24.078125 25.34375 22.703125 
Q 19.921875 21.921875 17.671875 20.9375 
Q 15.4375 19.96875 14.203125 18.09375 
Q 12.984375 16.21875 12.984375 13.921875 
Q 12.984375 10.40625 15.640625 8.0625 
Q 18.3125 5.71875 23.4375 5.71875 
Q 28.515625 5.71875 32.46875 7.9375 
Q 36.421875 10.15625 38.28125 14.015625 
Q 39.703125 17 39.703125 22.796875 
z
" id="ArialMT-97"/>
     <path d="M 6.203125 -19.96875 
L 5.21875 -11.71875 
Q 8.109375 -12.5 10.25 -12.5 
Q 13.1875 -12.5 14.9375 -11.515625 
Q 16.703125 -10.546875 17.828125 -8.796875 
Q 18.65625 -7.46875 20.515625 -2.25 
Q 20.75 -1.515625 21.296875 -0.09375 
L 1.609375 51.859375 
L 11.078125 51.859375 
L 21.875 21.828125 
Q 23.96875 16.109375 25.640625 9.8125 
Q 27.15625 15.875 29.25 21.625 
L 40.328125 51.859375 
L 49.125 51.859375 
L 29.390625 -0.875 
Q 26.21875 -9.421875 24.46875 -12.640625 
Q 22.125 -17 19.09375 -19.015625 
Q 16.0625 -21.046875 11.859375 -21.046875 
Q 9.328125 -21.046875 6.203125 -19.96875 
z
" id="ArialMT-121"/>
    </defs>
    <g style="fill:#262626;" transform="translate(717.143 249.549361)scale(0.16 -0.16)">
     <use xlink:href="#ArialMT-119"/>
     <use x="72.216797" xlink:href="#ArialMT-111"/>
     <use x="127.832031" xlink:href="#ArialMT-114"/>
     <use x="161.132812" xlink:href="#ArialMT-107"/>
     <use x="211.132812" xlink:href="#ArialMT-100"/>
     <use x="266.748047" xlink:href="#ArialMT-97"/>
     <use x="322.363281" xlink:href="#ArialMT-121"/>
    </g>
   </g>
   <g id="patch_7">
    <path d="M 720.08175 272.369361 
L 752.08175 272.369361 
L 752.08175 261.169361 
L 720.08175 261.169361 
z
" style="fill:#083c1d;stroke:#141414;stroke-linejoin:miter;stroke-width:0.75;"/>
   </g>
   <g id="text_16">
    <!-- 0 -->
    <g style="fill:#262626;" transform="translate(764.88175 272.369361)scale(0.16 -0.16)">
     <use xlink:href="#ArialMT-48"/>
    </g>
   </g>
   <g id="patch_8">
    <path d="M 720.08175 295.001861 
L 752.08175 295.001861 
L 752.08175 283.801861 
L 720.08175 283.801861 
z
" style="fill:#0e5f2f;stroke:#141414;stroke-linejoin:miter;stroke-width:0.75;"/>
   </g>
   <g id="text_17">
    <!-- 1 -->
    <g style="fill:#262626;" transform="translate(764.88175 295.001861)scale(0.16 -0.16)">
     <use xlink:href="#ArialMT-49"/>
    </g>
   </g>
  </g>
 </g>
 <defs>
  <clipPath id="pf986cee592">
   <rect height="478.708526" width="567.180363" x="71.39" y="10.105197"/>
  </clipPath>
 </defs>
</svg>
