<?xml version="1.0" encoding="utf-8" standalone="no"?>
<!DOCTYPE svg PUBLIC "-//W3C//DTD SVG 1.1//EN"
  "http://www.w3.org/Graphics/SVG/1.1/DTD/svg11.dtd">
<!-- Created with matplotlib (https://matplotlib.org/) -->
<svg height="536.241028pt" version="1.1" viewBox="0 0 770.0485 536.241028" width="770.0485pt" xmlns="http://www.w3.org/2000/svg" xmlns:xlink="http://www.w3.org/1999/xlink">
 <defs>
  <style type="text/css">
*{stroke-linecap:butt;stroke-linejoin:round;white-space:pre;}
  </style>
 </defs>
 <g id="figure_1">
  <g id="patch_1">
   <path d="M 0 536.241028 
L 770.0485 536.241028 
L 770.0485 0 
L 0 0 
z
" style="fill:#ffffff;"/>
  </g>
  <g id="axes_1">
   <g id="patch_2">
    <path d="M 62.4925 488.776028 
L 762.8485 488.776028 
L 762.8485 7.792219 
L 62.4925 7.792219 
z
" style="fill:#ffffff;"/>
   </g>
   <g id="matplotlib.axis_1">
    <g id="xtick_1">
     <g id="text_1">
      <!-- 0529-2 -->
      <defs>
       <path d="M 4.15625 35.296875 
Q 4.15625 48 6.765625 55.734375 
Q 9.375 63.484375 14.515625 67.671875 
Q 19.671875 71.875 27.484375 71.875 
Q 33.25 71.875 37.59375 69.546875 
Q 41.9375 67.234375 44.765625 62.859375 
Q 47.609375 58.5 49.21875 52.21875 
Q 50.828125 45.953125 50.828125 35.296875 
Q 50.828125 22.703125 48.234375 14.96875 
Q 45.65625 7.234375 40.5 3 
Q 35.359375 -1.21875 27.484375 -1.21875 
Q 17.140625 -1.21875 11.234375 6.203125 
Q 4.15625 15.140625 4.15625 35.296875 
z
M 13.1875 35.296875 
Q 13.1875 17.671875 17.3125 11.828125 
Q 21.4375 6 27.484375 6 
Q 33.546875 6 37.671875 11.859375 
Q 41.796875 17.71875 41.796875 35.296875 
Q 41.796875 52.984375 37.671875 58.78125 
Q 33.546875 64.59375 27.390625 64.59375 
Q 21.34375 64.59375 17.71875 59.46875 
Q 13.1875 52.9375 13.1875 35.296875 
z
" id="ArialMT-48"/>
       <path d="M 4.15625 18.75 
L 13.375 19.53125 
Q 14.40625 12.796875 18.140625 9.390625 
Q 21.875 6 27.15625 6 
Q 33.5 6 37.890625 10.78125 
Q 42.28125 15.578125 42.28125 23.484375 
Q 42.28125 31 38.0625 35.34375 
Q 33.84375 39.703125 27 39.703125 
Q 22.75 39.703125 19.328125 37.765625 
Q 15.921875 35.84375 13.96875 32.765625 
L 5.71875 33.84375 
L 12.640625 70.609375 
L 48.25 70.609375 
L 48.25 62.203125 
L 19.671875 62.203125 
L 15.828125 42.96875 
Q 22.265625 47.46875 29.34375 47.46875 
Q 38.71875 47.46875 45.15625 40.96875 
Q 51.609375 34.46875 51.609375 24.265625 
Q 51.609375 14.546875 45.953125 7.46875 
Q 39.0625 -1.21875 27.15625 -1.21875 
Q 17.390625 -1.21875 11.203125 4.25 
Q 5.03125 9.71875 4.15625 18.75 
z
" id="ArialMT-53"/>
       <path d="M 50.34375 8.453125 
L 50.34375 0 
L 3.03125 0 
Q 2.9375 3.171875 4.046875 6.109375 
Q 5.859375 10.9375 9.828125 15.625 
Q 13.8125 20.3125 21.34375 26.46875 
Q 33.015625 36.03125 37.109375 41.625 
Q 41.21875 47.21875 41.21875 52.203125 
Q 41.21875 57.421875 37.46875 61 
Q 33.734375 64.59375 27.734375 64.59375 
Q 21.390625 64.59375 17.578125 60.78125 
Q 13.765625 56.984375 13.71875 50.25 
L 4.6875 51.171875 
Q 5.609375 61.28125 11.65625 66.578125 
Q 17.71875 71.875 27.9375 71.875 
Q 38.234375 71.875 44.234375 66.15625 
Q 50.25 60.453125 50.25 52 
Q 50.25 47.703125 48.484375 43.546875 
Q 46.734375 39.40625 42.65625 34.8125 
Q 38.578125 30.21875 29.109375 22.21875 
Q 21.1875 15.578125 18.9375 13.203125 
Q 16.703125 10.84375 15.234375 8.453125 
z
" id="ArialMT-50"/>
       <path d="M 5.46875 16.546875 
L 13.921875 17.328125 
Q 14.984375 11.375 18.015625 8.6875 
Q 21.046875 6 25.78125 6 
Q 29.828125 6 32.875 7.859375 
Q 35.9375 9.71875 37.890625 12.8125 
Q 39.84375 15.921875 41.15625 21.1875 
Q 42.484375 26.46875 42.484375 31.9375 
Q 42.484375 32.515625 42.4375 33.6875 
Q 39.796875 29.5 35.234375 26.875 
Q 30.671875 24.265625 25.34375 24.265625 
Q 16.453125 24.265625 10.296875 30.703125 
Q 4.15625 37.15625 4.15625 47.703125 
Q 4.15625 58.59375 10.578125 65.234375 
Q 17 71.875 26.65625 71.875 
Q 33.640625 71.875 39.421875 68.109375 
Q 45.21875 64.359375 48.21875 57.390625 
Q 51.21875 50.4375 51.21875 37.25 
Q 51.21875 23.53125 48.234375 15.40625 
Q 45.265625 7.28125 39.375 3.03125 
Q 33.5 -1.21875 25.59375 -1.21875 
Q 17.1875 -1.21875 11.859375 3.4375 
Q 6.546875 8.109375 5.46875 16.546875 
z
M 41.453125 48.140625 
Q 41.453125 55.71875 37.421875 60.15625 
Q 33.40625 64.59375 27.734375 64.59375 
Q 21.875 64.59375 17.53125 59.8125 
Q 13.1875 55.03125 13.1875 47.40625 
Q 13.1875 40.578125 17.3125 36.296875 
Q 21.4375 32.03125 27.484375 32.03125 
Q 33.59375 32.03125 37.515625 36.296875 
Q 41.453125 40.578125 41.453125 48.140625 
z
" id="ArialMT-57"/>
       <path d="M 3.171875 21.484375 
L 3.171875 30.328125 
L 30.171875 30.328125 
L 30.171875 21.484375 
z
" id="ArialMT-45"/>
      </defs>
      <g style="fill:#262626;" transform="translate(154.311 507.228528)scale(0.16 -0.16)">
       <use xlink:href="#ArialMT-48"/>
       <use x="55.615234" xlink:href="#ArialMT-53"/>
       <use x="111.230469" xlink:href="#ArialMT-50"/>
       <use x="166.845703" xlink:href="#ArialMT-57"/>
       <use x="222.460938" xlink:href="#ArialMT-45"/>
       <use x="255.761719" xlink:href="#ArialMT-50"/>
      </g>
     </g>
    </g>
    <g id="xtick_2">
     <g id="text_2">
      <!-- 1092-1 -->
      <defs>
       <path d="M 37.25 0 
L 28.46875 0 
L 28.46875 56 
Q 25.296875 52.984375 20.140625 49.953125 
Q 14.984375 46.921875 10.890625 45.40625 
L 10.890625 53.90625 
Q 18.265625 57.375 23.78125 62.296875 
Q 29.296875 67.234375 31.59375 71.875 
L 37.25 71.875 
z
" id="ArialMT-49"/>
      </defs>
      <g style="fill:#262626;" transform="translate(387.763 507.228528)scale(0.16 -0.16)">
       <use xlink:href="#ArialMT-49"/>
       <use x="55.615234" xlink:href="#ArialMT-48"/>
       <use x="111.230469" xlink:href="#ArialMT-57"/>
       <use x="166.845703" xlink:href="#ArialMT-50"/>
       <use x="222.460938" xlink:href="#ArialMT-45"/>
       <use x="255.761719" xlink:href="#ArialMT-49"/>
      </g>
     </g>
    </g>
    <g id="xtick_3">
     <g id="text_3">
      <!-- 1092-2 -->
      <g style="fill:#262626;" transform="translate(621.215 507.228528)scale(0.16 -0.16)">
       <use xlink:href="#ArialMT-49"/>
       <use x="55.615234" xlink:href="#ArialMT-48"/>
       <use x="111.230469" xlink:href="#ArialMT-57"/>
       <use x="166.845703" xlink:href="#ArialMT-50"/>
       <use x="222.460938" xlink:href="#ArialMT-45"/>
       <use x="255.761719" xlink:href="#ArialMT-50"/>
      </g>
     </g>
    </g>
    <g id="text_4">
     <!-- Counter id -->
     <defs>
      <path d="M 58.796875 25.09375 
L 68.265625 22.703125 
Q 65.28125 11.03125 57.546875 4.90625 
Q 49.8125 -1.21875 38.625 -1.21875 
Q 27.046875 -1.21875 19.796875 3.484375 
Q 12.546875 8.203125 8.765625 17.140625 
Q 4.984375 26.078125 4.984375 36.328125 
Q 4.984375 47.515625 9.25 55.828125 
Q 13.53125 64.15625 21.40625 68.46875 
Q 29.296875 72.796875 38.765625 72.796875 
Q 49.515625 72.796875 56.828125 67.328125 
Q 64.15625 61.859375 67.046875 51.953125 
L 57.71875 49.75 
Q 55.21875 57.5625 50.484375 61.125 
Q 45.75 64.703125 38.578125 64.703125 
Q 30.328125 64.703125 24.78125 60.734375 
Q 19.234375 56.78125 16.984375 50.109375 
Q 14.75 43.453125 14.75 36.375 
Q 14.75 27.25 17.40625 20.4375 
Q 20.0625 13.625 25.671875 10.25 
Q 31.296875 6.890625 37.84375 6.890625 
Q 45.796875 6.890625 51.3125 11.46875 
Q 56.84375 16.0625 58.796875 25.09375 
z
" id="ArialMT-67"/>
      <path d="M 3.328125 25.921875 
Q 3.328125 40.328125 11.328125 47.265625 
Q 18.015625 53.03125 27.640625 53.03125 
Q 38.328125 53.03125 45.109375 46.015625 
Q 51.90625 39.015625 51.90625 26.65625 
Q 51.90625 16.65625 48.90625 10.90625 
Q 45.90625 5.171875 40.15625 2 
Q 34.421875 -1.171875 27.640625 -1.171875 
Q 16.75 -1.171875 10.03125 5.8125 
Q 3.328125 12.796875 3.328125 25.921875 
z
M 12.359375 25.921875 
Q 12.359375 15.96875 16.703125 11.015625 
Q 21.046875 6.0625 27.640625 6.0625 
Q 34.1875 6.0625 38.53125 11.03125 
Q 42.875 16.015625 42.875 26.21875 
Q 42.875 35.84375 38.5 40.796875 
Q 34.125 45.75 27.640625 45.75 
Q 21.046875 45.75 16.703125 40.8125 
Q 12.359375 35.890625 12.359375 25.921875 
z
" id="ArialMT-111"/>
      <path d="M 40.578125 0 
L 40.578125 7.625 
Q 34.515625 -1.171875 24.125 -1.171875 
Q 19.53125 -1.171875 15.546875 0.578125 
Q 11.578125 2.34375 9.640625 5 
Q 7.71875 7.671875 6.9375 11.53125 
Q 6.390625 14.109375 6.390625 19.734375 
L 6.390625 51.859375 
L 15.1875 51.859375 
L 15.1875 23.09375 
Q 15.1875 16.21875 15.71875 13.8125 
Q 16.546875 10.359375 19.234375 8.375 
Q 21.921875 6.390625 25.875 6.390625 
Q 29.828125 6.390625 33.296875 8.421875 
Q 36.765625 10.453125 38.203125 13.9375 
Q 39.65625 17.4375 39.65625 24.078125 
L 39.65625 51.859375 
L 48.4375 51.859375 
L 48.4375 0 
z
" id="ArialMT-117"/>
      <path d="M 6.59375 0 
L 6.59375 51.859375 
L 14.5 51.859375 
L 14.5 44.484375 
Q 20.21875 53.03125 31 53.03125 
Q 35.6875 53.03125 39.625 51.34375 
Q 43.5625 49.65625 45.515625 46.921875 
Q 47.46875 44.1875 48.25 40.4375 
Q 48.734375 37.984375 48.734375 31.890625 
L 48.734375 0 
L 39.9375 0 
L 39.9375 31.546875 
Q 39.9375 36.921875 38.90625 39.578125 
Q 37.890625 42.234375 35.28125 43.8125 
Q 32.671875 45.40625 29.15625 45.40625 
Q 23.53125 45.40625 19.453125 41.84375 
Q 15.375 38.28125 15.375 28.328125 
L 15.375 0 
z
" id="ArialMT-110"/>
      <path d="M 25.78125 7.859375 
L 27.046875 0.09375 
Q 23.34375 -0.6875 20.40625 -0.6875 
Q 15.625 -0.6875 12.984375 0.828125 
Q 10.359375 2.34375 9.28125 4.8125 
Q 8.203125 7.28125 8.203125 15.1875 
L 8.203125 45.015625 
L 1.765625 45.015625 
L 1.765625 51.859375 
L 8.203125 51.859375 
L 8.203125 64.703125 
L 16.9375 69.96875 
L 16.9375 51.859375 
L 25.78125 51.859375 
L 25.78125 45.015625 
L 16.9375 45.015625 
L 16.9375 14.703125 
Q 16.9375 10.9375 17.40625 9.859375 
Q 17.875 8.796875 18.921875 8.15625 
Q 19.96875 7.515625 21.921875 7.515625 
Q 23.390625 7.515625 25.78125 7.859375 
z
" id="ArialMT-116"/>
      <path d="M 42.09375 16.703125 
L 51.171875 15.578125 
Q 49.03125 7.625 43.21875 3.21875 
Q 37.40625 -1.171875 28.375 -1.171875 
Q 17 -1.171875 10.328125 5.828125 
Q 3.65625 12.84375 3.65625 25.484375 
Q 3.65625 38.578125 10.390625 45.796875 
Q 17.140625 53.03125 27.875 53.03125 
Q 38.28125 53.03125 44.875 45.953125 
Q 51.46875 38.875 51.46875 26.03125 
Q 51.46875 25.25 51.421875 23.6875 
L 12.75 23.6875 
Q 13.234375 15.140625 17.578125 10.59375 
Q 21.921875 6.0625 28.421875 6.0625 
Q 33.25 6.0625 36.671875 8.59375 
Q 40.09375 11.140625 42.09375 16.703125 
z
M 13.234375 30.90625 
L 42.1875 30.90625 
Q 41.609375 37.453125 38.875 40.71875 
Q 34.671875 45.796875 27.984375 45.796875 
Q 21.921875 45.796875 17.796875 41.75 
Q 13.671875 37.703125 13.234375 30.90625 
z
" id="ArialMT-101"/>
      <path d="M 6.5 0 
L 6.5 51.859375 
L 14.40625 51.859375 
L 14.40625 44 
Q 17.4375 49.515625 20 51.265625 
Q 22.5625 53.03125 25.640625 53.03125 
Q 30.078125 53.03125 34.671875 50.203125 
L 31.640625 42.046875 
Q 28.421875 43.953125 25.203125 43.953125 
Q 22.3125 43.953125 20.015625 42.21875 
Q 17.71875 40.484375 16.75 37.40625 
Q 15.28125 32.71875 15.28125 27.15625 
L 15.28125 0 
z
" id="ArialMT-114"/>
      <path id="ArialMT-32"/>
      <path d="M 6.640625 61.46875 
L 6.640625 71.578125 
L 15.4375 71.578125 
L 15.4375 61.46875 
z
M 6.640625 0 
L 6.640625 51.859375 
L 15.4375 51.859375 
L 15.4375 0 
z
" id="ArialMT-105"/>
      <path d="M 40.234375 0 
L 40.234375 6.546875 
Q 35.296875 -1.171875 25.734375 -1.171875 
Q 19.53125 -1.171875 14.328125 2.25 
Q 9.125 5.671875 6.265625 11.796875 
Q 3.421875 17.921875 3.421875 25.875 
Q 3.421875 33.640625 6 39.96875 
Q 8.59375 46.296875 13.765625 49.65625 
Q 18.953125 53.03125 25.34375 53.03125 
Q 30.03125 53.03125 33.6875 51.046875 
Q 37.359375 49.078125 39.65625 45.90625 
L 39.65625 71.578125 
L 48.390625 71.578125 
L 48.390625 0 
z
M 12.453125 25.875 
Q 12.453125 15.921875 16.640625 10.984375 
Q 20.84375 6.0625 26.5625 6.0625 
Q 32.328125 6.0625 36.34375 10.765625 
Q 40.375 15.484375 40.375 25.140625 
Q 40.375 35.796875 36.265625 40.765625 
Q 32.171875 45.75 26.171875 45.75 
Q 20.3125 45.75 16.375 40.96875 
Q 12.453125 36.1875 12.453125 25.875 
z
" id="ArialMT-100"/>
     </defs>
     <g style="fill:#262626;" transform="translate(375.763 525.861028)scale(0.16 -0.16)">
      <use xlink:href="#ArialMT-67"/>
      <use x="72.216797" xlink:href="#ArialMT-111"/>
      <use x="127.832031" xlink:href="#ArialMT-117"/>
      <use x="183.447266" xlink:href="#ArialMT-110"/>
      <use x="239.0625" xlink:href="#ArialMT-116"/>
      <use x="266.845703" xlink:href="#ArialMT-101"/>
      <use x="322.460938" xlink:href="#ArialMT-114"/>
      <use x="355.761719" xlink:href="#ArialMT-32"/>
      <use x="383.544922" xlink:href="#ArialMT-105"/>
      <use x="405.761719" xlink:href="#ArialMT-100"/>
     </g>
    </g>
   </g>
   <g id="matplotlib.axis_2">
    <g id="ytick_1">
     <g id="text_5">
      <!-- 0 -->
      <g style="fill:#262626;" transform="translate(46.595 473.596147)scale(0.16 -0.16)">
       <use xlink:href="#ArialMT-48"/>
      </g>
     </g>
    </g>
    <g id="ytick_2">
     <g id="text_6">
      <!-- 50 -->
      <g style="fill:#262626;" transform="translate(37.6975 397.772205)scale(0.16 -0.16)">
       <use xlink:href="#ArialMT-53"/>
       <use x="55.615234" xlink:href="#ArialMT-48"/>
      </g>
     </g>
    </g>
    <g id="ytick_3">
     <g id="text_7">
      <!-- 100 -->
      <g style="fill:#262626;" transform="translate(28.8 321.948264)scale(0.16 -0.16)">
       <use xlink:href="#ArialMT-49"/>
       <use x="55.615234" xlink:href="#ArialMT-48"/>
       <use x="111.230469" xlink:href="#ArialMT-48"/>
      </g>
     </g>
    </g>
    <g id="ytick_4">
     <g id="text_8">
      <!-- 150 -->
      <g style="fill:#262626;" transform="translate(28.8 246.124323)scale(0.16 -0.16)">
       <use xlink:href="#ArialMT-49"/>
       <use x="55.615234" xlink:href="#ArialMT-53"/>
       <use x="111.230469" xlink:href="#ArialMT-48"/>
      </g>
     </g>
    </g>
    <g id="ytick_5">
     <g id="text_9">
      <!-- 200 -->
      <g style="fill:#262626;" transform="translate(28.8 170.300382)scale(0.16 -0.16)">
       <use xlink:href="#ArialMT-50"/>
       <use x="55.615234" xlink:href="#ArialMT-48"/>
       <use x="111.230469" xlink:href="#ArialMT-48"/>
      </g>
     </g>
    </g>
    <g id="ytick_6">
     <g id="text_10">
      <!-- 250 -->
      <g style="fill:#262626;" transform="translate(28.8 94.476441)scale(0.16 -0.16)">
       <use xlink:href="#ArialMT-50"/>
       <use x="55.615234" xlink:href="#ArialMT-53"/>
       <use x="111.230469" xlink:href="#ArialMT-48"/>
      </g>
     </g>
    </g>
    <g id="ytick_7">
     <g id="text_11">
      <!-- 300 -->
      <defs>
       <path d="M 4.203125 18.890625 
L 12.984375 20.0625 
Q 14.5 12.59375 18.140625 9.296875 
Q 21.78125 6 27 6 
Q 33.203125 6 37.46875 10.296875 
Q 41.75 14.59375 41.75 20.953125 
Q 41.75 27 37.796875 30.921875 
Q 33.84375 34.859375 27.734375 34.859375 
Q 25.25 34.859375 21.53125 33.890625 
L 22.515625 41.609375 
Q 23.390625 41.5 23.921875 41.5 
Q 29.546875 41.5 34.03125 44.421875 
Q 38.53125 47.359375 38.53125 53.46875 
Q 38.53125 58.296875 35.25 61.46875 
Q 31.984375 64.65625 26.8125 64.65625 
Q 21.6875 64.65625 18.265625 61.421875 
Q 14.84375 58.203125 13.875 51.765625 
L 5.078125 53.328125 
Q 6.6875 62.15625 12.390625 67.015625 
Q 18.109375 71.875 26.609375 71.875 
Q 32.46875 71.875 37.390625 69.359375 
Q 42.328125 66.84375 44.9375 62.5 
Q 47.5625 58.15625 47.5625 53.265625 
Q 47.5625 48.640625 45.0625 44.828125 
Q 42.578125 41.015625 37.703125 38.765625 
Q 44.046875 37.3125 47.5625 32.6875 
Q 51.078125 28.078125 51.078125 21.140625 
Q 51.078125 11.765625 44.234375 5.25 
Q 37.40625 -1.265625 26.953125 -1.265625 
Q 17.53125 -1.265625 11.296875 4.34375 
Q 5.078125 9.96875 4.203125 18.890625 
z
" id="ArialMT-51"/>
      </defs>
      <g style="fill:#262626;" transform="translate(28.8 18.6525)scale(0.16 -0.16)">
       <use xlink:href="#ArialMT-51"/>
       <use x="55.615234" xlink:href="#ArialMT-48"/>
       <use x="111.230469" xlink:href="#ArialMT-48"/>
      </g>
     </g>
    </g>
    <g id="text_12">
     <!-- Count [$h^{-1}$] -->
     <defs>
      <path d="M 6.78125 -19.875 
L 6.78125 71.578125 
L 26.171875 71.578125 
L 26.171875 64.3125 
L 15.578125 64.3125 
L 15.578125 -12.59375 
L 26.171875 -12.59375 
L 26.171875 -19.875 
z
" id="ArialMT-91"/>
      <path d="M 55.71875 33.015625 
L 49.3125 0 
L 40.28125 0 
L 46.6875 32.671875 
Q 47.125 34.96875 47.359375 36.71875 
Q 47.609375 38.484375 47.609375 39.5 
Q 47.609375 43.609375 45.015625 45.890625 
Q 42.4375 48.1875 37.796875 48.1875 
Q 30.5625 48.1875 25.265625 43.296875 
Q 19.96875 38.421875 18.40625 30.328125 
L 12.5 0 
L 3.515625 0 
L 18.3125 75.984375 
L 27.296875 75.984375 
L 21.484375 46.09375 
Q 24.90625 50.6875 30.21875 53.34375 
Q 35.546875 56 41.40625 56 
Q 48.640625 56 52.609375 52.09375 
Q 56.59375 48.1875 56.59375 41.109375 
Q 56.59375 39.359375 56.375 37.359375 
Q 56.15625 35.359375 55.71875 33.015625 
z
" id="DejaVuSans-Oblique-104"/>
      <path d="M 10.59375 35.5 
L 73.1875 35.5 
L 73.1875 27.203125 
L 10.59375 27.203125 
z
" id="DejaVuSans-8722"/>
      <path d="M 12.40625 8.296875 
L 28.515625 8.296875 
L 28.515625 63.921875 
L 10.984375 60.40625 
L 10.984375 69.390625 
L 28.421875 72.90625 
L 38.28125 72.90625 
L 38.28125 8.296875 
L 54.390625 8.296875 
L 54.390625 0 
L 12.40625 0 
z
" id="DejaVuSans-49"/>
      <path d="M 21.296875 -19.875 
L 1.90625 -19.875 
L 1.90625 -12.59375 
L 12.5 -12.59375 
L 12.5 64.3125 
L 1.90625 64.3125 
L 1.90625 71.578125 
L 21.296875 71.578125 
z
" id="ArialMT-93"/>
     </defs>
     <g style="fill:#262626;" transform="translate(21.6 290.444124)rotate(-90)scale(0.16 -0.16)">
      <use transform="translate(0 0.684375)" xlink:href="#ArialMT-67"/>
      <use transform="translate(72.216797 0.684375)" xlink:href="#ArialMT-111"/>
      <use transform="translate(127.832031 0.684375)" xlink:href="#ArialMT-117"/>
      <use transform="translate(183.447266 0.684375)" xlink:href="#ArialMT-110"/>
      <use transform="translate(239.0625 0.684375)" xlink:href="#ArialMT-116"/>
      <use transform="translate(266.845703 0.684375)" xlink:href="#ArialMT-32"/>
      <use transform="translate(294.628906 0.684375)" xlink:href="#ArialMT-91"/>
      <use transform="translate(322.412109 0.684375)" xlink:href="#DejaVuSans-Oblique-104"/>
      <use transform="translate(393.238724 38.965625)scale(0.7)" xlink:href="#DejaVuSans-8722"/>
      <use transform="translate(451.891068 38.965625)scale(0.7)" xlink:href="#DejaVuSans-49"/>
      <use transform="translate(499.161576 0.684375)" xlink:href="#ArialMT-93"/>
     </g>
    </g>
   </g>
   <g id="PolyCollection_1">
    <defs>
     <path d="M 254.849402 -69.3279 
L 103.587598 -69.3279 
L 97.571067 -71.929739 
L 92.66691 -74.531578 
L 89.035668 -77.133416 
L 86.758708 -79.735255 
L 85.8377 -82.337094 
L 86.20278 -84.938933 
L 87.727324 -87.540771 
L 90.246378 -90.14261 
L 93.575558 -92.744449 
L 97.527694 -95.346287 
L 101.925358 -97.948126 
L 106.608553 -100.549965 
L 111.437869 -103.151803 
L 116.294217 -105.753642 
L 121.076588 -108.355481 
L 125.699324 -110.957319 
L 130.089983 -113.559158 
L 134.188416 -116.160997 
L 137.947112 -118.762836 
L 141.332408 -121.364674 
L 144.325936 -123.966513 
L 146.925598 -126.568352 
L 149.145497 -129.17019 
L 151.014509 -131.772029 
L 152.573464 -134.373868 
L 153.871225 -136.975706 
L 154.960107 -139.577545 
L 155.891244 -142.179384 
L 156.710445 -144.781223 
L 157.455022 -147.383061 
L 158.151862 -149.9849 
L 158.816856 -152.586739 
L 159.455571 -155.188577 
L 160.064937 -157.790416 
L 160.635602 -160.392255 
L 161.154601 -162.994093 
L 161.607995 -165.595932 
L 161.983206 -168.197771 
L 162.270876 -170.799609 
L 162.466128 -173.401448 
L 162.569239 -176.003287 
L 162.585753 -178.605126 
L 162.526124 -181.206964 
L 162.404991 -183.808803 
L 162.240196 -186.410642 
L 162.05163 -189.01248 
L 161.860002 -191.614319 
L 161.685593 -194.216158 
L 161.547059 -196.817996 
L 161.460345 -199.419835 
L 161.437764 -202.021674 
L 161.487328 -204.623512 
L 161.612377 -207.225351 
L 161.811564 -209.82719 
L 162.079221 -212.429029 
L 162.406076 -215.030867 
L 162.780262 -217.632706 
L 163.188509 -220.234545 
L 163.617375 -222.836383 
L 164.054388 -225.438222 
L 164.488963 -228.040061 
L 164.913014 -230.641899 
L 165.321229 -233.243738 
L 165.711011 -235.845577 
L 166.082169 -238.447415 
L 166.436415 -241.049254 
L 166.776796 -243.651093 
L 167.107133 -246.252932 
L 167.431536 -248.85477 
L 167.754026 -251.456609 
L 168.078274 -254.058448 
L 168.407424 -256.660286 
L 168.743973 -259.262125 
L 169.089678 -261.863964 
L 169.445489 -264.465802 
L 169.811485 -267.067641 
L 170.186864 -269.66948 
L 170.569991 -272.271318 
L 170.958523 -274.873157 
L 171.349615 -277.474996 
L 171.740172 -280.076835 
L 172.12712 -282.678673 
L 172.507636 -285.280512 
L 172.879323 -287.882351 
L 173.240294 -290.484189 
L 173.589195 -293.086028 
L 173.925181 -295.687867 
L 174.247886 -298.289705 
L 174.557409 -300.891544 
L 174.854318 -303.493383 
L 175.13966 -306.095221 
L 175.414945 -308.69706 
L 175.682057 -311.298899 
L 175.943084 -313.900738 
L 176.200053 -316.502576 
L 176.454616 -319.104415 
L 176.707731 -321.706254 
L 176.959408 -324.308092 
L 177.20858 -326.909931 
L 181.22842 -326.909931 
L 181.22842 -326.909931 
L 181.477592 -324.308092 
L 181.729269 -321.706254 
L 181.982384 -319.104415 
L 182.236947 -316.502576 
L 182.493916 -313.900738 
L 182.754943 -311.298899 
L 183.022055 -308.69706 
L 183.29734 -306.095221 
L 183.582682 -303.493383 
L 183.879591 -300.891544 
L 184.189114 -298.289705 
L 184.511819 -295.687867 
L 184.847805 -293.086028 
L 185.196706 -290.484189 
L 185.557677 -287.882351 
L 185.929364 -285.280512 
L 186.30988 -282.678673 
L 186.696828 -280.076835 
L 187.087385 -277.474996 
L 187.478477 -274.873157 
L 187.867009 -272.271318 
L 188.250136 -269.66948 
L 188.625515 -267.067641 
L 188.991511 -264.465802 
L 189.347322 -261.863964 
L 189.693027 -259.262125 
L 190.029576 -256.660286 
L 190.358726 -254.058448 
L 190.682974 -251.456609 
L 191.005464 -248.85477 
L 191.329867 -246.252932 
L 191.660204 -243.651093 
L 192.000585 -241.049254 
L 192.354831 -238.447415 
L 192.725989 -235.845577 
L 193.115771 -233.243738 
L 193.523986 -230.641899 
L 193.948037 -228.040061 
L 194.382612 -225.438222 
L 194.819625 -222.836383 
L 195.248491 -220.234545 
L 195.656738 -217.632706 
L 196.030924 -215.030867 
L 196.357779 -212.429029 
L 196.625436 -209.82719 
L 196.824623 -207.225351 
L 196.949672 -204.623512 
L 196.999236 -202.021674 
L 196.976655 -199.419835 
L 196.889941 -196.817996 
L 196.751407 -194.216158 
L 196.576998 -191.614319 
L 196.38537 -189.01248 
L 196.196804 -186.410642 
L 196.032009 -183.808803 
L 195.910876 -181.206964 
L 195.851247 -178.605126 
L 195.867761 -176.003287 
L 195.970872 -173.401448 
L 196.166124 -170.799609 
L 196.453794 -168.197771 
L 196.829005 -165.595932 
L 197.282399 -162.994093 
L 197.801398 -160.392255 
L 198.372063 -157.790416 
L 198.981429 -155.188577 
L 199.620144 -152.586739 
L 200.285138 -149.9849 
L 200.981978 -147.383061 
L 201.726555 -144.781223 
L 202.545756 -142.179384 
L 203.476893 -139.577545 
L 204.565775 -136.975706 
L 205.863536 -134.373868 
L 207.422491 -131.772029 
L 209.291503 -129.17019 
L 211.511402 -126.568352 
L 214.111064 -123.966513 
L 217.104592 -121.364674 
L 220.489888 -118.762836 
L 224.248584 -116.160997 
L 228.347017 -113.559158 
L 232.737676 -110.957319 
L 237.360412 -108.355481 
L 242.142783 -105.753642 
L 246.999131 -103.151803 
L 251.828447 -100.549965 
L 256.511642 -97.948126 
L 260.909306 -95.346287 
L 264.861442 -92.744449 
L 268.190622 -90.14261 
L 270.709676 -87.540771 
L 272.23422 -84.938933 
L 272.5993 -82.337094 
L 271.678292 -79.735255 
L 269.401332 -77.133416 
L 265.77009 -74.531578 
L 260.865933 -71.929739 
L 254.849402 -69.3279 
z
" id="m4cc22874d7" style="stroke:#141414;stroke-width:1.5;"/>
    </defs>
    <g clip-path="url(#p30eb74b9eb)">
     <use style="fill:#083c1d;stroke:#141414;stroke-width:1.5;" x="0" xlink:href="#m4cc22874d7" y="536.241028"/>
    </g>
   </g>
   <g id="PolyCollection_2">
    <defs>
     <path d="M 413.944879 -76.395615 
L 411.396121 -76.395615 
L 410.97976 -80.67977 
L 410.505562 -84.963924 
L 409.990816 -89.248078 
L 409.458661 -93.532233 
L 408.934084 -97.816387 
L 408.438197 -102.100542 
L 407.982254 -106.384696 
L 407.563458 -110.668851 
L 407.164436 -114.953005 
L 406.757284 -119.237159 
L 406.311556 -123.521314 
L 405.804051 -127.805468 
L 405.227146 -132.089623 
L 404.5923 -136.373777 
L 403.926522 -140.657932 
L 403.261985 -144.942086 
L 402.621965 -149.22624 
L 402.008594 -153.510395 
L 401.398087 -157.794549 
L 400.746582 -162.078704 
L 400.005268 -166.362858 
L 399.139127 -170.647012 
L 398.141765 -174.931167 
L 397.040393 -179.215321 
L 395.889341 -183.499476 
L 394.754968 -187.78363 
L 393.697537 -192.067785 
L 392.755594 -196.351939 
L 391.936689 -200.636093 
L 391.216248 -204.920248 
L 390.544639 -209.204402 
L 389.860767 -213.488557 
L 389.108509 -217.772711 
L 388.250718 -222.056866 
L 387.275792 -226.34102 
L 386.194561 -230.625174 
L 385.029513 -234.909329 
L 383.801669 -239.193483 
L 382.520866 -243.477638 
L 381.182928 -247.761792 
L 379.773923 -252.045947 
L 378.279344 -256.330101 
L 376.694872 -260.614255 
L 375.03517 -264.89841 
L 373.337399 -269.182564 
L 371.657555 -273.466719 
L 370.060409 -277.750873 
L 368.606926 -282.035027 
L 367.34453 -286.319182 
L 366.304204 -290.603336 
L 365.504697 -294.887491 
L 364.960258 -299.171645 
L 364.68671 -303.4558 
L 364.702139 -307.739954 
L 365.021941 -312.024108 
L 365.651315 -316.308263 
L 366.579566 -320.592417 
L 367.779488 -324.876572 
L 369.212538 -329.160726 
L 370.83795 -333.444881 
L 372.622487 -337.729035 
L 374.547186 -342.013189 
L 376.608308 -346.297344 
L 378.811528 -350.581498 
L 381.160972 -354.865653 
L 383.647055 -359.149807 
L 386.237993 -363.433962 
L 388.878607 -367.718116 
L 391.497204 -372.00227 
L 394.018177 -376.286425 
L 396.376033 -380.570579 
L 398.526294 -384.854734 
L 400.450128 -389.138888 
L 402.151896 -393.423042 
L 403.651292 -397.707197 
L 404.97346 -401.991351 
L 406.140708 -406.275506 
L 407.168177 -410.55966 
L 408.063746 -414.843815 
L 408.830794 -419.127969 
L 409.471811 -423.412123 
L 409.99141 -427.696278 
L 410.398237 -431.980432 
L 410.705874 -436.264587 
L 410.932853 -440.548741 
L 411.101619 -444.832896 
L 411.236154 -449.11705 
L 411.35843 -453.401204 
L 411.484555 -457.685359 
L 411.621939 -461.969513 
L 411.768709 -466.253668 
L 411.915758 -470.537822 
L 412.050799 -474.821977 
L 412.163023 -479.106131 
L 412.24676 -483.390285 
L 412.303021 -487.67444 
L 412.338613 -491.958594 
L 412.363407 -496.242749 
L 412.386937 -500.526903 
L 412.954063 -500.526903 
L 412.954063 -500.526903 
L 412.977593 -496.242749 
L 413.002387 -491.958594 
L 413.037979 -487.67444 
L 413.09424 -483.390285 
L 413.177977 -479.106131 
L 413.290201 -474.821977 
L 413.425242 -470.537822 
L 413.572291 -466.253668 
L 413.719061 -461.969513 
L 413.856445 -457.685359 
L 413.98257 -453.401204 
L 414.104846 -449.11705 
L 414.239381 -444.832896 
L 414.408147 -440.548741 
L 414.635126 -436.264587 
L 414.942763 -431.980432 
L 415.34959 -427.696278 
L 415.869189 -423.412123 
L 416.510206 -419.127969 
L 417.277254 -414.843815 
L 418.172823 -410.55966 
L 419.200292 -406.275506 
L 420.36754 -401.991351 
L 421.689708 -397.707197 
L 423.189104 -393.423042 
L 424.890872 -389.138888 
L 426.814706 -384.854734 
L 428.964967 -380.570579 
L 431.322823 -376.286425 
L 433.843796 -372.00227 
L 436.462393 -367.718116 
L 439.103007 -363.433962 
L 441.693945 -359.149807 
L 444.180028 -354.865653 
L 446.529472 -350.581498 
L 448.732692 -346.297344 
L 450.793814 -342.013189 
L 452.718513 -337.729035 
L 454.50305 -333.444881 
L 456.128462 -329.160726 
L 457.561512 -324.876572 
L 458.761434 -320.592417 
L 459.689685 -316.308263 
L 460.319059 -312.024108 
L 460.638861 -307.739954 
L 460.65429 -303.4558 
L 460.380742 -299.171645 
L 459.836303 -294.887491 
L 459.036796 -290.603336 
L 457.99647 -286.319182 
L 456.734074 -282.035027 
L 455.280591 -277.750873 
L 453.683445 -273.466719 
L 452.003601 -269.182564 
L 450.30583 -264.89841 
L 448.646128 -260.614255 
L 447.061656 -256.330101 
L 445.567077 -252.045947 
L 444.158072 -247.761792 
L 442.820134 -243.477638 
L 441.539331 -239.193483 
L 440.311487 -234.909329 
L 439.146439 -230.625174 
L 438.065208 -226.34102 
L 437.090282 -222.056866 
L 436.232491 -217.772711 
L 435.480233 -213.488557 
L 434.796361 -209.204402 
L 434.124752 -204.920248 
L 433.404311 -200.636093 
L 432.585406 -196.351939 
L 431.643463 -192.067785 
L 430.586032 -187.78363 
L 429.451659 -183.499476 
L 428.300607 -179.215321 
L 427.199235 -174.931167 
L 426.201873 -170.647012 
L 425.335732 -166.362858 
L 424.594418 -162.078704 
L 423.942913 -157.794549 
L 423.332406 -153.510395 
L 422.719035 -149.22624 
L 422.079015 -144.942086 
L 421.414478 -140.657932 
L 420.7487 -136.373777 
L 420.113854 -132.089623 
L 419.536949 -127.805468 
L 419.029444 -123.521314 
L 418.583716 -119.237159 
L 418.176564 -114.953005 
L 417.777542 -110.668851 
L 417.358746 -106.384696 
L 416.902803 -102.100542 
L 416.406916 -97.816387 
L 415.882339 -93.532233 
L 415.350184 -89.248078 
L 414.835438 -84.963924 
L 414.36124 -80.67977 
L 413.944879 -76.395615 
z
" id="m027f4023fe" style="stroke:#141414;stroke-width:1.5;"/>
    </defs>
    <g clip-path="url(#p30eb74b9eb)">
     <use style="fill:#0e5f2f;stroke:#141414;stroke-width:1.5;" x="0" xlink:href="#m027f4023fe" y="536.241028"/>
    </g>
   </g>
   <g id="PolyCollection_3">
    <defs>
     <path d="M 647.873144 -80.570738 
L 644.371856 -80.570738 
L 643.91842 -84.873921 
L 643.425443 -89.177105 
L 642.908026 -93.480288 
L 642.382148 -97.783472 
L 641.862151 -102.086655 
L 641.358357 -106.389839 
L 640.875316 -110.693022 
L 640.410975 -114.996206 
L 639.956804 -119.299389 
L 639.498647 -123.602573 
L 639.017963 -127.905757 
L 638.493287 -132.20894 
L 637.901966 -136.512124 
L 637.222441 -140.815307 
L 636.437283 -145.118491 
L 635.536769 -149.421674 
L 634.522267 -153.724858 
L 633.408283 -158.028041 
L 632.222163 -162.331225 
L 631.00108 -166.634408 
L 629.786927 -170.937592 
L 628.620545 -175.240776 
L 627.536884 -179.543959 
L 626.562185 -183.847143 
L 625.71322 -188.150326 
L 624.99774 -192.45351 
L 624.414949 -196.756693 
L 623.955274 -201.059877 
L 623.59959 -205.36306 
L 623.318874 -209.666244 
L 623.075415 -213.969427 
L 622.826172 -218.272611 
L 622.527911 -222.575795 
L 622.142889 -226.878978 
L 621.643581 -231.182162 
L 621.015351 -235.485345 
L 620.256658 -239.788529 
L 619.377141 -244.091712 
L 618.394308 -248.394896 
L 617.329655 -252.698079 
L 616.204999 -257.001263 
L 615.03973 -261.304446 
L 613.849611 -265.60763 
L 612.647591 -269.910814 
L 611.446613 -274.213997 
L 610.263876 -278.517181 
L 609.12531 -282.820364 
L 608.068689 -287.123548 
L 607.143766 -291.426731 
L 606.408421 -295.729915 
L 605.920819 -300.033098 
L 605.728889 -304.336282 
L 605.85959 -308.639465 
L 606.310992 -312.942649 
L 607.049881 -317.245833 
L 608.016295 -321.549016 
L 609.134437 -325.8522 
L 610.327414 -330.155383 
L 611.531918 -334.458567 
L 612.708829 -338.76175 
L 613.846946 -343.064934 
L 614.959255 -347.368117 
L 616.073501 -351.671301 
L 617.22052 -355.974484 
L 618.424103 -360.277668 
L 619.695135 -364.580852 
L 621.030779 -368.884035 
L 622.417573 -373.187219 
L 623.836104 -377.490402 
L 625.264943 -381.793586 
L 626.682555 -386.096769 
L 628.067307 -390.399953 
L 629.396831 -394.703136 
L 630.648262 -399.00632 
L 631.800261 -403.309503 
L 632.836659 -407.612687 
L 633.750539 -411.915871 
L 634.547169 -416.219054 
L 635.244509 -420.522238 
L 635.870864 -424.825421 
L 636.460161 -429.128605 
L 637.046015 -433.431788 
L 637.655951 -437.734972 
L 638.306991 -442.038155 
L 639.003386 -446.341339 
L 639.736772 -450.644522 
L 640.488531 -454.947706 
L 641.233759 -459.25089 
L 641.94596 -463.554073 
L 642.601566 -467.857257 
L 643.183429 -472.16044 
L 643.682788 -476.463624 
L 644.099508 -480.766807 
L 644.440757 -485.069991 
L 644.718592 -489.373174 
L 644.94706 -493.676358 
L 645.139468 -497.979541 
L 645.306389 -502.282725 
L 645.454687 -506.585909 
L 646.790313 -506.585909 
L 646.790313 -506.585909 
L 646.938611 -502.282725 
L 647.105532 -497.979541 
L 647.29794 -493.676358 
L 647.526408 -489.373174 
L 647.804243 -485.069991 
L 648.145492 -480.766807 
L 648.562212 -476.463624 
L 649.061571 -472.16044 
L 649.643434 -467.857257 
L 650.29904 -463.554073 
L 651.011241 -459.25089 
L 651.756469 -454.947706 
L 652.508228 -450.644522 
L 653.241614 -446.341339 
L 653.938009 -442.038155 
L 654.589049 -437.734972 
L 655.198985 -433.431788 
L 655.784839 -429.128605 
L 656.374136 -424.825421 
L 657.000491 -420.522238 
L 657.697831 -416.219054 
L 658.494461 -411.915871 
L 659.408341 -407.612687 
L 660.444739 -403.309503 
L 661.596738 -399.00632 
L 662.848169 -394.703136 
L 664.177693 -390.399953 
L 665.562445 -386.096769 
L 666.980057 -381.793586 
L 668.408896 -377.490402 
L 669.827427 -373.187219 
L 671.214221 -368.884035 
L 672.549865 -364.580852 
L 673.820897 -360.277668 
L 675.02448 -355.974484 
L 676.171499 -351.671301 
L 677.285745 -347.368117 
L 678.398054 -343.064934 
L 679.536171 -338.76175 
L 680.713082 -334.458567 
L 681.917586 -330.155383 
L 683.110563 -325.8522 
L 684.228705 -321.549016 
L 685.195119 -317.245833 
L 685.934008 -312.942649 
L 686.38541 -308.639465 
L 686.516111 -304.336282 
L 686.324181 -300.033098 
L 685.836579 -295.729915 
L 685.101234 -291.426731 
L 684.176311 -287.123548 
L 683.11969 -282.820364 
L 681.981124 -278.517181 
L 680.798387 -274.213997 
L 679.597409 -269.910814 
L 678.395389 -265.60763 
L 677.20527 -261.304446 
L 676.040001 -257.001263 
L 674.915345 -252.698079 
L 673.850692 -248.394896 
L 672.867859 -244.091712 
L 671.988342 -239.788529 
L 671.229649 -235.485345 
L 670.601419 -231.182162 
L 670.102111 -226.878978 
L 669.717089 -222.575795 
L 669.418828 -218.272611 
L 669.169585 -213.969427 
L 668.926126 -209.666244 
L 668.64541 -205.36306 
L 668.289726 -201.059877 
L 667.830051 -196.756693 
L 667.24726 -192.45351 
L 666.53178 -188.150326 
L 665.682815 -183.847143 
L 664.708116 -179.543959 
L 663.624455 -175.240776 
L 662.458073 -170.937592 
L 661.24392 -166.634408 
L 660.022837 -162.331225 
L 658.836717 -158.028041 
L 657.722733 -153.724858 
L 656.708231 -149.421674 
L 655.807717 -145.118491 
L 655.022559 -140.815307 
L 654.343034 -136.512124 
L 653.751713 -132.20894 
L 653.227037 -127.905757 
L 652.746353 -123.602573 
L 652.288196 -119.299389 
L 651.834025 -114.996206 
L 651.369684 -110.693022 
L 650.886643 -106.389839 
L 650.382849 -102.086655 
L 649.862852 -97.783472 
L 649.336974 -93.480288 
L 648.819557 -89.177105 
L 648.32658 -84.873921 
L 647.873144 -80.570738 
z
" id="md830351d81" style="stroke:#141414;stroke-width:1.5;"/>
    </defs>
    <g clip-path="url(#p30eb74b9eb)">
     <use style="fill:#307e4a;stroke:#141414;stroke-width:1.5;" x="0" xlink:href="#md830351d81" y="536.241028"/>
    </g>
   </g>
   <g id="line2d_1">
    <path clip-path="url(#p30eb74b9eb)" d="M 179.2185 466.913128 
L 179.2185 260.842071 
" style="fill:none;stroke:#141414;stroke-linecap:round;stroke-width:1.5;"/>
   </g>
   <g id="line2d_2">
    <path clip-path="url(#p30eb74b9eb)" d="M 179.2185 459.011849 
L 179.2185 378.764924 
" style="fill:none;stroke:#141414;stroke-linecap:round;stroke-width:4.5;"/>
   </g>
   <g id="line2d_3">
    <path clip-path="url(#p30eb74b9eb)" d="M 412.6705 443.695769 
L 412.6705 67.519488 
" style="fill:none;stroke:#141414;stroke-linecap:round;stroke-width:1.5;"/>
   </g>
   <g id="line2d_4">
    <path clip-path="url(#p30eb74b9eb)" d="M 412.6705 301.328477 
L 412.6705 206.269785 
" style="fill:none;stroke:#141414;stroke-linecap:round;stroke-width:4.5;"/>
   </g>
   <g id="line2d_5">
    <path clip-path="url(#p30eb74b9eb)" d="M 646.1225 455.67029 
L 646.1225 29.65512 
" style="fill:none;stroke:#141414;stroke-linecap:round;stroke-width:1.5;"/>
   </g>
   <g id="line2d_6">
    <path clip-path="url(#p30eb74b9eb)" d="M 646.1225 305.08093 
L 646.1225 190.563961 
" style="fill:none;stroke:#141414;stroke-linecap:round;stroke-width:4.5;"/>
   </g>
   <g id="patch_3">
    <path d="M 62.4925 488.776028 
L 62.4925 7.792219 
" style="fill:none;stroke:#262626;stroke-linecap:square;stroke-linejoin:miter;stroke-width:0.8;"/>
   </g>
   <g id="patch_4">
    <path d="M 62.4925 488.776028 
L 762.8485 488.776028 
" style="fill:none;stroke:#262626;stroke-linecap:square;stroke-linejoin:miter;stroke-width:0.8;"/>
   </g>
   <g id="PathCollection_1">
    <defs>
     <path d="M 0 1.5 
C 0.397805 1.5 0.77937 1.341951 1.06066 1.06066 
C 1.341951 0.77937 1.5 0.397805 1.5 0 
C 1.5 -0.397805 1.341951 -0.77937 1.06066 -1.06066 
C 0.77937 -1.341951 0.397805 -1.5 0 -1.5 
C -0.397805 -1.5 -0.77937 -1.341951 -1.06066 -1.06066 
C -1.341951 -0.77937 -1.5 -0.397805 -1.5 0 
C -1.5 0.397805 -1.341951 0.77937 -1.06066 1.06066 
C -0.77937 1.341951 -0.397805 1.5 0 1.5 
z
" id="m0e0842afe9" style="stroke:#141414;"/>
    </defs>
    <g clip-path="url(#p30eb74b9eb)">
     <use style="fill:#ffffff;stroke:#141414;" x="179.2185" xlink:href="#m0e0842afe9" y="436.209968"/>
    </g>
   </g>
   <g id="PathCollection_2">
    <g clip-path="url(#p30eb74b9eb)">
     <use style="fill:#ffffff;stroke:#141414;" x="412.6705" xlink:href="#m0e0842afe9" y="247.105515"/>
    </g>
   </g>
   <g id="PathCollection_3">
    <g clip-path="url(#p30eb74b9eb)">
     <use style="fill:#ffffff;stroke:#141414;" x="646.1225" xlink:href="#m0e0842afe9" y="241.3914"/>
    </g>
   </g>
  </g>
 </g>
 <defs>
  <clipPath id="p30eb74b9eb">
   <rect height="480.983809" width="700.356" x="62.4925" y="7.792219"/>
  </clipPath>
 </defs>
</svg>
