<?xml version="1.0" encoding="utf-8" standalone="no"?>
<!DOCTYPE svg PUBLIC "-//W3C//DTD SVG 1.1//EN"
  "http://www.w3.org/Graphics/SVG/1.1/DTD/svg11.dtd">
<!-- Created with matplotlib (https://matplotlib.org/) -->
<svg height="537.368223pt" version="1.1" viewBox="0 0 791.118 537.368223" width="791.118pt" xmlns="http://www.w3.org/2000/svg" xmlns:xlink="http://www.w3.org/1999/xlink">
 <defs>
  <style type="text/css">
*{stroke-linecap:butt;stroke-linejoin:round;white-space:pre;}
  </style>
 </defs>
 <g id="figure_1">
  <g id="patch_1">
   <path d="M 0 537.368223 
L 791.118 537.368223 
L 791.118 0 
L 0 0 
z
" style="fill:#ffffff;"/>
  </g>
  <g id="axes_1">
   <g id="patch_2">
    <path d="M 71.39 489.903223 
L 605.559648 489.903223 
L 605.559648 7.2 
L 71.39 7.2 
z
" style="fill:#ffffff;"/>
   </g>
   <g id="matplotlib.axis_1">
    <g id="xtick_1">
     <g id="text_1">
      <!-- 1506-1 -->
      <defs>
       <path d="M 37.25 0 
L 28.46875 0 
L 28.46875 56 
Q 25.296875 52.984375 20.140625 49.953125 
Q 14.984375 46.921875 10.890625 45.40625 
L 10.890625 53.90625 
Q 18.265625 57.375 23.78125 62.296875 
Q 29.296875 67.234375 31.59375 71.875 
L 37.25 71.875 
z
" id="ArialMT-49"/>
       <path d="M 4.15625 18.75 
L 13.375 19.53125 
Q 14.40625 12.796875 18.140625 9.390625 
Q 21.875 6 27.15625 6 
Q 33.5 6 37.890625 10.78125 
Q 42.28125 15.578125 42.28125 23.484375 
Q 42.28125 31 38.0625 35.34375 
Q 33.84375 39.703125 27 39.703125 
Q 22.75 39.703125 19.328125 37.765625 
Q 15.921875 35.84375 13.96875 32.765625 
L 5.71875 33.84375 
L 12.640625 70.609375 
L 48.25 70.609375 
L 48.25 62.203125 
L 19.671875 62.203125 
L 15.828125 42.96875 
Q 22.265625 47.46875 29.34375 47.46875 
Q 38.71875 47.46875 45.15625 40.96875 
Q 51.609375 34.46875 51.609375 24.265625 
Q 51.609375 14.546875 45.953125 7.46875 
Q 39.0625 -1.21875 27.15625 -1.21875 
Q 17.390625 -1.21875 11.203125 4.25 
Q 5.03125 9.71875 4.15625 18.75 
z
" id="ArialMT-53"/>
       <path d="M 4.15625 35.296875 
Q 4.15625 48 6.765625 55.734375 
Q 9.375 63.484375 14.515625 67.671875 
Q 19.671875 71.875 27.484375 71.875 
Q 33.25 71.875 37.59375 69.546875 
Q 41.9375 67.234375 44.765625 62.859375 
Q 47.609375 58.5 49.21875 52.21875 
Q 50.828125 45.953125 50.828125 35.296875 
Q 50.828125 22.703125 48.234375 14.96875 
Q 45.65625 7.234375 40.5 3 
Q 35.359375 -1.21875 27.484375 -1.21875 
Q 17.140625 -1.21875 11.234375 6.203125 
Q 4.15625 15.140625 4.15625 35.296875 
z
M 13.1875 35.296875 
Q 13.1875 17.671875 17.3125 11.828125 
Q 21.4375 6 27.484375 6 
Q 33.546875 6 37.671875 11.859375 
Q 41.796875 17.71875 41.796875 35.296875 
Q 41.796875 52.984375 37.671875 58.78125 
Q 33.546875 64.59375 27.390625 64.59375 
Q 21.34375 64.59375 17.71875 59.46875 
Q 13.1875 52.9375 13.1875 35.296875 
z
" id="ArialMT-48"/>
       <path d="M 49.75 54.046875 
L 41.015625 53.375 
Q 39.84375 58.546875 37.703125 60.890625 
Q 34.125 64.65625 28.90625 64.65625 
Q 24.703125 64.65625 21.53125 62.3125 
Q 17.390625 59.28125 14.984375 53.46875 
Q 12.59375 47.65625 12.5 36.921875 
Q 15.671875 41.75 20.265625 44.09375 
Q 24.859375 46.4375 29.890625 46.4375 
Q 38.671875 46.4375 44.84375 39.96875 
Q 51.03125 33.5 51.03125 23.25 
Q 51.03125 16.5 48.125 10.71875 
Q 45.21875 4.9375 40.140625 1.859375 
Q 35.0625 -1.21875 28.609375 -1.21875 
Q 17.625 -1.21875 10.6875 6.859375 
Q 3.765625 14.9375 3.765625 33.5 
Q 3.765625 54.25 11.421875 63.671875 
Q 18.109375 71.875 29.4375 71.875 
Q 37.890625 71.875 43.28125 67.140625 
Q 48.6875 62.40625 49.75 54.046875 
z
M 13.875 23.1875 
Q 13.875 18.65625 15.796875 14.5 
Q 17.71875 10.359375 21.1875 8.171875 
Q 24.65625 6 28.46875 6 
Q 34.03125 6 38.03125 10.484375 
Q 42.046875 14.984375 42.046875 22.703125 
Q 42.046875 30.125 38.078125 34.390625 
Q 34.125 38.671875 28.125 38.671875 
Q 22.171875 38.671875 18.015625 34.390625 
Q 13.875 30.125 13.875 23.1875 
z
" id="ArialMT-54"/>
       <path d="M 3.171875 21.484375 
L 3.171875 30.328125 
L 30.171875 30.328125 
L 30.171875 21.484375 
z
" id="ArialMT-45"/>
      </defs>
      <g style="fill:#262626;" transform="translate(99.899465 508.355723)scale(0.16 -0.16)">
       <use xlink:href="#ArialMT-49"/>
       <use x="55.615234" xlink:href="#ArialMT-53"/>
       <use x="111.230469" xlink:href="#ArialMT-48"/>
       <use x="166.845703" xlink:href="#ArialMT-54"/>
       <use x="222.460938" xlink:href="#ArialMT-45"/>
       <use x="255.761719" xlink:href="#ArialMT-49"/>
      </g>
     </g>
    </g>
    <g id="xtick_2">
     <g id="text_2">
      <!-- 1506-2 -->
      <defs>
       <path d="M 50.34375 8.453125 
L 50.34375 0 
L 3.03125 0 
Q 2.9375 3.171875 4.046875 6.109375 
Q 5.859375 10.9375 9.828125 15.625 
Q 13.8125 20.3125 21.34375 26.46875 
Q 33.015625 36.03125 37.109375 41.625 
Q 41.21875 47.21875 41.21875 52.203125 
Q 41.21875 57.421875 37.46875 61 
Q 33.734375 64.59375 27.734375 64.59375 
Q 21.390625 64.59375 17.578125 60.78125 
Q 13.765625 56.984375 13.71875 50.25 
L 4.6875 51.171875 
Q 5.609375 61.28125 11.65625 66.578125 
Q 17.71875 71.875 27.9375 71.875 
Q 38.234375 71.875 44.234375 66.15625 
Q 50.25 60.453125 50.25 52 
Q 50.25 47.703125 48.484375 43.546875 
Q 46.734375 39.40625 42.65625 34.8125 
Q 38.578125 30.21875 29.109375 22.21875 
Q 21.1875 15.578125 18.9375 13.203125 
Q 16.703125 10.84375 15.234375 8.453125 
z
" id="ArialMT-50"/>
      </defs>
      <g style="fill:#262626;" transform="translate(206.733394 508.355723)scale(0.16 -0.16)">
       <use xlink:href="#ArialMT-49"/>
       <use x="55.615234" xlink:href="#ArialMT-53"/>
       <use x="111.230469" xlink:href="#ArialMT-48"/>
       <use x="166.845703" xlink:href="#ArialMT-54"/>
       <use x="222.460938" xlink:href="#ArialMT-45"/>
       <use x="255.761719" xlink:href="#ArialMT-50"/>
      </g>
     </g>
    </g>
    <g id="xtick_3">
     <g id="text_3">
      <!-- 1950-1 -->
      <defs>
       <path d="M 5.46875 16.546875 
L 13.921875 17.328125 
Q 14.984375 11.375 18.015625 8.6875 
Q 21.046875 6 25.78125 6 
Q 29.828125 6 32.875 7.859375 
Q 35.9375 9.71875 37.890625 12.8125 
Q 39.84375 15.921875 41.15625 21.1875 
Q 42.484375 26.46875 42.484375 31.9375 
Q 42.484375 32.515625 42.4375 33.6875 
Q 39.796875 29.5 35.234375 26.875 
Q 30.671875 24.265625 25.34375 24.265625 
Q 16.453125 24.265625 10.296875 30.703125 
Q 4.15625 37.15625 4.15625 47.703125 
Q 4.15625 58.59375 10.578125 65.234375 
Q 17 71.875 26.65625 71.875 
Q 33.640625 71.875 39.421875 68.109375 
Q 45.21875 64.359375 48.21875 57.390625 
Q 51.21875 50.4375 51.21875 37.25 
Q 51.21875 23.53125 48.234375 15.40625 
Q 45.265625 7.28125 39.375 3.03125 
Q 33.5 -1.21875 25.59375 -1.21875 
Q 17.1875 -1.21875 11.859375 3.4375 
Q 6.546875 8.109375 5.46875 16.546875 
z
M 41.453125 48.140625 
Q 41.453125 55.71875 37.421875 60.15625 
Q 33.40625 64.59375 27.734375 64.59375 
Q 21.875 64.59375 17.53125 59.8125 
Q 13.1875 55.03125 13.1875 47.40625 
Q 13.1875 40.578125 17.3125 36.296875 
Q 21.4375 32.03125 27.484375 32.03125 
Q 33.59375 32.03125 37.515625 36.296875 
Q 41.453125 40.578125 41.453125 48.140625 
z
" id="ArialMT-57"/>
      </defs>
      <g style="fill:#262626;" transform="translate(313.567324 508.355723)scale(0.16 -0.16)">
       <use xlink:href="#ArialMT-49"/>
       <use x="55.615234" xlink:href="#ArialMT-57"/>
       <use x="111.230469" xlink:href="#ArialMT-53"/>
       <use x="166.845703" xlink:href="#ArialMT-48"/>
       <use x="222.460938" xlink:href="#ArialMT-45"/>
       <use x="255.761719" xlink:href="#ArialMT-49"/>
      </g>
     </g>
    </g>
    <g id="xtick_4">
     <g id="text_4">
      <!-- 1950-2 -->
      <g style="fill:#262626;" transform="translate(420.401254 508.355723)scale(0.16 -0.16)">
       <use xlink:href="#ArialMT-49"/>
       <use x="55.615234" xlink:href="#ArialMT-57"/>
       <use x="111.230469" xlink:href="#ArialMT-53"/>
       <use x="166.845703" xlink:href="#ArialMT-48"/>
       <use x="222.460938" xlink:href="#ArialMT-45"/>
       <use x="255.761719" xlink:href="#ArialMT-50"/>
      </g>
     </g>
    </g>
    <g id="xtick_5">
     <g id="text_5">
      <!-- 0529-1 -->
      <g style="fill:#262626;" transform="translate(527.235183 508.355723)scale(0.16 -0.16)">
       <use xlink:href="#ArialMT-48"/>
       <use x="55.615234" xlink:href="#ArialMT-53"/>
       <use x="111.230469" xlink:href="#ArialMT-50"/>
       <use x="166.845703" xlink:href="#ArialMT-57"/>
       <use x="222.460938" xlink:href="#ArialMT-45"/>
       <use x="255.761719" xlink:href="#ArialMT-49"/>
      </g>
     </g>
    </g>
    <g id="text_6">
     <!-- Counter id -->
     <defs>
      <path d="M 58.796875 25.09375 
L 68.265625 22.703125 
Q 65.28125 11.03125 57.546875 4.90625 
Q 49.8125 -1.21875 38.625 -1.21875 
Q 27.046875 -1.21875 19.796875 3.484375 
Q 12.546875 8.203125 8.765625 17.140625 
Q 4.984375 26.078125 4.984375 36.328125 
Q 4.984375 47.515625 9.25 55.828125 
Q 13.53125 64.15625 21.40625 68.46875 
Q 29.296875 72.796875 38.765625 72.796875 
Q 49.515625 72.796875 56.828125 67.328125 
Q 64.15625 61.859375 67.046875 51.953125 
L 57.71875 49.75 
Q 55.21875 57.5625 50.484375 61.125 
Q 45.75 64.703125 38.578125 64.703125 
Q 30.328125 64.703125 24.78125 60.734375 
Q 19.234375 56.78125 16.984375 50.109375 
Q 14.75 43.453125 14.75 36.375 
Q 14.75 27.25 17.40625 20.4375 
Q 20.0625 13.625 25.671875 10.25 
Q 31.296875 6.890625 37.84375 6.890625 
Q 45.796875 6.890625 51.3125 11.46875 
Q 56.84375 16.0625 58.796875 25.09375 
z
" id="ArialMT-67"/>
      <path d="M 3.328125 25.921875 
Q 3.328125 40.328125 11.328125 47.265625 
Q 18.015625 53.03125 27.640625 53.03125 
Q 38.328125 53.03125 45.109375 46.015625 
Q 51.90625 39.015625 51.90625 26.65625 
Q 51.90625 16.65625 48.90625 10.90625 
Q 45.90625 5.171875 40.15625 2 
Q 34.421875 -1.171875 27.640625 -1.171875 
Q 16.75 -1.171875 10.03125 5.8125 
Q 3.328125 12.796875 3.328125 25.921875 
z
M 12.359375 25.921875 
Q 12.359375 15.96875 16.703125 11.015625 
Q 21.046875 6.0625 27.640625 6.0625 
Q 34.1875 6.0625 38.53125 11.03125 
Q 42.875 16.015625 42.875 26.21875 
Q 42.875 35.84375 38.5 40.796875 
Q 34.125 45.75 27.640625 45.75 
Q 21.046875 45.75 16.703125 40.8125 
Q 12.359375 35.890625 12.359375 25.921875 
z
" id="ArialMT-111"/>
      <path d="M 40.578125 0 
L 40.578125 7.625 
Q 34.515625 -1.171875 24.125 -1.171875 
Q 19.53125 -1.171875 15.546875 0.578125 
Q 11.578125 2.34375 9.640625 5 
Q 7.71875 7.671875 6.9375 11.53125 
Q 6.390625 14.109375 6.390625 19.734375 
L 6.390625 51.859375 
L 15.1875 51.859375 
L 15.1875 23.09375 
Q 15.1875 16.21875 15.71875 13.8125 
Q 16.546875 10.359375 19.234375 8.375 
Q 21.921875 6.390625 25.875 6.390625 
Q 29.828125 6.390625 33.296875 8.421875 
Q 36.765625 10.453125 38.203125 13.9375 
Q 39.65625 17.4375 39.65625 24.078125 
L 39.65625 51.859375 
L 48.4375 51.859375 
L 48.4375 0 
z
" id="ArialMT-117"/>
      <path d="M 6.59375 0 
L 6.59375 51.859375 
L 14.5 51.859375 
L 14.5 44.484375 
Q 20.21875 53.03125 31 53.03125 
Q 35.6875 53.03125 39.625 51.34375 
Q 43.5625 49.65625 45.515625 46.921875 
Q 47.46875 44.1875 48.25 40.4375 
Q 48.734375 37.984375 48.734375 31.890625 
L 48.734375 0 
L 39.9375 0 
L 39.9375 31.546875 
Q 39.9375 36.921875 38.90625 39.578125 
Q 37.890625 42.234375 35.28125 43.8125 
Q 32.671875 45.40625 29.15625 45.40625 
Q 23.53125 45.40625 19.453125 41.84375 
Q 15.375 38.28125 15.375 28.328125 
L 15.375 0 
z
" id="ArialMT-110"/>
      <path d="M 25.78125 7.859375 
L 27.046875 0.09375 
Q 23.34375 -0.6875 20.40625 -0.6875 
Q 15.625 -0.6875 12.984375 0.828125 
Q 10.359375 2.34375 9.28125 4.8125 
Q 8.203125 7.28125 8.203125 15.1875 
L 8.203125 45.015625 
L 1.765625 45.015625 
L 1.765625 51.859375 
L 8.203125 51.859375 
L 8.203125 64.703125 
L 16.9375 69.96875 
L 16.9375 51.859375 
L 25.78125 51.859375 
L 25.78125 45.015625 
L 16.9375 45.015625 
L 16.9375 14.703125 
Q 16.9375 10.9375 17.40625 9.859375 
Q 17.875 8.796875 18.921875 8.15625 
Q 19.96875 7.515625 21.921875 7.515625 
Q 23.390625 7.515625 25.78125 7.859375 
z
" id="ArialMT-116"/>
      <path d="M 42.09375 16.703125 
L 51.171875 15.578125 
Q 49.03125 7.625 43.21875 3.21875 
Q 37.40625 -1.171875 28.375 -1.171875 
Q 17 -1.171875 10.328125 5.828125 
Q 3.65625 12.84375 3.65625 25.484375 
Q 3.65625 38.578125 10.390625 45.796875 
Q 17.140625 53.03125 27.875 53.03125 
Q 38.28125 53.03125 44.875 45.953125 
Q 51.46875 38.875 51.46875 26.03125 
Q 51.46875 25.25 51.421875 23.6875 
L 12.75 23.6875 
Q 13.234375 15.140625 17.578125 10.59375 
Q 21.921875 6.0625 28.421875 6.0625 
Q 33.25 6.0625 36.671875 8.59375 
Q 40.09375 11.140625 42.09375 16.703125 
z
M 13.234375 30.90625 
L 42.1875 30.90625 
Q 41.609375 37.453125 38.875 40.71875 
Q 34.671875 45.796875 27.984375 45.796875 
Q 21.921875 45.796875 17.796875 41.75 
Q 13.671875 37.703125 13.234375 30.90625 
z
" id="ArialMT-101"/>
      <path d="M 6.5 0 
L 6.5 51.859375 
L 14.40625 51.859375 
L 14.40625 44 
Q 17.4375 49.515625 20 51.265625 
Q 22.5625 53.03125 25.640625 53.03125 
Q 30.078125 53.03125 34.671875 50.203125 
L 31.640625 42.046875 
Q 28.421875 43.953125 25.203125 43.953125 
Q 22.3125 43.953125 20.015625 42.21875 
Q 17.71875 40.484375 16.75 37.40625 
Q 15.28125 32.71875 15.28125 27.15625 
L 15.28125 0 
z
" id="ArialMT-114"/>
      <path id="ArialMT-32"/>
      <path d="M 6.640625 61.46875 
L 6.640625 71.578125 
L 15.4375 71.578125 
L 15.4375 61.46875 
z
M 6.640625 0 
L 6.640625 51.859375 
L 15.4375 51.859375 
L 15.4375 0 
z
" id="ArialMT-105"/>
      <path d="M 40.234375 0 
L 40.234375 6.546875 
Q 35.296875 -1.171875 25.734375 -1.171875 
Q 19.53125 -1.171875 14.328125 2.25 
Q 9.125 5.671875 6.265625 11.796875 
Q 3.421875 17.921875 3.421875 25.875 
Q 3.421875 33.640625 6 39.96875 
Q 8.59375 46.296875 13.765625 49.65625 
Q 18.953125 53.03125 25.34375 53.03125 
Q 30.03125 53.03125 33.6875 51.046875 
Q 37.359375 49.078125 39.65625 45.90625 
L 39.65625 71.578125 
L 48.390625 71.578125 
L 48.390625 0 
z
M 12.453125 25.875 
Q 12.453125 15.921875 16.640625 10.984375 
Q 20.84375 6.0625 26.5625 6.0625 
Q 32.328125 6.0625 36.34375 10.765625 
Q 40.375 15.484375 40.375 25.140625 
Q 40.375 35.796875 36.265625 40.765625 
Q 32.171875 45.75 26.171875 45.75 
Q 20.3125 45.75 16.375 40.96875 
Q 12.453125 36.1875 12.453125 25.875 
z
" id="ArialMT-100"/>
     </defs>
     <g style="fill:#262626;" transform="translate(301.567324 526.988223)scale(0.16 -0.16)">
      <use xlink:href="#ArialMT-67"/>
      <use x="72.216797" xlink:href="#ArialMT-111"/>
      <use x="127.832031" xlink:href="#ArialMT-117"/>
      <use x="183.447266" xlink:href="#ArialMT-110"/>
      <use x="239.0625" xlink:href="#ArialMT-116"/>
      <use x="266.845703" xlink:href="#ArialMT-101"/>
      <use x="322.460938" xlink:href="#ArialMT-114"/>
      <use x="355.761719" xlink:href="#ArialMT-32"/>
      <use x="383.544922" xlink:href="#ArialMT-105"/>
      <use x="405.761719" xlink:href="#ArialMT-100"/>
     </g>
    </g>
   </g>
   <g id="matplotlib.axis_2">
    <g id="ytick_1">
     <g id="text_7">
      <!-- 0 -->
      <g style="fill:#262626;" transform="translate(55.4925 471.876391)scale(0.16 -0.16)">
       <use xlink:href="#ArialMT-48"/>
      </g>
     </g>
    </g>
    <g id="ytick_2">
     <g id="text_8">
      <!-- 200 -->
      <g style="fill:#262626;" transform="translate(37.6975 381.465635)scale(0.16 -0.16)">
       <use xlink:href="#ArialMT-50"/>
       <use x="55.615234" xlink:href="#ArialMT-48"/>
       <use x="111.230469" xlink:href="#ArialMT-48"/>
      </g>
     </g>
    </g>
    <g id="ytick_3">
     <g id="text_9">
      <!-- 400 -->
      <defs>
       <path d="M 32.328125 0 
L 32.328125 17.140625 
L 1.265625 17.140625 
L 1.265625 25.203125 
L 33.9375 71.578125 
L 41.109375 71.578125 
L 41.109375 25.203125 
L 50.78125 25.203125 
L 50.78125 17.140625 
L 41.109375 17.140625 
L 41.109375 0 
z
M 32.328125 25.203125 
L 32.328125 57.46875 
L 9.90625 25.203125 
z
" id="ArialMT-52"/>
      </defs>
      <g style="fill:#262626;" transform="translate(37.6975 291.05488)scale(0.16 -0.16)">
       <use xlink:href="#ArialMT-52"/>
       <use x="55.615234" xlink:href="#ArialMT-48"/>
       <use x="111.230469" xlink:href="#ArialMT-48"/>
      </g>
     </g>
    </g>
    <g id="ytick_4">
     <g id="text_10">
      <!-- 600 -->
      <g style="fill:#262626;" transform="translate(37.6975 200.644125)scale(0.16 -0.16)">
       <use xlink:href="#ArialMT-54"/>
       <use x="55.615234" xlink:href="#ArialMT-48"/>
       <use x="111.230469" xlink:href="#ArialMT-48"/>
      </g>
     </g>
    </g>
    <g id="ytick_5">
     <g id="text_11">
      <!-- 800 -->
      <defs>
       <path d="M 17.671875 38.8125 
Q 12.203125 40.828125 9.5625 44.53125 
Q 6.9375 48.25 6.9375 53.421875 
Q 6.9375 61.234375 12.546875 66.546875 
Q 18.171875 71.875 27.484375 71.875 
Q 36.859375 71.875 42.578125 66.421875 
Q 48.296875 60.984375 48.296875 53.171875 
Q 48.296875 48.1875 45.671875 44.5 
Q 43.0625 40.828125 37.75 38.8125 
Q 44.34375 36.671875 47.78125 31.875 
Q 51.21875 27.09375 51.21875 20.453125 
Q 51.21875 11.28125 44.71875 5.03125 
Q 38.234375 -1.21875 27.640625 -1.21875 
Q 17.046875 -1.21875 10.546875 5.046875 
Q 4.046875 11.328125 4.046875 20.703125 
Q 4.046875 27.6875 7.59375 32.390625 
Q 11.140625 37.109375 17.671875 38.8125 
z
M 15.921875 53.71875 
Q 15.921875 48.640625 19.1875 45.40625 
Q 22.46875 42.1875 27.6875 42.1875 
Q 32.765625 42.1875 36.015625 45.375 
Q 39.265625 48.578125 39.265625 53.21875 
Q 39.265625 58.0625 35.90625 61.359375 
Q 32.5625 64.65625 27.59375 64.65625 
Q 22.5625 64.65625 19.234375 61.421875 
Q 15.921875 58.203125 15.921875 53.71875 
z
M 13.09375 20.65625 
Q 13.09375 16.890625 14.875 13.375 
Q 16.65625 9.859375 20.171875 7.921875 
Q 23.6875 6 27.734375 6 
Q 34.03125 6 38.125 10.046875 
Q 42.234375 14.109375 42.234375 20.359375 
Q 42.234375 26.703125 38.015625 30.859375 
Q 33.796875 35.015625 27.4375 35.015625 
Q 21.234375 35.015625 17.15625 30.90625 
Q 13.09375 26.8125 13.09375 20.65625 
z
" id="ArialMT-56"/>
      </defs>
      <g style="fill:#262626;" transform="translate(37.6975 110.233369)scale(0.16 -0.16)">
       <use xlink:href="#ArialMT-56"/>
       <use x="55.615234" xlink:href="#ArialMT-48"/>
       <use x="111.230469" xlink:href="#ArialMT-48"/>
      </g>
     </g>
    </g>
    <g id="ytick_6">
     <g id="text_12">
      <!-- 1000 -->
      <g style="fill:#262626;" transform="translate(28.8 19.822614)scale(0.16 -0.16)">
       <use xlink:href="#ArialMT-49"/>
       <use x="55.615234" xlink:href="#ArialMT-48"/>
       <use x="111.230469" xlink:href="#ArialMT-48"/>
       <use x="166.845703" xlink:href="#ArialMT-48"/>
      </g>
     </g>
    </g>
    <g id="text_13">
     <!-- Count [$h^{-1}$] -->
     <defs>
      <path d="M 6.78125 -19.875 
L 6.78125 71.578125 
L 26.171875 71.578125 
L 26.171875 64.3125 
L 15.578125 64.3125 
L 15.578125 -12.59375 
L 26.171875 -12.59375 
L 26.171875 -19.875 
z
" id="ArialMT-91"/>
      <path d="M 55.71875 33.015625 
L 49.3125 0 
L 40.28125 0 
L 46.6875 32.671875 
Q 47.125 34.96875 47.359375 36.71875 
Q 47.609375 38.484375 47.609375 39.5 
Q 47.609375 43.609375 45.015625 45.890625 
Q 42.4375 48.1875 37.796875 48.1875 
Q 30.5625 48.1875 25.265625 43.296875 
Q 19.96875 38.421875 18.40625 30.328125 
L 12.5 0 
L 3.515625 0 
L 18.3125 75.984375 
L 27.296875 75.984375 
L 21.484375 46.09375 
Q 24.90625 50.6875 30.21875 53.34375 
Q 35.546875 56 41.40625 56 
Q 48.640625 56 52.609375 52.09375 
Q 56.59375 48.1875 56.59375 41.109375 
Q 56.59375 39.359375 56.375 37.359375 
Q 56.15625 35.359375 55.71875 33.015625 
z
" id="DejaVuSans-Oblique-104"/>
      <path d="M 10.59375 35.5 
L 73.1875 35.5 
L 73.1875 27.203125 
L 10.59375 27.203125 
z
" id="DejaVuSans-8722"/>
      <path d="M 12.40625 8.296875 
L 28.515625 8.296875 
L 28.515625 63.921875 
L 10.984375 60.40625 
L 10.984375 69.390625 
L 28.421875 72.90625 
L 38.28125 72.90625 
L 38.28125 8.296875 
L 54.390625 8.296875 
L 54.390625 0 
L 12.40625 0 
z
" id="DejaVuSans-49"/>
      <path d="M 21.296875 -19.875 
L 1.90625 -19.875 
L 1.90625 -12.59375 
L 12.5 -12.59375 
L 12.5 64.3125 
L 1.90625 64.3125 
L 1.90625 71.578125 
L 21.296875 71.578125 
z
" id="ArialMT-93"/>
     </defs>
     <g style="fill:#262626;" transform="translate(21.6 290.711612)rotate(-90)scale(0.16 -0.16)">
      <use transform="translate(0 0.684375)" xlink:href="#ArialMT-67"/>
      <use transform="translate(72.216797 0.684375)" xlink:href="#ArialMT-111"/>
      <use transform="translate(127.832031 0.684375)" xlink:href="#ArialMT-117"/>
      <use transform="translate(183.447266 0.684375)" xlink:href="#ArialMT-110"/>
      <use transform="translate(239.0625 0.684375)" xlink:href="#ArialMT-116"/>
      <use transform="translate(266.845703 0.684375)" xlink:href="#ArialMT-32"/>
      <use transform="translate(294.628906 0.684375)" xlink:href="#ArialMT-91"/>
      <use transform="translate(322.412109 0.684375)" xlink:href="#DejaVuSans-Oblique-104"/>
      <use transform="translate(393.238724 38.965625)scale(0.7)" xlink:href="#DejaVuSans-8722"/>
      <use transform="translate(451.891068 38.965625)scale(0.7)" xlink:href="#DejaVuSans-49"/>
      <use transform="translate(499.161576 0.684375)" xlink:href="#ArialMT-93"/>
     </g>
    </g>
   </g>
   <g id="PolyCollection_1">
    <defs>
     <path d="M 105.673763 -74.013091 
L 101.206594 -74.013091 
L 100.796532 -75.70257 
L 100.369947 -77.39205 
L 99.935028 -79.08153 
L 99.498007 -80.771009 
L 99.062042 -82.460489 
L 98.626635 -84.149968 
L 98.187776 -85.839448 
L 97.738832 -87.528928 
L 97.272003 -89.218407 
L 96.780009 -90.907887 
L 96.257587 -92.597366 
L 95.702396 -94.286846 
L 95.115087 -95.976326 
L 94.498515 -97.665805 
L 93.856316 -99.355285 
L 93.191273 -101.044764 
L 92.503955 -102.734244 
L 91.792083 -104.423724 
L 91.050893 -106.113203 
L 90.27451 -107.802683 
L 89.458137 -109.492162 
L 88.600616 -111.181642 
L 87.706872 -112.871122 
L 86.789679 -114.560601 
L 85.870351 -116.250081 
L 84.978048 -117.93956 
L 84.147657 -119.62904 
L 83.416416 -121.318519 
L 82.819696 -123.007999 
L 82.38656 -124.697479 
L 82.135834 -126.386958 
L 82.073393 -128.076438 
L 82.191222 -129.765917 
L 82.468485 -131.455397 
L 82.87443 -133.144877 
L 83.37261 -134.834356 
L 83.925595 -136.523836 
L 84.499305 -138.213315 
L 85.066218 -139.902795 
L 85.607029 -141.592275 
L 86.110735 -143.281754 
L 86.573479 -144.971234 
L 86.99671 -146.660713 
L 87.385265 -148.350193 
L 87.74585 -150.039673 
L 88.08614 -151.729152 
L 88.414474 -153.418632 
L 88.739888 -155.108111 
L 89.072163 -156.797591 
L 89.421575 -158.487071 
L 89.798204 -160.17655 
L 90.210829 -161.86603 
L 90.665626 -163.555509 
L 91.164991 -165.244989 
L 91.706806 -166.934469 
L 92.284401 -168.623948 
L 92.887261 -170.313428 
L 93.502369 -172.002907 
L 94.115911 -173.692387 
L 94.715006 -175.381867 
L 95.289124 -177.071346 
L 95.830978 -178.760826 
L 96.336796 -180.450305 
L 96.806046 -182.139785 
L 97.240737 -183.829265 
L 97.644524 -185.518744 
L 98.021753 -187.208224 
L 98.376613 -188.897703 
L 98.712454 -190.587183 
L 99.031331 -192.276663 
L 99.333787 -193.966142 
L 99.618904 -195.655622 
L 99.884587 -197.345101 
L 100.128064 -199.034581 
L 100.34651 -200.724061 
L 100.537674 -202.41354 
L 100.700397 -204.10302 
L 100.834916 -205.792499 
L 100.942899 -207.481979 
L 101.027239 -209.171458 
L 101.091683 -210.860938 
L 101.140399 -212.550418 
L 101.177605 -214.239897 
L 101.207325 -215.929377 
L 101.233301 -217.618856 
L 101.259034 -219.308336 
L 101.287888 -220.997816 
L 101.323165 -222.687295 
L 101.368104 -224.376775 
L 101.425734 -226.066254 
L 101.498621 -227.755734 
L 101.588525 -229.445214 
L 101.696077 -231.134693 
L 101.820529 -232.824173 
L 101.959683 -234.513652 
L 102.110009 -236.203132 
L 102.266962 -237.892612 
L 102.425435 -239.582091 
L 102.580282 -241.271571 
L 104.300076 -241.271571 
L 104.300076 -241.271571 
L 104.454923 -239.582091 
L 104.613396 -237.892612 
L 104.770349 -236.203132 
L 104.920675 -234.513652 
L 105.059829 -232.824173 
L 105.184281 -231.134693 
L 105.291833 -229.445214 
L 105.381737 -227.755734 
L 105.454624 -226.066254 
L 105.512254 -224.376775 
L 105.557193 -222.687295 
L 105.59247 -220.997816 
L 105.621323 -219.308336 
L 105.647057 -217.618856 
L 105.673032 -215.929377 
L 105.702753 -214.239897 
L 105.739959 -212.550418 
L 105.788675 -210.860938 
L 105.853119 -209.171458 
L 105.937459 -207.481979 
L 106.045442 -205.792499 
L 106.179961 -204.10302 
L 106.342684 -202.41354 
L 106.533848 -200.724061 
L 106.752294 -199.034581 
L 106.995771 -197.345101 
L 107.261454 -195.655622 
L 107.54657 -193.966142 
L 107.849027 -192.276663 
L 108.167904 -190.587183 
L 108.503745 -188.897703 
L 108.858605 -187.208224 
L 109.235834 -185.518744 
L 109.639621 -183.829265 
L 110.074312 -182.139785 
L 110.543561 -180.450305 
L 111.04938 -178.760826 
L 111.591234 -177.071346 
L 112.165352 -175.381867 
L 112.764447 -173.692387 
L 113.377989 -172.002907 
L 113.993096 -170.313428 
L 114.595956 -168.623948 
L 115.173552 -166.934469 
L 115.715367 -165.244989 
L 116.214731 -163.555509 
L 116.669529 -161.86603 
L 117.082154 -160.17655 
L 117.458782 -158.487071 
L 117.808195 -156.797591 
L 118.14047 -155.108111 
L 118.465884 -153.418632 
L 118.794218 -151.729152 
L 119.134508 -150.039673 
L 119.495092 -148.350193 
L 119.883648 -146.660713 
L 120.306879 -144.971234 
L 120.769623 -143.281754 
L 121.273329 -141.592275 
L 121.81414 -139.902795 
L 122.381052 -138.213315 
L 122.954763 -136.523836 
L 123.507748 -134.834356 
L 124.005928 -133.144877 
L 124.411873 -131.455397 
L 124.689135 -129.765917 
L 124.806965 -128.076438 
L 124.744523 -126.386958 
L 124.493798 -124.697479 
L 124.060662 -123.007999 
L 123.463942 -121.318519 
L 122.732701 -119.62904 
L 121.90231 -117.93956 
L 121.010007 -116.250081 
L 120.090679 -114.560601 
L 119.173486 -112.871122 
L 118.279741 -111.181642 
L 117.422221 -109.492162 
L 116.605848 -107.802683 
L 115.829465 -106.113203 
L 115.088275 -104.423724 
L 114.376403 -102.734244 
L 113.689084 -101.044764 
L 113.024041 -99.355285 
L 112.381843 -97.665805 
L 111.76527 -95.976326 
L 111.177962 -94.286846 
L 110.622771 -92.597366 
L 110.100349 -90.907887 
L 109.608355 -89.218407 
L 109.141526 -87.528928 
L 108.692582 -85.839448 
L 108.253723 -84.149968 
L 107.818316 -82.460489 
L 107.382351 -80.771009 
L 106.94533 -79.08153 
L 106.510411 -77.39205 
L 106.083826 -75.70257 
L 105.673763 -74.013091 
z
" id="m85ff08a9ee" style="stroke:#141414;stroke-width:1.5;"/>
    </defs>
    <g clip-path="url(#pea786904a8)">
     <use style="fill:#083c1d;stroke:#141414;stroke-width:1.5;" x="0" xlink:href="#m85ff08a9ee" y="537.368223"/>
    </g>
   </g>
   <g id="PolyCollection_2">
    <defs>
     <path d="M 147.986149 -73.819831 
L 144.361352 -73.819831 
L 144.068084 -75.561684 
L 143.752023 -77.303536 
L 143.411187 -79.045389 
L 143.042667 -80.787242 
L 142.643083 -82.529094 
L 142.209264 -84.270947 
L 141.739034 -86.0128 
L 141.231964 -87.754653 
L 140.689926 -89.496505 
L 140.117347 -91.238358 
L 139.521065 -92.980211 
L 138.909818 -94.722063 
L 138.29341 -96.463916 
L 137.681705 -98.205769 
L 137.083608 -99.947621 
L 136.506181 -101.689474 
L 135.954054 -103.431327 
L 135.429194 -105.17318 
L 134.931048 -106.915032 
L 134.457016 -108.656885 
L 134.003132 -110.398738 
L 133.564827 -112.14059 
L 133.137626 -113.882443 
L 132.717673 -115.624296 
L 132.302038 -117.366149 
L 131.888799 -119.108001 
L 131.476986 -120.849854 
L 131.066488 -122.591707 
L 130.658041 -124.333559 
L 130.253386 -126.075412 
L 129.855613 -127.817265 
L 129.469634 -129.559118 
L 129.102641 -131.30097 
L 128.764365 -133.042823 
L 128.466956 -134.784676 
L 128.224342 -136.526528 
L 128.051052 -138.268381 
L 127.960593 -140.010234 
L 127.963617 -141.752087 
L 128.066165 -143.493939 
L 128.268351 -145.235792 
L 128.56374 -146.977645 
L 128.939608 -148.719497 
L 129.378096 -150.46135 
L 129.858098 -152.203203 
L 130.357612 -153.945055 
L 130.856185 -155.686908 
L 131.337094 -157.428761 
L 131.788935 -159.170614 
L 132.206441 -160.912466 
L 132.590444 -162.654319 
L 132.947064 -164.396172 
L 133.286275 -166.138024 
L 133.620128 -167.879877 
L 133.960867 -169.62173 
L 134.319242 -171.363583 
L 134.703197 -173.105435 
L 135.117095 -174.847288 
L 135.561508 -176.589141 
L 136.03354 -178.330993 
L 136.52754 -180.072846 
L 137.036042 -181.814699 
L 137.550754 -183.556552 
L 138.063421 -185.298404 
L 138.566465 -187.040257 
L 139.053371 -188.78211 
L 139.51884 -190.523962 
L 139.958769 -192.265815 
L 140.370153 -194.007668 
L 140.750963 -195.749521 
L 141.100041 -197.491373 
L 141.417015 -199.233226 
L 141.702207 -200.975079 
L 141.95651 -202.716931 
L 142.181236 -204.458784 
L 142.377933 -206.200637 
L 142.548223 -207.942489 
L 142.693713 -209.684342 
L 142.816 -211.426195 
L 142.916788 -213.168048 
L 142.998077 -214.9099 
L 143.062371 -216.651753 
L 143.112817 -218.393606 
L 143.153216 -220.135458 
L 143.187903 -221.877311 
L 143.221483 -223.619164 
L 143.258508 -225.361017 
L 143.303159 -227.102869 
L 143.359004 -228.844722 
L 143.428855 -230.586575 
L 143.51474 -232.328427 
L 143.617925 -234.07028 
L 143.738951 -235.812133 
L 143.877628 -237.553986 
L 144.032983 -239.295838 
L 144.203174 -241.037691 
L 144.385422 -242.779544 
L 144.576026 -244.521396 
L 144.770499 -246.263249 
L 147.577003 -246.263249 
L 147.577003 -246.263249 
L 147.771476 -244.521396 
L 147.962079 -242.779544 
L 148.144327 -241.037691 
L 148.314518 -239.295838 
L 148.469873 -237.553986 
L 148.60855 -235.812133 
L 148.729576 -234.07028 
L 148.832761 -232.328427 
L 148.918646 -230.586575 
L 148.988498 -228.844722 
L 149.044342 -227.102869 
L 149.088994 -225.361017 
L 149.126018 -223.619164 
L 149.159598 -221.877311 
L 149.194285 -220.135458 
L 149.234685 -218.393606 
L 149.28513 -216.651753 
L 149.349425 -214.9099 
L 149.430714 -213.168048 
L 149.531501 -211.426195 
L 149.653788 -209.684342 
L 149.799278 -207.942489 
L 149.969569 -206.200637 
L 150.166265 -204.458784 
L 150.390991 -202.716931 
L 150.645295 -200.975079 
L 150.930486 -199.233226 
L 151.247461 -197.491373 
L 151.596539 -195.749521 
L 151.977348 -194.007668 
L 152.388732 -192.265815 
L 152.828661 -190.523962 
L 153.29413 -188.78211 
L 153.781037 -187.040257 
L 154.28408 -185.298404 
L 154.796747 -183.556552 
L 155.31146 -181.814699 
L 155.819962 -180.072846 
L 156.313961 -178.330993 
L 156.785993 -176.589141 
L 157.230407 -174.847288 
L 157.644304 -173.105435 
L 158.028259 -171.363583 
L 158.386634 -169.62173 
L 158.727374 -167.879877 
L 159.061226 -166.138024 
L 159.400438 -164.396172 
L 159.757057 -162.654319 
L 160.141061 -160.912466 
L 160.558566 -159.170614 
L 161.010408 -157.428761 
L 161.491317 -155.686908 
L 161.98989 -153.945055 
L 162.489403 -152.203203 
L 162.969405 -150.46135 
L 163.407893 -148.719497 
L 163.783762 -146.977645 
L 164.07915 -145.235792 
L 164.281336 -143.493939 
L 164.383885 -141.752087 
L 164.386908 -140.010234 
L 164.29645 -138.268381 
L 164.123159 -136.526528 
L 163.880545 -134.784676 
L 163.583136 -133.042823 
L 163.244861 -131.30097 
L 162.877868 -129.559118 
L 162.491889 -127.817265 
L 162.094116 -126.075412 
L 161.689461 -124.333559 
L 161.281013 -122.591707 
L 160.870515 -120.849854 
L 160.458703 -119.108001 
L 160.045464 -117.366149 
L 159.629828 -115.624296 
L 159.209875 -113.882443 
L 158.782674 -112.14059 
L 158.344369 -110.398738 
L 157.890486 -108.656885 
L 157.416454 -106.915032 
L 156.918308 -105.17318 
L 156.393447 -103.431327 
L 155.841321 -101.689474 
L 155.263894 -99.947621 
L 154.665796 -98.205769 
L 154.054092 -96.463916 
L 153.437683 -94.722063 
L 152.826436 -92.980211 
L 152.230155 -91.238358 
L 151.657576 -89.496505 
L 151.115538 -87.754653 
L 150.608467 -86.0128 
L 150.138237 -84.270947 
L 149.704418 -82.529094 
L 149.304834 -80.787242 
L 148.936314 -79.045389 
L 148.595478 -77.303536 
L 148.279417 -75.561684 
L 147.986149 -73.819831 
z
" id="md13f0a696a" style="stroke:#141414;stroke-width:1.5;"/>
    </defs>
    <g clip-path="url(#pea786904a8)">
     <use style="fill:#0e5f2f;stroke:#141414;stroke-width:1.5;" x="0" xlink:href="#md13f0a696a" y="537.368223"/>
    </g>
   </g>
   <g id="PolyCollection_3">
    <defs>
     <path d="M 212.583908 -72.658891 
L 207.964309 -72.658891 
L 207.433609 -74.450355 
L 206.869065 -76.241818 
L 206.284574 -78.033281 
L 205.691121 -79.824745 
L 205.094062 -81.616208 
L 204.491351 -83.407672 
L 203.873145 -85.199135 
L 203.222914 -86.990598 
L 202.519872 -88.782062 
L 201.742329 -90.573525 
L 200.871473 -92.364988 
L 199.895134 -94.156452 
L 198.811104 -95.947915 
L 197.629595 -97.739379 
L 196.374374 -99.530842 
L 195.082156 -101.322305 
L 193.799986 -103.113769 
L 192.580735 -104.905232 
L 191.477308 -106.696695 
L 190.536616 -108.488159 
L 189.794539 -110.279622 
L 189.272904 -112.071085 
L 188.978991 -113.862549 
L 188.907323 -115.654012 
L 189.042895 -117.445476 
L 189.364665 -119.236939 
L 189.84826 -121.028402 
L 190.467343 -122.819866 
L 191.19376 -124.611329 
L 191.997165 -126.402792 
L 192.84508 -128.194256 
L 193.704199 -129.985719 
L 194.543161 -131.777183 
L 195.336359 -133.568646 
L 196.067725 -135.360109 
L 196.733271 -137.151573 
L 197.341405 -138.943036 
L 197.910739 -140.734499 
L 198.465867 -142.525963 
L 199.032162 -144.317426 
L 199.630843 -146.10889 
L 200.275304 -147.900353 
L 200.969234 -149.691816 
L 201.706571 -151.48328 
L 202.472941 -153.274743 
L 203.248166 -155.066206 
L 204.009327 -156.85767 
L 204.733979 -158.649133 
L 205.403053 -160.440597 
L 206.003062 -162.23206 
L 206.527277 -164.023523 
L 206.975737 -165.814987 
L 207.354168 -167.60645 
L 207.672147 -169.397913 
L 207.940948 -171.189377 
L 208.171547 -172.98084 
L 208.373127 -174.772304 
L 208.552278 -176.563767 
L 208.712896 -178.35523 
L 208.856631 -180.146694 
L 208.983699 -181.938157 
L 209.093768 -183.72962 
L 209.186741 -185.521084 
L 209.263242 -187.312547 
L 209.32476 -189.10401 
L 209.37347 -190.895474 
L 209.411823 -192.686937 
L 209.442084 -194.478401 
L 209.465958 -196.269864 
L 209.484438 -198.061327 
L 209.497927 -199.852791 
L 209.506575 -201.644254 
L 209.510706 -203.435717 
L 209.511163 -205.227181 
L 209.509405 -207.018644 
L 209.507297 -208.810108 
L 209.506629 -210.601571 
L 209.508534 -212.393034 
L 209.513006 -214.184498 
L 209.518726 -215.975961 
L 209.523286 -217.767424 
L 209.523761 -219.558888 
L 209.517491 -221.350351 
L 209.502853 -223.141815 
L 209.479813 -224.933278 
L 209.450138 -226.724741 
L 209.417221 -228.516205 
L 209.38557 -230.307668 
L 209.360079 -232.099131 
L 209.345241 -233.890595 
L 209.344452 -235.682058 
L 209.359556 -237.473522 
L 209.390719 -239.264985 
L 209.436612 -241.056448 
L 209.49484 -242.847912 
L 209.562449 -244.639375 
L 209.636375 -246.430838 
L 209.713722 -248.222302 
L 209.791866 -250.013765 
L 210.756351 -250.013765 
L 210.756351 -250.013765 
L 210.834495 -248.222302 
L 210.911842 -246.430838 
L 210.985768 -244.639375 
L 211.053377 -242.847912 
L 211.111605 -241.056448 
L 211.157498 -239.264985 
L 211.188661 -237.473522 
L 211.203765 -235.682058 
L 211.202976 -233.890595 
L 211.188138 -232.099131 
L 211.162647 -230.307668 
L 211.130996 -228.516205 
L 211.098079 -226.724741 
L 211.068404 -224.933278 
L 211.045364 -223.141815 
L 211.030726 -221.350351 
L 211.024456 -219.558888 
L 211.024931 -217.767424 
L 211.029491 -215.975961 
L 211.035211 -214.184498 
L 211.039683 -212.393034 
L 211.041588 -210.601571 
L 211.04092 -208.810108 
L 211.038812 -207.018644 
L 211.037054 -205.227181 
L 211.037511 -203.435717 
L 211.041642 -201.644254 
L 211.05029 -199.852791 
L 211.063779 -198.061327 
L 211.082259 -196.269864 
L 211.106133 -194.478401 
L 211.136394 -192.686937 
L 211.174747 -190.895474 
L 211.223457 -189.10401 
L 211.284975 -187.312547 
L 211.361476 -185.521084 
L 211.454449 -183.72962 
L 211.564518 -181.938157 
L 211.691586 -180.146694 
L 211.835322 -178.35523 
L 211.995939 -176.563767 
L 212.17509 -174.772304 
L 212.37667 -172.98084 
L 212.607269 -171.189377 
L 212.87607 -169.397913 
L 213.194049 -167.60645 
L 213.57248 -165.814987 
L 214.02094 -164.023523 
L 214.545155 -162.23206 
L 215.145164 -160.440597 
L 215.814238 -158.649133 
L 216.53889 -156.85767 
L 217.300052 -155.066206 
L 218.075276 -153.274743 
L 218.841646 -151.48328 
L 219.578983 -149.691816 
L 220.272913 -147.900353 
L 220.917374 -146.10889 
L 221.516055 -144.317426 
L 222.08235 -142.525963 
L 222.637478 -140.734499 
L 223.206812 -138.943036 
L 223.814946 -137.151573 
L 224.480492 -135.360109 
L 225.211858 -133.568646 
L 226.005056 -131.777183 
L 226.844018 -129.985719 
L 227.703137 -128.194256 
L 228.551053 -126.402792 
L 229.354457 -124.611329 
L 230.080874 -122.819866 
L 230.699957 -121.028402 
L 231.183552 -119.236939 
L 231.505322 -117.445476 
L 231.640894 -115.654012 
L 231.569226 -113.862549 
L 231.275313 -112.071085 
L 230.753678 -110.279622 
L 230.011601 -108.488159 
L 229.070909 -106.696695 
L 227.967482 -104.905232 
L 226.748231 -103.113769 
L 225.466061 -101.322305 
L 224.173843 -99.530842 
L 222.918622 -97.739379 
L 221.737113 -95.947915 
L 220.653083 -94.156452 
L 219.676744 -92.364988 
L 218.805888 -90.573525 
L 218.028345 -88.782062 
L 217.325303 -86.990598 
L 216.675072 -85.199135 
L 216.056866 -83.407672 
L 215.454155 -81.616208 
L 214.857096 -79.824745 
L 214.263643 -78.033281 
L 213.679152 -76.241818 
L 213.114608 -74.450355 
L 212.583908 -72.658891 
z
" id="mb438161227" style="stroke:#141414;stroke-width:1.5;"/>
    </defs>
    <g clip-path="url(#pea786904a8)">
     <use style="fill:#083c1d;stroke:#141414;stroke-width:1.5;" x="0" xlink:href="#mb438161227" y="537.368223"/>
    </g>
   </g>
   <g id="PolyCollection_4">
    <defs>
     <path d="M 254.386033 -73.0473 
L 251.629328 -73.0473 
L 251.350884 -74.794216 
L 251.051532 -76.541133 
L 250.728255 -78.28805 
L 250.373994 -80.034966 
L 249.977935 -81.781883 
L 249.526541 -83.5288 
L 249.005059 -85.275716 
L 248.399113 -87.022633 
L 247.696135 -88.76955 
L 246.886509 -90.516467 
L 245.964575 -92.263383 
L 244.929682 -94.0103 
L 243.787477 -95.757217 
L 242.551344 -97.504133 
L 241.24366 -99.25105 
L 239.896273 -100.997967 
L 238.54964 -102.744883 
L 237.250305 -104.4918 
L 236.04685 -106.238717 
L 234.984959 -107.985633 
L 234.102565 -109.73255 
L 233.426127 -111.479467 
L 232.968759 -113.226383 
L 232.730456 -114.9733 
L 232.700054 -116.720217 
L 232.85816 -118.467133 
L 233.180112 -120.21405 
L 233.638244 -121.960967 
L 234.203114 -123.707883 
L 234.843904 -125.4548 
L 235.528592 -127.201717 
L 236.224628 -128.948634 
L 236.900684 -130.69555 
L 237.529517 -132.442467 
L 238.091416 -134.189384 
L 238.577267 -135.9363 
L 238.990139 -137.683217 
L 239.344684 -139.430134 
L 239.664277 -141.17705 
L 239.976577 -142.923967 
L 240.308632 -144.670884 
L 240.682752 -146.4178 
L 241.113936 -148.164717 
L 241.609096 -149.911634 
L 242.16773 -151.65855 
L 242.783424 -153.405467 
L 243.445556 -155.152384 
L 244.140802 -156.8993 
L 244.854331 -158.646217 
L 245.570712 -160.393134 
L 246.274668 -162.14005 
L 246.951715 -163.886967 
L 247.588748 -165.633884 
L 248.174561 -167.380801 
L 248.700351 -169.127717 
L 249.160216 -170.874634 
L 249.551641 -172.621551 
L 249.875848 -174.368467 
L 250.137857 -176.115384 
L 250.346085 -177.862301 
L 250.511406 -179.609217 
L 250.64577 -181.356134 
L 250.760631 -183.103051 
L 250.865528 -184.849967 
L 250.967131 -186.596884 
L 251.068915 -188.343801 
L 251.171459 -190.090717 
L 251.273183 -191.837634 
L 251.371273 -193.584551 
L 251.462574 -195.331467 
L 251.54429 -197.078384 
L 251.614456 -198.825301 
L 251.67221 -200.572217 
L 251.7179 -202.319134 
L 251.753087 -204.066051 
L 251.780429 -205.812968 
L 251.803428 -207.559884 
L 251.82604 -209.306801 
L 251.852141 -211.053718 
L 251.884931 -212.800634 
L 251.926382 -214.547551 
L 251.976875 -216.294468 
L 252.03512 -218.041384 
L 252.098416 -219.788301 
L 252.163195 -221.535218 
L 252.225715 -223.282134 
L 252.28274 -225.029051 
L 252.332038 -226.775968 
L 252.372609 -228.522884 
L 252.404635 -230.269801 
L 252.429249 -232.016718 
L 252.448214 -233.763634 
L 252.463655 -235.510551 
L 252.477866 -237.257468 
L 252.493183 -239.004384 
L 252.511845 -240.751301 
L 252.535794 -242.498218 
L 252.566382 -244.245135 
L 252.604077 -245.992051 
L 253.411284 -245.992051 
L 253.411284 -245.992051 
L 253.448979 -244.245135 
L 253.479567 -242.498218 
L 253.503515 -240.751301 
L 253.522178 -239.004384 
L 253.537494 -237.257468 
L 253.551706 -235.510551 
L 253.567147 -233.763634 
L 253.586112 -232.016718 
L 253.610725 -230.269801 
L 253.642752 -228.522884 
L 253.683323 -226.775968 
L 253.732621 -225.029051 
L 253.789646 -223.282134 
L 253.852166 -221.535218 
L 253.916945 -219.788301 
L 253.980241 -218.041384 
L 254.038485 -216.294468 
L 254.088978 -214.547551 
L 254.13043 -212.800634 
L 254.16322 -211.053718 
L 254.189321 -209.306801 
L 254.211933 -207.559884 
L 254.234932 -205.812968 
L 254.262273 -204.066051 
L 254.297461 -202.319134 
L 254.343151 -200.572217 
L 254.400905 -198.825301 
L 254.471071 -197.078384 
L 254.552787 -195.331467 
L 254.644087 -193.584551 
L 254.742178 -191.837634 
L 254.843901 -190.090717 
L 254.946446 -188.343801 
L 255.04823 -186.596884 
L 255.149833 -184.849967 
L 255.25473 -183.103051 
L 255.369591 -181.356134 
L 255.503955 -179.609217 
L 255.669276 -177.862301 
L 255.877504 -176.115384 
L 256.139513 -174.368467 
L 256.463719 -172.621551 
L 256.855144 -170.874634 
L 257.31501 -169.127717 
L 257.840799 -167.380801 
L 258.426613 -165.633884 
L 259.063646 -163.886967 
L 259.740693 -162.14005 
L 260.444648 -160.393134 
L 261.16103 -158.646217 
L 261.874559 -156.8993 
L 262.569805 -155.152384 
L 263.231937 -153.405467 
L 263.847631 -151.65855 
L 264.406265 -149.911634 
L 264.901424 -148.164717 
L 265.332609 -146.4178 
L 265.706729 -144.670884 
L 266.038784 -142.923967 
L 266.351083 -141.17705 
L 266.670677 -139.430134 
L 267.025221 -137.683217 
L 267.438093 -135.9363 
L 267.923944 -134.189384 
L 268.485844 -132.442467 
L 269.114676 -130.69555 
L 269.790733 -128.948634 
L 270.486769 -127.201717 
L 271.171456 -125.4548 
L 271.812247 -123.707883 
L 272.377116 -121.960967 
L 272.835248 -120.21405 
L 273.157201 -118.467133 
L 273.315306 -116.720217 
L 273.284905 -114.9733 
L 273.046602 -113.226383 
L 272.589234 -111.479467 
L 271.912796 -109.73255 
L 271.030402 -107.985633 
L 269.968511 -106.238717 
L 268.765056 -104.4918 
L 267.465721 -102.744883 
L 266.119088 -100.997967 
L 264.7717 -99.25105 
L 263.464017 -97.504133 
L 262.227884 -95.757217 
L 261.085678 -94.0103 
L 260.050785 -92.263383 
L 259.128851 -90.516467 
L 258.319226 -88.76955 
L 257.616247 -87.022633 
L 257.010302 -85.275716 
L 256.488819 -83.5288 
L 256.037426 -81.781883 
L 255.641367 -80.034966 
L 255.287106 -78.28805 
L 254.963829 -76.541133 
L 254.664477 -74.794216 
L 254.386033 -73.0473 
z
" id="m55e414c908" style="stroke:#141414;stroke-width:1.5;"/>
    </defs>
    <g clip-path="url(#pea786904a8)">
     <use style="fill:#0e5f2f;stroke:#141414;stroke-width:1.5;" x="0" xlink:href="#m55e414c908" y="537.368223"/>
    </g>
   </g>
   <g id="PolyCollection_5">
    <defs>
     <path d="M 318.214204 -72.384673 
L 316.001873 -72.384673 
L 316.007446 -76.219578 
L 316.024198 -80.054483 
L 316.051578 -83.889388 
L 316.088709 -87.724293 
L 316.134425 -91.559198 
L 316.187318 -95.394103 
L 316.245799 -99.229008 
L 316.308159 -103.063913 
L 316.372626 -106.898818 
L 316.437427 -110.733723 
L 316.500828 -114.568629 
L 316.561175 -118.403534 
L 316.616916 -122.238439 
L 316.666611 -126.073344 
L 316.708931 -129.908249 
L 316.742647 -133.743154 
L 316.766611 -137.578059 
L 316.779733 -141.412964 
L 316.780956 -145.247869 
L 316.769233 -149.082774 
L 316.743517 -152.917679 
L 316.702749 -156.752584 
L 316.645869 -160.587489 
L 316.571828 -164.422394 
L 316.479621 -168.257299 
L 316.36833 -172.092204 
L 316.23717 -175.92711 
L 316.085556 -179.762015 
L 315.913157 -183.59692 
L 315.71996 -187.431825 
L 315.506323 -191.26673 
L 315.27302 -195.101635 
L 315.021263 -198.93654 
L 314.752715 -202.771445 
L 314.469468 -206.60635 
L 314.174003 -210.441255 
L 313.869124 -214.27616 
L 313.557861 -218.111065 
L 313.243351 -221.94597 
L 312.928712 -225.780875 
L 312.616885 -229.61578 
L 312.310488 -233.450685 
L 312.011659 -237.285591 
L 311.721918 -241.120496 
L 311.442044 -244.955401 
L 311.171975 -248.790306 
L 310.910751 -252.625211 
L 310.656491 -256.460116 
L 310.40641 -260.295021 
L 310.156891 -264.129926 
L 309.903596 -267.964831 
L 309.641625 -271.799736 
L 309.365703 -275.634641 
L 309.070413 -279.469546 
L 308.750436 -283.304451 
L 308.400815 -287.139356 
L 308.017202 -290.974261 
L 307.596106 -294.809166 
L 307.135107 -298.644072 
L 306.633032 -302.478977 
L 306.090088 -306.313882 
L 305.507935 -310.148787 
L 304.889705 -313.983692 
L 304.239952 -317.818597 
L 303.56455 -321.653502 
L 302.870526 -325.488407 
L 302.165857 -329.323312 
L 301.459221 -333.158217 
L 300.759722 -336.993122 
L 300.076612 -340.828027 
L 299.419004 -344.662932 
L 298.795615 -348.497837 
L 298.214522 -352.332742 
L 297.682975 -356.167647 
L 297.207243 -360.002553 
L 296.792527 -363.837458 
L 296.442925 -367.672363 
L 296.161444 -371.507268 
L 295.950076 -375.342173 
L 295.809907 -379.177078 
L 295.741252 -383.011983 
L 295.74382 -386.846888 
L 295.816867 -390.681793 
L 295.959343 -394.516698 
L 296.170018 -398.351603 
L 296.447562 -402.186508 
L 296.790583 -406.021413 
L 297.197627 -409.856318 
L 297.667115 -413.691223 
L 298.197254 -417.526128 
L 298.785912 -421.361034 
L 299.430475 -425.195939 
L 300.127706 -429.030844 
L 300.87362 -432.865749 
L 301.663389 -436.700654 
L 302.491294 -440.535559 
L 303.350728 -444.370464 
L 304.234265 -448.205369 
L 305.133781 -452.040274 
L 329.082295 -452.040274 
L 329.082295 -452.040274 
L 329.981812 -448.205369 
L 330.865348 -444.370464 
L 331.724783 -440.535559 
L 332.552687 -436.700654 
L 333.342456 -432.865749 
L 334.08837 -429.030844 
L 334.785601 -425.195939 
L 335.430164 -421.361034 
L 336.018822 -417.526128 
L 336.548962 -413.691223 
L 337.01845 -409.856318 
L 337.425493 -406.021413 
L 337.768515 -402.186508 
L 338.046058 -398.351603 
L 338.256733 -394.516698 
L 338.39921 -390.681793 
L 338.472256 -386.846888 
L 338.474824 -383.011983 
L 338.40617 -379.177078 
L 338.266 -375.342173 
L 338.054633 -371.507268 
L 337.773152 -367.672363 
L 337.423549 -363.837458 
L 337.008834 -360.002553 
L 336.533102 -356.167647 
L 336.001554 -352.332742 
L 335.420461 -348.497837 
L 334.797072 -344.662932 
L 334.139465 -340.828027 
L 333.456354 -336.993122 
L 332.756855 -333.158217 
L 332.050219 -329.323312 
L 331.345551 -325.488407 
L 330.651527 -321.653502 
L 329.976124 -317.818597 
L 329.326371 -313.983692 
L 328.708141 -310.148787 
L 328.125989 -306.313882 
L 327.583045 -302.478977 
L 327.08097 -298.644072 
L 326.61997 -294.809166 
L 326.198874 -290.974261 
L 325.815261 -287.139356 
L 325.46564 -283.304451 
L 325.145664 -279.469546 
L 324.850374 -275.634641 
L 324.574452 -271.799736 
L 324.31248 -267.964831 
L 324.059186 -264.129926 
L 323.809667 -260.295021 
L 323.559586 -256.460116 
L 323.305325 -252.625211 
L 323.044102 -248.790306 
L 322.774033 -244.955401 
L 322.494158 -241.120496 
L 322.204417 -237.285591 
L 321.905589 -233.450685 
L 321.599191 -229.61578 
L 321.287365 -225.780875 
L 320.972725 -221.94597 
L 320.658216 -218.111065 
L 320.346952 -214.27616 
L 320.042073 -210.441255 
L 319.746609 -206.60635 
L 319.463362 -202.771445 
L 319.194813 -198.93654 
L 318.943057 -195.101635 
L 318.709753 -191.26673 
L 318.496116 -187.431825 
L 318.302919 -183.59692 
L 318.13052 -179.762015 
L 317.978906 -175.92711 
L 317.847747 -172.092204 
L 317.736455 -168.257299 
L 317.644248 -164.422394 
L 317.570207 -160.587489 
L 317.513327 -156.752584 
L 317.47256 -152.917679 
L 317.446843 -149.082774 
L 317.435121 -145.247869 
L 317.436343 -141.412964 
L 317.449465 -137.578059 
L 317.473429 -133.743154 
L 317.507145 -129.908249 
L 317.549465 -126.073344 
L 317.59916 -122.238439 
L 317.654901 -118.403534 
L 317.715248 -114.568629 
L 317.77865 -110.733723 
L 317.84345 -106.898818 
L 317.907918 -103.063913 
L 317.970277 -99.229008 
L 318.028758 -95.394103 
L 318.081651 -91.559198 
L 318.127367 -87.724293 
L 318.164499 -83.889388 
L 318.191879 -80.054483 
L 318.20863 -76.219578 
L 318.214204 -72.384673 
z
" id="m89d3a1d545" style="stroke:#141414;stroke-width:1.5;"/>
    </defs>
    <g clip-path="url(#pea786904a8)">
     <use style="fill:#083c1d;stroke:#141414;stroke-width:1.5;" x="0" xlink:href="#m89d3a1d545" y="537.368223"/>
    </g>
   </g>
   <g id="PolyCollection_6">
    <defs>
     <path d="M 360.734957 -71.897295 
L 358.948263 -71.897295 
L 358.943566 -76.304668 
L 358.949719 -80.71204 
L 358.964427 -85.119413 
L 358.984593 -89.526785 
L 359.006531 -93.934157 
L 359.026234 -98.34153 
L 359.039674 -102.748902 
L 359.043107 -107.156275 
L 359.033349 -111.563647 
L 359.008013 -115.97102 
L 358.965662 -120.378392 
L 358.905891 -124.785765 
L 358.829308 -129.193137 
L 358.737442 -133.600509 
L 358.632562 -138.007882 
L 358.517445 -142.415254 
L 358.395112 -146.822627 
L 358.268542 -151.229999 
L 358.140419 -155.637372 
L 358.012908 -160.044744 
L 357.887494 -164.452117 
L 357.764898 -168.859489 
L 357.645058 -173.266862 
L 357.527194 -177.674234 
L 357.40992 -182.081606 
L 357.291404 -186.488979 
L 357.169544 -190.896351 
L 357.042152 -195.303724 
L 356.907115 -199.711096 
L 356.762523 -204.118469 
L 356.606765 -208.525841 
L 356.438577 -212.933214 
L 356.257048 -217.340586 
L 356.061583 -221.747958 
L 355.85184 -226.155331 
L 355.627631 -230.562703 
L 355.3888 -234.970076 
L 355.135091 -239.377448 
L 354.866003 -243.784821 
L 354.580647 -248.192193 
L 354.277625 -252.599566 
L 353.954927 -257.006938 
L 353.609898 -261.414311 
L 353.239256 -265.821683 
L 352.839212 -270.229055 
L 352.405679 -274.636428 
L 351.934587 -279.0438 
L 351.422277 -283.451173 
L 350.865966 -287.858545 
L 350.264228 -292.265918 
L 349.61744 -296.67329 
L 348.928151 -301.080663 
L 348.201305 -305.488035 
L 347.444285 -309.895407 
L 346.666744 -314.30278 
L 345.88024 -318.710152 
L 345.097674 -323.117525 
L 344.332603 -327.524897 
L 343.59849 -331.93227 
L 342.907954 -336.339642 
L 342.272126 -340.747015 
L 341.700152 -345.154387 
L 341.198914 -349.56176 
L 340.772976 -353.969132 
L 340.424755 -358.376504 
L 340.154895 -362.783877 
L 339.962764 -367.191249 
L 339.847022 -371.598622 
L 339.806167 -376.005994 
L 339.838989 -380.413367 
L 339.944865 -384.820739 
L 340.123846 -389.228112 
L 340.376537 -393.635484 
L 340.703765 -398.042857 
L 341.106105 -402.450229 
L 341.583309 -406.857601 
L 342.133737 -411.264974 
L 342.753876 -415.672346 
L 343.438023 -420.079719 
L 344.178188 -424.487091 
L 344.964253 -428.894464 
L 345.784371 -433.301836 
L 346.625582 -437.709209 
L 347.474557 -442.116581 
L 348.318405 -446.523953 
L 349.145437 -450.931326 
L 349.945814 -455.338698 
L 350.711993 -459.746071 
L 351.43895 -464.153443 
L 352.124151 -468.560816 
L 352.767302 -472.968188 
L 353.369923 -477.375561 
L 353.934796 -481.782933 
L 354.465383 -486.190306 
L 354.965256 -490.597678 
L 355.437628 -495.00505 
L 355.885006 -499.412423 
L 356.308997 -503.819795 
L 356.710271 -508.227168 
L 362.972949 -508.227168 
L 362.972949 -508.227168 
L 363.374223 -503.819795 
L 363.798214 -499.412423 
L 364.245592 -495.00505 
L 364.717964 -490.597678 
L 365.217837 -486.190306 
L 365.748424 -481.782933 
L 366.313297 -477.375561 
L 366.915918 -472.968188 
L 367.559069 -468.560816 
L 368.24427 -464.153443 
L 368.971227 -459.746071 
L 369.737406 -455.338698 
L 370.537783 -450.931326 
L 371.364815 -446.523953 
L 372.208663 -442.116581 
L 373.057638 -437.709209 
L 373.898849 -433.301836 
L 374.718967 -428.894464 
L 375.505032 -424.487091 
L 376.245197 -420.079719 
L 376.929344 -415.672346 
L 377.549483 -411.264974 
L 378.099911 -406.857601 
L 378.577115 -402.450229 
L 378.979455 -398.042857 
L 379.306683 -393.635484 
L 379.559374 -389.228112 
L 379.738355 -384.820739 
L 379.844231 -380.413367 
L 379.877053 -376.005994 
L 379.836198 -371.598622 
L 379.720456 -367.191249 
L 379.528325 -362.783877 
L 379.258465 -358.376504 
L 378.910244 -353.969132 
L 378.484306 -349.56176 
L 377.983068 -345.154387 
L 377.411094 -340.747015 
L 376.775266 -336.339642 
L 376.08473 -331.93227 
L 375.350617 -327.524897 
L 374.585546 -323.117525 
L 373.80298 -318.710152 
L 373.016476 -314.30278 
L 372.238935 -309.895407 
L 371.481915 -305.488035 
L 370.755069 -301.080663 
L 370.06578 -296.67329 
L 369.418992 -292.265918 
L 368.817254 -287.858545 
L 368.260943 -283.451173 
L 367.748633 -279.0438 
L 367.277541 -274.636428 
L 366.844008 -270.229055 
L 366.443964 -265.821683 
L 366.073322 -261.414311 
L 365.728293 -257.006938 
L 365.405595 -252.599566 
L 365.102573 -248.192193 
L 364.817217 -243.784821 
L 364.548129 -239.377448 
L 364.29442 -234.970076 
L 364.055589 -230.562703 
L 363.83138 -226.155331 
L 363.621637 -221.747958 
L 363.426172 -217.340586 
L 363.244643 -212.933214 
L 363.076455 -208.525841 
L 362.920697 -204.118469 
L 362.776105 -199.711096 
L 362.641068 -195.303724 
L 362.513676 -190.896351 
L 362.391816 -186.488979 
L 362.2733 -182.081606 
L 362.156026 -177.674234 
L 362.038162 -173.266862 
L 361.918322 -168.859489 
L 361.795726 -164.452117 
L 361.670312 -160.044744 
L 361.542801 -155.637372 
L 361.414678 -151.229999 
L 361.288108 -146.822627 
L 361.165775 -142.415254 
L 361.050658 -138.007882 
L 360.945778 -133.600509 
L 360.853912 -129.193137 
L 360.77733 -124.785765 
L 360.717558 -120.378392 
L 360.675207 -115.97102 
L 360.649871 -111.563647 
L 360.640113 -107.156275 
L 360.643546 -102.748902 
L 360.656986 -98.34153 
L 360.676689 -93.934157 
L 360.698627 -89.526785 
L 360.718793 -85.119413 
L 360.733501 -80.71204 
L 360.739654 -76.304668 
L 360.734957 -71.897295 
z
" id="m6ba02dc724" style="stroke:#141414;stroke-width:1.5;"/>
    </defs>
    <g clip-path="url(#pea786904a8)">
     <use style="fill:#0e5f2f;stroke:#141414;stroke-width:1.5;" x="0" xlink:href="#m6ba02dc724" y="537.368223"/>
    </g>
   </g>
   <g id="PolyCollection_7">
    <defs>
     <path d="M 426.351099 -72.826179 
L 421.532836 -72.826179 
L 421.539091 -76.415019 
L 421.563248 -80.003859 
L 421.604425 -83.592699 
L 421.661281 -87.181539 
L 421.732048 -90.77038 
L 421.814581 -94.35922 
L 421.906414 -97.94806 
L 422.004832 -101.5369 
L 422.106935 -105.12574 
L 422.209713 -108.71458 
L 422.310109 -112.30342 
L 422.405086 -115.892261 
L 422.491676 -119.481101 
L 422.567027 -123.069941 
L 422.628438 -126.658781 
L 422.673378 -130.247621 
L 422.699507 -133.836461 
L 422.704671 -137.425301 
L 422.686912 -141.014142 
L 422.64445 -144.602982 
L 422.575681 -148.191822 
L 422.479164 -151.780662 
L 422.353612 -155.369502 
L 422.197888 -158.958342 
L 422.011009 -162.547182 
L 421.792145 -166.136023 
L 421.540641 -169.724863 
L 421.256034 -173.313703 
L 420.938083 -176.902543 
L 420.586797 -180.491383 
L 420.20248 -184.080223 
L 419.78576 -187.669063 
L 419.337634 -191.257904 
L 418.859498 -194.846744 
L 418.353169 -198.435584 
L 417.820907 -202.024424 
L 417.265409 -205.613264 
L 416.689801 -209.202104 
L 416.097602 -212.790944 
L 415.492674 -216.379785 
L 414.879156 -219.968625 
L 414.261374 -223.557465 
L 413.643741 -227.146305 
L 413.030647 -230.735145 
L 412.42634 -234.323985 
L 411.834806 -237.912825 
L 411.259659 -241.501666 
L 410.70403 -245.090506 
L 410.170491 -248.679346 
L 409.660981 -252.268186 
L 409.176775 -255.857026 
L 408.718469 -259.445866 
L 408.285999 -263.034706 
L 407.878694 -266.623547 
L 407.495345 -270.212387 
L 407.134304 -273.801227 
L 406.793598 -277.390067 
L 406.471053 -280.978907 
L 406.164425 -284.567747 
L 405.871524 -288.156587 
L 405.590336 -291.745428 
L 405.319122 -295.334268 
L 405.05651 -298.923108 
L 404.801555 -302.511948 
L 404.553784 -306.100788 
L 404.313218 -309.689628 
L 404.080371 -313.278468 
L 403.856235 -316.867309 
L 403.642251 -320.456149 
L 403.440268 -324.044989 
L 403.252498 -327.633829 
L 403.081464 -331.222669 
L 402.929955 -334.811509 
L 402.800971 -338.400349 
L 402.697683 -341.98919 
L 402.623378 -345.57803 
L 402.581417 -349.16687 
L 402.575182 -352.75571 
L 402.608022 -356.34455 
L 402.683191 -359.93339 
L 402.803779 -363.52223 
L 402.972632 -367.111071 
L 403.192268 -370.699911 
L 403.464781 -374.288751 
L 403.791752 -377.877591 
L 404.174147 -381.466431 
L 404.612236 -385.055271 
L 405.105511 -388.644111 
L 405.652627 -392.232952 
L 406.251365 -395.821792 
L 406.898618 -399.410632 
L 407.590405 -402.999472 
L 408.321923 -406.588312 
L 409.08762 -410.177152 
L 409.8813 -413.765992 
L 410.696252 -417.354833 
L 411.525402 -420.943673 
L 412.361476 -424.532513 
L 413.197169 -428.121353 
L 434.686767 -428.121353 
L 434.686767 -428.121353 
L 435.52246 -424.532513 
L 436.358534 -420.943673 
L 437.187684 -417.354833 
L 438.002636 -413.765992 
L 438.796315 -410.177152 
L 439.562012 -406.588312 
L 440.293531 -402.999472 
L 440.985318 -399.410632 
L 441.63257 -395.821792 
L 442.231308 -392.232952 
L 442.778424 -388.644111 
L 443.271699 -385.055271 
L 443.709789 -381.466431 
L 444.092184 -377.877591 
L 444.419155 -374.288751 
L 444.691668 -370.699911 
L 444.911303 -367.111071 
L 445.080156 -363.52223 
L 445.200744 -359.93339 
L 445.275914 -356.34455 
L 445.308754 -352.75571 
L 445.302519 -349.16687 
L 445.260558 -345.57803 
L 445.186253 -341.98919 
L 445.082964 -338.400349 
L 444.953981 -334.811509 
L 444.802472 -331.222669 
L 444.631438 -327.633829 
L 444.443667 -324.044989 
L 444.241685 -320.456149 
L 444.027701 -316.867309 
L 443.803565 -313.278468 
L 443.570717 -309.689628 
L 443.330151 -306.100788 
L 443.08238 -302.511948 
L 442.827425 -298.923108 
L 442.564813 -295.334268 
L 442.2936 -291.745428 
L 442.012412 -288.156587 
L 441.719511 -284.567747 
L 441.412883 -280.978907 
L 441.090338 -277.390067 
L 440.749632 -273.801227 
L 440.38859 -270.212387 
L 440.005241 -266.623547 
L 439.597936 -263.034706 
L 439.165467 -259.445866 
L 438.70716 -255.857026 
L 438.222954 -252.268186 
L 437.713445 -248.679346 
L 437.179905 -245.090506 
L 436.624277 -241.501666 
L 436.049129 -237.912825 
L 435.457596 -234.323985 
L 434.853289 -230.735145 
L 434.240195 -227.146305 
L 433.622562 -223.557465 
L 433.004779 -219.968625 
L 432.391261 -216.379785 
L 431.786334 -212.790944 
L 431.194135 -209.202104 
L 430.618527 -205.613264 
L 430.063029 -202.024424 
L 429.530766 -198.435584 
L 429.024438 -194.846744 
L 428.546301 -191.257904 
L 428.098176 -187.669063 
L 427.681456 -184.080223 
L 427.297138 -180.491383 
L 426.945853 -176.902543 
L 426.627901 -173.313703 
L 426.343295 -169.724863 
L 426.091791 -166.136023 
L 425.872927 -162.547182 
L 425.686047 -158.958342 
L 425.530324 -155.369502 
L 425.404771 -151.780662 
L 425.308254 -148.191822 
L 425.239485 -144.602982 
L 425.197024 -141.014142 
L 425.179264 -137.425301 
L 425.184429 -133.836461 
L 425.210557 -130.247621 
L 425.255498 -126.658781 
L 425.316908 -123.069941 
L 425.39226 -119.481101 
L 425.47885 -115.892261 
L 425.573826 -112.30342 
L 425.674223 -108.71458 
L 425.777 -105.12574 
L 425.879104 -101.5369 
L 425.977522 -97.94806 
L 426.069355 -94.35922 
L 426.151887 -90.77038 
L 426.222654 -87.181539 
L 426.27951 -83.592699 
L 426.320688 -80.003859 
L 426.344844 -76.415019 
L 426.351099 -72.826179 
z
" id="mf0bfa2c65a" style="stroke:#141414;stroke-width:1.5;"/>
    </defs>
    <g clip-path="url(#pea786904a8)">
     <use style="fill:#083c1d;stroke:#141414;stroke-width:1.5;" x="0" xlink:href="#mf0bfa2c65a" y="537.368223"/>
    </g>
   </g>
   <g id="PolyCollection_8">
    <defs>
     <path d="M 468.197013 -72.10398 
L 465.154066 -72.10398 
L 465.001523 -76.206623 
L 464.84219 -80.309266 
L 464.675 -84.411909 
L 464.4984 -88.514551 
L 464.31037 -92.617194 
L 464.108487 -96.719837 
L 463.890039 -100.82248 
L 463.652167 -104.925123 
L 463.392051 -109.027766 
L 463.107112 -113.130409 
L 462.795221 -117.233052 
L 462.454901 -121.335694 
L 462.085496 -125.438337 
L 461.687298 -129.54098 
L 461.261611 -133.643623 
L 460.810737 -137.746266 
L 460.337887 -141.848909 
L 459.847012 -145.951552 
L 459.342564 -150.054195 
L 458.82921 -154.156837 
L 458.311513 -158.25948 
L 457.793623 -162.362123 
L 457.278996 -166.464766 
L 456.770185 -170.567409 
L 456.268718 -174.670052 
L 455.775085 -178.772695 
L 455.288848 -182.875338 
L 454.808857 -186.97798 
L 454.333555 -191.080623 
L 453.861352 -195.183266 
L 453.391017 -199.285909 
L 452.922041 -203.388552 
L 452.454942 -207.491195 
L 451.991461 -211.593838 
L 451.534625 -215.696481 
L 451.088665 -219.799123 
L 450.6588 -223.901766 
L 450.250898 -228.004409 
L 449.871056 -232.107052 
L 449.525142 -236.209695 
L 449.218348 -240.312338 
L 448.954795 -244.414981 
L 448.737234 -248.517624 
L 448.566869 -252.620266 
L 448.443305 -256.722909 
L 448.36463 -260.825552 
L 448.327604 -264.928195 
L 448.327938 -269.030838 
L 448.360625 -273.133481 
L 448.420303 -277.236124 
L 448.501597 -281.338767 
L 448.599447 -285.441409 
L 448.709369 -289.544052 
L 448.827664 -293.646695 
L 448.951553 -297.749338 
L 449.079243 -301.851981 
L 449.209928 -305.954624 
L 449.343732 -310.057267 
L 449.481604 -314.15991 
L 449.625171 -318.262552 
L 449.776582 -322.365195 
L 449.938328 -326.467838 
L 450.113081 -330.570481 
L 450.303537 -334.673124 
L 450.512298 -338.775767 
L 450.741774 -342.87841 
L 450.994115 -346.981053 
L 451.271183 -351.083695 
L 451.574523 -355.186338 
L 451.905357 -359.288981 
L 452.264571 -363.391624 
L 452.652692 -367.494267 
L 453.069853 -371.59691 
L 453.51574 -375.699553 
L 453.989533 -379.802196 
L 454.489844 -383.904838 
L 455.014664 -388.007481 
L 455.561339 -392.110124 
L 456.126566 -396.212767 
L 456.706439 -400.31541 
L 457.296535 -404.418053 
L 457.89203 -408.520696 
L 458.487856 -412.623339 
L 459.078869 -416.725982 
L 459.660028 -420.828624 
L 460.226566 -424.931267 
L 460.774142 -429.03391 
L 461.298969 -433.136553 
L 461.797907 -437.239196 
L 462.26852 -441.341839 
L 462.7091 -445.444482 
L 463.118658 -449.547125 
L 463.496883 -453.649767 
L 463.844078 -457.75241 
L 464.161082 -461.855053 
L 464.449167 -465.957696 
L 464.70994 -470.060339 
L 464.94523 -474.162982 
L 465.156992 -478.265625 
L 468.194087 -478.265625 
L 468.194087 -478.265625 
L 468.405849 -474.162982 
L 468.641139 -470.060339 
L 468.901912 -465.957696 
L 469.189997 -461.855053 
L 469.507001 -457.75241 
L 469.854196 -453.649767 
L 470.232421 -449.547125 
L 470.641979 -445.444482 
L 471.08256 -441.341839 
L 471.553173 -437.239196 
L 472.052111 -433.136553 
L 472.576938 -429.03391 
L 473.124514 -424.931267 
L 473.691051 -420.828624 
L 474.27221 -416.725982 
L 474.863223 -412.623339 
L 475.459049 -408.520696 
L 476.054545 -404.418053 
L 476.64464 -400.31541 
L 477.224514 -396.212767 
L 477.78974 -392.110124 
L 478.336415 -388.007481 
L 478.861236 -383.904838 
L 479.361547 -379.802196 
L 479.83534 -375.699553 
L 480.281227 -371.59691 
L 480.698387 -367.494267 
L 481.086508 -363.391624 
L 481.445722 -359.288981 
L 481.776556 -355.186338 
L 482.079896 -351.083695 
L 482.356964 -346.981053 
L 482.609306 -342.87841 
L 482.838781 -338.775767 
L 483.047542 -334.673124 
L 483.237999 -330.570481 
L 483.412751 -326.467838 
L 483.574497 -322.365195 
L 483.725908 -318.262552 
L 483.869475 -314.15991 
L 484.007347 -310.057267 
L 484.141151 -305.954624 
L 484.271837 -301.851981 
L 484.399527 -297.749338 
L 484.523415 -293.646695 
L 484.64171 -289.544052 
L 484.751632 -285.441409 
L 484.849482 -281.338767 
L 484.930777 -277.236124 
L 484.990454 -273.133481 
L 485.023142 -269.030838 
L 485.023475 -264.928195 
L 484.986449 -260.825552 
L 484.907774 -256.722909 
L 484.784211 -252.620266 
L 484.613846 -248.517624 
L 484.396285 -244.414981 
L 484.132731 -240.312338 
L 483.825937 -236.209695 
L 483.480024 -232.107052 
L 483.100182 -228.004409 
L 482.69228 -223.901766 
L 482.262414 -219.799123 
L 481.816455 -215.696481 
L 481.359618 -211.593838 
L 480.896138 -207.491195 
L 480.429039 -203.388552 
L 479.960062 -199.285909 
L 479.489727 -195.183266 
L 479.017525 -191.080623 
L 478.542223 -186.97798 
L 478.062231 -182.875338 
L 477.575995 -178.772695 
L 477.082362 -174.670052 
L 476.580894 -170.567409 
L 476.072083 -166.464766 
L 475.557456 -162.362123 
L 475.039566 -158.25948 
L 474.521869 -154.156837 
L 474.008515 -150.054195 
L 473.504067 -145.951552 
L 473.013192 -141.848909 
L 472.540342 -137.746266 
L 472.089468 -133.643623 
L 471.663781 -129.54098 
L 471.265584 -125.438337 
L 470.896178 -121.335694 
L 470.555858 -117.233052 
L 470.243967 -113.130409 
L 469.959028 -109.027766 
L 469.698913 -104.925123 
L 469.461041 -100.82248 
L 469.242592 -96.719837 
L 469.04071 -92.617194 
L 468.852679 -88.514551 
L 468.676079 -84.411909 
L 468.50889 -80.309266 
L 468.349556 -76.206623 
L 468.197013 -72.10398 
z
" id="me9f33bb53e" style="stroke:#141414;stroke-width:1.5;"/>
    </defs>
    <g clip-path="url(#pea786904a8)">
     <use style="fill:#0e5f2f;stroke:#141414;stroke-width:1.5;" x="0" xlink:href="#me9f33bb53e" y="537.368223"/>
    </g>
   </g>
   <g id="PolyCollection_9">
    <defs>
     <path d="M 551.587775 -71.786902 
L 509.964019 -71.786902 
L 509.409112 -71.841282 
L 509.565821 -71.895662 
L 510.364708 -71.950042 
L 511.664386 -72.004422 
L 513.281164 -72.058802 
L 515.025176 -72.113182 
L 516.733917 -72.167561 
L 518.295428 -72.221941 
L 519.656875 -72.276321 
L 520.818624 -72.330701 
L 521.817742 -72.385081 
L 522.707025 -72.439461 
L 523.535773 -72.493841 
L 524.336853 -72.548221 
L 525.12192 -72.6026 
L 525.884044 -72.65698 
L 526.605056 -72.71136 
L 527.264278 -72.76574 
L 527.845747 -72.82012 
L 528.342226 -72.8745 
L 528.755712 -72.92888 
L 529.095247 -72.98326 
L 529.373422 -73.037639 
L 529.602967 -73.092019 
L 529.79436 -73.146399 
L 529.954873 -73.200779 
L 530.088858 -73.255159 
L 530.198816 -73.309539 
L 530.286645 -73.363919 
L 530.354611 -73.418298 
L 530.405759 -73.472678 
L 530.443768 -73.527058 
L 530.472403 -73.581438 
L 530.494814 -73.635818 
L 530.512967 -73.690198 
L 530.527371 -73.744578 
L 530.537201 -73.798958 
L 530.540769 -73.853337 
L 530.536232 -73.907717 
L 530.522355 -73.962097 
L 530.499158 -74.016477 
L 530.468287 -74.070857 
L 530.433016 -74.125237 
L 530.397863 -74.179617 
L 530.367898 -74.233997 
L 530.347874 -74.288376 
L 530.341386 -74.342756 
L 530.350238 -74.397136 
L 530.374172 -74.451516 
L 530.410997 -74.505896 
L 530.457076 -74.560276 
L 530.508042 -74.614656 
L 530.559554 -74.669036 
L 530.60793 -74.723415 
L 530.650551 -74.777795 
L 530.685993 -74.832175 
L 530.713922 -74.886555 
L 530.734838 -74.940935 
L 530.749754 -74.995315 
L 530.759899 -75.049695 
L 530.766487 -75.104075 
L 530.770571 -75.158454 
L 530.772985 -75.212834 
L 530.774332 -75.267214 
L 530.775011 -75.321594 
L 530.775254 -75.375974 
L 530.775158 -75.430354 
L 530.774702 -75.484734 
L 530.773755 -75.539114 
L 530.772066 -75.593493 
L 530.769258 -75.647873 
L 530.764829 -75.702253 
L 530.758171 -75.756633 
L 530.748633 -75.811013 
L 530.73563 -75.865393 
L 530.718788 -75.919773 
L 530.698119 -75.974152 
L 530.674178 -76.028532 
L 530.648143 -76.082912 
L 530.621795 -76.137292 
L 530.597343 -76.191672 
L 530.577111 -76.246052 
L 530.56314 -76.300432 
L 530.556778 -76.354812 
L 530.558368 -76.409191 
L 530.567102 -76.463571 
L 530.581097 -76.517951 
L 530.59768 -76.572331 
L 530.613821 -76.626711 
L 530.62664 -76.681091 
L 530.633878 -76.735471 
L 530.63427 -76.789851 
L 530.627748 -76.84423 
L 530.615451 -76.89861 
L 530.599544 -76.95299 
L 530.582859 -77.00737 
L 530.568435 -77.06175 
L 530.559009 -77.11613 
L 530.556567 -77.17051 
L 530.995227 -77.17051 
L 530.995227 -77.17051 
L 530.992786 -77.11613 
L 530.98336 -77.06175 
L 530.968936 -77.00737 
L 530.952251 -76.95299 
L 530.936343 -76.89861 
L 530.924047 -76.84423 
L 530.917525 -76.789851 
L 530.917917 -76.735471 
L 530.925155 -76.681091 
L 530.937973 -76.626711 
L 530.954115 -76.572331 
L 530.970697 -76.517951 
L 530.984693 -76.463571 
L 530.993427 -76.409191 
L 530.995017 -76.354812 
L 530.988655 -76.300432 
L 530.974684 -76.246052 
L 530.954452 -76.191672 
L 530.929999 -76.137292 
L 530.903652 -76.082912 
L 530.877617 -76.028532 
L 530.853675 -75.974152 
L 530.833007 -75.919773 
L 530.816165 -75.865393 
L 530.803162 -75.811013 
L 530.793624 -75.756633 
L 530.786966 -75.702253 
L 530.782537 -75.647873 
L 530.779729 -75.593493 
L 530.77804 -75.539114 
L 530.777093 -75.484734 
L 530.776637 -75.430354 
L 530.776541 -75.375974 
L 530.776784 -75.321594 
L 530.777463 -75.267214 
L 530.77881 -75.212834 
L 530.781224 -75.158454 
L 530.785308 -75.104075 
L 530.791896 -75.049695 
L 530.802041 -74.995315 
L 530.816957 -74.940935 
L 530.837873 -74.886555 
L 530.865802 -74.832175 
L 530.901244 -74.777795 
L 530.943865 -74.723415 
L 530.99224 -74.669036 
L 531.043752 -74.614656 
L 531.094719 -74.560276 
L 531.140798 -74.505896 
L 531.177623 -74.451516 
L 531.201557 -74.397136 
L 531.210409 -74.342756 
L 531.203921 -74.288376 
L 531.183897 -74.233997 
L 531.153931 -74.179617 
L 531.118779 -74.125237 
L 531.083507 -74.070857 
L 531.052637 -74.016477 
L 531.02944 -73.962097 
L 531.015562 -73.907717 
L 531.011025 -73.853337 
L 531.014594 -73.798958 
L 531.024424 -73.744578 
L 531.038828 -73.690198 
L 531.056981 -73.635818 
L 531.079392 -73.581438 
L 531.108026 -73.527058 
L 531.146036 -73.472678 
L 531.197184 -73.418298 
L 531.265149 -73.363919 
L 531.352979 -73.309539 
L 531.462937 -73.255159 
L 531.596922 -73.200779 
L 531.757435 -73.146399 
L 531.948828 -73.092019 
L 532.178372 -73.037639 
L 532.456548 -72.98326 
L 532.796082 -72.92888 
L 533.209569 -72.8745 
L 533.706048 -72.82012 
L 534.287517 -72.76574 
L 534.946739 -72.71136 
L 535.667751 -72.65698 
L 536.429875 -72.6026 
L 537.214942 -72.548221 
L 538.016021 -72.493841 
L 538.84477 -72.439461 
L 539.734053 -72.385081 
L 540.73317 -72.330701 
L 541.89492 -72.276321 
L 543.256367 -72.221941 
L 544.817878 -72.167561 
L 546.526619 -72.113182 
L 548.270631 -72.058802 
L 549.887409 -72.004422 
L 551.187087 -71.950042 
L 551.985974 -71.895662 
L 552.142683 -71.841282 
L 551.587775 -71.786902 
z
" id="mf31034f0ed" style="stroke:#141414;stroke-width:1.5;"/>
    </defs>
    <g clip-path="url(#pea786904a8)">
     <use style="fill:#083c1d;stroke:#141414;stroke-width:1.5;" x="0" xlink:href="#mf31034f0ed" y="537.368223"/>
    </g>
   </g>
   <g id="PolyCollection_10">
    <defs>
     <path d="M 574.341579 -71.508274 
L 572.677359 -71.508274 
L 572.649934 -72.255867 
L 572.642477 -73.003461 
L 572.654508 -73.751054 
L 572.683998 -74.498647 
L 572.727675 -75.246241 
L 572.781479 -75.993834 
L 572.841068 -76.741427 
L 572.902299 -77.489021 
L 572.96161 -78.236614 
L 573.01626 -78.984208 
L 573.064412 -79.731801 
L 573.105092 -80.479394 
L 573.138048 -81.226988 
L 573.163567 -81.974581 
L 573.182281 -82.722174 
L 573.195004 -83.469768 
L 573.202608 -84.217361 
L 573.205941 -84.964955 
L 573.205791 -85.712548 
L 573.202871 -86.460141 
L 573.197828 -87.207735 
L 573.191254 -87.955328 
L 573.1837 -88.702921 
L 573.175687 -89.450515 
L 573.167707 -90.198108 
L 573.160222 -90.945701 
L 573.153658 -91.693295 
L 573.14839 -92.440888 
L 573.144734 -93.188482 
L 573.142934 -93.936075 
L 573.143156 -94.683668 
L 573.145485 -95.431262 
L 573.149933 -96.178855 
L 573.156448 -96.926448 
L 573.16493 -97.674042 
L 573.175238 -98.421635 
L 573.187203 -99.169229 
L 573.200632 -99.916822 
L 573.215308 -100.664415 
L 573.230989 -101.412009 
L 573.247405 -102.159602 
L 573.264269 -102.907195 
L 573.281281 -103.654789 
L 573.298146 -104.402382 
L 573.314598 -105.149975 
L 573.330415 -105.897569 
L 573.345435 -106.645162 
L 573.359565 -107.392756 
L 573.372779 -108.140349 
L 573.385103 -108.887942 
L 573.396599 -109.635536 
L 573.407345 -110.383129 
L 573.417408 -111.130722 
L 573.426833 -111.878316 
L 573.435631 -112.625909 
L 573.443778 -113.373503 
L 573.451219 -114.121096 
L 573.457885 -114.868689 
L 573.463704 -115.616283 
L 573.468623 -116.363876 
L 573.472618 -117.111469 
L 573.475709 -117.859063 
L 573.477964 -118.606656 
L 573.479495 -119.354249 
L 573.480453 -120.101843 
L 573.481013 -120.849436 
L 573.481358 -121.59703 
L 573.481658 -122.344623 
L 573.482058 -123.092216 
L 573.482658 -123.83981 
L 573.483511 -124.587403 
L 573.484622 -125.334996 
L 573.485948 -126.08259 
L 573.487414 -126.830183 
L 573.488929 -127.577777 
L 573.490395 -128.32537 
L 573.491728 -129.072963 
L 573.492867 -129.820557 
L 573.493778 -130.56815 
L 573.494458 -131.315743 
L 573.49493 -132.063337 
L 573.495232 -132.81093 
L 573.495412 -133.558523 
L 573.495519 -134.306117 
L 573.495593 -135.05371 
L 573.49566 -135.801304 
L 573.495736 -136.548897 
L 573.495823 -137.29649 
L 573.495915 -138.044084 
L 573.496004 -138.791677 
L 573.496086 -139.53927 
L 573.496163 -140.286864 
L 573.496247 -141.034457 
L 573.49636 -141.782051 
L 573.496532 -142.529644 
L 573.496796 -143.277237 
L 573.497181 -144.024831 
L 573.497709 -144.772424 
L 573.498391 -145.520017 
L 573.520547 -145.520017 
L 573.520547 -145.520017 
L 573.521229 -144.772424 
L 573.521758 -144.024831 
L 573.522143 -143.277237 
L 573.522406 -142.529644 
L 573.522578 -141.782051 
L 573.522692 -141.034457 
L 573.522776 -140.286864 
L 573.522853 -139.53927 
L 573.522935 -138.791677 
L 573.523024 -138.044084 
L 573.523116 -137.29649 
L 573.523202 -136.548897 
L 573.523278 -135.801304 
L 573.523346 -135.05371 
L 573.523419 -134.306117 
L 573.523526 -133.558523 
L 573.523707 -132.81093 
L 573.524009 -132.063337 
L 573.52448 -131.315743 
L 573.525161 -130.56815 
L 573.526072 -129.820557 
L 573.527211 -129.072963 
L 573.528544 -128.32537 
L 573.53001 -127.577777 
L 573.531524 -126.830183 
L 573.532991 -126.08259 
L 573.534317 -125.334996 
L 573.535427 -124.587403 
L 573.536281 -123.83981 
L 573.536881 -123.092216 
L 573.53728 -122.344623 
L 573.537581 -121.59703 
L 573.537925 -120.849436 
L 573.538486 -120.101843 
L 573.539444 -119.354249 
L 573.540975 -118.606656 
L 573.543229 -117.859063 
L 573.546321 -117.111469 
L 573.550316 -116.363876 
L 573.555234 -115.616283 
L 573.561054 -114.868689 
L 573.56772 -114.121096 
L 573.575161 -113.373503 
L 573.583307 -112.625909 
L 573.592106 -111.878316 
L 573.601531 -111.130722 
L 573.611594 -110.383129 
L 573.622339 -109.635536 
L 573.633836 -108.887942 
L 573.64616 -108.140349 
L 573.659374 -107.392756 
L 573.673504 -106.645162 
L 573.688524 -105.897569 
L 573.70434 -105.149975 
L 573.720792 -104.402382 
L 573.737658 -103.654789 
L 573.754669 -102.907195 
L 573.771533 -102.159602 
L 573.78795 -101.412009 
L 573.80363 -100.664415 
L 573.818306 -99.916822 
L 573.831736 -99.169229 
L 573.843701 -98.421635 
L 573.854008 -97.674042 
L 573.86249 -96.926448 
L 573.869006 -96.178855 
L 573.873454 -95.431262 
L 573.875783 -94.683668 
L 573.876004 -93.936075 
L 573.874204 -93.188482 
L 573.870549 -92.440888 
L 573.865281 -91.693295 
L 573.858716 -90.945701 
L 573.851231 -90.198108 
L 573.843251 -89.450515 
L 573.835238 -88.702921 
L 573.827685 -87.955328 
L 573.821111 -87.207735 
L 573.816067 -86.460141 
L 573.813147 -85.712548 
L 573.812997 -84.964955 
L 573.81633 -84.217361 
L 573.823934 -83.469768 
L 573.836658 -82.722174 
L 573.855372 -81.974581 
L 573.88089 -81.226988 
L 573.913846 -80.479394 
L 573.954526 -79.731801 
L 574.002679 -78.984208 
L 574.057329 -78.236614 
L 574.11664 -77.489021 
L 574.177871 -76.741427 
L 574.237459 -75.993834 
L 574.291263 -75.246241 
L 574.334941 -74.498647 
L 574.364431 -73.751054 
L 574.376462 -73.003461 
L 574.369005 -72.255867 
L 574.341579 -71.508274 
z
" id="mb2f1199e10" style="stroke:#141414;stroke-width:1.5;"/>
    </defs>
    <g clip-path="url(#pea786904a8)">
     <use style="fill:#0e5f2f;stroke:#141414;stroke-width:1.5;" x="0" xlink:href="#mb2f1199e10" y="537.368223"/>
    </g>
   </g>
   <g id="patch_3">
    <path clip-path="url(#pea786904a8)" d="M 124.806965 466.150141 
L 124.806965 466.150141 
L 124.806965 466.150141 
L 124.806965 466.150141 
z
" style="fill:#083c1d;stroke:#141414;stroke-linejoin:miter;stroke-width:0.75;"/>
   </g>
   <g id="patch_4">
    <path clip-path="url(#pea786904a8)" d="M 124.806965 466.150141 
L 124.806965 466.150141 
L 124.806965 466.150141 
L 124.806965 466.150141 
z
" style="fill:#0e5f2f;stroke:#141414;stroke-linejoin:miter;stroke-width:0.75;"/>
   </g>
   <g id="line2d_1">
    <path clip-path="url(#pea786904a8)" d="M 103.440179 463.355133 
L 103.440179 316.144586 
" style="fill:none;stroke:#141414;stroke-linecap:round;stroke-width:1.5;"/>
   </g>
   <g id="line2d_2">
    <path clip-path="url(#pea786904a8)" d="M 103.440179 418.764702 
L 103.440179 376.867694 
" style="fill:none;stroke:#141414;stroke-linecap:round;stroke-width:4.5;"/>
   </g>
   <g id="line2d_3">
    <path clip-path="url(#pea786904a8)" d="M 146.173751 463.548393 
L 146.173751 296.00811 
" style="fill:none;stroke:#141414;stroke-linecap:round;stroke-width:1.5;"/>
   </g>
   <g id="line2d_4">
    <path clip-path="url(#pea786904a8)" d="M 146.173751 415.842721 
L 146.173751 367.657615 
" style="fill:none;stroke:#141414;stroke-linecap:round;stroke-width:4.5;"/>
   </g>
   <g id="line2d_5">
    <path clip-path="url(#pea786904a8)" d="M 210.274109 464.709332 
L 210.274109 350.034046 
" style="fill:none;stroke:#141414;stroke-linecap:round;stroke-width:1.5;"/>
   </g>
   <g id="line2d_6">
    <path clip-path="url(#pea786904a8)" d="M 210.274109 430.221437 
L 210.274109 397.806619 
" style="fill:none;stroke:#141414;stroke-linecap:round;stroke-width:4.5;"/>
   </g>
   <g id="line2d_7">
    <path clip-path="url(#pea786904a8)" d="M 253.00768 464.320924 
L 253.00768 340.424974 
" style="fill:none;stroke:#141414;stroke-linecap:round;stroke-width:1.5;"/>
   </g>
   <g id="line2d_8">
    <path clip-path="url(#pea786904a8)" d="M 253.00768 426.717142 
L 253.00768 391.796122 
" style="fill:none;stroke:#141414;stroke-linecap:round;stroke-width:4.5;"/>
   </g>
   <g id="line2d_9">
    <path clip-path="url(#pea786904a8)" d="M 317.108038 309.120934 
L 317.108038 85.327949 
" style="fill:none;stroke:#141414;stroke-linecap:round;stroke-width:1.5;"/>
   </g>
   <g id="line2d_10">
    <path clip-path="url(#pea786904a8)" d="M 317.108038 203.798089 
L 317.108038 121.783392 
" style="fill:none;stroke:#141414;stroke-linecap:round;stroke-width:4.5;"/>
   </g>
   <g id="line2d_11">
    <path clip-path="url(#pea786904a8)" d="M 359.84161 336.172315 
L 359.84161 29.141056 
" style="fill:none;stroke:#141414;stroke-linecap:round;stroke-width:1.5;"/>
   </g>
   <g id="line2d_12">
    <path clip-path="url(#pea786904a8)" d="M 359.84161 211.455658 
L 359.84161 125.054656 
" style="fill:none;stroke:#141414;stroke-linecap:round;stroke-width:4.5;"/>
   </g>
   <g id="line2d_13">
    <path clip-path="url(#pea786904a8)" d="M 423.941968 336.384935 
L 423.941968 109.24687 
" style="fill:none;stroke:#141414;stroke-linecap:round;stroke-width:1.5;"/>
   </g>
   <g id="line2d_14">
    <path clip-path="url(#pea786904a8)" d="M 423.941968 271.889193 
L 423.941968 158.212191 
" style="fill:none;stroke:#141414;stroke-linecap:round;stroke-width:4.5;"/>
   </g>
   <g id="line2d_15">
    <path clip-path="url(#pea786904a8)" d="M 466.67554 465.264243 
L 466.67554 59.102599 
" style="fill:none;stroke:#141414;stroke-linecap:round;stroke-width:1.5;"/>
   </g>
   <g id="line2d_16">
    <path clip-path="url(#pea786904a8)" d="M 466.67554 309.669987 
L 466.67554 194.422925 
" style="fill:none;stroke:#141414;stroke-linecap:round;stroke-width:4.5;"/>
   </g>
   <g id="line2d_17">
    <path clip-path="url(#pea786904a8)" d="M 530.775897 465.581321 
L 530.775897 464.340585 
" style="fill:none;stroke:#141414;stroke-linecap:round;stroke-width:1.5;"/>
   </g>
   <g id="line2d_18">
    <path clip-path="url(#pea786904a8)" d="M 530.775897 465.555768 
L 530.775897 464.97914 
" style="fill:none;stroke:#141414;stroke-linecap:round;stroke-width:4.5;"/>
   </g>
   <g id="line2d_19">
    <path clip-path="url(#pea786904a8)" d="M 573.509469 465.859949 
L 573.509469 411.176523 
" style="fill:none;stroke:#141414;stroke-linecap:round;stroke-width:1.5;"/>
   </g>
   <g id="line2d_20">
    <path clip-path="url(#pea786904a8)" d="M 573.509469 465.421675 
L 573.509469 442.818333 
" style="fill:none;stroke:#141414;stroke-linecap:round;stroke-width:4.5;"/>
   </g>
   <g id="patch_5">
    <path d="M 71.39 489.903223 
L 71.39 7.2 
" style="fill:none;stroke:#262626;stroke-linecap:square;stroke-linejoin:miter;stroke-width:0.8;"/>
   </g>
   <g id="patch_6">
    <path d="M 71.39 489.903223 
L 605.559648 489.903223 
" style="fill:none;stroke:#262626;stroke-linecap:square;stroke-linejoin:miter;stroke-width:0.8;"/>
   </g>
   <g id="PathCollection_1">
    <defs>
     <path d="M 0 1.5 
C 0.397805 1.5 0.77937 1.341951 1.06066 1.06066 
C 1.341951 0.77937 1.5 0.397805 1.5 0 
C 1.5 -0.397805 1.341951 -0.77937 1.06066 -1.06066 
C 0.77937 -1.341951 0.397805 -1.5 0 -1.5 
C -0.397805 -1.5 -0.77937 -1.341951 -1.06066 -1.06066 
C -1.341951 -0.77937 -1.5 -0.397805 -1.5 0 
C -1.5 0.397805 -1.341951 0.77937 -1.06066 1.06066 
C -0.77937 1.341951 -0.397805 1.5 0 1.5 
z
" id="m8fb159d18f" style="stroke:#141414;"/>
    </defs>
    <g clip-path="url(#pea786904a8)">
     <use style="fill:#ffffff;stroke:#141414;" x="103.440179" xlink:href="#m8fb159d18f" y="402.449739"/>
    </g>
   </g>
   <g id="PathCollection_2">
    <g clip-path="url(#pea786904a8)">
     <use style="fill:#ffffff;stroke:#141414;" x="146.173751" xlink:href="#m8fb159d18f" y="393.523979"/>
    </g>
   </g>
   <g id="PathCollection_3">
    <g clip-path="url(#pea786904a8)">
     <use style="fill:#ffffff;stroke:#141414;" x="210.274109" xlink:href="#m8fb159d18f" y="417.075744"/>
    </g>
   </g>
   <g id="PathCollection_4">
    <g clip-path="url(#pea786904a8)">
     <use style="fill:#ffffff;stroke:#141414;" x="253.00768" xlink:href="#m8fb159d18f" y="412.768665"/>
    </g>
   </g>
   <g id="PathCollection_5">
    <g clip-path="url(#pea786904a8)">
     <use style="fill:#ffffff;stroke:#141414;" x="317.108038" xlink:href="#m8fb159d18f" y="167.793453"/>
    </g>
   </g>
   <g id="PathCollection_6">
    <g clip-path="url(#pea786904a8)">
     <use style="fill:#ffffff;stroke:#141414;" x="359.84161" xlink:href="#m8fb159d18f" y="172.078426"/>
    </g>
   </g>
   <g id="PathCollection_7">
    <g clip-path="url(#pea786904a8)">
     <use style="fill:#ffffff;stroke:#141414;" x="423.941968" xlink:href="#m8fb159d18f" y="202.990981"/>
    </g>
   </g>
   <g id="PathCollection_8">
    <g clip-path="url(#pea786904a8)">
     <use style="fill:#ffffff;stroke:#141414;" x="466.67554" xlink:href="#m8fb159d18f" y="257.255588"/>
    </g>
   </g>
   <g id="PathCollection_9">
    <g clip-path="url(#pea786904a8)">
     <use style="fill:#ffffff;stroke:#141414;" x="530.775897" xlink:href="#m8fb159d18f" y="465.541086"/>
    </g>
   </g>
   <g id="PathCollection_10">
    <g clip-path="url(#pea786904a8)">
     <use style="fill:#ffffff;stroke:#141414;" x="573.509469" xlink:href="#m8fb159d18f" y="458.445489"/>
    </g>
   </g>
  </g>
  <g id="legend_1">
   <g id="text_14">
    <!-- weather -->
    <defs>
     <path d="M 16.15625 0 
L 0.296875 51.859375 
L 9.375 51.859375 
L 17.625 21.921875 
L 20.703125 10.796875 
Q 20.90625 11.625 23.390625 21.484375 
L 31.640625 51.859375 
L 40.671875 51.859375 
L 48.4375 21.78125 
L 51.03125 11.859375 
L 54 21.875 
L 62.890625 51.859375 
L 71.4375 51.859375 
L 55.21875 0 
L 46.09375 0 
L 37.84375 31.0625 
L 35.84375 39.890625 
L 25.34375 0 
z
" id="ArialMT-119"/>
     <path d="M 40.4375 6.390625 
Q 35.546875 2.25 31.03125 0.53125 
Q 26.515625 -1.171875 21.34375 -1.171875 
Q 12.796875 -1.171875 8.203125 3 
Q 3.609375 7.171875 3.609375 13.671875 
Q 3.609375 17.484375 5.34375 20.625 
Q 7.078125 23.78125 9.890625 25.6875 
Q 12.703125 27.59375 16.21875 28.5625 
Q 18.796875 29.25 24.03125 29.890625 
Q 34.671875 31.15625 39.703125 32.90625 
Q 39.75 34.71875 39.75 35.203125 
Q 39.75 40.578125 37.25 42.78125 
Q 33.890625 45.75 27.25 45.75 
Q 21.046875 45.75 18.09375 43.578125 
Q 15.140625 41.40625 13.71875 35.890625 
L 5.125 37.0625 
Q 6.296875 42.578125 8.984375 45.96875 
Q 11.671875 49.359375 16.75 51.1875 
Q 21.828125 53.03125 28.515625 53.03125 
Q 35.15625 53.03125 39.296875 51.46875 
Q 43.453125 49.90625 45.40625 47.53125 
Q 47.359375 45.171875 48.140625 41.546875 
Q 48.578125 39.3125 48.578125 33.453125 
L 48.578125 21.734375 
Q 48.578125 9.46875 49.140625 6.21875 
Q 49.703125 2.984375 51.375 0 
L 42.1875 0 
Q 40.828125 2.734375 40.4375 6.390625 
z
M 39.703125 26.03125 
Q 34.90625 24.078125 25.34375 22.703125 
Q 19.921875 21.921875 17.671875 20.9375 
Q 15.4375 19.96875 14.203125 18.09375 
Q 12.984375 16.21875 12.984375 13.921875 
Q 12.984375 10.40625 15.640625 8.0625 
Q 18.3125 5.71875 23.4375 5.71875 
Q 28.515625 5.71875 32.46875 7.9375 
Q 36.421875 10.15625 38.28125 14.015625 
Q 39.703125 17 39.703125 22.796875 
z
" id="ArialMT-97"/>
     <path d="M 6.59375 0 
L 6.59375 71.578125 
L 15.375 71.578125 
L 15.375 45.90625 
Q 21.53125 53.03125 30.90625 53.03125 
Q 36.671875 53.03125 40.921875 50.75 
Q 45.171875 48.484375 47 44.484375 
Q 48.828125 40.484375 48.828125 32.859375 
L 48.828125 0 
L 40.046875 0 
L 40.046875 32.859375 
Q 40.046875 39.453125 37.1875 42.453125 
Q 34.328125 45.453125 29.109375 45.453125 
Q 25.203125 45.453125 21.75 43.421875 
Q 18.3125 41.40625 16.84375 37.9375 
Q 15.375 34.46875 15.375 28.375 
L 15.375 0 
z
" id="ArialMT-104"/>
    </defs>
    <g style="fill:#262626;" transform="translate(708.06425 250.094112)scale(0.16 -0.16)">
     <use xlink:href="#ArialMT-119"/>
     <use x="72.216797" xlink:href="#ArialMT-101"/>
     <use x="127.832031" xlink:href="#ArialMT-97"/>
     <use x="183.447266" xlink:href="#ArialMT-116"/>
     <use x="211.230469" xlink:href="#ArialMT-104"/>
     <use x="266.845703" xlink:href="#ArialMT-101"/>
     <use x="322.460938" xlink:href="#ArialMT-114"/>
    </g>
   </g>
   <g id="patch_7">
    <path d="M 696.328 272.726612 
L 728.328 272.726612 
L 728.328 261.526612 
L 696.328 261.526612 
z
" style="fill:#083c1d;stroke:#141414;stroke-linejoin:miter;stroke-width:0.75;"/>
   </g>
   <g id="text_15">
    <!-- bad -->
    <defs>
     <path d="M 14.703125 0 
L 6.546875 0 
L 6.546875 71.578125 
L 15.328125 71.578125 
L 15.328125 46.046875 
Q 20.90625 53.03125 29.546875 53.03125 
Q 34.328125 53.03125 38.59375 51.09375 
Q 42.875 49.171875 45.625 45.671875 
Q 48.390625 42.1875 49.953125 37.25 
Q 51.515625 32.328125 51.515625 26.703125 
Q 51.515625 13.375 44.921875 6.09375 
Q 38.328125 -1.171875 29.109375 -1.171875 
Q 19.921875 -1.171875 14.703125 6.5 
z
M 14.59375 26.3125 
Q 14.59375 17 17.140625 12.84375 
Q 21.296875 6.0625 28.375 6.0625 
Q 34.125 6.0625 38.328125 11.0625 
Q 42.53125 16.0625 42.53125 25.984375 
Q 42.53125 36.140625 38.5 40.96875 
Q 34.46875 45.796875 28.765625 45.796875 
Q 23 45.796875 18.796875 40.796875 
Q 14.59375 35.796875 14.59375 26.3125 
z
" id="ArialMT-98"/>
    </defs>
    <g style="fill:#262626;" transform="translate(741.128 272.726612)scale(0.16 -0.16)">
     <use xlink:href="#ArialMT-98"/>
     <use x="55.615234" xlink:href="#ArialMT-97"/>
     <use x="111.230469" xlink:href="#ArialMT-100"/>
    </g>
   </g>
   <g id="patch_8">
    <path d="M 696.328 295.359112 
L 728.328 295.359112 
L 728.328 284.159112 
L 696.328 284.159112 
z
" style="fill:#0e5f2f;stroke:#141414;stroke-linejoin:miter;stroke-width:0.75;"/>
   </g>
   <g id="text_16">
    <!-- good -->
    <defs>
     <path d="M 4.984375 -4.296875 
L 13.53125 -5.5625 
Q 14.0625 -9.515625 16.5 -11.328125 
Q 19.78125 -13.765625 25.4375 -13.765625 
Q 31.546875 -13.765625 34.859375 -11.328125 
Q 38.1875 -8.890625 39.359375 -4.5 
Q 40.046875 -1.8125 39.984375 6.78125 
Q 34.234375 0 25.640625 0 
Q 14.9375 0 9.078125 7.71875 
Q 3.21875 15.4375 3.21875 26.21875 
Q 3.21875 33.640625 5.90625 39.90625 
Q 8.59375 46.1875 13.6875 49.609375 
Q 18.796875 53.03125 25.6875 53.03125 
Q 34.859375 53.03125 40.828125 45.609375 
L 40.828125 51.859375 
L 48.921875 51.859375 
L 48.921875 7.03125 
Q 48.921875 -5.078125 46.453125 -10.125 
Q 44 -15.1875 38.640625 -18.109375 
Q 33.296875 -21.046875 25.484375 -21.046875 
Q 16.21875 -21.046875 10.5 -16.875 
Q 4.78125 -12.703125 4.984375 -4.296875 
z
M 12.25 26.859375 
Q 12.25 16.65625 16.296875 11.96875 
Q 20.359375 7.28125 26.46875 7.28125 
Q 32.515625 7.28125 36.609375 11.9375 
Q 40.71875 16.609375 40.71875 26.5625 
Q 40.71875 36.078125 36.5 40.90625 
Q 32.28125 45.75 26.3125 45.75 
Q 20.453125 45.75 16.34375 40.984375 
Q 12.25 36.234375 12.25 26.859375 
z
" id="ArialMT-103"/>
    </defs>
    <g style="fill:#262626;" transform="translate(741.128 295.359112)scale(0.16 -0.16)">
     <use xlink:href="#ArialMT-103"/>
     <use x="55.615234" xlink:href="#ArialMT-111"/>
     <use x="111.230469" xlink:href="#ArialMT-111"/>
     <use x="166.845703" xlink:href="#ArialMT-100"/>
    </g>
   </g>
  </g>
 </g>
 <defs>
  <clipPath id="pea786904a8">
   <rect height="482.703223" width="534.169648" x="71.39" y="7.2"/>
  </clipPath>
 </defs>
</svg>
