<?xml version="1.0" encoding="utf-8" standalone="no"?>
<!DOCTYPE svg PUBLIC "-//W3C//DTD SVG 1.1//EN"
  "http://www.w3.org/Graphics/SVG/1.1/DTD/svg11.dtd">
<!-- Created with matplotlib (https://matplotlib.org/) -->
<svg height="540.169pt" version="1.1" viewBox="0 0 791.118 540.169" width="791.118pt" xmlns="http://www.w3.org/2000/svg" xmlns:xlink="http://www.w3.org/1999/xlink">
 <defs>
  <style type="text/css">
*{stroke-linecap:butt;stroke-linejoin:round;white-space:pre;}
  </style>
 </defs>
 <g id="figure_1">
  <g id="patch_1">
   <path d="M 0 540.169 
L 791.118 540.169 
L 791.118 0 
L 0 0 
z
" style="fill:#ffffff;"/>
  </g>
  <g id="axes_1">
   <g id="patch_2">
    <path d="M 71.39 492.704 
L 605.559648 492.704 
L 605.559648 7.2 
L 71.39 7.2 
z
" style="fill:#ffffff;"/>
   </g>
   <g id="matplotlib.axis_1">
    <g id="xtick_1">
     <g id="text_1">
      <!-- 0619-1 -->
      <defs>
       <path d="M 4.15625 35.296875 
Q 4.15625 48 6.765625 55.734375 
Q 9.375 63.484375 14.515625 67.671875 
Q 19.671875 71.875 27.484375 71.875 
Q 33.25 71.875 37.59375 69.546875 
Q 41.9375 67.234375 44.765625 62.859375 
Q 47.609375 58.5 49.21875 52.21875 
Q 50.828125 45.953125 50.828125 35.296875 
Q 50.828125 22.703125 48.234375 14.96875 
Q 45.65625 7.234375 40.5 3 
Q 35.359375 -1.21875 27.484375 -1.21875 
Q 17.140625 -1.21875 11.234375 6.203125 
Q 4.15625 15.140625 4.15625 35.296875 
z
M 13.1875 35.296875 
Q 13.1875 17.671875 17.3125 11.828125 
Q 21.4375 6 27.484375 6 
Q 33.546875 6 37.671875 11.859375 
Q 41.796875 17.71875 41.796875 35.296875 
Q 41.796875 52.984375 37.671875 58.78125 
Q 33.546875 64.59375 27.390625 64.59375 
Q 21.34375 64.59375 17.71875 59.46875 
Q 13.1875 52.9375 13.1875 35.296875 
z
" id="ArialMT-48"/>
       <path d="M 49.75 54.046875 
L 41.015625 53.375 
Q 39.84375 58.546875 37.703125 60.890625 
Q 34.125 64.65625 28.90625 64.65625 
Q 24.703125 64.65625 21.53125 62.3125 
Q 17.390625 59.28125 14.984375 53.46875 
Q 12.59375 47.65625 12.5 36.921875 
Q 15.671875 41.75 20.265625 44.09375 
Q 24.859375 46.4375 29.890625 46.4375 
Q 38.671875 46.4375 44.84375 39.96875 
Q 51.03125 33.5 51.03125 23.25 
Q 51.03125 16.5 48.125 10.71875 
Q 45.21875 4.9375 40.140625 1.859375 
Q 35.0625 -1.21875 28.609375 -1.21875 
Q 17.625 -1.21875 10.6875 6.859375 
Q 3.765625 14.9375 3.765625 33.5 
Q 3.765625 54.25 11.421875 63.671875 
Q 18.109375 71.875 29.4375 71.875 
Q 37.890625 71.875 43.28125 67.140625 
Q 48.6875 62.40625 49.75 54.046875 
z
M 13.875 23.1875 
Q 13.875 18.65625 15.796875 14.5 
Q 17.71875 10.359375 21.1875 8.171875 
Q 24.65625 6 28.46875 6 
Q 34.03125 6 38.03125 10.484375 
Q 42.046875 14.984375 42.046875 22.703125 
Q 42.046875 30.125 38.078125 34.390625 
Q 34.125 38.671875 28.125 38.671875 
Q 22.171875 38.671875 18.015625 34.390625 
Q 13.875 30.125 13.875 23.1875 
z
" id="ArialMT-54"/>
       <path d="M 37.25 0 
L 28.46875 0 
L 28.46875 56 
Q 25.296875 52.984375 20.140625 49.953125 
Q 14.984375 46.921875 10.890625 45.40625 
L 10.890625 53.90625 
Q 18.265625 57.375 23.78125 62.296875 
Q 29.296875 67.234375 31.59375 71.875 
L 37.25 71.875 
z
" id="ArialMT-49"/>
       <path d="M 5.46875 16.546875 
L 13.921875 17.328125 
Q 14.984375 11.375 18.015625 8.6875 
Q 21.046875 6 25.78125 6 
Q 29.828125 6 32.875 7.859375 
Q 35.9375 9.71875 37.890625 12.8125 
Q 39.84375 15.921875 41.15625 21.1875 
Q 42.484375 26.46875 42.484375 31.9375 
Q 42.484375 32.515625 42.4375 33.6875 
Q 39.796875 29.5 35.234375 26.875 
Q 30.671875 24.265625 25.34375 24.265625 
Q 16.453125 24.265625 10.296875 30.703125 
Q 4.15625 37.15625 4.15625 47.703125 
Q 4.15625 58.59375 10.578125 65.234375 
Q 17 71.875 26.65625 71.875 
Q 33.640625 71.875 39.421875 68.109375 
Q 45.21875 64.359375 48.21875 57.390625 
Q 51.21875 50.4375 51.21875 37.25 
Q 51.21875 23.53125 48.234375 15.40625 
Q 45.265625 7.28125 39.375 3.03125 
Q 33.5 -1.21875 25.59375 -1.21875 
Q 17.1875 -1.21875 11.859375 3.4375 
Q 6.546875 8.109375 5.46875 16.546875 
z
M 41.453125 48.140625 
Q 41.453125 55.71875 37.421875 60.15625 
Q 33.40625 64.59375 27.734375 64.59375 
Q 21.875 64.59375 17.53125 59.8125 
Q 13.1875 55.03125 13.1875 47.40625 
Q 13.1875 40.578125 17.3125 36.296875 
Q 21.4375 32.03125 27.484375 32.03125 
Q 33.59375 32.03125 37.515625 36.296875 
Q 41.453125 40.578125 41.453125 48.140625 
z
" id="ArialMT-57"/>
       <path d="M 3.171875 21.484375 
L 3.171875 30.328125 
L 30.171875 30.328125 
L 30.171875 21.484375 
z
" id="ArialMT-45"/>
      </defs>
      <g style="fill:#262626;" transform="translate(99.899465 511.1565)scale(0.16 -0.16)">
       <use xlink:href="#ArialMT-48"/>
       <use x="55.615234" xlink:href="#ArialMT-54"/>
       <use x="111.230469" xlink:href="#ArialMT-49"/>
       <use x="166.845703" xlink:href="#ArialMT-57"/>
       <use x="222.460938" xlink:href="#ArialMT-45"/>
       <use x="255.761719" xlink:href="#ArialMT-49"/>
      </g>
     </g>
    </g>
    <g id="xtick_2">
     <g id="text_2">
      <!-- 0619-2 -->
      <defs>
       <path d="M 50.34375 8.453125 
L 50.34375 0 
L 3.03125 0 
Q 2.9375 3.171875 4.046875 6.109375 
Q 5.859375 10.9375 9.828125 15.625 
Q 13.8125 20.3125 21.34375 26.46875 
Q 33.015625 36.03125 37.109375 41.625 
Q 41.21875 47.21875 41.21875 52.203125 
Q 41.21875 57.421875 37.46875 61 
Q 33.734375 64.59375 27.734375 64.59375 
Q 21.390625 64.59375 17.578125 60.78125 
Q 13.765625 56.984375 13.71875 50.25 
L 4.6875 51.171875 
Q 5.609375 61.28125 11.65625 66.578125 
Q 17.71875 71.875 27.9375 71.875 
Q 38.234375 71.875 44.234375 66.15625 
Q 50.25 60.453125 50.25 52 
Q 50.25 47.703125 48.484375 43.546875 
Q 46.734375 39.40625 42.65625 34.8125 
Q 38.578125 30.21875 29.109375 22.21875 
Q 21.1875 15.578125 18.9375 13.203125 
Q 16.703125 10.84375 15.234375 8.453125 
z
" id="ArialMT-50"/>
      </defs>
      <g style="fill:#262626;" transform="translate(206.733394 511.1565)scale(0.16 -0.16)">
       <use xlink:href="#ArialMT-48"/>
       <use x="55.615234" xlink:href="#ArialMT-54"/>
       <use x="111.230469" xlink:href="#ArialMT-49"/>
       <use x="166.845703" xlink:href="#ArialMT-57"/>
       <use x="222.460938" xlink:href="#ArialMT-45"/>
       <use x="255.761719" xlink:href="#ArialMT-50"/>
      </g>
     </g>
    </g>
    <g id="xtick_3">
     <g id="text_3">
      <!-- 1783-1 -->
      <defs>
       <path d="M 4.734375 62.203125 
L 4.734375 70.65625 
L 51.078125 70.65625 
L 51.078125 63.8125 
Q 44.234375 56.546875 37.515625 44.484375 
Q 30.8125 32.421875 27.15625 19.671875 
Q 24.515625 10.6875 23.78125 0 
L 14.75 0 
Q 14.890625 8.453125 18.0625 20.40625 
Q 21.234375 32.375 27.171875 43.484375 
Q 33.109375 54.59375 39.796875 62.203125 
z
" id="ArialMT-55"/>
       <path d="M 17.671875 38.8125 
Q 12.203125 40.828125 9.5625 44.53125 
Q 6.9375 48.25 6.9375 53.421875 
Q 6.9375 61.234375 12.546875 66.546875 
Q 18.171875 71.875 27.484375 71.875 
Q 36.859375 71.875 42.578125 66.421875 
Q 48.296875 60.984375 48.296875 53.171875 
Q 48.296875 48.1875 45.671875 44.5 
Q 43.0625 40.828125 37.75 38.8125 
Q 44.34375 36.671875 47.78125 31.875 
Q 51.21875 27.09375 51.21875 20.453125 
Q 51.21875 11.28125 44.71875 5.03125 
Q 38.234375 -1.21875 27.640625 -1.21875 
Q 17.046875 -1.21875 10.546875 5.046875 
Q 4.046875 11.328125 4.046875 20.703125 
Q 4.046875 27.6875 7.59375 32.390625 
Q 11.140625 37.109375 17.671875 38.8125 
z
M 15.921875 53.71875 
Q 15.921875 48.640625 19.1875 45.40625 
Q 22.46875 42.1875 27.6875 42.1875 
Q 32.765625 42.1875 36.015625 45.375 
Q 39.265625 48.578125 39.265625 53.21875 
Q 39.265625 58.0625 35.90625 61.359375 
Q 32.5625 64.65625 27.59375 64.65625 
Q 22.5625 64.65625 19.234375 61.421875 
Q 15.921875 58.203125 15.921875 53.71875 
z
M 13.09375 20.65625 
Q 13.09375 16.890625 14.875 13.375 
Q 16.65625 9.859375 20.171875 7.921875 
Q 23.6875 6 27.734375 6 
Q 34.03125 6 38.125 10.046875 
Q 42.234375 14.109375 42.234375 20.359375 
Q 42.234375 26.703125 38.015625 30.859375 
Q 33.796875 35.015625 27.4375 35.015625 
Q 21.234375 35.015625 17.15625 30.90625 
Q 13.09375 26.8125 13.09375 20.65625 
z
" id="ArialMT-56"/>
       <path d="M 4.203125 18.890625 
L 12.984375 20.0625 
Q 14.5 12.59375 18.140625 9.296875 
Q 21.78125 6 27 6 
Q 33.203125 6 37.46875 10.296875 
Q 41.75 14.59375 41.75 20.953125 
Q 41.75 27 37.796875 30.921875 
Q 33.84375 34.859375 27.734375 34.859375 
Q 25.25 34.859375 21.53125 33.890625 
L 22.515625 41.609375 
Q 23.390625 41.5 23.921875 41.5 
Q 29.546875 41.5 34.03125 44.421875 
Q 38.53125 47.359375 38.53125 53.46875 
Q 38.53125 58.296875 35.25 61.46875 
Q 31.984375 64.65625 26.8125 64.65625 
Q 21.6875 64.65625 18.265625 61.421875 
Q 14.84375 58.203125 13.875 51.765625 
L 5.078125 53.328125 
Q 6.6875 62.15625 12.390625 67.015625 
Q 18.109375 71.875 26.609375 71.875 
Q 32.46875 71.875 37.390625 69.359375 
Q 42.328125 66.84375 44.9375 62.5 
Q 47.5625 58.15625 47.5625 53.265625 
Q 47.5625 48.640625 45.0625 44.828125 
Q 42.578125 41.015625 37.703125 38.765625 
Q 44.046875 37.3125 47.5625 32.6875 
Q 51.078125 28.078125 51.078125 21.140625 
Q 51.078125 11.765625 44.234375 5.25 
Q 37.40625 -1.265625 26.953125 -1.265625 
Q 17.53125 -1.265625 11.296875 4.34375 
Q 5.078125 9.96875 4.203125 18.890625 
z
" id="ArialMT-51"/>
      </defs>
      <g style="fill:#262626;" transform="translate(313.567324 511.1565)scale(0.16 -0.16)">
       <use xlink:href="#ArialMT-49"/>
       <use x="55.615234" xlink:href="#ArialMT-55"/>
       <use x="111.230469" xlink:href="#ArialMT-56"/>
       <use x="166.845703" xlink:href="#ArialMT-51"/>
       <use x="222.460938" xlink:href="#ArialMT-45"/>
       <use x="255.761719" xlink:href="#ArialMT-49"/>
      </g>
     </g>
    </g>
    <g id="xtick_4">
     <g id="text_4">
      <!-- 1783-2 -->
      <g style="fill:#262626;" transform="translate(420.401254 511.1565)scale(0.16 -0.16)">
       <use xlink:href="#ArialMT-49"/>
       <use x="55.615234" xlink:href="#ArialMT-55"/>
       <use x="111.230469" xlink:href="#ArialMT-56"/>
       <use x="166.845703" xlink:href="#ArialMT-51"/>
       <use x="222.460938" xlink:href="#ArialMT-45"/>
       <use x="255.761719" xlink:href="#ArialMT-50"/>
      </g>
     </g>
    </g>
    <g id="xtick_5">
     <g id="text_5">
      <!-- 0656-1 -->
      <defs>
       <path d="M 4.15625 18.75 
L 13.375 19.53125 
Q 14.40625 12.796875 18.140625 9.390625 
Q 21.875 6 27.15625 6 
Q 33.5 6 37.890625 10.78125 
Q 42.28125 15.578125 42.28125 23.484375 
Q 42.28125 31 38.0625 35.34375 
Q 33.84375 39.703125 27 39.703125 
Q 22.75 39.703125 19.328125 37.765625 
Q 15.921875 35.84375 13.96875 32.765625 
L 5.71875 33.84375 
L 12.640625 70.609375 
L 48.25 70.609375 
L 48.25 62.203125 
L 19.671875 62.203125 
L 15.828125 42.96875 
Q 22.265625 47.46875 29.34375 47.46875 
Q 38.71875 47.46875 45.15625 40.96875 
Q 51.609375 34.46875 51.609375 24.265625 
Q 51.609375 14.546875 45.953125 7.46875 
Q 39.0625 -1.21875 27.15625 -1.21875 
Q 17.390625 -1.21875 11.203125 4.25 
Q 5.03125 9.71875 4.15625 18.75 
z
" id="ArialMT-53"/>
      </defs>
      <g style="fill:#262626;" transform="translate(527.235183 511.1565)scale(0.16 -0.16)">
       <use xlink:href="#ArialMT-48"/>
       <use x="55.615234" xlink:href="#ArialMT-54"/>
       <use x="111.230469" xlink:href="#ArialMT-53"/>
       <use x="166.845703" xlink:href="#ArialMT-54"/>
       <use x="222.460938" xlink:href="#ArialMT-45"/>
       <use x="255.761719" xlink:href="#ArialMT-49"/>
      </g>
     </g>
    </g>
    <g id="text_6">
     <!-- Counter id -->
     <defs>
      <path d="M 58.796875 25.09375 
L 68.265625 22.703125 
Q 65.28125 11.03125 57.546875 4.90625 
Q 49.8125 -1.21875 38.625 -1.21875 
Q 27.046875 -1.21875 19.796875 3.484375 
Q 12.546875 8.203125 8.765625 17.140625 
Q 4.984375 26.078125 4.984375 36.328125 
Q 4.984375 47.515625 9.25 55.828125 
Q 13.53125 64.15625 21.40625 68.46875 
Q 29.296875 72.796875 38.765625 72.796875 
Q 49.515625 72.796875 56.828125 67.328125 
Q 64.15625 61.859375 67.046875 51.953125 
L 57.71875 49.75 
Q 55.21875 57.5625 50.484375 61.125 
Q 45.75 64.703125 38.578125 64.703125 
Q 30.328125 64.703125 24.78125 60.734375 
Q 19.234375 56.78125 16.984375 50.109375 
Q 14.75 43.453125 14.75 36.375 
Q 14.75 27.25 17.40625 20.4375 
Q 20.0625 13.625 25.671875 10.25 
Q 31.296875 6.890625 37.84375 6.890625 
Q 45.796875 6.890625 51.3125 11.46875 
Q 56.84375 16.0625 58.796875 25.09375 
z
" id="ArialMT-67"/>
      <path d="M 3.328125 25.921875 
Q 3.328125 40.328125 11.328125 47.265625 
Q 18.015625 53.03125 27.640625 53.03125 
Q 38.328125 53.03125 45.109375 46.015625 
Q 51.90625 39.015625 51.90625 26.65625 
Q 51.90625 16.65625 48.90625 10.90625 
Q 45.90625 5.171875 40.15625 2 
Q 34.421875 -1.171875 27.640625 -1.171875 
Q 16.75 -1.171875 10.03125 5.8125 
Q 3.328125 12.796875 3.328125 25.921875 
z
M 12.359375 25.921875 
Q 12.359375 15.96875 16.703125 11.015625 
Q 21.046875 6.0625 27.640625 6.0625 
Q 34.1875 6.0625 38.53125 11.03125 
Q 42.875 16.015625 42.875 26.21875 
Q 42.875 35.84375 38.5 40.796875 
Q 34.125 45.75 27.640625 45.75 
Q 21.046875 45.75 16.703125 40.8125 
Q 12.359375 35.890625 12.359375 25.921875 
z
" id="ArialMT-111"/>
      <path d="M 40.578125 0 
L 40.578125 7.625 
Q 34.515625 -1.171875 24.125 -1.171875 
Q 19.53125 -1.171875 15.546875 0.578125 
Q 11.578125 2.34375 9.640625 5 
Q 7.71875 7.671875 6.9375 11.53125 
Q 6.390625 14.109375 6.390625 19.734375 
L 6.390625 51.859375 
L 15.1875 51.859375 
L 15.1875 23.09375 
Q 15.1875 16.21875 15.71875 13.8125 
Q 16.546875 10.359375 19.234375 8.375 
Q 21.921875 6.390625 25.875 6.390625 
Q 29.828125 6.390625 33.296875 8.421875 
Q 36.765625 10.453125 38.203125 13.9375 
Q 39.65625 17.4375 39.65625 24.078125 
L 39.65625 51.859375 
L 48.4375 51.859375 
L 48.4375 0 
z
" id="ArialMT-117"/>
      <path d="M 6.59375 0 
L 6.59375 51.859375 
L 14.5 51.859375 
L 14.5 44.484375 
Q 20.21875 53.03125 31 53.03125 
Q 35.6875 53.03125 39.625 51.34375 
Q 43.5625 49.65625 45.515625 46.921875 
Q 47.46875 44.1875 48.25 40.4375 
Q 48.734375 37.984375 48.734375 31.890625 
L 48.734375 0 
L 39.9375 0 
L 39.9375 31.546875 
Q 39.9375 36.921875 38.90625 39.578125 
Q 37.890625 42.234375 35.28125 43.8125 
Q 32.671875 45.40625 29.15625 45.40625 
Q 23.53125 45.40625 19.453125 41.84375 
Q 15.375 38.28125 15.375 28.328125 
L 15.375 0 
z
" id="ArialMT-110"/>
      <path d="M 25.78125 7.859375 
L 27.046875 0.09375 
Q 23.34375 -0.6875 20.40625 -0.6875 
Q 15.625 -0.6875 12.984375 0.828125 
Q 10.359375 2.34375 9.28125 4.8125 
Q 8.203125 7.28125 8.203125 15.1875 
L 8.203125 45.015625 
L 1.765625 45.015625 
L 1.765625 51.859375 
L 8.203125 51.859375 
L 8.203125 64.703125 
L 16.9375 69.96875 
L 16.9375 51.859375 
L 25.78125 51.859375 
L 25.78125 45.015625 
L 16.9375 45.015625 
L 16.9375 14.703125 
Q 16.9375 10.9375 17.40625 9.859375 
Q 17.875 8.796875 18.921875 8.15625 
Q 19.96875 7.515625 21.921875 7.515625 
Q 23.390625 7.515625 25.78125 7.859375 
z
" id="ArialMT-116"/>
      <path d="M 42.09375 16.703125 
L 51.171875 15.578125 
Q 49.03125 7.625 43.21875 3.21875 
Q 37.40625 -1.171875 28.375 -1.171875 
Q 17 -1.171875 10.328125 5.828125 
Q 3.65625 12.84375 3.65625 25.484375 
Q 3.65625 38.578125 10.390625 45.796875 
Q 17.140625 53.03125 27.875 53.03125 
Q 38.28125 53.03125 44.875 45.953125 
Q 51.46875 38.875 51.46875 26.03125 
Q 51.46875 25.25 51.421875 23.6875 
L 12.75 23.6875 
Q 13.234375 15.140625 17.578125 10.59375 
Q 21.921875 6.0625 28.421875 6.0625 
Q 33.25 6.0625 36.671875 8.59375 
Q 40.09375 11.140625 42.09375 16.703125 
z
M 13.234375 30.90625 
L 42.1875 30.90625 
Q 41.609375 37.453125 38.875 40.71875 
Q 34.671875 45.796875 27.984375 45.796875 
Q 21.921875 45.796875 17.796875 41.75 
Q 13.671875 37.703125 13.234375 30.90625 
z
" id="ArialMT-101"/>
      <path d="M 6.5 0 
L 6.5 51.859375 
L 14.40625 51.859375 
L 14.40625 44 
Q 17.4375 49.515625 20 51.265625 
Q 22.5625 53.03125 25.640625 53.03125 
Q 30.078125 53.03125 34.671875 50.203125 
L 31.640625 42.046875 
Q 28.421875 43.953125 25.203125 43.953125 
Q 22.3125 43.953125 20.015625 42.21875 
Q 17.71875 40.484375 16.75 37.40625 
Q 15.28125 32.71875 15.28125 27.15625 
L 15.28125 0 
z
" id="ArialMT-114"/>
      <path id="ArialMT-32"/>
      <path d="M 6.640625 61.46875 
L 6.640625 71.578125 
L 15.4375 71.578125 
L 15.4375 61.46875 
z
M 6.640625 0 
L 6.640625 51.859375 
L 15.4375 51.859375 
L 15.4375 0 
z
" id="ArialMT-105"/>
      <path d="M 40.234375 0 
L 40.234375 6.546875 
Q 35.296875 -1.171875 25.734375 -1.171875 
Q 19.53125 -1.171875 14.328125 2.25 
Q 9.125 5.671875 6.265625 11.796875 
Q 3.421875 17.921875 3.421875 25.875 
Q 3.421875 33.640625 6 39.96875 
Q 8.59375 46.296875 13.765625 49.65625 
Q 18.953125 53.03125 25.34375 53.03125 
Q 30.03125 53.03125 33.6875 51.046875 
Q 37.359375 49.078125 39.65625 45.90625 
L 39.65625 71.578125 
L 48.390625 71.578125 
L 48.390625 0 
z
M 12.453125 25.875 
Q 12.453125 15.921875 16.640625 10.984375 
Q 20.84375 6.0625 26.5625 6.0625 
Q 32.328125 6.0625 36.34375 10.765625 
Q 40.375 15.484375 40.375 25.140625 
Q 40.375 35.796875 36.265625 40.765625 
Q 32.171875 45.75 26.171875 45.75 
Q 20.3125 45.75 16.375 40.96875 
Q 12.453125 36.1875 12.453125 25.875 
z
" id="ArialMT-100"/>
     </defs>
     <g style="fill:#262626;" transform="translate(301.567324 529.789)scale(0.16 -0.16)">
      <use xlink:href="#ArialMT-67"/>
      <use x="72.216797" xlink:href="#ArialMT-111"/>
      <use x="127.832031" xlink:href="#ArialMT-117"/>
      <use x="183.447266" xlink:href="#ArialMT-110"/>
      <use x="239.0625" xlink:href="#ArialMT-116"/>
      <use x="266.845703" xlink:href="#ArialMT-101"/>
      <use x="322.460938" xlink:href="#ArialMT-114"/>
      <use x="355.761719" xlink:href="#ArialMT-32"/>
      <use x="383.544922" xlink:href="#ArialMT-105"/>
      <use x="405.761719" xlink:href="#ArialMT-100"/>
     </g>
    </g>
   </g>
   <g id="matplotlib.axis_2">
    <g id="ytick_1">
     <g id="text_7">
      <!-- 0 -->
      <g style="fill:#262626;" transform="translate(55.4925 476.798067)scale(0.16 -0.16)">
       <use xlink:href="#ArialMT-48"/>
      </g>
     </g>
    </g>
    <g id="ytick_2">
     <g id="text_8">
      <!-- 200 -->
      <g style="fill:#262626;" transform="translate(37.6975 409.044644)scale(0.16 -0.16)">
       <use xlink:href="#ArialMT-50"/>
       <use x="55.615234" xlink:href="#ArialMT-48"/>
       <use x="111.230469" xlink:href="#ArialMT-48"/>
      </g>
     </g>
    </g>
    <g id="ytick_3">
     <g id="text_9">
      <!-- 400 -->
      <defs>
       <path d="M 32.328125 0 
L 32.328125 17.140625 
L 1.265625 17.140625 
L 1.265625 25.203125 
L 33.9375 71.578125 
L 41.109375 71.578125 
L 41.109375 25.203125 
L 50.78125 25.203125 
L 50.78125 17.140625 
L 41.109375 17.140625 
L 41.109375 0 
z
M 32.328125 25.203125 
L 32.328125 57.46875 
L 9.90625 25.203125 
z
" id="ArialMT-52"/>
      </defs>
      <g style="fill:#262626;" transform="translate(37.6975 341.291221)scale(0.16 -0.16)">
       <use xlink:href="#ArialMT-52"/>
       <use x="55.615234" xlink:href="#ArialMT-48"/>
       <use x="111.230469" xlink:href="#ArialMT-48"/>
      </g>
     </g>
    </g>
    <g id="ytick_4">
     <g id="text_10">
      <!-- 600 -->
      <g style="fill:#262626;" transform="translate(37.6975 273.537798)scale(0.16 -0.16)">
       <use xlink:href="#ArialMT-54"/>
       <use x="55.615234" xlink:href="#ArialMT-48"/>
       <use x="111.230469" xlink:href="#ArialMT-48"/>
      </g>
     </g>
    </g>
    <g id="ytick_5">
     <g id="text_11">
      <!-- 800 -->
      <g style="fill:#262626;" transform="translate(37.6975 205.784375)scale(0.16 -0.16)">
       <use xlink:href="#ArialMT-56"/>
       <use x="55.615234" xlink:href="#ArialMT-48"/>
       <use x="111.230469" xlink:href="#ArialMT-48"/>
      </g>
     </g>
    </g>
    <g id="ytick_6">
     <g id="text_12">
      <!-- 1000 -->
      <g style="fill:#262626;" transform="translate(28.8 138.030951)scale(0.16 -0.16)">
       <use xlink:href="#ArialMT-49"/>
       <use x="55.615234" xlink:href="#ArialMT-48"/>
       <use x="111.230469" xlink:href="#ArialMT-48"/>
       <use x="166.845703" xlink:href="#ArialMT-48"/>
      </g>
     </g>
    </g>
    <g id="ytick_7">
     <g id="text_13">
      <!-- 1200 -->
      <g style="fill:#262626;" transform="translate(28.8 70.277528)scale(0.16 -0.16)">
       <use xlink:href="#ArialMT-49"/>
       <use x="55.615234" xlink:href="#ArialMT-50"/>
       <use x="111.230469" xlink:href="#ArialMT-48"/>
       <use x="166.845703" xlink:href="#ArialMT-48"/>
      </g>
     </g>
    </g>
    <g id="text_14">
     <!-- Count [$h^{-1}$] -->
     <defs>
      <path d="M 6.78125 -19.875 
L 6.78125 71.578125 
L 26.171875 71.578125 
L 26.171875 64.3125 
L 15.578125 64.3125 
L 15.578125 -12.59375 
L 26.171875 -12.59375 
L 26.171875 -19.875 
z
" id="ArialMT-91"/>
      <path d="M 55.71875 33.015625 
L 49.3125 0 
L 40.28125 0 
L 46.6875 32.671875 
Q 47.125 34.96875 47.359375 36.71875 
Q 47.609375 38.484375 47.609375 39.5 
Q 47.609375 43.609375 45.015625 45.890625 
Q 42.4375 48.1875 37.796875 48.1875 
Q 30.5625 48.1875 25.265625 43.296875 
Q 19.96875 38.421875 18.40625 30.328125 
L 12.5 0 
L 3.515625 0 
L 18.3125 75.984375 
L 27.296875 75.984375 
L 21.484375 46.09375 
Q 24.90625 50.6875 30.21875 53.34375 
Q 35.546875 56 41.40625 56 
Q 48.640625 56 52.609375 52.09375 
Q 56.59375 48.1875 56.59375 41.109375 
Q 56.59375 39.359375 56.375 37.359375 
Q 56.15625 35.359375 55.71875 33.015625 
z
" id="DejaVuSans-Oblique-104"/>
      <path d="M 10.59375 35.5 
L 73.1875 35.5 
L 73.1875 27.203125 
L 10.59375 27.203125 
z
" id="DejaVuSans-8722"/>
      <path d="M 12.40625 8.296875 
L 28.515625 8.296875 
L 28.515625 63.921875 
L 10.984375 60.40625 
L 10.984375 69.390625 
L 28.421875 72.90625 
L 38.28125 72.90625 
L 38.28125 8.296875 
L 54.390625 8.296875 
L 54.390625 0 
L 12.40625 0 
z
" id="DejaVuSans-49"/>
      <path d="M 21.296875 -19.875 
L 1.90625 -19.875 
L 1.90625 -12.59375 
L 12.5 -12.59375 
L 12.5 64.3125 
L 1.90625 64.3125 
L 1.90625 71.578125 
L 21.296875 71.578125 
z
" id="ArialMT-93"/>
     </defs>
     <g style="fill:#262626;" transform="translate(21.6 292.112)rotate(-90)scale(0.16 -0.16)">
      <use transform="translate(0 0.684375)" xlink:href="#ArialMT-67"/>
      <use transform="translate(72.216797 0.684375)" xlink:href="#ArialMT-111"/>
      <use transform="translate(127.832031 0.684375)" xlink:href="#ArialMT-117"/>
      <use transform="translate(183.447266 0.684375)" xlink:href="#ArialMT-110"/>
      <use transform="translate(239.0625 0.684375)" xlink:href="#ArialMT-116"/>
      <use transform="translate(266.845703 0.684375)" xlink:href="#ArialMT-32"/>
      <use transform="translate(294.628906 0.684375)" xlink:href="#ArialMT-91"/>
      <use transform="translate(322.412109 0.684375)" xlink:href="#DejaVuSans-Oblique-104"/>
      <use transform="translate(393.238724 38.965625)scale(0.7)" xlink:href="#DejaVuSans-8722"/>
      <use transform="translate(451.891068 38.965625)scale(0.7)" xlink:href="#DejaVuSans-49"/>
      <use transform="translate(499.161576 0.684375)" xlink:href="#ArialMT-93"/>
     </g>
    </g>
   </g>
   <g id="PolyCollection_1">
    <defs>
     <path d="M 104.238435 -69.632078 
L 102.641923 -69.632078 
L 102.432955 -70.788485 
L 102.18847 -71.944893 
L 101.906651 -73.1013 
L 101.586913 -74.257707 
L 101.230106 -75.414114 
L 100.83843 -76.570521 
L 100.415127 -77.726928 
L 99.964085 -78.883336 
L 99.489538 -80.039743 
L 98.995976 -81.19615 
L 98.48819 -82.352557 
L 97.971252 -83.508964 
L 97.450187 -84.665372 
L 96.929182 -85.821779 
L 96.410447 -86.978186 
L 95.893054 -88.134593 
L 95.372245 -89.291 
L 94.839622 -90.447407 
L 94.284396 -91.603815 
L 93.695484 -92.760222 
L 93.063952 -93.916629 
L 92.385118 -95.073036 
L 91.659756 -96.229443 
L 90.894144 -97.38585 
L 90.099118 -98.542258 
L 89.288619 -99.698665 
L 88.478316 -100.855072 
L 87.684724 -102.011479 
L 86.924837 -103.167886 
L 86.215916 -104.324293 
L 85.574874 -105.480701 
L 85.016826 -106.637108 
L 84.55283 -107.793515 
L 84.187398 -108.949922 
L 83.916726 -110.106329 
L 83.728622 -111.262737 
L 83.604614 -112.419144 
L 83.524 -113.575551 
L 83.468865 -114.731958 
L 83.428685 -115.888365 
L 83.40322 -117.044772 
L 83.402921 -118.20118 
L 83.446775 -119.357587 
L 83.558232 -120.513994 
L 83.76028 -121.670401 
L 84.070839 -122.826808 
L 84.4995 -123.983215 
L 85.046187 -125.139623 
L 85.701813 -126.29603 
L 86.450466 -127.452437 
L 87.272294 -128.608844 
L 88.146159 -129.765251 
L 89.051362 -130.921658 
L 89.968261 -132.078066 
L 90.878101 -133.234473 
L 91.762737 -134.39088 
L 92.604861 -135.547287 
L 93.389009 -136.703694 
L 94.103117 -137.860102 
L 94.740049 -139.016509 
L 95.298501 -140.172916 
L 95.78294 -141.329323 
L 96.202636 -142.48573 
L 96.570151 -143.642137 
L 96.899691 -144.798545 
L 97.205621 -145.954952 
L 97.501152 -147.111359 
L 97.797114 -148.267766 
L 98.100766 -149.424173 
L 98.414758 -150.58058 
L 98.73657 -151.736988 
L 99.058805 -152.893395 
L 99.370541 -154.049802 
L 99.659607 -155.206209 
L 99.915312 -156.362616 
L 100.130902 -157.519023 
L 100.305077 -158.675431 
L 100.442143 -159.831838 
L 100.550819 -160.988245 
L 100.642104 -162.144652 
L 100.726869 -163.301059 
L 100.813831 -164.457467 
L 100.908355 -165.613874 
L 101.012215 -166.770281 
L 101.124143 -167.926688 
L 101.240846 -169.083095 
L 101.358132 -170.239502 
L 101.471931 -171.39591 
L 101.579087 -172.552317 
L 101.677906 -173.708724 
L 101.768463 -174.865131 
L 101.852651 -176.021538 
L 101.93393 -177.177945 
L 102.016767 -178.334353 
L 102.105791 -179.49076 
L 102.204817 -180.647167 
L 102.315927 -181.803574 
L 102.438855 -182.959981 
L 102.570848 -184.116388 
L 104.30951 -184.116388 
L 104.30951 -184.116388 
L 104.441503 -182.959981 
L 104.564431 -181.803574 
L 104.675541 -180.647167 
L 104.774567 -179.49076 
L 104.863591 -178.334353 
L 104.946428 -177.177945 
L 105.027707 -176.021538 
L 105.111894 -174.865131 
L 105.202452 -173.708724 
L 105.301271 -172.552317 
L 105.408427 -171.39591 
L 105.522226 -170.239502 
L 105.639512 -169.083095 
L 105.756215 -167.926688 
L 105.868143 -166.770281 
L 105.972003 -165.613874 
L 106.066527 -164.457467 
L 106.153489 -163.301059 
L 106.238254 -162.144652 
L 106.329538 -160.988245 
L 106.438215 -159.831838 
L 106.575281 -158.675431 
L 106.749456 -157.519023 
L 106.965046 -156.362616 
L 107.220751 -155.206209 
L 107.509817 -154.049802 
L 107.821552 -152.893395 
L 108.143788 -151.736988 
L 108.465599 -150.58058 
L 108.779591 -149.424173 
L 109.083244 -148.267766 
L 109.379206 -147.111359 
L 109.674736 -145.954952 
L 109.980667 -144.798545 
L 110.310207 -143.642137 
L 110.677721 -142.48573 
L 111.097418 -141.329323 
L 111.581857 -140.172916 
L 112.140309 -139.016509 
L 112.777241 -137.860102 
L 113.491348 -136.703694 
L 114.275497 -135.547287 
L 115.117621 -134.39088 
L 116.002257 -133.234473 
L 116.912097 -132.078066 
L 117.828996 -130.921658 
L 118.734199 -129.765251 
L 119.608064 -128.608844 
L 120.429892 -127.452437 
L 121.178545 -126.29603 
L 121.834171 -125.139623 
L 122.380858 -123.983215 
L 122.809519 -122.826808 
L 123.120078 -121.670401 
L 123.322126 -120.513994 
L 123.433583 -119.357587 
L 123.477437 -118.20118 
L 123.477137 -117.044772 
L 123.451673 -115.888365 
L 123.411493 -114.731958 
L 123.356358 -113.575551 
L 123.275744 -112.419144 
L 123.151735 -111.262737 
L 122.963632 -110.106329 
L 122.69296 -108.949922 
L 122.327528 -107.793515 
L 121.863532 -106.637108 
L 121.305483 -105.480701 
L 120.664441 -104.324293 
L 119.955521 -103.167886 
L 119.195634 -102.011479 
L 118.402042 -100.855072 
L 117.591739 -99.698665 
L 116.78124 -98.542258 
L 115.986214 -97.38585 
L 115.220602 -96.229443 
L 114.495239 -95.073036 
L 113.816406 -93.916629 
L 113.184874 -92.760222 
L 112.595962 -91.603815 
L 112.040736 -90.447407 
L 111.508113 -89.291 
L 110.987304 -88.134593 
L 110.46991 -86.978186 
L 109.951175 -85.821779 
L 109.43017 -84.665372 
L 108.909105 -83.508964 
L 108.392168 -82.352557 
L 107.884381 -81.19615 
L 107.39082 -80.039743 
L 106.916273 -78.883336 
L 106.465231 -77.726928 
L 106.041928 -76.570521 
L 105.650252 -75.414114 
L 105.293444 -74.257707 
L 104.973707 -73.1013 
L 104.691888 -71.944893 
L 104.447402 -70.788485 
L 104.238435 -69.632078 
z
" id="m50dc2c97e5" style="stroke:#141414;stroke-width:1.5;"/>
    </defs>
    <g clip-path="url(#pf7c872b278)">
     <use style="fill:#083c1d;stroke:#141414;stroke-width:1.5;" x="0" xlink:href="#m50dc2c97e5" y="540.169"/>
    </g>
   </g>
   <g id="PolyCollection_2">
    <defs>
     <path d="M 148.202579 -70.888022 
L 144.144922 -70.888022 
L 143.545661 -72.027072 
L 142.87322 -73.166122 
L 142.145849 -74.305172 
L 141.384324 -75.444222 
L 140.608376 -76.583271 
L 139.833486 -77.722321 
L 139.068933 -78.861371 
L 138.317571 -80.000421 
L 137.577301 -81.139471 
L 136.843653 -82.278521 
L 136.11267 -83.417571 
L 135.383288 -84.55662 
L 134.658683 -85.69567 
L 133.946383 -86.83472 
L 133.257212 -87.97377 
L 132.603285 -89.11282 
L 131.995346 -90.25187 
L 131.439873 -91.39092 
L 130.936528 -92.529969 
L 130.476667 -93.669019 
L 130.043628 -94.808069 
L 129.615182 -95.947119 
L 129.168008 -97.086169 
L 128.683311 -98.225219 
L 128.152201 -99.364268 
L 127.579293 -100.503318 
L 126.983428 -101.642368 
L 126.395234 -102.781418 
L 125.852206 -103.920468 
L 125.392699 -105.059518 
L 125.050377 -106.198568 
L 124.850282 -107.337617 
L 124.806965 -108.476667 
L 124.924446 -109.615717 
L 125.197393 -110.754767 
L 125.612907 -111.893817 
L 126.152525 -113.032867 
L 126.794237 -114.171917 
L 127.514409 -115.310966 
L 128.289413 -116.450016 
L 129.096782 -117.589066 
L 129.915762 -118.728116 
L 130.727408 -119.867166 
L 131.514587 -121.006216 
L 132.262341 -122.145265 
L 132.958876 -123.284315 
L 133.5971 -124.423365 
L 134.176194 -125.562415 
L 134.702474 -126.701465 
L 135.188887 -127.840515 
L 135.652842 -128.979565 
L 136.112688 -130.118614 
L 136.58366 -131.257664 
L 137.074418 -132.396714 
L 137.585169 -133.535764 
L 138.107909 -134.674814 
L 138.628644 -135.813864 
L 139.13088 -136.952914 
L 139.599335 -138.091963 
L 140.022937 -139.231013 
L 140.396473 -140.370063 
L 140.720766 -141.509113 
L 141.001656 -142.648163 
L 141.248274 -143.787213 
L 141.47111 -144.926263 
L 141.680278 -146.065312 
L 141.884212 -147.204362 
L 142.088863 -148.343412 
L 142.297403 -149.482462 
L 142.51035 -150.621512 
L 142.726024 -151.760562 
L 142.941216 -152.899611 
L 143.151965 -154.038661 
L 143.354322 -155.177711 
L 143.544997 -156.316761 
L 143.721785 -157.455811 
L 143.883716 -158.594861 
L 144.030927 -159.733911 
L 144.164328 -160.87296 
L 144.285218 -162.01201 
L 144.395016 -163.15106 
L 144.495187 -164.29011 
L 144.587385 -165.42916 
L 144.673645 -166.56821 
L 144.75646 -167.70726 
L 144.838572 -168.846309 
L 144.922474 -169.985359 
L 145.009764 -171.124409 
L 145.100631 -172.263459 
L 145.193713 -173.402509 
L 145.286451 -174.541559 
L 145.375837 -175.680609 
L 145.459313 -176.819658 
L 145.535484 -177.958708 
L 145.604409 -179.097758 
L 145.667379 -180.236808 
L 145.726315 -181.375858 
L 145.78302 -182.514908 
L 145.838556 -183.653957 
L 146.508946 -183.653957 
L 146.508946 -183.653957 
L 146.564481 -182.514908 
L 146.621186 -181.375858 
L 146.680123 -180.236808 
L 146.743093 -179.097758 
L 146.812017 -177.958708 
L 146.888189 -176.819658 
L 146.971664 -175.680609 
L 147.06105 -174.541559 
L 147.153788 -173.402509 
L 147.246871 -172.263459 
L 147.337738 -171.124409 
L 147.425027 -169.985359 
L 147.508929 -168.846309 
L 147.591042 -167.70726 
L 147.673857 -166.56821 
L 147.760116 -165.42916 
L 147.852314 -164.29011 
L 147.952486 -163.15106 
L 148.062283 -162.01201 
L 148.183174 -160.87296 
L 148.316574 -159.733911 
L 148.463785 -158.594861 
L 148.625717 -157.455811 
L 148.802505 -156.316761 
L 148.99318 -155.177711 
L 149.195537 -154.038661 
L 149.406286 -152.899611 
L 149.621478 -151.760562 
L 149.837151 -150.621512 
L 150.050098 -149.482462 
L 150.258638 -148.343412 
L 150.463289 -147.204362 
L 150.667223 -146.065312 
L 150.876392 -144.926263 
L 151.099227 -143.787213 
L 151.345845 -142.648163 
L 151.626736 -141.509113 
L 151.951029 -140.370063 
L 152.324564 -139.231013 
L 152.748167 -138.091963 
L 153.216622 -136.952914 
L 153.718857 -135.813864 
L 154.239593 -134.674814 
L 154.762332 -133.535764 
L 155.273083 -132.396714 
L 155.763841 -131.257664 
L 156.234813 -130.118614 
L 156.694659 -128.979565 
L 157.158615 -127.840515 
L 157.645027 -126.701465 
L 158.171307 -125.562415 
L 158.750401 -124.423365 
L 159.388626 -123.284315 
L 160.085161 -122.145265 
L 160.832914 -121.006216 
L 161.620094 -119.867166 
L 162.431739 -118.728116 
L 163.250719 -117.589066 
L 164.058088 -116.450016 
L 164.833093 -115.310966 
L 165.553264 -114.171917 
L 166.194976 -113.032867 
L 166.734594 -111.893817 
L 167.150108 -110.754767 
L 167.423055 -109.615717 
L 167.540537 -108.476667 
L 167.49722 -107.337617 
L 167.297125 -106.198568 
L 166.954802 -105.059518 
L 166.495295 -103.920468 
L 165.952267 -102.781418 
L 165.364073 -101.642368 
L 164.768209 -100.503318 
L 164.1953 -99.364268 
L 163.66419 -98.225219 
L 163.179494 -97.086169 
L 162.73232 -95.947119 
L 162.303874 -94.808069 
L 161.870834 -93.669019 
L 161.410974 -92.529969 
L 160.907628 -91.39092 
L 160.352155 -90.25187 
L 159.744216 -89.11282 
L 159.09029 -87.97377 
L 158.401119 -86.83472 
L 157.688818 -85.69567 
L 156.964213 -84.55662 
L 156.234832 -83.417571 
L 155.503849 -82.278521 
L 154.770201 -81.139471 
L 154.02993 -80.000421 
L 153.278569 -78.861371 
L 152.514015 -77.722321 
L 151.739126 -76.583271 
L 150.963177 -75.444222 
L 150.201652 -74.305172 
L 149.474282 -73.166122 
L 148.801841 -72.027072 
L 148.202579 -70.888022 
z
" id="mcaa4d5fe94" style="stroke:#141414;stroke-width:1.5;"/>
    </defs>
    <g clip-path="url(#pf7c872b278)">
     <use style="fill:#0e5f2f;stroke:#141414;stroke-width:1.5;" x="0" xlink:href="#mcaa4d5fe94" y="540.169"/>
    </g>
   </g>
   <g id="PolyCollection_3">
    <defs>
     <path d="M 210.687542 -69.712191 
L 209.860675 -69.712191 
L 209.739697 -70.869996 
L 209.58828 -72.027801 
L 209.399902 -73.185605 
L 209.170195 -74.34341 
L 208.899346 -75.501215 
L 208.59386 -76.659019 
L 208.266796 -77.816824 
L 207.935971 -78.974629 
L 207.620332 -80.132433 
L 207.335408 -81.290238 
L 207.08921 -82.448043 
L 206.87993 -83.605847 
L 206.696234 -84.763652 
L 206.52013 -85.921457 
L 206.331547 -87.079261 
L 206.11327 -88.237066 
L 205.854834 -89.394871 
L 205.554418 -90.552675 
L 205.218419 -91.71048 
L 204.859017 -92.868285 
L 204.490434 -94.02609 
L 204.124718 -95.183894 
L 203.767888 -96.341699 
L 203.417212 -97.499504 
L 203.060337 -98.657308 
L 202.676752 -99.815113 
L 202.241631 -100.972918 
L 201.731387 -102.130722 
L 201.129608 -103.288527 
L 200.43166 -104.446332 
L 199.646555 -105.604136 
L 198.795472 -106.761941 
L 197.907466 -107.919746 
L 197.013837 -109.07755 
L 196.143018 -110.235355 
L 195.31753 -111.39316 
L 194.553678 -112.550964 
L 193.863521 -113.708769 
L 193.257768 -114.866574 
L 192.747885 -116.024378 
L 192.346103 -117.182183 
L 192.063038 -118.339988 
L 191.903833 -119.497793 
L 191.864594 -120.655597 
L 191.931017 -121.813402 
L 192.080256 -122.971207 
L 192.285785 -124.129011 
L 192.523698 -125.286816 
L 192.778288 -126.444621 
L 193.045051 -127.602425 
L 193.330346 -128.76023 
L 193.648213 -129.918035 
L 194.015741 -131.075839 
L 194.448524 -132.233644 
L 194.957318 -133.391449 
L 195.546221 -134.549253 
L 196.212183 -135.707058 
L 196.945444 -136.864863 
L 197.730666 -138.022667 
L 198.548697 -139.180472 
L 199.378944 -140.338277 
L 200.202076 -141.496081 
L 201.002459 -142.653886 
L 201.769649 -143.811691 
L 202.498476 -144.969496 
L 203.187785 -146.1273 
L 203.838413 -147.285105 
L 204.451174 -148.44291 
L 205.02551 -149.600714 
L 205.559087 -150.758519 
L 206.048253 -151.916324 
L 206.489073 -153.074128 
L 206.878616 -154.231933 
L 207.216168 -155.389738 
L 207.504086 -156.547542 
L 207.748031 -157.705347 
L 207.956384 -158.863152 
L 208.13888 -160.020956 
L 208.304743 -161.178761 
L 208.460847 -162.336566 
L 208.610494 -163.49437 
L 208.75326 -164.652175 
L 208.885992 -165.80998 
L 209.004634 -166.967784 
L 209.106211 -168.125589 
L 209.190234 -169.283394 
L 209.259009 -170.441199 
L 209.316805 -171.599003 
L 209.368305 -172.756808 
L 209.417087 -173.914613 
L 209.464806 -175.072417 
L 209.511391 -176.230222 
L 209.556071 -177.388027 
L 209.598636 -178.545831 
L 209.640265 -179.703636 
L 209.683498 -180.861441 
L 209.731367 -182.019245 
L 209.786123 -183.17705 
L 209.848153 -184.334855 
L 210.700064 -184.334855 
L 210.700064 -184.334855 
L 210.762094 -183.17705 
L 210.81685 -182.019245 
L 210.864719 -180.861441 
L 210.907952 -179.703636 
L 210.949581 -178.545831 
L 210.992146 -177.388027 
L 211.036826 -176.230222 
L 211.083411 -175.072417 
L 211.13113 -173.914613 
L 211.179912 -172.756808 
L 211.231412 -171.599003 
L 211.289208 -170.441199 
L 211.357983 -169.283394 
L 211.442006 -168.125589 
L 211.543583 -166.967784 
L 211.662225 -165.80998 
L 211.794957 -164.652175 
L 211.937723 -163.49437 
L 212.087371 -162.336566 
L 212.243474 -161.178761 
L 212.409337 -160.020956 
L 212.591833 -158.863152 
L 212.800186 -157.705347 
L 213.044131 -156.547542 
L 213.332049 -155.389738 
L 213.669601 -154.231933 
L 214.059144 -153.074128 
L 214.499964 -151.916324 
L 214.98913 -150.758519 
L 215.522707 -149.600714 
L 216.097043 -148.44291 
L 216.709804 -147.285105 
L 217.360432 -146.1273 
L 218.049741 -144.969496 
L 218.778568 -143.811691 
L 219.545758 -142.653886 
L 220.346141 -141.496081 
L 221.169273 -140.338277 
L 221.99952 -139.180472 
L 222.817551 -138.022667 
L 223.602773 -136.864863 
L 224.336034 -135.707058 
L 225.001996 -134.549253 
L 225.590899 -133.391449 
L 226.099693 -132.233644 
L 226.532477 -131.075839 
L 226.900004 -129.918035 
L 227.217871 -128.76023 
L 227.503166 -127.602425 
L 227.769929 -126.444621 
L 228.024519 -125.286816 
L 228.262432 -124.129011 
L 228.467961 -122.971207 
L 228.6172 -121.813402 
L 228.683623 -120.655597 
L 228.644384 -119.497793 
L 228.485179 -118.339988 
L 228.202115 -117.182183 
L 227.800333 -116.024378 
L 227.290449 -114.866574 
L 226.684696 -113.708769 
L 225.994539 -112.550964 
L 225.230687 -111.39316 
L 224.4052 -110.235355 
L 223.53438 -109.07755 
L 222.640751 -107.919746 
L 221.752745 -106.761941 
L 220.901662 -105.604136 
L 220.116557 -104.446332 
L 219.418609 -103.288527 
L 218.81683 -102.130722 
L 218.306586 -100.972918 
L 217.871465 -99.815113 
L 217.48788 -98.657308 
L 217.131005 -97.499504 
L 216.780329 -96.341699 
L 216.423499 -95.183894 
L 216.057783 -94.02609 
L 215.6892 -92.868285 
L 215.329798 -91.71048 
L 214.993799 -90.552675 
L 214.693383 -89.394871 
L 214.434947 -88.237066 
L 214.21667 -87.079261 
L 214.028087 -85.921457 
L 213.851983 -84.763652 
L 213.668287 -83.605847 
L 213.459007 -82.448043 
L 213.21281 -81.290238 
L 212.927885 -80.132433 
L 212.612247 -78.974629 
L 212.281421 -77.816824 
L 211.954357 -76.659019 
L 211.648871 -75.501215 
L 211.378022 -74.34341 
L 211.148315 -73.185605 
L 210.959937 -72.027801 
L 210.80852 -70.869996 
L 210.687542 -69.712191 
z
" id="m38be52a6f8" style="stroke:#141414;stroke-width:1.5;"/>
    </defs>
    <g clip-path="url(#pf7c872b278)">
     <use style="fill:#083c1d;stroke:#141414;stroke-width:1.5;" x="0" xlink:href="#m38be52a6f8" y="540.169"/>
    </g>
   </g>
   <g id="PolyCollection_4">
    <defs>
     <path d="M 254.075236 -70.410658 
L 251.940124 -70.410658 
L 251.630768 -71.493402 
L 251.27796 -72.576146 
L 250.889219 -73.658889 
L 250.476371 -74.741633 
L 250.054613 -75.824377 
L 249.640506 -76.907121 
L 249.249286 -77.989865 
L 248.892177 -79.072609 
L 248.574364 -80.155352 
L 248.29407 -81.238096 
L 248.042865 -82.32084 
L 247.807168 -83.403584 
L 247.570738 -84.486328 
L 247.31784 -85.569072 
L 247.036501 -86.651815 
L 246.721029 -87.734559 
L 246.372856 -88.817303 
L 245.999198 -89.900047 
L 245.609853 -90.982791 
L 245.213431 -92.065535 
L 244.814796 -93.148278 
L 244.414995 -94.231022 
L 244.013619 -95.313766 
L 243.612019 -96.39651 
L 243.215118 -97.479254 
L 242.830289 -98.561998 
L 242.463462 -99.644741 
L 242.114407 -100.727485 
L 241.773723 -101.810229 
L 241.423224 -102.892973 
L 241.039671 -103.975717 
L 240.600265 -105.05846 
L 240.087832 -106.141204 
L 239.494242 -107.223948 
L 238.821596 -108.306692 
L 238.081478 -109.389436 
L 237.292776 -110.47218 
L 236.478549 -111.554923 
L 235.662582 -112.637667 
L 234.866631 -113.720411 
L 234.109502 -114.803155 
L 233.40865 -115.885899 
L 232.783731 -116.968643 
L 232.260269 -118.051386 
L 231.870977 -119.13413 
L 231.652968 -120.216874 
L 231.640894 -121.299618 
L 231.858131 -122.382362 
L 232.309311 -123.465106 
L 232.977265 -124.547849 
L 233.825761 -125.630593 
L 234.807135 -126.713337 
L 235.872152 -127.796081 
L 236.978735 -128.878825 
L 238.096923 -129.961569 
L 239.209054 -131.044312 
L 240.306017 -132.127056 
L 241.381806 -133.2098 
L 242.428906 -134.292544 
L 243.436309 -135.375288 
L 244.390489 -136.458032 
L 245.278287 -137.540775 
L 246.089971 -138.623519 
L 246.821062 -139.706263 
L 247.472434 -140.789007 
L 248.04911 -141.871751 
L 248.558601 -142.954495 
L 249.009449 -144.037238 
L 249.41017 -145.119982 
L 249.76848 -146.202726 
L 250.090642 -147.28547 
L 250.380985 -148.368214 
L 250.641791 -149.450958 
L 250.873736 -150.533701 
L 251.076843 -151.616445 
L 251.251658 -152.699189 
L 251.400197 -153.781933 
L 251.526318 -154.864677 
L 251.635392 -155.947421 
L 251.733444 -157.030164 
L 251.826079 -158.112908 
L 251.917546 -159.195652 
L 252.010134 -160.278396 
L 252.103998 -161.36114 
L 252.197395 -162.443884 
L 252.2873 -163.526627 
L 252.370277 -164.609371 
L 252.443438 -165.692115 
L 252.50522 -166.774859 
L 252.55573 -167.857603 
L 252.596567 -168.940347 
L 252.630233 -170.02309 
L 252.659398 -171.105834 
L 252.686337 -172.188578 
L 252.712676 -173.271322 
L 252.739439 -174.354066 
L 252.76719 -175.43681 
L 252.796127 -176.519553 
L 252.826071 -177.602297 
L 253.18929 -177.602297 
L 253.18929 -177.602297 
L 253.219234 -176.519553 
L 253.248171 -175.43681 
L 253.275921 -174.354066 
L 253.302684 -173.271322 
L 253.329024 -172.188578 
L 253.355962 -171.105834 
L 253.385128 -170.02309 
L 253.418794 -168.940347 
L 253.459631 -167.857603 
L 253.51014 -166.774859 
L 253.571922 -165.692115 
L 253.645084 -164.609371 
L 253.728061 -163.526627 
L 253.817965 -162.443884 
L 253.911363 -161.36114 
L 254.005226 -160.278396 
L 254.097815 -159.195652 
L 254.189282 -158.112908 
L 254.281917 -157.030164 
L 254.379968 -155.947421 
L 254.489043 -154.864677 
L 254.615164 -153.781933 
L 254.763703 -152.699189 
L 254.938518 -151.616445 
L 255.141625 -150.533701 
L 255.37357 -149.450958 
L 255.634376 -148.368214 
L 255.924719 -147.28547 
L 256.246881 -146.202726 
L 256.605191 -145.119982 
L 257.005912 -144.037238 
L 257.45676 -142.954495 
L 257.966251 -141.871751 
L 258.542927 -140.789007 
L 259.194299 -139.706263 
L 259.92539 -138.623519 
L 260.737074 -137.540775 
L 261.624872 -136.458032 
L 262.579052 -135.375288 
L 263.586455 -134.292544 
L 264.633554 -133.2098 
L 265.709344 -132.127056 
L 266.806307 -131.044312 
L 267.918438 -129.961569 
L 269.036626 -128.878825 
L 270.143209 -127.796081 
L 271.208226 -126.713337 
L 272.1896 -125.630593 
L 273.038096 -124.547849 
L 273.70605 -123.465106 
L 274.157229 -122.382362 
L 274.374466 -121.299618 
L 274.362393 -120.216874 
L 274.144383 -119.13413 
L 273.755092 -118.051386 
L 273.23163 -116.968643 
L 272.606711 -115.885899 
L 271.905859 -114.803155 
L 271.14873 -113.720411 
L 270.352778 -112.637667 
L 269.536812 -111.554923 
L 268.722585 -110.47218 
L 267.933883 -109.389436 
L 267.193765 -108.306692 
L 266.521119 -107.223948 
L 265.927529 -106.141204 
L 265.415096 -105.05846 
L 264.97569 -103.975717 
L 264.592137 -102.892973 
L 264.241638 -101.810229 
L 263.900953 -100.727485 
L 263.551898 -99.644741 
L 263.185072 -98.561998 
L 262.800243 -97.479254 
L 262.403342 -96.39651 
L 262.001742 -95.313766 
L 261.600366 -94.231022 
L 261.200565 -93.148278 
L 260.80193 -92.065535 
L 260.405508 -90.982791 
L 260.016163 -89.900047 
L 259.642505 -88.817303 
L 259.294331 -87.734559 
L 258.97886 -86.651815 
L 258.697521 -85.569072 
L 258.444623 -84.486328 
L 258.208193 -83.403584 
L 257.972496 -82.32084 
L 257.721291 -81.238096 
L 257.440997 -80.155352 
L 257.123184 -79.072609 
L 256.766075 -77.989865 
L 256.374854 -76.907121 
L 255.960747 -75.824377 
L 255.53899 -74.741633 
L 255.126142 -73.658889 
L 254.737401 -72.576146 
L 254.384593 -71.493402 
L 254.075236 -70.410658 
z
" id="mf1a4e52883" style="stroke:#141414;stroke-width:1.5;"/>
    </defs>
    <g clip-path="url(#pf7c872b278)">
     <use style="fill:#0e5f2f;stroke:#141414;stroke-width:1.5;" x="0" xlink:href="#mf1a4e52883" y="540.169"/>
    </g>
   </g>
   <g id="PolyCollection_5">
    <defs>
     <path d="M 331.900333 -69.556528 
L 302.315743 -69.556528 
L 301.800605 -74.014549 
L 301.417248 -78.472571 
L 301.173942 -82.930592 
L 301.0748 -87.388613 
L 301.119657 -91.846635 
L 301.304177 -96.304656 
L 301.620162 -100.762677 
L 302.056041 -105.220698 
L 302.597507 -109.67872 
L 303.228254 -114.136741 
L 303.930746 -118.594762 
L 304.687003 -123.052784 
L 305.479319 -127.510805 
L 306.290903 -131.968826 
L 307.106396 -136.426847 
L 307.912263 -140.884869 
L 308.697032 -145.34289 
L 309.451407 -149.800911 
L 310.168257 -154.258933 
L 310.842495 -158.716954 
L 311.470888 -163.174975 
L 312.051809 -167.632997 
L 312.584957 -172.091018 
L 313.071083 -176.549039 
L 313.511716 -181.00706 
L 313.908927 -185.465082 
L 314.265121 -189.923103 
L 314.582877 -194.381124 
L 314.864827 -198.839146 
L 315.113566 -203.297167 
L 315.331608 -207.755188 
L 315.521356 -212.21321 
L 315.685095 -216.671231 
L 315.824997 -221.129252 
L 315.943131 -225.587273 
L 316.041474 -230.045295 
L 316.121917 -234.503316 
L 316.186272 -238.961337 
L 316.236266 -243.419359 
L 316.273542 -247.87738 
L 316.299642 -252.335401 
L 316.316006 -256.793422 
L 316.323955 -261.251444 
L 316.324686 -265.709465 
L 316.319265 -270.167486 
L 316.308625 -274.625508 
L 316.293566 -279.083529 
L 316.274761 -283.54155 
L 316.252761 -287.999572 
L 316.228007 -292.457593 
L 316.200837 -296.915614 
L 316.171501 -301.373635 
L 316.14017 -305.831657 
L 316.106951 -310.289678 
L 316.071894 -314.747699 
L 316.035007 -319.205721 
L 315.996266 -323.663742 
L 315.955627 -328.121763 
L 315.91304 -332.579785 
L 315.868457 -337.037806 
L 315.821851 -341.495827 
L 315.773223 -345.953848 
L 315.722623 -350.41187 
L 315.670153 -354.869891 
L 315.615986 -359.327912 
L 315.56037 -363.785934 
L 315.503637 -368.243955 
L 315.446202 -372.701976 
L 315.388568 -377.159997 
L 315.331313 -381.618019 
L 315.27509 -386.07604 
L 315.220605 -390.534061 
L 315.168607 -394.992083 
L 315.119867 -399.450104 
L 315.075156 -403.908125 
L 315.035223 -408.366147 
L 315.00078 -412.824168 
L 314.972476 -417.282189 
L 314.950885 -421.74021 
L 314.936491 -426.198232 
L 314.929681 -430.656253 
L 314.930736 -435.114274 
L 314.939837 -439.572296 
L 314.95706 -444.030317 
L 314.982382 -448.488338 
L 315.01569 -452.94636 
L 315.056786 -457.404381 
L 315.105392 -461.862402 
L 315.161156 -466.320423 
L 315.223658 -470.778445 
L 315.29241 -475.236466 
L 315.366861 -479.694487 
L 315.446395 -484.152509 
L 315.530336 -488.61053 
L 315.617949 -493.068551 
L 315.708446 -497.526572 
L 315.800991 -501.984594 
L 315.894716 -506.442615 
L 315.988731 -510.900636 
L 318.227346 -510.900636 
L 318.227346 -510.900636 
L 318.321361 -506.442615 
L 318.415086 -501.984594 
L 318.507631 -497.526572 
L 318.598127 -493.068551 
L 318.68574 -488.61053 
L 318.769681 -484.152509 
L 318.849215 -479.694487 
L 318.923666 -475.236466 
L 318.992418 -470.778445 
L 319.05492 -466.320423 
L 319.110684 -461.862402 
L 319.15929 -457.404381 
L 319.200386 -452.94636 
L 319.233694 -448.488338 
L 319.259017 -444.030317 
L 319.276239 -439.572296 
L 319.28534 -435.114274 
L 319.286396 -430.656253 
L 319.279585 -426.198232 
L 319.265191 -421.74021 
L 319.2436 -417.282189 
L 319.215296 -412.824168 
L 319.180853 -408.366147 
L 319.140921 -403.908125 
L 319.096209 -399.450104 
L 319.047469 -394.992083 
L 318.995471 -390.534061 
L 318.940987 -386.07604 
L 318.884763 -381.618019 
L 318.827509 -377.159997 
L 318.769874 -372.701976 
L 318.712439 -368.243955 
L 318.655706 -363.785934 
L 318.60009 -359.327912 
L 318.545923 -354.869891 
L 318.493454 -350.41187 
L 318.442853 -345.953848 
L 318.394226 -341.495827 
L 318.347619 -337.037806 
L 318.303036 -332.579785 
L 318.260449 -328.121763 
L 318.21981 -323.663742 
L 318.181069 -319.205721 
L 318.144182 -314.747699 
L 318.109125 -310.289678 
L 318.075906 -305.831657 
L 318.044576 -301.373635 
L 318.01524 -296.915614 
L 317.98807 -292.457593 
L 317.963315 -287.999572 
L 317.941315 -283.54155 
L 317.92251 -279.083529 
L 317.907451 -274.625508 
L 317.896811 -270.167486 
L 317.89139 -265.709465 
L 317.892121 -261.251444 
L 317.90007 -256.793422 
L 317.916434 -252.335401 
L 317.942535 -247.87738 
L 317.97981 -243.419359 
L 318.029804 -238.961337 
L 318.094159 -234.503316 
L 318.174602 -230.045295 
L 318.272945 -225.587273 
L 318.39108 -221.129252 
L 318.530982 -216.671231 
L 318.69472 -212.21321 
L 318.884468 -207.755188 
L 319.10251 -203.297167 
L 319.35125 -198.839146 
L 319.633199 -194.381124 
L 319.950956 -189.923103 
L 320.30715 -185.465082 
L 320.70436 -181.00706 
L 321.144993 -176.549039 
L 321.631119 -172.091018 
L 322.164268 -167.632997 
L 322.745188 -163.174975 
L 323.373581 -158.716954 
L 324.04782 -154.258933 
L 324.764669 -149.800911 
L 325.519045 -145.34289 
L 326.303814 -140.884869 
L 327.10968 -136.426847 
L 327.925174 -131.968826 
L 328.736757 -127.510805 
L 329.529073 -123.052784 
L 330.28533 -118.594762 
L 330.987823 -114.136741 
L 331.618569 -109.67872 
L 332.160036 -105.220698 
L 332.595914 -100.762677 
L 332.911899 -96.304656 
L 333.096419 -91.846635 
L 333.141277 -87.388613 
L 333.042134 -82.930592 
L 332.798828 -78.472571 
L 332.415471 -74.014549 
L 331.900333 -69.556528 
z
" id="m1c7882661a" style="stroke:#141414;stroke-width:1.5;"/>
    </defs>
    <g clip-path="url(#pf7c872b278)">
     <use style="fill:#083c1d;stroke:#141414;stroke-width:1.5;" x="0" xlink:href="#m1c7882661a" y="540.169"/>
    </g>
   </g>
   <g id="PolyCollection_6">
    <defs>
     <path d="M 378.637455 -69.533364 
L 341.045765 -69.533364 
L 340.080017 -73.61472 
L 339.321541 -77.696077 
L 338.793078 -81.777433 
L 338.509026 -85.85879 
L 338.474824 -89.940146 
L 338.686885 -94.021503 
L 339.133077 -98.102859 
L 339.793679 -102.184216 
L 340.642719 -106.265572 
L 341.649564 -110.346929 
L 342.780639 -114.428285 
L 344.00115 -118.509642 
L 345.276687 -122.590998 
L 346.574643 -126.672355 
L 347.865361 -130.753711 
L 349.122995 -134.835068 
L 350.326061 -138.916424 
L 351.457706 -142.997781 
L 352.505699 -147.079137 
L 353.462211 -151.160494 
L 354.32341 -155.24185 
L 355.088927 -159.323207 
L 355.761249 -163.404563 
L 356.345063 -167.485919 
L 356.846626 -171.567276 
L 357.273154 -175.648632 
L 357.632298 -179.729989 
L 357.9317 -183.811345 
L 358.178646 -187.892702 
L 358.379836 -191.974058 
L 358.541242 -196.055415 
L 358.668068 -200.136771 
L 358.764781 -204.218128 
L 358.835207 -208.299484 
L 358.882653 -212.380841 
L 358.910055 -216.462197 
L 358.920113 -220.543554 
L 358.915412 -224.62491 
L 358.898499 -228.706267 
L 358.871931 -232.787623 
L 358.838268 -236.86898 
L 358.800039 -240.950336 
L 358.759672 -245.031693 
L 358.71941 -249.113049 
L 358.681223 -253.194406 
L 358.646728 -257.275762 
L 358.617133 -261.357119 
L 358.593208 -265.438475 
L 358.575291 -269.519832 
L 358.563324 -273.601188 
L 358.556915 -277.682545 
L 358.555424 -281.763901 
L 358.558053 -285.845258 
L 358.563937 -289.926614 
L 358.572222 -294.007971 
L 358.582134 -298.089327 
L 358.593014 -302.170684 
L 358.604347 -306.25204 
L 358.615757 -310.333397 
L 358.626997 -314.414753 
L 358.637924 -318.49611 
L 358.648466 -322.577466 
L 358.658596 -326.658823 
L 358.6683 -330.740179 
L 358.677553 -334.821536 
L 358.686306 -338.902892 
L 358.694463 -342.984249 
L 358.701881 -347.065605 
L 358.708362 -351.146962 
L 358.713652 -355.228318 
L 358.717449 -359.309675 
L 358.719409 -363.391031 
L 358.719162 -367.472388 
L 358.716334 -371.553744 
L 358.710577 -375.635101 
L 358.701596 -379.716457 
L 358.689192 -383.797814 
L 358.673293 -387.87917 
L 358.653993 -391.960527 
L 358.631576 -396.041883 
L 358.60654 -400.12324 
L 358.5796 -404.204596 
L 358.551683 -408.285953 
L 358.523906 -412.367309 
L 358.49754 -416.448666 
L 358.473963 -420.530022 
L 358.454596 -424.611379 
L 358.440844 -428.692735 
L 358.434023 -432.774092 
L 358.435291 -436.855448 
L 358.44559 -440.936805 
L 358.465587 -445.018161 
L 358.495637 -449.099518 
L 358.535754 -453.180874 
L 358.5856 -457.262231 
L 358.644495 -461.343587 
L 358.711443 -465.424944 
L 358.785169 -469.5063 
L 358.864186 -473.587657 
L 360.819034 -473.587657 
L 360.819034 -473.587657 
L 360.898051 -469.5063 
L 360.971777 -465.424944 
L 361.038725 -461.343587 
L 361.09762 -457.262231 
L 361.147466 -453.180874 
L 361.187583 -449.099518 
L 361.217633 -445.018161 
L 361.23763 -440.936805 
L 361.247929 -436.855448 
L 361.249197 -432.774092 
L 361.242376 -428.692735 
L 361.228624 -424.611379 
L 361.209257 -420.530022 
L 361.18568 -416.448666 
L 361.159314 -412.367309 
L 361.131537 -408.285953 
L 361.10362 -404.204596 
L 361.07668 -400.12324 
L 361.051644 -396.041883 
L 361.029227 -391.960527 
L 361.009927 -387.87917 
L 360.994028 -383.797814 
L 360.981624 -379.716457 
L 360.972643 -375.635101 
L 360.966886 -371.553744 
L 360.964058 -367.472388 
L 360.963811 -363.391031 
L 360.965771 -359.309675 
L 360.969568 -355.228318 
L 360.974859 -351.146962 
L 360.981339 -347.065605 
L 360.988757 -342.984249 
L 360.996914 -338.902892 
L 361.005667 -334.821536 
L 361.01492 -330.740179 
L 361.024624 -326.658823 
L 361.034754 -322.577466 
L 361.045296 -318.49611 
L 361.056223 -314.414753 
L 361.067463 -310.333397 
L 361.078873 -306.25204 
L 361.090206 -302.170684 
L 361.101086 -298.089327 
L 361.110998 -294.007971 
L 361.119283 -289.926614 
L 361.125167 -285.845258 
L 361.127796 -281.763901 
L 361.126305 -277.682545 
L 361.119896 -273.601188 
L 361.107929 -269.519832 
L 361.090012 -265.438475 
L 361.066087 -261.357119 
L 361.036492 -257.275762 
L 361.001997 -253.194406 
L 360.96381 -249.113049 
L 360.923548 -245.031693 
L 360.883181 -240.950336 
L 360.844952 -236.86898 
L 360.811289 -232.787623 
L 360.784721 -228.706267 
L 360.767808 -224.62491 
L 360.763107 -220.543554 
L 360.773166 -216.462197 
L 360.800567 -212.380841 
L 360.848013 -208.299484 
L 360.918439 -204.218128 
L 361.015152 -200.136771 
L 361.141978 -196.055415 
L 361.303384 -191.974058 
L 361.504574 -187.892702 
L 361.75152 -183.811345 
L 362.050922 -179.729989 
L 362.410066 -175.648632 
L 362.836594 -171.567276 
L 363.338157 -167.485919 
L 363.921971 -163.404563 
L 364.594293 -159.323207 
L 365.35981 -155.24185 
L 366.221009 -151.160494 
L 367.177521 -147.079137 
L 368.225514 -142.997781 
L 369.357159 -138.916424 
L 370.560225 -134.835068 
L 371.817859 -130.753711 
L 373.108577 -126.672355 
L 374.406533 -122.590998 
L 375.68207 -118.509642 
L 376.902581 -114.428285 
L 378.033656 -110.346929 
L 379.040501 -106.265572 
L 379.889541 -102.184216 
L 380.550143 -98.102859 
L 380.996335 -94.021503 
L 381.208396 -89.940146 
L 381.174194 -85.85879 
L 380.890142 -81.777433 
L 380.361679 -77.696077 
L 379.603203 -73.61472 
L 378.637455 -69.533364 
z
" id="m71c7adcb76" style="stroke:#141414;stroke-width:1.5;"/>
    </defs>
    <g clip-path="url(#pf7c872b278)">
     <use style="fill:#0e5f2f;stroke:#141414;stroke-width:1.5;" x="0" xlink:href="#m71c7adcb76" y="540.169"/>
    </g>
   </g>
   <g id="PolyCollection_7">
    <defs>
     <path d="M 441.338295 -69.55809 
L 406.54564 -69.55809 
L 406.294754 -74.009173 
L 406.235956 -78.460255 
L 406.370084 -82.911337 
L 406.69155 -87.362419 
L 407.188683 -91.813501 
L 407.844404 -96.264583 
L 408.637171 -100.715665 
L 409.542124 -105.166747 
L 410.532351 -109.617829 
L 411.580174 -114.068911 
L 412.658387 -118.519993 
L 413.741347 -122.971075 
L 414.80589 -127.422157 
L 415.832006 -131.873239 
L 416.803277 -136.324321 
L 417.707066 -140.775403 
L 418.534492 -145.226485 
L 419.280207 -149.677568 
L 419.94204 -154.12865 
L 420.52053 -158.579732 
L 421.018416 -163.030814 
L 421.440112 -167.481896 
L 421.791201 -171.932978 
L 422.077992 -176.38406 
L 422.307128 -180.835142 
L 422.485285 -185.286224 
L 422.618939 -189.737306 
L 422.714209 -194.188388 
L 422.776763 -198.63947 
L 422.811778 -203.090552 
L 422.823935 -207.541634 
L 422.817444 -211.992716 
L 422.796081 -216.443798 
L 422.763235 -220.89488 
L 422.721948 -225.345963 
L 422.67495 -229.797045 
L 422.624685 -234.248127 
L 422.573328 -238.699209 
L 422.522789 -243.150291 
L 422.474711 -247.601373 
L 422.430463 -252.052455 
L 422.391133 -256.503537 
L 422.357519 -260.954619 
L 422.33013 -265.405701 
L 422.309191 -269.856783 
L 422.294651 -274.307865 
L 422.286214 -278.758947 
L 422.283363 -283.210029 
L 422.285401 -287.661111 
L 422.291498 -292.112193 
L 422.300736 -296.563275 
L 422.312156 -301.014358 
L 422.32481 -305.46544 
L 422.337796 -309.916522 
L 422.350297 -314.367604 
L 422.361608 -318.818686 
L 422.371153 -323.269768 
L 422.378492 -327.72085 
L 422.383326 -332.171932 
L 422.385487 -336.623014 
L 422.384926 -341.074096 
L 422.381695 -345.525178 
L 422.375933 -349.97626 
L 422.367837 -354.427342 
L 422.357655 -358.878424 
L 422.345659 -363.329506 
L 422.332142 -367.780588 
L 422.317399 -372.23167 
L 422.301728 -376.682753 
L 422.285426 -381.133835 
L 422.268787 -385.584917 
L 422.252108 -390.035999 
L 422.23569 -394.487081 
L 422.219848 -398.938163 
L 422.204913 -403.389245 
L 422.19124 -407.840327 
L 422.179206 -412.291409 
L 422.16922 -416.742491 
L 422.161712 -421.193573 
L 422.157138 -425.644655 
L 422.155967 -430.095737 
L 422.158671 -434.546819 
L 422.165715 -438.997901 
L 422.177538 -443.448983 
L 422.194539 -447.900066 
L 422.217056 -452.351148 
L 422.245351 -456.80223 
L 422.279593 -461.253312 
L 422.319845 -465.704394 
L 422.366056 -470.155476 
L 422.418051 -474.606558 
L 422.475535 -479.05764 
L 422.538093 -483.508722 
L 422.605197 -487.959804 
L 422.676221 -492.410886 
L 422.750453 -496.861968 
L 422.827116 -501.31305 
L 422.905385 -505.764132 
L 422.984412 -510.215214 
L 424.899523 -510.215214 
L 424.899523 -510.215214 
L 424.978551 -505.764132 
L 425.05682 -501.31305 
L 425.133482 -496.861968 
L 425.207715 -492.410886 
L 425.278738 -487.959804 
L 425.345842 -483.508722 
L 425.4084 -479.05764 
L 425.465884 -474.606558 
L 425.51788 -470.155476 
L 425.56409 -465.704394 
L 425.604342 -461.253312 
L 425.638584 -456.80223 
L 425.666879 -452.351148 
L 425.689396 -447.900066 
L 425.706397 -443.448983 
L 425.718221 -438.997901 
L 425.725265 -434.546819 
L 425.727969 -430.095737 
L 425.726797 -425.644655 
L 425.722223 -421.193573 
L 425.714716 -416.742491 
L 425.704729 -412.291409 
L 425.692696 -407.840327 
L 425.679022 -403.389245 
L 425.664088 -398.938163 
L 425.648246 -394.487081 
L 425.631828 -390.035999 
L 425.615148 -385.584917 
L 425.598509 -381.133835 
L 425.582207 -376.682753 
L 425.566537 -372.23167 
L 425.551794 -367.780588 
L 425.538276 -363.329506 
L 425.526281 -358.878424 
L 425.516098 -354.427342 
L 425.508003 -349.97626 
L 425.50224 -345.525178 
L 425.49901 -341.074096 
L 425.498449 -336.623014 
L 425.50061 -332.171932 
L 425.505444 -327.72085 
L 425.512783 -323.269768 
L 425.522327 -318.818686 
L 425.533638 -314.367604 
L 425.546139 -309.916522 
L 425.559125 -305.46544 
L 425.571779 -301.014358 
L 425.5832 -296.563275 
L 425.592437 -292.112193 
L 425.598535 -287.661111 
L 425.600573 -283.210029 
L 425.597722 -278.758947 
L 425.589284 -274.307865 
L 425.574745 -269.856783 
L 425.553805 -265.405701 
L 425.526417 -260.954619 
L 425.492803 -256.503537 
L 425.453473 -252.052455 
L 425.409225 -247.601373 
L 425.361146 -243.150291 
L 425.310608 -238.699209 
L 425.259251 -234.248127 
L 425.208986 -229.797045 
L 425.161988 -225.345963 
L 425.1207 -220.89488 
L 425.087855 -216.443798 
L 425.066492 -211.992716 
L 425.060001 -207.541634 
L 425.072158 -203.090552 
L 425.107172 -198.63947 
L 425.169727 -194.188388 
L 425.264996 -189.737306 
L 425.39865 -185.286224 
L 425.576808 -180.835142 
L 425.805944 -176.38406 
L 426.092734 -171.932978 
L 426.443824 -167.481896 
L 426.865519 -163.030814 
L 427.363406 -158.579732 
L 427.941896 -154.12865 
L 428.603729 -149.677568 
L 429.349444 -145.226485 
L 430.17687 -140.775403 
L 431.080659 -136.324321 
L 432.05193 -131.873239 
L 433.078046 -127.422157 
L 434.142589 -122.971075 
L 435.225549 -118.519993 
L 436.303761 -114.068911 
L 437.351585 -109.617829 
L 438.341811 -105.166747 
L 439.246765 -100.715665 
L 440.039532 -96.264583 
L 440.695253 -91.813501 
L 441.192386 -87.362419 
L 441.513851 -82.911337 
L 441.64798 -78.460255 
L 441.589182 -74.009173 
L 441.338295 -69.55809 
z
" id="m42bff2b7d8" style="stroke:#141414;stroke-width:1.5;"/>
    </defs>
    <g clip-path="url(#pf7c872b278)">
     <use style="fill:#083c1d;stroke:#141414;stroke-width:1.5;" x="0" xlink:href="#m42bff2b7d8" y="540.169"/>
    </g>
   </g>
   <g id="PolyCollection_8">
    <defs>
     <path d="M 487.752751 -69.533364 
L 445.598329 -69.533364 
L 445.311252 -73.745461 
L 445.308754 -77.957559 
L 445.589391 -82.169656 
L 446.140309 -86.381754 
L 446.93816 -90.593852 
L 447.950698 -94.805949 
L 449.138899 -99.018047 
L 450.459405 -103.230144 
L 451.867096 -107.442242 
L 453.317558 -111.65434 
L 454.769286 -115.866437 
L 456.185461 -120.078535 
L 457.53522 -124.290632 
L 458.79439 -128.50273 
L 459.945694 -132.714827 
L 460.978496 -136.926925 
L 461.888182 -141.139023 
L 462.675282 -145.35112 
L 463.344436 -149.563218 
L 463.903339 -153.775315 
L 464.361705 -157.987413 
L 464.730367 -162.199511 
L 465.020511 -166.411608 
L 465.24309 -170.623706 
L 465.408407 -174.835803 
L 465.525854 -179.047901 
L 465.603781 -183.259998 
L 465.649476 -187.472096 
L 465.669207 -191.684194 
L 465.668319 -195.896291 
L 465.651346 -200.108389 
L 465.622135 -204.320486 
L 465.583953 -208.532584 
L 465.539586 -212.744682 
L 465.491411 -216.956779 
L 465.44146 -221.168877 
L 465.391453 -225.380974 
L 465.342829 -229.593072 
L 465.29676 -233.80517 
L 465.25416 -238.017267 
L 465.215696 -242.229365 
L 465.181787 -246.441462 
L 465.152621 -250.65356 
L 465.128161 -254.865657 
L 465.108172 -259.077755 
L 465.092239 -263.289853 
L 465.079805 -267.50195 
L 465.070209 -271.714048 
L 465.062733 -275.926145 
L 465.056649 -280.138243 
L 465.051274 -284.350341 
L 465.046012 -288.562438 
L 465.040405 -292.774536 
L 465.034159 -296.986633 
L 465.027171 -301.198731 
L 465.019532 -305.410828 
L 465.011517 -309.622926 
L 465.003562 -313.835024 
L 464.99622 -318.047121 
L 464.990112 -322.259219 
L 464.985869 -326.471316 
L 464.984073 -330.683414 
L 464.9852 -334.895512 
L 464.989577 -339.107609 
L 464.997351 -343.319707 
L 465.008473 -347.531804 
L 465.0227 -351.743902 
L 465.039621 -355.956 
L 465.058688 -360.168097 
L 465.079267 -364.380195 
L 465.100691 -368.592292 
L 465.122314 -372.80439 
L 465.143559 -377.016487 
L 465.163964 -381.228585 
L 465.183207 -385.440683 
L 465.201123 -389.65278 
L 465.217706 -393.864878 
L 465.233095 -398.076975 
L 465.247554 -402.289073 
L 465.261447 -406.501171 
L 465.2752 -410.713268 
L 465.289279 -414.925366 
L 465.304157 -419.137463 
L 465.320296 -423.349561 
L 465.338132 -427.561659 
L 465.358063 -431.773756 
L 465.38045 -435.985854 
L 465.405615 -440.197951 
L 465.433838 -444.410049 
L 465.46536 -448.622146 
L 465.500377 -452.834244 
L 465.539032 -457.046342 
L 465.5814 -461.258439 
L 465.627481 -465.470537 
L 465.677174 -469.682634 
L 465.73027 -473.894732 
L 465.78644 -478.10683 
L 465.845227 -482.318927 
L 465.906058 -486.531025 
L 467.445021 -486.531025 
L 467.445021 -486.531025 
L 467.505852 -482.318927 
L 467.56464 -478.10683 
L 467.620809 -473.894732 
L 467.673906 -469.682634 
L 467.723599 -465.470537 
L 467.769679 -461.258439 
L 467.812048 -457.046342 
L 467.850702 -452.834244 
L 467.885719 -448.622146 
L 467.917241 -444.410049 
L 467.945464 -440.197951 
L 467.970629 -435.985854 
L 467.993017 -431.773756 
L 468.012948 -427.561659 
L 468.030783 -423.349561 
L 468.046922 -419.137463 
L 468.0618 -414.925366 
L 468.075879 -410.713268 
L 468.089633 -406.501171 
L 468.103525 -402.289073 
L 468.117984 -398.076975 
L 468.133373 -393.864878 
L 468.149956 -389.65278 
L 468.167872 -385.440683 
L 468.187116 -381.228585 
L 468.20752 -377.016487 
L 468.228766 -372.80439 
L 468.250388 -368.592292 
L 468.271812 -364.380195 
L 468.292391 -360.168097 
L 468.311459 -355.956 
L 468.328379 -351.743902 
L 468.342607 -347.531804 
L 468.353728 -343.319707 
L 468.361502 -339.107609 
L 468.36588 -334.895512 
L 468.367007 -330.683414 
L 468.36521 -326.471316 
L 468.360967 -322.259219 
L 468.354859 -318.047121 
L 468.347517 -313.835024 
L 468.339562 -309.622926 
L 468.331547 -305.410828 
L 468.323908 -301.198731 
L 468.31692 -296.986633 
L 468.310674 -292.774536 
L 468.305067 -288.562438 
L 468.299806 -284.350341 
L 468.29443 -280.138243 
L 468.288347 -275.926145 
L 468.28087 -271.714048 
L 468.271274 -267.50195 
L 468.25884 -263.289853 
L 468.242907 -259.077755 
L 468.222918 -254.865657 
L 468.198459 -250.65356 
L 468.169292 -246.441462 
L 468.135384 -242.229365 
L 468.096919 -238.017267 
L 468.05432 -233.80517 
L 468.00825 -229.593072 
L 467.959626 -225.380974 
L 467.909619 -221.168877 
L 467.859668 -216.956779 
L 467.811494 -212.744682 
L 467.767126 -208.532584 
L 467.728944 -204.320486 
L 467.699733 -200.108389 
L 467.68276 -195.896291 
L 467.681872 -191.684194 
L 467.701603 -187.472096 
L 467.747298 -183.259998 
L 467.825226 -179.047901 
L 467.942672 -174.835803 
L 468.107989 -170.623706 
L 468.330569 -166.411608 
L 468.620713 -162.199511 
L 468.989375 -157.987413 
L 469.447741 -153.775315 
L 470.006643 -149.563218 
L 470.675798 -145.35112 
L 471.462897 -141.139023 
L 472.372584 -136.926925 
L 473.405386 -132.714827 
L 474.556689 -128.50273 
L 475.815859 -124.290632 
L 477.165618 -120.078535 
L 478.581793 -115.866437 
L 480.033521 -111.65434 
L 481.483983 -107.442242 
L 482.891674 -103.230144 
L 484.21218 -99.018047 
L 485.400381 -94.805949 
L 486.41292 -90.593852 
L 487.210771 -86.381754 
L 487.761688 -82.169656 
L 488.042326 -77.957559 
L 488.039827 -73.745461 
L 487.752751 -69.533364 
z
" id="me77294fd17" style="stroke:#141414;stroke-width:1.5;"/>
    </defs>
    <g clip-path="url(#pf7c872b278)">
     <use style="fill:#0e5f2f;stroke:#141414;stroke-width:1.5;" x="0" xlink:href="#me77294fd17" y="540.169"/>
    </g>
   </g>
   <g id="PolyCollection_9">
    <defs>
     <path d="M 531.494871 -84.305145 
L 530.056923 -84.305145 
L 529.946575 -86.564228 
L 529.848679 -88.823311 
L 529.765009 -91.082393 
L 529.694323 -93.341476 
L 529.633319 -95.600559 
L 529.578126 -97.859641 
L 529.525715 -100.118724 
L 529.474648 -102.377807 
L 529.424834 -104.636889 
L 529.376367 -106.895972 
L 529.327929 -109.155055 
L 529.275437 -111.414137 
L 529.211588 -113.67322 
L 529.126666 -115.932303 
L 529.010521 -118.191385 
L 528.85519 -120.450468 
L 528.657368 -122.709551 
L 528.419914 -124.968633 
L 528.151877 -127.227716 
L 527.866953 -129.486799 
L 527.580763 -131.745881 
L 527.307638 -134.004964 
L 527.057692 -136.264047 
L 526.83472 -138.523129 
L 526.635233 -140.782212 
L 526.448631 -143.041294 
L 526.258441 -145.300377 
L 526.044526 -147.55946 
L 525.786119 -149.818542 
L 525.465429 -152.077625 
L 525.071237 -154.336708 
L 524.601641 -156.59579 
L 524.064996 -158.854873 
L 523.478406 -161.113956 
L 522.863799 -163.373038 
L 522.242549 -165.632121 
L 521.630363 -167.891204 
L 521.034311 -170.150286 
L 520.453278 -172.409369 
L 519.881825 -174.668452 
L 519.316021 -176.927534 
L 518.758855 -179.186617 
L 518.222881 -181.4457 
L 517.72874 -183.704782 
L 517.299873 -185.963865 
L 516.955147 -188.222948 
L 516.701983 -190.48203 
L 516.532357 -192.741113 
L 516.423113 -195.000196 
L 516.340611 -197.259278 
L 516.24838 -199.518361 
L 516.115552 -201.777444 
L 515.923693 -204.036526 
L 515.670408 -206.295609 
L 515.369339 -208.554692 
L 515.047413 -210.813774 
L 514.740742 -213.072857 
L 514.49026 -215.33194 
L 514.337364 -217.591022 
L 514.319276 -219.850105 
L 514.464041 -222.109187 
L 514.785936 -224.36827 
L 515.282806 -226.627353 
L 515.936714 -228.886435 
L 516.718187 -231.145518 
L 517.592742 -233.404601 
L 518.527369 -235.663683 
L 519.494769 -237.922766 
L 520.474373 -240.181849 
L 521.450713 -242.440931 
L 522.410766 -244.700014 
L 523.341892 -246.959097 
L 524.231284 -249.218179 
L 525.066802 -251.477262 
L 525.838433 -253.736345 
L 526.539507 -255.995427 
L 527.167137 -258.25451 
L 527.72185 -260.513593 
L 528.206696 -262.772675 
L 528.626268 -265.031758 
L 528.985925 -267.290841 
L 529.291383 -269.549923 
L 529.548564 -271.809006 
L 529.763531 -274.068089 
L 529.942318 -276.327171 
L 530.090581 -278.586254 
L 530.213177 -280.845337 
L 530.313855 -283.104419 
L 530.39524 -285.363502 
L 530.459142 -287.622585 
L 530.507086 -289.881667 
L 530.540861 -292.14075 
L 530.562875 -294.399832 
L 530.576215 -296.658915 
L 530.584402 -298.917998 
L 530.590946 -301.17708 
L 530.598832 -303.436163 
L 530.610078 -305.695246 
L 530.625493 -307.954328 
L 530.926302 -307.954328 
L 530.926302 -307.954328 
L 530.941717 -305.695246 
L 530.952963 -303.436163 
L 530.960849 -301.17708 
L 530.967393 -298.917998 
L 530.97558 -296.658915 
L 530.98892 -294.399832 
L 531.010934 -292.14075 
L 531.044709 -289.881667 
L 531.092653 -287.622585 
L 531.156555 -285.363502 
L 531.23794 -283.104419 
L 531.338618 -280.845337 
L 531.461214 -278.586254 
L 531.609477 -276.327171 
L 531.788264 -274.068089 
L 532.003231 -271.809006 
L 532.260412 -269.549923 
L 532.56587 -267.290841 
L 532.925527 -265.031758 
L 533.345098 -262.772675 
L 533.829945 -260.513593 
L 534.384658 -258.25451 
L 535.012288 -255.995427 
L 535.713362 -253.736345 
L 536.484993 -251.477262 
L 537.320511 -249.218179 
L 538.209903 -246.959097 
L 539.141029 -244.700014 
L 540.101082 -242.440931 
L 541.077422 -240.181849 
L 542.057025 -237.922766 
L 543.024426 -235.663683 
L 543.959053 -233.404601 
L 544.833608 -231.145518 
L 545.615081 -228.886435 
L 546.268989 -226.627353 
L 546.765859 -224.36827 
L 547.087754 -222.109187 
L 547.232518 -219.850105 
L 547.214431 -217.591022 
L 547.061535 -215.33194 
L 546.811053 -213.072857 
L 546.504382 -210.813774 
L 546.182456 -208.554692 
L 545.881387 -206.295609 
L 545.628102 -204.036526 
L 545.436243 -201.777444 
L 545.303415 -199.518361 
L 545.211184 -197.259278 
L 545.128682 -195.000196 
L 545.019438 -192.741113 
L 544.849812 -190.48203 
L 544.596648 -188.222948 
L 544.251922 -185.963865 
L 543.823055 -183.704782 
L 543.328914 -181.4457 
L 542.792939 -179.186617 
L 542.235774 -176.927534 
L 541.66997 -174.668452 
L 541.098517 -172.409369 
L 540.517484 -170.150286 
L 539.921432 -167.891204 
L 539.309246 -165.632121 
L 538.687996 -163.373038 
L 538.073389 -161.113956 
L 537.486799 -158.854873 
L 536.950154 -156.59579 
L 536.480557 -154.336708 
L 536.086366 -152.077625 
L 535.765676 -149.818542 
L 535.507269 -147.55946 
L 535.293354 -145.300377 
L 535.103164 -143.041294 
L 534.916562 -140.782212 
L 534.717075 -138.523129 
L 534.494103 -136.264047 
L 534.244157 -134.004964 
L 533.971032 -131.745881 
L 533.684842 -129.486799 
L 533.399918 -127.227716 
L 533.131881 -124.968633 
L 532.894427 -122.709551 
L 532.696605 -120.450468 
L 532.541274 -118.191385 
L 532.425129 -115.932303 
L 532.340207 -113.67322 
L 532.276357 -111.414137 
L 532.223865 -109.155055 
L 532.175428 -106.895972 
L 532.126961 -104.636889 
L 532.077147 -102.377807 
L 532.02608 -100.118724 
L 531.973669 -97.859641 
L 531.918476 -95.600559 
L 531.857472 -93.341476 
L 531.786786 -91.082393 
L 531.703115 -88.823311 
L 531.60522 -86.564228 
L 531.494871 -84.305145 
z
" id="mbf59b79c92" style="stroke:#141414;stroke-width:1.5;"/>
    </defs>
    <g clip-path="url(#pf7c872b278)">
     <use style="fill:#083c1d;stroke:#141414;stroke-width:1.5;" x="0" xlink:href="#mbf59b79c92" y="540.169"/>
    </g>
   </g>
   <g id="PolyCollection_10">
    <defs>
     <path d="M 574.433777 -82.566237 
L 572.585161 -82.566237 
L 572.384047 -84.626227 
L 572.185791 -86.686217 
L 572.003147 -88.746207 
L 571.847684 -90.806197 
L 571.727838 -92.866188 
L 571.647429 -94.926178 
L 571.60503 -96.986168 
L 571.594345 -99.046158 
L 571.605538 -101.106148 
L 571.627179 -103.166138 
L 571.648335 -105.226129 
L 571.660305 -107.286119 
L 571.657603 -109.346109 
L 571.638045 -111.406099 
L 571.602056 -113.466089 
L 571.551516 -115.526079 
L 571.48858 -117.58607 
L 571.414811 -119.64606 
L 571.330805 -121.70605 
L 571.236281 -123.76604 
L 571.130391 -125.82603 
L 571.012017 -127.88602 
L 570.879847 -129.94601 
L 570.732207 -132.006001 
L 570.566818 -134.065991 
L 570.380699 -136.125981 
L 570.170472 -138.185971 
L 569.933085 -140.245961 
L 569.666866 -142.305951 
L 569.3726 -144.365942 
L 569.054366 -146.425932 
L 568.719894 -148.485922 
L 568.38035 -150.545912 
L 568.049478 -152.605902 
L 567.742072 -154.665892 
L 567.471797 -156.725883 
L 567.248494 -158.785873 
L 567.075418 -160.845863 
L 566.947093 -162.905853 
L 566.84855 -164.965843 
L 566.756499 -167.025833 
L 566.642415 -169.085824 
L 566.476898 -171.145814 
L 566.234177 -173.205804 
L 565.895596 -175.265794 
L 565.4513 -177.325784 
L 564.899976 -179.385774 
L 564.247133 -181.445764 
L 563.502728 -183.505755 
L 562.678936 -185.565745 
L 561.788587 -187.625735 
L 560.844443 -189.685725 
L 559.859247 -191.745715 
L 558.846376 -193.805705 
L 557.820913 -195.865696 
L 556.800933 -197.925686 
L 555.808698 -199.985676 
L 554.871325 -202.045666 
L 554.020446 -204.105656 
L 553.2905 -206.165646 
L 552.715658 -208.225637 
L 552.325832 -210.285627 
L 552.142683 -212.345617 
L 552.176658 -214.405607 
L 552.425969 -216.465597 
L 552.877877 -218.525587 
L 553.511962 -220.585578 
L 554.304432 -222.645568 
L 555.232184 -224.705558 
L 556.275395 -226.765548 
L 557.417905 -228.825538 
L 558.645436 -230.885528 
L 559.942408 -232.945519 
L 561.288637 -235.005509 
L 562.657274 -237.065499 
L 564.014903 -239.125489 
L 565.324056 -241.185479 
L 566.547595 -243.245469 
L 567.653835 -245.305459 
L 568.621078 -247.36545 
L 569.440387 -249.42544 
L 570.115935 -251.48543 
L 570.662929 -253.54542 
L 571.103694 -255.60541 
L 571.462942 -257.6654 
L 571.763358 -259.725391 
L 572.022439 -261.785381 
L 572.251117 -263.845371 
L 572.454145 -265.905361 
L 572.631831 -267.965351 
L 572.782408 -270.025341 
L 572.904327 -272.085332 
L 572.997911 -274.145322 
L 573.066073 -276.205312 
L 573.1141 -278.265302 
L 573.148701 -280.325292 
L 573.17671 -282.385282 
L 573.203824 -284.445273 
L 573.233716 -286.505263 
L 573.785223 -286.505263 
L 573.785223 -286.505263 
L 573.815114 -284.445273 
L 573.842228 -282.385282 
L 573.870238 -280.325292 
L 573.904839 -278.265302 
L 573.952865 -276.205312 
L 574.021028 -274.145322 
L 574.114611 -272.085332 
L 574.236531 -270.025341 
L 574.387108 -267.965351 
L 574.564794 -265.905361 
L 574.767822 -263.845371 
L 574.996499 -261.785381 
L 575.255581 -259.725391 
L 575.555996 -257.6654 
L 575.915245 -255.60541 
L 576.35601 -253.54542 
L 576.903004 -251.48543 
L 577.578552 -249.42544 
L 578.397861 -247.36545 
L 579.365104 -245.305459 
L 580.471344 -243.245469 
L 581.694882 -241.185479 
L 583.004035 -239.125489 
L 584.361664 -237.065499 
L 585.730301 -235.005509 
L 587.076531 -232.945519 
L 588.373502 -230.885528 
L 589.601034 -228.825538 
L 590.743544 -226.765548 
L 591.786754 -224.705558 
L 592.714507 -222.645568 
L 593.506976 -220.585578 
L 594.141061 -218.525587 
L 594.59297 -216.465597 
L 594.842281 -214.405607 
L 594.876255 -212.345617 
L 594.693106 -210.285627 
L 594.303281 -208.225637 
L 593.728438 -206.165646 
L 592.998493 -204.105656 
L 592.147614 -202.045666 
L 591.210241 -199.985676 
L 590.218005 -197.925686 
L 589.198026 -195.865696 
L 588.172562 -193.805705 
L 587.159691 -191.745715 
L 586.174496 -189.685725 
L 585.230352 -187.625735 
L 584.340003 -185.565745 
L 583.516211 -183.505755 
L 582.771806 -181.445764 
L 582.118963 -179.385774 
L 581.567639 -177.325784 
L 581.123342 -175.265794 
L 580.784762 -173.205804 
L 580.542041 -171.145814 
L 580.376524 -169.085824 
L 580.26244 -167.025833 
L 580.170388 -164.965843 
L 580.071845 -162.905853 
L 579.94352 -160.845863 
L 579.770445 -158.785873 
L 579.547141 -156.725883 
L 579.276866 -154.665892 
L 578.969461 -152.605902 
L 578.638588 -150.545912 
L 578.299044 -148.485922 
L 577.964573 -146.425932 
L 577.646338 -144.365942 
L 577.352073 -142.305951 
L 577.085853 -140.245961 
L 576.848467 -138.185971 
L 576.638239 -136.125981 
L 576.452121 -134.065991 
L 576.286731 -132.006001 
L 576.139092 -129.94601 
L 576.006922 -127.88602 
L 575.888548 -125.82603 
L 575.782657 -123.76604 
L 575.688133 -121.70605 
L 575.604128 -119.64606 
L 575.530358 -117.58607 
L 575.467423 -115.526079 
L 575.416883 -113.466089 
L 575.380893 -111.406099 
L 575.361336 -109.346109 
L 575.358634 -107.286119 
L 575.370604 -105.226129 
L 575.39176 -103.166138 
L 575.413401 -101.106148 
L 575.424594 -99.046158 
L 575.413909 -96.986168 
L 575.371509 -94.926178 
L 575.2911 -92.866188 
L 575.171254 -90.806197 
L 575.015792 -88.746207 
L 574.833148 -86.686217 
L 574.634891 -84.626227 
L 574.433777 -82.566237 
z
" id="mf3e4728ada" style="stroke:#141414;stroke-width:1.5;"/>
    </defs>
    <g clip-path="url(#pf7c872b278)">
     <use style="fill:#0e5f2f;stroke:#141414;stroke-width:1.5;" x="0" xlink:href="#mf3e4728ada" y="540.169"/>
    </g>
   </g>
   <g id="patch_3">
    <path clip-path="url(#pf7c872b278)" d="M 124.806965 471.071817 
L 124.806965 471.071817 
L 124.806965 471.071817 
L 124.806965 471.071817 
z
" style="fill:#083c1d;stroke:#141414;stroke-linejoin:miter;stroke-width:0.75;"/>
   </g>
   <g id="patch_4">
    <path clip-path="url(#pf7c872b278)" d="M 124.806965 471.071817 
L 124.806965 471.071817 
L 124.806965 471.071817 
L 124.806965 471.071817 
z
" style="fill:#0e5f2f;stroke:#141414;stroke-linejoin:miter;stroke-width:0.75;"/>
   </g>
   <g id="line2d_1">
    <path clip-path="url(#pf7c872b278)" d="M 103.440179 470.536922 
L 103.440179 370.353164 
" style="fill:none;stroke:#141414;stroke-linecap:round;stroke-width:1.5;"/>
   </g>
   <g id="line2d_2">
    <path clip-path="url(#pf7c872b278)" d="M 103.440179 436.039527 
L 103.440179 409.639483 
" style="fill:none;stroke:#141414;stroke-linecap:round;stroke-width:4.5;"/>
   </g>
   <g id="line2d_3">
    <path clip-path="url(#pf7c872b278)" d="M 146.173751 469.280978 
L 146.173751 377.450917 
" style="fill:none;stroke:#141414;stroke-linecap:round;stroke-width:1.5;"/>
   </g>
   <g id="line2d_4">
    <path clip-path="url(#pf7c872b278)" d="M 146.173751 444.234422 
L 146.173751 417.20822 
" style="fill:none;stroke:#141414;stroke-linecap:round;stroke-width:4.5;"/>
   </g>
   <g id="line2d_5">
    <path clip-path="url(#pf7c872b278)" d="M 210.274109 464.024874 
L 210.274109 371.362019 
" style="fill:none;stroke:#141414;stroke-linecap:round;stroke-width:1.5;"/>
   </g>
   <g id="line2d_6">
    <path clip-path="url(#pf7c872b278)" d="M 210.274109 429.907768 
L 210.274109 405.88576 
" style="fill:none;stroke:#141414;stroke-linecap:round;stroke-width:4.5;"/>
   </g>
   <g id="line2d_7">
    <path clip-path="url(#pf7c872b278)" d="M 253.00768 469.758342 
L 253.00768 379.570554 
" style="fill:none;stroke:#141414;stroke-linecap:round;stroke-width:1.5;"/>
   </g>
   <g id="line2d_8">
    <path clip-path="url(#pf7c872b278)" d="M 253.00768 436.72683 
L 253.00768 413.819662 
" style="fill:none;stroke:#141414;stroke-linecap:round;stroke-width:4.5;"/>
   </g>
   <g id="line2d_9">
    <path clip-path="url(#pf7c872b278)" d="M 317.108038 470.612472 
L 317.108038 304.884176 
" style="fill:none;stroke:#141414;stroke-linecap:round;stroke-width:1.5;"/>
   </g>
   <g id="line2d_10">
    <path clip-path="url(#pf7c872b278)" d="M 317.108038 463.93138 
L 317.108038 395.174055 
" style="fill:none;stroke:#141414;stroke-linecap:round;stroke-width:4.5;"/>
   </g>
   <g id="line2d_11">
    <path clip-path="url(#pf7c872b278)" d="M 359.84161 470.635636 
L 359.84161 359.171863 
" style="fill:none;stroke:#141414;stroke-linecap:round;stroke-width:1.5;"/>
   </g>
   <g id="line2d_12">
    <path clip-path="url(#pf7c872b278)" d="M 359.84161 464.983378 
L 359.84161 421.922613 
" style="fill:none;stroke:#141414;stroke-linecap:round;stroke-width:4.5;"/>
   </g>
   <g id="line2d_13">
    <path clip-path="url(#pf7c872b278)" d="M 423.941968 470.61091 
L 423.941968 378.365304 
" style="fill:none;stroke:#141414;stroke-linecap:round;stroke-width:1.5;"/>
   </g>
   <g id="line2d_14">
    <path clip-path="url(#pf7c872b278)" d="M 423.941968 468.153482 
L 423.941968 431.004872 
" style="fill:none;stroke:#141414;stroke-linecap:round;stroke-width:4.5;"/>
   </g>
   <g id="line2d_15">
    <path clip-path="url(#pf7c872b278)" d="M 466.67554 470.635636 
L 466.67554 416.879031 
" style="fill:none;stroke:#141414;stroke-linecap:round;stroke-width:1.5;"/>
   </g>
   <g id="line2d_16">
    <path clip-path="url(#pf7c872b278)" d="M 466.67554 468.845527 
L 466.67554 447.638302 
" style="fill:none;stroke:#141414;stroke-linecap:round;stroke-width:4.5;"/>
   </g>
   <g id="line2d_17">
    <path clip-path="url(#pf7c872b278)" d="M 530.775897 434.514933 
L 530.775897 243.794276 
" style="fill:none;stroke:#141414;stroke-linecap:round;stroke-width:1.5;"/>
   </g>
   <g id="line2d_18">
    <path clip-path="url(#pf7c872b278)" d="M 530.775897 363.584587 
L 530.775897 315.408879 
" style="fill:none;stroke:#141414;stroke-linecap:round;stroke-width:4.5;"/>
   </g>
   <g id="line2d_19">
    <path clip-path="url(#pf7c872b278)" d="M 573.509469 420.711035 
L 573.509469 258.496838 
" style="fill:none;stroke:#141414;stroke-linecap:round;stroke-width:1.5;"/>
   </g>
   <g id="line2d_20">
    <path clip-path="url(#pf7c872b278)" d="M 573.509469 359.639947 
L 573.509469 318.626615 
" style="fill:none;stroke:#141414;stroke-linecap:round;stroke-width:4.5;"/>
   </g>
   <g id="patch_5">
    <path d="M 71.39 492.704 
L 71.39 7.2 
" style="fill:none;stroke:#262626;stroke-linecap:square;stroke-linejoin:miter;stroke-width:0.8;"/>
   </g>
   <g id="patch_6">
    <path d="M 71.39 492.704 
L 605.559648 492.704 
" style="fill:none;stroke:#262626;stroke-linecap:square;stroke-linejoin:miter;stroke-width:0.8;"/>
   </g>
   <g id="PathCollection_1">
    <defs>
     <path d="M 0 1.5 
C 0.397805 1.5 0.77937 1.341951 1.06066 1.06066 
C 1.341951 0.77937 1.5 0.397805 1.5 0 
C 1.5 -0.397805 1.341951 -0.77937 1.06066 -1.06066 
C 0.77937 -1.341951 0.397805 -1.5 0 -1.5 
C -0.397805 -1.5 -0.77937 -1.341951 -1.06066 -1.06066 
C -1.341951 -0.77937 -1.5 -0.397805 -1.5 0 
C -1.5 0.397805 -1.341951 0.77937 -1.06066 1.06066 
C -0.77937 1.341951 -0.397805 1.5 0 1.5 
z
" id="m5d2a5ccab1" style="stroke:#141414;"/>
    </defs>
    <g clip-path="url(#pf7c872b278)">
     <use style="fill:#ffffff;stroke:#141414;" x="103.440179" xlink:href="#m5d2a5ccab1" y="423.089065"/>
    </g>
   </g>
   <g id="PathCollection_2">
    <g clip-path="url(#pf7c872b278)">
     <use style="fill:#ffffff;stroke:#141414;" x="146.173751" xlink:href="#m5d2a5ccab1" y="430.814443"/>
    </g>
   </g>
   <g id="PathCollection_3">
    <g clip-path="url(#pf7c872b278)">
     <use style="fill:#ffffff;stroke:#141414;" x="210.274109" xlink:href="#m5d2a5ccab1" y="418.397496"/>
    </g>
   </g>
   <g id="PathCollection_4">
    <g clip-path="url(#pf7c872b278)">
     <use style="fill:#ffffff;stroke:#141414;" x="253.00768" xlink:href="#m5d2a5ccab1" y="423.288459"/>
    </g>
   </g>
   <g id="PathCollection_5">
    <g clip-path="url(#pf7c872b278)">
     <use style="fill:#ffffff;stroke:#141414;" x="317.108038" xlink:href="#m5d2a5ccab1" y="447.608648"/>
    </g>
   </g>
   <g id="PathCollection_6">
    <g clip-path="url(#pf7c872b278)">
     <use style="fill:#ffffff;stroke:#141414;" x="359.84161" xlink:href="#m5d2a5ccab1" y="445.413762"/>
    </g>
   </g>
   <g id="PathCollection_7">
    <g clip-path="url(#pf7c872b278)">
     <use style="fill:#ffffff;stroke:#141414;" x="423.941968" xlink:href="#m5d2a5ccab1" y="463.38011"/>
    </g>
   </g>
   <g id="PathCollection_8">
    <g clip-path="url(#pf7c872b278)">
     <use style="fill:#ffffff;stroke:#141414;" x="466.67554" xlink:href="#m5d2a5ccab1" y="464.851831"/>
    </g>
   </g>
   <g id="PathCollection_9">
    <g clip-path="url(#pf7c872b278)">
     <use style="fill:#ffffff;stroke:#141414;" x="530.775897" xlink:href="#m5d2a5ccab1" y="336.808153"/>
    </g>
   </g>
   <g id="PathCollection_10">
    <g clip-path="url(#pf7c872b278)">
     <use style="fill:#ffffff;stroke:#141414;" x="573.509469" xlink:href="#m5d2a5ccab1" y="334.136539"/>
    </g>
   </g>
  </g>
  <g id="legend_1">
   <g id="text_15">
    <!-- weather -->
    <defs>
     <path d="M 16.15625 0 
L 0.296875 51.859375 
L 9.375 51.859375 
L 17.625 21.921875 
L 20.703125 10.796875 
Q 20.90625 11.625 23.390625 21.484375 
L 31.640625 51.859375 
L 40.671875 51.859375 
L 48.4375 21.78125 
L 51.03125 11.859375 
L 54 21.875 
L 62.890625 51.859375 
L 71.4375 51.859375 
L 55.21875 0 
L 46.09375 0 
L 37.84375 31.0625 
L 35.84375 39.890625 
L 25.34375 0 
z
" id="ArialMT-119"/>
     <path d="M 40.4375 6.390625 
Q 35.546875 2.25 31.03125 0.53125 
Q 26.515625 -1.171875 21.34375 -1.171875 
Q 12.796875 -1.171875 8.203125 3 
Q 3.609375 7.171875 3.609375 13.671875 
Q 3.609375 17.484375 5.34375 20.625 
Q 7.078125 23.78125 9.890625 25.6875 
Q 12.703125 27.59375 16.21875 28.5625 
Q 18.796875 29.25 24.03125 29.890625 
Q 34.671875 31.15625 39.703125 32.90625 
Q 39.75 34.71875 39.75 35.203125 
Q 39.75 40.578125 37.25 42.78125 
Q 33.890625 45.75 27.25 45.75 
Q 21.046875 45.75 18.09375 43.578125 
Q 15.140625 41.40625 13.71875 35.890625 
L 5.125 37.0625 
Q 6.296875 42.578125 8.984375 45.96875 
Q 11.671875 49.359375 16.75 51.1875 
Q 21.828125 53.03125 28.515625 53.03125 
Q 35.15625 53.03125 39.296875 51.46875 
Q 43.453125 49.90625 45.40625 47.53125 
Q 47.359375 45.171875 48.140625 41.546875 
Q 48.578125 39.3125 48.578125 33.453125 
L 48.578125 21.734375 
Q 48.578125 9.46875 49.140625 6.21875 
Q 49.703125 2.984375 51.375 0 
L 42.1875 0 
Q 40.828125 2.734375 40.4375 6.390625 
z
M 39.703125 26.03125 
Q 34.90625 24.078125 25.34375 22.703125 
Q 19.921875 21.921875 17.671875 20.9375 
Q 15.4375 19.96875 14.203125 18.09375 
Q 12.984375 16.21875 12.984375 13.921875 
Q 12.984375 10.40625 15.640625 8.0625 
Q 18.3125 5.71875 23.4375 5.71875 
Q 28.515625 5.71875 32.46875 7.9375 
Q 36.421875 10.15625 38.28125 14.015625 
Q 39.703125 17 39.703125 22.796875 
z
" id="ArialMT-97"/>
     <path d="M 6.59375 0 
L 6.59375 71.578125 
L 15.375 71.578125 
L 15.375 45.90625 
Q 21.53125 53.03125 30.90625 53.03125 
Q 36.671875 53.03125 40.921875 50.75 
Q 45.171875 48.484375 47 44.484375 
Q 48.828125 40.484375 48.828125 32.859375 
L 48.828125 0 
L 40.046875 0 
L 40.046875 32.859375 
Q 40.046875 39.453125 37.1875 42.453125 
Q 34.328125 45.453125 29.109375 45.453125 
Q 25.203125 45.453125 21.75 43.421875 
Q 18.3125 41.40625 16.84375 37.9375 
Q 15.375 34.46875 15.375 28.375 
L 15.375 0 
z
" id="ArialMT-104"/>
    </defs>
    <g style="fill:#262626;" transform="translate(708.06425 251.4945)scale(0.16 -0.16)">
     <use xlink:href="#ArialMT-119"/>
     <use x="72.216797" xlink:href="#ArialMT-101"/>
     <use x="127.832031" xlink:href="#ArialMT-97"/>
     <use x="183.447266" xlink:href="#ArialMT-116"/>
     <use x="211.230469" xlink:href="#ArialMT-104"/>
     <use x="266.845703" xlink:href="#ArialMT-101"/>
     <use x="322.460938" xlink:href="#ArialMT-114"/>
    </g>
   </g>
   <g id="patch_7">
    <path d="M 696.328 274.127 
L 728.328 274.127 
L 728.328 262.927 
L 696.328 262.927 
z
" style="fill:#083c1d;stroke:#141414;stroke-linejoin:miter;stroke-width:0.75;"/>
   </g>
   <g id="text_16">
    <!-- good -->
    <defs>
     <path d="M 4.984375 -4.296875 
L 13.53125 -5.5625 
Q 14.0625 -9.515625 16.5 -11.328125 
Q 19.78125 -13.765625 25.4375 -13.765625 
Q 31.546875 -13.765625 34.859375 -11.328125 
Q 38.1875 -8.890625 39.359375 -4.5 
Q 40.046875 -1.8125 39.984375 6.78125 
Q 34.234375 0 25.640625 0 
Q 14.9375 0 9.078125 7.71875 
Q 3.21875 15.4375 3.21875 26.21875 
Q 3.21875 33.640625 5.90625 39.90625 
Q 8.59375 46.1875 13.6875 49.609375 
Q 18.796875 53.03125 25.6875 53.03125 
Q 34.859375 53.03125 40.828125 45.609375 
L 40.828125 51.859375 
L 48.921875 51.859375 
L 48.921875 7.03125 
Q 48.921875 -5.078125 46.453125 -10.125 
Q 44 -15.1875 38.640625 -18.109375 
Q 33.296875 -21.046875 25.484375 -21.046875 
Q 16.21875 -21.046875 10.5 -16.875 
Q 4.78125 -12.703125 4.984375 -4.296875 
z
M 12.25 26.859375 
Q 12.25 16.65625 16.296875 11.96875 
Q 20.359375 7.28125 26.46875 7.28125 
Q 32.515625 7.28125 36.609375 11.9375 
Q 40.71875 16.609375 40.71875 26.5625 
Q 40.71875 36.078125 36.5 40.90625 
Q 32.28125 45.75 26.3125 45.75 
Q 20.453125 45.75 16.34375 40.984375 
Q 12.25 36.234375 12.25 26.859375 
z
" id="ArialMT-103"/>
    </defs>
    <g style="fill:#262626;" transform="translate(741.128 274.127)scale(0.16 -0.16)">
     <use xlink:href="#ArialMT-103"/>
     <use x="55.615234" xlink:href="#ArialMT-111"/>
     <use x="111.230469" xlink:href="#ArialMT-111"/>
     <use x="166.845703" xlink:href="#ArialMT-100"/>
    </g>
   </g>
   <g id="patch_8">
    <path d="M 696.328 296.947 
L 728.328 296.947 
L 728.328 285.747 
L 696.328 285.747 
z
" style="fill:#0e5f2f;stroke:#141414;stroke-linejoin:miter;stroke-width:0.75;"/>
   </g>
   <g id="text_17">
    <!-- bad -->
    <defs>
     <path d="M 14.703125 0 
L 6.546875 0 
L 6.546875 71.578125 
L 15.328125 71.578125 
L 15.328125 46.046875 
Q 20.90625 53.03125 29.546875 53.03125 
Q 34.328125 53.03125 38.59375 51.09375 
Q 42.875 49.171875 45.625 45.671875 
Q 48.390625 42.1875 49.953125 37.25 
Q 51.515625 32.328125 51.515625 26.703125 
Q 51.515625 13.375 44.921875 6.09375 
Q 38.328125 -1.171875 29.109375 -1.171875 
Q 19.921875 -1.171875 14.703125 6.5 
z
M 14.59375 26.3125 
Q 14.59375 17 17.140625 12.84375 
Q 21.296875 6.0625 28.375 6.0625 
Q 34.125 6.0625 38.328125 11.0625 
Q 42.53125 16.0625 42.53125 25.984375 
Q 42.53125 36.140625 38.5 40.96875 
Q 34.46875 45.796875 28.765625 45.796875 
Q 23 45.796875 18.796875 40.796875 
Q 14.59375 35.796875 14.59375 26.3125 
z
" id="ArialMT-98"/>
    </defs>
    <g style="fill:#262626;" transform="translate(741.128 296.947)scale(0.16 -0.16)">
     <use xlink:href="#ArialMT-98"/>
     <use x="55.615234" xlink:href="#ArialMT-97"/>
     <use x="111.230469" xlink:href="#ArialMT-100"/>
    </g>
   </g>
  </g>
 </g>
 <defs>
  <clipPath id="pf7c872b278">
   <rect height="485.504" width="534.169648" x="71.39" y="7.2"/>
  </clipPath>
 </defs>
</svg>
