<?xml version="1.0" encoding="utf-8" standalone="no"?>
<!DOCTYPE svg PUBLIC "-//W3C//DTD SVG 1.1//EN"
  "http://www.w3.org/Graphics/SVG/1.1/DTD/svg11.dtd">
<!-- Created with matplotlib (https://matplotlib.org/) -->
<svg height="537.335172pt" version="1.1" viewBox="0 0 757.646 537.335172" width="757.646pt" xmlns="http://www.w3.org/2000/svg" xmlns:xlink="http://www.w3.org/1999/xlink">
 <defs>
  <style type="text/css">
*{stroke-linecap:butt;stroke-linejoin:round;white-space:pre;}
  </style>
 </defs>
 <g id="figure_1">
  <g id="patch_1">
   <path d="M 0 537.335172 
L 757.646 537.335172 
L 757.646 0 
L 0 0 
z
" style="fill:#ffffff;"/>
  </g>
  <g id="axes_1">
   <g id="patch_2">
    <path d="M 71.39 489.870172 
L 750.446 489.870172 
L 750.446 7.2 
L 71.39 7.2 
z
" style="fill:#ffffff;"/>
   </g>
   <g id="matplotlib.axis_1">
    <g id="xtick_1">
     <g id="text_1">
      <!-- 1506-1 -->
      <defs>
       <path d="M 37.25 0 
L 28.46875 0 
L 28.46875 56 
Q 25.296875 52.984375 20.140625 49.953125 
Q 14.984375 46.921875 10.890625 45.40625 
L 10.890625 53.90625 
Q 18.265625 57.375 23.78125 62.296875 
Q 29.296875 67.234375 31.59375 71.875 
L 37.25 71.875 
z
" id="ArialMT-49"/>
       <path d="M 4.15625 18.75 
L 13.375 19.53125 
Q 14.40625 12.796875 18.140625 9.390625 
Q 21.875 6 27.15625 6 
Q 33.5 6 37.890625 10.78125 
Q 42.28125 15.578125 42.28125 23.484375 
Q 42.28125 31 38.0625 35.34375 
Q 33.84375 39.703125 27 39.703125 
Q 22.75 39.703125 19.328125 37.765625 
Q 15.921875 35.84375 13.96875 32.765625 
L 5.71875 33.84375 
L 12.640625 70.609375 
L 48.25 70.609375 
L 48.25 62.203125 
L 19.671875 62.203125 
L 15.828125 42.96875 
Q 22.265625 47.46875 29.34375 47.46875 
Q 38.71875 47.46875 45.15625 40.96875 
Q 51.609375 34.46875 51.609375 24.265625 
Q 51.609375 14.546875 45.953125 7.46875 
Q 39.0625 -1.21875 27.15625 -1.21875 
Q 17.390625 -1.21875 11.203125 4.25 
Q 5.03125 9.71875 4.15625 18.75 
z
" id="ArialMT-53"/>
       <path d="M 4.15625 35.296875 
Q 4.15625 48 6.765625 55.734375 
Q 9.375 63.484375 14.515625 67.671875 
Q 19.671875 71.875 27.484375 71.875 
Q 33.25 71.875 37.59375 69.546875 
Q 41.9375 67.234375 44.765625 62.859375 
Q 47.609375 58.5 49.21875 52.21875 
Q 50.828125 45.953125 50.828125 35.296875 
Q 50.828125 22.703125 48.234375 14.96875 
Q 45.65625 7.234375 40.5 3 
Q 35.359375 -1.21875 27.484375 -1.21875 
Q 17.140625 -1.21875 11.234375 6.203125 
Q 4.15625 15.140625 4.15625 35.296875 
z
M 13.1875 35.296875 
Q 13.1875 17.671875 17.3125 11.828125 
Q 21.4375 6 27.484375 6 
Q 33.546875 6 37.671875 11.859375 
Q 41.796875 17.71875 41.796875 35.296875 
Q 41.796875 52.984375 37.671875 58.78125 
Q 33.546875 64.59375 27.390625 64.59375 
Q 21.34375 64.59375 17.71875 59.46875 
Q 13.1875 52.9375 13.1875 35.296875 
z
" id="ArialMT-48"/>
       <path d="M 49.75 54.046875 
L 41.015625 53.375 
Q 39.84375 58.546875 37.703125 60.890625 
Q 34.125 64.65625 28.90625 64.65625 
Q 24.703125 64.65625 21.53125 62.3125 
Q 17.390625 59.28125 14.984375 53.46875 
Q 12.59375 47.65625 12.5 36.921875 
Q 15.671875 41.75 20.265625 44.09375 
Q 24.859375 46.4375 29.890625 46.4375 
Q 38.671875 46.4375 44.84375 39.96875 
Q 51.03125 33.5 51.03125 23.25 
Q 51.03125 16.5 48.125 10.71875 
Q 45.21875 4.9375 40.140625 1.859375 
Q 35.0625 -1.21875 28.609375 -1.21875 
Q 17.625 -1.21875 10.6875 6.859375 
Q 3.765625 14.9375 3.765625 33.5 
Q 3.765625 54.25 11.421875 63.671875 
Q 18.109375 71.875 29.4375 71.875 
Q 37.890625 71.875 43.28125 67.140625 
Q 48.6875 62.40625 49.75 54.046875 
z
M 13.875 23.1875 
Q 13.875 18.65625 15.796875 14.5 
Q 17.71875 10.359375 21.1875 8.171875 
Q 24.65625 6 28.46875 6 
Q 34.03125 6 38.03125 10.484375 
Q 42.046875 14.984375 42.046875 22.703125 
Q 42.046875 30.125 38.078125 34.390625 
Q 34.125 38.671875 28.125 38.671875 
Q 22.171875 38.671875 18.015625 34.390625 
Q 13.875 30.125 13.875 23.1875 
z
" id="ArialMT-54"/>
       <path d="M 3.171875 21.484375 
L 3.171875 30.328125 
L 30.171875 30.328125 
L 30.171875 21.484375 
z
" id="ArialMT-45"/>
      </defs>
      <g style="fill:#262626;" transform="translate(114.3881 508.322672)scale(0.16 -0.16)">
       <use xlink:href="#ArialMT-49"/>
       <use x="55.615234" xlink:href="#ArialMT-53"/>
       <use x="111.230469" xlink:href="#ArialMT-48"/>
       <use x="166.845703" xlink:href="#ArialMT-54"/>
       <use x="222.460938" xlink:href="#ArialMT-45"/>
       <use x="255.761719" xlink:href="#ArialMT-49"/>
      </g>
     </g>
    </g>
    <g id="xtick_2">
     <g id="text_2">
      <!-- 1506-2 -->
      <defs>
       <path d="M 50.34375 8.453125 
L 50.34375 0 
L 3.03125 0 
Q 2.9375 3.171875 4.046875 6.109375 
Q 5.859375 10.9375 9.828125 15.625 
Q 13.8125 20.3125 21.34375 26.46875 
Q 33.015625 36.03125 37.109375 41.625 
Q 41.21875 47.21875 41.21875 52.203125 
Q 41.21875 57.421875 37.46875 61 
Q 33.734375 64.59375 27.734375 64.59375 
Q 21.390625 64.59375 17.578125 60.78125 
Q 13.765625 56.984375 13.71875 50.25 
L 4.6875 51.171875 
Q 5.609375 61.28125 11.65625 66.578125 
Q 17.71875 71.875 27.9375 71.875 
Q 38.234375 71.875 44.234375 66.15625 
Q 50.25 60.453125 50.25 52 
Q 50.25 47.703125 48.484375 43.546875 
Q 46.734375 39.40625 42.65625 34.8125 
Q 38.578125 30.21875 29.109375 22.21875 
Q 21.1875 15.578125 18.9375 13.203125 
Q 16.703125 10.84375 15.234375 8.453125 
z
" id="ArialMT-50"/>
      </defs>
      <g style="fill:#262626;" transform="translate(250.1993 508.322672)scale(0.16 -0.16)">
       <use xlink:href="#ArialMT-49"/>
       <use x="55.615234" xlink:href="#ArialMT-53"/>
       <use x="111.230469" xlink:href="#ArialMT-48"/>
       <use x="166.845703" xlink:href="#ArialMT-54"/>
       <use x="222.460938" xlink:href="#ArialMT-45"/>
       <use x="255.761719" xlink:href="#ArialMT-50"/>
      </g>
     </g>
    </g>
    <g id="xtick_3">
     <g id="text_3">
      <!-- 1950-1 -->
      <defs>
       <path d="M 5.46875 16.546875 
L 13.921875 17.328125 
Q 14.984375 11.375 18.015625 8.6875 
Q 21.046875 6 25.78125 6 
Q 29.828125 6 32.875 7.859375 
Q 35.9375 9.71875 37.890625 12.8125 
Q 39.84375 15.921875 41.15625 21.1875 
Q 42.484375 26.46875 42.484375 31.9375 
Q 42.484375 32.515625 42.4375 33.6875 
Q 39.796875 29.5 35.234375 26.875 
Q 30.671875 24.265625 25.34375 24.265625 
Q 16.453125 24.265625 10.296875 30.703125 
Q 4.15625 37.15625 4.15625 47.703125 
Q 4.15625 58.59375 10.578125 65.234375 
Q 17 71.875 26.65625 71.875 
Q 33.640625 71.875 39.421875 68.109375 
Q 45.21875 64.359375 48.21875 57.390625 
Q 51.21875 50.4375 51.21875 37.25 
Q 51.21875 23.53125 48.234375 15.40625 
Q 45.265625 7.28125 39.375 3.03125 
Q 33.5 -1.21875 25.59375 -1.21875 
Q 17.1875 -1.21875 11.859375 3.4375 
Q 6.546875 8.109375 5.46875 16.546875 
z
M 41.453125 48.140625 
Q 41.453125 55.71875 37.421875 60.15625 
Q 33.40625 64.59375 27.734375 64.59375 
Q 21.875 64.59375 17.53125 59.8125 
Q 13.1875 55.03125 13.1875 47.40625 
Q 13.1875 40.578125 17.3125 36.296875 
Q 21.4375 32.03125 27.484375 32.03125 
Q 33.59375 32.03125 37.515625 36.296875 
Q 41.453125 40.578125 41.453125 48.140625 
z
" id="ArialMT-57"/>
      </defs>
      <g style="fill:#262626;" transform="translate(386.0105 508.322672)scale(0.16 -0.16)">
       <use xlink:href="#ArialMT-49"/>
       <use x="55.615234" xlink:href="#ArialMT-57"/>
       <use x="111.230469" xlink:href="#ArialMT-53"/>
       <use x="166.845703" xlink:href="#ArialMT-48"/>
       <use x="222.460938" xlink:href="#ArialMT-45"/>
       <use x="255.761719" xlink:href="#ArialMT-49"/>
      </g>
     </g>
    </g>
    <g id="xtick_4">
     <g id="text_4">
      <!-- 1950-2 -->
      <g style="fill:#262626;" transform="translate(521.8217 508.322672)scale(0.16 -0.16)">
       <use xlink:href="#ArialMT-49"/>
       <use x="55.615234" xlink:href="#ArialMT-57"/>
       <use x="111.230469" xlink:href="#ArialMT-53"/>
       <use x="166.845703" xlink:href="#ArialMT-48"/>
       <use x="222.460938" xlink:href="#ArialMT-45"/>
       <use x="255.761719" xlink:href="#ArialMT-50"/>
      </g>
     </g>
    </g>
    <g id="xtick_5">
     <g id="text_5">
      <!-- 0529-1 -->
      <g style="fill:#262626;" transform="translate(657.6329 508.322672)scale(0.16 -0.16)">
       <use xlink:href="#ArialMT-48"/>
       <use x="55.615234" xlink:href="#ArialMT-53"/>
       <use x="111.230469" xlink:href="#ArialMT-50"/>
       <use x="166.845703" xlink:href="#ArialMT-57"/>
       <use x="222.460938" xlink:href="#ArialMT-45"/>
       <use x="255.761719" xlink:href="#ArialMT-49"/>
      </g>
     </g>
    </g>
    <g id="text_6">
     <!-- Counter id -->
     <defs>
      <path d="M 58.796875 25.09375 
L 68.265625 22.703125 
Q 65.28125 11.03125 57.546875 4.90625 
Q 49.8125 -1.21875 38.625 -1.21875 
Q 27.046875 -1.21875 19.796875 3.484375 
Q 12.546875 8.203125 8.765625 17.140625 
Q 4.984375 26.078125 4.984375 36.328125 
Q 4.984375 47.515625 9.25 55.828125 
Q 13.53125 64.15625 21.40625 68.46875 
Q 29.296875 72.796875 38.765625 72.796875 
Q 49.515625 72.796875 56.828125 67.328125 
Q 64.15625 61.859375 67.046875 51.953125 
L 57.71875 49.75 
Q 55.21875 57.5625 50.484375 61.125 
Q 45.75 64.703125 38.578125 64.703125 
Q 30.328125 64.703125 24.78125 60.734375 
Q 19.234375 56.78125 16.984375 50.109375 
Q 14.75 43.453125 14.75 36.375 
Q 14.75 27.25 17.40625 20.4375 
Q 20.0625 13.625 25.671875 10.25 
Q 31.296875 6.890625 37.84375 6.890625 
Q 45.796875 6.890625 51.3125 11.46875 
Q 56.84375 16.0625 58.796875 25.09375 
z
" id="ArialMT-67"/>
      <path d="M 3.328125 25.921875 
Q 3.328125 40.328125 11.328125 47.265625 
Q 18.015625 53.03125 27.640625 53.03125 
Q 38.328125 53.03125 45.109375 46.015625 
Q 51.90625 39.015625 51.90625 26.65625 
Q 51.90625 16.65625 48.90625 10.90625 
Q 45.90625 5.171875 40.15625 2 
Q 34.421875 -1.171875 27.640625 -1.171875 
Q 16.75 -1.171875 10.03125 5.8125 
Q 3.328125 12.796875 3.328125 25.921875 
z
M 12.359375 25.921875 
Q 12.359375 15.96875 16.703125 11.015625 
Q 21.046875 6.0625 27.640625 6.0625 
Q 34.1875 6.0625 38.53125 11.03125 
Q 42.875 16.015625 42.875 26.21875 
Q 42.875 35.84375 38.5 40.796875 
Q 34.125 45.75 27.640625 45.75 
Q 21.046875 45.75 16.703125 40.8125 
Q 12.359375 35.890625 12.359375 25.921875 
z
" id="ArialMT-111"/>
      <path d="M 40.578125 0 
L 40.578125 7.625 
Q 34.515625 -1.171875 24.125 -1.171875 
Q 19.53125 -1.171875 15.546875 0.578125 
Q 11.578125 2.34375 9.640625 5 
Q 7.71875 7.671875 6.9375 11.53125 
Q 6.390625 14.109375 6.390625 19.734375 
L 6.390625 51.859375 
L 15.1875 51.859375 
L 15.1875 23.09375 
Q 15.1875 16.21875 15.71875 13.8125 
Q 16.546875 10.359375 19.234375 8.375 
Q 21.921875 6.390625 25.875 6.390625 
Q 29.828125 6.390625 33.296875 8.421875 
Q 36.765625 10.453125 38.203125 13.9375 
Q 39.65625 17.4375 39.65625 24.078125 
L 39.65625 51.859375 
L 48.4375 51.859375 
L 48.4375 0 
z
" id="ArialMT-117"/>
      <path d="M 6.59375 0 
L 6.59375 51.859375 
L 14.5 51.859375 
L 14.5 44.484375 
Q 20.21875 53.03125 31 53.03125 
Q 35.6875 53.03125 39.625 51.34375 
Q 43.5625 49.65625 45.515625 46.921875 
Q 47.46875 44.1875 48.25 40.4375 
Q 48.734375 37.984375 48.734375 31.890625 
L 48.734375 0 
L 39.9375 0 
L 39.9375 31.546875 
Q 39.9375 36.921875 38.90625 39.578125 
Q 37.890625 42.234375 35.28125 43.8125 
Q 32.671875 45.40625 29.15625 45.40625 
Q 23.53125 45.40625 19.453125 41.84375 
Q 15.375 38.28125 15.375 28.328125 
L 15.375 0 
z
" id="ArialMT-110"/>
      <path d="M 25.78125 7.859375 
L 27.046875 0.09375 
Q 23.34375 -0.6875 20.40625 -0.6875 
Q 15.625 -0.6875 12.984375 0.828125 
Q 10.359375 2.34375 9.28125 4.8125 
Q 8.203125 7.28125 8.203125 15.1875 
L 8.203125 45.015625 
L 1.765625 45.015625 
L 1.765625 51.859375 
L 8.203125 51.859375 
L 8.203125 64.703125 
L 16.9375 69.96875 
L 16.9375 51.859375 
L 25.78125 51.859375 
L 25.78125 45.015625 
L 16.9375 45.015625 
L 16.9375 14.703125 
Q 16.9375 10.9375 17.40625 9.859375 
Q 17.875 8.796875 18.921875 8.15625 
Q 19.96875 7.515625 21.921875 7.515625 
Q 23.390625 7.515625 25.78125 7.859375 
z
" id="ArialMT-116"/>
      <path d="M 42.09375 16.703125 
L 51.171875 15.578125 
Q 49.03125 7.625 43.21875 3.21875 
Q 37.40625 -1.171875 28.375 -1.171875 
Q 17 -1.171875 10.328125 5.828125 
Q 3.65625 12.84375 3.65625 25.484375 
Q 3.65625 38.578125 10.390625 45.796875 
Q 17.140625 53.03125 27.875 53.03125 
Q 38.28125 53.03125 44.875 45.953125 
Q 51.46875 38.875 51.46875 26.03125 
Q 51.46875 25.25 51.421875 23.6875 
L 12.75 23.6875 
Q 13.234375 15.140625 17.578125 10.59375 
Q 21.921875 6.0625 28.421875 6.0625 
Q 33.25 6.0625 36.671875 8.59375 
Q 40.09375 11.140625 42.09375 16.703125 
z
M 13.234375 30.90625 
L 42.1875 30.90625 
Q 41.609375 37.453125 38.875 40.71875 
Q 34.671875 45.796875 27.984375 45.796875 
Q 21.921875 45.796875 17.796875 41.75 
Q 13.671875 37.703125 13.234375 30.90625 
z
" id="ArialMT-101"/>
      <path d="M 6.5 0 
L 6.5 51.859375 
L 14.40625 51.859375 
L 14.40625 44 
Q 17.4375 49.515625 20 51.265625 
Q 22.5625 53.03125 25.640625 53.03125 
Q 30.078125 53.03125 34.671875 50.203125 
L 31.640625 42.046875 
Q 28.421875 43.953125 25.203125 43.953125 
Q 22.3125 43.953125 20.015625 42.21875 
Q 17.71875 40.484375 16.75 37.40625 
Q 15.28125 32.71875 15.28125 27.15625 
L 15.28125 0 
z
" id="ArialMT-114"/>
      <path id="ArialMT-32"/>
      <path d="M 6.640625 61.46875 
L 6.640625 71.578125 
L 15.4375 71.578125 
L 15.4375 61.46875 
z
M 6.640625 0 
L 6.640625 51.859375 
L 15.4375 51.859375 
L 15.4375 0 
z
" id="ArialMT-105"/>
      <path d="M 40.234375 0 
L 40.234375 6.546875 
Q 35.296875 -1.171875 25.734375 -1.171875 
Q 19.53125 -1.171875 14.328125 2.25 
Q 9.125 5.671875 6.265625 11.796875 
Q 3.421875 17.921875 3.421875 25.875 
Q 3.421875 33.640625 6 39.96875 
Q 8.59375 46.296875 13.765625 49.65625 
Q 18.953125 53.03125 25.34375 53.03125 
Q 30.03125 53.03125 33.6875 51.046875 
Q 37.359375 49.078125 39.65625 45.90625 
L 39.65625 71.578125 
L 48.390625 71.578125 
L 48.390625 0 
z
M 12.453125 25.875 
Q 12.453125 15.921875 16.640625 10.984375 
Q 20.84375 6.0625 26.5625 6.0625 
Q 32.328125 6.0625 36.34375 10.765625 
Q 40.375 15.484375 40.375 25.140625 
Q 40.375 35.796875 36.265625 40.765625 
Q 32.171875 45.75 26.171875 45.75 
Q 20.3125 45.75 16.375 40.96875 
Q 12.453125 36.1875 12.453125 25.875 
z
" id="ArialMT-100"/>
     </defs>
     <g style="fill:#262626;" transform="translate(374.0105 526.955172)scale(0.16 -0.16)">
      <use xlink:href="#ArialMT-67"/>
      <use x="72.216797" xlink:href="#ArialMT-111"/>
      <use x="127.832031" xlink:href="#ArialMT-117"/>
      <use x="183.447266" xlink:href="#ArialMT-110"/>
      <use x="239.0625" xlink:href="#ArialMT-116"/>
      <use x="266.845703" xlink:href="#ArialMT-101"/>
      <use x="322.460938" xlink:href="#ArialMT-114"/>
      <use x="355.761719" xlink:href="#ArialMT-32"/>
      <use x="383.544922" xlink:href="#ArialMT-105"/>
      <use x="405.761719" xlink:href="#ArialMT-100"/>
     </g>
    </g>
   </g>
   <g id="matplotlib.axis_2">
    <g id="ytick_1">
     <g id="text_7">
      <!-- 0 -->
      <g style="fill:#262626;" transform="translate(55.4925 472.818663)scale(0.16 -0.16)">
       <use xlink:href="#ArialMT-48"/>
      </g>
     </g>
    </g>
    <g id="ytick_2">
     <g id="text_8">
      <!-- 200 -->
      <g style="fill:#262626;" transform="translate(37.6975 382.212655)scale(0.16 -0.16)">
       <use xlink:href="#ArialMT-50"/>
       <use x="55.615234" xlink:href="#ArialMT-48"/>
       <use x="111.230469" xlink:href="#ArialMT-48"/>
      </g>
     </g>
    </g>
    <g id="ytick_3">
     <g id="text_9">
      <!-- 400 -->
      <defs>
       <path d="M 32.328125 0 
L 32.328125 17.140625 
L 1.265625 17.140625 
L 1.265625 25.203125 
L 33.9375 71.578125 
L 41.109375 71.578125 
L 41.109375 25.203125 
L 50.78125 25.203125 
L 50.78125 17.140625 
L 41.109375 17.140625 
L 41.109375 0 
z
M 32.328125 25.203125 
L 32.328125 57.46875 
L 9.90625 25.203125 
z
" id="ArialMT-52"/>
      </defs>
      <g style="fill:#262626;" transform="translate(37.6975 291.606646)scale(0.16 -0.16)">
       <use xlink:href="#ArialMT-52"/>
       <use x="55.615234" xlink:href="#ArialMT-48"/>
       <use x="111.230469" xlink:href="#ArialMT-48"/>
      </g>
     </g>
    </g>
    <g id="ytick_4">
     <g id="text_10">
      <!-- 600 -->
      <g style="fill:#262626;" transform="translate(37.6975 201.000638)scale(0.16 -0.16)">
       <use xlink:href="#ArialMT-54"/>
       <use x="55.615234" xlink:href="#ArialMT-48"/>
       <use x="111.230469" xlink:href="#ArialMT-48"/>
      </g>
     </g>
    </g>
    <g id="ytick_5">
     <g id="text_11">
      <!-- 800 -->
      <defs>
       <path d="M 17.671875 38.8125 
Q 12.203125 40.828125 9.5625 44.53125 
Q 6.9375 48.25 6.9375 53.421875 
Q 6.9375 61.234375 12.546875 66.546875 
Q 18.171875 71.875 27.484375 71.875 
Q 36.859375 71.875 42.578125 66.421875 
Q 48.296875 60.984375 48.296875 53.171875 
Q 48.296875 48.1875 45.671875 44.5 
Q 43.0625 40.828125 37.75 38.8125 
Q 44.34375 36.671875 47.78125 31.875 
Q 51.21875 27.09375 51.21875 20.453125 
Q 51.21875 11.28125 44.71875 5.03125 
Q 38.234375 -1.21875 27.640625 -1.21875 
Q 17.046875 -1.21875 10.546875 5.046875 
Q 4.046875 11.328125 4.046875 20.703125 
Q 4.046875 27.6875 7.59375 32.390625 
Q 11.140625 37.109375 17.671875 38.8125 
z
M 15.921875 53.71875 
Q 15.921875 48.640625 19.1875 45.40625 
Q 22.46875 42.1875 27.6875 42.1875 
Q 32.765625 42.1875 36.015625 45.375 
Q 39.265625 48.578125 39.265625 53.21875 
Q 39.265625 58.0625 35.90625 61.359375 
Q 32.5625 64.65625 27.59375 64.65625 
Q 22.5625 64.65625 19.234375 61.421875 
Q 15.921875 58.203125 15.921875 53.71875 
z
M 13.09375 20.65625 
Q 13.09375 16.890625 14.875 13.375 
Q 16.65625 9.859375 20.171875 7.921875 
Q 23.6875 6 27.734375 6 
Q 34.03125 6 38.125 10.046875 
Q 42.234375 14.109375 42.234375 20.359375 
Q 42.234375 26.703125 38.015625 30.859375 
Q 33.796875 35.015625 27.4375 35.015625 
Q 21.234375 35.015625 17.15625 30.90625 
Q 13.09375 26.8125 13.09375 20.65625 
z
" id="ArialMT-56"/>
      </defs>
      <g style="fill:#262626;" transform="translate(37.6975 110.394629)scale(0.16 -0.16)">
       <use xlink:href="#ArialMT-56"/>
       <use x="55.615234" xlink:href="#ArialMT-48"/>
       <use x="111.230469" xlink:href="#ArialMT-48"/>
      </g>
     </g>
    </g>
    <g id="ytick_6">
     <g id="text_12">
      <!-- 1000 -->
      <g style="fill:#262626;" transform="translate(28.8 19.78862)scale(0.16 -0.16)">
       <use xlink:href="#ArialMT-49"/>
       <use x="55.615234" xlink:href="#ArialMT-48"/>
       <use x="111.230469" xlink:href="#ArialMT-48"/>
       <use x="166.845703" xlink:href="#ArialMT-48"/>
      </g>
     </g>
    </g>
    <g id="text_13">
     <!-- Count [$h^{-1}$] -->
     <defs>
      <path d="M 6.78125 -19.875 
L 6.78125 71.578125 
L 26.171875 71.578125 
L 26.171875 64.3125 
L 15.578125 64.3125 
L 15.578125 -12.59375 
L 26.171875 -12.59375 
L 26.171875 -19.875 
z
" id="ArialMT-91"/>
      <path d="M 55.71875 33.015625 
L 49.3125 0 
L 40.28125 0 
L 46.6875 32.671875 
Q 47.125 34.96875 47.359375 36.71875 
Q 47.609375 38.484375 47.609375 39.5 
Q 47.609375 43.609375 45.015625 45.890625 
Q 42.4375 48.1875 37.796875 48.1875 
Q 30.5625 48.1875 25.265625 43.296875 
Q 19.96875 38.421875 18.40625 30.328125 
L 12.5 0 
L 3.515625 0 
L 18.3125 75.984375 
L 27.296875 75.984375 
L 21.484375 46.09375 
Q 24.90625 50.6875 30.21875 53.34375 
Q 35.546875 56 41.40625 56 
Q 48.640625 56 52.609375 52.09375 
Q 56.59375 48.1875 56.59375 41.109375 
Q 56.59375 39.359375 56.375 37.359375 
Q 56.15625 35.359375 55.71875 33.015625 
z
" id="DejaVuSans-Oblique-104"/>
      <path d="M 10.59375 35.5 
L 73.1875 35.5 
L 73.1875 27.203125 
L 10.59375 27.203125 
z
" id="DejaVuSans-8722"/>
      <path d="M 12.40625 8.296875 
L 28.515625 8.296875 
L 28.515625 63.921875 
L 10.984375 60.40625 
L 10.984375 69.390625 
L 28.421875 72.90625 
L 38.28125 72.90625 
L 38.28125 8.296875 
L 54.390625 8.296875 
L 54.390625 0 
L 12.40625 0 
z
" id="DejaVuSans-49"/>
      <path d="M 21.296875 -19.875 
L 1.90625 -19.875 
L 1.90625 -12.59375 
L 12.5 -12.59375 
L 12.5 64.3125 
L 1.90625 64.3125 
L 1.90625 71.578125 
L 21.296875 71.578125 
z
" id="ArialMT-93"/>
     </defs>
     <g style="fill:#262626;" transform="translate(21.6 290.695086)rotate(-90)scale(0.16 -0.16)">
      <use transform="translate(0 0.684375)" xlink:href="#ArialMT-67"/>
      <use transform="translate(72.216797 0.684375)" xlink:href="#ArialMT-111"/>
      <use transform="translate(127.832031 0.684375)" xlink:href="#ArialMT-117"/>
      <use transform="translate(183.447266 0.684375)" xlink:href="#ArialMT-110"/>
      <use transform="translate(239.0625 0.684375)" xlink:href="#ArialMT-116"/>
      <use transform="translate(266.845703 0.684375)" xlink:href="#ArialMT-32"/>
      <use transform="translate(294.628906 0.684375)" xlink:href="#ArialMT-91"/>
      <use transform="translate(322.412109 0.684375)" xlink:href="#DejaVuSans-Oblique-104"/>
      <use transform="translate(393.238724 38.965625)scale(0.7)" xlink:href="#DejaVuSans-8722"/>
      <use transform="translate(451.891068 38.965625)scale(0.7)" xlink:href="#DejaVuSans-49"/>
      <use transform="translate(499.161576 0.684375)" xlink:href="#ArialMT-93"/>
     </g>
    </g>
   </g>
   <g id="PolyCollection_1">
    <defs>
     <path d="M 140.365267 -72.850126 
L 138.225933 -72.850126 
L 138.021154 -74.595741 
L 137.808049 -76.341355 
L 137.589637 -78.08697 
L 137.367183 -79.832584 
L 137.139783 -81.578199 
L 136.904424 -83.323813 
L 136.656578 -85.069427 
L 136.391259 -86.815042 
L 136.104314 -88.560656 
L 135.793665 -90.306271 
L 135.460135 -92.051885 
L 135.107621 -93.7975 
L 134.74249 -95.543114 
L 134.372307 -97.288729 
L 134.004197 -99.034343 
L 133.643254 -100.779958 
L 133.291419 -102.525572 
L 132.947124 -104.271186 
L 132.605811 -106.016801 
L 132.261216 -107.762415 
L 131.907127 -109.50803 
L 131.539256 -111.253644 
L 131.156827 -112.999259 
L 130.763582 -114.744873 
L 130.367966 -116.490488 
L 129.982431 -118.236102 
L 129.621891 -119.981717 
L 129.301583 -121.727331 
L 129.034677 -123.472945 
L 128.830135 -125.21856 
L 128.69131 -126.964174 
L 128.615632 -128.709789 
L 128.595547 -130.455403 
L 128.620491 -132.201018 
L 128.679436 -133.946632 
L 128.763322 -135.692247 
L 128.866742 -137.437861 
L 128.988417 -139.183476 
L 129.13038 -140.92909 
L 129.296175 -142.674704 
L 129.488665 -144.420319 
L 129.708138 -146.165933 
L 129.95129 -147.911548 
L 130.21136 -149.657162 
L 130.479326 -151.402777 
L 130.745775 -153.148391 
L 131.00289 -154.894006 
L 131.246018 -156.63962 
L 131.474438 -158.385235 
L 131.691216 -160.130849 
L 131.902254 -161.876463 
L 132.114846 -163.622078 
L 132.336096 -165.367692 
L 132.571573 -167.113307 
L 132.824411 -168.858921 
L 133.094997 -170.604536 
L 133.381174 -172.35015 
L 133.678845 -174.095765 
L 133.982789 -175.841379 
L 134.287512 -177.586994 
L 134.587977 -179.332608 
L 134.880135 -181.078222 
L 135.161198 -182.823837 
L 135.42966 -184.569451 
L 135.685082 -186.315066 
L 135.927706 -188.06068 
L 136.157973 -189.806295 
L 136.376062 -191.551909 
L 136.581569 -193.297524 
L 136.773417 -195.043138 
L 136.950035 -196.788753 
L 137.109745 -198.534367 
L 137.251247 -200.279981 
L 137.374012 -202.025596 
L 137.478463 -203.77121 
L 137.565879 -205.516825 
L 137.638068 -207.262439 
L 137.696946 -209.008054 
L 137.744206 -210.753668 
L 137.781187 -212.499283 
L 137.809 -214.244897 
L 137.828841 -215.990512 
L 137.84233 -217.736126 
L 137.851743 -219.48174 
L 137.860011 -221.227355 
L 137.870471 -222.972969 
L 137.886457 -224.718584 
L 137.910844 -226.464198 
L 137.945693 -228.209813 
L 137.992087 -229.955427 
L 138.050166 -231.701042 
L 138.119313 -233.446656 
L 138.198387 -235.192271 
L 138.285916 -236.937885 
L 138.38019 -238.683499 
L 138.479261 -240.429114 
L 138.580903 -242.174728 
L 138.682599 -243.920343 
L 138.781623 -245.665957 
L 139.809577 -245.665957 
L 139.809577 -245.665957 
L 139.908601 -243.920343 
L 140.010297 -242.174728 
L 140.111939 -240.429114 
L 140.21101 -238.683499 
L 140.305284 -236.937885 
L 140.392813 -235.192271 
L 140.471887 -233.446656 
L 140.541034 -231.701042 
L 140.599113 -229.955427 
L 140.645507 -228.209813 
L 140.680356 -226.464198 
L 140.704743 -224.718584 
L 140.720729 -222.972969 
L 140.731189 -221.227355 
L 140.739457 -219.48174 
L 140.74887 -217.736126 
L 140.762359 -215.990512 
L 140.7822 -214.244897 
L 140.810013 -212.499283 
L 140.846994 -210.753668 
L 140.894254 -209.008054 
L 140.953132 -207.262439 
L 141.025321 -205.516825 
L 141.112737 -203.77121 
L 141.217188 -202.025596 
L 141.339953 -200.279981 
L 141.481455 -198.534367 
L 141.641165 -196.788753 
L 141.817783 -195.043138 
L 142.009631 -193.297524 
L 142.215138 -191.551909 
L 142.433227 -189.806295 
L 142.663494 -188.06068 
L 142.906118 -186.315066 
L 143.16154 -184.569451 
L 143.430002 -182.823837 
L 143.711065 -181.078222 
L 144.003223 -179.332608 
L 144.303688 -177.586994 
L 144.608411 -175.841379 
L 144.912355 -174.095765 
L 145.210026 -172.35015 
L 145.496203 -170.604536 
L 145.766789 -168.858921 
L 146.019627 -167.113307 
L 146.255104 -165.367692 
L 146.476354 -163.622078 
L 146.688946 -161.876463 
L 146.899984 -160.130849 
L 147.116762 -158.385235 
L 147.345182 -156.63962 
L 147.58831 -154.894006 
L 147.845425 -153.148391 
L 148.111874 -151.402777 
L 148.37984 -149.657162 
L 148.63991 -147.911548 
L 148.883062 -146.165933 
L 149.102535 -144.420319 
L 149.295025 -142.674704 
L 149.46082 -140.92909 
L 149.602783 -139.183476 
L 149.724458 -137.437861 
L 149.827878 -135.692247 
L 149.911764 -133.946632 
L 149.970709 -132.201018 
L 149.995653 -130.455403 
L 149.975568 -128.709789 
L 149.89989 -126.964174 
L 149.761065 -125.21856 
L 149.556523 -123.472945 
L 149.289617 -121.727331 
L 148.969309 -119.981717 
L 148.608769 -118.236102 
L 148.223234 -116.490488 
L 147.827618 -114.744873 
L 147.434373 -112.999259 
L 147.051944 -111.253644 
L 146.684073 -109.50803 
L 146.329984 -107.762415 
L 145.985389 -106.016801 
L 145.644076 -104.271186 
L 145.299781 -102.525572 
L 144.947946 -100.779958 
L 144.587003 -99.034343 
L 144.218893 -97.288729 
L 143.84871 -95.543114 
L 143.483579 -93.7975 
L 143.131065 -92.051885 
L 142.797535 -90.306271 
L 142.486886 -88.560656 
L 142.199941 -86.815042 
L 141.934622 -85.069427 
L 141.686776 -83.323813 
L 141.451417 -81.578199 
L 141.224017 -79.832584 
L 141.001563 -78.08697 
L 140.783151 -76.341355 
L 140.570046 -74.595741 
L 140.365267 -72.850126 
z
" id="m75ab3ec11a" style="stroke:#141414;stroke-width:1.5;"/>
    </defs>
    <g clip-path="url(#p402a686d0f)">
     <use style="fill:#083c1d;stroke:#141414;stroke-width:1.5;" x="0" xlink:href="#m75ab3ec11a" y="537.335172"/>
    </g>
   </g>
   <g id="PolyCollection_2">
    <defs>
     <path d="M 276.328852 -71.68668 
L 273.884748 -71.68668 
L 273.575606 -73.482012 
L 273.249521 -75.277344 
L 272.915635 -77.072676 
L 272.578985 -78.868009 
L 272.238631 -80.663341 
L 271.887191 -82.458673 
L 271.511837 -84.254005 
L 271.096354 -86.049338 
L 270.623532 -87.84467 
L 270.077286 -89.640002 
L 269.444271 -91.435334 
L 268.715313 -93.230667 
L 267.887163 -95.025999 
L 266.964882 -96.821331 
L 265.964448 -98.616663 
L 264.914522 -100.411996 
L 263.856021 -102.207328 
L 262.838629 -104.00266 
L 261.914451 -105.797992 
L 261.130231 -107.593325 
L 260.520298 -109.388657 
L 260.102324 -111.183989 
L 259.877021 -112.979321 
L 259.831531 -114.774654 
L 259.945012 -116.569986 
L 260.194313 -118.365318 
L 260.557838 -120.160651 
L 261.01658 -121.955983 
L 261.55248 -123.751315 
L 262.145315 -125.546647 
L 262.770014 -127.34198 
L 263.396214 -129.137312 
L 263.991121 -130.932644 
L 264.525297 -132.727976 
L 264.979557 -134.523309 
L 265.350291 -136.318641 
L 265.65085 -138.113973 
L 265.908159 -139.909305 
L 266.15568 -141.704638 
L 266.425313 -143.49997 
L 266.740989 -145.295302 
L 267.115581 -147.090634 
L 267.55113 -148.885967 
L 268.041088 -150.681299 
L 268.573064 -152.476631 
L 269.131125 -154.271963 
L 269.697568 -156.067296 
L 270.254551 -157.862628 
L 270.785845 -159.65796 
L 271.278534 -161.453292 
L 271.724164 -163.248625 
L 272.118934 -165.043957 
L 272.462894 -166.839289 
L 272.758587 -168.634621 
L 273.00976 -170.429954 
L 273.220561 -172.225286 
L 273.395354 -174.020618 
L 273.538875 -175.81595 
L 273.656386 -177.611283 
L 273.753525 -179.406615 
L 273.835839 -181.201947 
L 273.908154 -182.997279 
L 273.97407 -184.792612 
L 274.035775 -186.587944 
L 274.094214 -188.383276 
L 274.149468 -190.178608 
L 274.201145 -191.973941 
L 274.248606 -193.769273 
L 274.291032 -195.564605 
L 274.327428 -197.359938 
L 274.356733 -199.15527 
L 274.378121 -200.950602 
L 274.391464 -202.745934 
L 274.397769 -204.541267 
L 274.399384 -206.336599 
L 274.399777 -208.131931 
L 274.402858 -209.927263 
L 274.412007 -211.722596 
L 274.429103 -213.517928 
L 274.453917 -215.31326 
L 274.484094 -217.108592 
L 274.515773 -218.903925 
L 274.54462 -220.699257 
L 274.566949 -222.494589 
L 274.580598 -224.289921 
L 274.585347 -226.085254 
L 274.582847 -227.880586 
L 274.576123 -229.675918 
L 274.568843 -231.47125 
L 274.564532 -233.266583 
L 274.565946 -235.061915 
L 274.574747 -236.857247 
L 274.591543 -238.652579 
L 274.616181 -240.447912 
L 274.648111 -242.243244 
L 274.686613 -244.038576 
L 274.730784 -245.833908 
L 274.779354 -247.629241 
L 274.830507 -249.424573 
L 275.383093 -249.424573 
L 275.383093 -249.424573 
L 275.434246 -247.629241 
L 275.482816 -245.833908 
L 275.526987 -244.038576 
L 275.565489 -242.243244 
L 275.597419 -240.447912 
L 275.622057 -238.652579 
L 275.638853 -236.857247 
L 275.647654 -235.061915 
L 275.649068 -233.266583 
L 275.644757 -231.47125 
L 275.637477 -229.675918 
L 275.630753 -227.880586 
L 275.628253 -226.085254 
L 275.633002 -224.289921 
L 275.646651 -222.494589 
L 275.66898 -220.699257 
L 275.697827 -218.903925 
L 275.729506 -217.108592 
L 275.759683 -215.31326 
L 275.784497 -213.517928 
L 275.801593 -211.722596 
L 275.810742 -209.927263 
L 275.813823 -208.131931 
L 275.814216 -206.336599 
L 275.815831 -204.541267 
L 275.822136 -202.745934 
L 275.835479 -200.950602 
L 275.856867 -199.15527 
L 275.886172 -197.359938 
L 275.922568 -195.564605 
L 275.964994 -193.769273 
L 276.012455 -191.973941 
L 276.064132 -190.178608 
L 276.119386 -188.383276 
L 276.177825 -186.587944 
L 276.23953 -184.792612 
L 276.305446 -182.997279 
L 276.377761 -181.201947 
L 276.460075 -179.406615 
L 276.557214 -177.611283 
L 276.674725 -175.81595 
L 276.818246 -174.020618 
L 276.993039 -172.225286 
L 277.20384 -170.429954 
L 277.455013 -168.634621 
L 277.750706 -166.839289 
L 278.094666 -165.043957 
L 278.489436 -163.248625 
L 278.935066 -161.453292 
L 279.427755 -159.65796 
L 279.959049 -157.862628 
L 280.516032 -156.067296 
L 281.082475 -154.271963 
L 281.640536 -152.476631 
L 282.172512 -150.681299 
L 282.66247 -148.885967 
L 283.098019 -147.090634 
L 283.472611 -145.295302 
L 283.788287 -143.49997 
L 284.05792 -141.704638 
L 284.305441 -139.909305 
L 284.56275 -138.113973 
L 284.863309 -136.318641 
L 285.234043 -134.523309 
L 285.688303 -132.727976 
L 286.222479 -130.932644 
L 286.817386 -129.137312 
L 287.443586 -127.34198 
L 288.068285 -125.546647 
L 288.66112 -123.751315 
L 289.19702 -121.955983 
L 289.655762 -120.160651 
L 290.019287 -118.365318 
L 290.268588 -116.569986 
L 290.382069 -114.774654 
L 290.336579 -112.979321 
L 290.111276 -111.183989 
L 289.693302 -109.388657 
L 289.083369 -107.593325 
L 288.299149 -105.797992 
L 287.374971 -104.00266 
L 286.357579 -102.207328 
L 285.299078 -100.411996 
L 284.249152 -98.616663 
L 283.248718 -96.821331 
L 282.326437 -95.025999 
L 281.498287 -93.230667 
L 280.769329 -91.435334 
L 280.136314 -89.640002 
L 279.590068 -87.84467 
L 279.117246 -86.049338 
L 278.701763 -84.254005 
L 278.326409 -82.458673 
L 277.974969 -80.663341 
L 277.634615 -78.868009 
L 277.297965 -77.072676 
L 276.964079 -75.277344 
L 276.637994 -73.482012 
L 276.328852 -71.68668 
z
" id="m14c53fef6b" style="stroke:#141414;stroke-width:1.5;"/>
    </defs>
    <g clip-path="url(#p402a686d0f)">
     <use style="fill:#0e5f2f;stroke:#141414;stroke-width:1.5;" x="0" xlink:href="#m14c53fef6b" y="537.335172"/>
    </g>
   </g>
   <g id="PolyCollection_3">
    <defs>
     <path d="M 411.16595 -70.923439 
L 410.67005 -70.923439 
L 410.670944 -75.340329 
L 410.676236 -79.75722 
L 410.685261 -84.174111 
L 410.697059 -88.591002 
L 410.710449 -93.007892 
L 410.724129 -97.424783 
L 410.736784 -101.841674 
L 410.747195 -106.258564 
L 410.754323 -110.675455 
L 410.757391 -115.092346 
L 410.75592 -119.509237 
L 410.749751 -123.926127 
L 410.739028 -128.343018 
L 410.724159 -132.759909 
L 410.705754 -137.176799 
L 410.684546 -141.59369 
L 410.661309 -146.010581 
L 410.636768 -150.427471 
L 410.611523 -154.844362 
L 410.585988 -159.261253 
L 410.560347 -163.678144 
L 410.534543 -168.095034 
L 410.508289 -172.511925 
L 410.481103 -176.928816 
L 410.452366 -181.345706 
L 410.421393 -185.762597 
L 410.387505 -190.179488 
L 410.350103 -194.596379 
L 410.308728 -199.013269 
L 410.26311 -203.43016 
L 410.21319 -207.847051 
L 410.159126 -212.263941 
L 410.10128 -216.680832 
L 410.040184 -221.097723 
L 409.976489 -225.514614 
L 409.910905 -229.931504 
L 409.844133 -234.348395 
L 409.776787 -238.765286 
L 409.709325 -243.182176 
L 409.641971 -247.599067 
L 409.574655 -252.015958 
L 409.506956 -256.432849 
L 409.438073 -260.849739 
L 409.36681 -265.26663 
L 409.291605 -269.683521 
L 409.21059 -274.100411 
L 409.121698 -278.517302 
L 409.022803 -282.934193 
L 408.911907 -287.351084 
L 408.787342 -291.767974 
L 408.647972 -296.184865 
L 408.493384 -300.601756 
L 408.324029 -305.018646 
L 408.141299 -309.435537 
L 407.947519 -313.852428 
L 407.745857 -318.269318 
L 407.540153 -322.686209 
L 407.334678 -327.1031 
L 407.133856 -331.519991 
L 406.941987 -335.936881 
L 406.762982 -340.353772 
L 406.600153 -344.770663 
L 406.456068 -349.187553 
L 406.332493 -353.604444 
L 406.230401 -358.021335 
L 406.150059 -362.438226 
L 406.091168 -366.855116 
L 406.053039 -371.272007 
L 406.034784 -375.688898 
L 406.035502 -380.105788 
L 406.054434 -384.522679 
L 406.091079 -388.93957 
L 406.145245 -393.356461 
L 406.217034 -397.773351 
L 406.306764 -402.190242 
L 406.414832 -406.607133 
L 406.541534 -411.024023 
L 406.686879 -415.440914 
L 406.850403 -419.857805 
L 407.031033 -424.274696 
L 407.227004 -428.691586 
L 407.435864 -433.108477 
L 407.654549 -437.525368 
L 407.879541 -441.942258 
L 408.107077 -446.359149 
L 408.333389 -450.77604 
L 408.554946 -455.192931 
L 408.768668 -459.609821 
L 408.972087 -464.026712 
L 409.163439 -468.443603 
L 409.34169 -472.860493 
L 409.506476 -477.277384 
L 409.658004 -481.694275 
L 409.796903 -486.111165 
L 409.924062 -490.528056 
L 410.040476 -494.944947 
L 410.147118 -499.361838 
L 410.244837 -503.778728 
L 410.334315 -508.195619 
L 411.501685 -508.195619 
L 411.501685 -508.195619 
L 411.591163 -503.778728 
L 411.688882 -499.361838 
L 411.795524 -494.944947 
L 411.911938 -490.528056 
L 412.039097 -486.111165 
L 412.177996 -481.694275 
L 412.329524 -477.277384 
L 412.49431 -472.860493 
L 412.672561 -468.443603 
L 412.863913 -464.026712 
L 413.067332 -459.609821 
L 413.281054 -455.192931 
L 413.502611 -450.77604 
L 413.728923 -446.359149 
L 413.956459 -441.942258 
L 414.181451 -437.525368 
L 414.400136 -433.108477 
L 414.608996 -428.691586 
L 414.804967 -424.274696 
L 414.985597 -419.857805 
L 415.149121 -415.440914 
L 415.294466 -411.024023 
L 415.421168 -406.607133 
L 415.529236 -402.190242 
L 415.618966 -397.773351 
L 415.690755 -393.356461 
L 415.744921 -388.93957 
L 415.781566 -384.522679 
L 415.800498 -380.105788 
L 415.801216 -375.688898 
L 415.782961 -371.272007 
L 415.744832 -366.855116 
L 415.685941 -362.438226 
L 415.605599 -358.021335 
L 415.503507 -353.604444 
L 415.379932 -349.187553 
L 415.235847 -344.770663 
L 415.073018 -340.353772 
L 414.894013 -335.936881 
L 414.702144 -331.519991 
L 414.501322 -327.1031 
L 414.295847 -322.686209 
L 414.090143 -318.269318 
L 413.888481 -313.852428 
L 413.694701 -309.435537 
L 413.511971 -305.018646 
L 413.342616 -300.601756 
L 413.188028 -296.184865 
L 413.048658 -291.767974 
L 412.924093 -287.351084 
L 412.813197 -282.934193 
L 412.714302 -278.517302 
L 412.62541 -274.100411 
L 412.544395 -269.683521 
L 412.46919 -265.26663 
L 412.397927 -260.849739 
L 412.329044 -256.432849 
L 412.261345 -252.015958 
L 412.194029 -247.599067 
L 412.126675 -243.182176 
L 412.059213 -238.765286 
L 411.991867 -234.348395 
L 411.925095 -229.931504 
L 411.859511 -225.514614 
L 411.795816 -221.097723 
L 411.73472 -216.680832 
L 411.676874 -212.263941 
L 411.62281 -207.847051 
L 411.57289 -203.43016 
L 411.527272 -199.013269 
L 411.485897 -194.596379 
L 411.448495 -190.179488 
L 411.414607 -185.762597 
L 411.383634 -181.345706 
L 411.354897 -176.928816 
L 411.327711 -172.511925 
L 411.301457 -168.095034 
L 411.275653 -163.678144 
L 411.250012 -159.261253 
L 411.224477 -154.844362 
L 411.199232 -150.427471 
L 411.174691 -146.010581 
L 411.151454 -141.59369 
L 411.130246 -137.176799 
L 411.111841 -132.759909 
L 411.096972 -128.343018 
L 411.086249 -123.926127 
L 411.08008 -119.509237 
L 411.078609 -115.092346 
L 411.081677 -110.675455 
L 411.088805 -106.258564 
L 411.099216 -101.841674 
L 411.111871 -97.424783 
L 411.125551 -93.007892 
L 411.138941 -88.591002 
L 411.150739 -84.174111 
L 411.159764 -79.75722 
L 411.165056 -75.340329 
L 411.16595 -70.923439 
z
" id="m6b46337a35" style="stroke:#141414;stroke-width:1.5;"/>
    </defs>
    <g clip-path="url(#p402a686d0f)">
     <use style="fill:#307e4a;stroke:#141414;stroke-width:1.5;" x="0" xlink:href="#m6b46337a35" y="537.335172"/>
    </g>
   </g>
   <g id="PolyCollection_4">
    <defs>
     <path d="M 547.103997 -71.13057 
L 546.354403 -71.13057 
L 546.333344 -75.242073 
L 546.314159 -79.353576 
L 546.296532 -83.465079 
L 546.279937 -87.576582 
L 546.26366 -91.688085 
L 546.246839 -95.799588 
L 546.228513 -99.911091 
L 546.207675 -104.022594 
L 546.183337 -108.134097 
L 546.154588 -112.2456 
L 546.120643 -116.357103 
L 546.080897 -120.468606 
L 546.034955 -124.580109 
L 545.982657 -128.691612 
L 545.924078 -132.803115 
L 545.859525 -136.914618 
L 545.789505 -141.026121 
L 545.714685 -145.137624 
L 545.63584 -149.249127 
L 545.553787 -153.360631 
L 545.469318 -157.472134 
L 545.383134 -161.583637 
L 545.295781 -165.69514 
L 545.207612 -169.806643 
L 545.118751 -173.918146 
L 545.029095 -178.029649 
L 544.938336 -182.141152 
L 544.846014 -186.252655 
L 544.751585 -190.364158 
L 544.654519 -194.475661 
L 544.554399 -198.587164 
L 544.451018 -202.698667 
L 544.344471 -206.81017 
L 544.235215 -210.921673 
L 544.124096 -215.033176 
L 544.012344 -219.144679 
L 543.90152 -223.256182 
L 543.793425 -227.367685 
L 543.689985 -231.479188 
L 543.593112 -235.590691 
L 543.504562 -239.702194 
L 543.4258 -243.813697 
L 543.357897 -247.9252 
L 543.301443 -252.036703 
L 543.256521 -256.148206 
L 543.222709 -260.259709 
L 543.199125 -264.371212 
L 543.184514 -268.482715 
L 543.177353 -272.594219 
L 543.175971 -276.705722 
L 543.178681 -280.817225 
L 543.183896 -284.928728 
L 543.190236 -289.040231 
L 543.196606 -293.151734 
L 543.202252 -297.263237 
L 543.206781 -301.37474 
L 543.210156 -305.486243 
L 543.212655 -309.597746 
L 543.21482 -313.709249 
L 543.21738 -317.820752 
L 543.221172 -321.932255 
L 543.227067 -326.043758 
L 543.235903 -330.155261 
L 543.248441 -334.266764 
L 543.265333 -338.378267 
L 543.287126 -342.48977 
L 543.314279 -346.601273 
L 543.347193 -350.712776 
L 543.386256 -354.824279 
L 543.431875 -358.935782 
L 543.484505 -363.047285 
L 543.544653 -367.158788 
L 543.612861 -371.270291 
L 543.68967 -375.381794 
L 543.775557 -379.493297 
L 543.870867 -383.6048 
L 543.975738 -387.716304 
L 544.090039 -391.827807 
L 544.213317 -395.93931 
L 544.344774 -400.050813 
L 544.483274 -404.162316 
L 544.627367 -408.273819 
L 544.775356 -412.385322 
L 544.925367 -416.496825 
L 545.075439 -420.608328 
L 545.223618 -424.719831 
L 545.368049 -428.831334 
L 545.507045 -432.942837 
L 545.63916 -437.05434 
L 545.763225 -441.165843 
L 545.87838 -445.277346 
L 545.984073 -449.388849 
L 546.080054 -453.500352 
L 546.166351 -457.611855 
L 546.243229 -461.723358 
L 546.311151 -465.834861 
L 546.370727 -469.946364 
L 546.422669 -474.057867 
L 546.467739 -478.16937 
L 546.990661 -478.16937 
L 546.990661 -478.16937 
L 547.035731 -474.057867 
L 547.087673 -469.946364 
L 547.147249 -465.834861 
L 547.215171 -461.723358 
L 547.292049 -457.611855 
L 547.378346 -453.500352 
L 547.474327 -449.388849 
L 547.58002 -445.277346 
L 547.695175 -441.165843 
L 547.81924 -437.05434 
L 547.951355 -432.942837 
L 548.090351 -428.831334 
L 548.234782 -424.719831 
L 548.382961 -420.608328 
L 548.533033 -416.496825 
L 548.683044 -412.385322 
L 548.831033 -408.273819 
L 548.975126 -404.162316 
L 549.113626 -400.050813 
L 549.245083 -395.93931 
L 549.368361 -391.827807 
L 549.482662 -387.716304 
L 549.587533 -383.6048 
L 549.682843 -379.493297 
L 549.76873 -375.381794 
L 549.845539 -371.270291 
L 549.913747 -367.158788 
L 549.973895 -363.047285 
L 550.026525 -358.935782 
L 550.072144 -354.824279 
L 550.111207 -350.712776 
L 550.144121 -346.601273 
L 550.171274 -342.48977 
L 550.193067 -338.378267 
L 550.209959 -334.266764 
L 550.222497 -330.155261 
L 550.231333 -326.043758 
L 550.237228 -321.932255 
L 550.24102 -317.820752 
L 550.24358 -313.709249 
L 550.245745 -309.597746 
L 550.248244 -305.486243 
L 550.251619 -301.37474 
L 550.256148 -297.263237 
L 550.261794 -293.151734 
L 550.268164 -289.040231 
L 550.274504 -284.928728 
L 550.279719 -280.817225 
L 550.282429 -276.705722 
L 550.281047 -272.594219 
L 550.273886 -268.482715 
L 550.259275 -264.371212 
L 550.235691 -260.259709 
L 550.201879 -256.148206 
L 550.156957 -252.036703 
L 550.100503 -247.9252 
L 550.0326 -243.813697 
L 549.953838 -239.702194 
L 549.865288 -235.590691 
L 549.768415 -231.479188 
L 549.664975 -227.367685 
L 549.55688 -223.256182 
L 549.446056 -219.144679 
L 549.334304 -215.033176 
L 549.223185 -210.921673 
L 549.113929 -206.81017 
L 549.007382 -202.698667 
L 548.904001 -198.587164 
L 548.803881 -194.475661 
L 548.706815 -190.364158 
L 548.612386 -186.252655 
L 548.520064 -182.141152 
L 548.429305 -178.029649 
L 548.339649 -173.918146 
L 548.250788 -169.806643 
L 548.162619 -165.69514 
L 548.075266 -161.583637 
L 547.989082 -157.472134 
L 547.904613 -153.360631 
L 547.82256 -149.249127 
L 547.743715 -145.137624 
L 547.668895 -141.026121 
L 547.598875 -136.914618 
L 547.534322 -132.803115 
L 547.475743 -128.691612 
L 547.423445 -124.580109 
L 547.377503 -120.468606 
L 547.337757 -116.357103 
L 547.303812 -112.2456 
L 547.275063 -108.134097 
L 547.250725 -104.022594 
L 547.229887 -99.911091 
L 547.211561 -95.799588 
L 547.19474 -91.688085 
L 547.178463 -87.576582 
L 547.161868 -83.465079 
L 547.144241 -79.353576 
L 547.125056 -75.242073 
L 547.103997 -71.13057 
z
" id="m7df586ff97" style="stroke:#141414;stroke-width:1.5;"/>
    </defs>
    <g clip-path="url(#p402a686d0f)">
     <use style="fill:#4fa076;stroke:#141414;stroke-width:1.5;" x="0" xlink:href="#m7df586ff97" y="537.335172"/>
    </g>
   </g>
   <g id="PolyCollection_5">
    <defs>
     <path d="M 735.561302 -70.533577 
L 629.519498 -70.533577 
L 628.21592 -71.282785 
L 628.677382 -72.031993 
L 630.798635 -72.781201 
L 634.30855 -73.530409 
L 638.818764 -74.279617 
L 643.887957 -75.028825 
L 649.087259 -75.778033 
L 654.05369 -76.52724 
L 658.523187 -77.276448 
L 662.340834 -78.025656 
L 665.451457 -78.774864 
L 667.877292 -79.524072 
L 669.69052 -80.27328 
L 670.987298 -81.022488 
L 671.867559 -81.771696 
L 672.422199 -82.520903 
L 672.727113 -83.270111 
L 672.842321 -84.019319 
L 672.814064 -84.768527 
L 672.678056 -85.517735 
L 672.462678 -86.266943 
L 672.191547 -87.016151 
L 671.88534 -87.765359 
L 671.562995 -88.514567 
L 671.242423 -89.263774 
L 670.940801 -90.012982 
L 670.674467 -90.76219 
L 670.458402 -91.511398 
L 670.305409 -92.260606 
L 670.225185 -93.009814 
L 670.223596 -93.759022 
L 670.302427 -94.50823 
L 670.459775 -95.257438 
L 670.691011 -96.006645 
L 670.990055 -96.755853 
L 671.350554 -97.505061 
L 671.766598 -98.254269 
L 672.232751 -99.003477 
L 672.743459 -99.752685 
L 673.292092 -100.501893 
L 673.870085 -101.251101 
L 674.466569 -102.000309 
L 675.06874 -102.749516 
L 675.662975 -103.498724 
L 676.236415 -104.247932 
L 676.778607 -104.99714 
L 677.282768 -105.746348 
L 677.746358 -106.495556 
L 678.170839 -107.244764 
L 678.560729 -107.993972 
L 678.922198 -108.74318 
L 679.26154 -109.492387 
L 679.58383 -110.241595 
L 679.891981 -110.990803 
L 680.186326 -111.740011 
L 680.464709 -112.489219 
L 680.723036 -113.238427 
L 680.956119 -113.987635 
L 681.158691 -114.736843 
L 681.326408 -115.486051 
L 681.456704 -116.235258 
L 681.549401 -116.984466 
L 681.60697 -117.733674 
L 681.634449 -118.482882 
L 681.639006 -119.23209 
L 681.629205 -119.981298 
L 681.614076 -120.730506 
L 681.602088 -121.479714 
L 681.600187 -122.228922 
L 681.613015 -122.978129 
L 681.642465 -123.727337 
L 681.687621 -124.476545 
L 681.745128 -125.225753 
L 681.809903 -125.974961 
L 681.876081 -126.724169 
L 681.93801 -127.473377 
L 681.991122 -128.222585 
L 682.032535 -128.971793 
L 682.061303 -129.721 
L 682.078296 -130.470208 
L 682.085781 -131.219416 
L 682.086817 -131.968624 
L 682.084606 -132.717832 
L 682.081923 -133.46704 
L 682.080716 -134.216248 
L 682.081937 -134.965456 
L 682.085573 -135.714664 
L 682.090861 -136.463871 
L 682.096608 -137.213079 
L 682.10156 -137.962287 
L 682.104757 -138.711495 
L 682.105814 -139.460703 
L 682.105095 -140.209911 
L 682.103733 -140.959119 
L 682.103499 -141.708327 
L 682.10651 -142.457534 
L 682.114846 -143.206742 
L 682.130136 -143.95595 
L 682.153212 -144.705158 
L 682.927588 -144.705158 
L 682.927588 -144.705158 
L 682.950664 -143.95595 
L 682.965954 -143.206742 
L 682.97429 -142.457534 
L 682.977301 -141.708327 
L 682.977067 -140.959119 
L 682.975705 -140.209911 
L 682.974986 -139.460703 
L 682.976043 -138.711495 
L 682.97924 -137.962287 
L 682.984192 -137.213079 
L 682.989939 -136.463871 
L 682.995227 -135.714664 
L 682.998863 -134.965456 
L 683.000084 -134.216248 
L 682.998877 -133.46704 
L 682.996194 -132.717832 
L 682.993983 -131.968624 
L 682.995019 -131.219416 
L 683.002504 -130.470208 
L 683.019497 -129.721 
L 683.048265 -128.971793 
L 683.089678 -128.222585 
L 683.14279 -127.473377 
L 683.204719 -126.724169 
L 683.270897 -125.974961 
L 683.335672 -125.225753 
L 683.393179 -124.476545 
L 683.438335 -123.727337 
L 683.467785 -122.978129 
L 683.480613 -122.228922 
L 683.478712 -121.479714 
L 683.466724 -120.730506 
L 683.451595 -119.981298 
L 683.441794 -119.23209 
L 683.446351 -118.482882 
L 683.47383 -117.733674 
L 683.531399 -116.984466 
L 683.624096 -116.235258 
L 683.754392 -115.486051 
L 683.922109 -114.736843 
L 684.124681 -113.987635 
L 684.357764 -113.238427 
L 684.616091 -112.489219 
L 684.894474 -111.740011 
L 685.188819 -110.990803 
L 685.49697 -110.241595 
L 685.81926 -109.492387 
L 686.158602 -108.74318 
L 686.520071 -107.993972 
L 686.909961 -107.244764 
L 687.334442 -106.495556 
L 687.798032 -105.746348 
L 688.302193 -104.99714 
L 688.844385 -104.247932 
L 689.417825 -103.498724 
L 690.01206 -102.749516 
L 690.614231 -102.000309 
L 691.210715 -101.251101 
L 691.788708 -100.501893 
L 692.337341 -99.752685 
L 692.848049 -99.003477 
L 693.314202 -98.254269 
L 693.730246 -97.505061 
L 694.090745 -96.755853 
L 694.389789 -96.006645 
L 694.621025 -95.257438 
L 694.778373 -94.50823 
L 694.857204 -93.759022 
L 694.855615 -93.009814 
L 694.775391 -92.260606 
L 694.622398 -91.511398 
L 694.406333 -90.76219 
L 694.139999 -90.012982 
L 693.838377 -89.263774 
L 693.517805 -88.514567 
L 693.19546 -87.765359 
L 692.889253 -87.016151 
L 692.618122 -86.266943 
L 692.402744 -85.517735 
L 692.266736 -84.768527 
L 692.238479 -84.019319 
L 692.353687 -83.270111 
L 692.658601 -82.520903 
L 693.213241 -81.771696 
L 694.093502 -81.022488 
L 695.39028 -80.27328 
L 697.203508 -79.524072 
L 699.629343 -78.774864 
L 702.739966 -78.025656 
L 706.557613 -77.276448 
L 711.02711 -76.52724 
L 715.993541 -75.778033 
L 721.192843 -75.028825 
L 726.262036 -74.279617 
L 730.77225 -73.530409 
L 734.282165 -72.781201 
L 736.403418 -72.031993 
L 736.86488 -71.282785 
L 735.561302 -70.533577 
z
" id="m7f5a833062" style="stroke:#141414;stroke-width:1.5;"/>
    </defs>
    <g clip-path="url(#p402a686d0f)">
     <use style="fill:#72b6a0;stroke:#141414;stroke-width:1.5;" x="0" xlink:href="#m7f5a833062" y="537.335172"/>
    </g>
   </g>
   <g id="line2d_1">
    <path clip-path="url(#p402a686d0f)" d="M 139.2956 464.485046 
L 139.2956 306.262263 
" style="fill:none;stroke:#141414;stroke-linecap:round;stroke-width:1.5;"/>
   </g>
   <g id="line2d_2">
    <path clip-path="url(#p402a686d0f)" d="M 139.2956 418.243599 
L 139.2956 373.359759 
" style="fill:none;stroke:#141414;stroke-linecap:round;stroke-width:4.5;"/>
   </g>
   <g id="line2d_3">
    <path clip-path="url(#p402a686d0f)" d="M 275.1068 465.648493 
L 275.1068 346.239189 
" style="fill:none;stroke:#141414;stroke-linecap:round;stroke-width:1.5;"/>
   </g>
   <g id="line2d_4">
    <path clip-path="url(#p402a686d0f)" d="M 275.1068 429.233936 
L 275.1068 395.770105 
" style="fill:none;stroke:#141414;stroke-linecap:round;stroke-width:4.5;"/>
   </g>
   <g id="line2d_5">
    <path clip-path="url(#p402a686d0f)" d="M 410.918 336.833884 
L 410.918 29.139553 
" style="fill:none;stroke:#141414;stroke-linecap:round;stroke-width:1.5;"/>
   </g>
   <g id="line2d_6">
    <path clip-path="url(#p402a686d0f)" d="M 410.918 209.714981 
L 410.918 124.046345 
" style="fill:none;stroke:#141414;stroke-linecap:round;stroke-width:4.5;"/>
   </g>
   <g id="line2d_7">
    <path clip-path="url(#p402a686d0f)" d="M 546.7292 466.204603 
L 546.7292 59.165802 
" style="fill:none;stroke:#141414;stroke-linecap:round;stroke-width:1.5;"/>
   </g>
   <g id="line2d_8">
    <path clip-path="url(#p402a686d0f)" d="M 546.7292 299.874897 
L 546.7292 183.678288 
" style="fill:none;stroke:#141414;stroke-linecap:round;stroke-width:4.5;"/>
   </g>
   <g id="line2d_9">
    <path clip-path="url(#p402a686d0f)" d="M 682.5404 466.801595 
L 682.5404 424.34805 
" style="fill:none;stroke:#141414;stroke-linecap:round;stroke-width:1.5;"/>
   </g>
   <g id="line2d_10">
    <path clip-path="url(#p402a686d0f)" d="M 682.5404 466.486803 
L 682.5404 448.305149 
" style="fill:none;stroke:#141414;stroke-linecap:round;stroke-width:4.5;"/>
   </g>
   <g id="patch_3">
    <path d="M 71.39 489.870172 
L 71.39 7.2 
" style="fill:none;stroke:#262626;stroke-linecap:square;stroke-linejoin:miter;stroke-width:0.8;"/>
   </g>
   <g id="patch_4">
    <path d="M 71.39 489.870172 
L 750.446 489.870172 
" style="fill:none;stroke:#262626;stroke-linecap:square;stroke-linejoin:miter;stroke-width:0.8;"/>
   </g>
   <g id="PathCollection_1">
    <defs>
     <path d="M 0 1.5 
C 0.397805 1.5 0.77937 1.341951 1.06066 1.06066 
C 1.341951 0.77937 1.5 0.397805 1.5 0 
C 1.5 -0.397805 1.341951 -0.77937 1.06066 -1.06066 
C 0.77937 -1.341951 0.397805 -1.5 0 -1.5 
C -0.397805 -1.5 -0.77937 -1.341951 -1.06066 -1.06066 
C -1.341951 -0.77937 -1.5 -0.397805 -1.5 0 
C -1.5 0.397805 -1.341951 0.77937 -1.06066 1.06066 
C -0.77937 1.341951 -0.397805 1.5 0 1.5 
z
" id="ma0144a6510" style="stroke:#141414;"/>
    </defs>
    <g clip-path="url(#p402a686d0f)">
     <use style="fill:#ffffff;stroke:#141414;" x="139.2956" xlink:href="#ma0144a6510" y="397.593486"/>
    </g>
   </g>
   <g id="PathCollection_2">
    <g clip-path="url(#p402a686d0f)">
     <use style="fill:#ffffff;stroke:#141414;" x="275.1068" xlink:href="#ma0144a6510" y="415.68965"/>
    </g>
   </g>
   <g id="PathCollection_3">
    <g clip-path="url(#p402a686d0f)">
     <use style="fill:#ffffff;stroke:#141414;" x="410.918" xlink:href="#ma0144a6510" y="169.931601"/>
    </g>
   </g>
   <g id="PathCollection_4">
    <g clip-path="url(#p402a686d0f)">
     <use style="fill:#ffffff;stroke:#141414;" x="546.7292" xlink:href="#ma0144a6510" y="244.140337"/>
    </g>
   </g>
   <g id="PathCollection_5">
    <g clip-path="url(#p402a686d0f)">
     <use style="fill:#ffffff;stroke:#141414;" x="682.5404" xlink:href="#ma0144a6510" y="465.50276"/>
    </g>
   </g>
  </g>
 </g>
 <defs>
  <clipPath id="p402a686d0f">
   <rect height="482.670172" width="679.056" x="71.39" y="7.2"/>
  </clipPath>
 </defs>
</svg>
