<?xml version="1.0" encoding="utf-8" standalone="no"?>
<!DOCTYPE svg PUBLIC "-//W3C//DTD SVG 1.1//EN"
  "http://www.w3.org/Graphics/SVG/1.1/DTD/svg11.dtd">
<!-- Created with matplotlib (https://matplotlib.org/) -->
<svg height="536.241028pt" version="1.1" viewBox="0 0 803.5205 536.241028" width="803.5205pt" xmlns="http://www.w3.org/2000/svg" xmlns:xlink="http://www.w3.org/1999/xlink">
 <defs>
  <style type="text/css">
*{stroke-linecap:butt;stroke-linejoin:round;white-space:pre;}
  </style>
 </defs>
 <g id="figure_1">
  <g id="patch_1">
   <path d="M 0 536.241028 
L 803.5205 536.241028 
L 803.5205 0 
L 0 0 
z
" style="fill:#ffffff;"/>
  </g>
  <g id="axes_1">
   <g id="patch_2">
    <path d="M 62.4925 488.776028 
L 650.972863 488.776028 
L 650.972863 7.792219 
L 62.4925 7.792219 
z
" style="fill:#ffffff;"/>
   </g>
   <g id="matplotlib.axis_1">
    <g id="xtick_1">
     <g id="text_1">
      <!-- 0529-2 -->
      <defs>
       <path d="M 4.15625 35.296875 
Q 4.15625 48 6.765625 55.734375 
Q 9.375 63.484375 14.515625 67.671875 
Q 19.671875 71.875 27.484375 71.875 
Q 33.25 71.875 37.59375 69.546875 
Q 41.9375 67.234375 44.765625 62.859375 
Q 47.609375 58.5 49.21875 52.21875 
Q 50.828125 45.953125 50.828125 35.296875 
Q 50.828125 22.703125 48.234375 14.96875 
Q 45.65625 7.234375 40.5 3 
Q 35.359375 -1.21875 27.484375 -1.21875 
Q 17.140625 -1.21875 11.234375 6.203125 
Q 4.15625 15.140625 4.15625 35.296875 
z
M 13.1875 35.296875 
Q 13.1875 17.671875 17.3125 11.828125 
Q 21.4375 6 27.484375 6 
Q 33.546875 6 37.671875 11.859375 
Q 41.796875 17.71875 41.796875 35.296875 
Q 41.796875 52.984375 37.671875 58.78125 
Q 33.546875 64.59375 27.390625 64.59375 
Q 21.34375 64.59375 17.71875 59.46875 
Q 13.1875 52.9375 13.1875 35.296875 
z
" id="ArialMT-48"/>
       <path d="M 4.15625 18.75 
L 13.375 19.53125 
Q 14.40625 12.796875 18.140625 9.390625 
Q 21.875 6 27.15625 6 
Q 33.5 6 37.890625 10.78125 
Q 42.28125 15.578125 42.28125 23.484375 
Q 42.28125 31 38.0625 35.34375 
Q 33.84375 39.703125 27 39.703125 
Q 22.75 39.703125 19.328125 37.765625 
Q 15.921875 35.84375 13.96875 32.765625 
L 5.71875 33.84375 
L 12.640625 70.609375 
L 48.25 70.609375 
L 48.25 62.203125 
L 19.671875 62.203125 
L 15.828125 42.96875 
Q 22.265625 47.46875 29.34375 47.46875 
Q 38.71875 47.46875 45.15625 40.96875 
Q 51.609375 34.46875 51.609375 24.265625 
Q 51.609375 14.546875 45.953125 7.46875 
Q 39.0625 -1.21875 27.15625 -1.21875 
Q 17.390625 -1.21875 11.203125 4.25 
Q 5.03125 9.71875 4.15625 18.75 
z
" id="ArialMT-53"/>
       <path d="M 50.34375 8.453125 
L 50.34375 0 
L 3.03125 0 
Q 2.9375 3.171875 4.046875 6.109375 
Q 5.859375 10.9375 9.828125 15.625 
Q 13.8125 20.3125 21.34375 26.46875 
Q 33.015625 36.03125 37.109375 41.625 
Q 41.21875 47.21875 41.21875 52.203125 
Q 41.21875 57.421875 37.46875 61 
Q 33.734375 64.59375 27.734375 64.59375 
Q 21.390625 64.59375 17.578125 60.78125 
Q 13.765625 56.984375 13.71875 50.25 
L 4.6875 51.171875 
Q 5.609375 61.28125 11.65625 66.578125 
Q 17.71875 71.875 27.9375 71.875 
Q 38.234375 71.875 44.234375 66.15625 
Q 50.25 60.453125 50.25 52 
Q 50.25 47.703125 48.484375 43.546875 
Q 46.734375 39.40625 42.65625 34.8125 
Q 38.578125 30.21875 29.109375 22.21875 
Q 21.1875 15.578125 18.9375 13.203125 
Q 16.703125 10.84375 15.234375 8.453125 
z
" id="ArialMT-50"/>
       <path d="M 5.46875 16.546875 
L 13.921875 17.328125 
Q 14.984375 11.375 18.015625 8.6875 
Q 21.046875 6 25.78125 6 
Q 29.828125 6 32.875 7.859375 
Q 35.9375 9.71875 37.890625 12.8125 
Q 39.84375 15.921875 41.15625 21.1875 
Q 42.484375 26.46875 42.484375 31.9375 
Q 42.484375 32.515625 42.4375 33.6875 
Q 39.796875 29.5 35.234375 26.875 
Q 30.671875 24.265625 25.34375 24.265625 
Q 16.453125 24.265625 10.296875 30.703125 
Q 4.15625 37.15625 4.15625 47.703125 
Q 4.15625 58.59375 10.578125 65.234375 
Q 17 71.875 26.65625 71.875 
Q 33.640625 71.875 39.421875 68.109375 
Q 45.21875 64.359375 48.21875 57.390625 
Q 51.21875 50.4375 51.21875 37.25 
Q 51.21875 23.53125 48.234375 15.40625 
Q 45.265625 7.28125 39.375 3.03125 
Q 33.5 -1.21875 25.59375 -1.21875 
Q 17.1875 -1.21875 11.859375 3.4375 
Q 6.546875 8.109375 5.46875 16.546875 
z
M 41.453125 48.140625 
Q 41.453125 55.71875 37.421875 60.15625 
Q 33.40625 64.59375 27.734375 64.59375 
Q 21.875 64.59375 17.53125 59.8125 
Q 13.1875 55.03125 13.1875 47.40625 
Q 13.1875 40.578125 17.3125 36.296875 
Q 21.4375 32.03125 27.484375 32.03125 
Q 33.59375 32.03125 37.515625 36.296875 
Q 41.453125 40.578125 41.453125 48.140625 
z
" id="ArialMT-57"/>
       <path d="M 3.171875 21.484375 
L 3.171875 30.328125 
L 30.171875 30.328125 
L 30.171875 21.484375 
z
" id="ArialMT-45"/>
      </defs>
      <g style="fill:#262626;" transform="translate(135.66506 507.228528)scale(0.16 -0.16)">
       <use xlink:href="#ArialMT-48"/>
       <use x="55.615234" xlink:href="#ArialMT-53"/>
       <use x="111.230469" xlink:href="#ArialMT-50"/>
       <use x="166.845703" xlink:href="#ArialMT-57"/>
       <use x="222.460938" xlink:href="#ArialMT-45"/>
       <use x="255.761719" xlink:href="#ArialMT-50"/>
      </g>
     </g>
    </g>
    <g id="xtick_2">
     <g id="text_2">
      <!-- 1092-1 -->
      <defs>
       <path d="M 37.25 0 
L 28.46875 0 
L 28.46875 56 
Q 25.296875 52.984375 20.140625 49.953125 
Q 14.984375 46.921875 10.890625 45.40625 
L 10.890625 53.90625 
Q 18.265625 57.375 23.78125 62.296875 
Q 29.296875 67.234375 31.59375 71.875 
L 37.25 71.875 
z
" id="ArialMT-49"/>
      </defs>
      <g style="fill:#262626;" transform="translate(331.825181 507.228528)scale(0.16 -0.16)">
       <use xlink:href="#ArialMT-49"/>
       <use x="55.615234" xlink:href="#ArialMT-48"/>
       <use x="111.230469" xlink:href="#ArialMT-57"/>
       <use x="166.845703" xlink:href="#ArialMT-50"/>
       <use x="222.460938" xlink:href="#ArialMT-45"/>
       <use x="255.761719" xlink:href="#ArialMT-49"/>
      </g>
     </g>
    </g>
    <g id="xtick_3">
     <g id="text_3">
      <!-- 1092-2 -->
      <g style="fill:#262626;" transform="translate(527.985302 507.228528)scale(0.16 -0.16)">
       <use xlink:href="#ArialMT-49"/>
       <use x="55.615234" xlink:href="#ArialMT-48"/>
       <use x="111.230469" xlink:href="#ArialMT-57"/>
       <use x="166.845703" xlink:href="#ArialMT-50"/>
       <use x="222.460938" xlink:href="#ArialMT-45"/>
       <use x="255.761719" xlink:href="#ArialMT-50"/>
      </g>
     </g>
    </g>
    <g id="text_4">
     <!-- Counter id -->
     <defs>
      <path d="M 58.796875 25.09375 
L 68.265625 22.703125 
Q 65.28125 11.03125 57.546875 4.90625 
Q 49.8125 -1.21875 38.625 -1.21875 
Q 27.046875 -1.21875 19.796875 3.484375 
Q 12.546875 8.203125 8.765625 17.140625 
Q 4.984375 26.078125 4.984375 36.328125 
Q 4.984375 47.515625 9.25 55.828125 
Q 13.53125 64.15625 21.40625 68.46875 
Q 29.296875 72.796875 38.765625 72.796875 
Q 49.515625 72.796875 56.828125 67.328125 
Q 64.15625 61.859375 67.046875 51.953125 
L 57.71875 49.75 
Q 55.21875 57.5625 50.484375 61.125 
Q 45.75 64.703125 38.578125 64.703125 
Q 30.328125 64.703125 24.78125 60.734375 
Q 19.234375 56.78125 16.984375 50.109375 
Q 14.75 43.453125 14.75 36.375 
Q 14.75 27.25 17.40625 20.4375 
Q 20.0625 13.625 25.671875 10.25 
Q 31.296875 6.890625 37.84375 6.890625 
Q 45.796875 6.890625 51.3125 11.46875 
Q 56.84375 16.0625 58.796875 25.09375 
z
" id="ArialMT-67"/>
      <path d="M 3.328125 25.921875 
Q 3.328125 40.328125 11.328125 47.265625 
Q 18.015625 53.03125 27.640625 53.03125 
Q 38.328125 53.03125 45.109375 46.015625 
Q 51.90625 39.015625 51.90625 26.65625 
Q 51.90625 16.65625 48.90625 10.90625 
Q 45.90625 5.171875 40.15625 2 
Q 34.421875 -1.171875 27.640625 -1.171875 
Q 16.75 -1.171875 10.03125 5.8125 
Q 3.328125 12.796875 3.328125 25.921875 
z
M 12.359375 25.921875 
Q 12.359375 15.96875 16.703125 11.015625 
Q 21.046875 6.0625 27.640625 6.0625 
Q 34.1875 6.0625 38.53125 11.03125 
Q 42.875 16.015625 42.875 26.21875 
Q 42.875 35.84375 38.5 40.796875 
Q 34.125 45.75 27.640625 45.75 
Q 21.046875 45.75 16.703125 40.8125 
Q 12.359375 35.890625 12.359375 25.921875 
z
" id="ArialMT-111"/>
      <path d="M 40.578125 0 
L 40.578125 7.625 
Q 34.515625 -1.171875 24.125 -1.171875 
Q 19.53125 -1.171875 15.546875 0.578125 
Q 11.578125 2.34375 9.640625 5 
Q 7.71875 7.671875 6.9375 11.53125 
Q 6.390625 14.109375 6.390625 19.734375 
L 6.390625 51.859375 
L 15.1875 51.859375 
L 15.1875 23.09375 
Q 15.1875 16.21875 15.71875 13.8125 
Q 16.546875 10.359375 19.234375 8.375 
Q 21.921875 6.390625 25.875 6.390625 
Q 29.828125 6.390625 33.296875 8.421875 
Q 36.765625 10.453125 38.203125 13.9375 
Q 39.65625 17.4375 39.65625 24.078125 
L 39.65625 51.859375 
L 48.4375 51.859375 
L 48.4375 0 
z
" id="ArialMT-117"/>
      <path d="M 6.59375 0 
L 6.59375 51.859375 
L 14.5 51.859375 
L 14.5 44.484375 
Q 20.21875 53.03125 31 53.03125 
Q 35.6875 53.03125 39.625 51.34375 
Q 43.5625 49.65625 45.515625 46.921875 
Q 47.46875 44.1875 48.25 40.4375 
Q 48.734375 37.984375 48.734375 31.890625 
L 48.734375 0 
L 39.9375 0 
L 39.9375 31.546875 
Q 39.9375 36.921875 38.90625 39.578125 
Q 37.890625 42.234375 35.28125 43.8125 
Q 32.671875 45.40625 29.15625 45.40625 
Q 23.53125 45.40625 19.453125 41.84375 
Q 15.375 38.28125 15.375 28.328125 
L 15.375 0 
z
" id="ArialMT-110"/>
      <path d="M 25.78125 7.859375 
L 27.046875 0.09375 
Q 23.34375 -0.6875 20.40625 -0.6875 
Q 15.625 -0.6875 12.984375 0.828125 
Q 10.359375 2.34375 9.28125 4.8125 
Q 8.203125 7.28125 8.203125 15.1875 
L 8.203125 45.015625 
L 1.765625 45.015625 
L 1.765625 51.859375 
L 8.203125 51.859375 
L 8.203125 64.703125 
L 16.9375 69.96875 
L 16.9375 51.859375 
L 25.78125 51.859375 
L 25.78125 45.015625 
L 16.9375 45.015625 
L 16.9375 14.703125 
Q 16.9375 10.9375 17.40625 9.859375 
Q 17.875 8.796875 18.921875 8.15625 
Q 19.96875 7.515625 21.921875 7.515625 
Q 23.390625 7.515625 25.78125 7.859375 
z
" id="ArialMT-116"/>
      <path d="M 42.09375 16.703125 
L 51.171875 15.578125 
Q 49.03125 7.625 43.21875 3.21875 
Q 37.40625 -1.171875 28.375 -1.171875 
Q 17 -1.171875 10.328125 5.828125 
Q 3.65625 12.84375 3.65625 25.484375 
Q 3.65625 38.578125 10.390625 45.796875 
Q 17.140625 53.03125 27.875 53.03125 
Q 38.28125 53.03125 44.875 45.953125 
Q 51.46875 38.875 51.46875 26.03125 
Q 51.46875 25.25 51.421875 23.6875 
L 12.75 23.6875 
Q 13.234375 15.140625 17.578125 10.59375 
Q 21.921875 6.0625 28.421875 6.0625 
Q 33.25 6.0625 36.671875 8.59375 
Q 40.09375 11.140625 42.09375 16.703125 
z
M 13.234375 30.90625 
L 42.1875 30.90625 
Q 41.609375 37.453125 38.875 40.71875 
Q 34.671875 45.796875 27.984375 45.796875 
Q 21.921875 45.796875 17.796875 41.75 
Q 13.671875 37.703125 13.234375 30.90625 
z
" id="ArialMT-101"/>
      <path d="M 6.5 0 
L 6.5 51.859375 
L 14.40625 51.859375 
L 14.40625 44 
Q 17.4375 49.515625 20 51.265625 
Q 22.5625 53.03125 25.640625 53.03125 
Q 30.078125 53.03125 34.671875 50.203125 
L 31.640625 42.046875 
Q 28.421875 43.953125 25.203125 43.953125 
Q 22.3125 43.953125 20.015625 42.21875 
Q 17.71875 40.484375 16.75 37.40625 
Q 15.28125 32.71875 15.28125 27.15625 
L 15.28125 0 
z
" id="ArialMT-114"/>
      <path id="ArialMT-32"/>
      <path d="M 6.640625 61.46875 
L 6.640625 71.578125 
L 15.4375 71.578125 
L 15.4375 61.46875 
z
M 6.640625 0 
L 6.640625 51.859375 
L 15.4375 51.859375 
L 15.4375 0 
z
" id="ArialMT-105"/>
      <path d="M 40.234375 0 
L 40.234375 6.546875 
Q 35.296875 -1.171875 25.734375 -1.171875 
Q 19.53125 -1.171875 14.328125 2.25 
Q 9.125 5.671875 6.265625 11.796875 
Q 3.421875 17.921875 3.421875 25.875 
Q 3.421875 33.640625 6 39.96875 
Q 8.59375 46.296875 13.765625 49.65625 
Q 18.953125 53.03125 25.34375 53.03125 
Q 30.03125 53.03125 33.6875 51.046875 
Q 37.359375 49.078125 39.65625 45.90625 
L 39.65625 71.578125 
L 48.390625 71.578125 
L 48.390625 0 
z
M 12.453125 25.875 
Q 12.453125 15.921875 16.640625 10.984375 
Q 20.84375 6.0625 26.5625 6.0625 
Q 32.328125 6.0625 36.34375 10.765625 
Q 40.375 15.484375 40.375 25.140625 
Q 40.375 35.796875 36.265625 40.765625 
Q 32.171875 45.75 26.171875 45.75 
Q 20.3125 45.75 16.375 40.96875 
Q 12.453125 36.1875 12.453125 25.875 
z
" id="ArialMT-100"/>
     </defs>
     <g style="fill:#262626;" transform="translate(319.825181 525.861028)scale(0.16 -0.16)">
      <use xlink:href="#ArialMT-67"/>
      <use x="72.216797" xlink:href="#ArialMT-111"/>
      <use x="127.832031" xlink:href="#ArialMT-117"/>
      <use x="183.447266" xlink:href="#ArialMT-110"/>
      <use x="239.0625" xlink:href="#ArialMT-116"/>
      <use x="266.845703" xlink:href="#ArialMT-101"/>
      <use x="322.460938" xlink:href="#ArialMT-114"/>
      <use x="355.761719" xlink:href="#ArialMT-32"/>
      <use x="383.544922" xlink:href="#ArialMT-105"/>
      <use x="405.761719" xlink:href="#ArialMT-100"/>
     </g>
    </g>
   </g>
   <g id="matplotlib.axis_2">
    <g id="ytick_1">
     <g id="text_5">
      <!-- 0 -->
      <g style="fill:#262626;" transform="translate(46.595 473.596147)scale(0.16 -0.16)">
       <use xlink:href="#ArialMT-48"/>
      </g>
     </g>
    </g>
    <g id="ytick_2">
     <g id="text_6">
      <!-- 50 -->
      <g style="fill:#262626;" transform="translate(37.6975 397.772205)scale(0.16 -0.16)">
       <use xlink:href="#ArialMT-53"/>
       <use x="55.615234" xlink:href="#ArialMT-48"/>
      </g>
     </g>
    </g>
    <g id="ytick_3">
     <g id="text_7">
      <!-- 100 -->
      <g style="fill:#262626;" transform="translate(28.8 321.948264)scale(0.16 -0.16)">
       <use xlink:href="#ArialMT-49"/>
       <use x="55.615234" xlink:href="#ArialMT-48"/>
       <use x="111.230469" xlink:href="#ArialMT-48"/>
      </g>
     </g>
    </g>
    <g id="ytick_4">
     <g id="text_8">
      <!-- 150 -->
      <g style="fill:#262626;" transform="translate(28.8 246.124323)scale(0.16 -0.16)">
       <use xlink:href="#ArialMT-49"/>
       <use x="55.615234" xlink:href="#ArialMT-53"/>
       <use x="111.230469" xlink:href="#ArialMT-48"/>
      </g>
     </g>
    </g>
    <g id="ytick_5">
     <g id="text_9">
      <!-- 200 -->
      <g style="fill:#262626;" transform="translate(28.8 170.300382)scale(0.16 -0.16)">
       <use xlink:href="#ArialMT-50"/>
       <use x="55.615234" xlink:href="#ArialMT-48"/>
       <use x="111.230469" xlink:href="#ArialMT-48"/>
      </g>
     </g>
    </g>
    <g id="ytick_6">
     <g id="text_10">
      <!-- 250 -->
      <g style="fill:#262626;" transform="translate(28.8 94.476441)scale(0.16 -0.16)">
       <use xlink:href="#ArialMT-50"/>
       <use x="55.615234" xlink:href="#ArialMT-53"/>
       <use x="111.230469" xlink:href="#ArialMT-48"/>
      </g>
     </g>
    </g>
    <g id="ytick_7">
     <g id="text_11">
      <!-- 300 -->
      <defs>
       <path d="M 4.203125 18.890625 
L 12.984375 20.0625 
Q 14.5 12.59375 18.140625 9.296875 
Q 21.78125 6 27 6 
Q 33.203125 6 37.46875 10.296875 
Q 41.75 14.59375 41.75 20.953125 
Q 41.75 27 37.796875 30.921875 
Q 33.84375 34.859375 27.734375 34.859375 
Q 25.25 34.859375 21.53125 33.890625 
L 22.515625 41.609375 
Q 23.390625 41.5 23.921875 41.5 
Q 29.546875 41.5 34.03125 44.421875 
Q 38.53125 47.359375 38.53125 53.46875 
Q 38.53125 58.296875 35.25 61.46875 
Q 31.984375 64.65625 26.8125 64.65625 
Q 21.6875 64.65625 18.265625 61.421875 
Q 14.84375 58.203125 13.875 51.765625 
L 5.078125 53.328125 
Q 6.6875 62.15625 12.390625 67.015625 
Q 18.109375 71.875 26.609375 71.875 
Q 32.46875 71.875 37.390625 69.359375 
Q 42.328125 66.84375 44.9375 62.5 
Q 47.5625 58.15625 47.5625 53.265625 
Q 47.5625 48.640625 45.0625 44.828125 
Q 42.578125 41.015625 37.703125 38.765625 
Q 44.046875 37.3125 47.5625 32.6875 
Q 51.078125 28.078125 51.078125 21.140625 
Q 51.078125 11.765625 44.234375 5.25 
Q 37.40625 -1.265625 26.953125 -1.265625 
Q 17.53125 -1.265625 11.296875 4.34375 
Q 5.078125 9.96875 4.203125 18.890625 
z
" id="ArialMT-51"/>
      </defs>
      <g style="fill:#262626;" transform="translate(28.8 18.6525)scale(0.16 -0.16)">
       <use xlink:href="#ArialMT-51"/>
       <use x="55.615234" xlink:href="#ArialMT-48"/>
       <use x="111.230469" xlink:href="#ArialMT-48"/>
      </g>
     </g>
    </g>
    <g id="text_12">
     <!-- Count [$h^{-1}$] -->
     <defs>
      <path d="M 6.78125 -19.875 
L 6.78125 71.578125 
L 26.171875 71.578125 
L 26.171875 64.3125 
L 15.578125 64.3125 
L 15.578125 -12.59375 
L 26.171875 -12.59375 
L 26.171875 -19.875 
z
" id="ArialMT-91"/>
      <path d="M 55.71875 33.015625 
L 49.3125 0 
L 40.28125 0 
L 46.6875 32.671875 
Q 47.125 34.96875 47.359375 36.71875 
Q 47.609375 38.484375 47.609375 39.5 
Q 47.609375 43.609375 45.015625 45.890625 
Q 42.4375 48.1875 37.796875 48.1875 
Q 30.5625 48.1875 25.265625 43.296875 
Q 19.96875 38.421875 18.40625 30.328125 
L 12.5 0 
L 3.515625 0 
L 18.3125 75.984375 
L 27.296875 75.984375 
L 21.484375 46.09375 
Q 24.90625 50.6875 30.21875 53.34375 
Q 35.546875 56 41.40625 56 
Q 48.640625 56 52.609375 52.09375 
Q 56.59375 48.1875 56.59375 41.109375 
Q 56.59375 39.359375 56.375 37.359375 
Q 56.15625 35.359375 55.71875 33.015625 
z
" id="DejaVuSans-Oblique-104"/>
      <path d="M 10.59375 35.5 
L 73.1875 35.5 
L 73.1875 27.203125 
L 10.59375 27.203125 
z
" id="DejaVuSans-8722"/>
      <path d="M 12.40625 8.296875 
L 28.515625 8.296875 
L 28.515625 63.921875 
L 10.984375 60.40625 
L 10.984375 69.390625 
L 28.421875 72.90625 
L 38.28125 72.90625 
L 38.28125 8.296875 
L 54.390625 8.296875 
L 54.390625 0 
L 12.40625 0 
z
" id="DejaVuSans-49"/>
      <path d="M 21.296875 -19.875 
L 1.90625 -19.875 
L 1.90625 -12.59375 
L 12.5 -12.59375 
L 12.5 64.3125 
L 1.90625 64.3125 
L 1.90625 71.578125 
L 21.296875 71.578125 
z
" id="ArialMT-93"/>
     </defs>
     <g style="fill:#262626;" transform="translate(21.6 290.444124)rotate(-90)scale(0.16 -0.16)">
      <use transform="translate(0 0.684375)" xlink:href="#ArialMT-67"/>
      <use transform="translate(72.216797 0.684375)" xlink:href="#ArialMT-111"/>
      <use transform="translate(127.832031 0.684375)" xlink:href="#ArialMT-117"/>
      <use transform="translate(183.447266 0.684375)" xlink:href="#ArialMT-110"/>
      <use transform="translate(239.0625 0.684375)" xlink:href="#ArialMT-116"/>
      <use transform="translate(266.845703 0.684375)" xlink:href="#ArialMT-32"/>
      <use transform="translate(294.628906 0.684375)" xlink:href="#ArialMT-91"/>
      <use transform="translate(322.412109 0.684375)" xlink:href="#DejaVuSans-Oblique-104"/>
      <use transform="translate(393.238724 38.965625)scale(0.7)" xlink:href="#DejaVuSans-8722"/>
      <use transform="translate(451.891068 38.965625)scale(0.7)" xlink:href="#DejaVuSans-49"/>
      <use transform="translate(499.161576 0.684375)" xlink:href="#ArialMT-93"/>
     </g>
    </g>
   </g>
   <g id="PolyCollection_1">
    <defs>
     <path d="M 156.337913 -70.26673 
L 86.343159 -70.26673 
L 84.479008 -72.20461 
L 83.128124 -74.14249 
L 82.333327 -76.08037 
L 82.108512 -78.01825 
L 82.438459 -79.95613 
L 83.281148 -81.89401 
L 84.572202 -83.83189 
L 86.23088 -85.76977 
L 88.166888 -87.70765 
L 90.287274 -89.64553 
L 92.502729 -91.58341 
L 94.732796 -93.52129 
L 96.909637 -95.45917 
L 98.980249 -97.39705 
L 100.907165 -99.33493 
L 102.667825 -101.27281 
L 104.252902 -103.21069 
L 105.663909 -105.14857 
L 106.910424 -107.08645 
L 108.007251 -109.02433 
L 108.971772 -110.96221 
L 109.821716 -112.90009 
L 110.573469 -114.83797 
L 111.240989 -116.77585 
L 111.835326 -118.71373 
L 112.364664 -120.65161 
L 112.834787 -122.58949 
L 113.249796 -124.52737 
L 113.612944 -126.46525 
L 113.927422 -128.403129 
L 114.196998 -130.341009 
L 114.426414 -132.278889 
L 114.621518 -134.216769 
L 114.78914 -136.154649 
L 114.936751 -138.092529 
L 115.071981 -140.030409 
L 115.202079 -141.968289 
L 115.333373 -143.906169 
L 115.470823 -145.844049 
L 115.617687 -147.781929 
L 115.775348 -149.719809 
L 115.94329 -151.657689 
L 116.119229 -153.595569 
L 116.299355 -155.533449 
L 116.478679 -157.471329 
L 116.651428 -159.409209 
L 116.811481 -161.347089 
L 116.952813 -163.284969 
L 117.069917 -165.222849 
L 117.158213 -167.160729 
L 117.214412 -169.098609 
L 117.236828 -171.036489 
L 117.225626 -172.974369 
L 117.18298 -174.912249 
L 117.113125 -176.850129 
L 117.022268 -178.788009 
L 116.918354 -180.725889 
L 116.81068 -182.663769 
L 116.709349 -184.601649 
L 116.624626 -186.539529 
L 116.566214 -188.477409 
L 116.542542 -190.415289 
L 116.560128 -192.353169 
L 116.623085 -194.291049 
L 116.732845 -196.228929 
L 116.888112 -198.166809 
L 117.085067 -200.104689 
L 117.317777 -202.042569 
L 117.578771 -203.980449 
L 117.859691 -205.918329 
L 118.151947 -207.856209 
L 118.447305 -209.794089 
L 118.738346 -211.731969 
L 119.018776 -213.669849 
L 119.283582 -215.607729 
L 119.529048 -217.545609 
L 119.752671 -219.483489 
L 119.953016 -221.421369 
L 120.12955 -223.359249 
L 120.282479 -225.297129 
L 120.412603 -227.235009 
L 120.521201 -229.172889 
L 120.609933 -231.110769 
L 120.680753 -233.048649 
L 120.735831 -234.986529 
L 120.77746 -236.924409 
L 120.807976 -238.862289 
L 120.829663 -240.800169 
L 120.844686 -242.738049 
L 120.855022 -244.675929 
L 120.862426 -246.613809 
L 120.868414 -248.551689 
L 120.874262 -250.489569 
L 120.881025 -252.427449 
L 120.889549 -254.365328 
L 120.900488 -256.303208 
L 120.914311 -258.241088 
L 120.931299 -260.178968 
L 120.95154 -262.116848 
L 121.729533 -262.116848 
L 121.729533 -262.116848 
L 121.749773 -260.178968 
L 121.766762 -258.241088 
L 121.780585 -256.303208 
L 121.791524 -254.365328 
L 121.800047 -252.427449 
L 121.80681 -250.489569 
L 121.812659 -248.551689 
L 121.818646 -246.613809 
L 121.826051 -244.675929 
L 121.836386 -242.738049 
L 121.851409 -240.800169 
L 121.873097 -238.862289 
L 121.903612 -236.924409 
L 121.945242 -234.986529 
L 122.000319 -233.048649 
L 122.07114 -231.110769 
L 122.159871 -229.172889 
L 122.268469 -227.235009 
L 122.398593 -225.297129 
L 122.551522 -223.359249 
L 122.728057 -221.421369 
L 122.928402 -219.483489 
L 123.152024 -217.545609 
L 123.39749 -215.607729 
L 123.662297 -213.669849 
L 123.942727 -211.731969 
L 124.233768 -209.794089 
L 124.529125 -207.856209 
L 124.821382 -205.918329 
L 125.102302 -203.980449 
L 125.363296 -202.042569 
L 125.596006 -200.104689 
L 125.79296 -198.166809 
L 125.948228 -196.228929 
L 126.057988 -194.291049 
L 126.120945 -192.353169 
L 126.13853 -190.415289 
L 126.114859 -188.477409 
L 126.056446 -186.539529 
L 125.971723 -184.601649 
L 125.870393 -182.663769 
L 125.762718 -180.725889 
L 125.658805 -178.788009 
L 125.567947 -176.850129 
L 125.498092 -174.912249 
L 125.455447 -172.974369 
L 125.444245 -171.036489 
L 125.46666 -169.098609 
L 125.522859 -167.160729 
L 125.611155 -165.222849 
L 125.72826 -163.284969 
L 125.869591 -161.347089 
L 126.029645 -159.409209 
L 126.202394 -157.471329 
L 126.381717 -155.533449 
L 126.561844 -153.595569 
L 126.737782 -151.657689 
L 126.905724 -149.719809 
L 127.063385 -147.781929 
L 127.210249 -145.844049 
L 127.347699 -143.906169 
L 127.478994 -141.968289 
L 127.609091 -140.030409 
L 127.744322 -138.092529 
L 127.891932 -136.154649 
L 128.059554 -134.216769 
L 128.254659 -132.278889 
L 128.484075 -130.341009 
L 128.753651 -128.403129 
L 129.068129 -126.46525 
L 129.431276 -124.52737 
L 129.846286 -122.58949 
L 130.316409 -120.65161 
L 130.845747 -118.71373 
L 131.440083 -116.77585 
L 132.107603 -114.83797 
L 132.859356 -112.90009 
L 133.7093 -110.96221 
L 134.673821 -109.02433 
L 135.770648 -107.08645 
L 137.017164 -105.14857 
L 138.428171 -103.21069 
L 140.013247 -101.27281 
L 141.773907 -99.33493 
L 143.700823 -97.39705 
L 145.771436 -95.45917 
L 147.948277 -93.52129 
L 150.178343 -91.58341 
L 152.393799 -89.64553 
L 154.514185 -87.70765 
L 156.450193 -85.76977 
L 158.108871 -83.83189 
L 159.399924 -81.89401 
L 160.242613 -79.95613 
L 160.57256 -78.01825 
L 160.347745 -76.08037 
L 159.552949 -74.14249 
L 158.202065 -72.20461 
L 156.337913 -70.26673 
z
" id="mbc1cc7341e" style="stroke:#141414;stroke-width:1.5;"/>
    </defs>
    <g clip-path="url(#p98f53807ec)">
     <use style="fill:#083c1d;stroke:#141414;stroke-width:1.5;" x="0" xlink:href="#mbc1cc7341e" y="536.241028"/>
    </g>
   </g>
   <g id="PolyCollection_2">
    <defs>
     <path d="M 217.264069 -69.3279 
L 182.345101 -69.3279 
L 180.972446 -71.929739 
L 179.76898 -74.531578 
L 178.766707 -77.133416 
L 177.988996 -79.735255 
L 177.449872 -82.337094 
L 177.154041 -84.938933 
L 177.097551 -87.540771 
L 177.268903 -90.14261 
L 177.650408 -92.744449 
L 178.219617 -95.346287 
L 178.950666 -97.948126 
L 179.815475 -100.549965 
L 180.784769 -103.151803 
L 181.828962 -105.753642 
L 182.918939 -108.355481 
L 184.026809 -110.957319 
L 185.126643 -113.559158 
L 186.195198 -116.160997 
L 187.21261 -118.762836 
L 188.162962 -121.364674 
L 189.034703 -123.966513 
L 189.820812 -126.568352 
L 190.518702 -129.17019 
L 191.129845 -131.772029 
L 191.659136 -134.373868 
L 192.114084 -136.975706 
L 192.503884 -139.577545 
L 192.838479 -142.179384 
L 193.127699 -144.781223 
L 193.380535 -147.383061 
L 193.604619 -149.9849 
L 193.805908 -152.586739 
L 193.988583 -155.188577 
L 194.155129 -157.790416 
L 194.306557 -160.392255 
L 194.442718 -162.994093 
L 194.562661 -165.595932 
L 194.665 -168.197771 
L 194.748251 -170.799609 
L 194.811123 -173.401448 
L 194.852757 -176.003287 
L 194.872906 -178.605126 
L 194.872057 -181.206964 
L 194.851502 -183.808803 
L 194.813354 -186.410642 
L 194.760511 -189.01248 
L 194.696565 -191.614319 
L 194.625656 -194.216158 
L 194.552274 -196.817996 
L 194.48102 -199.419835 
L 194.416351 -202.021674 
L 194.362305 -204.623512 
L 194.322273 -207.225351 
L 194.298801 -209.82719 
L 194.29348 -212.429029 
L 194.306905 -215.030867 
L 194.33873 -217.632706 
L 194.387797 -220.234545 
L 194.45232 -222.836383 
L 194.530105 -225.438222 
L 194.618775 -228.040061 
L 194.715976 -230.641899 
L 194.819548 -233.243738 
L 194.927642 -235.845577 
L 195.03879 -238.447415 
L 195.151926 -241.049254 
L 195.266363 -243.651093 
L 195.381745 -246.252932 
L 195.497983 -248.85477 
L 195.61518 -251.456609 
L 195.733562 -254.058448 
L 195.853409 -256.660286 
L 195.974996 -259.262125 
L 196.098546 -261.863964 
L 196.224189 -264.465802 
L 196.351936 -267.067641 
L 196.48166 -269.66948 
L 196.613093 -272.271318 
L 196.745836 -274.873157 
L 196.879378 -277.474996 
L 197.013125 -280.076835 
L 197.146436 -282.678673 
L 197.278661 -285.280512 
L 197.409176 -287.882351 
L 197.537422 -290.484189 
L 197.662931 -293.086028 
L 197.785348 -295.687867 
L 197.904447 -298.289705 
L 198.020139 -300.891544 
L 198.132467 -303.493383 
L 198.241594 -306.095221 
L 198.347776 -308.69706 
L 198.451326 -311.298899 
L 198.552564 -313.900738 
L 198.651765 -316.502576 
L 198.749099 -319.104415 
L 198.844591 -321.706254 
L 198.938084 -324.308092 
L 199.029226 -326.909931 
L 200.579943 -326.909931 
L 200.579943 -326.909931 
L 200.671086 -324.308092 
L 200.764578 -321.706254 
L 200.86007 -319.104415 
L 200.957405 -316.502576 
L 201.056605 -313.900738 
L 201.157843 -311.298899 
L 201.261394 -308.69706 
L 201.367576 -306.095221 
L 201.476702 -303.493383 
L 201.58903 -300.891544 
L 201.704722 -298.289705 
L 201.823822 -295.687867 
L 201.946239 -293.086028 
L 202.071748 -290.484189 
L 202.199994 -287.882351 
L 202.330509 -285.280512 
L 202.462733 -282.678673 
L 202.596044 -280.076835 
L 202.729791 -277.474996 
L 202.863334 -274.873157 
L 202.996077 -272.271318 
L 203.12751 -269.66948 
L 203.257233 -267.067641 
L 203.38498 -264.465802 
L 203.510624 -261.863964 
L 203.634174 -259.262125 
L 203.755761 -256.660286 
L 203.875607 -254.058448 
L 203.993989 -251.456609 
L 204.111186 -248.85477 
L 204.227424 -246.252932 
L 204.342806 -243.651093 
L 204.457243 -241.049254 
L 204.570379 -238.447415 
L 204.681528 -235.845577 
L 204.789621 -233.243738 
L 204.893193 -230.641899 
L 204.990394 -228.040061 
L 205.079064 -225.438222 
L 205.156849 -222.836383 
L 205.221372 -220.234545 
L 205.270439 -217.632706 
L 205.302265 -215.030867 
L 205.315689 -212.429029 
L 205.310368 -209.82719 
L 205.286897 -207.225351 
L 205.246864 -204.623512 
L 205.192819 -202.021674 
L 205.128149 -199.419835 
L 205.056896 -196.817996 
L 204.983513 -194.216158 
L 204.912604 -191.614319 
L 204.848658 -189.01248 
L 204.795816 -186.410642 
L 204.757668 -183.808803 
L 204.737113 -181.206964 
L 204.736264 -178.605126 
L 204.756412 -176.003287 
L 204.798046 -173.401448 
L 204.860918 -170.799609 
L 204.944169 -168.197771 
L 205.046508 -165.595932 
L 205.166452 -162.994093 
L 205.302613 -160.392255 
L 205.454041 -157.790416 
L 205.620587 -155.188577 
L 205.803261 -152.586739 
L 206.00455 -149.9849 
L 206.228634 -147.383061 
L 206.481471 -144.781223 
L 206.77069 -142.179384 
L 207.105286 -139.577545 
L 207.495085 -136.975706 
L 207.950033 -134.373868 
L 208.479325 -131.772029 
L 209.090467 -129.17019 
L 209.788358 -126.568352 
L 210.574466 -123.966513 
L 211.446207 -121.364674 
L 212.39656 -118.762836 
L 213.413971 -116.160997 
L 214.482527 -113.559158 
L 215.58236 -110.957319 
L 216.69023 -108.355481 
L 217.780208 -105.753642 
L 218.8244 -103.151803 
L 219.793694 -100.549965 
L 220.658503 -97.948126 
L 221.389552 -95.346287 
L 221.958761 -92.744449 
L 222.340266 -90.14261 
L 222.511618 -87.540771 
L 222.455128 -84.938933 
L 222.159297 -82.337094 
L 221.620173 -79.735255 
L 220.842463 -77.133416 
L 219.840189 -74.531578 
L 218.636723 -71.929739 
L 217.264069 -69.3279 
z
" id="m69dea17498" style="stroke:#141414;stroke-width:1.5;"/>
    </defs>
    <g clip-path="url(#p98f53807ec)">
     <use style="fill:#0e5f2f;stroke:#141414;stroke-width:1.5;" x="0" xlink:href="#m69dea17498" y="536.241028"/>
    </g>
   </g>
   <g id="PolyCollection_3">
    <defs>
     <path d="M 320.075569 -76.395615 
L 314.925746 -76.395615 
L 314.41917 -79.432137 
L 313.868483 -82.46866 
L 313.282333 -85.505182 
L 312.671499 -88.541704 
L 312.04811 -91.578226 
L 311.424589 -94.614748 
L 310.81242 -97.651271 
L 310.220903 -100.687793 
L 309.656073 -103.724315 
L 309.119954 -106.760837 
L 308.610282 -109.79736 
L 308.12076 -112.833882 
L 307.641832 -115.870404 
L 307.161861 -118.906926 
L 306.668575 -121.943448 
L 306.150532 -124.979971 
L 305.598422 -128.016493 
L 305.00597 -131.053015 
L 304.370316 -134.089537 
L 303.691791 -137.126059 
L 302.973111 -140.162582 
L 302.218145 -143.199104 
L 301.430471 -146.235626 
L 300.61203 -149.272148 
L 299.76217 -152.308671 
L 298.87736 -155.345193 
L 297.951703 -158.381715 
L 296.978237 -161.418237 
L 295.950869 -164.454759 
L 294.866585 -167.491282 
L 293.727572 -170.527804 
L 292.542805 -173.564326 
L 291.328805 -176.600848 
L 290.109356 -179.637371 
L 288.914189 -182.673893 
L 287.776784 -185.710415 
L 286.73159 -188.746937 
L 285.811034 -191.783459 
L 285.042707 -194.819982 
L 284.44708 -197.856504 
L 284.036013 -200.893026 
L 283.812206 -203.929548 
L 283.769623 -206.96607 
L 283.894769 -210.002593 
L 284.16863 -213.039115 
L 284.568957 -216.075637 
L 285.072592 -219.112159 
L 285.657525 -222.148682 
L 286.304449 -225.185204 
L 286.99769 -228.221726 
L 287.725496 -231.258248 
L 288.479784 -234.29477 
L 289.255489 -237.331293 
L 290.049705 -240.367815 
L 290.86078 -243.404337 
L 291.687495 -246.440859 
L 292.528404 -249.477381 
L 293.381373 -252.513904 
L 294.243317 -255.550426 
L 295.110127 -258.586948 
L 295.976756 -261.62347 
L 296.837427 -264.659993 
L 297.685953 -267.696515 
L 298.516107 -270.733037 
L 299.322033 -273.769559 
L 300.098647 -276.806081 
L 300.841977 -279.842604 
L 301.549409 -282.879126 
L 302.219787 -285.915648 
L 302.853321 -288.95217 
L 303.451333 -291.988693 
L 304.015845 -295.025215 
L 304.549125 -298.061737 
L 305.053288 -301.098259 
L 305.530068 -304.134781 
L 305.980839 -307.171304 
L 306.406884 -310.207826 
L 306.809837 -313.244348 
L 307.192151 -316.28087 
L 307.557434 -319.317392 
L 307.910503 -322.353915 
L 308.257125 -325.390437 
L 308.60347 -328.426959 
L 308.955417 -331.463481 
L 309.317885 -334.500004 
L 309.694355 -337.536526 
L 310.086676 -340.573048 
L 310.495148 -343.60957 
L 310.91882 -346.646092 
L 311.355849 -349.682615 
L 311.803808 -352.719137 
L 312.259847 -355.755659 
L 312.7207 -358.792181 
L 313.182581 -361.828703 
L 313.641073 -364.865226 
L 314.0911 -367.901748 
L 314.527042 -370.93827 
L 314.943027 -373.974792 
L 315.33334 -377.011315 
L 319.667975 -377.011315 
L 319.667975 -377.011315 
L 320.058287 -373.974792 
L 320.474272 -370.93827 
L 320.910215 -367.901748 
L 321.360241 -364.865226 
L 321.818734 -361.828703 
L 322.280614 -358.792181 
L 322.741467 -355.755659 
L 323.197506 -352.719137 
L 323.645465 -349.682615 
L 324.082494 -346.646092 
L 324.506166 -343.60957 
L 324.914639 -340.573048 
L 325.306959 -337.536526 
L 325.68343 -334.500004 
L 326.045898 -331.463481 
L 326.397844 -328.426959 
L 326.744189 -325.390437 
L 327.090812 -322.353915 
L 327.443881 -319.317392 
L 327.809163 -316.28087 
L 328.191478 -313.244348 
L 328.594431 -310.207826 
L 329.020476 -307.171304 
L 329.471246 -304.134781 
L 329.948026 -301.098259 
L 330.452189 -298.061737 
L 330.98547 -295.025215 
L 331.549981 -291.988693 
L 332.147993 -288.95217 
L 332.781528 -285.915648 
L 333.451905 -282.879126 
L 334.159338 -279.842604 
L 334.902668 -276.806081 
L 335.679281 -273.769559 
L 336.485208 -270.733037 
L 337.315362 -267.696515 
L 338.163887 -264.659993 
L 339.024559 -261.62347 
L 339.891187 -258.586948 
L 340.757998 -255.550426 
L 341.619942 -252.513904 
L 342.47291 -249.477381 
L 343.313819 -246.440859 
L 344.140534 -243.404337 
L 344.951609 -240.367815 
L 345.745825 -237.331293 
L 346.52153 -234.29477 
L 347.275818 -231.258248 
L 348.003624 -228.221726 
L 348.696865 -225.185204 
L 349.343789 -222.148682 
L 349.928723 -219.112159 
L 350.432358 -216.075637 
L 350.832684 -213.039115 
L 351.106545 -210.002593 
L 351.231692 -206.96607 
L 351.189108 -203.929548 
L 350.965302 -200.893026 
L 350.554235 -197.856504 
L 349.958608 -194.819982 
L 349.190281 -191.783459 
L 348.269725 -188.746937 
L 347.224531 -185.710415 
L 346.087125 -182.673893 
L 344.891958 -179.637371 
L 343.672509 -176.600848 
L 342.458509 -173.564326 
L 341.273743 -170.527804 
L 340.134729 -167.491282 
L 339.050446 -164.454759 
L 338.023077 -161.418237 
L 337.049612 -158.381715 
L 336.123954 -155.345193 
L 335.239145 -152.308671 
L 334.389285 -149.272148 
L 333.570843 -146.235626 
L 332.78317 -143.199104 
L 332.028204 -140.162582 
L 331.309523 -137.126059 
L 330.630998 -134.089537 
L 329.995345 -131.053015 
L 329.402893 -128.016493 
L 328.850782 -124.979971 
L 328.33274 -121.943448 
L 327.839453 -118.906926 
L 327.359483 -115.870404 
L 326.880554 -112.833882 
L 326.391032 -109.79736 
L 325.88136 -106.760837 
L 325.345241 -103.724315 
L 324.780412 -100.687793 
L 324.188895 -97.651271 
L 323.576725 -94.614748 
L 322.953204 -91.578226 
L 322.329815 -88.541704 
L 321.718981 -85.505182 
L 321.132832 -82.46866 
L 320.582144 -79.432137 
L 320.075569 -76.395615 
z
" id="m781cfd4415" style="stroke:#141414;stroke-width:1.5;"/>
    </defs>
    <g clip-path="url(#p98f53807ec)">
     <use style="fill:#083c1d;stroke:#141414;stroke-width:1.5;" x="0" xlink:href="#m781cfd4415" y="536.241028"/>
    </g>
   </g>
   <g id="PolyCollection_4">
    <defs>
     <path d="M 396.289055 -86.670541 
L 395.640356 -86.670541 
L 395.565403 -90.850908 
L 395.484665 -95.031275 
L 395.397778 -99.211643 
L 395.305924 -103.39201 
L 395.211681 -107.572377 
L 395.116552 -111.752744 
L 395.01754 -115.933112 
L 394.90565 -120.113479 
L 394.768713 -124.293846 
L 394.598241 -128.474214 
L 394.396957 -132.654581 
L 394.18234 -136.834948 
L 393.983038 -141.015316 
L 393.828688 -145.195683 
L 393.737436 -149.37605 
L 393.70708 -153.556417 
L 393.71424 -157.736785 
L 393.722172 -161.917152 
L 393.693714 -166.097519 
L 393.603625 -170.277887 
L 393.445081 -174.458254 
L 393.228084 -178.638621 
L 392.971316 -182.818989 
L 392.691609 -186.999356 
L 392.395369 -191.179723 
L 392.074366 -195.36009 
L 391.705822 -199.540458 
L 391.255596 -203.720825 
L 390.683669 -207.901192 
L 389.952031 -212.08156 
L 389.034578 -216.261927 
L 387.926487 -220.442294 
L 386.648445 -224.622661 
L 385.241797 -228.803029 
L 383.754984 -232.983396 
L 382.226878 -237.163763 
L 380.674629 -241.344131 
L 379.09061 -245.524498 
L 377.448109 -249.704865 
L 375.712541 -253.885233 
L 373.855427 -258.0656 
L 371.86911 -262.245967 
L 369.77874 -266.426334 
L 367.645986 -270.606702 
L 365.560019 -274.787069 
L 363.616714 -278.967436 
L 361.893633 -283.147804 
L 360.431649 -287.328171 
L 359.232022 -291.508538 
L 358.271206 -295.688906 
L 357.526982 -299.869273 
L 357.002352 -304.04964 
L 356.732681 -308.230007 
L 356.769864 -312.410375 
L 357.151448 -316.590742 
L 357.873156 -320.771109 
L 358.881734 -324.951477 
L 360.09231 -329.131844 
L 361.420017 -333.312211 
L 362.809211 -337.492578 
L 364.247354 -341.672946 
L 365.759725 -345.853313 
L 367.389656 -350.03368 
L 369.17381 -354.214048 
L 371.122479 -358.394415 
L 373.211267 -362.574782 
L 375.384829 -366.75515 
L 377.568702 -370.935517 
L 379.684231 -375.115884 
L 381.663112 -379.296251 
L 383.459411 -383.476619 
L 385.056489 -387.656986 
L 386.465887 -391.837353 
L 387.717464 -396.017721 
L 388.844504 -400.198088 
L 389.870635 -404.378455 
L 390.804263 -408.558823 
L 391.641443 -412.73919 
L 392.373418 -416.919557 
L 392.993559 -421.099924 
L 393.500581 -425.280292 
L 393.898351 -429.460659 
L 394.194822 -433.641026 
L 394.402235 -437.821394 
L 394.538548 -442.001761 
L 394.628073 -446.182128 
L 394.699096 -450.362495 
L 394.778183 -454.542863 
L 394.88325 -458.72323 
L 395.018735 -462.903597 
L 395.175282 -467.083965 
L 395.334166 -471.264332 
L 395.47449 -475.444699 
L 395.580351 -479.625067 
L 395.645584 -483.805434 
L 395.674889 -487.985801 
L 395.681375 -492.166168 
L 395.681545 -496.346536 
L 395.689579 -500.526903 
L 396.239832 -500.526903 
L 396.239832 -500.526903 
L 396.247866 -496.346536 
L 396.248037 -492.166168 
L 396.254522 -487.985801 
L 396.283827 -483.805434 
L 396.34906 -479.625067 
L 396.454922 -475.444699 
L 396.595246 -471.264332 
L 396.754129 -467.083965 
L 396.910677 -462.903597 
L 397.046161 -458.72323 
L 397.151229 -454.542863 
L 397.230315 -450.362495 
L 397.301338 -446.182128 
L 397.390863 -442.001761 
L 397.527177 -437.821394 
L 397.734589 -433.641026 
L 398.031061 -429.460659 
L 398.42883 -425.280292 
L 398.935852 -421.099924 
L 399.555993 -416.919557 
L 400.287968 -412.73919 
L 401.125148 -408.558823 
L 402.058776 -404.378455 
L 403.084907 -400.198088 
L 404.211948 -396.017721 
L 405.463525 -391.837353 
L 406.872922 -387.656986 
L 408.47 -383.476619 
L 410.266299 -379.296251 
L 412.24518 -375.115884 
L 414.360709 -370.935517 
L 416.544582 -366.75515 
L 418.718144 -362.574782 
L 420.806933 -358.394415 
L 422.755601 -354.214048 
L 424.539755 -350.03368 
L 426.169686 -345.853313 
L 427.682058 -341.672946 
L 429.1202 -337.492578 
L 430.509395 -333.312211 
L 431.837102 -329.131844 
L 433.047677 -324.951477 
L 434.056255 -320.771109 
L 434.777963 -316.590742 
L 435.159547 -312.410375 
L 435.19673 -308.230007 
L 434.927059 -304.04964 
L 434.402429 -299.869273 
L 433.658205 -295.688906 
L 432.697389 -291.508538 
L 431.497763 -287.328171 
L 430.035778 -283.147804 
L 428.312697 -278.967436 
L 426.369392 -274.787069 
L 424.283425 -270.606702 
L 422.150671 -266.426334 
L 420.060301 -262.245967 
L 418.073984 -258.0656 
L 416.216871 -253.885233 
L 414.481303 -249.704865 
L 412.838802 -245.524498 
L 411.254783 -241.344131 
L 409.702533 -237.163763 
L 408.174428 -232.983396 
L 406.687614 -228.803029 
L 405.280966 -224.622661 
L 404.002924 -220.442294 
L 402.894833 -216.261927 
L 401.97738 -212.08156 
L 401.245742 -207.901192 
L 400.673815 -203.720825 
L 400.223589 -199.540458 
L 399.855046 -195.36009 
L 399.534042 -191.179723 
L 399.237803 -186.999356 
L 398.958095 -182.818989 
L 398.701328 -178.638621 
L 398.484331 -174.458254 
L 398.325787 -170.277887 
L 398.235698 -166.097519 
L 398.207239 -161.917152 
L 398.215171 -157.736785 
L 398.222331 -153.556417 
L 398.191975 -149.37605 
L 398.100724 -145.195683 
L 397.946373 -141.015316 
L 397.747071 -136.834948 
L 397.532454 -132.654581 
L 397.33117 -128.474214 
L 397.160698 -124.293846 
L 397.023761 -120.113479 
L 396.911871 -115.933112 
L 396.812859 -111.752744 
L 396.717731 -107.572377 
L 396.623487 -103.39201 
L 396.531633 -99.211643 
L 396.444746 -95.031275 
L 396.364008 -90.850908 
L 396.289055 -86.670541 
z
" id="mf20fe44cff" style="stroke:#141414;stroke-width:1.5;"/>
    </defs>
    <g clip-path="url(#p98f53807ec)">
     <use style="fill:#0e5f2f;stroke:#141414;stroke-width:1.5;" x="0" xlink:href="#mf20fe44cff" y="536.241028"/>
    </g>
   </g>
   <g id="PolyCollection_5">
    <defs>
     <path d="M 518.54294 -87.094927 
L 508.778616 -87.094927 
L 507.955242 -90.275261 
L 507.12509 -93.455595 
L 506.313924 -96.63593 
L 505.545059 -99.816264 
L 504.836546 -102.996598 
L 504.198896 -106.176933 
L 503.63366 -109.357267 
L 503.133052 -112.537601 
L 502.680593 -115.717935 
L 502.252579 -118.89827 
L 501.820092 -122.078604 
L 501.351216 -125.258938 
L 500.813223 -128.439273 
L 500.174588 -131.619607 
L 499.40684 -134.799941 
L 498.486323 -137.980276 
L 497.395942 -141.16061 
L 496.126899 -144.340944 
L 494.68029 -147.521278 
L 493.068302 -150.701613 
L 491.314666 -153.881947 
L 489.454089 -157.062281 
L 487.53048 -160.242616 
L 485.59405 -163.42295 
L 483.697604 -166.603284 
L 481.892525 -169.783619 
L 480.225075 -172.963953 
L 478.733525 -176.144287 
L 477.446485 -179.324621 
L 476.382496 -182.504956 
L 475.550707 -185.68529 
L 474.952222 -188.865624 
L 474.581696 -192.045959 
L 474.428754 -195.226293 
L 474.479019 -198.406627 
L 474.714737 -201.586962 
L 475.115135 -204.767296 
L 475.656785 -207.94763 
L 476.314206 -211.127964 
L 477.060842 -214.308299 
L 477.870405 -217.488633 
L 478.718416 -220.668967 
L 479.583655 -223.849302 
L 480.449261 -227.029636 
L 481.303264 -230.20997 
L 482.138492 -233.390305 
L 482.95195 -236.570639 
L 483.743894 -239.750973 
L 484.51686 -242.931307 
L 485.274857 -246.111642 
L 486.022853 -249.291976 
L 486.766493 -252.47231 
L 487.511908 -255.652645 
L 488.265427 -258.832979 
L 489.033036 -262.013313 
L 489.819555 -265.193648 
L 490.627632 -268.373982 
L 491.456815 -271.554316 
L 492.30295 -274.73465 
L 493.15819 -277.914985 
L 494.011704 -281.095319 
L 494.851043 -284.275653 
L 495.663936 -287.455988 
L 496.44015 -290.636322 
L 497.173038 -293.816656 
L 497.860455 -296.996991 
L 498.504863 -300.177325 
L 499.112644 -303.357659 
L 499.692796 -306.537993 
L 500.255322 -309.718328 
L 500.809668 -312.898662 
L 501.363487 -316.078996 
L 501.921962 -319.259331 
L 502.487705 -322.439665 
L 503.06117 -325.619999 
L 503.641374 -328.800334 
L 504.226698 -331.980668 
L 504.815532 -335.161002 
L 505.406622 -338.341336 
L 505.999043 -341.521671 
L 506.591861 -344.702005 
L 507.1836 -347.882339 
L 507.771702 -351.062674 
L 508.352143 -354.243008 
L 508.919341 -357.423342 
L 509.466413 -360.603677 
L 509.985747 -363.784011 
L 510.469803 -366.964345 
L 510.911983 -370.144679 
L 511.307427 -373.325014 
L 511.653578 -376.505348 
L 511.950446 -379.685682 
L 512.200521 -382.866017 
L 512.408374 -386.046351 
L 512.580031 -389.226685 
L 512.722221 -392.40702 
L 512.84163 -395.587354 
L 512.94427 -398.767688 
L 513.035022 -401.948022 
L 514.286534 -401.948022 
L 514.286534 -401.948022 
L 514.377286 -398.767688 
L 514.479926 -395.587354 
L 514.599336 -392.40702 
L 514.741525 -389.226685 
L 514.913182 -386.046351 
L 515.121036 -382.866017 
L 515.371111 -379.685682 
L 515.667979 -376.505348 
L 516.01413 -373.325014 
L 516.409573 -370.144679 
L 516.851753 -366.964345 
L 517.335809 -363.784011 
L 517.855143 -360.603677 
L 518.402215 -357.423342 
L 518.969413 -354.243008 
L 519.549854 -351.062674 
L 520.137956 -347.882339 
L 520.729696 -344.702005 
L 521.322514 -341.521671 
L 521.914935 -338.341336 
L 522.506024 -335.161002 
L 523.094859 -331.980668 
L 523.680182 -328.800334 
L 524.260386 -325.619999 
L 524.833851 -322.439665 
L 525.399594 -319.259331 
L 525.958069 -316.078996 
L 526.511889 -312.898662 
L 527.066234 -309.718328 
L 527.628761 -306.537993 
L 528.208912 -303.357659 
L 528.816693 -300.177325 
L 529.461101 -296.996991 
L 530.148518 -293.816656 
L 530.881407 -290.636322 
L 531.657621 -287.455988 
L 532.470514 -284.275653 
L 533.309853 -281.095319 
L 534.163366 -277.914985 
L 535.018606 -274.73465 
L 535.864742 -271.554316 
L 536.693924 -268.373982 
L 537.502002 -265.193648 
L 538.28852 -262.013313 
L 539.05613 -258.832979 
L 539.809649 -255.652645 
L 540.555063 -252.47231 
L 541.298703 -249.291976 
L 542.0467 -246.111642 
L 542.804697 -242.931307 
L 543.577662 -239.750973 
L 544.369607 -236.570639 
L 545.183065 -233.390305 
L 546.018292 -230.20997 
L 546.872295 -227.029636 
L 547.737902 -223.849302 
L 548.603141 -220.668967 
L 549.451151 -217.488633 
L 550.260715 -214.308299 
L 551.00735 -211.127964 
L 551.664771 -207.94763 
L 552.206422 -204.767296 
L 552.60682 -201.586962 
L 552.842537 -198.406627 
L 552.892802 -195.226293 
L 552.73986 -192.045959 
L 552.369334 -188.865624 
L 551.77085 -185.68529 
L 550.93906 -182.504956 
L 549.875072 -179.324621 
L 548.588031 -176.144287 
L 547.096481 -172.963953 
L 545.429031 -169.783619 
L 543.623953 -166.603284 
L 541.727506 -163.42295 
L 539.791076 -160.242616 
L 537.867467 -157.062281 
L 536.00689 -153.881947 
L 534.253255 -150.701613 
L 532.641266 -147.521278 
L 531.194658 -144.340944 
L 529.925615 -141.16061 
L 528.835233 -137.980276 
L 527.914716 -134.799941 
L 527.146969 -131.619607 
L 526.508333 -128.439273 
L 525.97034 -125.258938 
L 525.501465 -122.078604 
L 525.068978 -118.89827 
L 524.640964 -115.717935 
L 524.188504 -112.537601 
L 523.687897 -109.357267 
L 523.12266 -106.176933 
L 522.48501 -102.996598 
L 521.776497 -99.816264 
L 521.007632 -96.63593 
L 520.196467 -93.455595 
L 519.366314 -90.275261 
L 518.54294 -87.094927 
z
" id="mf7c8767286" style="stroke:#141414;stroke-width:1.5;"/>
    </defs>
    <g clip-path="url(#p98f53807ec)">
     <use style="fill:#083c1d;stroke:#141414;stroke-width:1.5;" x="0" xlink:href="#mf7c8767286" y="536.241028"/>
    </g>
   </g>
   <g id="PolyCollection_6">
    <defs>
     <path d="M 592.551954 -80.570738 
L 591.697699 -80.570738 
L 591.636947 -84.873921 
L 591.571742 -89.177105 
L 591.493111 -93.480288 
L 591.390695 -97.783472 
L 591.255878 -102.086655 
L 591.084774 -106.389839 
L 590.880023 -110.693022 
L 590.650808 -114.996206 
L 590.411195 -119.299389 
L 590.177359 -123.602573 
L 589.964468 -127.905757 
L 589.783804 -132.20894 
L 589.640481 -136.512124 
L 589.53206 -140.815307 
L 589.448337 -145.118491 
L 589.372609 -149.421674 
L 589.284384 -153.724858 
L 589.163041 -158.028041 
L 588.991407 -162.331225 
L 588.758217 -166.634408 
L 588.458833 -170.937592 
L 588.094425 -175.240776 
L 587.670419 -179.543959 
L 587.195148 -183.847143 
L 586.679044 -188.150326 
L 586.13398 -192.45351 
L 585.571869 -196.756693 
L 585.001973 -201.059877 
L 584.427323 -205.36306 
L 583.841598 -209.666244 
L 583.228121 -213.969427 
L 582.561869 -218.272611 
L 581.81406 -222.575795 
L 580.957851 -226.878978 
L 579.973395 -231.182162 
L 578.85114 -235.485345 
L 577.592991 -239.788529 
L 576.211392 -244.091712 
L 574.726498 -248.394896 
L 573.161721 -252.698079 
L 571.538583 -257.001263 
L 569.872565 -261.304446 
L 568.171888 -265.60763 
L 566.440407 -269.910814 
L 564.684174 -274.213997 
L 562.91961 -278.517181 
L 561.180438 -282.820364 
L 559.520749 -287.123548 
L 558.012697 -291.426731 
L 556.73859 -295.729915 
L 555.778454 -300.033098 
L 555.19527 -304.336282 
L 555.020954 -308.639465 
L 555.246661 -312.942649 
L 555.820581 -317.245833 
L 556.655038 -321.549016 
L 557.642306 -325.8522 
L 558.675891 -330.155383 
L 559.67186 -334.458567 
L 560.584247 -338.76175 
L 561.410034 -343.064934 
L 562.182488 -347.368117 
L 562.955561 -351.671301 
L 563.785007 -355.974484 
L 564.712569 -360.277668 
L 565.757754 -364.580852 
L 566.918239 -368.884035 
L 568.176446 -373.187219 
L 569.507877 -377.490402 
L 570.887062 -381.793586 
L 572.289116 -386.096769 
L 573.687725 -390.399953 
L 575.052427 -394.703136 
L 576.348356 -399.00632 
L 577.540062 -403.309503 
L 578.598639 -407.612687 
L 579.509431 -411.915871 
L 580.277119 -416.219054 
L 580.926108 -420.522238 
L 581.49603 -424.825421 
L 582.033874 -429.128605 
L 582.585007 -433.431788 
L 583.185168 -437.734972 
L 583.854873 -442.038155 
L 584.596938 -446.341339 
L 585.39724 -450.644522 
L 586.228359 -454.947706 
L 587.055289 -459.25089 
L 587.842017 -463.554073 
L 588.557647 -467.857257 
L 589.180941 -472.16044 
L 589.702587 -476.463624 
L 590.125062 -480.766807 
L 590.460405 -485.069991 
L 590.726562 -489.373174 
L 590.943157 -493.676358 
L 591.127626 -497.979541 
L 591.292526 -502.282725 
L 591.444513 -506.585909 
L 592.80514 -506.585909 
L 592.80514 -506.585909 
L 592.957127 -502.282725 
L 593.122028 -497.979541 
L 593.306497 -493.676358 
L 593.523091 -489.373174 
L 593.789248 -485.069991 
L 594.124591 -480.766807 
L 594.547066 -476.463624 
L 595.068712 -472.16044 
L 595.692006 -467.857257 
L 596.407636 -463.554073 
L 597.194364 -459.25089 
L 598.021294 -454.947706 
L 598.852413 -450.644522 
L 599.652715 -446.341339 
L 600.39478 -442.038155 
L 601.064485 -437.734972 
L 601.664646 -433.431788 
L 602.215779 -429.128605 
L 602.753623 -424.825421 
L 603.323545 -420.522238 
L 603.972534 -416.219054 
L 604.740222 -411.915871 
L 605.651014 -407.612687 
L 606.709591 -403.309503 
L 607.901297 -399.00632 
L 609.197226 -394.703136 
L 610.561929 -390.399953 
L 611.960537 -386.096769 
L 613.362591 -381.793586 
L 614.741776 -377.490402 
L 616.073207 -373.187219 
L 617.331414 -368.884035 
L 618.491899 -364.580852 
L 619.537084 -360.277668 
L 620.464646 -355.974484 
L 621.294092 -351.671301 
L 622.067165 -347.368117 
L 622.839619 -343.064934 
L 623.665406 -338.76175 
L 624.577793 -334.458567 
L 625.573762 -330.155383 
L 626.607347 -325.8522 
L 627.594615 -321.549016 
L 628.429072 -317.245833 
L 629.002992 -312.942649 
L 629.228699 -308.639465 
L 629.054383 -304.336282 
L 628.471199 -300.033098 
L 627.511063 -295.729915 
L 626.236956 -291.426731 
L 624.728904 -287.123548 
L 623.069215 -282.820364 
L 621.330043 -278.517181 
L 619.565479 -274.213997 
L 617.809246 -269.910814 
L 616.077765 -265.60763 
L 614.377088 -261.304446 
L 612.71107 -257.001263 
L 611.087932 -252.698079 
L 609.523155 -248.394896 
L 608.038261 -244.091712 
L 606.656663 -239.788529 
L 605.398513 -235.485345 
L 604.276258 -231.182162 
L 603.291802 -226.878978 
L 602.435593 -222.575795 
L 601.687784 -218.272611 
L 601.021532 -213.969427 
L 600.408055 -209.666244 
L 599.82233 -205.36306 
L 599.24768 -201.059877 
L 598.677784 -196.756693 
L 598.115673 -192.45351 
L 597.570609 -188.150326 
L 597.054505 -183.847143 
L 596.579234 -179.543959 
L 596.155229 -175.240776 
L 595.79082 -170.937592 
L 595.491436 -166.634408 
L 595.258246 -162.331225 
L 595.086612 -158.028041 
L 594.965269 -153.724858 
L 594.877044 -149.421674 
L 594.801316 -145.118491 
L 594.717593 -140.815307 
L 594.609172 -136.512124 
L 594.465849 -132.20894 
L 594.285185 -127.905757 
L 594.072294 -123.602573 
L 593.838458 -119.299389 
L 593.598845 -114.996206 
L 593.36963 -110.693022 
L 593.164879 -106.389839 
L 592.993775 -102.086655 
L 592.858958 -97.783472 
L 592.756542 -93.480288 
L 592.677911 -89.177105 
L 592.612706 -84.873921 
L 592.551954 -80.570738 
z
" id="md435f57c35" style="stroke:#141414;stroke-width:1.5;"/>
    </defs>
    <g clip-path="url(#p98f53807ec)">
     <use style="fill:#0e5f2f;stroke:#141414;stroke-width:1.5;" x="0" xlink:href="#md435f57c35" y="536.241028"/>
    </g>
   </g>
   <g id="patch_3">
    <path clip-path="url(#p98f53807ec)" d="M 160.57256 467.869897 
L 160.57256 467.869897 
L 160.57256 467.869897 
L 160.57256 467.869897 
z
" style="fill:#083c1d;stroke:#141414;stroke-linejoin:miter;stroke-width:0.75;"/>
   </g>
   <g id="patch_4">
    <path clip-path="url(#p98f53807ec)" d="M 160.57256 467.869897 
L 160.57256 467.869897 
L 160.57256 467.869897 
L 160.57256 467.869897 
z
" style="fill:#0e5f2f;stroke:#141414;stroke-linejoin:miter;stroke-width:0.75;"/>
   </g>
   <g id="line2d_1">
    <path clip-path="url(#p98f53807ec)" d="M 121.340536 465.974298 
L 121.340536 367.698818 
" style="fill:none;stroke:#141414;stroke-linecap:round;stroke-width:1.5;"/>
   </g>
   <g id="line2d_2">
    <path clip-path="url(#p98f53807ec)" d="M 121.340536 462.133296 
L 121.340536 422.660561 
" style="fill:none;stroke:#141414;stroke-linecap:round;stroke-width:4.5;"/>
   </g>
   <g id="line2d_3">
    <path clip-path="url(#p98f53807ec)" d="M 199.804585 466.913128 
L 199.804585 213.642054 
" style="fill:none;stroke:#141414;stroke-linecap:round;stroke-width:1.5;"/>
   </g>
   <g id="line2d_4">
    <path clip-path="url(#p98f53807ec)" d="M 199.804585 453.833055 
L 199.804585 356.94773 
" style="fill:none;stroke:#141414;stroke-linecap:round;stroke-width:4.5;"/>
   </g>
   <g id="line2d_5">
    <path clip-path="url(#p98f53807ec)" d="M 317.500657 459.845413 
L 317.500657 167.972097 
" style="fill:none;stroke:#141414;stroke-linecap:round;stroke-width:1.5;"/>
   </g>
   <g id="line2d_6">
    <path clip-path="url(#p98f53807ec)" d="M 317.500657 357.12434 
L 317.500657 278.515251 
" style="fill:none;stroke:#141414;stroke-linecap:round;stroke-width:4.5;"/>
   </g>
   <g id="line2d_7">
    <path clip-path="url(#p98f53807ec)" d="M 395.964706 359.939341 
L 395.964706 102.038923 
" style="fill:none;stroke:#141414;stroke-linecap:round;stroke-width:1.5;"/>
   </g>
   <g id="line2d_8">
    <path clip-path="url(#p98f53807ec)" d="M 395.964706 261.09069 
L 395.964706 194.727873 
" style="fill:none;stroke:#141414;stroke-linecap:round;stroke-width:4.5;"/>
   </g>
   <g id="line2d_9">
    <path clip-path="url(#p98f53807ec)" d="M 513.660778 449.146101 
L 513.660778 165.999085 
" style="fill:none;stroke:#141414;stroke-linecap:round;stroke-width:1.5;"/>
   </g>
   <g id="line2d_10">
    <path clip-path="url(#p98f53807ec)" d="M 513.660778 359.98166 
L 513.660778 277.184399 
" style="fill:none;stroke:#141414;stroke-linecap:round;stroke-width:4.5;"/>
   </g>
   <g id="line2d_11">
    <path clip-path="url(#p98f53807ec)" d="M 592.124827 386.149461 
L 592.124827 47.302751 
" style="fill:none;stroke:#141414;stroke-linecap:round;stroke-width:1.5;"/>
   </g>
   <g id="line2d_12">
    <path clip-path="url(#p98f53807ec)" d="M 592.124827 259.306224 
L 592.124827 173.687794 
" style="fill:none;stroke:#141414;stroke-linecap:round;stroke-width:4.5;"/>
   </g>
   <g id="patch_5">
    <path d="M 62.4925 488.776028 
L 62.4925 7.792219 
" style="fill:none;stroke:#262626;stroke-linecap:square;stroke-linejoin:miter;stroke-width:0.8;"/>
   </g>
   <g id="patch_6">
    <path d="M 62.4925 488.776028 
L 650.972863 488.776028 
" style="fill:none;stroke:#262626;stroke-linecap:square;stroke-linejoin:miter;stroke-width:0.8;"/>
   </g>
   <g id="PathCollection_1">
    <defs>
     <path d="M 0 1.5 
C 0.397805 1.5 0.77937 1.341951 1.06066 1.06066 
C 1.341951 0.77937 1.5 0.397805 1.5 0 
C 1.5 -0.397805 1.341951 -0.77937 1.06066 -1.06066 
C 0.77937 -1.341951 0.397805 -1.5 0 -1.5 
C -0.397805 -1.5 -0.77937 -1.341951 -1.06066 -1.06066 
C -1.341951 -0.77937 -1.5 -0.397805 -1.5 0 
C -1.5 0.397805 -1.341951 0.77937 -1.06066 1.06066 
C -0.77937 1.341951 -0.397805 1.5 0 1.5 
z
" id="m19f97d2e2e" style="stroke:#141414;"/>
    </defs>
    <g clip-path="url(#p98f53807ec)">
     <use style="fill:#ffffff;stroke:#141414;" x="121.340536" xlink:href="#m19f97d2e2e" y="453.790973"/>
    </g>
   </g>
   <g id="PathCollection_2">
    <g clip-path="url(#p98f53807ec)">
     <use style="fill:#ffffff;stroke:#141414;" x="199.804585" xlink:href="#m19f97d2e2e" y="432.221543"/>
    </g>
   </g>
   <g id="PathCollection_3">
    <g clip-path="url(#p98f53807ec)">
     <use style="fill:#ffffff;stroke:#141414;" x="317.500657" xlink:href="#m19f97d2e2e" y="321.975776"/>
    </g>
   </g>
   <g id="PathCollection_4">
    <g clip-path="url(#p98f53807ec)">
     <use style="fill:#ffffff;stroke:#141414;" x="395.964706" xlink:href="#m19f97d2e2e" y="227.612384"/>
    </g>
   </g>
   <g id="PathCollection_5">
    <g clip-path="url(#p98f53807ec)">
     <use style="fill:#ffffff;stroke:#141414;" x="513.660778" xlink:href="#m19f97d2e2e" y="324.528621"/>
    </g>
   </g>
   <g id="PathCollection_6">
    <g clip-path="url(#p98f53807ec)">
     <use style="fill:#ffffff;stroke:#141414;" x="592.124827" xlink:href="#m19f97d2e2e" y="220.369644"/>
    </g>
   </g>
  </g>
  <g id="legend_1">
   <g id="text_13">
    <!-- workday -->
    <defs>
     <path d="M 16.15625 0 
L 0.296875 51.859375 
L 9.375 51.859375 
L 17.625 21.921875 
L 20.703125 10.796875 
Q 20.90625 11.625 23.390625 21.484375 
L 31.640625 51.859375 
L 40.671875 51.859375 
L 48.4375 21.78125 
L 51.03125 11.859375 
L 54 21.875 
L 62.890625 51.859375 
L 71.4375 51.859375 
L 55.21875 0 
L 46.09375 0 
L 37.84375 31.0625 
L 35.84375 39.890625 
L 25.34375 0 
z
" id="ArialMT-119"/>
     <path d="M 6.640625 0 
L 6.640625 71.578125 
L 15.4375 71.578125 
L 15.4375 30.765625 
L 36.234375 51.859375 
L 47.609375 51.859375 
L 27.78125 32.625 
L 49.609375 0 
L 38.765625 0 
L 21.625 26.515625 
L 15.4375 20.5625 
L 15.4375 0 
z
" id="ArialMT-107"/>
     <path d="M 40.4375 6.390625 
Q 35.546875 2.25 31.03125 0.53125 
Q 26.515625 -1.171875 21.34375 -1.171875 
Q 12.796875 -1.171875 8.203125 3 
Q 3.609375 7.171875 3.609375 13.671875 
Q 3.609375 17.484375 5.34375 20.625 
Q 7.078125 23.78125 9.890625 25.6875 
Q 12.703125 27.59375 16.21875 28.5625 
Q 18.796875 29.25 24.03125 29.890625 
Q 34.671875 31.15625 39.703125 32.90625 
Q 39.75 34.71875 39.75 35.203125 
Q 39.75 40.578125 37.25 42.78125 
Q 33.890625 45.75 27.25 45.75 
Q 21.046875 45.75 18.09375 43.578125 
Q 15.140625 41.40625 13.71875 35.890625 
L 5.125 37.0625 
Q 6.296875 42.578125 8.984375 45.96875 
Q 11.671875 49.359375 16.75 51.1875 
Q 21.828125 53.03125 28.515625 53.03125 
Q 35.15625 53.03125 39.296875 51.46875 
Q 43.453125 49.90625 45.40625 47.53125 
Q 47.359375 45.171875 48.140625 41.546875 
Q 48.578125 39.3125 48.578125 33.453125 
L 48.578125 21.734375 
Q 48.578125 9.46875 49.140625 6.21875 
Q 49.703125 2.984375 51.375 0 
L 42.1875 0 
Q 40.828125 2.734375 40.4375 6.390625 
z
M 39.703125 26.03125 
Q 34.90625 24.078125 25.34375 22.703125 
Q 19.921875 21.921875 17.671875 20.9375 
Q 15.4375 19.96875 14.203125 18.09375 
Q 12.984375 16.21875 12.984375 13.921875 
Q 12.984375 10.40625 15.640625 8.0625 
Q 18.3125 5.71875 23.4375 5.71875 
Q 28.515625 5.71875 32.46875 7.9375 
Q 36.421875 10.15625 38.28125 14.015625 
Q 39.703125 17 39.703125 22.796875 
z
" id="ArialMT-97"/>
     <path d="M 6.203125 -19.96875 
L 5.21875 -11.71875 
Q 8.109375 -12.5 10.25 -12.5 
Q 13.1875 -12.5 14.9375 -11.515625 
Q 16.703125 -10.546875 17.828125 -8.796875 
Q 18.65625 -7.46875 20.515625 -2.25 
Q 20.75 -1.515625 21.296875 -0.09375 
L 1.609375 51.859375 
L 11.078125 51.859375 
L 21.875 21.828125 
Q 23.96875 16.109375 25.640625 9.8125 
Q 27.15625 15.875 29.25 21.625 
L 40.328125 51.859375 
L 49.125 51.859375 
L 29.390625 -0.875 
Q 26.21875 -9.421875 24.46875 -12.640625 
Q 22.125 -17 19.09375 -19.015625 
Q 16.0625 -21.046875 11.859375 -21.046875 
Q 9.328125 -21.046875 6.203125 -19.96875 
z
" id="ArialMT-121"/>
    </defs>
    <g style="fill:#262626;" transform="translate(729.5455 249.530514)scale(0.16 -0.16)">
     <use xlink:href="#ArialMT-119"/>
     <use x="72.216797" xlink:href="#ArialMT-111"/>
     <use x="127.832031" xlink:href="#ArialMT-114"/>
     <use x="161.132812" xlink:href="#ArialMT-107"/>
     <use x="211.132812" xlink:href="#ArialMT-100"/>
     <use x="266.748047" xlink:href="#ArialMT-97"/>
     <use x="322.363281" xlink:href="#ArialMT-121"/>
    </g>
   </g>
   <g id="patch_7">
    <path d="M 732.48425 272.350514 
L 764.48425 272.350514 
L 764.48425 261.150514 
L 732.48425 261.150514 
z
" style="fill:#083c1d;stroke:#141414;stroke-linejoin:miter;stroke-width:0.75;"/>
   </g>
   <g id="text_14">
    <!-- 0 -->
    <g style="fill:#262626;" transform="translate(777.28425 272.350514)scale(0.16 -0.16)">
     <use xlink:href="#ArialMT-48"/>
    </g>
   </g>
   <g id="patch_8">
    <path d="M 732.48425 294.983014 
L 764.48425 294.983014 
L 764.48425 283.783014 
L 732.48425 283.783014 
z
" style="fill:#0e5f2f;stroke:#141414;stroke-linejoin:miter;stroke-width:0.75;"/>
   </g>
   <g id="text_15">
    <!-- 1 -->
    <g style="fill:#262626;" transform="translate(777.28425 294.983014)scale(0.16 -0.16)">
     <use xlink:href="#ArialMT-49"/>
    </g>
   </g>
  </g>
 </g>
 <defs>
  <clipPath id="p98f53807ec">
   <rect height="480.983809" width="588.480363" x="62.4925" y="7.792219"/>
  </clipPath>
 </defs>
</svg>
