<?xml version="1.0" encoding="utf-8" standalone="no"?>
<!DOCTYPE svg PUBLIC "-//W3C//DTD SVG 1.1//EN"
  "http://www.w3.org/Graphics/SVG/1.1/DTD/svg11.dtd">
<!-- Created with matplotlib (https://matplotlib.org/) -->
<svg height="536.241028pt" version="1.1" viewBox="0 0 803.5205 536.241028" width="803.5205pt" xmlns="http://www.w3.org/2000/svg" xmlns:xlink="http://www.w3.org/1999/xlink">
 <defs>
  <style type="text/css">
*{stroke-linecap:butt;stroke-linejoin:round;white-space:pre;}
  </style>
 </defs>
 <g id="figure_1">
  <g id="patch_1">
   <path d="M 0 536.241028 
L 803.5205 536.241028 
L 803.5205 0 
L 0 0 
z
" style="fill:#ffffff;"/>
  </g>
  <g id="axes_1">
   <g id="patch_2">
    <path d="M 62.4925 488.776028 
L 617.962148 488.776028 
L 617.962148 7.792219 
L 62.4925 7.792219 
z
" style="fill:#ffffff;"/>
   </g>
   <g id="matplotlib.axis_1">
    <g id="xtick_1">
     <g id="text_1">
      <!-- 0529-2 -->
      <defs>
       <path d="M 4.15625 35.296875 
Q 4.15625 48 6.765625 55.734375 
Q 9.375 63.484375 14.515625 67.671875 
Q 19.671875 71.875 27.484375 71.875 
Q 33.25 71.875 37.59375 69.546875 
Q 41.9375 67.234375 44.765625 62.859375 
Q 47.609375 58.5 49.21875 52.21875 
Q 50.828125 45.953125 50.828125 35.296875 
Q 50.828125 22.703125 48.234375 14.96875 
Q 45.65625 7.234375 40.5 3 
Q 35.359375 -1.21875 27.484375 -1.21875 
Q 17.140625 -1.21875 11.234375 6.203125 
Q 4.15625 15.140625 4.15625 35.296875 
z
M 13.1875 35.296875 
Q 13.1875 17.671875 17.3125 11.828125 
Q 21.4375 6 27.484375 6 
Q 33.546875 6 37.671875 11.859375 
Q 41.796875 17.71875 41.796875 35.296875 
Q 41.796875 52.984375 37.671875 58.78125 
Q 33.546875 64.59375 27.390625 64.59375 
Q 21.34375 64.59375 17.71875 59.46875 
Q 13.1875 52.9375 13.1875 35.296875 
z
" id="ArialMT-48"/>
       <path d="M 4.15625 18.75 
L 13.375 19.53125 
Q 14.40625 12.796875 18.140625 9.390625 
Q 21.875 6 27.15625 6 
Q 33.5 6 37.890625 10.78125 
Q 42.28125 15.578125 42.28125 23.484375 
Q 42.28125 31 38.0625 35.34375 
Q 33.84375 39.703125 27 39.703125 
Q 22.75 39.703125 19.328125 37.765625 
Q 15.921875 35.84375 13.96875 32.765625 
L 5.71875 33.84375 
L 12.640625 70.609375 
L 48.25 70.609375 
L 48.25 62.203125 
L 19.671875 62.203125 
L 15.828125 42.96875 
Q 22.265625 47.46875 29.34375 47.46875 
Q 38.71875 47.46875 45.15625 40.96875 
Q 51.609375 34.46875 51.609375 24.265625 
Q 51.609375 14.546875 45.953125 7.46875 
Q 39.0625 -1.21875 27.15625 -1.21875 
Q 17.390625 -1.21875 11.203125 4.25 
Q 5.03125 9.71875 4.15625 18.75 
z
" id="ArialMT-53"/>
       <path d="M 50.34375 8.453125 
L 50.34375 0 
L 3.03125 0 
Q 2.9375 3.171875 4.046875 6.109375 
Q 5.859375 10.9375 9.828125 15.625 
Q 13.8125 20.3125 21.34375 26.46875 
Q 33.015625 36.03125 37.109375 41.625 
Q 41.21875 47.21875 41.21875 52.203125 
Q 41.21875 57.421875 37.46875 61 
Q 33.734375 64.59375 27.734375 64.59375 
Q 21.390625 64.59375 17.578125 60.78125 
Q 13.765625 56.984375 13.71875 50.25 
L 4.6875 51.171875 
Q 5.609375 61.28125 11.65625 66.578125 
Q 17.71875 71.875 27.9375 71.875 
Q 38.234375 71.875 44.234375 66.15625 
Q 50.25 60.453125 50.25 52 
Q 50.25 47.703125 48.484375 43.546875 
Q 46.734375 39.40625 42.65625 34.8125 
Q 38.578125 30.21875 29.109375 22.21875 
Q 21.1875 15.578125 18.9375 13.203125 
Q 16.703125 10.84375 15.234375 8.453125 
z
" id="ArialMT-50"/>
       <path d="M 5.46875 16.546875 
L 13.921875 17.328125 
Q 14.984375 11.375 18.015625 8.6875 
Q 21.046875 6 25.78125 6 
Q 29.828125 6 32.875 7.859375 
Q 35.9375 9.71875 37.890625 12.8125 
Q 39.84375 15.921875 41.15625 21.1875 
Q 42.484375 26.46875 42.484375 31.9375 
Q 42.484375 32.515625 42.4375 33.6875 
Q 39.796875 29.5 35.234375 26.875 
Q 30.671875 24.265625 25.34375 24.265625 
Q 16.453125 24.265625 10.296875 30.703125 
Q 4.15625 37.15625 4.15625 47.703125 
Q 4.15625 58.59375 10.578125 65.234375 
Q 17 71.875 26.65625 71.875 
Q 33.640625 71.875 39.421875 68.109375 
Q 45.21875 64.359375 48.21875 57.390625 
Q 51.21875 50.4375 51.21875 37.25 
Q 51.21875 23.53125 48.234375 15.40625 
Q 45.265625 7.28125 39.375 3.03125 
Q 33.5 -1.21875 25.59375 -1.21875 
Q 17.1875 -1.21875 11.859375 3.4375 
Q 6.546875 8.109375 5.46875 16.546875 
z
M 41.453125 48.140625 
Q 41.453125 55.71875 37.421875 60.15625 
Q 33.40625 64.59375 27.734375 64.59375 
Q 21.875 64.59375 17.53125 59.8125 
Q 13.1875 55.03125 13.1875 47.40625 
Q 13.1875 40.578125 17.3125 36.296875 
Q 21.4375 32.03125 27.484375 32.03125 
Q 33.59375 32.03125 37.515625 36.296875 
Q 41.453125 40.578125 41.453125 48.140625 
z
" id="ArialMT-57"/>
       <path d="M 3.171875 21.484375 
L 3.171875 30.328125 
L 30.171875 30.328125 
L 30.171875 21.484375 
z
" id="ArialMT-45"/>
      </defs>
      <g style="fill:#262626;" transform="translate(130.163275 507.228528)scale(0.16 -0.16)">
       <use xlink:href="#ArialMT-48"/>
       <use x="55.615234" xlink:href="#ArialMT-53"/>
       <use x="111.230469" xlink:href="#ArialMT-50"/>
       <use x="166.845703" xlink:href="#ArialMT-57"/>
       <use x="222.460938" xlink:href="#ArialMT-45"/>
       <use x="255.761719" xlink:href="#ArialMT-50"/>
      </g>
     </g>
    </g>
    <g id="xtick_2">
     <g id="text_2">
      <!-- 1092-1 -->
      <defs>
       <path d="M 37.25 0 
L 28.46875 0 
L 28.46875 56 
Q 25.296875 52.984375 20.140625 49.953125 
Q 14.984375 46.921875 10.890625 45.40625 
L 10.890625 53.90625 
Q 18.265625 57.375 23.78125 62.296875 
Q 29.296875 67.234375 31.59375 71.875 
L 37.25 71.875 
z
" id="ArialMT-49"/>
      </defs>
      <g style="fill:#262626;" transform="translate(315.319824 507.228528)scale(0.16 -0.16)">
       <use xlink:href="#ArialMT-49"/>
       <use x="55.615234" xlink:href="#ArialMT-48"/>
       <use x="111.230469" xlink:href="#ArialMT-57"/>
       <use x="166.845703" xlink:href="#ArialMT-50"/>
       <use x="222.460938" xlink:href="#ArialMT-45"/>
       <use x="255.761719" xlink:href="#ArialMT-49"/>
      </g>
     </g>
    </g>
    <g id="xtick_3">
     <g id="text_3">
      <!-- 1092-2 -->
      <g style="fill:#262626;" transform="translate(500.476373 507.228528)scale(0.16 -0.16)">
       <use xlink:href="#ArialMT-49"/>
       <use x="55.615234" xlink:href="#ArialMT-48"/>
       <use x="111.230469" xlink:href="#ArialMT-57"/>
       <use x="166.845703" xlink:href="#ArialMT-50"/>
       <use x="222.460938" xlink:href="#ArialMT-45"/>
       <use x="255.761719" xlink:href="#ArialMT-50"/>
      </g>
     </g>
    </g>
    <g id="text_4">
     <!-- Counter id -->
     <defs>
      <path d="M 58.796875 25.09375 
L 68.265625 22.703125 
Q 65.28125 11.03125 57.546875 4.90625 
Q 49.8125 -1.21875 38.625 -1.21875 
Q 27.046875 -1.21875 19.796875 3.484375 
Q 12.546875 8.203125 8.765625 17.140625 
Q 4.984375 26.078125 4.984375 36.328125 
Q 4.984375 47.515625 9.25 55.828125 
Q 13.53125 64.15625 21.40625 68.46875 
Q 29.296875 72.796875 38.765625 72.796875 
Q 49.515625 72.796875 56.828125 67.328125 
Q 64.15625 61.859375 67.046875 51.953125 
L 57.71875 49.75 
Q 55.21875 57.5625 50.484375 61.125 
Q 45.75 64.703125 38.578125 64.703125 
Q 30.328125 64.703125 24.78125 60.734375 
Q 19.234375 56.78125 16.984375 50.109375 
Q 14.75 43.453125 14.75 36.375 
Q 14.75 27.25 17.40625 20.4375 
Q 20.0625 13.625 25.671875 10.25 
Q 31.296875 6.890625 37.84375 6.890625 
Q 45.796875 6.890625 51.3125 11.46875 
Q 56.84375 16.0625 58.796875 25.09375 
z
" id="ArialMT-67"/>
      <path d="M 3.328125 25.921875 
Q 3.328125 40.328125 11.328125 47.265625 
Q 18.015625 53.03125 27.640625 53.03125 
Q 38.328125 53.03125 45.109375 46.015625 
Q 51.90625 39.015625 51.90625 26.65625 
Q 51.90625 16.65625 48.90625 10.90625 
Q 45.90625 5.171875 40.15625 2 
Q 34.421875 -1.171875 27.640625 -1.171875 
Q 16.75 -1.171875 10.03125 5.8125 
Q 3.328125 12.796875 3.328125 25.921875 
z
M 12.359375 25.921875 
Q 12.359375 15.96875 16.703125 11.015625 
Q 21.046875 6.0625 27.640625 6.0625 
Q 34.1875 6.0625 38.53125 11.03125 
Q 42.875 16.015625 42.875 26.21875 
Q 42.875 35.84375 38.5 40.796875 
Q 34.125 45.75 27.640625 45.75 
Q 21.046875 45.75 16.703125 40.8125 
Q 12.359375 35.890625 12.359375 25.921875 
z
" id="ArialMT-111"/>
      <path d="M 40.578125 0 
L 40.578125 7.625 
Q 34.515625 -1.171875 24.125 -1.171875 
Q 19.53125 -1.171875 15.546875 0.578125 
Q 11.578125 2.34375 9.640625 5 
Q 7.71875 7.671875 6.9375 11.53125 
Q 6.390625 14.109375 6.390625 19.734375 
L 6.390625 51.859375 
L 15.1875 51.859375 
L 15.1875 23.09375 
Q 15.1875 16.21875 15.71875 13.8125 
Q 16.546875 10.359375 19.234375 8.375 
Q 21.921875 6.390625 25.875 6.390625 
Q 29.828125 6.390625 33.296875 8.421875 
Q 36.765625 10.453125 38.203125 13.9375 
Q 39.65625 17.4375 39.65625 24.078125 
L 39.65625 51.859375 
L 48.4375 51.859375 
L 48.4375 0 
z
" id="ArialMT-117"/>
      <path d="M 6.59375 0 
L 6.59375 51.859375 
L 14.5 51.859375 
L 14.5 44.484375 
Q 20.21875 53.03125 31 53.03125 
Q 35.6875 53.03125 39.625 51.34375 
Q 43.5625 49.65625 45.515625 46.921875 
Q 47.46875 44.1875 48.25 40.4375 
Q 48.734375 37.984375 48.734375 31.890625 
L 48.734375 0 
L 39.9375 0 
L 39.9375 31.546875 
Q 39.9375 36.921875 38.90625 39.578125 
Q 37.890625 42.234375 35.28125 43.8125 
Q 32.671875 45.40625 29.15625 45.40625 
Q 23.53125 45.40625 19.453125 41.84375 
Q 15.375 38.28125 15.375 28.328125 
L 15.375 0 
z
" id="ArialMT-110"/>
      <path d="M 25.78125 7.859375 
L 27.046875 0.09375 
Q 23.34375 -0.6875 20.40625 -0.6875 
Q 15.625 -0.6875 12.984375 0.828125 
Q 10.359375 2.34375 9.28125 4.8125 
Q 8.203125 7.28125 8.203125 15.1875 
L 8.203125 45.015625 
L 1.765625 45.015625 
L 1.765625 51.859375 
L 8.203125 51.859375 
L 8.203125 64.703125 
L 16.9375 69.96875 
L 16.9375 51.859375 
L 25.78125 51.859375 
L 25.78125 45.015625 
L 16.9375 45.015625 
L 16.9375 14.703125 
Q 16.9375 10.9375 17.40625 9.859375 
Q 17.875 8.796875 18.921875 8.15625 
Q 19.96875 7.515625 21.921875 7.515625 
Q 23.390625 7.515625 25.78125 7.859375 
z
" id="ArialMT-116"/>
      <path d="M 42.09375 16.703125 
L 51.171875 15.578125 
Q 49.03125 7.625 43.21875 3.21875 
Q 37.40625 -1.171875 28.375 -1.171875 
Q 17 -1.171875 10.328125 5.828125 
Q 3.65625 12.84375 3.65625 25.484375 
Q 3.65625 38.578125 10.390625 45.796875 
Q 17.140625 53.03125 27.875 53.03125 
Q 38.28125 53.03125 44.875 45.953125 
Q 51.46875 38.875 51.46875 26.03125 
Q 51.46875 25.25 51.421875 23.6875 
L 12.75 23.6875 
Q 13.234375 15.140625 17.578125 10.59375 
Q 21.921875 6.0625 28.421875 6.0625 
Q 33.25 6.0625 36.671875 8.59375 
Q 40.09375 11.140625 42.09375 16.703125 
z
M 13.234375 30.90625 
L 42.1875 30.90625 
Q 41.609375 37.453125 38.875 40.71875 
Q 34.671875 45.796875 27.984375 45.796875 
Q 21.921875 45.796875 17.796875 41.75 
Q 13.671875 37.703125 13.234375 30.90625 
z
" id="ArialMT-101"/>
      <path d="M 6.5 0 
L 6.5 51.859375 
L 14.40625 51.859375 
L 14.40625 44 
Q 17.4375 49.515625 20 51.265625 
Q 22.5625 53.03125 25.640625 53.03125 
Q 30.078125 53.03125 34.671875 50.203125 
L 31.640625 42.046875 
Q 28.421875 43.953125 25.203125 43.953125 
Q 22.3125 43.953125 20.015625 42.21875 
Q 17.71875 40.484375 16.75 37.40625 
Q 15.28125 32.71875 15.28125 27.15625 
L 15.28125 0 
z
" id="ArialMT-114"/>
      <path id="ArialMT-32"/>
      <path d="M 6.640625 61.46875 
L 6.640625 71.578125 
L 15.4375 71.578125 
L 15.4375 61.46875 
z
M 6.640625 0 
L 6.640625 51.859375 
L 15.4375 51.859375 
L 15.4375 0 
z
" id="ArialMT-105"/>
      <path d="M 40.234375 0 
L 40.234375 6.546875 
Q 35.296875 -1.171875 25.734375 -1.171875 
Q 19.53125 -1.171875 14.328125 2.25 
Q 9.125 5.671875 6.265625 11.796875 
Q 3.421875 17.921875 3.421875 25.875 
Q 3.421875 33.640625 6 39.96875 
Q 8.59375 46.296875 13.765625 49.65625 
Q 18.953125 53.03125 25.34375 53.03125 
Q 30.03125 53.03125 33.6875 51.046875 
Q 37.359375 49.078125 39.65625 45.90625 
L 39.65625 71.578125 
L 48.390625 71.578125 
L 48.390625 0 
z
M 12.453125 25.875 
Q 12.453125 15.921875 16.640625 10.984375 
Q 20.84375 6.0625 26.5625 6.0625 
Q 32.328125 6.0625 36.34375 10.765625 
Q 40.375 15.484375 40.375 25.140625 
Q 40.375 35.796875 36.265625 40.765625 
Q 32.171875 45.75 26.171875 45.75 
Q 20.3125 45.75 16.375 40.96875 
Q 12.453125 36.1875 12.453125 25.875 
z
" id="ArialMT-100"/>
     </defs>
     <g style="fill:#262626;" transform="translate(303.319824 525.861028)scale(0.16 -0.16)">
      <use xlink:href="#ArialMT-67"/>
      <use x="72.216797" xlink:href="#ArialMT-111"/>
      <use x="127.832031" xlink:href="#ArialMT-117"/>
      <use x="183.447266" xlink:href="#ArialMT-110"/>
      <use x="239.0625" xlink:href="#ArialMT-116"/>
      <use x="266.845703" xlink:href="#ArialMT-101"/>
      <use x="322.460938" xlink:href="#ArialMT-114"/>
      <use x="355.761719" xlink:href="#ArialMT-32"/>
      <use x="383.544922" xlink:href="#ArialMT-105"/>
      <use x="405.761719" xlink:href="#ArialMT-100"/>
     </g>
    </g>
   </g>
   <g id="matplotlib.axis_2">
    <g id="ytick_1">
     <g id="text_5">
      <!-- 0 -->
      <g style="fill:#262626;" transform="translate(46.595 473.596147)scale(0.16 -0.16)">
       <use xlink:href="#ArialMT-48"/>
      </g>
     </g>
    </g>
    <g id="ytick_2">
     <g id="text_6">
      <!-- 50 -->
      <g style="fill:#262626;" transform="translate(37.6975 397.772205)scale(0.16 -0.16)">
       <use xlink:href="#ArialMT-53"/>
       <use x="55.615234" xlink:href="#ArialMT-48"/>
      </g>
     </g>
    </g>
    <g id="ytick_3">
     <g id="text_7">
      <!-- 100 -->
      <g style="fill:#262626;" transform="translate(28.8 321.948264)scale(0.16 -0.16)">
       <use xlink:href="#ArialMT-49"/>
       <use x="55.615234" xlink:href="#ArialMT-48"/>
       <use x="111.230469" xlink:href="#ArialMT-48"/>
      </g>
     </g>
    </g>
    <g id="ytick_4">
     <g id="text_8">
      <!-- 150 -->
      <g style="fill:#262626;" transform="translate(28.8 246.124323)scale(0.16 -0.16)">
       <use xlink:href="#ArialMT-49"/>
       <use x="55.615234" xlink:href="#ArialMT-53"/>
       <use x="111.230469" xlink:href="#ArialMT-48"/>
      </g>
     </g>
    </g>
    <g id="ytick_5">
     <g id="text_9">
      <!-- 200 -->
      <g style="fill:#262626;" transform="translate(28.8 170.300382)scale(0.16 -0.16)">
       <use xlink:href="#ArialMT-50"/>
       <use x="55.615234" xlink:href="#ArialMT-48"/>
       <use x="111.230469" xlink:href="#ArialMT-48"/>
      </g>
     </g>
    </g>
    <g id="ytick_6">
     <g id="text_10">
      <!-- 250 -->
      <g style="fill:#262626;" transform="translate(28.8 94.476441)scale(0.16 -0.16)">
       <use xlink:href="#ArialMT-50"/>
       <use x="55.615234" xlink:href="#ArialMT-53"/>
       <use x="111.230469" xlink:href="#ArialMT-48"/>
      </g>
     </g>
    </g>
    <g id="ytick_7">
     <g id="text_11">
      <!-- 300 -->
      <defs>
       <path d="M 4.203125 18.890625 
L 12.984375 20.0625 
Q 14.5 12.59375 18.140625 9.296875 
Q 21.78125 6 27 6 
Q 33.203125 6 37.46875 10.296875 
Q 41.75 14.59375 41.75 20.953125 
Q 41.75 27 37.796875 30.921875 
Q 33.84375 34.859375 27.734375 34.859375 
Q 25.25 34.859375 21.53125 33.890625 
L 22.515625 41.609375 
Q 23.390625 41.5 23.921875 41.5 
Q 29.546875 41.5 34.03125 44.421875 
Q 38.53125 47.359375 38.53125 53.46875 
Q 38.53125 58.296875 35.25 61.46875 
Q 31.984375 64.65625 26.8125 64.65625 
Q 21.6875 64.65625 18.265625 61.421875 
Q 14.84375 58.203125 13.875 51.765625 
L 5.078125 53.328125 
Q 6.6875 62.15625 12.390625 67.015625 
Q 18.109375 71.875 26.609375 71.875 
Q 32.46875 71.875 37.390625 69.359375 
Q 42.328125 66.84375 44.9375 62.5 
Q 47.5625 58.15625 47.5625 53.265625 
Q 47.5625 48.640625 45.0625 44.828125 
Q 42.578125 41.015625 37.703125 38.765625 
Q 44.046875 37.3125 47.5625 32.6875 
Q 51.078125 28.078125 51.078125 21.140625 
Q 51.078125 11.765625 44.234375 5.25 
Q 37.40625 -1.265625 26.953125 -1.265625 
Q 17.53125 -1.265625 11.296875 4.34375 
Q 5.078125 9.96875 4.203125 18.890625 
z
" id="ArialMT-51"/>
      </defs>
      <g style="fill:#262626;" transform="translate(28.8 18.6525)scale(0.16 -0.16)">
       <use xlink:href="#ArialMT-51"/>
       <use x="55.615234" xlink:href="#ArialMT-48"/>
       <use x="111.230469" xlink:href="#ArialMT-48"/>
      </g>
     </g>
    </g>
    <g id="text_12">
     <!-- Count [$h^{-1}$] -->
     <defs>
      <path d="M 6.78125 -19.875 
L 6.78125 71.578125 
L 26.171875 71.578125 
L 26.171875 64.3125 
L 15.578125 64.3125 
L 15.578125 -12.59375 
L 26.171875 -12.59375 
L 26.171875 -19.875 
z
" id="ArialMT-91"/>
      <path d="M 55.71875 33.015625 
L 49.3125 0 
L 40.28125 0 
L 46.6875 32.671875 
Q 47.125 34.96875 47.359375 36.71875 
Q 47.609375 38.484375 47.609375 39.5 
Q 47.609375 43.609375 45.015625 45.890625 
Q 42.4375 48.1875 37.796875 48.1875 
Q 30.5625 48.1875 25.265625 43.296875 
Q 19.96875 38.421875 18.40625 30.328125 
L 12.5 0 
L 3.515625 0 
L 18.3125 75.984375 
L 27.296875 75.984375 
L 21.484375 46.09375 
Q 24.90625 50.6875 30.21875 53.34375 
Q 35.546875 56 41.40625 56 
Q 48.640625 56 52.609375 52.09375 
Q 56.59375 48.1875 56.59375 41.109375 
Q 56.59375 39.359375 56.375 37.359375 
Q 56.15625 35.359375 55.71875 33.015625 
z
" id="DejaVuSans-Oblique-104"/>
      <path d="M 10.59375 35.5 
L 73.1875 35.5 
L 73.1875 27.203125 
L 10.59375 27.203125 
z
" id="DejaVuSans-8722"/>
      <path d="M 12.40625 8.296875 
L 28.515625 8.296875 
L 28.515625 63.921875 
L 10.984375 60.40625 
L 10.984375 69.390625 
L 28.421875 72.90625 
L 38.28125 72.90625 
L 38.28125 8.296875 
L 54.390625 8.296875 
L 54.390625 0 
L 12.40625 0 
z
" id="DejaVuSans-49"/>
      <path d="M 21.296875 -19.875 
L 1.90625 -19.875 
L 1.90625 -12.59375 
L 12.5 -12.59375 
L 12.5 64.3125 
L 1.90625 64.3125 
L 1.90625 71.578125 
L 21.296875 71.578125 
z
" id="ArialMT-93"/>
     </defs>
     <g style="fill:#262626;" transform="translate(21.6 290.444124)rotate(-90)scale(0.16 -0.16)">
      <use transform="translate(0 0.684375)" xlink:href="#ArialMT-67"/>
      <use transform="translate(72.216797 0.684375)" xlink:href="#ArialMT-111"/>
      <use transform="translate(127.832031 0.684375)" xlink:href="#ArialMT-117"/>
      <use transform="translate(183.447266 0.684375)" xlink:href="#ArialMT-110"/>
      <use transform="translate(239.0625 0.684375)" xlink:href="#ArialMT-116"/>
      <use transform="translate(266.845703 0.684375)" xlink:href="#ArialMT-32"/>
      <use transform="translate(294.628906 0.684375)" xlink:href="#ArialMT-91"/>
      <use transform="translate(322.412109 0.684375)" xlink:href="#DejaVuSans-Oblique-104"/>
      <use transform="translate(393.238724 38.965625)scale(0.7)" xlink:href="#DejaVuSans-8722"/>
      <use transform="translate(451.891068 38.965625)scale(0.7)" xlink:href="#DejaVuSans-49"/>
      <use transform="translate(499.161576 0.684375)" xlink:href="#ArialMT-93"/>
     </g>
    </g>
   </g>
   <g id="PolyCollection_1">
    <defs>
     <path d="M 151.158209 -69.3279 
L 84.920721 -69.3279 
L 83.21329 -71.886194 
L 81.974392 -74.444488 
L 81.236987 -77.002781 
L 81.008155 -79.561075 
L 81.269755 -82.119369 
L 81.981225 -84.677662 
L 83.084073 -87.235956 
L 84.507429 -89.79425 
L 86.173958 -92.352543 
L 88.005475 -94.910837 
L 89.927739 -97.469131 
L 91.874094 -100.027424 
L 93.787835 -102.585718 
L 95.62334 -105.144012 
L 97.346192 -107.702306 
L 98.932543 -110.260599 
L 100.368021 -112.818893 
L 101.64643 -115.377187 
L 102.768428 -117.93548 
L 103.740288 -120.493774 
L 104.572768 -123.052068 
L 105.280085 -125.610361 
L 105.878939 -128.168655 
L 106.387548 -130.726949 
L 106.824666 -133.285242 
L 107.208603 -135.843536 
L 107.556276 -138.40183 
L 107.882359 -140.960123 
L 108.198601 -143.518417 
L 108.513383 -146.076711 
L 108.831552 -148.635004 
L 109.154555 -151.193298 
L 109.480842 -153.751592 
L 109.806488 -156.309885 
L 110.125969 -158.868179 
L 110.432975 -161.426473 
L 110.721203 -163.984766 
L 110.985021 -166.54306 
L 111.219977 -169.101354 
L 111.423104 -171.659647 
L 111.593029 -174.217941 
L 111.729914 -176.776235 
L 111.835259 -179.334528 
L 111.911632 -181.892822 
L 111.962365 -184.451116 
L 111.991272 -187.009409 
L 112.002413 -189.567703 
L 111.999918 -192.125997 
L 111.987884 -194.68429 
L 111.970321 -197.242584 
L 111.951125 -199.800878 
L 111.934068 -202.359171 
L 111.922764 -204.917465 
L 111.920614 -207.475759 
L 111.930714 -210.034052 
L 111.955737 -212.592346 
L 111.997794 -215.15064 
L 112.058315 -217.708933 
L 112.137938 -220.267227 
L 112.236459 -222.825521 
L 112.352833 -225.383814 
L 112.48524 -227.942108 
L 112.631215 -230.500402 
L 112.787824 -233.058696 
L 112.951872 -235.616989 
L 113.120114 -238.175283 
L 113.289459 -240.733577 
L 113.457141 -243.29187 
L 113.620835 -245.850164 
L 113.778732 -248.408458 
L 113.929555 -250.966751 
L 114.072531 -253.525045 
L 114.207337 -256.083339 
L 114.334015 -258.641632 
L 114.452903 -261.199926 
L 114.564557 -263.75822 
L 114.669705 -266.316513 
L 114.769212 -268.874807 
L 114.864065 -271.433101 
L 114.955373 -273.991394 
L 115.044366 -276.549688 
L 115.132384 -279.107982 
L 115.220851 -281.666275 
L 115.311227 -284.224569 
L 115.404935 -286.782863 
L 115.503273 -289.341156 
L 115.607316 -291.89945 
L 115.717822 -294.457744 
L 115.835153 -297.016037 
L 115.959229 -299.574331 
L 116.089508 -302.132625 
L 116.22501 -304.690918 
L 116.364379 -307.249212 
L 116.505962 -309.807506 
L 116.647919 -312.365799 
L 116.788334 -314.924093 
L 116.92532 -317.482387 
L 117.05712 -320.04068 
L 117.182182 -322.598974 
L 118.896748 -322.598974 
L 118.896748 -322.598974 
L 119.02181 -320.04068 
L 119.15361 -317.482387 
L 119.290596 -314.924093 
L 119.43101 -312.365799 
L 119.572968 -309.807506 
L 119.714551 -307.249212 
L 119.853919 -304.690918 
L 119.989422 -302.132625 
L 120.1197 -299.574331 
L 120.243776 -297.016037 
L 120.361108 -294.457744 
L 120.471614 -291.89945 
L 120.575657 -289.341156 
L 120.673995 -286.782863 
L 120.767703 -284.224569 
L 120.858078 -281.666275 
L 120.946546 -279.107982 
L 121.034564 -276.549688 
L 121.123557 -273.991394 
L 121.214865 -271.433101 
L 121.309718 -268.874807 
L 121.409224 -266.316513 
L 121.514372 -263.75822 
L 121.626027 -261.199926 
L 121.744915 -258.641632 
L 121.871593 -256.083339 
L 122.006398 -253.525045 
L 122.149375 -250.966751 
L 122.300198 -248.408458 
L 122.458095 -245.850164 
L 122.621789 -243.29187 
L 122.78947 -240.733577 
L 122.958816 -238.175283 
L 123.127058 -235.616989 
L 123.291105 -233.058696 
L 123.447715 -230.500402 
L 123.59369 -227.942108 
L 123.726097 -225.383814 
L 123.84247 -222.825521 
L 123.940991 -220.267227 
L 124.020614 -217.708933 
L 124.081135 -215.15064 
L 124.123193 -212.592346 
L 124.148215 -210.034052 
L 124.158316 -207.475759 
L 124.156166 -204.917465 
L 124.144862 -202.359171 
L 124.127805 -199.800878 
L 124.108609 -197.242584 
L 124.091045 -194.68429 
L 124.079012 -192.125997 
L 124.076517 -189.567703 
L 124.087657 -187.009409 
L 124.116565 -184.451116 
L 124.167298 -181.892822 
L 124.243671 -179.334528 
L 124.349016 -176.776235 
L 124.485901 -174.217941 
L 124.655826 -171.659647 
L 124.858953 -169.101354 
L 125.093909 -166.54306 
L 125.357727 -163.984766 
L 125.645954 -161.426473 
L 125.952961 -158.868179 
L 126.272442 -156.309885 
L 126.598088 -153.751592 
L 126.924374 -151.193298 
L 127.247378 -148.635004 
L 127.565547 -146.076711 
L 127.880329 -143.518417 
L 128.19657 -140.960123 
L 128.522653 -138.40183 
L 128.870327 -135.843536 
L 129.254264 -133.285242 
L 129.691382 -130.726949 
L 130.19999 -128.168655 
L 130.798845 -125.610361 
L 131.506162 -123.052068 
L 132.338642 -120.493774 
L 133.310501 -117.93548 
L 134.4325 -115.377187 
L 135.710909 -112.818893 
L 137.146387 -110.260599 
L 138.732737 -107.702306 
L 140.45559 -105.144012 
L 142.291095 -102.585718 
L 144.204835 -100.027424 
L 146.151191 -97.469131 
L 148.073454 -94.910837 
L 149.904971 -92.352543 
L 151.571501 -89.79425 
L 152.994857 -87.235956 
L 154.097705 -84.677662 
L 154.809174 -82.119369 
L 155.070775 -79.561075 
L 154.841943 -77.002781 
L 154.104538 -74.444488 
L 152.865639 -71.886194 
L 151.158209 -69.3279 
z
" id="mc4aea10491" style="stroke:#141414;stroke-width:1.5;"/>
    </defs>
    <g clip-path="url(#pc9af4ea7bf)">
     <use style="fill:#083c1d;stroke:#141414;stroke-width:1.5;" x="0" xlink:href="#mc4aea10491" y="536.241028"/>
    </g>
   </g>
   <g id="PolyCollection_2">
    <defs>
     <path d="M 216.439715 -70.28534 
L 167.764454 -70.28534 
L 165.586484 -72.877508 
L 163.587617 -75.469675 
L 161.823282 -78.061843 
L 160.341137 -80.654011 
L 159.178876 -83.246178 
L 158.362732 -85.838346 
L 157.90674 -88.430513 
L 157.812723 -91.022681 
L 158.070898 -93.614849 
L 158.660999 -96.207016 
L 159.553744 -98.799184 
L 160.712536 -101.391351 
L 162.095269 -103.983519 
L 163.656166 -106.575686 
L 165.347583 -109.167854 
L 167.121745 -111.760022 
L 168.932375 -114.352189 
L 170.736189 -116.944357 
L 172.494206 -119.536524 
L 174.172834 -122.128692 
L 175.744689 -124.72086 
L 177.189082 -127.313027 
L 178.492184 -129.905195 
L 179.64682 -132.497362 
L 180.65195 -135.08953 
L 181.511859 -137.681697 
L 182.235135 -140.273865 
L 182.833517 -142.866033 
L 183.320701 -145.4582 
L 183.711203 -148.050368 
L 184.019341 -150.642535 
L 184.258416 -153.234703 
L 184.440124 -155.826871 
L 184.574216 -158.419038 
L 184.668413 -161.011206 
L 184.728538 -163.603373 
L 184.758837 -166.195541 
L 184.762423 -168.787708 
L 184.741794 -171.379876 
L 184.699355 -173.972044 
L 184.637881 -176.564211 
L 184.560879 -179.156379 
L 184.472795 -181.748546 
L 184.379059 -184.340714 
L 184.285953 -186.932882 
L 184.200314 -189.525049 
L 184.129115 -192.117217 
L 184.07897 -194.709384 
L 184.055603 -197.301552 
L 184.063372 -199.893719 
L 184.104887 -202.485887 
L 184.180768 -205.078055 
L 184.28959 -207.670222 
L 184.42801 -210.26239 
L 184.591077 -212.854557 
L 184.772678 -215.446725 
L 184.966089 -218.038893 
L 185.164549 -220.63106 
L 185.36182 -223.223228 
L 185.55265 -225.815395 
L 185.733127 -228.407563 
L 185.900861 -230.99973 
L 186.055027 -233.591898 
L 186.196254 -236.184066 
L 186.326398 -238.776233 
L 186.448242 -241.368401 
L 186.565158 -243.960568 
L 186.680768 -246.552736 
L 186.798636 -249.144904 
L 186.92202 -251.737071 
L 187.053675 -254.329239 
L 187.195723 -256.921406 
L 187.349578 -259.513574 
L 187.515909 -262.105741 
L 187.694644 -264.697909 
L 187.884999 -267.290077 
L 188.085524 -269.882244 
L 188.294176 -272.474412 
L 188.508411 -275.066579 
L 188.725299 -277.658747 
L 188.941662 -280.250915 
L 189.154231 -282.843082 
L 189.359821 -285.43525 
L 189.555504 -288.027417 
L 189.738782 -290.619585 
L 189.907737 -293.211752 
L 190.06115 -295.80392 
L 190.198573 -298.396088 
L 190.320352 -300.988255 
L 190.42759 -303.580423 
L 190.522055 -306.17259 
L 190.606035 -308.764758 
L 190.682153 -311.356926 
L 190.753154 -313.949093 
L 190.821683 -316.541261 
L 190.890085 -319.133428 
L 190.960222 -321.725596 
L 191.033356 -324.317763 
L 191.11008 -326.909931 
L 193.094089 -326.909931 
L 193.094089 -326.909931 
L 193.170813 -324.317763 
L 193.243947 -321.725596 
L 193.314085 -319.133428 
L 193.382486 -316.541261 
L 193.451015 -313.949093 
L 193.522016 -311.356926 
L 193.598134 -308.764758 
L 193.682115 -306.17259 
L 193.776579 -303.580423 
L 193.883817 -300.988255 
L 194.005596 -298.396088 
L 194.143019 -295.80392 
L 194.296432 -293.211752 
L 194.465388 -290.619585 
L 194.648666 -288.027417 
L 194.844348 -285.43525 
L 195.049938 -282.843082 
L 195.262507 -280.250915 
L 195.47887 -277.658747 
L 195.695758 -275.066579 
L 195.909993 -272.474412 
L 196.118645 -269.882244 
L 196.31917 -267.290077 
L 196.509525 -264.697909 
L 196.68826 -262.105741 
L 196.854591 -259.513574 
L 197.008446 -256.921406 
L 197.150494 -254.329239 
L 197.282149 -251.737071 
L 197.405533 -249.144904 
L 197.523402 -246.552736 
L 197.639011 -243.960568 
L 197.755927 -241.368401 
L 197.877772 -238.776233 
L 198.007915 -236.184066 
L 198.149142 -233.591898 
L 198.303308 -230.99973 
L 198.471043 -228.407563 
L 198.651519 -225.815395 
L 198.84235 -223.223228 
L 199.03962 -220.63106 
L 199.23808 -218.038893 
L 199.431491 -215.446725 
L 199.613092 -212.854557 
L 199.776159 -210.26239 
L 199.91458 -207.670222 
L 200.023401 -205.078055 
L 200.099282 -202.485887 
L 200.140797 -199.893719 
L 200.148567 -197.301552 
L 200.125199 -194.709384 
L 200.075054 -192.117217 
L 200.003856 -189.525049 
L 199.918216 -186.932882 
L 199.82511 -184.340714 
L 199.731374 -181.748546 
L 199.64329 -179.156379 
L 199.566288 -176.564211 
L 199.504814 -173.972044 
L 199.462375 -171.379876 
L 199.441747 -168.787708 
L 199.445332 -166.195541 
L 199.475631 -163.603373 
L 199.535756 -161.011206 
L 199.629953 -158.419038 
L 199.764045 -155.826871 
L 199.945753 -153.234703 
L 200.184828 -150.642535 
L 200.492966 -148.050368 
L 200.883468 -145.4582 
L 201.370653 -142.866033 
L 201.969034 -140.273865 
L 202.692311 -137.681697 
L 203.55222 -135.08953 
L 204.55735 -132.497362 
L 205.711985 -129.905195 
L 207.015087 -127.313027 
L 208.459481 -124.72086 
L 210.031335 -122.128692 
L 211.709963 -119.536524 
L 213.46798 -116.944357 
L 215.271794 -114.352189 
L 217.082425 -111.760022 
L 218.856586 -109.167854 
L 220.548003 -106.575686 
L 222.1089 -103.983519 
L 223.491633 -101.391351 
L 224.650425 -98.799184 
L 225.54317 -96.207016 
L 226.133271 -93.614849 
L 226.391446 -91.022681 
L 226.297429 -88.430513 
L 225.841438 -85.838346 
L 225.025293 -83.246178 
L 223.863032 -80.654011 
L 222.380887 -78.061843 
L 220.616552 -75.469675 
L 218.617685 -72.877508 
L 216.439715 -70.28534 
z
" id="m4114f787bc" style="stroke:#141414;stroke-width:1.5;"/>
    </defs>
    <g clip-path="url(#pc9af4ea7bf)">
     <use style="fill:#0e5f2f;stroke:#141414;stroke-width:1.5;" x="0" xlink:href="#m4114f787bc" y="536.241028"/>
    </g>
   </g>
   <g id="PolyCollection_3">
    <defs>
     <path d="M 304.345521 -82.328497 
L 302.046508 -82.328497 
L 301.821154 -86.231457 
L 301.594053 -90.134417 
L 301.373361 -94.037377 
L 301.165331 -97.940337 
L 300.973269 -101.843297 
L 300.797184 -105.746257 
L 300.634276 -109.649217 
L 300.480132 -113.552177 
L 300.33026 -117.455137 
L 300.18149 -121.358097 
L 300.032811 -125.261057 
L 299.885412 -129.164017 
L 299.741932 -133.066977 
L 299.605153 -136.969937 
L 299.476444 -140.872897 
L 299.354286 -144.775857 
L 299.233147 -148.678817 
L 299.102894 -152.581777 
L 298.948886 -156.484737 
L 298.75282 -160.387698 
L 298.494336 -164.290658 
L 298.153268 -168.193618 
L 297.71227 -172.096578 
L 297.1594 -175.999538 
L 296.490179 -179.902498 
L 295.708639 -183.805458 
L 294.827034 -187.708418 
L 293.864217 -191.611378 
L 292.842976 -195.514338 
L 291.787016 -199.417298 
L 290.718338 -203.320258 
L 289.655687 -207.223218 
L 288.614304 -211.126178 
L 287.606683 -215.029138 
L 286.643607 -218.932098 
L 285.734602 -222.835058 
L 284.887219 -226.738018 
L 284.105152 -230.640978 
L 283.385835 -234.543938 
L 282.718562 -238.446898 
L 282.084144 -242.349858 
L 281.456656 -246.252818 
L 280.807131 -250.155778 
L 280.108328 -254.058738 
L 279.339336 -257.961698 
L 278.488757 -261.864658 
L 277.555673 -265.767619 
L 276.54838 -269.670579 
L 275.481598 -273.573539 
L 274.373407 -277.476499 
L 273.243116 -281.379459 
L 272.110773 -285.282419 
L 270.998128 -289.185379 
L 269.930126 -293.088339 
L 268.935707 -296.991299 
L 268.047053 -300.894259 
L 267.297251 -304.797219 
L 266.717199 -308.700179 
L 266.332983 -312.603139 
L 266.164704 -316.506099 
L 266.22691 -320.409059 
L 266.529948 -324.312019 
L 267.081057 -328.214979 
L 267.884223 -332.117939 
L 268.93848 -336.020899 
L 270.235209 -339.923859 
L 271.755493 -343.826819 
L 273.468684 -347.729779 
L 275.332924 -351.632739 
L 277.297778 -355.535699 
L 279.308572 -359.438659 
L 281.311626 -363.341619 
L 283.259459 -367.244579 
L 285.11502 -371.14754 
L 286.854238 -375.0505 
L 288.466475 -378.95346 
L 289.952872 -382.85642 
L 291.323006 -386.75938 
L 292.590638 -390.66234 
L 293.769476 -394.5653 
L 294.869826 -398.46826 
L 295.896716 -402.37122 
L 296.849645 -406.27418 
L 297.723747 -410.17714 
L 298.511833 -414.0801 
L 299.206725 -417.98306 
L 299.80336 -421.88602 
L 300.300347 -425.78898 
L 300.700841 -429.69194 
L 301.012746 -433.5949 
L 301.248291 -437.49786 
L 301.423064 -441.40082 
L 301.554585 -445.30378 
L 301.66055 -449.20674 
L 301.756965 -453.1097 
L 301.856466 -457.01266 
L 301.96713 -460.91562 
L 302.092021 -464.81858 
L 302.229561 -468.72154 
L 304.162468 -468.72154 
L 304.162468 -468.72154 
L 304.300008 -464.81858 
L 304.424898 -460.91562 
L 304.535562 -457.01266 
L 304.635063 -453.1097 
L 304.731478 -449.20674 
L 304.837443 -445.30378 
L 304.968965 -441.40082 
L 305.143738 -437.49786 
L 305.379282 -433.5949 
L 305.691187 -429.69194 
L 306.091682 -425.78898 
L 306.588668 -421.88602 
L 307.185303 -417.98306 
L 307.880195 -414.0801 
L 308.668282 -410.17714 
L 309.542384 -406.27418 
L 310.495313 -402.37122 
L 311.522202 -398.46826 
L 312.622553 -394.5653 
L 313.80139 -390.66234 
L 315.069022 -386.75938 
L 316.439156 -382.85642 
L 317.925553 -378.95346 
L 319.537791 -375.0505 
L 321.277009 -371.14754 
L 323.132569 -367.244579 
L 325.080402 -363.341619 
L 327.083457 -359.438659 
L 329.09425 -355.535699 
L 331.059105 -351.632739 
L 332.923345 -347.729779 
L 334.636536 -343.826819 
L 336.15682 -339.923859 
L 337.453549 -336.020899 
L 338.507806 -332.117939 
L 339.310971 -328.214979 
L 339.862081 -324.312019 
L 340.165118 -320.409059 
L 340.227324 -316.506099 
L 340.059045 -312.603139 
L 339.67483 -308.700179 
L 339.094777 -304.797219 
L 338.344976 -300.894259 
L 337.456322 -296.991299 
L 336.461902 -293.088339 
L 335.3939 -289.185379 
L 334.281256 -285.282419 
L 333.148913 -281.379459 
L 332.018622 -277.476499 
L 330.91043 -273.573539 
L 329.843649 -269.670579 
L 328.836356 -265.767619 
L 327.903272 -261.864658 
L 327.052692 -257.961698 
L 326.283701 -254.058738 
L 325.584898 -250.155778 
L 324.935372 -246.252818 
L 324.307885 -242.349858 
L 323.673466 -238.446898 
L 323.006194 -234.543938 
L 322.286877 -230.640978 
L 321.50481 -226.738018 
L 320.657427 -222.835058 
L 319.748422 -218.932098 
L 318.785346 -215.029138 
L 317.777724 -211.126178 
L 316.736342 -207.223218 
L 315.673691 -203.320258 
L 314.605012 -199.417298 
L 313.549052 -195.514338 
L 312.527812 -191.611378 
L 311.564994 -187.708418 
L 310.68339 -183.805458 
L 309.901849 -179.902498 
L 309.232629 -175.999538 
L 308.679759 -172.096578 
L 308.23876 -168.193618 
L 307.897693 -164.290658 
L 307.639209 -160.387698 
L 307.443142 -156.484737 
L 307.289134 -152.581777 
L 307.158882 -148.678817 
L 307.037743 -144.775857 
L 306.915585 -140.872897 
L 306.786876 -136.969937 
L 306.650097 -133.066977 
L 306.506617 -129.164017 
L 306.359217 -125.261057 
L 306.210539 -121.358097 
L 306.061769 -117.455137 
L 305.911897 -113.552177 
L 305.757752 -109.649217 
L 305.594845 -105.746257 
L 305.418759 -101.843297 
L 305.226697 -97.940337 
L 305.018668 -94.037377 
L 304.797976 -90.134417 
L 304.570875 -86.231457 
L 304.345521 -82.328497 
z
" id="m4434b59920" style="stroke:#141414;stroke-width:1.5;"/>
    </defs>
    <g clip-path="url(#pc9af4ea7bf)">
     <use style="fill:#083c1d;stroke:#141414;stroke-width:1.5;" x="0" xlink:href="#m4434b59920" y="536.241028"/>
    </g>
   </g>
   <g id="PolyCollection_4">
    <defs>
     <path d="M 378.360931 -76.395615 
L 376.156337 -76.395615 
L 375.835757 -80.67977 
L 375.471734 -84.963924 
L 375.07301 -89.248078 
L 374.651551 -93.532233 
L 374.22065 -97.816387 
L 373.792051 -102.100542 
L 373.372735 -106.384696 
L 372.962342 -110.668851 
L 372.552351 -114.953005 
L 372.127763 -119.237159 
L 371.671199 -123.521314 
L 371.168315 -127.805468 
L 370.612645 -132.089623 
L 370.007881 -136.373777 
L 369.366404 -140.657932 
L 368.704352 -144.942086 
L 368.03512 -149.22624 
L 367.364092 -153.510395 
L 366.687134 -157.794549 
L 365.993899 -162.078704 
L 365.274866 -166.362858 
L 364.529284 -170.647012 
L 363.770579 -174.931167 
L 363.026702 -179.215321 
L 362.334852 -183.499476 
L 361.732173 -187.78363 
L 361.245439 -192.067785 
L 360.882897 -196.351939 
L 360.63055 -200.636093 
L 360.453646 -204.920248 
L 360.302674 -209.204402 
L 360.12214 -213.488557 
L 359.859944 -217.772711 
L 359.475254 -222.056866 
L 358.94336 -226.34102 
L 358.256829 -230.625174 
L 357.42331 -234.909329 
L 356.461104 -239.193483 
L 355.39405 -243.477638 
L 354.247247 -247.761792 
L 353.044628 -252.045947 
L 351.80882 -256.330101 
L 350.562916 -260.614255 
L 349.333154 -264.89841 
L 348.151095 -269.182564 
L 347.05394 -273.466719 
L 346.082252 -277.750873 
L 345.275423 -282.035027 
L 344.666296 -286.319182 
L 344.27688 -290.603336 
L 344.116744 -294.887491 
L 344.184445 -299.171645 
L 344.470938 -303.4558 
L 344.962941 -307.739954 
L 345.644463 -312.024108 
L 346.495954 -316.308263 
L 347.49225 -320.592417 
L 348.601564 -324.876572 
L 349.787544 -329.160726 
L 351.014884 -333.444881 
L 352.256934 -337.729035 
L 353.502278 -342.013189 
L 354.757236 -346.297344 
L 356.042671 -350.581498 
L 357.385692 -354.865653 
L 358.808855 -359.149807 
L 360.320358 -363.433962 
L 361.908334 -367.718116 
L 363.540836 -372.00227 
L 365.171262 -376.286425 
L 366.747341 -380.570579 
L 368.220921 -384.854734 
L 369.555895 -389.138888 
L 370.732444 -393.423042 
L 371.747098 -397.707197 
L 372.609407 -401.991351 
L 373.336817 -406.275506 
L 373.949525 -410.55966 
L 374.46659 -414.843815 
L 374.903881 -419.127969 
L 375.273688 -423.412123 
L 375.585415 -427.696278 
L 375.8467 -431.980432 
L 376.064442 -436.264587 
L 376.245406 -440.548741 
L 376.396329 -444.832896 
L 376.523543 -449.11705 
L 376.632326 -453.401204 
L 376.726262 -457.685359 
L 376.806906 -461.969513 
L 376.874009 -466.253668 
L 376.926302 -470.537822 
L 376.962666 -474.821977 
L 376.983303 -479.106131 
L 376.990493 -483.390285 
L 376.988649 -487.67444 
L 376.983612 -491.958594 
L 376.981399 -496.242749 
L 376.986823 -500.526903 
L 377.530445 -500.526903 
L 377.530445 -500.526903 
L 377.535869 -496.242749 
L 377.533656 -491.958594 
L 377.528618 -487.67444 
L 377.526775 -483.390285 
L 377.533965 -479.106131 
L 377.554602 -474.821977 
L 377.590966 -470.537822 
L 377.643259 -466.253668 
L 377.710362 -461.969513 
L 377.791006 -457.685359 
L 377.884942 -453.401204 
L 377.993725 -449.11705 
L 378.120939 -444.832896 
L 378.271862 -440.548741 
L 378.452826 -436.264587 
L 378.670568 -431.980432 
L 378.931853 -427.696278 
L 379.24358 -423.412123 
L 379.613387 -419.127969 
L 380.050678 -414.843815 
L 380.567743 -410.55966 
L 381.180451 -406.275506 
L 381.907861 -401.991351 
L 382.77017 -397.707197 
L 383.784824 -393.423042 
L 384.961373 -389.138888 
L 386.296347 -384.854734 
L 387.769927 -380.570579 
L 389.346005 -376.286425 
L 390.976432 -372.00227 
L 392.608934 -367.718116 
L 394.19691 -363.433962 
L 395.708413 -359.149807 
L 397.131576 -354.865653 
L 398.474597 -350.581498 
L 399.760032 -346.297344 
L 401.01499 -342.013189 
L 402.260334 -337.729035 
L 403.502384 -333.444881 
L 404.729724 -329.160726 
L 405.915704 -324.876572 
L 407.025018 -320.592417 
L 408.021314 -316.308263 
L 408.872805 -312.024108 
L 409.554327 -307.739954 
L 410.04633 -303.4558 
L 410.332823 -299.171645 
L 410.400524 -294.887491 
L 410.240388 -290.603336 
L 409.850972 -286.319182 
L 409.241845 -282.035027 
L 408.435016 -277.750873 
L 407.463328 -273.466719 
L 406.366173 -269.182564 
L 405.184114 -264.89841 
L 403.954352 -260.614255 
L 402.708448 -256.330101 
L 401.47264 -252.045947 
L 400.270021 -247.761792 
L 399.123218 -243.477638 
L 398.056164 -239.193483 
L 397.093958 -234.909329 
L 396.260439 -230.625174 
L 395.573908 -226.34102 
L 395.042014 -222.056866 
L 394.657324 -217.772711 
L 394.395128 -213.488557 
L 394.214594 -209.204402 
L 394.063622 -204.920248 
L 393.886718 -200.636093 
L 393.634371 -196.351939 
L 393.271829 -192.067785 
L 392.785095 -187.78363 
L 392.182416 -183.499476 
L 391.490566 -179.215321 
L 390.746689 -174.931167 
L 389.987984 -170.647012 
L 389.242402 -166.362858 
L 388.523369 -162.078704 
L 387.830134 -157.794549 
L 387.153176 -153.510395 
L 386.482148 -149.22624 
L 385.812916 -144.942086 
L 385.150864 -140.657932 
L 384.509386 -136.373777 
L 383.904623 -132.089623 
L 383.348953 -127.805468 
L 382.846069 -123.521314 
L 382.389505 -119.237159 
L 381.964917 -114.953005 
L 381.554926 -110.668851 
L 381.144533 -106.384696 
L 380.725217 -102.100542 
L 380.296618 -97.816387 
L 379.865717 -93.532233 
L 379.444258 -89.248078 
L 379.045534 -84.963924 
L 378.681511 -80.67977 
L 378.360931 -76.395615 
z
" id="m68471611d3" style="stroke:#141414;stroke-width:1.5;"/>
    </defs>
    <g clip-path="url(#pc9af4ea7bf)">
     <use style="fill:#0e5f2f;stroke:#141414;stroke-width:1.5;" x="0" xlink:href="#m68471611d3" y="536.241028"/>
    </g>
   </g>
   <g id="PolyCollection_5">
    <defs>
     <path d="M 490.364251 -89.397939 
L 486.340877 -89.397939 
L 486.004451 -93.611959 
L 485.664603 -97.825978 
L 485.329513 -102.039998 
L 485.005672 -106.254018 
L 484.697076 -110.468038 
L 484.404751 -114.682058 
L 484.126668 -118.896078 
L 483.858029 -123.110098 
L 483.591836 -127.324118 
L 483.319615 -131.538138 
L 483.032129 -135.752158 
L 482.719993 -139.966177 
L 482.374115 -144.180197 
L 481.986007 -148.394217 
L 481.548053 -152.608237 
L 481.053877 -156.822257 
L 480.498913 -161.036277 
L 479.881205 -165.250297 
L 479.202343 -169.464317 
L 478.468285 -173.678337 
L 477.689728 -177.892356 
L 476.881682 -182.106376 
L 476.062044 -186.320396 
L 475.249188 -190.534416 
L 474.458947 -194.748436 
L 473.701579 -198.962456 
L 472.979506 -203.176476 
L 472.286483 -207.390496 
L 471.608582 -211.604516 
L 470.926904 -215.818536 
L 470.221489 -220.032555 
L 469.475546 -224.246575 
L 468.679034 -228.460595 
L 467.830813 -232.674615 
L 466.938912 -236.888635 
L 466.018985 -241.102655 
L 465.091362 -245.316675 
L 464.177449 -249.530695 
L 463.296246 -253.744715 
L 462.461701 -257.958735 
L 461.681345 -262.172754 
L 460.956393 -266.386774 
L 460.283177 -270.600794 
L 459.6555 -274.814814 
L 459.067357 -279.028834 
L 458.515339 -283.242854 
L 458.000133 -287.456874 
L 457.52671 -291.670894 
L 457.103095 -295.884914 
L 456.738025 -300.098934 
L 456.438128 -304.312953 
L 456.205464 -308.526973 
L 456.036256 -312.740993 
L 455.92136 -316.955013 
L 455.848565 -321.169033 
L 455.806262 -325.383053 
L 455.787611 -329.597073 
L 455.794096 -333.811093 
L 455.8375 -338.025113 
L 455.939649 -342.239132 
L 456.129869 -346.453152 
L 456.440595 -350.667172 
L 456.902057 -354.881192 
L 457.537111 -359.095212 
L 458.357232 -363.309232 
L 459.360388 -367.523252 
L 460.531051 -371.737272 
L 461.842148 -375.951292 
L 463.258387 -380.165312 
L 464.740197 -384.379331 
L 466.24756 -388.593351 
L 467.743186 -392.807371 
L 469.194809 -397.021391 
L 470.576615 -401.235411 
L 471.870028 -405.449431 
L 473.064057 -409.663451 
L 474.155349 -413.877471 
L 475.147907 -418.091491 
L 476.052337 -422.305511 
L 476.884451 -426.51953 
L 477.663182 -430.73355 
L 478.407945 -434.94757 
L 479.135805 -439.16159 
L 479.858963 -443.37561 
L 480.583055 -447.58963 
L 481.306644 -451.80365 
L 482.022017 -456.01767 
L 482.717103 -460.23169 
L 483.378086 -464.44571 
L 483.992132 -468.659729 
L 484.549666 -472.873749 
L 485.04578 -477.087769 
L 485.480588 -481.301789 
L 485.858578 -485.515809 
L 486.187248 -489.729829 
L 486.475409 -493.943849 
L 486.73156 -498.157869 
L 486.962656 -502.371889 
L 487.173442 -506.585909 
L 489.531685 -506.585909 
L 489.531685 -506.585909 
L 489.742471 -502.371889 
L 489.973567 -498.157869 
L 490.229718 -493.943849 
L 490.517879 -489.729829 
L 490.84655 -485.515809 
L 491.22454 -481.301789 
L 491.659347 -477.087769 
L 492.155462 -472.873749 
L 492.712995 -468.659729 
L 493.327041 -464.44571 
L 493.988024 -460.23169 
L 494.68311 -456.01767 
L 495.398483 -451.80365 
L 496.122072 -447.58963 
L 496.846165 -443.37561 
L 497.569323 -439.16159 
L 498.297182 -434.94757 
L 499.041945 -430.73355 
L 499.820676 -426.51953 
L 500.652791 -422.305511 
L 501.55722 -418.091491 
L 502.549778 -413.877471 
L 503.64107 -409.663451 
L 504.835099 -405.449431 
L 506.128512 -401.235411 
L 507.510318 -397.021391 
L 508.961941 -392.807371 
L 510.457567 -388.593351 
L 511.96493 -384.379331 
L 513.446741 -380.165312 
L 514.862979 -375.951292 
L 516.174076 -371.737272 
L 517.344739 -367.523252 
L 518.347895 -363.309232 
L 519.168016 -359.095212 
L 519.80307 -354.881192 
L 520.264532 -350.667172 
L 520.575258 -346.453152 
L 520.765478 -342.239132 
L 520.867628 -338.025113 
L 520.911031 -333.811093 
L 520.917516 -329.597073 
L 520.898865 -325.383053 
L 520.856563 -321.169033 
L 520.783768 -316.955013 
L 520.668872 -312.740993 
L 520.499663 -308.526973 
L 520.266999 -304.312953 
L 519.967102 -300.098934 
L 519.602032 -295.884914 
L 519.178417 -291.670894 
L 518.704994 -287.456874 
L 518.189789 -283.242854 
L 517.63777 -279.028834 
L 517.049627 -274.814814 
L 516.42195 -270.600794 
L 515.748734 -266.386774 
L 515.023783 -262.172754 
L 514.243426 -257.958735 
L 513.408881 -253.744715 
L 512.527678 -249.530695 
L 511.613765 -245.316675 
L 510.686142 -241.102655 
L 509.766215 -236.888635 
L 508.874315 -232.674615 
L 508.026093 -228.460595 
L 507.229581 -224.246575 
L 506.483638 -220.032555 
L 505.778223 -215.818536 
L 505.096545 -211.604516 
L 504.418644 -207.390496 
L 503.725621 -203.176476 
L 503.003548 -198.962456 
L 502.24618 -194.748436 
L 501.455939 -190.534416 
L 500.643084 -186.320396 
L 499.823445 -182.106376 
L 499.0154 -177.892356 
L 498.236842 -173.678337 
L 497.502785 -169.464317 
L 496.823922 -165.250297 
L 496.206214 -161.036277 
L 495.65125 -156.822257 
L 495.157074 -152.608237 
L 494.71912 -148.394217 
L 494.331012 -144.180197 
L 493.985134 -139.966177 
L 493.672998 -135.752158 
L 493.385513 -131.538138 
L 493.113291 -127.324118 
L 492.847099 -123.110098 
L 492.578459 -118.896078 
L 492.300376 -114.682058 
L 492.008051 -110.468038 
L 491.699455 -106.254018 
L 491.375614 -102.039998 
L 491.040524 -97.825978 
L 490.700676 -93.611959 
L 490.364251 -89.397939 
z
" id="m5268ec66c9" style="stroke:#141414;stroke-width:1.5;"/>
    </defs>
    <g clip-path="url(#pc9af4ea7bf)">
     <use style="fill:#083c1d;stroke:#141414;stroke-width:1.5;" x="0" xlink:href="#m5268ec66c9" y="536.241028"/>
    </g>
   </g>
   <g id="PolyCollection_6">
    <defs>
     <path d="M 564.241976 -80.570738 
L 560.588391 -80.570738 
L 560.179137 -84.788542 
L 559.737344 -89.006347 
L 559.271987 -93.224151 
L 558.792053 -97.441956 
L 558.305179 -101.659761 
L 557.81637 -105.877565 
L 557.327013 -110.09537 
L 556.834265 -114.313175 
L 556.330878 -118.530979 
L 555.805404 -122.748784 
L 555.242787 -126.966588 
L 554.6254 -131.184393 
L 553.934678 -135.402198 
L 553.153489 -139.620002 
L 552.269192 -143.837807 
L 551.277058 -148.055612 
L 550.183337 -152.273416 
L 549.00708 -156.491221 
L 547.779881 -160.709025 
L 546.54315 -164.92683 
L 545.343157 -169.144635 
L 544.224833 -173.362439 
L 543.225696 -177.580244 
L 542.371309 -181.798049 
L 541.673198 -186.015853 
L 541.129432 -190.233658 
L 540.727254 -194.451462 
L 540.446696 -198.669267 
L 540.264002 -202.887072 
L 540.154005 -207.104876 
L 540.091195 -211.322681 
L 540.049748 -215.540486 
L 540.003126 -219.75829 
L 539.923945 -223.976095 
L 539.784537 -228.193899 
L 539.558344 -232.411704 
L 539.221892 -236.629509 
L 538.756918 -240.847313 
L 538.152145 -245.065118 
L 537.404329 -249.282923 
L 536.51845 -253.500727 
L 535.507159 -257.718532 
L 534.389849 -261.936336 
L 533.191754 -266.154141 
L 531.943445 -270.371946 
L 530.680788 -274.58975 
L 529.445155 -278.807555 
L 528.283392 -283.02536 
L 527.246955 -287.243164 
L 526.38973 -291.460969 
L 525.764378 -295.678773 
L 525.417437 -299.896578 
L 525.383873 -304.114383 
L 525.682029 -308.332187 
L 526.310076 -312.549992 
L 527.244921 -316.767797 
L 528.444102 -320.985601 
L 529.850617 -325.203406 
L 531.399907 -329.42121 
L 533.02764 -333.639015 
L 534.676669 -337.85682 
L 536.301795 -342.074624 
L 537.871605 -346.292429 
L 539.367558 -350.510234 
L 540.78127 -354.728038 
L 542.111263 -358.945843 
L 543.360277 -363.163647 
L 544.533592 -367.381452 
L 545.638163 -371.599257 
L 546.681945 -375.817061 
L 547.672823 -380.034866 
L 548.617029 -384.252671 
L 549.517448 -388.470475 
L 550.3726 -392.68828 
L 551.176963 -396.906084 
L 551.922858 -401.123889 
L 552.603448 -405.341694 
L 553.215902 -409.559498 
L 553.763638 -413.777303 
L 554.256892 -417.995108 
L 554.711413 -422.212912 
L 555.145736 -426.430717 
L 555.577873 -430.648521 
L 556.022327 -434.866326 
L 556.48809 -439.084131 
L 556.977917 -443.301935 
L 557.48873 -447.51974 
L 558.01283 -451.737545 
L 558.539482 -455.955349 
L 559.056523 -460.173154 
L 559.551804 -464.390958 
L 560.014357 -468.608763 
L 560.43529 -472.826568 
L 560.808411 -477.044372 
L 561.13056 -481.262177 
L 561.401632 -485.479981 
L 561.624271 -489.697786 
L 561.803265 -493.915591 
L 561.944741 -498.133395 
L 562.885625 -498.133395 
L 562.885625 -498.133395 
L 563.027102 -493.915591 
L 563.206096 -489.697786 
L 563.428735 -485.479981 
L 563.699807 -481.262177 
L 564.021956 -477.044372 
L 564.395077 -472.826568 
L 564.81601 -468.608763 
L 565.278563 -464.390958 
L 565.773844 -460.173154 
L 566.290885 -455.955349 
L 566.817536 -451.737545 
L 567.341637 -447.51974 
L 567.852449 -443.301935 
L 568.342276 -439.084131 
L 568.80804 -434.866326 
L 569.252493 -430.648521 
L 569.684631 -426.430717 
L 570.118954 -422.212912 
L 570.573475 -417.995108 
L 571.066729 -413.777303 
L 571.614465 -409.559498 
L 572.226918 -405.341694 
L 572.907509 -401.123889 
L 573.653404 -396.906084 
L 574.457767 -392.68828 
L 575.312919 -388.470475 
L 576.213338 -384.252671 
L 577.157543 -380.034866 
L 578.148422 -375.817061 
L 579.192204 -371.599257 
L 580.296775 -367.381452 
L 581.470089 -363.163647 
L 582.719104 -358.945843 
L 584.049097 -354.728038 
L 585.462808 -350.510234 
L 586.958762 -346.292429 
L 588.528571 -342.074624 
L 590.153698 -337.85682 
L 591.802727 -333.639015 
L 593.430459 -329.42121 
L 594.97975 -325.203406 
L 596.386265 -320.985601 
L 597.585445 -316.767797 
L 598.520291 -312.549992 
L 599.148338 -308.332187 
L 599.446493 -304.114383 
L 599.41293 -299.896578 
L 599.065989 -295.678773 
L 598.440636 -291.460969 
L 597.583411 -287.243164 
L 596.546974 -283.02536 
L 595.385212 -278.807555 
L 594.149579 -274.58975 
L 592.886922 -270.371946 
L 591.638613 -266.154141 
L 590.440518 -261.936336 
L 589.323207 -257.718532 
L 588.311917 -253.500727 
L 587.426038 -249.282923 
L 586.678222 -245.065118 
L 586.073448 -240.847313 
L 585.608475 -236.629509 
L 585.272023 -232.411704 
L 585.045829 -228.193899 
L 584.906422 -223.976095 
L 584.827241 -219.75829 
L 584.780619 -215.540486 
L 584.739171 -211.322681 
L 584.676362 -207.104876 
L 584.566365 -202.887072 
L 584.383671 -198.669267 
L 584.103113 -194.451462 
L 583.700935 -190.233658 
L 583.157168 -186.015853 
L 582.459058 -181.798049 
L 581.60467 -177.580244 
L 580.605534 -173.362439 
L 579.48721 -169.144635 
L 578.287217 -164.92683 
L 577.050486 -160.709025 
L 575.823287 -156.491221 
L 574.647029 -152.273416 
L 573.553308 -148.055612 
L 572.561175 -143.837807 
L 571.676878 -139.620002 
L 570.895689 -135.402198 
L 570.204967 -131.184393 
L 569.58758 -126.966588 
L 569.024963 -122.748784 
L 568.499489 -118.530979 
L 567.996101 -114.313175 
L 567.503353 -110.09537 
L 567.013996 -105.877565 
L 566.525188 -101.659761 
L 566.038313 -97.441956 
L 565.55838 -93.224151 
L 565.093022 -89.006347 
L 564.65123 -84.788542 
L 564.241976 -80.570738 
z
" id="md474f043b5" style="stroke:#141414;stroke-width:1.5;"/>
    </defs>
    <g clip-path="url(#pc9af4ea7bf)">
     <use style="fill:#0e5f2f;stroke:#141414;stroke-width:1.5;" x="0" xlink:href="#md474f043b5" y="536.241028"/>
    </g>
   </g>
   <g id="patch_3">
    <path clip-path="url(#pc9af4ea7bf)" d="M 155.070775 467.869897 
L 155.070775 467.869897 
L 155.070775 467.869897 
L 155.070775 467.869897 
z
" style="fill:#083c1d;stroke:#141414;stroke-linejoin:miter;stroke-width:0.75;"/>
   </g>
   <g id="patch_4">
    <path clip-path="url(#pc9af4ea7bf)" d="M 155.070775 467.869897 
L 155.070775 467.869897 
L 155.070775 467.869897 
L 155.070775 467.869897 
z
" style="fill:#0e5f2f;stroke:#141414;stroke-linejoin:miter;stroke-width:0.75;"/>
   </g>
   <g id="line2d_1">
    <path clip-path="url(#pc9af4ea7bf)" d="M 118.039465 466.913128 
L 118.039465 277.919199 
" style="fill:none;stroke:#141414;stroke-linecap:round;stroke-width:1.5;"/>
   </g>
   <g id="line2d_2">
    <path clip-path="url(#pc9af4ea7bf)" d="M 118.039465 462.154069 
L 118.039465 387.885715 
" style="fill:none;stroke:#141414;stroke-linecap:round;stroke-width:4.5;"/>
   </g>
   <g id="line2d_3">
    <path clip-path="url(#pc9af4ea7bf)" d="M 192.102085 465.955688 
L 192.102085 240.891505 
" style="fill:none;stroke:#141414;stroke-linecap:round;stroke-width:1.5;"/>
   </g>
   <g id="line2d_4">
    <path clip-path="url(#pc9af4ea7bf)" d="M 192.102085 451.533163 
L 192.102085 366.294551 
" style="fill:none;stroke:#141414;stroke-linecap:round;stroke-width:4.5;"/>
   </g>
   <g id="line2d_5">
    <path clip-path="url(#pc9af4ea7bf)" d="M 303.196014 409.135913 
L 303.196014 76.372445 
" style="fill:none;stroke:#141414;stroke-linecap:round;stroke-width:1.5;"/>
   </g>
   <g id="line2d_6">
    <path clip-path="url(#pc9af4ea7bf)" d="M 303.196014 285.56832 
L 303.196014 198.909396 
" style="fill:none;stroke:#141414;stroke-linecap:round;stroke-width:4.5;"/>
   </g>
   <g id="line2d_7">
    <path clip-path="url(#pc9af4ea7bf)" d="M 377.258634 451.307671 
L 377.258634 77.626319 
" style="fill:none;stroke:#141414;stroke-linecap:round;stroke-width:1.5;"/>
   </g>
   <g id="line2d_8">
    <path clip-path="url(#pc9af4ea7bf)" d="M 377.258634 312.117183 
L 377.258634 213.807158 
" style="fill:none;stroke:#141414;stroke-linecap:round;stroke-width:4.5;"/>
   </g>
   <g id="line2d_9">
    <path clip-path="url(#pc9af4ea7bf)" d="M 488.352564 446.843089 
L 488.352564 29.65512 
" style="fill:none;stroke:#141414;stroke-linecap:round;stroke-width:1.5;"/>
   </g>
   <g id="line2d_10">
    <path clip-path="url(#pc9af4ea7bf)" d="M 488.352564 284.406355 
L 488.352564 174.665784 
" style="fill:none;stroke:#141414;stroke-linecap:round;stroke-width:4.5;"/>
   </g>
   <g id="line2d_11">
    <path clip-path="url(#pc9af4ea7bf)" d="M 562.415183 455.67029 
L 562.415183 62.816116 
" style="fill:none;stroke:#141414;stroke-linecap:round;stroke-width:1.5;"/>
   </g>
   <g id="line2d_12">
    <path clip-path="url(#pc9af4ea7bf)" d="M 562.415183 319.861822 
L 562.415183 207.225927 
" style="fill:none;stroke:#141414;stroke-linecap:round;stroke-width:4.5;"/>
   </g>
   <g id="patch_5">
    <path d="M 62.4925 488.776028 
L 62.4925 7.792219 
" style="fill:none;stroke:#262626;stroke-linecap:square;stroke-linejoin:miter;stroke-width:0.8;"/>
   </g>
   <g id="patch_6">
    <path d="M 62.4925 488.776028 
L 617.962148 488.776028 
" style="fill:none;stroke:#262626;stroke-linecap:square;stroke-linejoin:miter;stroke-width:0.8;"/>
   </g>
   <g id="PathCollection_1">
    <defs>
     <path d="M 0 1.5 
C 0.397805 1.5 0.77937 1.341951 1.06066 1.06066 
C 1.341951 0.77937 1.5 0.397805 1.5 0 
C 1.5 -0.397805 1.341951 -0.77937 1.06066 -1.06066 
C 0.77937 -1.341951 0.397805 -1.5 0 -1.5 
C -0.397805 -1.5 -0.77937 -1.341951 -1.06066 -1.06066 
C -1.341951 -0.77937 -1.5 -0.397805 -1.5 0 
C -1.5 0.397805 -1.341951 0.77937 -1.06066 1.06066 
C -0.77937 1.341951 -0.397805 1.5 0 1.5 
z
" id="m4db8eab698" style="stroke:#141414;"/>
    </defs>
    <g clip-path="url(#pc9af4ea7bf)">
     <use style="fill:#ffffff;stroke:#141414;" x="118.039465" xlink:href="#m4db8eab698" y="443.103851"/>
    </g>
   </g>
   <g id="PathCollection_2">
    <g clip-path="url(#pc9af4ea7bf)">
     <use style="fill:#ffffff;stroke:#141414;" x="192.102085" xlink:href="#m4db8eab698" y="432.445076"/>
    </g>
   </g>
   <g id="PathCollection_3">
    <g clip-path="url(#pc9af4ea7bf)">
     <use style="fill:#ffffff;stroke:#141414;" x="303.196014" xlink:href="#m4db8eab698" y="234.289412"/>
    </g>
   </g>
   <g id="PathCollection_4">
    <g clip-path="url(#pc9af4ea7bf)">
     <use style="fill:#ffffff;stroke:#141414;" x="377.258634" xlink:href="#m4db8eab698" y="255.401161"/>
    </g>
   </g>
   <g id="PathCollection_5">
    <g clip-path="url(#pc9af4ea7bf)">
     <use style="fill:#ffffff;stroke:#141414;" x="488.352564" xlink:href="#m4db8eab698" y="226.726704"/>
    </g>
   </g>
   <g id="PathCollection_6">
    <g clip-path="url(#pc9af4ea7bf)">
     <use style="fill:#ffffff;stroke:#141414;" x="562.415183" xlink:href="#m4db8eab698" y="250.678371"/>
    </g>
   </g>
  </g>
  <g id="legend_1">
   <g id="text_13">
    <!-- weather -->
    <defs>
     <path d="M 16.15625 0 
L 0.296875 51.859375 
L 9.375 51.859375 
L 17.625 21.921875 
L 20.703125 10.796875 
Q 20.90625 11.625 23.390625 21.484375 
L 31.640625 51.859375 
L 40.671875 51.859375 
L 48.4375 21.78125 
L 51.03125 11.859375 
L 54 21.875 
L 62.890625 51.859375 
L 71.4375 51.859375 
L 55.21875 0 
L 46.09375 0 
L 37.84375 31.0625 
L 35.84375 39.890625 
L 25.34375 0 
z
" id="ArialMT-119"/>
     <path d="M 40.4375 6.390625 
Q 35.546875 2.25 31.03125 0.53125 
Q 26.515625 -1.171875 21.34375 -1.171875 
Q 12.796875 -1.171875 8.203125 3 
Q 3.609375 7.171875 3.609375 13.671875 
Q 3.609375 17.484375 5.34375 20.625 
Q 7.078125 23.78125 9.890625 25.6875 
Q 12.703125 27.59375 16.21875 28.5625 
Q 18.796875 29.25 24.03125 29.890625 
Q 34.671875 31.15625 39.703125 32.90625 
Q 39.75 34.71875 39.75 35.203125 
Q 39.75 40.578125 37.25 42.78125 
Q 33.890625 45.75 27.25 45.75 
Q 21.046875 45.75 18.09375 43.578125 
Q 15.140625 41.40625 13.71875 35.890625 
L 5.125 37.0625 
Q 6.296875 42.578125 8.984375 45.96875 
Q 11.671875 49.359375 16.75 51.1875 
Q 21.828125 53.03125 28.515625 53.03125 
Q 35.15625 53.03125 39.296875 51.46875 
Q 43.453125 49.90625 45.40625 47.53125 
Q 47.359375 45.171875 48.140625 41.546875 
Q 48.578125 39.3125 48.578125 33.453125 
L 48.578125 21.734375 
Q 48.578125 9.46875 49.140625 6.21875 
Q 49.703125 2.984375 51.375 0 
L 42.1875 0 
Q 40.828125 2.734375 40.4375 6.390625 
z
M 39.703125 26.03125 
Q 34.90625 24.078125 25.34375 22.703125 
Q 19.921875 21.921875 17.671875 20.9375 
Q 15.4375 19.96875 14.203125 18.09375 
Q 12.984375 16.21875 12.984375 13.921875 
Q 12.984375 10.40625 15.640625 8.0625 
Q 18.3125 5.71875 23.4375 5.71875 
Q 28.515625 5.71875 32.46875 7.9375 
Q 36.421875 10.15625 38.28125 14.015625 
Q 39.703125 17 39.703125 22.796875 
z
" id="ArialMT-97"/>
     <path d="M 6.59375 0 
L 6.59375 71.578125 
L 15.375 71.578125 
L 15.375 45.90625 
Q 21.53125 53.03125 30.90625 53.03125 
Q 36.671875 53.03125 40.921875 50.75 
Q 45.171875 48.484375 47 44.484375 
Q 48.828125 40.484375 48.828125 32.859375 
L 48.828125 0 
L 40.046875 0 
L 40.046875 32.859375 
Q 40.046875 39.453125 37.1875 42.453125 
Q 34.328125 45.453125 29.109375 45.453125 
Q 25.203125 45.453125 21.75 43.421875 
Q 18.3125 41.40625 16.84375 37.9375 
Q 15.375 34.46875 15.375 28.375 
L 15.375 0 
z
" id="ArialMT-104"/>
    </defs>
    <g style="fill:#262626;" transform="translate(720.46675 249.530514)scale(0.16 -0.16)">
     <use xlink:href="#ArialMT-119"/>
     <use x="72.216797" xlink:href="#ArialMT-101"/>
     <use x="127.832031" xlink:href="#ArialMT-97"/>
     <use x="183.447266" xlink:href="#ArialMT-116"/>
     <use x="211.230469" xlink:href="#ArialMT-104"/>
     <use x="266.845703" xlink:href="#ArialMT-101"/>
     <use x="322.460938" xlink:href="#ArialMT-114"/>
    </g>
   </g>
   <g id="patch_7">
    <path d="M 708.7305 272.163014 
L 740.7305 272.163014 
L 740.7305 260.963014 
L 708.7305 260.963014 
z
" style="fill:#083c1d;stroke:#141414;stroke-linejoin:miter;stroke-width:0.75;"/>
   </g>
   <g id="text_14">
    <!-- good -->
    <defs>
     <path d="M 4.984375 -4.296875 
L 13.53125 -5.5625 
Q 14.0625 -9.515625 16.5 -11.328125 
Q 19.78125 -13.765625 25.4375 -13.765625 
Q 31.546875 -13.765625 34.859375 -11.328125 
Q 38.1875 -8.890625 39.359375 -4.5 
Q 40.046875 -1.8125 39.984375 6.78125 
Q 34.234375 0 25.640625 0 
Q 14.9375 0 9.078125 7.71875 
Q 3.21875 15.4375 3.21875 26.21875 
Q 3.21875 33.640625 5.90625 39.90625 
Q 8.59375 46.1875 13.6875 49.609375 
Q 18.796875 53.03125 25.6875 53.03125 
Q 34.859375 53.03125 40.828125 45.609375 
L 40.828125 51.859375 
L 48.921875 51.859375 
L 48.921875 7.03125 
Q 48.921875 -5.078125 46.453125 -10.125 
Q 44 -15.1875 38.640625 -18.109375 
Q 33.296875 -21.046875 25.484375 -21.046875 
Q 16.21875 -21.046875 10.5 -16.875 
Q 4.78125 -12.703125 4.984375 -4.296875 
z
M 12.25 26.859375 
Q 12.25 16.65625 16.296875 11.96875 
Q 20.359375 7.28125 26.46875 7.28125 
Q 32.515625 7.28125 36.609375 11.9375 
Q 40.71875 16.609375 40.71875 26.5625 
Q 40.71875 36.078125 36.5 40.90625 
Q 32.28125 45.75 26.3125 45.75 
Q 20.453125 45.75 16.34375 40.984375 
Q 12.25 36.234375 12.25 26.859375 
z
" id="ArialMT-103"/>
    </defs>
    <g style="fill:#262626;" transform="translate(753.5305 272.163014)scale(0.16 -0.16)">
     <use xlink:href="#ArialMT-103"/>
     <use x="55.615234" xlink:href="#ArialMT-111"/>
     <use x="111.230469" xlink:href="#ArialMT-111"/>
     <use x="166.845703" xlink:href="#ArialMT-100"/>
    </g>
   </g>
   <g id="patch_8">
    <path d="M 708.7305 294.983014 
L 740.7305 294.983014 
L 740.7305 283.783014 
L 708.7305 283.783014 
z
" style="fill:#0e5f2f;stroke:#141414;stroke-linejoin:miter;stroke-width:0.75;"/>
   </g>
   <g id="text_15">
    <!-- bad -->
    <defs>
     <path d="M 14.703125 0 
L 6.546875 0 
L 6.546875 71.578125 
L 15.328125 71.578125 
L 15.328125 46.046875 
Q 20.90625 53.03125 29.546875 53.03125 
Q 34.328125 53.03125 38.59375 51.09375 
Q 42.875 49.171875 45.625 45.671875 
Q 48.390625 42.1875 49.953125 37.25 
Q 51.515625 32.328125 51.515625 26.703125 
Q 51.515625 13.375 44.921875 6.09375 
Q 38.328125 -1.171875 29.109375 -1.171875 
Q 19.921875 -1.171875 14.703125 6.5 
z
M 14.59375 26.3125 
Q 14.59375 17 17.140625 12.84375 
Q 21.296875 6.0625 28.375 6.0625 
Q 34.125 6.0625 38.328125 11.0625 
Q 42.53125 16.0625 42.53125 25.984375 
Q 42.53125 36.140625 38.5 40.96875 
Q 34.46875 45.796875 28.765625 45.796875 
Q 23 45.796875 18.796875 40.796875 
Q 14.59375 35.796875 14.59375 26.3125 
z
" id="ArialMT-98"/>
    </defs>
    <g style="fill:#262626;" transform="translate(753.5305 294.983014)scale(0.16 -0.16)">
     <use xlink:href="#ArialMT-98"/>
     <use x="55.615234" xlink:href="#ArialMT-97"/>
     <use x="111.230469" xlink:href="#ArialMT-100"/>
    </g>
   </g>
  </g>
 </g>
 <defs>
  <clipPath id="pc9af4ea7bf">
   <rect height="480.983809" width="555.469648" x="62.4925" y="7.792219"/>
  </clipPath>
 </defs>
</svg>
