<?xml version="1.0" encoding="utf-8" standalone="no"?>
<!DOCTYPE svg PUBLIC "-//W3C//DTD SVG 1.1//EN"
  "http://www.w3.org/Graphics/SVG/1.1/DTD/svg11.dtd">
<!-- Created with matplotlib (https://matplotlib.org/) -->
<svg height="540.169pt" version="1.1" viewBox="0 0 791.118 540.169" width="791.118pt" xmlns="http://www.w3.org/2000/svg" xmlns:xlink="http://www.w3.org/1999/xlink">
 <defs>
  <style type="text/css">
*{stroke-linecap:butt;stroke-linejoin:round;white-space:pre;}
  </style>
 </defs>
 <g id="figure_1">
  <g id="patch_1">
   <path d="M 0 540.169 
L 791.118 540.169 
L 791.118 0 
L 0 0 
z
" style="fill:#ffffff;"/>
  </g>
  <g id="axes_1">
   <g id="patch_2">
    <path d="M 71.39 492.704 
L 605.559648 492.704 
L 605.559648 7.2 
L 71.39 7.2 
z
" style="fill:#ffffff;"/>
   </g>
   <g id="matplotlib.axis_1">
    <g id="xtick_1">
     <g id="text_1">
      <!-- 0656-2 -->
      <defs>
       <path d="M 4.15625 35.296875 
Q 4.15625 48 6.765625 55.734375 
Q 9.375 63.484375 14.515625 67.671875 
Q 19.671875 71.875 27.484375 71.875 
Q 33.25 71.875 37.59375 69.546875 
Q 41.9375 67.234375 44.765625 62.859375 
Q 47.609375 58.5 49.21875 52.21875 
Q 50.828125 45.953125 50.828125 35.296875 
Q 50.828125 22.703125 48.234375 14.96875 
Q 45.65625 7.234375 40.5 3 
Q 35.359375 -1.21875 27.484375 -1.21875 
Q 17.140625 -1.21875 11.234375 6.203125 
Q 4.15625 15.140625 4.15625 35.296875 
z
M 13.1875 35.296875 
Q 13.1875 17.671875 17.3125 11.828125 
Q 21.4375 6 27.484375 6 
Q 33.546875 6 37.671875 11.859375 
Q 41.796875 17.71875 41.796875 35.296875 
Q 41.796875 52.984375 37.671875 58.78125 
Q 33.546875 64.59375 27.390625 64.59375 
Q 21.34375 64.59375 17.71875 59.46875 
Q 13.1875 52.9375 13.1875 35.296875 
z
" id="ArialMT-48"/>
       <path d="M 49.75 54.046875 
L 41.015625 53.375 
Q 39.84375 58.546875 37.703125 60.890625 
Q 34.125 64.65625 28.90625 64.65625 
Q 24.703125 64.65625 21.53125 62.3125 
Q 17.390625 59.28125 14.984375 53.46875 
Q 12.59375 47.65625 12.5 36.921875 
Q 15.671875 41.75 20.265625 44.09375 
Q 24.859375 46.4375 29.890625 46.4375 
Q 38.671875 46.4375 44.84375 39.96875 
Q 51.03125 33.5 51.03125 23.25 
Q 51.03125 16.5 48.125 10.71875 
Q 45.21875 4.9375 40.140625 1.859375 
Q 35.0625 -1.21875 28.609375 -1.21875 
Q 17.625 -1.21875 10.6875 6.859375 
Q 3.765625 14.9375 3.765625 33.5 
Q 3.765625 54.25 11.421875 63.671875 
Q 18.109375 71.875 29.4375 71.875 
Q 37.890625 71.875 43.28125 67.140625 
Q 48.6875 62.40625 49.75 54.046875 
z
M 13.875 23.1875 
Q 13.875 18.65625 15.796875 14.5 
Q 17.71875 10.359375 21.1875 8.171875 
Q 24.65625 6 28.46875 6 
Q 34.03125 6 38.03125 10.484375 
Q 42.046875 14.984375 42.046875 22.703125 
Q 42.046875 30.125 38.078125 34.390625 
Q 34.125 38.671875 28.125 38.671875 
Q 22.171875 38.671875 18.015625 34.390625 
Q 13.875 30.125 13.875 23.1875 
z
" id="ArialMT-54"/>
       <path d="M 4.15625 18.75 
L 13.375 19.53125 
Q 14.40625 12.796875 18.140625 9.390625 
Q 21.875 6 27.15625 6 
Q 33.5 6 37.890625 10.78125 
Q 42.28125 15.578125 42.28125 23.484375 
Q 42.28125 31 38.0625 35.34375 
Q 33.84375 39.703125 27 39.703125 
Q 22.75 39.703125 19.328125 37.765625 
Q 15.921875 35.84375 13.96875 32.765625 
L 5.71875 33.84375 
L 12.640625 70.609375 
L 48.25 70.609375 
L 48.25 62.203125 
L 19.671875 62.203125 
L 15.828125 42.96875 
Q 22.265625 47.46875 29.34375 47.46875 
Q 38.71875 47.46875 45.15625 40.96875 
Q 51.609375 34.46875 51.609375 24.265625 
Q 51.609375 14.546875 45.953125 7.46875 
Q 39.0625 -1.21875 27.15625 -1.21875 
Q 17.390625 -1.21875 11.203125 4.25 
Q 5.03125 9.71875 4.15625 18.75 
z
" id="ArialMT-53"/>
       <path d="M 3.171875 21.484375 
L 3.171875 30.328125 
L 30.171875 30.328125 
L 30.171875 21.484375 
z
" id="ArialMT-45"/>
       <path d="M 50.34375 8.453125 
L 50.34375 0 
L 3.03125 0 
Q 2.9375 3.171875 4.046875 6.109375 
Q 5.859375 10.9375 9.828125 15.625 
Q 13.8125 20.3125 21.34375 26.46875 
Q 33.015625 36.03125 37.109375 41.625 
Q 41.21875 47.21875 41.21875 52.203125 
Q 41.21875 57.421875 37.46875 61 
Q 33.734375 64.59375 27.734375 64.59375 
Q 21.390625 64.59375 17.578125 60.78125 
Q 13.765625 56.984375 13.71875 50.25 
L 4.6875 51.171875 
Q 5.609375 61.28125 11.65625 66.578125 
Q 17.71875 71.875 27.9375 71.875 
Q 38.234375 71.875 44.234375 66.15625 
Q 50.25 60.453125 50.25 52 
Q 50.25 47.703125 48.484375 43.546875 
Q 46.734375 39.40625 42.65625 34.8125 
Q 38.578125 30.21875 29.109375 22.21875 
Q 21.1875 15.578125 18.9375 13.203125 
Q 16.703125 10.84375 15.234375 8.453125 
z
" id="ArialMT-50"/>
      </defs>
      <g style="fill:#262626;" transform="translate(99.899465 511.1565)scale(0.16 -0.16)">
       <use xlink:href="#ArialMT-48"/>
       <use x="55.615234" xlink:href="#ArialMT-54"/>
       <use x="111.230469" xlink:href="#ArialMT-53"/>
       <use x="166.845703" xlink:href="#ArialMT-54"/>
       <use x="222.460938" xlink:href="#ArialMT-45"/>
       <use x="255.761719" xlink:href="#ArialMT-50"/>
      </g>
     </g>
    </g>
    <g id="xtick_2">
     <g id="text_2">
      <!-- 0655-1 -->
      <defs>
       <path d="M 37.25 0 
L 28.46875 0 
L 28.46875 56 
Q 25.296875 52.984375 20.140625 49.953125 
Q 14.984375 46.921875 10.890625 45.40625 
L 10.890625 53.90625 
Q 18.265625 57.375 23.78125 62.296875 
Q 29.296875 67.234375 31.59375 71.875 
L 37.25 71.875 
z
" id="ArialMT-49"/>
      </defs>
      <g style="fill:#262626;" transform="translate(206.733394 511.1565)scale(0.16 -0.16)">
       <use xlink:href="#ArialMT-48"/>
       <use x="55.615234" xlink:href="#ArialMT-54"/>
       <use x="111.230469" xlink:href="#ArialMT-53"/>
       <use x="166.845703" xlink:href="#ArialMT-53"/>
       <use x="222.460938" xlink:href="#ArialMT-45"/>
       <use x="255.761719" xlink:href="#ArialMT-49"/>
      </g>
     </g>
    </g>
    <g id="xtick_3">
     <g id="text_3">
      <!-- 0655-2 -->
      <g style="fill:#262626;" transform="translate(313.567324 511.1565)scale(0.16 -0.16)">
       <use xlink:href="#ArialMT-48"/>
       <use x="55.615234" xlink:href="#ArialMT-54"/>
       <use x="111.230469" xlink:href="#ArialMT-53"/>
       <use x="166.845703" xlink:href="#ArialMT-53"/>
       <use x="222.460938" xlink:href="#ArialMT-45"/>
       <use x="255.761719" xlink:href="#ArialMT-50"/>
      </g>
     </g>
    </g>
    <g id="xtick_4">
     <g id="text_4">
      <!-- 0820-1 -->
      <defs>
       <path d="M 17.671875 38.8125 
Q 12.203125 40.828125 9.5625 44.53125 
Q 6.9375 48.25 6.9375 53.421875 
Q 6.9375 61.234375 12.546875 66.546875 
Q 18.171875 71.875 27.484375 71.875 
Q 36.859375 71.875 42.578125 66.421875 
Q 48.296875 60.984375 48.296875 53.171875 
Q 48.296875 48.1875 45.671875 44.5 
Q 43.0625 40.828125 37.75 38.8125 
Q 44.34375 36.671875 47.78125 31.875 
Q 51.21875 27.09375 51.21875 20.453125 
Q 51.21875 11.28125 44.71875 5.03125 
Q 38.234375 -1.21875 27.640625 -1.21875 
Q 17.046875 -1.21875 10.546875 5.046875 
Q 4.046875 11.328125 4.046875 20.703125 
Q 4.046875 27.6875 7.59375 32.390625 
Q 11.140625 37.109375 17.671875 38.8125 
z
M 15.921875 53.71875 
Q 15.921875 48.640625 19.1875 45.40625 
Q 22.46875 42.1875 27.6875 42.1875 
Q 32.765625 42.1875 36.015625 45.375 
Q 39.265625 48.578125 39.265625 53.21875 
Q 39.265625 58.0625 35.90625 61.359375 
Q 32.5625 64.65625 27.59375 64.65625 
Q 22.5625 64.65625 19.234375 61.421875 
Q 15.921875 58.203125 15.921875 53.71875 
z
M 13.09375 20.65625 
Q 13.09375 16.890625 14.875 13.375 
Q 16.65625 9.859375 20.171875 7.921875 
Q 23.6875 6 27.734375 6 
Q 34.03125 6 38.125 10.046875 
Q 42.234375 14.109375 42.234375 20.359375 
Q 42.234375 26.703125 38.015625 30.859375 
Q 33.796875 35.015625 27.4375 35.015625 
Q 21.234375 35.015625 17.15625 30.90625 
Q 13.09375 26.8125 13.09375 20.65625 
z
" id="ArialMT-56"/>
      </defs>
      <g style="fill:#262626;" transform="translate(420.401254 511.1565)scale(0.16 -0.16)">
       <use xlink:href="#ArialMT-48"/>
       <use x="55.615234" xlink:href="#ArialMT-56"/>
       <use x="111.230469" xlink:href="#ArialMT-50"/>
       <use x="166.845703" xlink:href="#ArialMT-48"/>
       <use x="222.460938" xlink:href="#ArialMT-45"/>
       <use x="255.761719" xlink:href="#ArialMT-49"/>
      </g>
     </g>
    </g>
    <g id="xtick_5">
     <g id="text_5">
      <!-- 0820-2 -->
      <g style="fill:#262626;" transform="translate(527.235183 511.1565)scale(0.16 -0.16)">
       <use xlink:href="#ArialMT-48"/>
       <use x="55.615234" xlink:href="#ArialMT-56"/>
       <use x="111.230469" xlink:href="#ArialMT-50"/>
       <use x="166.845703" xlink:href="#ArialMT-48"/>
       <use x="222.460938" xlink:href="#ArialMT-45"/>
       <use x="255.761719" xlink:href="#ArialMT-50"/>
      </g>
     </g>
    </g>
    <g id="text_6">
     <!-- Counter id -->
     <defs>
      <path d="M 58.796875 25.09375 
L 68.265625 22.703125 
Q 65.28125 11.03125 57.546875 4.90625 
Q 49.8125 -1.21875 38.625 -1.21875 
Q 27.046875 -1.21875 19.796875 3.484375 
Q 12.546875 8.203125 8.765625 17.140625 
Q 4.984375 26.078125 4.984375 36.328125 
Q 4.984375 47.515625 9.25 55.828125 
Q 13.53125 64.15625 21.40625 68.46875 
Q 29.296875 72.796875 38.765625 72.796875 
Q 49.515625 72.796875 56.828125 67.328125 
Q 64.15625 61.859375 67.046875 51.953125 
L 57.71875 49.75 
Q 55.21875 57.5625 50.484375 61.125 
Q 45.75 64.703125 38.578125 64.703125 
Q 30.328125 64.703125 24.78125 60.734375 
Q 19.234375 56.78125 16.984375 50.109375 
Q 14.75 43.453125 14.75 36.375 
Q 14.75 27.25 17.40625 20.4375 
Q 20.0625 13.625 25.671875 10.25 
Q 31.296875 6.890625 37.84375 6.890625 
Q 45.796875 6.890625 51.3125 11.46875 
Q 56.84375 16.0625 58.796875 25.09375 
z
" id="ArialMT-67"/>
      <path d="M 3.328125 25.921875 
Q 3.328125 40.328125 11.328125 47.265625 
Q 18.015625 53.03125 27.640625 53.03125 
Q 38.328125 53.03125 45.109375 46.015625 
Q 51.90625 39.015625 51.90625 26.65625 
Q 51.90625 16.65625 48.90625 10.90625 
Q 45.90625 5.171875 40.15625 2 
Q 34.421875 -1.171875 27.640625 -1.171875 
Q 16.75 -1.171875 10.03125 5.8125 
Q 3.328125 12.796875 3.328125 25.921875 
z
M 12.359375 25.921875 
Q 12.359375 15.96875 16.703125 11.015625 
Q 21.046875 6.0625 27.640625 6.0625 
Q 34.1875 6.0625 38.53125 11.03125 
Q 42.875 16.015625 42.875 26.21875 
Q 42.875 35.84375 38.5 40.796875 
Q 34.125 45.75 27.640625 45.75 
Q 21.046875 45.75 16.703125 40.8125 
Q 12.359375 35.890625 12.359375 25.921875 
z
" id="ArialMT-111"/>
      <path d="M 40.578125 0 
L 40.578125 7.625 
Q 34.515625 -1.171875 24.125 -1.171875 
Q 19.53125 -1.171875 15.546875 0.578125 
Q 11.578125 2.34375 9.640625 5 
Q 7.71875 7.671875 6.9375 11.53125 
Q 6.390625 14.109375 6.390625 19.734375 
L 6.390625 51.859375 
L 15.1875 51.859375 
L 15.1875 23.09375 
Q 15.1875 16.21875 15.71875 13.8125 
Q 16.546875 10.359375 19.234375 8.375 
Q 21.921875 6.390625 25.875 6.390625 
Q 29.828125 6.390625 33.296875 8.421875 
Q 36.765625 10.453125 38.203125 13.9375 
Q 39.65625 17.4375 39.65625 24.078125 
L 39.65625 51.859375 
L 48.4375 51.859375 
L 48.4375 0 
z
" id="ArialMT-117"/>
      <path d="M 6.59375 0 
L 6.59375 51.859375 
L 14.5 51.859375 
L 14.5 44.484375 
Q 20.21875 53.03125 31 53.03125 
Q 35.6875 53.03125 39.625 51.34375 
Q 43.5625 49.65625 45.515625 46.921875 
Q 47.46875 44.1875 48.25 40.4375 
Q 48.734375 37.984375 48.734375 31.890625 
L 48.734375 0 
L 39.9375 0 
L 39.9375 31.546875 
Q 39.9375 36.921875 38.90625 39.578125 
Q 37.890625 42.234375 35.28125 43.8125 
Q 32.671875 45.40625 29.15625 45.40625 
Q 23.53125 45.40625 19.453125 41.84375 
Q 15.375 38.28125 15.375 28.328125 
L 15.375 0 
z
" id="ArialMT-110"/>
      <path d="M 25.78125 7.859375 
L 27.046875 0.09375 
Q 23.34375 -0.6875 20.40625 -0.6875 
Q 15.625 -0.6875 12.984375 0.828125 
Q 10.359375 2.34375 9.28125 4.8125 
Q 8.203125 7.28125 8.203125 15.1875 
L 8.203125 45.015625 
L 1.765625 45.015625 
L 1.765625 51.859375 
L 8.203125 51.859375 
L 8.203125 64.703125 
L 16.9375 69.96875 
L 16.9375 51.859375 
L 25.78125 51.859375 
L 25.78125 45.015625 
L 16.9375 45.015625 
L 16.9375 14.703125 
Q 16.9375 10.9375 17.40625 9.859375 
Q 17.875 8.796875 18.921875 8.15625 
Q 19.96875 7.515625 21.921875 7.515625 
Q 23.390625 7.515625 25.78125 7.859375 
z
" id="ArialMT-116"/>
      <path d="M 42.09375 16.703125 
L 51.171875 15.578125 
Q 49.03125 7.625 43.21875 3.21875 
Q 37.40625 -1.171875 28.375 -1.171875 
Q 17 -1.171875 10.328125 5.828125 
Q 3.65625 12.84375 3.65625 25.484375 
Q 3.65625 38.578125 10.390625 45.796875 
Q 17.140625 53.03125 27.875 53.03125 
Q 38.28125 53.03125 44.875 45.953125 
Q 51.46875 38.875 51.46875 26.03125 
Q 51.46875 25.25 51.421875 23.6875 
L 12.75 23.6875 
Q 13.234375 15.140625 17.578125 10.59375 
Q 21.921875 6.0625 28.421875 6.0625 
Q 33.25 6.0625 36.671875 8.59375 
Q 40.09375 11.140625 42.09375 16.703125 
z
M 13.234375 30.90625 
L 42.1875 30.90625 
Q 41.609375 37.453125 38.875 40.71875 
Q 34.671875 45.796875 27.984375 45.796875 
Q 21.921875 45.796875 17.796875 41.75 
Q 13.671875 37.703125 13.234375 30.90625 
z
" id="ArialMT-101"/>
      <path d="M 6.5 0 
L 6.5 51.859375 
L 14.40625 51.859375 
L 14.40625 44 
Q 17.4375 49.515625 20 51.265625 
Q 22.5625 53.03125 25.640625 53.03125 
Q 30.078125 53.03125 34.671875 50.203125 
L 31.640625 42.046875 
Q 28.421875 43.953125 25.203125 43.953125 
Q 22.3125 43.953125 20.015625 42.21875 
Q 17.71875 40.484375 16.75 37.40625 
Q 15.28125 32.71875 15.28125 27.15625 
L 15.28125 0 
z
" id="ArialMT-114"/>
      <path id="ArialMT-32"/>
      <path d="M 6.640625 61.46875 
L 6.640625 71.578125 
L 15.4375 71.578125 
L 15.4375 61.46875 
z
M 6.640625 0 
L 6.640625 51.859375 
L 15.4375 51.859375 
L 15.4375 0 
z
" id="ArialMT-105"/>
      <path d="M 40.234375 0 
L 40.234375 6.546875 
Q 35.296875 -1.171875 25.734375 -1.171875 
Q 19.53125 -1.171875 14.328125 2.25 
Q 9.125 5.671875 6.265625 11.796875 
Q 3.421875 17.921875 3.421875 25.875 
Q 3.421875 33.640625 6 39.96875 
Q 8.59375 46.296875 13.765625 49.65625 
Q 18.953125 53.03125 25.34375 53.03125 
Q 30.03125 53.03125 33.6875 51.046875 
Q 37.359375 49.078125 39.65625 45.90625 
L 39.65625 71.578125 
L 48.390625 71.578125 
L 48.390625 0 
z
M 12.453125 25.875 
Q 12.453125 15.921875 16.640625 10.984375 
Q 20.84375 6.0625 26.5625 6.0625 
Q 32.328125 6.0625 36.34375 10.765625 
Q 40.375 15.484375 40.375 25.140625 
Q 40.375 35.796875 36.265625 40.765625 
Q 32.171875 45.75 26.171875 45.75 
Q 20.3125 45.75 16.375 40.96875 
Q 12.453125 36.1875 12.453125 25.875 
z
" id="ArialMT-100"/>
     </defs>
     <g style="fill:#262626;" transform="translate(301.567324 529.789)scale(0.16 -0.16)">
      <use xlink:href="#ArialMT-67"/>
      <use x="72.216797" xlink:href="#ArialMT-111"/>
      <use x="127.832031" xlink:href="#ArialMT-117"/>
      <use x="183.447266" xlink:href="#ArialMT-110"/>
      <use x="239.0625" xlink:href="#ArialMT-116"/>
      <use x="266.845703" xlink:href="#ArialMT-101"/>
      <use x="322.460938" xlink:href="#ArialMT-114"/>
      <use x="355.761719" xlink:href="#ArialMT-32"/>
      <use x="383.544922" xlink:href="#ArialMT-105"/>
      <use x="405.761719" xlink:href="#ArialMT-100"/>
     </g>
    </g>
   </g>
   <g id="matplotlib.axis_2">
    <g id="ytick_1">
     <g id="text_7">
      <!-- 0 -->
      <g style="fill:#262626;" transform="translate(55.4925 477.942102)scale(0.16 -0.16)">
       <use xlink:href="#ArialMT-48"/>
      </g>
     </g>
    </g>
    <g id="ytick_2">
     <g id="text_8">
      <!-- 200 -->
      <g style="fill:#262626;" transform="translate(37.6975 400.365208)scale(0.16 -0.16)">
       <use xlink:href="#ArialMT-50"/>
       <use x="55.615234" xlink:href="#ArialMT-48"/>
       <use x="111.230469" xlink:href="#ArialMT-48"/>
      </g>
     </g>
    </g>
    <g id="ytick_3">
     <g id="text_9">
      <!-- 400 -->
      <defs>
       <path d="M 32.328125 0 
L 32.328125 17.140625 
L 1.265625 17.140625 
L 1.265625 25.203125 
L 33.9375 71.578125 
L 41.109375 71.578125 
L 41.109375 25.203125 
L 50.78125 25.203125 
L 50.78125 17.140625 
L 41.109375 17.140625 
L 41.109375 0 
z
M 32.328125 25.203125 
L 32.328125 57.46875 
L 9.90625 25.203125 
z
" id="ArialMT-52"/>
      </defs>
      <g style="fill:#262626;" transform="translate(37.6975 322.788313)scale(0.16 -0.16)">
       <use xlink:href="#ArialMT-52"/>
       <use x="55.615234" xlink:href="#ArialMT-48"/>
       <use x="111.230469" xlink:href="#ArialMT-48"/>
      </g>
     </g>
    </g>
    <g id="ytick_4">
     <g id="text_10">
      <!-- 600 -->
      <g style="fill:#262626;" transform="translate(37.6975 245.211418)scale(0.16 -0.16)">
       <use xlink:href="#ArialMT-54"/>
       <use x="55.615234" xlink:href="#ArialMT-48"/>
       <use x="111.230469" xlink:href="#ArialMT-48"/>
      </g>
     </g>
    </g>
    <g id="ytick_5">
     <g id="text_11">
      <!-- 800 -->
      <g style="fill:#262626;" transform="translate(37.6975 167.634524)scale(0.16 -0.16)">
       <use xlink:href="#ArialMT-56"/>
       <use x="55.615234" xlink:href="#ArialMT-48"/>
       <use x="111.230469" xlink:href="#ArialMT-48"/>
      </g>
     </g>
    </g>
    <g id="ytick_6">
     <g id="text_12">
      <!-- 1000 -->
      <g style="fill:#262626;" transform="translate(28.8 90.057629)scale(0.16 -0.16)">
       <use xlink:href="#ArialMT-49"/>
       <use x="55.615234" xlink:href="#ArialMT-48"/>
       <use x="111.230469" xlink:href="#ArialMT-48"/>
       <use x="166.845703" xlink:href="#ArialMT-48"/>
      </g>
     </g>
    </g>
    <g id="text_13">
     <!-- Count [$h^{-1}$] -->
     <defs>
      <path d="M 6.78125 -19.875 
L 6.78125 71.578125 
L 26.171875 71.578125 
L 26.171875 64.3125 
L 15.578125 64.3125 
L 15.578125 -12.59375 
L 26.171875 -12.59375 
L 26.171875 -19.875 
z
" id="ArialMT-91"/>
      <path d="M 55.71875 33.015625 
L 49.3125 0 
L 40.28125 0 
L 46.6875 32.671875 
Q 47.125 34.96875 47.359375 36.71875 
Q 47.609375 38.484375 47.609375 39.5 
Q 47.609375 43.609375 45.015625 45.890625 
Q 42.4375 48.1875 37.796875 48.1875 
Q 30.5625 48.1875 25.265625 43.296875 
Q 19.96875 38.421875 18.40625 30.328125 
L 12.5 0 
L 3.515625 0 
L 18.3125 75.984375 
L 27.296875 75.984375 
L 21.484375 46.09375 
Q 24.90625 50.6875 30.21875 53.34375 
Q 35.546875 56 41.40625 56 
Q 48.640625 56 52.609375 52.09375 
Q 56.59375 48.1875 56.59375 41.109375 
Q 56.59375 39.359375 56.375 37.359375 
Q 56.15625 35.359375 55.71875 33.015625 
z
" id="DejaVuSans-Oblique-104"/>
      <path d="M 10.59375 35.5 
L 73.1875 35.5 
L 73.1875 27.203125 
L 10.59375 27.203125 
z
" id="DejaVuSans-8722"/>
      <path d="M 12.40625 8.296875 
L 28.515625 8.296875 
L 28.515625 63.921875 
L 10.984375 60.40625 
L 10.984375 69.390625 
L 28.421875 72.90625 
L 38.28125 72.90625 
L 38.28125 8.296875 
L 54.390625 8.296875 
L 54.390625 0 
L 12.40625 0 
z
" id="DejaVuSans-49"/>
      <path d="M 21.296875 -19.875 
L 1.90625 -19.875 
L 1.90625 -12.59375 
L 12.5 -12.59375 
L 12.5 64.3125 
L 1.90625 64.3125 
L 1.90625 71.578125 
L 21.296875 71.578125 
z
" id="ArialMT-93"/>
     </defs>
     <g style="fill:#262626;" transform="translate(21.6 292.112)rotate(-90)scale(0.16 -0.16)">
      <use transform="translate(0 0.684375)" xlink:href="#ArialMT-67"/>
      <use transform="translate(72.216797 0.684375)" xlink:href="#ArialMT-111"/>
      <use transform="translate(127.832031 0.684375)" xlink:href="#ArialMT-117"/>
      <use transform="translate(183.447266 0.684375)" xlink:href="#ArialMT-110"/>
      <use transform="translate(239.0625 0.684375)" xlink:href="#ArialMT-116"/>
      <use transform="translate(266.845703 0.684375)" xlink:href="#ArialMT-32"/>
      <use transform="translate(294.628906 0.684375)" xlink:href="#ArialMT-91"/>
      <use transform="translate(322.412109 0.684375)" xlink:href="#DejaVuSans-Oblique-104"/>
      <use transform="translate(393.238724 38.965625)scale(0.7)" xlink:href="#DejaVuSans-8722"/>
      <use transform="translate(451.891068 38.965625)scale(0.7)" xlink:href="#DejaVuSans-49"/>
      <use transform="translate(499.161576 0.684375)" xlink:href="#ArialMT-93"/>
     </g>
    </g>
   </g>
   <g id="PolyCollection_1">
    <defs>
     <path d="M 104.280598 -82.837087 
L 102.599759 -82.837087 
L 102.420646 -85.377304 
L 102.23216 -87.917521 
L 102.03919 -90.457738 
L 101.847215 -92.997955 
L 101.662262 -95.538172 
L 101.4907 -98.078389 
L 101.338759 -100.618606 
L 101.211719 -103.158823 
L 101.112869 -105.69904 
L 101.042445 -108.239257 
L 100.996901 -110.779474 
L 100.96884 -113.319691 
L 100.947798 -115.859908 
L 100.921811 -118.400125 
L 100.879343 -120.940342 
L 100.811009 -123.480559 
L 100.710513 -126.020776 
L 100.57455 -128.560993 
L 100.401809 -131.10121 
L 100.191547 -133.641427 
L 99.942304 -136.181644 
L 99.651168 -138.721861 
L 99.313669 -141.262078 
L 98.924142 -143.802295 
L 98.476331 -146.342512 
L 97.964087 -148.882729 
L 97.382223 -151.422946 
L 96.727659 -153.963163 
L 96.000858 -156.50338 
L 95.207313 -159.043597 
L 94.358523 -161.583814 
L 93.471855 -164.124031 
L 92.568892 -166.664248 
L 91.672415 -169.204465 
L 90.802692 -171.744682 
L 89.97418 -174.284899 
L 89.193676 -176.825116 
L 88.460518 -179.365333 
L 87.768788 -181.90555 
L 87.110792 -184.445767 
L 86.480825 -186.985984 
L 85.878198 -189.526201 
L 85.308795 -192.066418 
L 84.784772 -194.606635 
L 84.322365 -197.146852 
L 83.938145 -199.687069 
L 83.644482 -202.227286 
L 83.445409 -204.767503 
L 83.334247 -207.30772 
L 83.294117 -209.847937 
L 83.301645 -212.388154 
L 83.33307 -214.928371 
L 83.370966 -217.468588 
L 83.409436 -220.008805 
L 83.456059 -222.549022 
L 83.52997 -225.089239 
L 83.656791 -227.629456 
L 83.862062 -230.169673 
L 84.165173 -232.70989 
L 84.575391 -235.250107 
L 85.090763 -237.790324 
L 85.699732 -240.330541 
L 86.3846 -242.870758 
L 87.125609 -245.410975 
L 87.904463 -247.951192 
L 88.70649 -250.491409 
L 89.521217 -253.031625 
L 90.341707 -255.571842 
L 91.163314 -258.112059 
L 91.982557 -260.652276 
L 92.796433 -263.192493 
L 93.602132 -265.73271 
L 94.396804 -268.272927 
L 95.177107 -270.813144 
L 95.93853 -273.353361 
L 96.674781 -275.893578 
L 97.377673 -278.433795 
L 98.037744 -280.974012 
L 98.645555 -283.514229 
L 99.193286 -286.054446 
L 99.676145 -288.594663 
L 100.093179 -291.13488 
L 100.44736 -293.675097 
L 100.745031 -296.215314 
L 100.994966 -298.755531 
L 101.207275 -301.295748 
L 101.392295 -303.835965 
L 101.559537 -306.376182 
L 101.716722 -308.916399 
L 101.86904 -311.456616 
L 102.018805 -313.996833 
L 102.165678 -316.53705 
L 102.307479 -319.077267 
L 102.441389 -321.617484 
L 102.565147 -324.157701 
L 102.677855 -326.697918 
L 102.780121 -329.238135 
L 102.873578 -331.778352 
L 102.960058 -334.318569 
L 103.920299 -334.318569 
L 103.920299 -334.318569 
L 104.006779 -331.778352 
L 104.100237 -329.238135 
L 104.202503 -326.697918 
L 104.315211 -324.157701 
L 104.438969 -321.617484 
L 104.572879 -319.077267 
L 104.71468 -316.53705 
L 104.861553 -313.996833 
L 105.011318 -311.456616 
L 105.163636 -308.916399 
L 105.320821 -306.376182 
L 105.488063 -303.835965 
L 105.673083 -301.295748 
L 105.885391 -298.755531 
L 106.135327 -296.215314 
L 106.432998 -293.675097 
L 106.787178 -291.13488 
L 107.204213 -288.594663 
L 107.687072 -286.054446 
L 108.234803 -283.514229 
L 108.842614 -280.974012 
L 109.502684 -278.433795 
L 110.205577 -275.893578 
L 110.941828 -273.353361 
L 111.70325 -270.813144 
L 112.483554 -268.272927 
L 113.278225 -265.73271 
L 114.083924 -263.192493 
L 114.897801 -260.652276 
L 115.717043 -258.112059 
L 116.538651 -255.571842 
L 117.35914 -253.031625 
L 118.173868 -250.491409 
L 118.975894 -247.951192 
L 119.754749 -245.410975 
L 120.495758 -242.870758 
L 121.180626 -240.330541 
L 121.789595 -237.790324 
L 122.304967 -235.250107 
L 122.715185 -232.70989 
L 123.018295 -230.169673 
L 123.223566 -227.629456 
L 123.350388 -225.089239 
L 123.424299 -222.549022 
L 123.470922 -220.008805 
L 123.509392 -217.468588 
L 123.547288 -214.928371 
L 123.578713 -212.388154 
L 123.586241 -209.847937 
L 123.546111 -207.30772 
L 123.434949 -204.767503 
L 123.235876 -202.227286 
L 122.942213 -199.687069 
L 122.557993 -197.146852 
L 122.095586 -194.606635 
L 121.571563 -192.066418 
L 121.002159 -189.526201 
L 120.399533 -186.985984 
L 119.769566 -184.445767 
L 119.11157 -181.90555 
L 118.41984 -179.365333 
L 117.686682 -176.825116 
L 116.906178 -174.284899 
L 116.077666 -171.744682 
L 115.207943 -169.204465 
L 114.311466 -166.664248 
L 113.408503 -164.124031 
L 112.521834 -161.583814 
L 111.673045 -159.043597 
L 110.879499 -156.50338 
L 110.152699 -153.963163 
L 109.498134 -151.422946 
L 108.916271 -148.882729 
L 108.404027 -146.342512 
L 107.956216 -143.802295 
L 107.566689 -141.262078 
L 107.229189 -138.721861 
L 106.938054 -136.181644 
L 106.688811 -133.641427 
L 106.478548 -131.10121 
L 106.305808 -128.560993 
L 106.169845 -126.020776 
L 106.069349 -123.480559 
L 106.001015 -120.940342 
L 105.958547 -118.400125 
L 105.932559 -115.859908 
L 105.911518 -113.319691 
L 105.883457 -110.779474 
L 105.837913 -108.239257 
L 105.767489 -105.69904 
L 105.668639 -103.158823 
L 105.541599 -100.618606 
L 105.389657 -98.078389 
L 105.218096 -95.538172 
L 105.033143 -92.997955 
L 104.841168 -90.457738 
L 104.648198 -87.917521 
L 104.459712 -85.377304 
L 104.280598 -82.837087 
z
" id="mdb10ec4575" style="stroke:#141414;stroke-width:1.5;"/>
    </defs>
    <g clip-path="url(#pbb23533faa)">
     <use style="fill:#083c1d;stroke:#141414;stroke-width:1.5;" x="0" xlink:href="#mdb10ec4575" y="540.169"/>
    </g>
   </g>
   <g id="PolyCollection_2">
    <defs>
     <path d="M 147.446413 -83.35187 
L 144.901089 -83.35187 
L 144.653756 -85.934795 
L 144.409527 -88.517721 
L 144.176055 -91.100647 
L 143.958752 -93.683572 
L 143.761067 -96.266498 
L 143.58521 -98.849424 
L 143.432782 -101.432349 
L 143.304977 -104.015275 
L 143.202292 -106.598201 
L 143.124049 -109.181126 
L 143.068107 -111.764052 
L 143.031002 -114.346977 
L 143.008468 -116.929903 
L 142.996038 -119.512829 
L 142.989423 -122.095754 
L 142.98446 -124.67868 
L 142.976665 -127.261606 
L 142.960556 -129.844531 
L 142.928931 -132.427457 
L 142.872277 -135.010383 
L 142.778457 -137.593308 
L 142.632863 -140.176234 
L 142.419225 -142.75916 
L 142.121199 -145.342085 
L 141.72466 -147.925011 
L 141.220295 -150.507937 
L 140.605872 -153.090862 
L 139.887399 -155.673788 
L 139.078593 -158.256713 
L 138.198532 -160.839639 
L 137.267976 -163.422565 
L 136.305461 -166.00549 
L 135.324512 -168.588416 
L 134.333101 -171.171342 
L 133.335699 -173.754267 
L 132.337235 -176.337193 
L 131.34735 -178.920119 
L 130.382986 -181.503044 
L 129.467809 -184.08597 
L 128.628168 -186.668896 
L 127.886773 -189.251821 
L 127.256372 -191.834747 
L 126.735988 -194.417673 
L 126.311422 -197.000598 
L 125.960177 -199.583524 
L 125.659224 -202.16645 
L 125.392972 -204.749375 
L 125.158707 -207.332301 
L 124.967722 -209.915226 
L 124.841888 -212.498152 
L 124.806965 -215.081078 
L 124.884907 -217.664003 
L 125.087636 -220.246929 
L 125.414119 -222.829855 
L 125.851457 -225.41278 
L 126.379335 -227.995706 
L 126.976118 -230.578632 
L 127.624411 -233.161557 
L 128.314205 -235.744483 
L 129.042759 -238.327409 
L 129.811564 -240.910334 
L 130.621802 -243.49326 
L 131.470034 -246.076186 
L 132.345603 -248.659111 
L 133.230467 -251.242037 
L 134.101437 -253.824962 
L 134.934134 -256.407888 
L 135.707659 -258.990814 
L 136.408816 -261.573739 
L 137.034742 -264.156665 
L 137.593133 -266.739591 
L 138.099834 -269.322516 
L 138.574392 -271.905442 
L 139.034887 -274.488368 
L 139.493676 -277.071293 
L 139.955339 -279.654219 
L 140.417305 -282.237145 
L 140.872597 -284.82007 
L 141.313473 -287.402996 
L 141.734545 -289.985922 
L 142.134392 -292.568847 
L 142.515373 -295.151773 
L 142.882048 -297.734699 
L 143.239005 -300.317624 
L 143.588948 -302.90055 
L 143.931582 -305.483475 
L 144.263525 -308.066401 
L 144.579049 -310.649327 
L 144.871348 -313.232252 
L 145.133921 -315.815178 
L 145.361761 -318.398104 
L 145.552152 -320.981029 
L 145.70499 -323.563955 
L 145.82266 -326.146881 
L 145.909543 -328.729806 
L 145.971309 -331.312732 
L 146.014106 -333.895658 
L 146.043799 -336.478583 
L 146.065359 -339.061509 
L 146.282143 -339.061509 
L 146.282143 -339.061509 
L 146.303702 -336.478583 
L 146.333395 -333.895658 
L 146.376192 -331.312732 
L 146.437958 -328.729806 
L 146.524842 -326.146881 
L 146.642511 -323.563955 
L 146.79535 -320.981029 
L 146.98574 -318.398104 
L 147.21358 -315.815178 
L 147.476153 -313.232252 
L 147.768453 -310.649327 
L 148.083977 -308.066401 
L 148.415919 -305.483475 
L 148.758554 -302.90055 
L 149.108496 -300.317624 
L 149.465454 -297.734699 
L 149.832128 -295.151773 
L 150.21311 -292.568847 
L 150.612957 -289.985922 
L 151.034028 -287.402996 
L 151.474904 -284.82007 
L 151.930197 -282.237145 
L 152.392163 -279.654219 
L 152.853826 -277.071293 
L 153.312614 -274.488368 
L 153.773109 -271.905442 
L 154.247668 -269.322516 
L 154.754369 -266.739591 
L 155.31276 -264.156665 
L 155.938685 -261.573739 
L 156.639842 -258.990814 
L 157.413368 -256.407888 
L 158.246064 -253.824962 
L 159.117035 -251.242037 
L 160.001899 -248.659111 
L 160.877467 -246.076186 
L 161.7257 -243.49326 
L 162.535938 -240.910334 
L 163.304743 -238.327409 
L 164.033296 -235.744483 
L 164.723091 -233.161557 
L 165.371383 -230.578632 
L 165.968167 -227.995706 
L 166.496045 -225.41278 
L 166.933383 -222.829855 
L 167.259866 -220.246929 
L 167.462594 -217.664003 
L 167.540537 -215.081078 
L 167.505614 -212.498152 
L 167.37978 -209.915226 
L 167.188794 -207.332301 
L 166.954529 -204.749375 
L 166.688277 -202.16645 
L 166.387324 -199.583524 
L 166.03608 -197.000598 
L 165.611514 -194.417673 
L 165.091129 -191.834747 
L 164.460728 -189.251821 
L 163.719333 -186.668896 
L 162.879693 -184.08597 
L 161.964515 -181.503044 
L 161.000151 -178.920119 
L 160.010267 -176.337193 
L 159.011803 -173.754267 
L 158.014401 -171.171342 
L 157.02299 -168.588416 
L 156.042041 -166.00549 
L 155.079525 -163.422565 
L 154.148969 -160.839639 
L 153.268908 -158.256713 
L 152.460103 -155.673788 
L 151.74163 -153.090862 
L 151.127207 -150.507937 
L 150.622842 -147.925011 
L 150.226302 -145.342085 
L 149.928277 -142.75916 
L 149.714639 -140.176234 
L 149.569045 -137.593308 
L 149.475225 -135.010383 
L 149.418571 -132.427457 
L 149.386946 -129.844531 
L 149.370837 -127.261606 
L 149.363042 -124.67868 
L 149.358078 -122.095754 
L 149.351463 -119.512829 
L 149.339034 -116.929903 
L 149.316499 -114.346977 
L 149.279395 -111.764052 
L 149.223452 -109.181126 
L 149.145209 -106.598201 
L 149.042524 -104.015275 
L 148.91472 -101.432349 
L 148.762292 -98.849424 
L 148.586434 -96.266498 
L 148.388749 -93.683572 
L 148.171446 -91.100647 
L 147.937975 -88.517721 
L 147.693746 -85.934795 
L 147.446413 -83.35187 
z
" id="m5412729e30" style="stroke:#141414;stroke-width:1.5;"/>
    </defs>
    <g clip-path="url(#pbb23533faa)">
     <use style="fill:#0e5f2f;stroke:#141414;stroke-width:1.5;" x="0" xlink:href="#m5412729e30" y="540.169"/>
    </g>
   </g>
   <g id="PolyCollection_3">
    <defs>
     <path d="M 211.097682 -69.533364 
L 209.450536 -69.533364 
L 209.197405 -73.991619 
L 208.892892 -78.449874 
L 208.535064 -82.908129 
L 208.124548 -87.366385 
L 207.664918 -91.82464 
L 207.162756 -96.282895 
L 206.627322 -100.741151 
L 206.069798 -105.199406 
L 205.502135 -109.657661 
L 204.935627 -114.115916 
L 204.379402 -118.574172 
L 203.839108 -123.032427 
L 203.316082 -127.490682 
L 202.80724 -131.948938 
L 202.30576 -136.407193 
L 201.802463 -140.865448 
L 201.287603 -145.323703 
L 200.752701 -149.781959 
L 200.192066 -154.240214 
L 199.603739 -158.698469 
L 198.989755 -163.156725 
L 198.355728 -167.61498 
L 197.709861 -172.073235 
L 197.061572 -176.53149 
L 196.419948 -180.989746 
L 195.792335 -185.448001 
L 195.183363 -189.906256 
L 194.594674 -194.364511 
L 194.025465 -198.822767 
L 193.473753 -203.281022 
L 192.938064 -207.739277 
L 192.419124 -212.197533 
L 191.921133 -216.655788 
L 191.452278 -221.114043 
L 191.024333 -225.572298 
L 190.651354 -230.030554 
L 190.347624 -234.488809 
L 190.125178 -238.947064 
L 189.99137 -243.40532 
L 189.947019 -247.863575 
L 189.985663 -252.32183 
L 190.094222 -256.780085 
L 190.255056 -261.238341 
L 190.448958 -265.696596 
L 190.658389 -270.154851 
L 190.870157 -274.613107 
L 191.076987 -279.071362 
L 191.277817 -283.529617 
L 191.477032 -287.987872 
L 191.683128 -292.446128 
L 191.907258 -296.904383 
L 192.161947 -301.362638 
L 192.459997 -305.820893 
L 192.813431 -310.279149 
L 193.23233 -314.737404 
L 193.723521 -319.195659 
L 194.289278 -323.653915 
L 194.926287 -328.11217 
L 195.625144 -332.570425 
L 196.37056 -337.02868 
L 197.142347 -341.486936 
L 197.917119 -345.945191 
L 198.670575 -350.403446 
L 199.380141 -354.861702 
L 200.027637 -359.319957 
L 200.60157 -363.778212 
L 201.098629 -368.236467 
L 201.52403 -372.694723 
L 201.890574 -377.152978 
L 202.216524 -381.611233 
L 202.522685 -386.069489 
L 202.829197 -390.527744 
L 203.152624 -394.985999 
L 203.503789 -399.444254 
L 203.886662 -403.90251 
L 204.298364 -408.360765 
L 204.730195 -412.81902 
L 205.169412 -417.277275 
L 205.601435 -421.735531 
L 206.012096 -426.193786 
L 206.389584 -430.652041 
L 206.725818 -435.110297 
L 207.017096 -439.568552 
L 207.263973 -444.026807 
L 207.470514 -448.485062 
L 207.643121 -452.943318 
L 207.789226 -457.401573 
L 207.91613 -461.859828 
L 208.030189 -466.318084 
L 208.136464 -470.776339 
L 208.238805 -475.234594 
L 208.340233 -479.692849 
L 208.443392 -484.151105 
L 208.550855 -488.60936 
L 208.665126 -493.067615 
L 208.788316 -497.525871 
L 208.921588 -501.984126 
L 209.064607 -506.442381 
L 209.215202 -510.900636 
L 211.333015 -510.900636 
L 211.333015 -510.900636 
L 211.48361 -506.442381 
L 211.626629 -501.984126 
L 211.759901 -497.525871 
L 211.883091 -493.067615 
L 211.997362 -488.60936 
L 212.104825 -484.151105 
L 212.207984 -479.692849 
L 212.309412 -475.234594 
L 212.411754 -470.776339 
L 212.518028 -466.318084 
L 212.632087 -461.859828 
L 212.758991 -457.401573 
L 212.905096 -452.943318 
L 213.077703 -448.485062 
L 213.284244 -444.026807 
L 213.531121 -439.568552 
L 213.822399 -435.110297 
L 214.158633 -430.652041 
L 214.536121 -426.193786 
L 214.946782 -421.735531 
L 215.378805 -417.277275 
L 215.818022 -412.81902 
L 216.249853 -408.360765 
L 216.661555 -403.90251 
L 217.044428 -399.444254 
L 217.395593 -394.985999 
L 217.71902 -390.527744 
L 218.025532 -386.069489 
L 218.331693 -381.611233 
L 218.657643 -377.152978 
L 219.024187 -372.694723 
L 219.449589 -368.236467 
L 219.946648 -363.778212 
L 220.52058 -359.319957 
L 221.168076 -354.861702 
L 221.877642 -350.403446 
L 222.631098 -345.945191 
L 223.40587 -341.486936 
L 224.177657 -337.02868 
L 224.923073 -332.570425 
L 225.62193 -328.11217 
L 226.258939 -323.653915 
L 226.824696 -319.195659 
L 227.315887 -314.737404 
L 227.734786 -310.279149 
L 228.08822 -305.820893 
L 228.38627 -301.362638 
L 228.640959 -296.904383 
L 228.865089 -292.446128 
L 229.071185 -287.987872 
L 229.2704 -283.529617 
L 229.47123 -279.071362 
L 229.67806 -274.613107 
L 229.889828 -270.154851 
L 230.099259 -265.696596 
L 230.293161 -261.238341 
L 230.453995 -256.780085 
L 230.562554 -252.32183 
L 230.601198 -247.863575 
L 230.556847 -243.40532 
L 230.423039 -238.947064 
L 230.200594 -234.488809 
L 229.896863 -230.030554 
L 229.523884 -225.572298 
L 229.095939 -221.114043 
L 228.627084 -216.655788 
L 228.129093 -212.197533 
L 227.610154 -207.739277 
L 227.074464 -203.281022 
L 226.522752 -198.822767 
L 225.953543 -194.364511 
L 225.364854 -189.906256 
L 224.755882 -185.448001 
L 224.128269 -180.989746 
L 223.486645 -176.53149 
L 222.838356 -172.073235 
L 222.192489 -167.61498 
L 221.558462 -163.156725 
L 220.944478 -158.698469 
L 220.356151 -154.240214 
L 219.795516 -149.781959 
L 219.260614 -145.323703 
L 218.745754 -140.865448 
L 218.242457 -136.407193 
L 217.740977 -131.948938 
L 217.232135 -127.490682 
L 216.709109 -123.032427 
L 216.168815 -118.574172 
L 215.61259 -114.115916 
L 215.046082 -109.657661 
L 214.478419 -105.199406 
L 213.920895 -100.741151 
L 213.385461 -96.282895 
L 212.883299 -91.82464 
L 212.423669 -87.366385 
L 212.013154 -82.908129 
L 211.655325 -78.449874 
L 211.350813 -73.991619 
L 211.097682 -69.533364 
z
" id="m96321aff33" style="stroke:#141414;stroke-width:1.5;"/>
    </defs>
    <g clip-path="url(#pbb23533faa)">
     <use style="fill:#083c1d;stroke:#141414;stroke-width:1.5;" x="0" xlink:href="#m96321aff33" y="540.169"/>
    </g>
   </g>
   <g id="PolyCollection_4">
    <defs>
     <path d="M 254.444219 -73.448559 
L 251.571142 -73.448559 
L 251.221791 -77.79368 
L 250.838802 -82.1388 
L 250.429246 -86.48392 
L 250.000329 -90.82904 
L 249.558357 -95.17416 
L 249.107945 -99.51928 
L 248.651617 -103.8644 
L 248.189867 -108.20952 
L 247.721647 -112.554641 
L 247.245146 -116.899761 
L 246.758657 -121.244881 
L 246.261313 -125.590001 
L 245.75344 -129.935121 
L 245.236392 -134.280241 
L 244.711771 -138.625361 
L 244.180158 -142.970482 
L 243.639592 -147.315602 
L 243.084266 -151.660722 
L 242.503959 -156.005842 
L 241.884712 -160.350962 
L 241.211017 -164.696082 
L 240.46936 -169.041202 
L 239.652461 -173.386322 
L 238.763134 -177.731443 
L 237.816544 -182.076563 
L 236.83995 -186.421683 
L 235.869674 -190.766803 
L 234.945865 -195.111923 
L 234.106318 -199.457043 
L 233.38088 -203.802163 
L 232.787715 -208.147284 
L 232.332074 -212.492404 
L 232.007452 -216.837524 
L 231.798377 -221.182644 
L 231.683896 -225.527764 
L 231.640894 -229.872884 
L 231.64674 -234.218004 
L 231.681128 -238.563124 
L 231.727216 -242.908245 
L 231.772198 -247.253365 
L 231.807458 -251.598485 
L 231.828339 -255.943605 
L 231.833639 -260.288725 
L 231.824975 -264.633845 
L 231.806296 -268.978965 
L 231.783785 -273.324086 
L 231.766236 -277.669206 
L 231.765741 -282.014326 
L 231.798205 -286.359446 
L 231.883122 -290.704566 
L 232.042154 -295.049686 
L 232.296459 -299.394806 
L 232.663204 -303.739926 
L 233.152159 -308.085047 
L 233.763382 -312.430167 
L 234.48679 -316.775287 
L 235.303861 -321.120407 
L 236.19106 -325.465527 
L 237.124007 -329.810647 
L 238.081243 -334.155767 
L 239.046629 -338.500888 
L 240.009924 -342.846008 
L 240.965717 -347.191128 
L 241.911367 -351.536248 
L 242.844791 -355.881368 
L 243.762798 -360.226488 
L 244.660325 -364.571608 
L 245.530542 -368.916728 
L 246.365521 -373.261849 
L 247.157097 -377.606969 
L 247.897615 -381.952089 
L 248.580437 -386.297209 
L 249.200191 -390.642329 
L 249.752862 -394.987449 
L 250.23579 -399.332569 
L 250.647681 -403.67769 
L 250.988634 -408.02281 
L 251.260215 -412.36793 
L 251.465554 -416.71305 
L 251.609427 -421.05817 
L 251.69827 -425.40329 
L 251.740068 -429.74841 
L 251.744081 -434.09353 
L 251.720422 -438.438651 
L 251.679533 -442.783771 
L 251.631635 -447.128891 
L 251.586228 -451.474011 
L 251.551647 -455.819131 
L 251.534692 -460.164251 
L 251.540291 -464.509371 
L 251.571222 -468.854491 
L 251.627942 -473.199612 
L 251.708614 -477.544732 
L 251.809396 -481.889852 
L 251.924994 -486.234972 
L 252.049399 -490.580092 
L 252.176649 -494.925212 
L 252.301461 -499.270332 
L 252.419617 -503.615453 
L 253.595744 -503.615453 
L 253.595744 -503.615453 
L 253.7139 -499.270332 
L 253.838712 -494.925212 
L 253.965962 -490.580092 
L 254.090367 -486.234972 
L 254.205964 -481.889852 
L 254.306746 -477.544732 
L 254.387419 -473.199612 
L 254.444139 -468.854491 
L 254.47507 -464.509371 
L 254.480668 -460.164251 
L 254.463714 -455.819131 
L 254.429133 -451.474011 
L 254.383726 -447.128891 
L 254.335828 -442.783771 
L 254.294939 -438.438651 
L 254.27128 -434.09353 
L 254.275293 -429.74841 
L 254.317091 -425.40329 
L 254.405934 -421.05817 
L 254.549807 -416.71305 
L 254.755145 -412.36793 
L 255.026727 -408.02281 
L 255.36768 -403.67769 
L 255.779571 -399.332569 
L 256.262499 -394.987449 
L 256.815169 -390.642329 
L 257.434924 -386.297209 
L 258.117746 -381.952089 
L 258.858264 -377.606969 
L 259.64984 -373.261849 
L 260.484819 -368.916728 
L 261.355036 -364.571608 
L 262.252563 -360.226488 
L 263.170569 -355.881368 
L 264.103994 -351.536248 
L 265.049644 -347.191128 
L 266.005437 -342.846008 
L 266.968732 -338.500888 
L 267.934118 -334.155767 
L 268.891354 -329.810647 
L 269.8243 -325.465527 
L 270.7115 -321.120407 
L 271.528571 -316.775287 
L 272.251978 -312.430167 
L 272.863201 -308.085047 
L 273.352157 -303.739926 
L 273.718902 -299.394806 
L 273.973207 -295.049686 
L 274.132239 -290.704566 
L 274.217156 -286.359446 
L 274.249619 -282.014326 
L 274.249124 -277.669206 
L 274.231576 -273.324086 
L 274.209065 -268.978965 
L 274.190386 -264.633845 
L 274.181722 -260.288725 
L 274.187022 -255.943605 
L 274.207903 -251.598485 
L 274.243162 -247.253365 
L 274.288145 -242.908245 
L 274.334232 -238.563124 
L 274.368621 -234.218004 
L 274.374466 -229.872884 
L 274.331464 -225.527764 
L 274.216984 -221.182644 
L 274.007909 -216.837524 
L 273.683286 -212.492404 
L 273.227646 -208.147284 
L 272.63448 -203.802163 
L 271.909043 -199.457043 
L 271.069496 -195.111923 
L 270.145687 -190.766803 
L 269.175411 -186.421683 
L 268.198817 -182.076563 
L 267.252226 -177.731443 
L 266.362899 -173.386322 
L 265.546001 -169.041202 
L 264.804343 -164.696082 
L 264.130649 -160.350962 
L 263.511402 -156.005842 
L 262.931095 -151.660722 
L 262.375769 -147.315602 
L 261.835203 -142.970482 
L 261.303589 -138.625361 
L 260.778969 -134.280241 
L 260.261921 -129.935121 
L 259.754048 -125.590001 
L 259.256703 -121.244881 
L 258.770215 -116.899761 
L 258.293713 -112.554641 
L 257.825494 -108.20952 
L 257.363744 -103.8644 
L 256.907415 -99.51928 
L 256.457004 -95.17416 
L 256.015032 -90.82904 
L 255.586115 -86.48392 
L 255.176559 -82.1388 
L 254.79357 -77.79368 
L 254.444219 -73.448559 
z
" id="mc638c21d87" style="stroke:#141414;stroke-width:1.5;"/>
    </defs>
    <g clip-path="url(#pbb23533faa)">
     <use style="fill:#0e5f2f;stroke:#141414;stroke-width:1.5;" x="0" xlink:href="#mc638c21d87" y="540.169"/>
    </g>
   </g>
   <g id="PolyCollection_5">
    <defs>
     <path d="M 318.359984 -71.640318 
L 315.856093 -71.640318 
L 315.540237 -76.052864 
L 315.181887 -80.46541 
L 314.781557 -84.877956 
L 314.340701 -89.290502 
L 313.862259 -93.703047 
L 313.351221 -98.115593 
L 312.814915 -102.528139 
L 312.262708 -106.940685 
L 311.705019 -111.353231 
L 311.151772 -115.765777 
L 310.610661 -120.178323 
L 310.085724 -124.590869 
L 309.576617 -129.003414 
L 309.07879 -133.41596 
L 308.584488 -137.828506 
L 308.084292 -142.241052 
L 307.568874 -146.653598 
L 307.030651 -151.066144 
L 306.465185 -155.47869 
L 305.872218 -159.891236 
L 305.256282 -164.303781 
L 304.6268 -168.716327 
L 303.997552 -173.128873 
L 303.385467 -177.541419 
L 302.808841 -181.953965 
L 302.285266 -186.366511 
L 301.829707 -190.779057 
L 301.453156 -195.191602 
L 301.162114 -199.604148 
L 300.95885 -204.016694 
L 300.84211 -208.42924 
L 300.807847 -212.841786 
L 300.849616 -217.254332 
L 300.958604 -221.666878 
L 301.123526 -226.079424 
L 301.330805 -230.491969 
L 301.565329 -234.904515 
L 301.811856 -239.317061 
L 302.056795 -243.729607 
L 302.289946 -248.142153 
L 302.505756 -252.554699 
L 302.703871 -256.967245 
L 302.888964 -261.37979 
L 303.069969 -265.792336 
L 303.258918 -270.204882 
L 303.46951 -274.617428 
L 303.71549 -279.029974 
L 304.0089 -283.44252 
L 304.358349 -287.855066 
L 304.767501 -292.267612 
L 305.234086 -296.680157 
L 305.749725 -301.092703 
L 306.300743 -305.505249 
L 306.869969 -309.917795 
L 307.439245 -314.330341 
L 307.992167 -318.742887 
L 308.516465 -323.155433 
L 309.005458 -327.567978 
L 309.458273 -331.980524 
L 309.878821 -336.39307 
L 310.273894 -340.805616 
L 310.650948 -345.218162 
L 311.016201 -349.630708 
L 311.373484 -354.043254 
L 311.724007 -358.4558 
L 312.066877 -362.868345 
L 312.399996 -367.280891 
L 312.720939 -371.693437 
L 313.027512 -376.105983 
L 313.317898 -380.518529 
L 313.590487 -384.931075 
L 313.843625 -389.343621 
L 314.075487 -393.756166 
L 314.284242 -398.168712 
L 314.468482 -402.581258 
L 314.627824 -406.993804 
L 314.76345 -411.40635 
L 314.878406 -415.818896 
L 314.977488 -420.231442 
L 315.066677 -424.643988 
L 315.152241 -429.056533 
L 315.239673 -433.469079 
L 315.332758 -437.881625 
L 315.432987 -442.294171 
L 315.539464 -446.706717 
L 315.649323 -451.119263 
L 315.758497 -455.531809 
L 315.862654 -459.944354 
L 315.958055 -464.3569 
L 316.042198 -468.769446 
L 316.114168 -473.181992 
L 316.174714 -477.594538 
L 316.226074 -482.007084 
L 316.271623 -486.41963 
L 316.315351 -490.832176 
L 316.361237 -495.244721 
L 316.412571 -499.657267 
L 316.471361 -504.069813 
L 316.537947 -508.482359 
L 317.678129 -508.482359 
L 317.678129 -508.482359 
L 317.744715 -504.069813 
L 317.803505 -499.657267 
L 317.854839 -495.244721 
L 317.900725 -490.832176 
L 317.944453 -486.41963 
L 317.990002 -482.007084 
L 318.041362 -477.594538 
L 318.101908 -473.181992 
L 318.173879 -468.769446 
L 318.258021 -464.3569 
L 318.353422 -459.944354 
L 318.457579 -455.531809 
L 318.566754 -451.119263 
L 318.676613 -446.706717 
L 318.78309 -442.294171 
L 318.883318 -437.881625 
L 318.976403 -433.469079 
L 319.063835 -429.056533 
L 319.149399 -424.643988 
L 319.238589 -420.231442 
L 319.33767 -415.818896 
L 319.452627 -411.40635 
L 319.588253 -406.993804 
L 319.747594 -402.581258 
L 319.931835 -398.168712 
L 320.140589 -393.756166 
L 320.372452 -389.343621 
L 320.625589 -384.931075 
L 320.898178 -380.518529 
L 321.188564 -376.105983 
L 321.495137 -371.693437 
L 321.81608 -367.280891 
L 322.149199 -362.868345 
L 322.492069 -358.4558 
L 322.842593 -354.043254 
L 323.199876 -349.630708 
L 323.565128 -345.218162 
L 323.942182 -340.805616 
L 324.337255 -336.39307 
L 324.757803 -331.980524 
L 325.210618 -327.567978 
L 325.699611 -323.155433 
L 326.223909 -318.742887 
L 326.776832 -314.330341 
L 327.346107 -309.917795 
L 327.915333 -305.505249 
L 328.466351 -301.092703 
L 328.98199 -296.680157 
L 329.448575 -292.267612 
L 329.857727 -287.855066 
L 330.207176 -283.44252 
L 330.500587 -279.029974 
L 330.746566 -274.617428 
L 330.957159 -270.204882 
L 331.146108 -265.792336 
L 331.327112 -261.37979 
L 331.512205 -256.967245 
L 331.710321 -252.554699 
L 331.92613 -248.142153 
L 332.159281 -243.729607 
L 332.404221 -239.317061 
L 332.650747 -234.904515 
L 332.885271 -230.491969 
L 333.09255 -226.079424 
L 333.257473 -221.666878 
L 333.36646 -217.254332 
L 333.408229 -212.841786 
L 333.373966 -208.42924 
L 333.257227 -204.016694 
L 333.053962 -199.604148 
L 332.76292 -195.191602 
L 332.386369 -190.779057 
L 331.93081 -186.366511 
L 331.407235 -181.953965 
L 330.830609 -177.541419 
L 330.218525 -173.128873 
L 329.589276 -168.716327 
L 328.959795 -164.303781 
L 328.343859 -159.891236 
L 327.750891 -155.47869 
L 327.185425 -151.066144 
L 326.647203 -146.653598 
L 326.131784 -142.241052 
L 325.631589 -137.828506 
L 325.137286 -133.41596 
L 324.63946 -129.003414 
L 324.130353 -124.590869 
L 323.605415 -120.178323 
L 323.064304 -115.765777 
L 322.511057 -111.353231 
L 321.953368 -106.940685 
L 321.401161 -102.528139 
L 320.864855 -98.115593 
L 320.353817 -93.703047 
L 319.875375 -89.290502 
L 319.43452 -84.877956 
L 319.034189 -80.46541 
L 318.675839 -76.052864 
L 318.359984 -71.640318 
z
" id="m3f530ea272" style="stroke:#141414;stroke-width:1.5;"/>
    </defs>
    <g clip-path="url(#pbb23533faa)">
     <use style="fill:#083c1d;stroke:#141414;stroke-width:1.5;" x="0" xlink:href="#m3f530ea272" y="540.169"/>
    </g>
   </g>
   <g id="PolyCollection_6">
    <defs>
     <path d="M 361.595086 -74.581553 
L 358.088135 -74.581553 
L 357.651792 -78.918196 
L 357.165681 -83.254839 
L 356.6332 -87.591482 
L 356.057969 -91.928125 
L 355.44399 -96.264768 
L 354.796038 -100.601411 
L 354.120027 -104.938054 
L 353.423105 -109.274697 
L 352.713269 -113.61134 
L 351.998465 -117.947983 
L 351.28526 -122.284625 
L 350.577347 -126.621268 
L 349.874244 -130.957911 
L 349.170645 -135.294554 
L 348.456816 -139.631197 
L 347.720237 -143.96784 
L 346.948306 -148.304483 
L 346.131579 -152.641126 
L 345.266745 -156.977769 
L 344.358634 -161.314412 
L 343.420876 -165.651055 
L 342.475336 -169.987698 
L 341.550785 -174.324341 
L 340.681313 -178.660983 
L 339.904674 -182.997626 
L 339.260327 -187.334269 
L 338.786672 -191.670912 
L 338.517075 -196.007555 
L 338.474824 -200.344198 
L 338.667829 -204.680841 
L 339.08452 -209.017484 
L 339.692499 -213.354127 
L 340.441113 -217.69077 
L 341.268134 -222.027413 
L 342.109545 -226.364056 
L 342.910332 -230.700699 
L 343.633659 -235.037341 
L 344.265999 -239.373984 
L 344.816826 -243.710627 
L 345.312988 -248.04727 
L 345.789404 -252.383913 
L 346.278796 -256.720556 
L 346.803324 -261.057199 
L 347.370248 -265.393842 
L 347.972388 -269.730485 
L 348.592547 -274.067128 
L 349.209984 -278.403771 
L 349.806592 -282.740414 
L 350.370936 -287.077057 
L 350.89933 -291.413699 
L 351.394314 -295.750342 
L 351.861712 -300.086985 
L 352.307662 -304.423628 
L 352.736641 -308.760271 
L 353.150863 -313.096914 
L 353.550773 -317.433557 
L 353.936041 -321.7702 
L 354.306475 -326.106843 
L 354.66254 -330.443486 
L 355.005433 -334.780129 
L 355.336893 -339.116772 
L 355.658909 -343.453415 
L 355.973383 -347.790057 
L 356.281757 -352.1267 
L 356.58459 -356.463343 
L 356.881167 -360.799986 
L 357.169315 -365.136629 
L 357.445562 -369.473272 
L 357.705699 -373.809915 
L 357.945556 -378.146558 
L 358.161754 -382.483201 
L 358.352175 -386.819844 
L 358.516058 -391.156487 
L 358.653806 -395.49313 
L 358.766689 -399.829773 
L 358.856612 -404.166415 
L 358.926005 -408.503058 
L 358.977791 -412.839701 
L 359.015329 -417.176344 
L 359.042294 -421.512987 
L 359.062481 -425.84963 
L 359.079617 -430.186273 
L 359.097196 -434.522916 
L 359.118355 -438.859559 
L 359.145727 -443.196202 
L 359.181227 -447.532845 
L 359.225775 -451.869488 
L 359.279029 -456.206131 
L 359.339248 -460.542773 
L 359.403416 -464.879416 
L 359.467663 -469.216059 
L 359.527934 -473.552702 
L 359.580754 -477.889345 
L 359.623891 -482.225988 
L 359.656728 -486.562631 
L 359.680256 -490.899274 
L 359.69669 -495.235917 
L 359.70884 -499.57256 
L 359.719414 -503.909203 
L 359.963806 -503.909203 
L 359.963806 -503.909203 
L 359.97438 -499.57256 
L 359.98653 -495.235917 
L 360.002964 -490.899274 
L 360.026492 -486.562631 
L 360.059329 -482.225988 
L 360.102466 -477.889345 
L 360.155286 -473.552702 
L 360.215557 -469.216059 
L 360.279804 -464.879416 
L 360.343972 -460.542773 
L 360.404191 -456.206131 
L 360.457445 -451.869488 
L 360.501993 -447.532845 
L 360.537493 -443.196202 
L 360.564865 -438.859559 
L 360.586024 -434.522916 
L 360.603603 -430.186273 
L 360.620739 -425.84963 
L 360.640927 -421.512987 
L 360.667891 -417.176344 
L 360.705429 -412.839701 
L 360.757215 -408.503058 
L 360.826608 -404.166415 
L 360.916531 -399.829773 
L 361.029414 -395.49313 
L 361.167162 -391.156487 
L 361.331045 -386.819844 
L 361.521466 -382.483201 
L 361.737664 -378.146558 
L 361.977521 -373.809915 
L 362.237658 -369.473272 
L 362.513905 -365.136629 
L 362.802053 -360.799986 
L 363.098631 -356.463343 
L 363.401463 -352.1267 
L 363.709837 -347.790057 
L 364.024311 -343.453415 
L 364.346327 -339.116772 
L 364.677787 -334.780129 
L 365.02068 -330.443486 
L 365.376745 -326.106843 
L 365.74718 -321.7702 
L 366.132447 -317.433557 
L 366.532357 -313.096914 
L 366.946579 -308.760271 
L 367.375558 -304.423628 
L 367.821508 -300.086985 
L 368.288906 -295.750342 
L 368.78389 -291.413699 
L 369.312284 -287.077057 
L 369.876628 -282.740414 
L 370.473236 -278.403771 
L 371.090673 -274.067128 
L 371.710832 -269.730485 
L 372.312972 -265.393842 
L 372.879896 -261.057199 
L 373.404424 -256.720556 
L 373.893816 -252.383913 
L 374.370232 -248.04727 
L 374.866394 -243.710627 
L 375.417221 -239.373984 
L 376.049561 -235.037341 
L 376.772888 -230.700699 
L 377.573675 -226.364056 
L 378.415086 -222.027413 
L 379.242108 -217.69077 
L 379.990721 -213.354127 
L 380.5987 -209.017484 
L 381.015391 -204.680841 
L 381.208396 -200.344198 
L 381.166145 -196.007555 
L 380.896548 -191.670912 
L 380.422893 -187.334269 
L 379.778546 -182.997626 
L 379.001907 -178.660983 
L 378.132435 -174.324341 
L 377.207884 -169.987698 
L 376.262344 -165.651055 
L 375.324586 -161.314412 
L 374.416475 -156.977769 
L 373.551641 -152.641126 
L 372.734914 -148.304483 
L 371.962983 -143.96784 
L 371.226404 -139.631197 
L 370.512575 -135.294554 
L 369.808976 -130.957911 
L 369.105873 -126.621268 
L 368.39796 -122.284625 
L 367.684755 -117.947983 
L 366.969951 -113.61134 
L 366.260115 -109.274697 
L 365.563193 -104.938054 
L 364.887183 -100.601411 
L 364.23923 -96.264768 
L 363.625251 -91.928125 
L 363.05002 -87.591482 
L 362.517539 -83.254839 
L 362.031428 -78.918196 
L 361.595086 -74.581553 
z
" id="m0dc6309761" style="stroke:#141414;stroke-width:1.5;"/>
    </defs>
    <g clip-path="url(#pbb23533faa)">
     <use style="fill:#0e5f2f;stroke:#141414;stroke-width:1.5;" x="0" xlink:href="#m0dc6309761" y="540.169"/>
    </g>
   </g>
   <g id="PolyCollection_7">
    <defs>
     <path d="M 424.817546 -76.353422 
L 423.06639 -76.353422 
L 422.89371 -78.123923 
L 422.70122 -79.894423 
L 422.485623 -81.664924 
L 422.242172 -83.435424 
L 421.964812 -85.205925 
L 421.646533 -86.976425 
L 421.27988 -88.746926 
L 420.857547 -90.517426 
L 420.372963 -92.287927 
L 419.82081 -94.058427 
L 419.197456 -95.828928 
L 418.501283 -97.599428 
L 417.732936 -99.369929 
L 416.89554 -101.140429 
L 415.994899 -102.91093 
L 415.039713 -104.68143 
L 414.041782 -106.451931 
L 413.016143 -108.222431 
L 411.981037 -109.992931 
L 410.95757 -111.763432 
L 409.968957 -113.533932 
L 409.039299 -115.304433 
L 408.191962 -117.074933 
L 407.447741 -118.845434 
L 406.8231 -120.615934 
L 406.328809 -122.386435 
L 405.96926 -124.156935 
L 405.742612 -125.927436 
L 405.641723 -127.697936 
L 405.655692 -129.468437 
L 405.771651 -131.238937 
L 405.976475 -133.009438 
L 406.258077 -134.779938 
L 406.606122 -136.550439 
L 407.012159 -138.320939 
L 407.469307 -140.09144 
L 407.971725 -141.86194 
L 408.514097 -143.632441 
L 409.091279 -145.402941 
L 409.698135 -147.173442 
L 410.329503 -148.943942 
L 410.980147 -150.714443 
L 411.644598 -152.484943 
L 412.316835 -154.255444 
L 412.989899 -156.025944 
L 413.655587 -157.796445 
L 414.304429 -159.566945 
L 414.926098 -161.337445 
L 415.510278 -163.107946 
L 416.047906 -164.878446 
L 416.532518 -166.648947 
L 416.961411 -168.419447 
L 417.336288 -170.189948 
L 417.663179 -171.960448 
L 417.951591 -173.730949 
L 418.213004 -175.501449 
L 418.459 -177.27195 
L 418.699398 -179.04245 
L 418.940756 -180.812951 
L 419.185524 -182.583451 
L 419.431976 -184.353952 
L 419.674899 -186.124452 
L 419.906851 -187.894953 
L 420.119722 -189.665453 
L 420.306283 -191.435954 
L 420.46143 -193.206454 
L 420.58292 -194.976955 
L 420.671488 -196.747455 
L 420.730392 -198.517956 
L 420.764539 -200.288456 
L 420.779434 -202.058957 
L 420.780238 -203.829457 
L 420.771171 -205.599958 
L 420.755371 -207.370458 
L 420.735208 -209.140959 
L 420.71289 -210.911459 
L 420.691123 -212.68196 
L 420.673583 -214.45246 
L 420.665012 -216.22296 
L 420.670896 -217.993461 
L 420.696795 -219.763961 
L 420.747496 -221.534462 
L 420.82621 -223.304962 
L 420.933995 -225.075463 
L 421.069527 -226.845963 
L 421.229234 -228.616464 
L 421.407757 -230.386964 
L 421.598623 -232.157465 
L 421.795026 -233.927965 
L 421.990575 -235.698466 
L 422.179939 -237.468966 
L 422.359276 -239.239467 
L 422.526423 -241.009967 
L 422.68081 -242.780468 
L 422.823142 -244.550968 
L 422.954902 -246.321469 
L 423.07779 -248.091969 
L 423.193221 -249.86247 
L 423.301969 -251.63297 
L 424.581966 -251.63297 
L 424.581966 -251.63297 
L 424.690715 -249.86247 
L 424.806146 -248.091969 
L 424.929034 -246.321469 
L 425.060793 -244.550968 
L 425.203125 -242.780468 
L 425.357513 -241.009967 
L 425.524659 -239.239467 
L 425.703996 -237.468966 
L 425.893361 -235.698466 
L 426.08891 -233.927965 
L 426.285312 -232.157465 
L 426.476179 -230.386964 
L 426.654701 -228.616464 
L 426.814408 -226.845963 
L 426.94994 -225.075463 
L 427.057726 -223.304962 
L 427.136439 -221.534462 
L 427.18714 -219.763961 
L 427.213039 -217.993461 
L 427.218924 -216.22296 
L 427.210352 -214.45246 
L 427.192812 -212.68196 
L 427.171046 -210.911459 
L 427.148728 -209.140959 
L 427.128565 -207.370458 
L 427.112765 -205.599958 
L 427.103697 -203.829457 
L 427.104502 -202.058957 
L 427.119396 -200.288456 
L 427.153543 -198.517956 
L 427.212448 -196.747455 
L 427.301016 -194.976955 
L 427.422506 -193.206454 
L 427.577653 -191.435954 
L 427.764214 -189.665453 
L 427.977085 -187.894953 
L 428.209037 -186.124452 
L 428.451959 -184.353952 
L 428.698412 -182.583451 
L 428.943179 -180.812951 
L 429.184538 -179.04245 
L 429.424936 -177.27195 
L 429.670932 -175.501449 
L 429.932345 -173.730949 
L 430.220757 -171.960448 
L 430.547648 -170.189948 
L 430.922525 -168.419447 
L 431.351418 -166.648947 
L 431.83603 -164.878446 
L 432.373657 -163.107946 
L 432.957838 -161.337445 
L 433.579506 -159.566945 
L 434.228349 -157.796445 
L 434.894037 -156.025944 
L 435.5671 -154.255444 
L 436.239337 -152.484943 
L 436.903788 -150.714443 
L 437.554433 -148.943942 
L 438.185801 -147.173442 
L 438.792657 -145.402941 
L 439.369838 -143.632441 
L 439.912211 -141.86194 
L 440.414629 -140.09144 
L 440.871776 -138.320939 
L 441.277814 -136.550439 
L 441.625859 -134.779938 
L 441.90746 -133.009438 
L 442.112285 -131.238937 
L 442.228244 -129.468437 
L 442.242212 -127.697936 
L 442.141324 -125.927436 
L 441.914675 -124.156935 
L 441.555127 -122.386435 
L 441.060835 -120.615934 
L 440.436194 -118.845434 
L 439.691974 -117.074933 
L 438.844637 -115.304433 
L 437.914979 -113.533932 
L 436.926365 -111.763432 
L 435.902898 -109.992931 
L 434.867793 -108.222431 
L 433.842154 -106.451931 
L 432.844223 -104.68143 
L 431.889037 -102.91093 
L 430.988396 -101.140429 
L 430.151 -99.369929 
L 429.382653 -97.599428 
L 428.686479 -95.828928 
L 428.063126 -94.058427 
L 427.510973 -92.287927 
L 427.026388 -90.517426 
L 426.604056 -88.746926 
L 426.237403 -86.976425 
L 425.919123 -85.205925 
L 425.641763 -83.435424 
L 425.398313 -81.664924 
L 425.182715 -79.894423 
L 424.990225 -78.123923 
L 424.817546 -76.353422 
z
" id="m711062e330" style="stroke:#141414;stroke-width:1.5;"/>
    </defs>
    <g clip-path="url(#pbb23533faa)">
     <use style="fill:#083c1d;stroke:#141414;stroke-width:1.5;" x="0" xlink:href="#m711062e330" y="540.169"/>
    </g>
   </g>
   <g id="PolyCollection_8">
    <defs>
     <path d="M 467.491381 -71.522941 
L 465.859698 -71.522941 
L 465.602712 -73.332777 
L 465.305151 -75.142613 
L 464.972701 -76.952449 
L 464.613103 -78.762286 
L 464.234409 -80.572122 
L 463.842803 -82.381958 
L 463.440411 -84.191794 
L 463.023592 -86.00163 
L 462.582105 -87.811466 
L 462.099329 -89.621303 
L 461.553592 -91.431139 
L 460.920493 -93.240975 
L 460.176045 -95.050811 
L 459.300383 -96.860647 
L 458.281665 -98.670484 
L 457.119622 -100.48032 
L 455.828065 -102.290156 
L 454.435673 -104.099992 
L 452.984619 -105.909828 
L 451.527049 -107.719664 
L 450.119995 -109.529501 
L 448.819707 -111.339337 
L 447.676515 -113.149173 
L 446.731069 -114.959009 
L 446.012268 -116.768845 
L 445.536658 -118.578681 
L 445.308754 -120.388518 
L 445.321785 -122.198354 
L 445.558656 -124.00819 
L 445.99326 -125.818026 
L 446.592461 -127.627862 
L 447.318924 -129.437698 
L 448.134656 -131.247535 
L 449.004733 -133.057371 
L 449.900496 -134.867207 
L 450.801513 -136.677043 
L 451.695949 -138.486879 
L 452.579331 -140.296715 
L 453.452128 -142.106552 
L 454.316816 -143.916388 
L 455.175123 -145.726224 
L 456.02603 -147.53606 
L 456.864795 -149.345896 
L 457.682961 -151.155732 
L 458.469066 -152.965569 
L 459.209717 -154.775405 
L 459.89075 -156.585241 
L 460.4984 -158.395077 
L 461.020501 -160.204913 
L 461.447833 -162.014749 
L 461.775599 -163.824586 
L 462.004868 -165.634422 
L 462.143654 -167.444258 
L 462.207193 -169.254094 
L 462.217053 -171.06393 
L 462.198936 -172.873766 
L 462.179371 -174.683603 
L 462.181857 -176.493439 
L 462.223295 -178.303275 
L 462.31157 -180.113111 
L 462.444917 -181.922947 
L 462.61323 -183.732784 
L 462.800934 -185.54262 
L 462.990605 -187.352456 
L 463.16638 -189.162292 
L 463.316358 -190.972128 
L 463.43366 -192.781964 
L 463.516236 -194.591801 
L 463.565951 -196.401637 
L 463.587499 -198.211473 
L 463.587577 -200.021309 
L 463.574411 -201.831145 
L 463.557434 -203.640981 
L 463.5468 -205.450818 
L 463.55249 -207.260654 
L 463.583026 -209.07049 
L 463.644064 -210.880326 
L 463.737291 -212.690162 
L 463.860048 -214.499998 
L 464.00583 -216.309835 
L 464.165608 -218.119671 
L 464.329601 -219.929507 
L 464.489042 -221.739343 
L 464.63752 -223.549179 
L 464.771658 -225.359015 
L 464.891087 -227.168852 
L 464.997886 -228.978688 
L 465.09572 -230.788524 
L 465.188914 -232.59836 
L 465.281632 -234.408196 
L 465.377245 -236.218032 
L 465.477925 -238.027869 
L 465.584454 -239.837705 
L 465.696243 -241.647541 
L 465.811519 -243.457377 
L 465.927657 -245.267213 
L 466.041578 -247.077049 
L 466.150155 -248.886886 
L 466.250575 -250.696722 
L 467.100505 -250.696722 
L 467.100505 -250.696722 
L 467.200924 -248.886886 
L 467.309502 -247.077049 
L 467.423422 -245.267213 
L 467.53956 -243.457377 
L 467.654836 -241.647541 
L 467.766625 -239.837705 
L 467.873154 -238.027869 
L 467.973834 -236.218032 
L 468.069447 -234.408196 
L 468.162165 -232.59836 
L 468.25536 -230.788524 
L 468.353193 -228.978688 
L 468.459992 -227.168852 
L 468.579421 -225.359015 
L 468.713559 -223.549179 
L 468.862038 -221.739343 
L 469.021479 -219.929507 
L 469.185472 -218.119671 
L 469.34525 -216.309835 
L 469.491032 -214.499998 
L 469.613788 -212.690162 
L 469.707016 -210.880326 
L 469.768053 -209.07049 
L 469.798589 -207.260654 
L 469.80428 -205.450818 
L 469.793645 -203.640981 
L 469.776668 -201.831145 
L 469.763502 -200.021309 
L 469.76358 -198.211473 
L 469.785128 -196.401637 
L 469.834843 -194.591801 
L 469.917419 -192.781964 
L 470.034721 -190.972128 
L 470.1847 -189.162292 
L 470.360474 -187.352456 
L 470.550145 -185.54262 
L 470.737849 -183.732784 
L 470.906162 -181.922947 
L 471.039509 -180.113111 
L 471.127784 -178.303275 
L 471.169222 -176.493439 
L 471.171709 -174.683603 
L 471.152144 -172.873766 
L 471.134026 -171.06393 
L 471.143886 -169.254094 
L 471.207425 -167.444258 
L 471.346212 -165.634422 
L 471.575481 -163.824586 
L 471.903246 -162.014749 
L 472.330578 -160.204913 
L 472.852679 -158.395077 
L 473.460329 -156.585241 
L 474.141363 -154.775405 
L 474.882013 -152.965569 
L 475.668118 -151.155732 
L 476.486284 -149.345896 
L 477.325049 -147.53606 
L 478.175956 -145.726224 
L 479.034263 -143.916388 
L 479.898952 -142.106552 
L 480.771749 -140.296715 
L 481.65513 -138.486879 
L 482.549566 -136.677043 
L 483.450584 -134.867207 
L 484.346346 -133.057371 
L 485.216424 -131.247535 
L 486.032155 -129.437698 
L 486.758618 -127.627862 
L 487.357819 -125.818026 
L 487.792423 -124.00819 
L 488.029294 -122.198354 
L 488.042326 -120.388518 
L 487.814422 -118.578681 
L 487.338812 -116.768845 
L 486.620011 -114.959009 
L 485.674564 -113.149173 
L 484.531372 -111.339337 
L 483.231084 -109.529501 
L 481.824031 -107.719664 
L 480.366461 -105.909828 
L 478.915406 -104.099992 
L 477.523014 -102.290156 
L 476.231457 -100.48032 
L 475.069414 -98.670484 
L 474.050697 -96.860647 
L 473.175034 -95.050811 
L 472.430586 -93.240975 
L 471.797488 -91.431139 
L 471.251751 -89.621303 
L 470.768974 -87.811466 
L 470.327487 -86.00163 
L 469.910669 -84.191794 
L 469.508276 -82.381958 
L 469.11667 -80.572122 
L 468.737977 -78.762286 
L 468.378378 -76.952449 
L 468.045929 -75.142613 
L 467.748368 -73.332777 
L 467.491381 -71.522941 
z
" id="m2be6a94afc" style="stroke:#141414;stroke-width:1.5;"/>
    </defs>
    <g clip-path="url(#pbb23533faa)">
     <use style="fill:#0e5f2f;stroke:#141414;stroke-width:1.5;" x="0" xlink:href="#m2be6a94afc" y="540.169"/>
    </g>
   </g>
   <g id="PolyCollection_9">
    <defs>
     <path d="M 531.592397 -78.531815 
L 529.959398 -78.531815 
L 529.782367 -80.281655 
L 529.612339 -82.031494 
L 529.453946 -83.781333 
L 529.307346 -85.531173 
L 529.16923 -87.281012 
L 529.0343 -89.030852 
L 528.896116 -90.780691 
L 528.746929 -92.530531 
L 528.576965 -94.28037 
L 528.374105 -96.030209 
L 528.124619 -97.780049 
L 527.814853 -99.529888 
L 527.433148 -101.279728 
L 526.971222 -103.029567 
L 526.4247 -104.779406 
L 525.792852 -106.529246 
L 525.077726 -108.279085 
L 524.282715 -110.028925 
L 523.410836 -111.778764 
L 522.463541 -113.528604 
L 521.441342 -115.278443 
L 520.346901 -117.028282 
L 519.189594 -118.778122 
L 517.98895 -120.527961 
L 516.774271 -122.277801 
L 515.57997 -124.02764 
L 514.439247 -125.777479 
L 513.380486 -127.527319 
L 512.429281 -129.277158 
L 511.61488 -131.026998 
L 510.975921 -132.776837 
L 510.559737 -134.526676 
L 510.413106 -136.276516 
L 510.567893 -138.026355 
L 511.02871 -139.776195 
L 511.76894 -141.526034 
L 512.736998 -143.275874 
L 513.869652 -145.025713 
L 515.10657 -146.775552 
L 516.400886 -148.525392 
L 517.723029 -150.275231 
L 519.057713 -152.025071 
L 520.396027 -153.77491 
L 521.726012 -155.524749 
L 523.025761 -157.274589 
L 524.262276 -159.024428 
L 525.396809 -160.774268 
L 526.394331 -162.524107 
L 527.232678 -164.273947 
L 527.907385 -166.023786 
L 528.430585 -167.773625 
L 528.825297 -169.523465 
L 529.118147 -171.273304 
L 529.333372 -173.023144 
L 529.489569 -174.772983 
L 529.599042 -176.522822 
L 529.668751 -178.272662 
L 529.701942 -180.022501 
L 529.699987 -181.772341 
L 529.664355 -183.52218 
L 529.598586 -185.27202 
L 529.509858 -187.021859 
L 529.409508 -188.771698 
L 529.312024 -190.521538 
L 529.232583 -192.271377 
L 529.183874 -194.021217 
L 529.173347 -195.771056 
L 529.201927 -197.520895 
L 529.264513 -199.270735 
L 529.351784 -201.020574 
L 529.452382 -202.770414 
L 529.554703 -204.520253 
L 529.648201 -206.270093 
L 529.724584 -208.019932 
L 529.779258 -209.769771 
L 529.812791 -211.519611 
L 529.831545 -213.26945 
L 529.846568 -215.01929 
L 529.870584 -216.769129 
L 529.913965 -218.518968 
L 529.981324 -220.268808 
L 530.070185 -222.018647 
L 530.172224 -223.768487 
L 530.276341 -225.518326 
L 530.372146 -227.268165 
L 530.452506 -229.018005 
L 530.514516 -230.767844 
L 530.559018 -232.517684 
L 530.589283 -234.267523 
L 530.609517 -236.017363 
L 530.623654 -237.767202 
L 530.634621 -239.517041 
L 530.64411 -241.266881 
L 530.652758 -243.01672 
L 530.660617 -244.76656 
L 530.667706 -246.516399 
L 530.674408 -248.266238 
L 530.681521 -250.016078 
L 530.689967 -251.765917 
L 530.861828 -251.765917 
L 530.861828 -251.765917 
L 530.870274 -250.016078 
L 530.877387 -248.266238 
L 530.884088 -246.516399 
L 530.891178 -244.76656 
L 530.899037 -243.01672 
L 530.907684 -241.266881 
L 530.917174 -239.517041 
L 530.928141 -237.767202 
L 530.942278 -236.017363 
L 530.962512 -234.267523 
L 530.992777 -232.517684 
L 531.037279 -230.767844 
L 531.099289 -229.018005 
L 531.179649 -227.268165 
L 531.275453 -225.518326 
L 531.379571 -223.768487 
L 531.48161 -222.018647 
L 531.570471 -220.268808 
L 531.63783 -218.518968 
L 531.681211 -216.769129 
L 531.705227 -215.01929 
L 531.72025 -213.26945 
L 531.739003 -211.519611 
L 531.772537 -209.769771 
L 531.827211 -208.019932 
L 531.903594 -206.270093 
L 531.997092 -204.520253 
L 532.099413 -202.770414 
L 532.200011 -201.020574 
L 532.287282 -199.270735 
L 532.349868 -197.520895 
L 532.378448 -195.771056 
L 532.367921 -194.021217 
L 532.319212 -192.271377 
L 532.239771 -190.521538 
L 532.142287 -188.771698 
L 532.041936 -187.021859 
L 531.953209 -185.27202 
L 531.88744 -183.52218 
L 531.851808 -181.772341 
L 531.849853 -180.022501 
L 531.883044 -178.272662 
L 531.952753 -176.522822 
L 532.062226 -174.772983 
L 532.218423 -173.023144 
L 532.433648 -171.273304 
L 532.726498 -169.523465 
L 533.12121 -167.773625 
L 533.64441 -166.023786 
L 534.319117 -164.273947 
L 535.157464 -162.524107 
L 536.154985 -160.774268 
L 537.289519 -159.024428 
L 538.526033 -157.274589 
L 539.825783 -155.524749 
L 541.155768 -153.77491 
L 542.494082 -152.025071 
L 543.828766 -150.275231 
L 545.150909 -148.525392 
L 546.445225 -146.775552 
L 547.682143 -145.025713 
L 548.814797 -143.275874 
L 549.782855 -141.526034 
L 550.523085 -139.776195 
L 550.983902 -138.026355 
L 551.138689 -136.276516 
L 550.992058 -134.526676 
L 550.575874 -132.776837 
L 549.936915 -131.026998 
L 549.122514 -129.277158 
L 548.171309 -127.527319 
L 547.112548 -125.777479 
L 545.971825 -124.02764 
L 544.777524 -122.277801 
L 543.562845 -120.527961 
L 542.362201 -118.778122 
L 541.204894 -117.028282 
L 540.110453 -115.278443 
L 539.088254 -113.528604 
L 538.140959 -111.778764 
L 537.26908 -110.028925 
L 536.474069 -108.279085 
L 535.758942 -106.529246 
L 535.127095 -104.779406 
L 534.580573 -103.029567 
L 534.118647 -101.279728 
L 533.736941 -99.529888 
L 533.427176 -97.780049 
L 533.17769 -96.030209 
L 532.974829 -94.28037 
L 532.804866 -92.530531 
L 532.655679 -90.780691 
L 532.517495 -89.030852 
L 532.382565 -87.281012 
L 532.244449 -85.531173 
L 532.097849 -83.781333 
L 531.939456 -82.031494 
L 531.769428 -80.281655 
L 531.592397 -78.531815 
z
" id="m13777c92f9" style="stroke:#141414;stroke-width:1.5;"/>
    </defs>
    <g clip-path="url(#pbb23533faa)">
     <use style="fill:#083c1d;stroke:#141414;stroke-width:1.5;" x="0" xlink:href="#m13777c92f9" y="540.169"/>
    </g>
   </g>
   <g id="PolyCollection_10">
    <defs>
     <path d="M 574.634907 -74.388098 
L 572.384031 -74.388098 
L 572.064824 -75.971343 
L 571.754643 -77.554588 
L 571.48035 -79.137833 
L 571.260672 -80.721078 
L 571.102224 -82.304323 
L 570.998919 -83.887568 
L 570.933921 -85.470814 
L 570.882934 -87.054059 
L 570.818261 -88.637304 
L 570.713704 -90.220549 
L 570.549913 -91.803794 
L 570.318576 -93.387039 
L 570.023199 -94.970284 
L 569.675274 -96.55353 
L 569.286928 -98.136775 
L 568.863221 -99.72002 
L 568.397569 -101.303265 
L 567.872412 -102.88651 
L 567.265017 -104.469755 
L 566.556264 -106.053 
L 565.738866 -107.636246 
L 564.82123 -109.219491 
L 563.824662 -110.802736 
L 562.774761 -112.385981 
L 561.691316 -113.969226 
L 560.582493 -115.552471 
L 559.447161 -117.135716 
L 558.284706 -118.718962 
L 557.107089 -120.302207 
L 555.946345 -121.885452 
L 554.852995 -123.468697 
L 553.885966 -125.051942 
L 553.099295 -126.635187 
L 552.532538 -128.218432 
L 552.209252 -129.801678 
L 552.142683 -131.384923 
L 552.343004 -132.968168 
L 552.819285 -134.551413 
L 553.573063 -136.134658 
L 554.586841 -137.717903 
L 555.815756 -139.301148 
L 557.190003 -140.884394 
L 558.629161 -142.467639 
L 560.061714 -144.050884 
L 561.4396 -145.634129 
L 562.740976 -147.217374 
L 563.961964 -148.800619 
L 565.10414 -150.383864 
L 566.165305 -151.96711 
L 567.137261 -153.550355 
L 568.009473 -155.1336 
L 568.774812 -156.716845 
L 569.433748 -158.30009 
L 569.99516 -159.883335 
L 570.473913 -161.46658 
L 570.886688 -163.049826 
L 571.248002 -164.633071 
L 571.567849 -166.216316 
L 571.851328 -167.799561 
L 572.099645 -169.382806 
L 572.311522 -170.966051 
L 572.484496 -172.549296 
L 572.616134 -174.132542 
L 572.705424 -175.715787 
L 572.754235 -177.299032 
L 572.768288 -178.882277 
L 572.756974 -180.465522 
L 572.731685 -182.048767 
L 572.703047 -183.632012 
L 572.678054 -185.215258 
L 572.658365 -186.798503 
L 572.640698 -188.381748 
L 572.619464 -189.964993 
L 572.590654 -191.548238 
L 572.55527 -193.131483 
L 572.520539 -194.714728 
L 572.498149 -196.297974 
L 572.500186 -197.881219 
L 572.534613 -199.464464 
L 572.602288 -201.047709 
L 572.69665 -202.630954 
L 572.805914 -204.214199 
L 572.916623 -205.797444 
L 573.017134 -207.38069 
L 573.099997 -208.963935 
L 573.162825 -210.54718 
L 573.207773 -212.130425 
L 573.240018 -213.71367 
L 573.2657 -215.296915 
L 573.289856 -216.88016 
L 573.314911 -218.463406 
L 573.340244 -220.046651 
L 573.363024 -221.629896 
L 573.380004 -223.213141 
L 573.389448 -224.796386 
L 573.392287 -226.379631 
L 573.391926 -227.962876 
L 573.392824 -229.546122 
L 573.398603 -231.129367 
L 573.620335 -231.129367 
L 573.620335 -231.129367 
L 573.626115 -229.546122 
L 573.627013 -227.962876 
L 573.626652 -226.379631 
L 573.62949 -224.796386 
L 573.638934 -223.213141 
L 573.655914 -221.629896 
L 573.678695 -220.046651 
L 573.704027 -218.463406 
L 573.729082 -216.88016 
L 573.753238 -215.296915 
L 573.77892 -213.71367 
L 573.811165 -212.130425 
L 573.856114 -210.54718 
L 573.918942 -208.963935 
L 574.001805 -207.38069 
L 574.102316 -205.797444 
L 574.213025 -204.214199 
L 574.322289 -202.630954 
L 574.41665 -201.047709 
L 574.484325 -199.464464 
L 574.518753 -197.881219 
L 574.520789 -196.297974 
L 574.498399 -194.714728 
L 574.463668 -193.131483 
L 574.428284 -191.548238 
L 574.399474 -189.964993 
L 574.37824 -188.381748 
L 574.360574 -186.798503 
L 574.340884 -185.215258 
L 574.315891 -183.632012 
L 574.287253 -182.048767 
L 574.261965 -180.465522 
L 574.250651 -178.882277 
L 574.264704 -177.299032 
L 574.313514 -175.715787 
L 574.402805 -174.132542 
L 574.534443 -172.549296 
L 574.707416 -170.966051 
L 574.919294 -169.382806 
L 575.16761 -167.799561 
L 575.45109 -166.216316 
L 575.770936 -164.633071 
L 576.132251 -163.049826 
L 576.545026 -161.46658 
L 577.023778 -159.883335 
L 577.58519 -158.30009 
L 578.244126 -156.716845 
L 579.009465 -155.1336 
L 579.881677 -153.550355 
L 580.853634 -151.96711 
L 581.914799 -150.383864 
L 583.056975 -148.800619 
L 584.277963 -147.217374 
L 585.579338 -145.634129 
L 586.957224 -144.050884 
L 588.389778 -142.467639 
L 589.828935 -140.884394 
L 591.203183 -139.301148 
L 592.432098 -137.717903 
L 593.445876 -136.134658 
L 594.199654 -134.551413 
L 594.675935 -132.968168 
L 594.876255 -131.384923 
L 594.809687 -129.801678 
L 594.486401 -128.218432 
L 593.919644 -126.635187 
L 593.132973 -125.051942 
L 592.165944 -123.468697 
L 591.072594 -121.885452 
L 589.911849 -120.302207 
L 588.734233 -118.718962 
L 587.571777 -117.135716 
L 586.436446 -115.552471 
L 585.327622 -113.969226 
L 584.244178 -112.385981 
L 583.194277 -110.802736 
L 582.197709 -109.219491 
L 581.280073 -107.636246 
L 580.462674 -106.053 
L 579.753922 -104.469755 
L 579.146526 -102.88651 
L 578.621369 -101.303265 
L 578.155718 -99.72002 
L 577.732011 -98.136775 
L 577.343665 -96.55353 
L 576.995739 -94.970284 
L 576.700363 -93.387039 
L 576.469026 -91.803794 
L 576.305235 -90.220549 
L 576.200678 -88.637304 
L 576.136005 -87.054059 
L 576.085018 -85.470814 
L 576.02002 -83.887568 
L 575.916715 -82.304323 
L 575.758267 -80.721078 
L 575.538589 -79.137833 
L 575.264296 -77.554588 
L 574.954114 -75.971343 
L 574.634907 -74.388098 
z
" id="m0a43b1294a" style="stroke:#141414;stroke-width:1.5;"/>
    </defs>
    <g clip-path="url(#pbb23533faa)">
     <use style="fill:#0e5f2f;stroke:#141414;stroke-width:1.5;" x="0" xlink:href="#m0a43b1294a" y="540.169"/>
    </g>
   </g>
   <g id="patch_3">
    <path clip-path="url(#pbb23533faa)" d="M 124.806965 472.215852 
L 124.806965 472.215852 
L 124.806965 472.215852 
L 124.806965 472.215852 
z
" style="fill:#083c1d;stroke:#141414;stroke-linejoin:miter;stroke-width:0.75;"/>
   </g>
   <g id="patch_4">
    <path clip-path="url(#pbb23533faa)" d="M 124.806965 472.215852 
L 124.806965 472.215852 
L 124.806965 472.215852 
L 124.806965 472.215852 
z
" style="fill:#0e5f2f;stroke:#141414;stroke-linejoin:miter;stroke-width:0.75;"/>
   </g>
   <g id="line2d_1">
    <path clip-path="url(#pbb23533faa)" d="M 103.440179 436.802526 
L 103.440179 223.585869 
" style="fill:none;stroke:#141414;stroke-linecap:round;stroke-width:1.5;"/>
   </g>
   <g id="line2d_2">
    <path clip-path="url(#pbb23533faa)" d="M 103.440179 354.756979 
L 103.440179 299.64988 
" style="fill:none;stroke:#141414;stroke-linecap:round;stroke-width:4.5;"/>
   </g>
   <g id="line2d_3">
    <path clip-path="url(#pbb23533faa)" d="M 146.173751 434.916778 
L 146.173751 227.560125 
" style="fill:none;stroke:#141414;stroke-linecap:round;stroke-width:1.5;"/>
   </g>
   <g id="line2d_4">
    <path clip-path="url(#pbb23533faa)" d="M 146.173751 354.707634 
L 146.173751 300.832565 
" style="fill:none;stroke:#141414;stroke-linecap:round;stroke-width:4.5;"/>
   </g>
   <g id="line2d_5">
    <path clip-path="url(#pbb23533faa)" d="M 210.274109 470.635636 
L 210.274109 44.702927 
" style="fill:none;stroke:#141414;stroke-linecap:round;stroke-width:1.5;"/>
   </g>
   <g id="line2d_6">
    <path clip-path="url(#pbb23533faa)" d="M 210.274109 332.959977 
L 210.274109 217.172433 
" style="fill:none;stroke:#141414;stroke-linecap:round;stroke-width:4.5;"/>
   </g>
   <g id="line2d_7">
    <path clip-path="url(#pbb23533faa)" d="M 253.00768 466.720441 
L 253.00768 73.442733 
" style="fill:none;stroke:#141414;stroke-linecap:round;stroke-width:1.5;"/>
   </g>
   <g id="line2d_8">
    <path clip-path="url(#pbb23533faa)" d="M 253.00768 339.501967 
L 253.00768 232.781719 
" style="fill:none;stroke:#141414;stroke-linecap:round;stroke-width:4.5;"/>
   </g>
   <g id="line2d_9">
    <path clip-path="url(#pbb23533faa)" d="M 317.108038 468.528682 
L 317.108038 79.386917 
" style="fill:none;stroke:#141414;stroke-linecap:round;stroke-width:1.5;"/>
   </g>
   <g id="line2d_10">
    <path clip-path="url(#pbb23533faa)" d="M 317.108038 354.179296 
L 317.108038 243.977683 
" style="fill:none;stroke:#141414;stroke-linecap:round;stroke-width:4.5;"/>
   </g>
   <g id="line2d_11">
    <path clip-path="url(#pbb23533faa)" d="M 359.84161 465.587447 
L 359.84161 146.02639 
" style="fill:none;stroke:#141414;stroke-linecap:round;stroke-width:1.5;"/>
   </g>
   <g id="line2d_12">
    <path clip-path="url(#pbb23533faa)" d="M 359.84161 369.026414 
L 359.84161 279.673091 
" style="fill:none;stroke:#141414;stroke-linecap:round;stroke-width:4.5;"/>
   </g>
   <g id="line2d_13">
    <path clip-path="url(#pbb23533faa)" d="M 423.941968 463.815578 
L 423.941968 318.625325 
" style="fill:none;stroke:#141414;stroke-linecap:round;stroke-width:1.5;"/>
   </g>
   <g id="line2d_14">
    <path clip-path="url(#pbb23533faa)" d="M 423.941968 419.429703 
L 423.941968 379.050935 
" style="fill:none;stroke:#141414;stroke-linecap:round;stroke-width:4.5;"/>
   </g>
   <g id="line2d_15">
    <path clip-path="url(#pbb23533faa)" d="M 466.67554 468.646059 
L 466.67554 334.933776 
" style="fill:none;stroke:#141414;stroke-linecap:round;stroke-width:1.5;"/>
   </g>
   <g id="line2d_16">
    <path clip-path="url(#pbb23533faa)" d="M 466.67554 425.413397 
L 466.67554 389.066783 
" style="fill:none;stroke:#141414;stroke-linecap:round;stroke-width:4.5;"/>
   </g>
   <g id="line2d_17">
    <path clip-path="url(#pbb23533faa)" d="M 530.775897 449.434651 
L 530.775897 359.758772 
" style="fill:none;stroke:#141414;stroke-linecap:round;stroke-width:1.5;"/>
   </g>
   <g id="line2d_18">
    <path clip-path="url(#pbb23533faa)" d="M 530.775897 415.68628 
L 530.775897 393.161168 
" style="fill:none;stroke:#141414;stroke-linecap:round;stroke-width:4.5;"/>
   </g>
   <g id="line2d_19">
    <path clip-path="url(#pbb23533faa)" d="M 573.509469 455.313116 
L 573.509469 366.689461 
" style="fill:none;stroke:#141414;stroke-linecap:round;stroke-width:1.5;"/>
   </g>
   <g id="line2d_20">
    <path clip-path="url(#pbb23533faa)" d="M 573.509469 422.287809 
L 573.509469 400.044392 
" style="fill:none;stroke:#141414;stroke-linecap:round;stroke-width:4.5;"/>
   </g>
   <g id="patch_5">
    <path d="M 71.39 492.704 
L 71.39 7.2 
" style="fill:none;stroke:#262626;stroke-linecap:square;stroke-linejoin:miter;stroke-width:0.8;"/>
   </g>
   <g id="patch_6">
    <path d="M 71.39 492.704 
L 605.559648 492.704 
" style="fill:none;stroke:#262626;stroke-linecap:square;stroke-linejoin:miter;stroke-width:0.8;"/>
   </g>
   <g id="PathCollection_1">
    <defs>
     <path d="M 0 1.5 
C 0.397805 1.5 0.77937 1.341951 1.06066 1.06066 
C 1.341951 0.77937 1.5 0.397805 1.5 0 
C 1.5 -0.397805 1.341951 -0.77937 1.06066 -1.06066 
C 0.77937 -1.341951 0.397805 -1.5 0 -1.5 
C -0.397805 -1.5 -0.77937 -1.341951 -1.06066 -1.06066 
C -1.341951 -0.77937 -1.5 -0.397805 -1.5 0 
C -1.5 0.397805 -1.341951 0.77937 -1.06066 1.06066 
C -0.77937 1.341951 -0.397805 1.5 0 1.5 
z
" id="m8b27c0c002" style="stroke:#141414;"/>
    </defs>
    <g clip-path="url(#pbb23533faa)">
     <use style="fill:#ffffff;stroke:#141414;" x="103.440179" xlink:href="#m8b27c0c002" y="327.476895"/>
    </g>
   </g>
   <g id="PathCollection_2">
    <g clip-path="url(#pbb23533faa)">
     <use style="fill:#ffffff;stroke:#141414;" x="146.173751" xlink:href="#m8b27c0c002" y="327.62159"/>
    </g>
   </g>
   <g id="PathCollection_3">
    <g clip-path="url(#pbb23533faa)">
     <use style="fill:#ffffff;stroke:#141414;" x="210.274109" xlink:href="#m8b27c0c002" y="278.152022"/>
    </g>
   </g>
   <g id="PathCollection_4">
    <g clip-path="url(#pbb23533faa)">
     <use style="fill:#ffffff;stroke:#141414;" x="253.00768" xlink:href="#m8b27c0c002" y="284.923108"/>
    </g>
   </g>
   <g id="PathCollection_5">
    <g clip-path="url(#pbb23533faa)">
     <use style="fill:#ffffff;stroke:#141414;" x="317.108038" xlink:href="#m8b27c0c002" y="304.876197"/>
    </g>
   </g>
   <g id="PathCollection_6">
    <g clip-path="url(#pbb23533faa)">
     <use style="fill:#ffffff;stroke:#141414;" x="359.84161" xlink:href="#m8b27c0c002" y="330.453882"/>
    </g>
   </g>
   <g id="PathCollection_7">
    <g clip-path="url(#pbb23533faa)">
     <use style="fill:#ffffff;stroke:#141414;" x="423.941968" xlink:href="#m8b27c0c002" y="402.370969"/>
    </g>
   </g>
   <g id="PathCollection_8">
    <g clip-path="url(#pbb23533faa)">
     <use style="fill:#ffffff;stroke:#141414;" x="466.67554" xlink:href="#m8b27c0c002" y="411.965777"/>
    </g>
   </g>
   <g id="PathCollection_9">
    <g clip-path="url(#pbb23533faa)">
     <use style="fill:#ffffff;stroke:#141414;" x="530.775897" xlink:href="#m8b27c0c002" y="404.172772"/>
    </g>
   </g>
   <g id="PathCollection_10">
    <g clip-path="url(#pbb23533faa)">
     <use style="fill:#ffffff;stroke:#141414;" x="573.509469" xlink:href="#m8b27c0c002" y="410.5694"/>
    </g>
   </g>
  </g>
  <g id="legend_1">
   <g id="text_14">
    <!-- weather -->
    <defs>
     <path d="M 16.15625 0 
L 0.296875 51.859375 
L 9.375 51.859375 
L 17.625 21.921875 
L 20.703125 10.796875 
Q 20.90625 11.625 23.390625 21.484375 
L 31.640625 51.859375 
L 40.671875 51.859375 
L 48.4375 21.78125 
L 51.03125 11.859375 
L 54 21.875 
L 62.890625 51.859375 
L 71.4375 51.859375 
L 55.21875 0 
L 46.09375 0 
L 37.84375 31.0625 
L 35.84375 39.890625 
L 25.34375 0 
z
" id="ArialMT-119"/>
     <path d="M 40.4375 6.390625 
Q 35.546875 2.25 31.03125 0.53125 
Q 26.515625 -1.171875 21.34375 -1.171875 
Q 12.796875 -1.171875 8.203125 3 
Q 3.609375 7.171875 3.609375 13.671875 
Q 3.609375 17.484375 5.34375 20.625 
Q 7.078125 23.78125 9.890625 25.6875 
Q 12.703125 27.59375 16.21875 28.5625 
Q 18.796875 29.25 24.03125 29.890625 
Q 34.671875 31.15625 39.703125 32.90625 
Q 39.75 34.71875 39.75 35.203125 
Q 39.75 40.578125 37.25 42.78125 
Q 33.890625 45.75 27.25 45.75 
Q 21.046875 45.75 18.09375 43.578125 
Q 15.140625 41.40625 13.71875 35.890625 
L 5.125 37.0625 
Q 6.296875 42.578125 8.984375 45.96875 
Q 11.671875 49.359375 16.75 51.1875 
Q 21.828125 53.03125 28.515625 53.03125 
Q 35.15625 53.03125 39.296875 51.46875 
Q 43.453125 49.90625 45.40625 47.53125 
Q 47.359375 45.171875 48.140625 41.546875 
Q 48.578125 39.3125 48.578125 33.453125 
L 48.578125 21.734375 
Q 48.578125 9.46875 49.140625 6.21875 
Q 49.703125 2.984375 51.375 0 
L 42.1875 0 
Q 40.828125 2.734375 40.4375 6.390625 
z
M 39.703125 26.03125 
Q 34.90625 24.078125 25.34375 22.703125 
Q 19.921875 21.921875 17.671875 20.9375 
Q 15.4375 19.96875 14.203125 18.09375 
Q 12.984375 16.21875 12.984375 13.921875 
Q 12.984375 10.40625 15.640625 8.0625 
Q 18.3125 5.71875 23.4375 5.71875 
Q 28.515625 5.71875 32.46875 7.9375 
Q 36.421875 10.15625 38.28125 14.015625 
Q 39.703125 17 39.703125 22.796875 
z
" id="ArialMT-97"/>
     <path d="M 6.59375 0 
L 6.59375 71.578125 
L 15.375 71.578125 
L 15.375 45.90625 
Q 21.53125 53.03125 30.90625 53.03125 
Q 36.671875 53.03125 40.921875 50.75 
Q 45.171875 48.484375 47 44.484375 
Q 48.828125 40.484375 48.828125 32.859375 
L 48.828125 0 
L 40.046875 0 
L 40.046875 32.859375 
Q 40.046875 39.453125 37.1875 42.453125 
Q 34.328125 45.453125 29.109375 45.453125 
Q 25.203125 45.453125 21.75 43.421875 
Q 18.3125 41.40625 16.84375 37.9375 
Q 15.375 34.46875 15.375 28.375 
L 15.375 0 
z
" id="ArialMT-104"/>
    </defs>
    <g style="fill:#262626;" transform="translate(708.06425 251.4945)scale(0.16 -0.16)">
     <use xlink:href="#ArialMT-119"/>
     <use x="72.216797" xlink:href="#ArialMT-101"/>
     <use x="127.832031" xlink:href="#ArialMT-97"/>
     <use x="183.447266" xlink:href="#ArialMT-116"/>
     <use x="211.230469" xlink:href="#ArialMT-104"/>
     <use x="266.845703" xlink:href="#ArialMT-101"/>
     <use x="322.460938" xlink:href="#ArialMT-114"/>
    </g>
   </g>
   <g id="patch_7">
    <path d="M 696.328 274.127 
L 728.328 274.127 
L 728.328 262.927 
L 696.328 262.927 
z
" style="fill:#083c1d;stroke:#141414;stroke-linejoin:miter;stroke-width:0.75;"/>
   </g>
   <g id="text_15">
    <!-- good -->
    <defs>
     <path d="M 4.984375 -4.296875 
L 13.53125 -5.5625 
Q 14.0625 -9.515625 16.5 -11.328125 
Q 19.78125 -13.765625 25.4375 -13.765625 
Q 31.546875 -13.765625 34.859375 -11.328125 
Q 38.1875 -8.890625 39.359375 -4.5 
Q 40.046875 -1.8125 39.984375 6.78125 
Q 34.234375 0 25.640625 0 
Q 14.9375 0 9.078125 7.71875 
Q 3.21875 15.4375 3.21875 26.21875 
Q 3.21875 33.640625 5.90625 39.90625 
Q 8.59375 46.1875 13.6875 49.609375 
Q 18.796875 53.03125 25.6875 53.03125 
Q 34.859375 53.03125 40.828125 45.609375 
L 40.828125 51.859375 
L 48.921875 51.859375 
L 48.921875 7.03125 
Q 48.921875 -5.078125 46.453125 -10.125 
Q 44 -15.1875 38.640625 -18.109375 
Q 33.296875 -21.046875 25.484375 -21.046875 
Q 16.21875 -21.046875 10.5 -16.875 
Q 4.78125 -12.703125 4.984375 -4.296875 
z
M 12.25 26.859375 
Q 12.25 16.65625 16.296875 11.96875 
Q 20.359375 7.28125 26.46875 7.28125 
Q 32.515625 7.28125 36.609375 11.9375 
Q 40.71875 16.609375 40.71875 26.5625 
Q 40.71875 36.078125 36.5 40.90625 
Q 32.28125 45.75 26.3125 45.75 
Q 20.453125 45.75 16.34375 40.984375 
Q 12.25 36.234375 12.25 26.859375 
z
" id="ArialMT-103"/>
    </defs>
    <g style="fill:#262626;" transform="translate(741.128 274.127)scale(0.16 -0.16)">
     <use xlink:href="#ArialMT-103"/>
     <use x="55.615234" xlink:href="#ArialMT-111"/>
     <use x="111.230469" xlink:href="#ArialMT-111"/>
     <use x="166.845703" xlink:href="#ArialMT-100"/>
    </g>
   </g>
   <g id="patch_8">
    <path d="M 696.328 296.947 
L 728.328 296.947 
L 728.328 285.747 
L 696.328 285.747 
z
" style="fill:#0e5f2f;stroke:#141414;stroke-linejoin:miter;stroke-width:0.75;"/>
   </g>
   <g id="text_16">
    <!-- bad -->
    <defs>
     <path d="M 14.703125 0 
L 6.546875 0 
L 6.546875 71.578125 
L 15.328125 71.578125 
L 15.328125 46.046875 
Q 20.90625 53.03125 29.546875 53.03125 
Q 34.328125 53.03125 38.59375 51.09375 
Q 42.875 49.171875 45.625 45.671875 
Q 48.390625 42.1875 49.953125 37.25 
Q 51.515625 32.328125 51.515625 26.703125 
Q 51.515625 13.375 44.921875 6.09375 
Q 38.328125 -1.171875 29.109375 -1.171875 
Q 19.921875 -1.171875 14.703125 6.5 
z
M 14.59375 26.3125 
Q 14.59375 17 17.140625 12.84375 
Q 21.296875 6.0625 28.375 6.0625 
Q 34.125 6.0625 38.328125 11.0625 
Q 42.53125 16.0625 42.53125 25.984375 
Q 42.53125 36.140625 38.5 40.96875 
Q 34.46875 45.796875 28.765625 45.796875 
Q 23 45.796875 18.796875 40.796875 
Q 14.59375 35.796875 14.59375 26.3125 
z
" id="ArialMT-98"/>
    </defs>
    <g style="fill:#262626;" transform="translate(741.128 296.947)scale(0.16 -0.16)">
     <use xlink:href="#ArialMT-98"/>
     <use x="55.615234" xlink:href="#ArialMT-97"/>
     <use x="111.230469" xlink:href="#ArialMT-100"/>
    </g>
   </g>
  </g>
 </g>
 <defs>
  <clipPath id="pbb23533faa">
   <rect height="485.504" width="534.169648" x="71.39" y="7.2"/>
  </clipPath>
 </defs>
</svg>
