<?xml version="1.0" encoding="utf-8" standalone="no"?>
<!DOCTYPE svg PUBLIC "-//W3C//DTD SVG 1.1//EN"
  "http://www.w3.org/Graphics/SVG/1.1/DTD/svg11.dtd">
<!-- Created with matplotlib (https://matplotlib.org/) -->
<svg height="540.169pt" version="1.1" viewBox="0 0 791.118 540.169" width="791.118pt" xmlns="http://www.w3.org/2000/svg" xmlns:xlink="http://www.w3.org/1999/xlink">
 <defs>
  <style type="text/css">
*{stroke-linecap:butt;stroke-linejoin:round;white-space:pre;}
  </style>
 </defs>
 <g id="figure_1">
  <g id="patch_1">
   <path d="M 0 540.169 
L 791.118 540.169 
L 791.118 0 
L 0 0 
z
" style="fill:#ffffff;"/>
  </g>
  <g id="axes_1">
   <g id="patch_2">
    <path d="M 71.39 492.704 
L 638.570363 492.704 
L 638.570363 7.2 
L 71.39 7.2 
z
" style="fill:#ffffff;"/>
   </g>
   <g id="matplotlib.axis_1">
    <g id="xtick_1">
     <g id="text_1">
      <!-- 0619-1 -->
      <defs>
       <path d="M 4.15625 35.296875 
Q 4.15625 48 6.765625 55.734375 
Q 9.375 63.484375 14.515625 67.671875 
Q 19.671875 71.875 27.484375 71.875 
Q 33.25 71.875 37.59375 69.546875 
Q 41.9375 67.234375 44.765625 62.859375 
Q 47.609375 58.5 49.21875 52.21875 
Q 50.828125 45.953125 50.828125 35.296875 
Q 50.828125 22.703125 48.234375 14.96875 
Q 45.65625 7.234375 40.5 3 
Q 35.359375 -1.21875 27.484375 -1.21875 
Q 17.140625 -1.21875 11.234375 6.203125 
Q 4.15625 15.140625 4.15625 35.296875 
z
M 13.1875 35.296875 
Q 13.1875 17.671875 17.3125 11.828125 
Q 21.4375 6 27.484375 6 
Q 33.546875 6 37.671875 11.859375 
Q 41.796875 17.71875 41.796875 35.296875 
Q 41.796875 52.984375 37.671875 58.78125 
Q 33.546875 64.59375 27.390625 64.59375 
Q 21.34375 64.59375 17.71875 59.46875 
Q 13.1875 52.9375 13.1875 35.296875 
z
" id="ArialMT-48"/>
       <path d="M 49.75 54.046875 
L 41.015625 53.375 
Q 39.84375 58.546875 37.703125 60.890625 
Q 34.125 64.65625 28.90625 64.65625 
Q 24.703125 64.65625 21.53125 62.3125 
Q 17.390625 59.28125 14.984375 53.46875 
Q 12.59375 47.65625 12.5 36.921875 
Q 15.671875 41.75 20.265625 44.09375 
Q 24.859375 46.4375 29.890625 46.4375 
Q 38.671875 46.4375 44.84375 39.96875 
Q 51.03125 33.5 51.03125 23.25 
Q 51.03125 16.5 48.125 10.71875 
Q 45.21875 4.9375 40.140625 1.859375 
Q 35.0625 -1.21875 28.609375 -1.21875 
Q 17.625 -1.21875 10.6875 6.859375 
Q 3.765625 14.9375 3.765625 33.5 
Q 3.765625 54.25 11.421875 63.671875 
Q 18.109375 71.875 29.4375 71.875 
Q 37.890625 71.875 43.28125 67.140625 
Q 48.6875 62.40625 49.75 54.046875 
z
M 13.875 23.1875 
Q 13.875 18.65625 15.796875 14.5 
Q 17.71875 10.359375 21.1875 8.171875 
Q 24.65625 6 28.46875 6 
Q 34.03125 6 38.03125 10.484375 
Q 42.046875 14.984375 42.046875 22.703125 
Q 42.046875 30.125 38.078125 34.390625 
Q 34.125 38.671875 28.125 38.671875 
Q 22.171875 38.671875 18.015625 34.390625 
Q 13.875 30.125 13.875 23.1875 
z
" id="ArialMT-54"/>
       <path d="M 37.25 0 
L 28.46875 0 
L 28.46875 56 
Q 25.296875 52.984375 20.140625 49.953125 
Q 14.984375 46.921875 10.890625 45.40625 
L 10.890625 53.90625 
Q 18.265625 57.375 23.78125 62.296875 
Q 29.296875 67.234375 31.59375 71.875 
L 37.25 71.875 
z
" id="ArialMT-49"/>
       <path d="M 5.46875 16.546875 
L 13.921875 17.328125 
Q 14.984375 11.375 18.015625 8.6875 
Q 21.046875 6 25.78125 6 
Q 29.828125 6 32.875 7.859375 
Q 35.9375 9.71875 37.890625 12.8125 
Q 39.84375 15.921875 41.15625 21.1875 
Q 42.484375 26.46875 42.484375 31.9375 
Q 42.484375 32.515625 42.4375 33.6875 
Q 39.796875 29.5 35.234375 26.875 
Q 30.671875 24.265625 25.34375 24.265625 
Q 16.453125 24.265625 10.296875 30.703125 
Q 4.15625 37.15625 4.15625 47.703125 
Q 4.15625 58.59375 10.578125 65.234375 
Q 17 71.875 26.65625 71.875 
Q 33.640625 71.875 39.421875 68.109375 
Q 45.21875 64.359375 48.21875 57.390625 
Q 51.21875 50.4375 51.21875 37.25 
Q 51.21875 23.53125 48.234375 15.40625 
Q 45.265625 7.28125 39.375 3.03125 
Q 33.5 -1.21875 25.59375 -1.21875 
Q 17.1875 -1.21875 11.859375 3.4375 
Q 6.546875 8.109375 5.46875 16.546875 
z
M 41.453125 48.140625 
Q 41.453125 55.71875 37.421875 60.15625 
Q 33.40625 64.59375 27.734375 64.59375 
Q 21.875 64.59375 17.53125 59.8125 
Q 13.1875 55.03125 13.1875 47.40625 
Q 13.1875 40.578125 17.3125 36.296875 
Q 21.4375 32.03125 27.484375 32.03125 
Q 33.59375 32.03125 37.515625 36.296875 
Q 41.453125 40.578125 41.453125 48.140625 
z
" id="ArialMT-57"/>
       <path d="M 3.171875 21.484375 
L 3.171875 30.328125 
L 30.171875 30.328125 
L 30.171875 21.484375 
z
" id="ArialMT-45"/>
      </defs>
      <g style="fill:#262626;" transform="translate(103.200536 511.1565)scale(0.16 -0.16)">
       <use xlink:href="#ArialMT-48"/>
       <use x="55.615234" xlink:href="#ArialMT-54"/>
       <use x="111.230469" xlink:href="#ArialMT-49"/>
       <use x="166.845703" xlink:href="#ArialMT-57"/>
       <use x="222.460938" xlink:href="#ArialMT-45"/>
       <use x="255.761719" xlink:href="#ArialMT-49"/>
      </g>
     </g>
    </g>
    <g id="xtick_2">
     <g id="text_2">
      <!-- 0619-2 -->
      <defs>
       <path d="M 50.34375 8.453125 
L 50.34375 0 
L 3.03125 0 
Q 2.9375 3.171875 4.046875 6.109375 
Q 5.859375 10.9375 9.828125 15.625 
Q 13.8125 20.3125 21.34375 26.46875 
Q 33.015625 36.03125 37.109375 41.625 
Q 41.21875 47.21875 41.21875 52.203125 
Q 41.21875 57.421875 37.46875 61 
Q 33.734375 64.59375 27.734375 64.59375 
Q 21.390625 64.59375 17.578125 60.78125 
Q 13.765625 56.984375 13.71875 50.25 
L 4.6875 51.171875 
Q 5.609375 61.28125 11.65625 66.578125 
Q 17.71875 71.875 27.9375 71.875 
Q 38.234375 71.875 44.234375 66.15625 
Q 50.25 60.453125 50.25 52 
Q 50.25 47.703125 48.484375 43.546875 
Q 46.734375 39.40625 42.65625 34.8125 
Q 38.578125 30.21875 29.109375 22.21875 
Q 21.1875 15.578125 18.9375 13.203125 
Q 16.703125 10.84375 15.234375 8.453125 
z
" id="ArialMT-50"/>
      </defs>
      <g style="fill:#262626;" transform="translate(216.636609 511.1565)scale(0.16 -0.16)">
       <use xlink:href="#ArialMT-48"/>
       <use x="55.615234" xlink:href="#ArialMT-54"/>
       <use x="111.230469" xlink:href="#ArialMT-49"/>
       <use x="166.845703" xlink:href="#ArialMT-57"/>
       <use x="222.460938" xlink:href="#ArialMT-45"/>
       <use x="255.761719" xlink:href="#ArialMT-50"/>
      </g>
     </g>
    </g>
    <g id="xtick_3">
     <g id="text_3">
      <!-- 1783-1 -->
      <defs>
       <path d="M 4.734375 62.203125 
L 4.734375 70.65625 
L 51.078125 70.65625 
L 51.078125 63.8125 
Q 44.234375 56.546875 37.515625 44.484375 
Q 30.8125 32.421875 27.15625 19.671875 
Q 24.515625 10.6875 23.78125 0 
L 14.75 0 
Q 14.890625 8.453125 18.0625 20.40625 
Q 21.234375 32.375 27.171875 43.484375 
Q 33.109375 54.59375 39.796875 62.203125 
z
" id="ArialMT-55"/>
       <path d="M 17.671875 38.8125 
Q 12.203125 40.828125 9.5625 44.53125 
Q 6.9375 48.25 6.9375 53.421875 
Q 6.9375 61.234375 12.546875 66.546875 
Q 18.171875 71.875 27.484375 71.875 
Q 36.859375 71.875 42.578125 66.421875 
Q 48.296875 60.984375 48.296875 53.171875 
Q 48.296875 48.1875 45.671875 44.5 
Q 43.0625 40.828125 37.75 38.8125 
Q 44.34375 36.671875 47.78125 31.875 
Q 51.21875 27.09375 51.21875 20.453125 
Q 51.21875 11.28125 44.71875 5.03125 
Q 38.234375 -1.21875 27.640625 -1.21875 
Q 17.046875 -1.21875 10.546875 5.046875 
Q 4.046875 11.328125 4.046875 20.703125 
Q 4.046875 27.6875 7.59375 32.390625 
Q 11.140625 37.109375 17.671875 38.8125 
z
M 15.921875 53.71875 
Q 15.921875 48.640625 19.1875 45.40625 
Q 22.46875 42.1875 27.6875 42.1875 
Q 32.765625 42.1875 36.015625 45.375 
Q 39.265625 48.578125 39.265625 53.21875 
Q 39.265625 58.0625 35.90625 61.359375 
Q 32.5625 64.65625 27.59375 64.65625 
Q 22.5625 64.65625 19.234375 61.421875 
Q 15.921875 58.203125 15.921875 53.71875 
z
M 13.09375 20.65625 
Q 13.09375 16.890625 14.875 13.375 
Q 16.65625 9.859375 20.171875 7.921875 
Q 23.6875 6 27.734375 6 
Q 34.03125 6 38.125 10.046875 
Q 42.234375 14.109375 42.234375 20.359375 
Q 42.234375 26.703125 38.015625 30.859375 
Q 33.796875 35.015625 27.4375 35.015625 
Q 21.234375 35.015625 17.15625 30.90625 
Q 13.09375 26.8125 13.09375 20.65625 
z
" id="ArialMT-56"/>
       <path d="M 4.203125 18.890625 
L 12.984375 20.0625 
Q 14.5 12.59375 18.140625 9.296875 
Q 21.78125 6 27 6 
Q 33.203125 6 37.46875 10.296875 
Q 41.75 14.59375 41.75 20.953125 
Q 41.75 27 37.796875 30.921875 
Q 33.84375 34.859375 27.734375 34.859375 
Q 25.25 34.859375 21.53125 33.890625 
L 22.515625 41.609375 
Q 23.390625 41.5 23.921875 41.5 
Q 29.546875 41.5 34.03125 44.421875 
Q 38.53125 47.359375 38.53125 53.46875 
Q 38.53125 58.296875 35.25 61.46875 
Q 31.984375 64.65625 26.8125 64.65625 
Q 21.6875 64.65625 18.265625 61.421875 
Q 14.84375 58.203125 13.875 51.765625 
L 5.078125 53.328125 
Q 6.6875 62.15625 12.390625 67.015625 
Q 18.109375 71.875 26.609375 71.875 
Q 32.46875 71.875 37.390625 69.359375 
Q 42.328125 66.84375 44.9375 62.5 
Q 47.5625 58.15625 47.5625 53.265625 
Q 47.5625 48.640625 45.0625 44.828125 
Q 42.578125 41.015625 37.703125 38.765625 
Q 44.046875 37.3125 47.5625 32.6875 
Q 51.078125 28.078125 51.078125 21.140625 
Q 51.078125 11.765625 44.234375 5.25 
Q 37.40625 -1.265625 26.953125 -1.265625 
Q 17.53125 -1.265625 11.296875 4.34375 
Q 5.078125 9.96875 4.203125 18.890625 
z
" id="ArialMT-51"/>
      </defs>
      <g style="fill:#262626;" transform="translate(330.072681 511.1565)scale(0.16 -0.16)">
       <use xlink:href="#ArialMT-49"/>
       <use x="55.615234" xlink:href="#ArialMT-55"/>
       <use x="111.230469" xlink:href="#ArialMT-56"/>
       <use x="166.845703" xlink:href="#ArialMT-51"/>
       <use x="222.460938" xlink:href="#ArialMT-45"/>
       <use x="255.761719" xlink:href="#ArialMT-49"/>
      </g>
     </g>
    </g>
    <g id="xtick_4">
     <g id="text_4">
      <!-- 1783-2 -->
      <g style="fill:#262626;" transform="translate(443.508754 511.1565)scale(0.16 -0.16)">
       <use xlink:href="#ArialMT-49"/>
       <use x="55.615234" xlink:href="#ArialMT-55"/>
       <use x="111.230469" xlink:href="#ArialMT-56"/>
       <use x="166.845703" xlink:href="#ArialMT-51"/>
       <use x="222.460938" xlink:href="#ArialMT-45"/>
       <use x="255.761719" xlink:href="#ArialMT-50"/>
      </g>
     </g>
    </g>
    <g id="xtick_5">
     <g id="text_5">
      <!-- 0656-1 -->
      <defs>
       <path d="M 4.15625 18.75 
L 13.375 19.53125 
Q 14.40625 12.796875 18.140625 9.390625 
Q 21.875 6 27.15625 6 
Q 33.5 6 37.890625 10.78125 
Q 42.28125 15.578125 42.28125 23.484375 
Q 42.28125 31 38.0625 35.34375 
Q 33.84375 39.703125 27 39.703125 
Q 22.75 39.703125 19.328125 37.765625 
Q 15.921875 35.84375 13.96875 32.765625 
L 5.71875 33.84375 
L 12.640625 70.609375 
L 48.25 70.609375 
L 48.25 62.203125 
L 19.671875 62.203125 
L 15.828125 42.96875 
Q 22.265625 47.46875 29.34375 47.46875 
Q 38.71875 47.46875 45.15625 40.96875 
Q 51.609375 34.46875 51.609375 24.265625 
Q 51.609375 14.546875 45.953125 7.46875 
Q 39.0625 -1.21875 27.15625 -1.21875 
Q 17.390625 -1.21875 11.203125 4.25 
Q 5.03125 9.71875 4.15625 18.75 
z
" id="ArialMT-53"/>
      </defs>
      <g style="fill:#262626;" transform="translate(556.944827 511.1565)scale(0.16 -0.16)">
       <use xlink:href="#ArialMT-48"/>
       <use x="55.615234" xlink:href="#ArialMT-54"/>
       <use x="111.230469" xlink:href="#ArialMT-53"/>
       <use x="166.845703" xlink:href="#ArialMT-54"/>
       <use x="222.460938" xlink:href="#ArialMT-45"/>
       <use x="255.761719" xlink:href="#ArialMT-49"/>
      </g>
     </g>
    </g>
    <g id="text_6">
     <!-- Counter id -->
     <defs>
      <path d="M 58.796875 25.09375 
L 68.265625 22.703125 
Q 65.28125 11.03125 57.546875 4.90625 
Q 49.8125 -1.21875 38.625 -1.21875 
Q 27.046875 -1.21875 19.796875 3.484375 
Q 12.546875 8.203125 8.765625 17.140625 
Q 4.984375 26.078125 4.984375 36.328125 
Q 4.984375 47.515625 9.25 55.828125 
Q 13.53125 64.15625 21.40625 68.46875 
Q 29.296875 72.796875 38.765625 72.796875 
Q 49.515625 72.796875 56.828125 67.328125 
Q 64.15625 61.859375 67.046875 51.953125 
L 57.71875 49.75 
Q 55.21875 57.5625 50.484375 61.125 
Q 45.75 64.703125 38.578125 64.703125 
Q 30.328125 64.703125 24.78125 60.734375 
Q 19.234375 56.78125 16.984375 50.109375 
Q 14.75 43.453125 14.75 36.375 
Q 14.75 27.25 17.40625 20.4375 
Q 20.0625 13.625 25.671875 10.25 
Q 31.296875 6.890625 37.84375 6.890625 
Q 45.796875 6.890625 51.3125 11.46875 
Q 56.84375 16.0625 58.796875 25.09375 
z
" id="ArialMT-67"/>
      <path d="M 3.328125 25.921875 
Q 3.328125 40.328125 11.328125 47.265625 
Q 18.015625 53.03125 27.640625 53.03125 
Q 38.328125 53.03125 45.109375 46.015625 
Q 51.90625 39.015625 51.90625 26.65625 
Q 51.90625 16.65625 48.90625 10.90625 
Q 45.90625 5.171875 40.15625 2 
Q 34.421875 -1.171875 27.640625 -1.171875 
Q 16.75 -1.171875 10.03125 5.8125 
Q 3.328125 12.796875 3.328125 25.921875 
z
M 12.359375 25.921875 
Q 12.359375 15.96875 16.703125 11.015625 
Q 21.046875 6.0625 27.640625 6.0625 
Q 34.1875 6.0625 38.53125 11.03125 
Q 42.875 16.015625 42.875 26.21875 
Q 42.875 35.84375 38.5 40.796875 
Q 34.125 45.75 27.640625 45.75 
Q 21.046875 45.75 16.703125 40.8125 
Q 12.359375 35.890625 12.359375 25.921875 
z
" id="ArialMT-111"/>
      <path d="M 40.578125 0 
L 40.578125 7.625 
Q 34.515625 -1.171875 24.125 -1.171875 
Q 19.53125 -1.171875 15.546875 0.578125 
Q 11.578125 2.34375 9.640625 5 
Q 7.71875 7.671875 6.9375 11.53125 
Q 6.390625 14.109375 6.390625 19.734375 
L 6.390625 51.859375 
L 15.1875 51.859375 
L 15.1875 23.09375 
Q 15.1875 16.21875 15.71875 13.8125 
Q 16.546875 10.359375 19.234375 8.375 
Q 21.921875 6.390625 25.875 6.390625 
Q 29.828125 6.390625 33.296875 8.421875 
Q 36.765625 10.453125 38.203125 13.9375 
Q 39.65625 17.4375 39.65625 24.078125 
L 39.65625 51.859375 
L 48.4375 51.859375 
L 48.4375 0 
z
" id="ArialMT-117"/>
      <path d="M 6.59375 0 
L 6.59375 51.859375 
L 14.5 51.859375 
L 14.5 44.484375 
Q 20.21875 53.03125 31 53.03125 
Q 35.6875 53.03125 39.625 51.34375 
Q 43.5625 49.65625 45.515625 46.921875 
Q 47.46875 44.1875 48.25 40.4375 
Q 48.734375 37.984375 48.734375 31.890625 
L 48.734375 0 
L 39.9375 0 
L 39.9375 31.546875 
Q 39.9375 36.921875 38.90625 39.578125 
Q 37.890625 42.234375 35.28125 43.8125 
Q 32.671875 45.40625 29.15625 45.40625 
Q 23.53125 45.40625 19.453125 41.84375 
Q 15.375 38.28125 15.375 28.328125 
L 15.375 0 
z
" id="ArialMT-110"/>
      <path d="M 25.78125 7.859375 
L 27.046875 0.09375 
Q 23.34375 -0.6875 20.40625 -0.6875 
Q 15.625 -0.6875 12.984375 0.828125 
Q 10.359375 2.34375 9.28125 4.8125 
Q 8.203125 7.28125 8.203125 15.1875 
L 8.203125 45.015625 
L 1.765625 45.015625 
L 1.765625 51.859375 
L 8.203125 51.859375 
L 8.203125 64.703125 
L 16.9375 69.96875 
L 16.9375 51.859375 
L 25.78125 51.859375 
L 25.78125 45.015625 
L 16.9375 45.015625 
L 16.9375 14.703125 
Q 16.9375 10.9375 17.40625 9.859375 
Q 17.875 8.796875 18.921875 8.15625 
Q 19.96875 7.515625 21.921875 7.515625 
Q 23.390625 7.515625 25.78125 7.859375 
z
" id="ArialMT-116"/>
      <path d="M 42.09375 16.703125 
L 51.171875 15.578125 
Q 49.03125 7.625 43.21875 3.21875 
Q 37.40625 -1.171875 28.375 -1.171875 
Q 17 -1.171875 10.328125 5.828125 
Q 3.65625 12.84375 3.65625 25.484375 
Q 3.65625 38.578125 10.390625 45.796875 
Q 17.140625 53.03125 27.875 53.03125 
Q 38.28125 53.03125 44.875 45.953125 
Q 51.46875 38.875 51.46875 26.03125 
Q 51.46875 25.25 51.421875 23.6875 
L 12.75 23.6875 
Q 13.234375 15.140625 17.578125 10.59375 
Q 21.921875 6.0625 28.421875 6.0625 
Q 33.25 6.0625 36.671875 8.59375 
Q 40.09375 11.140625 42.09375 16.703125 
z
M 13.234375 30.90625 
L 42.1875 30.90625 
Q 41.609375 37.453125 38.875 40.71875 
Q 34.671875 45.796875 27.984375 45.796875 
Q 21.921875 45.796875 17.796875 41.75 
Q 13.671875 37.703125 13.234375 30.90625 
z
" id="ArialMT-101"/>
      <path d="M 6.5 0 
L 6.5 51.859375 
L 14.40625 51.859375 
L 14.40625 44 
Q 17.4375 49.515625 20 51.265625 
Q 22.5625 53.03125 25.640625 53.03125 
Q 30.078125 53.03125 34.671875 50.203125 
L 31.640625 42.046875 
Q 28.421875 43.953125 25.203125 43.953125 
Q 22.3125 43.953125 20.015625 42.21875 
Q 17.71875 40.484375 16.75 37.40625 
Q 15.28125 32.71875 15.28125 27.15625 
L 15.28125 0 
z
" id="ArialMT-114"/>
      <path id="ArialMT-32"/>
      <path d="M 6.640625 61.46875 
L 6.640625 71.578125 
L 15.4375 71.578125 
L 15.4375 61.46875 
z
M 6.640625 0 
L 6.640625 51.859375 
L 15.4375 51.859375 
L 15.4375 0 
z
" id="ArialMT-105"/>
      <path d="M 40.234375 0 
L 40.234375 6.546875 
Q 35.296875 -1.171875 25.734375 -1.171875 
Q 19.53125 -1.171875 14.328125 2.25 
Q 9.125 5.671875 6.265625 11.796875 
Q 3.421875 17.921875 3.421875 25.875 
Q 3.421875 33.640625 6 39.96875 
Q 8.59375 46.296875 13.765625 49.65625 
Q 18.953125 53.03125 25.34375 53.03125 
Q 30.03125 53.03125 33.6875 51.046875 
Q 37.359375 49.078125 39.65625 45.90625 
L 39.65625 71.578125 
L 48.390625 71.578125 
L 48.390625 0 
z
M 12.453125 25.875 
Q 12.453125 15.921875 16.640625 10.984375 
Q 20.84375 6.0625 26.5625 6.0625 
Q 32.328125 6.0625 36.34375 10.765625 
Q 40.375 15.484375 40.375 25.140625 
Q 40.375 35.796875 36.265625 40.765625 
Q 32.171875 45.75 26.171875 45.75 
Q 20.3125 45.75 16.375 40.96875 
Q 12.453125 36.1875 12.453125 25.875 
z
" id="ArialMT-100"/>
     </defs>
     <g style="fill:#262626;" transform="translate(318.072681 529.789)scale(0.16 -0.16)">
      <use xlink:href="#ArialMT-67"/>
      <use x="72.216797" xlink:href="#ArialMT-111"/>
      <use x="127.832031" xlink:href="#ArialMT-117"/>
      <use x="183.447266" xlink:href="#ArialMT-110"/>
      <use x="239.0625" xlink:href="#ArialMT-116"/>
      <use x="266.845703" xlink:href="#ArialMT-101"/>
      <use x="322.460938" xlink:href="#ArialMT-114"/>
      <use x="355.761719" xlink:href="#ArialMT-32"/>
      <use x="383.544922" xlink:href="#ArialMT-105"/>
      <use x="405.761719" xlink:href="#ArialMT-100"/>
     </g>
    </g>
   </g>
   <g id="matplotlib.axis_2">
    <g id="ytick_1">
     <g id="text_7">
      <!-- 0 -->
      <g style="fill:#262626;" transform="translate(55.4925 476.727871)scale(0.16 -0.16)">
       <use xlink:href="#ArialMT-48"/>
      </g>
     </g>
    </g>
    <g id="ytick_2">
     <g id="text_8">
      <!-- 200 -->
      <g style="fill:#262626;" transform="translate(37.6975 408.985213)scale(0.16 -0.16)">
       <use xlink:href="#ArialMT-50"/>
       <use x="55.615234" xlink:href="#ArialMT-48"/>
       <use x="111.230469" xlink:href="#ArialMT-48"/>
      </g>
     </g>
    </g>
    <g id="ytick_3">
     <g id="text_9">
      <!-- 400 -->
      <defs>
       <path d="M 32.328125 0 
L 32.328125 17.140625 
L 1.265625 17.140625 
L 1.265625 25.203125 
L 33.9375 71.578125 
L 41.109375 71.578125 
L 41.109375 25.203125 
L 50.78125 25.203125 
L 50.78125 17.140625 
L 41.109375 17.140625 
L 41.109375 0 
z
M 32.328125 25.203125 
L 32.328125 57.46875 
L 9.90625 25.203125 
z
" id="ArialMT-52"/>
      </defs>
      <g style="fill:#262626;" transform="translate(37.6975 341.242555)scale(0.16 -0.16)">
       <use xlink:href="#ArialMT-52"/>
       <use x="55.615234" xlink:href="#ArialMT-48"/>
       <use x="111.230469" xlink:href="#ArialMT-48"/>
      </g>
     </g>
    </g>
    <g id="ytick_4">
     <g id="text_10">
      <!-- 600 -->
      <g style="fill:#262626;" transform="translate(37.6975 273.499897)scale(0.16 -0.16)">
       <use xlink:href="#ArialMT-54"/>
       <use x="55.615234" xlink:href="#ArialMT-48"/>
       <use x="111.230469" xlink:href="#ArialMT-48"/>
      </g>
     </g>
    </g>
    <g id="ytick_5">
     <g id="text_11">
      <!-- 800 -->
      <g style="fill:#262626;" transform="translate(37.6975 205.757239)scale(0.16 -0.16)">
       <use xlink:href="#ArialMT-56"/>
       <use x="55.615234" xlink:href="#ArialMT-48"/>
       <use x="111.230469" xlink:href="#ArialMT-48"/>
      </g>
     </g>
    </g>
    <g id="ytick_6">
     <g id="text_12">
      <!-- 1000 -->
      <g style="fill:#262626;" transform="translate(28.8 138.014581)scale(0.16 -0.16)">
       <use xlink:href="#ArialMT-49"/>
       <use x="55.615234" xlink:href="#ArialMT-48"/>
       <use x="111.230469" xlink:href="#ArialMT-48"/>
       <use x="166.845703" xlink:href="#ArialMT-48"/>
      </g>
     </g>
    </g>
    <g id="ytick_7">
     <g id="text_13">
      <!-- 1200 -->
      <g style="fill:#262626;" transform="translate(28.8 70.271922)scale(0.16 -0.16)">
       <use xlink:href="#ArialMT-49"/>
       <use x="55.615234" xlink:href="#ArialMT-50"/>
       <use x="111.230469" xlink:href="#ArialMT-48"/>
       <use x="166.845703" xlink:href="#ArialMT-48"/>
      </g>
     </g>
    </g>
    <g id="text_14">
     <!-- Count [$h^{-1}$] -->
     <defs>
      <path d="M 6.78125 -19.875 
L 6.78125 71.578125 
L 26.171875 71.578125 
L 26.171875 64.3125 
L 15.578125 64.3125 
L 15.578125 -12.59375 
L 26.171875 -12.59375 
L 26.171875 -19.875 
z
" id="ArialMT-91"/>
      <path d="M 55.71875 33.015625 
L 49.3125 0 
L 40.28125 0 
L 46.6875 32.671875 
Q 47.125 34.96875 47.359375 36.71875 
Q 47.609375 38.484375 47.609375 39.5 
Q 47.609375 43.609375 45.015625 45.890625 
Q 42.4375 48.1875 37.796875 48.1875 
Q 30.5625 48.1875 25.265625 43.296875 
Q 19.96875 38.421875 18.40625 30.328125 
L 12.5 0 
L 3.515625 0 
L 18.3125 75.984375 
L 27.296875 75.984375 
L 21.484375 46.09375 
Q 24.90625 50.6875 30.21875 53.34375 
Q 35.546875 56 41.40625 56 
Q 48.640625 56 52.609375 52.09375 
Q 56.59375 48.1875 56.59375 41.109375 
Q 56.59375 39.359375 56.375 37.359375 
Q 56.15625 35.359375 55.71875 33.015625 
z
" id="DejaVuSans-Oblique-104"/>
      <path d="M 10.59375 35.5 
L 73.1875 35.5 
L 73.1875 27.203125 
L 10.59375 27.203125 
z
" id="DejaVuSans-8722"/>
      <path d="M 12.40625 8.296875 
L 28.515625 8.296875 
L 28.515625 63.921875 
L 10.984375 60.40625 
L 10.984375 69.390625 
L 28.421875 72.90625 
L 38.28125 72.90625 
L 38.28125 8.296875 
L 54.390625 8.296875 
L 54.390625 0 
L 12.40625 0 
z
" id="DejaVuSans-49"/>
      <path d="M 21.296875 -19.875 
L 1.90625 -19.875 
L 1.90625 -12.59375 
L 12.5 -12.59375 
L 12.5 64.3125 
L 1.90625 64.3125 
L 1.90625 71.578125 
L 21.296875 71.578125 
z
" id="ArialMT-93"/>
     </defs>
     <g style="fill:#262626;" transform="translate(21.6 292.112)rotate(-90)scale(0.16 -0.16)">
      <use transform="translate(0 0.684375)" xlink:href="#ArialMT-67"/>
      <use transform="translate(72.216797 0.684375)" xlink:href="#ArialMT-111"/>
      <use transform="translate(127.832031 0.684375)" xlink:href="#ArialMT-117"/>
      <use transform="translate(183.447266 0.684375)" xlink:href="#ArialMT-110"/>
      <use transform="translate(239.0625 0.684375)" xlink:href="#ArialMT-116"/>
      <use transform="translate(266.845703 0.684375)" xlink:href="#ArialMT-32"/>
      <use transform="translate(294.628906 0.684375)" xlink:href="#ArialMT-91"/>
      <use transform="translate(322.412109 0.684375)" xlink:href="#DejaVuSans-Oblique-104"/>
      <use transform="translate(393.238724 38.965625)scale(0.7)" xlink:href="#DejaVuSans-8722"/>
      <use transform="translate(451.891068 38.965625)scale(0.7)" xlink:href="#DejaVuSans-49"/>
      <use transform="translate(499.161576 0.684375)" xlink:href="#ArialMT-93"/>
     </g>
    </g>
   </g>
   <g id="PolyCollection_1">
    <defs>
     <path d="M 106.924156 -69.702189 
L 103.917488 -69.702189 
L 103.552713 -70.28658 
L 103.123775 -70.870971 
L 102.626712 -71.455362 
L 102.06032 -72.039753 
L 101.42707 -72.624144 
L 100.733713 -73.208535 
L 99.991403 -73.792926 
L 99.215168 -74.377317 
L 98.422724 -74.961709 
L 97.632727 -75.5461 
L 96.862662 -76.130491 
L 96.126719 -76.714882 
L 95.433976 -77.299273 
L 94.787234 -77.883664 
L 94.182723 -78.468055 
L 93.610777 -79.052446 
L 93.057393 -79.636837 
L 92.506466 -80.221228 
L 91.942331 -80.805619 
L 91.352218 -81.39001 
L 90.728227 -81.974401 
L 90.068501 -82.558792 
L 89.377431 -83.143183 
L 88.6649 -83.727574 
L 87.944735 -84.311965 
L 87.232701 -84.896356 
L 86.544448 -85.480747 
L 85.893777 -86.065138 
L 85.291554 -86.649529 
L 84.745379 -87.23392 
L 84.259964 -87.818311 
L 83.837993 -88.402702 
L 83.481139 -88.987093 
L 83.190916 -89.571484 
L 82.969143 -90.155875 
L 82.817896 -90.740266 
L 82.739056 -91.324657 
L 82.733607 -91.909048 
L 82.800951 -92.493439 
L 82.938449 -93.07783 
L 83.141347 -93.662221 
L 83.403098 -94.246612 
L 83.71602 -94.831003 
L 84.072113 -95.415394 
L 84.463842 -95.999785 
L 84.884699 -96.584176 
L 85.329434 -97.168567 
L 85.793909 -97.752958 
L 86.274647 -98.337349 
L 86.768222 -98.92174 
L 87.270685 -99.506131 
L 87.777174 -100.090523 
L 88.281858 -100.674914 
L 88.778213 -101.259305 
L 89.259583 -101.843696 
L 89.719901 -102.428087 
L 90.154417 -103.012478 
L 90.56029 -103.596869 
L 90.936974 -104.18126 
L 91.286332 -104.765651 
L 91.612506 -105.350042 
L 91.921559 -105.934433 
L 92.220953 -106.518824 
L 92.518895 -107.103215 
L 92.823624 -107.687606 
L 93.142694 -108.271997 
L 93.482313 -108.856388 
L 93.846818 -109.440779 
L 94.238339 -110.02517 
L 94.656689 -110.609561 
L 95.099496 -111.193952 
L 95.562541 -111.778343 
L 96.040258 -112.362734 
L 96.526305 -112.947125 
L 97.014144 -113.531516 
L 97.497554 -114.115907 
L 97.971027 -114.700298 
L 98.430036 -115.284689 
L 98.871156 -115.86908 
L 99.292065 -116.453471 
L 99.691443 -117.037862 
L 100.068803 -117.622253 
L 100.424291 -118.206644 
L 100.758501 -118.791035 
L 101.07233 -119.375426 
L 101.366908 -119.959817 
L 101.643599 -120.544208 
L 101.904046 -121.128599 
L 102.150221 -121.71299 
L 102.384429 -122.297381 
L 102.609218 -122.881772 
L 102.827192 -123.466163 
L 103.040724 -124.050554 
L 103.25165 -124.634946 
L 103.460975 -125.219337 
L 103.668688 -125.803728 
L 103.873707 -126.388119 
L 104.074001 -126.97251 
L 104.26684 -127.556901 
L 106.574804 -127.556901 
L 106.574804 -127.556901 
L 106.767643 -126.97251 
L 106.967936 -126.388119 
L 107.172956 -125.803728 
L 107.380668 -125.219337 
L 107.589994 -124.634946 
L 107.800919 -124.050554 
L 108.014452 -123.466163 
L 108.232425 -122.881772 
L 108.457215 -122.297381 
L 108.691422 -121.71299 
L 108.937597 -121.128599 
L 109.198044 -120.544208 
L 109.474735 -119.959817 
L 109.769314 -119.375426 
L 110.083143 -118.791035 
L 110.417352 -118.206644 
L 110.772841 -117.622253 
L 111.150201 -117.037862 
L 111.549579 -116.453471 
L 111.970488 -115.86908 
L 112.411608 -115.284689 
L 112.870617 -114.700298 
L 113.34409 -114.115907 
L 113.827499 -113.531516 
L 114.315338 -112.947125 
L 114.801385 -112.362734 
L 115.279102 -111.778343 
L 115.742148 -111.193952 
L 116.184954 -110.609561 
L 116.603305 -110.02517 
L 116.994825 -109.440779 
L 117.35933 -108.856388 
L 117.698949 -108.271997 
L 118.018019 -107.687606 
L 118.322748 -107.103215 
L 118.62069 -106.518824 
L 118.920084 -105.934433 
L 119.229138 -105.350042 
L 119.555311 -104.765651 
L 119.904669 -104.18126 
L 120.281353 -103.596869 
L 120.687227 -103.012478 
L 121.121742 -102.428087 
L 121.582061 -101.843696 
L 122.063431 -101.259305 
L 122.559785 -100.674914 
L 123.06447 -100.090523 
L 123.570959 -99.506131 
L 124.073421 -98.92174 
L 124.566997 -98.337349 
L 125.047734 -97.752958 
L 125.512209 -97.168567 
L 125.956945 -96.584176 
L 126.377802 -95.999785 
L 126.76953 -95.415394 
L 127.125624 -94.831003 
L 127.438546 -94.246612 
L 127.700297 -93.662221 
L 127.903194 -93.07783 
L 128.040693 -92.493439 
L 128.108036 -91.909048 
L 128.102587 -91.324657 
L 128.023747 -90.740266 
L 127.872501 -90.155875 
L 127.650727 -89.571484 
L 127.360505 -88.987093 
L 127.00365 -88.402702 
L 126.581679 -87.818311 
L 126.096265 -87.23392 
L 125.550089 -86.649529 
L 124.947866 -86.065138 
L 124.297195 -85.480747 
L 123.608942 -84.896356 
L 122.896909 -84.311965 
L 122.176743 -83.727574 
L 121.464212 -83.143183 
L 120.773143 -82.558792 
L 120.113417 -81.974401 
L 119.489426 -81.39001 
L 118.899313 -80.805619 
L 118.335178 -80.221228 
L 117.784251 -79.636837 
L 117.230867 -79.052446 
L 116.65892 -78.468055 
L 116.05441 -77.883664 
L 115.407668 -77.299273 
L 114.714925 -76.714882 
L 113.978982 -76.130491 
L 113.208917 -75.5461 
L 112.418919 -74.961709 
L 111.626476 -74.377317 
L 110.85024 -73.792926 
L 110.10793 -73.208535 
L 109.414574 -72.624144 
L 108.781323 -72.039753 
L 108.214932 -71.455362 
L 107.717869 -70.870971 
L 107.288931 -70.28658 
L 106.924156 -69.702189 
z
" id="m2ac39527d5" style="stroke:#141414;stroke-width:1.5;"/>
    </defs>
    <g clip-path="url(#pb965c9bd78)">
     <use style="fill:#083c1d;stroke:#141414;stroke-width:1.5;" x="0" xlink:href="#m2ac39527d5" y="540.169"/>
    </g>
   </g>
   <g id="PolyCollection_2">
    <defs>
     <path d="M 150.904744 -71.358122 
L 150.685757 -71.358122 
L 150.651673 -72.497619 
L 150.60817 -73.637116 
L 150.553763 -74.776613 
L 150.488172 -75.91611 
L 150.412692 -77.055607 
L 150.329868 -78.195103 
L 150.24238 -79.3346 
L 150.151467 -80.474097 
L 150.055561 -81.613594 
L 149.94977 -82.753091 
L 149.826462 -83.892588 
L 149.676675 -85.032084 
L 149.491657 -86.171581 
L 149.263881 -87.311078 
L 148.987218 -88.450575 
L 148.656382 -89.590072 
L 148.266088 -90.729569 
L 147.810346 -91.869066 
L 147.282187 -93.008562 
L 146.673991 -94.148059 
L 145.978505 -95.287556 
L 145.190653 -96.427053 
L 144.310049 -97.56655 
L 143.343784 -98.706047 
L 142.308609 -99.845543 
L 141.231466 -100.98504 
L 140.147676 -102.124537 
L 139.096951 -103.264034 
L 138.118302 -104.403531 
L 137.245335 -105.543028 
L 136.502977 -106.682524 
L 135.90584 -107.822021 
L 135.45769 -108.961518 
L 135.151531 -110.101015 
L 134.970446 -111.240512 
L 134.889845 -112.380009 
L 134.881607 -113.519506 
L 134.919622 -114.659002 
L 134.985172 -115.798499 
L 135.070236 -116.937996 
L 135.177456 -118.077493 
L 135.316881 -119.21699 
L 135.50085 -120.356487 
L 135.738921 -121.495983 
L 136.034492 -122.63548 
L 136.383984 -123.774977 
L 136.778607 -124.914474 
L 137.207995 -126.053971 
L 137.66445 -127.193468 
L 138.146199 -128.332964 
L 138.658095 -129.472461 
L 139.208946 -130.611958 
L 139.806047 -131.751455 
L 140.449004 -132.890952 
L 141.125694 -134.030449 
L 141.812529 -135.169945 
L 142.479289 -136.309442 
L 143.096628 -137.448939 
L 143.643174 -138.588436 
L 144.109563 -139.727933 
L 144.498374 -140.86743 
L 144.820875 -142.006927 
L 145.092567 -143.146423 
L 145.329485 -144.28592 
L 145.546239 -145.425417 
L 145.755601 -146.564914 
L 145.968655 -147.704411 
L 146.194529 -148.843908 
L 146.439267 -149.983404 
L 146.704204 -151.122901 
L 146.984757 -152.262398 
L 147.270547 -153.401895 
L 147.547269 -154.541392 
L 147.800003 -155.680889 
L 148.01697 -156.820385 
L 148.19253 -157.959882 
L 148.328404 -159.099379 
L 148.432707 -160.238876 
L 148.517163 -161.378373 
L 148.593568 -162.51787 
L 148.670799 -163.657367 
L 148.753436 -164.796863 
L 148.842238 -165.93636 
L 148.935862 -167.075857 
L 149.0327 -168.215354 
L 149.131855 -169.354851 
L 149.232934 -170.494348 
L 149.335123 -171.633844 
L 149.436389 -172.773341 
L 149.533479 -173.912838 
L 149.622882 -175.052335 
L 149.702299 -176.191832 
L 149.771921 -177.331329 
L 149.834888 -178.470825 
L 149.89665 -179.610322 
L 149.963396 -180.749819 
L 150.040085 -181.889316 
L 150.128758 -183.028813 
L 150.227737 -184.16831 
L 151.362764 -184.16831 
L 151.362764 -184.16831 
L 151.461744 -183.028813 
L 151.550416 -181.889316 
L 151.627105 -180.749819 
L 151.693851 -179.610322 
L 151.755613 -178.470825 
L 151.818581 -177.331329 
L 151.888203 -176.191832 
L 151.967619 -175.052335 
L 152.057022 -173.912838 
L 152.154113 -172.773341 
L 152.255378 -171.633844 
L 152.357568 -170.494348 
L 152.458646 -169.354851 
L 152.557801 -168.215354 
L 152.65464 -167.075857 
L 152.748263 -165.93636 
L 152.837065 -164.796863 
L 152.919702 -163.657367 
L 152.996934 -162.51787 
L 153.073338 -161.378373 
L 153.157795 -160.238876 
L 153.262097 -159.099379 
L 153.397972 -157.959882 
L 153.573532 -156.820385 
L 153.790498 -155.680889 
L 154.043232 -154.541392 
L 154.319955 -153.401895 
L 154.605744 -152.262398 
L 154.886298 -151.122901 
L 155.151235 -149.983404 
L 155.395972 -148.843908 
L 155.621847 -147.704411 
L 155.834901 -146.564914 
L 156.044263 -145.425417 
L 156.261017 -144.28592 
L 156.497934 -143.146423 
L 156.769626 -142.006927 
L 157.092128 -140.86743 
L 157.480939 -139.727933 
L 157.947327 -138.588436 
L 158.493874 -137.448939 
L 159.111212 -136.309442 
L 159.777973 -135.169945 
L 160.464808 -134.030449 
L 161.141498 -132.890952 
L 161.784454 -131.751455 
L 162.381555 -130.611958 
L 162.932406 -129.472461 
L 163.444302 -128.332964 
L 163.926052 -127.193468 
L 164.382507 -126.053971 
L 164.811895 -124.914474 
L 165.206518 -123.774977 
L 165.55601 -122.63548 
L 165.85158 -121.495983 
L 166.089651 -120.356487 
L 166.27362 -119.21699 
L 166.413045 -118.077493 
L 166.520265 -116.937996 
L 166.60533 -115.798499 
L 166.67088 -114.659002 
L 166.708894 -113.519506 
L 166.700656 -112.380009 
L 166.620055 -111.240512 
L 166.43897 -110.101015 
L 166.132812 -108.961518 
L 165.684661 -107.822021 
L 165.087525 -106.682524 
L 164.345167 -105.543028 
L 163.472199 -104.403531 
L 162.493551 -103.264034 
L 161.442825 -102.124537 
L 160.359036 -100.98504 
L 159.281893 -99.845543 
L 158.246718 -98.706047 
L 157.280453 -97.56655 
L 156.399849 -96.427053 
L 155.611997 -95.287556 
L 154.916511 -94.148059 
L 154.308315 -93.008562 
L 153.780156 -91.869066 
L 153.324413 -90.729569 
L 152.934119 -89.590072 
L 152.603284 -88.450575 
L 152.32662 -87.311078 
L 152.098845 -86.171581 
L 151.913826 -85.032084 
L 151.764039 -83.892588 
L 151.640732 -82.753091 
L 151.534941 -81.613594 
L 151.439035 -80.474097 
L 151.348121 -79.3346 
L 151.260633 -78.195103 
L 151.17781 -77.055607 
L 151.102329 -75.91611 
L 151.036738 -74.776613 
L 150.982332 -73.637116 
L 150.938829 -72.497619 
L 150.904744 -71.358122 
z
" id="m3addf33f47" style="stroke:#141414;stroke-width:1.5;"/>
    </defs>
    <g clip-path="url(#pb965c9bd78)">
     <use style="fill:#0e5f2f;stroke:#141414;stroke-width:1.5;" x="0" xlink:href="#m3addf33f47" y="540.169"/>
    </g>
   </g>
   <g id="PolyCollection_3">
    <defs>
     <path d="M 220.431146 -69.78229 
L 217.282642 -69.78229 
L 216.979013 -70.453312 
L 216.639958 -71.124335 
L 216.260734 -71.795357 
L 215.835994 -72.46638 
L 215.360874 -73.137403 
L 214.832339 -73.808425 
L 214.25052 -74.479448 
L 213.619755 -75.150471 
L 212.949095 -75.821493 
L 212.25215 -76.492516 
L 211.546268 -77.163539 
L 210.85117 -77.834561 
L 210.187235 -78.505584 
L 209.573662 -79.176607 
L 209.026738 -79.847629 
L 208.558375 -80.518652 
L 208.175052 -81.189675 
L 207.877217 -81.860697 
L 207.659162 -82.53172 
L 207.509346 -83.202743 
L 207.411121 -83.873765 
L 207.343831 -84.544788 
L 207.284235 -85.215811 
L 207.208237 -85.886833 
L 207.092851 -86.557856 
L 206.918266 -87.228879 
L 206.669807 -87.899901 
L 206.339458 -88.570924 
L 205.926638 -89.241946 
L 205.437956 -89.912969 
L 204.885887 -90.583992 
L 204.286548 -91.255014 
L 203.657044 -91.926037 
L 203.012995 -92.59706 
L 202.36686 -93.268082 
L 201.727484 -93.939105 
L 201.100901 -94.610128 
L 200.492081 -95.28115 
L 199.906948 -95.952173 
L 199.353919 -96.623196 
L 198.844307 -97.294218 
L 198.391309 -97.965241 
L 198.007726 -98.636264 
L 197.703046 -99.307286 
L 197.48075 -99.978309 
L 197.336749 -100.649332 
L 197.259593 -101.320354 
L 197.232611 -101.991377 
L 197.237587 -102.6624 
L 197.259105 -103.333422 
L 197.288453 -104.004445 
L 197.326071 -104.675468 
L 197.381895 -105.34649 
L 197.473536 -106.017513 
L 197.622797 -106.688535 
L 197.851464 -107.359558 
L 198.177381 -108.030581 
L 198.611665 -108.701603 
L 199.15748 -109.372626 
L 199.810311 -110.043649 
L 200.559322 -110.714671 
L 201.389183 -111.385694 
L 202.281843 -112.056717 
L 203.217898 -112.727739 
L 204.177503 -113.398762 
L 205.140965 -114.069785 
L 206.089241 -114.740807 
L 207.004547 -115.41183 
L 207.871134 -116.082853 
L 208.676195 -116.753875 
L 209.410744 -117.424898 
L 210.070296 -118.095921 
L 210.655189 -118.766943 
L 211.170492 -119.437966 
L 211.625453 -120.108989 
L 212.032549 -120.780011 
L 212.406217 -121.451034 
L 212.761368 -122.122056 
L 213.111818 -122.793079 
L 213.468807 -123.464102 
L 213.839788 -124.135124 
L 214.227654 -124.806147 
L 214.630559 -125.47717 
L 215.042375 -126.148192 
L 215.453759 -126.819215 
L 215.853646 -127.490238 
L 216.230943 -128.16126 
L 216.576131 -128.832283 
L 216.882503 -129.503306 
L 217.146874 -130.174328 
L 217.369669 -130.845351 
L 217.554463 -131.516374 
L 217.707086 -132.187396 
L 217.834535 -132.858419 
L 217.943877 -133.529442 
L 218.041338 -134.200464 
L 218.131692 -134.871487 
L 218.217987 -135.54251 
L 218.301588 -136.213532 
L 219.4122 -136.213532 
L 219.4122 -136.213532 
L 219.495802 -135.54251 
L 219.582097 -134.871487 
L 219.672451 -134.200464 
L 219.769912 -133.529442 
L 219.879254 -132.858419 
L 220.006702 -132.187396 
L 220.159326 -131.516374 
L 220.344119 -130.845351 
L 220.566915 -130.174328 
L 220.831285 -129.503306 
L 221.137657 -128.832283 
L 221.482845 -128.16126 
L 221.860143 -127.490238 
L 222.26003 -126.819215 
L 222.671413 -126.148192 
L 223.08323 -125.47717 
L 223.486134 -124.806147 
L 223.874 -124.135124 
L 224.244981 -123.464102 
L 224.601971 -122.793079 
L 224.95242 -122.122056 
L 225.307571 -121.451034 
L 225.68124 -120.780011 
L 226.088336 -120.108989 
L 226.543296 -119.437966 
L 227.0586 -118.766943 
L 227.643493 -118.095921 
L 228.303044 -117.424898 
L 229.037594 -116.753875 
L 229.842655 -116.082853 
L 230.709242 -115.41183 
L 231.624548 -114.740807 
L 232.572824 -114.069785 
L 233.536286 -113.398762 
L 234.495891 -112.727739 
L 235.431946 -112.056717 
L 236.324606 -111.385694 
L 237.154467 -110.714671 
L 237.903477 -110.043649 
L 238.556309 -109.372626 
L 239.102123 -108.701603 
L 239.536408 -108.030581 
L 239.862324 -107.359558 
L 240.090991 -106.688535 
L 240.240253 -106.017513 
L 240.331893 -105.34649 
L 240.387718 -104.675468 
L 240.425336 -104.004445 
L 240.454684 -103.333422 
L 240.476202 -102.6624 
L 240.481178 -101.991377 
L 240.454196 -101.320354 
L 240.37704 -100.649332 
L 240.233039 -99.978309 
L 240.010743 -99.307286 
L 239.706063 -98.636264 
L 239.32248 -97.965241 
L 238.869481 -97.294218 
L 238.35987 -96.623196 
L 237.806841 -95.952173 
L 237.221708 -95.28115 
L 236.612887 -94.610128 
L 235.986304 -93.939105 
L 235.346928 -93.268082 
L 234.700794 -92.59706 
L 234.056744 -91.926037 
L 233.427241 -91.255014 
L 232.827902 -90.583992 
L 232.275832 -89.912969 
L 231.787151 -89.241946 
L 231.37433 -88.570924 
L 231.043982 -87.899901 
L 230.795522 -87.228879 
L 230.620938 -86.557856 
L 230.505551 -85.886833 
L 230.429554 -85.215811 
L 230.369958 -84.544788 
L 230.302668 -83.873765 
L 230.204443 -83.202743 
L 230.054626 -82.53172 
L 229.836571 -81.860697 
L 229.538737 -81.189675 
L 229.155414 -80.518652 
L 228.68705 -79.847629 
L 228.140126 -79.176607 
L 227.526554 -78.505584 
L 226.862618 -77.834561 
L 226.16752 -77.163539 
L 225.461638 -76.492516 
L 224.764693 -75.821493 
L 224.094034 -75.150471 
L 223.463269 -74.479448 
L 222.88145 -73.808425 
L 222.352915 -73.137403 
L 221.877795 -72.46638 
L 221.453054 -71.795357 
L 221.073831 -71.124335 
L 220.734776 -70.453312 
L 220.431146 -69.78229 
z
" id="m095ffa3cbe" style="stroke:#141414;stroke-width:1.5;"/>
    </defs>
    <g clip-path="url(#pb965c9bd78)">
     <use style="fill:#083c1d;stroke:#141414;stroke-width:1.5;" x="0" xlink:href="#m095ffa3cbe" y="540.169"/>
    </g>
   </g>
   <g id="PolyCollection_4">
    <defs>
     <path d="M 264.349762 -71.358122 
L 264.112885 -71.358122 
L 264.075578 -72.499826 
L 264.031634 -73.641529 
L 263.980397 -74.783232 
L 263.920842 -75.924935 
L 263.851487 -77.066638 
L 263.770947 -78.208342 
L 263.679084 -79.350045 
L 263.577837 -80.491748 
L 263.470623 -81.633451 
L 263.360131 -82.775155 
L 263.245959 -83.916858 
L 263.124209 -85.058561 
L 262.990112 -86.200264 
L 262.842464 -87.341967 
L 262.686873 -88.483671 
L 262.53506 -89.625374 
L 262.39982 -90.767077 
L 262.28824 -91.90878 
L 262.197377 -93.050484 
L 262.115255 -94.192187 
L 262.02645 -95.33389 
L 261.91809 -96.475593 
L 261.781726 -97.617296 
L 261.60978 -98.759 
L 261.389604 -99.900703 
L 261.099923 -101.042406 
L 260.712188 -102.184109 
L 260.1954 -103.325813 
L 259.521 -104.467516 
L 258.666211 -105.609219 
L 257.617196 -106.750922 
L 256.373898 -107.892625 
L 254.955417 -109.034329 
L 253.401648 -110.176032 
L 251.767738 -111.317735 
L 250.112881 -112.459438 
L 248.489582 -113.601142 
L 246.939669 -114.742845 
L 245.49886 -115.884548 
L 244.206186 -117.026251 
L 243.111181 -118.167954 
L 242.271891 -119.309658 
L 241.740908 -120.451361 
L 241.544109 -121.593064 
L 241.663653 -122.734767 
L 242.037234 -123.876471 
L 242.576975 -125.018174 
L 243.199063 -126.159877 
L 243.848809 -127.30158 
L 244.509948 -128.443283 
L 245.197322 -129.584987 
L 245.940104 -130.72669 
L 246.764184 -131.868393 
L 247.679605 -133.010096 
L 248.675986 -134.151799 
L 249.726483 -135.293503 
L 250.797778 -136.435206 
L 251.860221 -137.576909 
L 252.892253 -138.718612 
L 253.878098 -139.860316 
L 254.803613 -141.002019 
L 255.65625 -142.143722 
L 256.429859 -143.285425 
L 257.129236 -144.427128 
L 257.768939 -145.568832 
L 258.366189 -146.710535 
L 258.932803 -147.852238 
L 259.471275 -148.993941 
L 259.976207 -150.135645 
L 260.438554 -151.277348 
L 260.849685 -152.419051 
L 261.203969 -153.560754 
L 261.500096 -154.702457 
L 261.741573 -155.844161 
L 261.936559 -156.985864 
L 262.09711 -158.127567 
L 262.237834 -159.26927 
L 262.373715 -160.410974 
L 262.516904 -161.552677 
L 262.673074 -162.69438 
L 262.839033 -163.836083 
L 263.003397 -164.977786 
L 263.150792 -166.11949 
L 263.26807 -167.261193 
L 263.34975 -168.402896 
L 263.400184 -169.544599 
L 263.431539 -170.686303 
L 263.458643 -171.828006 
L 263.493196 -172.969709 
L 263.53997 -174.111412 
L 263.596405 -175.253115 
L 263.655264 -176.394819 
L 263.708729 -177.536522 
L 263.75215 -178.678225 
L 263.786072 -179.819928 
L 263.815887 -180.961632 
L 263.849197 -182.103335 
L 263.892049 -183.245038 
L 263.945904 -184.386741 
L 264.516743 -184.386741 
L 264.516743 -184.386741 
L 264.570597 -183.245038 
L 264.61345 -182.103335 
L 264.64676 -180.961632 
L 264.676575 -179.819928 
L 264.710497 -178.678225 
L 264.753918 -177.536522 
L 264.807383 -176.394819 
L 264.866242 -175.253115 
L 264.922677 -174.111412 
L 264.969451 -172.969709 
L 265.004004 -171.828006 
L 265.031108 -170.686303 
L 265.062463 -169.544599 
L 265.112897 -168.402896 
L 265.194576 -167.261193 
L 265.311855 -166.11949 
L 265.45925 -164.977786 
L 265.623614 -163.836083 
L 265.789573 -162.69438 
L 265.945743 -161.552677 
L 266.088931 -160.410974 
L 266.224813 -159.26927 
L 266.365537 -158.127567 
L 266.526088 -156.985864 
L 266.721074 -155.844161 
L 266.96255 -154.702457 
L 267.258678 -153.560754 
L 267.612962 -152.419051 
L 268.024093 -151.277348 
L 268.48644 -150.135645 
L 268.991372 -148.993941 
L 269.529844 -147.852238 
L 270.096457 -146.710535 
L 270.693708 -145.568832 
L 271.333411 -144.427128 
L 272.032788 -143.285425 
L 272.806397 -142.143722 
L 273.659033 -141.002019 
L 274.584549 -139.860316 
L 275.570394 -138.718612 
L 276.602426 -137.576909 
L 277.664868 -136.435206 
L 278.736164 -135.293503 
L 279.786661 -134.151799 
L 280.783041 -133.010096 
L 281.698463 -131.868393 
L 282.522542 -130.72669 
L 283.265325 -129.584987 
L 283.952699 -128.443283 
L 284.613837 -127.30158 
L 285.263584 -126.159877 
L 285.885672 -125.018174 
L 286.425413 -123.876471 
L 286.798994 -122.734767 
L 286.918538 -121.593064 
L 286.721739 -120.451361 
L 286.190756 -119.309658 
L 285.351465 -118.167954 
L 284.256461 -117.026251 
L 282.963787 -115.884548 
L 281.522978 -114.742845 
L 279.973065 -113.601142 
L 278.349766 -112.459438 
L 276.694909 -111.317735 
L 275.060999 -110.176032 
L 273.507229 -109.034329 
L 272.088749 -107.892625 
L 270.845451 -106.750922 
L 269.796436 -105.609219 
L 268.941647 -104.467516 
L 268.267247 -103.325813 
L 267.750458 -102.184109 
L 267.362724 -101.042406 
L 267.073042 -99.900703 
L 266.852867 -98.759 
L 266.680921 -97.617296 
L 266.544556 -96.475593 
L 266.436197 -95.33389 
L 266.347392 -94.192187 
L 266.26527 -93.050484 
L 266.174406 -91.90878 
L 266.062827 -90.767077 
L 265.927587 -89.625374 
L 265.775774 -88.483671 
L 265.620182 -87.341967 
L 265.472535 -86.200264 
L 265.338438 -85.058561 
L 265.216688 -83.916858 
L 265.102516 -82.775155 
L 264.992024 -81.633451 
L 264.884809 -80.491748 
L 264.783563 -79.350045 
L 264.6917 -78.208342 
L 264.61116 -77.066638 
L 264.541805 -75.924935 
L 264.482249 -74.783232 
L 264.431013 -73.641529 
L 264.387069 -72.499826 
L 264.349762 -71.358122 
z
" id="m3f521cd190" style="stroke:#141414;stroke-width:1.5;"/>
    </defs>
    <g clip-path="url(#pb965c9bd78)">
     <use style="fill:#0e5f2f;stroke:#141414;stroke-width:1.5;" x="0" xlink:href="#m3f521cd190" y="540.169"/>
    </g>
   </g>
   <g id="PolyCollection_5">
    <defs>
     <path d="M 354.096557 -69.60349 
L 310.489377 -69.60349 
L 309.950661 -72.716195 
L 309.653694 -75.828899 
L 309.605752 -78.941604 
L 309.805518 -82.054309 
L 310.243256 -85.167013 
L 310.901476 -88.279718 
L 311.756003 -91.392422 
L 312.777398 -94.505127 
L 313.932583 -97.617831 
L 315.186567 -100.730536 
L 316.50415 -103.843241 
L 317.851475 -106.955945 
L 319.197366 -110.06865 
L 320.514362 -113.181354 
L 321.779428 -116.294059 
L 322.97434 -119.406763 
L 324.085745 -122.519468 
L 325.104966 -125.632172 
L 326.02758 -128.744877 
L 326.852846 -131.857582 
L 327.583047 -134.970286 
L 328.222797 -138.082991 
L 328.778361 -141.195695 
L 329.257043 -144.3084 
L 329.666645 -147.421104 
L 330.015039 -150.533809 
L 330.309827 -153.646513 
L 330.558114 -156.759218 
L 330.766358 -159.871923 
L 330.940302 -162.984627 
L 331.084959 -166.097332 
L 331.204638 -169.210036 
L 331.302994 -172.322741 
L 331.383089 -175.435445 
L 331.447463 -178.54815 
L 331.498185 -181.660854 
L 331.536912 -184.773559 
L 331.564929 -187.886264 
L 331.583191 -190.998968 
L 331.592357 -194.111673 
L 331.592823 -197.224377 
L 331.584773 -200.337082 
L 331.568217 -203.449786 
L 331.543064 -206.562491 
L 331.509178 -209.675195 
L 331.466463 -212.7879 
L 331.414935 -215.900605 
L 331.354803 -219.013309 
L 331.286527 -222.126014 
L 331.210873 -225.238718 
L 331.128942 -228.351423 
L 331.042166 -231.464127 
L 330.952289 -234.576832 
L 330.861306 -237.689536 
L 330.771385 -240.802241 
L 330.684769 -243.914946 
L 330.603661 -247.02765 
L 330.530107 -250.140355 
L 330.465888 -253.253059 
L 330.412422 -256.365764 
L 330.370696 -259.478468 
L 330.341215 -262.591173 
L 330.324001 -265.703877 
L 330.318604 -268.816582 
L 330.324163 -271.929287 
L 330.339475 -275.041991 
L 330.363094 -278.154696 
L 330.393429 -281.2674 
L 330.428854 -284.380105 
L 330.467796 -287.492809 
L 330.50882 -290.605514 
L 330.550688 -293.718218 
L 330.592398 -296.830923 
L 330.633198 -299.943628 
L 330.672583 -303.056332 
L 330.710268 -306.169037 
L 330.746162 -309.281741 
L 330.780319 -312.394446 
L 330.812907 -315.50715 
L 330.844163 -318.619855 
L 330.874366 -321.732559 
L 330.903817 -324.845264 
L 330.932828 -327.957969 
L 330.961711 -331.070673 
L 330.990785 -334.183378 
L 331.020378 -337.296082 
L 331.050826 -340.408787 
L 331.082472 -343.521491 
L 331.115664 -346.634196 
L 331.150739 -349.7469 
L 331.188008 -352.859605 
L 331.227731 -355.97231 
L 331.270101 -359.085014 
L 331.315215 -362.197719 
L 331.36306 -365.310423 
L 331.413498 -368.423128 
L 331.466267 -371.535832 
L 331.520976 -374.648537 
L 331.577129 -377.761241 
L 333.008805 -377.761241 
L 333.008805 -377.761241 
L 333.064957 -374.648537 
L 333.119667 -371.535832 
L 333.172435 -368.423128 
L 333.222874 -365.310423 
L 333.270719 -362.197719 
L 333.315833 -359.085014 
L 333.358203 -355.97231 
L 333.397926 -352.859605 
L 333.435195 -349.7469 
L 333.47027 -346.634196 
L 333.503462 -343.521491 
L 333.535108 -340.408787 
L 333.565555 -337.296082 
L 333.595148 -334.183378 
L 333.624223 -331.070673 
L 333.653106 -327.957969 
L 333.682117 -324.845264 
L 333.711568 -321.732559 
L 333.741771 -318.619855 
L 333.773027 -315.50715 
L 333.805614 -312.394446 
L 333.839772 -309.281741 
L 333.875666 -306.169037 
L 333.913351 -303.056332 
L 333.952735 -299.943628 
L 333.993536 -296.830923 
L 334.035246 -293.718218 
L 334.077114 -290.605514 
L 334.118138 -287.492809 
L 334.15708 -284.380105 
L 334.192504 -281.2674 
L 334.22284 -278.154696 
L 334.246459 -275.041991 
L 334.261771 -271.929287 
L 334.26733 -268.816582 
L 334.261933 -265.703877 
L 334.244719 -262.591173 
L 334.215238 -259.478468 
L 334.173512 -256.365764 
L 334.120046 -253.253059 
L 334.055827 -250.140355 
L 333.982273 -247.02765 
L 333.901165 -243.914946 
L 333.814549 -240.802241 
L 333.724628 -237.689536 
L 333.633645 -234.576832 
L 333.543767 -231.464127 
L 333.456992 -228.351423 
L 333.375061 -225.238718 
L 333.299407 -222.126014 
L 333.231131 -219.013309 
L 333.170998 -215.900605 
L 333.119471 -212.7879 
L 333.076756 -209.675195 
L 333.04287 -206.562491 
L 333.017716 -203.449786 
L 333.001161 -200.337082 
L 332.99311 -197.224377 
L 332.993577 -194.111673 
L 333.002742 -190.998968 
L 333.021005 -187.886264 
L 333.049022 -184.773559 
L 333.087749 -181.660854 
L 333.138471 -178.54815 
L 333.202844 -175.435445 
L 333.28294 -172.322741 
L 333.381296 -169.210036 
L 333.500975 -166.097332 
L 333.645632 -162.984627 
L 333.819576 -159.871923 
L 334.02782 -156.759218 
L 334.276107 -153.646513 
L 334.570895 -150.533809 
L 334.919289 -147.421104 
L 335.328891 -144.3084 
L 335.807573 -141.195695 
L 336.363137 -138.082991 
L 337.002886 -134.970286 
L 337.733088 -131.857582 
L 338.558354 -128.744877 
L 339.480967 -125.632172 
L 340.500188 -122.519468 
L 341.611594 -119.406763 
L 342.806506 -116.294059 
L 344.071572 -113.181354 
L 345.388568 -110.06865 
L 346.734459 -106.955945 
L 348.081784 -103.843241 
L 349.399367 -100.730536 
L 350.653351 -97.617831 
L 351.808536 -94.505127 
L 352.829931 -91.392422 
L 353.684458 -88.279718 
L 354.342677 -85.167013 
L 354.780416 -82.054309 
L 354.980181 -78.941604 
L 354.932239 -75.828899 
L 354.635273 -72.716195 
L 354.096557 -69.60349 
z
" id="mdeab7e45ea" style="stroke:#141414;stroke-width:1.5;"/>
    </defs>
    <g clip-path="url(#pb965c9bd78)">
     <use style="fill:#083c1d;stroke:#141414;stroke-width:1.5;" x="0" xlink:href="#mdeab7e45ea" y="540.169"/>
    </g>
   </g>
   <g id="PolyCollection_6">
    <defs>
     <path d="M 390.378111 -69.630665 
L 364.956681 -69.630665 
L 364.271346 -74.087937 
L 363.70637 -78.545209 
L 363.277457 -83.002482 
L 362.995923 -87.459754 
L 362.86817 -91.917027 
L 362.895429 -96.374299 
L 363.073811 -100.831572 
L 363.394637 -105.288844 
L 363.845014 -109.746116 
L 364.408629 -114.203389 
L 365.066671 -118.660661 
L 365.79882 -123.117934 
L 366.584251 -127.575206 
L 367.402555 -132.032479 
L 368.234553 -136.489751 
L 369.06295 -140.947024 
L 369.872806 -145.404296 
L 370.65182 -149.861568 
L 371.390431 -154.318841 
L 372.081757 -158.776113 
L 372.721405 -163.233386 
L 373.307175 -167.690658 
L 373.838709 -172.147931 
L 374.317111 -176.605203 
L 374.744566 -181.062476 
L 375.123996 -185.519748 
L 375.458758 -189.97702 
L 375.7524 -194.434293 
L 376.008472 -198.891565 
L 376.23041 -203.348838 
L 376.421451 -207.80611 
L 376.584602 -212.263383 
L 376.722639 -216.720655 
L 376.838113 -221.177928 
L 376.933379 -225.6352 
L 377.010617 -230.092472 
L 377.071853 -234.549745 
L 377.118972 -239.007017 
L 377.153727 -243.46429 
L 377.17774 -247.921562 
L 377.192495 -252.378835 
L 377.19934 -256.836107 
L 377.199479 -261.29338 
L 377.193976 -265.750652 
L 377.183752 -270.207924 
L 377.169595 -274.665197 
L 377.152171 -279.122469 
L 377.132029 -283.579742 
L 377.109619 -288.037014 
L 377.085299 -292.494287 
L 377.059343 -296.951559 
L 377.03195 -301.408832 
L 377.00325 -305.866104 
L 376.973302 -310.323376 
L 376.942096 -314.780649 
L 376.909563 -319.237921 
L 376.875568 -323.695194 
L 376.839926 -328.152466 
L 376.802403 -332.609739 
L 376.76274 -337.067011 
L 376.720661 -341.524284 
L 376.6759 -345.981556 
L 376.628222 -350.438828 
L 376.57745 -354.896101 
L 376.523488 -359.353373 
L 376.466347 -363.810646 
L 376.406165 -368.267918 
L 376.343226 -372.725191 
L 376.27797 -377.182463 
L 376.211001 -381.639736 
L 376.143083 -386.097008 
L 376.07513 -390.55428 
L 376.008188 -395.011553 
L 375.943414 -399.468825 
L 375.882034 -403.926098 
L 375.825313 -408.38337 
L 375.774511 -412.840643 
L 375.730838 -417.297915 
L 375.695411 -421.755188 
L 375.669215 -426.21246 
L 375.653071 -430.669732 
L 375.647601 -435.127005 
L 375.653213 -439.584277 
L 375.670088 -444.04155 
L 375.698176 -448.498822 
L 375.737202 -452.956095 
L 375.786676 -457.413367 
L 375.845916 -461.870639 
L 375.914069 -466.327912 
L 375.990138 -470.785184 
L 376.073011 -475.242457 
L 376.161492 -479.699729 
L 376.254331 -484.157002 
L 376.350255 -488.614274 
L 376.447993 -493.071547 
L 376.546306 -497.528819 
L 376.64401 -501.986091 
L 376.739996 -506.443364 
L 376.833256 -510.900636 
L 378.501536 -510.900636 
L 378.501536 -510.900636 
L 378.594795 -506.443364 
L 378.690782 -501.986091 
L 378.788486 -497.528819 
L 378.886799 -493.071547 
L 378.984537 -488.614274 
L 379.080461 -484.157002 
L 379.1733 -479.699729 
L 379.261781 -475.242457 
L 379.344654 -470.785184 
L 379.420722 -466.327912 
L 379.488876 -461.870639 
L 379.548116 -457.413367 
L 379.59759 -452.956095 
L 379.636615 -448.498822 
L 379.664703 -444.04155 
L 379.681579 -439.584277 
L 379.687191 -435.127005 
L 379.681721 -430.669732 
L 379.665576 -426.21246 
L 379.639381 -421.755188 
L 379.603954 -417.297915 
L 379.560281 -412.840643 
L 379.509479 -408.38337 
L 379.452758 -403.926098 
L 379.391378 -399.468825 
L 379.326604 -395.011553 
L 379.259662 -390.55428 
L 379.191709 -386.097008 
L 379.12379 -381.639736 
L 379.056821 -377.182463 
L 378.991566 -372.725191 
L 378.928627 -368.267918 
L 378.868445 -363.810646 
L 378.811304 -359.353373 
L 378.757342 -354.896101 
L 378.70657 -350.438828 
L 378.658892 -345.981556 
L 378.614131 -341.524284 
L 378.572052 -337.067011 
L 378.532388 -332.609739 
L 378.494866 -328.152466 
L 378.459223 -323.695194 
L 378.425229 -319.237921 
L 378.392695 -314.780649 
L 378.36149 -310.323376 
L 378.331542 -305.866104 
L 378.302841 -301.408832 
L 378.275449 -296.951559 
L 378.249493 -292.494287 
L 378.225173 -288.037014 
L 378.202763 -283.579742 
L 378.182621 -279.122469 
L 378.165197 -274.665197 
L 378.15104 -270.207924 
L 378.140816 -265.750652 
L 378.135313 -261.29338 
L 378.135452 -256.836107 
L 378.142297 -252.378835 
L 378.157052 -247.921562 
L 378.181065 -243.46429 
L 378.21582 -239.007017 
L 378.262939 -234.549745 
L 378.324175 -230.092472 
L 378.401413 -225.6352 
L 378.496679 -221.177928 
L 378.612153 -216.720655 
L 378.75019 -212.263383 
L 378.913341 -207.80611 
L 379.104382 -203.348838 
L 379.326319 -198.891565 
L 379.582392 -194.434293 
L 379.876033 -189.97702 
L 380.210796 -185.519748 
L 380.590226 -181.062476 
L 381.017681 -176.605203 
L 381.496083 -172.147931 
L 382.027617 -167.690658 
L 382.613387 -163.233386 
L 383.253035 -158.776113 
L 383.944361 -154.318841 
L 384.682972 -149.861568 
L 385.461986 -145.404296 
L 386.271842 -140.947024 
L 387.100239 -136.489751 
L 387.932237 -132.032479 
L 388.75054 -127.575206 
L 389.535972 -123.117934 
L 390.268121 -118.660661 
L 390.926162 -114.203389 
L 391.489778 -109.746116 
L 391.940155 -105.288844 
L 392.26098 -100.831572 
L 392.439363 -96.374299 
L 392.466622 -91.917027 
L 392.338868 -87.459754 
L 392.057335 -83.002482 
L 391.628421 -78.545209 
L 391.063446 -74.087937 
L 390.378111 -69.630665 
z
" id="mcdd40a3ec8" style="stroke:#141414;stroke-width:1.5;"/>
    </defs>
    <g clip-path="url(#pb965c9bd78)">
     <use style="fill:#0e5f2f;stroke:#141414;stroke-width:1.5;" x="0" xlink:href="#mcdd40a3ec8" y="540.169"/>
    </g>
   </g>
   <g id="PolyCollection_7">
    <defs>
     <path d="M 468.227 -69.60349 
L 423.231079 -69.60349 
L 423.041825 -73.250581 
L 423.136323 -76.897671 
L 423.509422 -80.544762 
L 424.145521 -84.191852 
L 425.019602 -87.838943 
L 426.098818 -91.486033 
L 427.344499 -95.133124 
L 428.714402 -98.780214 
L 430.165034 -102.427305 
L 431.653858 -106.074395 
L 433.141248 -109.721485 
L 434.592059 -113.368576 
L 435.976763 -117.015666 
L 437.272099 -120.662757 
L 438.461278 -124.309847 
L 439.533777 -127.956938 
L 440.484802 -131.604028 
L 441.314517 -135.251119 
L 442.027125 -138.898209 
L 442.629899 -142.5453 
L 443.132223 -146.19239 
L 443.544728 -149.839481 
L 443.878537 -153.486571 
L 444.144666 -157.133661 
L 444.353565 -160.780752 
L 444.514813 -164.427842 
L 444.636944 -168.074933 
L 444.727372 -171.722023 
L 444.792409 -175.369114 
L 444.837335 -179.016204 
L 444.86651 -182.663295 
L 444.883492 -186.310385 
L 444.891171 -189.957476 
L 444.891877 -193.604566 
L 444.887481 -197.251657 
L 444.87947 -200.898747 
L 444.869006 -204.545837 
L 444.856967 -208.192928 
L 444.843973 -211.840018 
L 444.830405 -215.487109 
L 444.81642 -219.134199 
L 444.801974 -222.78129 
L 444.78684 -226.42838 
L 444.77064 -230.075471 
L 444.752883 -233.722561 
L 444.733008 -237.369652 
L 444.71043 -241.016742 
L 444.684598 -244.663833 
L 444.655036 -248.310923 
L 444.621396 -251.958013 
L 444.583492 -255.605104 
L 444.541329 -259.252194 
L 444.495122 -262.899285 
L 444.445296 -266.546375 
L 444.392481 -270.193466 
L 444.337492 -273.840556 
L 444.281297 -277.487647 
L 444.224981 -281.134737 
L 444.169699 -284.781828 
L 444.116639 -288.428918 
L 444.06697 -292.076009 
L 444.021807 -295.723099 
L 443.982172 -299.37019 
L 443.948969 -303.01728 
L 443.922964 -306.66437 
L 443.904766 -310.311461 
L 443.894822 -313.958551 
L 443.893416 -317.605642 
L 443.900664 -321.252732 
L 443.91652 -324.899823 
L 443.940777 -328.546913 
L 443.973073 -332.194004 
L 444.012892 -335.841094 
L 444.059579 -339.488185 
L 444.112343 -343.135275 
L 444.170279 -346.782366 
L 444.232388 -350.429456 
L 444.297602 -354.076546 
L 444.36482 -357.723637 
L 444.432944 -361.370727 
L 444.500923 -365.017818 
L 444.567786 -368.664908 
L 444.632686 -372.311999 
L 444.694927 -375.959089 
L 444.753986 -379.60618 
L 444.809528 -383.25327 
L 444.861403 -386.900361 
L 444.909641 -390.547451 
L 444.954428 -394.194542 
L 444.99608 -397.841632 
L 445.035006 -401.488722 
L 445.071679 -405.135813 
L 445.106589 -408.782903 
L 445.140216 -412.429994 
L 445.172993 -416.077084 
L 445.205288 -419.724175 
L 445.237377 -423.371265 
L 445.269443 -427.018356 
L 445.301565 -430.665446 
L 446.156514 -430.665446 
L 446.156514 -430.665446 
L 446.188636 -427.018356 
L 446.220702 -423.371265 
L 446.252791 -419.724175 
L 446.285086 -416.077084 
L 446.317863 -412.429994 
L 446.35149 -408.782903 
L 446.3864 -405.135813 
L 446.423072 -401.488722 
L 446.461999 -397.841632 
L 446.503651 -394.194542 
L 446.548437 -390.547451 
L 446.596676 -386.900361 
L 446.648551 -383.25327 
L 446.704093 -379.60618 
L 446.763152 -375.959089 
L 446.825393 -372.311999 
L 446.890293 -368.664908 
L 446.957156 -365.017818 
L 447.025134 -361.370727 
L 447.093259 -357.723637 
L 447.160477 -354.076546 
L 447.225691 -350.429456 
L 447.2878 -346.782366 
L 447.345736 -343.135275 
L 447.3985 -339.488185 
L 447.445187 -335.841094 
L 447.485006 -332.194004 
L 447.517302 -328.546913 
L 447.541559 -324.899823 
L 447.557415 -321.252732 
L 447.564663 -317.605642 
L 447.563257 -313.958551 
L 447.553313 -310.311461 
L 447.535115 -306.66437 
L 447.50911 -303.01728 
L 447.475907 -299.37019 
L 447.436272 -295.723099 
L 447.391109 -292.076009 
L 447.34144 -288.428918 
L 447.288379 -284.781828 
L 447.233098 -281.134737 
L 447.176781 -277.487647 
L 447.120587 -273.840556 
L 447.065598 -270.193466 
L 447.012783 -266.546375 
L 446.962957 -262.899285 
L 446.91675 -259.252194 
L 446.874587 -255.605104 
L 446.836683 -251.958013 
L 446.803043 -248.310923 
L 446.773481 -244.663833 
L 446.747649 -241.016742 
L 446.725071 -237.369652 
L 446.705196 -233.722561 
L 446.687439 -230.075471 
L 446.671239 -226.42838 
L 446.656105 -222.78129 
L 446.641659 -219.134199 
L 446.627674 -215.487109 
L 446.614106 -211.840018 
L 446.601111 -208.192928 
L 446.589073 -204.545837 
L 446.578609 -200.898747 
L 446.570598 -197.251657 
L 446.566202 -193.604566 
L 446.566908 -189.957476 
L 446.574587 -186.310385 
L 446.591569 -182.663295 
L 446.620744 -179.016204 
L 446.66567 -175.369114 
L 446.730707 -171.722023 
L 446.821135 -168.074933 
L 446.943266 -164.427842 
L 447.104514 -160.780752 
L 447.313413 -157.133661 
L 447.579542 -153.486571 
L 447.913351 -149.839481 
L 448.325856 -146.19239 
L 448.82818 -142.5453 
L 449.430954 -138.898209 
L 450.143562 -135.251119 
L 450.973277 -131.604028 
L 451.924302 -127.956938 
L 452.996801 -124.309847 
L 454.18598 -120.662757 
L 455.481316 -117.015666 
L 456.86602 -113.368576 
L 458.316831 -109.721485 
L 459.804221 -106.074395 
L 461.293045 -102.427305 
L 462.743677 -98.780214 
L 464.11358 -95.133124 
L 465.359261 -91.486033 
L 466.438477 -87.838943 
L 467.312558 -84.191852 
L 467.948657 -80.544762 
L 468.321756 -76.897671 
L 468.416254 -73.250581 
L 468.227 -69.60349 
z
" id="m029fcfe576" style="stroke:#141414;stroke-width:1.5;"/>
    </defs>
    <g clip-path="url(#pb965c9bd78)">
     <use style="fill:#083c1d;stroke:#141414;stroke-width:1.5;" x="0" xlink:href="#m029fcfe576" y="540.169"/>
    </g>
   </g>
   <g id="PolyCollection_8">
    <defs>
     <path d="M 507.966602 -69.604115 
L 474.240335 -69.604115 
L 473.947218 -74.054733 
L 473.874538 -78.505352 
L 474.023809 -82.95597 
L 474.387823 -87.406588 
L 474.951175 -91.857207 
L 475.691308 -96.307825 
L 476.57997 -100.758443 
L 477.584975 -105.209061 
L 478.67209 -109.65968 
L 479.806914 -114.110298 
L 480.956598 -118.560916 
L 482.091292 -123.011534 
L 483.185247 -127.462153 
L 484.217519 -131.912771 
L 485.172294 -136.363389 
L 486.038843 -140.814007 
L 486.811183 -145.264626 
L 487.487517 -149.715244 
L 488.069521 -154.165862 
L 488.56157 -158.61648 
L 488.969975 -163.067099 
L 489.302265 -167.517717 
L 489.566576 -171.968335 
L 489.771158 -176.418954 
L 489.924006 -180.869572 
L 490.03261 -185.32019 
L 490.103816 -189.770808 
L 490.143771 -194.221427 
L 490.157936 -198.672045 
L 490.151133 -203.122663 
L 490.127631 -207.573281 
L 490.091222 -212.0239 
L 490.045305 -216.474518 
L 489.992948 -220.925136 
L 489.936932 -225.375754 
L 489.879775 -229.826373 
L 489.823739 -234.276991 
L 489.770815 -238.727609 
L 489.722701 -243.178227 
L 489.680775 -247.628846 
L 489.646063 -252.079464 
L 489.619218 -256.530082 
L 489.600507 -260.980701 
L 489.589816 -265.431319 
L 489.586672 -269.881937 
L 489.590277 -274.332555 
L 489.599567 -278.783174 
L 489.61328 -283.233792 
L 489.630036 -287.68441 
L 489.648414 -292.135028 
L 489.667042 -296.585647 
L 489.684662 -301.036265 
L 489.700193 -305.486883 
L 489.712777 -309.937501 
L 489.7218 -314.38812 
L 489.726901 -318.838738 
L 489.727955 -323.289356 
L 489.725052 -327.739974 
L 489.718451 -332.190593 
L 489.708534 -336.641211 
L 489.695765 -341.091829 
L 489.680637 -345.542448 
L 489.663638 -349.993066 
L 489.645222 -354.443684 
L 489.625784 -358.894302 
L 489.605661 -363.344921 
L 489.585123 -367.795539 
L 489.564388 -372.246157 
L 489.543632 -376.696775 
L 489.523007 -381.147394 
L 489.502658 -385.598012 
L 489.482742 -390.04863 
L 489.463436 -394.499248 
L 489.444954 -398.949867 
L 489.427553 -403.400485 
L 489.41154 -407.851103 
L 489.397271 -412.301721 
L 489.385157 -416.75234 
L 489.375658 -421.202958 
L 489.369277 -425.653576 
L 489.366555 -430.104195 
L 489.368057 -434.554813 
L 489.374354 -439.005431 
L 489.386008 -443.456049 
L 489.403539 -447.906668 
L 489.427405 -452.357286 
L 489.457971 -456.807904 
L 489.495479 -461.258522 
L 489.540026 -465.709141 
L 489.591544 -470.159759 
L 489.649782 -474.610377 
L 489.714308 -479.060995 
L 489.784512 -483.511614 
L 489.859616 -487.962232 
L 489.938705 -492.41285 
L 490.020752 -496.863468 
L 490.104655 -501.314087 
L 490.189277 -505.764705 
L 490.273488 -510.215323 
L 491.933449 -510.215323 
L 491.933449 -510.215323 
L 492.01766 -505.764705 
L 492.102282 -501.314087 
L 492.186185 -496.863468 
L 492.268232 -492.41285 
L 492.347321 -487.962232 
L 492.422425 -483.511614 
L 492.492629 -479.060995 
L 492.557155 -474.610377 
L 492.615393 -470.159759 
L 492.666911 -465.709141 
L 492.711458 -461.258522 
L 492.748966 -456.807904 
L 492.779532 -452.357286 
L 492.803398 -447.906668 
L 492.820929 -443.456049 
L 492.832583 -439.005431 
L 492.83888 -434.554813 
L 492.840382 -430.104195 
L 492.83766 -425.653576 
L 492.831279 -421.202958 
L 492.82178 -416.75234 
L 492.809666 -412.301721 
L 492.795397 -407.851103 
L 492.779384 -403.400485 
L 492.761983 -398.949867 
L 492.743501 -394.499248 
L 492.724195 -390.04863 
L 492.704279 -385.598012 
L 492.68393 -381.147394 
L 492.663305 -376.696775 
L 492.642549 -372.246157 
L 492.621814 -367.795539 
L 492.601276 -363.344921 
L 492.581153 -358.894302 
L 492.561715 -354.443684 
L 492.543299 -349.993066 
L 492.5263 -345.542448 
L 492.511172 -341.091829 
L 492.498403 -336.641211 
L 492.488486 -332.190593 
L 492.481885 -327.739974 
L 492.478982 -323.289356 
L 492.480036 -318.838738 
L 492.485137 -314.38812 
L 492.49416 -309.937501 
L 492.506744 -305.486883 
L 492.522275 -301.036265 
L 492.539895 -296.585647 
L 492.558523 -292.135028 
L 492.576901 -287.68441 
L 492.593657 -283.233792 
L 492.60737 -278.783174 
L 492.61666 -274.332555 
L 492.620265 -269.881937 
L 492.617121 -265.431319 
L 492.60643 -260.980701 
L 492.587719 -256.530082 
L 492.560874 -252.079464 
L 492.526162 -247.628846 
L 492.484236 -243.178227 
L 492.436122 -238.727609 
L 492.383198 -234.276991 
L 492.327162 -229.826373 
L 492.270005 -225.375754 
L 492.213989 -220.925136 
L 492.161632 -216.474518 
L 492.115715 -212.0239 
L 492.079306 -207.573281 
L 492.055804 -203.122663 
L 492.049001 -198.672045 
L 492.063166 -194.221427 
L 492.103121 -189.770808 
L 492.174327 -185.32019 
L 492.282931 -180.869572 
L 492.435779 -176.418954 
L 492.640361 -171.968335 
L 492.904672 -167.517717 
L 493.236962 -163.067099 
L 493.645367 -158.61648 
L 494.137416 -154.165862 
L 494.71942 -149.715244 
L 495.395754 -145.264626 
L 496.168094 -140.814007 
L 497.034643 -136.363389 
L 497.989418 -131.912771 
L 499.02169 -127.462153 
L 500.115645 -123.011534 
L 501.250339 -118.560916 
L 502.400023 -114.110298 
L 503.534847 -109.65968 
L 504.621962 -105.209061 
L 505.626967 -100.758443 
L 506.515629 -96.307825 
L 507.255762 -91.857207 
L 507.819114 -87.406588 
L 508.183128 -82.95597 
L 508.332399 -78.505352 
L 508.259719 -74.054733 
L 507.966602 -69.604115 
z
" id="mfaddc26e1e" style="stroke:#141414;stroke-width:1.5;"/>
    </defs>
    <g clip-path="url(#pb965c9bd78)">
     <use style="fill:#0e5f2f;stroke:#141414;stroke-width:1.5;" x="0" xlink:href="#mfaddc26e1e" y="540.169"/>
    </g>
   </g>
   <g id="PolyCollection_9">
    <defs>
     <path d="M 561.885744 -82.634293 
L 556.44448 -82.634293 
L 556.073302 -84.200963 
L 555.707 -85.767633 
L 555.355355 -87.334304 
L 555.027298 -88.900974 
L 554.730248 -90.467644 
L 554.469595 -92.034314 
L 554.248388 -93.600985 
L 554.067245 -95.167655 
L 553.924487 -96.734325 
L 553.816441 -98.300996 
L 553.737873 -99.867666 
L 553.682452 -101.434336 
L 553.643205 -103.001006 
L 553.612896 -104.567677 
L 553.584308 -106.134347 
L 553.550429 -107.701017 
L 553.504564 -109.267687 
L 553.440421 -110.834358 
L 553.352202 -112.401028 
L 553.234744 -113.967698 
L 553.083723 -115.534369 
L 552.895909 -117.101039 
L 552.669455 -118.667709 
L 552.404159 -120.234379 
L 552.101647 -121.80105 
L 551.765438 -123.36772 
L 551.400831 -124.93439 
L 551.014624 -126.50106 
L 550.614656 -128.067731 
L 550.209243 -129.634401 
L 549.806543 -131.201071 
L 549.413958 -132.767742 
L 549.037625 -134.334412 
L 548.682081 -135.901082 
L 548.350128 -137.467752 
L 548.042914 -139.034423 
L 547.7602 -140.601093 
L 547.500772 -142.167763 
L 547.262917 -143.734434 
L 547.044908 -145.301104 
L 546.845411 -146.867774 
L 546.663769 -148.434444 
L 546.500124 -150.001115 
L 546.355369 -151.567785 
L 546.23093 -153.134455 
L 546.128407 -154.701125 
L 546.049119 -156.267796 
L 545.993612 -157.834466 
L 545.961217 -159.401136 
L 545.949707 -160.967807 
L 545.955173 -162.534477 
L 545.972141 -164.101147 
L 545.993983 -165.667817 
L 546.01361 -167.234488 
L 546.02437 -168.801158 
L 546.021042 -170.367828 
L 546.000778 -171.934498 
L 545.963838 -173.501169 
L 545.913953 -175.067839 
L 545.858259 -176.634509 
L 545.806749 -178.20118 
L 545.771332 -179.76785 
L 545.764624 -181.33452 
L 545.798651 -182.90119 
L 545.883668 -184.467861 
L 546.027255 -186.034531 
L 546.233806 -187.601201 
L 546.504427 -189.167871 
L 546.83722 -190.734542 
L 547.227832 -192.301212 
L 547.670136 -193.867882 
L 548.156914 -195.434553 
L 548.680432 -197.001223 
L 549.232843 -198.567893 
L 549.806425 -200.134563 
L 550.393665 -201.701234 
L 550.987273 -203.267904 
L 551.580167 -204.834574 
L 552.165494 -206.401244 
L 552.736715 -207.967915 
L 553.287744 -209.534585 
L 553.813141 -211.101255 
L 554.308308 -212.667926 
L 554.769672 -214.234596 
L 555.19482 -215.801266 
L 555.582561 -217.367936 
L 555.932928 -218.934607 
L 556.247103 -220.501277 
L 556.527287 -222.067947 
L 556.776521 -223.634618 
L 556.998458 -225.201288 
L 557.197118 -226.767958 
L 557.376616 -228.334628 
L 557.540891 -229.901299 
L 557.693457 -231.467969 
L 557.837186 -233.034639 
L 557.97417 -234.601309 
L 558.105651 -236.16798 
L 558.23205 -237.73465 
L 560.098174 -237.73465 
L 560.098174 -237.73465 
L 560.224573 -236.16798 
L 560.356054 -234.601309 
L 560.493038 -233.034639 
L 560.636768 -231.467969 
L 560.789333 -229.901299 
L 560.953608 -228.334628 
L 561.133106 -226.767958 
L 561.331766 -225.201288 
L 561.553703 -223.634618 
L 561.802937 -222.067947 
L 562.083121 -220.501277 
L 562.397296 -218.934607 
L 562.747663 -217.367936 
L 563.135404 -215.801266 
L 563.560552 -214.234596 
L 564.021916 -212.667926 
L 564.517083 -211.101255 
L 565.04248 -209.534585 
L 565.593509 -207.967915 
L 566.16473 -206.401244 
L 566.750057 -204.834574 
L 567.342951 -203.267904 
L 567.936559 -201.701234 
L 568.523799 -200.134563 
L 569.097381 -198.567893 
L 569.649793 -197.001223 
L 570.17331 -195.434553 
L 570.660089 -193.867882 
L 571.102392 -192.301212 
L 571.493004 -190.734542 
L 571.825797 -189.167871 
L 572.096418 -187.601201 
L 572.302969 -186.034531 
L 572.446556 -184.467861 
L 572.531573 -182.90119 
L 572.5656 -181.33452 
L 572.558892 -179.76785 
L 572.523475 -178.20118 
L 572.471965 -176.634509 
L 572.416271 -175.067839 
L 572.366387 -173.501169 
L 572.329446 -171.934498 
L 572.309182 -170.367828 
L 572.305854 -168.801158 
L 572.316614 -167.234488 
L 572.336242 -165.667817 
L 572.358084 -164.101147 
L 572.375051 -162.534477 
L 572.380517 -160.967807 
L 572.369008 -159.401136 
L 572.336612 -157.834466 
L 572.281105 -156.267796 
L 572.201817 -154.701125 
L 572.099294 -153.134455 
L 571.974855 -151.567785 
L 571.830101 -150.001115 
L 571.666455 -148.434444 
L 571.484813 -146.867774 
L 571.285316 -145.301104 
L 571.067307 -143.734434 
L 570.829452 -142.167763 
L 570.570024 -140.601093 
L 570.28731 -139.034423 
L 569.980096 -137.467752 
L 569.648143 -135.901082 
L 569.292599 -134.334412 
L 568.916266 -132.767742 
L 568.523681 -131.201071 
L 568.120981 -129.634401 
L 567.715568 -128.067731 
L 567.3156 -126.50106 
L 566.929393 -124.93439 
L 566.564786 -123.36772 
L 566.228577 -121.80105 
L 565.926065 -120.234379 
L 565.660769 -118.667709 
L 565.434315 -117.101039 
L 565.246501 -115.534369 
L 565.09548 -113.967698 
L 564.978022 -112.401028 
L 564.889803 -110.834358 
L 564.82566 -109.267687 
L 564.779795 -107.701017 
L 564.745916 -106.134347 
L 564.717328 -104.567677 
L 564.687019 -103.001006 
L 564.647772 -101.434336 
L 564.592351 -99.867666 
L 564.513783 -98.300996 
L 564.405737 -96.734325 
L 564.262979 -95.167655 
L 564.081836 -93.600985 
L 563.860629 -92.034314 
L 563.599976 -90.467644 
L 563.302926 -88.900974 
L 562.974869 -87.334304 
L 562.623224 -85.767633 
L 562.256922 -84.200963 
L 561.885744 -82.634293 
z
" id="mb28b123805" style="stroke:#141414;stroke-width:1.5;"/>
    </defs>
    <g clip-path="url(#pb965c9bd78)">
     <use style="fill:#083c1d;stroke:#141414;stroke-width:1.5;" x="0" xlink:href="#mb28b123805" y="540.169"/>
    </g>
   </g>
   <g id="PolyCollection_10">
    <defs>
     <path d="M 604.646422 -88.904238 
L 604.43266 -88.904238 
L 604.42161 -91.117191 
L 604.419916 -93.330144 
L 604.425336 -95.543097 
L 604.433907 -97.75605 
L 604.441398 -99.969003 
L 604.443468 -102.181956 
L 604.435506 -104.394908 
L 604.414083 -106.607861 
L 604.380032 -108.820814 
L 604.340477 -111.033767 
L 604.306852 -113.24672 
L 604.289165 -115.459673 
L 604.290343 -117.672626 
L 604.304798 -119.885579 
L 604.321937 -122.098532 
L 604.331572 -124.311484 
L 604.327413 -126.524437 
L 604.307235 -128.73739 
L 604.270972 -130.950343 
L 604.218659 -133.163296 
L 604.149007 -135.376249 
L 604.058645 -137.589202 
L 603.942655 -139.802155 
L 603.797034 -142.015107 
L 603.621329 -144.22806 
L 603.417238 -146.441013 
L 603.181668 -148.653966 
L 602.900063 -150.866919 
L 602.549384 -153.079872 
L 602.11282 -155.292825 
L 601.596162 -157.505778 
L 601.032326 -159.718731 
L 600.469923 -161.931683 
L 599.9538 -164.144636 
L 599.508957 -166.357589 
L 599.134278 -168.570542 
L 598.805274 -170.783495 
L 598.480817 -172.996448 
L 598.109948 -175.209401 
L 597.640024 -177.422354 
L 597.029329 -179.635306 
L 596.261483 -181.848259 
L 595.352885 -184.061212 
L 594.348017 -186.274165 
L 593.306503 -188.487118 
L 592.287753 -190.700071 
L 591.333271 -192.913024 
L 590.446706 -195.125977 
L 589.582262 -197.33893 
L 588.658668 -199.551882 
L 587.603314 -201.764835 
L 586.405478 -203.977788 
L 585.142398 -206.190741 
L 583.955027 -208.403694 
L 582.98507 -210.616647 
L 582.314614 -212.8296 
L 581.949207 -215.042553 
L 581.852327 -217.255505 
L 581.998941 -219.468458 
L 582.402161 -221.681411 
L 583.093427 -223.894364 
L 584.079516 -226.107317 
L 585.317753 -228.32027 
L 586.729109 -230.533223 
L 588.233738 -232.746176 
L 589.779093 -234.959128 
L 591.343088 -237.172081 
L 592.915495 -239.385034 
L 594.473735 -241.597987 
L 595.969981 -243.81094 
L 597.33818 -246.023893 
L 598.517301 -248.236846 
L 599.477128 -250.449799 
L 600.23079 -252.662752 
L 600.826342 -254.875704 
L 601.323498 -257.088657 
L 601.770688 -259.30161 
L 602.194238 -261.514563 
L 602.5998 -263.727516 
L 602.978475 -265.940469 
L 603.312645 -268.153422 
L 603.582862 -270.366375 
L 603.77724 -272.579327 
L 603.899243 -274.79228 
L 603.96778 -277.005233 
L 604.009209 -279.218186 
L 604.047185 -281.431139 
L 604.096137 -283.644092 
L 604.159544 -285.857045 
L 604.231567 -288.069998 
L 604.301108 -290.282951 
L 604.35738 -292.495903 
L 604.394599 -294.708856 
L 604.413348 -296.921809 
L 604.418727 -299.134762 
L 604.417617 -301.347715 
L 604.41677 -303.560668 
L 604.421508 -305.773621 
L 604.434415 -307.986574 
L 604.644667 -307.986574 
L 604.644667 -307.986574 
L 604.657574 -305.773621 
L 604.662312 -303.560668 
L 604.661465 -301.347715 
L 604.660355 -299.134762 
L 604.665734 -296.921809 
L 604.684483 -294.708856 
L 604.721702 -292.495903 
L 604.777974 -290.282951 
L 604.847515 -288.069998 
L 604.919538 -285.857045 
L 604.982945 -283.644092 
L 605.031897 -281.431139 
L 605.069873 -279.218186 
L 605.111302 -277.005233 
L 605.17984 -274.79228 
L 605.301843 -272.579327 
L 605.496221 -270.366375 
L 605.766437 -268.153422 
L 606.100607 -265.940469 
L 606.479282 -263.727516 
L 606.884844 -261.514563 
L 607.308394 -259.30161 
L 607.755585 -257.088657 
L 608.25274 -254.875704 
L 608.848292 -252.662752 
L 609.601954 -250.449799 
L 610.561781 -248.236846 
L 611.740903 -246.023893 
L 613.109101 -243.81094 
L 614.605347 -241.597987 
L 616.163587 -239.385034 
L 617.735994 -237.172081 
L 619.299989 -234.959128 
L 620.845345 -232.746176 
L 622.349973 -230.533223 
L 623.761329 -228.32027 
L 624.999566 -226.107317 
L 625.985656 -223.894364 
L 626.676921 -221.681411 
L 627.080141 -219.468458 
L 627.226756 -217.255505 
L 627.129875 -215.042553 
L 626.764468 -212.8296 
L 626.094012 -210.616647 
L 625.124055 -208.403694 
L 623.936684 -206.190741 
L 622.673604 -203.977788 
L 621.475768 -201.764835 
L 620.420414 -199.551882 
L 619.49682 -197.33893 
L 618.632376 -195.125977 
L 617.745811 -192.913024 
L 616.791329 -190.700071 
L 615.772579 -188.487118 
L 614.731065 -186.274165 
L 613.726197 -184.061212 
L 612.817599 -181.848259 
L 612.049753 -179.635306 
L 611.439058 -177.422354 
L 610.969134 -175.209401 
L 610.598265 -172.996448 
L 610.273808 -170.783495 
L 609.944804 -168.570542 
L 609.570125 -166.357589 
L 609.125282 -164.144636 
L 608.609159 -161.931683 
L 608.046756 -159.718731 
L 607.48292 -157.505778 
L 606.966262 -155.292825 
L 606.529698 -153.079872 
L 606.179019 -150.866919 
L 605.897414 -148.653966 
L 605.661844 -146.441013 
L 605.457754 -144.22806 
L 605.282048 -142.015107 
L 605.136427 -139.802155 
L 605.020437 -137.589202 
L 604.930076 -135.376249 
L 604.860423 -133.163296 
L 604.80811 -130.950343 
L 604.771847 -128.73739 
L 604.751669 -126.524437 
L 604.74751 -124.311484 
L 604.757145 -122.098532 
L 604.774285 -119.885579 
L 604.788739 -117.672626 
L 604.789917 -115.459673 
L 604.77223 -113.24672 
L 604.738605 -111.033767 
L 604.69905 -108.820814 
L 604.665 -106.607861 
L 604.643576 -104.394908 
L 604.635615 -102.181956 
L 604.637685 -99.969003 
L 604.645175 -97.75605 
L 604.653746 -95.543097 
L 604.659166 -93.330144 
L 604.657472 -91.117191 
L 604.646422 -88.904238 
z
" id="m67bbb65d47" style="stroke:#141414;stroke-width:1.5;"/>
    </defs>
    <g clip-path="url(#pb965c9bd78)">
     <use style="fill:#0e5f2f;stroke:#141414;stroke-width:1.5;" x="0" xlink:href="#m67bbb65d47" y="540.169"/>
    </g>
   </g>
   <g id="patch_3">
    <path clip-path="url(#pb965c9bd78)" d="M 128.108036 471.001621 
L 128.108036 471.001621 
L 128.108036 471.001621 
L 128.108036 471.001621 
z
" style="fill:#083c1d;stroke:#141414;stroke-linejoin:miter;stroke-width:0.75;"/>
   </g>
   <g id="patch_4">
    <path clip-path="url(#pb965c9bd78)" d="M 128.108036 471.001621 
L 128.108036 471.001621 
L 128.108036 471.001621 
L 128.108036 471.001621 
z
" style="fill:#0e5f2f;stroke:#141414;stroke-linejoin:miter;stroke-width:0.75;"/>
   </g>
   <g id="line2d_1">
    <path clip-path="url(#pb965c9bd78)" d="M 105.420822 470.466811 
L 105.420822 412.612099 
" style="fill:none;stroke:#141414;stroke-linecap:round;stroke-width:1.5;"/>
   </g>
   <g id="line2d_2">
    <path clip-path="url(#pb965c9bd78)" d="M 105.420822 453.668092 
L 105.420822 436.575563 
" style="fill:none;stroke:#141414;stroke-linecap:round;stroke-width:4.5;"/>
   </g>
   <g id="line2d_3">
    <path clip-path="url(#pb965c9bd78)" d="M 150.795251 465.152059 
L 150.795251 372.529572 
" style="fill:none;stroke:#141414;stroke-linecap:round;stroke-width:1.5;"/>
   </g>
   <g id="line2d_4">
    <path clip-path="url(#pb965c9bd78)" d="M 150.795251 430.859211 
L 150.795251 407.518005 
" style="fill:none;stroke:#141414;stroke-linecap:round;stroke-width:4.5;"/>
   </g>
   <g id="line2d_5">
    <path clip-path="url(#pb965c9bd78)" d="M 218.856894 470.38671 
L 218.856894 405.313409 
" style="fill:none;stroke:#141414;stroke-linecap:round;stroke-width:1.5;"/>
   </g>
   <g id="line2d_6">
    <path clip-path="url(#pb965c9bd78)" d="M 218.856894 448.569428 
L 218.856894 431.001308 
" style="fill:none;stroke:#141414;stroke-linecap:round;stroke-width:4.5;"/>
   </g>
   <g id="line2d_7">
    <path clip-path="url(#pb965c9bd78)" d="M 264.231323 449.898942 
L 264.231323 379.514896 
" style="fill:none;stroke:#141414;stroke-linecap:round;stroke-width:1.5;"/>
   </g>
   <g id="line2d_8">
    <path clip-path="url(#pb965c9bd78)" d="M 264.231323 423.511398 
L 264.231323 405.884961 
" style="fill:none;stroke:#141414;stroke-linecap:round;stroke-width:4.5;"/>
   </g>
   <g id="line2d_9">
    <path clip-path="url(#pb965c9bd78)" d="M 332.292967 470.56551 
L 332.292967 420.304838 
" style="fill:none;stroke:#141414;stroke-linecap:round;stroke-width:1.5;"/>
   </g>
   <g id="line2d_10">
    <path clip-path="url(#pb965c9bd78)" d="M 332.292967 468.637589 
L 332.292967 447.15539 
" style="fill:none;stroke:#141414;stroke-linecap:round;stroke-width:4.5;"/>
   </g>
   <g id="line2d_11">
    <path clip-path="url(#pb965c9bd78)" d="M 377.667396 470.538335 
L 377.667396 353.839914 
" style="fill:none;stroke:#141414;stroke-linecap:round;stroke-width:1.5;"/>
   </g>
   <g id="line2d_12">
    <path clip-path="url(#pb965c9bd78)" d="M 377.667396 459.96424 
L 377.667396 403.284382 
" style="fill:none;stroke:#141414;stroke-linecap:round;stroke-width:4.5;"/>
   </g>
   <g id="line2d_13">
    <path clip-path="url(#pb965c9bd78)" d="M 445.729039 470.56551 
L 445.729039 442.491222 
" style="fill:none;stroke:#141414;stroke-linecap:round;stroke-width:1.5;"/>
   </g>
   <g id="line2d_14">
    <path clip-path="url(#pb965c9bd78)" d="M 445.729039 469.66922 
L 445.729039 456.860197 
" style="fill:none;stroke:#141414;stroke-linecap:round;stroke-width:4.5;"/>
   </g>
   <g id="line2d_15">
    <path clip-path="url(#pb965c9bd78)" d="M 491.103468 470.564885 
L 491.103468 378.309838 
" style="fill:none;stroke:#141414;stroke-linecap:round;stroke-width:1.5;"/>
   </g>
   <g id="line2d_16">
    <path clip-path="url(#pb965c9bd78)" d="M 491.103468 467.143247 
L 491.103468 429.047498 
" style="fill:none;stroke:#141414;stroke-linecap:round;stroke-width:4.5;"/>
   </g>
   <g id="line2d_17">
    <path clip-path="url(#pb965c9bd78)" d="M 559.165112 457.534707 
L 559.165112 302.43435 
" style="fill:none;stroke:#141414;stroke-linecap:round;stroke-width:1.5;"/>
   </g>
   <g id="line2d_18">
    <path clip-path="url(#pb965c9bd78)" d="M 559.165112 405.474844 
L 559.165112 355.40899 
" style="fill:none;stroke:#141414;stroke-linecap:round;stroke-width:4.5;"/>
   </g>
   <g id="line2d_19">
    <path clip-path="url(#pb965c9bd78)" d="M 604.539541 391.722004 
L 604.539541 265.923151 
" style="fill:none;stroke:#141414;stroke-linecap:round;stroke-width:1.5;"/>
   </g>
   <g id="line2d_20">
    <path clip-path="url(#pb965c9bd78)" d="M 604.539541 344.262748 
L 604.539541 312.485343 
" style="fill:none;stroke:#141414;stroke-linecap:round;stroke-width:4.5;"/>
   </g>
   <g id="patch_5">
    <path d="M 71.39 492.704 
L 71.39 7.2 
" style="fill:none;stroke:#262626;stroke-linecap:square;stroke-linejoin:miter;stroke-width:0.8;"/>
   </g>
   <g id="patch_6">
    <path d="M 71.39 492.704 
L 638.570363 492.704 
" style="fill:none;stroke:#262626;stroke-linecap:square;stroke-linejoin:miter;stroke-width:0.8;"/>
   </g>
   <g id="PathCollection_1">
    <defs>
     <path d="M 0 1.5 
C 0.397805 1.5 0.77937 1.341951 1.06066 1.06066 
C 1.341951 0.77937 1.5 0.397805 1.5 0 
C 1.5 -0.397805 1.341951 -0.77937 1.06066 -1.06066 
C 0.77937 -1.341951 0.397805 -1.5 0 -1.5 
C -0.397805 -1.5 -0.77937 -1.341951 -1.06066 -1.06066 
C -1.341951 -0.77937 -1.5 -0.397805 -1.5 0 
C -1.5 0.397805 -1.341951 0.77937 -1.06066 1.06066 
C -0.77937 1.341951 -0.397805 1.5 0 1.5 
z
" id="md8ad177fa5" style="stroke:#141414;"/>
    </defs>
    <g clip-path="url(#pb965c9bd78)">
     <use style="fill:#ffffff;stroke:#141414;" x="105.420822" xlink:href="#md8ad177fa5" y="445.900845"/>
    </g>
   </g>
   <g id="PathCollection_2">
    <g clip-path="url(#pb965c9bd78)">
     <use style="fill:#ffffff;stroke:#141414;" x="150.795251" xlink:href="#md8ad177fa5" y="420.111062"/>
    </g>
   </g>
   <g id="PathCollection_3">
    <g clip-path="url(#pb965c9bd78)">
     <use style="fill:#ffffff;stroke:#141414;" x="218.856894" xlink:href="#md8ad177fa5" y="439.332709"/>
    </g>
   </g>
   <g id="PathCollection_4">
    <g clip-path="url(#pb965c9bd78)">
     <use style="fill:#ffffff;stroke:#141414;" x="264.231323" xlink:href="#md8ad177fa5" y="415.69458"/>
    </g>
   </g>
   <g id="PathCollection_5">
    <g clip-path="url(#pb965c9bd78)">
     <use style="fill:#ffffff;stroke:#141414;" x="332.292967" xlink:href="#md8ad177fa5" y="462.759555"/>
    </g>
   </g>
   <g id="PathCollection_6">
    <g clip-path="url(#pb965c9bd78)">
     <use style="fill:#ffffff;stroke:#141414;" x="377.667396" xlink:href="#md8ad177fa5" y="440.294551"/>
    </g>
   </g>
   <g id="PathCollection_7">
    <g clip-path="url(#pb965c9bd78)">
     <use style="fill:#ffffff;stroke:#141414;" x="445.729039" xlink:href="#md8ad177fa5" y="468.187612"/>
    </g>
   </g>
   <g id="PathCollection_8">
    <g clip-path="url(#pb965c9bd78)">
     <use style="fill:#ffffff;stroke:#141414;" x="491.103468" xlink:href="#md8ad177fa5" y="462.746243"/>
    </g>
   </g>
   <g id="PathCollection_9">
    <g clip-path="url(#pb965c9bd78)">
     <use style="fill:#ffffff;stroke:#141414;" x="559.165112" xlink:href="#md8ad177fa5" y="379.135349"/>
    </g>
   </g>
   <g id="PathCollection_10">
    <g clip-path="url(#pb965c9bd78)">
     <use style="fill:#ffffff;stroke:#141414;" x="604.539541" xlink:href="#md8ad177fa5" y="326.672371"/>
    </g>
   </g>
  </g>
  <g id="legend_1">
   <g id="text_15">
    <!-- workday -->
    <defs>
     <path d="M 16.15625 0 
L 0.296875 51.859375 
L 9.375 51.859375 
L 17.625 21.921875 
L 20.703125 10.796875 
Q 20.90625 11.625 23.390625 21.484375 
L 31.640625 51.859375 
L 40.671875 51.859375 
L 48.4375 21.78125 
L 51.03125 11.859375 
L 54 21.875 
L 62.890625 51.859375 
L 71.4375 51.859375 
L 55.21875 0 
L 46.09375 0 
L 37.84375 31.0625 
L 35.84375 39.890625 
L 25.34375 0 
z
" id="ArialMT-119"/>
     <path d="M 6.640625 0 
L 6.640625 71.578125 
L 15.4375 71.578125 
L 15.4375 30.765625 
L 36.234375 51.859375 
L 47.609375 51.859375 
L 27.78125 32.625 
L 49.609375 0 
L 38.765625 0 
L 21.625 26.515625 
L 15.4375 20.5625 
L 15.4375 0 
z
" id="ArialMT-107"/>
     <path d="M 40.4375 6.390625 
Q 35.546875 2.25 31.03125 0.53125 
Q 26.515625 -1.171875 21.34375 -1.171875 
Q 12.796875 -1.171875 8.203125 3 
Q 3.609375 7.171875 3.609375 13.671875 
Q 3.609375 17.484375 5.34375 20.625 
Q 7.078125 23.78125 9.890625 25.6875 
Q 12.703125 27.59375 16.21875 28.5625 
Q 18.796875 29.25 24.03125 29.890625 
Q 34.671875 31.15625 39.703125 32.90625 
Q 39.75 34.71875 39.75 35.203125 
Q 39.75 40.578125 37.25 42.78125 
Q 33.890625 45.75 27.25 45.75 
Q 21.046875 45.75 18.09375 43.578125 
Q 15.140625 41.40625 13.71875 35.890625 
L 5.125 37.0625 
Q 6.296875 42.578125 8.984375 45.96875 
Q 11.671875 49.359375 16.75 51.1875 
Q 21.828125 53.03125 28.515625 53.03125 
Q 35.15625 53.03125 39.296875 51.46875 
Q 43.453125 49.90625 45.40625 47.53125 
Q 47.359375 45.171875 48.140625 41.546875 
Q 48.578125 39.3125 48.578125 33.453125 
L 48.578125 21.734375 
Q 48.578125 9.46875 49.140625 6.21875 
Q 49.703125 2.984375 51.375 0 
L 42.1875 0 
Q 40.828125 2.734375 40.4375 6.390625 
z
M 39.703125 26.03125 
Q 34.90625 24.078125 25.34375 22.703125 
Q 19.921875 21.921875 17.671875 20.9375 
Q 15.4375 19.96875 14.203125 18.09375 
Q 12.984375 16.21875 12.984375 13.921875 
Q 12.984375 10.40625 15.640625 8.0625 
Q 18.3125 5.71875 23.4375 5.71875 
Q 28.515625 5.71875 32.46875 7.9375 
Q 36.421875 10.15625 38.28125 14.015625 
Q 39.703125 17 39.703125 22.796875 
z
" id="ArialMT-97"/>
     <path d="M 6.203125 -19.96875 
L 5.21875 -11.71875 
Q 8.109375 -12.5 10.25 -12.5 
Q 13.1875 -12.5 14.9375 -11.515625 
Q 16.703125 -10.546875 17.828125 -8.796875 
Q 18.65625 -7.46875 20.515625 -2.25 
Q 20.75 -1.515625 21.296875 -0.09375 
L 1.609375 51.859375 
L 11.078125 51.859375 
L 21.875 21.828125 
Q 23.96875 16.109375 25.640625 9.8125 
Q 27.15625 15.875 29.25 21.625 
L 40.328125 51.859375 
L 49.125 51.859375 
L 29.390625 -0.875 
Q 26.21875 -9.421875 24.46875 -12.640625 
Q 22.125 -17 19.09375 -19.015625 
Q 16.0625 -21.046875 11.859375 -21.046875 
Q 9.328125 -21.046875 6.203125 -19.96875 
z
" id="ArialMT-121"/>
    </defs>
    <g style="fill:#262626;" transform="translate(717.143 251.4945)scale(0.16 -0.16)">
     <use xlink:href="#ArialMT-119"/>
     <use x="72.216797" xlink:href="#ArialMT-111"/>
     <use x="127.832031" xlink:href="#ArialMT-114"/>
     <use x="161.132812" xlink:href="#ArialMT-107"/>
     <use x="211.132812" xlink:href="#ArialMT-100"/>
     <use x="266.748047" xlink:href="#ArialMT-97"/>
     <use x="322.363281" xlink:href="#ArialMT-121"/>
    </g>
   </g>
   <g id="patch_7">
    <path d="M 720.08175 274.3145 
L 752.08175 274.3145 
L 752.08175 263.1145 
L 720.08175 263.1145 
z
" style="fill:#083c1d;stroke:#141414;stroke-linejoin:miter;stroke-width:0.75;"/>
   </g>
   <g id="text_16">
    <!-- 0 -->
    <g style="fill:#262626;" transform="translate(764.88175 274.3145)scale(0.16 -0.16)">
     <use xlink:href="#ArialMT-48"/>
    </g>
   </g>
   <g id="patch_8">
    <path d="M 720.08175 296.947 
L 752.08175 296.947 
L 752.08175 285.747 
L 720.08175 285.747 
z
" style="fill:#0e5f2f;stroke:#141414;stroke-linejoin:miter;stroke-width:0.75;"/>
   </g>
   <g id="text_17">
    <!-- 1 -->
    <g style="fill:#262626;" transform="translate(764.88175 296.947)scale(0.16 -0.16)">
     <use xlink:href="#ArialMT-49"/>
    </g>
   </g>
  </g>
 </g>
 <defs>
  <clipPath id="pb965c9bd78">
   <rect height="485.504" width="567.180363" x="71.39" y="7.2"/>
  </clipPath>
 </defs>
</svg>
