<?xml version="1.0" encoding="utf-8" standalone="no"?>
<!DOCTYPE svg PUBLIC "-//W3C//DTD SVG 1.1//EN"
  "http://www.w3.org/Graphics/SVG/1.1/DTD/svg11.dtd">
<!-- Created with matplotlib (https://matplotlib.org/) -->
<svg height="536.575754pt" version="1.1" viewBox="0 0 791.118 536.575754" width="791.118pt" xmlns="http://www.w3.org/2000/svg" xmlns:xlink="http://www.w3.org/1999/xlink">
 <defs>
  <style type="text/css">
*{stroke-linecap:butt;stroke-linejoin:round;white-space:pre;}
  </style>
 </defs>
 <g id="figure_1">
  <g id="patch_1">
   <path d="M 0 536.575754 
L 791.118 536.575754 
L 791.118 0 
L 0 0 
z
" style="fill:#ffffff;"/>
  </g>
  <g id="axes_1">
   <g id="patch_2">
    <path d="M 71.39 489.110754 
L 605.559648 489.110754 
L 605.559648 7.2 
L 71.39 7.2 
z
" style="fill:#ffffff;"/>
   </g>
   <g id="matplotlib.axis_1">
    <g id="xtick_1">
     <g id="text_1">
      <!-- 1026-136-1 -->
      <defs>
       <path d="M 37.25 0 
L 28.46875 0 
L 28.46875 56 
Q 25.296875 52.984375 20.140625 49.953125 
Q 14.984375 46.921875 10.890625 45.40625 
L 10.890625 53.90625 
Q 18.265625 57.375 23.78125 62.296875 
Q 29.296875 67.234375 31.59375 71.875 
L 37.25 71.875 
z
" id="ArialMT-49"/>
       <path d="M 4.15625 35.296875 
Q 4.15625 48 6.765625 55.734375 
Q 9.375 63.484375 14.515625 67.671875 
Q 19.671875 71.875 27.484375 71.875 
Q 33.25 71.875 37.59375 69.546875 
Q 41.9375 67.234375 44.765625 62.859375 
Q 47.609375 58.5 49.21875 52.21875 
Q 50.828125 45.953125 50.828125 35.296875 
Q 50.828125 22.703125 48.234375 14.96875 
Q 45.65625 7.234375 40.5 3 
Q 35.359375 -1.21875 27.484375 -1.21875 
Q 17.140625 -1.21875 11.234375 6.203125 
Q 4.15625 15.140625 4.15625 35.296875 
z
M 13.1875 35.296875 
Q 13.1875 17.671875 17.3125 11.828125 
Q 21.4375 6 27.484375 6 
Q 33.546875 6 37.671875 11.859375 
Q 41.796875 17.71875 41.796875 35.296875 
Q 41.796875 52.984375 37.671875 58.78125 
Q 33.546875 64.59375 27.390625 64.59375 
Q 21.34375 64.59375 17.71875 59.46875 
Q 13.1875 52.9375 13.1875 35.296875 
z
" id="ArialMT-48"/>
       <path d="M 50.34375 8.453125 
L 50.34375 0 
L 3.03125 0 
Q 2.9375 3.171875 4.046875 6.109375 
Q 5.859375 10.9375 9.828125 15.625 
Q 13.8125 20.3125 21.34375 26.46875 
Q 33.015625 36.03125 37.109375 41.625 
Q 41.21875 47.21875 41.21875 52.203125 
Q 41.21875 57.421875 37.46875 61 
Q 33.734375 64.59375 27.734375 64.59375 
Q 21.390625 64.59375 17.578125 60.78125 
Q 13.765625 56.984375 13.71875 50.25 
L 4.6875 51.171875 
Q 5.609375 61.28125 11.65625 66.578125 
Q 17.71875 71.875 27.9375 71.875 
Q 38.234375 71.875 44.234375 66.15625 
Q 50.25 60.453125 50.25 52 
Q 50.25 47.703125 48.484375 43.546875 
Q 46.734375 39.40625 42.65625 34.8125 
Q 38.578125 30.21875 29.109375 22.21875 
Q 21.1875 15.578125 18.9375 13.203125 
Q 16.703125 10.84375 15.234375 8.453125 
z
" id="ArialMT-50"/>
       <path d="M 49.75 54.046875 
L 41.015625 53.375 
Q 39.84375 58.546875 37.703125 60.890625 
Q 34.125 64.65625 28.90625 64.65625 
Q 24.703125 64.65625 21.53125 62.3125 
Q 17.390625 59.28125 14.984375 53.46875 
Q 12.59375 47.65625 12.5 36.921875 
Q 15.671875 41.75 20.265625 44.09375 
Q 24.859375 46.4375 29.890625 46.4375 
Q 38.671875 46.4375 44.84375 39.96875 
Q 51.03125 33.5 51.03125 23.25 
Q 51.03125 16.5 48.125 10.71875 
Q 45.21875 4.9375 40.140625 1.859375 
Q 35.0625 -1.21875 28.609375 -1.21875 
Q 17.625 -1.21875 10.6875 6.859375 
Q 3.765625 14.9375 3.765625 33.5 
Q 3.765625 54.25 11.421875 63.671875 
Q 18.109375 71.875 29.4375 71.875 
Q 37.890625 71.875 43.28125 67.140625 
Q 48.6875 62.40625 49.75 54.046875 
z
M 13.875 23.1875 
Q 13.875 18.65625 15.796875 14.5 
Q 17.71875 10.359375 21.1875 8.171875 
Q 24.65625 6 28.46875 6 
Q 34.03125 6 38.03125 10.484375 
Q 42.046875 14.984375 42.046875 22.703125 
Q 42.046875 30.125 38.078125 34.390625 
Q 34.125 38.671875 28.125 38.671875 
Q 22.171875 38.671875 18.015625 34.390625 
Q 13.875 30.125 13.875 23.1875 
z
" id="ArialMT-54"/>
       <path d="M 3.171875 21.484375 
L 3.171875 30.328125 
L 30.171875 30.328125 
L 30.171875 21.484375 
z
" id="ArialMT-45"/>
       <path d="M 4.203125 18.890625 
L 12.984375 20.0625 
Q 14.5 12.59375 18.140625 9.296875 
Q 21.78125 6 27 6 
Q 33.203125 6 37.46875 10.296875 
Q 41.75 14.59375 41.75 20.953125 
Q 41.75 27 37.796875 30.921875 
Q 33.84375 34.859375 27.734375 34.859375 
Q 25.25 34.859375 21.53125 33.890625 
L 22.515625 41.609375 
Q 23.390625 41.5 23.921875 41.5 
Q 29.546875 41.5 34.03125 44.421875 
Q 38.53125 47.359375 38.53125 53.46875 
Q 38.53125 58.296875 35.25 61.46875 
Q 31.984375 64.65625 26.8125 64.65625 
Q 21.6875 64.65625 18.265625 61.421875 
Q 14.84375 58.203125 13.875 51.765625 
L 5.078125 53.328125 
Q 6.6875 62.15625 12.390625 67.015625 
Q 18.109375 71.875 26.609375 71.875 
Q 32.46875 71.875 37.390625 69.359375 
Q 42.328125 66.84375 44.9375 62.5 
Q 47.5625 58.15625 47.5625 53.265625 
Q 47.5625 48.640625 45.0625 44.828125 
Q 42.578125 41.015625 37.703125 38.765625 
Q 44.046875 37.3125 47.5625 32.6875 
Q 51.078125 28.078125 51.078125 21.140625 
Q 51.078125 11.765625 44.234375 5.25 
Q 37.40625 -1.265625 26.953125 -1.265625 
Q 17.53125 -1.265625 11.296875 4.34375 
Q 5.078125 9.96875 4.203125 18.890625 
z
" id="ArialMT-51"/>
      </defs>
      <g style="fill:#262626;" transform="translate(83.889465 507.563254)scale(0.16 -0.16)">
       <use xlink:href="#ArialMT-49"/>
       <use x="55.615234" xlink:href="#ArialMT-48"/>
       <use x="111.230469" xlink:href="#ArialMT-50"/>
       <use x="166.845703" xlink:href="#ArialMT-54"/>
       <use x="222.460938" xlink:href="#ArialMT-45"/>
       <use x="255.761719" xlink:href="#ArialMT-49"/>
       <use x="311.376953" xlink:href="#ArialMT-51"/>
       <use x="366.992188" xlink:href="#ArialMT-54"/>
       <use x="422.607422" xlink:href="#ArialMT-45"/>
       <use x="455.908203" xlink:href="#ArialMT-49"/>
      </g>
     </g>
    </g>
    <g id="xtick_2">
     <g id="text_2">
      <!-- 1028-18a-1 -->
      <defs>
       <path d="M 17.671875 38.8125 
Q 12.203125 40.828125 9.5625 44.53125 
Q 6.9375 48.25 6.9375 53.421875 
Q 6.9375 61.234375 12.546875 66.546875 
Q 18.171875 71.875 27.484375 71.875 
Q 36.859375 71.875 42.578125 66.421875 
Q 48.296875 60.984375 48.296875 53.171875 
Q 48.296875 48.1875 45.671875 44.5 
Q 43.0625 40.828125 37.75 38.8125 
Q 44.34375 36.671875 47.78125 31.875 
Q 51.21875 27.09375 51.21875 20.453125 
Q 51.21875 11.28125 44.71875 5.03125 
Q 38.234375 -1.21875 27.640625 -1.21875 
Q 17.046875 -1.21875 10.546875 5.046875 
Q 4.046875 11.328125 4.046875 20.703125 
Q 4.046875 27.6875 7.59375 32.390625 
Q 11.140625 37.109375 17.671875 38.8125 
z
M 15.921875 53.71875 
Q 15.921875 48.640625 19.1875 45.40625 
Q 22.46875 42.1875 27.6875 42.1875 
Q 32.765625 42.1875 36.015625 45.375 
Q 39.265625 48.578125 39.265625 53.21875 
Q 39.265625 58.0625 35.90625 61.359375 
Q 32.5625 64.65625 27.59375 64.65625 
Q 22.5625 64.65625 19.234375 61.421875 
Q 15.921875 58.203125 15.921875 53.71875 
z
M 13.09375 20.65625 
Q 13.09375 16.890625 14.875 13.375 
Q 16.65625 9.859375 20.171875 7.921875 
Q 23.6875 6 27.734375 6 
Q 34.03125 6 38.125 10.046875 
Q 42.234375 14.109375 42.234375 20.359375 
Q 42.234375 26.703125 38.015625 30.859375 
Q 33.796875 35.015625 27.4375 35.015625 
Q 21.234375 35.015625 17.15625 30.90625 
Q 13.09375 26.8125 13.09375 20.65625 
z
" id="ArialMT-56"/>
       <path d="M 40.4375 6.390625 
Q 35.546875 2.25 31.03125 0.53125 
Q 26.515625 -1.171875 21.34375 -1.171875 
Q 12.796875 -1.171875 8.203125 3 
Q 3.609375 7.171875 3.609375 13.671875 
Q 3.609375 17.484375 5.34375 20.625 
Q 7.078125 23.78125 9.890625 25.6875 
Q 12.703125 27.59375 16.21875 28.5625 
Q 18.796875 29.25 24.03125 29.890625 
Q 34.671875 31.15625 39.703125 32.90625 
Q 39.75 34.71875 39.75 35.203125 
Q 39.75 40.578125 37.25 42.78125 
Q 33.890625 45.75 27.25 45.75 
Q 21.046875 45.75 18.09375 43.578125 
Q 15.140625 41.40625 13.71875 35.890625 
L 5.125 37.0625 
Q 6.296875 42.578125 8.984375 45.96875 
Q 11.671875 49.359375 16.75 51.1875 
Q 21.828125 53.03125 28.515625 53.03125 
Q 35.15625 53.03125 39.296875 51.46875 
Q 43.453125 49.90625 45.40625 47.53125 
Q 47.359375 45.171875 48.140625 41.546875 
Q 48.578125 39.3125 48.578125 33.453125 
L 48.578125 21.734375 
Q 48.578125 9.46875 49.140625 6.21875 
Q 49.703125 2.984375 51.375 0 
L 42.1875 0 
Q 40.828125 2.734375 40.4375 6.390625 
z
M 39.703125 26.03125 
Q 34.90625 24.078125 25.34375 22.703125 
Q 19.921875 21.921875 17.671875 20.9375 
Q 15.4375 19.96875 14.203125 18.09375 
Q 12.984375 16.21875 12.984375 13.921875 
Q 12.984375 10.40625 15.640625 8.0625 
Q 18.3125 5.71875 23.4375 5.71875 
Q 28.515625 5.71875 32.46875 7.9375 
Q 36.421875 10.15625 38.28125 14.015625 
Q 39.703125 17 39.703125 22.796875 
z
" id="ArialMT-97"/>
      </defs>
      <g style="fill:#262626;" transform="translate(190.723394 507.563254)scale(0.16 -0.16)">
       <use xlink:href="#ArialMT-49"/>
       <use x="55.615234" xlink:href="#ArialMT-48"/>
       <use x="111.230469" xlink:href="#ArialMT-50"/>
       <use x="166.845703" xlink:href="#ArialMT-56"/>
       <use x="222.460938" xlink:href="#ArialMT-45"/>
       <use x="255.761719" xlink:href="#ArialMT-49"/>
       <use x="311.376953" xlink:href="#ArialMT-56"/>
       <use x="366.992188" xlink:href="#ArialMT-97"/>
       <use x="422.607422" xlink:href="#ArialMT-45"/>
       <use x="455.908203" xlink:href="#ArialMT-49"/>
      </g>
     </g>
    </g>
    <g id="xtick_3">
     <g id="text_3">
      <!-- 1040-236-1 -->
      <defs>
       <path d="M 32.328125 0 
L 32.328125 17.140625 
L 1.265625 17.140625 
L 1.265625 25.203125 
L 33.9375 71.578125 
L 41.109375 71.578125 
L 41.109375 25.203125 
L 50.78125 25.203125 
L 50.78125 17.140625 
L 41.109375 17.140625 
L 41.109375 0 
z
M 32.328125 25.203125 
L 32.328125 57.46875 
L 9.90625 25.203125 
z
" id="ArialMT-52"/>
      </defs>
      <g style="fill:#262626;" transform="translate(297.557324 507.563254)scale(0.16 -0.16)">
       <use xlink:href="#ArialMT-49"/>
       <use x="55.615234" xlink:href="#ArialMT-48"/>
       <use x="111.230469" xlink:href="#ArialMT-52"/>
       <use x="166.845703" xlink:href="#ArialMT-48"/>
       <use x="222.460938" xlink:href="#ArialMT-45"/>
       <use x="255.761719" xlink:href="#ArialMT-50"/>
       <use x="311.376953" xlink:href="#ArialMT-51"/>
       <use x="366.992188" xlink:href="#ArialMT-54"/>
       <use x="422.607422" xlink:href="#ArialMT-45"/>
       <use x="455.908203" xlink:href="#ArialMT-49"/>
      </g>
     </g>
    </g>
    <g id="xtick_4">
     <g id="text_4">
      <!-- 1040-236-2 -->
      <g style="fill:#262626;" transform="translate(404.391254 507.563254)scale(0.16 -0.16)">
       <use xlink:href="#ArialMT-49"/>
       <use x="55.615234" xlink:href="#ArialMT-48"/>
       <use x="111.230469" xlink:href="#ArialMT-52"/>
       <use x="166.845703" xlink:href="#ArialMT-48"/>
       <use x="222.460938" xlink:href="#ArialMT-45"/>
       <use x="255.761719" xlink:href="#ArialMT-50"/>
       <use x="311.376953" xlink:href="#ArialMT-51"/>
       <use x="366.992188" xlink:href="#ArialMT-54"/>
       <use x="422.607422" xlink:href="#ArialMT-45"/>
       <use x="455.908203" xlink:href="#ArialMT-50"/>
      </g>
     </g>
    </g>
    <g id="xtick_5">
     <g id="text_5">
      <!-- 1055-166-1 -->
      <defs>
       <path d="M 4.15625 18.75 
L 13.375 19.53125 
Q 14.40625 12.796875 18.140625 9.390625 
Q 21.875 6 27.15625 6 
Q 33.5 6 37.890625 10.78125 
Q 42.28125 15.578125 42.28125 23.484375 
Q 42.28125 31 38.0625 35.34375 
Q 33.84375 39.703125 27 39.703125 
Q 22.75 39.703125 19.328125 37.765625 
Q 15.921875 35.84375 13.96875 32.765625 
L 5.71875 33.84375 
L 12.640625 70.609375 
L 48.25 70.609375 
L 48.25 62.203125 
L 19.671875 62.203125 
L 15.828125 42.96875 
Q 22.265625 47.46875 29.34375 47.46875 
Q 38.71875 47.46875 45.15625 40.96875 
Q 51.609375 34.46875 51.609375 24.265625 
Q 51.609375 14.546875 45.953125 7.46875 
Q 39.0625 -1.21875 27.15625 -1.21875 
Q 17.390625 -1.21875 11.203125 4.25 
Q 5.03125 9.71875 4.15625 18.75 
z
" id="ArialMT-53"/>
      </defs>
      <g style="fill:#262626;" transform="translate(511.225183 507.563254)scale(0.16 -0.16)">
       <use xlink:href="#ArialMT-49"/>
       <use x="55.615234" xlink:href="#ArialMT-48"/>
       <use x="111.230469" xlink:href="#ArialMT-53"/>
       <use x="166.845703" xlink:href="#ArialMT-53"/>
       <use x="222.460938" xlink:href="#ArialMT-45"/>
       <use x="255.761719" xlink:href="#ArialMT-49"/>
       <use x="311.376953" xlink:href="#ArialMT-54"/>
       <use x="366.992188" xlink:href="#ArialMT-54"/>
       <use x="422.607422" xlink:href="#ArialMT-45"/>
       <use x="455.908203" xlink:href="#ArialMT-49"/>
      </g>
     </g>
    </g>
    <g id="text_6">
     <!-- Counter id -->
     <defs>
      <path d="M 58.796875 25.09375 
L 68.265625 22.703125 
Q 65.28125 11.03125 57.546875 4.90625 
Q 49.8125 -1.21875 38.625 -1.21875 
Q 27.046875 -1.21875 19.796875 3.484375 
Q 12.546875 8.203125 8.765625 17.140625 
Q 4.984375 26.078125 4.984375 36.328125 
Q 4.984375 47.515625 9.25 55.828125 
Q 13.53125 64.15625 21.40625 68.46875 
Q 29.296875 72.796875 38.765625 72.796875 
Q 49.515625 72.796875 56.828125 67.328125 
Q 64.15625 61.859375 67.046875 51.953125 
L 57.71875 49.75 
Q 55.21875 57.5625 50.484375 61.125 
Q 45.75 64.703125 38.578125 64.703125 
Q 30.328125 64.703125 24.78125 60.734375 
Q 19.234375 56.78125 16.984375 50.109375 
Q 14.75 43.453125 14.75 36.375 
Q 14.75 27.25 17.40625 20.4375 
Q 20.0625 13.625 25.671875 10.25 
Q 31.296875 6.890625 37.84375 6.890625 
Q 45.796875 6.890625 51.3125 11.46875 
Q 56.84375 16.0625 58.796875 25.09375 
z
" id="ArialMT-67"/>
      <path d="M 3.328125 25.921875 
Q 3.328125 40.328125 11.328125 47.265625 
Q 18.015625 53.03125 27.640625 53.03125 
Q 38.328125 53.03125 45.109375 46.015625 
Q 51.90625 39.015625 51.90625 26.65625 
Q 51.90625 16.65625 48.90625 10.90625 
Q 45.90625 5.171875 40.15625 2 
Q 34.421875 -1.171875 27.640625 -1.171875 
Q 16.75 -1.171875 10.03125 5.8125 
Q 3.328125 12.796875 3.328125 25.921875 
z
M 12.359375 25.921875 
Q 12.359375 15.96875 16.703125 11.015625 
Q 21.046875 6.0625 27.640625 6.0625 
Q 34.1875 6.0625 38.53125 11.03125 
Q 42.875 16.015625 42.875 26.21875 
Q 42.875 35.84375 38.5 40.796875 
Q 34.125 45.75 27.640625 45.75 
Q 21.046875 45.75 16.703125 40.8125 
Q 12.359375 35.890625 12.359375 25.921875 
z
" id="ArialMT-111"/>
      <path d="M 40.578125 0 
L 40.578125 7.625 
Q 34.515625 -1.171875 24.125 -1.171875 
Q 19.53125 -1.171875 15.546875 0.578125 
Q 11.578125 2.34375 9.640625 5 
Q 7.71875 7.671875 6.9375 11.53125 
Q 6.390625 14.109375 6.390625 19.734375 
L 6.390625 51.859375 
L 15.1875 51.859375 
L 15.1875 23.09375 
Q 15.1875 16.21875 15.71875 13.8125 
Q 16.546875 10.359375 19.234375 8.375 
Q 21.921875 6.390625 25.875 6.390625 
Q 29.828125 6.390625 33.296875 8.421875 
Q 36.765625 10.453125 38.203125 13.9375 
Q 39.65625 17.4375 39.65625 24.078125 
L 39.65625 51.859375 
L 48.4375 51.859375 
L 48.4375 0 
z
" id="ArialMT-117"/>
      <path d="M 6.59375 0 
L 6.59375 51.859375 
L 14.5 51.859375 
L 14.5 44.484375 
Q 20.21875 53.03125 31 53.03125 
Q 35.6875 53.03125 39.625 51.34375 
Q 43.5625 49.65625 45.515625 46.921875 
Q 47.46875 44.1875 48.25 40.4375 
Q 48.734375 37.984375 48.734375 31.890625 
L 48.734375 0 
L 39.9375 0 
L 39.9375 31.546875 
Q 39.9375 36.921875 38.90625 39.578125 
Q 37.890625 42.234375 35.28125 43.8125 
Q 32.671875 45.40625 29.15625 45.40625 
Q 23.53125 45.40625 19.453125 41.84375 
Q 15.375 38.28125 15.375 28.328125 
L 15.375 0 
z
" id="ArialMT-110"/>
      <path d="M 25.78125 7.859375 
L 27.046875 0.09375 
Q 23.34375 -0.6875 20.40625 -0.6875 
Q 15.625 -0.6875 12.984375 0.828125 
Q 10.359375 2.34375 9.28125 4.8125 
Q 8.203125 7.28125 8.203125 15.1875 
L 8.203125 45.015625 
L 1.765625 45.015625 
L 1.765625 51.859375 
L 8.203125 51.859375 
L 8.203125 64.703125 
L 16.9375 69.96875 
L 16.9375 51.859375 
L 25.78125 51.859375 
L 25.78125 45.015625 
L 16.9375 45.015625 
L 16.9375 14.703125 
Q 16.9375 10.9375 17.40625 9.859375 
Q 17.875 8.796875 18.921875 8.15625 
Q 19.96875 7.515625 21.921875 7.515625 
Q 23.390625 7.515625 25.78125 7.859375 
z
" id="ArialMT-116"/>
      <path d="M 42.09375 16.703125 
L 51.171875 15.578125 
Q 49.03125 7.625 43.21875 3.21875 
Q 37.40625 -1.171875 28.375 -1.171875 
Q 17 -1.171875 10.328125 5.828125 
Q 3.65625 12.84375 3.65625 25.484375 
Q 3.65625 38.578125 10.390625 45.796875 
Q 17.140625 53.03125 27.875 53.03125 
Q 38.28125 53.03125 44.875 45.953125 
Q 51.46875 38.875 51.46875 26.03125 
Q 51.46875 25.25 51.421875 23.6875 
L 12.75 23.6875 
Q 13.234375 15.140625 17.578125 10.59375 
Q 21.921875 6.0625 28.421875 6.0625 
Q 33.25 6.0625 36.671875 8.59375 
Q 40.09375 11.140625 42.09375 16.703125 
z
M 13.234375 30.90625 
L 42.1875 30.90625 
Q 41.609375 37.453125 38.875 40.71875 
Q 34.671875 45.796875 27.984375 45.796875 
Q 21.921875 45.796875 17.796875 41.75 
Q 13.671875 37.703125 13.234375 30.90625 
z
" id="ArialMT-101"/>
      <path d="M 6.5 0 
L 6.5 51.859375 
L 14.40625 51.859375 
L 14.40625 44 
Q 17.4375 49.515625 20 51.265625 
Q 22.5625 53.03125 25.640625 53.03125 
Q 30.078125 53.03125 34.671875 50.203125 
L 31.640625 42.046875 
Q 28.421875 43.953125 25.203125 43.953125 
Q 22.3125 43.953125 20.015625 42.21875 
Q 17.71875 40.484375 16.75 37.40625 
Q 15.28125 32.71875 15.28125 27.15625 
L 15.28125 0 
z
" id="ArialMT-114"/>
      <path id="ArialMT-32"/>
      <path d="M 6.640625 61.46875 
L 6.640625 71.578125 
L 15.4375 71.578125 
L 15.4375 61.46875 
z
M 6.640625 0 
L 6.640625 51.859375 
L 15.4375 51.859375 
L 15.4375 0 
z
" id="ArialMT-105"/>
      <path d="M 40.234375 0 
L 40.234375 6.546875 
Q 35.296875 -1.171875 25.734375 -1.171875 
Q 19.53125 -1.171875 14.328125 2.25 
Q 9.125 5.671875 6.265625 11.796875 
Q 3.421875 17.921875 3.421875 25.875 
Q 3.421875 33.640625 6 39.96875 
Q 8.59375 46.296875 13.765625 49.65625 
Q 18.953125 53.03125 25.34375 53.03125 
Q 30.03125 53.03125 33.6875 51.046875 
Q 37.359375 49.078125 39.65625 45.90625 
L 39.65625 71.578125 
L 48.390625 71.578125 
L 48.390625 0 
z
M 12.453125 25.875 
Q 12.453125 15.921875 16.640625 10.984375 
Q 20.84375 6.0625 26.5625 6.0625 
Q 32.328125 6.0625 36.34375 10.765625 
Q 40.375 15.484375 40.375 25.140625 
Q 40.375 35.796875 36.265625 40.765625 
Q 32.171875 45.75 26.171875 45.75 
Q 20.3125 45.75 16.375 40.96875 
Q 12.453125 36.1875 12.453125 25.875 
z
" id="ArialMT-100"/>
     </defs>
     <g style="fill:#262626;" transform="translate(301.567324 526.195754)scale(0.16 -0.16)">
      <use xlink:href="#ArialMT-67"/>
      <use x="72.216797" xlink:href="#ArialMT-111"/>
      <use x="127.832031" xlink:href="#ArialMT-117"/>
      <use x="183.447266" xlink:href="#ArialMT-110"/>
      <use x="239.0625" xlink:href="#ArialMT-116"/>
      <use x="266.845703" xlink:href="#ArialMT-101"/>
      <use x="322.460938" xlink:href="#ArialMT-114"/>
      <use x="355.761719" xlink:href="#ArialMT-32"/>
      <use x="383.544922" xlink:href="#ArialMT-105"/>
      <use x="405.761719" xlink:href="#ArialMT-100"/>
     </g>
    </g>
   </g>
   <g id="matplotlib.axis_2">
    <g id="ytick_1">
     <g id="text_7">
      <!-- 0 -->
      <g style="fill:#262626;" transform="translate(55.4925 472.93197)scale(0.16 -0.16)">
       <use xlink:href="#ArialMT-48"/>
      </g>
     </g>
    </g>
    <g id="ytick_2">
     <g id="text_8">
      <!-- 250 -->
      <g style="fill:#262626;" transform="translate(37.6975 408.085806)scale(0.16 -0.16)">
       <use xlink:href="#ArialMT-50"/>
       <use x="55.615234" xlink:href="#ArialMT-53"/>
       <use x="111.230469" xlink:href="#ArialMT-48"/>
      </g>
     </g>
    </g>
    <g id="ytick_3">
     <g id="text_9">
      <!-- 500 -->
      <g style="fill:#262626;" transform="translate(37.6975 343.239641)scale(0.16 -0.16)">
       <use xlink:href="#ArialMT-53"/>
       <use x="55.615234" xlink:href="#ArialMT-48"/>
       <use x="111.230469" xlink:href="#ArialMT-48"/>
      </g>
     </g>
    </g>
    <g id="ytick_4">
     <g id="text_10">
      <!-- 750 -->
      <defs>
       <path d="M 4.734375 62.203125 
L 4.734375 70.65625 
L 51.078125 70.65625 
L 51.078125 63.8125 
Q 44.234375 56.546875 37.515625 44.484375 
Q 30.8125 32.421875 27.15625 19.671875 
Q 24.515625 10.6875 23.78125 0 
L 14.75 0 
Q 14.890625 8.453125 18.0625 20.40625 
Q 21.234375 32.375 27.171875 43.484375 
Q 33.109375 54.59375 39.796875 62.203125 
z
" id="ArialMT-55"/>
      </defs>
      <g style="fill:#262626;" transform="translate(37.6975 278.393477)scale(0.16 -0.16)">
       <use xlink:href="#ArialMT-55"/>
       <use x="55.615234" xlink:href="#ArialMT-53"/>
       <use x="111.230469" xlink:href="#ArialMT-48"/>
      </g>
     </g>
    </g>
    <g id="ytick_5">
     <g id="text_11">
      <!-- 1000 -->
      <g style="fill:#262626;" transform="translate(28.8 213.547313)scale(0.16 -0.16)">
       <use xlink:href="#ArialMT-49"/>
       <use x="55.615234" xlink:href="#ArialMT-48"/>
       <use x="111.230469" xlink:href="#ArialMT-48"/>
       <use x="166.845703" xlink:href="#ArialMT-48"/>
      </g>
     </g>
    </g>
    <g id="ytick_6">
     <g id="text_12">
      <!-- 1250 -->
      <g style="fill:#262626;" transform="translate(28.8 148.701149)scale(0.16 -0.16)">
       <use xlink:href="#ArialMT-49"/>
       <use x="55.615234" xlink:href="#ArialMT-50"/>
       <use x="111.230469" xlink:href="#ArialMT-53"/>
       <use x="166.845703" xlink:href="#ArialMT-48"/>
      </g>
     </g>
    </g>
    <g id="ytick_7">
     <g id="text_13">
      <!-- 1500 -->
      <g style="fill:#262626;" transform="translate(28.8 83.854984)scale(0.16 -0.16)">
       <use xlink:href="#ArialMT-49"/>
       <use x="55.615234" xlink:href="#ArialMT-53"/>
       <use x="111.230469" xlink:href="#ArialMT-48"/>
       <use x="166.845703" xlink:href="#ArialMT-48"/>
      </g>
     </g>
    </g>
    <g id="ytick_8">
     <g id="text_14">
      <!-- 1750 -->
      <g style="fill:#262626;" transform="translate(28.8 19.00882)scale(0.16 -0.16)">
       <use xlink:href="#ArialMT-49"/>
       <use x="55.615234" xlink:href="#ArialMT-55"/>
       <use x="111.230469" xlink:href="#ArialMT-53"/>
       <use x="166.845703" xlink:href="#ArialMT-48"/>
      </g>
     </g>
    </g>
    <g id="text_15">
     <!-- Count [$h^{-1}$] -->
     <defs>
      <path d="M 6.78125 -19.875 
L 6.78125 71.578125 
L 26.171875 71.578125 
L 26.171875 64.3125 
L 15.578125 64.3125 
L 15.578125 -12.59375 
L 26.171875 -12.59375 
L 26.171875 -19.875 
z
" id="ArialMT-91"/>
      <path d="M 55.71875 33.015625 
L 49.3125 0 
L 40.28125 0 
L 46.6875 32.671875 
Q 47.125 34.96875 47.359375 36.71875 
Q 47.609375 38.484375 47.609375 39.5 
Q 47.609375 43.609375 45.015625 45.890625 
Q 42.4375 48.1875 37.796875 48.1875 
Q 30.5625 48.1875 25.265625 43.296875 
Q 19.96875 38.421875 18.40625 30.328125 
L 12.5 0 
L 3.515625 0 
L 18.3125 75.984375 
L 27.296875 75.984375 
L 21.484375 46.09375 
Q 24.90625 50.6875 30.21875 53.34375 
Q 35.546875 56 41.40625 56 
Q 48.640625 56 52.609375 52.09375 
Q 56.59375 48.1875 56.59375 41.109375 
Q 56.59375 39.359375 56.375 37.359375 
Q 56.15625 35.359375 55.71875 33.015625 
z
" id="DejaVuSans-Oblique-104"/>
      <path d="M 10.59375 35.5 
L 73.1875 35.5 
L 73.1875 27.203125 
L 10.59375 27.203125 
z
" id="DejaVuSans-8722"/>
      <path d="M 12.40625 8.296875 
L 28.515625 8.296875 
L 28.515625 63.921875 
L 10.984375 60.40625 
L 10.984375 69.390625 
L 28.421875 72.90625 
L 38.28125 72.90625 
L 38.28125 8.296875 
L 54.390625 8.296875 
L 54.390625 0 
L 12.40625 0 
z
" id="DejaVuSans-49"/>
      <path d="M 21.296875 -19.875 
L 1.90625 -19.875 
L 1.90625 -12.59375 
L 12.5 -12.59375 
L 12.5 64.3125 
L 1.90625 64.3125 
L 1.90625 71.578125 
L 21.296875 71.578125 
z
" id="ArialMT-93"/>
     </defs>
     <g style="fill:#262626;" transform="translate(21.6 290.315377)rotate(-90)scale(0.16 -0.16)">
      <use transform="translate(0 0.684375)" xlink:href="#ArialMT-67"/>
      <use transform="translate(72.216797 0.684375)" xlink:href="#ArialMT-111"/>
      <use transform="translate(127.832031 0.684375)" xlink:href="#ArialMT-117"/>
      <use transform="translate(183.447266 0.684375)" xlink:href="#ArialMT-110"/>
      <use transform="translate(239.0625 0.684375)" xlink:href="#ArialMT-116"/>
      <use transform="translate(266.845703 0.684375)" xlink:href="#ArialMT-32"/>
      <use transform="translate(294.628906 0.684375)" xlink:href="#ArialMT-91"/>
      <use transform="translate(322.412109 0.684375)" xlink:href="#DejaVuSans-Oblique-104"/>
      <use transform="translate(393.238724 38.965625)scale(0.7)" xlink:href="#DejaVuSans-8722"/>
      <use transform="translate(451.891068 38.965625)scale(0.7)" xlink:href="#DejaVuSans-49"/>
      <use transform="translate(499.161576 0.684375)" xlink:href="#ArialMT-93"/>
     </g>
    </g>
   </g>
   <g id="PolyCollection_1">
    <defs>
     <path d="M 121.226948 -69.370034 
L 85.65341 -69.370034 
L 83.724585 -70.302771 
L 82.512523 -71.235508 
L 82.073393 -72.168245 
L 82.341732 -73.100981 
L 83.155685 -74.033718 
L 84.302198 -74.966455 
L 85.566233 -75.899192 
L 86.769989 -76.831928 
L 87.794653 -77.764665 
L 88.584449 -78.697402 
L 89.137611 -79.630138 
L 89.49038 -80.562875 
L 89.699278 -81.495612 
L 89.825136 -82.428349 
L 89.920854 -83.361085 
L 90.023857 -84.293822 
L 90.153456 -85.226559 
L 90.312575 -86.159296 
L 90.492583 -87.092032 
L 90.679489 -88.024769 
L 90.859749 -88.957506 
L 91.024359 -89.890243 
L 91.17062 -90.822979 
L 91.301665 -91.755716 
L 91.424389 -92.688453 
L 91.546643 -93.62119 
L 91.674589 -94.553926 
L 91.81093 -95.486663 
L 91.954397 -96.4194 
L 92.100513 -97.352137 
L 92.243246 -98.284873 
L 92.376948 -99.21761 
L 92.497868 -100.150347 
L 92.604753 -101.083084 
L 92.6984 -102.01582 
L 92.780519 -102.948557 
L 92.852534 -103.881294 
L 92.914979 -104.814031 
L 92.967812 -105.746767 
L 93.011461 -106.679504 
L 93.048022 -107.612241 
L 93.081924 -108.544978 
L 93.119635 -109.477714 
L 93.168423 -110.410451 
L 93.234631 -111.343188 
L 93.322115 -112.275925 
L 93.43148 -113.208661 
L 93.560462 -114.141398 
L 93.705415 -115.074135 
L 93.863465 -116.006872 
L 94.034566 -116.939608 
L 94.222631 -117.872345 
L 94.435168 -118.805082 
L 94.681383 -119.737819 
L 94.969328 -120.670555 
L 95.303067 -121.603292 
L 95.680797 -122.536029 
L 96.09454 -123.468766 
L 96.531436 -124.401502 
L 96.976182 -125.334239 
L 97.413869 -126.266976 
L 97.832448 -127.199713 
L 98.224234 -128.132449 
L 98.586233 -129.065186 
L 98.919443 -129.997923 
L 99.227522 -130.93066 
L 99.515338 -131.863396 
L 99.787714 -132.796133 
L 100.048543 -133.72887 
L 100.300237 -134.661607 
L 100.543478 -135.594343 
L 100.777254 -136.52708 
L 100.999218 -137.459817 
L 101.20636 -138.392554 
L 101.395848 -139.32529 
L 101.565811 -140.258027 
L 101.715793 -141.190764 
L 101.846698 -142.123501 
L 101.960248 -143.056237 
L 102.058172 -143.988974 
L 102.141457 -144.921711 
L 102.210032 -145.854447 
L 102.263039 -146.787184 
L 102.299643 -147.719921 
L 102.320042 -148.652658 
L 102.326258 -149.585394 
L 102.322337 -150.518131 
L 102.313866 -151.450868 
L 102.306974 -152.383605 
L 102.307206 -153.316341 
L 102.3187 -154.249078 
L 102.343908 -155.181815 
L 102.383828 -156.114552 
L 102.438504 -157.047288 
L 102.507418 -157.980025 
L 102.589561 -158.912762 
L 102.683162 -159.845499 
L 102.785325 -160.778235 
L 102.891871 -161.710972 
L 103.988487 -161.710972 
L 103.988487 -161.710972 
L 104.095032 -160.778235 
L 104.197195 -159.845499 
L 104.290797 -158.912762 
L 104.37294 -157.980025 
L 104.441854 -157.047288 
L 104.49653 -156.114552 
L 104.53645 -155.181815 
L 104.561658 -154.249078 
L 104.573152 -153.316341 
L 104.573384 -152.383605 
L 104.566492 -151.450868 
L 104.558021 -150.518131 
L 104.5541 -149.585394 
L 104.560315 -148.652658 
L 104.580715 -147.719921 
L 104.617319 -146.787184 
L 104.670326 -145.854447 
L 104.7389 -144.921711 
L 104.822186 -143.988974 
L 104.92011 -143.056237 
L 105.03366 -142.123501 
L 105.164565 -141.190764 
L 105.314546 -140.258027 
L 105.48451 -139.32529 
L 105.673998 -138.392554 
L 105.88114 -137.459817 
L 106.103104 -136.52708 
L 106.33688 -135.594343 
L 106.580121 -134.661607 
L 106.831815 -133.72887 
L 107.092644 -132.796133 
L 107.36502 -131.863396 
L 107.652836 -130.93066 
L 107.960915 -129.997923 
L 108.294124 -129.065186 
L 108.656124 -128.132449 
L 109.04791 -127.199713 
L 109.466488 -126.266976 
L 109.904176 -125.334239 
L 110.348921 -124.401502 
L 110.785818 -123.468766 
L 111.199561 -122.536029 
L 111.57729 -121.603292 
L 111.911029 -120.670555 
L 112.198975 -119.737819 
L 112.445189 -118.805082 
L 112.657727 -117.872345 
L 112.845792 -116.939608 
L 113.016893 -116.006872 
L 113.174942 -115.074135 
L 113.319896 -114.141398 
L 113.448878 -113.208661 
L 113.558243 -112.275925 
L 113.645727 -111.343188 
L 113.711934 -110.410451 
L 113.760723 -109.477714 
L 113.798434 -108.544978 
L 113.832336 -107.612241 
L 113.868896 -106.679504 
L 113.912546 -105.746767 
L 113.965379 -104.814031 
L 114.027824 -103.881294 
L 114.099839 -102.948557 
L 114.181958 -102.01582 
L 114.275605 -101.083084 
L 114.38249 -100.150347 
L 114.50341 -99.21761 
L 114.637112 -98.284873 
L 114.779845 -97.352137 
L 114.925961 -96.4194 
L 115.069428 -95.486663 
L 115.205768 -94.553926 
L 115.333714 -93.62119 
L 115.455969 -92.688453 
L 115.578693 -91.755716 
L 115.709738 -90.822979 
L 115.855998 -89.890243 
L 116.020609 -88.957506 
L 116.200869 -88.024769 
L 116.387775 -87.092032 
L 116.567783 -86.159296 
L 116.726902 -85.226559 
L 116.856501 -84.293822 
L 116.959504 -83.361085 
L 117.055222 -82.428349 
L 117.18108 -81.495612 
L 117.389978 -80.562875 
L 117.742747 -79.630138 
L 118.295908 -78.697402 
L 119.085705 -77.764665 
L 120.110368 -76.831928 
L 121.314125 -75.899192 
L 122.57816 -74.966455 
L 123.724673 -74.033718 
L 124.538626 -73.100981 
L 124.806965 -72.168245 
L 124.367835 -71.235508 
L 123.155773 -70.302771 
L 121.226948 -69.370034 
z
" id="m4cedd5bd23" style="stroke:#141414;stroke-width:1.5;"/>
    </defs>
    <g clip-path="url(#p43dc97f9c7)">
     <use style="fill:#083c1d;stroke:#141414;stroke-width:1.5;" x="0" xlink:href="#m4cedd5bd23" y="536.575754"/>
    </g>
   </g>
   <g id="PolyCollection_2">
    <defs>
     <path d="M 161.209505 -69.370034 
L 131.137996 -69.370034 
L 129.003737 -70.300151 
L 127.390318 -71.230268 
L 126.383765 -72.160384 
L 125.97011 -73.090501 
L 126.053096 -74.020618 
L 126.489372 -74.950734 
L 127.126917 -75.880851 
L 127.834916 -76.810968 
L 128.519813 -77.741085 
L 129.128492 -78.671201 
L 129.642816 -79.601318 
L 130.069859 -80.531435 
L 130.430731 -81.461551 
L 130.749791 -82.391668 
L 131.045757 -83.321785 
L 131.326356 -84.251901 
L 131.587781 -85.182018 
L 131.818971 -86.112135 
L 132.00901 -87.042252 
L 132.154668 -87.972368 
L 132.265006 -88.902485 
L 132.361097 -89.832602 
L 132.470979 -90.762718 
L 132.621769 -91.692835 
L 132.831897 -92.622952 
L 133.106151 -93.553068 
L 133.434881 -94.483185 
L 133.797132 -95.413302 
L 134.166235 -96.343419 
L 134.515993 -97.273535 
L 134.825872 -98.203652 
L 135.084135 -99.133769 
L 135.288456 -100.063885 
L 135.444036 -100.994002 
L 135.559902 -101.924119 
L 135.644686 -102.854235 
L 135.703531 -103.784352 
L 135.73745 -104.714469 
L 135.745386 -105.644586 
L 135.72795 -106.574702 
L 135.690885 -107.504819 
L 135.646407 -108.434936 
L 135.61165 -109.365052 
L 135.604913 -110.295169 
L 135.641449 -111.225286 
L 135.730638 -112.155402 
L 135.875469 -113.085519 
L 136.074025 -114.015636 
L 136.321797 -114.945753 
L 136.613568 -115.875869 
L 136.944276 -116.805986 
L 137.308981 -117.736103 
L 137.702491 -118.666219 
L 138.119141 -119.596336 
L 138.552834 -120.526453 
L 138.997159 -121.456569 
L 139.445353 -122.386686 
L 139.890036 -123.316803 
L 140.322917 -124.24692 
L 140.734866 -125.177036 
L 141.116675 -126.107153 
L 141.460606 -127.03727 
L 141.76233 -127.967386 
L 142.022515 -128.897503 
L 142.247218 -129.82762 
L 142.446657 -130.757736 
L 142.632605 -131.687853 
L 142.815352 -132.61797 
L 143.001352 -133.548087 
L 143.192363 -134.478203 
L 143.386143 -135.40832 
L 143.57814 -136.338437 
L 143.763298 -137.268553 
L 143.937335 -138.19867 
L 144.097276 -139.128787 
L 144.241394 -140.058903 
L 144.368872 -140.98902 
L 144.479401 -141.919137 
L 144.57284 -142.849254 
L 144.649 -143.77937 
L 144.70762 -144.709487 
L 144.748587 -145.639604 
L 144.772369 -146.56972 
L 144.780482 -147.499837 
L 144.775806 -148.429954 
L 144.762593 -149.36007 
L 144.746186 -150.290187 
L 144.732585 -151.220304 
L 144.727971 -152.150421 
L 144.738217 -153.080537 
L 144.768328 -154.010654 
L 144.821781 -154.940771 
L 144.899879 -155.870887 
L 145.001332 -156.801004 
L 145.122296 -157.731121 
L 145.256895 -158.661237 
L 145.39807 -159.591354 
L 145.538522 -160.521471 
L 145.671526 -161.451588 
L 146.675975 -161.451588 
L 146.675975 -161.451588 
L 146.808979 -160.521471 
L 146.949432 -159.591354 
L 147.090607 -158.661237 
L 147.225205 -157.731121 
L 147.34617 -156.801004 
L 147.447623 -155.870887 
L 147.52572 -154.940771 
L 147.579174 -154.010654 
L 147.609285 -153.080537 
L 147.61953 -152.150421 
L 147.614916 -151.220304 
L 147.601315 -150.290187 
L 147.584908 -149.36007 
L 147.571695 -148.429954 
L 147.56702 -147.499837 
L 147.575133 -146.56972 
L 147.598914 -145.639604 
L 147.639882 -144.709487 
L 147.698502 -143.77937 
L 147.774662 -142.849254 
L 147.868101 -141.919137 
L 147.978629 -140.98902 
L 148.106107 -140.058903 
L 148.250226 -139.128787 
L 148.410166 -138.19867 
L 148.584204 -137.268553 
L 148.769362 -136.338437 
L 148.961359 -135.40832 
L 149.155139 -134.478203 
L 149.346149 -133.548087 
L 149.53215 -132.61797 
L 149.714897 -131.687853 
L 149.900845 -130.757736 
L 150.100283 -129.82762 
L 150.324986 -128.897503 
L 150.585171 -127.967386 
L 150.886895 -127.03727 
L 151.230826 -126.107153 
L 151.612636 -125.177036 
L 152.024584 -124.24692 
L 152.457466 -123.316803 
L 152.902148 -122.386686 
L 153.350342 -121.456569 
L 153.794668 -120.526453 
L 154.228361 -119.596336 
L 154.645011 -118.666219 
L 155.038521 -117.736103 
L 155.403225 -116.805986 
L 155.733934 -115.875869 
L 156.025705 -114.945753 
L 156.273476 -114.015636 
L 156.472033 -113.085519 
L 156.616863 -112.155402 
L 156.706052 -111.225286 
L 156.742589 -110.295169 
L 156.735851 -109.365052 
L 156.701095 -108.434936 
L 156.656616 -107.504819 
L 156.619551 -106.574702 
L 156.602116 -105.644586 
L 156.610052 -104.714469 
L 156.64397 -103.784352 
L 156.702816 -102.854235 
L 156.787599 -101.924119 
L 156.903465 -100.994002 
L 157.059046 -100.063885 
L 157.263367 -99.133769 
L 157.52163 -98.203652 
L 157.831508 -97.273535 
L 158.181267 -96.343419 
L 158.550369 -95.413302 
L 158.91262 -94.483185 
L 159.24135 -93.553068 
L 159.515604 -92.622952 
L 159.725733 -91.692835 
L 159.876522 -90.762718 
L 159.986405 -89.832602 
L 160.082496 -88.902485 
L 160.192833 -87.972368 
L 160.338492 -87.042252 
L 160.52853 -86.112135 
L 160.75972 -85.182018 
L 161.021146 -84.251901 
L 161.301744 -83.321785 
L 161.597711 -82.391668 
L 161.916771 -81.461551 
L 162.277643 -80.531435 
L 162.704685 -79.601318 
L 163.21901 -78.671201 
L 163.827688 -77.741085 
L 164.512586 -76.810968 
L 165.220585 -75.880851 
L 165.858129 -74.950734 
L 166.294405 -74.020618 
L 166.377392 -73.090501 
L 165.963737 -72.160384 
L 164.957184 -71.230268 
L 163.343764 -70.300151 
L 161.209505 -69.370034 
z
" id="m1653d22897" style="stroke:#141414;stroke-width:1.5;"/>
    </defs>
    <g clip-path="url(#p43dc97f9c7)">
     <use style="fill:#0e5f2f;stroke:#141414;stroke-width:1.5;" x="0" xlink:href="#m1653d22897" y="536.575754"/>
    </g>
   </g>
   <g id="PolyCollection_3">
    <defs>
     <path d="M 229.653723 -70.926342 
L 190.894494 -70.926342 
L 189.62733 -75.26514 
L 188.955915 -79.603938 
L 188.907323 -83.942736 
L 189.444115 -88.281534 
L 190.473424 -92.620332 
L 191.864591 -96.95913 
L 193.470977 -101.297928 
L 195.151131 -105.636725 
L 196.785398 -109.975523 
L 198.285781 -114.314321 
L 199.598757 -118.653119 
L 200.702271 -122.991917 
L 201.598941 -127.330715 
L 202.307621 -131.669513 
L 202.855102 -136.008311 
L 203.269147 -140.347109 
L 203.573493 -144.685907 
L 203.785035 -149.024704 
L 203.913089 -153.363502 
L 203.960445 -157.7023 
L 203.925753 -162.041098 
L 203.806657 -166.379896 
L 203.603016 -170.718694 
L 203.319548 -175.057492 
L 202.967355 -179.39629 
L 202.564004 -183.735088 
L 202.132134 -188.073886 
L 201.696867 -192.412683 
L 201.282548 -196.751481 
L 200.909481 -201.090279 
L 200.591321 -205.429077 
L 200.333616 -209.767875 
L 200.133757 -214.106673 
L 199.982277 -218.445471 
L 199.865215 -222.784269 
L 199.767041 -227.123067 
L 199.673624 -231.461865 
L 199.574742 -235.800662 
L 199.465781 -240.13946 
L 199.348404 -244.478258 
L 199.230179 -248.817056 
L 199.123245 -253.155854 
L 199.042286 -257.494652 
L 199.002109 -261.83345 
L 199.015233 -266.172248 
L 199.089846 -270.511046 
L 199.228475 -274.849843 
L 199.427551 -279.188641 
L 199.677927 -283.527439 
L 199.966219 -287.866237 
L 200.276711 -292.205035 
L 200.593477 -296.543833 
L 200.902378 -300.882631 
L 201.192635 -305.221429 
L 201.457772 -309.560227 
L 201.695869 -313.899025 
L 201.909169 -318.237822 
L 202.103166 -322.57662 
L 202.285409 -326.915418 
L 202.464223 -331.254216 
L 202.64756 -335.593014 
L 202.842113 -339.931812 
L 203.052765 -344.27061 
L 203.282349 -348.609408 
L 203.531685 -352.948206 
L 203.799801 -357.287004 
L 204.084282 -361.625801 
L 204.381707 -365.964599 
L 204.688108 -370.303397 
L 204.999421 -374.642195 
L 205.311871 -378.980993 
L 205.622227 -383.319791 
L 205.927896 -387.658589 
L 206.22686 -391.997387 
L 206.517498 -396.336185 
L 206.798372 -400.674983 
L 207.068053 -405.01378 
L 207.325032 -409.352578 
L 207.56776 -413.691376 
L 207.794756 -418.030174 
L 208.004781 -422.368972 
L 208.197014 -426.70777 
L 208.371203 -431.046568 
L 208.527773 -435.385366 
L 208.667867 -439.724164 
L 208.793306 -444.062962 
L 208.906458 -448.401759 
L 209.010014 -452.740557 
L 209.106708 -457.079355 
L 209.19902 -461.418153 
L 209.288916 -465.756951 
L 209.377695 -470.095749 
L 209.465926 -474.434547 
L 209.553515 -478.773345 
L 209.63983 -483.112143 
L 209.723867 -487.450941 
L 209.804426 -491.789738 
L 209.880255 -496.128536 
L 209.95019 -500.467334 
L 210.598027 -500.467334 
L 210.598027 -500.467334 
L 210.667962 -496.128536 
L 210.743792 -491.789738 
L 210.82435 -487.450941 
L 210.908387 -483.112143 
L 210.994702 -478.773345 
L 211.082291 -474.434547 
L 211.170522 -470.095749 
L 211.259301 -465.756951 
L 211.349197 -461.418153 
L 211.441509 -457.079355 
L 211.538203 -452.740557 
L 211.641759 -448.401759 
L 211.754911 -444.062962 
L 211.88035 -439.724164 
L 212.020444 -435.385366 
L 212.177014 -431.046568 
L 212.351203 -426.70777 
L 212.543436 -422.368972 
L 212.753461 -418.030174 
L 212.980457 -413.691376 
L 213.223185 -409.352578 
L 213.480164 -405.01378 
L 213.749845 -400.674983 
L 214.030719 -396.336185 
L 214.321357 -391.997387 
L 214.620321 -387.658589 
L 214.92599 -383.319791 
L 215.236346 -378.980993 
L 215.548796 -374.642195 
L 215.860109 -370.303397 
L 216.16651 -365.964599 
L 216.463935 -361.625801 
L 216.748416 -357.287004 
L 217.016532 -352.948206 
L 217.265868 -348.609408 
L 217.495453 -344.27061 
L 217.706104 -339.931812 
L 217.900657 -335.593014 
L 218.083994 -331.254216 
L 218.262808 -326.915418 
L 218.445051 -322.57662 
L 218.639048 -318.237822 
L 218.852348 -313.899025 
L 219.090445 -309.560227 
L 219.355582 -305.221429 
L 219.645839 -300.882631 
L 219.95474 -296.543833 
L 220.271506 -292.205035 
L 220.581998 -287.866237 
L 220.87029 -283.527439 
L 221.120666 -279.188641 
L 221.319742 -274.849843 
L 221.458371 -270.511046 
L 221.532984 -266.172248 
L 221.546108 -261.83345 
L 221.505931 -257.494652 
L 221.424972 -253.155854 
L 221.318038 -248.817056 
L 221.199813 -244.478258 
L 221.082436 -240.13946 
L 220.973475 -235.800662 
L 220.874593 -231.461865 
L 220.781176 -227.123067 
L 220.683002 -222.784269 
L 220.56594 -218.445471 
L 220.41446 -214.106673 
L 220.214601 -209.767875 
L 219.956896 -205.429077 
L 219.638736 -201.090279 
L 219.265669 -196.751481 
L 218.85135 -192.412683 
L 218.416083 -188.073886 
L 217.984213 -183.735088 
L 217.580863 -179.39629 
L 217.228669 -175.057492 
L 216.945201 -170.718694 
L 216.74156 -166.379896 
L 216.622464 -162.041098 
L 216.587772 -157.7023 
L 216.635128 -153.363502 
L 216.763182 -149.024704 
L 216.974724 -144.685907 
L 217.27907 -140.347109 
L 217.693115 -136.008311 
L 218.240596 -131.669513 
L 218.949276 -127.330715 
L 219.845946 -122.991917 
L 220.94946 -118.653119 
L 222.262436 -114.314321 
L 223.762819 -109.975523 
L 225.397086 -105.636725 
L 227.07724 -101.297928 
L 228.683626 -96.95913 
L 230.074793 -92.620332 
L 231.104102 -88.281534 
L 231.640894 -83.942736 
L 231.592302 -79.603938 
L 230.920887 -75.26514 
L 229.653723 -70.926342 
z
" id="mb13bfd7bf5" style="stroke:#141414;stroke-width:1.5;"/>
    </defs>
    <g clip-path="url(#p43dc97f9c7)">
     <use style="fill:#083c1d;stroke:#141414;stroke-width:1.5;" x="0" xlink:href="#mb13bfd7bf5" y="536.575754"/>
    </g>
   </g>
   <g id="PolyCollection_4">
    <defs>
     <path d="M 266.627285 -71.185727 
L 239.388076 -71.185727 
L 238.758276 -75.592646 
L 238.357633 -79.999565 
L 238.19581 -84.406484 
L 238.267784 -88.813403 
L 238.554732 -93.220322 
L 239.026285 -97.627242 
L 239.64382 -102.034161 
L 240.364329 -106.44108 
L 241.144362 -110.847999 
L 241.943565 -115.254918 
L 242.727449 -119.661837 
L 243.469147 -124.068756 
L 244.150118 -128.475675 
L 244.759855 -132.882595 
L 245.294824 -137.289514 
L 245.756882 -141.696433 
L 246.151468 -146.103352 
L 246.485825 -150.510271 
L 246.767469 -154.91719 
L 247.00302 -159.324109 
L 247.197469 -163.731028 
L 247.353867 -168.137948 
L 247.473371 -172.544867 
L 247.55557 -176.951786 
L 247.598986 -181.358705 
L 247.60165 -185.765624 
L 247.561682 -190.172543 
L 247.477803 -194.579462 
L 247.349755 -198.986381 
L 247.178585 -203.393301 
L 246.966812 -207.80022 
L 246.718451 -212.207139 
L 246.438924 -216.614058 
L 246.134864 -221.020977 
L 245.813826 -225.427896 
L 245.483934 -229.834815 
L 245.153481 -234.241734 
L 244.830526 -238.648654 
L 244.522498 -243.055573 
L 244.235854 -247.462492 
L 243.975793 -251.869411 
L 243.746062 -256.27633 
L 243.548848 -260.683249 
L 243.384755 -265.090168 
L 243.252871 -269.497087 
L 243.150896 -273.904007 
L 243.075344 -278.310926 
L 243.021782 -282.717845 
L 242.985127 -287.124764 
L 242.959975 -291.531683 
L 242.940965 -295.938602 
L 242.923167 -300.345521 
L 242.902487 -304.75244 
L 242.876044 -309.159359 
L 242.84251 -313.566279 
L 242.802359 -317.973198 
L 242.757993 -322.380117 
L 242.7137 -326.787036 
L 242.675443 -331.193955 
L 242.65046 -335.600874 
L 242.646707 -340.007793 
L 242.672196 -344.414712 
L 242.734287 -348.821632 
L 242.839011 -353.228551 
L 242.990511 -357.63547 
L 243.190654 -362.042389 
L 243.438863 -366.449308 
L 243.732177 -370.856227 
L 244.065532 -375.263146 
L 244.432209 -379.670065 
L 244.824393 -384.076985 
L 245.233775 -388.483904 
L 245.65212 -392.890823 
L 246.071762 -397.297742 
L 246.485968 -401.704661 
L 246.889176 -406.11158 
L 247.277094 -410.518499 
L 247.646687 -414.925418 
L 247.996079 -419.332338 
L 248.324405 -423.739257 
L 248.631633 -428.146176 
L 248.918391 -432.553095 
L 249.185815 -436.960014 
L 249.43541 -441.366933 
L 249.66894 -445.773852 
L 249.888337 -450.180771 
L 250.095615 -454.587691 
L 250.292785 -458.99461 
L 250.481771 -463.401529 
L 250.664314 -467.808448 
L 250.841879 -472.215367 
L 251.015566 -476.622286 
L 251.186042 -481.029205 
L 251.353495 -485.436124 
L 251.517629 -489.843044 
L 251.677707 -494.249963 
L 251.832625 -498.656882 
L 251.981032 -503.063801 
L 252.121468 -507.47072 
L 253.893893 -507.47072 
L 253.893893 -507.47072 
L 254.034328 -503.063801 
L 254.182735 -498.656882 
L 254.337654 -494.249963 
L 254.497732 -489.843044 
L 254.661866 -485.436124 
L 254.829319 -481.029205 
L 254.999794 -476.622286 
L 255.173482 -472.215367 
L 255.351046 -467.808448 
L 255.533589 -463.401529 
L 255.722575 -458.99461 
L 255.919746 -454.587691 
L 256.127024 -450.180771 
L 256.346421 -445.773852 
L 256.579951 -441.366933 
L 256.829545 -436.960014 
L 257.096969 -432.553095 
L 257.383728 -428.146176 
L 257.690956 -423.739257 
L 258.019281 -419.332338 
L 258.368674 -414.925418 
L 258.738267 -410.518499 
L 259.126185 -406.11158 
L 259.529393 -401.704661 
L 259.943599 -397.297742 
L 260.363241 -392.890823 
L 260.781586 -388.483904 
L 261.190968 -384.076985 
L 261.583152 -379.670065 
L 261.949829 -375.263146 
L 262.283184 -370.856227 
L 262.576498 -366.449308 
L 262.824707 -362.042389 
L 263.02485 -357.63547 
L 263.17635 -353.228551 
L 263.281074 -348.821632 
L 263.343164 -344.414712 
L 263.368654 -340.007793 
L 263.364901 -335.600874 
L 263.339917 -331.193955 
L 263.301661 -326.787036 
L 263.257368 -322.380117 
L 263.213001 -317.973198 
L 263.172851 -313.566279 
L 263.139317 -309.159359 
L 263.112874 -304.75244 
L 263.092193 -300.345521 
L 263.074396 -295.938602 
L 263.055385 -291.531683 
L 263.030233 -287.124764 
L 262.993579 -282.717845 
L 262.940017 -278.310926 
L 262.864465 -273.904007 
L 262.76249 -269.497087 
L 262.630606 -265.090168 
L 262.466513 -260.683249 
L 262.269299 -256.27633 
L 262.039568 -251.869411 
L 261.779507 -247.462492 
L 261.492863 -243.055573 
L 261.184835 -238.648654 
L 260.86188 -234.241734 
L 260.531427 -229.834815 
L 260.201534 -225.427896 
L 259.880497 -221.020977 
L 259.576437 -216.614058 
L 259.29691 -212.207139 
L 259.048549 -207.80022 
L 258.836776 -203.393301 
L 258.665606 -198.986381 
L 258.537558 -194.579462 
L 258.453679 -190.172543 
L 258.413711 -185.765624 
L 258.416375 -181.358705 
L 258.459791 -176.951786 
L 258.54199 -172.544867 
L 258.661494 -168.137948 
L 258.817892 -163.731028 
L 259.012341 -159.324109 
L 259.247892 -154.91719 
L 259.529536 -150.510271 
L 259.863893 -146.103352 
L 260.258478 -141.696433 
L 260.720537 -137.289514 
L 261.255506 -132.882595 
L 261.865243 -128.475675 
L 262.546214 -124.068756 
L 263.287912 -119.661837 
L 264.071796 -115.254918 
L 264.870999 -110.847999 
L 265.651032 -106.44108 
L 266.371541 -102.034161 
L 266.989076 -97.627242 
L 267.460629 -93.220322 
L 267.747577 -88.813403 
L 267.819551 -84.406484 
L 267.657728 -79.999565 
L 267.257084 -75.592646 
L 266.627285 -71.185727 
z
" id="mcc6dbe3816" style="stroke:#141414;stroke-width:1.5;"/>
    </defs>
    <g clip-path="url(#p43dc97f9c7)">
     <use style="fill:#0e5f2f;stroke:#141414;stroke-width:1.5;" x="0" xlink:href="#mcc6dbe3816" y="536.575754"/>
    </g>
   </g>
   <g id="PolyCollection_5">
    <defs>
     <path d="M 335.519207 -69.370034 
L 298.696869 -69.370034 
L 296.711602 -70.714118 
L 295.741252 -72.058203 
L 295.816202 -73.402287 
L 296.765898 -74.746371 
L 298.288081 -76.090455 
L 300.049428 -77.434539 
L 301.774889 -78.778623 
L 303.295333 -80.122707 
L 304.547105 -81.466791 
L 305.53822 -82.810876 
L 306.30477 -84.15496 
L 306.877249 -85.499044 
L 307.265801 -86.843128 
L 307.462868 -88.187212 
L 307.455678 -89.531296 
L 307.240158 -90.87538 
L 306.830436 -92.219465 
L 306.261709 -93.563549 
L 305.587035 -94.907633 
L 304.869962 -96.251717 
L 304.175125 -97.595801 
L 303.558809 -98.939885 
L 303.061417 -100.283969 
L 302.703629 -101.628053 
L 302.487463 -102.972138 
L 302.402006 -104.316222 
L 302.431815 -105.660306 
L 302.564773 -107.00439 
L 302.796306 -108.348474 
L 303.128595 -109.692558 
L 303.565708 -111.036642 
L 304.107322 -112.380727 
L 304.743995 -113.724811 
L 305.455853 -115.068895 
L 306.21485 -116.412979 
L 306.989407 -117.757063 
L 307.749644 -119.101147 
L 308.47164 -120.445231 
L 309.139773 -121.789315 
L 309.747011 -123.1334 
L 310.293625 -124.477484 
L 310.785122 -125.821568 
L 311.230117 -127.165652 
L 311.638469 -128.509736 
L 312.019689 -129.85382 
L 312.381514 -131.197904 
L 312.72876 -132.541988 
L 313.062756 -133.886073 
L 313.381628 -135.230157 
L 313.681324 -136.574241 
L 313.956962 -137.918325 
L 314.204009 -139.262409 
L 314.419081 -140.606493 
L 314.600454 -141.950577 
L 314.748438 -143.294662 
L 314.865562 -144.638746 
L 314.956361 -145.98283 
L 315.026622 -147.326914 
L 315.082264 -148.670998 
L 315.128292 -150.015082 
L 315.16828 -151.359166 
L 315.204518 -152.70325 
L 315.23862 -154.047335 
L 315.272193 -155.391419 
L 315.307147 -156.735503 
L 315.345492 -158.079587 
L 315.388675 -159.423671 
L 315.436813 -160.767755 
L 315.488263 -162.111839 
L 315.539946 -163.455924 
L 315.588484 -164.800008 
L 315.63174 -166.144092 
L 315.669997 -167.488176 
L 315.706043 -168.83226 
L 315.74391 -170.176344 
L 315.786804 -171.520428 
L 315.835237 -172.864512 
L 315.886417 -174.208597 
L 315.935287 -175.552681 
L 315.97678 -176.896765 
L 316.008233 -178.240849 
L 316.030762 -179.584933 
L 316.048942 -180.929017 
L 316.068927 -182.273101 
L 316.095894 -183.617185 
L 316.131977 -184.96127 
L 316.175578 -186.305354 
L 316.222242 -187.649438 
L 316.266557 -188.993522 
L 316.304162 -190.337606 
L 316.333121 -191.68169 
L 316.354362 -193.025774 
L 316.371362 -194.369859 
L 316.389356 -195.713943 
L 316.414281 -197.058027 
L 316.451486 -198.402111 
L 316.504343 -199.746195 
L 316.573098 -201.090279 
L 316.65444 -202.434363 
L 317.561637 -202.434363 
L 317.561637 -202.434363 
L 317.642979 -201.090279 
L 317.711733 -199.746195 
L 317.76459 -198.402111 
L 317.801795 -197.058027 
L 317.82672 -195.713943 
L 317.844715 -194.369859 
L 317.861714 -193.025774 
L 317.882955 -191.68169 
L 317.911914 -190.337606 
L 317.94952 -188.993522 
L 317.993834 -187.649438 
L 318.040498 -186.305354 
L 318.084099 -184.96127 
L 318.120182 -183.617185 
L 318.14715 -182.273101 
L 318.167135 -180.929017 
L 318.185314 -179.584933 
L 318.207843 -178.240849 
L 318.239296 -176.896765 
L 318.28079 -175.552681 
L 318.329659 -174.208597 
L 318.38084 -172.864512 
L 318.429273 -171.520428 
L 318.472166 -170.176344 
L 318.510034 -168.83226 
L 318.546079 -167.488176 
L 318.584337 -166.144092 
L 318.627592 -164.800008 
L 318.67613 -163.455924 
L 318.727814 -162.111839 
L 318.779263 -160.767755 
L 318.827401 -159.423671 
L 318.870585 -158.079587 
L 318.908929 -156.735503 
L 318.943883 -155.391419 
L 318.977456 -154.047335 
L 319.011558 -152.70325 
L 319.047796 -151.359166 
L 319.087784 -150.015082 
L 319.133812 -148.670998 
L 319.189454 -147.326914 
L 319.259716 -145.98283 
L 319.350515 -144.638746 
L 319.467638 -143.294662 
L 319.615622 -141.950577 
L 319.796995 -140.606493 
L 320.012067 -139.262409 
L 320.259115 -137.918325 
L 320.534753 -136.574241 
L 320.834448 -135.230157 
L 321.15332 -133.886073 
L 321.487316 -132.541988 
L 321.834562 -131.197904 
L 322.196388 -129.85382 
L 322.577607 -128.509736 
L 322.985959 -127.165652 
L 323.430954 -125.821568 
L 323.922452 -124.477484 
L 324.469065 -123.1334 
L 325.076303 -121.789315 
L 325.744436 -120.445231 
L 326.466432 -119.101147 
L 327.22667 -117.757063 
L 328.001226 -116.412979 
L 328.760223 -115.068895 
L 329.472081 -113.724811 
L 330.108755 -112.380727 
L 330.650368 -111.036642 
L 331.087481 -109.692558 
L 331.419771 -108.348474 
L 331.651303 -107.00439 
L 331.784261 -105.660306 
L 331.814071 -104.316222 
L 331.728613 -102.972138 
L 331.512447 -101.628053 
L 331.15466 -100.283969 
L 330.657267 -98.939885 
L 330.040952 -97.595801 
L 329.346114 -96.251717 
L 328.629041 -94.907633 
L 327.954367 -93.563549 
L 327.38564 -92.219465 
L 326.975918 -90.87538 
L 326.760398 -89.531296 
L 326.753208 -88.187212 
L 326.950275 -86.843128 
L 327.338827 -85.499044 
L 327.911307 -84.15496 
L 328.677856 -82.810876 
L 329.668971 -81.466791 
L 330.920743 -80.122707 
L 332.441187 -78.778623 
L 334.166648 -77.434539 
L 335.927995 -76.090455 
L 337.450178 -74.746371 
L 338.399875 -73.402287 
L 338.474824 -72.058203 
L 337.504474 -70.714118 
L 335.519207 -69.370034 
z
" id="m068d9cf05c" style="stroke:#141414;stroke-width:1.5;"/>
    </defs>
    <g clip-path="url(#p43dc97f9c7)">
     <use style="fill:#083c1d;stroke:#141414;stroke-width:1.5;" x="0" xlink:href="#m068d9cf05c" y="536.575754"/>
    </g>
   </g>
   <g id="PolyCollection_6">
    <defs>
     <path d="M 376.082091 -69.370034 
L 343.601129 -69.370034 
L 341.325541 -70.716738 
L 340.018296 -72.063443 
L 339.783701 -73.410147 
L 340.490048 -74.756851 
L 341.832349 -76.103555 
L 343.447182 -77.450259 
L 345.025807 -78.796964 
L 346.381589 -80.143668 
L 347.457298 -81.490372 
L 348.28698 -82.837076 
L 348.941236 -84.18378 
L 349.48186 -85.530484 
L 349.93896 -86.877189 
L 350.31029 -88.223893 
L 350.574302 -89.570597 
L 350.70662 -90.917301 
L 350.692373 -92.264005 
L 350.531191 -93.61071 
L 350.235559 -94.957414 
L 349.825418 -96.304118 
L 349.322467 -97.650822 
L 348.746812 -98.997526 
L 348.117007 -100.34423 
L 347.452706 -101.690935 
L 346.77787 -103.037639 
L 346.122371 -104.384343 
L 345.520908 -105.731047 
L 345.009711 -107.077751 
L 344.622578 -108.424455 
L 344.387732 -109.77116 
L 344.326136 -111.117864 
L 344.450893 -112.464568 
L 344.766865 -113.811272 
L 345.26979 -115.157976 
L 345.944872 -116.504681 
L 346.7656 -117.851385 
L 347.694047 -119.198089 
L 348.683728 -120.544793 
L 349.685104 -121.891497 
L 350.652489 -123.238201 
L 351.550283 -124.584906 
L 352.3565 -125.93161 
L 353.062781 -127.278314 
L 353.671458 -128.625018 
L 354.191359 -129.971722 
L 354.634065 -131.318427 
L 355.011701 -132.665131 
L 355.336268 -134.011835 
L 355.619768 -135.358539 
L 355.874204 -136.705243 
L 356.110918 -138.051947 
L 356.339336 -139.398652 
L 356.565604 -140.745356 
L 356.791697 -142.09206 
L 357.015371 -143.438764 
L 357.231065 -144.785468 
L 357.431559 -146.132172 
L 357.609955 -147.478877 
L 357.761427 -148.825581 
L 357.884158 -150.172285 
L 357.979253 -151.518989 
L 358.049785 -152.865693 
L 358.099554 -154.212398 
L 358.132139 -155.559102 
L 358.150599 -156.905806 
L 358.157755 -158.25251 
L 358.156727 -159.599214 
L 358.15132 -160.945918 
L 358.145995 -162.292623 
L 358.145333 -163.639327 
L 358.153147 -164.986031 
L 358.171605 -166.332735 
L 358.200797 -167.679439 
L 358.239018 -169.026144 
L 358.283696 -170.372848 
L 358.332494 -171.719552 
L 358.384061 -173.066256 
L 358.43809 -174.41296 
L 358.494808 -175.759664 
L 358.554258 -177.106369 
L 358.615773 -178.453073 
L 358.677843 -179.799777 
L 358.738329 -181.146481 
L 358.794893 -182.493185 
L 358.845473 -183.839889 
L 358.888711 -185.186594 
L 358.92422 -186.533298 
L 358.952608 -187.880002 
L 358.975233 -189.226706 
L 358.993781 -190.57341 
L 359.009921 -191.920115 
L 359.025295 -193.266819 
L 359.041919 -194.613523 
L 359.062757 -195.960227 
L 359.091927 -197.306931 
L 359.134057 -198.653635 
L 359.192759 -200.00034 
L 359.268798 -201.347044 
L 359.358933 -202.693748 
L 360.324287 -202.693748 
L 360.324287 -202.693748 
L 360.414422 -201.347044 
L 360.490461 -200.00034 
L 360.549163 -198.653635 
L 360.591294 -197.306931 
L 360.620463 -195.960227 
L 360.641301 -194.613523 
L 360.657925 -193.266819 
L 360.673299 -191.920115 
L 360.689439 -190.57341 
L 360.707987 -189.226706 
L 360.730612 -187.880002 
L 360.759 -186.533298 
L 360.794509 -185.186594 
L 360.837747 -183.839889 
L 360.888327 -182.493185 
L 360.944891 -181.146481 
L 361.005377 -179.799777 
L 361.067447 -178.453073 
L 361.128962 -177.106369 
L 361.188412 -175.759664 
L 361.24513 -174.41296 
L 361.299159 -173.066256 
L 361.350726 -171.719552 
L 361.399525 -170.372848 
L 361.444202 -169.026144 
L 361.482423 -167.679439 
L 361.511615 -166.332735 
L 361.530073 -164.986031 
L 361.537887 -163.639327 
L 361.537225 -162.292623 
L 361.5319 -160.945918 
L 361.526493 -159.599214 
L 361.525465 -158.25251 
L 361.532621 -156.905806 
L 361.551081 -155.559102 
L 361.583666 -154.212398 
L 361.633435 -152.865693 
L 361.703967 -151.518989 
L 361.799062 -150.172285 
L 361.921793 -148.825581 
L 362.073265 -147.478877 
L 362.251662 -146.132172 
L 362.452155 -144.785468 
L 362.667849 -143.438764 
L 362.891523 -142.09206 
L 363.117616 -140.745356 
L 363.343884 -139.398652 
L 363.572302 -138.051947 
L 363.809016 -136.705243 
L 364.063452 -135.358539 
L 364.346952 -134.011835 
L 364.671519 -132.665131 
L 365.049155 -131.318427 
L 365.491861 -129.971722 
L 366.011762 -128.625018 
L 366.62044 -127.278314 
L 367.32672 -125.93161 
L 368.132938 -124.584906 
L 369.030731 -123.238201 
L 369.998116 -121.891497 
L 370.999492 -120.544793 
L 371.989173 -119.198089 
L 372.91762 -117.851385 
L 373.738348 -116.504681 
L 374.413431 -115.157976 
L 374.916355 -113.811272 
L 375.232327 -112.464568 
L 375.357084 -111.117864 
L 375.295488 -109.77116 
L 375.060642 -108.424455 
L 374.673509 -107.077751 
L 374.162312 -105.731047 
L 373.560849 -104.384343 
L 372.90535 -103.037639 
L 372.230514 -101.690935 
L 371.566213 -100.34423 
L 370.936408 -98.997526 
L 370.360753 -97.650822 
L 369.857802 -96.304118 
L 369.447661 -94.957414 
L 369.152029 -93.61071 
L 368.990847 -92.264005 
L 368.9766 -90.917301 
L 369.108919 -89.570597 
L 369.37293 -88.223893 
L 369.74426 -86.877189 
L 370.20136 -85.530484 
L 370.741984 -84.18378 
L 371.39624 -82.837076 
L 372.225922 -81.490372 
L 373.301631 -80.143668 
L 374.657413 -78.796964 
L 376.236038 -77.450259 
L 377.850871 -76.103555 
L 379.193172 -74.756851 
L 379.899519 -73.410147 
L 379.664924 -72.063443 
L 378.357679 -70.716738 
L 376.082091 -69.370034 
z
" id="m18d88e8fbe" style="stroke:#141414;stroke-width:1.5;"/>
    </defs>
    <g clip-path="url(#p43dc97f9c7)">
     <use style="fill:#0e5f2f;stroke:#141414;stroke-width:1.5;" x="0" xlink:href="#m18d88e8fbe" y="536.575754"/>
    </g>
   </g>
   <g id="PolyCollection_7">
    <defs>
     <path d="M 442.805921 -69.370034 
L 405.078015 -69.370034 
L 403.102243 -70.989223 
L 402.575182 -72.608412 
L 403.445323 -74.227601 
L 405.347653 -75.846791 
L 407.764923 -77.46598 
L 410.207375 -79.085169 
L 412.33215 -80.704358 
L 413.976355 -82.323547 
L 415.124893 -83.942736 
L 415.851266 -85.561925 
L 416.2617 -87.181114 
L 416.457145 -88.800303 
L 416.515356 -90.419492 
L 416.488651 -92.038681 
L 416.410322 -93.65787 
L 416.302642 -95.277059 
L 416.181348 -96.896248 
L 416.054908 -98.515438 
L 415.920461 -100.134627 
L 415.760461 -101.753816 
L 415.543743 -103.373005 
L 415.232351 -104.992194 
L 414.792685 -106.611383 
L 414.207755 -108.230572 
L 413.48716 -109.849761 
L 412.672272 -111.46895 
L 411.834986 -113.088139 
L 411.069068 -114.707328 
L 410.474085 -116.326517 
L 410.134185 -117.945706 
L 410.097407 -119.564895 
L 410.363656 -121.184085 
L 410.887676 -122.803274 
L 411.596853 -124.422463 
L 412.415965 -126.041652 
L 413.287616 -127.660841 
L 414.180495 -129.28003 
L 415.085093 -130.899219 
L 416.002534 -132.518408 
L 416.933365 -134.137597 
L 417.870497 -135.756786 
L 418.797069 -137.375975 
L 419.688298 -138.995164 
L 420.515991 -140.614353 
L 421.25426 -142.233542 
L 421.884678 -143.852732 
L 422.399222 -145.471921 
L 422.800365 -147.09111 
L 423.098917 -148.710299 
L 423.310892 -150.329488 
L 423.454418 -151.948677 
L 423.547146 -153.567866 
L 423.604228 -155.187055 
L 423.63692 -156.806244 
L 423.65188 -158.425433 
L 423.651241 -160.044622 
L 423.63346 -161.663811 
L 423.59489 -163.283 
L 423.531868 -164.902189 
L 423.442834 -166.521379 
L 423.329889 -168.140568 
L 423.199332 -169.759757 
L 423.061128 -171.378946 
L 422.927629 -172.998135 
L 422.811825 -174.617324 
L 422.725356 -176.236513 
L 422.67652 -177.855702 
L 422.668792 -179.474891 
L 422.700359 -181.09408 
L 422.764839 -182.713269 
L 422.852823 -184.332458 
L 422.953661 -185.951647 
L 423.057045 -187.570836 
L 423.154266 -189.190026 
L 423.239185 -190.809215 
L 423.308888 -192.428404 
L 423.363844 -194.047593 
L 423.407335 -195.666782 
L 423.444168 -197.285971 
L 423.479033 -198.90516 
L 423.515106 -200.524349 
L 423.553407 -202.143538 
L 423.592978 -203.762727 
L 423.631606 -205.381916 
L 423.66663 -207.001105 
L 423.695584 -208.620294 
L 423.716658 -210.239483 
L 423.729062 -211.858673 
L 423.733335 -213.477862 
L 423.731488 -215.097051 
L 423.726826 -216.71624 
L 423.723361 -218.335429 
L 423.724895 -219.954618 
L 423.734026 -221.573807 
L 423.75145 -223.192996 
L 423.77586 -224.812185 
L 423.804488 -226.431374 
L 423.834051 -228.050563 
L 423.861652 -229.669752 
L 424.022284 -229.669752 
L 424.022284 -229.669752 
L 424.049885 -228.050563 
L 424.079447 -226.431374 
L 424.108076 -224.812185 
L 424.132485 -223.192996 
L 424.14991 -221.573807 
L 424.159041 -219.954618 
L 424.160574 -218.335429 
L 424.15711 -216.71624 
L 424.152448 -215.097051 
L 424.150601 -213.477862 
L 424.154874 -211.858673 
L 424.167278 -210.239483 
L 424.188352 -208.620294 
L 424.217306 -207.001105 
L 424.252329 -205.381916 
L 424.290957 -203.762727 
L 424.330529 -202.143538 
L 424.368829 -200.524349 
L 424.404903 -198.90516 
L 424.439767 -197.285971 
L 424.4766 -195.666782 
L 424.520091 -194.047593 
L 424.575048 -192.428404 
L 424.644751 -190.809215 
L 424.72967 -189.190026 
L 424.82689 -187.570836 
L 424.930274 -185.951647 
L 425.031112 -184.332458 
L 425.119096 -182.713269 
L 425.183576 -181.09408 
L 425.215144 -179.474891 
L 425.207416 -177.855702 
L 425.158579 -176.236513 
L 425.07211 -174.617324 
L 424.956307 -172.998135 
L 424.822808 -171.378946 
L 424.684604 -169.759757 
L 424.554046 -168.140568 
L 424.441102 -166.521379 
L 424.352068 -164.902189 
L 424.289045 -163.283 
L 424.250476 -161.663811 
L 424.232694 -160.044622 
L 424.232055 -158.425433 
L 424.247016 -156.806244 
L 424.279708 -155.187055 
L 424.33679 -153.567866 
L 424.429518 -151.948677 
L 424.573044 -150.329488 
L 424.785019 -148.710299 
L 425.083571 -147.09111 
L 425.484713 -145.471921 
L 425.999258 -143.852732 
L 426.629675 -142.233542 
L 427.367945 -140.614353 
L 428.195638 -138.995164 
L 429.086867 -137.375975 
L 430.013439 -135.756786 
L 430.950571 -134.137597 
L 431.881402 -132.518408 
L 432.798842 -130.899219 
L 433.703441 -129.28003 
L 434.596319 -127.660841 
L 435.46797 -126.041652 
L 436.287082 -124.422463 
L 436.996259 -122.803274 
L 437.52028 -121.184085 
L 437.786529 -119.564895 
L 437.749751 -117.945706 
L 437.40985 -116.326517 
L 436.814868 -114.707328 
L 436.048949 -113.088139 
L 435.211664 -111.46895 
L 434.396776 -109.849761 
L 433.676181 -108.230572 
L 433.09125 -106.611383 
L 432.651585 -104.992194 
L 432.340192 -103.373005 
L 432.123474 -101.753816 
L 431.963475 -100.134627 
L 431.829027 -98.515438 
L 431.702587 -96.896248 
L 431.581294 -95.277059 
L 431.473614 -93.65787 
L 431.395285 -92.038681 
L 431.368579 -90.419492 
L 431.426791 -88.800303 
L 431.622235 -87.181114 
L 432.032669 -85.561925 
L 432.759043 -83.942736 
L 433.90758 -82.323547 
L 435.551785 -80.704358 
L 437.676561 -79.085169 
L 440.119013 -77.46598 
L 442.536282 -75.846791 
L 444.438613 -74.227601 
L 445.308754 -72.608412 
L 444.781693 -70.989223 
L 442.805921 -69.370034 
z
" id="m5ec19ab396" style="stroke:#141414;stroke-width:1.5;"/>
    </defs>
    <g clip-path="url(#p43dc97f9c7)">
     <use style="fill:#083c1d;stroke:#141414;stroke-width:1.5;" x="0" xlink:href="#m5ec19ab396" y="536.575754"/>
    </g>
   </g>
   <g id="PolyCollection_8">
    <defs>
     <path d="M 483.56989 -69.370034 
L 449.78119 -69.370034 
L 447.498386 -70.986603 
L 446.571907 -72.603172 
L 447.041278 -74.219741 
L 448.611569 -75.83631 
L 450.807352 -77.452879 
L 453.157645 -79.069448 
L 455.320996 -80.686017 
L 457.119779 -82.302586 
L 458.507785 -83.919156 
L 459.513679 -85.535725 
L 460.191871 -87.152294 
L 460.593707 -88.768863 
L 460.75877 -90.385432 
L 460.719644 -92.002001 
L 460.511031 -93.61857 
L 460.174878 -95.235139 
L 459.757244 -96.851708 
L 459.298862 -98.468277 
L 458.825946 -100.084846 
L 458.347468 -101.701415 
L 457.860136 -103.317984 
L 457.356758 -104.934553 
L 456.832324 -106.551122 
L 456.285666 -108.167691 
L 455.719144 -109.78426 
L 455.139929 -111.400829 
L 454.563485 -113.017398 
L 454.016211 -114.633967 
L 453.533777 -116.250536 
L 453.154755 -117.867105 
L 452.912771 -119.483674 
L 452.83116 -121.100243 
L 452.921761 -122.716812 
L 453.186668 -124.333381 
L 453.620779 -125.94995 
L 454.213901 -127.566519 
L 454.95195 -129.183088 
L 455.816897 -130.799657 
L 456.785305 -132.416226 
L 457.826466 -134.032795 
L 458.902178 -135.649364 
L 459.969708 -137.265933 
L 460.987488 -138.882502 
L 461.92144 -140.499071 
L 462.749473 -142.11564 
L 463.462759 -143.732209 
L 464.063712 -145.348778 
L 464.561869 -146.965347 
L 464.969489 -148.581916 
L 465.298467 -150.198485 
L 465.559155 -151.815055 
L 465.760625 -153.431624 
L 465.911395 -155.048193 
L 466.01989 -156.664762 
L 466.094338 -158.281331 
L 466.142153 -159.8979 
L 466.169167 -161.514469 
L 466.179196 -163.131038 
L 466.174417 -164.747607 
L 466.156596 -166.364176 
L 466.12853 -167.980745 
L 466.094661 -169.597314 
L 466.0602 -171.213883 
L 466.029117 -172.830452 
L 466.002408 -174.447021 
L 465.978062 -176.06359 
L 465.953052 -177.680159 
L 465.926075 -179.296728 
L 465.899094 -180.913297 
L 465.876586 -182.529866 
L 465.863142 -184.146435 
L 465.861273 -185.763004 
L 465.870898 -187.379573 
L 465.890519 -188.996142 
L 465.918736 -190.612711 
L 465.954744 -192.22928 
L 465.997643 -193.845849 
L 466.045504 -195.462418 
L 466.095284 -197.078987 
L 466.143758 -198.695556 
L 466.188677 -200.312125 
L 466.229198 -201.928694 
L 466.265315 -203.545263 
L 466.296869 -205.161832 
L 466.322952 -206.778401 
L 466.3421 -208.39497 
L 466.35305 -210.011539 
L 466.355545 -211.628108 
L 466.350763 -213.244677 
L 466.341249 -214.861246 
L 466.330512 -216.477815 
L 466.322518 -218.094385 
L 466.321198 -219.710954 
L 466.329905 -221.327523 
L 466.350711 -222.944092 
L 466.383691 -224.560661 
L 466.426553 -226.17723 
L 466.475007 -227.793799 
L 466.523828 -229.410368 
L 466.827252 -229.410368 
L 466.827252 -229.410368 
L 466.876072 -227.793799 
L 466.924526 -226.17723 
L 466.967389 -224.560661 
L 467.000368 -222.944092 
L 467.021174 -221.327523 
L 467.029881 -219.710954 
L 467.028562 -218.094385 
L 467.020568 -216.477815 
L 467.009831 -214.861246 
L 467.000317 -213.244677 
L 466.995534 -211.628108 
L 466.998029 -210.011539 
L 467.008979 -208.39497 
L 467.028127 -206.778401 
L 467.054211 -205.161832 
L 467.085764 -203.545263 
L 467.121881 -201.928694 
L 467.162402 -200.312125 
L 467.207322 -198.695556 
L 467.255796 -197.078987 
L 467.305575 -195.462418 
L 467.353436 -193.845849 
L 467.396335 -192.22928 
L 467.432343 -190.612711 
L 467.46056 -188.996142 
L 467.480182 -187.379573 
L 467.489806 -185.763004 
L 467.487937 -184.146435 
L 467.474494 -182.529866 
L 467.451985 -180.913297 
L 467.425004 -179.296728 
L 467.398027 -177.680159 
L 467.373018 -176.06359 
L 467.348672 -174.447021 
L 467.321962 -172.830452 
L 467.29088 -171.213883 
L 467.256418 -169.597314 
L 467.222549 -167.980745 
L 467.194483 -166.364176 
L 467.176662 -164.747607 
L 467.171883 -163.131038 
L 467.181912 -161.514469 
L 467.208927 -159.8979 
L 467.256742 -158.281331 
L 467.331189 -156.664762 
L 467.439685 -155.048193 
L 467.590454 -153.431624 
L 467.791924 -151.815055 
L 468.052613 -150.198485 
L 468.38159 -148.581916 
L 468.78921 -146.965347 
L 469.287367 -145.348778 
L 469.888321 -143.732209 
L 470.601607 -142.11564 
L 471.42964 -140.499071 
L 472.363591 -138.882502 
L 473.381372 -137.265933 
L 474.448901 -135.649364 
L 475.524613 -134.032795 
L 476.565774 -132.416226 
L 477.534183 -130.799657 
L 478.39913 -129.183088 
L 479.137178 -127.566519 
L 479.7303 -125.94995 
L 480.164411 -124.333381 
L 480.429318 -122.716812 
L 480.51992 -121.100243 
L 480.438308 -119.483674 
L 480.196325 -117.867105 
L 479.817302 -116.250536 
L 479.334868 -114.633967 
L 478.787595 -113.017398 
L 478.21115 -111.400829 
L 477.631936 -109.78426 
L 477.065413 -108.167691 
L 476.518755 -106.551122 
L 475.994321 -104.934553 
L 475.490943 -103.317984 
L 475.003611 -101.701415 
L 474.525133 -100.084846 
L 474.052217 -98.468277 
L 473.593835 -96.851708 
L 473.176201 -95.235139 
L 472.840048 -93.61857 
L 472.631436 -92.002001 
L 472.592309 -90.385432 
L 472.757373 -88.768863 
L 473.159208 -87.152294 
L 473.8374 -85.535725 
L 474.843295 -83.919156 
L 476.2313 -82.302586 
L 478.030083 -80.686017 
L 480.193435 -79.069448 
L 482.543728 -77.452879 
L 484.73951 -75.83631 
L 486.309802 -74.219741 
L 486.779172 -72.603172 
L 485.852694 -70.986603 
L 483.56989 -69.370034 
z
" id="mae0f84b994" style="stroke:#141414;stroke-width:1.5;"/>
    </defs>
    <g clip-path="url(#p43dc97f9c7)">
     <use style="fill:#0e5f2f;stroke:#141414;stroke-width:1.5;" x="0" xlink:href="#mae0f84b994" y="536.575754"/>
    </g>
   </g>
   <g id="PolyCollection_9">
    <defs>
     <path d="M 546.858196 -69.370034 
L 514.693599 -69.370034 
L 512.613379 -70.538575 
L 510.981287 -71.707116 
L 509.901193 -72.875657 
L 509.409112 -74.044198 
L 509.473591 -75.212739 
L 510.009249 -76.38128 
L 510.898227 -77.549821 
L 512.012931 -78.718362 
L 513.234582 -79.886903 
L 514.464673 -81.055444 
L 515.629363 -82.223985 
L 516.678755 -83.392526 
L 517.583641 -84.561067 
L 518.331771 -85.729608 
L 518.924636 -86.898149 
L 519.374752 -88.06669 
L 519.702938 -89.235231 
L 519.935031 -90.403772 
L 520.097949 -91.572313 
L 520.215501 -92.740854 
L 520.30478 -93.909395 
L 520.374053 -95.077936 
L 520.422808 -96.246477 
L 520.44406 -97.415018 
L 520.428347 -98.583559 
L 520.36837 -99.7521 
L 520.262959 -100.920641 
L 520.119287 -102.089182 
L 519.952719 -103.257723 
L 519.784381 -104.426264 
L 519.637155 -105.594805 
L 519.531173 -106.763346 
L 519.479947 -107.931887 
L 519.488008 -109.100428 
L 519.550425 -110.268969 
L 519.65409 -111.43751 
L 519.780245 -112.606051 
L 519.907538 -113.774592 
L 520.014943 -114.943133 
L 520.084116 -116.111673 
L 520.100993 -117.280214 
L 520.056675 -118.448755 
L 519.947715 -119.617296 
L 519.775933 -120.785837 
L 519.547819 -121.954378 
L 519.27356 -123.122919 
L 518.965786 -124.29146 
L 518.638188 -125.460001 
L 518.304217 -126.628542 
L 517.976031 -127.797083 
L 517.663769 -128.965624 
L 517.375128 -130.134165 
L 517.115164 -131.302706 
L 516.88631 -132.471247 
L 516.688652 -133.639788 
L 516.520564 -134.808329 
L 516.379723 -135.97687 
L 516.264378 -137.145411 
L 516.174602 -138.313952 
L 516.113189 -139.482493 
L 516.085949 -140.651034 
L 516.101362 -141.819575 
L 516.169752 -142.988116 
L 516.302283 -144.156657 
L 516.510005 -145.325198 
L 516.803049 -146.493739 
L 517.189843 -147.66228 
L 517.676165 -148.830821 
L 518.263882 -149.999362 
L 518.949492 -151.167903 
L 519.72281 -152.336444 
L 520.566318 -153.504985 
L 521.455642 -154.673526 
L 522.361379 -155.842067 
L 523.252078 -157.010608 
L 524.097868 -158.179149 
L 524.874003 -159.34769 
L 525.563603 -160.516231 
L 526.159087 -161.684772 
L 526.662108 -162.853313 
L 527.082116 -164.021854 
L 527.43393 -165.190395 
L 527.734846 -166.358936 
L 528.001826 -167.527477 
L 528.249219 -168.696018 
L 528.487325 -169.864559 
L 528.721895 -171.0331 
L 528.954486 -172.201641 
L 529.183433 -173.370182 
L 529.405117 -174.538722 
L 529.61522 -175.707263 
L 529.809728 -176.875804 
L 529.985566 -178.044345 
L 530.140862 -179.212886 
L 530.274938 -180.381427 
L 530.388138 -181.549968 
L 530.481595 -182.718509 
L 530.55701 -183.88705 
L 530.616452 -185.055591 
L 530.935343 -185.055591 
L 530.935343 -185.055591 
L 530.994785 -183.88705 
L 531.0702 -182.718509 
L 531.163657 -181.549968 
L 531.276857 -180.381427 
L 531.410933 -179.212886 
L 531.566229 -178.044345 
L 531.742067 -176.875804 
L 531.936575 -175.707263 
L 532.146678 -174.538722 
L 532.368362 -173.370182 
L 532.597308 -172.201641 
L 532.8299 -171.0331 
L 533.06447 -169.864559 
L 533.302576 -168.696018 
L 533.549969 -167.527477 
L 533.816949 -166.358936 
L 534.117865 -165.190395 
L 534.469678 -164.021854 
L 534.889687 -162.853313 
L 535.392708 -161.684772 
L 535.988192 -160.516231 
L 536.677792 -159.34769 
L 537.453927 -158.179149 
L 538.299717 -157.010608 
L 539.190416 -155.842067 
L 540.096153 -154.673526 
L 540.985477 -153.504985 
L 541.828984 -152.336444 
L 542.602303 -151.167903 
L 543.287913 -149.999362 
L 543.87563 -148.830821 
L 544.361952 -147.66228 
L 544.748746 -146.493739 
L 545.04179 -145.325198 
L 545.249512 -144.156657 
L 545.382043 -142.988116 
L 545.450433 -141.819575 
L 545.465846 -140.651034 
L 545.438606 -139.482493 
L 545.377193 -138.313952 
L 545.287417 -137.145411 
L 545.172072 -135.97687 
L 545.031231 -134.808329 
L 544.863143 -133.639788 
L 544.665485 -132.471247 
L 544.436631 -131.302706 
L 544.176667 -130.134165 
L 543.888026 -128.965624 
L 543.575764 -127.797083 
L 543.247578 -126.628542 
L 542.913607 -125.460001 
L 542.586009 -124.29146 
L 542.278235 -123.122919 
L 542.003976 -121.954378 
L 541.775862 -120.785837 
L 541.60408 -119.617296 
L 541.49512 -118.448755 
L 541.450802 -117.280214 
L 541.467679 -116.111673 
L 541.536852 -114.943133 
L 541.644257 -113.774592 
L 541.77155 -112.606051 
L 541.897705 -111.43751 
L 542.00137 -110.268969 
L 542.063787 -109.100428 
L 542.071848 -107.931887 
L 542.020622 -106.763346 
L 541.91464 -105.594805 
L 541.767414 -104.426264 
L 541.599076 -103.257723 
L 541.432508 -102.089182 
L 541.288836 -100.920641 
L 541.183425 -99.7521 
L 541.123448 -98.583559 
L 541.107735 -97.415018 
L 541.128987 -96.246477 
L 541.177742 -95.077936 
L 541.247015 -93.909395 
L 541.336294 -92.740854 
L 541.453846 -91.572313 
L 541.616764 -90.403772 
L 541.848857 -89.235231 
L 542.177043 -88.06669 
L 542.627159 -86.898149 
L 543.220023 -85.729608 
L 543.968154 -84.561067 
L 544.87304 -83.392526 
L 545.922432 -82.223985 
L 547.087122 -81.055444 
L 548.317213 -79.886903 
L 549.538864 -78.718362 
L 550.653568 -77.549821 
L 551.542545 -76.38128 
L 552.078204 -75.212739 
L 552.142683 -74.044198 
L 551.650602 -72.875657 
L 550.570508 -71.707116 
L 548.938416 -70.538575 
L 546.858196 -69.370034 
z
" id="mf799ea0450" style="stroke:#141414;stroke-width:1.5;"/>
    </defs>
    <g clip-path="url(#p43dc97f9c7)">
     <use style="fill:#083c1d;stroke:#141414;stroke-width:1.5;" x="0" xlink:href="#mf799ea0450" y="536.575754"/>
    </g>
   </g>
   <g id="PolyCollection_10">
    <defs>
     <path d="M 585.464229 -69.370034 
L 561.55471 -69.370034 
L 559.179942 -70.619797 
L 557.094376 -71.869559 
L 555.46451 -73.119322 
L 554.383683 -74.369084 
L 553.860336 -75.618846 
L 553.828266 -76.868609 
L 554.172803 -78.118371 
L 554.762642 -79.368134 
L 555.477386 -80.617896 
L 556.224466 -81.867659 
L 556.943975 -83.117421 
L 557.603985 -84.367184 
L 558.191097 -85.616946 
L 558.701021 -86.866708 
L 559.132395 -88.116471 
L 559.484684 -89.366233 
L 559.759056 -90.615996 
L 559.960107 -91.865758 
L 560.096631 -93.115521 
L 560.180655 -94.365283 
L 560.225229 -95.615045 
L 560.242137 -96.864808 
L 560.240701 -98.11457 
L 560.22814 -99.364333 
L 560.211061 -100.614095 
L 560.197031 -101.863858 
L 560.195142 -103.11362 
L 560.215044 -104.363383 
L 560.264659 -105.613145 
L 560.347441 -106.862907 
L 560.460193 -108.11267 
L 560.592202 -109.362432 
L 560.726052 -110.612195 
L 560.84001 -111.861957 
L 560.911599 -113.11172 
L 560.92175 -114.361482 
L 560.858686 -115.611245 
L 560.720664 -116.861007 
L 560.516859 -118.110769 
L 560.266082 -119.360532 
L 559.993707 -120.610294 
L 559.727611 -121.860057 
L 559.494173 -123.109819 
L 559.315169 -124.359582 
L 559.205984 -125.609344 
L 559.175126 -126.859106 
L 559.224699 -128.108869 
L 559.351423 -129.358631 
L 559.547829 -130.608394 
L 559.803399 -131.858156 
L 560.105575 -133.107919 
L 560.440657 -134.357681 
L 560.794715 -135.607444 
L 561.154566 -136.857206 
L 561.508879 -138.106968 
L 561.849278 -139.356731 
L 562.171244 -140.606493 
L 562.474587 -141.856256 
L 562.763277 -143.106018 
L 563.044658 -144.355781 
L 563.3282 -145.605543 
L 563.62412 -146.855305 
L 563.94216 -148.105068 
L 564.290698 -149.35483 
L 564.676118 -150.604593 
L 565.102269 -151.854355 
L 565.569868 -153.104118 
L 566.075828 -154.35388 
L 566.612752 -155.603643 
L 567.168908 -156.853405 
L 567.729011 -158.103167 
L 568.275897 -159.35293 
L 568.792882 -160.602692 
L 569.266316 -161.852455 
L 569.68771 -163.102217 
L 570.054893 -164.35198 
L 570.371949 -165.601742 
L 570.647996 -166.851504 
L 570.895112 -168.101267 
L 571.125844 -169.351029 
L 571.350728 -170.600792 
L 571.576308 -171.850554 
L 571.804036 -173.100317 
L 572.030374 -174.350079 
L 572.248085 -175.599842 
L 572.44838 -176.849604 
L 572.62329 -178.099366 
L 572.767597 -179.349129 
L 572.879854 -180.598891 
L 572.962373 -181.848654 
L 573.020394 -183.098416 
L 573.060825 -184.348179 
L 573.090932 -185.597941 
L 573.117253 -186.847703 
L 573.144839 -188.097466 
L 573.176828 -189.347228 
L 573.21432 -190.596991 
L 573.256549 -191.846753 
L 573.301333 -193.096516 
L 573.717605 -193.096516 
L 573.717605 -193.096516 
L 573.762389 -191.846753 
L 573.804619 -190.596991 
L 573.842111 -189.347228 
L 573.874099 -188.097466 
L 573.901686 -186.847703 
L 573.928007 -185.597941 
L 573.958113 -184.348179 
L 573.998544 -183.098416 
L 574.056566 -181.848654 
L 574.139085 -180.598891 
L 574.251342 -179.349129 
L 574.395648 -178.099366 
L 574.570558 -176.849604 
L 574.770853 -175.599842 
L 574.988565 -174.350079 
L 575.214903 -173.100317 
L 575.442631 -171.850554 
L 575.66821 -170.600792 
L 575.893095 -169.351029 
L 576.123826 -168.101267 
L 576.370943 -166.851504 
L 576.64699 -165.601742 
L 576.964046 -164.35198 
L 577.331229 -163.102217 
L 577.752623 -161.852455 
L 578.226057 -160.602692 
L 578.743041 -159.35293 
L 579.289927 -158.103167 
L 579.850031 -156.853405 
L 580.406187 -155.603643 
L 580.943111 -154.35388 
L 581.449071 -153.104118 
L 581.91667 -151.854355 
L 582.342821 -150.604593 
L 582.72824 -149.35483 
L 583.076779 -148.105068 
L 583.394819 -146.855305 
L 583.690738 -145.605543 
L 583.974281 -144.355781 
L 584.255662 -143.106018 
L 584.544352 -141.856256 
L 584.847694 -140.606493 
L 585.169661 -139.356731 
L 585.510059 -138.106968 
L 585.864373 -136.857206 
L 586.224224 -135.607444 
L 586.578281 -134.357681 
L 586.913364 -133.107919 
L 587.215539 -131.858156 
L 587.47111 -130.608394 
L 587.667516 -129.358631 
L 587.79424 -128.108869 
L 587.843812 -126.859106 
L 587.812954 -125.609344 
L 587.70377 -124.359582 
L 587.524766 -123.109819 
L 587.291328 -121.860057 
L 587.025232 -120.610294 
L 586.752857 -119.360532 
L 586.50208 -118.110769 
L 586.298274 -116.861007 
L 586.160253 -115.611245 
L 586.097188 -114.361482 
L 586.107339 -113.11172 
L 586.178929 -111.861957 
L 586.292886 -110.612195 
L 586.426737 -109.362432 
L 586.558746 -108.11267 
L 586.671497 -106.862907 
L 586.75428 -105.613145 
L 586.803894 -104.363383 
L 586.823796 -103.11362 
L 586.821908 -101.863858 
L 586.807877 -100.614095 
L 586.790798 -99.364333 
L 586.778238 -98.11457 
L 586.776802 -96.864808 
L 586.79371 -95.615045 
L 586.838284 -94.365283 
L 586.922308 -93.115521 
L 587.058831 -91.865758 
L 587.259883 -90.615996 
L 587.534255 -89.366233 
L 587.886544 -88.116471 
L 588.317917 -86.866708 
L 588.827842 -85.616946 
L 589.414954 -84.367184 
L 590.074964 -83.117421 
L 590.794473 -81.867659 
L 591.541552 -80.617896 
L 592.256296 -79.368134 
L 592.846136 -78.118371 
L 593.190672 -76.868609 
L 593.158603 -75.618846 
L 592.635256 -74.369084 
L 591.554429 -73.119322 
L 589.924562 -71.869559 
L 587.838997 -70.619797 
L 585.464229 -69.370034 
z
" id="m1c0e6d9b6e" style="stroke:#141414;stroke-width:1.5;"/>
    </defs>
    <g clip-path="url(#p43dc97f9c7)">
     <use style="fill:#0e5f2f;stroke:#141414;stroke-width:1.5;" x="0" xlink:href="#m1c0e6d9b6e" y="536.575754"/>
    </g>
   </g>
   <g id="patch_3">
    <path clip-path="url(#p43dc97f9c7)" d="M 124.806965 467.20572 
L 124.806965 467.20572 
L 124.806965 467.20572 
L 124.806965 467.20572 
z
" style="fill:#083c1d;stroke:#141414;stroke-linejoin:miter;stroke-width:0.75;"/>
   </g>
   <g id="patch_4">
    <path clip-path="url(#p43dc97f9c7)" d="M 124.806965 467.20572 
L 124.806965 467.20572 
L 124.806965 467.20572 
L 124.806965 467.20572 
z
" style="fill:#0e5f2f;stroke:#141414;stroke-linejoin:miter;stroke-width:0.75;"/>
   </g>
   <g id="line2d_1">
    <path clip-path="url(#p43dc97f9c7)" d="M 103.440179 467.20572 
L 103.440179 374.864782 
" style="fill:none;stroke:#141414;stroke-linecap:round;stroke-width:1.5;"/>
   </g>
   <g id="line2d_2">
    <path clip-path="url(#p43dc97f9c7)" d="M 103.440179 460.461719 
L 103.440179 425.44479 
" style="fill:none;stroke:#141414;stroke-linecap:round;stroke-width:4.5;"/>
   </g>
   <g id="line2d_3">
    <path clip-path="url(#p43dc97f9c7)" d="M 146.173751 467.20572 
L 146.173751 377.199244 
" style="fill:none;stroke:#141414;stroke-linecap:round;stroke-width:1.5;"/>
   </g>
   <g id="line2d_4">
    <path clip-path="url(#p43dc97f9c7)" d="M 146.173751 458.905411 
L 146.173751 426.222944 
" style="fill:none;stroke:#141414;stroke-linecap:round;stroke-width:4.5;"/>
   </g>
   <g id="line2d_5">
    <path clip-path="url(#p43dc97f9c7)" d="M 210.274109 465.649412 
L 210.274109 36.10842 
" style="fill:none;stroke:#141414;stroke-linecap:round;stroke-width:1.5;"/>
   </g>
   <g id="line2d_6">
    <path clip-path="url(#p43dc97f9c7)" d="M 210.274109 450.086333 
L 210.274109 251.138301 
" style="fill:none;stroke:#141414;stroke-linecap:round;stroke-width:4.5;"/>
   </g>
   <g id="line2d_7">
    <path clip-path="url(#p43dc97f9c7)" d="M 253.00768 465.390027 
L 253.00768 29.105034 
" style="fill:none;stroke:#141414;stroke-linecap:round;stroke-width:1.5;"/>
   </g>
   <g id="line2d_8">
    <path clip-path="url(#p43dc97f9c7)" d="M 253.00768 440.748485 
L 253.00768 196.797215 
" style="fill:none;stroke:#141414;stroke-linecap:round;stroke-width:4.5;"/>
   </g>
   <g id="line2d_9">
    <path clip-path="url(#p43dc97f9c7)" d="M 317.108038 467.20572 
L 317.108038 363.192473 
" style="fill:none;stroke:#141414;stroke-linecap:round;stroke-width:1.5;"/>
   </g>
   <g id="line2d_10">
    <path clip-path="url(#p43dc97f9c7)" d="M 317.108038 460.980488 
L 317.108038 421.813405 
" style="fill:none;stroke:#141414;stroke-linecap:round;stroke-width:4.5;"/>
   </g>
   <g id="line2d_11">
    <path clip-path="url(#p43dc97f9c7)" d="M 359.84161 467.20572 
L 359.84161 359.820472 
" style="fill:none;stroke:#141414;stroke-linecap:round;stroke-width:1.5;"/>
   </g>
   <g id="line2d_12">
    <path clip-path="url(#p43dc97f9c7)" d="M 359.84161 458.386642 
L 359.84161 418.960174 
" style="fill:none;stroke:#141414;stroke-linecap:round;stroke-width:4.5;"/>
   </g>
   <g id="line2d_13">
    <path clip-path="url(#p43dc97f9c7)" d="M 423.941968 467.20572 
L 423.941968 346.591854 
" style="fill:none;stroke:#141414;stroke-linecap:round;stroke-width:1.5;"/>
   </g>
   <g id="line2d_14">
    <path clip-path="url(#p43dc97f9c7)" d="M 423.941968 462.018027 
L 423.941968 415.847558 
" style="fill:none;stroke:#141414;stroke-linecap:round;stroke-width:4.5;"/>
   </g>
   <g id="line2d_15">
    <path clip-path="url(#p43dc97f9c7)" d="M 466.67554 467.20572 
L 466.67554 340.626007 
" style="fill:none;stroke:#141414;stroke-linecap:round;stroke-width:1.5;"/>
   </g>
   <g id="line2d_16">
    <path clip-path="url(#p43dc97f9c7)" d="M 466.67554 460.461719 
L 466.67554 412.475557 
" style="fill:none;stroke:#141414;stroke-linecap:round;stroke-width:4.5;"/>
   </g>
   <g id="line2d_17">
    <path clip-path="url(#p43dc97f9c7)" d="M 530.775897 467.20572 
L 530.775897 351.520163 
" style="fill:none;stroke:#141414;stroke-linecap:round;stroke-width:1.5;"/>
   </g>
   <g id="line2d_18">
    <path clip-path="url(#p43dc97f9c7)" d="M 530.775897 455.014641 
L 530.775897 398.987555 
" style="fill:none;stroke:#141414;stroke-linecap:round;stroke-width:4.5;"/>
   </g>
   <g id="line2d_19">
    <path clip-path="url(#p43dc97f9c7)" d="M 573.509469 467.20572 
L 573.509469 343.479239 
" style="fill:none;stroke:#141414;stroke-linecap:round;stroke-width:1.5;"/>
   </g>
   <g id="line2d_20">
    <path clip-path="url(#p43dc97f9c7)" d="M 573.509469 451.902025 
L 573.509469 404.175248 
" style="fill:none;stroke:#141414;stroke-linecap:round;stroke-width:4.5;"/>
   </g>
   <g id="patch_5">
    <path d="M 71.39 489.110754 
L 71.39 7.2 
" style="fill:none;stroke:#262626;stroke-linecap:square;stroke-linejoin:miter;stroke-width:0.8;"/>
   </g>
   <g id="patch_6">
    <path d="M 71.39 489.110754 
L 605.559648 489.110754 
" style="fill:none;stroke:#262626;stroke-linecap:square;stroke-linejoin:miter;stroke-width:0.8;"/>
   </g>
   <g id="PathCollection_1">
    <defs>
     <path d="M 0 1.5 
C 0.397805 1.5 0.77937 1.341951 1.06066 1.06066 
C 1.341951 0.77937 1.5 0.397805 1.5 0 
C 1.5 -0.397805 1.341951 -0.77937 1.06066 -1.06066 
C 0.77937 -1.341951 0.397805 -1.5 0 -1.5 
C -0.397805 -1.5 -0.77937 -1.341951 -1.06066 -1.06066 
C -1.341951 -0.77937 -1.5 -0.397805 -1.5 0 
C -1.5 0.397805 -1.341951 0.77937 -1.06066 1.06066 
C -0.77937 1.341951 -0.397805 1.5 0 1.5 
z
" id="m47c2d5fc17" style="stroke:#141414;"/>
    </defs>
    <g clip-path="url(#p43dc97f9c7)">
     <use style="fill:#ffffff;stroke:#141414;" x="103.440179" xlink:href="#m47c2d5fc17" y="444.37987"/>
    </g>
   </g>
   <g id="PathCollection_2">
    <g clip-path="url(#p43dc97f9c7)">
     <use style="fill:#ffffff;stroke:#141414;" x="146.173751" xlink:href="#m47c2d5fc17" y="444.89864"/>
    </g>
   </g>
   <g id="PathCollection_3">
    <g clip-path="url(#p43dc97f9c7)">
     <use style="fill:#ffffff;stroke:#141414;" x="210.274109" xlink:href="#m47c2d5fc17" y="334.66016"/>
    </g>
   </g>
   <g id="PathCollection_4">
    <g clip-path="url(#p43dc97f9c7)">
     <use style="fill:#ffffff;stroke:#141414;" x="253.00768" xlink:href="#m47c2d5fc17" y="291.991384"/>
    </g>
   </g>
   <g id="PathCollection_5">
    <g clip-path="url(#p43dc97f9c7)">
     <use style="fill:#ffffff;stroke:#141414;" x="317.108038" xlink:href="#m47c2d5fc17" y="438.154638"/>
    </g>
   </g>
   <g id="PathCollection_6">
    <g clip-path="url(#p43dc97f9c7)">
     <use style="fill:#ffffff;stroke:#141414;" x="359.84161" xlink:href="#m47c2d5fc17" y="434.523253"/>
    </g>
   </g>
   <g id="PathCollection_7">
    <g clip-path="url(#p43dc97f9c7)">
     <use style="fill:#ffffff;stroke:#141414;" x="423.941968" xlink:href="#m47c2d5fc17" y="436.079561"/>
    </g>
   </g>
   <g id="PathCollection_8">
    <g clip-path="url(#p43dc97f9c7)">
     <use style="fill:#ffffff;stroke:#141414;" x="466.67554" xlink:href="#m47c2d5fc17" y="430.373099"/>
    </g>
   </g>
   <g id="PathCollection_9">
    <g clip-path="url(#p43dc97f9c7)">
     <use style="fill:#ffffff;stroke:#141414;" x="530.775897" xlink:href="#m47c2d5fc17" y="425.96356"/>
    </g>
   </g>
   <g id="PathCollection_10">
    <g clip-path="url(#p43dc97f9c7)">
     <use style="fill:#ffffff;stroke:#141414;" x="573.509469" xlink:href="#m47c2d5fc17" y="428.038637"/>
    </g>
   </g>
  </g>
  <g id="legend_1">
   <g id="text_16">
    <!-- weather -->
    <defs>
     <path d="M 16.15625 0 
L 0.296875 51.859375 
L 9.375 51.859375 
L 17.625 21.921875 
L 20.703125 10.796875 
Q 20.90625 11.625 23.390625 21.484375 
L 31.640625 51.859375 
L 40.671875 51.859375 
L 48.4375 21.78125 
L 51.03125 11.859375 
L 54 21.875 
L 62.890625 51.859375 
L 71.4375 51.859375 
L 55.21875 0 
L 46.09375 0 
L 37.84375 31.0625 
L 35.84375 39.890625 
L 25.34375 0 
z
" id="ArialMT-119"/>
     <path d="M 6.59375 0 
L 6.59375 71.578125 
L 15.375 71.578125 
L 15.375 45.90625 
Q 21.53125 53.03125 30.90625 53.03125 
Q 36.671875 53.03125 40.921875 50.75 
Q 45.171875 48.484375 47 44.484375 
Q 48.828125 40.484375 48.828125 32.859375 
L 48.828125 0 
L 40.046875 0 
L 40.046875 32.859375 
Q 40.046875 39.453125 37.1875 42.453125 
Q 34.328125 45.453125 29.109375 45.453125 
Q 25.203125 45.453125 21.75 43.421875 
Q 18.3125 41.40625 16.84375 37.9375 
Q 15.375 34.46875 15.375 28.375 
L 15.375 0 
z
" id="ArialMT-104"/>
    </defs>
    <g style="fill:#262626;" transform="translate(708.06425 249.697877)scale(0.16 -0.16)">
     <use xlink:href="#ArialMT-119"/>
     <use x="72.216797" xlink:href="#ArialMT-101"/>
     <use x="127.832031" xlink:href="#ArialMT-97"/>
     <use x="183.447266" xlink:href="#ArialMT-116"/>
     <use x="211.230469" xlink:href="#ArialMT-104"/>
     <use x="266.845703" xlink:href="#ArialMT-101"/>
     <use x="322.460938" xlink:href="#ArialMT-114"/>
    </g>
   </g>
   <g id="patch_7">
    <path d="M 696.328 272.330377 
L 728.328 272.330377 
L 728.328 261.130377 
L 696.328 261.130377 
z
" style="fill:#083c1d;stroke:#141414;stroke-linejoin:miter;stroke-width:0.75;"/>
   </g>
   <g id="text_17">
    <!-- bad -->
    <defs>
     <path d="M 14.703125 0 
L 6.546875 0 
L 6.546875 71.578125 
L 15.328125 71.578125 
L 15.328125 46.046875 
Q 20.90625 53.03125 29.546875 53.03125 
Q 34.328125 53.03125 38.59375 51.09375 
Q 42.875 49.171875 45.625 45.671875 
Q 48.390625 42.1875 49.953125 37.25 
Q 51.515625 32.328125 51.515625 26.703125 
Q 51.515625 13.375 44.921875 6.09375 
Q 38.328125 -1.171875 29.109375 -1.171875 
Q 19.921875 -1.171875 14.703125 6.5 
z
M 14.59375 26.3125 
Q 14.59375 17 17.140625 12.84375 
Q 21.296875 6.0625 28.375 6.0625 
Q 34.125 6.0625 38.328125 11.0625 
Q 42.53125 16.0625 42.53125 25.984375 
Q 42.53125 36.140625 38.5 40.96875 
Q 34.46875 45.796875 28.765625 45.796875 
Q 23 45.796875 18.796875 40.796875 
Q 14.59375 35.796875 14.59375 26.3125 
z
" id="ArialMT-98"/>
    </defs>
    <g style="fill:#262626;" transform="translate(741.128 272.330377)scale(0.16 -0.16)">
     <use xlink:href="#ArialMT-98"/>
     <use x="55.615234" xlink:href="#ArialMT-97"/>
     <use x="111.230469" xlink:href="#ArialMT-100"/>
    </g>
   </g>
   <g id="patch_8">
    <path d="M 696.328 294.962877 
L 728.328 294.962877 
L 728.328 283.762877 
L 696.328 283.762877 
z
" style="fill:#0e5f2f;stroke:#141414;stroke-linejoin:miter;stroke-width:0.75;"/>
   </g>
   <g id="text_18">
    <!-- good -->
    <defs>
     <path d="M 4.984375 -4.296875 
L 13.53125 -5.5625 
Q 14.0625 -9.515625 16.5 -11.328125 
Q 19.78125 -13.765625 25.4375 -13.765625 
Q 31.546875 -13.765625 34.859375 -11.328125 
Q 38.1875 -8.890625 39.359375 -4.5 
Q 40.046875 -1.8125 39.984375 6.78125 
Q 34.234375 0 25.640625 0 
Q 14.9375 0 9.078125 7.71875 
Q 3.21875 15.4375 3.21875 26.21875 
Q 3.21875 33.640625 5.90625 39.90625 
Q 8.59375 46.1875 13.6875 49.609375 
Q 18.796875 53.03125 25.6875 53.03125 
Q 34.859375 53.03125 40.828125 45.609375 
L 40.828125 51.859375 
L 48.921875 51.859375 
L 48.921875 7.03125 
Q 48.921875 -5.078125 46.453125 -10.125 
Q 44 -15.1875 38.640625 -18.109375 
Q 33.296875 -21.046875 25.484375 -21.046875 
Q 16.21875 -21.046875 10.5 -16.875 
Q 4.78125 -12.703125 4.984375 -4.296875 
z
M 12.25 26.859375 
Q 12.25 16.65625 16.296875 11.96875 
Q 20.359375 7.28125 26.46875 7.28125 
Q 32.515625 7.28125 36.609375 11.9375 
Q 40.71875 16.609375 40.71875 26.5625 
Q 40.71875 36.078125 36.5 40.90625 
Q 32.28125 45.75 26.3125 45.75 
Q 20.453125 45.75 16.34375 40.984375 
Q 12.25 36.234375 12.25 26.859375 
z
" id="ArialMT-103"/>
    </defs>
    <g style="fill:#262626;" transform="translate(741.128 294.962877)scale(0.16 -0.16)">
     <use xlink:href="#ArialMT-103"/>
     <use x="55.615234" xlink:href="#ArialMT-111"/>
     <use x="111.230469" xlink:href="#ArialMT-111"/>
     <use x="166.845703" xlink:href="#ArialMT-100"/>
    </g>
   </g>
  </g>
 </g>
 <defs>
  <clipPath id="p43dc97f9c7">
   <rect height="481.910754" width="534.169648" x="71.39" y="7.2"/>
  </clipPath>
 </defs>
</svg>
