<?xml version="1.0" encoding="utf-8" standalone="no"?>
<!DOCTYPE svg PUBLIC "-//W3C//DTD SVG 1.1//EN"
  "http://www.w3.org/Graphics/SVG/1.1/DTD/svg11.dtd">
<!-- Created with matplotlib (https://matplotlib.org/) -->
<svg height="540.169pt" version="1.1" viewBox="0 0 803.5205 540.169" width="803.5205pt" xmlns="http://www.w3.org/2000/svg" xmlns:xlink="http://www.w3.org/1999/xlink">
 <defs>
  <style type="text/css">
*{stroke-linecap:butt;stroke-linejoin:round;white-space:pre;}
  </style>
 </defs>
 <g id="figure_1">
  <g id="patch_1">
   <path d="M 0 540.169 
L 803.5205 540.169 
L 803.5205 0 
L 0 0 
z
" style="fill:#ffffff;"/>
  </g>
  <g id="axes_1">
   <g id="patch_2">
    <path d="M 62.4925 492.704 
L 617.962148 492.704 
L 617.962148 7.2 
L 62.4925 7.2 
z
" style="fill:#ffffff;"/>
   </g>
   <g id="matplotlib.axis_1">
    <g id="xtick_1">
     <g id="text_1">
      <!-- 1056-186-1 -->
      <defs>
       <path d="M 37.25 0 
L 28.46875 0 
L 28.46875 56 
Q 25.296875 52.984375 20.140625 49.953125 
Q 14.984375 46.921875 10.890625 45.40625 
L 10.890625 53.90625 
Q 18.265625 57.375 23.78125 62.296875 
Q 29.296875 67.234375 31.59375 71.875 
L 37.25 71.875 
z
" id="ArialMT-49"/>
       <path d="M 4.15625 35.296875 
Q 4.15625 48 6.765625 55.734375 
Q 9.375 63.484375 14.515625 67.671875 
Q 19.671875 71.875 27.484375 71.875 
Q 33.25 71.875 37.59375 69.546875 
Q 41.9375 67.234375 44.765625 62.859375 
Q 47.609375 58.5 49.21875 52.21875 
Q 50.828125 45.953125 50.828125 35.296875 
Q 50.828125 22.703125 48.234375 14.96875 
Q 45.65625 7.234375 40.5 3 
Q 35.359375 -1.21875 27.484375 -1.21875 
Q 17.140625 -1.21875 11.234375 6.203125 
Q 4.15625 15.140625 4.15625 35.296875 
z
M 13.1875 35.296875 
Q 13.1875 17.671875 17.3125 11.828125 
Q 21.4375 6 27.484375 6 
Q 33.546875 6 37.671875 11.859375 
Q 41.796875 17.71875 41.796875 35.296875 
Q 41.796875 52.984375 37.671875 58.78125 
Q 33.546875 64.59375 27.390625 64.59375 
Q 21.34375 64.59375 17.71875 59.46875 
Q 13.1875 52.9375 13.1875 35.296875 
z
" id="ArialMT-48"/>
       <path d="M 4.15625 18.75 
L 13.375 19.53125 
Q 14.40625 12.796875 18.140625 9.390625 
Q 21.875 6 27.15625 6 
Q 33.5 6 37.890625 10.78125 
Q 42.28125 15.578125 42.28125 23.484375 
Q 42.28125 31 38.0625 35.34375 
Q 33.84375 39.703125 27 39.703125 
Q 22.75 39.703125 19.328125 37.765625 
Q 15.921875 35.84375 13.96875 32.765625 
L 5.71875 33.84375 
L 12.640625 70.609375 
L 48.25 70.609375 
L 48.25 62.203125 
L 19.671875 62.203125 
L 15.828125 42.96875 
Q 22.265625 47.46875 29.34375 47.46875 
Q 38.71875 47.46875 45.15625 40.96875 
Q 51.609375 34.46875 51.609375 24.265625 
Q 51.609375 14.546875 45.953125 7.46875 
Q 39.0625 -1.21875 27.15625 -1.21875 
Q 17.390625 -1.21875 11.203125 4.25 
Q 5.03125 9.71875 4.15625 18.75 
z
" id="ArialMT-53"/>
       <path d="M 49.75 54.046875 
L 41.015625 53.375 
Q 39.84375 58.546875 37.703125 60.890625 
Q 34.125 64.65625 28.90625 64.65625 
Q 24.703125 64.65625 21.53125 62.3125 
Q 17.390625 59.28125 14.984375 53.46875 
Q 12.59375 47.65625 12.5 36.921875 
Q 15.671875 41.75 20.265625 44.09375 
Q 24.859375 46.4375 29.890625 46.4375 
Q 38.671875 46.4375 44.84375 39.96875 
Q 51.03125 33.5 51.03125 23.25 
Q 51.03125 16.5 48.125 10.71875 
Q 45.21875 4.9375 40.140625 1.859375 
Q 35.0625 -1.21875 28.609375 -1.21875 
Q 17.625 -1.21875 10.6875 6.859375 
Q 3.765625 14.9375 3.765625 33.5 
Q 3.765625 54.25 11.421875 63.671875 
Q 18.109375 71.875 29.4375 71.875 
Q 37.890625 71.875 43.28125 67.140625 
Q 48.6875 62.40625 49.75 54.046875 
z
M 13.875 23.1875 
Q 13.875 18.65625 15.796875 14.5 
Q 17.71875 10.359375 21.1875 8.171875 
Q 24.65625 6 28.46875 6 
Q 34.03125 6 38.03125 10.484375 
Q 42.046875 14.984375 42.046875 22.703125 
Q 42.046875 30.125 38.078125 34.390625 
Q 34.125 38.671875 28.125 38.671875 
Q 22.171875 38.671875 18.015625 34.390625 
Q 13.875 30.125 13.875 23.1875 
z
" id="ArialMT-54"/>
       <path d="M 3.171875 21.484375 
L 3.171875 30.328125 
L 30.171875 30.328125 
L 30.171875 21.484375 
z
" id="ArialMT-45"/>
       <path d="M 17.671875 38.8125 
Q 12.203125 40.828125 9.5625 44.53125 
Q 6.9375 48.25 6.9375 53.421875 
Q 6.9375 61.234375 12.546875 66.546875 
Q 18.171875 71.875 27.484375 71.875 
Q 36.859375 71.875 42.578125 66.421875 
Q 48.296875 60.984375 48.296875 53.171875 
Q 48.296875 48.1875 45.671875 44.5 
Q 43.0625 40.828125 37.75 38.8125 
Q 44.34375 36.671875 47.78125 31.875 
Q 51.21875 27.09375 51.21875 20.453125 
Q 51.21875 11.28125 44.71875 5.03125 
Q 38.234375 -1.21875 27.640625 -1.21875 
Q 17.046875 -1.21875 10.546875 5.046875 
Q 4.046875 11.328125 4.046875 20.703125 
Q 4.046875 27.6875 7.59375 32.390625 
Q 11.140625 37.109375 17.671875 38.8125 
z
M 15.921875 53.71875 
Q 15.921875 48.640625 19.1875 45.40625 
Q 22.46875 42.1875 27.6875 42.1875 
Q 32.765625 42.1875 36.015625 45.375 
Q 39.265625 48.578125 39.265625 53.21875 
Q 39.265625 58.0625 35.90625 61.359375 
Q 32.5625 64.65625 27.59375 64.65625 
Q 22.5625 64.65625 19.234375 61.421875 
Q 15.921875 58.203125 15.921875 53.71875 
z
M 13.09375 20.65625 
Q 13.09375 16.890625 14.875 13.375 
Q 16.65625 9.859375 20.171875 7.921875 
Q 23.6875 6 27.734375 6 
Q 34.03125 6 38.125 10.046875 
Q 42.234375 14.109375 42.234375 20.359375 
Q 42.234375 26.703125 38.015625 30.859375 
Q 33.796875 35.015625 27.4375 35.015625 
Q 21.234375 35.015625 17.15625 30.90625 
Q 13.09375 26.8125 13.09375 20.65625 
z
" id="ArialMT-56"/>
      </defs>
      <g style="fill:#262626;" transform="translate(77.121965 511.1565)scale(0.16 -0.16)">
       <use xlink:href="#ArialMT-49"/>
       <use x="55.615234" xlink:href="#ArialMT-48"/>
       <use x="111.230469" xlink:href="#ArialMT-53"/>
       <use x="166.845703" xlink:href="#ArialMT-54"/>
       <use x="222.460938" xlink:href="#ArialMT-45"/>
       <use x="255.761719" xlink:href="#ArialMT-49"/>
       <use x="311.376953" xlink:href="#ArialMT-56"/>
       <use x="366.992188" xlink:href="#ArialMT-54"/>
       <use x="422.607422" xlink:href="#ArialMT-45"/>
       <use x="455.908203" xlink:href="#ArialMT-49"/>
      </g>
     </g>
    </g>
    <g id="xtick_2">
     <g id="text_2">
      <!-- 1927-261-1 -->
      <defs>
       <path d="M 5.46875 16.546875 
L 13.921875 17.328125 
Q 14.984375 11.375 18.015625 8.6875 
Q 21.046875 6 25.78125 6 
Q 29.828125 6 32.875 7.859375 
Q 35.9375 9.71875 37.890625 12.8125 
Q 39.84375 15.921875 41.15625 21.1875 
Q 42.484375 26.46875 42.484375 31.9375 
Q 42.484375 32.515625 42.4375 33.6875 
Q 39.796875 29.5 35.234375 26.875 
Q 30.671875 24.265625 25.34375 24.265625 
Q 16.453125 24.265625 10.296875 30.703125 
Q 4.15625 37.15625 4.15625 47.703125 
Q 4.15625 58.59375 10.578125 65.234375 
Q 17 71.875 26.65625 71.875 
Q 33.640625 71.875 39.421875 68.109375 
Q 45.21875 64.359375 48.21875 57.390625 
Q 51.21875 50.4375 51.21875 37.25 
Q 51.21875 23.53125 48.234375 15.40625 
Q 45.265625 7.28125 39.375 3.03125 
Q 33.5 -1.21875 25.59375 -1.21875 
Q 17.1875 -1.21875 11.859375 3.4375 
Q 6.546875 8.109375 5.46875 16.546875 
z
M 41.453125 48.140625 
Q 41.453125 55.71875 37.421875 60.15625 
Q 33.40625 64.59375 27.734375 64.59375 
Q 21.875 64.59375 17.53125 59.8125 
Q 13.1875 55.03125 13.1875 47.40625 
Q 13.1875 40.578125 17.3125 36.296875 
Q 21.4375 32.03125 27.484375 32.03125 
Q 33.59375 32.03125 37.515625 36.296875 
Q 41.453125 40.578125 41.453125 48.140625 
z
" id="ArialMT-57"/>
       <path d="M 50.34375 8.453125 
L 50.34375 0 
L 3.03125 0 
Q 2.9375 3.171875 4.046875 6.109375 
Q 5.859375 10.9375 9.828125 15.625 
Q 13.8125 20.3125 21.34375 26.46875 
Q 33.015625 36.03125 37.109375 41.625 
Q 41.21875 47.21875 41.21875 52.203125 
Q 41.21875 57.421875 37.46875 61 
Q 33.734375 64.59375 27.734375 64.59375 
Q 21.390625 64.59375 17.578125 60.78125 
Q 13.765625 56.984375 13.71875 50.25 
L 4.6875 51.171875 
Q 5.609375 61.28125 11.65625 66.578125 
Q 17.71875 71.875 27.9375 71.875 
Q 38.234375 71.875 44.234375 66.15625 
Q 50.25 60.453125 50.25 52 
Q 50.25 47.703125 48.484375 43.546875 
Q 46.734375 39.40625 42.65625 34.8125 
Q 38.578125 30.21875 29.109375 22.21875 
Q 21.1875 15.578125 18.9375 13.203125 
Q 16.703125 10.84375 15.234375 8.453125 
z
" id="ArialMT-50"/>
       <path d="M 4.734375 62.203125 
L 4.734375 70.65625 
L 51.078125 70.65625 
L 51.078125 63.8125 
Q 44.234375 56.546875 37.515625 44.484375 
Q 30.8125 32.421875 27.15625 19.671875 
Q 24.515625 10.6875 23.78125 0 
L 14.75 0 
Q 14.890625 8.453125 18.0625 20.40625 
Q 21.234375 32.375 27.171875 43.484375 
Q 33.109375 54.59375 39.796875 62.203125 
z
" id="ArialMT-55"/>
      </defs>
      <g style="fill:#262626;" transform="translate(188.215894 511.1565)scale(0.16 -0.16)">
       <use xlink:href="#ArialMT-49"/>
       <use x="55.615234" xlink:href="#ArialMT-57"/>
       <use x="111.230469" xlink:href="#ArialMT-50"/>
       <use x="166.845703" xlink:href="#ArialMT-55"/>
       <use x="222.460938" xlink:href="#ArialMT-45"/>
       <use x="255.761719" xlink:href="#ArialMT-50"/>
       <use x="311.376953" xlink:href="#ArialMT-54"/>
       <use x="366.992188" xlink:href="#ArialMT-49"/>
       <use x="422.607422" xlink:href="#ArialMT-45"/>
       <use x="455.908203" xlink:href="#ArialMT-49"/>
      </g>
     </g>
    </g>
    <g id="xtick_3">
     <g id="text_3">
      <!-- 1928-281-1 -->
      <g style="fill:#262626;" transform="translate(299.309824 511.1565)scale(0.16 -0.16)">
       <use xlink:href="#ArialMT-49"/>
       <use x="55.615234" xlink:href="#ArialMT-57"/>
       <use x="111.230469" xlink:href="#ArialMT-50"/>
       <use x="166.845703" xlink:href="#ArialMT-56"/>
       <use x="222.460938" xlink:href="#ArialMT-45"/>
       <use x="255.761719" xlink:href="#ArialMT-50"/>
       <use x="311.376953" xlink:href="#ArialMT-56"/>
       <use x="366.992188" xlink:href="#ArialMT-49"/>
       <use x="422.607422" xlink:href="#ArialMT-45"/>
       <use x="455.908203" xlink:href="#ArialMT-49"/>
      </g>
     </g>
    </g>
    <g id="xtick_4">
     <g id="text_4">
      <!-- 686-1 -->
      <g style="fill:#262626;" transform="translate(430.862504 511.1565)scale(0.16 -0.16)">
       <use xlink:href="#ArialMT-54"/>
       <use x="55.615234" xlink:href="#ArialMT-56"/>
       <use x="111.230469" xlink:href="#ArialMT-54"/>
       <use x="166.845703" xlink:href="#ArialMT-45"/>
       <use x="200.146484" xlink:href="#ArialMT-49"/>
      </g>
     </g>
    </g>
    <g id="xtick_5">
     <g id="text_5">
      <!-- 686-2 -->
      <g style="fill:#262626;" transform="translate(541.956433 511.1565)scale(0.16 -0.16)">
       <use xlink:href="#ArialMT-54"/>
       <use x="55.615234" xlink:href="#ArialMT-56"/>
       <use x="111.230469" xlink:href="#ArialMT-54"/>
       <use x="166.845703" xlink:href="#ArialMT-45"/>
       <use x="200.146484" xlink:href="#ArialMT-50"/>
      </g>
     </g>
    </g>
    <g id="text_6">
     <!-- Counter id -->
     <defs>
      <path d="M 58.796875 25.09375 
L 68.265625 22.703125 
Q 65.28125 11.03125 57.546875 4.90625 
Q 49.8125 -1.21875 38.625 -1.21875 
Q 27.046875 -1.21875 19.796875 3.484375 
Q 12.546875 8.203125 8.765625 17.140625 
Q 4.984375 26.078125 4.984375 36.328125 
Q 4.984375 47.515625 9.25 55.828125 
Q 13.53125 64.15625 21.40625 68.46875 
Q 29.296875 72.796875 38.765625 72.796875 
Q 49.515625 72.796875 56.828125 67.328125 
Q 64.15625 61.859375 67.046875 51.953125 
L 57.71875 49.75 
Q 55.21875 57.5625 50.484375 61.125 
Q 45.75 64.703125 38.578125 64.703125 
Q 30.328125 64.703125 24.78125 60.734375 
Q 19.234375 56.78125 16.984375 50.109375 
Q 14.75 43.453125 14.75 36.375 
Q 14.75 27.25 17.40625 20.4375 
Q 20.0625 13.625 25.671875 10.25 
Q 31.296875 6.890625 37.84375 6.890625 
Q 45.796875 6.890625 51.3125 11.46875 
Q 56.84375 16.0625 58.796875 25.09375 
z
" id="ArialMT-67"/>
      <path d="M 3.328125 25.921875 
Q 3.328125 40.328125 11.328125 47.265625 
Q 18.015625 53.03125 27.640625 53.03125 
Q 38.328125 53.03125 45.109375 46.015625 
Q 51.90625 39.015625 51.90625 26.65625 
Q 51.90625 16.65625 48.90625 10.90625 
Q 45.90625 5.171875 40.15625 2 
Q 34.421875 -1.171875 27.640625 -1.171875 
Q 16.75 -1.171875 10.03125 5.8125 
Q 3.328125 12.796875 3.328125 25.921875 
z
M 12.359375 25.921875 
Q 12.359375 15.96875 16.703125 11.015625 
Q 21.046875 6.0625 27.640625 6.0625 
Q 34.1875 6.0625 38.53125 11.03125 
Q 42.875 16.015625 42.875 26.21875 
Q 42.875 35.84375 38.5 40.796875 
Q 34.125 45.75 27.640625 45.75 
Q 21.046875 45.75 16.703125 40.8125 
Q 12.359375 35.890625 12.359375 25.921875 
z
" id="ArialMT-111"/>
      <path d="M 40.578125 0 
L 40.578125 7.625 
Q 34.515625 -1.171875 24.125 -1.171875 
Q 19.53125 -1.171875 15.546875 0.578125 
Q 11.578125 2.34375 9.640625 5 
Q 7.71875 7.671875 6.9375 11.53125 
Q 6.390625 14.109375 6.390625 19.734375 
L 6.390625 51.859375 
L 15.1875 51.859375 
L 15.1875 23.09375 
Q 15.1875 16.21875 15.71875 13.8125 
Q 16.546875 10.359375 19.234375 8.375 
Q 21.921875 6.390625 25.875 6.390625 
Q 29.828125 6.390625 33.296875 8.421875 
Q 36.765625 10.453125 38.203125 13.9375 
Q 39.65625 17.4375 39.65625 24.078125 
L 39.65625 51.859375 
L 48.4375 51.859375 
L 48.4375 0 
z
" id="ArialMT-117"/>
      <path d="M 6.59375 0 
L 6.59375 51.859375 
L 14.5 51.859375 
L 14.5 44.484375 
Q 20.21875 53.03125 31 53.03125 
Q 35.6875 53.03125 39.625 51.34375 
Q 43.5625 49.65625 45.515625 46.921875 
Q 47.46875 44.1875 48.25 40.4375 
Q 48.734375 37.984375 48.734375 31.890625 
L 48.734375 0 
L 39.9375 0 
L 39.9375 31.546875 
Q 39.9375 36.921875 38.90625 39.578125 
Q 37.890625 42.234375 35.28125 43.8125 
Q 32.671875 45.40625 29.15625 45.40625 
Q 23.53125 45.40625 19.453125 41.84375 
Q 15.375 38.28125 15.375 28.328125 
L 15.375 0 
z
" id="ArialMT-110"/>
      <path d="M 25.78125 7.859375 
L 27.046875 0.09375 
Q 23.34375 -0.6875 20.40625 -0.6875 
Q 15.625 -0.6875 12.984375 0.828125 
Q 10.359375 2.34375 9.28125 4.8125 
Q 8.203125 7.28125 8.203125 15.1875 
L 8.203125 45.015625 
L 1.765625 45.015625 
L 1.765625 51.859375 
L 8.203125 51.859375 
L 8.203125 64.703125 
L 16.9375 69.96875 
L 16.9375 51.859375 
L 25.78125 51.859375 
L 25.78125 45.015625 
L 16.9375 45.015625 
L 16.9375 14.703125 
Q 16.9375 10.9375 17.40625 9.859375 
Q 17.875 8.796875 18.921875 8.15625 
Q 19.96875 7.515625 21.921875 7.515625 
Q 23.390625 7.515625 25.78125 7.859375 
z
" id="ArialMT-116"/>
      <path d="M 42.09375 16.703125 
L 51.171875 15.578125 
Q 49.03125 7.625 43.21875 3.21875 
Q 37.40625 -1.171875 28.375 -1.171875 
Q 17 -1.171875 10.328125 5.828125 
Q 3.65625 12.84375 3.65625 25.484375 
Q 3.65625 38.578125 10.390625 45.796875 
Q 17.140625 53.03125 27.875 53.03125 
Q 38.28125 53.03125 44.875 45.953125 
Q 51.46875 38.875 51.46875 26.03125 
Q 51.46875 25.25 51.421875 23.6875 
L 12.75 23.6875 
Q 13.234375 15.140625 17.578125 10.59375 
Q 21.921875 6.0625 28.421875 6.0625 
Q 33.25 6.0625 36.671875 8.59375 
Q 40.09375 11.140625 42.09375 16.703125 
z
M 13.234375 30.90625 
L 42.1875 30.90625 
Q 41.609375 37.453125 38.875 40.71875 
Q 34.671875 45.796875 27.984375 45.796875 
Q 21.921875 45.796875 17.796875 41.75 
Q 13.671875 37.703125 13.234375 30.90625 
z
" id="ArialMT-101"/>
      <path d="M 6.5 0 
L 6.5 51.859375 
L 14.40625 51.859375 
L 14.40625 44 
Q 17.4375 49.515625 20 51.265625 
Q 22.5625 53.03125 25.640625 53.03125 
Q 30.078125 53.03125 34.671875 50.203125 
L 31.640625 42.046875 
Q 28.421875 43.953125 25.203125 43.953125 
Q 22.3125 43.953125 20.015625 42.21875 
Q 17.71875 40.484375 16.75 37.40625 
Q 15.28125 32.71875 15.28125 27.15625 
L 15.28125 0 
z
" id="ArialMT-114"/>
      <path id="ArialMT-32"/>
      <path d="M 6.640625 61.46875 
L 6.640625 71.578125 
L 15.4375 71.578125 
L 15.4375 61.46875 
z
M 6.640625 0 
L 6.640625 51.859375 
L 15.4375 51.859375 
L 15.4375 0 
z
" id="ArialMT-105"/>
      <path d="M 40.234375 0 
L 40.234375 6.546875 
Q 35.296875 -1.171875 25.734375 -1.171875 
Q 19.53125 -1.171875 14.328125 2.25 
Q 9.125 5.671875 6.265625 11.796875 
Q 3.421875 17.921875 3.421875 25.875 
Q 3.421875 33.640625 6 39.96875 
Q 8.59375 46.296875 13.765625 49.65625 
Q 18.953125 53.03125 25.34375 53.03125 
Q 30.03125 53.03125 33.6875 51.046875 
Q 37.359375 49.078125 39.65625 45.90625 
L 39.65625 71.578125 
L 48.390625 71.578125 
L 48.390625 0 
z
M 12.453125 25.875 
Q 12.453125 15.921875 16.640625 10.984375 
Q 20.84375 6.0625 26.5625 6.0625 
Q 32.328125 6.0625 36.34375 10.765625 
Q 40.375 15.484375 40.375 25.140625 
Q 40.375 35.796875 36.265625 40.765625 
Q 32.171875 45.75 26.171875 45.75 
Q 20.3125 45.75 16.375 40.96875 
Q 12.453125 36.1875 12.453125 25.875 
z
" id="ArialMT-100"/>
     </defs>
     <g style="fill:#262626;" transform="translate(303.319824 529.789)scale(0.16 -0.16)">
      <use xlink:href="#ArialMT-67"/>
      <use x="72.216797" xlink:href="#ArialMT-111"/>
      <use x="127.832031" xlink:href="#ArialMT-117"/>
      <use x="183.447266" xlink:href="#ArialMT-110"/>
      <use x="239.0625" xlink:href="#ArialMT-116"/>
      <use x="266.845703" xlink:href="#ArialMT-101"/>
      <use x="322.460938" xlink:href="#ArialMT-114"/>
      <use x="355.761719" xlink:href="#ArialMT-32"/>
      <use x="383.544922" xlink:href="#ArialMT-105"/>
      <use x="405.761719" xlink:href="#ArialMT-100"/>
     </g>
    </g>
   </g>
   <g id="matplotlib.axis_2">
    <g id="ytick_1">
     <g id="text_7">
      <!-- 0 -->
      <g style="fill:#262626;" transform="translate(46.595 476.361886)scale(0.16 -0.16)">
       <use xlink:href="#ArialMT-48"/>
      </g>
     </g>
    </g>
    <g id="ytick_2">
     <g id="text_8">
      <!-- 100 -->
      <g style="fill:#262626;" transform="translate(28.8 401.043239)scale(0.16 -0.16)">
       <use xlink:href="#ArialMT-49"/>
       <use x="55.615234" xlink:href="#ArialMT-48"/>
       <use x="111.230469" xlink:href="#ArialMT-48"/>
      </g>
     </g>
    </g>
    <g id="ytick_3">
     <g id="text_9">
      <!-- 200 -->
      <g style="fill:#262626;" transform="translate(28.8 325.724592)scale(0.16 -0.16)">
       <use xlink:href="#ArialMT-50"/>
       <use x="55.615234" xlink:href="#ArialMT-48"/>
       <use x="111.230469" xlink:href="#ArialMT-48"/>
      </g>
     </g>
    </g>
    <g id="ytick_4">
     <g id="text_10">
      <!-- 300 -->
      <defs>
       <path d="M 4.203125 18.890625 
L 12.984375 20.0625 
Q 14.5 12.59375 18.140625 9.296875 
Q 21.78125 6 27 6 
Q 33.203125 6 37.46875 10.296875 
Q 41.75 14.59375 41.75 20.953125 
Q 41.75 27 37.796875 30.921875 
Q 33.84375 34.859375 27.734375 34.859375 
Q 25.25 34.859375 21.53125 33.890625 
L 22.515625 41.609375 
Q 23.390625 41.5 23.921875 41.5 
Q 29.546875 41.5 34.03125 44.421875 
Q 38.53125 47.359375 38.53125 53.46875 
Q 38.53125 58.296875 35.25 61.46875 
Q 31.984375 64.65625 26.8125 64.65625 
Q 21.6875 64.65625 18.265625 61.421875 
Q 14.84375 58.203125 13.875 51.765625 
L 5.078125 53.328125 
Q 6.6875 62.15625 12.390625 67.015625 
Q 18.109375 71.875 26.609375 71.875 
Q 32.46875 71.875 37.390625 69.359375 
Q 42.328125 66.84375 44.9375 62.5 
Q 47.5625 58.15625 47.5625 53.265625 
Q 47.5625 48.640625 45.0625 44.828125 
Q 42.578125 41.015625 37.703125 38.765625 
Q 44.046875 37.3125 47.5625 32.6875 
Q 51.078125 28.078125 51.078125 21.140625 
Q 51.078125 11.765625 44.234375 5.25 
Q 37.40625 -1.265625 26.953125 -1.265625 
Q 17.53125 -1.265625 11.296875 4.34375 
Q 5.078125 9.96875 4.203125 18.890625 
z
" id="ArialMT-51"/>
      </defs>
      <g style="fill:#262626;" transform="translate(28.8 250.405945)scale(0.16 -0.16)">
       <use xlink:href="#ArialMT-51"/>
       <use x="55.615234" xlink:href="#ArialMT-48"/>
       <use x="111.230469" xlink:href="#ArialMT-48"/>
      </g>
     </g>
    </g>
    <g id="ytick_5">
     <g id="text_11">
      <!-- 400 -->
      <defs>
       <path d="M 32.328125 0 
L 32.328125 17.140625 
L 1.265625 17.140625 
L 1.265625 25.203125 
L 33.9375 71.578125 
L 41.109375 71.578125 
L 41.109375 25.203125 
L 50.78125 25.203125 
L 50.78125 17.140625 
L 41.109375 17.140625 
L 41.109375 0 
z
M 32.328125 25.203125 
L 32.328125 57.46875 
L 9.90625 25.203125 
z
" id="ArialMT-52"/>
      </defs>
      <g style="fill:#262626;" transform="translate(28.8 175.087297)scale(0.16 -0.16)">
       <use xlink:href="#ArialMT-52"/>
       <use x="55.615234" xlink:href="#ArialMT-48"/>
       <use x="111.230469" xlink:href="#ArialMT-48"/>
      </g>
     </g>
    </g>
    <g id="ytick_6">
     <g id="text_12">
      <!-- 500 -->
      <g style="fill:#262626;" transform="translate(28.8 99.76865)scale(0.16 -0.16)">
       <use xlink:href="#ArialMT-53"/>
       <use x="55.615234" xlink:href="#ArialMT-48"/>
       <use x="111.230469" xlink:href="#ArialMT-48"/>
      </g>
     </g>
    </g>
    <g id="ytick_7">
     <g id="text_13">
      <!-- 600 -->
      <g style="fill:#262626;" transform="translate(28.8 24.450003)scale(0.16 -0.16)">
       <use xlink:href="#ArialMT-54"/>
       <use x="55.615234" xlink:href="#ArialMT-48"/>
       <use x="111.230469" xlink:href="#ArialMT-48"/>
      </g>
     </g>
    </g>
    <g id="text_14">
     <!-- Count [$h^{-1}$] -->
     <defs>
      <path d="M 6.78125 -19.875 
L 6.78125 71.578125 
L 26.171875 71.578125 
L 26.171875 64.3125 
L 15.578125 64.3125 
L 15.578125 -12.59375 
L 26.171875 -12.59375 
L 26.171875 -19.875 
z
" id="ArialMT-91"/>
      <path d="M 55.71875 33.015625 
L 49.3125 0 
L 40.28125 0 
L 46.6875 32.671875 
Q 47.125 34.96875 47.359375 36.71875 
Q 47.609375 38.484375 47.609375 39.5 
Q 47.609375 43.609375 45.015625 45.890625 
Q 42.4375 48.1875 37.796875 48.1875 
Q 30.5625 48.1875 25.265625 43.296875 
Q 19.96875 38.421875 18.40625 30.328125 
L 12.5 0 
L 3.515625 0 
L 18.3125 75.984375 
L 27.296875 75.984375 
L 21.484375 46.09375 
Q 24.90625 50.6875 30.21875 53.34375 
Q 35.546875 56 41.40625 56 
Q 48.640625 56 52.609375 52.09375 
Q 56.59375 48.1875 56.59375 41.109375 
Q 56.59375 39.359375 56.375 37.359375 
Q 56.15625 35.359375 55.71875 33.015625 
z
" id="DejaVuSans-Oblique-104"/>
      <path d="M 10.59375 35.5 
L 73.1875 35.5 
L 73.1875 27.203125 
L 10.59375 27.203125 
z
" id="DejaVuSans-8722"/>
      <path d="M 12.40625 8.296875 
L 28.515625 8.296875 
L 28.515625 63.921875 
L 10.984375 60.40625 
L 10.984375 69.390625 
L 28.421875 72.90625 
L 38.28125 72.90625 
L 38.28125 8.296875 
L 54.390625 8.296875 
L 54.390625 0 
L 12.40625 0 
z
" id="DejaVuSans-49"/>
      <path d="M 21.296875 -19.875 
L 1.90625 -19.875 
L 1.90625 -12.59375 
L 12.5 -12.59375 
L 12.5 64.3125 
L 1.90625 64.3125 
L 1.90625 71.578125 
L 21.296875 71.578125 
z
" id="ArialMT-93"/>
     </defs>
     <g style="fill:#262626;" transform="translate(21.6 292.112)rotate(-90)scale(0.16 -0.16)">
      <use transform="translate(0 0.684375)" xlink:href="#ArialMT-67"/>
      <use transform="translate(72.216797 0.684375)" xlink:href="#ArialMT-111"/>
      <use transform="translate(127.832031 0.684375)" xlink:href="#ArialMT-117"/>
      <use transform="translate(183.447266 0.684375)" xlink:href="#ArialMT-110"/>
      <use transform="translate(239.0625 0.684375)" xlink:href="#ArialMT-116"/>
      <use transform="translate(266.845703 0.684375)" xlink:href="#ArialMT-32"/>
      <use transform="translate(294.628906 0.684375)" xlink:href="#ArialMT-91"/>
      <use transform="translate(322.412109 0.684375)" xlink:href="#DejaVuSans-Oblique-104"/>
      <use transform="translate(393.238724 38.965625)scale(0.7)" xlink:href="#DejaVuSans-8722"/>
      <use transform="translate(451.891068 38.965625)scale(0.7)" xlink:href="#DejaVuSans-49"/>
      <use transform="translate(499.161576 0.684375)" xlink:href="#ArialMT-93"/>
     </g>
    </g>
   </g>
   <g id="PolyCollection_1">
    <defs>
     <path d="M 113.416311 -69.533364 
L 78.225047 -69.533364 
L 76.139452 -73.474279 
L 74.629762 -77.415194 
L 73.783949 -81.356109 
L 73.601893 -85.297024 
L 74.005682 -89.237939 
L 74.865027 -93.178854 
L 76.028525 -97.119769 
L 77.351482 -101.060684 
L 78.714267 -105.001599 
L 80.029668 -108.942514 
L 81.241428 -112.883429 
L 82.317915 -116.824345 
L 83.244715 -120.76526 
L 84.018525 -124.706175 
L 84.643191 -128.64709 
L 85.127584 -132.588005 
L 85.484542 -136.52892 
L 85.730175 -140.469835 
L 85.88306 -144.41075 
L 85.96317 -148.351665 
L 85.990526 -152.29258 
L 85.983709 -156.233495 
L 85.95848 -160.17441 
L 85.926798 -164.115325 
L 85.896513 -168.056241 
L 85.871874 -171.997156 
L 85.854726 -175.938071 
L 85.846056 -179.878986 
L 85.847392 -183.819901 
L 85.861632 -187.760816 
L 85.893063 -191.701731 
L 85.946625 -195.642646 
L 86.026746 -199.583561 
L 86.13619 -203.524476 
L 86.275331 -207.465391 
L 86.44205 -211.406306 
L 86.632191 -215.347221 
L 86.840345 -219.288137 
L 87.060658 -223.229052 
L 87.287465 -227.169967 
L 87.515743 -231.110882 
L 87.74144 -235.051797 
L 87.961778 -238.992712 
L 88.175469 -242.933627 
L 88.382697 -246.874542 
L 88.584651 -250.815457 
L 88.782556 -254.756372 
L 88.976343 -258.697287 
L 89.163381 -262.638202 
L 89.337758 -266.579117 
L 89.490543 -270.520033 
L 89.611164 -274.460948 
L 89.689648 -278.401863 
L 89.719218 -282.342778 
L 89.698552 -286.283693 
L 89.633167 -290.224608 
L 89.535524 -294.165523 
L 89.423811 -298.106438 
L 89.319577 -302.047353 
L 89.244622 -305.988268 
L 89.217709 -309.929183 
L 89.251757 -313.870098 
L 89.35211 -317.811013 
L 89.516298 -321.751929 
L 89.735334 -325.692844 
L 89.996169 -329.633759 
L 90.28461 -333.574674 
L 90.587884 -337.515589 
L 90.89624 -341.456504 
L 91.203344 -345.397419 
L 91.505661 -349.338334 
L 91.801284 -353.279249 
L 92.088752 -357.220164 
L 92.366226 -361.161079 
L 92.631186 -365.101994 
L 92.88059 -369.042909 
L 93.111326 -372.983825 
L 93.320778 -376.92474 
L 93.507369 -380.865655 
L 93.670983 -384.80657 
L 93.81319 -388.747485 
L 93.937227 -392.6884 
L 94.047675 -396.629315 
L 94.149876 -400.57023 
L 94.249162 -404.511145 
L 94.350071 -408.45206 
L 94.455708 -412.392975 
L 94.56741 -416.33389 
L 94.684752 -420.274805 
L 94.805849 -424.215721 
L 94.927861 -428.156636 
L 95.04755 -432.097551 
L 95.161799 -436.038466 
L 95.268001 -439.979381 
L 95.364297 -443.920296 
L 95.449649 -447.861211 
L 95.523776 -451.802126 
L 95.586996 -455.743041 
L 95.640023 -459.683956 
L 96.001335 -459.683956 
L 96.001335 -459.683956 
L 96.054362 -455.743041 
L 96.117581 -451.802126 
L 96.191708 -447.861211 
L 96.27706 -443.920296 
L 96.373357 -439.979381 
L 96.479559 -436.038466 
L 96.593808 -432.097551 
L 96.713497 -428.156636 
L 96.835509 -424.215721 
L 96.956606 -420.274805 
L 97.073948 -416.33389 
L 97.18565 -412.392975 
L 97.291287 -408.45206 
L 97.392195 -404.511145 
L 97.491482 -400.57023 
L 97.593683 -396.629315 
L 97.704131 -392.6884 
L 97.828167 -388.747485 
L 97.970375 -384.80657 
L 98.133989 -380.865655 
L 98.32058 -376.92474 
L 98.530032 -372.983825 
L 98.760768 -369.042909 
L 99.010172 -365.101994 
L 99.275132 -361.161079 
L 99.552605 -357.220164 
L 99.840073 -353.279249 
L 100.135697 -349.338334 
L 100.438014 -345.397419 
L 100.745118 -341.456504 
L 101.053474 -337.515589 
L 101.356748 -333.574674 
L 101.645189 -329.633759 
L 101.906024 -325.692844 
L 102.12506 -321.751929 
L 102.289248 -317.811013 
L 102.389601 -313.870098 
L 102.423649 -309.929183 
L 102.396736 -305.988268 
L 102.32178 -302.047353 
L 102.217547 -298.106438 
L 102.105834 -294.165523 
L 102.008191 -290.224608 
L 101.942805 -286.283693 
L 101.92214 -282.342778 
L 101.951709 -278.401863 
L 102.030194 -274.460948 
L 102.150815 -270.520033 
L 102.3036 -266.579117 
L 102.477976 -262.638202 
L 102.665014 -258.697287 
L 102.858802 -254.756372 
L 103.056707 -250.815457 
L 103.258661 -246.874542 
L 103.465889 -242.933627 
L 103.67958 -238.992712 
L 103.899918 -235.051797 
L 104.125615 -231.110882 
L 104.353892 -227.169967 
L 104.5807 -223.229052 
L 104.801013 -219.288137 
L 105.009167 -215.347221 
L 105.199308 -211.406306 
L 105.366026 -207.465391 
L 105.505168 -203.524476 
L 105.614612 -199.583561 
L 105.694733 -195.642646 
L 105.748295 -191.701731 
L 105.779726 -187.760816 
L 105.793966 -183.819901 
L 105.795301 -179.878986 
L 105.786631 -175.938071 
L 105.769484 -171.997156 
L 105.744845 -168.056241 
L 105.71456 -164.115325 
L 105.682877 -160.17441 
L 105.657649 -156.233495 
L 105.650832 -152.29258 
L 105.678188 -148.351665 
L 105.758298 -144.41075 
L 105.911183 -140.469835 
L 106.156815 -136.52892 
L 106.513774 -132.588005 
L 106.998167 -128.64709 
L 107.622833 -124.706175 
L 108.396642 -120.76526 
L 109.323442 -116.824345 
L 110.39993 -112.883429 
L 111.611689 -108.942514 
L 112.927091 -105.001599 
L 114.289876 -101.060684 
L 115.612833 -97.119769 
L 116.776331 -93.178854 
L 117.635676 -89.237939 
L 118.039465 -85.297024 
L 117.857409 -81.356109 
L 117.011596 -77.415194 
L 115.501906 -73.474279 
L 113.416311 -69.533364 
z
" id="m517e9a1e83" style="stroke:#141414;stroke-width:1.5;"/>
    </defs>
    <g clip-path="url(#p4f9efd946f)">
     <use style="fill:#083c1d;stroke:#141414;stroke-width:1.5;" x="0" xlink:href="#m517e9a1e83" y="540.169"/>
    </g>
   </g>
   <g id="PolyCollection_2">
    <defs>
     <path d="M 153.447533 -69.533364 
L 127.068969 -69.533364 
L 124.768781 -73.527534 
L 122.756597 -77.521705 
L 121.158257 -81.515876 
L 120.036738 -85.510046 
L 119.388375 -89.504217 
L 119.155476 -93.498388 
L 119.249563 -97.492558 
L 119.57688 -101.486729 
L 120.058509 -105.4809 
L 120.640685 -109.47507 
L 121.294885 -113.469241 
L 122.0105 -117.463412 
L 122.784414 -121.457583 
L 123.611641 -125.451753 
L 124.479762 -129.445924 
L 125.368001 -133.440095 
L 126.250092 -137.434265 
L 127.099032 -141.428436 
L 127.891652 -145.422607 
L 128.611504 -149.416777 
L 129.249551 -153.410948 
L 129.803053 -157.405119 
L 130.273611 -161.399289 
L 130.665332 -165.39346 
L 130.983717 -169.387631 
L 131.23538 -173.381801 
L 131.4283 -177.375972 
L 131.572114 -181.370143 
L 131.67804 -185.364314 
L 131.758162 -189.358484 
L 131.824178 -193.352655 
L 131.885932 -197.346826 
L 131.950249 -201.340996 
L 132.020496 -205.335167 
L 132.097053 -209.329338 
L 132.178486 -213.323508 
L 132.262961 -217.317679 
L 132.349362 -221.31185 
L 132.437772 -225.30602 
L 132.529265 -229.300191 
L 132.625273 -233.294362 
L 132.726885 -237.288532 
L 132.834409 -241.282703 
L 132.947294 -245.276874 
L 133.064333 -249.271045 
L 133.183928 -253.265215 
L 133.304251 -257.259386 
L 133.423238 -261.253557 
L 133.538513 -265.247727 
L 133.647373 -269.241898 
L 133.746908 -273.236069 
L 133.834282 -277.230239 
L 133.907085 -281.22441 
L 133.963765 -285.218581 
L 134.004106 -289.212751 
L 134.029791 -293.206922 
L 134.044916 -297.201093 
L 134.056241 -301.195263 
L 134.072874 -305.189434 
L 134.105198 -309.183605 
L 134.163158 -313.177775 
L 134.2543 -317.171946 
L 134.382193 -321.166117 
L 134.545741 -325.160288 
L 134.739638 -329.154458 
L 134.955774 -333.148629 
L 135.185111 -337.1428 
L 135.419462 -341.13697 
L 135.652693 -345.131141 
L 135.881167 -349.125312 
L 136.103446 -353.119482 
L 136.31952 -357.113653 
L 136.529856 -361.107824 
L 136.734587 -365.101994 
L 136.933053 -369.096165 
L 137.123822 -373.090336 
L 137.305118 -377.084506 
L 137.475495 -381.078677 
L 137.634502 -385.072848 
L 137.783055 -389.067019 
L 137.9234 -393.061189 
L 138.058646 -397.05536 
L 138.192027 -401.049531 
L 138.326145 -405.043701 
L 138.462411 -409.037872 
L 138.60084 -413.032043 
L 138.740224 -417.026213 
L 138.878608 -421.020384 
L 139.013868 -425.014555 
L 139.14422 -429.008725 
L 139.268507 -433.002896 
L 139.386214 -436.997067 
L 139.497269 -440.991237 
L 139.601757 -444.985408 
L 139.699666 -448.979579 
L 139.790748 -452.973749 
L 139.874503 -456.96792 
L 139.950268 -460.962091 
L 140.017363 -464.956262 
L 140.499139 -464.956262 
L 140.499139 -464.956262 
L 140.566233 -460.962091 
L 140.641999 -456.96792 
L 140.725754 -452.973749 
L 140.816835 -448.979579 
L 140.914745 -444.985408 
L 141.019233 -440.991237 
L 141.130288 -436.997067 
L 141.247994 -433.002896 
L 141.372282 -429.008725 
L 141.502633 -425.014555 
L 141.637893 -421.020384 
L 141.776277 -417.026213 
L 141.915662 -413.032043 
L 142.05409 -409.037872 
L 142.190356 -405.043701 
L 142.324475 -401.049531 
L 142.457856 -397.05536 
L 142.593101 -393.061189 
L 142.733447 -389.067019 
L 142.882 -385.072848 
L 143.041006 -381.078677 
L 143.211384 -377.084506 
L 143.392679 -373.090336 
L 143.583448 -369.096165 
L 143.781915 -365.101994 
L 143.986645 -361.107824 
L 144.196982 -357.113653 
L 144.413056 -353.119482 
L 144.635335 -349.125312 
L 144.863808 -345.131141 
L 145.09704 -341.13697 
L 145.33139 -337.1428 
L 145.560727 -333.148629 
L 145.776863 -329.154458 
L 145.970761 -325.160288 
L 146.134309 -321.166117 
L 146.262201 -317.171946 
L 146.353344 -313.177775 
L 146.411303 -309.183605 
L 146.443628 -305.189434 
L 146.46026 -301.195263 
L 146.471586 -297.201093 
L 146.48671 -293.206922 
L 146.512395 -289.212751 
L 146.552737 -285.218581 
L 146.609416 -281.22441 
L 146.68222 -277.230239 
L 146.769593 -273.236069 
L 146.869129 -269.241898 
L 146.977988 -265.247727 
L 147.093264 -261.253557 
L 147.21225 -257.259386 
L 147.332573 -253.265215 
L 147.452169 -249.271045 
L 147.569208 -245.276874 
L 147.682093 -241.282703 
L 147.789617 -237.288532 
L 147.891229 -233.294362 
L 147.987236 -229.300191 
L 148.078729 -225.30602 
L 148.167139 -221.31185 
L 148.253541 -217.317679 
L 148.338016 -213.323508 
L 148.419449 -209.329338 
L 148.496006 -205.335167 
L 148.566253 -201.340996 
L 148.63057 -197.346826 
L 148.692324 -193.352655 
L 148.75834 -189.358484 
L 148.838462 -185.364314 
L 148.944387 -181.370143 
L 149.088202 -177.375972 
L 149.281121 -173.381801 
L 149.532785 -169.387631 
L 149.85117 -165.39346 
L 150.24289 -161.399289 
L 150.713448 -157.405119 
L 151.26695 -153.410948 
L 151.904997 -149.416777 
L 152.62485 -145.422607 
L 153.417469 -141.428436 
L 154.266409 -137.434265 
L 155.148501 -133.440095 
L 156.03674 -129.445924 
L 156.90486 -125.451753 
L 157.732087 -121.457583 
L 158.506001 -117.463412 
L 159.221617 -113.469241 
L 159.875817 -109.47507 
L 160.457993 -105.4809 
L 160.939622 -101.486729 
L 161.266938 -97.492558 
L 161.361025 -93.498388 
L 161.128126 -89.504217 
L 160.479764 -85.510046 
L 159.358244 -81.515876 
L 157.759905 -77.521705 
L 155.747721 -73.527534 
L 153.447533 -69.533364 
z
" id="me0e8adc72d" style="stroke:#141414;stroke-width:1.5;"/>
    </defs>
    <g clip-path="url(#p4f9efd946f)">
     <use style="fill:#0e5f2f;stroke:#141414;stroke-width:1.5;" x="0" xlink:href="#me0e8adc72d" y="540.169"/>
    </g>
   </g>
   <g id="PolyCollection_3">
    <defs>
     <path d="M 226.775959 -69.533364 
L 187.053258 -69.533364 
L 185.078499 -71.412526 
L 184.695823 -73.291688 
L 185.716483 -75.17085 
L 187.617655 -77.050012 
L 189.789076 -78.929175 
L 191.755708 -80.808337 
L 193.280393 -82.687499 
L 194.343632 -84.566661 
L 195.057932 -86.445824 
L 195.577604 -88.324986 
L 196.036554 -90.204148 
L 196.519328 -92.08331 
L 197.057617 -93.962472 
L 197.641738 -95.841635 
L 198.23785 -97.720797 
L 198.804394 -99.599959 
L 199.304684 -101.479121 
L 199.715145 -103.358283 
L 200.02939 -105.237446 
L 200.257794 -107.116608 
L 200.422371 -108.99577 
L 200.548248 -110.874932 
L 200.655181 -112.754094 
L 200.753276 -114.633257 
L 200.845116 -116.512419 
L 200.932626 -118.391581 
L 201.02379 -120.270743 
L 201.134707 -122.149905 
L 201.285851 -124.029068 
L 201.495075 -125.90823 
L 201.771105 -127.787392 
L 202.11011 -129.666554 
L 202.496151 -131.545717 
L 202.904954 -133.424879 
L 203.309519 -135.304041 
L 203.68567 -137.183203 
L 204.016127 -139.062365 
L 204.292621 -140.941528 
L 204.516084 -142.82069 
L 204.69489 -144.699852 
L 204.841287 -146.579014 
L 204.967068 -148.458176 
L 205.080361 -150.337339 
L 205.185016 -152.216501 
L 205.282462 -154.095663 
L 205.374236 -155.974825 
L 205.463052 -157.853987 
L 205.551705 -159.73315 
L 205.641127 -161.612312 
L 205.729751 -163.491474 
L 205.815083 -165.370636 
L 205.896205 -167.249798 
L 205.974881 -169.128961 
L 206.054152 -171.008123 
L 206.135563 -172.887285 
L 206.217309 -174.766447 
L 206.294725 -176.64561 
L 206.36258 -178.524772 
L 206.417377 -180.403934 
L 206.458314 -182.283096 
L 206.486765 -184.162258 
L 206.505137 -186.041421 
L 206.515897 -187.920583 
L 206.521141 -189.799745 
L 206.522665 -191.678907 
L 206.522304 -193.558069 
L 206.522198 -195.437232 
L 206.524614 -197.316394 
L 206.531337 -199.195556 
L 206.543035 -201.074718 
L 206.559049 -202.95388 
L 206.577642 -204.833043 
L 206.596366 -206.712205 
L 206.612343 -208.591367 
L 206.622647 -210.470529 
L 206.625072 -212.349691 
L 206.619125 -214.228854 
L 206.606593 -216.108016 
L 206.591116 -217.987178 
L 206.576927 -219.86634 
L 206.567507 -221.745503 
L 206.564915 -223.624665 
L 206.56988 -225.503827 
L 206.582176 -227.382989 
L 206.600792 -229.262151 
L 206.623841 -231.141314 
L 206.648545 -233.020476 
L 206.671675 -234.899638 
L 206.690445 -236.7788 
L 206.703482 -238.657962 
L 206.711302 -240.537125 
L 206.715988 -242.416287 
L 206.720247 -244.295449 
L 206.726409 -246.174611 
L 206.735898 -248.053773 
L 206.749306 -249.932936 
L 206.766692 -251.812098 
L 206.787676 -253.69126 
L 206.811252 -255.570422 
L 207.017965 -255.570422 
L 207.017965 -255.570422 
L 207.041541 -253.69126 
L 207.062525 -251.812098 
L 207.079911 -249.932936 
L 207.093319 -248.053773 
L 207.102808 -246.174611 
L 207.10897 -244.295449 
L 207.113229 -242.416287 
L 207.117915 -240.537125 
L 207.125735 -238.657962 
L 207.138772 -236.7788 
L 207.157542 -234.899638 
L 207.180672 -233.020476 
L 207.205376 -231.141314 
L 207.228425 -229.262151 
L 207.247041 -227.382989 
L 207.259337 -225.503827 
L 207.264302 -223.624665 
L 207.26171 -221.745503 
L 207.25229 -219.86634 
L 207.238101 -217.987178 
L 207.222625 -216.108016 
L 207.210092 -214.228854 
L 207.204145 -212.349691 
L 207.20657 -210.470529 
L 207.216874 -208.591367 
L 207.232851 -206.712205 
L 207.251575 -204.833043 
L 207.270168 -202.95388 
L 207.286182 -201.074718 
L 207.29788 -199.195556 
L 207.304603 -197.316394 
L 207.307019 -195.437232 
L 207.306913 -193.558069 
L 207.306552 -191.678907 
L 207.308076 -189.799745 
L 207.31332 -187.920583 
L 207.32408 -186.041421 
L 207.342452 -184.162258 
L 207.370903 -182.283096 
L 207.41184 -180.403934 
L 207.466637 -178.524772 
L 207.534492 -176.64561 
L 207.611909 -174.766447 
L 207.693654 -172.887285 
L 207.775065 -171.008123 
L 207.854336 -169.128961 
L 207.933012 -167.249798 
L 208.014134 -165.370636 
L 208.099467 -163.491474 
L 208.18809 -161.612312 
L 208.277512 -159.73315 
L 208.366165 -157.853987 
L 208.454981 -155.974825 
L 208.546755 -154.095663 
L 208.644201 -152.216501 
L 208.748856 -150.337339 
L 208.862149 -148.458176 
L 208.98793 -146.579014 
L 209.134327 -144.699852 
L 209.313133 -142.82069 
L 209.536596 -140.941528 
L 209.81309 -139.062365 
L 210.143547 -137.183203 
L 210.519698 -135.304041 
L 210.924263 -133.424879 
L 211.333066 -131.545717 
L 211.719107 -129.666554 
L 212.058112 -127.787392 
L 212.334142 -125.90823 
L 212.543366 -124.029068 
L 212.69451 -122.149905 
L 212.805427 -120.270743 
L 212.896591 -118.391581 
L 212.984101 -116.512419 
L 213.075942 -114.633257 
L 213.174036 -112.754094 
L 213.280969 -110.874932 
L 213.406846 -108.99577 
L 213.571423 -107.116608 
L 213.799827 -105.237446 
L 214.114072 -103.358283 
L 214.524534 -101.479121 
L 215.024823 -99.599959 
L 215.591367 -97.720797 
L 216.187479 -95.841635 
L 216.7716 -93.962472 
L 217.309889 -92.08331 
L 217.792663 -90.204148 
L 218.251613 -88.324986 
L 218.771285 -86.445824 
L 219.485585 -84.566661 
L 220.548824 -82.687499 
L 222.073509 -80.808337 
L 224.040141 -78.929175 
L 226.211562 -77.050012 
L 228.112734 -75.17085 
L 229.133394 -73.291688 
L 228.750719 -71.412526 
L 226.775959 -69.533364 
z
" id="mb8f2434d57" style="stroke:#141414;stroke-width:1.5;"/>
    </defs>
    <g clip-path="url(#p4f9efd946f)">
     <use style="fill:#083c1d;stroke:#141414;stroke-width:1.5;" x="0" xlink:href="#mb8f2434d57" y="540.169"/>
    </g>
   </g>
   <g id="PolyCollection_4">
    <defs>
     <path d="M 263.811729 -69.533364 
L 238.892632 -69.533364 
L 237.627453 -71.412526 
L 237.043255 -73.291688 
L 237.149873 -75.17085 
L 237.828693 -77.050012 
L 238.877613 -78.929175 
L 240.073519 -80.808337 
L 241.227529 -82.687499 
L 242.216593 -84.566661 
L 242.988344 -86.445824 
L 243.54666 -88.324986 
L 243.929224 -90.204148 
L 244.186268 -92.08331 
L 244.365286 -93.962472 
L 244.50271 -95.841635 
L 244.621561 -97.720797 
L 244.73341 -99.599959 
L 244.842719 -101.479121 
L 244.951458 -103.358283 
L 245.062118 -105.237446 
L 245.178098 -107.116608 
L 245.301842 -108.99577 
L 245.432343 -110.874932 
L 245.563912 -112.754094 
L 245.687224 -114.633257 
L 245.792234 -116.512419 
L 245.871382 -118.391581 
L 245.921513 -120.270743 
L 245.943831 -122.149905 
L 245.942483 -124.029068 
L 245.923033 -125.90823 
L 245.891833 -127.787392 
L 245.856368 -129.666554 
L 245.825772 -131.545717 
L 245.810431 -133.424879 
L 245.820189 -135.304041 
L 245.861667 -137.183203 
L 245.935951 -139.062365 
L 246.037971 -140.941528 
L 246.158074 -142.82069 
L 246.285191 -144.699852 
L 246.410178 -146.579014 
L 246.527911 -148.458176 
L 246.637489 -150.337339 
L 246.740903 -152.216501 
L 246.841197 -154.095663 
L 246.941078 -155.974825 
L 247.042364 -157.853987 
L 247.14605 -159.73315 
L 247.252571 -161.612312 
L 247.361968 -163.491474 
L 247.474008 -165.370636 
L 247.588396 -167.249798 
L 247.705133 -169.128961 
L 247.824841 -171.008123 
L 247.948849 -172.887285 
L 248.078956 -174.766447 
L 248.216968 -176.64561 
L 248.36423 -178.524772 
L 248.521298 -180.403934 
L 248.687787 -182.283096 
L 248.862326 -184.162258 
L 249.042586 -186.041421 
L 249.225373 -187.920583 
L 249.406824 -189.799745 
L 249.582767 -191.678907 
L 249.749207 -193.558069 
L 249.902834 -195.437232 
L 250.04143 -197.316394 
L 250.164051 -199.195556 
L 250.270939 -201.074718 
L 250.363209 -202.95388 
L 250.442423 -204.833043 
L 250.51018 -206.712205 
L 250.567857 -208.591367 
L 250.616564 -210.470529 
L 250.657312 -212.349691 
L 250.691277 -214.228854 
L 250.720008 -216.108016 
L 250.74543 -217.987178 
L 250.769583 -219.86634 
L 250.794169 -221.745503 
L 250.820117 -223.624665 
L 250.847362 -225.503827 
L 250.874974 -227.382989 
L 250.901596 -229.262151 
L 250.926006 -231.141314 
L 250.947555 -233.020476 
L 250.966346 -234.899638 
L 250.983129 -236.7788 
L 250.999024 -238.657962 
L 251.015237 -240.537125 
L 251.032834 -242.416287 
L 251.052622 -244.295449 
L 251.0751 -246.174611 
L 251.100439 -248.053773 
L 251.128454 -249.932936 
L 251.158576 -251.812098 
L 251.18984 -253.69126 
L 251.220943 -255.570422 
L 251.483418 -255.570422 
L 251.483418 -255.570422 
L 251.514521 -253.69126 
L 251.545784 -251.812098 
L 251.575906 -249.932936 
L 251.603922 -248.053773 
L 251.62926 -246.174611 
L 251.651739 -244.295449 
L 251.671527 -242.416287 
L 251.689124 -240.537125 
L 251.705337 -238.657962 
L 251.721232 -236.7788 
L 251.738014 -234.899638 
L 251.756806 -233.020476 
L 251.778355 -231.141314 
L 251.802765 -229.262151 
L 251.829387 -227.382989 
L 251.856999 -225.503827 
L 251.884244 -223.624665 
L 251.910192 -221.745503 
L 251.934778 -219.86634 
L 251.95893 -217.987178 
L 251.984353 -216.108016 
L 252.013084 -214.228854 
L 252.047049 -212.349691 
L 252.087797 -210.470529 
L 252.136504 -208.591367 
L 252.194181 -206.712205 
L 252.261938 -204.833043 
L 252.341152 -202.95388 
L 252.433422 -201.074718 
L 252.54031 -199.195556 
L 252.662931 -197.316394 
L 252.801527 -195.437232 
L 252.955153 -193.558069 
L 253.121593 -191.678907 
L 253.297537 -189.799745 
L 253.478988 -187.920583 
L 253.661774 -186.041421 
L 253.842035 -184.162258 
L 254.016574 -182.283096 
L 254.183062 -180.403934 
L 254.340131 -178.524772 
L 254.487393 -176.64561 
L 254.625405 -174.766447 
L 254.755512 -172.887285 
L 254.87952 -171.008123 
L 254.999227 -169.128961 
L 255.115964 -167.249798 
L 255.230353 -165.370636 
L 255.342392 -163.491474 
L 255.45179 -161.612312 
L 255.55831 -159.73315 
L 255.661997 -157.853987 
L 255.763283 -155.974825 
L 255.863164 -154.095663 
L 255.963458 -152.216501 
L 256.066871 -150.337339 
L 256.176449 -148.458176 
L 256.294183 -146.579014 
L 256.41917 -144.699852 
L 256.546287 -142.82069 
L 256.66639 -140.941528 
L 256.76841 -139.062365 
L 256.842694 -137.183203 
L 256.884172 -135.304041 
L 256.89393 -133.424879 
L 256.878589 -131.545717 
L 256.847993 -129.666554 
L 256.812528 -127.787392 
L 256.781328 -125.90823 
L 256.761878 -124.029068 
L 256.76053 -122.149905 
L 256.782848 -120.270743 
L 256.832978 -118.391581 
L 256.912127 -116.512419 
L 257.017137 -114.633257 
L 257.140449 -112.754094 
L 257.272017 -110.874932 
L 257.402519 -108.99577 
L 257.526263 -107.116608 
L 257.642243 -105.237446 
L 257.752903 -103.358283 
L 257.861642 -101.479121 
L 257.97095 -99.599959 
L 258.0828 -97.720797 
L 258.201651 -95.841635 
L 258.339074 -93.962472 
L 258.518093 -92.08331 
L 258.775137 -90.204148 
L 259.157701 -88.324986 
L 259.716017 -86.445824 
L 260.487767 -84.566661 
L 261.476832 -82.687499 
L 262.630842 -80.808337 
L 263.826748 -78.929175 
L 264.875668 -77.050012 
L 265.554487 -75.17085 
L 265.661105 -73.291688 
L 265.076907 -71.412526 
L 263.811729 -69.533364 
z
" id="m87ab27089b" style="stroke:#141414;stroke-width:1.5;"/>
    </defs>
    <g clip-path="url(#p4f9efd946f)">
     <use style="fill:#0e5f2f;stroke:#141414;stroke-width:1.5;" x="0" xlink:href="#m87ab27089b" y="540.169"/>
    </g>
   </g>
   <g id="PolyCollection_5">
    <defs>
     <path d="M 337.1859 -69.533364 
L 298.831177 -69.533364 
L 296.710025 -71.245151 
L 295.789752 -72.956939 
L 296.044784 -74.668726 
L 297.212752 -76.380513 
L 298.913555 -78.092301 
L 300.779859 -79.804088 
L 302.543464 -81.515876 
L 304.059188 -83.227663 
L 305.282363 -84.939451 
L 306.229238 -86.651238 
L 306.943077 -88.363025 
L 307.474772 -90.074813 
L 307.875799 -91.7866 
L 308.196982 -93.498388 
L 308.487375 -95.210175 
L 308.790642 -96.921963 
L 309.139338 -98.63375 
L 309.549352 -100.345538 
L 310.017079 -102.057325 
L 310.521136 -103.769112 
L 311.028865 -105.4809 
L 311.505991 -107.192687 
L 311.926336 -108.904475 
L 312.27822 -110.616262 
L 312.565461 -112.32805 
L 312.803206 -114.039837 
L 313.010957 -115.751624 
L 313.206033 -117.463412 
L 313.399954 -119.175199 
L 313.598372 -120.886987 
L 313.803281 -122.598774 
L 314.015398 -124.310562 
L 314.235136 -126.022349 
L 314.461998 -127.734136 
L 314.693449 -129.445924 
L 314.924456 -131.157711 
L 315.148167 -132.869499 
L 315.357343 -134.581286 
L 315.545827 -136.293074 
L 315.709631 -138.004861 
L 315.847558 -139.716649 
L 315.96128 -141.428436 
L 316.054752 -143.140223 
L 316.132974 -144.852011 
L 316.200581 -146.563798 
L 316.260947 -148.275586 
L 316.316248 -149.987373 
L 316.368279 -151.699161 
L 316.419371 -153.410948 
L 316.472733 -155.122735 
L 316.531965 -156.834523 
L 316.599988 -158.54631 
L 316.677938 -160.258098 
L 316.76455 -161.969885 
L 316.856272 -163.681673 
L 316.948039 -165.39346 
L 317.034376 -167.105248 
L 317.110478 -168.817035 
L 317.172968 -170.528822 
L 317.220227 -172.24061 
L 317.252379 -173.952397 
L 317.271079 -175.664185 
L 317.279195 -177.375972 
L 317.280331 -179.08776 
L 317.278161 -180.799547 
L 317.275716 -182.511334 
L 317.274928 -184.223122 
L 317.276696 -185.934909 
L 317.281413 -187.646697 
L 317.289543 -189.358484 
L 317.301799 -191.070272 
L 317.318759 -192.782059 
L 317.340168 -194.493847 
L 317.364431 -196.205634 
L 317.388683 -197.917421 
L 317.409507 -199.629209 
L 317.424079 -201.340996 
L 317.431334 -203.052784 
L 317.432699 -204.764571 
L 317.431995 -206.476359 
L 317.434375 -208.188146 
L 317.444567 -209.899933 
L 317.46512 -211.611721 
L 317.495444 -213.323508 
L 317.532093 -215.035296 
L 317.570144 -216.747083 
L 317.605008 -218.458871 
L 317.633917 -220.170658 
L 317.656542 -221.882446 
L 317.674699 -223.594233 
L 317.691407 -225.30602 
L 317.70975 -227.017808 
L 317.731907 -228.729595 
L 317.758616 -230.441383 
L 317.789176 -232.15317 
L 317.821903 -233.864958 
L 317.854805 -235.576745 
L 317.886127 -237.288532 
L 317.914604 -239.00032 
L 318.102472 -239.00032 
L 318.102472 -239.00032 
L 318.13095 -237.288532 
L 318.162272 -235.576745 
L 318.195173 -233.864958 
L 318.227901 -232.15317 
L 318.258461 -230.441383 
L 318.28517 -228.729595 
L 318.307326 -227.017808 
L 318.325669 -225.30602 
L 318.342378 -223.594233 
L 318.360534 -221.882446 
L 318.383159 -220.170658 
L 318.412068 -218.458871 
L 318.446933 -216.747083 
L 318.484983 -215.035296 
L 318.521633 -213.323508 
L 318.551956 -211.611721 
L 318.57251 -209.899933 
L 318.582702 -208.188146 
L 318.585082 -206.476359 
L 318.584377 -204.764571 
L 318.585742 -203.052784 
L 318.592997 -201.340996 
L 318.607569 -199.629209 
L 318.628393 -197.917421 
L 318.652646 -196.205634 
L 318.676909 -194.493847 
L 318.698317 -192.782059 
L 318.715277 -191.070272 
L 318.727534 -189.358484 
L 318.735663 -187.646697 
L 318.74038 -185.934909 
L 318.742149 -184.223122 
L 318.74136 -182.511334 
L 318.738916 -180.799547 
L 318.736746 -179.08776 
L 318.737881 -177.375972 
L 318.745997 -175.664185 
L 318.764698 -173.952397 
L 318.796849 -172.24061 
L 318.844109 -170.528822 
L 318.906598 -168.817035 
L 318.9827 -167.105248 
L 319.069037 -165.39346 
L 319.160804 -163.681673 
L 319.252527 -161.969885 
L 319.339139 -160.258098 
L 319.417088 -158.54631 
L 319.485111 -156.834523 
L 319.544343 -155.122735 
L 319.597705 -153.410948 
L 319.648797 -151.699161 
L 319.700828 -149.987373 
L 319.756129 -148.275586 
L 319.816496 -146.563798 
L 319.884102 -144.852011 
L 319.962324 -143.140223 
L 320.055796 -141.428436 
L 320.169519 -139.716649 
L 320.307445 -138.004861 
L 320.47125 -136.293074 
L 320.659733 -134.581286 
L 320.868909 -132.869499 
L 321.09262 -131.157711 
L 321.323627 -129.445924 
L 321.555079 -127.734136 
L 321.781941 -126.022349 
L 322.001678 -124.310562 
L 322.213796 -122.598774 
L 322.418705 -120.886987 
L 322.617122 -119.175199 
L 322.811044 -117.463412 
L 323.00612 -115.751624 
L 323.213871 -114.039837 
L 323.451615 -112.32805 
L 323.738856 -110.616262 
L 324.09074 -108.904475 
L 324.511085 -107.192687 
L 324.988211 -105.4809 
L 325.49594 -103.769112 
L 325.999997 -102.057325 
L 326.467725 -100.345538 
L 326.877739 -98.63375 
L 327.226435 -96.921963 
L 327.529701 -95.210175 
L 327.820095 -93.498388 
L 328.141277 -91.7866 
L 328.542304 -90.074813 
L 329.074 -88.363025 
L 329.787838 -86.651238 
L 330.734713 -84.939451 
L 331.957889 -83.227663 
L 333.473613 -81.515876 
L 335.237217 -79.804088 
L 337.103522 -78.092301 
L 338.804325 -76.380513 
L 339.972292 -74.668726 
L 340.227324 -72.956939 
L 339.307051 -71.245151 
L 337.1859 -69.533364 
z
" id="m9c0c11d978" style="stroke:#141414;stroke-width:1.5;"/>
    </defs>
    <g clip-path="url(#p4f9efd946f)">
     <use style="fill:#083c1d;stroke:#141414;stroke-width:1.5;" x="0" xlink:href="#m9c0c11d978" y="540.169"/>
    </g>
   </g>
   <g id="PolyCollection_6">
    <defs>
     <path d="M 373.433771 -69.533364 
L 351.458449 -69.533364 
L 349.906393 -71.245151 
L 348.814148 -72.956939 
L 348.261002 -74.668726 
L 348.233977 -76.380513 
L 348.641309 -78.092301 
L 349.344708 -79.804088 
L 350.197082 -81.515876 
L 351.073275 -83.227663 
L 351.886876 -84.939451 
L 352.59273 -86.651238 
L 353.179283 -88.363025 
L 353.656465 -90.074813 
L 354.043914 -91.7866 
L 354.362404 -93.498388 
L 354.629278 -95.210175 
L 354.857169 -96.921963 
L 355.054606 -98.63375 
L 355.227099 -100.345538 
L 355.377949 -102.057325 
L 355.508693 -103.769112 
L 355.619596 -105.4809 
L 355.710495 -107.192687 
L 355.781929 -108.904475 
L 355.836026 -110.616262 
L 355.876618 -112.32805 
L 355.908444 -114.039837 
L 355.935893 -115.751624 
L 355.962069 -117.463412 
L 355.988768 -119.175199 
L 356.017407 -120.886987 
L 356.050336 -122.598774 
L 356.09174 -124.310562 
L 356.147583 -126.022349 
L 356.224568 -127.734136 
L 356.328595 -129.445924 
L 356.463377 -131.157711 
L 356.629697 -132.869499 
L 356.825431 -134.581286 
L 357.046139 -136.293074 
L 357.285862 -138.004861 
L 357.537839 -139.716649 
L 357.795023 -141.428436 
L 358.050412 -143.140223 
L 358.297324 -144.852011 
L 358.529778 -146.563798 
L 358.743057 -148.275586 
L 358.934346 -149.987373 
L 359.103231 -151.699161 
L 359.251737 -153.410948 
L 359.383807 -155.122735 
L 359.504314 -156.834523 
L 359.617939 -158.54631 
L 359.728262 -160.258098 
L 359.837276 -161.969885 
L 359.945372 -163.681673 
L 360.051683 -165.39346 
L 360.154645 -167.105248 
L 360.252619 -168.817035 
L 360.344383 -170.528822 
L 360.429361 -172.24061 
L 360.507554 -173.952397 
L 360.579268 -175.664185 
L 360.644839 -177.375972 
L 360.704526 -179.08776 
L 360.758638 -180.799547 
L 360.807785 -182.511334 
L 360.853091 -184.223122 
L 360.896239 -185.934909 
L 360.939291 -187.646697 
L 360.984344 -189.358484 
L 361.033122 -191.070272 
L 361.086625 -192.782059 
L 361.144944 -194.493847 
L 361.207303 -196.205634 
L 361.272276 -197.917421 
L 361.338072 -199.629209 
L 361.402783 -201.340996 
L 361.464534 -203.052784 
L 361.521546 -204.764571 
L 361.572198 -206.476359 
L 361.61514 -208.188146 
L 361.649463 -209.899933 
L 361.67488 -211.611721 
L 361.691842 -213.323508 
L 361.701534 -215.035296 
L 361.705732 -216.747083 
L 361.706582 -218.458871 
L 361.706346 -220.170658 
L 361.707204 -221.882446 
L 361.711154 -223.594233 
L 361.720019 -225.30602 
L 361.735524 -227.017808 
L 361.759338 -228.729595 
L 361.792995 -230.441383 
L 361.8376 -232.15317 
L 361.89336 -233.864958 
L 361.959115 -235.576745 
L 362.032102 -237.288532 
L 362.108155 -239.00032 
L 362.784065 -239.00032 
L 362.784065 -239.00032 
L 362.860118 -237.288532 
L 362.933105 -235.576745 
L 362.99886 -233.864958 
L 363.05462 -232.15317 
L 363.099225 -230.441383 
L 363.132882 -228.729595 
L 363.156696 -227.017808 
L 363.172201 -225.30602 
L 363.181066 -223.594233 
L 363.185016 -221.882446 
L 363.185874 -220.170658 
L 363.185638 -218.458871 
L 363.186488 -216.747083 
L 363.190686 -215.035296 
L 363.200378 -213.323508 
L 363.21734 -211.611721 
L 363.242757 -209.899933 
L 363.27708 -208.188146 
L 363.320022 -206.476359 
L 363.370674 -204.764571 
L 363.427686 -203.052784 
L 363.489437 -201.340996 
L 363.554148 -199.629209 
L 363.619944 -197.917421 
L 363.684917 -196.205634 
L 363.747277 -194.493847 
L 363.805595 -192.782059 
L 363.859098 -191.070272 
L 363.907876 -189.358484 
L 363.952929 -187.646697 
L 363.995981 -185.934909 
L 364.039129 -184.223122 
L 364.084435 -182.511334 
L 364.133582 -180.799547 
L 364.187694 -179.08776 
L 364.247381 -177.375972 
L 364.312952 -175.664185 
L 364.384666 -173.952397 
L 364.462859 -172.24061 
L 364.547837 -170.528822 
L 364.639601 -168.817035 
L 364.737575 -167.105248 
L 364.840538 -165.39346 
L 364.946848 -163.681673 
L 365.054944 -161.969885 
L 365.163958 -160.258098 
L 365.274281 -158.54631 
L 365.387906 -156.834523 
L 365.508413 -155.122735 
L 365.640483 -153.410948 
L 365.788989 -151.699161 
L 365.957874 -149.987373 
L 366.149164 -148.275586 
L 366.362442 -146.563798 
L 366.594896 -144.852011 
L 366.841808 -143.140223 
L 367.097197 -141.428436 
L 367.354381 -139.716649 
L 367.606358 -138.004861 
L 367.846081 -136.293074 
L 368.066789 -134.581286 
L 368.262524 -132.869499 
L 368.428843 -131.157711 
L 368.563625 -129.445924 
L 368.667653 -127.734136 
L 368.744637 -126.022349 
L 368.80048 -124.310562 
L 368.841884 -122.598774 
L 368.874813 -120.886987 
L 368.903452 -119.175199 
L 368.930151 -117.463412 
L 368.956327 -115.751624 
L 368.983776 -114.039837 
L 369.015602 -112.32805 
L 369.056194 -110.616262 
L 369.110291 -108.904475 
L 369.181725 -107.192687 
L 369.272624 -105.4809 
L 369.383527 -103.769112 
L 369.514271 -102.057325 
L 369.665121 -100.345538 
L 369.837614 -98.63375 
L 370.035051 -96.921963 
L 370.262942 -95.210175 
L 370.529816 -93.498388 
L 370.848306 -91.7866 
L 371.235755 -90.074813 
L 371.712937 -88.363025 
L 372.29949 -86.651238 
L 373.005344 -84.939451 
L 373.818945 -83.227663 
L 374.695138 -81.515876 
L 375.547512 -79.804088 
L 376.250911 -78.092301 
L 376.658243 -76.380513 
L 376.631218 -74.668726 
L 376.078073 -72.956939 
L 374.985827 -71.245151 
L 373.433771 -69.533364 
z
" id="maf522028a4" style="stroke:#141414;stroke-width:1.5;"/>
    </defs>
    <g clip-path="url(#p4f9efd946f)">
     <use style="fill:#0e5f2f;stroke:#141414;stroke-width:1.5;" x="0" xlink:href="#maf522028a4" y="540.169"/>
    </g>
   </g>
   <g id="PolyCollection_7">
    <defs>
     <path d="M 449.444182 -69.533364 
L 408.760753 -69.533364 
L 407.333338 -73.930755 
L 406.883682 -78.328147 
L 407.395968 -82.725539 
L 408.704861 -87.122931 
L 410.542724 -91.520322 
L 412.605998 -95.917714 
L 414.618746 -100.315106 
L 416.376489 -104.712497 
L 417.763782 -109.109889 
L 418.748804 -113.507281 
L 419.363798 -117.904673 
L 419.680684 -122.302064 
L 419.788403 -126.699456 
L 419.775202 -131.096848 
L 419.716626 -135.49424 
L 419.668919 -139.891631 
L 419.667208 -144.289023 
L 419.727546 -148.686415 
L 419.851496 -153.083806 
L 420.031554 -157.481198 
L 420.255695 -161.87859 
L 420.509965 -166.275982 
L 420.778985 -170.673373 
L 421.04521 -175.070765 
L 421.288277 -179.468157 
L 421.485627 -183.865549 
L 421.614831 -188.26294 
L 421.657197 -192.660332 
L 421.601497 -197.057724 
L 421.446529 -201.455115 
L 421.201584 -205.852507 
L 420.884668 -210.249899 
L 420.519112 -214.647291 
L 420.129684 -219.044682 
L 419.739347 -223.442074 
L 419.367391 -227.839466 
L 419.029056 -232.236858 
L 418.736255 -236.634249 
L 418.498743 -241.031641 
L 418.325134 -245.429033 
L 418.223372 -249.826424 
L 418.200497 -254.223816 
L 418.261775 -258.621208 
L 418.409384 -263.0186 
L 418.641018 -267.415991 
L 418.948822 -271.813383 
L 419.319081 -276.210775 
L 419.732914 -280.608167 
L 420.167993 -285.005558 
L 420.601036 -289.40295 
L 421.010647 -293.800342 
L 421.380033 -298.197733 
L 421.69917 -302.595125 
L 421.966093 -306.992517 
L 422.187052 -311.389909 
L 422.375409 -315.7873 
L 422.549285 -320.184692 
L 422.728283 -324.582084 
L 422.929848 -328.979476 
L 423.166078 -333.376867 
L 423.441747 -337.774259 
L 423.754004 -342.171651 
L 424.093721 -346.569042 
L 424.448012 -350.966434 
L 424.803115 -355.363826 
L 425.146894 -359.761218 
L 425.470455 -364.158609 
L 425.768756 -368.556001 
L 426.040388 -372.953393 
L 426.286799 -377.350785 
L 426.511263 -381.748176 
L 426.71781 -386.145568 
L 426.910284 -390.54296 
L 427.091684 -394.940351 
L 427.263881 -399.337743 
L 427.427732 -403.735135 
L 427.583463 -408.132527 
L 427.731105 -412.529918 
L 427.870792 -416.92731 
L 428.002819 -421.324702 
L 428.127505 -425.722094 
L 428.244985 -430.119485 
L 428.355066 -434.516877 
L 428.457213 -438.914269 
L 428.550665 -443.31166 
L 428.634623 -447.709052 
L 428.708467 -452.106444 
L 428.771929 -456.503836 
L 428.825215 -460.901227 
L 428.869022 -465.298619 
L 428.904464 -469.696011 
L 428.932922 -474.093402 
L 428.955871 -478.490794 
L 428.974719 -482.888186 
L 428.990701 -487.285578 
L 429.004818 -491.682969 
L 429.017803 -496.080361 
L 429.030113 -500.477753 
L 429.041928 -504.875145 
L 429.163007 -504.875145 
L 429.163007 -504.875145 
L 429.174823 -500.477753 
L 429.187132 -496.080361 
L 429.200118 -491.682969 
L 429.214234 -487.285578 
L 429.230217 -482.888186 
L 429.249064 -478.490794 
L 429.272013 -474.093402 
L 429.300472 -469.696011 
L 429.335914 -465.298619 
L 429.379721 -460.901227 
L 429.433007 -456.503836 
L 429.496469 -452.106444 
L 429.570312 -447.709052 
L 429.654271 -443.31166 
L 429.747723 -438.914269 
L 429.84987 -434.516877 
L 429.959951 -430.119485 
L 430.077431 -425.722094 
L 430.202117 -421.324702 
L 430.334144 -416.92731 
L 430.47383 -412.529918 
L 430.621472 -408.132527 
L 430.777204 -403.735135 
L 430.941055 -399.337743 
L 431.113252 -394.940351 
L 431.294651 -390.54296 
L 431.487126 -386.145568 
L 431.693673 -381.748176 
L 431.918137 -377.350785 
L 432.164547 -372.953393 
L 432.436179 -368.556001 
L 432.734481 -364.158609 
L 433.058041 -359.761218 
L 433.40182 -355.363826 
L 433.756924 -350.966434 
L 434.111215 -346.569042 
L 434.450932 -342.171651 
L 434.763188 -337.774259 
L 435.038858 -333.376867 
L 435.275088 -328.979476 
L 435.476652 -324.582084 
L 435.65565 -320.184692 
L 435.829527 -315.7873 
L 436.017883 -311.389909 
L 436.238843 -306.992517 
L 436.505766 -302.595125 
L 436.824903 -298.197733 
L 437.194288 -293.800342 
L 437.603899 -289.40295 
L 438.036943 -285.005558 
L 438.472022 -280.608167 
L 438.885855 -276.210775 
L 439.256114 -271.813383 
L 439.563918 -267.415991 
L 439.795552 -263.0186 
L 439.943161 -258.621208 
L 440.004439 -254.223816 
L 439.981564 -249.826424 
L 439.879801 -245.429033 
L 439.706193 -241.031641 
L 439.468681 -236.634249 
L 439.17588 -232.236858 
L 438.837545 -227.839466 
L 438.465589 -223.442074 
L 438.075252 -219.044682 
L 437.685824 -214.647291 
L 437.320268 -210.249899 
L 437.003351 -205.852507 
L 436.758406 -201.455115 
L 436.603438 -197.057724 
L 436.547739 -192.660332 
L 436.590105 -188.26294 
L 436.719309 -183.865549 
L 436.916658 -179.468157 
L 437.159726 -175.070765 
L 437.42595 -170.673373 
L 437.694971 -166.275982 
L 437.949241 -161.87859 
L 438.173382 -157.481198 
L 438.353439 -153.083806 
L 438.47739 -148.686415 
L 438.537727 -144.289023 
L 438.536016 -139.891631 
L 438.48831 -135.49424 
L 438.429733 -131.096848 
L 438.416533 -126.699456 
L 438.524252 -122.302064 
L 438.841138 -117.904673 
L 439.456132 -113.507281 
L 440.441153 -109.109889 
L 441.828447 -104.712497 
L 443.58619 -100.315106 
L 445.598937 -95.917714 
L 447.662212 -91.520322 
L 449.500075 -87.122931 
L 450.808968 -82.725539 
L 451.321254 -78.328147 
L 450.871598 -73.930755 
L 449.444182 -69.533364 
z
" id="m10ac92f825" style="stroke:#141414;stroke-width:1.5;"/>
    </defs>
    <g clip-path="url(#p4f9efd946f)">
     <use style="fill:#083c1d;stroke:#141414;stroke-width:1.5;" x="0" xlink:href="#m10ac92f825" y="540.169"/>
    </g>
   </g>
   <g id="PolyCollection_8">
    <defs>
     <path d="M 490.158694 -69.533364 
L 456.921385 -69.533364 
L 455.361046 -73.961187 
L 454.510361 -78.389011 
L 454.417703 -82.816834 
L 455.018521 -87.244658 
L 456.156279 -91.672481 
L 457.622606 -96.100305 
L 459.203031 -100.528128 
L 460.715177 -104.955952 
L 462.031362 -109.383775 
L 463.084272 -113.811599 
L 463.859599 -118.239422 
L 464.381773 -122.667246 
L 464.698275 -127.095069 
L 464.866013 -131.522893 
L 464.941078 -135.950716 
L 464.971985 -140.37854 
L 464.995927 -144.806363 
L 465.037617 -149.234187 
L 465.110215 -153.66201 
L 465.217718 -158.089834 
L 465.357978 -162.517657 
L 465.525472 -166.945481 
L 465.713162 -171.373304 
L 465.913195 -175.801128 
L 466.116706 -180.228951 
L 466.313272 -184.656775 
L 466.490633 -189.084598 
L 466.635136 -193.512422 
L 466.732982 -197.940245 
L 466.772031 -202.368069 
L 466.743728 -206.795892 
L 466.644616 -211.223716 
L 466.477092 -215.651539 
L 466.249279 -220.079363 
L 465.974135 -224.507186 
L 465.668056 -228.93501 
L 465.34927 -233.362833 
L 465.036205 -237.790657 
L 464.745942 -242.21848 
L 464.492851 -246.646304 
L 464.28754 -251.074127 
L 464.136266 -255.501951 
L 464.040939 -259.929774 
L 463.999668 -264.357598 
L 464.007652 -268.785421 
L 464.058073 -273.213245 
L 464.142696 -277.641068 
L 464.252098 -282.068892 
L 464.375671 -286.496715 
L 464.501786 -290.924539 
L 464.618469 -295.352362 
L 464.714795 -299.780186 
L 464.78281 -304.208009 
L 464.819492 -308.635833 
L 464.828117 -313.063656 
L 464.818482 -317.49148 
L 464.805778 -321.919303 
L 464.808306 -326.347127 
L 464.844541 -330.77495 
L 464.930208 -335.202774 
L 465.075933 -339.630597 
L 465.285916 -344.058421 
L 465.557772 -348.486244 
L 465.883507 -352.914068 
L 466.25133 -357.341891 
L 466.647873 -361.769715 
L 467.060332 -366.197538 
L 467.478103 -370.625362 
L 467.893678 -375.053185 
L 468.302786 -379.481009 
L 468.703901 -383.908832 
L 469.097355 -388.336656 
L 469.484273 -392.764479 
L 469.865542 -397.192303 
L 470.240966 -401.620126 
L 470.608757 -406.04795 
L 470.96546 -410.475773 
L 471.306283 -414.903597 
L 471.625784 -419.33142 
L 471.918695 -423.759244 
L 472.180719 -428.187067 
L 472.409122 -432.614891 
L 472.603053 -437.042714 
L 472.763571 -441.470538 
L 472.893435 -445.898361 
L 472.996685 -450.326185 
L 473.078102 -454.754008 
L 473.142605 -459.181832 
L 473.194705 -463.609655 
L 473.238101 -468.037479 
L 473.2755 -472.465302 
L 473.308657 -476.893126 
L 473.338573 -481.320949 
L 473.365772 -485.748773 
L 473.39054 -490.176596 
L 473.413078 -494.60442 
L 473.433561 -499.032243 
L 473.452132 -503.460067 
L 473.468871 -507.88789 
L 473.611209 -507.88789 
L 473.611209 -507.88789 
L 473.627947 -503.460067 
L 473.646518 -499.032243 
L 473.667002 -494.60442 
L 473.689539 -490.176596 
L 473.714307 -485.748773 
L 473.741506 -481.320949 
L 473.771423 -476.893126 
L 473.804579 -472.465302 
L 473.841979 -468.037479 
L 473.885375 -463.609655 
L 473.937474 -459.181832 
L 474.001977 -454.754008 
L 474.083394 -450.326185 
L 474.186645 -445.898361 
L 474.316509 -441.470538 
L 474.477027 -437.042714 
L 474.670957 -432.614891 
L 474.89936 -428.187067 
L 475.161384 -423.759244 
L 475.454295 -419.33142 
L 475.773796 -414.903597 
L 476.11462 -410.475773 
L 476.471322 -406.04795 
L 476.839114 -401.620126 
L 477.214537 -397.192303 
L 477.595806 -392.764479 
L 477.982724 -388.336656 
L 478.376178 -383.908832 
L 478.777293 -379.481009 
L 479.186401 -375.053185 
L 479.601977 -370.625362 
L 480.019747 -366.197538 
L 480.432206 -361.769715 
L 480.82875 -357.341891 
L 481.196572 -352.914068 
L 481.522307 -348.486244 
L 481.794164 -344.058421 
L 482.004146 -339.630597 
L 482.149871 -335.202774 
L 482.235538 -330.77495 
L 482.271774 -326.347127 
L 482.274301 -321.919303 
L 482.261597 -317.49148 
L 482.251963 -313.063656 
L 482.260588 -308.635833 
L 482.29727 -304.208009 
L 482.365284 -299.780186 
L 482.461611 -295.352362 
L 482.578294 -290.924539 
L 482.704408 -286.496715 
L 482.827982 -282.068892 
L 482.937383 -277.641068 
L 483.022007 -273.213245 
L 483.072427 -268.785421 
L 483.080412 -264.357598 
L 483.039141 -259.929774 
L 482.943813 -255.501951 
L 482.792539 -251.074127 
L 482.587228 -246.646304 
L 482.334138 -242.21848 
L 482.043874 -237.790657 
L 481.730809 -233.362833 
L 481.412024 -228.93501 
L 481.105944 -224.507186 
L 480.8308 -220.079363 
L 480.602988 -215.651539 
L 480.435464 -211.223716 
L 480.336351 -206.795892 
L 480.308048 -202.368069 
L 480.347098 -197.940245 
L 480.444943 -193.512422 
L 480.589447 -189.084598 
L 480.766807 -184.656775 
L 480.963373 -180.228951 
L 481.166885 -175.801128 
L 481.366918 -171.373304 
L 481.554607 -166.945481 
L 481.722101 -162.517657 
L 481.862361 -158.089834 
L 481.969864 -153.66201 
L 482.042463 -149.234187 
L 482.084153 -144.806363 
L 482.108095 -140.37854 
L 482.139001 -135.950716 
L 482.214067 -131.522893 
L 482.381804 -127.095069 
L 482.698307 -122.667246 
L 483.22048 -118.239422 
L 483.995808 -113.811599 
L 485.048717 -109.383775 
L 486.364902 -104.955952 
L 487.877048 -100.528128 
L 489.457474 -96.100305 
L 490.923801 -91.672481 
L 492.061559 -87.244658 
L 492.662376 -82.816834 
L 492.569719 -78.389011 
L 491.719034 -73.961187 
L 490.158694 -69.533364 
z
" id="md4a434a49c" style="stroke:#141414;stroke-width:1.5;"/>
    </defs>
    <g clip-path="url(#p4f9efd946f)">
     <use style="fill:#0e5f2f;stroke:#141414;stroke-width:1.5;" x="0" xlink:href="#md4a434a49c" y="540.169"/>
    </g>
   </g>
   <g id="PolyCollection_9">
    <defs>
     <path d="M 559.982528 -69.533364 
L 520.410267 -69.533364 
L 518.755677 -73.991619 
L 517.977612 -78.449874 
L 518.108517 -82.908129 
L 519.051479 -87.366385 
L 520.611713 -91.82464 
L 522.545452 -96.282895 
L 524.609667 -100.741151 
L 526.599414 -105.199406 
L 528.367108 -109.657661 
L 529.825265 -114.115916 
L 530.938448 -118.574172 
L 531.710674 -123.032427 
L 532.172672 -127.490682 
L 532.371137 -131.948938 
L 532.360461 -136.407193 
L 532.196719 -140.865448 
L 531.933509 -145.323703 
L 531.619189 -149.781959 
L 531.295031 -154.240214 
L 530.993853 -158.698469 
L 530.738936 -163.156725 
L 530.543345 -167.61498 
L 530.410034 -172.073235 
L 530.333167 -176.53149 
L 530.300726 -180.989746 
L 530.29801 -185.448001 
L 530.311229 -189.906256 
L 530.330236 -194.364511 
L 530.349759 -198.822767 
L 530.369001 -203.281022 
L 530.390036 -207.739277 
L 530.415752 -212.197533 
L 530.448114 -216.655788 
L 530.487296 -221.114043 
L 530.531804 -225.572298 
L 530.579417 -230.030554 
L 530.628462 -234.488809 
L 530.678883 -238.947064 
L 530.732653 -243.40532 
L 530.793346 -247.863575 
L 530.865029 -252.32183 
L 530.950952 -256.780085 
L 531.052647 -261.238341 
L 531.169883 -265.696596 
L 531.301543 -270.154851 
L 531.447028 -274.613107 
L 531.607478 -279.071362 
L 531.786154 -283.529617 
L 531.987682 -287.987872 
L 532.216416 -292.446128 
L 532.474618 -296.904383 
L 532.761256 -301.362638 
L 533.07193 -305.820893 
L 533.399946 -310.279149 
L 533.738042 -314.737404 
L 534.080033 -319.195659 
L 534.421758 -323.653915 
L 534.76103 -328.11217 
L 535.096733 -332.570425 
L 535.427531 -337.02868 
L 535.750744 -341.486936 
L 536.061884 -345.945191 
L 536.35505 -350.403446 
L 536.624094 -354.861702 
L 536.86416 -359.319957 
L 537.073087 -363.778212 
L 537.252156 -368.236467 
L 537.405915 -372.694723 
L 537.541094 -377.152978 
L 537.664974 -381.611233 
L 537.783741 -386.069489 
L 537.901352 -390.527744 
L 538.019207 -394.985999 
L 538.136588 -399.444254 
L 538.251563 -403.90251 
L 538.361927 -408.360765 
L 538.465871 -412.81902 
L 538.562273 -417.277275 
L 538.650721 -421.735531 
L 538.73145 -426.193786 
L 538.805305 -430.652041 
L 538.873733 -435.110297 
L 538.938704 -439.568552 
L 539.00248 -444.026807 
L 539.06723 -448.485062 
L 539.134611 -452.943318 
L 539.205456 -457.401573 
L 539.279704 -461.859828 
L 539.356561 -466.318084 
L 539.4348 -470.776339 
L 539.513074 -475.234594 
L 539.590117 -479.692849 
L 539.664828 -484.151105 
L 539.73627 -488.60936 
L 539.80365 -493.067615 
L 539.866308 -497.525871 
L 539.923727 -501.984126 
L 539.975525 -506.442381 
L 540.02144 -510.900636 
L 540.371355 -510.900636 
L 540.371355 -510.900636 
L 540.41727 -506.442381 
L 540.469067 -501.984126 
L 540.526487 -497.525871 
L 540.589145 -493.067615 
L 540.656525 -488.60936 
L 540.727967 -484.151105 
L 540.802678 -479.692849 
L 540.879721 -475.234594 
L 540.957995 -470.776339 
L 541.036234 -466.318084 
L 541.113091 -461.859828 
L 541.187339 -457.401573 
L 541.258184 -452.943318 
L 541.325565 -448.485062 
L 541.390315 -444.026807 
L 541.454091 -439.568552 
L 541.519062 -435.110297 
L 541.58749 -430.652041 
L 541.661345 -426.193786 
L 541.742074 -421.735531 
L 541.830522 -417.277275 
L 541.926924 -412.81902 
L 542.030868 -408.360765 
L 542.141232 -403.90251 
L 542.256207 -399.444254 
L 542.373588 -394.985999 
L 542.491443 -390.527744 
L 542.609054 -386.069489 
L 542.727821 -381.611233 
L 542.8517 -377.152978 
L 542.98688 -372.694723 
L 543.140639 -368.236467 
L 543.319708 -363.778212 
L 543.528635 -359.319957 
L 543.768701 -354.861702 
L 544.037745 -350.403446 
L 544.330911 -345.945191 
L 544.642051 -341.486936 
L 544.965264 -337.02868 
L 545.296062 -332.570425 
L 545.631765 -328.11217 
L 545.971036 -323.653915 
L 546.312762 -319.195659 
L 546.654753 -314.737404 
L 546.992849 -310.279149 
L 547.320865 -305.820893 
L 547.631539 -301.362638 
L 547.918176 -296.904383 
L 548.176379 -292.446128 
L 548.405113 -287.987872 
L 548.606641 -283.529617 
L 548.785317 -279.071362 
L 548.945767 -274.613107 
L 549.091252 -270.154851 
L 549.222912 -265.696596 
L 549.340148 -261.238341 
L 549.441843 -256.780085 
L 549.527766 -252.32183 
L 549.599449 -247.863575 
L 549.660142 -243.40532 
L 549.713912 -238.947064 
L 549.764333 -234.488809 
L 549.813378 -230.030554 
L 549.860991 -225.572298 
L 549.905499 -221.114043 
L 549.94468 -216.655788 
L 549.977043 -212.197533 
L 550.002758 -207.739277 
L 550.023794 -203.281022 
L 550.043036 -198.822767 
L 550.062559 -194.364511 
L 550.081566 -189.906256 
L 550.094785 -185.448001 
L 550.092069 -180.989746 
L 550.059628 -176.53149 
L 549.982761 -172.073235 
L 549.84945 -167.61498 
L 549.653859 -163.156725 
L 549.398942 -158.698469 
L 549.097764 -154.240214 
L 548.773606 -149.781959 
L 548.459286 -145.323703 
L 548.196076 -140.865448 
L 548.032334 -136.407193 
L 548.021658 -131.948938 
L 548.220123 -127.490682 
L 548.682121 -123.032427 
L 549.454346 -118.574172 
L 550.56753 -114.115916 
L 552.025686 -109.657661 
L 553.793381 -105.199406 
L 555.783128 -100.741151 
L 557.847343 -96.282895 
L 559.781082 -91.82464 
L 561.341316 -87.366385 
L 562.284278 -82.908129 
L 562.415183 -78.449874 
L 561.637117 -73.991619 
L 559.982528 -69.533364 
z
" id="ma6119284c4" style="stroke:#141414;stroke-width:1.5;"/>
    </defs>
    <g clip-path="url(#p4f9efd946f)">
     <use style="fill:#083c1d;stroke:#141414;stroke-width:1.5;" x="0" xlink:href="#ma6119284c4" y="540.169"/>
    </g>
   </g>
   <g id="PolyCollection_10">
    <defs>
     <path d="M 600.962982 -69.533364 
L 568.304956 -69.533364 
L 566.6103 -73.8775 
L 565.576016 -78.221636 
L 565.272056 -82.565772 
L 565.664401 -86.909908 
L 566.63035 -91.254044 
L 567.992112 -95.59818 
L 569.55693 -99.942316 
L 571.151959 -104.286453 
L 572.64629 -108.630589 
L 573.958335 -112.974725 
L 575.051455 -117.318861 
L 575.922969 -121.662997 
L 576.591416 -126.007133 
L 577.085326 -130.351269 
L 577.434981 -134.695405 
L 577.66736 -139.039542 
L 577.803871 -143.383678 
L 577.860251 -147.727814 
L 577.847973 -152.07195 
L 577.776413 -156.416086 
L 577.654992 -160.760222 
L 577.494598 -165.104358 
L 577.307883 -169.448494 
L 577.10843 -173.79263 
L 576.909215 -178.136767 
L 576.72099 -182.480903 
L 576.551171 -186.825039 
L 576.403539 -191.169175 
L 576.278728 -195.513311 
L 576.17518 -199.857447 
L 576.090182 -204.201583 
L 576.020589 -208.545719 
L 575.963079 -212.889856 
L 575.913884 -217.233992 
L 575.868207 -221.578128 
L 575.819631 -225.922264 
L 575.759945 -230.2664 
L 575.679701 -234.610536 
L 575.569623 -238.954672 
L 575.422635 -243.298808 
L 575.235972 -247.642944 
L 575.01269 -251.987081 
L 574.762053 -256.331217 
L 574.498578 -260.675353 
L 574.240015 -265.019489 
L 574.004848 -269.363625 
L 573.810021 -273.707761 
L 573.669404 -278.051897 
L 573.593172 -282.396033 
L 573.587918 -286.74017 
L 573.657087 -291.084306 
L 573.801351 -295.428442 
L 574.018673 -299.772578 
L 574.304071 -304.116714 
L 574.649282 -308.46085 
L 575.042641 -312.804986 
L 575.469473 -317.149122 
L 575.913191 -321.493258 
L 576.357041 -325.837395 
L 576.786214 -330.181531 
L 577.189837 -334.525667 
L 577.562305 -338.869803 
L 577.903565 -343.213939 
L 578.218253 -347.558075 
L 578.513965 -351.902211 
L 578.799155 -356.246347 
L 579.081261 -360.590484 
L 579.365471 -364.93462 
L 579.654289 -369.278756 
L 579.94776 -373.622892 
L 580.244069 -377.967028 
L 580.540238 -382.311164 
L 580.832728 -386.6553 
L 581.11791 -390.999436 
L 581.392436 -395.343572 
L 581.653556 -399.687709 
L 581.899372 -404.031845 
L 582.128996 -408.375981 
L 582.342559 -412.720117 
L 582.54107 -417.064253 
L 582.726142 -421.408389 
L 582.899673 -425.752525 
L 583.063509 -430.096661 
L 583.219174 -434.440798 
L 583.367671 -438.784934 
L 583.50939 -443.12907 
L 583.644118 -447.473206 
L 583.771148 -451.817342 
L 583.889463 -456.161478 
L 583.997957 -460.505614 
L 584.095657 -464.84975 
L 584.181908 -469.193886 
L 584.256516 -473.538023 
L 584.31982 -477.882159 
L 584.372701 -482.226295 
L 584.416494 -486.570431 
L 584.452818 -490.914567 
L 584.483347 -495.258703 
L 584.509563 -499.602839 
L 584.758376 -499.602839 
L 584.758376 -499.602839 
L 584.784592 -495.258703 
L 584.815121 -490.914567 
L 584.851445 -486.570431 
L 584.895237 -482.226295 
L 584.948118 -477.882159 
L 585.011423 -473.538023 
L 585.08603 -469.193886 
L 585.172281 -464.84975 
L 585.269981 -460.505614 
L 585.378476 -456.161478 
L 585.496791 -451.817342 
L 585.623821 -447.473206 
L 585.758549 -443.12907 
L 585.900268 -438.784934 
L 586.048764 -434.440798 
L 586.204429 -430.096661 
L 586.368265 -425.752525 
L 586.541796 -421.408389 
L 586.726869 -417.064253 
L 586.925379 -412.720117 
L 587.138943 -408.375981 
L 587.368567 -404.031845 
L 587.614383 -399.687709 
L 587.875502 -395.343572 
L 588.150028 -390.999436 
L 588.43521 -386.6553 
L 588.727701 -382.311164 
L 589.02387 -377.967028 
L 589.320179 -373.622892 
L 589.613649 -369.278756 
L 589.902468 -364.93462 
L 590.186678 -360.590484 
L 590.468783 -356.246347 
L 590.753974 -351.902211 
L 591.049686 -347.558075 
L 591.364374 -343.213939 
L 591.705633 -338.869803 
L 592.078102 -334.525667 
L 592.481725 -330.181531 
L 592.910898 -325.837395 
L 593.354748 -321.493258 
L 593.798466 -317.149122 
L 594.225298 -312.804986 
L 594.618656 -308.46085 
L 594.963868 -304.116714 
L 595.249266 -299.772578 
L 595.466588 -295.428442 
L 595.610851 -291.084306 
L 595.680021 -286.74017 
L 595.674767 -282.396033 
L 595.598535 -278.051897 
L 595.457917 -273.707761 
L 595.26309 -269.363625 
L 595.027924 -265.019489 
L 594.769361 -260.675353 
L 594.505886 -256.331217 
L 594.255249 -251.987081 
L 594.031967 -247.642944 
L 593.845303 -243.298808 
L 593.698316 -238.954672 
L 593.588237 -234.610536 
L 593.507993 -230.2664 
L 593.448307 -225.922264 
L 593.399732 -221.578128 
L 593.354055 -217.233992 
L 593.30486 -212.889856 
L 593.24735 -208.545719 
L 593.177757 -204.201583 
L 593.092758 -199.857447 
L 592.989211 -195.513311 
L 592.864399 -191.169175 
L 592.716767 -186.825039 
L 592.546948 -182.480903 
L 592.358724 -178.136767 
L 592.159509 -173.79263 
L 591.960055 -169.448494 
L 591.77334 -165.104358 
L 591.612947 -160.760222 
L 591.491525 -156.416086 
L 591.419965 -152.07195 
L 591.407688 -147.727814 
L 591.464068 -143.383678 
L 591.600579 -139.039542 
L 591.832958 -134.695405 
L 592.182612 -130.351269 
L 592.676523 -126.007133 
L 593.34497 -121.662997 
L 594.216484 -117.318861 
L 595.309603 -112.974725 
L 596.621648 -108.630589 
L 598.11598 -104.286453 
L 599.711008 -99.942316 
L 601.275827 -95.59818 
L 602.637589 -91.254044 
L 603.603538 -86.909908 
L 603.995882 -82.565772 
L 603.691922 -78.221636 
L 602.657639 -73.8775 
L 600.962982 -69.533364 
z
" id="mf2f6e0595b" style="stroke:#141414;stroke-width:1.5;"/>
    </defs>
    <g clip-path="url(#p4f9efd946f)">
     <use style="fill:#0e5f2f;stroke:#141414;stroke-width:1.5;" x="0" xlink:href="#mf2f6e0595b" y="540.169"/>
    </g>
   </g>
   <g id="patch_3">
    <path clip-path="url(#p4f9efd946f)" d="M 118.039465 470.635636 
L 118.039465 470.635636 
L 118.039465 470.635636 
L 118.039465 470.635636 
z
" style="fill:#083c1d;stroke:#141414;stroke-linejoin:miter;stroke-width:0.75;"/>
   </g>
   <g id="patch_4">
    <path clip-path="url(#p4f9efd946f)" d="M 118.039465 470.635636 
L 118.039465 470.635636 
L 118.039465 470.635636 
L 118.039465 470.635636 
z
" style="fill:#0e5f2f;stroke:#141414;stroke-linejoin:miter;stroke-width:0.75;"/>
   </g>
   <g id="line2d_1">
    <path clip-path="url(#p4f9efd946f)" d="M 95.820679 470.635636 
L 95.820679 80.485044 
" style="fill:none;stroke:#141414;stroke-linecap:round;stroke-width:1.5;"/>
   </g>
   <g id="line2d_2">
    <path clip-path="url(#p4f9efd946f)" d="M 95.820679 447.286856 
L 95.820679 292.130442 
" style="fill:none;stroke:#141414;stroke-linecap:round;stroke-width:4.5;"/>
   </g>
   <g id="line2d_3">
    <path clip-path="url(#p4f9efd946f)" d="M 140.258251 470.635636 
L 140.258251 75.212738 
" style="fill:none;stroke:#141414;stroke-linecap:round;stroke-width:1.5;"/>
   </g>
   <g id="line2d_4">
    <path clip-path="url(#p4f9efd946f)" d="M 140.258251 438.248618 
L 140.258251 288.36451 
" style="fill:none;stroke:#141414;stroke-linecap:round;stroke-width:4.5;"/>
   </g>
   <g id="line2d_5">
    <path clip-path="url(#p4f9efd946f)" d="M 206.914609 470.635636 
L 206.914609 367.44909 
" style="fill:none;stroke:#141414;stroke-linecap:round;stroke-width:1.5;"/>
   </g>
   <g id="line2d_6">
    <path clip-path="url(#p4f9efd946f)" d="M 206.914609 466.869704 
L 206.914609 426.950821 
" style="fill:none;stroke:#141414;stroke-linecap:round;stroke-width:4.5;"/>
   </g>
   <g id="line2d_7">
    <path clip-path="url(#p4f9efd946f)" d="M 251.35218 470.635636 
L 251.35218 295.896375 
" style="fill:none;stroke:#141414;stroke-linecap:round;stroke-width:1.5;"/>
   </g>
   <g id="line2d_8">
    <path clip-path="url(#p4f9efd946f)" d="M 251.35218 463.103772 
L 251.35218 396.070176 
" style="fill:none;stroke:#141414;stroke-linecap:round;stroke-width:4.5;"/>
   </g>
   <g id="line2d_9">
    <path clip-path="url(#p4f9efd946f)" d="M 318.008538 470.635636 
L 318.008538 378.746887 
" style="fill:none;stroke:#141414;stroke-linecap:round;stroke-width:1.5;"/>
   </g>
   <g id="line2d_10">
    <path clip-path="url(#p4f9efd946f)" d="M 318.008538 466.869704 
L 318.008538 431.46994 
" style="fill:none;stroke:#141414;stroke-linecap:round;stroke-width:4.5;"/>
   </g>
   <g id="line2d_11">
    <path clip-path="url(#p4f9efd946f)" d="M 362.44611 470.635636 
L 362.44611 324.517461 
" style="fill:none;stroke:#141414;stroke-linecap:round;stroke-width:1.5;"/>
   </g>
   <g id="line2d_12">
    <path clip-path="url(#p4f9efd946f)" d="M 362.44611 461.597399 
L 362.44611 406.614786 
" style="fill:none;stroke:#141414;stroke-linecap:round;stroke-width:4.5;"/>
   </g>
   <g id="line2d_13">
    <path clip-path="url(#p4f9efd946f)" d="M 429.102468 470.635636 
L 429.102468 35.293855 
" style="fill:none;stroke:#141414;stroke-linecap:round;stroke-width:1.5;"/>
   </g>
   <g id="line2d_14">
    <path clip-path="url(#p4f9efd946f)" d="M 429.102468 456.51339 
L 429.102468 275.56034 
" style="fill:none;stroke:#141414;stroke-linecap:round;stroke-width:4.5;"/>
   </g>
   <g id="line2d_15">
    <path clip-path="url(#p4f9efd946f)" d="M 473.54004 470.635636 
L 473.54004 32.28111 
" style="fill:none;stroke:#141414;stroke-linecap:round;stroke-width:1.5;"/>
   </g>
   <g id="line2d_16">
    <path clip-path="url(#p4f9efd946f)" d="M 473.54004 445.780483 
L 473.54004 244.679695 
" style="fill:none;stroke:#141414;stroke-linecap:round;stroke-width:4.5;"/>
   </g>
   <g id="line2d_17">
    <path clip-path="url(#p4f9efd946f)" d="M 540.196397 470.635636 
L 540.196397 29.268364 
" style="fill:none;stroke:#141414;stroke-linecap:round;stroke-width:1.5;"/>
   </g>
   <g id="line2d_18">
    <path clip-path="url(#p4f9efd946f)" d="M 540.196397 453.312348 
L 540.196397 277.819899 
" style="fill:none;stroke:#141414;stroke-linecap:round;stroke-width:4.5;"/>
   </g>
   <g id="line2d_19">
    <path clip-path="url(#p4f9efd946f)" d="M 584.633969 470.635636 
L 584.633969 40.566161 
" style="fill:none;stroke:#141414;stroke-linecap:round;stroke-width:1.5;"/>
   </g>
   <g id="line2d_20">
    <path clip-path="url(#p4f9efd946f)" d="M 584.633969 444.27411 
L 584.633969 248.445627 
" style="fill:none;stroke:#141414;stroke-linecap:round;stroke-width:4.5;"/>
   </g>
   <g id="patch_5">
    <path d="M 62.4925 492.704 
L 62.4925 7.2 
" style="fill:none;stroke:#262626;stroke-linecap:square;stroke-linejoin:miter;stroke-width:0.8;"/>
   </g>
   <g id="patch_6">
    <path d="M 62.4925 492.704 
L 617.962148 492.704 
" style="fill:none;stroke:#262626;stroke-linecap:square;stroke-linejoin:miter;stroke-width:0.8;"/>
   </g>
   <g id="PathCollection_1">
    <defs>
     <path d="M 0 1.5 
C 0.397805 1.5 0.77937 1.341951 1.06066 1.06066 
C 1.341951 0.77937 1.5 0.397805 1.5 0 
C 1.5 -0.397805 1.341951 -0.77937 1.06066 -1.06066 
C 0.77937 -1.341951 0.397805 -1.5 0 -1.5 
C -0.397805 -1.5 -0.77937 -1.341951 -1.06066 -1.06066 
C -1.341951 -0.77937 -1.5 -0.397805 -1.5 0 
C -1.5 0.397805 -1.341951 0.77937 -1.06066 1.06066 
C -0.77937 1.341951 -0.397805 1.5 0 1.5 
z
" id="m4b0d558743" style="stroke:#141414;"/>
    </defs>
    <g clip-path="url(#p4f9efd946f)">
     <use style="fill:#ffffff;stroke:#141414;" x="95.820679" xlink:href="#m4b0d558743" y="380.25326"/>
    </g>
   </g>
   <g id="PathCollection_2">
    <g clip-path="url(#p4f9efd946f)">
     <use style="fill:#ffffff;stroke:#141414;" x="140.258251" xlink:href="#m4b0d558743" y="387.031938"/>
    </g>
   </g>
   <g id="PathCollection_3">
    <g clip-path="url(#p4f9efd946f)">
     <use style="fill:#ffffff;stroke:#141414;" x="206.914609" xlink:href="#m4b0d558743" y="452.559161"/>
    </g>
   </g>
   <g id="PathCollection_4">
    <g clip-path="url(#p4f9efd946f)">
     <use style="fill:#ffffff;stroke:#141414;" x="251.35218" xlink:href="#m4b0d558743" y="433.729499"/>
    </g>
   </g>
   <g id="PathCollection_5">
    <g clip-path="url(#p4f9efd946f)">
     <use style="fill:#ffffff;stroke:#141414;" x="318.008538" xlink:href="#m4b0d558743" y="454.81872"/>
    </g>
   </g>
   <g id="PathCollection_6">
    <g clip-path="url(#p4f9efd946f)">
     <use style="fill:#ffffff;stroke:#141414;" x="362.44611" xlink:href="#m4b0d558743" y="437.495432"/>
    </g>
   </g>
   <g id="PathCollection_7">
    <g clip-path="url(#p4f9efd946f)">
     <use style="fill:#ffffff;stroke:#141414;" x="429.102468" xlink:href="#m4b0d558743" y="368.202276"/>
    </g>
   </g>
   <g id="PathCollection_8">
    <g clip-path="url(#p4f9efd946f)">
     <use style="fill:#ffffff;stroke:#141414;" x="473.54004" xlink:href="#m4b0d558743" y="343.347123"/>
    </g>
   </g>
   <g id="PathCollection_9">
    <g clip-path="url(#p4f9efd946f)">
     <use style="fill:#ffffff;stroke:#141414;" x="540.196397" xlink:href="#m4b0d558743" y="365.18953"/>
    </g>
   </g>
   <g id="PathCollection_10">
    <g clip-path="url(#p4f9efd946f)">
     <use style="fill:#ffffff;stroke:#141414;" x="584.633969" xlink:href="#m4b0d558743" y="335.062071"/>
    </g>
   </g>
  </g>
  <g id="legend_1">
   <g id="text_15">
    <!-- weather -->
    <defs>
     <path d="M 16.15625 0 
L 0.296875 51.859375 
L 9.375 51.859375 
L 17.625 21.921875 
L 20.703125 10.796875 
Q 20.90625 11.625 23.390625 21.484375 
L 31.640625 51.859375 
L 40.671875 51.859375 
L 48.4375 21.78125 
L 51.03125 11.859375 
L 54 21.875 
L 62.890625 51.859375 
L 71.4375 51.859375 
L 55.21875 0 
L 46.09375 0 
L 37.84375 31.0625 
L 35.84375 39.890625 
L 25.34375 0 
z
" id="ArialMT-119"/>
     <path d="M 40.4375 6.390625 
Q 35.546875 2.25 31.03125 0.53125 
Q 26.515625 -1.171875 21.34375 -1.171875 
Q 12.796875 -1.171875 8.203125 3 
Q 3.609375 7.171875 3.609375 13.671875 
Q 3.609375 17.484375 5.34375 20.625 
Q 7.078125 23.78125 9.890625 25.6875 
Q 12.703125 27.59375 16.21875 28.5625 
Q 18.796875 29.25 24.03125 29.890625 
Q 34.671875 31.15625 39.703125 32.90625 
Q 39.75 34.71875 39.75 35.203125 
Q 39.75 40.578125 37.25 42.78125 
Q 33.890625 45.75 27.25 45.75 
Q 21.046875 45.75 18.09375 43.578125 
Q 15.140625 41.40625 13.71875 35.890625 
L 5.125 37.0625 
Q 6.296875 42.578125 8.984375 45.96875 
Q 11.671875 49.359375 16.75 51.1875 
Q 21.828125 53.03125 28.515625 53.03125 
Q 35.15625 53.03125 39.296875 51.46875 
Q 43.453125 49.90625 45.40625 47.53125 
Q 47.359375 45.171875 48.140625 41.546875 
Q 48.578125 39.3125 48.578125 33.453125 
L 48.578125 21.734375 
Q 48.578125 9.46875 49.140625 6.21875 
Q 49.703125 2.984375 51.375 0 
L 42.1875 0 
Q 40.828125 2.734375 40.4375 6.390625 
z
M 39.703125 26.03125 
Q 34.90625 24.078125 25.34375 22.703125 
Q 19.921875 21.921875 17.671875 20.9375 
Q 15.4375 19.96875 14.203125 18.09375 
Q 12.984375 16.21875 12.984375 13.921875 
Q 12.984375 10.40625 15.640625 8.0625 
Q 18.3125 5.71875 23.4375 5.71875 
Q 28.515625 5.71875 32.46875 7.9375 
Q 36.421875 10.15625 38.28125 14.015625 
Q 39.703125 17 39.703125 22.796875 
z
" id="ArialMT-97"/>
     <path d="M 6.59375 0 
L 6.59375 71.578125 
L 15.375 71.578125 
L 15.375 45.90625 
Q 21.53125 53.03125 30.90625 53.03125 
Q 36.671875 53.03125 40.921875 50.75 
Q 45.171875 48.484375 47 44.484375 
Q 48.828125 40.484375 48.828125 32.859375 
L 48.828125 0 
L 40.046875 0 
L 40.046875 32.859375 
Q 40.046875 39.453125 37.1875 42.453125 
Q 34.328125 45.453125 29.109375 45.453125 
Q 25.203125 45.453125 21.75 43.421875 
Q 18.3125 41.40625 16.84375 37.9375 
Q 15.375 34.46875 15.375 28.375 
L 15.375 0 
z
" id="ArialMT-104"/>
    </defs>
    <g style="fill:#262626;" transform="translate(720.46675 251.4945)scale(0.16 -0.16)">
     <use xlink:href="#ArialMT-119"/>
     <use x="72.216797" xlink:href="#ArialMT-101"/>
     <use x="127.832031" xlink:href="#ArialMT-97"/>
     <use x="183.447266" xlink:href="#ArialMT-116"/>
     <use x="211.230469" xlink:href="#ArialMT-104"/>
     <use x="266.845703" xlink:href="#ArialMT-101"/>
     <use x="322.460938" xlink:href="#ArialMT-114"/>
    </g>
   </g>
   <g id="patch_7">
    <path d="M 708.7305 274.127 
L 740.7305 274.127 
L 740.7305 262.927 
L 708.7305 262.927 
z
" style="fill:#083c1d;stroke:#141414;stroke-linejoin:miter;stroke-width:0.75;"/>
   </g>
   <g id="text_16">
    <!-- bad -->
    <defs>
     <path d="M 14.703125 0 
L 6.546875 0 
L 6.546875 71.578125 
L 15.328125 71.578125 
L 15.328125 46.046875 
Q 20.90625 53.03125 29.546875 53.03125 
Q 34.328125 53.03125 38.59375 51.09375 
Q 42.875 49.171875 45.625 45.671875 
Q 48.390625 42.1875 49.953125 37.25 
Q 51.515625 32.328125 51.515625 26.703125 
Q 51.515625 13.375 44.921875 6.09375 
Q 38.328125 -1.171875 29.109375 -1.171875 
Q 19.921875 -1.171875 14.703125 6.5 
z
M 14.59375 26.3125 
Q 14.59375 17 17.140625 12.84375 
Q 21.296875 6.0625 28.375 6.0625 
Q 34.125 6.0625 38.328125 11.0625 
Q 42.53125 16.0625 42.53125 25.984375 
Q 42.53125 36.140625 38.5 40.96875 
Q 34.46875 45.796875 28.765625 45.796875 
Q 23 45.796875 18.796875 40.796875 
Q 14.59375 35.796875 14.59375 26.3125 
z
" id="ArialMT-98"/>
    </defs>
    <g style="fill:#262626;" transform="translate(753.5305 274.127)scale(0.16 -0.16)">
     <use xlink:href="#ArialMT-98"/>
     <use x="55.615234" xlink:href="#ArialMT-97"/>
     <use x="111.230469" xlink:href="#ArialMT-100"/>
    </g>
   </g>
   <g id="patch_8">
    <path d="M 708.7305 296.7595 
L 740.7305 296.7595 
L 740.7305 285.5595 
L 708.7305 285.5595 
z
" style="fill:#0e5f2f;stroke:#141414;stroke-linejoin:miter;stroke-width:0.75;"/>
   </g>
   <g id="text_17">
    <!-- good -->
    <defs>
     <path d="M 4.984375 -4.296875 
L 13.53125 -5.5625 
Q 14.0625 -9.515625 16.5 -11.328125 
Q 19.78125 -13.765625 25.4375 -13.765625 
Q 31.546875 -13.765625 34.859375 -11.328125 
Q 38.1875 -8.890625 39.359375 -4.5 
Q 40.046875 -1.8125 39.984375 6.78125 
Q 34.234375 0 25.640625 0 
Q 14.9375 0 9.078125 7.71875 
Q 3.21875 15.4375 3.21875 26.21875 
Q 3.21875 33.640625 5.90625 39.90625 
Q 8.59375 46.1875 13.6875 49.609375 
Q 18.796875 53.03125 25.6875 53.03125 
Q 34.859375 53.03125 40.828125 45.609375 
L 40.828125 51.859375 
L 48.921875 51.859375 
L 48.921875 7.03125 
Q 48.921875 -5.078125 46.453125 -10.125 
Q 44 -15.1875 38.640625 -18.109375 
Q 33.296875 -21.046875 25.484375 -21.046875 
Q 16.21875 -21.046875 10.5 -16.875 
Q 4.78125 -12.703125 4.984375 -4.296875 
z
M 12.25 26.859375 
Q 12.25 16.65625 16.296875 11.96875 
Q 20.359375 7.28125 26.46875 7.28125 
Q 32.515625 7.28125 36.609375 11.9375 
Q 40.71875 16.609375 40.71875 26.5625 
Q 40.71875 36.078125 36.5 40.90625 
Q 32.28125 45.75 26.3125 45.75 
Q 20.453125 45.75 16.34375 40.984375 
Q 12.25 36.234375 12.25 26.859375 
z
" id="ArialMT-103"/>
    </defs>
    <g style="fill:#262626;" transform="translate(753.5305 296.7595)scale(0.16 -0.16)">
     <use xlink:href="#ArialMT-103"/>
     <use x="55.615234" xlink:href="#ArialMT-111"/>
     <use x="111.230469" xlink:href="#ArialMT-111"/>
     <use x="166.845703" xlink:href="#ArialMT-100"/>
    </g>
   </g>
  </g>
 </g>
 <defs>
  <clipPath id="p4f9efd946f">
   <rect height="485.504" width="555.469648" x="62.4925" y="7.2"/>
  </clipPath>
 </defs>
</svg>
