<?xml version="1.0" encoding="utf-8" standalone="no"?>
<!DOCTYPE svg PUBLIC "-//W3C//DTD SVG 1.1//EN"
  "http://www.w3.org/Graphics/SVG/1.1/DTD/svg11.dtd">
<!-- Created with matplotlib (https://matplotlib.org/) -->
<svg height="540.169pt" version="1.1" viewBox="0 0 803.5205 540.169" width="803.5205pt" xmlns="http://www.w3.org/2000/svg" xmlns:xlink="http://www.w3.org/1999/xlink">
 <defs>
  <style type="text/css">
*{stroke-linecap:butt;stroke-linejoin:round;white-space:pre;}
  </style>
 </defs>
 <g id="figure_1">
  <g id="patch_1">
   <path d="M 0 540.169 
L 803.5205 540.169 
L 803.5205 0 
L 0 0 
z
" style="fill:#ffffff;"/>
  </g>
  <g id="axes_1">
   <g id="patch_2">
    <path d="M 62.4925 492.704 
L 617.962148 492.704 
L 617.962148 7.2 
L 62.4925 7.2 
z
" style="fill:#ffffff;"/>
   </g>
   <g id="matplotlib.axis_1">
    <g id="xtick_1">
     <g id="text_1">
      <!-- 1056-186-1 -->
      <defs>
       <path d="M 37.25 0 
L 28.46875 0 
L 28.46875 56 
Q 25.296875 52.984375 20.140625 49.953125 
Q 14.984375 46.921875 10.890625 45.40625 
L 10.890625 53.90625 
Q 18.265625 57.375 23.78125 62.296875 
Q 29.296875 67.234375 31.59375 71.875 
L 37.25 71.875 
z
" id="ArialMT-49"/>
       <path d="M 4.15625 35.296875 
Q 4.15625 48 6.765625 55.734375 
Q 9.375 63.484375 14.515625 67.671875 
Q 19.671875 71.875 27.484375 71.875 
Q 33.25 71.875 37.59375 69.546875 
Q 41.9375 67.234375 44.765625 62.859375 
Q 47.609375 58.5 49.21875 52.21875 
Q 50.828125 45.953125 50.828125 35.296875 
Q 50.828125 22.703125 48.234375 14.96875 
Q 45.65625 7.234375 40.5 3 
Q 35.359375 -1.21875 27.484375 -1.21875 
Q 17.140625 -1.21875 11.234375 6.203125 
Q 4.15625 15.140625 4.15625 35.296875 
z
M 13.1875 35.296875 
Q 13.1875 17.671875 17.3125 11.828125 
Q 21.4375 6 27.484375 6 
Q 33.546875 6 37.671875 11.859375 
Q 41.796875 17.71875 41.796875 35.296875 
Q 41.796875 52.984375 37.671875 58.78125 
Q 33.546875 64.59375 27.390625 64.59375 
Q 21.34375 64.59375 17.71875 59.46875 
Q 13.1875 52.9375 13.1875 35.296875 
z
" id="ArialMT-48"/>
       <path d="M 4.15625 18.75 
L 13.375 19.53125 
Q 14.40625 12.796875 18.140625 9.390625 
Q 21.875 6 27.15625 6 
Q 33.5 6 37.890625 10.78125 
Q 42.28125 15.578125 42.28125 23.484375 
Q 42.28125 31 38.0625 35.34375 
Q 33.84375 39.703125 27 39.703125 
Q 22.75 39.703125 19.328125 37.765625 
Q 15.921875 35.84375 13.96875 32.765625 
L 5.71875 33.84375 
L 12.640625 70.609375 
L 48.25 70.609375 
L 48.25 62.203125 
L 19.671875 62.203125 
L 15.828125 42.96875 
Q 22.265625 47.46875 29.34375 47.46875 
Q 38.71875 47.46875 45.15625 40.96875 
Q 51.609375 34.46875 51.609375 24.265625 
Q 51.609375 14.546875 45.953125 7.46875 
Q 39.0625 -1.21875 27.15625 -1.21875 
Q 17.390625 -1.21875 11.203125 4.25 
Q 5.03125 9.71875 4.15625 18.75 
z
" id="ArialMT-53"/>
       <path d="M 49.75 54.046875 
L 41.015625 53.375 
Q 39.84375 58.546875 37.703125 60.890625 
Q 34.125 64.65625 28.90625 64.65625 
Q 24.703125 64.65625 21.53125 62.3125 
Q 17.390625 59.28125 14.984375 53.46875 
Q 12.59375 47.65625 12.5 36.921875 
Q 15.671875 41.75 20.265625 44.09375 
Q 24.859375 46.4375 29.890625 46.4375 
Q 38.671875 46.4375 44.84375 39.96875 
Q 51.03125 33.5 51.03125 23.25 
Q 51.03125 16.5 48.125 10.71875 
Q 45.21875 4.9375 40.140625 1.859375 
Q 35.0625 -1.21875 28.609375 -1.21875 
Q 17.625 -1.21875 10.6875 6.859375 
Q 3.765625 14.9375 3.765625 33.5 
Q 3.765625 54.25 11.421875 63.671875 
Q 18.109375 71.875 29.4375 71.875 
Q 37.890625 71.875 43.28125 67.140625 
Q 48.6875 62.40625 49.75 54.046875 
z
M 13.875 23.1875 
Q 13.875 18.65625 15.796875 14.5 
Q 17.71875 10.359375 21.1875 8.171875 
Q 24.65625 6 28.46875 6 
Q 34.03125 6 38.03125 10.484375 
Q 42.046875 14.984375 42.046875 22.703125 
Q 42.046875 30.125 38.078125 34.390625 
Q 34.125 38.671875 28.125 38.671875 
Q 22.171875 38.671875 18.015625 34.390625 
Q 13.875 30.125 13.875 23.1875 
z
" id="ArialMT-54"/>
       <path d="M 3.171875 21.484375 
L 3.171875 30.328125 
L 30.171875 30.328125 
L 30.171875 21.484375 
z
" id="ArialMT-45"/>
       <path d="M 17.671875 38.8125 
Q 12.203125 40.828125 9.5625 44.53125 
Q 6.9375 48.25 6.9375 53.421875 
Q 6.9375 61.234375 12.546875 66.546875 
Q 18.171875 71.875 27.484375 71.875 
Q 36.859375 71.875 42.578125 66.421875 
Q 48.296875 60.984375 48.296875 53.171875 
Q 48.296875 48.1875 45.671875 44.5 
Q 43.0625 40.828125 37.75 38.8125 
Q 44.34375 36.671875 47.78125 31.875 
Q 51.21875 27.09375 51.21875 20.453125 
Q 51.21875 11.28125 44.71875 5.03125 
Q 38.234375 -1.21875 27.640625 -1.21875 
Q 17.046875 -1.21875 10.546875 5.046875 
Q 4.046875 11.328125 4.046875 20.703125 
Q 4.046875 27.6875 7.59375 32.390625 
Q 11.140625 37.109375 17.671875 38.8125 
z
M 15.921875 53.71875 
Q 15.921875 48.640625 19.1875 45.40625 
Q 22.46875 42.1875 27.6875 42.1875 
Q 32.765625 42.1875 36.015625 45.375 
Q 39.265625 48.578125 39.265625 53.21875 
Q 39.265625 58.0625 35.90625 61.359375 
Q 32.5625 64.65625 27.59375 64.65625 
Q 22.5625 64.65625 19.234375 61.421875 
Q 15.921875 58.203125 15.921875 53.71875 
z
M 13.09375 20.65625 
Q 13.09375 16.890625 14.875 13.375 
Q 16.65625 9.859375 20.171875 7.921875 
Q 23.6875 6 27.734375 6 
Q 34.03125 6 38.125 10.046875 
Q 42.234375 14.109375 42.234375 20.359375 
Q 42.234375 26.703125 38.015625 30.859375 
Q 33.796875 35.015625 27.4375 35.015625 
Q 21.234375 35.015625 17.15625 30.90625 
Q 13.09375 26.8125 13.09375 20.65625 
z
" id="ArialMT-56"/>
      </defs>
      <g style="fill:#262626;" transform="translate(114.153275 511.1565)scale(0.16 -0.16)">
       <use xlink:href="#ArialMT-49"/>
       <use x="55.615234" xlink:href="#ArialMT-48"/>
       <use x="111.230469" xlink:href="#ArialMT-53"/>
       <use x="166.845703" xlink:href="#ArialMT-54"/>
       <use x="222.460938" xlink:href="#ArialMT-45"/>
       <use x="255.761719" xlink:href="#ArialMT-49"/>
       <use x="311.376953" xlink:href="#ArialMT-56"/>
       <use x="366.992188" xlink:href="#ArialMT-54"/>
       <use x="422.607422" xlink:href="#ArialMT-45"/>
       <use x="455.908203" xlink:href="#ArialMT-49"/>
      </g>
     </g>
    </g>
    <g id="xtick_2">
     <g id="text_2">
      <!-- 686-1 -->
      <g style="fill:#262626;" transform="translate(319.768574 511.1565)scale(0.16 -0.16)">
       <use xlink:href="#ArialMT-54"/>
       <use x="55.615234" xlink:href="#ArialMT-56"/>
       <use x="111.230469" xlink:href="#ArialMT-54"/>
       <use x="166.845703" xlink:href="#ArialMT-45"/>
       <use x="200.146484" xlink:href="#ArialMT-49"/>
      </g>
     </g>
    </g>
    <g id="xtick_3">
     <g id="text_3">
      <!-- 686-2 -->
      <defs>
       <path d="M 50.34375 8.453125 
L 50.34375 0 
L 3.03125 0 
Q 2.9375 3.171875 4.046875 6.109375 
Q 5.859375 10.9375 9.828125 15.625 
Q 13.8125 20.3125 21.34375 26.46875 
Q 33.015625 36.03125 37.109375 41.625 
Q 41.21875 47.21875 41.21875 52.203125 
Q 41.21875 57.421875 37.46875 61 
Q 33.734375 64.59375 27.734375 64.59375 
Q 21.390625 64.59375 17.578125 60.78125 
Q 13.765625 56.984375 13.71875 50.25 
L 4.6875 51.171875 
Q 5.609375 61.28125 11.65625 66.578125 
Q 17.71875 71.875 27.9375 71.875 
Q 38.234375 71.875 44.234375 66.15625 
Q 50.25 60.453125 50.25 52 
Q 50.25 47.703125 48.484375 43.546875 
Q 46.734375 39.40625 42.65625 34.8125 
Q 38.578125 30.21875 29.109375 22.21875 
Q 21.1875 15.578125 18.9375 13.203125 
Q 16.703125 10.84375 15.234375 8.453125 
z
" id="ArialMT-50"/>
      </defs>
      <g style="fill:#262626;" transform="translate(504.925123 511.1565)scale(0.16 -0.16)">
       <use xlink:href="#ArialMT-54"/>
       <use x="55.615234" xlink:href="#ArialMT-56"/>
       <use x="111.230469" xlink:href="#ArialMT-54"/>
       <use x="166.845703" xlink:href="#ArialMT-45"/>
       <use x="200.146484" xlink:href="#ArialMT-50"/>
      </g>
     </g>
    </g>
    <g id="text_4">
     <!-- Counter id -->
     <defs>
      <path d="M 58.796875 25.09375 
L 68.265625 22.703125 
Q 65.28125 11.03125 57.546875 4.90625 
Q 49.8125 -1.21875 38.625 -1.21875 
Q 27.046875 -1.21875 19.796875 3.484375 
Q 12.546875 8.203125 8.765625 17.140625 
Q 4.984375 26.078125 4.984375 36.328125 
Q 4.984375 47.515625 9.25 55.828125 
Q 13.53125 64.15625 21.40625 68.46875 
Q 29.296875 72.796875 38.765625 72.796875 
Q 49.515625 72.796875 56.828125 67.328125 
Q 64.15625 61.859375 67.046875 51.953125 
L 57.71875 49.75 
Q 55.21875 57.5625 50.484375 61.125 
Q 45.75 64.703125 38.578125 64.703125 
Q 30.328125 64.703125 24.78125 60.734375 
Q 19.234375 56.78125 16.984375 50.109375 
Q 14.75 43.453125 14.75 36.375 
Q 14.75 27.25 17.40625 20.4375 
Q 20.0625 13.625 25.671875 10.25 
Q 31.296875 6.890625 37.84375 6.890625 
Q 45.796875 6.890625 51.3125 11.46875 
Q 56.84375 16.0625 58.796875 25.09375 
z
" id="ArialMT-67"/>
      <path d="M 3.328125 25.921875 
Q 3.328125 40.328125 11.328125 47.265625 
Q 18.015625 53.03125 27.640625 53.03125 
Q 38.328125 53.03125 45.109375 46.015625 
Q 51.90625 39.015625 51.90625 26.65625 
Q 51.90625 16.65625 48.90625 10.90625 
Q 45.90625 5.171875 40.15625 2 
Q 34.421875 -1.171875 27.640625 -1.171875 
Q 16.75 -1.171875 10.03125 5.8125 
Q 3.328125 12.796875 3.328125 25.921875 
z
M 12.359375 25.921875 
Q 12.359375 15.96875 16.703125 11.015625 
Q 21.046875 6.0625 27.640625 6.0625 
Q 34.1875 6.0625 38.53125 11.03125 
Q 42.875 16.015625 42.875 26.21875 
Q 42.875 35.84375 38.5 40.796875 
Q 34.125 45.75 27.640625 45.75 
Q 21.046875 45.75 16.703125 40.8125 
Q 12.359375 35.890625 12.359375 25.921875 
z
" id="ArialMT-111"/>
      <path d="M 40.578125 0 
L 40.578125 7.625 
Q 34.515625 -1.171875 24.125 -1.171875 
Q 19.53125 -1.171875 15.546875 0.578125 
Q 11.578125 2.34375 9.640625 5 
Q 7.71875 7.671875 6.9375 11.53125 
Q 6.390625 14.109375 6.390625 19.734375 
L 6.390625 51.859375 
L 15.1875 51.859375 
L 15.1875 23.09375 
Q 15.1875 16.21875 15.71875 13.8125 
Q 16.546875 10.359375 19.234375 8.375 
Q 21.921875 6.390625 25.875 6.390625 
Q 29.828125 6.390625 33.296875 8.421875 
Q 36.765625 10.453125 38.203125 13.9375 
Q 39.65625 17.4375 39.65625 24.078125 
L 39.65625 51.859375 
L 48.4375 51.859375 
L 48.4375 0 
z
" id="ArialMT-117"/>
      <path d="M 6.59375 0 
L 6.59375 51.859375 
L 14.5 51.859375 
L 14.5 44.484375 
Q 20.21875 53.03125 31 53.03125 
Q 35.6875 53.03125 39.625 51.34375 
Q 43.5625 49.65625 45.515625 46.921875 
Q 47.46875 44.1875 48.25 40.4375 
Q 48.734375 37.984375 48.734375 31.890625 
L 48.734375 0 
L 39.9375 0 
L 39.9375 31.546875 
Q 39.9375 36.921875 38.90625 39.578125 
Q 37.890625 42.234375 35.28125 43.8125 
Q 32.671875 45.40625 29.15625 45.40625 
Q 23.53125 45.40625 19.453125 41.84375 
Q 15.375 38.28125 15.375 28.328125 
L 15.375 0 
z
" id="ArialMT-110"/>
      <path d="M 25.78125 7.859375 
L 27.046875 0.09375 
Q 23.34375 -0.6875 20.40625 -0.6875 
Q 15.625 -0.6875 12.984375 0.828125 
Q 10.359375 2.34375 9.28125 4.8125 
Q 8.203125 7.28125 8.203125 15.1875 
L 8.203125 45.015625 
L 1.765625 45.015625 
L 1.765625 51.859375 
L 8.203125 51.859375 
L 8.203125 64.703125 
L 16.9375 69.96875 
L 16.9375 51.859375 
L 25.78125 51.859375 
L 25.78125 45.015625 
L 16.9375 45.015625 
L 16.9375 14.703125 
Q 16.9375 10.9375 17.40625 9.859375 
Q 17.875 8.796875 18.921875 8.15625 
Q 19.96875 7.515625 21.921875 7.515625 
Q 23.390625 7.515625 25.78125 7.859375 
z
" id="ArialMT-116"/>
      <path d="M 42.09375 16.703125 
L 51.171875 15.578125 
Q 49.03125 7.625 43.21875 3.21875 
Q 37.40625 -1.171875 28.375 -1.171875 
Q 17 -1.171875 10.328125 5.828125 
Q 3.65625 12.84375 3.65625 25.484375 
Q 3.65625 38.578125 10.390625 45.796875 
Q 17.140625 53.03125 27.875 53.03125 
Q 38.28125 53.03125 44.875 45.953125 
Q 51.46875 38.875 51.46875 26.03125 
Q 51.46875 25.25 51.421875 23.6875 
L 12.75 23.6875 
Q 13.234375 15.140625 17.578125 10.59375 
Q 21.921875 6.0625 28.421875 6.0625 
Q 33.25 6.0625 36.671875 8.59375 
Q 40.09375 11.140625 42.09375 16.703125 
z
M 13.234375 30.90625 
L 42.1875 30.90625 
Q 41.609375 37.453125 38.875 40.71875 
Q 34.671875 45.796875 27.984375 45.796875 
Q 21.921875 45.796875 17.796875 41.75 
Q 13.671875 37.703125 13.234375 30.90625 
z
" id="ArialMT-101"/>
      <path d="M 6.5 0 
L 6.5 51.859375 
L 14.40625 51.859375 
L 14.40625 44 
Q 17.4375 49.515625 20 51.265625 
Q 22.5625 53.03125 25.640625 53.03125 
Q 30.078125 53.03125 34.671875 50.203125 
L 31.640625 42.046875 
Q 28.421875 43.953125 25.203125 43.953125 
Q 22.3125 43.953125 20.015625 42.21875 
Q 17.71875 40.484375 16.75 37.40625 
Q 15.28125 32.71875 15.28125 27.15625 
L 15.28125 0 
z
" id="ArialMT-114"/>
      <path id="ArialMT-32"/>
      <path d="M 6.640625 61.46875 
L 6.640625 71.578125 
L 15.4375 71.578125 
L 15.4375 61.46875 
z
M 6.640625 0 
L 6.640625 51.859375 
L 15.4375 51.859375 
L 15.4375 0 
z
" id="ArialMT-105"/>
      <path d="M 40.234375 0 
L 40.234375 6.546875 
Q 35.296875 -1.171875 25.734375 -1.171875 
Q 19.53125 -1.171875 14.328125 2.25 
Q 9.125 5.671875 6.265625 11.796875 
Q 3.421875 17.921875 3.421875 25.875 
Q 3.421875 33.640625 6 39.96875 
Q 8.59375 46.296875 13.765625 49.65625 
Q 18.953125 53.03125 25.34375 53.03125 
Q 30.03125 53.03125 33.6875 51.046875 
Q 37.359375 49.078125 39.65625 45.90625 
L 39.65625 71.578125 
L 48.390625 71.578125 
L 48.390625 0 
z
M 12.453125 25.875 
Q 12.453125 15.921875 16.640625 10.984375 
Q 20.84375 6.0625 26.5625 6.0625 
Q 32.328125 6.0625 36.34375 10.765625 
Q 40.375 15.484375 40.375 25.140625 
Q 40.375 35.796875 36.265625 40.765625 
Q 32.171875 45.75 26.171875 45.75 
Q 20.3125 45.75 16.375 40.96875 
Q 12.453125 36.1875 12.453125 25.875 
z
" id="ArialMT-100"/>
     </defs>
     <g style="fill:#262626;" transform="translate(303.319824 529.789)scale(0.16 -0.16)">
      <use xlink:href="#ArialMT-67"/>
      <use x="72.216797" xlink:href="#ArialMT-111"/>
      <use x="127.832031" xlink:href="#ArialMT-117"/>
      <use x="183.447266" xlink:href="#ArialMT-110"/>
      <use x="239.0625" xlink:href="#ArialMT-116"/>
      <use x="266.845703" xlink:href="#ArialMT-101"/>
      <use x="322.460938" xlink:href="#ArialMT-114"/>
      <use x="355.761719" xlink:href="#ArialMT-32"/>
      <use x="383.544922" xlink:href="#ArialMT-105"/>
      <use x="405.761719" xlink:href="#ArialMT-100"/>
     </g>
    </g>
   </g>
   <g id="matplotlib.axis_2">
    <g id="ytick_1">
     <g id="text_5">
      <!-- 0 -->
      <g style="fill:#262626;" transform="translate(46.595 476.361886)scale(0.16 -0.16)">
       <use xlink:href="#ArialMT-48"/>
      </g>
     </g>
    </g>
    <g id="ytick_2">
     <g id="text_6">
      <!-- 100 -->
      <g style="fill:#262626;" transform="translate(28.8 401.043239)scale(0.16 -0.16)">
       <use xlink:href="#ArialMT-49"/>
       <use x="55.615234" xlink:href="#ArialMT-48"/>
       <use x="111.230469" xlink:href="#ArialMT-48"/>
      </g>
     </g>
    </g>
    <g id="ytick_3">
     <g id="text_7">
      <!-- 200 -->
      <g style="fill:#262626;" transform="translate(28.8 325.724592)scale(0.16 -0.16)">
       <use xlink:href="#ArialMT-50"/>
       <use x="55.615234" xlink:href="#ArialMT-48"/>
       <use x="111.230469" xlink:href="#ArialMT-48"/>
      </g>
     </g>
    </g>
    <g id="ytick_4">
     <g id="text_8">
      <!-- 300 -->
      <defs>
       <path d="M 4.203125 18.890625 
L 12.984375 20.0625 
Q 14.5 12.59375 18.140625 9.296875 
Q 21.78125 6 27 6 
Q 33.203125 6 37.46875 10.296875 
Q 41.75 14.59375 41.75 20.953125 
Q 41.75 27 37.796875 30.921875 
Q 33.84375 34.859375 27.734375 34.859375 
Q 25.25 34.859375 21.53125 33.890625 
L 22.515625 41.609375 
Q 23.390625 41.5 23.921875 41.5 
Q 29.546875 41.5 34.03125 44.421875 
Q 38.53125 47.359375 38.53125 53.46875 
Q 38.53125 58.296875 35.25 61.46875 
Q 31.984375 64.65625 26.8125 64.65625 
Q 21.6875 64.65625 18.265625 61.421875 
Q 14.84375 58.203125 13.875 51.765625 
L 5.078125 53.328125 
Q 6.6875 62.15625 12.390625 67.015625 
Q 18.109375 71.875 26.609375 71.875 
Q 32.46875 71.875 37.390625 69.359375 
Q 42.328125 66.84375 44.9375 62.5 
Q 47.5625 58.15625 47.5625 53.265625 
Q 47.5625 48.640625 45.0625 44.828125 
Q 42.578125 41.015625 37.703125 38.765625 
Q 44.046875 37.3125 47.5625 32.6875 
Q 51.078125 28.078125 51.078125 21.140625 
Q 51.078125 11.765625 44.234375 5.25 
Q 37.40625 -1.265625 26.953125 -1.265625 
Q 17.53125 -1.265625 11.296875 4.34375 
Q 5.078125 9.96875 4.203125 18.890625 
z
" id="ArialMT-51"/>
      </defs>
      <g style="fill:#262626;" transform="translate(28.8 250.405945)scale(0.16 -0.16)">
       <use xlink:href="#ArialMT-51"/>
       <use x="55.615234" xlink:href="#ArialMT-48"/>
       <use x="111.230469" xlink:href="#ArialMT-48"/>
      </g>
     </g>
    </g>
    <g id="ytick_5">
     <g id="text_9">
      <!-- 400 -->
      <defs>
       <path d="M 32.328125 0 
L 32.328125 17.140625 
L 1.265625 17.140625 
L 1.265625 25.203125 
L 33.9375 71.578125 
L 41.109375 71.578125 
L 41.109375 25.203125 
L 50.78125 25.203125 
L 50.78125 17.140625 
L 41.109375 17.140625 
L 41.109375 0 
z
M 32.328125 25.203125 
L 32.328125 57.46875 
L 9.90625 25.203125 
z
" id="ArialMT-52"/>
      </defs>
      <g style="fill:#262626;" transform="translate(28.8 175.087297)scale(0.16 -0.16)">
       <use xlink:href="#ArialMT-52"/>
       <use x="55.615234" xlink:href="#ArialMT-48"/>
       <use x="111.230469" xlink:href="#ArialMT-48"/>
      </g>
     </g>
    </g>
    <g id="ytick_6">
     <g id="text_10">
      <!-- 500 -->
      <g style="fill:#262626;" transform="translate(28.8 99.76865)scale(0.16 -0.16)">
       <use xlink:href="#ArialMT-53"/>
       <use x="55.615234" xlink:href="#ArialMT-48"/>
       <use x="111.230469" xlink:href="#ArialMT-48"/>
      </g>
     </g>
    </g>
    <g id="ytick_7">
     <g id="text_11">
      <!-- 600 -->
      <g style="fill:#262626;" transform="translate(28.8 24.450003)scale(0.16 -0.16)">
       <use xlink:href="#ArialMT-54"/>
       <use x="55.615234" xlink:href="#ArialMT-48"/>
       <use x="111.230469" xlink:href="#ArialMT-48"/>
      </g>
     </g>
    </g>
    <g id="text_12">
     <!-- Count [$h^{-1}$] -->
     <defs>
      <path d="M 6.78125 -19.875 
L 6.78125 71.578125 
L 26.171875 71.578125 
L 26.171875 64.3125 
L 15.578125 64.3125 
L 15.578125 -12.59375 
L 26.171875 -12.59375 
L 26.171875 -19.875 
z
" id="ArialMT-91"/>
      <path d="M 55.71875 33.015625 
L 49.3125 0 
L 40.28125 0 
L 46.6875 32.671875 
Q 47.125 34.96875 47.359375 36.71875 
Q 47.609375 38.484375 47.609375 39.5 
Q 47.609375 43.609375 45.015625 45.890625 
Q 42.4375 48.1875 37.796875 48.1875 
Q 30.5625 48.1875 25.265625 43.296875 
Q 19.96875 38.421875 18.40625 30.328125 
L 12.5 0 
L 3.515625 0 
L 18.3125 75.984375 
L 27.296875 75.984375 
L 21.484375 46.09375 
Q 24.90625 50.6875 30.21875 53.34375 
Q 35.546875 56 41.40625 56 
Q 48.640625 56 52.609375 52.09375 
Q 56.59375 48.1875 56.59375 41.109375 
Q 56.59375 39.359375 56.375 37.359375 
Q 56.15625 35.359375 55.71875 33.015625 
z
" id="DejaVuSans-Oblique-104"/>
      <path d="M 10.59375 35.5 
L 73.1875 35.5 
L 73.1875 27.203125 
L 10.59375 27.203125 
z
" id="DejaVuSans-8722"/>
      <path d="M 12.40625 8.296875 
L 28.515625 8.296875 
L 28.515625 63.921875 
L 10.984375 60.40625 
L 10.984375 69.390625 
L 28.421875 72.90625 
L 38.28125 72.90625 
L 38.28125 8.296875 
L 54.390625 8.296875 
L 54.390625 0 
L 12.40625 0 
z
" id="DejaVuSans-49"/>
      <path d="M 21.296875 -19.875 
L 1.90625 -19.875 
L 1.90625 -12.59375 
L 12.5 -12.59375 
L 12.5 64.3125 
L 1.90625 64.3125 
L 1.90625 71.578125 
L 21.296875 71.578125 
z
" id="ArialMT-93"/>
     </defs>
     <g style="fill:#262626;" transform="translate(21.6 292.112)rotate(-90)scale(0.16 -0.16)">
      <use transform="translate(0 0.684375)" xlink:href="#ArialMT-67"/>
      <use transform="translate(72.216797 0.684375)" xlink:href="#ArialMT-111"/>
      <use transform="translate(127.832031 0.684375)" xlink:href="#ArialMT-117"/>
      <use transform="translate(183.447266 0.684375)" xlink:href="#ArialMT-110"/>
      <use transform="translate(239.0625 0.684375)" xlink:href="#ArialMT-116"/>
      <use transform="translate(266.845703 0.684375)" xlink:href="#ArialMT-32"/>
      <use transform="translate(294.628906 0.684375)" xlink:href="#ArialMT-91"/>
      <use transform="translate(322.412109 0.684375)" xlink:href="#DejaVuSans-Oblique-104"/>
      <use transform="translate(393.238724 38.965625)scale(0.7)" xlink:href="#DejaVuSans-8722"/>
      <use transform="translate(451.891068 38.965625)scale(0.7)" xlink:href="#DejaVuSans-49"/>
      <use transform="translate(499.161576 0.684375)" xlink:href="#ArialMT-93"/>
     </g>
    </g>
   </g>
   <g id="PolyCollection_1">
    <defs>
     <path d="M 147.365518 -69.533364 
L 88.713411 -69.533364 
L 85.23742 -73.474279 
L 82.72127 -77.415194 
L 81.311581 -81.356109 
L 81.008155 -85.297024 
L 81.681136 -89.237939 
L 83.113378 -93.178854 
L 85.052542 -97.119769 
L 87.25747 -101.060684 
L 89.528778 -105.001599 
L 91.721114 -108.942514 
L 93.740713 -112.883429 
L 95.534859 -116.824345 
L 97.079526 -120.76526 
L 98.369209 -124.706175 
L 99.410318 -128.64709 
L 100.217639 -132.588005 
L 100.812571 -136.52892 
L 101.221958 -140.469835 
L 101.476767 -144.41075 
L 101.610284 -148.351665 
L 101.655876 -152.29258 
L 101.644514 -156.233495 
L 101.602467 -160.17441 
L 101.549663 -164.115325 
L 101.499188 -168.056241 
L 101.458123 -171.997156 
L 101.429544 -175.938071 
L 101.415094 -179.878986 
L 101.41732 -183.819901 
L 101.441053 -187.760816 
L 101.493438 -191.701731 
L 101.582709 -195.642646 
L 101.716243 -199.583561 
L 101.898649 -203.524476 
L 102.130552 -207.465391 
L 102.408417 -211.406306 
L 102.725318 -215.347221 
L 103.072242 -219.288137 
L 103.43943 -223.229052 
L 103.817442 -227.169967 
L 104.197905 -231.110882 
L 104.574067 -235.051797 
L 104.941296 -238.992712 
L 105.297448 -242.933627 
L 105.642828 -246.874542 
L 105.979418 -250.815457 
L 106.309259 -254.756372 
L 106.632239 -258.697287 
L 106.943969 -262.638202 
L 107.234596 -266.579117 
L 107.489238 -270.520033 
L 107.690273 -274.460948 
L 107.821081 -278.401863 
L 107.870363 -282.342778 
L 107.835921 -286.283693 
L 107.726945 -290.224608 
L 107.564206 -294.165523 
L 107.378018 -298.106438 
L 107.204296 -302.047353 
L 107.07937 -305.988268 
L 107.034515 -309.929183 
L 107.091261 -313.870098 
L 107.258516 -317.811013 
L 107.532164 -321.751929 
L 107.897223 -325.692844 
L 108.331949 -329.633759 
L 108.812683 -333.574674 
L 109.318139 -337.515589 
L 109.832066 -341.456504 
L 110.343907 -345.397419 
L 110.847768 -349.338334 
L 111.340474 -353.279249 
L 111.819587 -357.220164 
L 112.282043 -361.161079 
L 112.723643 -365.101994 
L 113.139316 -369.042909 
L 113.523876 -372.983825 
L 113.872963 -376.92474 
L 114.183948 -380.865655 
L 114.456638 -384.80657 
L 114.693651 -388.747485 
L 114.900378 -392.6884 
L 115.084458 -396.629315 
L 115.254793 -400.57023 
L 115.420271 -404.511145 
L 115.588451 -408.45206 
L 115.764513 -412.392975 
L 115.950684 -416.33389 
L 116.146253 -420.274805 
L 116.348082 -424.215721 
L 116.551434 -428.156636 
L 116.750916 -432.097551 
L 116.941331 -436.038466 
L 117.118335 -439.979381 
L 117.278829 -443.920296 
L 117.421082 -447.861211 
L 117.544627 -451.802126 
L 117.649994 -455.743041 
L 117.738372 -459.683956 
L 118.340558 -459.683956 
L 118.340558 -459.683956 
L 118.428936 -455.743041 
L 118.534302 -451.802126 
L 118.657847 -447.861211 
L 118.800101 -443.920296 
L 118.960594 -439.979381 
L 119.137598 -436.038466 
L 119.328013 -432.097551 
L 119.527495 -428.156636 
L 119.730848 -424.215721 
L 119.932677 -420.274805 
L 120.128246 -416.33389 
L 120.314417 -412.392975 
L 120.490478 -408.45206 
L 120.658659 -404.511145 
L 120.824137 -400.57023 
L 120.994471 -396.629315 
L 121.178551 -392.6884 
L 121.385279 -388.747485 
L 121.622292 -384.80657 
L 121.894981 -380.865655 
L 122.205967 -376.92474 
L 122.555053 -372.983825 
L 122.939613 -369.042909 
L 123.355287 -365.101994 
L 123.796886 -361.161079 
L 124.259342 -357.220164 
L 124.738456 -353.279249 
L 125.231161 -349.338334 
L 125.735023 -345.397419 
L 126.246864 -341.456504 
L 126.76079 -337.515589 
L 127.266247 -333.574674 
L 127.746981 -329.633759 
L 128.181706 -325.692844 
L 128.546766 -321.751929 
L 128.820413 -317.811013 
L 128.987669 -313.870098 
L 129.044415 -309.929183 
L 128.99956 -305.988268 
L 128.874634 -302.047353 
L 128.700911 -298.106438 
L 128.514723 -294.165523 
L 128.351984 -290.224608 
L 128.243009 -286.283693 
L 128.208567 -282.342778 
L 128.257849 -278.401863 
L 128.388657 -274.460948 
L 128.589691 -270.520033 
L 128.844334 -266.579117 
L 129.134961 -262.638202 
L 129.446691 -258.697287 
L 129.76967 -254.756372 
L 130.099511 -250.815457 
L 130.436102 -246.874542 
L 130.781482 -242.933627 
L 131.137634 -238.992712 
L 131.504863 -235.051797 
L 131.881024 -231.110882 
L 132.261487 -227.169967 
L 132.6395 -223.229052 
L 133.006688 -219.288137 
L 133.353612 -215.347221 
L 133.670513 -211.406306 
L 133.948377 -207.465391 
L 134.18028 -203.524476 
L 134.362687 -199.583561 
L 134.496221 -195.642646 
L 134.585491 -191.701731 
L 134.637876 -187.760816 
L 134.66161 -183.819901 
L 134.663836 -179.878986 
L 134.649386 -175.938071 
L 134.620807 -171.997156 
L 134.579742 -168.056241 
L 134.529266 -164.115325 
L 134.476462 -160.17441 
L 134.434415 -156.233495 
L 134.423054 -152.29258 
L 134.468646 -148.351665 
L 134.602163 -144.41075 
L 134.856971 -140.469835 
L 135.266359 -136.52892 
L 135.86129 -132.588005 
L 136.668611 -128.64709 
L 137.709721 -124.706175 
L 138.999404 -120.76526 
L 140.544071 -116.824345 
L 142.338217 -112.883429 
L 144.357816 -108.942514 
L 146.550151 -105.001599 
L 148.82146 -101.060684 
L 151.026388 -97.119769 
L 152.965551 -93.178854 
L 154.397794 -89.237939 
L 155.070775 -85.297024 
L 154.767348 -81.356109 
L 153.35766 -77.415194 
L 150.841509 -73.474279 
L 147.365518 -69.533364 
z
" id="m00d2bb614e" style="stroke:#141414;stroke-width:1.5;"/>
    </defs>
    <g clip-path="url(#pf7dcc74d59)">
     <use style="fill:#083c1d;stroke:#141414;stroke-width:1.5;" x="0" xlink:href="#m00d2bb614e" y="540.169"/>
    </g>
   </g>
   <g id="PolyCollection_2">
    <defs>
     <path d="M 214.084221 -69.533364 
L 170.119948 -69.533364 
L 166.286301 -73.527534 
L 162.932661 -77.521705 
L 160.268762 -81.515876 
L 158.399563 -85.510046 
L 157.318959 -89.504217 
L 156.930793 -93.498388 
L 157.087605 -97.492558 
L 157.633133 -101.486729 
L 158.435848 -105.4809 
L 159.406141 -109.47507 
L 160.496475 -113.469241 
L 161.689167 -117.463412 
L 162.979024 -121.457583 
L 164.357736 -125.451753 
L 165.804603 -129.445924 
L 167.285001 -133.440095 
L 168.755154 -137.434265 
L 170.170054 -141.428436 
L 171.491086 -145.422607 
L 172.69084 -149.416777 
L 173.754252 -153.410948 
L 174.676755 -157.405119 
L 175.461019 -161.399289 
L 176.113886 -165.39346 
L 176.644528 -169.387631 
L 177.063967 -173.381801 
L 177.385499 -177.375972 
L 177.62519 -181.370143 
L 177.801733 -185.364314 
L 177.935269 -189.358484 
L 178.045296 -193.352655 
L 178.14822 -197.346826 
L 178.255414 -201.340996 
L 178.372493 -205.335167 
L 178.500088 -209.329338 
L 178.63581 -213.323508 
L 178.776601 -217.317679 
L 178.920604 -221.31185 
L 179.067954 -225.30602 
L 179.220442 -229.300191 
L 179.380454 -233.294362 
L 179.549808 -237.288532 
L 179.729014 -241.282703 
L 179.917156 -245.276874 
L 180.112221 -249.271045 
L 180.311547 -253.265215 
L 180.512085 -257.259386 
L 180.710396 -261.253557 
L 180.902522 -265.247727 
L 181.083954 -269.241898 
L 181.249847 -273.236069 
L 181.395469 -277.230239 
L 181.516809 -281.22441 
L 181.611275 -285.218581 
L 181.67851 -289.212751 
L 181.721319 -293.206922 
L 181.746527 -297.201093 
L 181.765402 -301.195263 
L 181.793123 -305.189434 
L 181.846997 -309.183605 
L 181.943596 -313.177775 
L 182.095501 -317.171946 
L 182.308655 -321.166117 
L 182.581235 -325.160288 
L 182.904397 -329.154458 
L 183.264623 -333.148629 
L 183.646852 -337.1428 
L 184.037436 -341.13697 
L 184.426156 -345.131141 
L 184.806945 -349.125312 
L 185.177409 -353.119482 
L 185.537533 -357.113653 
L 185.888094 -361.107824 
L 186.229311 -365.101994 
L 186.560089 -369.096165 
L 186.878037 -373.090336 
L 187.180196 -377.084506 
L 187.464159 -381.078677 
L 187.729169 -385.072848 
L 187.976758 -389.067019 
L 188.210667 -393.061189 
L 188.436076 -397.05536 
L 188.658378 -401.049531 
L 188.881908 -405.043701 
L 189.109019 -409.037872 
L 189.339733 -413.032043 
L 189.57204 -417.026213 
L 189.802681 -421.020384 
L 190.028113 -425.014555 
L 190.245367 -429.008725 
L 190.452512 -433.002896 
L 190.648689 -436.997067 
L 190.833781 -440.991237 
L 191.007928 -444.985408 
L 191.171111 -448.979579 
L 191.322913 -452.973749 
L 191.462504 -456.96792 
L 191.588781 -460.962091 
L 191.700605 -464.956262 
L 192.503564 -464.956262 
L 192.503564 -464.956262 
L 192.615389 -460.962091 
L 192.741665 -456.96792 
L 192.881256 -452.973749 
L 193.033059 -448.979579 
L 193.196241 -444.985408 
L 193.370388 -440.991237 
L 193.55548 -436.997067 
L 193.751657 -433.002896 
L 193.958803 -429.008725 
L 194.176056 -425.014555 
L 194.401488 -421.020384 
L 194.632129 -417.026213 
L 194.864436 -413.032043 
L 195.09515 -409.037872 
L 195.322261 -405.043701 
L 195.545792 -401.049531 
L 195.768093 -397.05536 
L 195.993502 -393.061189 
L 196.227411 -389.067019 
L 196.475 -385.072848 
L 196.74001 -381.078677 
L 197.023973 -377.084506 
L 197.326132 -373.090336 
L 197.64408 -369.096165 
L 197.974858 -365.101994 
L 198.316076 -361.107824 
L 198.666637 -357.113653 
L 199.02676 -353.119482 
L 199.397224 -349.125312 
L 199.778013 -345.131141 
L 200.166733 -341.13697 
L 200.557317 -337.1428 
L 200.939546 -333.148629 
L 201.299772 -329.154458 
L 201.622935 -325.160288 
L 201.895515 -321.166117 
L 202.108668 -317.171946 
L 202.260573 -313.177775 
L 202.357172 -309.183605 
L 202.411046 -305.189434 
L 202.438767 -301.195263 
L 202.457643 -297.201093 
L 202.482851 -293.206922 
L 202.525659 -289.212751 
L 202.592895 -285.218581 
L 202.68736 -281.22441 
L 202.8087 -277.230239 
L 202.954322 -273.236069 
L 203.120215 -269.241898 
L 203.301647 -265.247727 
L 203.493773 -261.253557 
L 203.692084 -257.259386 
L 203.892622 -253.265215 
L 204.091948 -249.271045 
L 204.287013 -245.276874 
L 204.475155 -241.282703 
L 204.654361 -237.288532 
L 204.823715 -233.294362 
L 204.983727 -229.300191 
L 205.136216 -225.30602 
L 205.283565 -221.31185 
L 205.427568 -217.317679 
L 205.568359 -213.323508 
L 205.704081 -209.329338 
L 205.831676 -205.335167 
L 205.948755 -201.340996 
L 206.055949 -197.346826 
L 206.158873 -193.352655 
L 206.2689 -189.358484 
L 206.402437 -185.364314 
L 206.578979 -181.370143 
L 206.81867 -177.375972 
L 207.140202 -173.381801 
L 207.559641 -169.387631 
L 208.090283 -165.39346 
L 208.743151 -161.399289 
L 209.527414 -157.405119 
L 210.449917 -153.410948 
L 211.513329 -149.416777 
L 212.713083 -145.422607 
L 214.034115 -141.428436 
L 215.449016 -137.434265 
L 216.919168 -133.440095 
L 218.399566 -129.445924 
L 219.846433 -125.451753 
L 221.225145 -121.457583 
L 222.515002 -117.463412 
L 223.707694 -113.469241 
L 224.798028 -109.47507 
L 225.768321 -105.4809 
L 226.571036 -101.486729 
L 227.116564 -97.492558 
L 227.273376 -93.498388 
L 226.885211 -89.504217 
L 225.804606 -85.510046 
L 223.935407 -81.515876 
L 221.271508 -77.521705 
L 217.917868 -73.527534 
L 214.084221 -69.533364 
z
" id="m2362e263ff" style="stroke:#141414;stroke-width:1.5;"/>
    </defs>
    <g clip-path="url(#pf7dcc74d59)">
     <use style="fill:#0e5f2f;stroke:#141414;stroke-width:1.5;" x="0" xlink:href="#m2362e263ff" y="540.169"/>
    </g>
   </g>
   <g id="PolyCollection_3">
    <defs>
     <path d="M 337.098872 -69.533364 
L 269.293156 -69.533364 
L 266.91413 -73.930755 
L 266.164704 -78.328147 
L 267.018515 -82.725539 
L 269.200002 -87.122931 
L 272.263107 -91.520322 
L 275.701899 -95.917714 
L 279.056477 -100.315106 
L 281.986049 -104.712497 
L 284.298205 -109.109889 
L 285.939907 -113.507281 
L 286.964898 -117.904673 
L 287.49304 -122.302064 
L 287.672572 -126.699456 
L 287.650572 -131.096848 
L 287.552944 -135.49424 
L 287.473433 -139.891631 
L 287.470582 -144.289023 
L 287.571144 -148.686415 
L 287.777728 -153.083806 
L 288.077824 -157.481198 
L 288.451392 -161.87859 
L 288.875176 -166.275982 
L 289.323543 -170.673373 
L 289.767251 -175.070765 
L 290.172364 -179.468157 
L 290.50128 -183.865549 
L 290.71662 -188.26294 
L 290.787229 -192.660332 
L 290.694396 -197.057724 
L 290.436117 -201.455115 
L 290.027875 -205.852507 
L 289.499681 -210.249899 
L 288.890421 -214.647291 
L 288.241374 -219.044682 
L 287.590812 -223.442074 
L 286.970885 -227.839466 
L 286.406994 -232.236858 
L 285.918993 -236.634249 
L 285.523139 -241.031641 
L 285.233792 -245.429033 
L 285.064188 -249.826424 
L 285.026063 -254.223816 
L 285.128193 -258.621208 
L 285.374208 -263.0186 
L 285.760264 -267.415991 
L 286.273271 -271.813383 
L 286.890369 -276.210775 
L 287.580091 -280.608167 
L 288.305223 -285.005558 
L 289.026962 -289.40295 
L 289.709647 -293.800342 
L 290.325289 -298.197733 
L 290.857184 -302.595125 
L 291.302055 -306.992517 
L 291.670322 -311.389909 
L 291.984249 -315.7873 
L 292.274043 -320.184692 
L 292.572373 -324.582084 
L 292.908314 -328.979476 
L 293.302031 -333.376867 
L 293.76148 -337.774259 
L 294.281907 -342.171651 
L 294.848102 -346.569042 
L 295.438587 -350.966434 
L 296.030427 -355.363826 
L 296.603392 -359.761218 
L 297.142659 -364.158609 
L 297.639828 -368.556001 
L 298.092548 -372.953393 
L 298.503233 -377.350785 
L 298.877339 -381.748176 
L 299.221584 -386.145568 
L 299.542375 -390.54296 
L 299.844708 -394.940351 
L 300.131702 -399.337743 
L 300.404788 -403.735135 
L 300.66434 -408.132527 
L 300.91041 -412.529918 
L 301.143221 -416.92731 
L 301.363266 -421.324702 
L 301.571076 -425.722094 
L 301.766876 -430.119485 
L 301.950344 -434.516877 
L 302.120589 -438.914269 
L 302.276342 -443.31166 
L 302.416273 -447.709052 
L 302.539346 -452.106444 
L 302.645116 -456.503836 
L 302.733926 -460.901227 
L 302.806938 -465.298619 
L 302.866008 -469.696011 
L 302.913439 -474.093402 
L 302.951686 -478.490794 
L 302.9831 -482.888186 
L 303.009737 -487.285578 
L 303.033265 -491.682969 
L 303.054907 -496.080361 
L 303.075423 -500.477753 
L 303.095115 -504.875145 
L 303.296913 -504.875145 
L 303.296913 -504.875145 
L 303.316606 -500.477753 
L 303.337122 -496.080361 
L 303.358764 -491.682969 
L 303.382292 -487.285578 
L 303.408929 -482.888186 
L 303.440342 -478.490794 
L 303.47859 -474.093402 
L 303.526021 -469.696011 
L 303.585091 -465.298619 
L 303.658102 -460.901227 
L 303.746912 -456.503836 
L 303.852683 -452.106444 
L 303.975755 -447.709052 
L 304.115686 -443.31166 
L 304.271439 -438.914269 
L 304.441684 -434.516877 
L 304.625152 -430.119485 
L 304.820953 -425.722094 
L 305.028763 -421.324702 
L 305.248808 -416.92731 
L 305.481619 -412.529918 
L 305.727688 -408.132527 
L 305.98724 -403.735135 
L 306.260326 -399.337743 
L 306.54732 -394.940351 
L 306.849653 -390.54296 
L 307.170444 -386.145568 
L 307.514689 -381.748176 
L 307.888796 -377.350785 
L 308.29948 -372.953393 
L 308.7522 -368.556001 
L 309.24937 -364.158609 
L 309.788636 -359.761218 
L 310.361602 -355.363826 
L 310.953441 -350.966434 
L 311.543926 -346.569042 
L 312.110121 -342.171651 
L 312.630548 -337.774259 
L 313.089998 -333.376867 
L 313.483715 -328.979476 
L 313.819655 -324.582084 
L 314.117985 -320.184692 
L 314.407779 -315.7873 
L 314.721707 -311.389909 
L 315.089973 -306.992517 
L 315.534844 -302.595125 
L 316.066739 -298.197733 
L 316.682382 -293.800342 
L 317.365067 -289.40295 
L 318.086805 -285.005558 
L 318.811938 -280.608167 
L 319.50166 -276.210775 
L 320.118758 -271.813383 
L 320.631764 -267.415991 
L 321.01782 -263.0186 
L 321.263836 -258.621208 
L 321.365965 -254.223816 
L 321.327841 -249.826424 
L 321.158237 -245.429033 
L 320.868889 -241.031641 
L 320.473036 -236.634249 
L 319.985034 -232.236858 
L 319.421143 -227.839466 
L 318.801216 -223.442074 
L 318.150654 -219.044682 
L 317.501607 -214.647291 
L 316.892347 -210.249899 
L 316.364154 -205.852507 
L 315.955911 -201.455115 
L 315.697632 -197.057724 
L 315.604799 -192.660332 
L 315.675409 -188.26294 
L 315.890749 -183.865549 
L 316.219665 -179.468157 
L 316.624778 -175.070765 
L 317.068485 -170.673373 
L 317.516853 -166.275982 
L 317.940636 -161.87859 
L 318.314204 -157.481198 
L 318.6143 -153.083806 
L 318.820884 -148.686415 
L 318.921447 -144.289023 
L 318.918595 -139.891631 
L 318.839084 -135.49424 
L 318.741457 -131.096848 
L 318.719456 -126.699456 
L 318.898988 -122.302064 
L 319.42713 -117.904673 
L 320.452121 -113.507281 
L 322.093823 -109.109889 
L 324.405979 -104.712497 
L 327.335551 -100.315106 
L 330.69013 -95.917714 
L 334.128921 -91.520322 
L 337.192026 -87.122931 
L 339.373514 -82.725539 
L 340.227324 -78.328147 
L 339.477898 -73.930755 
L 337.098872 -69.533364 
z
" id="m43199709ba" style="stroke:#141414;stroke-width:1.5;"/>
    </defs>
    <g clip-path="url(#pf7dcc74d59)">
     <use style="fill:#083c1d;stroke:#141414;stroke-width:1.5;" x="0" xlink:href="#m43199709ba" y="540.169"/>
    </g>
   </g>
   <g id="PolyCollection_4">
    <defs>
     <path d="M 404.956391 -69.533364 
L 349.560876 -69.533364 
L 346.960311 -73.961187 
L 345.542502 -78.389011 
L 345.388073 -82.816834 
L 346.389436 -87.244658 
L 348.285699 -91.672481 
L 350.729577 -96.100305 
L 353.363619 -100.528128 
L 355.883863 -104.955952 
L 358.077505 -109.383775 
L 359.832354 -113.811599 
L 361.124567 -118.239422 
L 361.994855 -122.667246 
L 362.52236 -127.095069 
L 362.801922 -131.522893 
L 362.927032 -135.950716 
L 362.978543 -140.37854 
L 363.018445 -144.806363 
L 363.087929 -149.234187 
L 363.208926 -153.66201 
L 363.388098 -158.089834 
L 363.621864 -162.517657 
L 363.901022 -166.945481 
L 364.213837 -171.373304 
L 364.547225 -175.801128 
L 364.886412 -180.228951 
L 365.214021 -184.656775 
L 365.509622 -189.084598 
L 365.750461 -193.512422 
L 365.913537 -197.940245 
L 365.97862 -202.368069 
L 365.931449 -206.795892 
L 365.766261 -211.223716 
L 365.487054 -215.651539 
L 365.107367 -220.079363 
L 364.648793 -224.507186 
L 364.138661 -228.93501 
L 363.607351 -233.362833 
L 363.085577 -237.790657 
L 362.601804 -242.21848 
L 362.179986 -246.646304 
L 361.837801 -251.074127 
L 361.585678 -255.501951 
L 361.426799 -259.929774 
L 361.358014 -264.357598 
L 361.371322 -268.785421 
L 361.455356 -273.213245 
L 361.596394 -277.641068 
L 361.778731 -282.068892 
L 361.984687 -286.496715 
L 362.194877 -290.924539 
L 362.389349 -295.352362 
L 362.549893 -299.780186 
L 362.663251 -304.208009 
L 362.724387 -308.635833 
L 362.738762 -313.063656 
L 362.722704 -317.49148 
L 362.701532 -321.919303 
L 362.705744 -326.347127 
L 362.766137 -330.77495 
L 362.908914 -335.202774 
L 363.15179 -339.630597 
L 363.501761 -344.058421 
L 363.954854 -348.486244 
L 364.497746 -352.914068 
L 365.110784 -357.341891 
L 365.771689 -361.769715 
L 366.459122 -366.197538 
L 367.155406 -370.625362 
L 367.848031 -375.053185 
L 368.529878 -379.481009 
L 369.198403 -383.908832 
L 369.854159 -388.336656 
L 370.499023 -392.764479 
L 371.134472 -397.192303 
L 371.760177 -401.620126 
L 372.373164 -406.04795 
L 372.967667 -410.475773 
L 373.535706 -414.903597 
L 374.068208 -419.33142 
L 374.556393 -423.759244 
L 374.9931 -428.187067 
L 375.373772 -432.614891 
L 375.696989 -437.042714 
L 375.964519 -441.470538 
L 376.180959 -445.898361 
L 376.353043 -450.326185 
L 376.488738 -454.754008 
L 376.596243 -459.181832 
L 376.683076 -463.609655 
L 376.755402 -468.037479 
L 376.817735 -472.465302 
L 376.872996 -476.893126 
L 376.922856 -481.320949 
L 376.968189 -485.748773 
L 377.009468 -490.176596 
L 377.047031 -494.60442 
L 377.081169 -499.032243 
L 377.112122 -503.460067 
L 377.140019 -507.88789 
L 377.377249 -507.88789 
L 377.377249 -507.88789 
L 377.405146 -503.460067 
L 377.436098 -499.032243 
L 377.470237 -494.60442 
L 377.5078 -490.176596 
L 377.549079 -485.748773 
L 377.594412 -481.320949 
L 377.644272 -476.893126 
L 377.699533 -472.465302 
L 377.761866 -468.037479 
L 377.834192 -463.609655 
L 377.921025 -459.181832 
L 378.02853 -454.754008 
L 378.164225 -450.326185 
L 378.336309 -445.898361 
L 378.552749 -441.470538 
L 378.820279 -437.042714 
L 379.143496 -432.614891 
L 379.524168 -428.187067 
L 379.960875 -423.759244 
L 380.44906 -419.33142 
L 380.981562 -414.903597 
L 381.549601 -410.475773 
L 382.144104 -406.04795 
L 382.757091 -401.620126 
L 383.382796 -397.192303 
L 384.018244 -392.764479 
L 384.663109 -388.336656 
L 385.318865 -383.908832 
L 385.98739 -379.481009 
L 386.669237 -375.053185 
L 387.361862 -370.625362 
L 388.058146 -366.197538 
L 388.745579 -361.769715 
L 389.406484 -357.341891 
L 390.019522 -352.914068 
L 390.562414 -348.486244 
L 391.015507 -344.058421 
L 391.365478 -339.630597 
L 391.608354 -335.202774 
L 391.751131 -330.77495 
L 391.811524 -326.347127 
L 391.815736 -321.919303 
L 391.794564 -317.49148 
L 391.778506 -313.063656 
L 391.792881 -308.635833 
L 391.854017 -304.208009 
L 391.967375 -299.780186 
L 392.127919 -295.352362 
L 392.322391 -290.924539 
L 392.532581 -286.496715 
L 392.738537 -282.068892 
L 392.920874 -277.641068 
L 393.061912 -273.213245 
L 393.145946 -268.785421 
L 393.159254 -264.357598 
L 393.090469 -259.929774 
L 392.93159 -255.501951 
L 392.679467 -251.074127 
L 392.337282 -246.646304 
L 391.915464 -242.21848 
L 391.431691 -237.790657 
L 390.909917 -233.362833 
L 390.378607 -228.93501 
L 389.868475 -224.507186 
L 389.409901 -220.079363 
L 389.030214 -215.651539 
L 388.751007 -211.223716 
L 388.585819 -206.795892 
L 388.538648 -202.368069 
L 388.603731 -197.940245 
L 388.766806 -193.512422 
L 389.007646 -189.084598 
L 389.303247 -184.656775 
L 389.630856 -180.228951 
L 389.970042 -175.801128 
L 390.303431 -171.373304 
L 390.616246 -166.945481 
L 390.895404 -162.517657 
L 391.12917 -158.089834 
L 391.308342 -153.66201 
L 391.429339 -149.234187 
L 391.498823 -144.806363 
L 391.538725 -140.37854 
L 391.590236 -135.950716 
L 391.715346 -131.522893 
L 391.994908 -127.095069 
L 392.522413 -122.667246 
L 393.392701 -118.239422 
L 394.684914 -113.811599 
L 396.439763 -109.383775 
L 398.633405 -104.955952 
L 401.153649 -100.528128 
L 403.787691 -96.100305 
L 406.231569 -91.672481 
L 408.127832 -87.244658 
L 409.129195 -82.816834 
L 408.974766 -78.389011 
L 407.556957 -73.961187 
L 404.956391 -69.533364 
z
" id="md47848752d" style="stroke:#141414;stroke-width:1.5;"/>
    </defs>
    <g clip-path="url(#pf7dcc74d59)">
     <use style="fill:#0e5f2f;stroke:#141414;stroke-width:1.5;" x="0" xlink:href="#md47848752d" y="540.169"/>
    </g>
   </g>
   <g id="PolyCollection_5">
    <defs>
     <path d="M 521.329448 -69.533364 
L 455.375679 -69.533364 
L 452.61803 -73.991619 
L 451.321254 -78.449874 
L 451.539429 -82.908129 
L 453.111033 -87.366385 
L 455.711422 -91.82464 
L 458.934322 -96.282895 
L 462.374679 -100.741151 
L 465.690924 -105.199406 
L 468.637082 -109.657661 
L 471.067343 -114.115916 
L 472.922649 -118.574172 
L 474.209691 -123.032427 
L 474.979688 -127.490682 
L 475.310463 -131.948938 
L 475.29267 -136.407193 
L 475.019766 -140.865448 
L 474.581082 -145.323703 
L 474.057217 -149.781959 
L 473.516953 -154.240214 
L 473.014989 -158.698469 
L 472.590128 -163.156725 
L 472.264142 -167.61498 
L 472.041957 -172.073235 
L 471.913847 -176.53149 
L 471.859777 -180.989746 
L 471.855251 -185.448001 
L 471.877283 -189.906256 
L 471.908961 -194.364511 
L 471.941499 -198.822767 
L 471.97357 -203.281022 
L 472.008629 -207.739277 
L 472.051487 -212.197533 
L 472.105425 -216.655788 
L 472.170728 -221.114043 
L 472.244907 -225.572298 
L 472.324263 -230.030554 
L 472.406004 -234.488809 
L 472.490039 -238.947064 
L 472.579656 -243.40532 
L 472.680811 -247.863575 
L 472.800282 -252.32183 
L 472.943487 -256.780085 
L 473.112979 -261.238341 
L 473.308372 -265.696596 
L 473.527806 -270.154851 
L 473.770281 -274.613107 
L 474.037697 -279.071362 
L 474.335491 -283.529617 
L 474.671371 -287.987872 
L 475.052594 -292.446128 
L 475.482932 -296.904383 
L 475.960661 -301.362638 
L 476.47845 -305.820893 
L 477.025144 -310.279149 
L 477.588637 -314.737404 
L 478.158623 -319.195659 
L 478.728165 -323.653915 
L 479.293618 -328.11217 
L 479.853123 -332.570425 
L 480.404453 -337.02868 
L 480.943141 -341.486936 
L 481.461707 -345.945191 
L 481.950318 -350.403446 
L 482.398724 -354.861702 
L 482.798835 -359.319957 
L 483.147046 -363.778212 
L 483.445495 -368.236467 
L 483.70176 -372.694723 
L 483.927059 -377.152978 
L 484.133525 -381.611233 
L 484.33147 -386.069489 
L 484.527489 -390.527744 
L 484.723913 -394.985999 
L 484.919548 -399.444254 
L 485.111172 -403.90251 
L 485.295113 -408.360765 
L 485.468353 -412.81902 
L 485.629022 -417.277275 
L 485.776436 -421.735531 
L 485.910984 -426.193786 
L 486.034076 -430.652041 
L 486.148123 -435.110297 
L 486.256408 -439.568552 
L 486.362701 -444.026807 
L 486.470618 -448.485062 
L 486.582919 -452.943318 
L 486.700994 -457.401573 
L 486.824741 -461.859828 
L 486.952836 -466.318084 
L 487.083234 -470.776339 
L 487.213691 -475.234594 
L 487.342096 -479.692849 
L 487.466614 -484.151105 
L 487.585685 -488.60936 
L 487.697984 -493.067615 
L 487.802415 -497.525871 
L 487.898114 -501.984126 
L 487.984443 -506.442381 
L 488.060968 -510.900636 
L 488.644159 -510.900636 
L 488.644159 -510.900636 
L 488.720684 -506.442381 
L 488.807014 -501.984126 
L 488.902712 -497.525871 
L 489.007143 -493.067615 
L 489.119442 -488.60936 
L 489.238513 -484.151105 
L 489.363031 -479.692849 
L 489.491436 -475.234594 
L 489.621893 -470.776339 
L 489.752292 -466.318084 
L 489.880386 -461.859828 
L 490.004133 -457.401573 
L 490.122208 -452.943318 
L 490.234509 -448.485062 
L 490.342426 -444.026807 
L 490.448719 -439.568552 
L 490.557004 -435.110297 
L 490.671051 -430.652041 
L 490.794143 -426.193786 
L 490.928691 -421.735531 
L 491.076105 -417.277275 
L 491.236774 -412.81902 
L 491.410014 -408.360765 
L 491.593955 -403.90251 
L 491.785579 -399.444254 
L 491.981214 -394.985999 
L 492.177639 -390.527744 
L 492.373658 -386.069489 
L 492.571602 -381.611233 
L 492.778069 -377.152978 
L 493.003367 -372.694723 
L 493.259632 -368.236467 
L 493.558081 -363.778212 
L 493.906292 -359.319957 
L 494.306403 -354.861702 
L 494.754809 -350.403446 
L 495.24342 -345.945191 
L 495.761986 -341.486936 
L 496.300675 -337.02868 
L 496.852004 -332.570425 
L 497.411509 -328.11217 
L 497.976962 -323.653915 
L 498.546504 -319.195659 
L 499.11649 -314.737404 
L 499.679983 -310.279149 
L 500.226677 -305.820893 
L 500.744466 -301.362638 
L 501.222195 -296.904383 
L 501.652533 -292.446128 
L 502.033756 -287.987872 
L 502.369636 -283.529617 
L 502.66743 -279.071362 
L 502.934846 -274.613107 
L 503.177321 -270.154851 
L 503.396755 -265.696596 
L 503.592148 -261.238341 
L 503.76164 -256.780085 
L 503.904845 -252.32183 
L 504.024316 -247.863575 
L 504.125472 -243.40532 
L 504.215088 -238.947064 
L 504.299123 -234.488809 
L 504.380865 -230.030554 
L 504.46022 -225.572298 
L 504.534399 -221.114043 
L 504.599702 -216.655788 
L 504.65364 -212.197533 
L 504.696499 -207.739277 
L 504.731558 -203.281022 
L 504.763628 -198.822767 
L 504.796166 -194.364511 
L 504.827845 -189.906256 
L 504.849876 -185.448001 
L 504.84535 -180.989746 
L 504.791281 -176.53149 
L 504.66317 -172.073235 
L 504.440985 -167.61498 
L 504.114999 -163.156725 
L 503.690139 -158.698469 
L 503.188174 -154.240214 
L 502.64791 -149.781959 
L 502.124045 -145.323703 
L 501.685362 -140.865448 
L 501.412458 -136.407193 
L 501.394664 -131.948938 
L 501.725439 -127.490682 
L 502.495436 -123.032427 
L 503.782479 -118.574172 
L 505.637784 -114.115916 
L 508.068045 -109.657661 
L 511.014203 -105.199406 
L 514.330448 -100.741151 
L 517.770805 -96.282895 
L 520.993705 -91.82464 
L 523.594094 -87.366385 
L 525.165698 -82.908129 
L 525.383873 -78.449874 
L 524.087097 -73.991619 
L 521.329448 -69.533364 
z
" id="m364a1eec0a" style="stroke:#141414;stroke-width:1.5;"/>
    </defs>
    <g clip-path="url(#pf7dcc74d59)">
     <use style="fill:#083c1d;stroke:#141414;stroke-width:1.5;" x="0" xlink:href="#m364a1eec0a" y="540.169"/>
    </g>
   </g>
   <g id="PolyCollection_6">
    <defs>
     <path d="M 589.630205 -69.533364 
L 535.200162 -69.533364 
L 532.375735 -73.8775 
L 530.651928 -78.221636 
L 530.145329 -82.565772 
L 530.799236 -86.909908 
L 532.40915 -91.254044 
L 534.678754 -95.59818 
L 537.286785 -99.942316 
L 539.945166 -104.286453 
L 542.435719 -108.630589 
L 544.62246 -112.974725 
L 546.444325 -117.318861 
L 547.896849 -121.662997 
L 549.010927 -126.007133 
L 549.834111 -130.351269 
L 550.416869 -134.695405 
L 550.804167 -139.039542 
L 551.031685 -143.383678 
L 551.125652 -147.727814 
L 551.10519 -152.07195 
L 550.985923 -156.416086 
L 550.783554 -160.760222 
L 550.516232 -165.104358 
L 550.20504 -169.448494 
L 549.872618 -173.79263 
L 549.540593 -178.136767 
L 549.226885 -182.480903 
L 548.943853 -186.825039 
L 548.6978 -191.169175 
L 548.48978 -195.513311 
L 548.317202 -199.857447 
L 548.175537 -204.201583 
L 548.059549 -208.545719 
L 547.963699 -212.889856 
L 547.881708 -217.233992 
L 547.805579 -221.578128 
L 547.72462 -225.922264 
L 547.625144 -230.2664 
L 547.491403 -234.610536 
L 547.307939 -238.954672 
L 547.06296 -243.298808 
L 546.751854 -247.642944 
L 546.379717 -251.987081 
L 545.961989 -256.331217 
L 545.522864 -260.675353 
L 545.091926 -265.019489 
L 544.699982 -269.363625 
L 544.37527 -273.707761 
L 544.140907 -278.051897 
L 544.013854 -282.396033 
L 544.005098 -286.74017 
L 544.12038 -291.084306 
L 544.360819 -295.428442 
L 544.723022 -299.772578 
L 545.198686 -304.116714 
L 545.774038 -308.46085 
L 546.429636 -312.804986 
L 547.141023 -317.149122 
L 547.880553 -321.493258 
L 548.620302 -325.837395 
L 549.33559 -330.181531 
L 550.008296 -334.525667 
L 550.629077 -338.869803 
L 551.197842 -343.213939 
L 551.722323 -347.558075 
L 552.215176 -351.902211 
L 552.690493 -356.246347 
L 553.160669 -360.590484 
L 553.634352 -364.93462 
L 554.115717 -369.278756 
L 554.604834 -373.622892 
L 555.098683 -377.967028 
L 555.592298 -382.311164 
L 556.079782 -386.6553 
L 556.555085 -390.999436 
L 557.012628 -395.343572 
L 557.447827 -399.687709 
L 557.857521 -404.031845 
L 558.240227 -408.375981 
L 558.596167 -412.720117 
L 558.927017 -417.064253 
L 559.235472 -421.408389 
L 559.52469 -425.752525 
L 559.79775 -430.096661 
L 560.057191 -434.440798 
L 560.304686 -438.784934 
L 560.540884 -443.12907 
L 560.765431 -447.473206 
L 560.977147 -451.817342 
L 561.174339 -456.161478 
L 561.355164 -460.505614 
L 561.517997 -464.84975 
L 561.661748 -469.193886 
L 561.786094 -473.538023 
L 561.891602 -477.882159 
L 561.979737 -482.226295 
L 562.052724 -486.570431 
L 562.113264 -490.914567 
L 562.164146 -495.258703 
L 562.20784 -499.602839 
L 562.622527 -499.602839 
L 562.622527 -499.602839 
L 562.666221 -495.258703 
L 562.717103 -490.914567 
L 562.777643 -486.570431 
L 562.85063 -482.226295 
L 562.938765 -477.882159 
L 563.044273 -473.538023 
L 563.168618 -469.193886 
L 563.31237 -464.84975 
L 563.475203 -460.505614 
L 563.656028 -456.161478 
L 563.85322 -451.817342 
L 564.064936 -447.473206 
L 564.289482 -443.12907 
L 564.52568 -438.784934 
L 564.773175 -434.440798 
L 565.032616 -430.096661 
L 565.305677 -425.752525 
L 565.594895 -421.408389 
L 565.90335 -417.064253 
L 566.2342 -412.720117 
L 566.590139 -408.375981 
L 566.972846 -404.031845 
L 567.382539 -399.687709 
L 567.817739 -395.343572 
L 568.275282 -390.999436 
L 568.750585 -386.6553 
L 569.238069 -382.311164 
L 569.731684 -377.967028 
L 570.225532 -373.622892 
L 570.71465 -369.278756 
L 571.196014 -364.93462 
L 571.669698 -360.590484 
L 572.139874 -356.246347 
L 572.61519 -351.902211 
L 573.108044 -347.558075 
L 573.632524 -343.213939 
L 574.20129 -338.869803 
L 574.822071 -334.525667 
L 575.494776 -330.181531 
L 576.210065 -325.837395 
L 576.949814 -321.493258 
L 577.689344 -317.149122 
L 578.400731 -312.804986 
L 579.056328 -308.46085 
L 579.631681 -304.116714 
L 580.107345 -299.772578 
L 580.469547 -295.428442 
L 580.709987 -291.084306 
L 580.825269 -286.74017 
L 580.816512 -282.396033 
L 580.68946 -278.051897 
L 580.455097 -273.707761 
L 580.130385 -269.363625 
L 579.738441 -265.019489 
L 579.307502 -260.675353 
L 578.868378 -256.331217 
L 578.450649 -251.987081 
L 578.078513 -247.642944 
L 577.767406 -243.298808 
L 577.522427 -238.954672 
L 577.338964 -234.610536 
L 577.205223 -230.2664 
L 577.105747 -225.922264 
L 577.024788 -221.578128 
L 576.948659 -217.233992 
L 576.866668 -212.889856 
L 576.770817 -208.545719 
L 576.65483 -204.201583 
L 576.513165 -199.857447 
L 576.340586 -195.513311 
L 576.132566 -191.169175 
L 575.886513 -186.825039 
L 575.603482 -182.480903 
L 575.289774 -178.136767 
L 574.957749 -173.79263 
L 574.625327 -169.448494 
L 574.314135 -165.104358 
L 574.046812 -160.760222 
L 573.844443 -156.416086 
L 573.725177 -152.07195 
L 573.704714 -147.727814 
L 573.798681 -143.383678 
L 574.026199 -139.039542 
L 574.413498 -134.695405 
L 574.996255 -130.351269 
L 575.819439 -126.007133 
L 576.933518 -121.662997 
L 578.386041 -117.318861 
L 580.207907 -112.974725 
L 582.394648 -108.630589 
L 584.885201 -104.286453 
L 587.543582 -99.942316 
L 590.151613 -95.59818 
L 592.421216 -91.254044 
L 594.03113 -86.909908 
L 594.685038 -82.565772 
L 594.178438 -78.221636 
L 592.454632 -73.8775 
L 589.630205 -69.533364 
z
" id="mb13e4399f9" style="stroke:#141414;stroke-width:1.5;"/>
    </defs>
    <g clip-path="url(#pf7dcc74d59)">
     <use style="fill:#0e5f2f;stroke:#141414;stroke-width:1.5;" x="0" xlink:href="#mb13e4399f9" y="540.169"/>
    </g>
   </g>
   <g id="patch_3">
    <path clip-path="url(#pf7dcc74d59)" d="M 155.070775 470.635636 
L 155.070775 470.635636 
L 155.070775 470.635636 
L 155.070775 470.635636 
z
" style="fill:#083c1d;stroke:#141414;stroke-linejoin:miter;stroke-width:0.75;"/>
   </g>
   <g id="patch_4">
    <path clip-path="url(#pf7dcc74d59)" d="M 155.070775 470.635636 
L 155.070775 470.635636 
L 155.070775 470.635636 
L 155.070775 470.635636 
z
" style="fill:#0e5f2f;stroke:#141414;stroke-linejoin:miter;stroke-width:0.75;"/>
   </g>
   <g id="line2d_1">
    <path clip-path="url(#pf7dcc74d59)" d="M 118.039465 470.635636 
L 118.039465 80.485044 
" style="fill:none;stroke:#141414;stroke-linecap:round;stroke-width:1.5;"/>
   </g>
   <g id="line2d_2">
    <path clip-path="url(#pf7dcc74d59)" d="M 118.039465 447.286856 
L 118.039465 292.130442 
" style="fill:none;stroke:#141414;stroke-linecap:round;stroke-width:4.5;"/>
   </g>
   <g id="line2d_3">
    <path clip-path="url(#pf7dcc74d59)" d="M 192.102085 470.635636 
L 192.102085 75.212738 
" style="fill:none;stroke:#141414;stroke-linecap:round;stroke-width:1.5;"/>
   </g>
   <g id="line2d_4">
    <path clip-path="url(#pf7dcc74d59)" d="M 192.102085 438.248618 
L 192.102085 288.36451 
" style="fill:none;stroke:#141414;stroke-linecap:round;stroke-width:4.5;"/>
   </g>
   <g id="line2d_5">
    <path clip-path="url(#pf7dcc74d59)" d="M 303.196014 470.635636 
L 303.196014 35.293855 
" style="fill:none;stroke:#141414;stroke-linecap:round;stroke-width:1.5;"/>
   </g>
   <g id="line2d_6">
    <path clip-path="url(#pf7dcc74d59)" d="M 303.196014 456.51339 
L 303.196014 275.56034 
" style="fill:none;stroke:#141414;stroke-linecap:round;stroke-width:4.5;"/>
   </g>
   <g id="line2d_7">
    <path clip-path="url(#pf7dcc74d59)" d="M 377.258634 470.635636 
L 377.258634 32.28111 
" style="fill:none;stroke:#141414;stroke-linecap:round;stroke-width:1.5;"/>
   </g>
   <g id="line2d_8">
    <path clip-path="url(#pf7dcc74d59)" d="M 377.258634 445.780483 
L 377.258634 244.679695 
" style="fill:none;stroke:#141414;stroke-linecap:round;stroke-width:4.5;"/>
   </g>
   <g id="line2d_9">
    <path clip-path="url(#pf7dcc74d59)" d="M 488.352564 470.635636 
L 488.352564 29.268364 
" style="fill:none;stroke:#141414;stroke-linecap:round;stroke-width:1.5;"/>
   </g>
   <g id="line2d_10">
    <path clip-path="url(#pf7dcc74d59)" d="M 488.352564 453.312348 
L 488.352564 277.819899 
" style="fill:none;stroke:#141414;stroke-linecap:round;stroke-width:4.5;"/>
   </g>
   <g id="line2d_11">
    <path clip-path="url(#pf7dcc74d59)" d="M 562.415183 470.635636 
L 562.415183 40.566161 
" style="fill:none;stroke:#141414;stroke-linecap:round;stroke-width:1.5;"/>
   </g>
   <g id="line2d_12">
    <path clip-path="url(#pf7dcc74d59)" d="M 562.415183 444.27411 
L 562.415183 248.445627 
" style="fill:none;stroke:#141414;stroke-linecap:round;stroke-width:4.5;"/>
   </g>
   <g id="patch_5">
    <path d="M 62.4925 492.704 
L 62.4925 7.2 
" style="fill:none;stroke:#262626;stroke-linecap:square;stroke-linejoin:miter;stroke-width:0.8;"/>
   </g>
   <g id="patch_6">
    <path d="M 62.4925 492.704 
L 617.962148 492.704 
" style="fill:none;stroke:#262626;stroke-linecap:square;stroke-linejoin:miter;stroke-width:0.8;"/>
   </g>
   <g id="PathCollection_1">
    <defs>
     <path d="M 0 1.5 
C 0.397805 1.5 0.77937 1.341951 1.06066 1.06066 
C 1.341951 0.77937 1.5 0.397805 1.5 0 
C 1.5 -0.397805 1.341951 -0.77937 1.06066 -1.06066 
C 0.77937 -1.341951 0.397805 -1.5 0 -1.5 
C -0.397805 -1.5 -0.77937 -1.341951 -1.06066 -1.06066 
C -1.341951 -0.77937 -1.5 -0.397805 -1.5 0 
C -1.5 0.397805 -1.341951 0.77937 -1.06066 1.06066 
C -0.77937 1.341951 -0.397805 1.5 0 1.5 
z
" id="mca33d381d3" style="stroke:#141414;"/>
    </defs>
    <g clip-path="url(#pf7dcc74d59)">
     <use style="fill:#ffffff;stroke:#141414;" x="118.039465" xlink:href="#mca33d381d3" y="380.25326"/>
    </g>
   </g>
   <g id="PathCollection_2">
    <g clip-path="url(#pf7dcc74d59)">
     <use style="fill:#ffffff;stroke:#141414;" x="192.102085" xlink:href="#mca33d381d3" y="387.031938"/>
    </g>
   </g>
   <g id="PathCollection_3">
    <g clip-path="url(#pf7dcc74d59)">
     <use style="fill:#ffffff;stroke:#141414;" x="303.196014" xlink:href="#mca33d381d3" y="368.202276"/>
    </g>
   </g>
   <g id="PathCollection_4">
    <g clip-path="url(#pf7dcc74d59)">
     <use style="fill:#ffffff;stroke:#141414;" x="377.258634" xlink:href="#mca33d381d3" y="343.347123"/>
    </g>
   </g>
   <g id="PathCollection_5">
    <g clip-path="url(#pf7dcc74d59)">
     <use style="fill:#ffffff;stroke:#141414;" x="488.352564" xlink:href="#mca33d381d3" y="365.18953"/>
    </g>
   </g>
   <g id="PathCollection_6">
    <g clip-path="url(#pf7dcc74d59)">
     <use style="fill:#ffffff;stroke:#141414;" x="562.415183" xlink:href="#mca33d381d3" y="335.062071"/>
    </g>
   </g>
  </g>
  <g id="legend_1">
   <g id="text_13">
    <!-- weather -->
    <defs>
     <path d="M 16.15625 0 
L 0.296875 51.859375 
L 9.375 51.859375 
L 17.625 21.921875 
L 20.703125 10.796875 
Q 20.90625 11.625 23.390625 21.484375 
L 31.640625 51.859375 
L 40.671875 51.859375 
L 48.4375 21.78125 
L 51.03125 11.859375 
L 54 21.875 
L 62.890625 51.859375 
L 71.4375 51.859375 
L 55.21875 0 
L 46.09375 0 
L 37.84375 31.0625 
L 35.84375 39.890625 
L 25.34375 0 
z
" id="ArialMT-119"/>
     <path d="M 40.4375 6.390625 
Q 35.546875 2.25 31.03125 0.53125 
Q 26.515625 -1.171875 21.34375 -1.171875 
Q 12.796875 -1.171875 8.203125 3 
Q 3.609375 7.171875 3.609375 13.671875 
Q 3.609375 17.484375 5.34375 20.625 
Q 7.078125 23.78125 9.890625 25.6875 
Q 12.703125 27.59375 16.21875 28.5625 
Q 18.796875 29.25 24.03125 29.890625 
Q 34.671875 31.15625 39.703125 32.90625 
Q 39.75 34.71875 39.75 35.203125 
Q 39.75 40.578125 37.25 42.78125 
Q 33.890625 45.75 27.25 45.75 
Q 21.046875 45.75 18.09375 43.578125 
Q 15.140625 41.40625 13.71875 35.890625 
L 5.125 37.0625 
Q 6.296875 42.578125 8.984375 45.96875 
Q 11.671875 49.359375 16.75 51.1875 
Q 21.828125 53.03125 28.515625 53.03125 
Q 35.15625 53.03125 39.296875 51.46875 
Q 43.453125 49.90625 45.40625 47.53125 
Q 47.359375 45.171875 48.140625 41.546875 
Q 48.578125 39.3125 48.578125 33.453125 
L 48.578125 21.734375 
Q 48.578125 9.46875 49.140625 6.21875 
Q 49.703125 2.984375 51.375 0 
L 42.1875 0 
Q 40.828125 2.734375 40.4375 6.390625 
z
M 39.703125 26.03125 
Q 34.90625 24.078125 25.34375 22.703125 
Q 19.921875 21.921875 17.671875 20.9375 
Q 15.4375 19.96875 14.203125 18.09375 
Q 12.984375 16.21875 12.984375 13.921875 
Q 12.984375 10.40625 15.640625 8.0625 
Q 18.3125 5.71875 23.4375 5.71875 
Q 28.515625 5.71875 32.46875 7.9375 
Q 36.421875 10.15625 38.28125 14.015625 
Q 39.703125 17 39.703125 22.796875 
z
" id="ArialMT-97"/>
     <path d="M 6.59375 0 
L 6.59375 71.578125 
L 15.375 71.578125 
L 15.375 45.90625 
Q 21.53125 53.03125 30.90625 53.03125 
Q 36.671875 53.03125 40.921875 50.75 
Q 45.171875 48.484375 47 44.484375 
Q 48.828125 40.484375 48.828125 32.859375 
L 48.828125 0 
L 40.046875 0 
L 40.046875 32.859375 
Q 40.046875 39.453125 37.1875 42.453125 
Q 34.328125 45.453125 29.109375 45.453125 
Q 25.203125 45.453125 21.75 43.421875 
Q 18.3125 41.40625 16.84375 37.9375 
Q 15.375 34.46875 15.375 28.375 
L 15.375 0 
z
" id="ArialMT-104"/>
    </defs>
    <g style="fill:#262626;" transform="translate(720.46675 251.4945)scale(0.16 -0.16)">
     <use xlink:href="#ArialMT-119"/>
     <use x="72.216797" xlink:href="#ArialMT-101"/>
     <use x="127.832031" xlink:href="#ArialMT-97"/>
     <use x="183.447266" xlink:href="#ArialMT-116"/>
     <use x="211.230469" xlink:href="#ArialMT-104"/>
     <use x="266.845703" xlink:href="#ArialMT-101"/>
     <use x="322.460938" xlink:href="#ArialMT-114"/>
    </g>
   </g>
   <g id="patch_7">
    <path d="M 708.7305 274.127 
L 740.7305 274.127 
L 740.7305 262.927 
L 708.7305 262.927 
z
" style="fill:#083c1d;stroke:#141414;stroke-linejoin:miter;stroke-width:0.75;"/>
   </g>
   <g id="text_14">
    <!-- bad -->
    <defs>
     <path d="M 14.703125 0 
L 6.546875 0 
L 6.546875 71.578125 
L 15.328125 71.578125 
L 15.328125 46.046875 
Q 20.90625 53.03125 29.546875 53.03125 
Q 34.328125 53.03125 38.59375 51.09375 
Q 42.875 49.171875 45.625 45.671875 
Q 48.390625 42.1875 49.953125 37.25 
Q 51.515625 32.328125 51.515625 26.703125 
Q 51.515625 13.375 44.921875 6.09375 
Q 38.328125 -1.171875 29.109375 -1.171875 
Q 19.921875 -1.171875 14.703125 6.5 
z
M 14.59375 26.3125 
Q 14.59375 17 17.140625 12.84375 
Q 21.296875 6.0625 28.375 6.0625 
Q 34.125 6.0625 38.328125 11.0625 
Q 42.53125 16.0625 42.53125 25.984375 
Q 42.53125 36.140625 38.5 40.96875 
Q 34.46875 45.796875 28.765625 45.796875 
Q 23 45.796875 18.796875 40.796875 
Q 14.59375 35.796875 14.59375 26.3125 
z
" id="ArialMT-98"/>
    </defs>
    <g style="fill:#262626;" transform="translate(753.5305 274.127)scale(0.16 -0.16)">
     <use xlink:href="#ArialMT-98"/>
     <use x="55.615234" xlink:href="#ArialMT-97"/>
     <use x="111.230469" xlink:href="#ArialMT-100"/>
    </g>
   </g>
   <g id="patch_8">
    <path d="M 708.7305 296.7595 
L 740.7305 296.7595 
L 740.7305 285.5595 
L 708.7305 285.5595 
z
" style="fill:#0e5f2f;stroke:#141414;stroke-linejoin:miter;stroke-width:0.75;"/>
   </g>
   <g id="text_15">
    <!-- good -->
    <defs>
     <path d="M 4.984375 -4.296875 
L 13.53125 -5.5625 
Q 14.0625 -9.515625 16.5 -11.328125 
Q 19.78125 -13.765625 25.4375 -13.765625 
Q 31.546875 -13.765625 34.859375 -11.328125 
Q 38.1875 -8.890625 39.359375 -4.5 
Q 40.046875 -1.8125 39.984375 6.78125 
Q 34.234375 0 25.640625 0 
Q 14.9375 0 9.078125 7.71875 
Q 3.21875 15.4375 3.21875 26.21875 
Q 3.21875 33.640625 5.90625 39.90625 
Q 8.59375 46.1875 13.6875 49.609375 
Q 18.796875 53.03125 25.6875 53.03125 
Q 34.859375 53.03125 40.828125 45.609375 
L 40.828125 51.859375 
L 48.921875 51.859375 
L 48.921875 7.03125 
Q 48.921875 -5.078125 46.453125 -10.125 
Q 44 -15.1875 38.640625 -18.109375 
Q 33.296875 -21.046875 25.484375 -21.046875 
Q 16.21875 -21.046875 10.5 -16.875 
Q 4.78125 -12.703125 4.984375 -4.296875 
z
M 12.25 26.859375 
Q 12.25 16.65625 16.296875 11.96875 
Q 20.359375 7.28125 26.46875 7.28125 
Q 32.515625 7.28125 36.609375 11.9375 
Q 40.71875 16.609375 40.71875 26.5625 
Q 40.71875 36.078125 36.5 40.90625 
Q 32.28125 45.75 26.3125 45.75 
Q 20.453125 45.75 16.34375 40.984375 
Q 12.25 36.234375 12.25 26.859375 
z
" id="ArialMT-103"/>
    </defs>
    <g style="fill:#262626;" transform="translate(753.5305 296.7595)scale(0.16 -0.16)">
     <use xlink:href="#ArialMT-103"/>
     <use x="55.615234" xlink:href="#ArialMT-111"/>
     <use x="111.230469" xlink:href="#ArialMT-111"/>
     <use x="166.845703" xlink:href="#ArialMT-100"/>
    </g>
   </g>
  </g>
 </g>
 <defs>
  <clipPath id="pf7dcc74d59">
   <rect height="485.504" width="555.469648" x="62.4925" y="7.2"/>
  </clipPath>
 </defs>
</svg>
