<?xml version="1.0" encoding="utf-8" standalone="no"?>
<!DOCTYPE svg PUBLIC "-//W3C//DTD SVG 1.1//EN"
  "http://www.w3.org/Graphics/SVG/1.1/DTD/svg11.dtd">
<!-- Created with matplotlib (https://matplotlib.org/) -->
<svg height="540.169pt" version="1.1" viewBox="0 0 770.0485 540.169" width="770.0485pt" xmlns="http://www.w3.org/2000/svg" xmlns:xlink="http://www.w3.org/1999/xlink">
 <defs>
  <style type="text/css">
*{stroke-linecap:butt;stroke-linejoin:round;white-space:pre;}
  </style>
 </defs>
 <g id="figure_1">
  <g id="patch_1">
   <path d="M 0 540.169 
L 770.0485 540.169 
L 770.0485 0 
L 0 0 
z
" style="fill:#ffffff;"/>
  </g>
  <g id="axes_1">
   <g id="patch_2">
    <path d="M 62.4925 492.704 
L 762.8485 492.704 
L 762.8485 7.2 
L 62.4925 7.2 
z
" style="fill:#ffffff;"/>
   </g>
   <g id="matplotlib.axis_1">
    <g id="xtick_1">
     <g id="text_1">
      <!-- 1040-236-2 -->
      <defs>
       <path d="M 37.25 0 
L 28.46875 0 
L 28.46875 56 
Q 25.296875 52.984375 20.140625 49.953125 
Q 14.984375 46.921875 10.890625 45.40625 
L 10.890625 53.90625 
Q 18.265625 57.375 23.78125 62.296875 
Q 29.296875 67.234375 31.59375 71.875 
L 37.25 71.875 
z
" id="ArialMT-49"/>
       <path d="M 4.15625 35.296875 
Q 4.15625 48 6.765625 55.734375 
Q 9.375 63.484375 14.515625 67.671875 
Q 19.671875 71.875 27.484375 71.875 
Q 33.25 71.875 37.59375 69.546875 
Q 41.9375 67.234375 44.765625 62.859375 
Q 47.609375 58.5 49.21875 52.21875 
Q 50.828125 45.953125 50.828125 35.296875 
Q 50.828125 22.703125 48.234375 14.96875 
Q 45.65625 7.234375 40.5 3 
Q 35.359375 -1.21875 27.484375 -1.21875 
Q 17.140625 -1.21875 11.234375 6.203125 
Q 4.15625 15.140625 4.15625 35.296875 
z
M 13.1875 35.296875 
Q 13.1875 17.671875 17.3125 11.828125 
Q 21.4375 6 27.484375 6 
Q 33.546875 6 37.671875 11.859375 
Q 41.796875 17.71875 41.796875 35.296875 
Q 41.796875 52.984375 37.671875 58.78125 
Q 33.546875 64.59375 27.390625 64.59375 
Q 21.34375 64.59375 17.71875 59.46875 
Q 13.1875 52.9375 13.1875 35.296875 
z
" id="ArialMT-48"/>
       <path d="M 32.328125 0 
L 32.328125 17.140625 
L 1.265625 17.140625 
L 1.265625 25.203125 
L 33.9375 71.578125 
L 41.109375 71.578125 
L 41.109375 25.203125 
L 50.78125 25.203125 
L 50.78125 17.140625 
L 41.109375 17.140625 
L 41.109375 0 
z
M 32.328125 25.203125 
L 32.328125 57.46875 
L 9.90625 25.203125 
z
" id="ArialMT-52"/>
       <path d="M 3.171875 21.484375 
L 3.171875 30.328125 
L 30.171875 30.328125 
L 30.171875 21.484375 
z
" id="ArialMT-45"/>
       <path d="M 50.34375 8.453125 
L 50.34375 0 
L 3.03125 0 
Q 2.9375 3.171875 4.046875 6.109375 
Q 5.859375 10.9375 9.828125 15.625 
Q 13.8125 20.3125 21.34375 26.46875 
Q 33.015625 36.03125 37.109375 41.625 
Q 41.21875 47.21875 41.21875 52.203125 
Q 41.21875 57.421875 37.46875 61 
Q 33.734375 64.59375 27.734375 64.59375 
Q 21.390625 64.59375 17.578125 60.78125 
Q 13.765625 56.984375 13.71875 50.25 
L 4.6875 51.171875 
Q 5.609375 61.28125 11.65625 66.578125 
Q 17.71875 71.875 27.9375 71.875 
Q 38.234375 71.875 44.234375 66.15625 
Q 50.25 60.453125 50.25 52 
Q 50.25 47.703125 48.484375 43.546875 
Q 46.734375 39.40625 42.65625 34.8125 
Q 38.578125 30.21875 29.109375 22.21875 
Q 21.1875 15.578125 18.9375 13.203125 
Q 16.703125 10.84375 15.234375 8.453125 
z
" id="ArialMT-50"/>
       <path d="M 4.203125 18.890625 
L 12.984375 20.0625 
Q 14.5 12.59375 18.140625 9.296875 
Q 21.78125 6 27 6 
Q 33.203125 6 37.46875 10.296875 
Q 41.75 14.59375 41.75 20.953125 
Q 41.75 27 37.796875 30.921875 
Q 33.84375 34.859375 27.734375 34.859375 
Q 25.25 34.859375 21.53125 33.890625 
L 22.515625 41.609375 
Q 23.390625 41.5 23.921875 41.5 
Q 29.546875 41.5 34.03125 44.421875 
Q 38.53125 47.359375 38.53125 53.46875 
Q 38.53125 58.296875 35.25 61.46875 
Q 31.984375 64.65625 26.8125 64.65625 
Q 21.6875 64.65625 18.265625 61.421875 
Q 14.84375 58.203125 13.875 51.765625 
L 5.078125 53.328125 
Q 6.6875 62.15625 12.390625 67.015625 
Q 18.109375 71.875 26.609375 71.875 
Q 32.46875 71.875 37.390625 69.359375 
Q 42.328125 66.84375 44.9375 62.5 
Q 47.5625 58.15625 47.5625 53.265625 
Q 47.5625 48.640625 45.0625 44.828125 
Q 42.578125 41.015625 37.703125 38.765625 
Q 44.046875 37.3125 47.5625 32.6875 
Q 51.078125 28.078125 51.078125 21.140625 
Q 51.078125 11.765625 44.234375 5.25 
Q 37.40625 -1.265625 26.953125 -1.265625 
Q 17.53125 -1.265625 11.296875 4.34375 
Q 5.078125 9.96875 4.203125 18.890625 
z
" id="ArialMT-51"/>
       <path d="M 49.75 54.046875 
L 41.015625 53.375 
Q 39.84375 58.546875 37.703125 60.890625 
Q 34.125 64.65625 28.90625 64.65625 
Q 24.703125 64.65625 21.53125 62.3125 
Q 17.390625 59.28125 14.984375 53.46875 
Q 12.59375 47.65625 12.5 36.921875 
Q 15.671875 41.75 20.265625 44.09375 
Q 24.859375 46.4375 29.890625 46.4375 
Q 38.671875 46.4375 44.84375 39.96875 
Q 51.03125 33.5 51.03125 23.25 
Q 51.03125 16.5 48.125 10.71875 
Q 45.21875 4.9375 40.140625 1.859375 
Q 35.0625 -1.21875 28.609375 -1.21875 
Q 17.625 -1.21875 10.6875 6.859375 
Q 3.765625 14.9375 3.765625 33.5 
Q 3.765625 54.25 11.421875 63.671875 
Q 18.109375 71.875 29.4375 71.875 
Q 37.890625 71.875 43.28125 67.140625 
Q 48.6875 62.40625 49.75 54.046875 
z
M 13.875 23.1875 
Q 13.875 18.65625 15.796875 14.5 
Q 17.71875 10.359375 21.1875 8.171875 
Q 24.65625 6 28.46875 6 
Q 34.03125 6 38.03125 10.484375 
Q 42.046875 14.984375 42.046875 22.703125 
Q 42.046875 30.125 38.078125 34.390625 
Q 34.125 38.671875 28.125 38.671875 
Q 22.171875 38.671875 18.015625 34.390625 
Q 13.875 30.125 13.875 23.1875 
z
" id="ArialMT-54"/>
      </defs>
      <g style="fill:#262626;" transform="translate(138.301 511.1565)scale(0.16 -0.16)">
       <use xlink:href="#ArialMT-49"/>
       <use x="55.615234" xlink:href="#ArialMT-48"/>
       <use x="111.230469" xlink:href="#ArialMT-52"/>
       <use x="166.845703" xlink:href="#ArialMT-48"/>
       <use x="222.460938" xlink:href="#ArialMT-45"/>
       <use x="255.761719" xlink:href="#ArialMT-50"/>
       <use x="311.376953" xlink:href="#ArialMT-51"/>
       <use x="366.992188" xlink:href="#ArialMT-54"/>
       <use x="422.607422" xlink:href="#ArialMT-45"/>
       <use x="455.908203" xlink:href="#ArialMT-50"/>
      </g>
     </g>
    </g>
    <g id="xtick_2">
     <g id="text_2">
      <!-- 686-1 -->
      <defs>
       <path d="M 17.671875 38.8125 
Q 12.203125 40.828125 9.5625 44.53125 
Q 6.9375 48.25 6.9375 53.421875 
Q 6.9375 61.234375 12.546875 66.546875 
Q 18.171875 71.875 27.484375 71.875 
Q 36.859375 71.875 42.578125 66.421875 
Q 48.296875 60.984375 48.296875 53.171875 
Q 48.296875 48.1875 45.671875 44.5 
Q 43.0625 40.828125 37.75 38.8125 
Q 44.34375 36.671875 47.78125 31.875 
Q 51.21875 27.09375 51.21875 20.453125 
Q 51.21875 11.28125 44.71875 5.03125 
Q 38.234375 -1.21875 27.640625 -1.21875 
Q 17.046875 -1.21875 10.546875 5.046875 
Q 4.046875 11.328125 4.046875 20.703125 
Q 4.046875 27.6875 7.59375 32.390625 
Q 11.140625 37.109375 17.671875 38.8125 
z
M 15.921875 53.71875 
Q 15.921875 48.640625 19.1875 45.40625 
Q 22.46875 42.1875 27.6875 42.1875 
Q 32.765625 42.1875 36.015625 45.375 
Q 39.265625 48.578125 39.265625 53.21875 
Q 39.265625 58.0625 35.90625 61.359375 
Q 32.5625 64.65625 27.59375 64.65625 
Q 22.5625 64.65625 19.234375 61.421875 
Q 15.921875 58.203125 15.921875 53.71875 
z
M 13.09375 20.65625 
Q 13.09375 16.890625 14.875 13.375 
Q 16.65625 9.859375 20.171875 7.921875 
Q 23.6875 6 27.734375 6 
Q 34.03125 6 38.125 10.046875 
Q 42.234375 14.109375 42.234375 20.359375 
Q 42.234375 26.703125 38.015625 30.859375 
Q 33.796875 35.015625 27.4375 35.015625 
Q 21.234375 35.015625 17.15625 30.90625 
Q 13.09375 26.8125 13.09375 20.65625 
z
" id="ArialMT-56"/>
      </defs>
      <g style="fill:#262626;" transform="translate(392.21175 511.1565)scale(0.16 -0.16)">
       <use xlink:href="#ArialMT-54"/>
       <use x="55.615234" xlink:href="#ArialMT-56"/>
       <use x="111.230469" xlink:href="#ArialMT-54"/>
       <use x="166.845703" xlink:href="#ArialMT-45"/>
       <use x="200.146484" xlink:href="#ArialMT-49"/>
      </g>
     </g>
    </g>
    <g id="xtick_3">
     <g id="text_3">
      <!-- 686-2 -->
      <g style="fill:#262626;" transform="translate(625.66375 511.1565)scale(0.16 -0.16)">
       <use xlink:href="#ArialMT-54"/>
       <use x="55.615234" xlink:href="#ArialMT-56"/>
       <use x="111.230469" xlink:href="#ArialMT-54"/>
       <use x="166.845703" xlink:href="#ArialMT-45"/>
       <use x="200.146484" xlink:href="#ArialMT-50"/>
      </g>
     </g>
    </g>
    <g id="text_4">
     <!-- Counter id -->
     <defs>
      <path d="M 58.796875 25.09375 
L 68.265625 22.703125 
Q 65.28125 11.03125 57.546875 4.90625 
Q 49.8125 -1.21875 38.625 -1.21875 
Q 27.046875 -1.21875 19.796875 3.484375 
Q 12.546875 8.203125 8.765625 17.140625 
Q 4.984375 26.078125 4.984375 36.328125 
Q 4.984375 47.515625 9.25 55.828125 
Q 13.53125 64.15625 21.40625 68.46875 
Q 29.296875 72.796875 38.765625 72.796875 
Q 49.515625 72.796875 56.828125 67.328125 
Q 64.15625 61.859375 67.046875 51.953125 
L 57.71875 49.75 
Q 55.21875 57.5625 50.484375 61.125 
Q 45.75 64.703125 38.578125 64.703125 
Q 30.328125 64.703125 24.78125 60.734375 
Q 19.234375 56.78125 16.984375 50.109375 
Q 14.75 43.453125 14.75 36.375 
Q 14.75 27.25 17.40625 20.4375 
Q 20.0625 13.625 25.671875 10.25 
Q 31.296875 6.890625 37.84375 6.890625 
Q 45.796875 6.890625 51.3125 11.46875 
Q 56.84375 16.0625 58.796875 25.09375 
z
" id="ArialMT-67"/>
      <path d="M 3.328125 25.921875 
Q 3.328125 40.328125 11.328125 47.265625 
Q 18.015625 53.03125 27.640625 53.03125 
Q 38.328125 53.03125 45.109375 46.015625 
Q 51.90625 39.015625 51.90625 26.65625 
Q 51.90625 16.65625 48.90625 10.90625 
Q 45.90625 5.171875 40.15625 2 
Q 34.421875 -1.171875 27.640625 -1.171875 
Q 16.75 -1.171875 10.03125 5.8125 
Q 3.328125 12.796875 3.328125 25.921875 
z
M 12.359375 25.921875 
Q 12.359375 15.96875 16.703125 11.015625 
Q 21.046875 6.0625 27.640625 6.0625 
Q 34.1875 6.0625 38.53125 11.03125 
Q 42.875 16.015625 42.875 26.21875 
Q 42.875 35.84375 38.5 40.796875 
Q 34.125 45.75 27.640625 45.75 
Q 21.046875 45.75 16.703125 40.8125 
Q 12.359375 35.890625 12.359375 25.921875 
z
" id="ArialMT-111"/>
      <path d="M 40.578125 0 
L 40.578125 7.625 
Q 34.515625 -1.171875 24.125 -1.171875 
Q 19.53125 -1.171875 15.546875 0.578125 
Q 11.578125 2.34375 9.640625 5 
Q 7.71875 7.671875 6.9375 11.53125 
Q 6.390625 14.109375 6.390625 19.734375 
L 6.390625 51.859375 
L 15.1875 51.859375 
L 15.1875 23.09375 
Q 15.1875 16.21875 15.71875 13.8125 
Q 16.546875 10.359375 19.234375 8.375 
Q 21.921875 6.390625 25.875 6.390625 
Q 29.828125 6.390625 33.296875 8.421875 
Q 36.765625 10.453125 38.203125 13.9375 
Q 39.65625 17.4375 39.65625 24.078125 
L 39.65625 51.859375 
L 48.4375 51.859375 
L 48.4375 0 
z
" id="ArialMT-117"/>
      <path d="M 6.59375 0 
L 6.59375 51.859375 
L 14.5 51.859375 
L 14.5 44.484375 
Q 20.21875 53.03125 31 53.03125 
Q 35.6875 53.03125 39.625 51.34375 
Q 43.5625 49.65625 45.515625 46.921875 
Q 47.46875 44.1875 48.25 40.4375 
Q 48.734375 37.984375 48.734375 31.890625 
L 48.734375 0 
L 39.9375 0 
L 39.9375 31.546875 
Q 39.9375 36.921875 38.90625 39.578125 
Q 37.890625 42.234375 35.28125 43.8125 
Q 32.671875 45.40625 29.15625 45.40625 
Q 23.53125 45.40625 19.453125 41.84375 
Q 15.375 38.28125 15.375 28.328125 
L 15.375 0 
z
" id="ArialMT-110"/>
      <path d="M 25.78125 7.859375 
L 27.046875 0.09375 
Q 23.34375 -0.6875 20.40625 -0.6875 
Q 15.625 -0.6875 12.984375 0.828125 
Q 10.359375 2.34375 9.28125 4.8125 
Q 8.203125 7.28125 8.203125 15.1875 
L 8.203125 45.015625 
L 1.765625 45.015625 
L 1.765625 51.859375 
L 8.203125 51.859375 
L 8.203125 64.703125 
L 16.9375 69.96875 
L 16.9375 51.859375 
L 25.78125 51.859375 
L 25.78125 45.015625 
L 16.9375 45.015625 
L 16.9375 14.703125 
Q 16.9375 10.9375 17.40625 9.859375 
Q 17.875 8.796875 18.921875 8.15625 
Q 19.96875 7.515625 21.921875 7.515625 
Q 23.390625 7.515625 25.78125 7.859375 
z
" id="ArialMT-116"/>
      <path d="M 42.09375 16.703125 
L 51.171875 15.578125 
Q 49.03125 7.625 43.21875 3.21875 
Q 37.40625 -1.171875 28.375 -1.171875 
Q 17 -1.171875 10.328125 5.828125 
Q 3.65625 12.84375 3.65625 25.484375 
Q 3.65625 38.578125 10.390625 45.796875 
Q 17.140625 53.03125 27.875 53.03125 
Q 38.28125 53.03125 44.875 45.953125 
Q 51.46875 38.875 51.46875 26.03125 
Q 51.46875 25.25 51.421875 23.6875 
L 12.75 23.6875 
Q 13.234375 15.140625 17.578125 10.59375 
Q 21.921875 6.0625 28.421875 6.0625 
Q 33.25 6.0625 36.671875 8.59375 
Q 40.09375 11.140625 42.09375 16.703125 
z
M 13.234375 30.90625 
L 42.1875 30.90625 
Q 41.609375 37.453125 38.875 40.71875 
Q 34.671875 45.796875 27.984375 45.796875 
Q 21.921875 45.796875 17.796875 41.75 
Q 13.671875 37.703125 13.234375 30.90625 
z
" id="ArialMT-101"/>
      <path d="M 6.5 0 
L 6.5 51.859375 
L 14.40625 51.859375 
L 14.40625 44 
Q 17.4375 49.515625 20 51.265625 
Q 22.5625 53.03125 25.640625 53.03125 
Q 30.078125 53.03125 34.671875 50.203125 
L 31.640625 42.046875 
Q 28.421875 43.953125 25.203125 43.953125 
Q 22.3125 43.953125 20.015625 42.21875 
Q 17.71875 40.484375 16.75 37.40625 
Q 15.28125 32.71875 15.28125 27.15625 
L 15.28125 0 
z
" id="ArialMT-114"/>
      <path id="ArialMT-32"/>
      <path d="M 6.640625 61.46875 
L 6.640625 71.578125 
L 15.4375 71.578125 
L 15.4375 61.46875 
z
M 6.640625 0 
L 6.640625 51.859375 
L 15.4375 51.859375 
L 15.4375 0 
z
" id="ArialMT-105"/>
      <path d="M 40.234375 0 
L 40.234375 6.546875 
Q 35.296875 -1.171875 25.734375 -1.171875 
Q 19.53125 -1.171875 14.328125 2.25 
Q 9.125 5.671875 6.265625 11.796875 
Q 3.421875 17.921875 3.421875 25.875 
Q 3.421875 33.640625 6 39.96875 
Q 8.59375 46.296875 13.765625 49.65625 
Q 18.953125 53.03125 25.34375 53.03125 
Q 30.03125 53.03125 33.6875 51.046875 
Q 37.359375 49.078125 39.65625 45.90625 
L 39.65625 71.578125 
L 48.390625 71.578125 
L 48.390625 0 
z
M 12.453125 25.875 
Q 12.453125 15.921875 16.640625 10.984375 
Q 20.84375 6.0625 26.5625 6.0625 
Q 32.328125 6.0625 36.34375 10.765625 
Q 40.375 15.484375 40.375 25.140625 
Q 40.375 35.796875 36.265625 40.765625 
Q 32.171875 45.75 26.171875 45.75 
Q 20.3125 45.75 16.375 40.96875 
Q 12.453125 36.1875 12.453125 25.875 
z
" id="ArialMT-100"/>
     </defs>
     <g style="fill:#262626;" transform="translate(375.763 529.789)scale(0.16 -0.16)">
      <use xlink:href="#ArialMT-67"/>
      <use x="72.216797" xlink:href="#ArialMT-111"/>
      <use x="127.832031" xlink:href="#ArialMT-117"/>
      <use x="183.447266" xlink:href="#ArialMT-110"/>
      <use x="239.0625" xlink:href="#ArialMT-116"/>
      <use x="266.845703" xlink:href="#ArialMT-101"/>
      <use x="322.460938" xlink:href="#ArialMT-114"/>
      <use x="355.761719" xlink:href="#ArialMT-32"/>
      <use x="383.544922" xlink:href="#ArialMT-105"/>
      <use x="405.761719" xlink:href="#ArialMT-100"/>
     </g>
    </g>
   </g>
   <g id="matplotlib.axis_2">
    <g id="ytick_1">
     <g id="text_5">
      <!-- 0 -->
      <g style="fill:#262626;" transform="translate(46.595 476.361886)scale(0.16 -0.16)">
       <use xlink:href="#ArialMT-48"/>
      </g>
     </g>
    </g>
    <g id="ytick_2">
     <g id="text_6">
      <!-- 100 -->
      <g style="fill:#262626;" transform="translate(28.8 404.943234)scale(0.16 -0.16)">
       <use xlink:href="#ArialMT-49"/>
       <use x="55.615234" xlink:href="#ArialMT-48"/>
       <use x="111.230469" xlink:href="#ArialMT-48"/>
      </g>
     </g>
    </g>
    <g id="ytick_3">
     <g id="text_7">
      <!-- 200 -->
      <g style="fill:#262626;" transform="translate(28.8 333.524581)scale(0.16 -0.16)">
       <use xlink:href="#ArialMT-50"/>
       <use x="55.615234" xlink:href="#ArialMT-48"/>
       <use x="111.230469" xlink:href="#ArialMT-48"/>
      </g>
     </g>
    </g>
    <g id="ytick_4">
     <g id="text_8">
      <!-- 300 -->
      <g style="fill:#262626;" transform="translate(28.8 262.105929)scale(0.16 -0.16)">
       <use xlink:href="#ArialMT-51"/>
       <use x="55.615234" xlink:href="#ArialMT-48"/>
       <use x="111.230469" xlink:href="#ArialMT-48"/>
      </g>
     </g>
    </g>
    <g id="ytick_5">
     <g id="text_9">
      <!-- 400 -->
      <g style="fill:#262626;" transform="translate(28.8 190.687276)scale(0.16 -0.16)">
       <use xlink:href="#ArialMT-52"/>
       <use x="55.615234" xlink:href="#ArialMT-48"/>
       <use x="111.230469" xlink:href="#ArialMT-48"/>
      </g>
     </g>
    </g>
    <g id="ytick_6">
     <g id="text_10">
      <!-- 500 -->
      <defs>
       <path d="M 4.15625 18.75 
L 13.375 19.53125 
Q 14.40625 12.796875 18.140625 9.390625 
Q 21.875 6 27.15625 6 
Q 33.5 6 37.890625 10.78125 
Q 42.28125 15.578125 42.28125 23.484375 
Q 42.28125 31 38.0625 35.34375 
Q 33.84375 39.703125 27 39.703125 
Q 22.75 39.703125 19.328125 37.765625 
Q 15.921875 35.84375 13.96875 32.765625 
L 5.71875 33.84375 
L 12.640625 70.609375 
L 48.25 70.609375 
L 48.25 62.203125 
L 19.671875 62.203125 
L 15.828125 42.96875 
Q 22.265625 47.46875 29.34375 47.46875 
Q 38.71875 47.46875 45.15625 40.96875 
Q 51.609375 34.46875 51.609375 24.265625 
Q 51.609375 14.546875 45.953125 7.46875 
Q 39.0625 -1.21875 27.15625 -1.21875 
Q 17.390625 -1.21875 11.203125 4.25 
Q 5.03125 9.71875 4.15625 18.75 
z
" id="ArialMT-53"/>
      </defs>
      <g style="fill:#262626;" transform="translate(28.8 119.268624)scale(0.16 -0.16)">
       <use xlink:href="#ArialMT-53"/>
       <use x="55.615234" xlink:href="#ArialMT-48"/>
       <use x="111.230469" xlink:href="#ArialMT-48"/>
      </g>
     </g>
    </g>
    <g id="ytick_7">
     <g id="text_11">
      <!-- 600 -->
      <g style="fill:#262626;" transform="translate(28.8 47.849971)scale(0.16 -0.16)">
       <use xlink:href="#ArialMT-54"/>
       <use x="55.615234" xlink:href="#ArialMT-48"/>
       <use x="111.230469" xlink:href="#ArialMT-48"/>
      </g>
     </g>
    </g>
    <g id="text_12">
     <!-- Count [$h^{-1}$] -->
     <defs>
      <path d="M 6.78125 -19.875 
L 6.78125 71.578125 
L 26.171875 71.578125 
L 26.171875 64.3125 
L 15.578125 64.3125 
L 15.578125 -12.59375 
L 26.171875 -12.59375 
L 26.171875 -19.875 
z
" id="ArialMT-91"/>
      <path d="M 55.71875 33.015625 
L 49.3125 0 
L 40.28125 0 
L 46.6875 32.671875 
Q 47.125 34.96875 47.359375 36.71875 
Q 47.609375 38.484375 47.609375 39.5 
Q 47.609375 43.609375 45.015625 45.890625 
Q 42.4375 48.1875 37.796875 48.1875 
Q 30.5625 48.1875 25.265625 43.296875 
Q 19.96875 38.421875 18.40625 30.328125 
L 12.5 0 
L 3.515625 0 
L 18.3125 75.984375 
L 27.296875 75.984375 
L 21.484375 46.09375 
Q 24.90625 50.6875 30.21875 53.34375 
Q 35.546875 56 41.40625 56 
Q 48.640625 56 52.609375 52.09375 
Q 56.59375 48.1875 56.59375 41.109375 
Q 56.59375 39.359375 56.375 37.359375 
Q 56.15625 35.359375 55.71875 33.015625 
z
" id="DejaVuSans-Oblique-104"/>
      <path d="M 10.59375 35.5 
L 73.1875 35.5 
L 73.1875 27.203125 
L 10.59375 27.203125 
z
" id="DejaVuSans-8722"/>
      <path d="M 12.40625 8.296875 
L 28.515625 8.296875 
L 28.515625 63.921875 
L 10.984375 60.40625 
L 10.984375 69.390625 
L 28.421875 72.90625 
L 38.28125 72.90625 
L 38.28125 8.296875 
L 54.390625 8.296875 
L 54.390625 0 
L 12.40625 0 
z
" id="DejaVuSans-49"/>
      <path d="M 21.296875 -19.875 
L 1.90625 -19.875 
L 1.90625 -12.59375 
L 12.5 -12.59375 
L 12.5 64.3125 
L 1.90625 64.3125 
L 1.90625 71.578125 
L 21.296875 71.578125 
z
" id="ArialMT-93"/>
     </defs>
     <g style="fill:#262626;" transform="translate(21.6 292.112)rotate(-90)scale(0.16 -0.16)">
      <use transform="translate(0 0.684375)" xlink:href="#ArialMT-67"/>
      <use transform="translate(72.216797 0.684375)" xlink:href="#ArialMT-111"/>
      <use transform="translate(127.832031 0.684375)" xlink:href="#ArialMT-117"/>
      <use transform="translate(183.447266 0.684375)" xlink:href="#ArialMT-110"/>
      <use transform="translate(239.0625 0.684375)" xlink:href="#ArialMT-116"/>
      <use transform="translate(266.845703 0.684375)" xlink:href="#ArialMT-32"/>
      <use transform="translate(294.628906 0.684375)" xlink:href="#ArialMT-91"/>
      <use transform="translate(322.412109 0.684375)" xlink:href="#DejaVuSans-Oblique-104"/>
      <use transform="translate(393.238724 38.965625)scale(0.7)" xlink:href="#DejaVuSans-8722"/>
      <use transform="translate(451.891068 38.965625)scale(0.7)" xlink:href="#DejaVuSans-49"/>
      <use transform="translate(499.161576 0.684375)" xlink:href="#ArialMT-93"/>
     </g>
    </g>
   </g>
   <g id="PolyCollection_1">
    <defs>
     <path d="M 258.656777 -69.533364 
L 99.780223 -69.533364 
L 88.720874 -73.991619 
L 85.8377 -78.449874 
L 90.744159 -82.908129 
L 100.891117 -87.366385 
L 113.039469 -91.82464 
L 124.58549 -96.282895 
L 134.104705 -100.741151 
L 141.207121 -105.199406 
L 146.122039 -109.657661 
L 149.319735 -114.115916 
L 151.26622 -118.574172 
L 152.3033 -123.032427 
L 152.629203 -127.490682 
L 152.350364 -131.948938 
L 151.560629 -136.407193 
L 150.397208 -140.865448 
L 149.038953 -145.323703 
L 147.650389 -149.781959 
L 146.313231 -154.240214 
L 144.996612 -158.698469 
L 143.586293 -163.156725 
L 141.947071 -167.61498 
L 139.974627 -172.073235 
L 137.616983 -176.53149 
L 134.88035 -180.989746 
L 131.842131 -185.448001 
L 128.672961 -189.906256 
L 125.645702 -194.364511 
L 123.104112 -198.822767 
L 121.383463 -203.281022 
L 120.710163 -207.739277 
L 121.133 -212.197533 
L 122.528094 -216.655788 
L 124.674563 -221.114043 
L 127.354105 -225.572298 
L 130.420257 -230.030554 
L 133.811215 -234.488809 
L 137.515467 -238.947064 
L 141.519482 -243.40532 
L 145.766987 -247.863575 
L 150.145711 -252.32183 
L 154.499793 -256.780085 
L 158.65633 -261.238341 
L 162.45642 -265.696596 
L 165.784487 -270.154851 
L 168.587187 -274.613107 
L 170.872519 -279.071362 
L 172.689917 -283.529617 
L 174.104883 -287.987872 
L 175.182472 -292.446128 
L 175.982541 -296.904383 
L 176.560146 -301.362638 
L 176.965016 -305.820893 
L 177.239489 -310.279149 
L 177.416526 -314.737404 
L 177.517947 -319.195659 
L 177.552536 -323.653915 
L 177.515952 -328.11217 
L 177.396047 -332.570425 
L 177.184292 -337.02868 
L 176.887908 -341.486936 
L 176.534458 -345.945191 
L 176.165077 -350.403446 
L 175.820783 -354.861702 
L 175.530722 -359.319957 
L 175.308604 -363.778212 
L 175.157471 -368.236467 
L 175.077947 -372.694723 
L 175.07334 -377.152978 
L 175.14732 -381.611233 
L 175.296058 -386.069489 
L 175.502475 -390.527744 
L 175.739263 -394.985999 
L 175.979447 -399.444254 
L 176.20632 -403.90251 
L 176.415775 -408.360765 
L 176.611291 -412.81902 
L 176.797347 -417.277275 
L 176.976303 -421.735531 
L 177.149233 -426.193786 
L 177.317625 -430.652041 
L 177.483024 -435.110297 
L 177.644573 -439.568552 
L 177.796846 -444.026807 
L 177.930126 -448.485062 
L 178.033141 -452.943318 
L 178.096826 -457.401573 
L 178.117697 -461.859828 
L 178.099866 -466.318084 
L 178.055005 -470.776339 
L 178.000423 -475.234594 
L 177.956314 -479.692849 
L 177.942874 -484.151105 
L 177.976736 -488.60936 
L 178.066335 -493.067615 
L 178.207984 -497.525871 
L 178.385818 -501.984126 
L 178.576736 -506.442381 
L 178.757761 -510.900636 
L 179.679239 -510.900636 
L 179.679239 -510.900636 
L 179.860264 -506.442381 
L 180.051182 -501.984126 
L 180.229016 -497.525871 
L 180.370665 -493.067615 
L 180.460264 -488.60936 
L 180.494126 -484.151105 
L 180.480686 -479.692849 
L 180.436577 -475.234594 
L 180.381995 -470.776339 
L 180.337134 -466.318084 
L 180.319303 -461.859828 
L 180.340174 -457.401573 
L 180.403859 -452.943318 
L 180.506874 -448.485062 
L 180.640154 -444.026807 
L 180.792427 -439.568552 
L 180.953976 -435.110297 
L 181.119375 -430.652041 
L 181.287767 -426.193786 
L 181.460697 -421.735531 
L 181.639653 -417.277275 
L 181.825709 -412.81902 
L 182.021225 -408.360765 
L 182.23068 -403.90251 
L 182.457553 -399.444254 
L 182.697737 -394.985999 
L 182.934525 -390.527744 
L 183.140942 -386.069489 
L 183.28968 -381.611233 
L 183.36366 -377.152978 
L 183.359053 -372.694723 
L 183.279529 -368.236467 
L 183.128396 -363.778212 
L 182.906278 -359.319957 
L 182.616217 -354.861702 
L 182.271923 -350.403446 
L 181.902542 -345.945191 
L 181.549092 -341.486936 
L 181.252708 -337.02868 
L 181.040953 -332.570425 
L 180.921048 -328.11217 
L 180.884464 -323.653915 
L 180.919053 -319.195659 
L 181.020474 -314.737404 
L 181.197511 -310.279149 
L 181.471984 -305.820893 
L 181.876854 -301.362638 
L 182.454459 -296.904383 
L 183.254528 -292.446128 
L 184.332117 -287.987872 
L 185.747083 -283.529617 
L 187.564481 -279.071362 
L 189.849813 -274.613107 
L 192.652513 -270.154851 
L 195.98058 -265.696596 
L 199.78067 -261.238341 
L 203.937207 -256.780085 
L 208.291289 -252.32183 
L 212.670013 -247.863575 
L 216.917518 -243.40532 
L 220.921533 -238.947064 
L 224.625785 -234.488809 
L 228.016743 -230.030554 
L 231.082895 -225.572298 
L 233.762437 -221.114043 
L 235.908906 -216.655788 
L 237.304 -212.197533 
L 237.726837 -207.739277 
L 237.053537 -203.281022 
L 235.332888 -198.822767 
L 232.791298 -194.364511 
L 229.764039 -189.906256 
L 226.594869 -185.448001 
L 223.55665 -180.989746 
L 220.820017 -176.53149 
L 218.462373 -172.073235 
L 216.489929 -167.61498 
L 214.850707 -163.156725 
L 213.440388 -158.698469 
L 212.123769 -154.240214 
L 210.786611 -149.781959 
L 209.398047 -145.323703 
L 208.039792 -140.865448 
L 206.876371 -136.407193 
L 206.086636 -131.948938 
L 205.807797 -127.490682 
L 206.1337 -123.032427 
L 207.17078 -118.574172 
L 209.117265 -114.115916 
L 212.314961 -109.657661 
L 217.229879 -105.199406 
L 224.332295 -100.741151 
L 233.85151 -96.282895 
L 245.397531 -91.82464 
L 257.545883 -87.366385 
L 267.692841 -82.908129 
L 272.5993 -78.449874 
L 269.716126 -73.991619 
L 258.656777 -69.533364 
z
" id="ma9763436d3" style="stroke:#141414;stroke-width:1.5;"/>
    </defs>
    <g clip-path="url(#p3c6b6e7eb4)">
     <use style="fill:#083c1d;stroke:#141414;stroke-width:1.5;" x="0" xlink:href="#ma9763436d3" y="540.169"/>
    </g>
   </g>
   <g id="PolyCollection_2">
    <defs>
     <path d="M 477.719417 -69.533364 
L 347.621583 -69.533364 
L 341.389517 -73.731915 
L 339.048701 -77.930466 
L 340.644216 -82.129017 
L 345.472663 -86.327568 
L 352.34141 -90.526119 
L 359.934116 -94.72467 
L 367.133272 -98.923221 
L 373.201263 -103.121772 
L 377.805036 -107.320323 
L 380.934319 -111.518875 
L 382.782765 -115.717426 
L 383.642684 -119.915977 
L 383.832057 -124.114528 
L 383.649465 -128.313079 
L 383.345802 -132.51163 
L 383.106176 -136.710181 
L 383.042012 -140.908732 
L 383.195777 -145.107283 
L 383.557916 -149.305834 
L 384.090633 -153.504385 
L 384.749918 -157.702937 
L 385.498288 -161.901488 
L 386.305509 -166.100039 
L 387.14051 -170.29859 
L 387.961424 -174.497141 
L 388.710621 -178.695692 
L 389.318201 -182.894243 
L 389.713083 -187.092794 
L 389.837503 -191.291345 
L 389.659691 -195.489896 
L 389.180451 -199.688447 
L 388.431806 -203.886998 
L 387.468792 -208.08555 
L 386.357991 -212.284101 
L 385.167181 -216.482652 
L 383.959275 -220.681203 
L 382.790998 -224.879754 
L 381.714245 -229.078305 
L 380.777205 -233.276856 
L 380.023402 -237.475407 
L 379.488702 -241.673958 
L 379.197756 -245.872509 
L 379.161481 -250.07106 
L 379.37632 -254.269612 
L 379.825003 -258.468163 
L 380.477936 -262.666714 
L 381.294513 -266.865265 
L 382.224206 -271.063816 
L 383.207963 -275.262367 
L 384.180911 -279.460918 
L 385.077424 -283.659469 
L 385.839117 -287.85802 
L 386.425129 -292.056571 
L 386.822353 -296.255122 
L 387.051988 -300.453674 
L 387.169019 -304.652225 
L 387.253338 -308.850776 
L 387.394355 -313.049327 
L 387.673388 -317.247878 
L 388.148616 -321.446429 
L 388.846105 -325.64498 
L 389.758288 -329.843531 
L 390.849326 -334.042082 
L 392.065342 -338.240633 
L 393.346638 -342.439184 
L 394.638817 -346.637736 
L 395.90041 -350.836287 
L 397.106081 -355.034838 
L 398.245967 -359.233389 
L 399.322554 -363.43194 
L 400.346461 -367.630491 
L 401.331979 -371.829042 
L 402.29283 -376.027593 
L 403.238605 -380.226144 
L 404.172472 -384.424695 
L 405.09062 -388.623246 
L 405.983454 -392.821797 
L 406.837974 -397.020349 
L 407.640461 -401.2189 
L 408.378687 -405.417451 
L 409.043289 -409.616002 
L 409.628395 -413.814553 
L 410.131786 -418.013104 
L 410.554887 -422.211655 
L 410.902671 -426.410206 
L 411.183308 -430.608757 
L 411.407372 -434.807308 
L 411.586539 -439.005859 
L 411.732028 -443.204411 
L 411.853218 -447.402962 
L 411.956916 -451.601513 
L 412.047435 -455.800064 
L 412.127318 -459.998615 
L 412.198274 -464.197166 
L 412.261894 -468.395717 
L 412.319879 -472.594268 
L 412.373814 -476.792819 
L 412.424735 -480.99137 
L 412.472798 -485.189921 
L 412.868202 -485.189921 
L 412.868202 -485.189921 
L 412.916265 -480.99137 
L 412.967186 -476.792819 
L 413.021121 -472.594268 
L 413.079106 -468.395717 
L 413.142726 -464.197166 
L 413.213682 -459.998615 
L 413.293565 -455.800064 
L 413.384084 -451.601513 
L 413.487782 -447.402962 
L 413.608972 -443.204411 
L 413.754461 -439.005859 
L 413.933628 -434.807308 
L 414.157692 -430.608757 
L 414.438329 -426.410206 
L 414.786113 -422.211655 
L 415.209214 -418.013104 
L 415.712605 -413.814553 
L 416.297711 -409.616002 
L 416.962313 -405.417451 
L 417.700539 -401.2189 
L 418.503026 -397.020349 
L 419.357546 -392.821797 
L 420.25038 -388.623246 
L 421.168528 -384.424695 
L 422.102395 -380.226144 
L 423.04817 -376.027593 
L 424.009021 -371.829042 
L 424.994539 -367.630491 
L 426.018446 -363.43194 
L 427.095033 -359.233389 
L 428.234919 -355.034838 
L 429.44059 -350.836287 
L 430.702183 -346.637736 
L 431.994362 -342.439184 
L 433.275658 -338.240633 
L 434.491674 -334.042082 
L 435.582712 -329.843531 
L 436.494895 -325.64498 
L 437.192384 -321.446429 
L 437.667612 -317.247878 
L 437.946645 -313.049327 
L 438.087662 -308.850776 
L 438.171981 -304.652225 
L 438.289012 -300.453674 
L 438.518647 -296.255122 
L 438.915871 -292.056571 
L 439.501883 -287.85802 
L 440.263576 -283.659469 
L 441.160089 -279.460918 
L 442.133037 -275.262367 
L 443.116794 -271.063816 
L 444.046487 -266.865265 
L 444.863064 -262.666714 
L 445.515997 -258.468163 
L 445.96468 -254.269612 
L 446.179519 -250.07106 
L 446.143244 -245.872509 
L 445.852298 -241.673958 
L 445.317598 -237.475407 
L 444.563795 -233.276856 
L 443.626755 -229.078305 
L 442.550002 -224.879754 
L 441.381725 -220.681203 
L 440.173819 -216.482652 
L 438.983009 -212.284101 
L 437.872208 -208.08555 
L 436.909194 -203.886998 
L 436.160549 -199.688447 
L 435.681309 -195.489896 
L 435.503497 -191.291345 
L 435.627917 -187.092794 
L 436.022799 -182.894243 
L 436.630379 -178.695692 
L 437.379576 -174.497141 
L 438.20049 -170.29859 
L 439.035491 -166.100039 
L 439.842712 -161.901488 
L 440.591082 -157.702937 
L 441.250367 -153.504385 
L 441.783084 -149.305834 
L 442.145223 -145.107283 
L 442.298988 -140.908732 
L 442.234824 -136.710181 
L 441.995198 -132.51163 
L 441.691535 -128.313079 
L 441.508943 -124.114528 
L 441.698316 -119.915977 
L 442.558235 -115.717426 
L 444.406681 -111.518875 
L 447.535964 -107.320323 
L 452.139737 -103.121772 
L 458.207728 -98.923221 
L 465.406884 -94.72467 
L 472.99959 -90.526119 
L 479.868337 -86.327568 
L 484.696784 -82.129017 
L 486.292299 -77.930466 
L 483.951483 -73.731915 
L 477.719417 -69.533364 
z
" id="m043feff1b1" style="stroke:#141414;stroke-width:1.5;"/>
    </defs>
    <g clip-path="url(#p3c6b6e7eb4)">
     <use style="fill:#0e5f2f;stroke:#141414;stroke-width:1.5;" x="0" xlink:href="#m043feff1b1" y="540.169"/>
    </g>
   </g>
   <g id="PolyCollection_3">
    <defs>
     <path d="M 709.012625 -69.533364 
L 583.232375 -69.533364 
L 576.290197 -73.760771 
L 572.937946 -77.988178 
L 573.365877 -82.215585 
L 577.070565 -86.442992 
L 583.071588 -90.670399 
L 590.229042 -94.897806 
L 597.526693 -99.125213 
L 604.233801 -103.352621 
L 609.934994 -107.580028 
L 614.473304 -111.807435 
L 617.864714 -116.034842 
L 620.223474 -120.262249 
L 621.710522 -124.489656 
L 622.500639 -128.717063 
L 622.760793 -132.94447 
L 622.636054 -137.171877 
L 622.243132 -141.399285 
L 621.671789 -145.626692 
L 620.99207 -149.854099 
L 620.262996 -154.081506 
L 619.538 -158.308913 
L 618.864467 -162.53632 
L 618.278345 -166.763727 
L 617.797854 -170.991134 
L 617.421085 -175.218541 
L 617.130026 -179.445949 
L 616.899743 -183.673356 
L 616.708461 -187.900763 
L 616.544082 -192.12817 
L 616.405084 -196.355577 
L 616.296811 -200.582984 
L 616.225801 -204.810391 
L 616.194444 -209.037798 
L 616.197022 -213.265205 
L 616.217552 -217.492612 
L 616.230115 -221.72002 
L 616.202552 -225.947427 
L 616.103664 -230.174834 
L 615.912256 -234.402241 
L 615.624797 -238.629648 
L 615.258399 -242.857055 
L 614.847571 -247.084462 
L 614.436092 -251.311869 
L 614.067654 -255.539276 
L 613.779385 -259.766684 
L 613.600497 -263.994091 
L 613.5552 -268.221498 
L 613.66651 -272.448905 
L 613.957312 -276.676312 
L 614.447154 -280.903719 
L 615.146251 -285.131126 
L 616.050022 -289.358533 
L 617.137039 -293.58594 
L 618.371159 -297.813348 
L 619.706586 -302.040755 
L 621.093911 -306.268162 
L 622.485784 -310.495569 
L 623.841766 -314.722976 
L 625.13212 -318.950383 
L 626.339976 -323.17779 
L 627.461067 -327.405197 
L 628.500797 -331.632604 
L 629.469539 -335.860012 
L 630.378054 -340.087419 
L 631.234917 -344.314826 
L 632.046716 -348.542233 
L 632.82018 -352.76964 
L 633.56419 -356.997047 
L 634.289742 -361.224454 
L 635.007272 -365.451861 
L 635.722643 -369.679268 
L 636.434203 -373.906676 
L 637.13292 -378.134083 
L 637.805768 -382.36149 
L 638.44062 -386.588897 
L 639.030076 -390.816304 
L 639.572604 -395.043711 
L 640.071149 -399.271118 
L 640.530729 -403.498525 
L 640.95666 -407.725932 
L 641.354075 -411.95334 
L 641.728282 -416.180747 
L 642.084988 -420.408154 
L 642.429761 -424.635561 
L 642.76678 -428.862968 
L 643.097563 -433.090375 
L 643.420427 -437.317782 
L 643.731085 -441.545189 
L 644.02416 -445.772596 
L 644.294913 -450.000004 
L 644.540476 -454.227411 
L 644.760235 -458.454818 
L 644.955516 -462.682225 
L 645.128945 -466.909632 
L 645.283773 -471.137039 
L 645.423223 -475.364446 
L 645.549835 -479.591853 
L 645.664917 -483.81926 
L 645.768344 -488.046668 
L 646.476656 -488.046668 
L 646.476656 -488.046668 
L 646.580083 -483.81926 
L 646.695165 -479.591853 
L 646.821777 -475.364446 
L 646.961227 -471.137039 
L 647.116055 -466.909632 
L 647.289484 -462.682225 
L 647.484765 -458.454818 
L 647.704524 -454.227411 
L 647.950087 -450.000004 
L 648.22084 -445.772596 
L 648.513915 -441.545189 
L 648.824573 -437.317782 
L 649.147437 -433.090375 
L 649.47822 -428.862968 
L 649.815239 -424.635561 
L 650.160012 -420.408154 
L 650.516718 -416.180747 
L 650.890925 -411.95334 
L 651.28834 -407.725932 
L 651.714271 -403.498525 
L 652.173851 -399.271118 
L 652.672396 -395.043711 
L 653.214924 -390.816304 
L 653.80438 -386.588897 
L 654.439232 -382.36149 
L 655.11208 -378.134083 
L 655.810797 -373.906676 
L 656.522357 -369.679268 
L 657.237728 -365.451861 
L 657.955258 -361.224454 
L 658.68081 -356.997047 
L 659.42482 -352.76964 
L 660.198284 -348.542233 
L 661.010083 -344.314826 
L 661.866946 -340.087419 
L 662.775461 -335.860012 
L 663.744203 -331.632604 
L 664.783933 -327.405197 
L 665.905024 -323.17779 
L 667.11288 -318.950383 
L 668.403234 -314.722976 
L 669.759216 -310.495569 
L 671.151089 -306.268162 
L 672.538414 -302.040755 
L 673.873841 -297.813348 
L 675.107961 -293.58594 
L 676.194978 -289.358533 
L 677.098749 -285.131126 
L 677.797846 -280.903719 
L 678.287688 -276.676312 
L 678.57849 -272.448905 
L 678.6898 -268.221498 
L 678.644503 -263.994091 
L 678.465615 -259.766684 
L 678.177346 -255.539276 
L 677.808908 -251.311869 
L 677.397429 -247.084462 
L 676.986601 -242.857055 
L 676.620203 -238.629648 
L 676.332744 -234.402241 
L 676.141336 -230.174834 
L 676.042448 -225.947427 
L 676.014885 -221.72002 
L 676.027448 -217.492612 
L 676.047978 -213.265205 
L 676.050556 -209.037798 
L 676.019199 -204.810391 
L 675.948189 -200.582984 
L 675.839916 -196.355577 
L 675.700918 -192.12817 
L 675.536539 -187.900763 
L 675.345257 -183.673356 
L 675.114974 -179.445949 
L 674.823915 -175.218541 
L 674.447146 -170.991134 
L 673.966655 -166.763727 
L 673.380533 -162.53632 
L 672.707 -158.308913 
L 671.982004 -154.081506 
L 671.25293 -149.854099 
L 670.573211 -145.626692 
L 670.001868 -141.399285 
L 669.608946 -137.171877 
L 669.484207 -132.94447 
L 669.744361 -128.717063 
L 670.534478 -124.489656 
L 672.021526 -120.262249 
L 674.380286 -116.034842 
L 677.771696 -111.807435 
L 682.310006 -107.580028 
L 688.011199 -103.352621 
L 694.718307 -99.125213 
L 702.015958 -94.897806 
L 709.173412 -90.670399 
L 715.174435 -86.442992 
L 718.879123 -82.215585 
L 719.307054 -77.988178 
L 715.954803 -73.760771 
L 709.012625 -69.533364 
z
" id="mcd73417d0d" style="stroke:#141414;stroke-width:1.5;"/>
    </defs>
    <g clip-path="url(#p3c6b6e7eb4)">
     <use style="fill:#307e4a;stroke:#141414;stroke-width:1.5;" x="0" xlink:href="#mcd73417d0d" y="540.169"/>
    </g>
   </g>
   <g id="line2d_1">
    <path clip-path="url(#p3c6b6e7eb4)" d="M 179.2185 470.635636 
L 179.2185 129.254477 
" style="fill:none;stroke:#141414;stroke-linecap:round;stroke-width:1.5;"/>
   </g>
   <g id="line2d_2">
    <path clip-path="url(#p3c6b6e7eb4)" d="M 179.2185 454.209346 
L 179.2185 324.227399 
" style="fill:none;stroke:#141414;stroke-linecap:round;stroke-width:4.5;"/>
   </g>
   <g id="line2d_3">
    <path clip-path="url(#p3c6b6e7eb4)" d="M 412.6705 470.635636 
L 412.6705 54.979079 
" style="fill:none;stroke:#141414;stroke-linecap:round;stroke-width:1.5;"/>
   </g>
   <g id="line2d_4">
    <path clip-path="url(#p3c6b6e7eb4)" d="M 412.6705 452.066787 
L 412.6705 270.663409 
" style="fill:none;stroke:#141414;stroke-linecap:round;stroke-width:4.5;"/>
   </g>
   <g id="line2d_5">
    <path clip-path="url(#p3c6b6e7eb4)" d="M 646.1225 470.635636 
L 646.1225 52.122332 
" style="fill:none;stroke:#141414;stroke-linecap:round;stroke-width:1.5;"/>
   </g>
   <g id="line2d_6">
    <path clip-path="url(#p3c6b6e7eb4)" d="M 646.1225 449.924227 
L 646.1225 270.663409 
" style="fill:none;stroke:#141414;stroke-linecap:round;stroke-width:4.5;"/>
   </g>
   <g id="patch_3">
    <path d="M 62.4925 492.704 
L 62.4925 7.2 
" style="fill:none;stroke:#262626;stroke-linecap:square;stroke-linejoin:miter;stroke-width:0.8;"/>
   </g>
   <g id="patch_4">
    <path d="M 62.4925 492.704 
L 762.8485 492.704 
" style="fill:none;stroke:#262626;stroke-linecap:square;stroke-linejoin:miter;stroke-width:0.8;"/>
   </g>
   <g id="PathCollection_1">
    <defs>
     <path d="M 0 1.5 
C 0.397805 1.5 0.77937 1.341951 1.06066 1.06066 
C 1.341951 0.77937 1.5 0.397805 1.5 0 
C 1.5 -0.397805 1.341951 -0.77937 1.06066 -1.06066 
C 0.77937 -1.341951 0.397805 -1.5 0 -1.5 
C -0.397805 -1.5 -0.77937 -1.341951 -1.06066 -1.06066 
C -1.341951 -0.77937 -1.5 -0.397805 -1.5 0 
C -1.5 0.397805 -1.341951 0.77937 -1.06066 1.06066 
C -0.77937 1.341951 -0.397805 1.5 0 1.5 
z
" id="m4ad1c4788d" style="stroke:#141414;"/>
    </defs>
    <g clip-path="url(#p3c6b6e7eb4)">
     <use style="fill:#ffffff;stroke:#141414;" x="179.2185" xlink:href="#m4ad1c4788d" y="374.934642"/>
    </g>
   </g>
   <g id="PathCollection_2">
    <g clip-path="url(#p3c6b6e7eb4)">
     <use style="fill:#ffffff;stroke:#141414;" x="412.6705" xlink:href="#m4ad1c4788d" y="362.079284"/>
    </g>
   </g>
   <g id="PathCollection_3">
    <g clip-path="url(#p3c6b6e7eb4)">
     <use style="fill:#ffffff;stroke:#141414;" x="646.1225" xlink:href="#m4ad1c4788d" y="355.651606"/>
    </g>
   </g>
  </g>
 </g>
 <defs>
  <clipPath id="p3c6b6e7eb4">
   <rect height="485.504" width="700.356" x="62.4925" y="7.2"/>
  </clipPath>
 </defs>
</svg>
