<?xml version="1.0" encoding="utf-8" standalone="no"?>
<!DOCTYPE svg PUBLIC "-//W3C//DTD SVG 1.1//EN"
  "http://www.w3.org/Graphics/SVG/1.1/DTD/svg11.dtd">
<!-- Created with matplotlib (https://matplotlib.org/) -->
<svg height="540.169pt" version="1.1" viewBox="0 0 791.118 540.169" width="791.118pt" xmlns="http://www.w3.org/2000/svg" xmlns:xlink="http://www.w3.org/1999/xlink">
 <defs>
  <style type="text/css">
*{stroke-linecap:butt;stroke-linejoin:round;white-space:pre;}
  </style>
 </defs>
 <g id="figure_1">
  <g id="patch_1">
   <path d="M 0 540.169 
L 791.118 540.169 
L 791.118 0 
L 0 0 
z
" style="fill:#ffffff;"/>
  </g>
  <g id="axes_1">
   <g id="patch_2">
    <path d="M 71.39 492.704 
L 638.570363 492.704 
L 638.570363 7.2 
L 71.39 7.2 
z
" style="fill:#ffffff;"/>
   </g>
   <g id="matplotlib.axis_1">
    <g id="xtick_1">
     <g id="text_1">
      <!-- 1003-116-1 -->
      <defs>
       <path d="M 37.25 0 
L 28.46875 0 
L 28.46875 56 
Q 25.296875 52.984375 20.140625 49.953125 
Q 14.984375 46.921875 10.890625 45.40625 
L 10.890625 53.90625 
Q 18.265625 57.375 23.78125 62.296875 
Q 29.296875 67.234375 31.59375 71.875 
L 37.25 71.875 
z
" id="ArialMT-49"/>
       <path d="M 4.15625 35.296875 
Q 4.15625 48 6.765625 55.734375 
Q 9.375 63.484375 14.515625 67.671875 
Q 19.671875 71.875 27.484375 71.875 
Q 33.25 71.875 37.59375 69.546875 
Q 41.9375 67.234375 44.765625 62.859375 
Q 47.609375 58.5 49.21875 52.21875 
Q 50.828125 45.953125 50.828125 35.296875 
Q 50.828125 22.703125 48.234375 14.96875 
Q 45.65625 7.234375 40.5 3 
Q 35.359375 -1.21875 27.484375 -1.21875 
Q 17.140625 -1.21875 11.234375 6.203125 
Q 4.15625 15.140625 4.15625 35.296875 
z
M 13.1875 35.296875 
Q 13.1875 17.671875 17.3125 11.828125 
Q 21.4375 6 27.484375 6 
Q 33.546875 6 37.671875 11.859375 
Q 41.796875 17.71875 41.796875 35.296875 
Q 41.796875 52.984375 37.671875 58.78125 
Q 33.546875 64.59375 27.390625 64.59375 
Q 21.34375 64.59375 17.71875 59.46875 
Q 13.1875 52.9375 13.1875 35.296875 
z
" id="ArialMT-48"/>
       <path d="M 4.203125 18.890625 
L 12.984375 20.0625 
Q 14.5 12.59375 18.140625 9.296875 
Q 21.78125 6 27 6 
Q 33.203125 6 37.46875 10.296875 
Q 41.75 14.59375 41.75 20.953125 
Q 41.75 27 37.796875 30.921875 
Q 33.84375 34.859375 27.734375 34.859375 
Q 25.25 34.859375 21.53125 33.890625 
L 22.515625 41.609375 
Q 23.390625 41.5 23.921875 41.5 
Q 29.546875 41.5 34.03125 44.421875 
Q 38.53125 47.359375 38.53125 53.46875 
Q 38.53125 58.296875 35.25 61.46875 
Q 31.984375 64.65625 26.8125 64.65625 
Q 21.6875 64.65625 18.265625 61.421875 
Q 14.84375 58.203125 13.875 51.765625 
L 5.078125 53.328125 
Q 6.6875 62.15625 12.390625 67.015625 
Q 18.109375 71.875 26.609375 71.875 
Q 32.46875 71.875 37.390625 69.359375 
Q 42.328125 66.84375 44.9375 62.5 
Q 47.5625 58.15625 47.5625 53.265625 
Q 47.5625 48.640625 45.0625 44.828125 
Q 42.578125 41.015625 37.703125 38.765625 
Q 44.046875 37.3125 47.5625 32.6875 
Q 51.078125 28.078125 51.078125 21.140625 
Q 51.078125 11.765625 44.234375 5.25 
Q 37.40625 -1.265625 26.953125 -1.265625 
Q 17.53125 -1.265625 11.296875 4.34375 
Q 5.078125 9.96875 4.203125 18.890625 
z
" id="ArialMT-51"/>
       <path d="M 3.171875 21.484375 
L 3.171875 30.328125 
L 30.171875 30.328125 
L 30.171875 21.484375 
z
" id="ArialMT-45"/>
       <path d="M 49.75 54.046875 
L 41.015625 53.375 
Q 39.84375 58.546875 37.703125 60.890625 
Q 34.125 64.65625 28.90625 64.65625 
Q 24.703125 64.65625 21.53125 62.3125 
Q 17.390625 59.28125 14.984375 53.46875 
Q 12.59375 47.65625 12.5 36.921875 
Q 15.671875 41.75 20.265625 44.09375 
Q 24.859375 46.4375 29.890625 46.4375 
Q 38.671875 46.4375 44.84375 39.96875 
Q 51.03125 33.5 51.03125 23.25 
Q 51.03125 16.5 48.125 10.71875 
Q 45.21875 4.9375 40.140625 1.859375 
Q 35.0625 -1.21875 28.609375 -1.21875 
Q 17.625 -1.21875 10.6875 6.859375 
Q 3.765625 14.9375 3.765625 33.5 
Q 3.765625 54.25 11.421875 63.671875 
Q 18.109375 71.875 29.4375 71.875 
Q 37.890625 71.875 43.28125 67.140625 
Q 48.6875 62.40625 49.75 54.046875 
z
M 13.875 23.1875 
Q 13.875 18.65625 15.796875 14.5 
Q 17.71875 10.359375 21.1875 8.171875 
Q 24.65625 6 28.46875 6 
Q 34.03125 6 38.03125 10.484375 
Q 42.046875 14.984375 42.046875 22.703125 
Q 42.046875 30.125 38.078125 34.390625 
Q 34.125 38.671875 28.125 38.671875 
Q 22.171875 38.671875 18.015625 34.390625 
Q 13.875 30.125 13.875 23.1875 
z
" id="ArialMT-54"/>
      </defs>
      <g style="fill:#262626;" transform="translate(87.199286 511.1565)scale(0.16 -0.16)">
       <use xlink:href="#ArialMT-49"/>
       <use x="55.615234" xlink:href="#ArialMT-48"/>
       <use x="111.230469" xlink:href="#ArialMT-48"/>
       <use x="166.845703" xlink:href="#ArialMT-51"/>
       <use x="222.460938" xlink:href="#ArialMT-45"/>
       <use x="255.761719" xlink:href="#ArialMT-49"/>
       <use x="311.267578" xlink:href="#ArialMT-49"/>
       <use x="366.882812" xlink:href="#ArialMT-54"/>
       <use x="422.498047" xlink:href="#ArialMT-45"/>
       <use x="455.798828" xlink:href="#ArialMT-49"/>
      </g>
     </g>
    </g>
    <g id="xtick_2">
     <g id="text_2">
      <!-- 1004-136-1 -->
      <defs>
       <path d="M 32.328125 0 
L 32.328125 17.140625 
L 1.265625 17.140625 
L 1.265625 25.203125 
L 33.9375 71.578125 
L 41.109375 71.578125 
L 41.109375 25.203125 
L 50.78125 25.203125 
L 50.78125 17.140625 
L 41.109375 17.140625 
L 41.109375 0 
z
M 32.328125 25.203125 
L 32.328125 57.46875 
L 9.90625 25.203125 
z
" id="ArialMT-52"/>
      </defs>
      <g style="fill:#262626;" transform="translate(200.626609 511.1565)scale(0.16 -0.16)">
       <use xlink:href="#ArialMT-49"/>
       <use x="55.615234" xlink:href="#ArialMT-48"/>
       <use x="111.230469" xlink:href="#ArialMT-48"/>
       <use x="166.845703" xlink:href="#ArialMT-52"/>
       <use x="222.460938" xlink:href="#ArialMT-45"/>
       <use x="255.761719" xlink:href="#ArialMT-49"/>
       <use x="311.376953" xlink:href="#ArialMT-51"/>
       <use x="366.992188" xlink:href="#ArialMT-54"/>
       <use x="422.607422" xlink:href="#ArialMT-45"/>
       <use x="455.908203" xlink:href="#ArialMT-49"/>
      </g>
     </g>
    </g>
    <g id="xtick_3">
     <g id="text_3">
      <!-- 1009-168-1 -->
      <defs>
       <path d="M 5.46875 16.546875 
L 13.921875 17.328125 
Q 14.984375 11.375 18.015625 8.6875 
Q 21.046875 6 25.78125 6 
Q 29.828125 6 32.875 7.859375 
Q 35.9375 9.71875 37.890625 12.8125 
Q 39.84375 15.921875 41.15625 21.1875 
Q 42.484375 26.46875 42.484375 31.9375 
Q 42.484375 32.515625 42.4375 33.6875 
Q 39.796875 29.5 35.234375 26.875 
Q 30.671875 24.265625 25.34375 24.265625 
Q 16.453125 24.265625 10.296875 30.703125 
Q 4.15625 37.15625 4.15625 47.703125 
Q 4.15625 58.59375 10.578125 65.234375 
Q 17 71.875 26.65625 71.875 
Q 33.640625 71.875 39.421875 68.109375 
Q 45.21875 64.359375 48.21875 57.390625 
Q 51.21875 50.4375 51.21875 37.25 
Q 51.21875 23.53125 48.234375 15.40625 
Q 45.265625 7.28125 39.375 3.03125 
Q 33.5 -1.21875 25.59375 -1.21875 
Q 17.1875 -1.21875 11.859375 3.4375 
Q 6.546875 8.109375 5.46875 16.546875 
z
M 41.453125 48.140625 
Q 41.453125 55.71875 37.421875 60.15625 
Q 33.40625 64.59375 27.734375 64.59375 
Q 21.875 64.59375 17.53125 59.8125 
Q 13.1875 55.03125 13.1875 47.40625 
Q 13.1875 40.578125 17.3125 36.296875 
Q 21.4375 32.03125 27.484375 32.03125 
Q 33.59375 32.03125 37.515625 36.296875 
Q 41.453125 40.578125 41.453125 48.140625 
z
" id="ArialMT-57"/>
       <path d="M 17.671875 38.8125 
Q 12.203125 40.828125 9.5625 44.53125 
Q 6.9375 48.25 6.9375 53.421875 
Q 6.9375 61.234375 12.546875 66.546875 
Q 18.171875 71.875 27.484375 71.875 
Q 36.859375 71.875 42.578125 66.421875 
Q 48.296875 60.984375 48.296875 53.171875 
Q 48.296875 48.1875 45.671875 44.5 
Q 43.0625 40.828125 37.75 38.8125 
Q 44.34375 36.671875 47.78125 31.875 
Q 51.21875 27.09375 51.21875 20.453125 
Q 51.21875 11.28125 44.71875 5.03125 
Q 38.234375 -1.21875 27.640625 -1.21875 
Q 17.046875 -1.21875 10.546875 5.046875 
Q 4.046875 11.328125 4.046875 20.703125 
Q 4.046875 27.6875 7.59375 32.390625 
Q 11.140625 37.109375 17.671875 38.8125 
z
M 15.921875 53.71875 
Q 15.921875 48.640625 19.1875 45.40625 
Q 22.46875 42.1875 27.6875 42.1875 
Q 32.765625 42.1875 36.015625 45.375 
Q 39.265625 48.578125 39.265625 53.21875 
Q 39.265625 58.0625 35.90625 61.359375 
Q 32.5625 64.65625 27.59375 64.65625 
Q 22.5625 64.65625 19.234375 61.421875 
Q 15.921875 58.203125 15.921875 53.71875 
z
M 13.09375 20.65625 
Q 13.09375 16.890625 14.875 13.375 
Q 16.65625 9.859375 20.171875 7.921875 
Q 23.6875 6 27.734375 6 
Q 34.03125 6 38.125 10.046875 
Q 42.234375 14.109375 42.234375 20.359375 
Q 42.234375 26.703125 38.015625 30.859375 
Q 33.796875 35.015625 27.4375 35.015625 
Q 21.234375 35.015625 17.15625 30.90625 
Q 13.09375 26.8125 13.09375 20.65625 
z
" id="ArialMT-56"/>
      </defs>
      <g style="fill:#262626;" transform="translate(314.062681 511.1565)scale(0.16 -0.16)">
       <use xlink:href="#ArialMT-49"/>
       <use x="55.615234" xlink:href="#ArialMT-48"/>
       <use x="111.230469" xlink:href="#ArialMT-48"/>
       <use x="166.845703" xlink:href="#ArialMT-57"/>
       <use x="222.460938" xlink:href="#ArialMT-45"/>
       <use x="255.761719" xlink:href="#ArialMT-49"/>
       <use x="311.376953" xlink:href="#ArialMT-54"/>
       <use x="366.992188" xlink:href="#ArialMT-56"/>
       <use x="422.607422" xlink:href="#ArialMT-45"/>
       <use x="455.908203" xlink:href="#ArialMT-49"/>
      </g>
     </g>
    </g>
    <g id="xtick_4">
     <g id="text_4">
      <!-- 1010-188-1 -->
      <g style="fill:#262626;" transform="translate(427.498754 511.1565)scale(0.16 -0.16)">
       <use xlink:href="#ArialMT-49"/>
       <use x="55.615234" xlink:href="#ArialMT-48"/>
       <use x="111.230469" xlink:href="#ArialMT-49"/>
       <use x="166.845703" xlink:href="#ArialMT-48"/>
       <use x="222.460938" xlink:href="#ArialMT-45"/>
       <use x="255.761719" xlink:href="#ArialMT-49"/>
       <use x="311.376953" xlink:href="#ArialMT-56"/>
       <use x="366.992188" xlink:href="#ArialMT-56"/>
       <use x="422.607422" xlink:href="#ArialMT-45"/>
       <use x="455.908203" xlink:href="#ArialMT-49"/>
      </g>
     </g>
    </g>
    <g id="xtick_5">
     <g id="text_5">
      <!-- 1025-116-1 -->
      <defs>
       <path d="M 50.34375 8.453125 
L 50.34375 0 
L 3.03125 0 
Q 2.9375 3.171875 4.046875 6.109375 
Q 5.859375 10.9375 9.828125 15.625 
Q 13.8125 20.3125 21.34375 26.46875 
Q 33.015625 36.03125 37.109375 41.625 
Q 41.21875 47.21875 41.21875 52.203125 
Q 41.21875 57.421875 37.46875 61 
Q 33.734375 64.59375 27.734375 64.59375 
Q 21.390625 64.59375 17.578125 60.78125 
Q 13.765625 56.984375 13.71875 50.25 
L 4.6875 51.171875 
Q 5.609375 61.28125 11.65625 66.578125 
Q 17.71875 71.875 27.9375 71.875 
Q 38.234375 71.875 44.234375 66.15625 
Q 50.25 60.453125 50.25 52 
Q 50.25 47.703125 48.484375 43.546875 
Q 46.734375 39.40625 42.65625 34.8125 
Q 38.578125 30.21875 29.109375 22.21875 
Q 21.1875 15.578125 18.9375 13.203125 
Q 16.703125 10.84375 15.234375 8.453125 
z
" id="ArialMT-50"/>
       <path d="M 4.15625 18.75 
L 13.375 19.53125 
Q 14.40625 12.796875 18.140625 9.390625 
Q 21.875 6 27.15625 6 
Q 33.5 6 37.890625 10.78125 
Q 42.28125 15.578125 42.28125 23.484375 
Q 42.28125 31 38.0625 35.34375 
Q 33.84375 39.703125 27 39.703125 
Q 22.75 39.703125 19.328125 37.765625 
Q 15.921875 35.84375 13.96875 32.765625 
L 5.71875 33.84375 
L 12.640625 70.609375 
L 48.25 70.609375 
L 48.25 62.203125 
L 19.671875 62.203125 
L 15.828125 42.96875 
Q 22.265625 47.46875 29.34375 47.46875 
Q 38.71875 47.46875 45.15625 40.96875 
Q 51.609375 34.46875 51.609375 24.265625 
Q 51.609375 14.546875 45.953125 7.46875 
Q 39.0625 -1.21875 27.15625 -1.21875 
Q 17.390625 -1.21875 11.203125 4.25 
Q 5.03125 9.71875 4.15625 18.75 
z
" id="ArialMT-53"/>
      </defs>
      <g style="fill:#262626;" transform="translate(540.943577 511.1565)scale(0.16 -0.16)">
       <use xlink:href="#ArialMT-49"/>
       <use x="55.615234" xlink:href="#ArialMT-48"/>
       <use x="111.230469" xlink:href="#ArialMT-50"/>
       <use x="166.845703" xlink:href="#ArialMT-53"/>
       <use x="222.460938" xlink:href="#ArialMT-45"/>
       <use x="255.761719" xlink:href="#ArialMT-49"/>
       <use x="311.267578" xlink:href="#ArialMT-49"/>
       <use x="366.882812" xlink:href="#ArialMT-54"/>
       <use x="422.498047" xlink:href="#ArialMT-45"/>
       <use x="455.798828" xlink:href="#ArialMT-49"/>
      </g>
     </g>
    </g>
    <g id="text_6">
     <!-- Counter id -->
     <defs>
      <path d="M 58.796875 25.09375 
L 68.265625 22.703125 
Q 65.28125 11.03125 57.546875 4.90625 
Q 49.8125 -1.21875 38.625 -1.21875 
Q 27.046875 -1.21875 19.796875 3.484375 
Q 12.546875 8.203125 8.765625 17.140625 
Q 4.984375 26.078125 4.984375 36.328125 
Q 4.984375 47.515625 9.25 55.828125 
Q 13.53125 64.15625 21.40625 68.46875 
Q 29.296875 72.796875 38.765625 72.796875 
Q 49.515625 72.796875 56.828125 67.328125 
Q 64.15625 61.859375 67.046875 51.953125 
L 57.71875 49.75 
Q 55.21875 57.5625 50.484375 61.125 
Q 45.75 64.703125 38.578125 64.703125 
Q 30.328125 64.703125 24.78125 60.734375 
Q 19.234375 56.78125 16.984375 50.109375 
Q 14.75 43.453125 14.75 36.375 
Q 14.75 27.25 17.40625 20.4375 
Q 20.0625 13.625 25.671875 10.25 
Q 31.296875 6.890625 37.84375 6.890625 
Q 45.796875 6.890625 51.3125 11.46875 
Q 56.84375 16.0625 58.796875 25.09375 
z
" id="ArialMT-67"/>
      <path d="M 3.328125 25.921875 
Q 3.328125 40.328125 11.328125 47.265625 
Q 18.015625 53.03125 27.640625 53.03125 
Q 38.328125 53.03125 45.109375 46.015625 
Q 51.90625 39.015625 51.90625 26.65625 
Q 51.90625 16.65625 48.90625 10.90625 
Q 45.90625 5.171875 40.15625 2 
Q 34.421875 -1.171875 27.640625 -1.171875 
Q 16.75 -1.171875 10.03125 5.8125 
Q 3.328125 12.796875 3.328125 25.921875 
z
M 12.359375 25.921875 
Q 12.359375 15.96875 16.703125 11.015625 
Q 21.046875 6.0625 27.640625 6.0625 
Q 34.1875 6.0625 38.53125 11.03125 
Q 42.875 16.015625 42.875 26.21875 
Q 42.875 35.84375 38.5 40.796875 
Q 34.125 45.75 27.640625 45.75 
Q 21.046875 45.75 16.703125 40.8125 
Q 12.359375 35.890625 12.359375 25.921875 
z
" id="ArialMT-111"/>
      <path d="M 40.578125 0 
L 40.578125 7.625 
Q 34.515625 -1.171875 24.125 -1.171875 
Q 19.53125 -1.171875 15.546875 0.578125 
Q 11.578125 2.34375 9.640625 5 
Q 7.71875 7.671875 6.9375 11.53125 
Q 6.390625 14.109375 6.390625 19.734375 
L 6.390625 51.859375 
L 15.1875 51.859375 
L 15.1875 23.09375 
Q 15.1875 16.21875 15.71875 13.8125 
Q 16.546875 10.359375 19.234375 8.375 
Q 21.921875 6.390625 25.875 6.390625 
Q 29.828125 6.390625 33.296875 8.421875 
Q 36.765625 10.453125 38.203125 13.9375 
Q 39.65625 17.4375 39.65625 24.078125 
L 39.65625 51.859375 
L 48.4375 51.859375 
L 48.4375 0 
z
" id="ArialMT-117"/>
      <path d="M 6.59375 0 
L 6.59375 51.859375 
L 14.5 51.859375 
L 14.5 44.484375 
Q 20.21875 53.03125 31 53.03125 
Q 35.6875 53.03125 39.625 51.34375 
Q 43.5625 49.65625 45.515625 46.921875 
Q 47.46875 44.1875 48.25 40.4375 
Q 48.734375 37.984375 48.734375 31.890625 
L 48.734375 0 
L 39.9375 0 
L 39.9375 31.546875 
Q 39.9375 36.921875 38.90625 39.578125 
Q 37.890625 42.234375 35.28125 43.8125 
Q 32.671875 45.40625 29.15625 45.40625 
Q 23.53125 45.40625 19.453125 41.84375 
Q 15.375 38.28125 15.375 28.328125 
L 15.375 0 
z
" id="ArialMT-110"/>
      <path d="M 25.78125 7.859375 
L 27.046875 0.09375 
Q 23.34375 -0.6875 20.40625 -0.6875 
Q 15.625 -0.6875 12.984375 0.828125 
Q 10.359375 2.34375 9.28125 4.8125 
Q 8.203125 7.28125 8.203125 15.1875 
L 8.203125 45.015625 
L 1.765625 45.015625 
L 1.765625 51.859375 
L 8.203125 51.859375 
L 8.203125 64.703125 
L 16.9375 69.96875 
L 16.9375 51.859375 
L 25.78125 51.859375 
L 25.78125 45.015625 
L 16.9375 45.015625 
L 16.9375 14.703125 
Q 16.9375 10.9375 17.40625 9.859375 
Q 17.875 8.796875 18.921875 8.15625 
Q 19.96875 7.515625 21.921875 7.515625 
Q 23.390625 7.515625 25.78125 7.859375 
z
" id="ArialMT-116"/>
      <path d="M 42.09375 16.703125 
L 51.171875 15.578125 
Q 49.03125 7.625 43.21875 3.21875 
Q 37.40625 -1.171875 28.375 -1.171875 
Q 17 -1.171875 10.328125 5.828125 
Q 3.65625 12.84375 3.65625 25.484375 
Q 3.65625 38.578125 10.390625 45.796875 
Q 17.140625 53.03125 27.875 53.03125 
Q 38.28125 53.03125 44.875 45.953125 
Q 51.46875 38.875 51.46875 26.03125 
Q 51.46875 25.25 51.421875 23.6875 
L 12.75 23.6875 
Q 13.234375 15.140625 17.578125 10.59375 
Q 21.921875 6.0625 28.421875 6.0625 
Q 33.25 6.0625 36.671875 8.59375 
Q 40.09375 11.140625 42.09375 16.703125 
z
M 13.234375 30.90625 
L 42.1875 30.90625 
Q 41.609375 37.453125 38.875 40.71875 
Q 34.671875 45.796875 27.984375 45.796875 
Q 21.921875 45.796875 17.796875 41.75 
Q 13.671875 37.703125 13.234375 30.90625 
z
" id="ArialMT-101"/>
      <path d="M 6.5 0 
L 6.5 51.859375 
L 14.40625 51.859375 
L 14.40625 44 
Q 17.4375 49.515625 20 51.265625 
Q 22.5625 53.03125 25.640625 53.03125 
Q 30.078125 53.03125 34.671875 50.203125 
L 31.640625 42.046875 
Q 28.421875 43.953125 25.203125 43.953125 
Q 22.3125 43.953125 20.015625 42.21875 
Q 17.71875 40.484375 16.75 37.40625 
Q 15.28125 32.71875 15.28125 27.15625 
L 15.28125 0 
z
" id="ArialMT-114"/>
      <path id="ArialMT-32"/>
      <path d="M 6.640625 61.46875 
L 6.640625 71.578125 
L 15.4375 71.578125 
L 15.4375 61.46875 
z
M 6.640625 0 
L 6.640625 51.859375 
L 15.4375 51.859375 
L 15.4375 0 
z
" id="ArialMT-105"/>
      <path d="M 40.234375 0 
L 40.234375 6.546875 
Q 35.296875 -1.171875 25.734375 -1.171875 
Q 19.53125 -1.171875 14.328125 2.25 
Q 9.125 5.671875 6.265625 11.796875 
Q 3.421875 17.921875 3.421875 25.875 
Q 3.421875 33.640625 6 39.96875 
Q 8.59375 46.296875 13.765625 49.65625 
Q 18.953125 53.03125 25.34375 53.03125 
Q 30.03125 53.03125 33.6875 51.046875 
Q 37.359375 49.078125 39.65625 45.90625 
L 39.65625 71.578125 
L 48.390625 71.578125 
L 48.390625 0 
z
M 12.453125 25.875 
Q 12.453125 15.921875 16.640625 10.984375 
Q 20.84375 6.0625 26.5625 6.0625 
Q 32.328125 6.0625 36.34375 10.765625 
Q 40.375 15.484375 40.375 25.140625 
Q 40.375 35.796875 36.265625 40.765625 
Q 32.171875 45.75 26.171875 45.75 
Q 20.3125 45.75 16.375 40.96875 
Q 12.453125 36.1875 12.453125 25.875 
z
" id="ArialMT-100"/>
     </defs>
     <g style="fill:#262626;" transform="translate(318.072681 529.789)scale(0.16 -0.16)">
      <use xlink:href="#ArialMT-67"/>
      <use x="72.216797" xlink:href="#ArialMT-111"/>
      <use x="127.832031" xlink:href="#ArialMT-117"/>
      <use x="183.447266" xlink:href="#ArialMT-110"/>
      <use x="239.0625" xlink:href="#ArialMT-116"/>
      <use x="266.845703" xlink:href="#ArialMT-101"/>
      <use x="322.460938" xlink:href="#ArialMT-114"/>
      <use x="355.761719" xlink:href="#ArialMT-32"/>
      <use x="383.544922" xlink:href="#ArialMT-105"/>
      <use x="405.761719" xlink:href="#ArialMT-100"/>
     </g>
    </g>
   </g>
   <g id="matplotlib.axis_2">
    <g id="ytick_1">
     <g id="text_7">
      <!-- 0 -->
      <g style="fill:#262626;" transform="translate(55.4925 476.361886)scale(0.16 -0.16)">
       <use xlink:href="#ArialMT-48"/>
      </g>
     </g>
    </g>
    <g id="ytick_2">
     <g id="text_8">
      <!-- 250 -->
      <g style="fill:#262626;" transform="translate(37.6975 419.97874)scale(0.16 -0.16)">
       <use xlink:href="#ArialMT-50"/>
       <use x="55.615234" xlink:href="#ArialMT-53"/>
       <use x="111.230469" xlink:href="#ArialMT-48"/>
      </g>
     </g>
    </g>
    <g id="ytick_3">
     <g id="text_9">
      <!-- 500 -->
      <g style="fill:#262626;" transform="translate(37.6975 363.595593)scale(0.16 -0.16)">
       <use xlink:href="#ArialMT-53"/>
       <use x="55.615234" xlink:href="#ArialMT-48"/>
       <use x="111.230469" xlink:href="#ArialMT-48"/>
      </g>
     </g>
    </g>
    <g id="ytick_4">
     <g id="text_10">
      <!-- 750 -->
      <defs>
       <path d="M 4.734375 62.203125 
L 4.734375 70.65625 
L 51.078125 70.65625 
L 51.078125 63.8125 
Q 44.234375 56.546875 37.515625 44.484375 
Q 30.8125 32.421875 27.15625 19.671875 
Q 24.515625 10.6875 23.78125 0 
L 14.75 0 
Q 14.890625 8.453125 18.0625 20.40625 
Q 21.234375 32.375 27.171875 43.484375 
Q 33.109375 54.59375 39.796875 62.203125 
z
" id="ArialMT-55"/>
      </defs>
      <g style="fill:#262626;" transform="translate(37.6975 307.212446)scale(0.16 -0.16)">
       <use xlink:href="#ArialMT-55"/>
       <use x="55.615234" xlink:href="#ArialMT-53"/>
       <use x="111.230469" xlink:href="#ArialMT-48"/>
      </g>
     </g>
    </g>
    <g id="ytick_5">
     <g id="text_11">
      <!-- 1000 -->
      <g style="fill:#262626;" transform="translate(28.8 250.829299)scale(0.16 -0.16)">
       <use xlink:href="#ArialMT-49"/>
       <use x="55.615234" xlink:href="#ArialMT-48"/>
       <use x="111.230469" xlink:href="#ArialMT-48"/>
       <use x="166.845703" xlink:href="#ArialMT-48"/>
      </g>
     </g>
    </g>
    <g id="ytick_6">
     <g id="text_12">
      <!-- 1250 -->
      <g style="fill:#262626;" transform="translate(28.8 194.446153)scale(0.16 -0.16)">
       <use xlink:href="#ArialMT-49"/>
       <use x="55.615234" xlink:href="#ArialMT-50"/>
       <use x="111.230469" xlink:href="#ArialMT-53"/>
       <use x="166.845703" xlink:href="#ArialMT-48"/>
      </g>
     </g>
    </g>
    <g id="ytick_7">
     <g id="text_13">
      <!-- 1500 -->
      <g style="fill:#262626;" transform="translate(28.8 138.063006)scale(0.16 -0.16)">
       <use xlink:href="#ArialMT-49"/>
       <use x="55.615234" xlink:href="#ArialMT-53"/>
       <use x="111.230469" xlink:href="#ArialMT-48"/>
       <use x="166.845703" xlink:href="#ArialMT-48"/>
      </g>
     </g>
    </g>
    <g id="ytick_8">
     <g id="text_14">
      <!-- 1750 -->
      <g style="fill:#262626;" transform="translate(28.8 81.679859)scale(0.16 -0.16)">
       <use xlink:href="#ArialMT-49"/>
       <use x="55.615234" xlink:href="#ArialMT-55"/>
       <use x="111.230469" xlink:href="#ArialMT-53"/>
       <use x="166.845703" xlink:href="#ArialMT-48"/>
      </g>
     </g>
    </g>
    <g id="ytick_9">
     <g id="text_15">
      <!-- 2000 -->
      <g style="fill:#262626;" transform="translate(28.8 25.296712)scale(0.16 -0.16)">
       <use xlink:href="#ArialMT-50"/>
       <use x="55.615234" xlink:href="#ArialMT-48"/>
       <use x="111.230469" xlink:href="#ArialMT-48"/>
       <use x="166.845703" xlink:href="#ArialMT-48"/>
      </g>
     </g>
    </g>
    <g id="text_16">
     <!-- Count [$h^{-1}$] -->
     <defs>
      <path d="M 6.78125 -19.875 
L 6.78125 71.578125 
L 26.171875 71.578125 
L 26.171875 64.3125 
L 15.578125 64.3125 
L 15.578125 -12.59375 
L 26.171875 -12.59375 
L 26.171875 -19.875 
z
" id="ArialMT-91"/>
      <path d="M 55.71875 33.015625 
L 49.3125 0 
L 40.28125 0 
L 46.6875 32.671875 
Q 47.125 34.96875 47.359375 36.71875 
Q 47.609375 38.484375 47.609375 39.5 
Q 47.609375 43.609375 45.015625 45.890625 
Q 42.4375 48.1875 37.796875 48.1875 
Q 30.5625 48.1875 25.265625 43.296875 
Q 19.96875 38.421875 18.40625 30.328125 
L 12.5 0 
L 3.515625 0 
L 18.3125 75.984375 
L 27.296875 75.984375 
L 21.484375 46.09375 
Q 24.90625 50.6875 30.21875 53.34375 
Q 35.546875 56 41.40625 56 
Q 48.640625 56 52.609375 52.09375 
Q 56.59375 48.1875 56.59375 41.109375 
Q 56.59375 39.359375 56.375 37.359375 
Q 56.15625 35.359375 55.71875 33.015625 
z
" id="DejaVuSans-Oblique-104"/>
      <path d="M 10.59375 35.5 
L 73.1875 35.5 
L 73.1875 27.203125 
L 10.59375 27.203125 
z
" id="DejaVuSans-8722"/>
      <path d="M 12.40625 8.296875 
L 28.515625 8.296875 
L 28.515625 63.921875 
L 10.984375 60.40625 
L 10.984375 69.390625 
L 28.421875 72.90625 
L 38.28125 72.90625 
L 38.28125 8.296875 
L 54.390625 8.296875 
L 54.390625 0 
L 12.40625 0 
z
" id="DejaVuSans-49"/>
      <path d="M 21.296875 -19.875 
L 1.90625 -19.875 
L 1.90625 -12.59375 
L 12.5 -12.59375 
L 12.5 64.3125 
L 1.90625 64.3125 
L 1.90625 71.578125 
L 21.296875 71.578125 
z
" id="ArialMT-93"/>
     </defs>
     <g style="fill:#262626;" transform="translate(21.6 292.112)rotate(-90)scale(0.16 -0.16)">
      <use transform="translate(0 0.684375)" xlink:href="#ArialMT-67"/>
      <use transform="translate(72.216797 0.684375)" xlink:href="#ArialMT-111"/>
      <use transform="translate(127.832031 0.684375)" xlink:href="#ArialMT-117"/>
      <use transform="translate(183.447266 0.684375)" xlink:href="#ArialMT-110"/>
      <use transform="translate(239.0625 0.684375)" xlink:href="#ArialMT-116"/>
      <use transform="translate(266.845703 0.684375)" xlink:href="#ArialMT-32"/>
      <use transform="translate(294.628906 0.684375)" xlink:href="#ArialMT-91"/>
      <use transform="translate(322.412109 0.684375)" xlink:href="#DejaVuSans-Oblique-104"/>
      <use transform="translate(393.238724 38.965625)scale(0.7)" xlink:href="#DejaVuSans-8722"/>
      <use transform="translate(451.891068 38.965625)scale(0.7)" xlink:href="#DejaVuSans-49"/>
      <use transform="translate(499.161576 0.684375)" xlink:href="#ArialMT-93"/>
     </g>
    </g>
   </g>
   <g id="PolyCollection_1">
    <defs>
     <path d="M 124.485207 -69.533364 
L 86.356437 -69.533364 
L 84.934676 -70.866056 
L 83.835837 -72.198749 
L 83.097836 -73.531441 
L 82.734039 -74.864134 
L 82.733607 -76.196826 
L 83.064572 -77.529519 
L 83.678932 -78.862212 
L 84.518802 -80.194904 
L 85.52263 -81.527597 
L 86.630607 -82.860289 
L 87.788749 -84.192982 
L 88.951406 -85.525674 
L 90.082291 -86.858367 
L 91.154338 -88.191059 
L 92.148752 -89.523752 
L 93.053669 -90.856445 
L 93.862718 -92.189137 
L 94.573709 -93.52183 
L 95.187533 -94.854522 
L 95.707313 -96.187215 
L 96.13776 -97.519907 
L 96.484685 -98.8526 
L 96.754613 -100.185293 
L 96.954442 -101.517985 
L 97.091129 -102.850678 
L 97.171393 -104.18337 
L 97.201437 -105.516063 
L 97.18671 -106.848755 
L 97.131743 -108.181448 
L 97.040078 -109.51414 
L 96.914297 -110.846833 
L 96.756177 -112.179526 
L 96.566922 -113.512218 
L 96.347482 -114.844911 
L 96.098882 -116.177603 
L 95.822553 -117.510296 
L 95.520609 -118.842988 
L 95.196052 -120.175681 
L 94.852889 -121.508373 
L 94.496162 -122.841066 
L 94.131891 -124.173759 
L 93.766941 -125.506451 
L 93.408803 -126.839144 
L 93.065311 -128.171836 
L 92.744286 -129.504529 
L 92.453129 -130.837221 
L 92.198383 -132.169914 
L 91.985322 -133.502606 
L 91.817595 -134.835299 
L 91.697006 -136.167992 
L 91.62345 -137.500684 
L 91.595034 -138.833377 
L 91.608383 -140.166069 
L 91.659076 -141.498762 
L 91.742167 -142.831454 
L 91.852723 -144.164147 
L 91.986312 -145.49684 
L 92.139387 -146.829532 
L 92.309544 -148.162225 
L 92.495628 -149.494917 
L 92.697694 -150.82761 
L 92.916825 -152.160302 
L 93.154832 -153.492995 
L 93.413854 -154.825687 
L 93.695907 -156.15838 
L 94.002421 -157.491073 
L 94.333844 -158.823765 
L 94.689362 -160.156458 
L 95.0668 -161.48915 
L 95.462735 -162.821843 
L 95.872806 -164.154535 
L 96.29218 -165.487228 
L 96.716101 -166.81992 
L 97.140408 -168.152613 
L 97.561943 -169.485306 
L 97.978776 -170.817998 
L 98.390193 -172.150691 
L 98.796494 -173.483383 
L 99.198619 -174.816076 
L 99.5977 -176.148768 
L 99.994613 -177.481461 
L 100.389622 -178.814154 
L 100.782147 -180.146846 
L 101.170699 -181.479539 
L 101.552968 -182.812231 
L 101.926024 -184.144924 
L 102.286603 -185.477616 
L 102.631419 -186.810309 
L 102.957448 -188.143001 
L 103.262166 -189.475694 
L 103.543713 -190.808387 
L 103.800961 -192.141079 
L 104.033518 -193.473772 
L 104.241655 -194.806464 
L 104.4262 -196.139157 
L 104.588397 -197.471849 
L 104.729776 -198.804542 
L 104.852026 -200.137234 
L 104.956895 -201.469927 
L 105.884748 -201.469927 
L 105.884748 -201.469927 
L 105.989617 -200.137234 
L 106.111867 -198.804542 
L 106.253247 -197.471849 
L 106.415444 -196.139157 
L 106.599988 -194.806464 
L 106.808126 -193.473772 
L 107.040682 -192.141079 
L 107.297931 -190.808387 
L 107.579477 -189.475694 
L 107.884196 -188.143001 
L 108.210224 -186.810309 
L 108.55504 -185.477616 
L 108.91562 -184.144924 
L 109.288676 -182.812231 
L 109.670945 -181.479539 
L 110.059497 -180.146846 
L 110.452022 -178.814154 
L 110.84703 -177.481461 
L 111.243944 -176.148768 
L 111.643024 -174.816076 
L 112.04515 -173.483383 
L 112.451451 -172.150691 
L 112.862868 -170.817998 
L 113.2797 -169.485306 
L 113.701236 -168.152613 
L 114.125542 -166.81992 
L 114.549463 -165.487228 
L 114.968838 -164.154535 
L 115.378909 -162.821843 
L 115.774844 -161.48915 
L 116.152282 -160.156458 
L 116.507799 -158.823765 
L 116.839222 -157.491073 
L 117.145737 -156.15838 
L 117.42779 -154.825687 
L 117.686812 -153.492995 
L 117.924819 -152.160302 
L 118.14395 -150.82761 
L 118.346015 -149.494917 
L 118.532099 -148.162225 
L 118.702256 -146.829532 
L 118.855331 -145.49684 
L 118.98892 -144.164147 
L 119.099477 -142.831454 
L 119.182568 -141.498762 
L 119.233261 -140.166069 
L 119.24661 -138.833377 
L 119.218194 -137.500684 
L 119.144637 -136.167992 
L 119.024048 -134.835299 
L 118.856322 -133.502606 
L 118.64326 -132.169914 
L 118.388515 -130.837221 
L 118.097357 -129.504529 
L 117.776332 -128.171836 
L 117.43284 -126.839144 
L 117.074702 -125.506451 
L 116.709752 -124.173759 
L 116.345482 -122.841066 
L 115.988755 -121.508373 
L 115.645591 -120.175681 
L 115.321034 -118.842988 
L 115.019091 -117.510296 
L 114.742762 -116.177603 
L 114.494162 -114.844911 
L 114.274721 -113.512218 
L 114.085467 -112.179526 
L 113.927346 -110.846833 
L 113.801566 -109.51414 
L 113.7099 -108.181448 
L 113.654933 -106.848755 
L 113.640206 -105.516063 
L 113.67025 -104.18337 
L 113.750515 -102.850678 
L 113.887202 -101.517985 
L 114.08703 -100.185293 
L 114.356958 -98.8526 
L 114.703884 -97.519907 
L 115.13433 -96.187215 
L 115.65411 -94.854522 
L 116.267935 -93.52183 
L 116.978925 -92.189137 
L 117.787975 -90.856445 
L 118.692892 -89.523752 
L 119.687306 -88.191059 
L 120.759352 -86.858367 
L 121.890238 -85.525674 
L 123.052894 -84.192982 
L 124.211037 -82.860289 
L 125.319014 -81.527597 
L 126.322841 -80.194904 
L 127.162712 -78.862212 
L 127.777071 -77.529519 
L 128.108036 -76.196826 
L 128.107604 -74.864134 
L 127.743807 -73.531441 
L 127.005807 -72.198749 
L 125.906968 -70.866056 
L 124.485207 -69.533364 
z
" id="m08824fde4e" style="stroke:#141414;stroke-width:1.5;"/>
    </defs>
    <g clip-path="url(#pa4e3a6c7f9)">
     <use style="fill:#083c1d;stroke:#141414;stroke-width:1.5;" x="0" xlink:href="#m08824fde4e" y="540.169"/>
    </g>
   </g>
   <g id="PolyCollection_2">
    <defs>
     <path d="M 165.996747 -69.533364 
L 135.593755 -69.533364 
L 134.534209 -71.738571 
L 134.049973 -73.943779 
L 134.151797 -76.148986 
L 134.776762 -78.354194 
L 135.806334 -80.559401 
L 137.094423 -82.764609 
L 138.496851 -84.969816 
L 139.894323 -87.175024 
L 141.204228 -89.380231 
L 142.380826 -91.585439 
L 143.406934 -93.790646 
L 144.281953 -95.995854 
L 145.010835 -98.201061 
L 145.596976 -100.406269 
L 146.039939 -102.611476 
L 146.337118 -104.816684 
L 146.487528 -107.021891 
L 146.495672 -109.227099 
L 146.37398 -111.432306 
L 146.143037 -113.637514 
L 145.82968 -115.842721 
L 145.463638 -118.047929 
L 145.07372 -120.253137 
L 144.684523 -122.458344 
L 144.314338 -124.663552 
L 143.974499 -126.868759 
L 143.670049 -129.073967 
L 143.401262 -131.279174 
L 143.165508 -133.484382 
L 142.958973 -135.689589 
L 142.777889 -137.894797 
L 142.61911 -140.100004 
L 142.480023 -142.305212 
L 142.357959 -144.510419 
L 142.249377 -146.715627 
L 142.14916 -148.920834 
L 142.050362 -151.126042 
L 141.94459 -153.331249 
L 141.823048 -155.536457 
L 141.678035 -157.741664 
L 141.504573 -159.946872 
L 141.301781 -162.152079 
L 141.073684 -164.357287 
L 140.829295 -166.562494 
L 140.581948 -168.767702 
L 140.347997 -170.972909 
L 140.145102 -173.178117 
L 139.990355 -175.383324 
L 139.898512 -177.588532 
L 139.880591 -179.793739 
L 139.942986 -181.998947 
L 140.087209 -184.204155 
L 140.310206 -186.409362 
L 140.605139 -188.61457 
L 140.962448 -190.819777 
L 141.370978 -193.024985 
L 141.819031 -195.230192 
L 142.295217 -197.4354 
L 142.789067 -199.640607 
L 143.291425 -201.845815 
L 143.794625 -204.051022 
L 144.292481 -206.25623 
L 144.780137 -208.461437 
L 145.253793 -210.666645 
L 145.710393 -212.871852 
L 146.147334 -215.07706 
L 146.56227 -217.282267 
L 146.95304 -219.487475 
L 147.31769 -221.692682 
L 147.654575 -223.89789 
L 147.962461 -226.103097 
L 148.240634 -228.308305 
L 148.489004 -230.513512 
L 148.70822 -232.71872 
L 148.899781 -234.923927 
L 149.066107 -237.129135 
L 149.210488 -239.334342 
L 149.33686 -241.53955 
L 149.449401 -243.744757 
L 149.552013 -245.949965 
L 149.647802 -248.155173 
L 149.738713 -250.36038 
L 149.825405 -252.565588 
L 149.907416 -254.770795 
L 149.983551 -256.976003 
L 150.052384 -259.18121 
L 150.11273 -261.386418 
L 150.164 -263.591625 
L 150.206366 -265.796833 
L 150.240783 -268.00204 
L 150.268873 -270.207248 
L 150.292752 -272.412455 
L 150.314797 -274.617663 
L 150.337391 -276.82287 
L 150.362637 -279.028078 
L 150.392069 -281.233285 
L 150.426423 -283.438493 
L 150.465503 -285.6437 
L 150.508217 -287.848908 
L 151.082285 -287.848908 
L 151.082285 -287.848908 
L 151.124999 -285.6437 
L 151.164079 -283.438493 
L 151.198433 -281.233285 
L 151.227865 -279.028078 
L 151.25311 -276.82287 
L 151.275705 -274.617663 
L 151.29775 -272.412455 
L 151.321628 -270.207248 
L 151.349719 -268.00204 
L 151.384136 -265.796833 
L 151.426502 -263.591625 
L 151.477771 -261.386418 
L 151.538118 -259.18121 
L 151.606951 -256.976003 
L 151.683086 -254.770795 
L 151.765097 -252.565588 
L 151.851789 -250.36038 
L 151.942699 -248.155173 
L 152.038489 -245.949965 
L 152.1411 -243.744757 
L 152.253642 -241.53955 
L 152.380013 -239.334342 
L 152.524395 -237.129135 
L 152.690721 -234.923927 
L 152.882282 -232.71872 
L 153.101497 -230.513512 
L 153.349867 -228.308305 
L 153.628041 -226.103097 
L 153.935927 -223.89789 
L 154.272811 -221.692682 
L 154.637462 -219.487475 
L 155.028231 -217.282267 
L 155.443168 -215.07706 
L 155.880109 -212.871852 
L 156.336709 -210.666645 
L 156.810365 -208.461437 
L 157.298021 -206.25623 
L 157.795877 -204.051022 
L 158.299076 -201.845815 
L 158.801435 -199.640607 
L 159.295285 -197.4354 
L 159.77147 -195.230192 
L 160.219524 -193.024985 
L 160.628054 -190.819777 
L 160.985362 -188.61457 
L 161.280296 -186.409362 
L 161.503293 -184.204155 
L 161.647516 -181.998947 
L 161.709911 -179.793739 
L 161.691989 -177.588532 
L 161.600147 -175.383324 
L 161.4454 -173.178117 
L 161.242505 -170.972909 
L 161.008554 -168.767702 
L 160.761206 -166.562494 
L 160.516818 -164.357287 
L 160.288721 -162.152079 
L 160.085929 -159.946872 
L 159.912467 -157.741664 
L 159.767454 -155.536457 
L 159.645912 -153.331249 
L 159.54014 -151.126042 
L 159.441342 -148.920834 
L 159.341125 -146.715627 
L 159.232542 -144.510419 
L 159.110479 -142.305212 
L 158.971392 -140.100004 
L 158.812613 -137.894797 
L 158.631529 -135.689589 
L 158.424993 -133.484382 
L 158.189239 -131.279174 
L 157.920453 -129.073967 
L 157.616003 -126.868759 
L 157.276164 -124.663552 
L 156.905978 -122.458344 
L 156.516782 -120.253137 
L 156.126864 -118.047929 
L 155.760821 -115.842721 
L 155.447464 -113.637514 
L 155.216521 -111.432306 
L 155.094829 -109.227099 
L 155.102974 -107.021891 
L 155.253383 -104.816684 
L 155.550563 -102.611476 
L 155.993525 -100.406269 
L 156.579667 -98.201061 
L 157.308548 -95.995854 
L 158.183568 -93.790646 
L 159.209676 -91.585439 
L 160.386273 -89.380231 
L 161.696178 -87.175024 
L 163.093651 -84.969816 
L 164.496078 -82.764609 
L 165.784167 -80.559401 
L 166.813739 -78.354194 
L 167.438704 -76.148986 
L 167.540529 -73.943779 
L 167.056292 -71.738571 
L 165.996747 -69.533364 
z
" id="m9733761c7b" style="stroke:#141414;stroke-width:1.5;"/>
    </defs>
    <g clip-path="url(#pa4e3a6c7f9)">
     <use style="fill:#0e5f2f;stroke:#141414;stroke-width:1.5;" x="0" xlink:href="#m9733761c7b" y="540.169"/>
    </g>
   </g>
   <g id="PolyCollection_3">
    <defs>
     <path d="M 239.025692 -69.533364 
L 198.688097 -69.533364 
L 197.589242 -70.622299 
L 196.788192 -71.711234 
L 196.311702 -72.800169 
L 196.16968 -73.889104 
L 196.354934 -74.978039 
L 196.844397 -76.066974 
L 197.601622 -77.155909 
L 198.58019 -78.244845 
L 199.727602 -79.33378 
L 200.989203 -80.422715 
L 202.311752 -81.51165 
L 203.646347 -82.600585 
L 204.950526 -83.68952 
L 206.189518 -84.778455 
L 207.336701 -85.86739 
L 208.373404 -86.956326 
L 209.28824 -88.045261 
L 210.076145 -89.134196 
L 210.737282 -90.223131 
L 211.275943 -91.312066 
L 211.699528 -92.401001 
L 212.017641 -93.489936 
L 212.241319 -94.578871 
L 212.382394 -95.667806 
L 212.452954 -96.756742 
L 212.464907 -97.845677 
L 212.429609 -98.934612 
L 212.357555 -100.023547 
L 212.258132 -101.112482 
L 212.139416 -102.201417 
L 212.008038 -103.290352 
L 211.869097 -104.379287 
L 211.726153 -105.468222 
L 211.58128 -106.557158 
L 211.435183 -107.646093 
L 211.287391 -108.735028 
L 211.136502 -109.823963 
L 210.980472 -110.912898 
L 210.816946 -112.001833 
L 210.643593 -113.090768 
L 210.458439 -114.179703 
L 210.260166 -115.268639 
L 210.048362 -116.357574 
L 209.823697 -117.446509 
L 209.588003 -118.535444 
L 209.344269 -119.624379 
L 209.096522 -120.713314 
L 208.84962 -121.802249 
L 208.608965 -122.891184 
L 208.380162 -123.980119 
L 208.168646 -125.069055 
L 207.979322 -126.15799 
L 207.816242 -127.246925 
L 207.682355 -128.33586 
L 207.579338 -129.424795 
L 207.507549 -130.51373 
L 207.466073 -131.602665 
L 207.452877 -132.6916 
L 207.465042 -133.780536 
L 207.499051 -134.869471 
L 207.551105 -135.958406 
L 207.617439 -137.047341 
L 207.694612 -138.136276 
L 207.779743 -139.225211 
L 207.8707 -140.314146 
L 207.966219 -141.403081 
L 208.065967 -142.492016 
L 208.170544 -143.580952 
L 208.281443 -144.669887 
L 208.400965 -145.758822 
L 208.532092 -146.847757 
L 208.678332 -147.936692 
L 208.843512 -149.025627 
L 209.031552 -150.114562 
L 209.246198 -151.203497 
L 209.490741 -152.292433 
L 209.767726 -153.381368 
L 210.078687 -154.470303 
L 210.423929 -155.559238 
L 210.802374 -156.648173 
L 211.211508 -157.737108 
L 211.647432 -158.826043 
L 212.105024 -159.914978 
L 212.578188 -161.003913 
L 213.060191 -162.092849 
L 213.544029 -163.181784 
L 214.022806 -164.270719 
L 214.490079 -165.359654 
L 214.940146 -166.448589 
L 215.368255 -167.537524 
L 215.770717 -168.626459 
L 216.144939 -169.715394 
L 216.489379 -170.80433 
L 216.803435 -171.893265 
L 217.087306 -172.9822 
L 217.341828 -174.071135 
L 217.568314 -175.16007 
L 217.768401 -176.249005 
L 217.94393 -177.33794 
L 219.769859 -177.33794 
L 219.769859 -177.33794 
L 219.945388 -176.249005 
L 220.145475 -175.16007 
L 220.37196 -174.071135 
L 220.626483 -172.9822 
L 220.910354 -171.893265 
L 221.22441 -170.80433 
L 221.56885 -169.715394 
L 221.943072 -168.626459 
L 222.345534 -167.537524 
L 222.773642 -166.448589 
L 223.22371 -165.359654 
L 223.690983 -164.270719 
L 224.16976 -163.181784 
L 224.653598 -162.092849 
L 225.135601 -161.003913 
L 225.608765 -159.914978 
L 226.066356 -158.826043 
L 226.502281 -157.737108 
L 226.911415 -156.648173 
L 227.28986 -155.559238 
L 227.635102 -154.470303 
L 227.946063 -153.381368 
L 228.223048 -152.292433 
L 228.46759 -151.203497 
L 228.682237 -150.114562 
L 228.870277 -149.025627 
L 229.035457 -147.936692 
L 229.181696 -146.847757 
L 229.312824 -145.758822 
L 229.432346 -144.669887 
L 229.543245 -143.580952 
L 229.647822 -142.492016 
L 229.747569 -141.403081 
L 229.843089 -140.314146 
L 229.934046 -139.225211 
L 230.019177 -138.136276 
L 230.096349 -137.047341 
L 230.162684 -135.958406 
L 230.214738 -134.869471 
L 230.248746 -133.780536 
L 230.260911 -132.6916 
L 230.247716 -131.602665 
L 230.20624 -130.51373 
L 230.134451 -129.424795 
L 230.031434 -128.33586 
L 229.897546 -127.246925 
L 229.734467 -126.15799 
L 229.545143 -125.069055 
L 229.333626 -123.980119 
L 229.104823 -122.891184 
L 228.864169 -121.802249 
L 228.617267 -120.713314 
L 228.36952 -119.624379 
L 228.125786 -118.535444 
L 227.890092 -117.446509 
L 227.665426 -116.357574 
L 227.453623 -115.268639 
L 227.25535 -114.179703 
L 227.070195 -113.090768 
L 226.896842 -112.001833 
L 226.733316 -110.912898 
L 226.577287 -109.823963 
L 226.426397 -108.735028 
L 226.278606 -107.646093 
L 226.132509 -106.557158 
L 225.987635 -105.468222 
L 225.844692 -104.379287 
L 225.705751 -103.290352 
L 225.574372 -102.201417 
L 225.455657 -101.112482 
L 225.356234 -100.023547 
L 225.28418 -98.934612 
L 225.248882 -97.845677 
L 225.260835 -96.756742 
L 225.331395 -95.667806 
L 225.47247 -94.578871 
L 225.696148 -93.489936 
L 226.014261 -92.401001 
L 226.437846 -91.312066 
L 226.976507 -90.223131 
L 227.637643 -89.134196 
L 228.425548 -88.045261 
L 229.340385 -86.956326 
L 230.377088 -85.86739 
L 231.52427 -84.778455 
L 232.763262 -83.68952 
L 234.067441 -82.600585 
L 235.402036 -81.51165 
L 236.724586 -80.422715 
L 237.986187 -79.33378 
L 239.133598 -78.244845 
L 240.112166 -77.155909 
L 240.869391 -76.066974 
L 241.358855 -74.978039 
L 241.544109 -73.889104 
L 241.402087 -72.800169 
L 240.925597 -71.711234 
L 240.124547 -70.622299 
L 239.025692 -69.533364 
z
" id="m2c3a2faea2" style="stroke:#141414;stroke-width:1.5;"/>
    </defs>
    <g clip-path="url(#pa4e3a6c7f9)">
     <use style="fill:#083c1d;stroke:#141414;stroke-width:1.5;" x="0" xlink:href="#m2c3a2faea2" y="540.169"/>
    </g>
   </g>
   <g id="PolyCollection_4">
    <defs>
     <path d="M 279.153612 -69.533364 
L 249.309035 -69.533364 
L 248.470542 -71.137151 
L 248.059838 -72.740938 
L 248.099323 -74.344725 
L 248.570607 -75.948513 
L 249.418053 -77.5523 
L 250.557475 -79.156087 
L 251.888062 -80.759875 
L 253.305204 -82.363662 
L 254.711991 -83.967449 
L 256.027799 -85.571236 
L 257.193244 -87.175024 
L 258.17159 -88.778811 
L 258.947315 -90.382598 
L 259.522829 -91.986386 
L 259.914292 -93.590173 
L 260.147285 -95.19396 
L 260.252803 -96.797747 
L 260.263787 -98.401535 
L 260.212264 -100.005322 
L 260.127093 -101.609109 
L 260.032324 -103.212897 
L 259.946183 -104.816684 
L 259.880689 -106.420471 
L 259.8419 -108.024258 
L 259.830689 -109.628046 
L 259.843936 -111.231833 
L 259.87593 -112.83562 
L 259.919775 -114.439408 
L 259.96861 -116.043195 
L 260.016494 -117.646982 
L 260.058877 -119.250769 
L 260.092651 -120.854557 
L 260.115861 -122.458344 
L 260.12717 -124.062131 
L 260.125237 -125.665919 
L 260.108118 -127.269706 
L 260.072813 -128.873493 
L 260.015013 -130.47728 
L 259.929084 -132.081068 
L 259.808266 -133.684855 
L 259.645074 -135.288642 
L 259.431831 -136.89243 
L 259.16129 -138.496217 
L 258.827285 -140.100004 
L 258.425356 -141.703791 
L 257.953287 -143.307579 
L 257.411536 -144.911366 
L 256.803489 -146.515153 
L 256.135559 -148.118941 
L 255.417094 -149.722728 
L 254.660148 -151.326515 
L 253.87912 -152.930302 
L 253.090333 -154.53409 
L 252.311591 -156.137877 
L 251.56175 -157.741664 
L 250.860321 -159.345452 
L 250.227086 -160.949239 
L 249.681666 -162.553026 
L 249.243005 -164.156813 
L 248.92868 -165.760601 
L 248.754038 -167.364388 
L 248.731186 -168.968175 
L 248.867927 -170.571963 
L 249.166788 -172.17575 
L 249.624312 -173.779537 
L 250.230753 -175.383324 
L 250.970291 -176.987112 
L 251.821759 -178.590899 
L 252.759847 -180.194686 
L 253.756644 -181.798474 
L 254.783356 -183.402261 
L 255.812012 -185.006048 
L 256.817001 -186.609835 
L 257.776317 -188.213623 
L 258.672414 -189.81741 
L 259.492651 -191.421197 
L 260.22933 -193.024985 
L 260.87938 -194.628772 
L 261.443754 -196.232559 
L 261.926649 -197.836346 
L 262.334612 -199.440134 
L 262.675661 -201.043921 
L 262.958467 -202.647708 
L 263.191669 -204.251496 
L 263.38336 -205.855283 
L 263.540751 -207.45907 
L 263.670005 -209.062857 
L 263.776216 -210.666645 
L 263.863493 -212.270432 
L 263.935106 -213.874219 
L 263.993663 -215.478007 
L 264.041272 -217.081794 
L 264.079687 -218.685581 
L 264.11041 -220.289368 
L 264.134762 -221.893156 
L 264.153918 -223.496943 
L 264.168923 -225.10073 
L 264.180687 -226.704518 
L 264.189982 -228.308305 
L 264.272665 -228.308305 
L 264.272665 -228.308305 
L 264.28196 -226.704518 
L 264.293724 -225.10073 
L 264.308729 -223.496943 
L 264.327885 -221.893156 
L 264.352237 -220.289368 
L 264.38296 -218.685581 
L 264.421375 -217.081794 
L 264.468984 -215.478007 
L 264.527541 -213.874219 
L 264.599154 -212.270432 
L 264.68643 -210.666645 
L 264.792642 -209.062857 
L 264.921896 -207.45907 
L 265.079287 -205.855283 
L 265.270978 -204.251496 
L 265.50418 -202.647708 
L 265.786986 -201.043921 
L 266.128035 -199.440134 
L 266.535998 -197.836346 
L 267.018892 -196.232559 
L 267.583267 -194.628772 
L 268.233316 -193.024985 
L 268.969996 -191.421197 
L 269.790233 -189.81741 
L 270.68633 -188.213623 
L 271.645646 -186.609835 
L 272.650635 -185.006048 
L 273.67929 -183.402261 
L 274.706003 -181.798474 
L 275.7028 -180.194686 
L 276.640888 -178.590899 
L 277.492356 -176.987112 
L 278.231894 -175.383324 
L 278.838335 -173.779537 
L 279.295858 -172.17575 
L 279.594719 -170.571963 
L 279.731461 -168.968175 
L 279.708609 -167.364388 
L 279.533967 -165.760601 
L 279.219641 -164.156813 
L 278.78098 -162.553026 
L 278.235561 -160.949239 
L 277.602325 -159.345452 
L 276.900897 -157.741664 
L 276.151056 -156.137877 
L 275.372314 -154.53409 
L 274.583527 -152.930302 
L 273.802499 -151.326515 
L 273.045553 -149.722728 
L 272.327088 -148.118941 
L 271.659157 -146.515153 
L 271.051111 -144.911366 
L 270.509359 -143.307579 
L 270.037291 -141.703791 
L 269.635361 -140.100004 
L 269.301357 -138.496217 
L 269.030816 -136.89243 
L 268.817573 -135.288642 
L 268.654381 -133.684855 
L 268.533563 -132.081068 
L 268.447633 -130.47728 
L 268.389833 -128.873493 
L 268.354528 -127.269706 
L 268.337409 -125.665919 
L 268.335476 -124.062131 
L 268.346786 -122.458344 
L 268.369996 -120.854557 
L 268.40377 -119.250769 
L 268.446153 -117.646982 
L 268.494037 -116.043195 
L 268.542872 -114.439408 
L 268.586716 -112.83562 
L 268.61871 -111.231833 
L 268.631958 -109.628046 
L 268.620747 -108.024258 
L 268.581957 -106.420471 
L 268.516464 -104.816684 
L 268.430323 -103.212897 
L 268.335554 -101.609109 
L 268.250383 -100.005322 
L 268.198859 -98.401535 
L 268.209844 -96.797747 
L 268.315362 -95.19396 
L 268.548355 -93.590173 
L 268.939817 -91.986386 
L 269.515332 -90.382598 
L 270.291057 -88.778811 
L 271.269402 -87.175024 
L 272.434848 -85.571236 
L 273.750656 -83.967449 
L 275.157442 -82.363662 
L 276.574584 -80.759875 
L 277.905171 -79.156087 
L 279.044593 -77.5523 
L 279.89204 -75.948513 
L 280.363324 -74.344725 
L 280.402809 -72.740938 
L 279.992105 -71.137151 
L 279.153612 -69.533364 
z
" id="m1ff519f8d6" style="stroke:#141414;stroke-width:1.5;"/>
    </defs>
    <g clip-path="url(#pa4e3a6c7f9)">
     <use style="fill:#0e5f2f;stroke:#141414;stroke-width:1.5;" x="0" xlink:href="#m1ff519f8d6" y="540.169"/>
    </g>
   </g>
   <g id="PolyCollection_5">
    <defs>
     <path d="M 348.411819 -69.533364 
L 316.174115 -69.533364 
L 314.010624 -72.704488 
L 312.190339 -75.875613 
L 310.819114 -79.046738 
L 309.955492 -82.217863 
L 309.605752 -85.388988 
L 309.727961 -88.560113 
L 310.243215 -91.731238 
L 311.050959 -94.902363 
L 312.044932 -98.073487 
L 313.126842 -101.244612 
L 314.215911 -104.415737 
L 315.253603 -107.586862 
L 316.203834 -110.757987 
L 317.049741 -113.929112 
L 317.788438 -117.100237 
L 318.425299 -120.271361 
L 318.969058 -123.442486 
L 319.428568 -126.613611 
L 319.811456 -129.784736 
L 320.124389 -132.955861 
L 320.374224 -136.126986 
L 320.569239 -139.298111 
L 320.719754 -142.469235 
L 320.837796 -145.64036 
L 320.93588 -148.811485 
L 321.025282 -151.98261 
L 321.114358 -155.153735 
L 321.207408 -158.32486 
L 321.304401 -161.495985 
L 321.401602 -164.667109 
L 321.492918 -167.838234 
L 321.571587 -171.009359 
L 321.631839 -174.180484 
L 321.670167 -177.351609 
L 321.686005 -180.522734 
L 321.681753 -183.693859 
L 321.662231 -186.864983 
L 321.633753 -190.036108 
L 321.603056 -193.207233 
L 321.576317 -196.378358 
L 321.558383 -199.549483 
L 321.552323 -202.720608 
L 321.559253 -205.891733 
L 321.578406 -209.062857 
L 321.607378 -212.233982 
L 321.642529 -215.405107 
L 321.679508 -218.576232 
L 321.713897 -221.747357 
L 321.741906 -224.918482 
L 321.760981 -228.089607 
L 321.770168 -231.260731 
L 321.770093 -234.431856 
L 321.762504 -237.602981 
L 321.749509 -240.774106 
L 321.732751 -243.945231 
L 321.712847 -247.116356 
L 321.689346 -250.287481 
L 321.661266 -253.458605 
L 321.628034 -256.62973 
L 321.590498 -259.800855 
L 321.55163 -262.97198 
L 321.516694 -266.143105 
L 321.492894 -269.31423 
L 321.488701 -272.485355 
L 321.513204 -275.656479 
L 321.575681 -278.827604 
L 321.685417 -281.998729 
L 321.851575 -285.169854 
L 322.082817 -288.340979 
L 322.386475 -291.512104 
L 322.767282 -294.683229 
L 323.225966 -297.854354 
L 323.758143 -301.025478 
L 324.353944 -304.196603 
L 324.998604 -307.367728 
L 325.673924 -310.538853 
L 326.36027 -313.709978 
L 327.038624 -316.881103 
L 327.692245 -320.052228 
L 328.307685 -323.223352 
L 328.875145 -326.394477 
L 329.388317 -329.565602 
L 329.843983 -332.736727 
L 330.241565 -335.907852 
L 330.582744 -339.078977 
L 330.871127 -342.250102 
L 331.111891 -345.421226 
L 331.311316 -348.592351 
L 331.476194 -351.763476 
L 331.613174 -354.934601 
L 331.728165 -358.105726 
L 331.825915 -361.276851 
L 331.909856 -364.447976 
L 331.982213 -367.6191 
L 332.044304 -370.790225 
L 332.096929 -373.96135 
L 332.140722 -377.132475 
L 332.176391 -380.3036 
L 332.204817 -383.474725 
L 332.381117 -383.474725 
L 332.381117 -383.474725 
L 332.409542 -380.3036 
L 332.445211 -377.132475 
L 332.489005 -373.96135 
L 332.54163 -370.790225 
L 332.603721 -367.6191 
L 332.676077 -364.447976 
L 332.760019 -361.276851 
L 332.857769 -358.105726 
L 332.97276 -354.934601 
L 333.10974 -351.763476 
L 333.274618 -348.592351 
L 333.474043 -345.421226 
L 333.714807 -342.250102 
L 334.00319 -339.078977 
L 334.344369 -335.907852 
L 334.741951 -332.736727 
L 335.197616 -329.565602 
L 335.710789 -326.394477 
L 336.278248 -323.223352 
L 336.893689 -320.052228 
L 337.54731 -316.881103 
L 338.225664 -313.709978 
L 338.91201 -310.538853 
L 339.58733 -307.367728 
L 340.23199 -304.196603 
L 340.827791 -301.025478 
L 341.359968 -297.854354 
L 341.818652 -294.683229 
L 342.199459 -291.512104 
L 342.503117 -288.340979 
L 342.734359 -285.169854 
L 342.900517 -281.998729 
L 343.010253 -278.827604 
L 343.072729 -275.656479 
L 343.097233 -272.485355 
L 343.09304 -269.31423 
L 343.069239 -266.143105 
L 343.034304 -262.97198 
L 342.995435 -259.800855 
L 342.957899 -256.62973 
L 342.924668 -253.458605 
L 342.896588 -250.287481 
L 342.873087 -247.116356 
L 342.853183 -243.945231 
L 342.836425 -240.774106 
L 342.82343 -237.602981 
L 342.815841 -234.431856 
L 342.815765 -231.260731 
L 342.824953 -228.089607 
L 342.844027 -224.918482 
L 342.872037 -221.747357 
L 342.906426 -218.576232 
L 342.943405 -215.405107 
L 342.978556 -212.233982 
L 343.007528 -209.062857 
L 343.02668 -205.891733 
L 343.03361 -202.720608 
L 343.027551 -199.549483 
L 343.009617 -196.378358 
L 342.982878 -193.207233 
L 342.952181 -190.036108 
L 342.923702 -186.864983 
L 342.90418 -183.693859 
L 342.899929 -180.522734 
L 342.915767 -177.351609 
L 342.954095 -174.180484 
L 343.014347 -171.009359 
L 343.093016 -167.838234 
L 343.184332 -164.667109 
L 343.281533 -161.495985 
L 343.378526 -158.32486 
L 343.471576 -155.153735 
L 343.560652 -151.98261 
L 343.650054 -148.811485 
L 343.748138 -145.64036 
L 343.86618 -142.469235 
L 344.016695 -139.298111 
L 344.21171 -136.126986 
L 344.461545 -132.955861 
L 344.774477 -129.784736 
L 345.157366 -126.613611 
L 345.616875 -123.442486 
L 346.160635 -120.271361 
L 346.797496 -117.100237 
L 347.536192 -113.929112 
L 348.3821 -110.757987 
L 349.332331 -107.586862 
L 350.370023 -104.415737 
L 351.459092 -101.244612 
L 352.541002 -98.073487 
L 353.534975 -94.902363 
L 354.342719 -91.731238 
L 354.857973 -88.560113 
L 354.980181 -85.388988 
L 354.630442 -82.217863 
L 353.76682 -79.046738 
L 352.395595 -75.875613 
L 350.575309 -72.704488 
L 348.411819 -69.533364 
z
" id="mb859877441" style="stroke:#141414;stroke-width:1.5;"/>
    </defs>
    <g clip-path="url(#pa4e3a6c7f9)">
     <use style="fill:#083c1d;stroke:#141414;stroke-width:1.5;" x="0" xlink:href="#mb859877441" y="540.169"/>
    </g>
   </g>
   <g id="PolyCollection_6">
    <defs>
     <path d="M 391.54089 -69.758896 
L 363.793901 -69.758896 
L 362.200464 -73.857211 
L 361.09419 -77.955525 
L 360.564277 -82.053839 
L 360.629674 -86.152154 
L 361.241291 -90.250468 
L 362.297007 -94.348783 
L 363.663846 -98.447097 
L 365.200809 -102.545411 
L 366.777357 -106.643726 
L 368.285255 -110.74204 
L 369.643965 -114.840354 
L 370.801243 -118.938669 
L 371.730822 -123.036983 
L 372.42856 -127.135298 
L 372.907793 -131.233612 
L 373.194234 -135.331926 
L 373.320677 -139.430241 
L 373.321894 -143.528555 
L 373.230252 -147.62687 
L 373.072553 -151.725184 
L 372.86849 -155.823498 
L 372.630804 -159.921813 
L 372.366941 -164.020127 
L 372.081731 -168.118441 
L 371.780402 -172.216756 
L 371.471228 -176.31507 
L 371.167144 -180.413385 
L 370.885896 -184.511699 
L 370.648563 -188.610013 
L 370.47668 -192.708328 
L 370.38852 -196.806642 
L 370.395378 -200.904957 
L 370.498775 -205.003271 
L 370.689338 -209.101585 
L 370.947705 -213.1999 
L 371.247287 -217.298214 
L 371.558197 -221.396528 
L 371.851417 -225.494843 
L 372.102282 -229.593157 
L 372.292678 -233.691472 
L 372.411785 -237.789786 
L 372.455607 -241.8881 
L 372.425729 -245.986415 
L 372.327771 -250.084729 
L 372.169808 -254.183043 
L 371.960879 -258.281358 
L 371.709539 -262.379672 
L 371.422442 -266.477987 
L 371.103068 -270.576301 
L 370.750829 -274.674615 
L 370.36087 -278.77293 
L 369.924844 -282.871244 
L 369.432731 -286.969559 
L 368.875514 -291.067873 
L 368.248273 -295.166187 
L 367.553104 -299.264502 
L 366.801209 -303.362816 
L 366.013651 -307.46113 
L 365.220502 -311.559445 
L 364.458406 -315.657759 
L 363.76694 -319.756074 
L 363.1844 -323.854388 
L 362.743743 -327.952702 
L 362.469364 -332.051017 
L 362.37516 -336.149331 
L 362.464023 -340.247646 
L 362.728584 -344.34596 
L 363.152888 -348.444274 
L 363.714565 -352.542589 
L 364.38717 -356.640903 
L 365.142426 -360.739217 
L 365.952243 -364.837532 
L 366.790415 -368.935846 
L 367.63394 -373.034161 
L 368.463904 -377.132475 
L 369.265874 -381.230789 
L 370.029799 -385.329104 
L 370.749465 -389.427418 
L 371.421632 -393.525733 
L 372.045047 -397.624047 
L 372.619556 -401.722361 
L 373.145515 -405.820676 
L 373.623591 -409.91899 
L 374.054937 -414.017304 
L 374.441586 -418.115619 
L 374.786822 -422.213933 
L 375.095309 -426.312248 
L 375.37285 -430.410562 
L 375.625768 -434.508876 
L 375.860063 -438.607191 
L 376.08056 -442.705505 
L 376.290286 -446.80382 
L 376.490215 -450.902134 
L 376.679448 -455.000448 
L 376.855759 -459.098763 
L 377.016337 -463.197077 
L 377.15856 -467.295391 
L 377.280615 -471.393706 
L 377.381863 -475.49202 
L 377.952929 -475.49202 
L 377.952929 -475.49202 
L 378.054177 -471.393706 
L 378.176231 -467.295391 
L 378.318454 -463.197077 
L 378.479033 -459.098763 
L 378.655344 -455.000448 
L 378.844577 -450.902134 
L 379.044506 -446.80382 
L 379.254232 -442.705505 
L 379.474729 -438.607191 
L 379.709024 -434.508876 
L 379.961942 -430.410562 
L 380.239483 -426.312248 
L 380.54797 -422.213933 
L 380.893206 -418.115619 
L 381.279855 -414.017304 
L 381.711201 -409.91899 
L 382.189276 -405.820676 
L 382.715236 -401.722361 
L 383.289745 -397.624047 
L 383.91316 -393.525733 
L 384.585327 -389.427418 
L 385.304993 -385.329104 
L 386.068918 -381.230789 
L 386.870888 -377.132475 
L 387.700852 -373.034161 
L 388.544377 -368.935846 
L 389.382549 -364.837532 
L 390.192366 -360.739217 
L 390.947622 -356.640903 
L 391.620227 -352.542589 
L 392.181904 -348.444274 
L 392.606208 -344.34596 
L 392.870769 -340.247646 
L 392.959632 -336.149331 
L 392.865428 -332.051017 
L 392.591049 -327.952702 
L 392.150391 -323.854388 
L 391.567852 -319.756074 
L 390.876386 -315.657759 
L 390.114289 -311.559445 
L 389.321141 -307.46113 
L 388.533583 -303.362816 
L 387.781688 -299.264502 
L 387.086519 -295.166187 
L 386.459278 -291.067873 
L 385.90206 -286.969559 
L 385.409948 -282.871244 
L 384.973922 -278.77293 
L 384.583962 -274.674615 
L 384.231723 -270.576301 
L 383.91235 -266.477987 
L 383.625253 -262.379672 
L 383.373912 -258.281358 
L 383.164984 -254.183043 
L 383.007021 -250.084729 
L 382.909062 -245.986415 
L 382.879185 -241.8881 
L 382.923007 -237.789786 
L 383.042114 -233.691472 
L 383.23251 -229.593157 
L 383.483375 -225.494843 
L 383.776595 -221.396528 
L 384.087505 -217.298214 
L 384.387087 -213.1999 
L 384.645454 -209.101585 
L 384.836016 -205.003271 
L 384.939414 -200.904957 
L 384.946272 -196.806642 
L 384.858112 -192.708328 
L 384.686228 -188.610013 
L 384.448896 -184.511699 
L 384.167647 -180.413385 
L 383.863564 -176.31507 
L 383.55439 -172.216756 
L 383.253061 -168.118441 
L 382.967851 -164.020127 
L 382.703988 -159.921813 
L 382.466302 -155.823498 
L 382.262238 -151.725184 
L 382.10454 -147.62687 
L 382.012898 -143.528555 
L 382.014115 -139.430241 
L 382.140558 -135.331926 
L 382.426999 -131.233612 
L 382.906232 -127.135298 
L 383.60397 -123.036983 
L 384.533549 -118.938669 
L 385.690827 -114.840354 
L 387.049537 -110.74204 
L 388.557435 -106.643726 
L 390.133983 -102.545411 
L 391.670946 -98.447097 
L 393.037785 -94.348783 
L 394.093501 -90.250468 
L 394.705117 -86.152154 
L 394.770515 -82.053839 
L 394.240602 -77.955525 
L 393.134328 -73.857211 
L 391.54089 -69.758896 
z
" id="md084f8a9c6" style="stroke:#141414;stroke-width:1.5;"/>
    </defs>
    <g clip-path="url(#pa4e3a6c7f9)">
     <use style="fill:#0e5f2f;stroke:#141414;stroke-width:1.5;" x="0" xlink:href="#md084f8a9c6" y="540.169"/>
    </g>
   </g>
   <g id="PolyCollection_7">
    <defs>
     <path d="M 460.794263 -69.533364 
L 430.663816 -69.533364 
L 428.502825 -73.258068 
L 426.60586 -76.982773 
L 425.070798 -80.707478 
L 423.958126 -84.432183 
L 423.287563 -88.156888 
L 423.041825 -91.881593 
L 423.175324 -95.606298 
L 423.62477 -99.331002 
L 424.318968 -103.055707 
L 425.186215 -106.780412 
L 426.159001 -110.505117 
L 427.176605 -114.229822 
L 428.186499 -117.954527 
L 429.14525 -121.679231 
L 430.019153 -125.403936 
L 430.784483 -129.128641 
L 431.427189 -132.853346 
L 431.941949 -136.578051 
L 432.33079 -140.302756 
L 432.601609 -144.027461 
L 432.766953 -147.752165 
L 432.843194 -151.47687 
L 432.850033 -155.201575 
L 432.81004 -158.92628 
L 432.747885 -162.650985 
L 432.689024 -166.37569 
L 432.657789 -170.100394 
L 432.675102 -173.825099 
L 432.756165 -177.549804 
L 432.908585 -181.274509 
L 433.131322 -184.999214 
L 433.41472 -188.723919 
L 433.741648 -192.448624 
L 434.089623 -196.173328 
L 434.433535 -199.898033 
L 434.748584 -203.622738 
L 435.012947 -207.347443 
L 435.209871 -211.072148 
L 435.328978 -214.796853 
L 435.366774 -218.521557 
L 435.326452 -222.246262 
L 435.217167 -225.970967 
L 435.052931 -229.695672 
L 434.85128 -233.420377 
L 434.631792 -237.145082 
L 434.414546 -240.869787 
L 434.218586 -244.594491 
L 434.060501 -248.319196 
L 433.953196 -252.043901 
L 433.90498 -255.768606 
L 433.919046 -259.493311 
L 433.993437 -263.218016 
L 434.121531 -266.94272 
L 434.293034 -270.667425 
L 434.495377 -274.39213 
L 434.715326 -278.116835 
L 434.940532 -281.84154 
L 435.160761 -285.566245 
L 435.36861 -289.29095 
L 435.559682 -293.015654 
L 435.73234 -296.740359 
L 435.887293 -300.465064 
L 436.027256 -304.189769 
L 436.156795 -307.914474 
L 436.282284 -311.639179 
L 436.411735 -315.363883 
L 436.554242 -319.088588 
L 436.718921 -322.813293 
L 436.913454 -326.537998 
L 437.142624 -330.262703 
L 437.407301 -333.987408 
L 437.704279 -337.712113 
L 438.027083 -341.436817 
L 438.367574 -345.161522 
L 438.717903 -348.886227 
L 439.072264 -352.610932 
L 439.427991 -356.335637 
L 439.785732 -360.060342 
L 440.148692 -363.785046 
L 440.521206 -367.509751 
L 440.907017 -371.234456 
L 441.307718 -374.959161 
L 441.721716 -378.683866 
L 442.143972 -382.408571 
L 442.566523 -386.133276 
L 442.97963 -389.85798 
L 443.373249 -393.582685 
L 443.738462 -397.30739 
L 444.068575 -401.032095 
L 444.359696 -404.7568 
L 444.610764 -408.481505 
L 444.823145 -412.206209 
L 444.999966 -415.930914 
L 445.14538 -419.655619 
L 445.263916 -423.380324 
L 445.359994 -427.105029 
L 445.437623 -430.829734 
L 445.500255 -434.554439 
L 445.550757 -438.279143 
L 445.907322 -438.279143 
L 445.907322 -438.279143 
L 445.957824 -434.554439 
L 446.020456 -430.829734 
L 446.098085 -427.105029 
L 446.194163 -423.380324 
L 446.312699 -419.655619 
L 446.458113 -415.930914 
L 446.634934 -412.206209 
L 446.847315 -408.481505 
L 447.098383 -404.7568 
L 447.389504 -401.032095 
L 447.719617 -397.30739 
L 448.08483 -393.582685 
L 448.478449 -389.85798 
L 448.891556 -386.133276 
L 449.314107 -382.408571 
L 449.736363 -378.683866 
L 450.150361 -374.959161 
L 450.551062 -371.234456 
L 450.936873 -367.509751 
L 451.309387 -363.785046 
L 451.672347 -360.060342 
L 452.030088 -356.335637 
L 452.385815 -352.610932 
L 452.740176 -348.886227 
L 453.090505 -345.161522 
L 453.430996 -341.436817 
L 453.7538 -337.712113 
L 454.050778 -333.987408 
L 454.315455 -330.262703 
L 454.544625 -326.537998 
L 454.739158 -322.813293 
L 454.903837 -319.088588 
L 455.046344 -315.363883 
L 455.175795 -311.639179 
L 455.301284 -307.914474 
L 455.430823 -304.189769 
L 455.570786 -300.465064 
L 455.725739 -296.740359 
L 455.898397 -293.015654 
L 456.089469 -289.29095 
L 456.297318 -285.566245 
L 456.517546 -281.84154 
L 456.742752 -278.116835 
L 456.962702 -274.39213 
L 457.165045 -270.667425 
L 457.336548 -266.94272 
L 457.464642 -263.218016 
L 457.539033 -259.493311 
L 457.553099 -255.768606 
L 457.504883 -252.043901 
L 457.397578 -248.319196 
L 457.239493 -244.594491 
L 457.043533 -240.869787 
L 456.826287 -237.145082 
L 456.606799 -233.420377 
L 456.405148 -229.695672 
L 456.240912 -225.970967 
L 456.131627 -222.246262 
L 456.091305 -218.521557 
L 456.129101 -214.796853 
L 456.248208 -211.072148 
L 456.445132 -207.347443 
L 456.709495 -203.622738 
L 457.024544 -199.898033 
L 457.368456 -196.173328 
L 457.71643 -192.448624 
L 458.043359 -188.723919 
L 458.326756 -184.999214 
L 458.549494 -181.274509 
L 458.701914 -177.549804 
L 458.782977 -173.825099 
L 458.80029 -170.100394 
L 458.769055 -166.37569 
L 458.710194 -162.650985 
L 458.648039 -158.92628 
L 458.608046 -155.201575 
L 458.614885 -151.47687 
L 458.691126 -147.752165 
L 458.85647 -144.027461 
L 459.127289 -140.302756 
L 459.51613 -136.578051 
L 460.03089 -132.853346 
L 460.673596 -129.128641 
L 461.438926 -125.403936 
L 462.312829 -121.679231 
L 463.27158 -117.954527 
L 464.281474 -114.229822 
L 465.299078 -110.505117 
L 466.271864 -106.780412 
L 467.139111 -103.055707 
L 467.833309 -99.331002 
L 468.282755 -95.606298 
L 468.416254 -91.881593 
L 468.170516 -88.156888 
L 467.499953 -84.432183 
L 466.387281 -80.707478 
L 464.852219 -76.982773 
L 462.955254 -73.258068 
L 460.794263 -69.533364 
z
" id="m66372c1bec" style="stroke:#141414;stroke-width:1.5;"/>
    </defs>
    <g clip-path="url(#pa4e3a6c7f9)">
     <use style="fill:#083c1d;stroke:#141414;stroke-width:1.5;" x="0" xlink:href="#m66372c1bec" y="540.169"/>
    </g>
   </g>
   <g id="PolyCollection_8">
    <defs>
     <path d="M 505.27758 -70.435494 
L 476.929357 -70.435494 
L 475.343721 -74.884637 
L 474.189635 -79.33378 
L 473.559326 -83.782923 
L 473.488052 -88.232065 
L 473.950189 -92.681208 
L 474.866264 -97.130351 
L 476.118646 -101.579494 
L 477.571786 -106.028637 
L 479.09228 -110.47778 
L 480.564849 -114.926923 
L 481.901962 -119.376065 
L 483.046796 -123.825208 
L 483.970791 -128.274351 
L 484.667997 -132.723494 
L 485.148494 -137.172637 
L 485.432672 -141.62178 
L 485.547241 -146.070922 
L 485.522993 -150.520065 
L 485.393678 -154.969208 
L 485.195127 -159.418351 
L 484.963876 -163.867494 
L 484.735006 -168.316637 
L 484.539345 -172.76578 
L 484.400629 -177.214922 
L 484.333319 -181.664065 
L 484.34167 -186.113208 
L 484.420325 -190.562351 
L 484.556285 -195.011494 
L 484.73178 -199.460637 
L 484.927373 -203.90978 
L 485.124665 -208.358922 
L 485.308175 -212.808065 
L 485.466229 -217.257208 
L 485.590967 -221.706351 
L 485.677754 -226.155494 
L 485.724323 -230.604637 
L 485.729931 -235.05378 
L 485.694714 -239.502922 
L 485.619305 -243.952065 
L 485.504733 -248.401208 
L 485.352562 -252.850351 
L 485.165215 -257.299494 
L 484.94644 -261.748637 
L 484.701777 -266.197779 
L 484.438909 -270.646922 
L 484.167676 -275.096065 
L 483.89961 -279.545208 
L 483.646882 -283.994351 
L 483.420727 -288.443494 
L 483.229549 -292.892637 
L 483.077077 -297.341779 
L 482.960962 -301.790922 
L 482.872202 -306.240065 
L 482.7956 -310.689208 
L 482.711292 -315.138351 
L 482.597168 -319.587494 
L 482.431839 -324.036637 
L 482.197766 -328.485779 
L 481.88409 -332.934922 
L 481.488784 -337.384065 
L 481.019781 -341.833208 
L 480.494821 -346.282351 
L 479.939891 -350.731494 
L 479.386336 -355.180637 
L 478.866961 -359.629779 
L 478.411714 -364.078922 
L 478.043722 -368.528065 
L 477.776492 -372.977208 
L 477.612885 -377.426351 
L 477.5461 -381.875494 
L 477.562412 -386.324636 
L 477.644983 -390.773779 
L 477.777781 -395.222922 
L 477.948684 -399.672065 
L 478.151092 -404.121208 
L 478.383865 -408.570351 
L 478.649839 -413.019494 
L 478.953578 -417.468636 
L 479.299124 -421.917779 
L 479.688409 -426.366922 
L 480.120678 -430.816065 
L 480.592922 -435.265208 
L 481.100971 -439.714351 
L 481.640727 -444.163494 
L 482.20906 -448.612636 
L 482.804011 -453.061779 
L 483.424253 -457.510922 
L 484.068001 -461.960065 
L 484.731749 -466.409208 
L 485.409252 -470.858351 
L 486.091109 -475.307494 
L 486.765096 -479.756636 
L 487.417191 -484.205779 
L 488.033078 -488.654922 
L 488.599762 -493.104065 
L 489.106995 -497.553208 
L 489.548224 -502.002351 
L 489.920974 -506.451494 
L 490.226649 -510.900636 
L 491.980288 -510.900636 
L 491.980288 -510.900636 
L 492.285963 -506.451494 
L 492.658713 -502.002351 
L 493.099942 -497.553208 
L 493.607175 -493.104065 
L 494.173859 -488.654922 
L 494.789746 -484.205779 
L 495.441841 -479.756636 
L 496.115828 -475.307494 
L 496.797685 -470.858351 
L 497.475188 -466.409208 
L 498.138936 -461.960065 
L 498.782684 -457.510922 
L 499.402926 -453.061779 
L 499.997877 -448.612636 
L 500.56621 -444.163494 
L 501.105966 -439.714351 
L 501.614015 -435.265208 
L 502.086259 -430.816065 
L 502.518528 -426.366922 
L 502.907813 -421.917779 
L 503.253359 -417.468636 
L 503.557098 -413.019494 
L 503.823072 -408.570351 
L 504.055845 -404.121208 
L 504.258253 -399.672065 
L 504.429156 -395.222922 
L 504.561954 -390.773779 
L 504.644525 -386.324636 
L 504.660837 -381.875494 
L 504.594052 -377.426351 
L 504.430445 -372.977208 
L 504.163215 -368.528065 
L 503.795223 -364.078922 
L 503.339976 -359.629779 
L 502.820601 -355.180637 
L 502.267046 -350.731494 
L 501.712116 -346.282351 
L 501.187156 -341.833208 
L 500.718153 -337.384065 
L 500.322847 -332.934922 
L 500.009171 -328.485779 
L 499.775098 -324.036637 
L 499.609769 -319.587494 
L 499.495645 -315.138351 
L 499.411337 -310.689208 
L 499.334735 -306.240065 
L 499.245975 -301.790922 
L 499.12986 -297.341779 
L 498.977388 -292.892637 
L 498.78621 -288.443494 
L 498.560055 -283.994351 
L 498.307327 -279.545208 
L 498.039261 -275.096065 
L 497.768028 -270.646922 
L 497.50516 -266.197779 
L 497.260497 -261.748637 
L 497.041722 -257.299494 
L 496.854375 -252.850351 
L 496.702204 -248.401208 
L 496.587632 -243.952065 
L 496.512223 -239.502922 
L 496.477006 -235.05378 
L 496.482614 -230.604637 
L 496.529183 -226.155494 
L 496.61597 -221.706351 
L 496.740708 -217.257208 
L 496.898762 -212.808065 
L 497.082272 -208.358922 
L 497.279564 -203.90978 
L 497.475157 -199.460637 
L 497.650652 -195.011494 
L 497.786612 -190.562351 
L 497.865267 -186.113208 
L 497.873618 -181.664065 
L 497.806308 -177.214922 
L 497.667592 -172.76578 
L 497.471931 -168.316637 
L 497.243061 -163.867494 
L 497.01181 -159.418351 
L 496.813259 -154.969208 
L 496.683944 -150.520065 
L 496.659696 -146.070922 
L 496.774265 -141.62178 
L 497.058443 -137.172637 
L 497.53894 -132.723494 
L 498.236146 -128.274351 
L 499.160141 -123.825208 
L 500.304975 -119.376065 
L 501.642088 -114.926923 
L 503.114657 -110.47778 
L 504.635151 -106.028637 
L 506.088291 -101.579494 
L 507.340673 -97.130351 
L 508.256748 -92.681208 
L 508.718885 -88.232065 
L 508.647611 -83.782923 
L 508.017302 -79.33378 
L 506.863216 -74.884637 
L 505.27758 -70.435494 
z
" id="m9b38414c00" style="stroke:#141414;stroke-width:1.5;"/>
    </defs>
    <g clip-path="url(#pa4e3a6c7f9)">
     <use style="fill:#0e5f2f;stroke:#141414;stroke-width:1.5;" x="0" xlink:href="#m9b38414c00" y="540.169"/>
    </g>
   </g>
   <g id="PolyCollection_9">
    <defs>
     <path d="M 577.159948 -69.533364 
L 541.170276 -69.533364 
L 538.398167 -70.389932 
L 537.033608 -71.2465 
L 536.948441 -72.103068 
L 537.58207 -72.959636 
L 538.2538 -73.816205 
L 538.490481 -74.672773 
L 538.184203 -75.529341 
L 537.536131 -76.385909 
L 536.875404 -77.242478 
L 536.479787 -78.099046 
L 536.477898 -78.955614 
L 536.843615 -79.812182 
L 537.449672 -80.66875 
L 538.137949 -81.525319 
L 538.775277 -82.381887 
L 539.281579 -83.238455 
L 539.63293 -84.095023 
L 539.849416 -84.951591 
L 539.976548 -85.80816 
L 540.065711 -86.664728 
L 540.158252 -87.521296 
L 540.276461 -88.377864 
L 540.420465 -89.234432 
L 540.567767 -90.091001 
L 540.676079 -90.947569 
L 540.694788 -91.804137 
L 540.58726 -92.660705 
L 540.356453 -93.517273 
L 540.059694 -94.373842 
L 539.801264 -95.23041 
L 539.702224 -96.086978 
L 539.859984 -96.943546 
L 540.318145 -97.800115 
L 541.062231 -98.656683 
L 542.039223 -99.513251 
L 543.181986 -100.369819 
L 544.420561 -101.226387 
L 545.680859 -102.082956 
L 546.887162 -102.939524 
L 547.979515 -103.796092 
L 548.936229 -104.65266 
L 549.780146 -105.509228 
L 550.559257 -106.365797 
L 551.31532 -107.222365 
L 552.06393 -108.078933 
L 552.797477 -108.935501 
L 553.502387 -109.792069 
L 554.172891 -110.648638 
L 554.810763 -111.505206 
L 555.414726 -112.361774 
L 555.971717 -113.218342 
L 556.459209 -114.074911 
L 556.857484 -114.931479 
L 557.162278 -115.788047 
L 557.388318 -116.644615 
L 557.561836 -117.501183 
L 557.708334 -118.357752 
L 557.844098 -119.21432 
L 557.975528 -120.070888 
L 558.103816 -120.927456 
L 558.229487 -121.784024 
L 558.353356 -122.640593 
L 558.474659 -123.497161 
L 558.589347 -124.353729 
L 558.690648 -125.210297 
L 558.771693 -126.066865 
L 558.828628 -126.923434 
L 558.862616 -127.780002 
L 558.879857 -128.63657 
L 558.889581 -129.493138 
L 558.900766 -130.349706 
L 558.918924 -131.206275 
L 558.944478 -132.062843 
L 558.9736 -132.919411 
L 559.001084 -133.775979 
L 559.023532 -134.632548 
L 559.040958 -135.489116 
L 559.055998 -136.345684 
L 559.071561 -137.202252 
L 559.088658 -138.05882 
L 559.105788 -138.915389 
L 559.120047 -139.771957 
L 559.12901 -140.628525 
L 559.132185 -141.485093 
L 559.131291 -142.341661 
L 559.129361 -143.19823 
L 559.129262 -144.054798 
L 559.132427 -144.911366 
L 559.138466 -145.767934 
L 559.145711 -146.624502 
L 559.152221 -147.481071 
L 559.156546 -148.337639 
L 559.157938 -149.194207 
L 559.156202 -150.050775 
L 559.151589 -150.907344 
L 559.144934 -151.763912 
L 559.137804 -152.62048 
L 559.132271 -153.477048 
L 559.130181 -154.333616 
L 559.200043 -154.333616 
L 559.200043 -154.333616 
L 559.197953 -153.477048 
L 559.19242 -152.62048 
L 559.18529 -151.763912 
L 559.178635 -150.907344 
L 559.174022 -150.050775 
L 559.172286 -149.194207 
L 559.173678 -148.337639 
L 559.178003 -147.481071 
L 559.184513 -146.624502 
L 559.191758 -145.767934 
L 559.197797 -144.911366 
L 559.200962 -144.054798 
L 559.200863 -143.19823 
L 559.198933 -142.341661 
L 559.198039 -141.485093 
L 559.201214 -140.628525 
L 559.210177 -139.771957 
L 559.224436 -138.915389 
L 559.241567 -138.05882 
L 559.258663 -137.202252 
L 559.274226 -136.345684 
L 559.289266 -135.489116 
L 559.306692 -134.632548 
L 559.32914 -133.775979 
L 559.356624 -132.919411 
L 559.385746 -132.062843 
L 559.4113 -131.206275 
L 559.429458 -130.349706 
L 559.440643 -129.493138 
L 559.450367 -128.63657 
L 559.467608 -127.780002 
L 559.501597 -126.923434 
L 559.558531 -126.066865 
L 559.639576 -125.210297 
L 559.740877 -124.353729 
L 559.855565 -123.497161 
L 559.976868 -122.640593 
L 560.100737 -121.784024 
L 560.226408 -120.927456 
L 560.354696 -120.070888 
L 560.486126 -119.21432 
L 560.62189 -118.357752 
L 560.768388 -117.501183 
L 560.941906 -116.644615 
L 561.167946 -115.788047 
L 561.47274 -114.931479 
L 561.871015 -114.074911 
L 562.358507 -113.218342 
L 562.915498 -112.361774 
L 563.519461 -111.505206 
L 564.157333 -110.648638 
L 564.827837 -109.792069 
L 565.532747 -108.935501 
L 566.266294 -108.078933 
L 567.014904 -107.222365 
L 567.770967 -106.365797 
L 568.550078 -105.509228 
L 569.393995 -104.65266 
L 570.350709 -103.796092 
L 571.443062 -102.939524 
L 572.649365 -102.082956 
L 573.909663 -101.226387 
L 575.148238 -100.369819 
L 576.291001 -99.513251 
L 577.267993 -98.656683 
L 578.012079 -97.800115 
L 578.47024 -96.943546 
L 578.628 -96.086978 
L 578.52896 -95.23041 
L 578.270531 -94.373842 
L 577.973771 -93.517273 
L 577.742964 -92.660705 
L 577.635436 -91.804137 
L 577.654145 -90.947569 
L 577.762457 -90.091001 
L 577.909759 -89.234432 
L 578.053763 -88.377864 
L 578.171972 -87.521296 
L 578.264513 -86.664728 
L 578.353676 -85.80816 
L 578.480808 -84.951591 
L 578.697295 -84.095023 
L 579.048645 -83.238455 
L 579.554947 -82.381887 
L 580.192275 -81.525319 
L 580.880552 -80.66875 
L 581.486609 -79.812182 
L 581.852327 -78.955614 
L 581.850437 -78.099046 
L 581.45482 -77.242478 
L 580.794093 -76.385909 
L 580.146022 -75.529341 
L 579.839743 -74.672773 
L 580.076424 -73.816205 
L 580.748154 -72.959636 
L 581.381783 -72.103068 
L 581.296616 -71.2465 
L 579.932057 -70.389932 
L 577.159948 -69.533364 
z
" id="mfe3accc2a9" style="stroke:#141414;stroke-width:1.5;"/>
    </defs>
    <g clip-path="url(#pa4e3a6c7f9)">
     <use style="fill:#083c1d;stroke:#141414;stroke-width:1.5;" x="0" xlink:href="#mfe3accc2a9" y="540.169"/>
    </g>
   </g>
   <g id="PolyCollection_10">
    <defs>
     <path d="M 620.671215 -69.533364 
L 588.407867 -69.533364 
L 586.388441 -70.419547 
L 585.076002 -71.305731 
L 584.562039 -72.191914 
L 584.804714 -73.078098 
L 585.649143 -73.964282 
L 586.872658 -74.850465 
L 588.23817 -75.736649 
L 589.540176 -76.622832 
L 590.634589 -77.509016 
L 591.450751 -78.3952 
L 591.98847 -79.281383 
L 592.304129 -80.167567 
L 592.489541 -81.05375 
L 592.647054 -81.939934 
L 592.865166 -82.826118 
L 593.19963 -83.712301 
L 593.664442 -84.598485 
L 594.234519 -85.484668 
L 594.858235 -86.370852 
L 595.474891 -87.257036 
L 596.031201 -88.143219 
L 596.492169 -89.029403 
L 596.844415 -89.915586 
L 597.092708 -90.80177 
L 597.252265 -91.687954 
L 597.33993 -92.574137 
L 597.367031 -93.460321 
L 597.335805 -94.346504 
L 597.240015 -95.232688 
L 597.069027 -96.118872 
L 596.813539 -97.005055 
L 596.470681 -97.891239 
L 596.046732 -98.777422 
L 595.55685 -99.663606 
L 595.022522 -100.54979 
L 594.468141 -101.435973 
L 593.917978 -102.322157 
L 593.394038 -103.20834 
L 592.914513 -104.094524 
L 592.492314 -104.980708 
L 592.133541 -105.866891 
L 591.836404 -106.753075 
L 591.59151 -107.639258 
L 591.384118 -108.525442 
L 591.198236 -109.411626 
L 591.02153 -110.297809 
L 590.849517 -111.183993 
L 590.687623 -112.070176 
L 590.550377 -112.95636 
L 590.457961 -113.842544 
L 590.431248 -114.728727 
L 590.486925 -115.614911 
L 590.634244 -116.501094 
L 590.874284 -117.387278 
L 591.201659 -118.273462 
L 591.607708 -119.159645 
L 592.083723 -120.045829 
L 592.622957 -120.932012 
L 593.220797 -121.818196 
L 593.873368 -122.70438 
L 594.575426 -123.590563 
L 595.318537 -124.476747 
L 596.090204 -125.36293 
L 596.874149 -126.249114 
L 597.651503 -127.135298 
L 598.402563 -128.021481 
L 599.108772 -128.907665 
L 599.754691 -129.793848 
L 600.329711 -130.680032 
L 600.829208 -131.566216 
L 601.254808 -132.452399 
L 601.613612 -133.338583 
L 601.916498 -134.224766 
L 602.175924 -135.11095 
L 602.403766 -135.997134 
L 602.609626 -136.883317 
L 602.799838 -137.769501 
L 602.977189 -138.655684 
L 603.14129 -139.541868 
L 603.289518 -140.428052 
L 603.418355 -141.314235 
L 603.524843 -142.200419 
L 603.607746 -143.086602 
L 603.668034 -143.972786 
L 603.708564 -144.85897 
L 603.733124 -145.745153 
L 603.745318 -146.631337 
L 603.747784 -147.51752 
L 603.742066 -148.403704 
L 603.729167 -149.289888 
L 603.710515 -150.176071 
L 603.688948 -151.062255 
L 603.669306 -151.948438 
L 603.658289 -152.834622 
L 603.663441 -153.720806 
L 603.691407 -154.606989 
L 603.74595 -155.493173 
L 603.82643 -156.379356 
L 603.927433 -157.26554 
L 605.15165 -157.26554 
L 605.15165 -157.26554 
L 605.252652 -156.379356 
L 605.333132 -155.493173 
L 605.387675 -154.606989 
L 605.415641 -153.720806 
L 605.420793 -152.834622 
L 605.409776 -151.948438 
L 605.390135 -151.062255 
L 605.368567 -150.176071 
L 605.349915 -149.289888 
L 605.337016 -148.403704 
L 605.331298 -147.51752 
L 605.333764 -146.631337 
L 605.345958 -145.745153 
L 605.370518 -144.85897 
L 605.411048 -143.972786 
L 605.471336 -143.086602 
L 605.554239 -142.200419 
L 605.660727 -141.314235 
L 605.789564 -140.428052 
L 605.937792 -139.541868 
L 606.101893 -138.655684 
L 606.279244 -137.769501 
L 606.469456 -136.883317 
L 606.675316 -135.997134 
L 606.903158 -135.11095 
L 607.162584 -134.224766 
L 607.46547 -133.338583 
L 607.824274 -132.452399 
L 608.249874 -131.566216 
L 608.749371 -130.680032 
L 609.324391 -129.793848 
L 609.97031 -128.907665 
L 610.676519 -128.021481 
L 611.427579 -127.135298 
L 612.204934 -126.249114 
L 612.988878 -125.36293 
L 613.760546 -124.476747 
L 614.503656 -123.590563 
L 615.205714 -122.70438 
L 615.858285 -121.818196 
L 616.456125 -120.932012 
L 616.99536 -120.045829 
L 617.471375 -119.159645 
L 617.877423 -118.273462 
L 618.204798 -117.387278 
L 618.444838 -116.501094 
L 618.592157 -115.614911 
L 618.647834 -114.728727 
L 618.621121 -113.842544 
L 618.528706 -112.95636 
L 618.391459 -112.070176 
L 618.229565 -111.183993 
L 618.057552 -110.297809 
L 617.880847 -109.411626 
L 617.694964 -108.525442 
L 617.487572 -107.639258 
L 617.242678 -106.753075 
L 616.945541 -105.866891 
L 616.586768 -104.980708 
L 616.16457 -104.094524 
L 615.685044 -103.20834 
L 615.161104 -102.322157 
L 614.610941 -101.435973 
L 614.05656 -100.54979 
L 613.522232 -99.663606 
L 613.03235 -98.777422 
L 612.608401 -97.891239 
L 612.265543 -97.005055 
L 612.010055 -96.118872 
L 611.839067 -95.232688 
L 611.743277 -94.346504 
L 611.712051 -93.460321 
L 611.739152 -92.574137 
L 611.826817 -91.687954 
L 611.986375 -90.80177 
L 612.234667 -89.915586 
L 612.586913 -89.029403 
L 613.047881 -88.143219 
L 613.604191 -87.257036 
L 614.220847 -86.370852 
L 614.844563 -85.484668 
L 615.41464 -84.598485 
L 615.879452 -83.712301 
L 616.213916 -82.826118 
L 616.432028 -81.939934 
L 616.589541 -81.05375 
L 616.774953 -80.167567 
L 617.090612 -79.281383 
L 617.628331 -78.3952 
L 618.444493 -77.509016 
L 619.538906 -76.622832 
L 620.840913 -75.736649 
L 622.206424 -74.850465 
L 623.42994 -73.964282 
L 624.274369 -73.078098 
L 624.517043 -72.191914 
L 624.00308 -71.305731 
L 622.690642 -70.419547 
L 620.671215 -69.533364 
z
" id="ma2dfb01d44" style="stroke:#141414;stroke-width:1.5;"/>
    </defs>
    <g clip-path="url(#pa4e3a6c7f9)">
     <use style="fill:#0e5f2f;stroke:#141414;stroke-width:1.5;" x="0" xlink:href="#ma2dfb01d44" y="540.169"/>
    </g>
   </g>
   <g id="patch_3">
    <path clip-path="url(#pa4e3a6c7f9)" d="M 128.108036 470.635636 
L 128.108036 470.635636 
L 128.108036 470.635636 
L 128.108036 470.635636 
z
" style="fill:#083c1d;stroke:#141414;stroke-linejoin:miter;stroke-width:0.75;"/>
   </g>
   <g id="patch_4">
    <path clip-path="url(#pa4e3a6c7f9)" d="M 128.108036 470.635636 
L 128.108036 470.635636 
L 128.108036 470.635636 
L 128.108036 470.635636 
z
" style="fill:#0e5f2f;stroke:#141414;stroke-linejoin:miter;stroke-width:0.75;"/>
   </g>
   <g id="line2d_1">
    <path clip-path="url(#pa4e3a6c7f9)" d="M 105.420822 470.635636 
L 105.420822 338.699073 
" style="fill:none;stroke:#141414;stroke-linecap:round;stroke-width:1.5;"/>
   </g>
   <g id="line2d_2">
    <path clip-path="url(#pa4e3a6c7f9)" d="M 105.420822 460.937735 
L 105.420822 395.307752 
" style="fill:none;stroke:#141414;stroke-linecap:round;stroke-width:4.5;"/>
   </g>
   <g id="line2d_3">
    <path clip-path="url(#pa4e3a6c7f9)" d="M 150.795251 470.635636 
L 150.795251 252.320092 
" style="fill:none;stroke:#141414;stroke-linecap:round;stroke-width:1.5;"/>
   </g>
   <g id="line2d_4">
    <path clip-path="url(#pa4e3a6c7f9)" d="M 150.795251 460.035605 
L 150.795251 358.771473 
" style="fill:none;stroke:#141414;stroke-linecap:round;stroke-width:4.5;"/>
   </g>
   <g id="line2d_5">
    <path clip-path="url(#pa4e3a6c7f9)" d="M 218.856894 470.635636 
L 218.856894 362.83106 
" style="fill:none;stroke:#141414;stroke-linecap:round;stroke-width:1.5;"/>
   </g>
   <g id="line2d_6">
    <path clip-path="url(#pa4e3a6c7f9)" d="M 218.856894 466.57605 
L 218.856894 405.11842 
" style="fill:none;stroke:#141414;stroke-linecap:round;stroke-width:4.5;"/>
   </g>
   <g id="line2d_7">
    <path clip-path="url(#pa4e3a6c7f9)" d="M 264.231323 470.635636 
L 264.231323 311.860695 
" style="fill:none;stroke:#141414;stroke-linecap:round;stroke-width:1.5;"/>
   </g>
   <g id="line2d_8">
    <path clip-path="url(#pa4e3a6c7f9)" d="M 264.231323 464.320724 
L 264.231323 371.626831 
" style="fill:none;stroke:#141414;stroke-linecap:round;stroke-width:4.5;"/>
   </g>
   <g id="line2d_9">
    <path clip-path="url(#pa4e3a6c7f9)" d="M 332.292967 470.635636 
L 332.292967 156.694275 
" style="fill:none;stroke:#141414;stroke-linecap:round;stroke-width:1.5;"/>
   </g>
   <g id="line2d_10">
    <path clip-path="url(#pa4e3a6c7f9)" d="M 332.292967 443.571726 
L 332.292967 298.948955 
" style="fill:none;stroke:#141414;stroke-linecap:round;stroke-width:4.5;"/>
   </g>
   <g id="line2d_11">
    <path clip-path="url(#pa4e3a6c7f9)" d="M 377.667396 470.410104 
L 377.667396 64.67698 
" style="fill:none;stroke:#141414;stroke-linecap:round;stroke-width:1.5;"/>
   </g>
   <g id="line2d_12">
    <path clip-path="url(#pa4e3a6c7f9)" d="M 377.667396 437.031281 
L 377.667396 202.702923 
" style="fill:none;stroke:#141414;stroke-linecap:round;stroke-width:4.5;"/>
   </g>
   <g id="line2d_13">
    <path clip-path="url(#pa4e3a6c7f9)" d="M 445.729039 470.635636 
L 445.729039 101.889857 
" style="fill:none;stroke:#141414;stroke-linecap:round;stroke-width:1.5;"/>
   </g>
   <g id="line2d_14">
    <path clip-path="url(#pa4e3a6c7f9)" d="M 445.729039 434.381273 
L 445.729039 272.956324 
" style="fill:none;stroke:#141414;stroke-linecap:round;stroke-width:4.5;"/>
   </g>
   <g id="line2d_15">
    <path clip-path="url(#pa4e3a6c7f9)" d="M 491.103468 469.733506 
L 491.103468 29.268364 
" style="fill:none;stroke:#141414;stroke-linecap:round;stroke-width:1.5;"/>
   </g>
   <g id="line2d_16">
    <path clip-path="url(#pa4e3a6c7f9)" d="M 491.103468 424.401456 
L 491.103468 154.664482 
" style="fill:none;stroke:#141414;stroke-linecap:round;stroke-width:4.5;"/>
   </g>
   <g id="line2d_17">
    <path clip-path="url(#pa4e3a6c7f9)" d="M 559.165112 470.635636 
L 559.165112 414.703555 
" style="fill:none;stroke:#141414;stroke-linecap:round;stroke-width:1.5;"/>
   </g>
   <g id="line2d_18">
    <path clip-path="url(#pa4e3a6c7f9)" d="M 559.165112 463.193061 
L 559.165112 443.571726 
" style="fill:none;stroke:#141414;stroke-linecap:round;stroke-width:4.5;"/>
   </g>
   <g id="line2d_19">
    <path clip-path="url(#pa4e3a6c7f9)" d="M 604.539541 470.635636 
L 604.539541 382.90346 
" style="fill:none;stroke:#141414;stroke-linecap:round;stroke-width:1.5;"/>
   </g>
   <g id="line2d_20">
    <path clip-path="url(#pa4e3a6c7f9)" d="M 604.539541 462.741996 
L 604.539541 425.303586 
" style="fill:none;stroke:#141414;stroke-linecap:round;stroke-width:4.5;"/>
   </g>
   <g id="patch_5">
    <path d="M 71.39 492.704 
L 71.39 7.2 
" style="fill:none;stroke:#262626;stroke-linecap:square;stroke-linejoin:miter;stroke-width:0.8;"/>
   </g>
   <g id="patch_6">
    <path d="M 71.39 492.704 
L 638.570363 492.704 
" style="fill:none;stroke:#262626;stroke-linecap:square;stroke-linejoin:miter;stroke-width:0.8;"/>
   </g>
   <g id="PathCollection_1">
    <defs>
     <path d="M 0 1.5 
C 0.397805 1.5 0.77937 1.341951 1.06066 1.06066 
C 1.341951 0.77937 1.5 0.397805 1.5 0 
C 1.5 -0.397805 1.341951 -0.77937 1.06066 -1.06066 
C 0.77937 -1.341951 0.397805 -1.5 0 -1.5 
C -0.397805 -1.5 -0.77937 -1.341951 -1.06066 -1.06066 
C -1.341951 -0.77937 -1.5 -0.397805 -1.5 0 
C -1.5 0.397805 -1.341951 0.77937 -1.06066 1.06066 
C -0.77937 1.341951 -0.397805 1.5 0 1.5 
z
" id="me79aae6733" style="stroke:#141414;"/>
    </defs>
    <g clip-path="url(#pa4e3a6c7f9)">
     <use style="fill:#ffffff;stroke:#141414;" x="105.420822" xlink:href="#me79aae6733" y="425.980184"/>
    </g>
   </g>
   <g id="PathCollection_2">
    <g clip-path="url(#pa4e3a6c7f9)">
     <use style="fill:#ffffff;stroke:#141414;" x="150.795251" xlink:href="#me79aae6733" y="397.788611"/>
    </g>
   </g>
   <g id="PathCollection_3">
    <g clip-path="url(#pa4e3a6c7f9)">
     <use style="fill:#ffffff;stroke:#141414;" x="218.856894" xlink:href="#me79aae6733" y="435.001488"/>
    </g>
   </g>
   <g id="PathCollection_4">
    <g clip-path="url(#pa4e3a6c7f9)">
     <use style="fill:#ffffff;stroke:#141414;" x="264.231323" xlink:href="#me79aae6733" y="397.337546"/>
    </g>
   </g>
   <g id="PathCollection_5">
    <g clip-path="url(#pa4e3a6c7f9)">
     <use style="fill:#ffffff;stroke:#141414;" x="332.292967" xlink:href="#me79aae6733" y="378.618341"/>
    </g>
   </g>
   <g id="PathCollection_6">
    <g clip-path="url(#pa4e3a6c7f9)">
     <use style="fill:#ffffff;stroke:#141414;" x="377.667396" xlink:href="#me79aae6733" y="283.330823"/>
    </g>
   </g>
   <g id="PathCollection_7">
    <g clip-path="url(#pa4e3a6c7f9)">
     <use style="fill:#ffffff;stroke:#141414;" x="445.729039" xlink:href="#me79aae6733" y="361.703397"/>
    </g>
   </g>
   <g id="PathCollection_8">
    <g clip-path="url(#pa4e3a6c7f9)">
     <use style="fill:#ffffff;stroke:#141414;" x="491.103468" xlink:href="#me79aae6733" y="250.515831"/>
    </g>
   </g>
   <g id="PathCollection_9">
    <g clip-path="url(#pa4e3a6c7f9)">
     <use style="fill:#ffffff;stroke:#141414;" x="559.165112" xlink:href="#me79aae6733" y="453.720692"/>
    </g>
   </g>
   <g id="PathCollection_10">
    <g clip-path="url(#pa4e3a6c7f9)">
     <use style="fill:#ffffff;stroke:#141414;" x="604.539541" xlink:href="#me79aae6733" y="440.865335"/>
    </g>
   </g>
  </g>
  <g id="legend_1">
   <g id="text_17">
    <!-- workday -->
    <defs>
     <path d="M 16.15625 0 
L 0.296875 51.859375 
L 9.375 51.859375 
L 17.625 21.921875 
L 20.703125 10.796875 
Q 20.90625 11.625 23.390625 21.484375 
L 31.640625 51.859375 
L 40.671875 51.859375 
L 48.4375 21.78125 
L 51.03125 11.859375 
L 54 21.875 
L 62.890625 51.859375 
L 71.4375 51.859375 
L 55.21875 0 
L 46.09375 0 
L 37.84375 31.0625 
L 35.84375 39.890625 
L 25.34375 0 
z
" id="ArialMT-119"/>
     <path d="M 6.640625 0 
L 6.640625 71.578125 
L 15.4375 71.578125 
L 15.4375 30.765625 
L 36.234375 51.859375 
L 47.609375 51.859375 
L 27.78125 32.625 
L 49.609375 0 
L 38.765625 0 
L 21.625 26.515625 
L 15.4375 20.5625 
L 15.4375 0 
z
" id="ArialMT-107"/>
     <path d="M 40.4375 6.390625 
Q 35.546875 2.25 31.03125 0.53125 
Q 26.515625 -1.171875 21.34375 -1.171875 
Q 12.796875 -1.171875 8.203125 3 
Q 3.609375 7.171875 3.609375 13.671875 
Q 3.609375 17.484375 5.34375 20.625 
Q 7.078125 23.78125 9.890625 25.6875 
Q 12.703125 27.59375 16.21875 28.5625 
Q 18.796875 29.25 24.03125 29.890625 
Q 34.671875 31.15625 39.703125 32.90625 
Q 39.75 34.71875 39.75 35.203125 
Q 39.75 40.578125 37.25 42.78125 
Q 33.890625 45.75 27.25 45.75 
Q 21.046875 45.75 18.09375 43.578125 
Q 15.140625 41.40625 13.71875 35.890625 
L 5.125 37.0625 
Q 6.296875 42.578125 8.984375 45.96875 
Q 11.671875 49.359375 16.75 51.1875 
Q 21.828125 53.03125 28.515625 53.03125 
Q 35.15625 53.03125 39.296875 51.46875 
Q 43.453125 49.90625 45.40625 47.53125 
Q 47.359375 45.171875 48.140625 41.546875 
Q 48.578125 39.3125 48.578125 33.453125 
L 48.578125 21.734375 
Q 48.578125 9.46875 49.140625 6.21875 
Q 49.703125 2.984375 51.375 0 
L 42.1875 0 
Q 40.828125 2.734375 40.4375 6.390625 
z
M 39.703125 26.03125 
Q 34.90625 24.078125 25.34375 22.703125 
Q 19.921875 21.921875 17.671875 20.9375 
Q 15.4375 19.96875 14.203125 18.09375 
Q 12.984375 16.21875 12.984375 13.921875 
Q 12.984375 10.40625 15.640625 8.0625 
Q 18.3125 5.71875 23.4375 5.71875 
Q 28.515625 5.71875 32.46875 7.9375 
Q 36.421875 10.15625 38.28125 14.015625 
Q 39.703125 17 39.703125 22.796875 
z
" id="ArialMT-97"/>
     <path d="M 6.203125 -19.96875 
L 5.21875 -11.71875 
Q 8.109375 -12.5 10.25 -12.5 
Q 13.1875 -12.5 14.9375 -11.515625 
Q 16.703125 -10.546875 17.828125 -8.796875 
Q 18.65625 -7.46875 20.515625 -2.25 
Q 20.75 -1.515625 21.296875 -0.09375 
L 1.609375 51.859375 
L 11.078125 51.859375 
L 21.875 21.828125 
Q 23.96875 16.109375 25.640625 9.8125 
Q 27.15625 15.875 29.25 21.625 
L 40.328125 51.859375 
L 49.125 51.859375 
L 29.390625 -0.875 
Q 26.21875 -9.421875 24.46875 -12.640625 
Q 22.125 -17 19.09375 -19.015625 
Q 16.0625 -21.046875 11.859375 -21.046875 
Q 9.328125 -21.046875 6.203125 -19.96875 
z
" id="ArialMT-121"/>
    </defs>
    <g style="fill:#262626;" transform="translate(717.143 251.4945)scale(0.16 -0.16)">
     <use xlink:href="#ArialMT-119"/>
     <use x="72.216797" xlink:href="#ArialMT-111"/>
     <use x="127.832031" xlink:href="#ArialMT-114"/>
     <use x="161.132812" xlink:href="#ArialMT-107"/>
     <use x="211.132812" xlink:href="#ArialMT-100"/>
     <use x="266.748047" xlink:href="#ArialMT-97"/>
     <use x="322.363281" xlink:href="#ArialMT-121"/>
    </g>
   </g>
   <g id="patch_7">
    <path d="M 720.08175 274.3145 
L 752.08175 274.3145 
L 752.08175 263.1145 
L 720.08175 263.1145 
z
" style="fill:#083c1d;stroke:#141414;stroke-linejoin:miter;stroke-width:0.75;"/>
   </g>
   <g id="text_18">
    <!-- 0 -->
    <g style="fill:#262626;" transform="translate(764.88175 274.3145)scale(0.16 -0.16)">
     <use xlink:href="#ArialMT-48"/>
    </g>
   </g>
   <g id="patch_8">
    <path d="M 720.08175 296.947 
L 752.08175 296.947 
L 752.08175 285.747 
L 720.08175 285.747 
z
" style="fill:#0e5f2f;stroke:#141414;stroke-linejoin:miter;stroke-width:0.75;"/>
   </g>
   <g id="text_19">
    <!-- 1 -->
    <g style="fill:#262626;" transform="translate(764.88175 296.947)scale(0.16 -0.16)">
     <use xlink:href="#ArialMT-49"/>
    </g>
   </g>
  </g>
 </g>
 <defs>
  <clipPath id="pa4e3a6c7f9">
   <rect height="485.504" width="567.180363" x="71.39" y="7.2"/>
  </clipPath>
 </defs>
</svg>
