<?xml version="1.0" encoding="utf-8" standalone="no"?>
<!DOCTYPE svg PUBLIC "-//W3C//DTD SVG 1.1//EN"
  "http://www.w3.org/Graphics/SVG/1.1/DTD/svg11.dtd">
<!-- Created with matplotlib (https://matplotlib.org/) -->
<svg height="540.169pt" version="1.1" viewBox="0 0 803.5205 540.169" width="803.5205pt" xmlns="http://www.w3.org/2000/svg" xmlns:xlink="http://www.w3.org/1999/xlink">
 <defs>
  <style type="text/css">
*{stroke-linecap:butt;stroke-linejoin:round;white-space:pre;}
  </style>
 </defs>
 <g id="figure_1">
  <g id="patch_1">
   <path d="M 0 540.169 
L 803.5205 540.169 
L 803.5205 0 
L 0 0 
z
" style="fill:#ffffff;"/>
  </g>
  <g id="axes_1">
   <g id="patch_2">
    <path d="M 62.4925 492.704 
L 650.972863 492.704 
L 650.972863 7.2 
L 62.4925 7.2 
z
" style="fill:#ffffff;"/>
   </g>
   <g id="matplotlib.axis_1">
    <g id="xtick_1">
     <g id="text_1">
      <!-- 1040-236-2 -->
      <defs>
       <path d="M 37.25 0 
L 28.46875 0 
L 28.46875 56 
Q 25.296875 52.984375 20.140625 49.953125 
Q 14.984375 46.921875 10.890625 45.40625 
L 10.890625 53.90625 
Q 18.265625 57.375 23.78125 62.296875 
Q 29.296875 67.234375 31.59375 71.875 
L 37.25 71.875 
z
" id="ArialMT-49"/>
       <path d="M 4.15625 35.296875 
Q 4.15625 48 6.765625 55.734375 
Q 9.375 63.484375 14.515625 67.671875 
Q 19.671875 71.875 27.484375 71.875 
Q 33.25 71.875 37.59375 69.546875 
Q 41.9375 67.234375 44.765625 62.859375 
Q 47.609375 58.5 49.21875 52.21875 
Q 50.828125 45.953125 50.828125 35.296875 
Q 50.828125 22.703125 48.234375 14.96875 
Q 45.65625 7.234375 40.5 3 
Q 35.359375 -1.21875 27.484375 -1.21875 
Q 17.140625 -1.21875 11.234375 6.203125 
Q 4.15625 15.140625 4.15625 35.296875 
z
M 13.1875 35.296875 
Q 13.1875 17.671875 17.3125 11.828125 
Q 21.4375 6 27.484375 6 
Q 33.546875 6 37.671875 11.859375 
Q 41.796875 17.71875 41.796875 35.296875 
Q 41.796875 52.984375 37.671875 58.78125 
Q 33.546875 64.59375 27.390625 64.59375 
Q 21.34375 64.59375 17.71875 59.46875 
Q 13.1875 52.9375 13.1875 35.296875 
z
" id="ArialMT-48"/>
       <path d="M 32.328125 0 
L 32.328125 17.140625 
L 1.265625 17.140625 
L 1.265625 25.203125 
L 33.9375 71.578125 
L 41.109375 71.578125 
L 41.109375 25.203125 
L 50.78125 25.203125 
L 50.78125 17.140625 
L 41.109375 17.140625 
L 41.109375 0 
z
M 32.328125 25.203125 
L 32.328125 57.46875 
L 9.90625 25.203125 
z
" id="ArialMT-52"/>
       <path d="M 3.171875 21.484375 
L 3.171875 30.328125 
L 30.171875 30.328125 
L 30.171875 21.484375 
z
" id="ArialMT-45"/>
       <path d="M 50.34375 8.453125 
L 50.34375 0 
L 3.03125 0 
Q 2.9375 3.171875 4.046875 6.109375 
Q 5.859375 10.9375 9.828125 15.625 
Q 13.8125 20.3125 21.34375 26.46875 
Q 33.015625 36.03125 37.109375 41.625 
Q 41.21875 47.21875 41.21875 52.203125 
Q 41.21875 57.421875 37.46875 61 
Q 33.734375 64.59375 27.734375 64.59375 
Q 21.390625 64.59375 17.578125 60.78125 
Q 13.765625 56.984375 13.71875 50.25 
L 4.6875 51.171875 
Q 5.609375 61.28125 11.65625 66.578125 
Q 17.71875 71.875 27.9375 71.875 
Q 38.234375 71.875 44.234375 66.15625 
Q 50.25 60.453125 50.25 52 
Q 50.25 47.703125 48.484375 43.546875 
Q 46.734375 39.40625 42.65625 34.8125 
Q 38.578125 30.21875 29.109375 22.21875 
Q 21.1875 15.578125 18.9375 13.203125 
Q 16.703125 10.84375 15.234375 8.453125 
z
" id="ArialMT-50"/>
       <path d="M 4.203125 18.890625 
L 12.984375 20.0625 
Q 14.5 12.59375 18.140625 9.296875 
Q 21.78125 6 27 6 
Q 33.203125 6 37.46875 10.296875 
Q 41.75 14.59375 41.75 20.953125 
Q 41.75 27 37.796875 30.921875 
Q 33.84375 34.859375 27.734375 34.859375 
Q 25.25 34.859375 21.53125 33.890625 
L 22.515625 41.609375 
Q 23.390625 41.5 23.921875 41.5 
Q 29.546875 41.5 34.03125 44.421875 
Q 38.53125 47.359375 38.53125 53.46875 
Q 38.53125 58.296875 35.25 61.46875 
Q 31.984375 64.65625 26.8125 64.65625 
Q 21.6875 64.65625 18.265625 61.421875 
Q 14.84375 58.203125 13.875 51.765625 
L 5.078125 53.328125 
Q 6.6875 62.15625 12.390625 67.015625 
Q 18.109375 71.875 26.609375 71.875 
Q 32.46875 71.875 37.390625 69.359375 
Q 42.328125 66.84375 44.9375 62.5 
Q 47.5625 58.15625 47.5625 53.265625 
Q 47.5625 48.640625 45.0625 44.828125 
Q 42.578125 41.015625 37.703125 38.765625 
Q 44.046875 37.3125 47.5625 32.6875 
Q 51.078125 28.078125 51.078125 21.140625 
Q 51.078125 11.765625 44.234375 5.25 
Q 37.40625 -1.265625 26.953125 -1.265625 
Q 17.53125 -1.265625 11.296875 4.34375 
Q 5.078125 9.96875 4.203125 18.890625 
z
" id="ArialMT-51"/>
       <path d="M 49.75 54.046875 
L 41.015625 53.375 
Q 39.84375 58.546875 37.703125 60.890625 
Q 34.125 64.65625 28.90625 64.65625 
Q 24.703125 64.65625 21.53125 62.3125 
Q 17.390625 59.28125 14.984375 53.46875 
Q 12.59375 47.65625 12.5 36.921875 
Q 15.671875 41.75 20.265625 44.09375 
Q 24.859375 46.4375 29.890625 46.4375 
Q 38.671875 46.4375 44.84375 39.96875 
Q 51.03125 33.5 51.03125 23.25 
Q 51.03125 16.5 48.125 10.71875 
Q 45.21875 4.9375 40.140625 1.859375 
Q 35.0625 -1.21875 28.609375 -1.21875 
Q 17.625 -1.21875 10.6875 6.859375 
Q 3.765625 14.9375 3.765625 33.5 
Q 3.765625 54.25 11.421875 63.671875 
Q 18.109375 71.875 29.4375 71.875 
Q 37.890625 71.875 43.28125 67.140625 
Q 48.6875 62.40625 49.75 54.046875 
z
M 13.875 23.1875 
Q 13.875 18.65625 15.796875 14.5 
Q 17.71875 10.359375 21.1875 8.171875 
Q 24.65625 6 28.46875 6 
Q 34.03125 6 38.03125 10.484375 
Q 42.046875 14.984375 42.046875 22.703125 
Q 42.046875 30.125 38.078125 34.390625 
Q 34.125 38.671875 28.125 38.671875 
Q 22.171875 38.671875 18.015625 34.390625 
Q 13.875 30.125 13.875 23.1875 
z
" id="ArialMT-54"/>
      </defs>
      <g style="fill:#262626;" transform="translate(119.65506 511.1565)scale(0.16 -0.16)">
       <use xlink:href="#ArialMT-49"/>
       <use x="55.615234" xlink:href="#ArialMT-48"/>
       <use x="111.230469" xlink:href="#ArialMT-52"/>
       <use x="166.845703" xlink:href="#ArialMT-48"/>
       <use x="222.460938" xlink:href="#ArialMT-45"/>
       <use x="255.761719" xlink:href="#ArialMT-50"/>
       <use x="311.376953" xlink:href="#ArialMT-51"/>
       <use x="366.992188" xlink:href="#ArialMT-54"/>
       <use x="422.607422" xlink:href="#ArialMT-45"/>
       <use x="455.908203" xlink:href="#ArialMT-50"/>
      </g>
     </g>
    </g>
    <g id="xtick_2">
     <g id="text_2">
      <!-- 686-1 -->
      <defs>
       <path d="M 17.671875 38.8125 
Q 12.203125 40.828125 9.5625 44.53125 
Q 6.9375 48.25 6.9375 53.421875 
Q 6.9375 61.234375 12.546875 66.546875 
Q 18.171875 71.875 27.484375 71.875 
Q 36.859375 71.875 42.578125 66.421875 
Q 48.296875 60.984375 48.296875 53.171875 
Q 48.296875 48.1875 45.671875 44.5 
Q 43.0625 40.828125 37.75 38.8125 
Q 44.34375 36.671875 47.78125 31.875 
Q 51.21875 27.09375 51.21875 20.453125 
Q 51.21875 11.28125 44.71875 5.03125 
Q 38.234375 -1.21875 27.640625 -1.21875 
Q 17.046875 -1.21875 10.546875 5.046875 
Q 4.046875 11.328125 4.046875 20.703125 
Q 4.046875 27.6875 7.59375 32.390625 
Q 11.140625 37.109375 17.671875 38.8125 
z
M 15.921875 53.71875 
Q 15.921875 48.640625 19.1875 45.40625 
Q 22.46875 42.1875 27.6875 42.1875 
Q 32.765625 42.1875 36.015625 45.375 
Q 39.265625 48.578125 39.265625 53.21875 
Q 39.265625 58.0625 35.90625 61.359375 
Q 32.5625 64.65625 27.59375 64.65625 
Q 22.5625 64.65625 19.234375 61.421875 
Q 15.921875 58.203125 15.921875 53.71875 
z
M 13.09375 20.65625 
Q 13.09375 16.890625 14.875 13.375 
Q 16.65625 9.859375 20.171875 7.921875 
Q 23.6875 6 27.734375 6 
Q 34.03125 6 38.125 10.046875 
Q 42.234375 14.109375 42.234375 20.359375 
Q 42.234375 26.703125 38.015625 30.859375 
Q 33.796875 35.015625 27.4375 35.015625 
Q 21.234375 35.015625 17.15625 30.90625 
Q 13.09375 26.8125 13.09375 20.65625 
z
" id="ArialMT-56"/>
      </defs>
      <g style="fill:#262626;" transform="translate(336.273931 511.1565)scale(0.16 -0.16)">
       <use xlink:href="#ArialMT-54"/>
       <use x="55.615234" xlink:href="#ArialMT-56"/>
       <use x="111.230469" xlink:href="#ArialMT-54"/>
       <use x="166.845703" xlink:href="#ArialMT-45"/>
       <use x="200.146484" xlink:href="#ArialMT-49"/>
      </g>
     </g>
    </g>
    <g id="xtick_3">
     <g id="text_3">
      <!-- 686-2 -->
      <g style="fill:#262626;" transform="translate(532.434052 511.1565)scale(0.16 -0.16)">
       <use xlink:href="#ArialMT-54"/>
       <use x="55.615234" xlink:href="#ArialMT-56"/>
       <use x="111.230469" xlink:href="#ArialMT-54"/>
       <use x="166.845703" xlink:href="#ArialMT-45"/>
       <use x="200.146484" xlink:href="#ArialMT-50"/>
      </g>
     </g>
    </g>
    <g id="text_4">
     <!-- Counter id -->
     <defs>
      <path d="M 58.796875 25.09375 
L 68.265625 22.703125 
Q 65.28125 11.03125 57.546875 4.90625 
Q 49.8125 -1.21875 38.625 -1.21875 
Q 27.046875 -1.21875 19.796875 3.484375 
Q 12.546875 8.203125 8.765625 17.140625 
Q 4.984375 26.078125 4.984375 36.328125 
Q 4.984375 47.515625 9.25 55.828125 
Q 13.53125 64.15625 21.40625 68.46875 
Q 29.296875 72.796875 38.765625 72.796875 
Q 49.515625 72.796875 56.828125 67.328125 
Q 64.15625 61.859375 67.046875 51.953125 
L 57.71875 49.75 
Q 55.21875 57.5625 50.484375 61.125 
Q 45.75 64.703125 38.578125 64.703125 
Q 30.328125 64.703125 24.78125 60.734375 
Q 19.234375 56.78125 16.984375 50.109375 
Q 14.75 43.453125 14.75 36.375 
Q 14.75 27.25 17.40625 20.4375 
Q 20.0625 13.625 25.671875 10.25 
Q 31.296875 6.890625 37.84375 6.890625 
Q 45.796875 6.890625 51.3125 11.46875 
Q 56.84375 16.0625 58.796875 25.09375 
z
" id="ArialMT-67"/>
      <path d="M 3.328125 25.921875 
Q 3.328125 40.328125 11.328125 47.265625 
Q 18.015625 53.03125 27.640625 53.03125 
Q 38.328125 53.03125 45.109375 46.015625 
Q 51.90625 39.015625 51.90625 26.65625 
Q 51.90625 16.65625 48.90625 10.90625 
Q 45.90625 5.171875 40.15625 2 
Q 34.421875 -1.171875 27.640625 -1.171875 
Q 16.75 -1.171875 10.03125 5.8125 
Q 3.328125 12.796875 3.328125 25.921875 
z
M 12.359375 25.921875 
Q 12.359375 15.96875 16.703125 11.015625 
Q 21.046875 6.0625 27.640625 6.0625 
Q 34.1875 6.0625 38.53125 11.03125 
Q 42.875 16.015625 42.875 26.21875 
Q 42.875 35.84375 38.5 40.796875 
Q 34.125 45.75 27.640625 45.75 
Q 21.046875 45.75 16.703125 40.8125 
Q 12.359375 35.890625 12.359375 25.921875 
z
" id="ArialMT-111"/>
      <path d="M 40.578125 0 
L 40.578125 7.625 
Q 34.515625 -1.171875 24.125 -1.171875 
Q 19.53125 -1.171875 15.546875 0.578125 
Q 11.578125 2.34375 9.640625 5 
Q 7.71875 7.671875 6.9375 11.53125 
Q 6.390625 14.109375 6.390625 19.734375 
L 6.390625 51.859375 
L 15.1875 51.859375 
L 15.1875 23.09375 
Q 15.1875 16.21875 15.71875 13.8125 
Q 16.546875 10.359375 19.234375 8.375 
Q 21.921875 6.390625 25.875 6.390625 
Q 29.828125 6.390625 33.296875 8.421875 
Q 36.765625 10.453125 38.203125 13.9375 
Q 39.65625 17.4375 39.65625 24.078125 
L 39.65625 51.859375 
L 48.4375 51.859375 
L 48.4375 0 
z
" id="ArialMT-117"/>
      <path d="M 6.59375 0 
L 6.59375 51.859375 
L 14.5 51.859375 
L 14.5 44.484375 
Q 20.21875 53.03125 31 53.03125 
Q 35.6875 53.03125 39.625 51.34375 
Q 43.5625 49.65625 45.515625 46.921875 
Q 47.46875 44.1875 48.25 40.4375 
Q 48.734375 37.984375 48.734375 31.890625 
L 48.734375 0 
L 39.9375 0 
L 39.9375 31.546875 
Q 39.9375 36.921875 38.90625 39.578125 
Q 37.890625 42.234375 35.28125 43.8125 
Q 32.671875 45.40625 29.15625 45.40625 
Q 23.53125 45.40625 19.453125 41.84375 
Q 15.375 38.28125 15.375 28.328125 
L 15.375 0 
z
" id="ArialMT-110"/>
      <path d="M 25.78125 7.859375 
L 27.046875 0.09375 
Q 23.34375 -0.6875 20.40625 -0.6875 
Q 15.625 -0.6875 12.984375 0.828125 
Q 10.359375 2.34375 9.28125 4.8125 
Q 8.203125 7.28125 8.203125 15.1875 
L 8.203125 45.015625 
L 1.765625 45.015625 
L 1.765625 51.859375 
L 8.203125 51.859375 
L 8.203125 64.703125 
L 16.9375 69.96875 
L 16.9375 51.859375 
L 25.78125 51.859375 
L 25.78125 45.015625 
L 16.9375 45.015625 
L 16.9375 14.703125 
Q 16.9375 10.9375 17.40625 9.859375 
Q 17.875 8.796875 18.921875 8.15625 
Q 19.96875 7.515625 21.921875 7.515625 
Q 23.390625 7.515625 25.78125 7.859375 
z
" id="ArialMT-116"/>
      <path d="M 42.09375 16.703125 
L 51.171875 15.578125 
Q 49.03125 7.625 43.21875 3.21875 
Q 37.40625 -1.171875 28.375 -1.171875 
Q 17 -1.171875 10.328125 5.828125 
Q 3.65625 12.84375 3.65625 25.484375 
Q 3.65625 38.578125 10.390625 45.796875 
Q 17.140625 53.03125 27.875 53.03125 
Q 38.28125 53.03125 44.875 45.953125 
Q 51.46875 38.875 51.46875 26.03125 
Q 51.46875 25.25 51.421875 23.6875 
L 12.75 23.6875 
Q 13.234375 15.140625 17.578125 10.59375 
Q 21.921875 6.0625 28.421875 6.0625 
Q 33.25 6.0625 36.671875 8.59375 
Q 40.09375 11.140625 42.09375 16.703125 
z
M 13.234375 30.90625 
L 42.1875 30.90625 
Q 41.609375 37.453125 38.875 40.71875 
Q 34.671875 45.796875 27.984375 45.796875 
Q 21.921875 45.796875 17.796875 41.75 
Q 13.671875 37.703125 13.234375 30.90625 
z
" id="ArialMT-101"/>
      <path d="M 6.5 0 
L 6.5 51.859375 
L 14.40625 51.859375 
L 14.40625 44 
Q 17.4375 49.515625 20 51.265625 
Q 22.5625 53.03125 25.640625 53.03125 
Q 30.078125 53.03125 34.671875 50.203125 
L 31.640625 42.046875 
Q 28.421875 43.953125 25.203125 43.953125 
Q 22.3125 43.953125 20.015625 42.21875 
Q 17.71875 40.484375 16.75 37.40625 
Q 15.28125 32.71875 15.28125 27.15625 
L 15.28125 0 
z
" id="ArialMT-114"/>
      <path id="ArialMT-32"/>
      <path d="M 6.640625 61.46875 
L 6.640625 71.578125 
L 15.4375 71.578125 
L 15.4375 61.46875 
z
M 6.640625 0 
L 6.640625 51.859375 
L 15.4375 51.859375 
L 15.4375 0 
z
" id="ArialMT-105"/>
      <path d="M 40.234375 0 
L 40.234375 6.546875 
Q 35.296875 -1.171875 25.734375 -1.171875 
Q 19.53125 -1.171875 14.328125 2.25 
Q 9.125 5.671875 6.265625 11.796875 
Q 3.421875 17.921875 3.421875 25.875 
Q 3.421875 33.640625 6 39.96875 
Q 8.59375 46.296875 13.765625 49.65625 
Q 18.953125 53.03125 25.34375 53.03125 
Q 30.03125 53.03125 33.6875 51.046875 
Q 37.359375 49.078125 39.65625 45.90625 
L 39.65625 71.578125 
L 48.390625 71.578125 
L 48.390625 0 
z
M 12.453125 25.875 
Q 12.453125 15.921875 16.640625 10.984375 
Q 20.84375 6.0625 26.5625 6.0625 
Q 32.328125 6.0625 36.34375 10.765625 
Q 40.375 15.484375 40.375 25.140625 
Q 40.375 35.796875 36.265625 40.765625 
Q 32.171875 45.75 26.171875 45.75 
Q 20.3125 45.75 16.375 40.96875 
Q 12.453125 36.1875 12.453125 25.875 
z
" id="ArialMT-100"/>
     </defs>
     <g style="fill:#262626;" transform="translate(319.825181 529.789)scale(0.16 -0.16)">
      <use xlink:href="#ArialMT-67"/>
      <use x="72.216797" xlink:href="#ArialMT-111"/>
      <use x="127.832031" xlink:href="#ArialMT-117"/>
      <use x="183.447266" xlink:href="#ArialMT-110"/>
      <use x="239.0625" xlink:href="#ArialMT-116"/>
      <use x="266.845703" xlink:href="#ArialMT-101"/>
      <use x="322.460938" xlink:href="#ArialMT-114"/>
      <use x="355.761719" xlink:href="#ArialMT-32"/>
      <use x="383.544922" xlink:href="#ArialMT-105"/>
      <use x="405.761719" xlink:href="#ArialMT-100"/>
     </g>
    </g>
   </g>
   <g id="matplotlib.axis_2">
    <g id="ytick_1">
     <g id="text_5">
      <!-- 0 -->
      <g style="fill:#262626;" transform="translate(46.595 476.361886)scale(0.16 -0.16)">
       <use xlink:href="#ArialMT-48"/>
      </g>
     </g>
    </g>
    <g id="ytick_2">
     <g id="text_6">
      <!-- 100 -->
      <g style="fill:#262626;" transform="translate(28.8 404.943234)scale(0.16 -0.16)">
       <use xlink:href="#ArialMT-49"/>
       <use x="55.615234" xlink:href="#ArialMT-48"/>
       <use x="111.230469" xlink:href="#ArialMT-48"/>
      </g>
     </g>
    </g>
    <g id="ytick_3">
     <g id="text_7">
      <!-- 200 -->
      <g style="fill:#262626;" transform="translate(28.8 333.524581)scale(0.16 -0.16)">
       <use xlink:href="#ArialMT-50"/>
       <use x="55.615234" xlink:href="#ArialMT-48"/>
       <use x="111.230469" xlink:href="#ArialMT-48"/>
      </g>
     </g>
    </g>
    <g id="ytick_4">
     <g id="text_8">
      <!-- 300 -->
      <g style="fill:#262626;" transform="translate(28.8 262.105929)scale(0.16 -0.16)">
       <use xlink:href="#ArialMT-51"/>
       <use x="55.615234" xlink:href="#ArialMT-48"/>
       <use x="111.230469" xlink:href="#ArialMT-48"/>
      </g>
     </g>
    </g>
    <g id="ytick_5">
     <g id="text_9">
      <!-- 400 -->
      <g style="fill:#262626;" transform="translate(28.8 190.687276)scale(0.16 -0.16)">
       <use xlink:href="#ArialMT-52"/>
       <use x="55.615234" xlink:href="#ArialMT-48"/>
       <use x="111.230469" xlink:href="#ArialMT-48"/>
      </g>
     </g>
    </g>
    <g id="ytick_6">
     <g id="text_10">
      <!-- 500 -->
      <defs>
       <path d="M 4.15625 18.75 
L 13.375 19.53125 
Q 14.40625 12.796875 18.140625 9.390625 
Q 21.875 6 27.15625 6 
Q 33.5 6 37.890625 10.78125 
Q 42.28125 15.578125 42.28125 23.484375 
Q 42.28125 31 38.0625 35.34375 
Q 33.84375 39.703125 27 39.703125 
Q 22.75 39.703125 19.328125 37.765625 
Q 15.921875 35.84375 13.96875 32.765625 
L 5.71875 33.84375 
L 12.640625 70.609375 
L 48.25 70.609375 
L 48.25 62.203125 
L 19.671875 62.203125 
L 15.828125 42.96875 
Q 22.265625 47.46875 29.34375 47.46875 
Q 38.71875 47.46875 45.15625 40.96875 
Q 51.609375 34.46875 51.609375 24.265625 
Q 51.609375 14.546875 45.953125 7.46875 
Q 39.0625 -1.21875 27.15625 -1.21875 
Q 17.390625 -1.21875 11.203125 4.25 
Q 5.03125 9.71875 4.15625 18.75 
z
" id="ArialMT-53"/>
      </defs>
      <g style="fill:#262626;" transform="translate(28.8 119.268624)scale(0.16 -0.16)">
       <use xlink:href="#ArialMT-53"/>
       <use x="55.615234" xlink:href="#ArialMT-48"/>
       <use x="111.230469" xlink:href="#ArialMT-48"/>
      </g>
     </g>
    </g>
    <g id="ytick_7">
     <g id="text_11">
      <!-- 600 -->
      <g style="fill:#262626;" transform="translate(28.8 47.849971)scale(0.16 -0.16)">
       <use xlink:href="#ArialMT-54"/>
       <use x="55.615234" xlink:href="#ArialMT-48"/>
       <use x="111.230469" xlink:href="#ArialMT-48"/>
      </g>
     </g>
    </g>
    <g id="text_12">
     <!-- Count [$h^{-1}$] -->
     <defs>
      <path d="M 6.78125 -19.875 
L 6.78125 71.578125 
L 26.171875 71.578125 
L 26.171875 64.3125 
L 15.578125 64.3125 
L 15.578125 -12.59375 
L 26.171875 -12.59375 
L 26.171875 -19.875 
z
" id="ArialMT-91"/>
      <path d="M 55.71875 33.015625 
L 49.3125 0 
L 40.28125 0 
L 46.6875 32.671875 
Q 47.125 34.96875 47.359375 36.71875 
Q 47.609375 38.484375 47.609375 39.5 
Q 47.609375 43.609375 45.015625 45.890625 
Q 42.4375 48.1875 37.796875 48.1875 
Q 30.5625 48.1875 25.265625 43.296875 
Q 19.96875 38.421875 18.40625 30.328125 
L 12.5 0 
L 3.515625 0 
L 18.3125 75.984375 
L 27.296875 75.984375 
L 21.484375 46.09375 
Q 24.90625 50.6875 30.21875 53.34375 
Q 35.546875 56 41.40625 56 
Q 48.640625 56 52.609375 52.09375 
Q 56.59375 48.1875 56.59375 41.109375 
Q 56.59375 39.359375 56.375 37.359375 
Q 56.15625 35.359375 55.71875 33.015625 
z
" id="DejaVuSans-Oblique-104"/>
      <path d="M 10.59375 35.5 
L 73.1875 35.5 
L 73.1875 27.203125 
L 10.59375 27.203125 
z
" id="DejaVuSans-8722"/>
      <path d="M 12.40625 8.296875 
L 28.515625 8.296875 
L 28.515625 63.921875 
L 10.984375 60.40625 
L 10.984375 69.390625 
L 28.421875 72.90625 
L 38.28125 72.90625 
L 38.28125 8.296875 
L 54.390625 8.296875 
L 54.390625 0 
L 12.40625 0 
z
" id="DejaVuSans-49"/>
      <path d="M 21.296875 -19.875 
L 1.90625 -19.875 
L 1.90625 -12.59375 
L 12.5 -12.59375 
L 12.5 64.3125 
L 1.90625 64.3125 
L 1.90625 71.578125 
L 21.296875 71.578125 
z
" id="ArialMT-93"/>
     </defs>
     <g style="fill:#262626;" transform="translate(21.6 292.112)rotate(-90)scale(0.16 -0.16)">
      <use transform="translate(0 0.684375)" xlink:href="#ArialMT-67"/>
      <use transform="translate(72.216797 0.684375)" xlink:href="#ArialMT-111"/>
      <use transform="translate(127.832031 0.684375)" xlink:href="#ArialMT-117"/>
      <use transform="translate(183.447266 0.684375)" xlink:href="#ArialMT-110"/>
      <use transform="translate(239.0625 0.684375)" xlink:href="#ArialMT-116"/>
      <use transform="translate(266.845703 0.684375)" xlink:href="#ArialMT-32"/>
      <use transform="translate(294.628906 0.684375)" xlink:href="#ArialMT-91"/>
      <use transform="translate(322.412109 0.684375)" xlink:href="#DejaVuSans-Oblique-104"/>
      <use transform="translate(393.238724 38.965625)scale(0.7)" xlink:href="#DejaVuSans-8722"/>
      <use transform="translate(451.891068 38.965625)scale(0.7)" xlink:href="#DejaVuSans-49"/>
      <use transform="translate(499.161576 0.684375)" xlink:href="#ArialMT-93"/>
     </g>
    </g>
   </g>
   <g id="PolyCollection_1">
    <defs>
     <path d="M 152.290848 -69.533364 
L 90.390225 -69.533364 
L 86.549735 -71.913985 
L 83.777425 -74.294607 
L 82.284173 -76.675229 
L 82.108512 -79.055851 
L 83.119635 -81.436472 
L 85.055627 -83.817094 
L 87.583811 -86.197716 
L 90.365809 -88.578338 
L 93.111618 -90.958959 
L 95.61303 -93.339581 
L 97.753975 -95.720203 
L 99.501483 -98.100825 
L 100.884316 -100.481446 
L 101.967053 -102.862068 
L 102.826053 -105.24269 
L 103.531351 -107.623312 
L 104.136092 -110.003933 
L 104.673034 -112.384555 
L 105.156333 -114.765177 
L 105.586259 -117.145799 
L 105.95461 -119.52642 
L 106.249264 -121.907042 
L 106.457194 -124.287664 
L 106.566145 -126.668286 
L 106.565697 -129.048907 
L 106.448513 -131.429529 
L 106.212155 -133.810151 
L 105.861269 -136.190773 
L 105.409352 -138.571394 
L 104.879145 -140.952016 
L 104.300922 -143.332638 
L 103.708609 -145.71326 
L 103.134509 -148.093881 
L 102.604052 -150.474503 
L 102.132222 -152.855125 
L 101.722862 -155.235747 
L 101.371125 -157.616368 
L 101.068137 -159.99699 
L 100.806115 -162.377612 
L 100.581997 -164.758234 
L 100.398339 -167.138855 
L 100.261456 -169.519477 
L 100.177966 -171.900099 
L 100.151536 -174.280721 
L 100.181364 -176.661342 
L 100.262984 -179.041964 
L 100.390814 -181.422586 
L 100.561119 -183.803208 
L 100.773985 -186.183829 
L 101.033508 -188.564451 
L 101.346314 -190.945073 
L 101.719208 -193.325695 
L 102.157013 -195.706316 
L 102.661355 -198.086938 
L 103.230631 -200.46756 
L 103.860825 -202.848182 
L 104.546617 -205.228803 
L 105.28223 -207.609425 
L 106.061751 -209.990047 
L 106.878955 -212.370669 
L 107.726892 -214.75129 
L 108.597521 -217.131912 
L 109.481622 -219.512534 
L 110.369058 -221.893156 
L 111.249326 -224.273777 
L 112.112275 -226.654399 
L 112.948781 -229.035021 
L 113.751225 -231.415643 
L 114.513618 -233.796264 
L 115.231357 -236.176886 
L 115.900734 -238.557508 
L 116.518433 -240.93813 
L 117.08131 -243.318751 
L 117.586652 -245.699373 
L 118.03287 -248.079995 
L 118.420389 -250.460617 
L 118.752325 -252.841239 
L 119.034606 -255.22186 
L 119.275395 -257.602482 
L 119.483937 -259.983104 
L 119.669167 -262.363726 
L 119.838481 -264.744347 
L 119.996957 -267.124969 
L 120.147181 -269.505591 
L 120.289593 -271.886213 
L 120.423181 -274.266834 
L 120.546284 -276.647456 
L 120.657296 -279.028078 
L 120.755168 -281.4087 
L 120.839642 -283.789321 
L 120.911271 -286.169943 
L 120.971277 -288.550565 
L 121.021337 -290.931187 
L 121.063344 -293.311808 
L 121.099193 -295.69243 
L 121.130591 -298.073052 
L 121.158927 -300.453674 
L 121.185174 -302.834295 
L 121.209854 -305.214917 
L 121.471219 -305.214917 
L 121.471219 -305.214917 
L 121.495899 -302.834295 
L 121.522146 -300.453674 
L 121.550482 -298.073052 
L 121.58188 -295.69243 
L 121.617728 -293.311808 
L 121.659736 -290.931187 
L 121.709796 -288.550565 
L 121.769802 -286.169943 
L 121.84143 -283.789321 
L 121.925904 -281.4087 
L 122.023776 -279.028078 
L 122.134789 -276.647456 
L 122.257891 -274.266834 
L 122.39148 -271.886213 
L 122.533892 -269.505591 
L 122.684116 -267.124969 
L 122.842592 -264.744347 
L 123.011905 -262.363726 
L 123.197136 -259.983104 
L 123.405677 -257.602482 
L 123.646466 -255.22186 
L 123.928747 -252.841239 
L 124.260683 -250.460617 
L 124.648202 -248.079995 
L 125.09442 -245.699373 
L 125.599762 -243.318751 
L 126.16264 -240.93813 
L 126.780339 -238.557508 
L 127.449716 -236.176886 
L 128.167455 -233.796264 
L 128.929847 -231.415643 
L 129.732291 -229.035021 
L 130.568797 -226.654399 
L 131.431746 -224.273777 
L 132.312015 -221.893156 
L 133.199451 -219.512534 
L 134.083552 -217.131912 
L 134.954181 -214.75129 
L 135.802117 -212.370669 
L 136.619322 -209.990047 
L 137.398842 -207.609425 
L 138.134456 -205.228803 
L 138.820248 -202.848182 
L 139.450442 -200.46756 
L 140.019717 -198.086938 
L 140.52406 -195.706316 
L 140.961864 -193.325695 
L 141.334758 -190.945073 
L 141.647565 -188.564451 
L 141.907088 -186.183829 
L 142.119954 -183.803208 
L 142.290259 -181.422586 
L 142.418089 -179.041964 
L 142.499709 -176.661342 
L 142.529537 -174.280721 
L 142.503107 -171.900099 
L 142.419616 -169.519477 
L 142.282733 -167.138855 
L 142.099076 -164.758234 
L 141.874957 -162.377612 
L 141.612936 -159.99699 
L 141.309948 -157.616368 
L 140.95821 -155.235747 
L 140.54885 -152.855125 
L 140.07702 -150.474503 
L 139.546564 -148.093881 
L 138.972464 -145.71326 
L 138.380151 -143.332638 
L 137.801927 -140.952016 
L 137.27172 -138.571394 
L 136.819803 -136.190773 
L 136.468917 -133.810151 
L 136.23256 -131.429529 
L 136.115376 -129.048907 
L 136.114928 -126.668286 
L 136.223878 -124.287664 
L 136.431808 -121.907042 
L 136.726462 -119.52642 
L 137.094813 -117.145799 
L 137.524739 -114.765177 
L 138.008039 -112.384555 
L 138.54498 -110.003933 
L 139.149721 -107.623312 
L 139.855019 -105.24269 
L 140.71402 -102.862068 
L 141.796757 -100.481446 
L 143.179589 -98.100825 
L 144.927097 -95.720203 
L 147.068043 -93.339581 
L 149.569454 -90.958959 
L 152.315264 -88.578338 
L 155.097262 -86.197716 
L 157.625446 -83.817094 
L 159.561437 -81.436472 
L 160.57256 -79.055851 
L 160.396899 -76.675229 
L 158.903648 -74.294607 
L 156.131338 -71.913985 
L 152.290848 -69.533364 
z
" id="m46e34ca785" style="stroke:#141414;stroke-width:1.5;"/>
    </defs>
    <g clip-path="url(#p11e091e52b)">
     <use style="fill:#083c1d;stroke:#141414;stroke-width:1.5;" x="0" xlink:href="#m46e34ca785" y="540.169"/>
    </g>
   </g>
   <g id="PolyCollection_2">
    <defs>
     <path d="M 224.849821 -69.533364 
L 174.759348 -69.533364 
L 172.036051 -73.991619 
L 171.294441 -78.449874 
L 172.492944 -82.908129 
L 175.160696 -87.366385 
L 178.613657 -91.82464 
L 182.192051 -96.282895 
L 185.415666 -100.741151 
L 188.02888 -105.199406 
L 189.966602 -109.657661 
L 191.287741 -114.115916 
L 192.109399 -118.574172 
L 192.557728 -123.032427 
L 192.74032 -127.490682 
L 192.738089 -131.948938 
L 192.609329 -136.407193 
L 192.396489 -140.865448 
L 192.128745 -145.323703 
L 191.819206 -149.781959 
L 191.460635 -154.240214 
L 191.024839 -158.698469 
L 190.468477 -163.156725 
L 189.744109 -167.61498 
L 188.812997 -172.073235 
L 187.656458 -176.53149 
L 186.284506 -180.989746 
L 184.741632 -185.448001 
L 183.108693 -189.906256 
L 181.497942 -194.364511 
L 180.03823 -198.822767 
L 178.851237 -203.281022 
L 178.025831 -207.739277 
L 177.601333 -212.197533 
L 177.567662 -216.655788 
L 177.8818 -221.114043 
L 178.491488 -225.572298 
L 179.354302 -230.030554 
L 180.444372 -234.488809 
L 181.746469 -238.947064 
L 183.243109 -243.40532 
L 184.902247 -247.863575 
L 186.671263 -252.32183 
L 188.479415 -256.780085 
L 190.247489 -261.238341 
L 191.901045 -265.696596 
L 193.38268 -270.154851 
L 194.659257 -274.613107 
L 195.722223 -279.071362 
L 196.582116 -283.529617 
L 197.260608 -287.987872 
L 197.78357 -292.446128 
L 198.17685 -296.904383 
L 198.464476 -301.362638 
L 198.667986 -305.820893 
L 198.805842 -310.279149 
L 198.892589 -314.737404 
L 198.938012 -319.195659 
L 198.946853 -323.653915 
L 198.919745 -328.11217 
L 198.855606 -332.570425 
L 198.754943 -337.02868 
L 198.622686 -341.486936 
L 198.469091 -345.945191 
L 198.308202 -350.403446 
L 198.1547 -354.861702 
L 198.020873 -359.319957 
L 197.915091 -363.778212 
L 197.842104 -368.236467 
L 197.804251 -372.694723 
L 197.802294 -377.152978 
L 197.835179 -381.611233 
L 197.899119 -386.069489 
L 197.987203 -390.527744 
L 198.090377 -394.985999 
L 198.199607 -399.444254 
L 198.308024 -403.90251 
L 198.411918 -408.360765 
L 198.510297 -412.81902 
L 198.603691 -417.277275 
L 198.693075 -421.735531 
L 198.779297 -426.193786 
L 198.862829 -430.652041 
L 198.943499 -435.110297 
L 199.020105 -439.568552 
L 199.090181 -444.026807 
L 199.150246 -448.485062 
L 199.196612 -452.943318 
L 199.226548 -457.401573 
L 199.239374 -461.859828 
L 199.237147 -466.318084 
L 199.224708 -470.776339 
L 199.209097 -475.234594 
L 199.198462 -479.692849 
L 199.200626 -484.151105 
L 199.221484 -488.60936 
L 199.263568 -493.067615 
L 199.325263 -497.525871 
L 199.401091 -501.984126 
L 199.483124 -506.442381 
L 199.563016 -510.900636 
L 200.046153 -510.900636 
L 200.046153 -510.900636 
L 200.126045 -506.442381 
L 200.208078 -501.984126 
L 200.283907 -497.525871 
L 200.345601 -493.067615 
L 200.387686 -488.60936 
L 200.408543 -484.151105 
L 200.410707 -479.692849 
L 200.400073 -475.234594 
L 200.384462 -470.776339 
L 200.372022 -466.318084 
L 200.369796 -461.859828 
L 200.382622 -457.401573 
L 200.412557 -452.943318 
L 200.458924 -448.485062 
L 200.518988 -444.026807 
L 200.589065 -439.568552 
L 200.66567 -435.110297 
L 200.746341 -430.652041 
L 200.829873 -426.193786 
L 200.916094 -421.735531 
L 201.005478 -417.277275 
L 201.098873 -412.81902 
L 201.197251 -408.360765 
L 201.301145 -403.90251 
L 201.409563 -399.444254 
L 201.518792 -394.985999 
L 201.621966 -390.527744 
L 201.71005 -386.069489 
L 201.773991 -381.611233 
L 201.806875 -377.152978 
L 201.804919 -372.694723 
L 201.767065 -368.236467 
L 201.694078 -363.778212 
L 201.588296 -359.319957 
L 201.454469 -354.861702 
L 201.300968 -350.403446 
L 201.140078 -345.945191 
L 200.986483 -341.486936 
L 200.854226 -337.02868 
L 200.753563 -332.570425 
L 200.689424 -328.11217 
L 200.662316 -323.653915 
L 200.671157 -319.195659 
L 200.71658 -314.737404 
L 200.803327 -310.279149 
L 200.941183 -305.820893 
L 201.144693 -301.362638 
L 201.432319 -296.904383 
L 201.825599 -292.446128 
L 202.348561 -287.987872 
L 203.027054 -283.529617 
L 203.886946 -279.071362 
L 204.949912 -274.613107 
L 206.226489 -270.154851 
L 207.708124 -265.696596 
L 209.36168 -261.238341 
L 211.129754 -256.780085 
L 212.937906 -252.32183 
L 214.706922 -247.863575 
L 216.36606 -243.40532 
L 217.862701 -238.947064 
L 219.164797 -234.488809 
L 220.254868 -230.030554 
L 221.117681 -225.572298 
L 221.727369 -221.114043 
L 222.041507 -216.655788 
L 222.007837 -212.197533 
L 221.583339 -207.739277 
L 220.757933 -203.281022 
L 219.57094 -198.822767 
L 218.111227 -194.364511 
L 216.500476 -189.906256 
L 214.867537 -185.448001 
L 213.324664 -180.989746 
L 211.952712 -176.53149 
L 210.796172 -172.073235 
L 209.86506 -167.61498 
L 209.140693 -163.156725 
L 208.58433 -158.698469 
L 208.148534 -154.240214 
L 207.789963 -149.781959 
L 207.480425 -145.323703 
L 207.21268 -140.865448 
L 206.99984 -136.407193 
L 206.87108 -131.948938 
L 206.868849 -127.490682 
L 207.051442 -123.032427 
L 207.49977 -118.574172 
L 208.321428 -114.115916 
L 209.642567 -109.657661 
L 211.58029 -105.199406 
L 214.193503 -100.741151 
L 217.417119 -96.282895 
L 220.995513 -91.82464 
L 224.448474 -87.366385 
L 227.116226 -82.908129 
L 228.314728 -78.449874 
L 227.573118 -73.991619 
L 224.849821 -69.533364 
z
" id="m2b46fa6bb8" style="stroke:#141414;stroke-width:1.5;"/>
    </defs>
    <g clip-path="url(#p11e091e52b)">
     <use style="fill:#0e5f2f;stroke:#141414;stroke-width:1.5;" x="0" xlink:href="#m2b46fa6bb8" y="540.169"/>
    </g>
   </g>
   <g id="PolyCollection_3">
    <defs>
     <path d="M 350.034969 -69.533364 
L 284.966345 -69.533364 
L 281.572072 -73.731915 
L 279.296844 -77.930466 
L 278.268633 -82.129017 
L 278.450992 -86.327568 
L 279.662675 -90.526119 
L 281.624497 -94.72467 
L 284.018239 -98.923221 
L 286.541764 -103.121772 
L 288.948972 -107.320323 
L 291.070034 -111.518875 
L 292.813469 -115.717426 
L 294.155373 -119.915977 
L 295.122074 -124.114528 
L 295.771527 -128.313079 
L 296.176966 -132.51163 
L 296.414463 -136.710181 
L 296.554612 -140.908732 
L 296.657654 -145.107283 
L 296.771019 -149.305834 
L 296.928344 -153.504385 
L 297.149459 -157.702937 
L 297.441207 -161.901488 
L 297.79924 -166.100039 
L 298.210816 -170.29859 
L 298.658335 -174.497141 
L 299.123055 -178.695692 
L 299.588235 -182.894243 
L 300.041182 -187.092794 
L 300.47398 -191.291345 
L 300.8831 -195.489896 
L 301.268365 -199.688447 
L 301.631742 -203.886998 
L 301.97637 -208.08555 
L 302.305978 -212.284101 
L 302.62467 -216.482652 
L 302.936917 -220.681203 
L 303.247536 -224.879754 
L 303.561478 -229.078305 
L 303.883367 -233.276856 
L 304.216898 -237.475407 
L 304.564295 -241.673958 
L 304.926078 -245.872509 
L 305.301252 -250.07106 
L 305.687873 -254.269612 
L 306.083737 -258.468163 
L 306.486873 -262.666714 
L 306.895547 -266.865265 
L 307.307718 -271.063816 
L 307.720161 -275.262367 
L 308.12769 -279.460918 
L 308.522998 -283.659469 
L 308.897417 -287.85802 
L 309.242519 -292.056571 
L 309.552083 -296.255122 
L 309.8237 -300.453674 
L 310.059381 -304.652225 
L 310.264909 -308.850776 
L 310.448153 -313.049327 
L 310.616987 -317.247878 
L 310.777559 -321.446429 
L 310.93348 -325.64498 
L 311.086066 -329.843531 
L 311.235373 -334.042082 
L 311.381468 -338.240633 
L 311.525429 -342.439184 
L 311.669726 -346.637736 
L 311.818007 -350.836287 
L 311.974529 -355.034838 
L 312.143524 -359.233389 
L 312.328727 -363.43194 
L 312.533078 -367.630491 
L 312.758501 -371.829042 
L 313.005658 -376.027593 
L 313.273651 -380.226144 
L 313.559814 -384.424695 
L 313.859727 -388.623246 
L 314.167555 -392.821797 
L 314.476658 -397.020349 
L 314.780309 -401.2189 
L 315.072305 -405.417451 
L 315.347335 -409.616002 
L 315.601098 -413.814553 
L 315.83027 -418.013104 
L 316.03249 -422.211655 
L 316.206457 -426.410206 
L 316.352143 -430.608757 
L 316.471034 -434.807308 
L 316.566205 -439.005859 
L 316.642129 -443.204411 
L 316.704172 -447.402962 
L 316.757886 -451.601513 
L 316.808262 -455.800064 
L 316.859149 -459.998615 
L 316.912931 -464.197166 
L 316.970502 -468.395717 
L 317.031468 -472.594268 
L 317.094481 -476.792819 
L 317.157602 -480.99137 
L 317.218666 -485.189921 
L 317.782649 -485.189921 
L 317.782649 -485.189921 
L 317.843712 -480.99137 
L 317.906834 -476.792819 
L 317.969846 -472.594268 
L 318.030813 -468.395717 
L 318.088384 -464.197166 
L 318.142166 -459.998615 
L 318.193052 -455.800064 
L 318.243429 -451.601513 
L 318.297142 -447.402962 
L 318.359186 -443.204411 
L 318.435109 -439.005859 
L 318.530281 -434.807308 
L 318.649171 -430.608757 
L 318.794858 -426.410206 
L 318.968824 -422.211655 
L 319.171045 -418.013104 
L 319.400217 -413.814553 
L 319.653979 -409.616002 
L 319.929009 -405.417451 
L 320.221005 -401.2189 
L 320.524657 -397.020349 
L 320.83376 -392.821797 
L 321.141587 -388.623246 
L 321.4415 -384.424695 
L 321.727663 -380.226144 
L 321.995656 -376.027593 
L 322.242813 -371.829042 
L 322.468237 -367.630491 
L 322.672587 -363.43194 
L 322.85779 -359.233389 
L 323.026785 -355.034838 
L 323.183307 -350.836287 
L 323.331589 -346.637736 
L 323.475885 -342.439184 
L 323.619846 -338.240633 
L 323.765942 -334.042082 
L 323.915248 -329.843531 
L 324.067835 -325.64498 
L 324.223756 -321.446429 
L 324.384328 -317.247878 
L 324.553161 -313.049327 
L 324.736405 -308.850776 
L 324.941934 -304.652225 
L 325.177615 -300.453674 
L 325.449231 -296.255122 
L 325.758796 -292.056571 
L 326.103898 -287.85802 
L 326.478317 -283.659469 
L 326.873625 -279.460918 
L 327.281154 -275.262367 
L 327.693596 -271.063816 
L 328.105768 -266.865265 
L 328.514441 -262.666714 
L 328.917577 -258.468163 
L 329.313441 -254.269612 
L 329.700062 -250.07106 
L 330.075236 -245.872509 
L 330.437019 -241.673958 
L 330.784416 -237.475407 
L 331.117947 -233.276856 
L 331.439836 -229.078305 
L 331.753778 -224.879754 
L 332.064397 -220.681203 
L 332.376644 -216.482652 
L 332.695336 -212.284101 
L 333.024944 -208.08555 
L 333.369573 -203.886998 
L 333.732949 -199.688447 
L 334.118214 -195.489896 
L 334.527335 -191.291345 
L 334.960132 -187.092794 
L 335.41308 -182.894243 
L 335.87826 -178.695692 
L 336.342979 -174.497141 
L 336.790499 -170.29859 
L 337.202074 -166.100039 
L 337.560108 -161.901488 
L 337.851855 -157.702937 
L 338.07297 -153.504385 
L 338.230296 -149.305834 
L 338.343661 -145.107283 
L 338.446703 -140.908732 
L 338.586851 -136.710181 
L 338.824348 -132.51163 
L 339.229788 -128.313079 
L 339.879241 -124.114528 
L 340.845942 -119.915977 
L 342.187845 -115.717426 
L 343.93128 -111.518875 
L 346.052342 -107.320323 
L 348.459551 -103.121772 
L 350.983075 -98.923221 
L 353.376817 -94.72467 
L 355.338639 -90.526119 
L 356.550323 -86.327568 
L 356.732681 -82.129017 
L 355.704471 -77.930466 
L 353.429243 -73.731915 
L 350.034969 -69.533364 
z
" id="m7f3792e835" style="stroke:#141414;stroke-width:1.5;"/>
    </defs>
    <g clip-path="url(#p11e091e52b)">
     <use style="fill:#083c1d;stroke:#141414;stroke-width:1.5;" x="0" xlink:href="#m7f3792e835" y="540.169"/>
    </g>
   </g>
   <g id="PolyCollection_4">
    <defs>
     <path d="M 429.02746 -69.533364 
L 362.901952 -69.533364 
L 360.409149 -73.703059 
L 359.677102 -77.872754 
L 360.696059 -82.042449 
L 363.161717 -86.212144 
L 366.566834 -90.381839 
L 370.335408 -94.551534 
L 373.951536 -98.721229 
L 377.045725 -102.890924 
L 379.424807 -107.060619 
L 381.054278 -111.230314 
L 382.014178 -115.400009 
L 382.449509 -119.569704 
L 382.528395 -123.7394 
L 382.412336 -127.909095 
L 382.237356 -132.07879 
L 382.103504 -136.248485 
L 382.071145 -140.41818 
L 382.163504 -144.587875 
L 382.374682 -148.75757 
L 382.681034 -152.927265 
L 383.052602 -157.09696 
L 383.461199 -161.266655 
L 383.883212 -165.43635 
L 384.297515 -169.606045 
L 384.680934 -173.77574 
L 385.004559 -177.945435 
L 385.233435 -182.11513 
L 385.330361 -186.284826 
L 385.262575 -190.454521 
L 385.00883 -194.624216 
L 384.564343 -198.793911 
L 383.94207 -202.963606 
L 383.170238 -207.133301 
L 382.287392 -211.302996 
L 381.336821 -215.472691 
L 380.361995 -219.642386 
L 379.403822 -223.812081 
L 378.499561 -227.981776 
L 377.682595 -232.151471 
L 376.982197 -236.321166 
L 376.422783 -240.490861 
L 376.022636 -244.660556 
L 375.792478 -248.830252 
L 375.734269 -252.999947 
L 375.84051 -257.169642 
L 376.094149 -261.339337 
L 376.469115 -265.509032 
L 376.931592 -269.678727 
L 377.442161 -273.848422 
L 377.958944 -278.018117 
L 378.441691 -282.187812 
L 378.856535 -286.357507 
L 379.180794 -290.527202 
L 379.40698 -294.696897 
L 379.544974 -298.866592 
L 379.621521 -303.036287 
L 379.67666 -307.205982 
L 379.757496 -311.375678 
L 379.91046 -315.545373 
L 380.17366 -319.715068 
L 380.570892 -323.884763 
L 381.108468 -328.054458 
L 381.775338 -332.224153 
L 382.546305 -336.393848 
L 383.387443 -340.563543 
L 384.262443 -344.733238 
L 385.138438 -348.902933 
L 385.990157 -353.072628 
L 386.801815 -357.242323 
L 387.566792 -361.412018 
L 388.285698 -365.581713 
L 388.963628 -369.751409 
L 389.607382 -373.921104 
L 390.223194 -378.090799 
L 390.815234 -382.260494 
L 391.384919 -386.430189 
L 391.930932 -390.599884 
L 392.449747 -394.769579 
L 392.936449 -398.939274 
L 393.385685 -403.108969 
L 393.792581 -407.278664 
L 394.153546 -411.448359 
L 394.466888 -415.618054 
L 394.733177 -419.787749 
L 394.955277 -423.957444 
L 395.138007 -428.127139 
L 395.287445 -432.296835 
L 395.410004 -436.46653 
L 395.511515 -440.636225 
L 395.596553 -444.80592 
L 395.668203 -448.975615 
L 395.728259 -453.14531 
L 395.777731 -457.315005 
L 395.817412 -461.4847 
L 395.84831 -465.654395 
L 395.871803 -469.82409 
L 395.889551 -473.993785 
L 395.903244 -478.16348 
L 395.914329 -482.333175 
L 396.015082 -482.333175 
L 396.015082 -482.333175 
L 396.026167 -478.16348 
L 396.03986 -473.993785 
L 396.057609 -469.82409 
L 396.081102 -465.654395 
L 396.111999 -461.4847 
L 396.15168 -457.315005 
L 396.201152 -453.14531 
L 396.261208 -448.975615 
L 396.332858 -444.80592 
L 396.417896 -440.636225 
L 396.519407 -436.46653 
L 396.641966 -432.296835 
L 396.791404 -428.127139 
L 396.974134 -423.957444 
L 397.196234 -419.787749 
L 397.462523 -415.618054 
L 397.775865 -411.448359 
L 398.13683 -407.278664 
L 398.543726 -403.108969 
L 398.992962 -398.939274 
L 399.479665 -394.769579 
L 399.998479 -390.599884 
L 400.544492 -386.430189 
L 401.114177 -382.260494 
L 401.706217 -378.090799 
L 402.322029 -373.921104 
L 402.965783 -369.751409 
L 403.643713 -365.581713 
L 404.362619 -361.412018 
L 405.127597 -357.242323 
L 405.939254 -353.072628 
L 406.790973 -348.902933 
L 407.666968 -344.733238 
L 408.541968 -340.563543 
L 409.383107 -336.393848 
L 410.154073 -332.224153 
L 410.820943 -328.054458 
L 411.358519 -323.884763 
L 411.755751 -319.715068 
L 412.018951 -315.545373 
L 412.171915 -311.375678 
L 412.252751 -307.205982 
L 412.30789 -303.036287 
L 412.384437 -298.866592 
L 412.522431 -294.696897 
L 412.748617 -290.527202 
L 413.072876 -286.357507 
L 413.48772 -282.187812 
L 413.970467 -278.018117 
L 414.48725 -273.848422 
L 414.99782 -269.678727 
L 415.460297 -265.509032 
L 415.835263 -261.339337 
L 416.088901 -257.169642 
L 416.195142 -252.999947 
L 416.136933 -248.830252 
L 415.906775 -244.660556 
L 415.506628 -240.490861 
L 414.947214 -236.321166 
L 414.246817 -232.151471 
L 413.42985 -227.981776 
L 412.525589 -223.812081 
L 411.567416 -219.642386 
L 410.59259 -215.472691 
L 409.642019 -211.302996 
L 408.759173 -207.133301 
L 407.987341 -202.963606 
L 407.365068 -198.793911 
L 406.920582 -194.624216 
L 406.666836 -190.454521 
L 406.59905 -186.284826 
L 406.695977 -182.11513 
L 406.924852 -177.945435 
L 407.248477 -173.77574 
L 407.631896 -169.606045 
L 408.046199 -165.43635 
L 408.468212 -161.266655 
L 408.876809 -157.09696 
L 409.248377 -152.927265 
L 409.554729 -148.75757 
L 409.765907 -144.587875 
L 409.858266 -140.41818 
L 409.825907 -136.248485 
L 409.692055 -132.07879 
L 409.517076 -127.909095 
L 409.401016 -123.7394 
L 409.479902 -119.569704 
L 409.915233 -115.400009 
L 410.875134 -111.230314 
L 412.504604 -107.060619 
L 414.883686 -102.890924 
L 417.977875 -98.721229 
L 421.594003 -94.551534 
L 425.362578 -90.381839 
L 428.767695 -86.212144 
L 431.233352 -82.042449 
L 432.25231 -77.872754 
L 431.520263 -73.703059 
L 429.02746 -69.533364 
z
" id="m40eda3a94e" style="stroke:#141414;stroke-width:1.5;"/>
    </defs>
    <g clip-path="url(#p11e091e52b)">
     <use style="fill:#0e5f2f;stroke:#141414;stroke-width:1.5;" x="0" xlink:href="#m40eda3a94e" y="540.169"/>
    </g>
   </g>
   <g id="PolyCollection_5">
    <defs>
     <path d="M 546.409708 -69.533364 
L 480.911848 -69.533364 
L 477.471645 -73.760771 
L 475.261043 -77.988178 
L 474.428754 -82.215585 
L 474.934751 -86.442992 
L 476.569293 -90.670399 
L 479.005351 -94.897806 
L 481.867328 -99.125213 
L 484.797279 -103.352621 
L 487.504438 -107.580028 
L 489.791543 -111.807435 
L 491.558798 -116.034842 
L 492.791094 -120.262249 
L 493.535851 -124.489656 
L 493.878332 -128.717063 
L 493.91954 -132.94447 
L 493.759699 -137.171877 
L 493.48831 -141.399285 
L 493.180044 -145.626692 
L 492.894559 -149.854099 
L 492.677906 -154.081506 
L 492.563589 -158.308913 
L 492.572374 -162.53632 
L 492.711241 -166.763727 
L 492.97274 -170.991134 
L 493.336233 -175.218541 
L 493.771763 -179.445949 
L 494.246184 -183.673356 
L 494.73001 -187.900763 
L 495.202974 -192.12817 
L 495.656633 -196.355577 
L 496.09339 -200.582984 
L 496.522636 -204.810391 
L 496.955568 -209.037798 
L 497.400553 -213.265205 
L 497.860354 -217.492612 
L 498.331669 -221.72002 
L 498.806542 -225.947427 
L 499.274701 -230.174834 
L 499.72587 -234.402241 
L 500.151453 -238.629648 
L 500.545474 -242.857055 
L 500.905011 -247.084462 
L 501.230402 -251.311869 
L 501.525407 -255.539276 
L 501.797177 -259.766684 
L 502.055796 -263.994091 
L 502.313077 -268.221498 
L 502.58059 -272.448905 
L 502.86718 -276.676312 
L 503.176577 -280.903719 
L 503.505867 -285.131126 
L 503.845477 -289.358533 
L 504.180972 -293.58594 
L 504.4964 -297.813348 
L 504.778407 -302.040755 
L 505.020008 -306.268162 
L 505.222933 -310.495569 
L 505.397853 -314.722976 
L 505.562358 -318.950383 
L 505.737235 -323.17779 
L 505.941984 -327.405197 
L 506.190745 -331.632604 
L 506.489607 -335.860012 
L 506.835891 -340.087419 
L 507.219458 -344.314826 
L 507.625525 -348.542233 
L 508.038125 -352.76964 
L 508.443231 -356.997047 
L 508.830768 -361.224454 
L 509.195221 -365.451861 
L 509.534993 -369.679268 
L 509.851053 -373.906676 
L 510.145473 -378.134083 
L 510.420327 -382.36149 
L 510.677125 -386.588897 
L 510.916749 -390.816304 
L 511.139704 -395.043711 
L 511.346498 -399.271118 
L 511.537982 -403.498525 
L 511.715553 -407.725932 
L 511.881137 -411.95334 
L 512.036962 -416.180747 
L 512.185144 -420.408154 
L 512.32722 -424.635561 
L 512.463744 -428.862968 
L 512.594085 -433.090375 
L 512.716487 -437.317782 
L 512.828411 -441.545189 
L 512.92709 -445.772596 
L 513.010222 -450.000004 
L 513.076653 -454.227411 
L 513.126911 -458.454818 
L 513.163422 -462.682225 
L 513.1903 -466.909632 
L 513.212697 -471.137039 
L 513.235816 -475.364446 
L 513.263846 -479.591853 
L 513.29912 -483.81926 
L 513.341745 -488.046668 
L 513.979812 -488.046668 
L 513.979812 -488.046668 
L 514.022436 -483.81926 
L 514.05771 -479.591853 
L 514.08574 -475.364446 
L 514.108859 -471.137039 
L 514.131256 -466.909632 
L 514.158135 -462.682225 
L 514.194645 -458.454818 
L 514.244903 -454.227411 
L 514.311335 -450.000004 
L 514.394467 -445.772596 
L 514.493146 -441.545189 
L 514.605069 -437.317782 
L 514.727472 -433.090375 
L 514.857812 -428.862968 
L 514.994336 -424.635561 
L 515.136412 -420.408154 
L 515.284595 -416.180747 
L 515.440419 -411.95334 
L 515.606004 -407.725932 
L 515.783574 -403.498525 
L 515.975058 -399.271118 
L 516.181852 -395.043711 
L 516.404807 -390.816304 
L 516.644431 -386.588897 
L 516.901229 -382.36149 
L 517.176083 -378.134083 
L 517.470504 -373.906676 
L 517.786563 -369.679268 
L 518.126335 -365.451861 
L 518.490788 -361.224454 
L 518.878326 -356.997047 
L 519.283431 -352.76964 
L 519.696032 -348.542233 
L 520.102098 -344.314826 
L 520.485665 -340.087419 
L 520.831949 -335.860012 
L 521.130811 -331.632604 
L 521.379573 -327.405197 
L 521.584322 -323.17779 
L 521.759198 -318.950383 
L 521.923704 -314.722976 
L 522.098623 -310.495569 
L 522.301548 -306.268162 
L 522.543149 -302.040755 
L 522.825156 -297.813348 
L 523.140584 -293.58594 
L 523.476079 -289.358533 
L 523.815689 -285.131126 
L 524.144979 -280.903719 
L 524.454376 -276.676312 
L 524.740966 -272.448905 
L 525.00848 -268.221498 
L 525.26576 -263.994091 
L 525.524379 -259.766684 
L 525.79615 -255.539276 
L 526.091154 -251.311869 
L 526.416546 -247.084462 
L 526.776082 -242.857055 
L 527.170104 -238.629648 
L 527.595686 -234.402241 
L 528.046855 -230.174834 
L 528.515014 -225.947427 
L 528.989887 -221.72002 
L 529.461202 -217.492612 
L 529.921003 -213.265205 
L 530.365988 -209.037798 
L 530.79892 -204.810391 
L 531.228166 -200.582984 
L 531.664924 -196.355577 
L 532.118582 -192.12817 
L 532.591546 -187.900763 
L 533.075372 -183.673356 
L 533.549793 -179.445949 
L 533.985323 -175.218541 
L 534.348816 -170.991134 
L 534.610316 -166.763727 
L 534.749182 -162.53632 
L 534.757968 -158.308913 
L 534.64365 -154.081506 
L 534.426997 -149.854099 
L 534.141512 -145.626692 
L 533.833246 -141.399285 
L 533.561858 -137.171877 
L 533.402017 -132.94447 
L 533.443224 -128.717063 
L 533.785705 -124.489656 
L 534.530462 -120.262249 
L 535.762758 -116.034842 
L 537.530014 -111.807435 
L 539.817118 -107.580028 
L 542.524277 -103.352621 
L 545.454228 -99.125213 
L 548.316205 -94.897806 
L 550.752263 -90.670399 
L 552.386805 -86.442992 
L 552.892802 -82.215585 
L 552.060513 -77.988178 
L 549.849911 -73.760771 
L 546.409708 -69.533364 
z
" id="mee82d52e0f" style="stroke:#141414;stroke-width:1.5;"/>
    </defs>
    <g clip-path="url(#p11e091e52b)">
     <use style="fill:#083c1d;stroke:#141414;stroke-width:1.5;" x="0" xlink:href="#mee82d52e0f" y="540.169"/>
    </g>
   </g>
   <g id="PolyCollection_6">
    <defs>
     <path d="M 624.251914 -69.533364 
L 559.997739 -69.533364 
L 557.036325 -73.688631 
L 555.607537 -77.843898 
L 555.781141 -81.999165 
L 557.379722 -86.154432 
L 560.043561 -90.309699 
L 563.331469 -94.464966 
L 566.820262 -98.620233 
L 570.173868 -102.7755 
L 573.171169 -106.930767 
L 575.699089 -111.086034 
L 577.726551 -115.241301 
L 579.274549 -119.396568 
L 580.39166 -123.551835 
L 581.137696 -127.707102 
L 581.574159 -131.862369 
L 581.759062 -136.017637 
L 581.744271 -140.172904 
L 581.574511 -144.328171 
L 581.287574 -148.483438 
L 580.915309 -152.638705 
L 580.484818 -156.793972 
L 580.019348 -160.949239 
L 579.538679 -165.104506 
L 579.059169 -169.259773 
L 578.593817 -173.41504 
L 578.152556 -177.570307 
L 577.742733 -181.725574 
L 577.36945 -185.880841 
L 577.035549 -190.036108 
L 576.741302 -194.191375 
L 576.484123 -198.346642 
L 576.258623 -202.501909 
L 576.057037 -206.657177 
L 575.86973 -210.812444 
L 575.685538 -214.967711 
L 575.491991 -219.122978 
L 575.275913 -223.278245 
L 575.024944 -227.433512 
L 574.730107 -231.588779 
L 574.388815 -235.744046 
L 574.007127 -239.899313 
L 573.600134 -244.05458 
L 573.190033 -248.209847 
L 572.802472 -252.365114 
L 572.462533 -256.520381 
L 572.191804 -260.675648 
L 572.007339 -264.830915 
L 571.922316 -268.986182 
L 571.947385 -273.141449 
L 572.091582 -277.296716 
L 572.362108 -281.451984 
L 572.763041 -285.607251 
L 573.293583 -289.762518 
L 573.946543 -293.917785 
L 574.707582 -298.073052 
L 575.555398 -302.228319 
L 576.462901 -306.383586 
L 577.399331 -310.538853 
L 578.33315 -314.69412 
L 579.235354 -318.849387 
L 580.082568 -323.004654 
L 580.859236 -327.159921 
L 581.558412 -331.315188 
L 582.181134 -335.470455 
L 582.734734 -339.625722 
L 583.230725 -343.780989 
L 583.682744 -347.936256 
L 584.104821 -352.091524 
L 584.509927 -356.246791 
L 584.908684 -360.402058 
L 585.308228 -364.557325 
L 585.711436 -368.712592 
L 586.11683 -372.867859 
L 586.519385 -377.023126 
L 586.912159 -381.178393 
L 587.288264 -385.33366 
L 587.642551 -389.488927 
L 587.972475 -393.644194 
L 588.278026 -397.799461 
L 588.560976 -401.954728 
L 588.823966 -406.109995 
L 589.069832 -410.265262 
L 589.301314 -414.420529 
L 589.521025 -418.575796 
L 589.731413 -422.731063 
L 589.934579 -426.886331 
L 590.131975 -431.041598 
L 590.324151 -435.196865 
L 590.51074 -439.352132 
L 590.690721 -443.507399 
L 590.862852 -447.662666 
L 591.026052 -451.817933 
L 591.17956 -455.9732 
L 591.322854 -460.128467 
L 591.455424 -464.283734 
L 591.576597 -468.439001 
L 591.685525 -472.594268 
L 591.781352 -476.749535 
L 591.863476 -480.904802 
L 592.386177 -480.904802 
L 592.386177 -480.904802 
L 592.468301 -476.749535 
L 592.564128 -472.594268 
L 592.673056 -468.439001 
L 592.794229 -464.283734 
L 592.926799 -460.128467 
L 593.070093 -455.9732 
L 593.223602 -451.817933 
L 593.386801 -447.662666 
L 593.558932 -443.507399 
L 593.738913 -439.352132 
L 593.925502 -435.196865 
L 594.117678 -431.041598 
L 594.315074 -426.886331 
L 594.51824 -422.731063 
L 594.728628 -418.575796 
L 594.948339 -414.420529 
L 595.179821 -410.265262 
L 595.425687 -406.109995 
L 595.688677 -401.954728 
L 595.971628 -397.799461 
L 596.277178 -393.644194 
L 596.607103 -389.488927 
L 596.961389 -385.33366 
L 597.337494 -381.178393 
L 597.730268 -377.023126 
L 598.132824 -372.867859 
L 598.538217 -368.712592 
L 598.941425 -364.557325 
L 599.340969 -360.402058 
L 599.739726 -356.246791 
L 600.144832 -352.091524 
L 600.566909 -347.936256 
L 601.018928 -343.780989 
L 601.514919 -339.625722 
L 602.068519 -335.470455 
L 602.691241 -331.315188 
L 603.390417 -327.159921 
L 604.167085 -323.004654 
L 605.0143 -318.849387 
L 605.916503 -314.69412 
L 606.850322 -310.538853 
L 607.786752 -306.383586 
L 608.694255 -302.228319 
L 609.542071 -298.073052 
L 610.30311 -293.917785 
L 610.95607 -289.762518 
L 611.486612 -285.607251 
L 611.887545 -281.451984 
L 612.158071 -277.296716 
L 612.302268 -273.141449 
L 612.327337 -268.986182 
L 612.242314 -264.830915 
L 612.057849 -260.675648 
L 611.78712 -256.520381 
L 611.447181 -252.365114 
L 611.05962 -248.209847 
L 610.649519 -244.05458 
L 610.242526 -239.899313 
L 609.860838 -235.744046 
L 609.519546 -231.588779 
L 609.22471 -227.433512 
L 608.97374 -223.278245 
L 608.757662 -219.122978 
L 608.564115 -214.967711 
L 608.379923 -210.812444 
L 608.192616 -206.657177 
L 607.99103 -202.501909 
L 607.76553 -198.346642 
L 607.508351 -194.191375 
L 607.214104 -190.036108 
L 606.880203 -185.880841 
L 606.50692 -181.725574 
L 606.097097 -177.570307 
L 605.655836 -173.41504 
L 605.190484 -169.259773 
L 604.710974 -165.104506 
L 604.230305 -160.949239 
L 603.764835 -156.793972 
L 603.334344 -152.638705 
L 602.962079 -148.483438 
L 602.675142 -144.328171 
L 602.505382 -140.172904 
L 602.490591 -136.017637 
L 602.675494 -131.862369 
L 603.111958 -127.707102 
L 603.857993 -123.551835 
L 604.975104 -119.396568 
L 606.523102 -115.241301 
L 608.550564 -111.086034 
L 611.078484 -106.930767 
L 614.075785 -102.7755 
L 617.429392 -98.620233 
L 620.918185 -94.464966 
L 624.206092 -90.309699 
L 626.869931 -86.154432 
L 628.468512 -81.999165 
L 628.642116 -77.843898 
L 627.213328 -73.688631 
L 624.251914 -69.533364 
z
" id="m7002b944cf" style="stroke:#141414;stroke-width:1.5;"/>
    </defs>
    <g clip-path="url(#p11e091e52b)">
     <use style="fill:#0e5f2f;stroke:#141414;stroke-width:1.5;" x="0" xlink:href="#m7002b944cf" y="540.169"/>
    </g>
   </g>
   <g id="patch_3">
    <path clip-path="url(#p11e091e52b)" d="M 160.57256 470.635636 
L 160.57256 470.635636 
L 160.57256 470.635636 
L 160.57256 470.635636 
z
" style="fill:#083c1d;stroke:#141414;stroke-linejoin:miter;stroke-width:0.75;"/>
   </g>
   <g id="patch_4">
    <path clip-path="url(#p11e091e52b)" d="M 160.57256 470.635636 
L 160.57256 470.635636 
L 160.57256 470.635636 
L 160.57256 470.635636 
z
" style="fill:#0e5f2f;stroke:#141414;stroke-linejoin:miter;stroke-width:0.75;"/>
   </g>
   <g id="line2d_1">
    <path clip-path="url(#p11e091e52b)" d="M 121.340536 470.635636 
L 121.340536 234.954083 
" style="fill:none;stroke:#141414;stroke-linecap:round;stroke-width:1.5;"/>
   </g>
   <g id="line2d_2">
    <path clip-path="url(#p11e091e52b)" d="M 121.340536 456.351906 
L 121.340536 357.794165 
" style="fill:none;stroke:#141414;stroke-linecap:round;stroke-width:4.5;"/>
   </g>
   <g id="line2d_3">
    <path clip-path="url(#p11e091e52b)" d="M 199.804585 470.635636 
L 199.804585 102.829576 
" style="fill:none;stroke:#141414;stroke-linecap:round;stroke-width:1.5;"/>
   </g>
   <g id="line2d_4">
    <path clip-path="url(#p11e091e52b)" d="M 199.804585 452.780973 
L 199.804585 312.800414 
" style="fill:none;stroke:#141414;stroke-linecap:round;stroke-width:4.5;"/>
   </g>
   <g id="line2d_5">
    <path clip-path="url(#p11e091e52b)" d="M 317.500657 470.635636 
L 317.500657 100.687016 
" style="fill:none;stroke:#141414;stroke-linecap:round;stroke-width:1.5;"/>
   </g>
   <g id="line2d_6">
    <path clip-path="url(#p11e091e52b)" d="M 317.500657 452.066787 
L 317.500657 311.372041 
" style="fill:none;stroke:#141414;stroke-linecap:round;stroke-width:4.5;"/>
   </g>
   <g id="line2d_7">
    <path clip-path="url(#p11e091e52b)" d="M 395.964706 470.635636 
L 395.964706 57.835825 
" style="fill:none;stroke:#141414;stroke-linecap:round;stroke-width:1.5;"/>
   </g>
   <g id="line2d_8">
    <path clip-path="url(#p11e091e52b)" d="M 395.964706 452.066787 
L 395.964706 259.236425 
" style="fill:none;stroke:#141414;stroke-linecap:round;stroke-width:4.5;"/>
   </g>
   <g id="line2d_9">
    <path clip-path="url(#p11e091e52b)" d="M 513.660778 470.635636 
L 513.660778 93.545151 
" style="fill:none;stroke:#141414;stroke-linecap:round;stroke-width:1.5;"/>
   </g>
   <g id="line2d_10">
    <path clip-path="url(#p11e091e52b)" d="M 513.660778 452.066787 
L 513.660778 307.801109 
" style="fill:none;stroke:#141414;stroke-linecap:round;stroke-width:4.5;"/>
   </g>
   <g id="line2d_11">
    <path clip-path="url(#p11e091e52b)" d="M 592.124827 470.635636 
L 592.124827 59.264198 
" style="fill:none;stroke:#141414;stroke-linecap:round;stroke-width:1.5;"/>
   </g>
   <g id="line2d_12">
    <path clip-path="url(#p11e091e52b)" d="M 592.124827 448.495854 
L 592.124827 261.378984 
" style="fill:none;stroke:#141414;stroke-linecap:round;stroke-width:4.5;"/>
   </g>
   <g id="patch_5">
    <path d="M 62.4925 492.704 
L 62.4925 7.2 
" style="fill:none;stroke:#262626;stroke-linecap:square;stroke-linejoin:miter;stroke-width:0.8;"/>
   </g>
   <g id="patch_6">
    <path d="M 62.4925 492.704 
L 650.972863 492.704 
" style="fill:none;stroke:#262626;stroke-linecap:square;stroke-linejoin:miter;stroke-width:0.8;"/>
   </g>
   <g id="PathCollection_1">
    <defs>
     <path d="M 0 1.5 
C 0.397805 1.5 0.77937 1.341951 1.06066 1.06066 
C 1.341951 0.77937 1.5 0.397805 1.5 0 
C 1.5 -0.397805 1.341951 -0.77937 1.06066 -1.06066 
C 0.77937 -1.341951 0.397805 -1.5 0 -1.5 
C -0.397805 -1.5 -0.77937 -1.341951 -1.06066 -1.06066 
C -1.341951 -0.77937 -1.5 -0.397805 -1.5 0 
C -1.5 0.397805 -1.341951 0.77937 -1.06066 1.06066 
C -0.77937 1.341951 -0.397805 1.5 0 1.5 
z
" id="m871fb1c959" style="stroke:#141414;"/>
    </defs>
    <g clip-path="url(#p11e091e52b)">
     <use style="fill:#ffffff;stroke:#141414;" x="121.340536" xlink:href="#m871fb1c959" y="404.573383"/>
    </g>
   </g>
   <g id="PathCollection_2">
    <g clip-path="url(#p11e091e52b)">
     <use style="fill:#ffffff;stroke:#141414;" x="199.804585" xlink:href="#m871fb1c959" y="354.937419"/>
    </g>
   </g>
   <g id="PathCollection_3">
    <g clip-path="url(#p11e091e52b)">
     <use style="fill:#ffffff;stroke:#141414;" x="317.500657" xlink:href="#m871fb1c959" y="392.075119"/>
    </g>
   </g>
   <g id="PathCollection_4">
    <g clip-path="url(#p11e091e52b)">
     <use style="fill:#ffffff;stroke:#141414;" x="395.964706" xlink:href="#m871fb1c959" y="334.940197"/>
    </g>
   </g>
   <g id="PathCollection_5">
    <g clip-path="url(#p11e091e52b)">
     <use style="fill:#ffffff;stroke:#141414;" x="513.660778" xlink:href="#m871fb1c959" y="384.219067"/>
    </g>
   </g>
   <g id="PathCollection_6">
    <g clip-path="url(#p11e091e52b)">
     <use style="fill:#ffffff;stroke:#141414;" x="592.124827" xlink:href="#m871fb1c959" y="339.939502"/>
    </g>
   </g>
  </g>
  <g id="legend_1">
   <g id="text_13">
    <!-- workday -->
    <defs>
     <path d="M 16.15625 0 
L 0.296875 51.859375 
L 9.375 51.859375 
L 17.625 21.921875 
L 20.703125 10.796875 
Q 20.90625 11.625 23.390625 21.484375 
L 31.640625 51.859375 
L 40.671875 51.859375 
L 48.4375 21.78125 
L 51.03125 11.859375 
L 54 21.875 
L 62.890625 51.859375 
L 71.4375 51.859375 
L 55.21875 0 
L 46.09375 0 
L 37.84375 31.0625 
L 35.84375 39.890625 
L 25.34375 0 
z
" id="ArialMT-119"/>
     <path d="M 6.640625 0 
L 6.640625 71.578125 
L 15.4375 71.578125 
L 15.4375 30.765625 
L 36.234375 51.859375 
L 47.609375 51.859375 
L 27.78125 32.625 
L 49.609375 0 
L 38.765625 0 
L 21.625 26.515625 
L 15.4375 20.5625 
L 15.4375 0 
z
" id="ArialMT-107"/>
     <path d="M 40.4375 6.390625 
Q 35.546875 2.25 31.03125 0.53125 
Q 26.515625 -1.171875 21.34375 -1.171875 
Q 12.796875 -1.171875 8.203125 3 
Q 3.609375 7.171875 3.609375 13.671875 
Q 3.609375 17.484375 5.34375 20.625 
Q 7.078125 23.78125 9.890625 25.6875 
Q 12.703125 27.59375 16.21875 28.5625 
Q 18.796875 29.25 24.03125 29.890625 
Q 34.671875 31.15625 39.703125 32.90625 
Q 39.75 34.71875 39.75 35.203125 
Q 39.75 40.578125 37.25 42.78125 
Q 33.890625 45.75 27.25 45.75 
Q 21.046875 45.75 18.09375 43.578125 
Q 15.140625 41.40625 13.71875 35.890625 
L 5.125 37.0625 
Q 6.296875 42.578125 8.984375 45.96875 
Q 11.671875 49.359375 16.75 51.1875 
Q 21.828125 53.03125 28.515625 53.03125 
Q 35.15625 53.03125 39.296875 51.46875 
Q 43.453125 49.90625 45.40625 47.53125 
Q 47.359375 45.171875 48.140625 41.546875 
Q 48.578125 39.3125 48.578125 33.453125 
L 48.578125 21.734375 
Q 48.578125 9.46875 49.140625 6.21875 
Q 49.703125 2.984375 51.375 0 
L 42.1875 0 
Q 40.828125 2.734375 40.4375 6.390625 
z
M 39.703125 26.03125 
Q 34.90625 24.078125 25.34375 22.703125 
Q 19.921875 21.921875 17.671875 20.9375 
Q 15.4375 19.96875 14.203125 18.09375 
Q 12.984375 16.21875 12.984375 13.921875 
Q 12.984375 10.40625 15.640625 8.0625 
Q 18.3125 5.71875 23.4375 5.71875 
Q 28.515625 5.71875 32.46875 7.9375 
Q 36.421875 10.15625 38.28125 14.015625 
Q 39.703125 17 39.703125 22.796875 
z
" id="ArialMT-97"/>
     <path d="M 6.203125 -19.96875 
L 5.21875 -11.71875 
Q 8.109375 -12.5 10.25 -12.5 
Q 13.1875 -12.5 14.9375 -11.515625 
Q 16.703125 -10.546875 17.828125 -8.796875 
Q 18.65625 -7.46875 20.515625 -2.25 
Q 20.75 -1.515625 21.296875 -0.09375 
L 1.609375 51.859375 
L 11.078125 51.859375 
L 21.875 21.828125 
Q 23.96875 16.109375 25.640625 9.8125 
Q 27.15625 15.875 29.25 21.625 
L 40.328125 51.859375 
L 49.125 51.859375 
L 29.390625 -0.875 
Q 26.21875 -9.421875 24.46875 -12.640625 
Q 22.125 -17 19.09375 -19.015625 
Q 16.0625 -21.046875 11.859375 -21.046875 
Q 9.328125 -21.046875 6.203125 -19.96875 
z
" id="ArialMT-121"/>
    </defs>
    <g style="fill:#262626;" transform="translate(729.5455 251.4945)scale(0.16 -0.16)">
     <use xlink:href="#ArialMT-119"/>
     <use x="72.216797" xlink:href="#ArialMT-111"/>
     <use x="127.832031" xlink:href="#ArialMT-114"/>
     <use x="161.132812" xlink:href="#ArialMT-107"/>
     <use x="211.132812" xlink:href="#ArialMT-100"/>
     <use x="266.748047" xlink:href="#ArialMT-97"/>
     <use x="322.363281" xlink:href="#ArialMT-121"/>
    </g>
   </g>
   <g id="patch_7">
    <path d="M 732.48425 274.3145 
L 764.48425 274.3145 
L 764.48425 263.1145 
L 732.48425 263.1145 
z
" style="fill:#083c1d;stroke:#141414;stroke-linejoin:miter;stroke-width:0.75;"/>
   </g>
   <g id="text_14">
    <!-- 0 -->
    <g style="fill:#262626;" transform="translate(777.28425 274.3145)scale(0.16 -0.16)">
     <use xlink:href="#ArialMT-48"/>
    </g>
   </g>
   <g id="patch_8">
    <path d="M 732.48425 296.947 
L 764.48425 296.947 
L 764.48425 285.747 
L 732.48425 285.747 
z
" style="fill:#0e5f2f;stroke:#141414;stroke-linejoin:miter;stroke-width:0.75;"/>
   </g>
   <g id="text_15">
    <!-- 1 -->
    <g style="fill:#262626;" transform="translate(777.28425 296.947)scale(0.16 -0.16)">
     <use xlink:href="#ArialMT-49"/>
    </g>
   </g>
  </g>
 </g>
 <defs>
  <clipPath id="p11e091e52b">
   <rect height="485.504" width="588.480363" x="62.4925" y="7.2"/>
  </clipPath>
 </defs>
</svg>
