<?xml version="1.0" encoding="utf-8" standalone="no"?>
<!DOCTYPE svg PUBLIC "-//W3C//DTD SVG 1.1//EN"
  "http://www.w3.org/Graphics/SVG/1.1/DTD/svg11.dtd">
<!-- Created with matplotlib (https://matplotlib.org/) -->
<svg height="536.575754pt" version="1.1" viewBox="0 0 791.118 536.575754" width="791.118pt" xmlns="http://www.w3.org/2000/svg" xmlns:xlink="http://www.w3.org/1999/xlink">
 <defs>
  <style type="text/css">
*{stroke-linecap:butt;stroke-linejoin:round;white-space:pre;}
  </style>
 </defs>
 <g id="figure_1">
  <g id="patch_1">
   <path d="M 0 536.575754 
L 791.118 536.575754 
L 791.118 0 
L 0 0 
z
" style="fill:#ffffff;"/>
  </g>
  <g id="axes_1">
   <g id="patch_2">
    <path d="M 71.39 489.110754 
L 638.570363 489.110754 
L 638.570363 7.2 
L 71.39 7.2 
z
" style="fill:#ffffff;"/>
   </g>
   <g id="matplotlib.axis_1">
    <g id="xtick_1">
     <g id="text_1">
      <!-- 1026-136-1 -->
      <defs>
       <path d="M 37.25 0 
L 28.46875 0 
L 28.46875 56 
Q 25.296875 52.984375 20.140625 49.953125 
Q 14.984375 46.921875 10.890625 45.40625 
L 10.890625 53.90625 
Q 18.265625 57.375 23.78125 62.296875 
Q 29.296875 67.234375 31.59375 71.875 
L 37.25 71.875 
z
" id="ArialMT-49"/>
       <path d="M 4.15625 35.296875 
Q 4.15625 48 6.765625 55.734375 
Q 9.375 63.484375 14.515625 67.671875 
Q 19.671875 71.875 27.484375 71.875 
Q 33.25 71.875 37.59375 69.546875 
Q 41.9375 67.234375 44.765625 62.859375 
Q 47.609375 58.5 49.21875 52.21875 
Q 50.828125 45.953125 50.828125 35.296875 
Q 50.828125 22.703125 48.234375 14.96875 
Q 45.65625 7.234375 40.5 3 
Q 35.359375 -1.21875 27.484375 -1.21875 
Q 17.140625 -1.21875 11.234375 6.203125 
Q 4.15625 15.140625 4.15625 35.296875 
z
M 13.1875 35.296875 
Q 13.1875 17.671875 17.3125 11.828125 
Q 21.4375 6 27.484375 6 
Q 33.546875 6 37.671875 11.859375 
Q 41.796875 17.71875 41.796875 35.296875 
Q 41.796875 52.984375 37.671875 58.78125 
Q 33.546875 64.59375 27.390625 64.59375 
Q 21.34375 64.59375 17.71875 59.46875 
Q 13.1875 52.9375 13.1875 35.296875 
z
" id="ArialMT-48"/>
       <path d="M 50.34375 8.453125 
L 50.34375 0 
L 3.03125 0 
Q 2.9375 3.171875 4.046875 6.109375 
Q 5.859375 10.9375 9.828125 15.625 
Q 13.8125 20.3125 21.34375 26.46875 
Q 33.015625 36.03125 37.109375 41.625 
Q 41.21875 47.21875 41.21875 52.203125 
Q 41.21875 57.421875 37.46875 61 
Q 33.734375 64.59375 27.734375 64.59375 
Q 21.390625 64.59375 17.578125 60.78125 
Q 13.765625 56.984375 13.71875 50.25 
L 4.6875 51.171875 
Q 5.609375 61.28125 11.65625 66.578125 
Q 17.71875 71.875 27.9375 71.875 
Q 38.234375 71.875 44.234375 66.15625 
Q 50.25 60.453125 50.25 52 
Q 50.25 47.703125 48.484375 43.546875 
Q 46.734375 39.40625 42.65625 34.8125 
Q 38.578125 30.21875 29.109375 22.21875 
Q 21.1875 15.578125 18.9375 13.203125 
Q 16.703125 10.84375 15.234375 8.453125 
z
" id="ArialMT-50"/>
       <path d="M 49.75 54.046875 
L 41.015625 53.375 
Q 39.84375 58.546875 37.703125 60.890625 
Q 34.125 64.65625 28.90625 64.65625 
Q 24.703125 64.65625 21.53125 62.3125 
Q 17.390625 59.28125 14.984375 53.46875 
Q 12.59375 47.65625 12.5 36.921875 
Q 15.671875 41.75 20.265625 44.09375 
Q 24.859375 46.4375 29.890625 46.4375 
Q 38.671875 46.4375 44.84375 39.96875 
Q 51.03125 33.5 51.03125 23.25 
Q 51.03125 16.5 48.125 10.71875 
Q 45.21875 4.9375 40.140625 1.859375 
Q 35.0625 -1.21875 28.609375 -1.21875 
Q 17.625 -1.21875 10.6875 6.859375 
Q 3.765625 14.9375 3.765625 33.5 
Q 3.765625 54.25 11.421875 63.671875 
Q 18.109375 71.875 29.4375 71.875 
Q 37.890625 71.875 43.28125 67.140625 
Q 48.6875 62.40625 49.75 54.046875 
z
M 13.875 23.1875 
Q 13.875 18.65625 15.796875 14.5 
Q 17.71875 10.359375 21.1875 8.171875 
Q 24.65625 6 28.46875 6 
Q 34.03125 6 38.03125 10.484375 
Q 42.046875 14.984375 42.046875 22.703125 
Q 42.046875 30.125 38.078125 34.390625 
Q 34.125 38.671875 28.125 38.671875 
Q 22.171875 38.671875 18.015625 34.390625 
Q 13.875 30.125 13.875 23.1875 
z
" id="ArialMT-54"/>
       <path d="M 3.171875 21.484375 
L 3.171875 30.328125 
L 30.171875 30.328125 
L 30.171875 21.484375 
z
" id="ArialMT-45"/>
       <path d="M 4.203125 18.890625 
L 12.984375 20.0625 
Q 14.5 12.59375 18.140625 9.296875 
Q 21.78125 6 27 6 
Q 33.203125 6 37.46875 10.296875 
Q 41.75 14.59375 41.75 20.953125 
Q 41.75 27 37.796875 30.921875 
Q 33.84375 34.859375 27.734375 34.859375 
Q 25.25 34.859375 21.53125 33.890625 
L 22.515625 41.609375 
Q 23.390625 41.5 23.921875 41.5 
Q 29.546875 41.5 34.03125 44.421875 
Q 38.53125 47.359375 38.53125 53.46875 
Q 38.53125 58.296875 35.25 61.46875 
Q 31.984375 64.65625 26.8125 64.65625 
Q 21.6875 64.65625 18.265625 61.421875 
Q 14.84375 58.203125 13.875 51.765625 
L 5.078125 53.328125 
Q 6.6875 62.15625 12.390625 67.015625 
Q 18.109375 71.875 26.609375 71.875 
Q 32.46875 71.875 37.390625 69.359375 
Q 42.328125 66.84375 44.9375 62.5 
Q 47.5625 58.15625 47.5625 53.265625 
Q 47.5625 48.640625 45.0625 44.828125 
Q 42.578125 41.015625 37.703125 38.765625 
Q 44.046875 37.3125 47.5625 32.6875 
Q 51.078125 28.078125 51.078125 21.140625 
Q 51.078125 11.765625 44.234375 5.25 
Q 37.40625 -1.265625 26.953125 -1.265625 
Q 17.53125 -1.265625 11.296875 4.34375 
Q 5.078125 9.96875 4.203125 18.890625 
z
" id="ArialMT-51"/>
      </defs>
      <g style="fill:#262626;" transform="translate(87.190536 507.563254)scale(0.16 -0.16)">
       <use xlink:href="#ArialMT-49"/>
       <use x="55.615234" xlink:href="#ArialMT-48"/>
       <use x="111.230469" xlink:href="#ArialMT-50"/>
       <use x="166.845703" xlink:href="#ArialMT-54"/>
       <use x="222.460938" xlink:href="#ArialMT-45"/>
       <use x="255.761719" xlink:href="#ArialMT-49"/>
       <use x="311.376953" xlink:href="#ArialMT-51"/>
       <use x="366.992188" xlink:href="#ArialMT-54"/>
       <use x="422.607422" xlink:href="#ArialMT-45"/>
       <use x="455.908203" xlink:href="#ArialMT-49"/>
      </g>
     </g>
    </g>
    <g id="xtick_2">
     <g id="text_2">
      <!-- 1028-18a-1 -->
      <defs>
       <path d="M 17.671875 38.8125 
Q 12.203125 40.828125 9.5625 44.53125 
Q 6.9375 48.25 6.9375 53.421875 
Q 6.9375 61.234375 12.546875 66.546875 
Q 18.171875 71.875 27.484375 71.875 
Q 36.859375 71.875 42.578125 66.421875 
Q 48.296875 60.984375 48.296875 53.171875 
Q 48.296875 48.1875 45.671875 44.5 
Q 43.0625 40.828125 37.75 38.8125 
Q 44.34375 36.671875 47.78125 31.875 
Q 51.21875 27.09375 51.21875 20.453125 
Q 51.21875 11.28125 44.71875 5.03125 
Q 38.234375 -1.21875 27.640625 -1.21875 
Q 17.046875 -1.21875 10.546875 5.046875 
Q 4.046875 11.328125 4.046875 20.703125 
Q 4.046875 27.6875 7.59375 32.390625 
Q 11.140625 37.109375 17.671875 38.8125 
z
M 15.921875 53.71875 
Q 15.921875 48.640625 19.1875 45.40625 
Q 22.46875 42.1875 27.6875 42.1875 
Q 32.765625 42.1875 36.015625 45.375 
Q 39.265625 48.578125 39.265625 53.21875 
Q 39.265625 58.0625 35.90625 61.359375 
Q 32.5625 64.65625 27.59375 64.65625 
Q 22.5625 64.65625 19.234375 61.421875 
Q 15.921875 58.203125 15.921875 53.71875 
z
M 13.09375 20.65625 
Q 13.09375 16.890625 14.875 13.375 
Q 16.65625 9.859375 20.171875 7.921875 
Q 23.6875 6 27.734375 6 
Q 34.03125 6 38.125 10.046875 
Q 42.234375 14.109375 42.234375 20.359375 
Q 42.234375 26.703125 38.015625 30.859375 
Q 33.796875 35.015625 27.4375 35.015625 
Q 21.234375 35.015625 17.15625 30.90625 
Q 13.09375 26.8125 13.09375 20.65625 
z
" id="ArialMT-56"/>
       <path d="M 40.4375 6.390625 
Q 35.546875 2.25 31.03125 0.53125 
Q 26.515625 -1.171875 21.34375 -1.171875 
Q 12.796875 -1.171875 8.203125 3 
Q 3.609375 7.171875 3.609375 13.671875 
Q 3.609375 17.484375 5.34375 20.625 
Q 7.078125 23.78125 9.890625 25.6875 
Q 12.703125 27.59375 16.21875 28.5625 
Q 18.796875 29.25 24.03125 29.890625 
Q 34.671875 31.15625 39.703125 32.90625 
Q 39.75 34.71875 39.75 35.203125 
Q 39.75 40.578125 37.25 42.78125 
Q 33.890625 45.75 27.25 45.75 
Q 21.046875 45.75 18.09375 43.578125 
Q 15.140625 41.40625 13.71875 35.890625 
L 5.125 37.0625 
Q 6.296875 42.578125 8.984375 45.96875 
Q 11.671875 49.359375 16.75 51.1875 
Q 21.828125 53.03125 28.515625 53.03125 
Q 35.15625 53.03125 39.296875 51.46875 
Q 43.453125 49.90625 45.40625 47.53125 
Q 47.359375 45.171875 48.140625 41.546875 
Q 48.578125 39.3125 48.578125 33.453125 
L 48.578125 21.734375 
Q 48.578125 9.46875 49.140625 6.21875 
Q 49.703125 2.984375 51.375 0 
L 42.1875 0 
Q 40.828125 2.734375 40.4375 6.390625 
z
M 39.703125 26.03125 
Q 34.90625 24.078125 25.34375 22.703125 
Q 19.921875 21.921875 17.671875 20.9375 
Q 15.4375 19.96875 14.203125 18.09375 
Q 12.984375 16.21875 12.984375 13.921875 
Q 12.984375 10.40625 15.640625 8.0625 
Q 18.3125 5.71875 23.4375 5.71875 
Q 28.515625 5.71875 32.46875 7.9375 
Q 36.421875 10.15625 38.28125 14.015625 
Q 39.703125 17 39.703125 22.796875 
z
" id="ArialMT-97"/>
      </defs>
      <g style="fill:#262626;" transform="translate(200.626609 507.563254)scale(0.16 -0.16)">
       <use xlink:href="#ArialMT-49"/>
       <use x="55.615234" xlink:href="#ArialMT-48"/>
       <use x="111.230469" xlink:href="#ArialMT-50"/>
       <use x="166.845703" xlink:href="#ArialMT-56"/>
       <use x="222.460938" xlink:href="#ArialMT-45"/>
       <use x="255.761719" xlink:href="#ArialMT-49"/>
       <use x="311.376953" xlink:href="#ArialMT-56"/>
       <use x="366.992188" xlink:href="#ArialMT-97"/>
       <use x="422.607422" xlink:href="#ArialMT-45"/>
       <use x="455.908203" xlink:href="#ArialMT-49"/>
      </g>
     </g>
    </g>
    <g id="xtick_3">
     <g id="text_3">
      <!-- 1040-236-1 -->
      <defs>
       <path d="M 32.328125 0 
L 32.328125 17.140625 
L 1.265625 17.140625 
L 1.265625 25.203125 
L 33.9375 71.578125 
L 41.109375 71.578125 
L 41.109375 25.203125 
L 50.78125 25.203125 
L 50.78125 17.140625 
L 41.109375 17.140625 
L 41.109375 0 
z
M 32.328125 25.203125 
L 32.328125 57.46875 
L 9.90625 25.203125 
z
" id="ArialMT-52"/>
      </defs>
      <g style="fill:#262626;" transform="translate(314.062681 507.563254)scale(0.16 -0.16)">
       <use xlink:href="#ArialMT-49"/>
       <use x="55.615234" xlink:href="#ArialMT-48"/>
       <use x="111.230469" xlink:href="#ArialMT-52"/>
       <use x="166.845703" xlink:href="#ArialMT-48"/>
       <use x="222.460938" xlink:href="#ArialMT-45"/>
       <use x="255.761719" xlink:href="#ArialMT-50"/>
       <use x="311.376953" xlink:href="#ArialMT-51"/>
       <use x="366.992188" xlink:href="#ArialMT-54"/>
       <use x="422.607422" xlink:href="#ArialMT-45"/>
       <use x="455.908203" xlink:href="#ArialMT-49"/>
      </g>
     </g>
    </g>
    <g id="xtick_4">
     <g id="text_4">
      <!-- 1040-236-2 -->
      <g style="fill:#262626;" transform="translate(427.498754 507.563254)scale(0.16 -0.16)">
       <use xlink:href="#ArialMT-49"/>
       <use x="55.615234" xlink:href="#ArialMT-48"/>
       <use x="111.230469" xlink:href="#ArialMT-52"/>
       <use x="166.845703" xlink:href="#ArialMT-48"/>
       <use x="222.460938" xlink:href="#ArialMT-45"/>
       <use x="255.761719" xlink:href="#ArialMT-50"/>
       <use x="311.376953" xlink:href="#ArialMT-51"/>
       <use x="366.992188" xlink:href="#ArialMT-54"/>
       <use x="422.607422" xlink:href="#ArialMT-45"/>
       <use x="455.908203" xlink:href="#ArialMT-50"/>
      </g>
     </g>
    </g>
    <g id="xtick_5">
     <g id="text_5">
      <!-- 1055-166-1 -->
      <defs>
       <path d="M 4.15625 18.75 
L 13.375 19.53125 
Q 14.40625 12.796875 18.140625 9.390625 
Q 21.875 6 27.15625 6 
Q 33.5 6 37.890625 10.78125 
Q 42.28125 15.578125 42.28125 23.484375 
Q 42.28125 31 38.0625 35.34375 
Q 33.84375 39.703125 27 39.703125 
Q 22.75 39.703125 19.328125 37.765625 
Q 15.921875 35.84375 13.96875 32.765625 
L 5.71875 33.84375 
L 12.640625 70.609375 
L 48.25 70.609375 
L 48.25 62.203125 
L 19.671875 62.203125 
L 15.828125 42.96875 
Q 22.265625 47.46875 29.34375 47.46875 
Q 38.71875 47.46875 45.15625 40.96875 
Q 51.609375 34.46875 51.609375 24.265625 
Q 51.609375 14.546875 45.953125 7.46875 
Q 39.0625 -1.21875 27.15625 -1.21875 
Q 17.390625 -1.21875 11.203125 4.25 
Q 5.03125 9.71875 4.15625 18.75 
z
" id="ArialMT-53"/>
      </defs>
      <g style="fill:#262626;" transform="translate(540.934827 507.563254)scale(0.16 -0.16)">
       <use xlink:href="#ArialMT-49"/>
       <use x="55.615234" xlink:href="#ArialMT-48"/>
       <use x="111.230469" xlink:href="#ArialMT-53"/>
       <use x="166.845703" xlink:href="#ArialMT-53"/>
       <use x="222.460938" xlink:href="#ArialMT-45"/>
       <use x="255.761719" xlink:href="#ArialMT-49"/>
       <use x="311.376953" xlink:href="#ArialMT-54"/>
       <use x="366.992188" xlink:href="#ArialMT-54"/>
       <use x="422.607422" xlink:href="#ArialMT-45"/>
       <use x="455.908203" xlink:href="#ArialMT-49"/>
      </g>
     </g>
    </g>
    <g id="text_6">
     <!-- Counter id -->
     <defs>
      <path d="M 58.796875 25.09375 
L 68.265625 22.703125 
Q 65.28125 11.03125 57.546875 4.90625 
Q 49.8125 -1.21875 38.625 -1.21875 
Q 27.046875 -1.21875 19.796875 3.484375 
Q 12.546875 8.203125 8.765625 17.140625 
Q 4.984375 26.078125 4.984375 36.328125 
Q 4.984375 47.515625 9.25 55.828125 
Q 13.53125 64.15625 21.40625 68.46875 
Q 29.296875 72.796875 38.765625 72.796875 
Q 49.515625 72.796875 56.828125 67.328125 
Q 64.15625 61.859375 67.046875 51.953125 
L 57.71875 49.75 
Q 55.21875 57.5625 50.484375 61.125 
Q 45.75 64.703125 38.578125 64.703125 
Q 30.328125 64.703125 24.78125 60.734375 
Q 19.234375 56.78125 16.984375 50.109375 
Q 14.75 43.453125 14.75 36.375 
Q 14.75 27.25 17.40625 20.4375 
Q 20.0625 13.625 25.671875 10.25 
Q 31.296875 6.890625 37.84375 6.890625 
Q 45.796875 6.890625 51.3125 11.46875 
Q 56.84375 16.0625 58.796875 25.09375 
z
" id="ArialMT-67"/>
      <path d="M 3.328125 25.921875 
Q 3.328125 40.328125 11.328125 47.265625 
Q 18.015625 53.03125 27.640625 53.03125 
Q 38.328125 53.03125 45.109375 46.015625 
Q 51.90625 39.015625 51.90625 26.65625 
Q 51.90625 16.65625 48.90625 10.90625 
Q 45.90625 5.171875 40.15625 2 
Q 34.421875 -1.171875 27.640625 -1.171875 
Q 16.75 -1.171875 10.03125 5.8125 
Q 3.328125 12.796875 3.328125 25.921875 
z
M 12.359375 25.921875 
Q 12.359375 15.96875 16.703125 11.015625 
Q 21.046875 6.0625 27.640625 6.0625 
Q 34.1875 6.0625 38.53125 11.03125 
Q 42.875 16.015625 42.875 26.21875 
Q 42.875 35.84375 38.5 40.796875 
Q 34.125 45.75 27.640625 45.75 
Q 21.046875 45.75 16.703125 40.8125 
Q 12.359375 35.890625 12.359375 25.921875 
z
" id="ArialMT-111"/>
      <path d="M 40.578125 0 
L 40.578125 7.625 
Q 34.515625 -1.171875 24.125 -1.171875 
Q 19.53125 -1.171875 15.546875 0.578125 
Q 11.578125 2.34375 9.640625 5 
Q 7.71875 7.671875 6.9375 11.53125 
Q 6.390625 14.109375 6.390625 19.734375 
L 6.390625 51.859375 
L 15.1875 51.859375 
L 15.1875 23.09375 
Q 15.1875 16.21875 15.71875 13.8125 
Q 16.546875 10.359375 19.234375 8.375 
Q 21.921875 6.390625 25.875 6.390625 
Q 29.828125 6.390625 33.296875 8.421875 
Q 36.765625 10.453125 38.203125 13.9375 
Q 39.65625 17.4375 39.65625 24.078125 
L 39.65625 51.859375 
L 48.4375 51.859375 
L 48.4375 0 
z
" id="ArialMT-117"/>
      <path d="M 6.59375 0 
L 6.59375 51.859375 
L 14.5 51.859375 
L 14.5 44.484375 
Q 20.21875 53.03125 31 53.03125 
Q 35.6875 53.03125 39.625 51.34375 
Q 43.5625 49.65625 45.515625 46.921875 
Q 47.46875 44.1875 48.25 40.4375 
Q 48.734375 37.984375 48.734375 31.890625 
L 48.734375 0 
L 39.9375 0 
L 39.9375 31.546875 
Q 39.9375 36.921875 38.90625 39.578125 
Q 37.890625 42.234375 35.28125 43.8125 
Q 32.671875 45.40625 29.15625 45.40625 
Q 23.53125 45.40625 19.453125 41.84375 
Q 15.375 38.28125 15.375 28.328125 
L 15.375 0 
z
" id="ArialMT-110"/>
      <path d="M 25.78125 7.859375 
L 27.046875 0.09375 
Q 23.34375 -0.6875 20.40625 -0.6875 
Q 15.625 -0.6875 12.984375 0.828125 
Q 10.359375 2.34375 9.28125 4.8125 
Q 8.203125 7.28125 8.203125 15.1875 
L 8.203125 45.015625 
L 1.765625 45.015625 
L 1.765625 51.859375 
L 8.203125 51.859375 
L 8.203125 64.703125 
L 16.9375 69.96875 
L 16.9375 51.859375 
L 25.78125 51.859375 
L 25.78125 45.015625 
L 16.9375 45.015625 
L 16.9375 14.703125 
Q 16.9375 10.9375 17.40625 9.859375 
Q 17.875 8.796875 18.921875 8.15625 
Q 19.96875 7.515625 21.921875 7.515625 
Q 23.390625 7.515625 25.78125 7.859375 
z
" id="ArialMT-116"/>
      <path d="M 42.09375 16.703125 
L 51.171875 15.578125 
Q 49.03125 7.625 43.21875 3.21875 
Q 37.40625 -1.171875 28.375 -1.171875 
Q 17 -1.171875 10.328125 5.828125 
Q 3.65625 12.84375 3.65625 25.484375 
Q 3.65625 38.578125 10.390625 45.796875 
Q 17.140625 53.03125 27.875 53.03125 
Q 38.28125 53.03125 44.875 45.953125 
Q 51.46875 38.875 51.46875 26.03125 
Q 51.46875 25.25 51.421875 23.6875 
L 12.75 23.6875 
Q 13.234375 15.140625 17.578125 10.59375 
Q 21.921875 6.0625 28.421875 6.0625 
Q 33.25 6.0625 36.671875 8.59375 
Q 40.09375 11.140625 42.09375 16.703125 
z
M 13.234375 30.90625 
L 42.1875 30.90625 
Q 41.609375 37.453125 38.875 40.71875 
Q 34.671875 45.796875 27.984375 45.796875 
Q 21.921875 45.796875 17.796875 41.75 
Q 13.671875 37.703125 13.234375 30.90625 
z
" id="ArialMT-101"/>
      <path d="M 6.5 0 
L 6.5 51.859375 
L 14.40625 51.859375 
L 14.40625 44 
Q 17.4375 49.515625 20 51.265625 
Q 22.5625 53.03125 25.640625 53.03125 
Q 30.078125 53.03125 34.671875 50.203125 
L 31.640625 42.046875 
Q 28.421875 43.953125 25.203125 43.953125 
Q 22.3125 43.953125 20.015625 42.21875 
Q 17.71875 40.484375 16.75 37.40625 
Q 15.28125 32.71875 15.28125 27.15625 
L 15.28125 0 
z
" id="ArialMT-114"/>
      <path id="ArialMT-32"/>
      <path d="M 6.640625 61.46875 
L 6.640625 71.578125 
L 15.4375 71.578125 
L 15.4375 61.46875 
z
M 6.640625 0 
L 6.640625 51.859375 
L 15.4375 51.859375 
L 15.4375 0 
z
" id="ArialMT-105"/>
      <path d="M 40.234375 0 
L 40.234375 6.546875 
Q 35.296875 -1.171875 25.734375 -1.171875 
Q 19.53125 -1.171875 14.328125 2.25 
Q 9.125 5.671875 6.265625 11.796875 
Q 3.421875 17.921875 3.421875 25.875 
Q 3.421875 33.640625 6 39.96875 
Q 8.59375 46.296875 13.765625 49.65625 
Q 18.953125 53.03125 25.34375 53.03125 
Q 30.03125 53.03125 33.6875 51.046875 
Q 37.359375 49.078125 39.65625 45.90625 
L 39.65625 71.578125 
L 48.390625 71.578125 
L 48.390625 0 
z
M 12.453125 25.875 
Q 12.453125 15.921875 16.640625 10.984375 
Q 20.84375 6.0625 26.5625 6.0625 
Q 32.328125 6.0625 36.34375 10.765625 
Q 40.375 15.484375 40.375 25.140625 
Q 40.375 35.796875 36.265625 40.765625 
Q 32.171875 45.75 26.171875 45.75 
Q 20.3125 45.75 16.375 40.96875 
Q 12.453125 36.1875 12.453125 25.875 
z
" id="ArialMT-100"/>
     </defs>
     <g style="fill:#262626;" transform="translate(318.072681 526.195754)scale(0.16 -0.16)">
      <use xlink:href="#ArialMT-67"/>
      <use x="72.216797" xlink:href="#ArialMT-111"/>
      <use x="127.832031" xlink:href="#ArialMT-117"/>
      <use x="183.447266" xlink:href="#ArialMT-110"/>
      <use x="239.0625" xlink:href="#ArialMT-116"/>
      <use x="266.845703" xlink:href="#ArialMT-101"/>
      <use x="322.460938" xlink:href="#ArialMT-114"/>
      <use x="355.761719" xlink:href="#ArialMT-32"/>
      <use x="383.544922" xlink:href="#ArialMT-105"/>
      <use x="405.761719" xlink:href="#ArialMT-100"/>
     </g>
    </g>
   </g>
   <g id="matplotlib.axis_2">
    <g id="ytick_1">
     <g id="text_7">
      <!-- 0 -->
      <g style="fill:#262626;" transform="translate(55.4925 472.93197)scale(0.16 -0.16)">
       <use xlink:href="#ArialMT-48"/>
      </g>
     </g>
    </g>
    <g id="ytick_2">
     <g id="text_8">
      <!-- 250 -->
      <g style="fill:#262626;" transform="translate(37.6975 408.085806)scale(0.16 -0.16)">
       <use xlink:href="#ArialMT-50"/>
       <use x="55.615234" xlink:href="#ArialMT-53"/>
       <use x="111.230469" xlink:href="#ArialMT-48"/>
      </g>
     </g>
    </g>
    <g id="ytick_3">
     <g id="text_9">
      <!-- 500 -->
      <g style="fill:#262626;" transform="translate(37.6975 343.239641)scale(0.16 -0.16)">
       <use xlink:href="#ArialMT-53"/>
       <use x="55.615234" xlink:href="#ArialMT-48"/>
       <use x="111.230469" xlink:href="#ArialMT-48"/>
      </g>
     </g>
    </g>
    <g id="ytick_4">
     <g id="text_10">
      <!-- 750 -->
      <defs>
       <path d="M 4.734375 62.203125 
L 4.734375 70.65625 
L 51.078125 70.65625 
L 51.078125 63.8125 
Q 44.234375 56.546875 37.515625 44.484375 
Q 30.8125 32.421875 27.15625 19.671875 
Q 24.515625 10.6875 23.78125 0 
L 14.75 0 
Q 14.890625 8.453125 18.0625 20.40625 
Q 21.234375 32.375 27.171875 43.484375 
Q 33.109375 54.59375 39.796875 62.203125 
z
" id="ArialMT-55"/>
      </defs>
      <g style="fill:#262626;" transform="translate(37.6975 278.393477)scale(0.16 -0.16)">
       <use xlink:href="#ArialMT-55"/>
       <use x="55.615234" xlink:href="#ArialMT-53"/>
       <use x="111.230469" xlink:href="#ArialMT-48"/>
      </g>
     </g>
    </g>
    <g id="ytick_5">
     <g id="text_11">
      <!-- 1000 -->
      <g style="fill:#262626;" transform="translate(28.8 213.547313)scale(0.16 -0.16)">
       <use xlink:href="#ArialMT-49"/>
       <use x="55.615234" xlink:href="#ArialMT-48"/>
       <use x="111.230469" xlink:href="#ArialMT-48"/>
       <use x="166.845703" xlink:href="#ArialMT-48"/>
      </g>
     </g>
    </g>
    <g id="ytick_6">
     <g id="text_12">
      <!-- 1250 -->
      <g style="fill:#262626;" transform="translate(28.8 148.701149)scale(0.16 -0.16)">
       <use xlink:href="#ArialMT-49"/>
       <use x="55.615234" xlink:href="#ArialMT-50"/>
       <use x="111.230469" xlink:href="#ArialMT-53"/>
       <use x="166.845703" xlink:href="#ArialMT-48"/>
      </g>
     </g>
    </g>
    <g id="ytick_7">
     <g id="text_13">
      <!-- 1500 -->
      <g style="fill:#262626;" transform="translate(28.8 83.854984)scale(0.16 -0.16)">
       <use xlink:href="#ArialMT-49"/>
       <use x="55.615234" xlink:href="#ArialMT-53"/>
       <use x="111.230469" xlink:href="#ArialMT-48"/>
       <use x="166.845703" xlink:href="#ArialMT-48"/>
      </g>
     </g>
    </g>
    <g id="ytick_8">
     <g id="text_14">
      <!-- 1750 -->
      <g style="fill:#262626;" transform="translate(28.8 19.00882)scale(0.16 -0.16)">
       <use xlink:href="#ArialMT-49"/>
       <use x="55.615234" xlink:href="#ArialMT-55"/>
       <use x="111.230469" xlink:href="#ArialMT-53"/>
       <use x="166.845703" xlink:href="#ArialMT-48"/>
      </g>
     </g>
    </g>
    <g id="text_15">
     <!-- Count [$h^{-1}$] -->
     <defs>
      <path d="M 6.78125 -19.875 
L 6.78125 71.578125 
L 26.171875 71.578125 
L 26.171875 64.3125 
L 15.578125 64.3125 
L 15.578125 -12.59375 
L 26.171875 -12.59375 
L 26.171875 -19.875 
z
" id="ArialMT-91"/>
      <path d="M 55.71875 33.015625 
L 49.3125 0 
L 40.28125 0 
L 46.6875 32.671875 
Q 47.125 34.96875 47.359375 36.71875 
Q 47.609375 38.484375 47.609375 39.5 
Q 47.609375 43.609375 45.015625 45.890625 
Q 42.4375 48.1875 37.796875 48.1875 
Q 30.5625 48.1875 25.265625 43.296875 
Q 19.96875 38.421875 18.40625 30.328125 
L 12.5 0 
L 3.515625 0 
L 18.3125 75.984375 
L 27.296875 75.984375 
L 21.484375 46.09375 
Q 24.90625 50.6875 30.21875 53.34375 
Q 35.546875 56 41.40625 56 
Q 48.640625 56 52.609375 52.09375 
Q 56.59375 48.1875 56.59375 41.109375 
Q 56.59375 39.359375 56.375 37.359375 
Q 56.15625 35.359375 55.71875 33.015625 
z
" id="DejaVuSans-Oblique-104"/>
      <path d="M 10.59375 35.5 
L 73.1875 35.5 
L 73.1875 27.203125 
L 10.59375 27.203125 
z
" id="DejaVuSans-8722"/>
      <path d="M 12.40625 8.296875 
L 28.515625 8.296875 
L 28.515625 63.921875 
L 10.984375 60.40625 
L 10.984375 69.390625 
L 28.421875 72.90625 
L 38.28125 72.90625 
L 38.28125 8.296875 
L 54.390625 8.296875 
L 54.390625 0 
L 12.40625 0 
z
" id="DejaVuSans-49"/>
      <path d="M 21.296875 -19.875 
L 1.90625 -19.875 
L 1.90625 -12.59375 
L 12.5 -12.59375 
L 12.5 64.3125 
L 1.90625 64.3125 
L 1.90625 71.578125 
L 21.296875 71.578125 
z
" id="ArialMT-93"/>
     </defs>
     <g style="fill:#262626;" transform="translate(21.6 290.315377)rotate(-90)scale(0.16 -0.16)">
      <use transform="translate(0 0.684375)" xlink:href="#ArialMT-67"/>
      <use transform="translate(72.216797 0.684375)" xlink:href="#ArialMT-111"/>
      <use transform="translate(127.832031 0.684375)" xlink:href="#ArialMT-117"/>
      <use transform="translate(183.447266 0.684375)" xlink:href="#ArialMT-110"/>
      <use transform="translate(239.0625 0.684375)" xlink:href="#ArialMT-116"/>
      <use transform="translate(266.845703 0.684375)" xlink:href="#ArialMT-32"/>
      <use transform="translate(294.628906 0.684375)" xlink:href="#ArialMT-91"/>
      <use transform="translate(322.412109 0.684375)" xlink:href="#DejaVuSans-Oblique-104"/>
      <use transform="translate(393.238724 38.965625)scale(0.7)" xlink:href="#DejaVuSans-8722"/>
      <use transform="translate(451.891068 38.965625)scale(0.7)" xlink:href="#DejaVuSans-49"/>
      <use transform="translate(499.161576 0.684375)" xlink:href="#ArialMT-93"/>
     </g>
    </g>
   </g>
   <g id="PolyCollection_1">
    <defs>
     <path d="M 123.990795 -69.370034 
L 86.850849 -69.370034 
L 84.223694 -70.187489 
L 82.890127 -71.004944 
L 82.733607 -71.822398 
L 83.275774 -72.639853 
L 83.927315 -73.457308 
L 84.260753 -74.274762 
L 84.158277 -75.092217 
L 83.78182 -75.909672 
L 83.417748 -76.727126 
L 83.300118 -77.544581 
L 83.502312 -78.362036 
L 83.933537 -79.17949 
L 84.418513 -79.996945 
L 84.801922 -80.8144 
L 85.017455 -81.631854 
L 85.091609 -82.449309 
L 85.095138 -83.266764 
L 85.083453 -84.084218 
L 85.065388 -84.901673 
L 85.013377 -85.719128 
L 84.898869 -86.536582 
L 84.724593 -87.354037 
L 84.534345 -88.171492 
L 84.399404 -88.988947 
L 84.393809 -89.806401 
L 84.571925 -90.623856 
L 84.95518 -91.441311 
L 85.528554 -92.258765 
L 86.245744 -93.07622 
L 87.042765 -93.893675 
L 87.858185 -94.711129 
L 88.65304 -95.528584 
L 89.419967 -96.346039 
L 90.175262 -97.163493 
L 90.938874 -97.980948 
L 91.716501 -98.798403 
L 92.496255 -99.615857 
L 93.260264 -100.433312 
L 93.999872 -101.250767 
L 94.721689 -102.068221 
L 95.440758 -102.885676 
L 96.167337 -103.703131 
L 96.896833 -104.520585 
L 97.608166 -105.33804 
L 98.270108 -106.155495 
L 98.852514 -106.972949 
L 99.338959 -107.790404 
L 99.736517 -108.607859 
L 100.077311 -109.425313 
L 100.408321 -110.242768 
L 100.772224 -111.060223 
L 101.188939 -111.877677 
L 101.648654 -112.695132 
L 102.120115 -113.512587 
L 102.567973 -114.330042 
L 102.967824 -115.147496 
L 103.311154 -115.964951 
L 103.600791 -116.782406 
L 103.843566 -117.59986 
L 104.046264 -118.417315 
L 104.215743 -119.23477 
L 104.359912 -120.052224 
L 104.486681 -120.869679 
L 104.60144 -121.687134 
L 104.7058 -122.504588 
L 104.799049 -123.322043 
L 104.880963 -124.139498 
L 104.953321 -124.956952 
L 105.019033 -125.774407 
L 105.080033 -126.591862 
L 105.135929 -127.409316 
L 105.184216 -128.226771 
L 105.221472 -129.044226 
L 105.244581 -129.86168 
L 105.251729 -130.679135 
L 105.243398 -131.49659 
L 105.223247 -132.314044 
L 105.198172 -133.131499 
L 105.176857 -133.948954 
L 105.16701 -134.766408 
L 105.172545 -135.583863 
L 105.192221 -136.401318 
L 105.220443 -137.218772 
L 105.249715 -138.036227 
L 105.273516 -138.853682 
L 105.288463 -139.671136 
L 105.295064 -140.488591 
L 105.296873 -141.306046 
L 105.29843 -142.123501 
L 105.302952 -142.940955 
L 105.31097 -143.75841 
L 105.320585 -144.575865 
L 105.328983 -145.393319 
L 105.334137 -146.210774 
L 105.335784 -147.028229 
L 105.335428 -147.845683 
L 105.335614 -148.663138 
L 105.338855 -149.480593 
L 105.346584 -150.298047 
L 105.495059 -150.298047 
L 105.495059 -150.298047 
L 105.502788 -149.480593 
L 105.506029 -148.663138 
L 105.506215 -147.845683 
L 105.505859 -147.028229 
L 105.507506 -146.210774 
L 105.51266 -145.393319 
L 105.521059 -144.575865 
L 105.530674 -143.75841 
L 105.538691 -142.940955 
L 105.543214 -142.123501 
L 105.544771 -141.306046 
L 105.54658 -140.488591 
L 105.553181 -139.671136 
L 105.568128 -138.853682 
L 105.591929 -138.036227 
L 105.6212 -137.218772 
L 105.649423 -136.401318 
L 105.669098 -135.583863 
L 105.674633 -134.766408 
L 105.664786 -133.948954 
L 105.643471 -133.131499 
L 105.618396 -132.314044 
L 105.598245 -131.49659 
L 105.589915 -130.679135 
L 105.597063 -129.86168 
L 105.620172 -129.044226 
L 105.657428 -128.226771 
L 105.705715 -127.409316 
L 105.76161 -126.591862 
L 105.822611 -125.774407 
L 105.888322 -124.956952 
L 105.960681 -124.139498 
L 106.042594 -123.322043 
L 106.135844 -122.504588 
L 106.240203 -121.687134 
L 106.354963 -120.869679 
L 106.481731 -120.052224 
L 106.625901 -119.23477 
L 106.79538 -118.417315 
L 106.998077 -117.59986 
L 107.240852 -116.782406 
L 107.53049 -115.964951 
L 107.87382 -115.147496 
L 108.273671 -114.330042 
L 108.721528 -113.512587 
L 109.19299 -112.695132 
L 109.652704 -111.877677 
L 110.06942 -111.060223 
L 110.433323 -110.242768 
L 110.764333 -109.425313 
L 111.105127 -108.607859 
L 111.502685 -107.790404 
L 111.98913 -106.972949 
L 112.571536 -106.155495 
L 113.233478 -105.33804 
L 113.94481 -104.520585 
L 114.674307 -103.703131 
L 115.400886 -102.885676 
L 116.119955 -102.068221 
L 116.841772 -101.250767 
L 117.58138 -100.433312 
L 118.345389 -99.615857 
L 119.125142 -98.798403 
L 119.902769 -97.980948 
L 120.666381 -97.163493 
L 121.421677 -96.346039 
L 122.188604 -95.528584 
L 122.983459 -94.711129 
L 123.798878 -93.893675 
L 124.5959 -93.07622 
L 125.313089 -92.258765 
L 125.886463 -91.441311 
L 126.269719 -90.623856 
L 126.447835 -89.806401 
L 126.442239 -88.988947 
L 126.307299 -88.171492 
L 126.11705 -87.354037 
L 125.942775 -86.536582 
L 125.828266 -85.719128 
L 125.776256 -84.901673 
L 125.75819 -84.084218 
L 125.746506 -83.266764 
L 125.750035 -82.449309 
L 125.824188 -81.631854 
L 126.039721 -80.8144 
L 126.423131 -79.996945 
L 126.908106 -79.17949 
L 127.339332 -78.362036 
L 127.541525 -77.544581 
L 127.423895 -76.727126 
L 127.059824 -75.909672 
L 126.683366 -75.092217 
L 126.580891 -74.274762 
L 126.914329 -73.457308 
L 127.56587 -72.639853 
L 128.108036 -71.822398 
L 127.951516 -71.004944 
L 126.617949 -70.187489 
L 123.990795 -69.370034 
z
" id="m7d3aaf0ac8" style="stroke:#141414;stroke-width:1.5;"/>
    </defs>
    <g clip-path="url(#p889221f822)">
     <use style="fill:#083c1d;stroke:#141414;stroke-width:1.5;" x="0" xlink:href="#m7d3aaf0ac8" y="536.575754"/>
    </g>
   </g>
   <g id="PolyCollection_2">
    <defs>
     <path d="M 165.617525 -69.370034 
L 135.972977 -69.370034 
L 134.138532 -70.302771 
L 132.917613 -71.235508 
L 132.396563 -72.168245 
L 132.549563 -73.100981 
L 133.252283 -74.033718 
L 134.317649 -74.966455 
L 135.541085 -75.899192 
L 136.741927 -76.831928 
L 137.791594 -77.764665 
L 138.624786 -78.697402 
L 139.235079 -79.630138 
L 139.659533 -80.562875 
L 139.958165 -81.495612 
L 140.193785 -82.428349 
L 140.416359 -83.361085 
L 140.65426 -84.293822 
L 140.912834 -85.226559 
L 141.179093 -86.159296 
L 141.430198 -87.092032 
L 141.642918 -88.024769 
L 141.801428 -88.957506 
L 141.901582 -89.890243 
L 141.950983 -90.822979 
L 141.965412 -91.755716 
L 141.963139 -92.688453 
L 141.959097 -93.62119 
L 141.960694 -94.553926 
L 141.966335 -95.486663 
L 141.966833 -96.4194 
L 141.948989 -97.352137 
L 141.90004 -98.284873 
L 141.811502 -99.21761 
L 141.681212 -100.150347 
L 141.513072 -101.083084 
L 141.314857 -102.01582 
L 141.095213 -102.948557 
L 140.861238 -103.881294 
L 140.617684 -104.814031 
L 140.367944 -105.746767 
L 140.116095 -106.679504 
L 139.868746 -107.612241 
L 139.63565 -108.544978 
L 139.428731 -109.477714 
L 139.260017 -110.410451 
L 139.139443 -111.343188 
L 139.073402 -112.275925 
L 139.064455 -113.208661 
L 139.112084 -114.141398 
L 139.214039 -115.074135 
L 139.367766 -116.006872 
L 139.571511 -116.939608 
L 139.824811 -117.872345 
L 140.128212 -118.805082 
L 140.482269 -119.737819 
L 140.886071 -120.670555 
L 141.335742 -121.603292 
L 141.823411 -122.536029 
L 142.337028 -123.468766 
L 142.861232 -124.401502 
L 143.379185 -125.334239 
L 143.875054 -126.266976 
L 144.336604 -127.199713 
L 144.757181 -128.132449 
L 145.1365 -129.065186 
L 145.479894 -129.997923 
L 145.796268 -130.93066 
L 146.095381 -131.863396 
L 146.385334 -132.796133 
L 146.670964 -133.72887 
L 146.953432 -134.661607 
L 147.230822 -135.594343 
L 147.499311 -136.52708 
L 147.754414 -137.459817 
L 147.991979 -138.392554 
L 148.208826 -139.32529 
L 148.403056 -140.258027 
L 148.57406 -141.190764 
L 148.722264 -142.123501 
L 148.848644 -143.056237 
L 148.954143 -143.988974 
L 149.039221 -144.921711 
L 149.103783 -145.854447 
L 149.147591 -146.787184 
L 149.171075 -147.719921 
L 149.176215 -148.652658 
L 149.167135 -149.585394 
L 149.150124 -150.518131 
L 149.133042 -151.450868 
L 149.124263 -152.383605 
L 149.131457 -153.316341 
L 149.160536 -154.249078 
L 149.21499 -155.181815 
L 149.295707 -156.114552 
L 149.401198 -157.047288 
L 149.528055 -157.980025 
L 149.671425 -158.912762 
L 149.825389 -159.845499 
L 149.983271 -160.778235 
L 150.138026 -161.710972 
L 151.452476 -161.710972 
L 151.452476 -161.710972 
L 151.60723 -160.778235 
L 151.765113 -159.845499 
L 151.919076 -158.912762 
L 152.062446 -157.980025 
L 152.189304 -157.047288 
L 152.294795 -156.114552 
L 152.375512 -155.181815 
L 152.429966 -154.249078 
L 152.459045 -153.316341 
L 152.466239 -152.383605 
L 152.45746 -151.450868 
L 152.440378 -150.518131 
L 152.423367 -149.585394 
L 152.414286 -148.652658 
L 152.419426 -147.719921 
L 152.44291 -146.787184 
L 152.486719 -145.854447 
L 152.55128 -144.921711 
L 152.636359 -143.988974 
L 152.741858 -143.056237 
L 152.868237 -142.123501 
L 153.016441 -141.190764 
L 153.187445 -140.258027 
L 153.381675 -139.32529 
L 153.598523 -138.392554 
L 153.836087 -137.459817 
L 154.091191 -136.52708 
L 154.35968 -135.594343 
L 154.637069 -134.661607 
L 154.919537 -133.72887 
L 155.205168 -132.796133 
L 155.495121 -131.863396 
L 155.794233 -130.93066 
L 156.110608 -129.997923 
L 156.454002 -129.065186 
L 156.83332 -128.132449 
L 157.253898 -127.199713 
L 157.715447 -126.266976 
L 158.211317 -125.334239 
L 158.729269 -124.401502 
L 159.253474 -123.468766 
L 159.767091 -122.536029 
L 160.254759 -121.603292 
L 160.704431 -120.670555 
L 161.108232 -119.737819 
L 161.462289 -118.805082 
L 161.765691 -117.872345 
L 162.01899 -116.939608 
L 162.222736 -116.006872 
L 162.376462 -115.074135 
L 162.478417 -114.141398 
L 162.526047 -113.208661 
L 162.5171 -112.275925 
L 162.451058 -111.343188 
L 162.330484 -110.410451 
L 162.161771 -109.477714 
L 161.954851 -108.544978 
L 161.721756 -107.612241 
L 161.474407 -106.679504 
L 161.222557 -105.746767 
L 160.972818 -104.814031 
L 160.729264 -103.881294 
L 160.495289 -102.948557 
L 160.275644 -102.01582 
L 160.07743 -101.083084 
L 159.90929 -100.150347 
L 159.779 -99.21761 
L 159.690461 -98.284873 
L 159.641513 -97.352137 
L 159.623669 -96.4194 
L 159.624167 -95.486663 
L 159.629807 -94.553926 
L 159.631404 -93.62119 
L 159.627363 -92.688453 
L 159.62509 -91.755716 
L 159.639518 -90.822979 
L 159.68892 -89.890243 
L 159.789073 -88.957506 
L 159.947583 -88.024769 
L 160.160304 -87.092032 
L 160.411409 -86.159296 
L 160.677667 -85.226559 
L 160.936242 -84.293822 
L 161.174143 -83.361085 
L 161.396717 -82.428349 
L 161.632336 -81.495612 
L 161.930969 -80.562875 
L 162.355423 -79.630138 
L 162.965715 -78.697402 
L 163.798907 -77.764665 
L 164.848574 -76.831928 
L 166.049416 -75.899192 
L 167.272853 -74.966455 
L 168.338219 -74.033718 
L 169.040938 -73.100981 
L 169.193939 -72.168245 
L 168.672888 -71.235508 
L 167.45197 -70.302771 
L 165.617525 -69.370034 
z
" id="m5c62c4a512" style="stroke:#141414;stroke-width:1.5;"/>
    </defs>
    <g clip-path="url(#p889221f822)">
     <use style="fill:#0e5f2f;stroke:#141414;stroke-width:1.5;" x="0" xlink:href="#m5c62c4a512" y="536.575754"/>
    </g>
   </g>
   <g id="PolyCollection_3">
    <defs>
     <path d="M 238.335739 -71.185727 
L 199.378049 -71.185727 
L 198.107549 -73.805774 
L 197.131889 -76.425821 
L 196.482024 -79.045868 
L 196.16968 -81.665915 
L 196.187347 -84.285962 
L 196.510188 -86.906009 
L 197.099497 -89.526056 
L 197.907125 -92.146103 
L 198.880238 -94.76615 
L 199.965791 -97.386197 
L 201.114252 -100.006244 
L 202.282273 -102.626291 
L 203.434247 -105.246338 
L 204.542811 -107.866385 
L 205.588522 -110.486432 
L 206.558952 -113.10648 
L 207.44745 -115.726527 
L 208.25181 -118.346574 
L 208.972972 -120.966621 
L 209.613873 -123.586668 
L 210.178488 -126.206715 
L 210.671073 -128.826762 
L 211.095614 -131.446809 
L 211.455459 -134.066856 
L 211.753121 -136.686903 
L 211.990222 -139.30695 
L 212.167559 -141.926997 
L 212.285258 -144.547044 
L 212.342987 -147.167091 
L 212.340205 -149.787138 
L 212.276411 -152.407185 
L 212.151398 -155.027232 
L 211.965484 -157.647279 
L 211.719723 -160.267326 
L 211.416106 -162.887373 
L 211.05774 -165.50742 
L 210.649015 -168.127467 
L 210.19574 -170.747514 
L 209.70524 -173.367561 
L 209.186398 -175.987609 
L 208.649606 -178.607656 
L 208.106603 -181.227703 
L 207.570192 -183.84775 
L 207.053822 -186.467797 
L 206.571039 -189.087844 
L 206.134851 -191.707891 
L 205.757042 -194.327938 
L 205.447503 -196.947985 
L 205.213643 -199.568032 
L 205.059948 -202.188079 
L 204.987735 -204.808126 
L 204.995142 -207.428173 
L 205.077334 -210.04822 
L 205.226936 -212.668267 
L 205.434614 -215.288314 
L 205.689771 -217.908361 
L 205.981273 -220.528408 
L 206.298148 -223.148455 
L 206.630196 -225.768502 
L 206.968482 -228.388549 
L 207.305674 -231.008596 
L 207.636235 -233.628643 
L 207.956473 -236.24869 
L 208.264474 -238.868737 
L 208.559935 -241.488785 
L 208.843939 -244.108832 
L 209.118683 -246.728879 
L 209.387187 -249.348926 
L 209.652987 -251.968973 
L 209.919837 -254.58902 
L 210.191418 -257.209067 
L 210.47107 -259.829114 
L 210.761557 -262.449161 
L 211.064869 -265.069208 
L 211.382096 -267.689255 
L 211.713348 -270.309302 
L 212.057766 -272.929349 
L 212.41359 -275.549396 
L 212.778298 -278.169443 
L 213.148789 -280.78949 
L 213.521597 -283.409537 
L 213.893119 -286.029584 
L 214.259819 -288.649631 
L 214.618417 -291.269678 
L 214.966024 -293.889725 
L 215.300231 -296.509772 
L 215.619154 -299.129819 
L 215.921429 -301.749866 
L 216.206177 -304.369914 
L 216.47295 -306.989961 
L 216.721661 -309.610008 
L 216.952512 -312.230055 
L 217.165932 -314.850102 
L 217.36251 -317.470149 
L 217.542945 -320.090196 
L 217.707998 -322.710243 
L 217.858451 -325.33029 
L 217.995073 -327.950337 
L 218.118597 -330.570384 
L 219.595192 -330.570384 
L 219.595192 -330.570384 
L 219.718716 -327.950337 
L 219.855338 -325.33029 
L 220.00579 -322.710243 
L 220.170844 -320.090196 
L 220.351279 -317.470149 
L 220.547857 -314.850102 
L 220.761276 -312.230055 
L 220.992128 -309.610008 
L 221.240838 -306.989961 
L 221.507612 -304.369914 
L 221.79236 -301.749866 
L 222.094634 -299.129819 
L 222.413557 -296.509772 
L 222.747765 -293.889725 
L 223.095372 -291.269678 
L 223.45397 -288.649631 
L 223.82067 -286.029584 
L 224.192191 -283.409537 
L 224.565 -280.78949 
L 224.93549 -278.169443 
L 225.300198 -275.549396 
L 225.656023 -272.929349 
L 226.000441 -270.309302 
L 226.331693 -267.689255 
L 226.648919 -265.069208 
L 226.952232 -262.449161 
L 227.242718 -259.829114 
L 227.522371 -257.209067 
L 227.793951 -254.58902 
L 228.060801 -251.968973 
L 228.326601 -249.348926 
L 228.595105 -246.728879 
L 228.86985 -244.108832 
L 229.153854 -241.488785 
L 229.449314 -238.868737 
L 229.757315 -236.24869 
L 230.077554 -233.628643 
L 230.408115 -231.008596 
L 230.745307 -228.388549 
L 231.083593 -225.768502 
L 231.415641 -223.148455 
L 231.732516 -220.528408 
L 232.024018 -217.908361 
L 232.279175 -215.288314 
L 232.486853 -212.668267 
L 232.636455 -210.04822 
L 232.718647 -207.428173 
L 232.726053 -204.808126 
L 232.653841 -202.188079 
L 232.500145 -199.568032 
L 232.266285 -196.947985 
L 231.956746 -194.327938 
L 231.578938 -191.707891 
L 231.14275 -189.087844 
L 230.659967 -186.467797 
L 230.143596 -183.84775 
L 229.607186 -181.227703 
L 229.064183 -178.607656 
L 228.52739 -175.987609 
L 228.008549 -173.367561 
L 227.518049 -170.747514 
L 227.064773 -168.127467 
L 226.656048 -165.50742 
L 226.297683 -162.887373 
L 225.994066 -160.267326 
L 225.748305 -157.647279 
L 225.56239 -155.027232 
L 225.437378 -152.407185 
L 225.373584 -149.787138 
L 225.370801 -147.167091 
L 225.428531 -144.547044 
L 225.54623 -141.926997 
L 225.723567 -139.30695 
L 225.960668 -136.686903 
L 226.25833 -134.066856 
L 226.618175 -131.446809 
L 227.042716 -128.826762 
L 227.5353 -126.206715 
L 228.099915 -123.586668 
L 228.740817 -120.966621 
L 229.461979 -118.346574 
L 230.266339 -115.726527 
L 231.154837 -113.10648 
L 232.125266 -110.486432 
L 233.170978 -107.866385 
L 234.279542 -105.246338 
L 235.431515 -102.626291 
L 236.599537 -100.006244 
L 237.747998 -97.386197 
L 238.833551 -94.76615 
L 239.806663 -92.146103 
L 240.614291 -89.526056 
L 241.203601 -86.906009 
L 241.526442 -84.285962 
L 241.544109 -81.665915 
L 241.231765 -79.045868 
L 240.5819 -76.425821 
L 239.60624 -73.805774 
L 238.335739 -71.185727 
z
" id="mc8d1c178f2" style="stroke:#141414;stroke-width:1.5;"/>
    </defs>
    <g clip-path="url(#p889221f822)">
     <use style="fill:#083c1d;stroke:#141414;stroke-width:1.5;" x="0" xlink:href="#mc8d1c178f2" y="536.575754"/>
    </g>
   </g>
   <g id="PolyCollection_4">
    <defs>
     <path d="M 276.701513 -70.926342 
L 251.761134 -70.926342 
L 251.105357 -75.335881 
L 250.787862 -79.745421 
L 250.818268 -84.15496 
L 251.174402 -88.564499 
L 251.806354 -92.974038 
L 252.644394 -97.383577 
L 253.609126 -101.793116 
L 254.621945 -106.202656 
L 255.614008 -110.612195 
L 256.532484 -115.021734 
L 257.343513 -119.431273 
L 258.032003 -123.840812 
L 258.598908 -128.250351 
L 259.056904 -132.659891 
L 259.425436 -137.06943 
L 259.725978 -141.478969 
L 259.978145 -145.888508 
L 260.197005 -150.298047 
L 260.391742 -154.707586 
L 260.565566 -159.117126 
L 260.716644 -163.526665 
L 260.839692 -167.936204 
L 260.927847 -172.345743 
L 260.974441 -176.755282 
L 260.974384 -181.164821 
L 260.92498 -185.574361 
L 260.82613 -189.9839 
L 260.680023 -194.393439 
L 260.490476 -198.802978 
L 260.262154 -203.212517 
L 259.999867 -207.622056 
L 259.708105 -212.031596 
L 259.390876 -216.441135 
L 259.051825 -220.850674 
L 258.694584 -225.260213 
L 258.3232 -229.669752 
L 257.94255 -234.079291 
L 257.558615 -238.488831 
L 257.17854 -242.89837 
L 256.810452 -247.307909 
L 256.463032 -251.717448 
L 256.144895 -256.126987 
L 255.863843 -260.536527 
L 255.626103 -264.946066 
L 255.435656 -269.355605 
L 255.293763 -273.765144 
L 255.198779 -278.174683 
L 255.146288 -282.584222 
L 255.129573 -286.993762 
L 255.140337 -291.403301 
L 255.169608 -295.81284 
L 255.208708 -300.222379 
L 255.250158 -304.631918 
L 255.288435 -309.041457 
L 255.320497 -313.450997 
L 255.34604 -317.860536 
L 255.367465 -322.270075 
L 255.389577 -326.679614 
L 255.419038 -331.089153 
L 255.463637 -335.498692 
L 255.531446 -339.908232 
L 255.629939 -344.317771 
L 255.765178 -348.72731 
L 255.941155 -353.136849 
L 256.159362 -357.546388 
L 256.418657 -361.955927 
L 256.715426 -366.365467 
L 257.044012 -370.775006 
L 257.397338 -375.184545 
L 257.767622 -379.594084 
L 258.147066 -384.003623 
L 258.528426 -388.413162 
L 258.905402 -392.822702 
L 259.272838 -397.232241 
L 259.626735 -401.64178 
L 259.964152 -406.051319 
L 260.283045 -410.460858 
L 260.582093 -414.870397 
L 260.860563 -419.279937 
L 261.118221 -423.689476 
L 261.355289 -428.099015 
L 261.572431 -432.508554 
L 261.770752 -436.918093 
L 261.951775 -441.327632 
L 262.117403 -445.737172 
L 262.269833 -450.146711 
L 262.411443 -454.55625 
L 262.544645 -458.965789 
L 262.671731 -463.375328 
L 262.79471 -467.784867 
L 262.915169 -472.194407 
L 263.034161 -476.603946 
L 263.152136 -481.013485 
L 263.268928 -485.423024 
L 263.383797 -489.832563 
L 263.495532 -494.242102 
L 263.602606 -498.651642 
L 263.703362 -503.061181 
L 263.796219 -507.47072 
L 264.666427 -507.47072 
L 264.666427 -507.47072 
L 264.759285 -503.061181 
L 264.860041 -498.651642 
L 264.967114 -494.242102 
L 265.07885 -489.832563 
L 265.193719 -485.423024 
L 265.310511 -481.013485 
L 265.428486 -476.603946 
L 265.547477 -472.194407 
L 265.667936 -467.784867 
L 265.790916 -463.375328 
L 265.918002 -458.965789 
L 266.051204 -454.55625 
L 266.192814 -450.146711 
L 266.345244 -445.737172 
L 266.510871 -441.327632 
L 266.691895 -436.918093 
L 266.890215 -432.508554 
L 267.107358 -428.099015 
L 267.344426 -423.689476 
L 267.602084 -419.279937 
L 267.880553 -414.870397 
L 268.179601 -410.460858 
L 268.498494 -406.051319 
L 268.835912 -401.64178 
L 269.189809 -397.232241 
L 269.557244 -392.822702 
L 269.934221 -388.413162 
L 270.315581 -384.003623 
L 270.695025 -379.594084 
L 271.065309 -375.184545 
L 271.418635 -370.775006 
L 271.74722 -366.365467 
L 272.043989 -361.955927 
L 272.303285 -357.546388 
L 272.521492 -353.136849 
L 272.697469 -348.72731 
L 272.832708 -344.317771 
L 272.931201 -339.908232 
L 272.999009 -335.498692 
L 273.043609 -331.089153 
L 273.073069 -326.679614 
L 273.095181 -322.270075 
L 273.116607 -317.860536 
L 273.14215 -313.450997 
L 273.174212 -309.041457 
L 273.212489 -304.631918 
L 273.253939 -300.222379 
L 273.293039 -295.81284 
L 273.32231 -291.403301 
L 273.333073 -286.993762 
L 273.316358 -282.584222 
L 273.263868 -278.174683 
L 273.168883 -273.765144 
L 273.02699 -269.355605 
L 272.836543 -264.946066 
L 272.598804 -260.536527 
L 272.317752 -256.126987 
L 271.999615 -251.717448 
L 271.652195 -247.307909 
L 271.284107 -242.89837 
L 270.904032 -238.488831 
L 270.520097 -234.079291 
L 270.139447 -229.669752 
L 269.768063 -225.260213 
L 269.410821 -220.850674 
L 269.071771 -216.441135 
L 268.754541 -212.031596 
L 268.46278 -207.622056 
L 268.200493 -203.212517 
L 267.972171 -198.802978 
L 267.782624 -194.393439 
L 267.636517 -189.9839 
L 267.537667 -185.574361 
L 267.488262 -181.164821 
L 267.488206 -176.755282 
L 267.5348 -172.345743 
L 267.622955 -167.936204 
L 267.746003 -163.526665 
L 267.897081 -159.117126 
L 268.070905 -154.707586 
L 268.265642 -150.298047 
L 268.484502 -145.888508 
L 268.736668 -141.478969 
L 269.037211 -137.06943 
L 269.405743 -132.659891 
L 269.863739 -128.250351 
L 270.430644 -123.840812 
L 271.119134 -119.431273 
L 271.930163 -115.021734 
L 272.848639 -110.612195 
L 273.840702 -106.202656 
L 274.853521 -101.793116 
L 275.818253 -97.383577 
L 276.656293 -92.974038 
L 277.288245 -88.564499 
L 277.644379 -84.15496 
L 277.674784 -79.745421 
L 277.35729 -75.335881 
L 276.701513 -70.926342 
z
" id="m441217b68c" style="stroke:#141414;stroke-width:1.5;"/>
    </defs>
    <g clip-path="url(#p889221f822)">
     <use style="fill:#0e5f2f;stroke:#141414;stroke-width:1.5;" x="0" xlink:href="#m441217b68c" y="536.575754"/>
    </g>
   </g>
   <g id="PolyCollection_5">
    <defs>
     <path d="M 348.055993 -69.370034 
L 316.52994 -69.370034 
L 314.050565 -70.200589 
L 312.015168 -71.031144 
L 310.567162 -71.861699 
L 309.769914 -72.692254 
L 309.605752 -73.522809 
L 309.99208 -74.353364 
L 310.806669 -75.183919 
L 311.913229 -76.014474 
L 313.180965 -76.845028 
L 314.496 -77.675583 
L 315.766079 -78.506138 
L 316.921478 -79.336693 
L 317.914615 -80.167248 
L 318.71943 -80.997803 
L 319.33021 -81.828358 
L 319.759054 -82.658913 
L 320.031559 -83.489468 
L 320.18122 -84.320023 
L 320.243756 -85.150578 
L 320.252673 -85.981133 
L 320.236788 -86.811687 
L 320.219575 -87.642242 
L 320.219491 -88.472797 
L 320.250339 -89.303352 
L 320.321043 -90.133907 
L 320.434856 -90.964462 
L 320.588458 -91.795017 
L 320.771624 -92.625572 
L 320.968022 -93.456127 
L 321.157307 -94.286682 
L 321.318252 -95.117237 
L 321.432184 -95.947791 
L 321.48581 -96.778346 
L 321.472681 -97.608901 
L 321.393059 -98.439456 
L 321.252623 -99.270011 
L 321.060843 -100.100566 
L 320.829752 -100.931121 
L 320.573376 -101.761676 
L 320.307403 -102.592231 
L 320.048499 -103.422786 
L 319.812889 -104.253341 
L 319.614484 -105.083895 
L 319.463344 -105.91445 
L 319.365274 -106.745005 
L 319.322863 -107.57556 
L 319.337479 -108.406115 
L 319.411205 -109.23667 
L 319.54764 -110.067225 
L 319.751111 -110.89778 
L 320.024596 -111.728335 
L 320.367359 -112.55889 
L 320.773444 -113.389445 
L 321.231792 -114.22 
L 321.727999 -115.050554 
L 322.247003 -115.881109 
L 322.775676 -116.711664 
L 323.304446 -117.542219 
L 323.827637 -118.372774 
L 324.342771 -119.203329 
L 324.849409 -120.033884 
L 325.348066 -120.864439 
L 325.839432 -121.694994 
L 326.323851 -122.525549 
L 326.800898 -123.356104 
L 327.268975 -124.186658 
L 327.725043 -125.017213 
L 328.164698 -125.847768 
L 328.582702 -126.678323 
L 328.973919 -127.508878 
L 329.33433 -128.339433 
L 329.661794 -129.169988 
L 329.956284 -130.000543 
L 330.219606 -130.831098 
L 330.454777 -131.661653 
L 330.665322 -132.492208 
L 330.854709 -133.322763 
L 331.025985 -134.153317 
L 331.181616 -134.983872 
L 331.323459 -135.814427 
L 331.452818 -136.644982 
L 331.570555 -137.475537 
L 331.677204 -138.306092 
L 331.773093 -139.136647 
L 331.85845 -139.967202 
L 331.933495 -140.797757 
L 331.998534 -141.628312 
L 332.054036 -142.458867 
L 332.100664 -143.289421 
L 332.139252 -144.119976 
L 332.170719 -144.950531 
L 332.19597 -145.781086 
L 332.215827 -146.611641 
L 332.23103 -147.442196 
L 332.242299 -148.272751 
L 332.250395 -149.103306 
L 332.256154 -149.933861 
L 332.260438 -150.764416 
L 332.264024 -151.594971 
L 332.32191 -151.594971 
L 332.32191 -151.594971 
L 332.325496 -150.764416 
L 332.32978 -149.933861 
L 332.335539 -149.103306 
L 332.343635 -148.272751 
L 332.354903 -147.442196 
L 332.370107 -146.611641 
L 332.389964 -145.781086 
L 332.415214 -144.950531 
L 332.446682 -144.119976 
L 332.48527 -143.289421 
L 332.531898 -142.458867 
L 332.5874 -141.628312 
L 332.652439 -140.797757 
L 332.727484 -139.967202 
L 332.812841 -139.136647 
L 332.90873 -138.306092 
L 333.015379 -137.475537 
L 333.133115 -136.644982 
L 333.262475 -135.814427 
L 333.404318 -134.983872 
L 333.559949 -134.153317 
L 333.731225 -133.322763 
L 333.920611 -132.492208 
L 334.131157 -131.661653 
L 334.366327 -130.831098 
L 334.62965 -130.000543 
L 334.92414 -129.169988 
L 335.251603 -128.339433 
L 335.612015 -127.508878 
L 336.003232 -126.678323 
L 336.421236 -125.847768 
L 336.86089 -125.017213 
L 337.316959 -124.186658 
L 337.785035 -123.356104 
L 338.262082 -122.525549 
L 338.746502 -121.694994 
L 339.237868 -120.864439 
L 339.736525 -120.033884 
L 340.243163 -119.203329 
L 340.758297 -118.372774 
L 341.281488 -117.542219 
L 341.810258 -116.711664 
L 342.33893 -115.881109 
L 342.857935 -115.050554 
L 343.354142 -114.22 
L 343.81249 -113.389445 
L 344.218575 -112.55889 
L 344.561338 -111.728335 
L 344.834823 -110.89778 
L 345.038294 -110.067225 
L 345.174729 -109.23667 
L 345.248454 -108.406115 
L 345.263071 -107.57556 
L 345.220659 -106.745005 
L 345.12259 -105.91445 
L 344.97145 -105.083895 
L 344.773045 -104.253341 
L 344.537435 -103.422786 
L 344.278531 -102.592231 
L 344.012558 -101.761676 
L 343.756182 -100.931121 
L 343.525091 -100.100566 
L 343.33331 -99.270011 
L 343.192875 -98.439456 
L 343.113253 -97.608901 
L 343.100123 -96.778346 
L 343.15375 -95.947791 
L 343.267682 -95.117237 
L 343.428627 -94.286682 
L 343.617912 -93.456127 
L 343.81431 -92.625572 
L 343.997476 -91.795017 
L 344.151078 -90.964462 
L 344.264891 -90.133907 
L 344.335595 -89.303352 
L 344.366442 -88.472797 
L 344.366359 -87.642242 
L 344.349146 -86.811687 
L 344.333261 -85.981133 
L 344.342178 -85.150578 
L 344.404714 -84.320023 
L 344.554375 -83.489468 
L 344.82688 -82.658913 
L 345.255723 -81.828358 
L 345.866504 -80.997803 
L 346.671319 -80.167248 
L 347.664456 -79.336693 
L 348.819855 -78.506138 
L 350.089934 -77.675583 
L 351.404969 -76.845028 
L 352.672705 -76.014474 
L 353.779265 -75.183919 
L 354.593853 -74.353364 
L 354.980181 -73.522809 
L 354.81602 -72.692254 
L 354.018772 -71.861699 
L 352.570766 -71.031144 
L 350.535369 -70.200589 
L 348.055993 -69.370034 
z
" id="mec424f2020" style="stroke:#141414;stroke-width:1.5;"/>
    </defs>
    <g clip-path="url(#p889221f822)">
     <use style="fill:#083c1d;stroke:#141414;stroke-width:1.5;" x="0" xlink:href="#mec424f2020" y="536.575754"/>
    </g>
   </g>
   <g id="PolyCollection_6">
    <defs>
     <path d="M 391.240925 -69.370034 
L 364.093866 -69.370034 
L 362.655397 -70.716738 
L 362.046696 -72.063443 
L 362.283042 -73.410147 
L 363.20323 -74.756851 
L 364.533624 -76.103555 
L 365.983061 -77.450259 
L 367.32676 -78.796964 
L 368.4483 -80.143668 
L 369.332789 -81.490372 
L 370.026584 -82.837076 
L 370.588789 -84.18378 
L 371.055813 -85.530484 
L 371.428557 -86.877189 
L 371.679937 -88.223893 
L 371.773481 -89.570597 
L 371.682652 -90.917301 
L 371.403599 -92.264005 
L 370.958484 -93.61071 
L 370.39041 -94.957414 
L 369.753233 -96.304118 
L 369.10017 -97.650822 
L 368.474539 -98.997526 
L 367.904725 -100.34423 
L 367.403999 -101.690935 
L 366.974393 -103.037639 
L 366.612833 -104.384343 
L 366.317247 -105.731047 
L 366.090665 -107.077751 
L 365.942239 -108.424455 
L 365.885379 -109.77116 
L 365.934142 -111.117864 
L 366.099296 -112.464568 
L 366.385135 -113.811272 
L 366.787462 -115.157976 
L 367.292814 -116.504681 
L 367.878936 -117.851385 
L 368.516682 -119.198089 
L 369.173381 -120.544793 
L 369.817263 -121.891497 
L 370.421959 -123.238201 
L 370.969865 -124.584906 
L 371.453447 -125.93161 
L 371.874258 -127.278314 
L 372.240217 -128.625018 
L 372.562168 -129.971722 
L 372.850815 -131.318427 
L 373.114823 -132.665131 
L 373.360301 -134.011835 
L 373.591318 -135.358539 
L 373.810786 -136.705243 
L 374.021026 -138.051947 
L 374.223749 -139.398652 
L 374.419633 -140.745356 
L 374.607939 -142.09206 
L 374.786556 -143.438764 
L 374.952544 -144.785468 
L 375.102932 -146.132172 
L 375.235445 -147.478877 
L 375.348932 -148.825581 
L 375.443456 -150.172285 
L 375.520123 -151.518989 
L 375.580809 -152.865693 
L 375.62789 -154.212398 
L 375.664058 -155.559102 
L 375.69219 -156.905806 
L 375.715232 -158.25251 
L 375.736 -159.599214 
L 375.756905 -160.945918 
L 375.779698 -162.292623 
L 375.805381 -163.639327 
L 375.834384 -164.986031 
L 375.866952 -166.332735 
L 375.903525 -167.679439 
L 375.944859 -169.026144 
L 375.991743 -170.372848 
L 376.044438 -171.719552 
L 376.102128 -173.066256 
L 376.162782 -174.41296 
L 376.223589 -175.759664 
L 376.281862 -177.106369 
L 376.335984 -178.453073 
L 376.38592 -179.799777 
L 376.433 -181.146481 
L 376.479066 -182.493185 
L 376.525394 -183.839889 
L 376.571952 -185.186594 
L 376.617339 -186.533298 
L 376.65939 -187.880002 
L 376.696098 -189.226706 
L 376.726415 -190.57341 
L 376.750714 -191.920115 
L 376.770915 -193.266819 
L 376.790443 -194.613523 
L 376.814018 -195.960227 
L 376.847115 -197.306931 
L 376.894886 -198.653635 
L 376.960632 -200.00034 
L 377.044334 -201.347044 
L 377.141979 -202.693748 
L 378.192813 -202.693748 
L 378.192813 -202.693748 
L 378.290458 -201.347044 
L 378.37416 -200.00034 
L 378.439906 -198.653635 
L 378.487677 -197.306931 
L 378.520774 -195.960227 
L 378.544349 -194.613523 
L 378.563877 -193.266819 
L 378.584078 -191.920115 
L 378.608377 -190.57341 
L 378.638694 -189.226706 
L 378.675401 -187.880002 
L 378.717453 -186.533298 
L 378.76284 -185.186594 
L 378.809398 -183.839889 
L 378.855726 -182.493185 
L 378.901792 -181.146481 
L 378.948872 -179.799777 
L 378.998808 -178.453073 
L 379.05293 -177.106369 
L 379.111203 -175.759664 
L 379.17201 -174.41296 
L 379.232664 -173.066256 
L 379.290354 -171.719552 
L 379.343049 -170.372848 
L 379.389933 -169.026144 
L 379.431266 -167.679439 
L 379.46784 -166.332735 
L 379.500408 -164.986031 
L 379.529411 -163.639327 
L 379.555094 -162.292623 
L 379.577887 -160.945918 
L 379.598792 -159.599214 
L 379.61956 -158.25251 
L 379.642602 -156.905806 
L 379.670734 -155.559102 
L 379.706902 -154.212398 
L 379.753983 -152.865693 
L 379.814669 -151.518989 
L 379.891336 -150.172285 
L 379.98586 -148.825581 
L 380.099347 -147.478877 
L 380.231859 -146.132172 
L 380.382247 -144.785468 
L 380.548236 -143.438764 
L 380.726853 -142.09206 
L 380.915159 -140.745356 
L 381.111043 -139.398652 
L 381.313766 -138.051947 
L 381.524006 -136.705243 
L 381.743473 -135.358539 
L 381.974491 -134.011835 
L 382.219969 -132.665131 
L 382.483977 -131.318427 
L 382.772624 -129.971722 
L 383.094575 -128.625018 
L 383.460534 -127.278314 
L 383.881345 -125.93161 
L 384.364927 -124.584906 
L 384.912833 -123.238201 
L 385.517528 -121.891497 
L 386.161411 -120.544793 
L 386.81811 -119.198089 
L 387.455856 -117.851385 
L 388.041978 -116.504681 
L 388.54733 -115.157976 
L 388.949657 -113.811272 
L 389.235496 -112.464568 
L 389.40065 -111.117864 
L 389.449413 -109.77116 
L 389.392553 -108.424455 
L 389.244127 -107.077751 
L 389.017545 -105.731047 
L 388.721959 -104.384343 
L 388.360399 -103.037639 
L 387.930793 -101.690935 
L 387.430067 -100.34423 
L 386.860253 -98.997526 
L 386.234621 -97.650822 
L 385.581559 -96.304118 
L 384.944382 -94.957414 
L 384.376308 -93.61071 
L 383.931193 -92.264005 
L 383.65214 -90.917301 
L 383.561311 -89.570597 
L 383.654854 -88.223893 
L 383.906235 -86.877189 
L 384.278978 -85.530484 
L 384.746003 -84.18378 
L 385.308208 -82.837076 
L 386.002003 -81.490372 
L 386.886491 -80.143668 
L 388.008031 -78.796964 
L 389.35173 -77.450259 
L 390.801168 -76.103555 
L 392.131561 -74.756851 
L 393.05175 -73.410147 
L 393.288096 -72.063443 
L 392.679395 -70.716738 
L 391.240925 -69.370034 
z
" id="mea06c09a10" style="stroke:#141414;stroke-width:1.5;"/>
    </defs>
    <g clip-path="url(#p889221f822)">
     <use style="fill:#0e5f2f;stroke:#141414;stroke-width:1.5;" x="0" xlink:href="#mea06c09a10" y="536.575754"/>
    </g>
   </g>
   <g id="PolyCollection_7">
    <defs>
     <path d="M 463.62708 -69.370034 
L 427.830999 -69.370034 
L 425.610109 -70.23465 
L 424.006929 -71.099265 
L 423.143407 -71.963881 
L 423.041825 -72.828496 
L 423.62654 -73.693112 
L 424.746091 -74.557727 
L 426.208097 -75.422343 
L 427.81688 -76.286958 
L 429.404735 -77.151574 
L 430.851259 -78.01619 
L 432.089331 -78.880805 
L 433.099885 -79.745421 
L 433.899554 -80.610036 
L 434.525683 -81.474652 
L 435.022428 -82.339267 
L 435.43029 -83.203883 
L 435.780001 -84.068498 
L 436.090505 -84.933114 
L 436.369989 -85.797729 
L 436.618608 -86.662345 
L 436.831619 -87.52696 
L 437.002013 -88.391576 
L 437.122255 -89.256191 
L 437.185259 -90.120807 
L 437.185 -90.985422 
L 437.117235 -91.850038 
L 436.980553 -92.714653 
L 436.777642 -93.579269 
L 436.516306 -94.443884 
L 436.209696 -95.3085 
L 435.875319 -96.173116 
L 435.532795 -97.037731 
L 435.200802 -97.902347 
L 434.894048 -98.766962 
L 434.621197 -99.631578 
L 434.384471 -100.496193 
L 434.181067 -101.360809 
L 434.005855 -102.225424 
L 433.854332 -103.09004 
L 433.724728 -103.954655 
L 433.618522 -104.819271 
L 433.539365 -105.683886 
L 433.491084 -106.548502 
L 433.4758 -107.413117 
L 433.493049 -108.277733 
L 433.540248 -109.142348 
L 433.61417 -110.006964 
L 433.712655 -110.871579 
L 433.835751 -111.736195 
L 433.985829 -112.60081 
L 434.16672 -113.465426 
L 434.382358 -114.330042 
L 434.635533 -115.194657 
L 434.927186 -116.059273 
L 435.256388 -116.923888 
L 435.620819 -117.788504 
L 436.017401 -118.653119 
L 436.442793 -119.517735 
L 436.893577 -120.38235 
L 437.366152 -121.246966 
L 437.8565 -122.111581 
L 438.359969 -122.976197 
L 438.87123 -123.840812 
L 439.384419 -124.705428 
L 439.893464 -125.570043 
L 440.392492 -126.434659 
L 440.87623 -127.299274 
L 441.34027 -128.16389 
L 441.781148 -129.028505 
L 442.196205 -129.893121 
L 442.583294 -130.757736 
L 442.940499 -131.622352 
L 443.266001 -132.486967 
L 443.558232 -133.351583 
L 443.816272 -134.216199 
L 444.040368 -135.080814 
L 444.232321 -135.94543 
L 444.395559 -136.810045 
L 444.534803 -137.674661 
L 444.655399 -138.539276 
L 444.762515 -139.403892 
L 444.860426 -140.268507 
L 444.95207 -141.133123 
L 445.038942 -141.997738 
L 445.121297 -142.862354 
L 445.198549 -143.726969 
L 445.269737 -144.591585 
L 445.333933 -145.4562 
L 445.390531 -146.320816 
L 445.439381 -147.185431 
L 445.480802 -148.050047 
L 445.515503 -148.914662 
L 445.544452 -149.779278 
L 445.568744 -150.643893 
L 445.589475 -151.508509 
L 445.607632 -152.373125 
L 445.624018 -153.23774 
L 445.639196 -154.102356 
L 445.653468 -154.966971 
L 445.804611 -154.966971 
L 445.804611 -154.966971 
L 445.818883 -154.102356 
L 445.834061 -153.23774 
L 445.850447 -152.373125 
L 445.868604 -151.508509 
L 445.889335 -150.643893 
L 445.913627 -149.779278 
L 445.942576 -148.914662 
L 445.977276 -148.050047 
L 446.018698 -147.185431 
L 446.067548 -146.320816 
L 446.124146 -145.4562 
L 446.188342 -144.591585 
L 446.25953 -143.726969 
L 446.336782 -142.862354 
L 446.419137 -141.997738 
L 446.506009 -141.133123 
L 446.597653 -140.268507 
L 446.695564 -139.403892 
L 446.80268 -138.539276 
L 446.923276 -137.674661 
L 447.06252 -136.810045 
L 447.225758 -135.94543 
L 447.417711 -135.080814 
L 447.641807 -134.216199 
L 447.899847 -133.351583 
L 448.192078 -132.486967 
L 448.51758 -131.622352 
L 448.874785 -130.757736 
L 449.261874 -129.893121 
L 449.676931 -129.028505 
L 450.117809 -128.16389 
L 450.581849 -127.299274 
L 451.065586 -126.434659 
L 451.564615 -125.570043 
L 452.07366 -124.705428 
L 452.586849 -123.840812 
L 453.098109 -122.976197 
L 453.601579 -122.111581 
L 454.091927 -121.246966 
L 454.564502 -120.38235 
L 455.015286 -119.517735 
L 455.440678 -118.653119 
L 455.83726 -117.788504 
L 456.201691 -116.923888 
L 456.530893 -116.059273 
L 456.822546 -115.194657 
L 457.075721 -114.330042 
L 457.291359 -113.465426 
L 457.47225 -112.60081 
L 457.622328 -111.736195 
L 457.745424 -110.871579 
L 457.843909 -110.006964 
L 457.917831 -109.142348 
L 457.96503 -108.277733 
L 457.982279 -107.413117 
L 457.966995 -106.548502 
L 457.918714 -105.683886 
L 457.839557 -104.819271 
L 457.733351 -103.954655 
L 457.603747 -103.09004 
L 457.452224 -102.225424 
L 457.277012 -101.360809 
L 457.073608 -100.496193 
L 456.836882 -99.631578 
L 456.56403 -98.766962 
L 456.257277 -97.902347 
L 455.925284 -97.037731 
L 455.58276 -96.173116 
L 455.248383 -95.3085 
L 454.941773 -94.443884 
L 454.680437 -93.579269 
L 454.477526 -92.714653 
L 454.340844 -91.850038 
L 454.273079 -90.985422 
L 454.27282 -90.120807 
L 454.335824 -89.256191 
L 454.456066 -88.391576 
L 454.62646 -87.52696 
L 454.839471 -86.662345 
L 455.08809 -85.797729 
L 455.367574 -84.933114 
L 455.678078 -84.068498 
L 456.027789 -83.203883 
L 456.435651 -82.339267 
L 456.932396 -81.474652 
L 457.558525 -80.610036 
L 458.358194 -79.745421 
L 459.368748 -78.880805 
L 460.60682 -78.01619 
L 462.053344 -77.151574 
L 463.641199 -76.286958 
L 465.249981 -75.422343 
L 466.711988 -74.557727 
L 467.831539 -73.693112 
L 468.416254 -72.828496 
L 468.314672 -71.963881 
L 467.45115 -71.099265 
L 465.84797 -70.23465 
L 463.62708 -69.370034 
z
" id="ma17b488c1e" style="stroke:#141414;stroke-width:1.5;"/>
    </defs>
    <g clip-path="url(#p889221f822)">
     <use style="fill:#083c1d;stroke:#141414;stroke-width:1.5;" x="0" xlink:href="#ma17b488c1e" y="536.575754"/>
    </g>
   </g>
   <g id="PolyCollection_8">
    <defs>
     <path d="M 505.586704 -69.370034 
L 476.620233 -69.370034 
L 475.045396 -70.989223 
L 474.616536 -72.608412 
L 475.30961 -74.227601 
L 476.852325 -75.846791 
L 478.849114 -77.46598 
L 480.918439 -79.085169 
L 482.782601 -80.704358 
L 484.293778 -82.323547 
L 485.41433 -83.942736 
L 486.178322 -85.561925 
L 486.653473 -87.181114 
L 486.912734 -88.800303 
L 487.018324 -90.419492 
L 487.017034 -92.038681 
L 486.942574 -93.65787 
L 486.819493 -95.277059 
L 486.66466 -96.896248 
L 486.48566 -98.515438 
L 486.278304 -100.134627 
L 486.02629 -101.753816 
L 485.704556 -103.373005 
L 485.285666 -104.992194 
L 484.74722 -106.611383 
L 484.078413 -108.230572 
L 483.285036 -109.849761 
L 482.392818 -111.46895 
L 481.448518 -113.088139 
L 480.517048 -114.707328 
L 479.67292 -116.326517 
L 478.986503 -117.945706 
L 478.509184 -119.564895 
L 478.263704 -121.184085 
L 478.244233 -122.803274 
L 478.425894 -124.422463 
L 478.778466 -126.041652 
L 479.277416 -127.660841 
L 479.907786 -129.28003 
L 480.660766 -130.899219 
L 481.526248 -132.518408 
L 482.485699 -134.137597 
L 483.508691 -135.756786 
L 484.554315 -137.375975 
L 485.576762 -138.995164 
L 486.532986 -140.614353 
L 487.38979 -142.233542 
L 488.128013 -143.852732 
L 488.742708 -145.471921 
L 489.239969 -147.09111 
L 489.63233 -148.710299 
L 489.93475 -150.329488 
L 490.162177 -151.948677 
L 490.328507 -153.567866 
L 490.446193 -155.187055 
L 490.525913 -156.806244 
L 490.576077 -158.425433 
L 490.602344 -160.044622 
L 490.607457 -161.663811 
L 490.591781 -163.283 
L 490.55469 -164.902189 
L 490.496479 -166.521379 
L 490.419996 -168.140568 
L 490.331175 -169.759757 
L 490.238136 -171.378946 
L 490.149368 -172.998135 
L 490.071978 -174.617324 
L 490.010806 -176.236513 
L 489.968599 -177.855702 
L 489.946709 -179.474891 
L 489.945578 -181.09408 
L 489.964594 -182.713269 
L 490.00157 -184.332458 
L 490.052508 -185.951647 
L 490.112172 -187.570836 
L 490.175337 -189.190026 
L 490.238033 -190.809215 
L 490.298113 -192.428404 
L 490.355004 -194.047593 
L 490.409012 -195.666782 
L 490.460701 -197.285971 
L 490.510562 -198.90516 
L 490.558867 -200.524349 
L 490.605517 -202.143538 
L 490.649817 -203.762727 
L 490.690341 -205.381916 
L 490.725075 -207.001105 
L 490.751888 -208.620294 
L 490.7692 -210.239483 
L 490.776617 -211.858673 
L 490.775329 -213.477862 
L 490.768136 -215.097051 
L 490.759108 -216.71624 
L 490.752958 -218.335429 
L 490.75421 -219.954618 
L 490.766271 -221.573807 
L 490.790608 -223.192996 
L 490.826285 -224.812185 
L 490.870135 -226.431374 
L 490.917573 -228.050563 
L 490.963774 -229.669752 
L 491.243163 -229.669752 
L 491.243163 -229.669752 
L 491.289364 -228.050563 
L 491.336802 -226.431374 
L 491.380652 -224.812185 
L 491.416329 -223.192996 
L 491.440666 -221.573807 
L 491.452727 -219.954618 
L 491.453979 -218.335429 
L 491.447829 -216.71624 
L 491.438801 -215.097051 
L 491.431608 -213.477862 
L 491.43032 -211.858673 
L 491.437737 -210.239483 
L 491.455049 -208.620294 
L 491.481862 -207.001105 
L 491.516596 -205.381916 
L 491.55712 -203.762727 
L 491.60142 -202.143538 
L 491.64807 -200.524349 
L 491.696375 -198.90516 
L 491.746236 -197.285971 
L 491.797925 -195.666782 
L 491.851933 -194.047593 
L 491.908824 -192.428404 
L 491.968904 -190.809215 
L 492.0316 -189.190026 
L 492.094765 -187.570836 
L 492.154429 -185.951647 
L 492.205367 -184.332458 
L 492.242343 -182.713269 
L 492.261359 -181.09408 
L 492.260228 -179.474891 
L 492.238338 -177.855702 
L 492.196131 -176.236513 
L 492.134959 -174.617324 
L 492.057569 -172.998135 
L 491.968801 -171.378946 
L 491.875762 -169.759757 
L 491.786941 -168.140568 
L 491.710458 -166.521379 
L 491.652247 -164.902189 
L 491.615156 -163.283 
L 491.59948 -161.663811 
L 491.604593 -160.044622 
L 491.63086 -158.425433 
L 491.681024 -156.806244 
L 491.760744 -155.187055 
L 491.87843 -153.567866 
L 492.04476 -151.948677 
L 492.272187 -150.329488 
L 492.574607 -148.710299 
L 492.966968 -147.09111 
L 493.464229 -145.471921 
L 494.078924 -143.852732 
L 494.817147 -142.233542 
L 495.673951 -140.614353 
L 496.630175 -138.995164 
L 497.652622 -137.375975 
L 498.698246 -135.756786 
L 499.721238 -134.137597 
L 500.680689 -132.518408 
L 501.546171 -130.899219 
L 502.299151 -129.28003 
L 502.929521 -127.660841 
L 503.428471 -126.041652 
L 503.781043 -124.422463 
L 503.962704 -122.803274 
L 503.943233 -121.184085 
L 503.697753 -119.564895 
L 503.220434 -117.945706 
L 502.534017 -116.326517 
L 501.689889 -114.707328 
L 500.758419 -113.088139 
L 499.814119 -111.46895 
L 498.921901 -109.849761 
L 498.128524 -108.230572 
L 497.459717 -106.611383 
L 496.921271 -104.992194 
L 496.502381 -103.373005 
L 496.180647 -101.753816 
L 495.928633 -100.134627 
L 495.721277 -98.515438 
L 495.542277 -96.896248 
L 495.387444 -95.277059 
L 495.264363 -93.65787 
L 495.189903 -92.038681 
L 495.188613 -90.419492 
L 495.294203 -88.800303 
L 495.553464 -87.181114 
L 496.028615 -85.561925 
L 496.792607 -83.942736 
L 497.913159 -82.323547 
L 499.424336 -80.704358 
L 501.288498 -79.085169 
L 503.357823 -77.46598 
L 505.354612 -75.846791 
L 506.897327 -74.227601 
L 507.590401 -72.608412 
L 507.161541 -70.989223 
L 505.586704 -69.370034 
z
" id="m01a6f1081c" style="stroke:#141414;stroke-width:1.5;"/>
    </defs>
    <g clip-path="url(#p889221f822)">
     <use style="fill:#0e5f2f;stroke:#141414;stroke-width:1.5;" x="0" xlink:href="#m01a6f1081c" y="536.575754"/>
    </g>
   </g>
   <g id="PolyCollection_9">
    <defs>
     <path d="M 573.646129 -69.370034 
L 544.684095 -69.370034 
L 542.307151 -70.339452 
L 540.384839 -71.308869 
L 539.030269 -72.278287 
L 538.243463 -73.247704 
L 537.921253 -74.217121 
L 537.896156 -75.186539 
L 537.988253 -76.155956 
L 538.05129 -77.125374 
L 537.9996 -78.094791 
L 537.812142 -79.064208 
L 537.518777 -80.033626 
L 537.178155 -81.003043 
L 536.856069 -81.972461 
L 536.609524 -82.941878 
L 536.477898 -83.911295 
L 536.479952 -84.880713 
L 536.614653 -85.85013 
L 536.864058 -86.819548 
L 537.19737 -87.788965 
L 537.575855 -88.758382 
L 537.958492 -89.7278 
L 538.30797 -90.697217 
L 538.596077 -91.666635 
L 538.807146 -92.636052 
L 538.938415 -93.605469 
L 538.996962 -94.574887 
L 538.994153 -95.544304 
L 538.93969 -96.513722 
L 538.837664 -97.483139 
L 538.68644 -98.452556 
L 538.482601 -99.421974 
L 538.227423 -100.391391 
L 537.933145 -101.360809 
L 537.62617 -102.330226 
L 537.345603 -103.299643 
L 537.137331 -104.269061 
L 537.045604 -105.238478 
L 537.104741 -106.207896 
L 537.333214 -107.177313 
L 537.731184 -108.14673 
L 538.281354 -109.116148 
L 538.952355 -110.085565 
L 539.70368 -111.054983 
L 540.491429 -112.0244 
L 541.274157 -112.993818 
L 542.017998 -113.963235 
L 542.700002 -114.932652 
L 543.308798 -115.90207 
L 543.842476 -116.871487 
L 544.304788 -117.840905 
L 544.701644 -118.810322 
L 545.039729 -119.779739 
L 545.327713 -120.749157 
L 545.578664 -121.718574 
L 545.811265 -122.687992 
L 546.047952 -123.657409 
L 546.310057 -124.626826 
L 546.612122 -125.596244 
L 546.958404 -126.565661 
L 547.343591 -127.535079 
L 547.757548 -128.504496 
L 548.191756 -129.473913 
L 548.644272 -130.443331 
L 549.120857 -131.412748 
L 549.631871 -132.382166 
L 550.186575 -133.351583 
L 550.78759 -134.321 
L 551.428062 -135.290418 
L 552.092641 -136.259835 
L 552.761642 -137.229253 
L 553.416368 -138.19867 
L 554.043366 -139.168087 
L 554.636093 -140.137505 
L 555.193837 -141.106922 
L 555.718886 -142.07634 
L 556.213422 -143.045757 
L 556.677419 -144.015174 
L 557.108086 -144.984592 
L 557.500679 -145.954009 
L 557.850042 -146.923427 
L 558.15215 -147.892844 
L 558.405166 -148.862262 
L 558.609818 -149.831679 
L 558.769221 -150.801096 
L 558.888358 -151.770514 
L 558.973436 -152.739931 
L 559.031238 -153.709349 
L 559.068517 -154.678766 
L 559.091442 -155.648183 
L 559.105137 -156.617601 
L 559.113389 -157.587018 
L 559.11859 -158.556436 
L 559.121957 -159.525853 
L 559.123947 -160.49527 
L 559.12474 -161.464688 
L 559.124621 -162.434105 
L 559.12415 -163.403523 
L 559.124088 -164.37294 
L 559.125164 -165.342357 
L 559.20506 -165.342357 
L 559.20506 -165.342357 
L 559.206136 -164.37294 
L 559.206074 -163.403523 
L 559.205603 -162.434105 
L 559.205484 -161.464688 
L 559.206277 -160.49527 
L 559.208267 -159.525853 
L 559.211634 -158.556436 
L 559.216835 -157.587018 
L 559.225087 -156.617601 
L 559.238782 -155.648183 
L 559.261707 -154.678766 
L 559.298986 -153.709349 
L 559.356788 -152.739931 
L 559.441866 -151.770514 
L 559.561003 -150.801096 
L 559.720406 -149.831679 
L 559.925058 -148.862262 
L 560.178074 -147.892844 
L 560.480182 -146.923427 
L 560.829545 -145.954009 
L 561.222138 -144.984592 
L 561.652805 -144.015174 
L 562.116802 -143.045757 
L 562.611338 -142.07634 
L 563.136387 -141.106922 
L 563.694131 -140.137505 
L 564.286858 -139.168087 
L 564.913856 -138.19867 
L 565.568582 -137.229253 
L 566.237583 -136.259835 
L 566.902162 -135.290418 
L 567.542634 -134.321 
L 568.143649 -133.351583 
L 568.698353 -132.382166 
L 569.209367 -131.412748 
L 569.685952 -130.443331 
L 570.138468 -129.473913 
L 570.572676 -128.504496 
L 570.986633 -127.535079 
L 571.37182 -126.565661 
L 571.718102 -125.596244 
L 572.020168 -124.626826 
L 572.282272 -123.657409 
L 572.518959 -122.687992 
L 572.751561 -121.718574 
L 573.002511 -120.749157 
L 573.290495 -119.779739 
L 573.62858 -118.810322 
L 574.025436 -117.840905 
L 574.487748 -116.871487 
L 575.021426 -115.90207 
L 575.630222 -114.932652 
L 576.312226 -113.963235 
L 577.056067 -112.993818 
L 577.838795 -112.0244 
L 578.626544 -111.054983 
L 579.377869 -110.085565 
L 580.04887 -109.116148 
L 580.599041 -108.14673 
L 580.99701 -107.177313 
L 581.225483 -106.207896 
L 581.28462 -105.238478 
L 581.192893 -104.269061 
L 580.984621 -103.299643 
L 580.704054 -102.330226 
L 580.397079 -101.360809 
L 580.102801 -100.391391 
L 579.847624 -99.421974 
L 579.643784 -98.452556 
L 579.49256 -97.483139 
L 579.390535 -96.513722 
L 579.336071 -95.544304 
L 579.333262 -94.574887 
L 579.391809 -93.605469 
L 579.523078 -92.636052 
L 579.734147 -91.666635 
L 580.022254 -90.697217 
L 580.371732 -89.7278 
L 580.754369 -88.758382 
L 581.132854 -87.788965 
L 581.466167 -86.819548 
L 581.715571 -85.85013 
L 581.850272 -84.880713 
L 581.852327 -83.911295 
L 581.7207 -82.941878 
L 581.474155 -81.972461 
L 581.152069 -81.003043 
L 580.811447 -80.033626 
L 580.518082 -79.064208 
L 580.330624 -78.094791 
L 580.278934 -77.125374 
L 580.341971 -76.155956 
L 580.434068 -75.186539 
L 580.408971 -74.217121 
L 580.086761 -73.247704 
L 579.299955 -72.278287 
L 577.945385 -71.308869 
L 576.023073 -70.339452 
L 573.646129 -69.370034 
z
" id="m10b87719e9" style="stroke:#141414;stroke-width:1.5;"/>
    </defs>
    <g clip-path="url(#p889221f822)">
     <use style="fill:#083c1d;stroke:#141414;stroke-width:1.5;" x="0" xlink:href="#m10b87719e9" y="536.575754"/>
    </g>
   </g>
   <g id="PolyCollection_10">
    <defs>
     <path d="M 618.871061 -69.370034 
L 590.208022 -69.370034 
L 587.767489 -70.619797 
L 585.784773 -71.869559 
L 584.436241 -73.119322 
L 583.807257 -74.369084 
L 583.883506 -75.618846 
L 584.565486 -76.868609 
L 585.698482 -78.118371 
L 587.107145 -79.368134 
L 588.625157 -80.617896 
L 590.114765 -81.867659 
L 591.475498 -83.117421 
L 592.644566 -84.367184 
L 593.592505 -85.616946 
L 594.31707 -86.866708 
L 594.837015 -88.116471 
L 595.186036 -89.366233 
L 595.406486 -90.615996 
L 595.542602 -91.865758 
L 595.633689 -93.115521 
L 595.708441 -94.365283 
L 595.781793 -95.615045 
L 595.855211 -96.864808 
L 595.920253 -98.11457 
L 595.964184 -99.364333 
L 595.975781 -100.614095 
L 595.949569 -101.863858 
L 595.887415 -103.11362 
L 595.797393 -104.363383 
L 595.690667 -105.613145 
L 595.577604 -106.862907 
L 595.464373 -108.11267 
L 595.35088 -109.362432 
L 595.230451 -110.612195 
L 595.091159 -111.861957 
L 594.918324 -113.11172 
L 594.697604 -114.361482 
L 594.417979 -115.611245 
L 594.074068 -116.861007 
L 593.66733 -118.110769 
L 593.206009 -119.360532 
L 592.703933 -120.610294 
L 592.178567 -121.860057 
L 591.648804 -123.109819 
L 591.132922 -124.359582 
L 590.646961 -125.609344 
L 590.203567 -126.859106 
L 589.811248 -128.108869 
L 589.473988 -129.358631 
L 589.191228 -130.608394 
L 588.958312 -131.858156 
L 588.76747 -133.107919 
L 588.609312 -134.357681 
L 588.474693 -135.607444 
L 588.356642 -136.857206 
L 588.25202 -138.106968 
L 588.162578 -139.356731 
L 588.095218 -140.606493 
L 588.06148 -141.856256 
L 588.076412 -143.106018 
L 588.15717 -144.355781 
L 588.321572 -145.605543 
L 588.586739 -146.855305 
L 588.96766 -148.105068 
L 589.475462 -149.35483 
L 590.115238 -150.604593 
L 590.883684 -151.854355 
L 591.767185 -153.104118 
L 592.741196 -154.35388 
L 593.771569 -155.603643 
L 594.817961 -156.853405 
L 595.838764 -158.103167 
L 596.79655 -159.35293 
L 597.662858 -160.602692 
L 598.421355 -161.852455 
L 599.068832 -163.102217 
L 599.614 -164.35198 
L 600.07449 -165.601742 
L 600.472777 -166.851504 
L 600.831843 -168.101267 
L 601.171374 -169.351029 
L 601.50506 -170.600792 
L 601.839336 -171.850554 
L 602.173634 -173.100317 
L 602.501892 -174.350079 
L 602.814895 -175.599842 
L 603.102831 -176.849604 
L 603.357515 -178.099366 
L 603.573863 -179.349129 
L 603.750475 -180.598891 
L 603.889423 -181.848654 
L 603.995486 -183.098416 
L 604.075114 -184.348179 
L 604.135361 -185.597941 
L 604.182941 -186.847703 
L 604.223509 -188.097466 
L 604.261181 -189.347228 
L 604.298355 -190.596991 
L 604.335788 -191.846753 
L 604.372932 -193.096516 
L 604.70615 -193.096516 
L 604.70615 -193.096516 
L 604.743294 -191.846753 
L 604.780727 -190.596991 
L 604.817901 -189.347228 
L 604.855574 -188.097466 
L 604.896141 -186.847703 
L 604.943721 -185.597941 
L 605.003968 -184.348179 
L 605.083596 -183.098416 
L 605.189659 -181.848654 
L 605.328607 -180.598891 
L 605.505219 -179.349129 
L 605.721567 -178.099366 
L 605.976251 -176.849604 
L 606.264187 -175.599842 
L 606.57719 -174.350079 
L 606.905448 -173.100317 
L 607.239746 -171.850554 
L 607.574023 -170.600792 
L 607.907708 -169.351029 
L 608.247239 -168.101267 
L 608.606305 -166.851504 
L 609.004592 -165.601742 
L 609.465082 -164.35198 
L 610.01025 -163.102217 
L 610.657727 -161.852455 
L 611.416224 -160.602692 
L 612.282532 -159.35293 
L 613.240318 -158.103167 
L 614.261121 -156.853405 
L 615.307513 -155.603643 
L 616.337886 -154.35388 
L 617.311897 -153.104118 
L 618.195398 -151.854355 
L 618.963844 -150.604593 
L 619.60362 -149.35483 
L 620.111422 -148.105068 
L 620.492344 -146.855305 
L 620.75751 -145.605543 
L 620.921912 -144.355781 
L 621.00267 -143.106018 
L 621.017602 -141.856256 
L 620.983864 -140.606493 
L 620.916505 -139.356731 
L 620.827062 -138.106968 
L 620.72244 -136.857206 
L 620.604389 -135.607444 
L 620.46977 -134.357681 
L 620.311612 -133.107919 
L 620.12077 -131.858156 
L 619.887854 -130.608394 
L 619.605094 -129.358631 
L 619.267834 -128.108869 
L 618.875516 -126.859106 
L 618.432121 -125.609344 
L 617.94616 -124.359582 
L 617.430278 -123.109819 
L 616.900515 -121.860057 
L 616.37515 -120.610294 
L 615.873073 -119.360532 
L 615.411752 -118.110769 
L 615.005014 -116.861007 
L 614.661103 -115.611245 
L 614.381478 -114.361482 
L 614.160758 -113.11172 
L 613.987923 -111.861957 
L 613.848631 -110.612195 
L 613.728203 -109.362432 
L 613.614709 -108.11267 
L 613.501478 -106.862907 
L 613.388416 -105.613145 
L 613.281689 -104.363383 
L 613.191667 -103.11362 
L 613.129513 -101.863858 
L 613.103301 -100.614095 
L 613.114899 -99.364333 
L 613.15883 -98.11457 
L 613.223871 -96.864808 
L 613.297289 -95.615045 
L 613.370641 -94.365283 
L 613.445393 -93.115521 
L 613.53648 -91.865758 
L 613.672596 -90.615996 
L 613.893046 -89.366233 
L 614.242067 -88.116471 
L 614.762012 -86.866708 
L 615.486577 -85.616946 
L 616.434516 -84.367184 
L 617.603584 -83.117421 
L 618.964317 -81.867659 
L 620.453925 -80.617896 
L 621.971937 -79.368134 
L 623.3806 -78.118371 
L 624.513597 -76.868609 
L 625.195576 -75.618846 
L 625.271825 -74.369084 
L 624.642841 -73.119322 
L 623.294309 -71.869559 
L 621.311593 -70.619797 
L 618.871061 -69.370034 
z
" id="m12ddfd0c0a" style="stroke:#141414;stroke-width:1.5;"/>
    </defs>
    <g clip-path="url(#p889221f822)">
     <use style="fill:#0e5f2f;stroke:#141414;stroke-width:1.5;" x="0" xlink:href="#m12ddfd0c0a" y="536.575754"/>
    </g>
   </g>
   <g id="patch_3">
    <path clip-path="url(#p889221f822)" d="M 128.108036 467.20572 
L 128.108036 467.20572 
L 128.108036 467.20572 
L 128.108036 467.20572 
z
" style="fill:#083c1d;stroke:#141414;stroke-linejoin:miter;stroke-width:0.75;"/>
   </g>
   <g id="patch_4">
    <path clip-path="url(#p889221f822)" d="M 128.108036 467.20572 
L 128.108036 467.20572 
L 128.108036 467.20572 
L 128.108036 467.20572 
z
" style="fill:#0e5f2f;stroke:#141414;stroke-linejoin:miter;stroke-width:0.75;"/>
   </g>
   <g id="line2d_1">
    <path clip-path="url(#p889221f822)" d="M 105.420822 467.20572 
L 105.420822 414.29125 
" style="fill:none;stroke:#141414;stroke-linecap:round;stroke-width:1.5;"/>
   </g>
   <g id="line2d_2">
    <path clip-path="url(#p889221f822)" d="M 105.420822 459.94295 
L 105.420822 441.526639 
" style="fill:none;stroke:#141414;stroke-linecap:round;stroke-width:4.5;"/>
   </g>
   <g id="line2d_3">
    <path clip-path="url(#p889221f822)" d="M 150.795251 467.20572 
L 150.795251 374.864782 
" style="fill:none;stroke:#141414;stroke-linecap:round;stroke-width:1.5;"/>
   </g>
   <g id="line2d_4">
    <path clip-path="url(#p889221f822)" d="M 150.795251 458.905411 
L 150.795251 420.516482 
" style="fill:none;stroke:#141414;stroke-linecap:round;stroke-width:4.5;"/>
   </g>
   <g id="line2d_5">
    <path clip-path="url(#p889221f822)" d="M 218.856894 465.390027 
L 218.856894 206.00537 
" style="fill:none;stroke:#141414;stroke-linecap:round;stroke-width:1.5;"/>
   </g>
   <g id="line2d_6">
    <path clip-path="url(#p889221f822)" d="M 218.856894 452.939564 
L 218.856894 319.097081 
" style="fill:none;stroke:#141414;stroke-linecap:round;stroke-width:4.5;"/>
   </g>
   <g id="line2d_7">
    <path clip-path="url(#p889221f822)" d="M 264.231323 465.649412 
L 264.231323 29.105034 
" style="fill:none;stroke:#141414;stroke-linecap:round;stroke-width:1.5;"/>
   </g>
   <g id="line2d_8">
    <path clip-path="url(#p889221f822)" d="M 264.231323 445.676793 
L 264.231323 204.124832 
" style="fill:none;stroke:#141414;stroke-linecap:round;stroke-width:4.5;"/>
   </g>
   <g id="line2d_9">
    <path clip-path="url(#p889221f822)" d="M 332.292967 467.20572 
L 332.292967 384.980784 
" style="fill:none;stroke:#141414;stroke-linecap:round;stroke-width:1.5;"/>
   </g>
   <g id="line2d_10">
    <path clip-path="url(#p889221f822)" d="M 332.292967 460.461719 
L 332.292967 428.816791 
" style="fill:none;stroke:#141414;stroke-linecap:round;stroke-width:4.5;"/>
   </g>
   <g id="line2d_11">
    <path clip-path="url(#p889221f822)" d="M 377.667396 467.20572 
L 377.667396 351.260778 
" style="fill:none;stroke:#141414;stroke-linecap:round;stroke-width:1.5;"/>
   </g>
   <g id="line2d_12">
    <path clip-path="url(#p889221f822)" d="M 377.667396 458.127257 
L 377.667396 415.328789 
" style="fill:none;stroke:#141414;stroke-linecap:round;stroke-width:4.5;"/>
   </g>
   <g id="line2d_13">
    <path clip-path="url(#p889221f822)" d="M 445.729039 467.20572 
L 445.729039 381.608783 
" style="fill:none;stroke:#141414;stroke-linecap:round;stroke-width:1.5;"/>
   </g>
   <g id="line2d_14">
    <path clip-path="url(#p889221f822)" d="M 445.729039 462.018027 
L 445.729039 426.222944 
" style="fill:none;stroke:#141414;stroke-linecap:round;stroke-width:4.5;"/>
   </g>
   <g id="line2d_15">
    <path clip-path="url(#p889221f822)" d="M 491.103468 467.20572 
L 491.103468 333.622622 
" style="fill:none;stroke:#141414;stroke-linecap:round;stroke-width:1.5;"/>
   </g>
   <g id="line2d_16">
    <path clip-path="url(#p889221f822)" d="M 491.103468 460.721104 
L 491.103468 409.881711 
" style="fill:none;stroke:#141414;stroke-linecap:round;stroke-width:4.5;"/>
   </g>
   <g id="line2d_17">
    <path clip-path="url(#p889221f822)" d="M 559.165112 467.20572 
L 559.165112 379.533706 
" style="fill:none;stroke:#141414;stroke-linecap:round;stroke-width:1.5;"/>
   </g>
   <g id="line2d_18">
    <path clip-path="url(#p889221f822)" d="M 559.165112 453.458333 
L 559.165112 423.110328 
" style="fill:none;stroke:#141414;stroke-linecap:round;stroke-width:4.5;"/>
   </g>
   <g id="line2d_19">
    <path clip-path="url(#p889221f822)" d="M 604.539541 467.20572 
L 604.539541 343.479239 
" style="fill:none;stroke:#141414;stroke-linecap:round;stroke-width:1.5;"/>
   </g>
   <g id="line2d_20">
    <path clip-path="url(#p889221f822)" d="M 604.539541 452.939564 
L 604.539541 395.35617 
" style="fill:none;stroke:#141414;stroke-linecap:round;stroke-width:4.5;"/>
   </g>
   <g id="patch_5">
    <path d="M 71.39 489.110754 
L 71.39 7.2 
" style="fill:none;stroke:#262626;stroke-linecap:square;stroke-linejoin:miter;stroke-width:0.8;"/>
   </g>
   <g id="patch_6">
    <path d="M 71.39 489.110754 
L 638.570363 489.110754 
" style="fill:none;stroke:#262626;stroke-linecap:square;stroke-linejoin:miter;stroke-width:0.8;"/>
   </g>
   <g id="PathCollection_1">
    <defs>
     <path d="M 0 1.5 
C 0.397805 1.5 0.77937 1.341951 1.06066 1.06066 
C 1.341951 0.77937 1.5 0.397805 1.5 0 
C 1.5 -0.397805 1.341951 -0.77937 1.06066 -1.06066 
C 0.77937 -1.341951 0.397805 -1.5 0 -1.5 
C -0.397805 -1.5 -0.77937 -1.341951 -1.06066 -1.06066 
C -1.341951 -0.77937 -1.5 -0.397805 -1.5 0 
C -1.5 0.397805 -1.341951 0.77937 -1.06066 1.06066 
C -0.77937 1.341951 -0.397805 1.5 0 1.5 
z
" id="m413b079244" style="stroke:#141414;"/>
    </defs>
    <g clip-path="url(#p889221f822)">
     <use style="fill:#ffffff;stroke:#141414;" x="105.420822" xlink:href="#m413b079244" y="451.123871"/>
    </g>
   </g>
   <g id="PathCollection_2">
    <g clip-path="url(#p889221f822)">
     <use style="fill:#ffffff;stroke:#141414;" x="150.795251" xlink:href="#m413b079244" y="438.673408"/>
    </g>
   </g>
   <g id="PathCollection_3">
    <g clip-path="url(#p889221f822)">
     <use style="fill:#ffffff;stroke:#141414;" x="218.856894" xlink:href="#m413b079244" y="382.386937"/>
    </g>
   </g>
   <g id="PathCollection_4">
    <g clip-path="url(#p889221f822)">
     <use style="fill:#ffffff;stroke:#141414;" x="264.231323" xlink:href="#m413b079244" y="283.431691"/>
    </g>
   </g>
   <g id="PathCollection_5">
    <g clip-path="url(#p889221f822)">
     <use style="fill:#ffffff;stroke:#141414;" x="332.292967" xlink:href="#m413b079244" y="445.676793"/>
    </g>
   </g>
   <g id="PathCollection_6">
    <g clip-path="url(#p889221f822)">
     <use style="fill:#ffffff;stroke:#141414;" x="377.667396" xlink:href="#m413b079244" y="432.448176"/>
    </g>
   </g>
   <g id="PathCollection_7">
    <g clip-path="url(#p889221f822)">
     <use style="fill:#ffffff;stroke:#141414;" x="445.729039" xlink:href="#m413b079244" y="443.212639"/>
    </g>
   </g>
   <g id="PathCollection_8">
    <g clip-path="url(#p889221f822)">
     <use style="fill:#ffffff;stroke:#141414;" x="491.103468" xlink:href="#m413b079244" y="425.185406"/>
    </g>
   </g>
   <g id="PathCollection_9">
    <g clip-path="url(#p889221f822)">
     <use style="fill:#ffffff;stroke:#141414;" x="559.165112" xlink:href="#m413b079244" y="438.414023"/>
    </g>
   </g>
   <g id="PathCollection_10">
    <g clip-path="url(#p889221f822)">
     <use style="fill:#ffffff;stroke:#141414;" x="604.539541" xlink:href="#m413b079244" y="416.885097"/>
    </g>
   </g>
  </g>
  <g id="legend_1">
   <g id="text_16">
    <!-- workday -->
    <defs>
     <path d="M 16.15625 0 
L 0.296875 51.859375 
L 9.375 51.859375 
L 17.625 21.921875 
L 20.703125 10.796875 
Q 20.90625 11.625 23.390625 21.484375 
L 31.640625 51.859375 
L 40.671875 51.859375 
L 48.4375 21.78125 
L 51.03125 11.859375 
L 54 21.875 
L 62.890625 51.859375 
L 71.4375 51.859375 
L 55.21875 0 
L 46.09375 0 
L 37.84375 31.0625 
L 35.84375 39.890625 
L 25.34375 0 
z
" id="ArialMT-119"/>
     <path d="M 6.640625 0 
L 6.640625 71.578125 
L 15.4375 71.578125 
L 15.4375 30.765625 
L 36.234375 51.859375 
L 47.609375 51.859375 
L 27.78125 32.625 
L 49.609375 0 
L 38.765625 0 
L 21.625 26.515625 
L 15.4375 20.5625 
L 15.4375 0 
z
" id="ArialMT-107"/>
     <path d="M 6.203125 -19.96875 
L 5.21875 -11.71875 
Q 8.109375 -12.5 10.25 -12.5 
Q 13.1875 -12.5 14.9375 -11.515625 
Q 16.703125 -10.546875 17.828125 -8.796875 
Q 18.65625 -7.46875 20.515625 -2.25 
Q 20.75 -1.515625 21.296875 -0.09375 
L 1.609375 51.859375 
L 11.078125 51.859375 
L 21.875 21.828125 
Q 23.96875 16.109375 25.640625 9.8125 
Q 27.15625 15.875 29.25 21.625 
L 40.328125 51.859375 
L 49.125 51.859375 
L 29.390625 -0.875 
Q 26.21875 -9.421875 24.46875 -12.640625 
Q 22.125 -17 19.09375 -19.015625 
Q 16.0625 -21.046875 11.859375 -21.046875 
Q 9.328125 -21.046875 6.203125 -19.96875 
z
" id="ArialMT-121"/>
    </defs>
    <g style="fill:#262626;" transform="translate(717.143 249.697877)scale(0.16 -0.16)">
     <use xlink:href="#ArialMT-119"/>
     <use x="72.216797" xlink:href="#ArialMT-111"/>
     <use x="127.832031" xlink:href="#ArialMT-114"/>
     <use x="161.132812" xlink:href="#ArialMT-107"/>
     <use x="211.132812" xlink:href="#ArialMT-100"/>
     <use x="266.748047" xlink:href="#ArialMT-97"/>
     <use x="322.363281" xlink:href="#ArialMT-121"/>
    </g>
   </g>
   <g id="patch_7">
    <path d="M 720.08175 272.517877 
L 752.08175 272.517877 
L 752.08175 261.317877 
L 720.08175 261.317877 
z
" style="fill:#083c1d;stroke:#141414;stroke-linejoin:miter;stroke-width:0.75;"/>
   </g>
   <g id="text_17">
    <!-- 0 -->
    <g style="fill:#262626;" transform="translate(764.88175 272.517877)scale(0.16 -0.16)">
     <use xlink:href="#ArialMT-48"/>
    </g>
   </g>
   <g id="patch_8">
    <path d="M 720.08175 295.150377 
L 752.08175 295.150377 
L 752.08175 283.950377 
L 720.08175 283.950377 
z
" style="fill:#0e5f2f;stroke:#141414;stroke-linejoin:miter;stroke-width:0.75;"/>
   </g>
   <g id="text_18">
    <!-- 1 -->
    <g style="fill:#262626;" transform="translate(764.88175 295.150377)scale(0.16 -0.16)">
     <use xlink:href="#ArialMT-49"/>
    </g>
   </g>
  </g>
 </g>
 <defs>
  <clipPath id="p889221f822">
   <rect height="481.910754" width="567.180363" x="71.39" y="7.2"/>
  </clipPath>
 </defs>
</svg>
