<?xml version="1.0" encoding="utf-8" standalone="no"?>
<!DOCTYPE svg PUBLIC "-//W3C//DTD SVG 1.1//EN"
  "http://www.w3.org/Graphics/SVG/1.1/DTD/svg11.dtd">
<!-- Created with matplotlib (https://matplotlib.org/) -->
<svg height="537.898851pt" version="1.1" viewBox="0 0 727.9616 537.898851" width="727.9616pt" xmlns="http://www.w3.org/2000/svg" xmlns:xlink="http://www.w3.org/1999/xlink">
 <defs>
  <style type="text/css">
*{stroke-linecap:butt;stroke-linejoin:round;white-space:pre;}
  </style>
 </defs>
 <g id="figure_1">
  <g id="patch_1">
   <path d="M 0 537.898851 
L 727.9616 537.898851 
L 727.9616 0 
L 0 0 
z
" style="fill:#ffffff;"/>
  </g>
  <g id="axes_1">
   <g id="patch_2">
    <path d="M 71.39 490.433851 
L 720.7616 490.433851 
L 720.7616 7.2 
L 71.39 7.2 
z
" style="fill:#ffffff;"/>
   </g>
   <g id="matplotlib.axis_1">
    <g id="xtick_1">
     <g id="text_1">
      <!-- 1003-116-1 -->
      <defs>
       <path d="M 37.25 0 
L 28.46875 0 
L 28.46875 56 
Q 25.296875 52.984375 20.140625 49.953125 
Q 14.984375 46.921875 10.890625 45.40625 
L 10.890625 53.90625 
Q 18.265625 57.375 23.78125 62.296875 
Q 29.296875 67.234375 31.59375 71.875 
L 37.25 71.875 
z
" id="ArialMT-49"/>
       <path d="M 4.15625 35.296875 
Q 4.15625 48 6.765625 55.734375 
Q 9.375 63.484375 14.515625 67.671875 
Q 19.671875 71.875 27.484375 71.875 
Q 33.25 71.875 37.59375 69.546875 
Q 41.9375 67.234375 44.765625 62.859375 
Q 47.609375 58.5 49.21875 52.21875 
Q 50.828125 45.953125 50.828125 35.296875 
Q 50.828125 22.703125 48.234375 14.96875 
Q 45.65625 7.234375 40.5 3 
Q 35.359375 -1.21875 27.484375 -1.21875 
Q 17.140625 -1.21875 11.234375 6.203125 
Q 4.15625 15.140625 4.15625 35.296875 
z
M 13.1875 35.296875 
Q 13.1875 17.671875 17.3125 11.828125 
Q 21.4375 6 27.484375 6 
Q 33.546875 6 37.671875 11.859375 
Q 41.796875 17.71875 41.796875 35.296875 
Q 41.796875 52.984375 37.671875 58.78125 
Q 33.546875 64.59375 27.390625 64.59375 
Q 21.34375 64.59375 17.71875 59.46875 
Q 13.1875 52.9375 13.1875 35.296875 
z
" id="ArialMT-48"/>
       <path d="M 4.203125 18.890625 
L 12.984375 20.0625 
Q 14.5 12.59375 18.140625 9.296875 
Q 21.78125 6 27 6 
Q 33.203125 6 37.46875 10.296875 
Q 41.75 14.59375 41.75 20.953125 
Q 41.75 27 37.796875 30.921875 
Q 33.84375 34.859375 27.734375 34.859375 
Q 25.25 34.859375 21.53125 33.890625 
L 22.515625 41.609375 
Q 23.390625 41.5 23.921875 41.5 
Q 29.546875 41.5 34.03125 44.421875 
Q 38.53125 47.359375 38.53125 53.46875 
Q 38.53125 58.296875 35.25 61.46875 
Q 31.984375 64.65625 26.8125 64.65625 
Q 21.6875 64.65625 18.265625 61.421875 
Q 14.84375 58.203125 13.875 51.765625 
L 5.078125 53.328125 
Q 6.6875 62.15625 12.390625 67.015625 
Q 18.109375 71.875 26.609375 71.875 
Q 32.46875 71.875 37.390625 69.359375 
Q 42.328125 66.84375 44.9375 62.5 
Q 47.5625 58.15625 47.5625 53.265625 
Q 47.5625 48.640625 45.0625 44.828125 
Q 42.578125 41.015625 37.703125 38.765625 
Q 44.046875 37.3125 47.5625 32.6875 
Q 51.078125 28.078125 51.078125 21.140625 
Q 51.078125 11.765625 44.234375 5.25 
Q 37.40625 -1.265625 26.953125 -1.265625 
Q 17.53125 -1.265625 11.296875 4.34375 
Q 5.078125 9.96875 4.203125 18.890625 
z
" id="ArialMT-51"/>
       <path d="M 3.171875 21.484375 
L 3.171875 30.328125 
L 30.171875 30.328125 
L 30.171875 21.484375 
z
" id="ArialMT-45"/>
       <path d="M 49.75 54.046875 
L 41.015625 53.375 
Q 39.84375 58.546875 37.703125 60.890625 
Q 34.125 64.65625 28.90625 64.65625 
Q 24.703125 64.65625 21.53125 62.3125 
Q 17.390625 59.28125 14.984375 53.46875 
Q 12.59375 47.65625 12.5 36.921875 
Q 15.671875 41.75 20.265625 44.09375 
Q 24.859375 46.4375 29.890625 46.4375 
Q 38.671875 46.4375 44.84375 39.96875 
Q 51.03125 33.5 51.03125 23.25 
Q 51.03125 16.5 48.125 10.71875 
Q 45.21875 4.9375 40.140625 1.859375 
Q 35.0625 -1.21875 28.609375 -1.21875 
Q 17.625 -1.21875 10.6875 6.859375 
Q 3.765625 14.9375 3.765625 33.5 
Q 3.765625 54.25 11.421875 63.671875 
Q 18.109375 71.875 29.4375 71.875 
Q 37.890625 71.875 43.28125 67.140625 
Q 48.6875 62.40625 49.75 54.046875 
z
M 13.875 23.1875 
Q 13.875 18.65625 15.796875 14.5 
Q 17.71875 10.359375 21.1875 8.171875 
Q 24.65625 6 28.46875 6 
Q 34.03125 6 38.03125 10.484375 
Q 42.046875 14.984375 42.046875 22.703125 
Q 42.046875 30.125 38.078125 34.390625 
Q 34.125 38.671875 28.125 38.671875 
Q 22.171875 38.671875 18.015625 34.390625 
Q 13.875 30.125 13.875 23.1875 
z
" id="ArialMT-54"/>
      </defs>
      <g style="fill:#262626;" transform="translate(95.41841 508.886351)scale(0.16 -0.16)">
       <use xlink:href="#ArialMT-49"/>
       <use x="55.615234" xlink:href="#ArialMT-48"/>
       <use x="111.230469" xlink:href="#ArialMT-48"/>
       <use x="166.845703" xlink:href="#ArialMT-51"/>
       <use x="222.460938" xlink:href="#ArialMT-45"/>
       <use x="255.761719" xlink:href="#ArialMT-49"/>
       <use x="311.267578" xlink:href="#ArialMT-49"/>
       <use x="366.882812" xlink:href="#ArialMT-54"/>
       <use x="422.498047" xlink:href="#ArialMT-45"/>
       <use x="455.798828" xlink:href="#ArialMT-49"/>
      </g>
     </g>
    </g>
    <g id="xtick_2">
     <g id="text_2">
      <!-- 1004-136-1 -->
      <defs>
       <path d="M 32.328125 0 
L 32.328125 17.140625 
L 1.265625 17.140625 
L 1.265625 25.203125 
L 33.9375 71.578125 
L 41.109375 71.578125 
L 41.109375 25.203125 
L 50.78125 25.203125 
L 50.78125 17.140625 
L 41.109375 17.140625 
L 41.109375 0 
z
M 32.328125 25.203125 
L 32.328125 57.46875 
L 9.90625 25.203125 
z
" id="ArialMT-52"/>
      </defs>
      <g style="fill:#262626;" transform="translate(225.28398 508.886351)scale(0.16 -0.16)">
       <use xlink:href="#ArialMT-49"/>
       <use x="55.615234" xlink:href="#ArialMT-48"/>
       <use x="111.230469" xlink:href="#ArialMT-48"/>
       <use x="166.845703" xlink:href="#ArialMT-52"/>
       <use x="222.460938" xlink:href="#ArialMT-45"/>
       <use x="255.761719" xlink:href="#ArialMT-49"/>
       <use x="311.376953" xlink:href="#ArialMT-51"/>
       <use x="366.992188" xlink:href="#ArialMT-54"/>
       <use x="422.607422" xlink:href="#ArialMT-45"/>
       <use x="455.908203" xlink:href="#ArialMT-49"/>
      </g>
     </g>
    </g>
    <g id="xtick_3">
     <g id="text_3">
      <!-- 1025-116-1 -->
      <defs>
       <path d="M 50.34375 8.453125 
L 50.34375 0 
L 3.03125 0 
Q 2.9375 3.171875 4.046875 6.109375 
Q 5.859375 10.9375 9.828125 15.625 
Q 13.8125 20.3125 21.34375 26.46875 
Q 33.015625 36.03125 37.109375 41.625 
Q 41.21875 47.21875 41.21875 52.203125 
Q 41.21875 57.421875 37.46875 61 
Q 33.734375 64.59375 27.734375 64.59375 
Q 21.390625 64.59375 17.578125 60.78125 
Q 13.765625 56.984375 13.71875 50.25 
L 4.6875 51.171875 
Q 5.609375 61.28125 11.65625 66.578125 
Q 17.71875 71.875 27.9375 71.875 
Q 38.234375 71.875 44.234375 66.15625 
Q 50.25 60.453125 50.25 52 
Q 50.25 47.703125 48.484375 43.546875 
Q 46.734375 39.40625 42.65625 34.8125 
Q 38.578125 30.21875 29.109375 22.21875 
Q 21.1875 15.578125 18.9375 13.203125 
Q 16.703125 10.84375 15.234375 8.453125 
z
" id="ArialMT-50"/>
       <path d="M 4.15625 18.75 
L 13.375 19.53125 
Q 14.40625 12.796875 18.140625 9.390625 
Q 21.875 6 27.15625 6 
Q 33.5 6 37.890625 10.78125 
Q 42.28125 15.578125 42.28125 23.484375 
Q 42.28125 31 38.0625 35.34375 
Q 33.84375 39.703125 27 39.703125 
Q 22.75 39.703125 19.328125 37.765625 
Q 15.921875 35.84375 13.96875 32.765625 
L 5.71875 33.84375 
L 12.640625 70.609375 
L 48.25 70.609375 
L 48.25 62.203125 
L 19.671875 62.203125 
L 15.828125 42.96875 
Q 22.265625 47.46875 29.34375 47.46875 
Q 38.71875 47.46875 45.15625 40.96875 
Q 51.609375 34.46875 51.609375 24.265625 
Q 51.609375 14.546875 45.953125 7.46875 
Q 39.0625 -1.21875 27.15625 -1.21875 
Q 17.390625 -1.21875 11.203125 4.25 
Q 5.03125 9.71875 4.15625 18.75 
z
" id="ArialMT-53"/>
      </defs>
      <g style="fill:#262626;" transform="translate(355.16705 508.886351)scale(0.16 -0.16)">
       <use xlink:href="#ArialMT-49"/>
       <use x="55.615234" xlink:href="#ArialMT-48"/>
       <use x="111.230469" xlink:href="#ArialMT-50"/>
       <use x="166.845703" xlink:href="#ArialMT-53"/>
       <use x="222.460938" xlink:href="#ArialMT-45"/>
       <use x="255.761719" xlink:href="#ArialMT-49"/>
       <use x="311.267578" xlink:href="#ArialMT-49"/>
       <use x="366.882812" xlink:href="#ArialMT-54"/>
       <use x="422.498047" xlink:href="#ArialMT-45"/>
       <use x="455.798828" xlink:href="#ArialMT-49"/>
      </g>
     </g>
    </g>
    <g id="xtick_4">
     <g id="text_4">
      <!-- 1026-136-1 -->
      <g style="fill:#262626;" transform="translate(485.03262 508.886351)scale(0.16 -0.16)">
       <use xlink:href="#ArialMT-49"/>
       <use x="55.615234" xlink:href="#ArialMT-48"/>
       <use x="111.230469" xlink:href="#ArialMT-50"/>
       <use x="166.845703" xlink:href="#ArialMT-54"/>
       <use x="222.460938" xlink:href="#ArialMT-45"/>
       <use x="255.761719" xlink:href="#ArialMT-49"/>
       <use x="311.376953" xlink:href="#ArialMT-51"/>
       <use x="366.992188" xlink:href="#ArialMT-54"/>
       <use x="422.607422" xlink:href="#ArialMT-45"/>
       <use x="455.908203" xlink:href="#ArialMT-49"/>
      </g>
     </g>
    </g>
    <g id="xtick_5">
     <g id="text_5">
      <!-- 1040-236-1 -->
      <g style="fill:#262626;" transform="translate(614.90694 508.886351)scale(0.16 -0.16)">
       <use xlink:href="#ArialMT-49"/>
       <use x="55.615234" xlink:href="#ArialMT-48"/>
       <use x="111.230469" xlink:href="#ArialMT-52"/>
       <use x="166.845703" xlink:href="#ArialMT-48"/>
       <use x="222.460938" xlink:href="#ArialMT-45"/>
       <use x="255.761719" xlink:href="#ArialMT-50"/>
       <use x="311.376953" xlink:href="#ArialMT-51"/>
       <use x="366.992188" xlink:href="#ArialMT-54"/>
       <use x="422.607422" xlink:href="#ArialMT-45"/>
       <use x="455.908203" xlink:href="#ArialMT-49"/>
      </g>
     </g>
    </g>
    <g id="text_6">
     <!-- Counter id -->
     <defs>
      <path d="M 58.796875 25.09375 
L 68.265625 22.703125 
Q 65.28125 11.03125 57.546875 4.90625 
Q 49.8125 -1.21875 38.625 -1.21875 
Q 27.046875 -1.21875 19.796875 3.484375 
Q 12.546875 8.203125 8.765625 17.140625 
Q 4.984375 26.078125 4.984375 36.328125 
Q 4.984375 47.515625 9.25 55.828125 
Q 13.53125 64.15625 21.40625 68.46875 
Q 29.296875 72.796875 38.765625 72.796875 
Q 49.515625 72.796875 56.828125 67.328125 
Q 64.15625 61.859375 67.046875 51.953125 
L 57.71875 49.75 
Q 55.21875 57.5625 50.484375 61.125 
Q 45.75 64.703125 38.578125 64.703125 
Q 30.328125 64.703125 24.78125 60.734375 
Q 19.234375 56.78125 16.984375 50.109375 
Q 14.75 43.453125 14.75 36.375 
Q 14.75 27.25 17.40625 20.4375 
Q 20.0625 13.625 25.671875 10.25 
Q 31.296875 6.890625 37.84375 6.890625 
Q 45.796875 6.890625 51.3125 11.46875 
Q 56.84375 16.0625 58.796875 25.09375 
z
" id="ArialMT-67"/>
      <path d="M 3.328125 25.921875 
Q 3.328125 40.328125 11.328125 47.265625 
Q 18.015625 53.03125 27.640625 53.03125 
Q 38.328125 53.03125 45.109375 46.015625 
Q 51.90625 39.015625 51.90625 26.65625 
Q 51.90625 16.65625 48.90625 10.90625 
Q 45.90625 5.171875 40.15625 2 
Q 34.421875 -1.171875 27.640625 -1.171875 
Q 16.75 -1.171875 10.03125 5.8125 
Q 3.328125 12.796875 3.328125 25.921875 
z
M 12.359375 25.921875 
Q 12.359375 15.96875 16.703125 11.015625 
Q 21.046875 6.0625 27.640625 6.0625 
Q 34.1875 6.0625 38.53125 11.03125 
Q 42.875 16.015625 42.875 26.21875 
Q 42.875 35.84375 38.5 40.796875 
Q 34.125 45.75 27.640625 45.75 
Q 21.046875 45.75 16.703125 40.8125 
Q 12.359375 35.890625 12.359375 25.921875 
z
" id="ArialMT-111"/>
      <path d="M 40.578125 0 
L 40.578125 7.625 
Q 34.515625 -1.171875 24.125 -1.171875 
Q 19.53125 -1.171875 15.546875 0.578125 
Q 11.578125 2.34375 9.640625 5 
Q 7.71875 7.671875 6.9375 11.53125 
Q 6.390625 14.109375 6.390625 19.734375 
L 6.390625 51.859375 
L 15.1875 51.859375 
L 15.1875 23.09375 
Q 15.1875 16.21875 15.71875 13.8125 
Q 16.546875 10.359375 19.234375 8.375 
Q 21.921875 6.390625 25.875 6.390625 
Q 29.828125 6.390625 33.296875 8.421875 
Q 36.765625 10.453125 38.203125 13.9375 
Q 39.65625 17.4375 39.65625 24.078125 
L 39.65625 51.859375 
L 48.4375 51.859375 
L 48.4375 0 
z
" id="ArialMT-117"/>
      <path d="M 6.59375 0 
L 6.59375 51.859375 
L 14.5 51.859375 
L 14.5 44.484375 
Q 20.21875 53.03125 31 53.03125 
Q 35.6875 53.03125 39.625 51.34375 
Q 43.5625 49.65625 45.515625 46.921875 
Q 47.46875 44.1875 48.25 40.4375 
Q 48.734375 37.984375 48.734375 31.890625 
L 48.734375 0 
L 39.9375 0 
L 39.9375 31.546875 
Q 39.9375 36.921875 38.90625 39.578125 
Q 37.890625 42.234375 35.28125 43.8125 
Q 32.671875 45.40625 29.15625 45.40625 
Q 23.53125 45.40625 19.453125 41.84375 
Q 15.375 38.28125 15.375 28.328125 
L 15.375 0 
z
" id="ArialMT-110"/>
      <path d="M 25.78125 7.859375 
L 27.046875 0.09375 
Q 23.34375 -0.6875 20.40625 -0.6875 
Q 15.625 -0.6875 12.984375 0.828125 
Q 10.359375 2.34375 9.28125 4.8125 
Q 8.203125 7.28125 8.203125 15.1875 
L 8.203125 45.015625 
L 1.765625 45.015625 
L 1.765625 51.859375 
L 8.203125 51.859375 
L 8.203125 64.703125 
L 16.9375 69.96875 
L 16.9375 51.859375 
L 25.78125 51.859375 
L 25.78125 45.015625 
L 16.9375 45.015625 
L 16.9375 14.703125 
Q 16.9375 10.9375 17.40625 9.859375 
Q 17.875 8.796875 18.921875 8.15625 
Q 19.96875 7.515625 21.921875 7.515625 
Q 23.390625 7.515625 25.78125 7.859375 
z
" id="ArialMT-116"/>
      <path d="M 42.09375 16.703125 
L 51.171875 15.578125 
Q 49.03125 7.625 43.21875 3.21875 
Q 37.40625 -1.171875 28.375 -1.171875 
Q 17 -1.171875 10.328125 5.828125 
Q 3.65625 12.84375 3.65625 25.484375 
Q 3.65625 38.578125 10.390625 45.796875 
Q 17.140625 53.03125 27.875 53.03125 
Q 38.28125 53.03125 44.875 45.953125 
Q 51.46875 38.875 51.46875 26.03125 
Q 51.46875 25.25 51.421875 23.6875 
L 12.75 23.6875 
Q 13.234375 15.140625 17.578125 10.59375 
Q 21.921875 6.0625 28.421875 6.0625 
Q 33.25 6.0625 36.671875 8.59375 
Q 40.09375 11.140625 42.09375 16.703125 
z
M 13.234375 30.90625 
L 42.1875 30.90625 
Q 41.609375 37.453125 38.875 40.71875 
Q 34.671875 45.796875 27.984375 45.796875 
Q 21.921875 45.796875 17.796875 41.75 
Q 13.671875 37.703125 13.234375 30.90625 
z
" id="ArialMT-101"/>
      <path d="M 6.5 0 
L 6.5 51.859375 
L 14.40625 51.859375 
L 14.40625 44 
Q 17.4375 49.515625 20 51.265625 
Q 22.5625 53.03125 25.640625 53.03125 
Q 30.078125 53.03125 34.671875 50.203125 
L 31.640625 42.046875 
Q 28.421875 43.953125 25.203125 43.953125 
Q 22.3125 43.953125 20.015625 42.21875 
Q 17.71875 40.484375 16.75 37.40625 
Q 15.28125 32.71875 15.28125 27.15625 
L 15.28125 0 
z
" id="ArialMT-114"/>
      <path id="ArialMT-32"/>
      <path d="M 6.640625 61.46875 
L 6.640625 71.578125 
L 15.4375 71.578125 
L 15.4375 61.46875 
z
M 6.640625 0 
L 6.640625 51.859375 
L 15.4375 51.859375 
L 15.4375 0 
z
" id="ArialMT-105"/>
      <path d="M 40.234375 0 
L 40.234375 6.546875 
Q 35.296875 -1.171875 25.734375 -1.171875 
Q 19.53125 -1.171875 14.328125 2.25 
Q 9.125 5.671875 6.265625 11.796875 
Q 3.421875 17.921875 3.421875 25.875 
Q 3.421875 33.640625 6 39.96875 
Q 8.59375 46.296875 13.765625 49.65625 
Q 18.953125 53.03125 25.34375 53.03125 
Q 30.03125 53.03125 33.6875 51.046875 
Q 37.359375 49.078125 39.65625 45.90625 
L 39.65625 71.578125 
L 48.390625 71.578125 
L 48.390625 0 
z
M 12.453125 25.875 
Q 12.453125 15.921875 16.640625 10.984375 
Q 20.84375 6.0625 26.5625 6.0625 
Q 32.328125 6.0625 36.34375 10.765625 
Q 40.375 15.484375 40.375 25.140625 
Q 40.375 35.796875 36.265625 40.765625 
Q 32.171875 45.75 26.171875 45.75 
Q 20.3125 45.75 16.375 40.96875 
Q 12.453125 36.1875 12.453125 25.875 
z
" id="ArialMT-100"/>
     </defs>
     <g style="fill:#262626;" transform="translate(359.1683 527.518851)scale(0.16 -0.16)">
      <use xlink:href="#ArialMT-67"/>
      <use x="72.216797" xlink:href="#ArialMT-111"/>
      <use x="127.832031" xlink:href="#ArialMT-117"/>
      <use x="183.447266" xlink:href="#ArialMT-110"/>
      <use x="239.0625" xlink:href="#ArialMT-116"/>
      <use x="266.845703" xlink:href="#ArialMT-101"/>
      <use x="322.460938" xlink:href="#ArialMT-114"/>
      <use x="355.761719" xlink:href="#ArialMT-32"/>
      <use x="383.544922" xlink:href="#ArialMT-105"/>
      <use x="405.761719" xlink:href="#ArialMT-100"/>
     </g>
    </g>
   </g>
   <g id="matplotlib.axis_2">
    <g id="ytick_1">
     <g id="text_7">
      <!-- 0 -->
      <g style="fill:#262626;" transform="translate(55.4925 474.194926)scale(0.16 -0.16)">
       <use xlink:href="#ArialMT-48"/>
      </g>
     </g>
    </g>
    <g id="ytick_2">
     <g id="text_8">
      <!-- 200 -->
      <g style="fill:#262626;" transform="translate(37.6975 383.42974)scale(0.16 -0.16)">
       <use xlink:href="#ArialMT-50"/>
       <use x="55.615234" xlink:href="#ArialMT-48"/>
       <use x="111.230469" xlink:href="#ArialMT-48"/>
      </g>
     </g>
    </g>
    <g id="ytick_3">
     <g id="text_9">
      <!-- 400 -->
      <g style="fill:#262626;" transform="translate(37.6975 292.664554)scale(0.16 -0.16)">
       <use xlink:href="#ArialMT-52"/>
       <use x="55.615234" xlink:href="#ArialMT-48"/>
       <use x="111.230469" xlink:href="#ArialMT-48"/>
      </g>
     </g>
    </g>
    <g id="ytick_4">
     <g id="text_10">
      <!-- 600 -->
      <g style="fill:#262626;" transform="translate(37.6975 201.899368)scale(0.16 -0.16)">
       <use xlink:href="#ArialMT-54"/>
       <use x="55.615234" xlink:href="#ArialMT-48"/>
       <use x="111.230469" xlink:href="#ArialMT-48"/>
      </g>
     </g>
    </g>
    <g id="ytick_5">
     <g id="text_11">
      <!-- 800 -->
      <defs>
       <path d="M 17.671875 38.8125 
Q 12.203125 40.828125 9.5625 44.53125 
Q 6.9375 48.25 6.9375 53.421875 
Q 6.9375 61.234375 12.546875 66.546875 
Q 18.171875 71.875 27.484375 71.875 
Q 36.859375 71.875 42.578125 66.421875 
Q 48.296875 60.984375 48.296875 53.171875 
Q 48.296875 48.1875 45.671875 44.5 
Q 43.0625 40.828125 37.75 38.8125 
Q 44.34375 36.671875 47.78125 31.875 
Q 51.21875 27.09375 51.21875 20.453125 
Q 51.21875 11.28125 44.71875 5.03125 
Q 38.234375 -1.21875 27.640625 -1.21875 
Q 17.046875 -1.21875 10.546875 5.046875 
Q 4.046875 11.328125 4.046875 20.703125 
Q 4.046875 27.6875 7.59375 32.390625 
Q 11.140625 37.109375 17.671875 38.8125 
z
M 15.921875 53.71875 
Q 15.921875 48.640625 19.1875 45.40625 
Q 22.46875 42.1875 27.6875 42.1875 
Q 32.765625 42.1875 36.015625 45.375 
Q 39.265625 48.578125 39.265625 53.21875 
Q 39.265625 58.0625 35.90625 61.359375 
Q 32.5625 64.65625 27.59375 64.65625 
Q 22.5625 64.65625 19.234375 61.421875 
Q 15.921875 58.203125 15.921875 53.71875 
z
M 13.09375 20.65625 
Q 13.09375 16.890625 14.875 13.375 
Q 16.65625 9.859375 20.171875 7.921875 
Q 23.6875 6 27.734375 6 
Q 34.03125 6 38.125 10.046875 
Q 42.234375 14.109375 42.234375 20.359375 
Q 42.234375 26.703125 38.015625 30.859375 
Q 33.796875 35.015625 27.4375 35.015625 
Q 21.234375 35.015625 17.15625 30.90625 
Q 13.09375 26.8125 13.09375 20.65625 
z
" id="ArialMT-56"/>
      </defs>
      <g style="fill:#262626;" transform="translate(37.6975 111.134181)scale(0.16 -0.16)">
       <use xlink:href="#ArialMT-56"/>
       <use x="55.615234" xlink:href="#ArialMT-48"/>
       <use x="111.230469" xlink:href="#ArialMT-48"/>
      </g>
     </g>
    </g>
    <g id="ytick_6">
     <g id="text_12">
      <!-- 1000 -->
      <g style="fill:#262626;" transform="translate(28.8 20.368995)scale(0.16 -0.16)">
       <use xlink:href="#ArialMT-49"/>
       <use x="55.615234" xlink:href="#ArialMT-48"/>
       <use x="111.230469" xlink:href="#ArialMT-48"/>
       <use x="166.845703" xlink:href="#ArialMT-48"/>
      </g>
     </g>
    </g>
    <g id="text_13">
     <!-- Count [$h^{-1}$] -->
     <defs>
      <path d="M 6.78125 -19.875 
L 6.78125 71.578125 
L 26.171875 71.578125 
L 26.171875 64.3125 
L 15.578125 64.3125 
L 15.578125 -12.59375 
L 26.171875 -12.59375 
L 26.171875 -19.875 
z
" id="ArialMT-91"/>
      <path d="M 55.71875 33.015625 
L 49.3125 0 
L 40.28125 0 
L 46.6875 32.671875 
Q 47.125 34.96875 47.359375 36.71875 
Q 47.609375 38.484375 47.609375 39.5 
Q 47.609375 43.609375 45.015625 45.890625 
Q 42.4375 48.1875 37.796875 48.1875 
Q 30.5625 48.1875 25.265625 43.296875 
Q 19.96875 38.421875 18.40625 30.328125 
L 12.5 0 
L 3.515625 0 
L 18.3125 75.984375 
L 27.296875 75.984375 
L 21.484375 46.09375 
Q 24.90625 50.6875 30.21875 53.34375 
Q 35.546875 56 41.40625 56 
Q 48.640625 56 52.609375 52.09375 
Q 56.59375 48.1875 56.59375 41.109375 
Q 56.59375 39.359375 56.375 37.359375 
Q 56.15625 35.359375 55.71875 33.015625 
z
" id="DejaVuSans-Oblique-104"/>
      <path d="M 10.59375 35.5 
L 73.1875 35.5 
L 73.1875 27.203125 
L 10.59375 27.203125 
z
" id="DejaVuSans-8722"/>
      <path d="M 12.40625 8.296875 
L 28.515625 8.296875 
L 28.515625 63.921875 
L 10.984375 60.40625 
L 10.984375 69.390625 
L 28.421875 72.90625 
L 38.28125 72.90625 
L 38.28125 8.296875 
L 54.390625 8.296875 
L 54.390625 0 
L 12.40625 0 
z
" id="DejaVuSans-49"/>
      <path d="M 21.296875 -19.875 
L 1.90625 -19.875 
L 1.90625 -12.59375 
L 12.5 -12.59375 
L 12.5 64.3125 
L 1.90625 64.3125 
L 1.90625 71.578125 
L 21.296875 71.578125 
z
" id="ArialMT-93"/>
     </defs>
     <g style="fill:#262626;" transform="translate(21.6 290.976926)rotate(-90)scale(0.16 -0.16)">
      <use transform="translate(0 0.684375)" xlink:href="#ArialMT-67"/>
      <use transform="translate(72.216797 0.684375)" xlink:href="#ArialMT-111"/>
      <use transform="translate(127.832031 0.684375)" xlink:href="#ArialMT-117"/>
      <use transform="translate(183.447266 0.684375)" xlink:href="#ArialMT-110"/>
      <use transform="translate(239.0625 0.684375)" xlink:href="#ArialMT-116"/>
      <use transform="translate(266.845703 0.684375)" xlink:href="#ArialMT-32"/>
      <use transform="translate(294.628906 0.684375)" xlink:href="#ArialMT-91"/>
      <use transform="translate(322.412109 0.684375)" xlink:href="#DejaVuSans-Oblique-104"/>
      <use transform="translate(393.238724 38.965625)scale(0.7)" xlink:href="#DejaVuSans-8722"/>
      <use transform="translate(451.891068 38.965625)scale(0.7)" xlink:href="#DejaVuSans-49"/>
      <use transform="translate(499.161576 0.684375)" xlink:href="#ArialMT-93"/>
     </g>
    </g>
   </g>
   <g id="PolyCollection_1">
    <defs>
     <path d="M 155.507426 -69.430175 
L 117.146894 -69.430175 
L 115.464081 -73.867584 
L 114.692086 -78.304993 
L 114.851359 -82.742402 
L 115.815535 -87.179811 
L 117.355929 -91.617221 
L 119.207041 -96.05463 
L 121.129053 -100.492039 
L 122.94844 -104.929448 
L 124.569609 -109.366857 
L 125.962325 -113.804266 
L 127.136517 -118.241675 
L 128.11657 -122.679084 
L 128.923148 -127.116493 
L 129.565242 -131.553902 
L 130.040925 -135.991312 
L 130.343274 -140.428721 
L 130.467726 -144.86613 
L 130.418061 -149.303539 
L 130.209431 -153.740948 
L 129.868016 -158.178357 
L 129.427874 -162.615766 
L 128.926176 -167.053175 
L 128.398317 -171.490584 
L 127.874195 -175.927994 
L 127.376382 -180.365403 
L 126.920149 -184.802812 
L 126.514693 -189.240221 
L 126.164734 -193.67763 
L 125.871859 -198.115039 
L 125.635418 -202.552448 
L 125.453134 -206.989857 
L 125.321623 -211.427266 
L 125.236825 -215.864675 
L 125.194204 -220.302085 
L 125.188568 -224.739494 
L 125.213619 -229.176903 
L 125.261577 -233.614312 
L 125.323249 -238.051721 
L 125.3887 -242.48913 
L 125.448399 -246.926539 
L 125.494562 -251.363948 
L 125.522402 -255.801357 
L 125.531172 -260.238766 
L 125.524885 -264.676176 
L 125.512543 -269.113585 
L 125.507604 -273.550994 
L 125.526507 -277.988403 
L 125.586318 -282.425812 
L 125.70195 -286.863221 
L 125.883663 -291.30063 
L 126.135492 -295.738039 
L 126.454981 -300.175448 
L 126.834173 -304.612857 
L 127.261439 -309.050267 
L 127.723572 -313.487676 
L 128.207598 -317.925085 
L 128.701982 -322.362494 
L 129.197184 -326.799903 
L 129.685728 -331.237312 
L 130.162049 -335.674721 
L 130.622286 -340.11213 
L 131.064089 -344.549539 
L 131.486344 -348.986949 
L 131.888769 -353.424358 
L 132.271383 -357.861767 
L 132.634015 -362.299176 
L 132.976023 -366.736585 
L 133.296339 -371.173994 
L 133.593732 -375.611403 
L 133.867126 -380.048812 
L 134.115774 -384.486221 
L 134.339268 -388.92363 
L 134.537485 -393.36104 
L 134.710653 -397.798449 
L 134.859596 -402.235858 
L 134.986091 -406.673267 
L 135.093118 -411.110676 
L 135.184786 -415.548085 
L 135.265853 -419.985494 
L 135.340922 -424.422903 
L 135.413567 -428.860312 
L 135.485682 -433.297721 
L 135.557282 -437.735131 
L 135.626829 -442.17254 
L 135.691946 -446.609949 
L 135.750251 -451.047358 
L 135.80004 -455.484767 
L 135.840628 -459.922176 
L 135.872349 -464.359585 
L 135.896341 -468.796994 
L 135.914301 -473.234403 
L 135.928307 -477.671812 
L 135.94071 -482.109222 
L 135.953996 -486.546631 
L 135.970546 -490.98404 
L 135.992261 -495.421449 
L 136.020164 -499.858858 
L 136.054107 -504.296267 
L 136.092731 -508.733676 
L 136.561589 -508.733676 
L 136.561589 -508.733676 
L 136.600213 -504.296267 
L 136.634156 -499.858858 
L 136.662059 -495.421449 
L 136.683774 -490.98404 
L 136.700324 -486.546631 
L 136.71361 -482.109222 
L 136.726013 -477.671812 
L 136.740019 -473.234403 
L 136.757979 -468.796994 
L 136.781971 -464.359585 
L 136.813692 -459.922176 
L 136.85428 -455.484767 
L 136.904069 -451.047358 
L 136.962374 -446.609949 
L 137.027491 -442.17254 
L 137.097038 -437.735131 
L 137.168638 -433.297721 
L 137.240753 -428.860312 
L 137.313398 -424.422903 
L 137.388467 -419.985494 
L 137.469534 -415.548085 
L 137.561202 -411.110676 
L 137.668229 -406.673267 
L 137.794724 -402.235858 
L 137.943667 -397.798449 
L 138.116835 -393.36104 
L 138.315052 -388.92363 
L 138.538546 -384.486221 
L 138.787194 -380.048812 
L 139.060588 -375.611403 
L 139.357981 -371.173994 
L 139.678297 -366.736585 
L 140.020305 -362.299176 
L 140.382937 -357.861767 
L 140.765551 -353.424358 
L 141.167976 -348.986949 
L 141.590231 -344.549539 
L 142.032034 -340.11213 
L 142.492271 -335.674721 
L 142.968592 -331.237312 
L 143.457136 -326.799903 
L 143.952338 -322.362494 
L 144.446722 -317.925085 
L 144.930748 -313.487676 
L 145.392881 -309.050267 
L 145.820147 -304.612857 
L 146.199339 -300.175448 
L 146.518828 -295.738039 
L 146.770657 -291.30063 
L 146.95237 -286.863221 
L 147.068002 -282.425812 
L 147.127813 -277.988403 
L 147.146716 -273.550994 
L 147.141777 -269.113585 
L 147.129435 -264.676176 
L 147.123148 -260.238766 
L 147.131918 -255.801357 
L 147.159758 -251.363948 
L 147.205921 -246.926539 
L 147.26562 -242.48913 
L 147.331071 -238.051721 
L 147.392743 -233.614312 
L 147.440701 -229.176903 
L 147.465752 -224.739494 
L 147.460116 -220.302085 
L 147.417495 -215.864675 
L 147.332697 -211.427266 
L 147.201186 -206.989857 
L 147.018902 -202.552448 
L 146.782461 -198.115039 
L 146.489586 -193.67763 
L 146.139627 -189.240221 
L 145.734171 -184.802812 
L 145.277938 -180.365403 
L 144.780125 -175.927994 
L 144.256003 -171.490584 
L 143.728144 -167.053175 
L 143.226446 -162.615766 
L 142.786304 -158.178357 
L 142.444889 -153.740948 
L 142.236259 -149.303539 
L 142.186594 -144.86613 
L 142.311046 -140.428721 
L 142.613395 -135.991312 
L 143.089078 -131.553902 
L 143.731172 -127.116493 
L 144.53775 -122.679084 
L 145.517803 -118.241675 
L 146.691995 -113.804266 
L 148.084711 -109.366857 
L 149.70588 -104.929448 
L 151.525267 -100.492039 
L 153.447279 -96.05463 
L 155.298391 -91.617221 
L 156.838785 -87.179811 
L 157.802961 -82.742402 
L 157.962234 -78.304993 
L 157.190239 -73.867584 
L 155.507426 -69.430175 
z
" id="m2c9152be6a" style="stroke:#141414;stroke-width:1.5;"/>
    </defs>
    <g clip-path="url(#pb591af07b8)">
     <use style="fill:#083c1d;stroke:#141414;stroke-width:1.5;" x="0" xlink:href="#m2c9152be6a" y="537.898851"/>
    </g>
   </g>
   <g id="PolyCollection_2">
    <defs>
     <path d="M 290.874268 -69.430175 
L 241.528692 -69.430175 
L 239.843791 -72.657382 
L 239.007962 -75.884588 
L 239.072027 -79.111795 
L 239.988838 -82.339002 
L 241.625251 -85.566208 
L 243.788049 -88.793415 
L 246.256896 -92.020621 
L 248.816574 -95.247828 
L 251.282241 -98.475035 
L 253.514391 -101.702241 
L 255.423389 -104.929448 
L 256.965835 -108.156654 
L 258.13617 -111.383861 
L 258.956695 -114.611068 
L 259.468256 -117.838274 
L 259.722589 -121.065481 
L 259.776405 -124.292688 
L 259.686785 -127.519894 
L 259.507404 -130.747101 
L 259.28535 -133.974307 
L 259.058572 -137.201514 
L 258.854192 -140.428721 
L 258.687906 -143.655927 
L 258.564614 -146.883134 
L 258.480191 -150.110341 
L 258.424131 -153.337547 
L 258.382659 -156.564754 
L 258.341826 -159.79196 
L 258.29015 -163.019167 
L 258.220427 -166.246374 
L 258.130507 -169.47358 
L 258.023007 -172.700787 
L 257.904103 -175.927994 
L 257.781702 -179.1552 
L 257.663378 -182.382407 
L 257.55446 -185.609613 
L 257.456593 -188.83682 
L 257.366992 -192.064027 
L 257.278429 -195.291233 
L 257.179918 -198.51844 
L 257.057916 -201.745646 
L 256.89785 -204.972853 
L 256.685735 -208.20006 
L 256.409707 -211.427266 
L 256.061315 -214.654473 
L 255.636486 -217.88168 
L 255.136104 -221.108886 
L 254.566192 -224.336093 
L 253.937665 -227.563299 
L 253.265698 -230.790506 
L 252.568706 -234.017713 
L 251.867069 -237.244919 
L 251.181731 -240.472126 
L 250.532911 -243.699333 
L 249.939164 -246.926539 
L 249.416968 -250.153746 
L 248.980882 -253.380952 
L 248.644147 -256.608159 
L 248.419416 -259.835366 
L 248.319228 -263.062572 
L 248.355901 -266.289779 
L 248.540663 -269.516985 
L 248.882137 -272.744192 
L 249.384492 -275.971399 
L 250.045726 -279.198605 
L 250.856531 -282.425812 
L 251.800027 -285.653019 
L 252.852461 -288.880225 
L 253.984741 -292.107432 
L 255.164542 -295.334638 
L 256.358646 -298.561845 
L 257.535232 -301.789052 
L 258.665855 -305.016258 
L 259.726951 -308.243465 
L 260.700796 -311.470672 
L 261.575869 -314.697878 
L 262.346701 -317.925085 
L 263.01327 -321.152291 
L 263.580075 -324.379498 
L 264.05502 -327.606705 
L 264.448232 -330.833911 
L 264.770918 -334.061118 
L 265.03437 -337.288325 
L 265.249165 -340.515531 
L 265.424631 -343.742738 
L 265.568557 -346.969944 
L 265.687157 -350.197151 
L 265.785209 -353.424358 
L 265.866304 -356.651564 
L 265.933154 -359.878771 
L 265.987859 -363.105977 
L 266.032144 -366.333184 
L 266.067514 -369.560391 
L 266.095347 -372.787597 
L 266.116941 -376.014804 
L 266.133516 -379.242011 
L 266.146195 -382.469217 
L 266.155971 -385.696424 
L 266.163678 -388.92363 
L 266.239282 -388.92363 
L 266.239282 -388.92363 
L 266.246989 -385.696424 
L 266.256765 -382.469217 
L 266.269444 -379.242011 
L 266.286019 -376.014804 
L 266.307613 -372.787597 
L 266.335446 -369.560391 
L 266.370816 -366.333184 
L 266.415101 -363.105977 
L 266.469806 -359.878771 
L 266.536656 -356.651564 
L 266.617751 -353.424358 
L 266.715803 -350.197151 
L 266.834403 -346.969944 
L 266.978329 -343.742738 
L 267.153795 -340.515531 
L 267.36859 -337.288325 
L 267.632042 -334.061118 
L 267.954728 -330.833911 
L 268.34794 -327.606705 
L 268.822885 -324.379498 
L 269.38969 -321.152291 
L 270.056259 -317.925085 
L 270.827091 -314.697878 
L 271.702164 -311.470672 
L 272.676009 -308.243465 
L 273.737105 -305.016258 
L 274.867728 -301.789052 
L 276.044314 -298.561845 
L 277.238418 -295.334638 
L 278.418219 -292.107432 
L 279.550499 -288.880225 
L 280.602933 -285.653019 
L 281.546429 -282.425812 
L 282.357234 -279.198605 
L 283.018468 -275.971399 
L 283.520823 -272.744192 
L 283.862297 -269.516985 
L 284.047059 -266.289779 
L 284.083732 -263.062572 
L 283.983544 -259.835366 
L 283.758813 -256.608159 
L 283.422078 -253.380952 
L 282.985992 -250.153746 
L 282.463796 -246.926539 
L 281.870049 -243.699333 
L 281.221229 -240.472126 
L 280.535891 -237.244919 
L 279.834254 -234.017713 
L 279.137262 -230.790506 
L 278.465295 -227.563299 
L 277.836768 -224.336093 
L 277.266856 -221.108886 
L 276.766474 -217.88168 
L 276.341645 -214.654473 
L 275.993253 -211.427266 
L 275.717225 -208.20006 
L 275.50511 -204.972853 
L 275.345044 -201.745646 
L 275.223042 -198.51844 
L 275.124531 -195.291233 
L 275.035968 -192.064027 
L 274.946367 -188.83682 
L 274.8485 -185.609613 
L 274.739582 -182.382407 
L 274.621258 -179.1552 
L 274.498857 -175.927994 
L 274.379953 -172.700787 
L 274.272453 -169.47358 
L 274.182533 -166.246374 
L 274.11281 -163.019167 
L 274.061134 -159.79196 
L 274.020301 -156.564754 
L 273.978829 -153.337547 
L 273.922769 -150.110341 
L 273.838346 -146.883134 
L 273.715054 -143.655927 
L 273.548768 -140.428721 
L 273.344388 -137.201514 
L 273.11761 -133.974307 
L 272.895556 -130.747101 
L 272.716175 -127.519894 
L 272.626555 -124.292688 
L 272.680371 -121.065481 
L 272.934704 -117.838274 
L 273.446265 -114.611068 
L 274.26679 -111.383861 
L 275.437125 -108.156654 
L 276.979571 -104.929448 
L 278.888569 -101.702241 
L 281.120719 -98.475035 
L 283.586386 -95.247828 
L 286.146064 -92.020621 
L 288.614911 -88.793415 
L 290.777709 -85.566208 
L 292.414122 -82.339002 
L 293.330933 -79.111795 
L 293.394998 -75.884588 
L 292.559169 -72.657382 
L 290.874268 -69.430175 
z
" id="m40b6c84efc" style="stroke:#141414;stroke-width:1.5;"/>
    </defs>
    <g clip-path="url(#pb591af07b8)">
     <use style="fill:#0e5f2f;stroke:#141414;stroke-width:1.5;" x="0" xlink:href="#m40b6c84efc" y="537.898851"/>
    </g>
   </g>
   <g id="PolyCollection_3">
    <defs>
     <path d="M 433.039115 -69.430175 
L 359.112485 -69.430175 
L 353.792144 -71.21339 
L 350.520697 -72.996605 
L 349.459794 -74.77982 
L 350.293334 -76.563035 
L 352.393289 -78.34625 
L 355.055824 -80.129465 
L 357.697112 -81.91268 
L 359.946923 -83.695895 
L 361.644884 -85.47911 
L 362.78572 -87.262325 
L 363.460952 -89.04554 
L 363.819266 -90.828755 
L 364.040867 -92.61197 
L 364.310366 -94.395185 
L 364.780651 -96.1784 
L 365.535978 -97.961615 
L 366.571576 -99.74483 
L 367.801827 -101.528045 
L 369.094174 -103.31126 
L 370.312887 -105.094475 
L 371.354343 -106.877691 
L 372.163333 -108.660906 
L 372.730872 -110.444121 
L 373.081072 -112.227336 
L 373.255321 -114.010551 
L 373.298848 -115.793766 
L 373.251311 -117.576981 
L 373.141554 -119.360196 
L 372.986605 -121.143411 
L 372.794805 -122.926626 
L 372.571703 -124.709841 
L 372.325794 -126.493056 
L 372.070813 -128.276271 
L 371.823095 -130.059486 
L 371.595872 -131.842701 
L 371.39496 -133.625916 
L 371.219926 -135.409131 
L 371.070887 -137.192346 
L 370.956153 -138.975561 
L 370.894042 -140.758776 
L 370.905638 -142.541991 
L 371.001927 -144.325206 
L 371.173465 -146.108421 
L 371.389678 -147.891636 
L 371.608935 -149.674851 
L 371.794281 -151.458066 
L 371.927299 -153.241281 
L 372.014602 -155.024496 
L 372.085607 -156.807711 
L 372.183675 -158.590926 
L 372.35427 -160.374141 
L 372.633829 -162.157356 
L 373.042345 -163.940571 
L 373.581626 -165.723786 
L 374.239585 -167.507001 
L 374.998714 -169.290216 
L 375.844959 -171.073431 
L 376.77277 -172.856646 
L 377.784101 -174.639861 
L 378.882451 -176.423076 
L 380.065574 -178.206291 
L 381.320672 -179.989506 
L 382.623868 -181.772721 
L 383.943252 -183.555936 
L 385.243348 -185.339151 
L 386.489122 -187.122366 
L 387.648882 -188.905581 
L 388.696631 -190.688797 
L 389.614609 -192.472012 
L 390.395885 -194.255227 
L 391.045774 -196.038442 
L 391.580755 -197.821657 
L 392.024656 -199.604872 
L 392.403415 -201.388087 
L 392.740306 -203.171302 
L 393.052885 -204.954517 
L 393.35163 -206.737732 
L 393.639659 -208.520947 
L 393.913226 -210.304162 
L 394.163365 -212.087377 
L 394.379057 -213.870592 
L 394.551398 -215.653807 
L 394.677255 -217.437022 
L 394.760616 -219.220237 
L 394.810902 -221.003452 
L 394.839069 -222.786667 
L 394.853553 -224.569882 
L 394.85801 -226.353097 
L 394.851662 -228.136312 
L 394.831683 -229.919527 
L 394.796308 -231.702742 
L 394.747628 -233.485957 
L 394.693452 -235.269172 
L 394.64779 -237.052387 
L 394.629184 -238.835602 
L 394.656406 -240.618817 
L 394.742226 -242.402032 
L 394.887674 -244.185247 
L 395.079884 -245.968462 
L 397.071716 -245.968462 
L 397.071716 -245.968462 
L 397.263926 -244.185247 
L 397.409374 -242.402032 
L 397.495194 -240.618817 
L 397.522416 -238.835602 
L 397.50381 -237.052387 
L 397.458148 -235.269172 
L 397.403972 -233.485957 
L 397.355292 -231.702742 
L 397.319917 -229.919527 
L 397.299938 -228.136312 
L 397.29359 -226.353097 
L 397.298047 -224.569882 
L 397.312531 -222.786667 
L 397.340698 -221.003452 
L 397.390984 -219.220237 
L 397.474345 -217.437022 
L 397.600202 -215.653807 
L 397.772543 -213.870592 
L 397.988235 -212.087377 
L 398.238374 -210.304162 
L 398.511941 -208.520947 
L 398.79997 -206.737732 
L 399.098715 -204.954517 
L 399.411294 -203.171302 
L 399.748185 -201.388087 
L 400.126944 -199.604872 
L 400.570845 -197.821657 
L 401.105826 -196.038442 
L 401.755715 -194.255227 
L 402.536991 -192.472012 
L 403.454969 -190.688797 
L 404.502718 -188.905581 
L 405.662478 -187.122366 
L 406.908252 -185.339151 
L 408.208348 -183.555936 
L 409.527732 -181.772721 
L 410.830928 -179.989506 
L 412.086026 -178.206291 
L 413.269149 -176.423076 
L 414.367499 -174.639861 
L 415.37883 -172.856646 
L 416.306641 -171.073431 
L 417.152886 -169.290216 
L 417.912015 -167.507001 
L 418.569974 -165.723786 
L 419.109255 -163.940571 
L 419.517771 -162.157356 
L 419.79733 -160.374141 
L 419.967925 -158.590926 
L 420.065993 -156.807711 
L 420.136998 -155.024496 
L 420.224301 -153.241281 
L 420.357319 -151.458066 
L 420.542665 -149.674851 
L 420.761922 -147.891636 
L 420.978135 -146.108421 
L 421.149673 -144.325206 
L 421.245962 -142.541991 
L 421.257558 -140.758776 
L 421.195447 -138.975561 
L 421.080713 -137.192346 
L 420.931674 -135.409131 
L 420.75664 -133.625916 
L 420.555728 -131.842701 
L 420.328505 -130.059486 
L 420.080787 -128.276271 
L 419.825806 -126.493056 
L 419.579897 -124.709841 
L 419.356795 -122.926626 
L 419.164995 -121.143411 
L 419.010046 -119.360196 
L 418.900289 -117.576981 
L 418.852752 -115.793766 
L 418.896279 -114.010551 
L 419.070528 -112.227336 
L 419.420728 -110.444121 
L 419.988267 -108.660906 
L 420.797257 -106.877691 
L 421.838713 -105.094475 
L 423.057426 -103.31126 
L 424.349773 -101.528045 
L 425.580024 -99.74483 
L 426.615622 -97.961615 
L 427.370949 -96.1784 
L 427.841234 -94.395185 
L 428.110733 -92.61197 
L 428.332334 -90.828755 
L 428.690648 -89.04554 
L 429.36588 -87.262325 
L 430.506716 -85.47911 
L 432.204677 -83.695895 
L 434.454488 -81.91268 
L 437.095776 -80.129465 
L 439.758311 -78.34625 
L 441.858266 -76.563035 
L 442.691806 -74.77982 
L 441.630903 -72.996605 
L 438.359456 -71.21339 
L 433.039115 -69.430175 
z
" id="m29b6cb3aaf" style="stroke:#141414;stroke-width:1.5;"/>
    </defs>
    <g clip-path="url(#pb591af07b8)">
     <use style="fill:#307e4a;stroke:#141414;stroke-width:1.5;" x="0" xlink:href="#m29b6cb3aaf" y="537.898851"/>
    </g>
   </g>
   <g id="PolyCollection_4">
    <defs>
     <path d="M 566.924291 -69.430175 
L 484.975949 -69.430175 
L 479.143894 -71.062115 
L 475.419896 -72.694054 
L 474.000392 -74.325994 
L 474.615244 -75.957934 
L 476.674852 -77.589874 
L 479.485951 -79.221813 
L 482.438533 -80.853753 
L 485.107202 -82.485693 
L 487.266635 -84.117632 
L 488.855855 -85.749572 
L 489.928234 -87.381512 
L 490.606548 -89.013452 
L 491.044898 -90.645391 
L 491.393421 -92.277331 
L 491.766208 -93.909271 
L 492.219338 -95.54121 
L 492.747029 -97.17315 
L 493.298074 -98.80509 
L 493.806113 -100.43703 
L 494.2214 -102.068969 
L 494.531984 -103.700909 
L 494.767683 -105.332849 
L 494.987691 -106.964788 
L 495.258652 -108.596728 
L 495.632402 -110.228668 
L 496.131192 -111.860608 
L 496.7439 -113.492547 
L 497.432075 -115.124487 
L 498.141692 -116.756427 
L 498.816422 -118.388366 
L 499.409726 -120.020306 
L 499.894217 -121.652246 
L 500.266401 -123.284186 
L 500.544545 -124.916125 
L 500.758869 -126.548065 
L 500.937011 -128.180005 
L 501.091288 -129.811944 
L 501.214709 -131.443884 
L 501.288542 -133.075824 
L 501.297775 -134.707764 
L 501.246019 -136.339703 
L 501.161541 -137.971643 
L 501.091134 -139.603583 
L 501.085358 -141.235522 
L 501.182934 -142.867462 
L 501.401539 -144.499402 
L 501.73774 -146.131341 
L 502.173882 -147.763281 
L 502.687409 -149.395221 
L 503.258956 -151.027161 
L 503.877606 -152.6591 
L 504.542964 -154.29104 
L 505.263831 -155.92298 
L 506.053619 -157.554919 
L 506.923698 -159.186859 
L 507.877011 -160.818799 
L 508.904088 -162.450739 
L 509.98233 -164.082678 
L 511.078168 -165.714618 
L 512.151509 -167.346558 
L 513.162189 -168.978497 
L 514.077796 -170.610437 
L 514.881005 -172.242377 
L 515.573599 -173.874317 
L 516.175041 -175.506256 
L 516.715691 -177.138196 
L 517.227337 -178.770136 
L 517.734713 -180.402075 
L 518.250836 -182.034015 
L 518.77684 -183.665955 
L 519.305058 -185.297895 
L 519.823222 -186.929834 
L 520.318088 -188.561774 
L 520.77783 -190.193714 
L 521.193511 -191.825653 
L 521.560097 -193.457593 
L 521.87703 -195.089533 
L 522.147843 -196.721473 
L 522.378366 -198.353412 
L 522.573839 -199.985352 
L 522.736212 -201.617292 
L 522.863196 -203.249231 
L 522.949895 -204.881171 
L 522.992415 -206.513111 
L 522.991708 -208.145051 
L 522.955811 -209.77699 
L 522.899589 -211.40893 
L 522.842302 -213.04087 
L 522.804119 -214.672809 
L 522.802718 -216.304749 
L 522.850703 -217.936689 
L 522.954258 -219.568628 
L 523.113197 -221.200568 
L 523.322319 -222.832508 
L 523.573416 -224.464448 
L 523.856893 -226.096387 
L 524.16215 -227.728327 
L 524.476885 -229.360267 
L 524.786492 -230.992206 
L 527.113748 -230.992206 
L 527.113748 -230.992206 
L 527.423355 -229.360267 
L 527.73809 -227.728327 
L 528.043347 -226.096387 
L 528.326824 -224.464448 
L 528.577921 -222.832508 
L 528.787043 -221.200568 
L 528.945982 -219.568628 
L 529.049537 -217.936689 
L 529.097522 -216.304749 
L 529.096121 -214.672809 
L 529.057938 -213.04087 
L 529.000651 -211.40893 
L 528.944429 -209.77699 
L 528.908532 -208.145051 
L 528.907825 -206.513111 
L 528.950345 -204.881171 
L 529.037044 -203.249231 
L 529.164028 -201.617292 
L 529.326401 -199.985352 
L 529.521874 -198.353412 
L 529.752397 -196.721473 
L 530.02321 -195.089533 
L 530.340143 -193.457593 
L 530.706729 -191.825653 
L 531.12241 -190.193714 
L 531.582152 -188.561774 
L 532.077018 -186.929834 
L 532.595182 -185.297895 
L 533.1234 -183.665955 
L 533.649404 -182.034015 
L 534.165527 -180.402075 
L 534.672903 -178.770136 
L 535.184549 -177.138196 
L 535.725199 -175.506256 
L 536.326641 -173.874317 
L 537.019235 -172.242377 
L 537.822444 -170.610437 
L 538.738051 -168.978497 
L 539.748731 -167.346558 
L 540.822072 -165.714618 
L 541.91791 -164.082678 
L 542.996152 -162.450739 
L 544.023229 -160.818799 
L 544.976542 -159.186859 
L 545.846621 -157.554919 
L 546.636409 -155.92298 
L 547.357276 -154.29104 
L 548.022634 -152.6591 
L 548.641284 -151.027161 
L 549.212831 -149.395221 
L 549.726358 -147.763281 
L 550.1625 -146.131341 
L 550.498701 -144.499402 
L 550.717306 -142.867462 
L 550.814882 -141.235522 
L 550.809106 -139.603583 
L 550.738699 -137.971643 
L 550.654221 -136.339703 
L 550.602465 -134.707764 
L 550.611698 -133.075824 
L 550.685531 -131.443884 
L 550.808952 -129.811944 
L 550.963229 -128.180005 
L 551.141371 -126.548065 
L 551.355695 -124.916125 
L 551.633839 -123.284186 
L 552.006023 -121.652246 
L 552.490514 -120.020306 
L 553.083818 -118.388366 
L 553.758548 -116.756427 
L 554.468165 -115.124487 
L 555.15634 -113.492547 
L 555.769048 -111.860608 
L 556.267838 -110.228668 
L 556.641588 -108.596728 
L 556.912549 -106.964788 
L 557.132557 -105.332849 
L 557.368256 -103.700909 
L 557.67884 -102.068969 
L 558.094127 -100.43703 
L 558.602166 -98.80509 
L 559.153211 -97.17315 
L 559.680902 -95.54121 
L 560.134032 -93.909271 
L 560.506819 -92.277331 
L 560.855342 -90.645391 
L 561.293692 -89.013452 
L 561.972006 -87.381512 
L 563.044385 -85.749572 
L 564.633605 -84.117632 
L 566.793038 -82.485693 
L 569.461707 -80.853753 
L 572.414289 -79.221813 
L 575.225388 -77.589874 
L 577.284996 -75.957934 
L 577.899848 -74.325994 
L 576.480344 -72.694054 
L 572.756346 -71.062115 
L 566.924291 -69.430175 
z
" id="m5f371f251d" style="stroke:#141414;stroke-width:1.5;"/>
    </defs>
    <g clip-path="url(#pb591af07b8)">
     <use style="fill:#4fa076;stroke:#141414;stroke-width:1.5;" x="0" xlink:href="#m5f371f251d" y="537.898851"/>
    </g>
   </g>
   <g id="PolyCollection_5">
    <defs>
     <path d="M 693.542707 -69.430175 
L 618.106173 -69.430175 
L 612.580021 -71.786403 
L 609.994986 -74.14263 
L 610.518411 -76.498858 
L 613.499032 -78.855085 
L 617.798702 -81.211313 
L 622.269704 -83.56754 
L 626.126169 -85.923768 
L 629.069341 -88.279996 
L 631.187131 -90.636223 
L 632.74711 -92.992451 
L 634.005746 -95.348678 
L 635.102078 -97.704906 
L 636.042904 -100.061133 
L 636.748659 -102.417361 
L 637.118826 -104.773588 
L 637.084895 -107.129816 
L 636.636263 -109.486044 
L 635.82028 -111.842271 
L 634.725941 -114.198499 
L 633.461484 -116.554726 
L 632.132962 -118.910954 
L 630.827733 -121.267181 
L 629.605344 -123.623409 
L 628.497276 -125.979637 
L 627.515224 -128.335864 
L 626.664866 -130.692092 
L 625.95984 -133.048319 
L 625.430278 -135.404547 
L 625.122279 -137.760774 
L 625.088539 -140.117002 
L 625.374365 -142.473229 
L 626.005136 -144.829457 
L 626.979722 -147.185685 
L 628.270375 -149.541912 
L 629.826355 -151.89814 
L 631.578476 -154.254367 
L 633.444347 -156.610595 
L 635.335995 -158.966822 
L 637.170518 -161.32305 
L 638.881423 -163.679277 
L 640.426573 -166.035505 
L 641.790077 -168.391733 
L 642.978377 -170.74796 
L 644.012789 -173.104188 
L 644.920946 -175.460415 
L 645.729127 -177.816643 
L 646.457295 -180.17287 
L 647.118165 -182.529098 
L 647.720004 -184.885326 
L 648.270667 -187.241553 
L 648.779612 -189.597781 
L 649.256395 -191.954008 
L 649.707137 -194.310236 
L 650.132072 -196.666463 
L 650.526171 -199.022691 
L 650.882243 -201.378918 
L 651.194309 -203.735146 
L 651.459546 -206.091374 
L 651.678559 -208.447601 
L 651.854733 -210.803829 
L 651.993245 -213.160056 
L 652.100003 -215.516284 
L 652.18075 -217.872511 
L 652.240712 -220.228739 
L 652.28498 -222.584966 
L 652.319182 -224.941194 
L 652.3496 -227.297422 
L 652.382248 -229.653649 
L 652.421315 -232.009877 
L 652.468111 -234.366104 
L 652.521444 -236.722332 
L 652.579448 -239.078559 
L 652.641847 -241.434787 
L 652.711189 -243.791015 
L 652.792021 -246.147242 
L 652.888171 -248.50347 
L 652.999604 -250.859697 
L 653.120872 -253.215925 
L 653.24242 -255.572152 
L 653.354373 -257.92838 
L 653.450917 -260.284607 
L 653.532922 -262.640835 
L 653.607262 -264.997063 
L 653.682975 -267.35329 
L 653.766251 -269.709518 
L 653.857019 -272.065745 
L 653.949114 -274.421973 
L 654.033736 -276.7782 
L 654.103856 -279.134428 
L 654.15684 -281.490656 
L 654.19424 -283.846883 
L 654.220097 -286.203111 
L 654.240114 -288.559338 
L 654.262757 -290.915566 
L 654.300764 -293.271793 
L 654.370082 -295.628021 
L 654.484696 -297.984248 
L 654.649334 -300.340476 
L 654.854623 -302.696704 
L 656.794257 -302.696704 
L 656.794257 -302.696704 
L 656.999546 -300.340476 
L 657.164184 -297.984248 
L 657.278798 -295.628021 
L 657.348116 -293.271793 
L 657.386123 -290.915566 
L 657.408766 -288.559338 
L 657.428783 -286.203111 
L 657.45464 -283.846883 
L 657.49204 -281.490656 
L 657.545024 -279.134428 
L 657.615144 -276.7782 
L 657.699766 -274.421973 
L 657.791861 -272.065745 
L 657.882629 -269.709518 
L 657.965905 -267.35329 
L 658.041618 -264.997063 
L 658.115958 -262.640835 
L 658.197963 -260.284607 
L 658.294507 -257.92838 
L 658.40646 -255.572152 
L 658.528008 -253.215925 
L 658.649276 -250.859697 
L 658.760709 -248.50347 
L 658.856859 -246.147242 
L 658.937691 -243.791015 
L 659.007033 -241.434787 
L 659.069432 -239.078559 
L 659.127436 -236.722332 
L 659.180769 -234.366104 
L 659.227565 -232.009877 
L 659.266632 -229.653649 
L 659.29928 -227.297422 
L 659.329698 -224.941194 
L 659.3639 -222.584966 
L 659.408168 -220.228739 
L 659.46813 -217.872511 
L 659.548877 -215.516284 
L 659.655635 -213.160056 
L 659.794147 -210.803829 
L 659.970321 -208.447601 
L 660.189334 -206.091374 
L 660.454571 -203.735146 
L 660.766637 -201.378918 
L 661.122709 -199.022691 
L 661.516808 -196.666463 
L 661.941743 -194.310236 
L 662.392485 -191.954008 
L 662.869268 -189.597781 
L 663.378213 -187.241553 
L 663.928876 -184.885326 
L 664.530715 -182.529098 
L 665.191585 -180.17287 
L 665.919753 -177.816643 
L 666.727934 -175.460415 
L 667.636091 -173.104188 
L 668.670503 -170.74796 
L 669.858803 -168.391733 
L 671.222307 -166.035505 
L 672.767457 -163.679277 
L 674.478362 -161.32305 
L 676.312885 -158.966822 
L 678.204533 -156.610595 
L 680.070404 -154.254367 
L 681.822525 -151.89814 
L 683.378505 -149.541912 
L 684.669158 -147.185685 
L 685.643744 -144.829457 
L 686.274515 -142.473229 
L 686.560341 -140.117002 
L 686.526601 -137.760774 
L 686.218602 -135.404547 
L 685.68904 -133.048319 
L 684.984014 -130.692092 
L 684.133656 -128.335864 
L 683.151604 -125.979637 
L 682.043536 -123.623409 
L 680.821147 -121.267181 
L 679.515918 -118.910954 
L 678.187396 -116.554726 
L 676.922939 -114.198499 
L 675.8286 -111.842271 
L 675.012617 -109.486044 
L 674.563985 -107.129816 
L 674.530054 -104.773588 
L 674.900221 -102.417361 
L 675.605976 -100.061133 
L 676.546802 -97.704906 
L 677.643134 -95.348678 
L 678.90177 -92.992451 
L 680.461749 -90.636223 
L 682.579539 -88.279996 
L 685.522711 -85.923768 
L 689.379176 -83.56754 
L 693.850178 -81.211313 
L 698.149848 -78.855085 
L 701.130469 -76.498858 
L 701.653894 -74.14263 
L 699.068859 -71.786403 
L 693.542707 -69.430175 
z
" id="me9f8b654af" style="stroke:#141414;stroke-width:1.5;"/>
    </defs>
    <g clip-path="url(#pb591af07b8)">
     <use style="fill:#72b6a0;stroke:#141414;stroke-width:1.5;" x="0" xlink:href="#me9f8b654af" y="537.898851"/>
    </g>
   </g>
   <g id="line2d_1">
    <path clip-path="url(#pb591af07b8)" d="M 136.32716 468.468676 
L 136.32716 29.165175 
" style="fill:none;stroke:#141414;stroke-linecap:round;stroke-width:1.5;"/>
   </g>
   <g id="line2d_2">
    <path clip-path="url(#pb591af07b8)" d="M 136.32716 448.046509 
L 136.32716 263.339355 
" style="fill:none;stroke:#141414;stroke-linecap:round;stroke-width:4.5;"/>
   </g>
   <g id="line2d_3">
    <path clip-path="url(#pb591af07b8)" d="M 266.20148 468.468676 
L 266.20148 148.975221 
" style="fill:none;stroke:#141414;stroke-linecap:round;stroke-width:1.5;"/>
   </g>
   <g id="line2d_4">
    <path clip-path="url(#pb591af07b8)" d="M 266.20148 456.669202 
L 266.20148 281.946219 
" style="fill:none;stroke:#141414;stroke-linecap:round;stroke-width:4.5;"/>
   </g>
   <g id="line2d_5">
    <path clip-path="url(#pb591af07b8)" d="M 396.0758 468.468676 
L 396.0758 291.930389 
" style="fill:none;stroke:#141414;stroke-linecap:round;stroke-width:1.5;"/>
   </g>
   <g id="line2d_6">
    <path clip-path="url(#pb591af07b8)" d="M 396.0758 453.038595 
L 396.0758 386.326183 
" style="fill:none;stroke:#141414;stroke-linecap:round;stroke-width:4.5;"/>
   </g>
   <g id="line2d_7">
    <path clip-path="url(#pb591af07b8)" d="M 525.95012 468.468676 
L 525.95012 308.721949 
" style="fill:none;stroke:#141414;stroke-linecap:round;stroke-width:1.5;"/>
   </g>
   <g id="line2d_8">
    <path clip-path="url(#pb591af07b8)" d="M 525.95012 454.853898 
L 525.95012 396.310353 
" style="fill:none;stroke:#141414;stroke-linecap:round;stroke-width:4.5;"/>
   </g>
   <g id="line2d_9">
    <path clip-path="url(#pb591af07b8)" d="M 655.82444 468.468676 
L 655.82444 282.400045 
" style="fill:none;stroke:#141414;stroke-linecap:round;stroke-width:1.5;"/>
   </g>
   <g id="line2d_10">
    <path clip-path="url(#pb591af07b8)" d="M 655.82444 454.853898 
L 655.82444 385.872357 
" style="fill:none;stroke:#141414;stroke-linecap:round;stroke-width:4.5;"/>
   </g>
   <g id="patch_3">
    <path d="M 71.39 490.433851 
L 71.39 7.2 
" style="fill:none;stroke:#262626;stroke-linecap:square;stroke-linejoin:miter;stroke-width:0.8;"/>
   </g>
   <g id="patch_4">
    <path d="M 71.39 490.433851 
L 720.7616 490.433851 
" style="fill:none;stroke:#262626;stroke-linecap:square;stroke-linejoin:miter;stroke-width:0.8;"/>
   </g>
   <g id="PathCollection_1">
    <defs>
     <path d="M 0 1.5 
C 0.397805 1.5 0.77937 1.341951 1.06066 1.06066 
C 1.341951 0.77937 1.5 0.397805 1.5 0 
C 1.5 -0.397805 1.341951 -0.77937 1.06066 -1.06066 
C 0.77937 -1.341951 0.397805 -1.5 0 -1.5 
C -0.397805 -1.5 -0.77937 -1.341951 -1.06066 -1.06066 
C -1.341951 -0.77937 -1.5 -0.397805 -1.5 0 
C -1.5 0.397805 -1.341951 0.77937 -1.06066 1.06066 
C -0.77937 1.341951 -0.397805 1.5 0 1.5 
z
" id="m157857bb24" style="stroke:#141414;"/>
    </defs>
    <g clip-path="url(#pb591af07b8)">
     <use style="fill:#ffffff;stroke:#141414;" x="136.32716" xlink:href="#m157857bb24" y="342.305067"/>
    </g>
   </g>
   <g id="PathCollection_2">
    <g clip-path="url(#pb591af07b8)">
     <use style="fill:#ffffff;stroke:#141414;" x="266.20148" xlink:href="#m157857bb24" y="355.919845"/>
    </g>
   </g>
   <g id="PathCollection_3">
    <g clip-path="url(#pb591af07b8)">
     <use style="fill:#ffffff;stroke:#141414;" x="396.0758" xlink:href="#m157857bb24" y="422.178431"/>
    </g>
   </g>
   <g id="PathCollection_4">
    <g clip-path="url(#pb591af07b8)">
     <use style="fill:#ffffff;stroke:#141414;" x="525.95012" xlink:href="#m157857bb24" y="428.98582"/>
    </g>
   </g>
   <g id="PathCollection_5">
    <g clip-path="url(#pb591af07b8)">
     <use style="fill:#ffffff;stroke:#141414;" x="655.82444" xlink:href="#m157857bb24" y="414.46339"/>
    </g>
   </g>
  </g>
 </g>
 <defs>
  <clipPath id="pb591af07b8">
   <rect height="483.233851" width="649.3716" x="71.39" y="7.2"/>
  </clipPath>
 </defs>
</svg>
