<?xml version="1.0" encoding="utf-8" standalone="no"?>
<!DOCTYPE svg PUBLIC "-//W3C//DTD SVG 1.1//EN"
  "http://www.w3.org/Graphics/SVG/1.1/DTD/svg11.dtd">
<!-- Created with matplotlib (https://matplotlib.org/) -->
<svg height="540.169pt" version="1.1" viewBox="0 0 803.5205 540.169" width="803.5205pt" xmlns="http://www.w3.org/2000/svg" xmlns:xlink="http://www.w3.org/1999/xlink">
 <defs>
  <style type="text/css">
*{stroke-linecap:butt;stroke-linejoin:round;white-space:pre;}
  </style>
 </defs>
 <g id="figure_1">
  <g id="patch_1">
   <path d="M 0 540.169 
L 803.5205 540.169 
L 803.5205 0 
L 0 0 
z
" style="fill:#ffffff;"/>
  </g>
  <g id="axes_1">
   <g id="patch_2">
    <path d="M 62.4925 492.704 
L 617.962148 492.704 
L 617.962148 7.2 
L 62.4925 7.2 
z
" style="fill:#ffffff;"/>
   </g>
   <g id="matplotlib.axis_1">
    <g id="xtick_1">
     <g id="text_1">
      <!-- 1040-236-2 -->
      <defs>
       <path d="M 37.25 0 
L 28.46875 0 
L 28.46875 56 
Q 25.296875 52.984375 20.140625 49.953125 
Q 14.984375 46.921875 10.890625 45.40625 
L 10.890625 53.90625 
Q 18.265625 57.375 23.78125 62.296875 
Q 29.296875 67.234375 31.59375 71.875 
L 37.25 71.875 
z
" id="ArialMT-49"/>
       <path d="M 4.15625 35.296875 
Q 4.15625 48 6.765625 55.734375 
Q 9.375 63.484375 14.515625 67.671875 
Q 19.671875 71.875 27.484375 71.875 
Q 33.25 71.875 37.59375 69.546875 
Q 41.9375 67.234375 44.765625 62.859375 
Q 47.609375 58.5 49.21875 52.21875 
Q 50.828125 45.953125 50.828125 35.296875 
Q 50.828125 22.703125 48.234375 14.96875 
Q 45.65625 7.234375 40.5 3 
Q 35.359375 -1.21875 27.484375 -1.21875 
Q 17.140625 -1.21875 11.234375 6.203125 
Q 4.15625 15.140625 4.15625 35.296875 
z
M 13.1875 35.296875 
Q 13.1875 17.671875 17.3125 11.828125 
Q 21.4375 6 27.484375 6 
Q 33.546875 6 37.671875 11.859375 
Q 41.796875 17.71875 41.796875 35.296875 
Q 41.796875 52.984375 37.671875 58.78125 
Q 33.546875 64.59375 27.390625 64.59375 
Q 21.34375 64.59375 17.71875 59.46875 
Q 13.1875 52.9375 13.1875 35.296875 
z
" id="ArialMT-48"/>
       <path d="M 32.328125 0 
L 32.328125 17.140625 
L 1.265625 17.140625 
L 1.265625 25.203125 
L 33.9375 71.578125 
L 41.109375 71.578125 
L 41.109375 25.203125 
L 50.78125 25.203125 
L 50.78125 17.140625 
L 41.109375 17.140625 
L 41.109375 0 
z
M 32.328125 25.203125 
L 32.328125 57.46875 
L 9.90625 25.203125 
z
" id="ArialMT-52"/>
       <path d="M 3.171875 21.484375 
L 3.171875 30.328125 
L 30.171875 30.328125 
L 30.171875 21.484375 
z
" id="ArialMT-45"/>
       <path d="M 50.34375 8.453125 
L 50.34375 0 
L 3.03125 0 
Q 2.9375 3.171875 4.046875 6.109375 
Q 5.859375 10.9375 9.828125 15.625 
Q 13.8125 20.3125 21.34375 26.46875 
Q 33.015625 36.03125 37.109375 41.625 
Q 41.21875 47.21875 41.21875 52.203125 
Q 41.21875 57.421875 37.46875 61 
Q 33.734375 64.59375 27.734375 64.59375 
Q 21.390625 64.59375 17.578125 60.78125 
Q 13.765625 56.984375 13.71875 50.25 
L 4.6875 51.171875 
Q 5.609375 61.28125 11.65625 66.578125 
Q 17.71875 71.875 27.9375 71.875 
Q 38.234375 71.875 44.234375 66.15625 
Q 50.25 60.453125 50.25 52 
Q 50.25 47.703125 48.484375 43.546875 
Q 46.734375 39.40625 42.65625 34.8125 
Q 38.578125 30.21875 29.109375 22.21875 
Q 21.1875 15.578125 18.9375 13.203125 
Q 16.703125 10.84375 15.234375 8.453125 
z
" id="ArialMT-50"/>
       <path d="M 4.203125 18.890625 
L 12.984375 20.0625 
Q 14.5 12.59375 18.140625 9.296875 
Q 21.78125 6 27 6 
Q 33.203125 6 37.46875 10.296875 
Q 41.75 14.59375 41.75 20.953125 
Q 41.75 27 37.796875 30.921875 
Q 33.84375 34.859375 27.734375 34.859375 
Q 25.25 34.859375 21.53125 33.890625 
L 22.515625 41.609375 
Q 23.390625 41.5 23.921875 41.5 
Q 29.546875 41.5 34.03125 44.421875 
Q 38.53125 47.359375 38.53125 53.46875 
Q 38.53125 58.296875 35.25 61.46875 
Q 31.984375 64.65625 26.8125 64.65625 
Q 21.6875 64.65625 18.265625 61.421875 
Q 14.84375 58.203125 13.875 51.765625 
L 5.078125 53.328125 
Q 6.6875 62.15625 12.390625 67.015625 
Q 18.109375 71.875 26.609375 71.875 
Q 32.46875 71.875 37.390625 69.359375 
Q 42.328125 66.84375 44.9375 62.5 
Q 47.5625 58.15625 47.5625 53.265625 
Q 47.5625 48.640625 45.0625 44.828125 
Q 42.578125 41.015625 37.703125 38.765625 
Q 44.046875 37.3125 47.5625 32.6875 
Q 51.078125 28.078125 51.078125 21.140625 
Q 51.078125 11.765625 44.234375 5.25 
Q 37.40625 -1.265625 26.953125 -1.265625 
Q 17.53125 -1.265625 11.296875 4.34375 
Q 5.078125 9.96875 4.203125 18.890625 
z
" id="ArialMT-51"/>
       <path d="M 49.75 54.046875 
L 41.015625 53.375 
Q 39.84375 58.546875 37.703125 60.890625 
Q 34.125 64.65625 28.90625 64.65625 
Q 24.703125 64.65625 21.53125 62.3125 
Q 17.390625 59.28125 14.984375 53.46875 
Q 12.59375 47.65625 12.5 36.921875 
Q 15.671875 41.75 20.265625 44.09375 
Q 24.859375 46.4375 29.890625 46.4375 
Q 38.671875 46.4375 44.84375 39.96875 
Q 51.03125 33.5 51.03125 23.25 
Q 51.03125 16.5 48.125 10.71875 
Q 45.21875 4.9375 40.140625 1.859375 
Q 35.0625 -1.21875 28.609375 -1.21875 
Q 17.625 -1.21875 10.6875 6.859375 
Q 3.765625 14.9375 3.765625 33.5 
Q 3.765625 54.25 11.421875 63.671875 
Q 18.109375 71.875 29.4375 71.875 
Q 37.890625 71.875 43.28125 67.140625 
Q 48.6875 62.40625 49.75 54.046875 
z
M 13.875 23.1875 
Q 13.875 18.65625 15.796875 14.5 
Q 17.71875 10.359375 21.1875 8.171875 
Q 24.65625 6 28.46875 6 
Q 34.03125 6 38.03125 10.484375 
Q 42.046875 14.984375 42.046875 22.703125 
Q 42.046875 30.125 38.078125 34.390625 
Q 34.125 38.671875 28.125 38.671875 
Q 22.171875 38.671875 18.015625 34.390625 
Q 13.875 30.125 13.875 23.1875 
z
" id="ArialMT-54"/>
      </defs>
      <g style="fill:#262626;" transform="translate(114.153275 511.1565)scale(0.16 -0.16)">
       <use xlink:href="#ArialMT-49"/>
       <use x="55.615234" xlink:href="#ArialMT-48"/>
       <use x="111.230469" xlink:href="#ArialMT-52"/>
       <use x="166.845703" xlink:href="#ArialMT-48"/>
       <use x="222.460938" xlink:href="#ArialMT-45"/>
       <use x="255.761719" xlink:href="#ArialMT-50"/>
       <use x="311.376953" xlink:href="#ArialMT-51"/>
       <use x="366.992188" xlink:href="#ArialMT-54"/>
       <use x="422.607422" xlink:href="#ArialMT-45"/>
       <use x="455.908203" xlink:href="#ArialMT-50"/>
      </g>
     </g>
    </g>
    <g id="xtick_2">
     <g id="text_2">
      <!-- 686-1 -->
      <defs>
       <path d="M 17.671875 38.8125 
Q 12.203125 40.828125 9.5625 44.53125 
Q 6.9375 48.25 6.9375 53.421875 
Q 6.9375 61.234375 12.546875 66.546875 
Q 18.171875 71.875 27.484375 71.875 
Q 36.859375 71.875 42.578125 66.421875 
Q 48.296875 60.984375 48.296875 53.171875 
Q 48.296875 48.1875 45.671875 44.5 
Q 43.0625 40.828125 37.75 38.8125 
Q 44.34375 36.671875 47.78125 31.875 
Q 51.21875 27.09375 51.21875 20.453125 
Q 51.21875 11.28125 44.71875 5.03125 
Q 38.234375 -1.21875 27.640625 -1.21875 
Q 17.046875 -1.21875 10.546875 5.046875 
Q 4.046875 11.328125 4.046875 20.703125 
Q 4.046875 27.6875 7.59375 32.390625 
Q 11.140625 37.109375 17.671875 38.8125 
z
M 15.921875 53.71875 
Q 15.921875 48.640625 19.1875 45.40625 
Q 22.46875 42.1875 27.6875 42.1875 
Q 32.765625 42.1875 36.015625 45.375 
Q 39.265625 48.578125 39.265625 53.21875 
Q 39.265625 58.0625 35.90625 61.359375 
Q 32.5625 64.65625 27.59375 64.65625 
Q 22.5625 64.65625 19.234375 61.421875 
Q 15.921875 58.203125 15.921875 53.71875 
z
M 13.09375 20.65625 
Q 13.09375 16.890625 14.875 13.375 
Q 16.65625 9.859375 20.171875 7.921875 
Q 23.6875 6 27.734375 6 
Q 34.03125 6 38.125 10.046875 
Q 42.234375 14.109375 42.234375 20.359375 
Q 42.234375 26.703125 38.015625 30.859375 
Q 33.796875 35.015625 27.4375 35.015625 
Q 21.234375 35.015625 17.15625 30.90625 
Q 13.09375 26.8125 13.09375 20.65625 
z
" id="ArialMT-56"/>
      </defs>
      <g style="fill:#262626;" transform="translate(319.768574 511.1565)scale(0.16 -0.16)">
       <use xlink:href="#ArialMT-54"/>
       <use x="55.615234" xlink:href="#ArialMT-56"/>
       <use x="111.230469" xlink:href="#ArialMT-54"/>
       <use x="166.845703" xlink:href="#ArialMT-45"/>
       <use x="200.146484" xlink:href="#ArialMT-49"/>
      </g>
     </g>
    </g>
    <g id="xtick_3">
     <g id="text_3">
      <!-- 686-2 -->
      <g style="fill:#262626;" transform="translate(504.925123 511.1565)scale(0.16 -0.16)">
       <use xlink:href="#ArialMT-54"/>
       <use x="55.615234" xlink:href="#ArialMT-56"/>
       <use x="111.230469" xlink:href="#ArialMT-54"/>
       <use x="166.845703" xlink:href="#ArialMT-45"/>
       <use x="200.146484" xlink:href="#ArialMT-50"/>
      </g>
     </g>
    </g>
    <g id="text_4">
     <!-- Counter id -->
     <defs>
      <path d="M 58.796875 25.09375 
L 68.265625 22.703125 
Q 65.28125 11.03125 57.546875 4.90625 
Q 49.8125 -1.21875 38.625 -1.21875 
Q 27.046875 -1.21875 19.796875 3.484375 
Q 12.546875 8.203125 8.765625 17.140625 
Q 4.984375 26.078125 4.984375 36.328125 
Q 4.984375 47.515625 9.25 55.828125 
Q 13.53125 64.15625 21.40625 68.46875 
Q 29.296875 72.796875 38.765625 72.796875 
Q 49.515625 72.796875 56.828125 67.328125 
Q 64.15625 61.859375 67.046875 51.953125 
L 57.71875 49.75 
Q 55.21875 57.5625 50.484375 61.125 
Q 45.75 64.703125 38.578125 64.703125 
Q 30.328125 64.703125 24.78125 60.734375 
Q 19.234375 56.78125 16.984375 50.109375 
Q 14.75 43.453125 14.75 36.375 
Q 14.75 27.25 17.40625 20.4375 
Q 20.0625 13.625 25.671875 10.25 
Q 31.296875 6.890625 37.84375 6.890625 
Q 45.796875 6.890625 51.3125 11.46875 
Q 56.84375 16.0625 58.796875 25.09375 
z
" id="ArialMT-67"/>
      <path d="M 3.328125 25.921875 
Q 3.328125 40.328125 11.328125 47.265625 
Q 18.015625 53.03125 27.640625 53.03125 
Q 38.328125 53.03125 45.109375 46.015625 
Q 51.90625 39.015625 51.90625 26.65625 
Q 51.90625 16.65625 48.90625 10.90625 
Q 45.90625 5.171875 40.15625 2 
Q 34.421875 -1.171875 27.640625 -1.171875 
Q 16.75 -1.171875 10.03125 5.8125 
Q 3.328125 12.796875 3.328125 25.921875 
z
M 12.359375 25.921875 
Q 12.359375 15.96875 16.703125 11.015625 
Q 21.046875 6.0625 27.640625 6.0625 
Q 34.1875 6.0625 38.53125 11.03125 
Q 42.875 16.015625 42.875 26.21875 
Q 42.875 35.84375 38.5 40.796875 
Q 34.125 45.75 27.640625 45.75 
Q 21.046875 45.75 16.703125 40.8125 
Q 12.359375 35.890625 12.359375 25.921875 
z
" id="ArialMT-111"/>
      <path d="M 40.578125 0 
L 40.578125 7.625 
Q 34.515625 -1.171875 24.125 -1.171875 
Q 19.53125 -1.171875 15.546875 0.578125 
Q 11.578125 2.34375 9.640625 5 
Q 7.71875 7.671875 6.9375 11.53125 
Q 6.390625 14.109375 6.390625 19.734375 
L 6.390625 51.859375 
L 15.1875 51.859375 
L 15.1875 23.09375 
Q 15.1875 16.21875 15.71875 13.8125 
Q 16.546875 10.359375 19.234375 8.375 
Q 21.921875 6.390625 25.875 6.390625 
Q 29.828125 6.390625 33.296875 8.421875 
Q 36.765625 10.453125 38.203125 13.9375 
Q 39.65625 17.4375 39.65625 24.078125 
L 39.65625 51.859375 
L 48.4375 51.859375 
L 48.4375 0 
z
" id="ArialMT-117"/>
      <path d="M 6.59375 0 
L 6.59375 51.859375 
L 14.5 51.859375 
L 14.5 44.484375 
Q 20.21875 53.03125 31 53.03125 
Q 35.6875 53.03125 39.625 51.34375 
Q 43.5625 49.65625 45.515625 46.921875 
Q 47.46875 44.1875 48.25 40.4375 
Q 48.734375 37.984375 48.734375 31.890625 
L 48.734375 0 
L 39.9375 0 
L 39.9375 31.546875 
Q 39.9375 36.921875 38.90625 39.578125 
Q 37.890625 42.234375 35.28125 43.8125 
Q 32.671875 45.40625 29.15625 45.40625 
Q 23.53125 45.40625 19.453125 41.84375 
Q 15.375 38.28125 15.375 28.328125 
L 15.375 0 
z
" id="ArialMT-110"/>
      <path d="M 25.78125 7.859375 
L 27.046875 0.09375 
Q 23.34375 -0.6875 20.40625 -0.6875 
Q 15.625 -0.6875 12.984375 0.828125 
Q 10.359375 2.34375 9.28125 4.8125 
Q 8.203125 7.28125 8.203125 15.1875 
L 8.203125 45.015625 
L 1.765625 45.015625 
L 1.765625 51.859375 
L 8.203125 51.859375 
L 8.203125 64.703125 
L 16.9375 69.96875 
L 16.9375 51.859375 
L 25.78125 51.859375 
L 25.78125 45.015625 
L 16.9375 45.015625 
L 16.9375 14.703125 
Q 16.9375 10.9375 17.40625 9.859375 
Q 17.875 8.796875 18.921875 8.15625 
Q 19.96875 7.515625 21.921875 7.515625 
Q 23.390625 7.515625 25.78125 7.859375 
z
" id="ArialMT-116"/>
      <path d="M 42.09375 16.703125 
L 51.171875 15.578125 
Q 49.03125 7.625 43.21875 3.21875 
Q 37.40625 -1.171875 28.375 -1.171875 
Q 17 -1.171875 10.328125 5.828125 
Q 3.65625 12.84375 3.65625 25.484375 
Q 3.65625 38.578125 10.390625 45.796875 
Q 17.140625 53.03125 27.875 53.03125 
Q 38.28125 53.03125 44.875 45.953125 
Q 51.46875 38.875 51.46875 26.03125 
Q 51.46875 25.25 51.421875 23.6875 
L 12.75 23.6875 
Q 13.234375 15.140625 17.578125 10.59375 
Q 21.921875 6.0625 28.421875 6.0625 
Q 33.25 6.0625 36.671875 8.59375 
Q 40.09375 11.140625 42.09375 16.703125 
z
M 13.234375 30.90625 
L 42.1875 30.90625 
Q 41.609375 37.453125 38.875 40.71875 
Q 34.671875 45.796875 27.984375 45.796875 
Q 21.921875 45.796875 17.796875 41.75 
Q 13.671875 37.703125 13.234375 30.90625 
z
" id="ArialMT-101"/>
      <path d="M 6.5 0 
L 6.5 51.859375 
L 14.40625 51.859375 
L 14.40625 44 
Q 17.4375 49.515625 20 51.265625 
Q 22.5625 53.03125 25.640625 53.03125 
Q 30.078125 53.03125 34.671875 50.203125 
L 31.640625 42.046875 
Q 28.421875 43.953125 25.203125 43.953125 
Q 22.3125 43.953125 20.015625 42.21875 
Q 17.71875 40.484375 16.75 37.40625 
Q 15.28125 32.71875 15.28125 27.15625 
L 15.28125 0 
z
" id="ArialMT-114"/>
      <path id="ArialMT-32"/>
      <path d="M 6.640625 61.46875 
L 6.640625 71.578125 
L 15.4375 71.578125 
L 15.4375 61.46875 
z
M 6.640625 0 
L 6.640625 51.859375 
L 15.4375 51.859375 
L 15.4375 0 
z
" id="ArialMT-105"/>
      <path d="M 40.234375 0 
L 40.234375 6.546875 
Q 35.296875 -1.171875 25.734375 -1.171875 
Q 19.53125 -1.171875 14.328125 2.25 
Q 9.125 5.671875 6.265625 11.796875 
Q 3.421875 17.921875 3.421875 25.875 
Q 3.421875 33.640625 6 39.96875 
Q 8.59375 46.296875 13.765625 49.65625 
Q 18.953125 53.03125 25.34375 53.03125 
Q 30.03125 53.03125 33.6875 51.046875 
Q 37.359375 49.078125 39.65625 45.90625 
L 39.65625 71.578125 
L 48.390625 71.578125 
L 48.390625 0 
z
M 12.453125 25.875 
Q 12.453125 15.921875 16.640625 10.984375 
Q 20.84375 6.0625 26.5625 6.0625 
Q 32.328125 6.0625 36.34375 10.765625 
Q 40.375 15.484375 40.375 25.140625 
Q 40.375 35.796875 36.265625 40.765625 
Q 32.171875 45.75 26.171875 45.75 
Q 20.3125 45.75 16.375 40.96875 
Q 12.453125 36.1875 12.453125 25.875 
z
" id="ArialMT-100"/>
     </defs>
     <g style="fill:#262626;" transform="translate(303.319824 529.789)scale(0.16 -0.16)">
      <use xlink:href="#ArialMT-67"/>
      <use x="72.216797" xlink:href="#ArialMT-111"/>
      <use x="127.832031" xlink:href="#ArialMT-117"/>
      <use x="183.447266" xlink:href="#ArialMT-110"/>
      <use x="239.0625" xlink:href="#ArialMT-116"/>
      <use x="266.845703" xlink:href="#ArialMT-101"/>
      <use x="322.460938" xlink:href="#ArialMT-114"/>
      <use x="355.761719" xlink:href="#ArialMT-32"/>
      <use x="383.544922" xlink:href="#ArialMT-105"/>
      <use x="405.761719" xlink:href="#ArialMT-100"/>
     </g>
    </g>
   </g>
   <g id="matplotlib.axis_2">
    <g id="ytick_1">
     <g id="text_5">
      <!-- 0 -->
      <g style="fill:#262626;" transform="translate(46.595 476.361886)scale(0.16 -0.16)">
       <use xlink:href="#ArialMT-48"/>
      </g>
     </g>
    </g>
    <g id="ytick_2">
     <g id="text_6">
      <!-- 100 -->
      <g style="fill:#262626;" transform="translate(28.8 404.943234)scale(0.16 -0.16)">
       <use xlink:href="#ArialMT-49"/>
       <use x="55.615234" xlink:href="#ArialMT-48"/>
       <use x="111.230469" xlink:href="#ArialMT-48"/>
      </g>
     </g>
    </g>
    <g id="ytick_3">
     <g id="text_7">
      <!-- 200 -->
      <g style="fill:#262626;" transform="translate(28.8 333.524581)scale(0.16 -0.16)">
       <use xlink:href="#ArialMT-50"/>
       <use x="55.615234" xlink:href="#ArialMT-48"/>
       <use x="111.230469" xlink:href="#ArialMT-48"/>
      </g>
     </g>
    </g>
    <g id="ytick_4">
     <g id="text_8">
      <!-- 300 -->
      <g style="fill:#262626;" transform="translate(28.8 262.105929)scale(0.16 -0.16)">
       <use xlink:href="#ArialMT-51"/>
       <use x="55.615234" xlink:href="#ArialMT-48"/>
       <use x="111.230469" xlink:href="#ArialMT-48"/>
      </g>
     </g>
    </g>
    <g id="ytick_5">
     <g id="text_9">
      <!-- 400 -->
      <g style="fill:#262626;" transform="translate(28.8 190.687276)scale(0.16 -0.16)">
       <use xlink:href="#ArialMT-52"/>
       <use x="55.615234" xlink:href="#ArialMT-48"/>
       <use x="111.230469" xlink:href="#ArialMT-48"/>
      </g>
     </g>
    </g>
    <g id="ytick_6">
     <g id="text_10">
      <!-- 500 -->
      <defs>
       <path d="M 4.15625 18.75 
L 13.375 19.53125 
Q 14.40625 12.796875 18.140625 9.390625 
Q 21.875 6 27.15625 6 
Q 33.5 6 37.890625 10.78125 
Q 42.28125 15.578125 42.28125 23.484375 
Q 42.28125 31 38.0625 35.34375 
Q 33.84375 39.703125 27 39.703125 
Q 22.75 39.703125 19.328125 37.765625 
Q 15.921875 35.84375 13.96875 32.765625 
L 5.71875 33.84375 
L 12.640625 70.609375 
L 48.25 70.609375 
L 48.25 62.203125 
L 19.671875 62.203125 
L 15.828125 42.96875 
Q 22.265625 47.46875 29.34375 47.46875 
Q 38.71875 47.46875 45.15625 40.96875 
Q 51.609375 34.46875 51.609375 24.265625 
Q 51.609375 14.546875 45.953125 7.46875 
Q 39.0625 -1.21875 27.15625 -1.21875 
Q 17.390625 -1.21875 11.203125 4.25 
Q 5.03125 9.71875 4.15625 18.75 
z
" id="ArialMT-53"/>
      </defs>
      <g style="fill:#262626;" transform="translate(28.8 119.268624)scale(0.16 -0.16)">
       <use xlink:href="#ArialMT-53"/>
       <use x="55.615234" xlink:href="#ArialMT-48"/>
       <use x="111.230469" xlink:href="#ArialMT-48"/>
      </g>
     </g>
    </g>
    <g id="ytick_7">
     <g id="text_11">
      <!-- 600 -->
      <g style="fill:#262626;" transform="translate(28.8 47.849971)scale(0.16 -0.16)">
       <use xlink:href="#ArialMT-54"/>
       <use x="55.615234" xlink:href="#ArialMT-48"/>
       <use x="111.230469" xlink:href="#ArialMT-48"/>
      </g>
     </g>
    </g>
    <g id="text_12">
     <!-- Count [$h^{-1}$] -->
     <defs>
      <path d="M 6.78125 -19.875 
L 6.78125 71.578125 
L 26.171875 71.578125 
L 26.171875 64.3125 
L 15.578125 64.3125 
L 15.578125 -12.59375 
L 26.171875 -12.59375 
L 26.171875 -19.875 
z
" id="ArialMT-91"/>
      <path d="M 55.71875 33.015625 
L 49.3125 0 
L 40.28125 0 
L 46.6875 32.671875 
Q 47.125 34.96875 47.359375 36.71875 
Q 47.609375 38.484375 47.609375 39.5 
Q 47.609375 43.609375 45.015625 45.890625 
Q 42.4375 48.1875 37.796875 48.1875 
Q 30.5625 48.1875 25.265625 43.296875 
Q 19.96875 38.421875 18.40625 30.328125 
L 12.5 0 
L 3.515625 0 
L 18.3125 75.984375 
L 27.296875 75.984375 
L 21.484375 46.09375 
Q 24.90625 50.6875 30.21875 53.34375 
Q 35.546875 56 41.40625 56 
Q 48.640625 56 52.609375 52.09375 
Q 56.59375 48.1875 56.59375 41.109375 
Q 56.59375 39.359375 56.375 37.359375 
Q 56.15625 35.359375 55.71875 33.015625 
z
" id="DejaVuSans-Oblique-104"/>
      <path d="M 10.59375 35.5 
L 73.1875 35.5 
L 73.1875 27.203125 
L 10.59375 27.203125 
z
" id="DejaVuSans-8722"/>
      <path d="M 12.40625 8.296875 
L 28.515625 8.296875 
L 28.515625 63.921875 
L 10.984375 60.40625 
L 10.984375 69.390625 
L 28.421875 72.90625 
L 38.28125 72.90625 
L 38.28125 8.296875 
L 54.390625 8.296875 
L 54.390625 0 
L 12.40625 0 
z
" id="DejaVuSans-49"/>
      <path d="M 21.296875 -19.875 
L 1.90625 -19.875 
L 1.90625 -12.59375 
L 12.5 -12.59375 
L 12.5 64.3125 
L 1.90625 64.3125 
L 1.90625 71.578125 
L 21.296875 71.578125 
z
" id="ArialMT-93"/>
     </defs>
     <g style="fill:#262626;" transform="translate(21.6 292.112)rotate(-90)scale(0.16 -0.16)">
      <use transform="translate(0 0.684375)" xlink:href="#ArialMT-67"/>
      <use transform="translate(72.216797 0.684375)" xlink:href="#ArialMT-111"/>
      <use transform="translate(127.832031 0.684375)" xlink:href="#ArialMT-117"/>
      <use transform="translate(183.447266 0.684375)" xlink:href="#ArialMT-110"/>
      <use transform="translate(239.0625 0.684375)" xlink:href="#ArialMT-116"/>
      <use transform="translate(266.845703 0.684375)" xlink:href="#ArialMT-32"/>
      <use transform="translate(294.628906 0.684375)" xlink:href="#ArialMT-91"/>
      <use transform="translate(322.412109 0.684375)" xlink:href="#DejaVuSans-Oblique-104"/>
      <use transform="translate(393.238724 38.965625)scale(0.7)" xlink:href="#DejaVuSans-8722"/>
      <use transform="translate(451.891068 38.965625)scale(0.7)" xlink:href="#DejaVuSans-49"/>
      <use transform="translate(499.161576 0.684375)" xlink:href="#ArialMT-93"/>
     </g>
    </g>
   </g>
   <g id="PolyCollection_1">
    <defs>
     <path d="M 150.733052 -69.533364 
L 85.345877 -69.533364 
L 81.921617 -73.991619 
L 81.008155 -78.449874 
L 82.516218 -82.908129 
L 85.813194 -87.366385 
L 90.002624 -91.82464 
L 94.235699 -96.282895 
L 97.9182 -100.741151 
L 100.767813 -105.199406 
L 102.758373 -109.657661 
L 104.017268 -114.115916 
L 104.728602 -118.574172 
L 105.067332 -123.032427 
L 105.168219 -127.490682 
L 105.121935 -131.948938 
L 104.986181 -136.407193 
L 104.799559 -140.865448 
L 104.589342 -145.323703 
L 104.370205 -149.781959 
L 104.137191 -154.240214 
L 103.859892 -158.698469 
L 103.484293 -163.156725 
L 102.944611 -167.61498 
L 102.182615 -172.073235 
L 101.168857 -176.53149 
L 99.919976 -180.989746 
L 98.507674 -185.448001 
L 97.056553 -189.906256 
L 95.72912 -194.364511 
L 94.697941 -198.822767 
L 94.108851 -203.281022 
L 94.04511 -207.739277 
L 94.506553 -212.197533 
L 95.414746 -216.655788 
L 96.643839 -221.114043 
L 98.063463 -225.572298 
L 99.574142 -230.030554 
L 101.121612 -234.488809 
L 102.689395 -238.947064 
L 104.279434 -243.40532 
L 105.89268 -247.863575 
L 107.516847 -252.32183 
L 109.122712 -256.780085 
L 110.667324 -261.238341 
L 112.101819 -265.696596 
L 113.381332 -270.154851 
L 114.473925 -274.613107 
L 115.365694 -279.071362 
L 116.060924 -283.529617 
L 116.578352 -287.987872 
L 116.945731 -292.446128 
L 117.19448 -296.904383 
L 117.355189 -301.362638 
L 117.45412 -305.820893 
L 117.510779 -310.279149 
L 117.536707 -314.737404 
L 117.535599 -319.195659 
L 117.504782 -323.653915 
L 117.437936 -328.11217 
L 117.328711 -332.570425 
L 117.174403 -337.02868 
L 116.978656 -341.486936 
L 116.752383 -345.945191 
L 116.512859 -350.403446 
L 116.281488 -354.861702 
L 116.080787 -359.319957 
L 115.930925 -363.778212 
L 115.846286 -368.236467 
L 115.832892 -372.694723 
L 115.887602 -377.152978 
L 115.999354 -381.611233 
L 116.151841 -386.069489 
L 116.326606 -390.527744 
L 116.505783 -394.985999 
L 116.674279 -399.444254 
L 116.821454 -403.90251 
L 116.942258 -408.360765 
L 117.037504 -412.81902 
L 117.11288 -417.277275 
L 117.176716 -421.735531 
L 117.23714 -426.193786 
L 117.299661 -430.652041 
L 117.36604 -435.110297 
L 117.434623 -439.568552 
L 117.501569 -444.026807 
L 117.562269 -448.485062 
L 117.612451 -452.943318 
L 117.648975 -457.401573 
L 117.670472 -461.859828 
L 117.677877 -466.318084 
L 117.674676 -470.776339 
L 117.666597 -475.234594 
L 117.660592 -479.692849 
L 117.663251 -484.151105 
L 117.679076 -488.60936 
L 117.709274 -493.067615 
L 117.751579 -497.525871 
L 117.801195 -501.984126 
L 117.852431 -506.442381 
L 117.900267 -510.900636 
L 118.178662 -510.900636 
L 118.178662 -510.900636 
L 118.226499 -506.442381 
L 118.277734 -501.984126 
L 118.327351 -497.525871 
L 118.369655 -493.067615 
L 118.399854 -488.60936 
L 118.415679 -484.151105 
L 118.418337 -479.692849 
L 118.412333 -475.234594 
L 118.404253 -470.776339 
L 118.401052 -466.318084 
L 118.408457 -461.859828 
L 118.429955 -457.401573 
L 118.466479 -452.943318 
L 118.51666 -448.485062 
L 118.57736 -444.026807 
L 118.644307 -439.568552 
L 118.712889 -435.110297 
L 118.779269 -430.652041 
L 118.841789 -426.193786 
L 118.902214 -421.735531 
L 118.96605 -417.277275 
L 119.041425 -412.81902 
L 119.136671 -408.360765 
L 119.257476 -403.90251 
L 119.40465 -399.444254 
L 119.573146 -394.985999 
L 119.752323 -390.527744 
L 119.927088 -386.069489 
L 120.079576 -381.611233 
L 120.191327 -377.152978 
L 120.246038 -372.694723 
L 120.232644 -368.236467 
L 120.148005 -363.778212 
L 119.998143 -359.319957 
L 119.797441 -354.861702 
L 119.56607 -350.403446 
L 119.326546 -345.945191 
L 119.100273 -341.486936 
L 118.904527 -337.02868 
L 118.750219 -332.570425 
L 118.640993 -328.11217 
L 118.574148 -323.653915 
L 118.54333 -319.195659 
L 118.542223 -314.737404 
L 118.568151 -310.279149 
L 118.62481 -305.820893 
L 118.723741 -301.362638 
L 118.884449 -296.904383 
L 119.133199 -292.446128 
L 119.500577 -287.987872 
L 120.018005 -283.529617 
L 120.713235 -279.071362 
L 121.605005 -274.613107 
L 122.697598 -270.154851 
L 123.977111 -265.696596 
L 125.411606 -261.238341 
L 126.956218 -256.780085 
L 128.562083 -252.32183 
L 130.186249 -247.863575 
L 131.799496 -243.40532 
L 133.389535 -238.947064 
L 134.957318 -234.488809 
L 136.504788 -230.030554 
L 138.015467 -225.572298 
L 139.435091 -221.114043 
L 140.664183 -216.655788 
L 141.572376 -212.197533 
L 142.033819 -207.739277 
L 141.970078 -203.281022 
L 141.380988 -198.822767 
L 140.349809 -194.364511 
L 139.022377 -189.906256 
L 137.571256 -185.448001 
L 136.158954 -180.989746 
L 134.910072 -176.53149 
L 133.896314 -172.073235 
L 133.134319 -167.61498 
L 132.594637 -163.156725 
L 132.219038 -158.698469 
L 131.941739 -154.240214 
L 131.708725 -149.781959 
L 131.489588 -145.323703 
L 131.279371 -140.865448 
L 131.092748 -136.407193 
L 130.956994 -131.948938 
L 130.910711 -127.490682 
L 131.011598 -123.032427 
L 131.350328 -118.574172 
L 132.061661 -114.115916 
L 133.320557 -109.657661 
L 135.311117 -105.199406 
L 138.160729 -100.741151 
L 141.843231 -96.282895 
L 146.076305 -91.82464 
L 150.265735 -87.366385 
L 153.562711 -82.908129 
L 155.070775 -78.449874 
L 154.157312 -73.991619 
L 150.733052 -69.533364 
z
" id="m41635124dc" style="stroke:#141414;stroke-width:1.5;"/>
    </defs>
    <g clip-path="url(#p171f1de73f)">
     <use style="fill:#083c1d;stroke:#141414;stroke-width:1.5;" x="0" xlink:href="#m41635124dc" y="540.169"/>
    </g>
   </g>
   <g id="PolyCollection_2">
    <defs>
     <path d="M 221.382104 -69.533364 
L 162.822065 -69.533364 
L 158.865681 -73.984405 
L 157.259978 -78.435446 
L 158.073455 -82.886487 
L 160.794967 -87.337529 
L 164.600532 -91.78857 
L 168.673884 -96.239611 
L 172.423242 -100.690653 
L 175.540757 -105.141694 
L 177.946345 -109.592735 
L 179.689686 -114.043776 
L 180.865077 -118.494818 
L 181.561508 -122.945859 
L 181.847584 -127.3969 
L 181.779773 -131.847941 
L 181.418221 -136.298983 
L 180.835626 -140.750024 
L 180.111814 -145.201065 
L 179.317381 -149.652107 
L 178.497758 -154.103148 
L 177.668496 -158.554189 
L 176.823888 -163.00523 
L 175.951471 -167.456272 
L 175.042562 -171.907313 
L 174.095135 -176.358354 
L 173.113281 -180.809396 
L 172.10943 -185.260437 
L 171.11038 -189.711478 
L 170.161886 -194.162519 
L 169.325768 -198.613561 
L 168.668875 -203.064602 
L 168.249487 -207.515643 
L 168.108044 -211.966684 
L 168.265068 -216.417726 
L 168.724184 -220.868767 
L 169.476554 -225.319808 
L 170.504507 -229.77085 
L 171.783638 -234.221891 
L 173.2827 -238.672932 
L 174.961073 -243.123973 
L 176.765534 -247.575015 
L 178.629878 -252.026056 
L 180.48004 -256.477097 
L 182.243981 -260.928138 
L 183.862635 -265.37918 
L 185.29772 -269.830221 
L 186.533934 -274.281262 
L 187.575461 -278.732304 
L 188.43883 -283.183345 
L 189.145286 -287.634386 
L 189.715445 -292.085427 
L 190.167251 -296.536469 
L 190.516423 -300.98751 
L 190.777726 -305.438551 
L 190.965762 -309.889592 
L 191.094789 -314.340634 
L 191.177658 -318.791675 
L 191.224477 -323.242716 
L 191.241859 -327.693758 
L 191.233577 -332.144799 
L 191.202691 -336.59584 
L 191.154048 -341.046881 
L 191.095349 -345.497923 
L 191.035623 -349.948964 
L 190.981753 -354.400005 
L 190.935463 -358.851046 
L 190.893268 -363.302088 
L 190.849923 -367.753129 
L 190.803169 -372.20417 
L 190.756407 -376.655212 
L 190.717397 -381.106253 
L 190.694099 -385.557294 
L 190.690859 -390.008335 
L 190.707539 -394.459377 
L 190.741546 -398.910418 
L 190.790449 -403.361459 
L 190.852856 -407.812501 
L 190.927205 -412.263542 
L 191.010154 -416.714583 
L 191.096429 -421.165624 
L 191.18044 -425.616666 
L 191.258291 -430.067707 
L 191.32852 -434.518748 
L 191.391114 -438.969789 
L 191.445801 -443.420831 
L 191.491006 -447.871872 
L 191.524192 -452.322913 
L 191.543169 -456.773955 
L 191.547494 -461.224996 
L 191.539206 -465.676037 
L 191.522716 -470.127078 
L 191.504108 -474.57812 
L 191.490253 -479.029161 
L 191.487967 -483.480202 
L 191.503056 -487.931243 
L 191.539117 -492.382285 
L 191.596274 -496.833326 
L 191.67056 -501.284367 
L 191.754537 -505.735409 
L 191.839149 -510.18645 
L 192.36502 -510.18645 
L 192.36502 -510.18645 
L 192.449632 -505.735409 
L 192.53361 -501.284367 
L 192.607896 -496.833326 
L 192.665053 -492.382285 
L 192.701113 -487.931243 
L 192.716203 -483.480202 
L 192.713916 -479.029161 
L 192.700061 -474.57812 
L 192.681453 -470.127078 
L 192.664964 -465.676037 
L 192.656675 -461.224996 
L 192.661 -456.773955 
L 192.679977 -452.322913 
L 192.713163 -447.871872 
L 192.758369 -443.420831 
L 192.813055 -438.969789 
L 192.87565 -434.518748 
L 192.945878 -430.067707 
L 193.023729 -425.616666 
L 193.107741 -421.165624 
L 193.194015 -416.714583 
L 193.276964 -412.263542 
L 193.351313 -407.812501 
L 193.41372 -403.361459 
L 193.462623 -398.910418 
L 193.49663 -394.459377 
L 193.51331 -390.008335 
L 193.51007 -385.557294 
L 193.486772 -381.106253 
L 193.447762 -376.655212 
L 193.401 -372.20417 
L 193.354246 -367.753129 
L 193.310901 -363.302088 
L 193.268706 -358.851046 
L 193.222416 -354.400005 
L 193.168546 -349.948964 
L 193.10882 -345.497923 
L 193.050121 -341.046881 
L 193.001478 -336.59584 
L 192.970593 -332.144799 
L 192.96231 -327.693758 
L 192.979692 -323.242716 
L 193.026511 -318.791675 
L 193.10938 -314.340634 
L 193.238407 -309.889592 
L 193.426444 -305.438551 
L 193.687746 -300.98751 
L 194.036918 -296.536469 
L 194.488724 -292.085427 
L 195.058883 -287.634386 
L 195.765339 -283.183345 
L 196.628708 -278.732304 
L 197.670235 -274.281262 
L 198.906449 -269.830221 
L 200.341534 -265.37918 
L 201.960188 -260.928138 
L 203.72413 -256.477097 
L 205.574291 -252.026056 
L 207.438635 -247.575015 
L 209.243096 -243.123973 
L 210.92147 -238.672932 
L 212.420531 -234.221891 
L 213.699662 -229.77085 
L 214.727615 -225.319808 
L 215.479985 -220.868767 
L 215.939101 -216.417726 
L 216.096125 -211.966684 
L 215.954682 -207.515643 
L 215.535295 -203.064602 
L 214.878402 -198.613561 
L 214.042283 -194.162519 
L 213.09379 -189.711478 
L 212.094739 -185.260437 
L 211.090888 -180.809396 
L 210.109034 -176.358354 
L 209.161607 -171.907313 
L 208.252698 -167.456272 
L 207.380281 -163.00523 
L 206.535673 -158.554189 
L 205.706411 -154.103148 
L 204.886788 -149.652107 
L 204.092355 -145.201065 
L 203.368543 -140.750024 
L 202.785948 -136.298983 
L 202.424396 -131.847941 
L 202.356585 -127.3969 
L 202.642661 -122.945859 
L 203.339092 -118.494818 
L 204.514484 -114.043776 
L 206.257825 -109.592735 
L 208.663412 -105.141694 
L 211.780927 -100.690653 
L 215.530286 -96.239611 
L 219.603637 -91.78857 
L 223.409202 -87.337529 
L 226.130714 -82.886487 
L 226.944191 -78.435446 
L 225.338489 -73.984405 
L 221.382104 -69.533364 
z
" id="m34b25fca54" style="stroke:#141414;stroke-width:1.5;"/>
    </defs>
    <g clip-path="url(#p171f1de73f)">
     <use style="fill:#0e5f2f;stroke:#141414;stroke-width:1.5;" x="0" xlink:href="#m34b25fca54" y="540.169"/>
    </g>
   </g>
   <g id="PolyCollection_3">
    <defs>
     <path d="M 337.098872 -69.533364 
L 269.293156 -69.533364 
L 266.91413 -73.703059 
L 266.164704 -77.872754 
L 267.018515 -82.042449 
L 269.200002 -86.212144 
L 272.263107 -90.381839 
L 275.701899 -94.551534 
L 279.056477 -98.721229 
L 281.986049 -102.890924 
L 284.298205 -107.060619 
L 285.939907 -111.230314 
L 286.964898 -115.400009 
L 287.49304 -119.569704 
L 287.672572 -123.7394 
L 287.650572 -127.909095 
L 287.552944 -132.07879 
L 287.473433 -136.248485 
L 287.470582 -140.41818 
L 287.571144 -144.587875 
L 287.777728 -148.75757 
L 288.077824 -152.927265 
L 288.451392 -157.09696 
L 288.875176 -161.266655 
L 289.323543 -165.43635 
L 289.767251 -169.606045 
L 290.172364 -173.77574 
L 290.50128 -177.945435 
L 290.71662 -182.11513 
L 290.787229 -186.284826 
L 290.694396 -190.454521 
L 290.436117 -194.624216 
L 290.027875 -198.793911 
L 289.499681 -202.963606 
L 288.890421 -207.133301 
L 288.241374 -211.302996 
L 287.590812 -215.472691 
L 286.970885 -219.642386 
L 286.406994 -223.812081 
L 285.918993 -227.981776 
L 285.523139 -232.151471 
L 285.233792 -236.321166 
L 285.064188 -240.490861 
L 285.026063 -244.660556 
L 285.128193 -248.830252 
L 285.374208 -252.999947 
L 285.760264 -257.169642 
L 286.273271 -261.339337 
L 286.890369 -265.509032 
L 287.580091 -269.678727 
L 288.305223 -273.848422 
L 289.026962 -278.018117 
L 289.709647 -282.187812 
L 290.325289 -286.357507 
L 290.857184 -290.527202 
L 291.302055 -294.696897 
L 291.670322 -298.866592 
L 291.984249 -303.036287 
L 292.274043 -307.205982 
L 292.572373 -311.375678 
L 292.908314 -315.545373 
L 293.302031 -319.715068 
L 293.76148 -323.884763 
L 294.281907 -328.054458 
L 294.848102 -332.224153 
L 295.438587 -336.393848 
L 296.030427 -340.563543 
L 296.603392 -344.733238 
L 297.142659 -348.902933 
L 297.639828 -353.072628 
L 298.092548 -357.242323 
L 298.503233 -361.412018 
L 298.877339 -365.581713 
L 299.221584 -369.751409 
L 299.542375 -373.921104 
L 299.844708 -378.090799 
L 300.131702 -382.260494 
L 300.404788 -386.430189 
L 300.66434 -390.599884 
L 300.91041 -394.769579 
L 301.143221 -398.939274 
L 301.363266 -403.108969 
L 301.571076 -407.278664 
L 301.766876 -411.448359 
L 301.950344 -415.618054 
L 302.120589 -419.787749 
L 302.276342 -423.957444 
L 302.416273 -428.127139 
L 302.539346 -432.296835 
L 302.645116 -436.46653 
L 302.733926 -440.636225 
L 302.806938 -444.80592 
L 302.866008 -448.975615 
L 302.913439 -453.14531 
L 302.951686 -457.315005 
L 302.9831 -461.4847 
L 303.009737 -465.654395 
L 303.033265 -469.82409 
L 303.054907 -473.993785 
L 303.075423 -478.16348 
L 303.095115 -482.333175 
L 303.296913 -482.333175 
L 303.296913 -482.333175 
L 303.316606 -478.16348 
L 303.337122 -473.993785 
L 303.358764 -469.82409 
L 303.382292 -465.654395 
L 303.408929 -461.4847 
L 303.440342 -457.315005 
L 303.47859 -453.14531 
L 303.526021 -448.975615 
L 303.585091 -444.80592 
L 303.658102 -440.636225 
L 303.746912 -436.46653 
L 303.852683 -432.296835 
L 303.975755 -428.127139 
L 304.115686 -423.957444 
L 304.271439 -419.787749 
L 304.441684 -415.618054 
L 304.625152 -411.448359 
L 304.820953 -407.278664 
L 305.028763 -403.108969 
L 305.248808 -398.939274 
L 305.481619 -394.769579 
L 305.727688 -390.599884 
L 305.98724 -386.430189 
L 306.260326 -382.260494 
L 306.54732 -378.090799 
L 306.849653 -373.921104 
L 307.170444 -369.751409 
L 307.514689 -365.581713 
L 307.888796 -361.412018 
L 308.29948 -357.242323 
L 308.7522 -353.072628 
L 309.24937 -348.902933 
L 309.788636 -344.733238 
L 310.361602 -340.563543 
L 310.953441 -336.393848 
L 311.543926 -332.224153 
L 312.110121 -328.054458 
L 312.630548 -323.884763 
L 313.089998 -319.715068 
L 313.483715 -315.545373 
L 313.819655 -311.375678 
L 314.117985 -307.205982 
L 314.407779 -303.036287 
L 314.721707 -298.866592 
L 315.089973 -294.696897 
L 315.534844 -290.527202 
L 316.066739 -286.357507 
L 316.682382 -282.187812 
L 317.365067 -278.018117 
L 318.086805 -273.848422 
L 318.811938 -269.678727 
L 319.50166 -265.509032 
L 320.118758 -261.339337 
L 320.631764 -257.169642 
L 321.01782 -252.999947 
L 321.263836 -248.830252 
L 321.365965 -244.660556 
L 321.327841 -240.490861 
L 321.158237 -236.321166 
L 320.868889 -232.151471 
L 320.473036 -227.981776 
L 319.985034 -223.812081 
L 319.421143 -219.642386 
L 318.801216 -215.472691 
L 318.150654 -211.302996 
L 317.501607 -207.133301 
L 316.892347 -202.963606 
L 316.364154 -198.793911 
L 315.955911 -194.624216 
L 315.697632 -190.454521 
L 315.604799 -186.284826 
L 315.675409 -182.11513 
L 315.890749 -177.945435 
L 316.219665 -173.77574 
L 316.624778 -169.606045 
L 317.068485 -165.43635 
L 317.516853 -161.266655 
L 317.940636 -157.09696 
L 318.314204 -152.927265 
L 318.6143 -148.75757 
L 318.820884 -144.587875 
L 318.921447 -140.41818 
L 318.918595 -136.248485 
L 318.839084 -132.07879 
L 318.741457 -127.909095 
L 318.719456 -123.7394 
L 318.898988 -119.569704 
L 319.42713 -115.400009 
L 320.452121 -111.230314 
L 322.093823 -107.060619 
L 324.405979 -102.890924 
L 327.335551 -98.721229 
L 330.69013 -94.551534 
L 334.128921 -90.381839 
L 337.192026 -86.212144 
L 339.373514 -82.042449 
L 340.227324 -77.872754 
L 339.477898 -73.703059 
L 337.098872 -69.533364 
z
" id="m996f1c9d74" style="stroke:#141414;stroke-width:1.5;"/>
    </defs>
    <g clip-path="url(#p171f1de73f)">
     <use style="fill:#083c1d;stroke:#141414;stroke-width:1.5;" x="0" xlink:href="#m996f1c9d74" y="540.169"/>
    </g>
   </g>
   <g id="PolyCollection_4">
    <defs>
     <path d="M 404.956391 -69.533364 
L 349.560876 -69.533364 
L 346.960311 -73.731915 
L 345.542502 -77.930466 
L 345.388073 -82.129017 
L 346.389436 -86.327568 
L 348.285699 -90.526119 
L 350.729577 -94.72467 
L 353.363619 -98.923221 
L 355.883863 -103.121772 
L 358.077505 -107.320323 
L 359.832354 -111.518875 
L 361.124567 -115.717426 
L 361.994855 -119.915977 
L 362.52236 -124.114528 
L 362.801922 -128.313079 
L 362.927032 -132.51163 
L 362.978543 -136.710181 
L 363.018445 -140.908732 
L 363.087929 -145.107283 
L 363.208926 -149.305834 
L 363.388098 -153.504385 
L 363.621864 -157.702937 
L 363.901022 -161.901488 
L 364.213837 -166.100039 
L 364.547225 -170.29859 
L 364.886412 -174.497141 
L 365.214021 -178.695692 
L 365.509622 -182.894243 
L 365.750461 -187.092794 
L 365.913537 -191.291345 
L 365.97862 -195.489896 
L 365.931449 -199.688447 
L 365.766261 -203.886998 
L 365.487054 -208.08555 
L 365.107367 -212.284101 
L 364.648793 -216.482652 
L 364.138661 -220.681203 
L 363.607351 -224.879754 
L 363.085577 -229.078305 
L 362.601804 -233.276856 
L 362.179986 -237.475407 
L 361.837801 -241.673958 
L 361.585678 -245.872509 
L 361.426799 -250.07106 
L 361.358014 -254.269612 
L 361.371322 -258.468163 
L 361.455356 -262.666714 
L 361.596394 -266.865265 
L 361.778731 -271.063816 
L 361.984687 -275.262367 
L 362.194877 -279.460918 
L 362.389349 -283.659469 
L 362.549893 -287.85802 
L 362.663251 -292.056571 
L 362.724387 -296.255122 
L 362.738762 -300.453674 
L 362.722704 -304.652225 
L 362.701532 -308.850776 
L 362.705744 -313.049327 
L 362.766137 -317.247878 
L 362.908914 -321.446429 
L 363.15179 -325.64498 
L 363.501761 -329.843531 
L 363.954854 -334.042082 
L 364.497746 -338.240633 
L 365.110784 -342.439184 
L 365.771689 -346.637736 
L 366.459122 -350.836287 
L 367.155406 -355.034838 
L 367.848031 -359.233389 
L 368.529878 -363.43194 
L 369.198403 -367.630491 
L 369.854159 -371.829042 
L 370.499023 -376.027593 
L 371.134472 -380.226144 
L 371.760177 -384.424695 
L 372.373164 -388.623246 
L 372.967667 -392.821797 
L 373.535706 -397.020349 
L 374.068208 -401.2189 
L 374.556393 -405.417451 
L 374.9931 -409.616002 
L 375.373772 -413.814553 
L 375.696989 -418.013104 
L 375.964519 -422.211655 
L 376.180959 -426.410206 
L 376.353043 -430.608757 
L 376.488738 -434.807308 
L 376.596243 -439.005859 
L 376.683076 -443.204411 
L 376.755402 -447.402962 
L 376.817735 -451.601513 
L 376.872996 -455.800064 
L 376.922856 -459.998615 
L 376.968189 -464.197166 
L 377.009468 -468.395717 
L 377.047031 -472.594268 
L 377.081169 -476.792819 
L 377.112122 -480.99137 
L 377.140019 -485.189921 
L 377.377249 -485.189921 
L 377.377249 -485.189921 
L 377.405146 -480.99137 
L 377.436098 -476.792819 
L 377.470237 -472.594268 
L 377.5078 -468.395717 
L 377.549079 -464.197166 
L 377.594412 -459.998615 
L 377.644272 -455.800064 
L 377.699533 -451.601513 
L 377.761866 -447.402962 
L 377.834192 -443.204411 
L 377.921025 -439.005859 
L 378.02853 -434.807308 
L 378.164225 -430.608757 
L 378.336309 -426.410206 
L 378.552749 -422.211655 
L 378.820279 -418.013104 
L 379.143496 -413.814553 
L 379.524168 -409.616002 
L 379.960875 -405.417451 
L 380.44906 -401.2189 
L 380.981562 -397.020349 
L 381.549601 -392.821797 
L 382.144104 -388.623246 
L 382.757091 -384.424695 
L 383.382796 -380.226144 
L 384.018244 -376.027593 
L 384.663109 -371.829042 
L 385.318865 -367.630491 
L 385.98739 -363.43194 
L 386.669237 -359.233389 
L 387.361862 -355.034838 
L 388.058146 -350.836287 
L 388.745579 -346.637736 
L 389.406484 -342.439184 
L 390.019522 -338.240633 
L 390.562414 -334.042082 
L 391.015507 -329.843531 
L 391.365478 -325.64498 
L 391.608354 -321.446429 
L 391.751131 -317.247878 
L 391.811524 -313.049327 
L 391.815736 -308.850776 
L 391.794564 -304.652225 
L 391.778506 -300.453674 
L 391.792881 -296.255122 
L 391.854017 -292.056571 
L 391.967375 -287.85802 
L 392.127919 -283.659469 
L 392.322391 -279.460918 
L 392.532581 -275.262367 
L 392.738537 -271.063816 
L 392.920874 -266.865265 
L 393.061912 -262.666714 
L 393.145946 -258.468163 
L 393.159254 -254.269612 
L 393.090469 -250.07106 
L 392.93159 -245.872509 
L 392.679467 -241.673958 
L 392.337282 -237.475407 
L 391.915464 -233.276856 
L 391.431691 -229.078305 
L 390.909917 -224.879754 
L 390.378607 -220.681203 
L 389.868475 -216.482652 
L 389.409901 -212.284101 
L 389.030214 -208.08555 
L 388.751007 -203.886998 
L 388.585819 -199.688447 
L 388.538648 -195.489896 
L 388.603731 -191.291345 
L 388.766806 -187.092794 
L 389.007646 -182.894243 
L 389.303247 -178.695692 
L 389.630856 -174.497141 
L 389.970042 -170.29859 
L 390.303431 -166.100039 
L 390.616246 -161.901488 
L 390.895404 -157.702937 
L 391.12917 -153.504385 
L 391.308342 -149.305834 
L 391.429339 -145.107283 
L 391.498823 -140.908732 
L 391.538725 -136.710181 
L 391.590236 -132.51163 
L 391.715346 -128.313079 
L 391.994908 -124.114528 
L 392.522413 -119.915977 
L 393.392701 -115.717426 
L 394.684914 -111.518875 
L 396.439763 -107.320323 
L 398.633405 -103.121772 
L 401.153649 -98.923221 
L 403.787691 -94.72467 
L 406.231569 -90.526119 
L 408.127832 -86.327568 
L 409.129195 -82.129017 
L 408.974766 -77.930466 
L 407.556957 -73.731915 
L 404.956391 -69.533364 
z
" id="mf584258752" style="stroke:#141414;stroke-width:1.5;"/>
    </defs>
    <g clip-path="url(#p171f1de73f)">
     <use style="fill:#0e5f2f;stroke:#141414;stroke-width:1.5;" x="0" xlink:href="#mf584258752" y="540.169"/>
    </g>
   </g>
   <g id="PolyCollection_5">
    <defs>
     <path d="M 521.329448 -69.533364 
L 455.375679 -69.533364 
L 452.61803 -73.760771 
L 451.321254 -77.988178 
L 451.539429 -82.215585 
L 453.111033 -86.442992 
L 455.711422 -90.670399 
L 458.934322 -94.897806 
L 462.374679 -99.125213 
L 465.690924 -103.352621 
L 468.637082 -107.580028 
L 471.067343 -111.807435 
L 472.922649 -116.034842 
L 474.209691 -120.262249 
L 474.979688 -124.489656 
L 475.310463 -128.717063 
L 475.29267 -132.94447 
L 475.019766 -137.171877 
L 474.581082 -141.399285 
L 474.057217 -145.626692 
L 473.516953 -149.854099 
L 473.014989 -154.081506 
L 472.590128 -158.308913 
L 472.264142 -162.53632 
L 472.041957 -166.763727 
L 471.913847 -170.991134 
L 471.859777 -175.218541 
L 471.855251 -179.445949 
L 471.877283 -183.673356 
L 471.908961 -187.900763 
L 471.941499 -192.12817 
L 471.97357 -196.355577 
L 472.008629 -200.582984 
L 472.051487 -204.810391 
L 472.105425 -209.037798 
L 472.170728 -213.265205 
L 472.244907 -217.492612 
L 472.324263 -221.72002 
L 472.406004 -225.947427 
L 472.490039 -230.174834 
L 472.579656 -234.402241 
L 472.680811 -238.629648 
L 472.800282 -242.857055 
L 472.943487 -247.084462 
L 473.112979 -251.311869 
L 473.308372 -255.539276 
L 473.527806 -259.766684 
L 473.770281 -263.994091 
L 474.037697 -268.221498 
L 474.335491 -272.448905 
L 474.671371 -276.676312 
L 475.052594 -280.903719 
L 475.482932 -285.131126 
L 475.960661 -289.358533 
L 476.47845 -293.58594 
L 477.025144 -297.813348 
L 477.588637 -302.040755 
L 478.158623 -306.268162 
L 478.728165 -310.495569 
L 479.293618 -314.722976 
L 479.853123 -318.950383 
L 480.404453 -323.17779 
L 480.943141 -327.405197 
L 481.461707 -331.632604 
L 481.950318 -335.860012 
L 482.398724 -340.087419 
L 482.798835 -344.314826 
L 483.147046 -348.542233 
L 483.445495 -352.76964 
L 483.70176 -356.997047 
L 483.927059 -361.224454 
L 484.133525 -365.451861 
L 484.33147 -369.679268 
L 484.527489 -373.906676 
L 484.723913 -378.134083 
L 484.919548 -382.36149 
L 485.111172 -386.588897 
L 485.295113 -390.816304 
L 485.468353 -395.043711 
L 485.629022 -399.271118 
L 485.776436 -403.498525 
L 485.910984 -407.725932 
L 486.034076 -411.95334 
L 486.148123 -416.180747 
L 486.256408 -420.408154 
L 486.362701 -424.635561 
L 486.470618 -428.862968 
L 486.582919 -433.090375 
L 486.700994 -437.317782 
L 486.824741 -441.545189 
L 486.952836 -445.772596 
L 487.083234 -450.000004 
L 487.213691 -454.227411 
L 487.342096 -458.454818 
L 487.466614 -462.682225 
L 487.585685 -466.909632 
L 487.697984 -471.137039 
L 487.802415 -475.364446 
L 487.898114 -479.591853 
L 487.984443 -483.81926 
L 488.060968 -488.046668 
L 488.644159 -488.046668 
L 488.644159 -488.046668 
L 488.720684 -483.81926 
L 488.807014 -479.591853 
L 488.902712 -475.364446 
L 489.007143 -471.137039 
L 489.119442 -466.909632 
L 489.238513 -462.682225 
L 489.363031 -458.454818 
L 489.491436 -454.227411 
L 489.621893 -450.000004 
L 489.752292 -445.772596 
L 489.880386 -441.545189 
L 490.004133 -437.317782 
L 490.122208 -433.090375 
L 490.234509 -428.862968 
L 490.342426 -424.635561 
L 490.448719 -420.408154 
L 490.557004 -416.180747 
L 490.671051 -411.95334 
L 490.794143 -407.725932 
L 490.928691 -403.498525 
L 491.076105 -399.271118 
L 491.236774 -395.043711 
L 491.410014 -390.816304 
L 491.593955 -386.588897 
L 491.785579 -382.36149 
L 491.981214 -378.134083 
L 492.177639 -373.906676 
L 492.373658 -369.679268 
L 492.571602 -365.451861 
L 492.778069 -361.224454 
L 493.003367 -356.997047 
L 493.259632 -352.76964 
L 493.558081 -348.542233 
L 493.906292 -344.314826 
L 494.306403 -340.087419 
L 494.754809 -335.860012 
L 495.24342 -331.632604 
L 495.761986 -327.405197 
L 496.300675 -323.17779 
L 496.852004 -318.950383 
L 497.411509 -314.722976 
L 497.976962 -310.495569 
L 498.546504 -306.268162 
L 499.11649 -302.040755 
L 499.679983 -297.813348 
L 500.226677 -293.58594 
L 500.744466 -289.358533 
L 501.222195 -285.131126 
L 501.652533 -280.903719 
L 502.033756 -276.676312 
L 502.369636 -272.448905 
L 502.66743 -268.221498 
L 502.934846 -263.994091 
L 503.177321 -259.766684 
L 503.396755 -255.539276 
L 503.592148 -251.311869 
L 503.76164 -247.084462 
L 503.904845 -242.857055 
L 504.024316 -238.629648 
L 504.125472 -234.402241 
L 504.215088 -230.174834 
L 504.299123 -225.947427 
L 504.380865 -221.72002 
L 504.46022 -217.492612 
L 504.534399 -213.265205 
L 504.599702 -209.037798 
L 504.65364 -204.810391 
L 504.696499 -200.582984 
L 504.731558 -196.355577 
L 504.763628 -192.12817 
L 504.796166 -187.900763 
L 504.827845 -183.673356 
L 504.849876 -179.445949 
L 504.84535 -175.218541 
L 504.791281 -170.991134 
L 504.66317 -166.763727 
L 504.440985 -162.53632 
L 504.114999 -158.308913 
L 503.690139 -154.081506 
L 503.188174 -149.854099 
L 502.64791 -145.626692 
L 502.124045 -141.399285 
L 501.685362 -137.171877 
L 501.412458 -132.94447 
L 501.394664 -128.717063 
L 501.725439 -124.489656 
L 502.495436 -120.262249 
L 503.782479 -116.034842 
L 505.637784 -111.807435 
L 508.068045 -107.580028 
L 511.014203 -103.352621 
L 514.330448 -99.125213 
L 517.770805 -94.897806 
L 520.993705 -90.670399 
L 523.594094 -86.442992 
L 525.165698 -82.215585 
L 525.383873 -77.988178 
L 524.087097 -73.760771 
L 521.329448 -69.533364 
z
" id="m4cfb694ebd" style="stroke:#141414;stroke-width:1.5;"/>
    </defs>
    <g clip-path="url(#p171f1de73f)">
     <use style="fill:#083c1d;stroke:#141414;stroke-width:1.5;" x="0" xlink:href="#m4cfb694ebd" y="540.169"/>
    </g>
   </g>
   <g id="PolyCollection_6">
    <defs>
     <path d="M 589.630205 -69.533364 
L 535.200162 -69.533364 
L 532.375735 -73.652561 
L 530.651928 -77.771758 
L 530.145329 -81.890955 
L 530.799236 -86.010152 
L 532.40915 -90.129349 
L 534.678754 -94.248546 
L 537.286785 -98.367743 
L 539.945166 -102.48694 
L 542.435719 -106.606137 
L 544.62246 -110.725334 
L 546.444325 -114.844531 
L 547.896849 -118.963728 
L 549.010927 -123.082925 
L 549.834111 -127.202122 
L 550.416869 -131.321319 
L 550.804167 -135.440516 
L 551.031685 -139.559713 
L 551.125652 -143.67891 
L 551.10519 -147.798107 
L 550.985923 -151.917304 
L 550.783554 -156.036501 
L 550.516232 -160.155698 
L 550.20504 -164.274895 
L 549.872618 -168.394092 
L 549.540593 -172.513289 
L 549.226885 -176.632486 
L 548.943853 -180.751683 
L 548.6978 -184.87088 
L 548.48978 -188.990078 
L 548.317202 -193.109275 
L 548.175537 -197.228472 
L 548.059549 -201.347669 
L 547.963699 -205.466866 
L 547.881708 -209.586063 
L 547.805579 -213.70526 
L 547.72462 -217.824457 
L 547.625144 -221.943654 
L 547.491403 -226.062851 
L 547.307939 -230.182048 
L 547.06296 -234.301245 
L 546.751854 -238.420442 
L 546.379717 -242.539639 
L 545.961989 -246.658836 
L 545.522864 -250.778033 
L 545.091926 -254.89723 
L 544.699982 -259.016427 
L 544.37527 -263.135624 
L 544.140907 -267.254821 
L 544.013854 -271.374018 
L 544.005098 -275.493215 
L 544.12038 -279.612412 
L 544.360819 -283.731609 
L 544.723022 -287.850806 
L 545.198686 -291.970003 
L 545.774038 -296.0892 
L 546.429636 -300.208397 
L 547.141023 -304.327594 
L 547.880553 -308.446791 
L 548.620302 -312.565988 
L 549.33559 -316.685185 
L 550.008296 -320.804383 
L 550.629077 -324.92358 
L 551.197842 -329.042777 
L 551.722323 -333.161974 
L 552.215176 -337.281171 
L 552.690493 -341.400368 
L 553.160669 -345.519565 
L 553.634352 -349.638762 
L 554.115717 -353.757959 
L 554.604834 -357.877156 
L 555.098683 -361.996353 
L 555.592298 -366.11555 
L 556.079782 -370.234747 
L 556.555085 -374.353944 
L 557.012628 -378.473141 
L 557.447827 -382.592338 
L 557.857521 -386.711535 
L 558.240227 -390.830732 
L 558.596167 -394.949929 
L 558.927017 -399.069126 
L 559.235472 -403.188323 
L 559.52469 -407.30752 
L 559.79775 -411.426717 
L 560.057191 -415.545914 
L 560.304686 -419.665111 
L 560.540884 -423.784308 
L 560.765431 -427.903505 
L 560.977147 -432.022702 
L 561.174339 -436.141899 
L 561.355164 -440.261096 
L 561.517997 -444.380293 
L 561.661748 -448.49949 
L 561.786094 -452.618687 
L 561.891602 -456.737885 
L 561.979737 -460.857082 
L 562.052724 -464.976279 
L 562.113264 -469.095476 
L 562.164146 -473.214673 
L 562.20784 -477.33387 
L 562.622527 -477.33387 
L 562.622527 -477.33387 
L 562.666221 -473.214673 
L 562.717103 -469.095476 
L 562.777643 -464.976279 
L 562.85063 -460.857082 
L 562.938765 -456.737885 
L 563.044273 -452.618687 
L 563.168618 -448.49949 
L 563.31237 -444.380293 
L 563.475203 -440.261096 
L 563.656028 -436.141899 
L 563.85322 -432.022702 
L 564.064936 -427.903505 
L 564.289482 -423.784308 
L 564.52568 -419.665111 
L 564.773175 -415.545914 
L 565.032616 -411.426717 
L 565.305677 -407.30752 
L 565.594895 -403.188323 
L 565.90335 -399.069126 
L 566.2342 -394.949929 
L 566.590139 -390.830732 
L 566.972846 -386.711535 
L 567.382539 -382.592338 
L 567.817739 -378.473141 
L 568.275282 -374.353944 
L 568.750585 -370.234747 
L 569.238069 -366.11555 
L 569.731684 -361.996353 
L 570.225532 -357.877156 
L 570.71465 -353.757959 
L 571.196014 -349.638762 
L 571.669698 -345.519565 
L 572.139874 -341.400368 
L 572.61519 -337.281171 
L 573.108044 -333.161974 
L 573.632524 -329.042777 
L 574.20129 -324.92358 
L 574.822071 -320.804383 
L 575.494776 -316.685185 
L 576.210065 -312.565988 
L 576.949814 -308.446791 
L 577.689344 -304.327594 
L 578.400731 -300.208397 
L 579.056328 -296.0892 
L 579.631681 -291.970003 
L 580.107345 -287.850806 
L 580.469547 -283.731609 
L 580.709987 -279.612412 
L 580.825269 -275.493215 
L 580.816512 -271.374018 
L 580.68946 -267.254821 
L 580.455097 -263.135624 
L 580.130385 -259.016427 
L 579.738441 -254.89723 
L 579.307502 -250.778033 
L 578.868378 -246.658836 
L 578.450649 -242.539639 
L 578.078513 -238.420442 
L 577.767406 -234.301245 
L 577.522427 -230.182048 
L 577.338964 -226.062851 
L 577.205223 -221.943654 
L 577.105747 -217.824457 
L 577.024788 -213.70526 
L 576.948659 -209.586063 
L 576.866668 -205.466866 
L 576.770817 -201.347669 
L 576.65483 -197.228472 
L 576.513165 -193.109275 
L 576.340586 -188.990078 
L 576.132566 -184.87088 
L 575.886513 -180.751683 
L 575.603482 -176.632486 
L 575.289774 -172.513289 
L 574.957749 -168.394092 
L 574.625327 -164.274895 
L 574.314135 -160.155698 
L 574.046812 -156.036501 
L 573.844443 -151.917304 
L 573.725177 -147.798107 
L 573.704714 -143.67891 
L 573.798681 -139.559713 
L 574.026199 -135.440516 
L 574.413498 -131.321319 
L 574.996255 -127.202122 
L 575.819439 -123.082925 
L 576.933518 -118.963728 
L 578.386041 -114.844531 
L 580.207907 -110.725334 
L 582.394648 -106.606137 
L 584.885201 -102.48694 
L 587.543582 -98.367743 
L 590.151613 -94.248546 
L 592.421216 -90.129349 
L 594.03113 -86.010152 
L 594.685038 -81.890955 
L 594.178438 -77.771758 
L 592.454632 -73.652561 
L 589.630205 -69.533364 
z
" id="m7b4763011c" style="stroke:#141414;stroke-width:1.5;"/>
    </defs>
    <g clip-path="url(#p171f1de73f)">
     <use style="fill:#0e5f2f;stroke:#141414;stroke-width:1.5;" x="0" xlink:href="#m7b4763011c" y="540.169"/>
    </g>
   </g>
   <g id="patch_3">
    <path clip-path="url(#p171f1de73f)" d="M 155.070775 470.635636 
L 155.070775 470.635636 
L 155.070775 470.635636 
L 155.070775 470.635636 
z
" style="fill:#083c1d;stroke:#141414;stroke-linejoin:miter;stroke-width:0.75;"/>
   </g>
   <g id="patch_4">
    <path clip-path="url(#p171f1de73f)" d="M 155.070775 470.635636 
L 155.070775 470.635636 
L 155.070775 470.635636 
L 155.070775 470.635636 
z
" style="fill:#0e5f2f;stroke:#141414;stroke-linejoin:miter;stroke-width:0.75;"/>
   </g>
   <g id="line2d_1">
    <path clip-path="url(#p171f1de73f)" d="M 118.039465 470.635636 
L 118.039465 138.538902 
" style="fill:none;stroke:#141414;stroke-linecap:round;stroke-width:1.5;"/>
   </g>
   <g id="line2d_2">
    <path clip-path="url(#p171f1de73f)" d="M 118.039465 456.351906 
L 118.039465 329.226704 
" style="fill:none;stroke:#141414;stroke-linecap:round;stroke-width:4.5;"/>
   </g>
   <g id="line2d_3">
    <path clip-path="url(#p171f1de73f)" d="M 192.102085 470.635636 
L 192.102085 122.112612 
" style="fill:none;stroke:#141414;stroke-linecap:round;stroke-width:1.5;"/>
   </g>
   <g id="line2d_4">
    <path clip-path="url(#p171f1de73f)" d="M 192.102085 452.066787 
L 192.102085 319.942279 
" style="fill:none;stroke:#141414;stroke-linecap:round;stroke-width:4.5;"/>
   </g>
   <g id="line2d_5">
    <path clip-path="url(#p171f1de73f)" d="M 303.196014 470.635636 
L 303.196014 57.835825 
" style="fill:none;stroke:#141414;stroke-linecap:round;stroke-width:1.5;"/>
   </g>
   <g id="line2d_6">
    <path clip-path="url(#p171f1de73f)" d="M 303.196014 457.244639 
L 303.196014 285.661326 
" style="fill:none;stroke:#141414;stroke-linecap:round;stroke-width:4.5;"/>
   </g>
   <g id="line2d_7">
    <path clip-path="url(#p171f1de73f)" d="M 377.258634 470.635636 
L 377.258634 54.979079 
" style="fill:none;stroke:#141414;stroke-linecap:round;stroke-width:1.5;"/>
   </g>
   <g id="line2d_8">
    <path clip-path="url(#p171f1de73f)" d="M 377.258634 447.067481 
L 377.258634 256.379679 
" style="fill:none;stroke:#141414;stroke-linecap:round;stroke-width:4.5;"/>
   </g>
   <g id="line2d_9">
    <path clip-path="url(#p171f1de73f)" d="M 488.352564 470.635636 
L 488.352564 52.122332 
" style="fill:none;stroke:#141414;stroke-linecap:round;stroke-width:1.5;"/>
   </g>
   <g id="line2d_10">
    <path clip-path="url(#p171f1de73f)" d="M 488.352564 454.209346 
L 488.352564 287.803886 
" style="fill:none;stroke:#141414;stroke-linecap:round;stroke-width:4.5;"/>
   </g>
   <g id="line2d_11">
    <path clip-path="url(#p171f1de73f)" d="M 562.415183 470.635636 
L 562.415183 62.83513 
" style="fill:none;stroke:#141414;stroke-linecap:round;stroke-width:1.5;"/>
   </g>
   <g id="line2d_12">
    <path clip-path="url(#p171f1de73f)" d="M 562.415183 445.639108 
L 562.415183 259.950611 
" style="fill:none;stroke:#141414;stroke-linecap:round;stroke-width:4.5;"/>
   </g>
   <g id="patch_5">
    <path d="M 62.4925 492.704 
L 62.4925 7.2 
" style="fill:none;stroke:#262626;stroke-linecap:square;stroke-linejoin:miter;stroke-width:0.8;"/>
   </g>
   <g id="patch_6">
    <path d="M 62.4925 492.704 
L 617.962148 492.704 
" style="fill:none;stroke:#262626;stroke-linecap:square;stroke-linejoin:miter;stroke-width:0.8;"/>
   </g>
   <g id="PathCollection_1">
    <defs>
     <path d="M 0 1.5 
C 0.397805 1.5 0.77937 1.341951 1.06066 1.06066 
C 1.341951 0.77937 1.5 0.397805 1.5 0 
C 1.5 -0.397805 1.341951 -0.77937 1.06066 -1.06066 
C 0.77937 -1.341951 0.397805 -1.5 0 -1.5 
C -0.397805 -1.5 -0.77937 -1.341951 -1.06066 -1.06066 
C -1.341951 -0.77937 -1.5 -0.397805 -1.5 0 
C -1.5 0.397805 -1.341951 0.77937 -1.06066 1.06066 
C -0.77937 1.341951 -0.397805 1.5 0 1.5 
z
" id="m1c251e866c" style="stroke:#141414;"/>
    </defs>
    <g clip-path="url(#p171f1de73f)">
     <use style="fill:#ffffff;stroke:#141414;" x="118.039465" xlink:href="#m1c251e866c" y="384.933253"/>
    </g>
   </g>
   <g id="PathCollection_2">
    <g clip-path="url(#p171f1de73f)">
     <use style="fill:#ffffff;stroke:#141414;" x="192.102085" xlink:href="#m1c251e866c" y="369.22115"/>
    </g>
   </g>
   <g id="PathCollection_3">
    <g clip-path="url(#p171f1de73f)">
     <use style="fill:#ffffff;stroke:#141414;" x="303.196014" xlink:href="#m1c251e866c" y="373.506269"/>
    </g>
   </g>
   <g id="PathCollection_4">
    <g clip-path="url(#p171f1de73f)">
     <use style="fill:#ffffff;stroke:#141414;" x="377.258634" xlink:href="#m1c251e866c" y="349.938114"/>
    </g>
   </g>
   <g id="PathCollection_5">
    <g clip-path="url(#p171f1de73f)">
     <use style="fill:#ffffff;stroke:#141414;" x="488.352564" xlink:href="#m1c251e866c" y="370.649523"/>
    </g>
   </g>
   <g id="PathCollection_6">
    <g clip-path="url(#p171f1de73f)">
     <use style="fill:#ffffff;stroke:#141414;" x="562.415183" xlink:href="#m1c251e866c" y="342.082062"/>
    </g>
   </g>
  </g>
  <g id="legend_1">
   <g id="text_13">
    <!-- weather -->
    <defs>
     <path d="M 16.15625 0 
L 0.296875 51.859375 
L 9.375 51.859375 
L 17.625 21.921875 
L 20.703125 10.796875 
Q 20.90625 11.625 23.390625 21.484375 
L 31.640625 51.859375 
L 40.671875 51.859375 
L 48.4375 21.78125 
L 51.03125 11.859375 
L 54 21.875 
L 62.890625 51.859375 
L 71.4375 51.859375 
L 55.21875 0 
L 46.09375 0 
L 37.84375 31.0625 
L 35.84375 39.890625 
L 25.34375 0 
z
" id="ArialMT-119"/>
     <path d="M 40.4375 6.390625 
Q 35.546875 2.25 31.03125 0.53125 
Q 26.515625 -1.171875 21.34375 -1.171875 
Q 12.796875 -1.171875 8.203125 3 
Q 3.609375 7.171875 3.609375 13.671875 
Q 3.609375 17.484375 5.34375 20.625 
Q 7.078125 23.78125 9.890625 25.6875 
Q 12.703125 27.59375 16.21875 28.5625 
Q 18.796875 29.25 24.03125 29.890625 
Q 34.671875 31.15625 39.703125 32.90625 
Q 39.75 34.71875 39.75 35.203125 
Q 39.75 40.578125 37.25 42.78125 
Q 33.890625 45.75 27.25 45.75 
Q 21.046875 45.75 18.09375 43.578125 
Q 15.140625 41.40625 13.71875 35.890625 
L 5.125 37.0625 
Q 6.296875 42.578125 8.984375 45.96875 
Q 11.671875 49.359375 16.75 51.1875 
Q 21.828125 53.03125 28.515625 53.03125 
Q 35.15625 53.03125 39.296875 51.46875 
Q 43.453125 49.90625 45.40625 47.53125 
Q 47.359375 45.171875 48.140625 41.546875 
Q 48.578125 39.3125 48.578125 33.453125 
L 48.578125 21.734375 
Q 48.578125 9.46875 49.140625 6.21875 
Q 49.703125 2.984375 51.375 0 
L 42.1875 0 
Q 40.828125 2.734375 40.4375 6.390625 
z
M 39.703125 26.03125 
Q 34.90625 24.078125 25.34375 22.703125 
Q 19.921875 21.921875 17.671875 20.9375 
Q 15.4375 19.96875 14.203125 18.09375 
Q 12.984375 16.21875 12.984375 13.921875 
Q 12.984375 10.40625 15.640625 8.0625 
Q 18.3125 5.71875 23.4375 5.71875 
Q 28.515625 5.71875 32.46875 7.9375 
Q 36.421875 10.15625 38.28125 14.015625 
Q 39.703125 17 39.703125 22.796875 
z
" id="ArialMT-97"/>
     <path d="M 6.59375 0 
L 6.59375 71.578125 
L 15.375 71.578125 
L 15.375 45.90625 
Q 21.53125 53.03125 30.90625 53.03125 
Q 36.671875 53.03125 40.921875 50.75 
Q 45.171875 48.484375 47 44.484375 
Q 48.828125 40.484375 48.828125 32.859375 
L 48.828125 0 
L 40.046875 0 
L 40.046875 32.859375 
Q 40.046875 39.453125 37.1875 42.453125 
Q 34.328125 45.453125 29.109375 45.453125 
Q 25.203125 45.453125 21.75 43.421875 
Q 18.3125 41.40625 16.84375 37.9375 
Q 15.375 34.46875 15.375 28.375 
L 15.375 0 
z
" id="ArialMT-104"/>
    </defs>
    <g style="fill:#262626;" transform="translate(720.46675 251.4945)scale(0.16 -0.16)">
     <use xlink:href="#ArialMT-119"/>
     <use x="72.216797" xlink:href="#ArialMT-101"/>
     <use x="127.832031" xlink:href="#ArialMT-97"/>
     <use x="183.447266" xlink:href="#ArialMT-116"/>
     <use x="211.230469" xlink:href="#ArialMT-104"/>
     <use x="266.845703" xlink:href="#ArialMT-101"/>
     <use x="322.460938" xlink:href="#ArialMT-114"/>
    </g>
   </g>
   <g id="patch_7">
    <path d="M 708.7305 274.127 
L 740.7305 274.127 
L 740.7305 262.927 
L 708.7305 262.927 
z
" style="fill:#083c1d;stroke:#141414;stroke-linejoin:miter;stroke-width:0.75;"/>
   </g>
   <g id="text_14">
    <!-- bad -->
    <defs>
     <path d="M 14.703125 0 
L 6.546875 0 
L 6.546875 71.578125 
L 15.328125 71.578125 
L 15.328125 46.046875 
Q 20.90625 53.03125 29.546875 53.03125 
Q 34.328125 53.03125 38.59375 51.09375 
Q 42.875 49.171875 45.625 45.671875 
Q 48.390625 42.1875 49.953125 37.25 
Q 51.515625 32.328125 51.515625 26.703125 
Q 51.515625 13.375 44.921875 6.09375 
Q 38.328125 -1.171875 29.109375 -1.171875 
Q 19.921875 -1.171875 14.703125 6.5 
z
M 14.59375 26.3125 
Q 14.59375 17 17.140625 12.84375 
Q 21.296875 6.0625 28.375 6.0625 
Q 34.125 6.0625 38.328125 11.0625 
Q 42.53125 16.0625 42.53125 25.984375 
Q 42.53125 36.140625 38.5 40.96875 
Q 34.46875 45.796875 28.765625 45.796875 
Q 23 45.796875 18.796875 40.796875 
Q 14.59375 35.796875 14.59375 26.3125 
z
" id="ArialMT-98"/>
    </defs>
    <g style="fill:#262626;" transform="translate(753.5305 274.127)scale(0.16 -0.16)">
     <use xlink:href="#ArialMT-98"/>
     <use x="55.615234" xlink:href="#ArialMT-97"/>
     <use x="111.230469" xlink:href="#ArialMT-100"/>
    </g>
   </g>
   <g id="patch_8">
    <path d="M 708.7305 296.7595 
L 740.7305 296.7595 
L 740.7305 285.5595 
L 708.7305 285.5595 
z
" style="fill:#0e5f2f;stroke:#141414;stroke-linejoin:miter;stroke-width:0.75;"/>
   </g>
   <g id="text_15">
    <!-- good -->
    <defs>
     <path d="M 4.984375 -4.296875 
L 13.53125 -5.5625 
Q 14.0625 -9.515625 16.5 -11.328125 
Q 19.78125 -13.765625 25.4375 -13.765625 
Q 31.546875 -13.765625 34.859375 -11.328125 
Q 38.1875 -8.890625 39.359375 -4.5 
Q 40.046875 -1.8125 39.984375 6.78125 
Q 34.234375 0 25.640625 0 
Q 14.9375 0 9.078125 7.71875 
Q 3.21875 15.4375 3.21875 26.21875 
Q 3.21875 33.640625 5.90625 39.90625 
Q 8.59375 46.1875 13.6875 49.609375 
Q 18.796875 53.03125 25.6875 53.03125 
Q 34.859375 53.03125 40.828125 45.609375 
L 40.828125 51.859375 
L 48.921875 51.859375 
L 48.921875 7.03125 
Q 48.921875 -5.078125 46.453125 -10.125 
Q 44 -15.1875 38.640625 -18.109375 
Q 33.296875 -21.046875 25.484375 -21.046875 
Q 16.21875 -21.046875 10.5 -16.875 
Q 4.78125 -12.703125 4.984375 -4.296875 
z
M 12.25 26.859375 
Q 12.25 16.65625 16.296875 11.96875 
Q 20.359375 7.28125 26.46875 7.28125 
Q 32.515625 7.28125 36.609375 11.9375 
Q 40.71875 16.609375 40.71875 26.5625 
Q 40.71875 36.078125 36.5 40.90625 
Q 32.28125 45.75 26.3125 45.75 
Q 20.453125 45.75 16.34375 40.984375 
Q 12.25 36.234375 12.25 26.859375 
z
" id="ArialMT-103"/>
    </defs>
    <g style="fill:#262626;" transform="translate(753.5305 296.7595)scale(0.16 -0.16)">
     <use xlink:href="#ArialMT-103"/>
     <use x="55.615234" xlink:href="#ArialMT-111"/>
     <use x="111.230469" xlink:href="#ArialMT-111"/>
     <use x="166.845703" xlink:href="#ArialMT-100"/>
    </g>
   </g>
  </g>
 </g>
 <defs>
  <clipPath id="p171f1de73f">
   <rect height="485.504" width="555.469648" x="62.4925" y="7.2"/>
  </clipPath>
 </defs>
</svg>
