<?xml version="1.0" encoding="utf-8" standalone="no"?>
<!DOCTYPE svg PUBLIC "-//W3C//DTD SVG 1.1//EN"
  "http://www.w3.org/Graphics/SVG/1.1/DTD/svg11.dtd">
<!-- Created with matplotlib (https://matplotlib.org/) -->
<svg height="540.169pt" version="1.1" viewBox="0 0 770.0485 540.169" width="770.0485pt" xmlns="http://www.w3.org/2000/svg" xmlns:xlink="http://www.w3.org/1999/xlink">
 <defs>
  <style type="text/css">
*{stroke-linecap:butt;stroke-linejoin:round;white-space:pre;}
  </style>
 </defs>
 <g id="figure_1">
  <g id="patch_1">
   <path d="M 0 540.169 
L 770.0485 540.169 
L 770.0485 0 
L 0 0 
z
" style="fill:#ffffff;"/>
  </g>
  <g id="axes_1">
   <g id="patch_2">
    <path d="M 62.4925 492.704 
L 762.8485 492.704 
L 762.8485 7.2 
L 62.4925 7.2 
z
" style="fill:#ffffff;"/>
   </g>
   <g id="matplotlib.axis_1">
    <g id="xtick_1">
     <g id="text_1">
      <!-- 1056-186-1 -->
      <defs>
       <path d="M 37.25 0 
L 28.46875 0 
L 28.46875 56 
Q 25.296875 52.984375 20.140625 49.953125 
Q 14.984375 46.921875 10.890625 45.40625 
L 10.890625 53.90625 
Q 18.265625 57.375 23.78125 62.296875 
Q 29.296875 67.234375 31.59375 71.875 
L 37.25 71.875 
z
" id="ArialMT-49"/>
       <path d="M 4.15625 35.296875 
Q 4.15625 48 6.765625 55.734375 
Q 9.375 63.484375 14.515625 67.671875 
Q 19.671875 71.875 27.484375 71.875 
Q 33.25 71.875 37.59375 69.546875 
Q 41.9375 67.234375 44.765625 62.859375 
Q 47.609375 58.5 49.21875 52.21875 
Q 50.828125 45.953125 50.828125 35.296875 
Q 50.828125 22.703125 48.234375 14.96875 
Q 45.65625 7.234375 40.5 3 
Q 35.359375 -1.21875 27.484375 -1.21875 
Q 17.140625 -1.21875 11.234375 6.203125 
Q 4.15625 15.140625 4.15625 35.296875 
z
M 13.1875 35.296875 
Q 13.1875 17.671875 17.3125 11.828125 
Q 21.4375 6 27.484375 6 
Q 33.546875 6 37.671875 11.859375 
Q 41.796875 17.71875 41.796875 35.296875 
Q 41.796875 52.984375 37.671875 58.78125 
Q 33.546875 64.59375 27.390625 64.59375 
Q 21.34375 64.59375 17.71875 59.46875 
Q 13.1875 52.9375 13.1875 35.296875 
z
" id="ArialMT-48"/>
       <path d="M 4.15625 18.75 
L 13.375 19.53125 
Q 14.40625 12.796875 18.140625 9.390625 
Q 21.875 6 27.15625 6 
Q 33.5 6 37.890625 10.78125 
Q 42.28125 15.578125 42.28125 23.484375 
Q 42.28125 31 38.0625 35.34375 
Q 33.84375 39.703125 27 39.703125 
Q 22.75 39.703125 19.328125 37.765625 
Q 15.921875 35.84375 13.96875 32.765625 
L 5.71875 33.84375 
L 12.640625 70.609375 
L 48.25 70.609375 
L 48.25 62.203125 
L 19.671875 62.203125 
L 15.828125 42.96875 
Q 22.265625 47.46875 29.34375 47.46875 
Q 38.71875 47.46875 45.15625 40.96875 
Q 51.609375 34.46875 51.609375 24.265625 
Q 51.609375 14.546875 45.953125 7.46875 
Q 39.0625 -1.21875 27.15625 -1.21875 
Q 17.390625 -1.21875 11.203125 4.25 
Q 5.03125 9.71875 4.15625 18.75 
z
" id="ArialMT-53"/>
       <path d="M 49.75 54.046875 
L 41.015625 53.375 
Q 39.84375 58.546875 37.703125 60.890625 
Q 34.125 64.65625 28.90625 64.65625 
Q 24.703125 64.65625 21.53125 62.3125 
Q 17.390625 59.28125 14.984375 53.46875 
Q 12.59375 47.65625 12.5 36.921875 
Q 15.671875 41.75 20.265625 44.09375 
Q 24.859375 46.4375 29.890625 46.4375 
Q 38.671875 46.4375 44.84375 39.96875 
Q 51.03125 33.5 51.03125 23.25 
Q 51.03125 16.5 48.125 10.71875 
Q 45.21875 4.9375 40.140625 1.859375 
Q 35.0625 -1.21875 28.609375 -1.21875 
Q 17.625 -1.21875 10.6875 6.859375 
Q 3.765625 14.9375 3.765625 33.5 
Q 3.765625 54.25 11.421875 63.671875 
Q 18.109375 71.875 29.4375 71.875 
Q 37.890625 71.875 43.28125 67.140625 
Q 48.6875 62.40625 49.75 54.046875 
z
M 13.875 23.1875 
Q 13.875 18.65625 15.796875 14.5 
Q 17.71875 10.359375 21.1875 8.171875 
Q 24.65625 6 28.46875 6 
Q 34.03125 6 38.03125 10.484375 
Q 42.046875 14.984375 42.046875 22.703125 
Q 42.046875 30.125 38.078125 34.390625 
Q 34.125 38.671875 28.125 38.671875 
Q 22.171875 38.671875 18.015625 34.390625 
Q 13.875 30.125 13.875 23.1875 
z
" id="ArialMT-54"/>
       <path d="M 3.171875 21.484375 
L 3.171875 30.328125 
L 30.171875 30.328125 
L 30.171875 21.484375 
z
" id="ArialMT-45"/>
       <path d="M 17.671875 38.8125 
Q 12.203125 40.828125 9.5625 44.53125 
Q 6.9375 48.25 6.9375 53.421875 
Q 6.9375 61.234375 12.546875 66.546875 
Q 18.171875 71.875 27.484375 71.875 
Q 36.859375 71.875 42.578125 66.421875 
Q 48.296875 60.984375 48.296875 53.171875 
Q 48.296875 48.1875 45.671875 44.5 
Q 43.0625 40.828125 37.75 38.8125 
Q 44.34375 36.671875 47.78125 31.875 
Q 51.21875 27.09375 51.21875 20.453125 
Q 51.21875 11.28125 44.71875 5.03125 
Q 38.234375 -1.21875 27.640625 -1.21875 
Q 17.046875 -1.21875 10.546875 5.046875 
Q 4.046875 11.328125 4.046875 20.703125 
Q 4.046875 27.6875 7.59375 32.390625 
Q 11.140625 37.109375 17.671875 38.8125 
z
M 15.921875 53.71875 
Q 15.921875 48.640625 19.1875 45.40625 
Q 22.46875 42.1875 27.6875 42.1875 
Q 32.765625 42.1875 36.015625 45.375 
Q 39.265625 48.578125 39.265625 53.21875 
Q 39.265625 58.0625 35.90625 61.359375 
Q 32.5625 64.65625 27.59375 64.65625 
Q 22.5625 64.65625 19.234375 61.421875 
Q 15.921875 58.203125 15.921875 53.71875 
z
M 13.09375 20.65625 
Q 13.09375 16.890625 14.875 13.375 
Q 16.65625 9.859375 20.171875 7.921875 
Q 23.6875 6 27.734375 6 
Q 34.03125 6 38.125 10.046875 
Q 42.234375 14.109375 42.234375 20.359375 
Q 42.234375 26.703125 38.015625 30.859375 
Q 33.796875 35.015625 27.4375 35.015625 
Q 21.234375 35.015625 17.15625 30.90625 
Q 13.09375 26.8125 13.09375 20.65625 
z
" id="ArialMT-56"/>
      </defs>
      <g style="fill:#262626;" transform="translate(138.301 511.1565)scale(0.16 -0.16)">
       <use xlink:href="#ArialMT-49"/>
       <use x="55.615234" xlink:href="#ArialMT-48"/>
       <use x="111.230469" xlink:href="#ArialMT-53"/>
       <use x="166.845703" xlink:href="#ArialMT-54"/>
       <use x="222.460938" xlink:href="#ArialMT-45"/>
       <use x="255.761719" xlink:href="#ArialMT-49"/>
       <use x="311.376953" xlink:href="#ArialMT-56"/>
       <use x="366.992188" xlink:href="#ArialMT-54"/>
       <use x="422.607422" xlink:href="#ArialMT-45"/>
       <use x="455.908203" xlink:href="#ArialMT-49"/>
      </g>
     </g>
    </g>
    <g id="xtick_2">
     <g id="text_2">
      <!-- 686-1 -->
      <g style="fill:#262626;" transform="translate(392.21175 511.1565)scale(0.16 -0.16)">
       <use xlink:href="#ArialMT-54"/>
       <use x="55.615234" xlink:href="#ArialMT-56"/>
       <use x="111.230469" xlink:href="#ArialMT-54"/>
       <use x="166.845703" xlink:href="#ArialMT-45"/>
       <use x="200.146484" xlink:href="#ArialMT-49"/>
      </g>
     </g>
    </g>
    <g id="xtick_3">
     <g id="text_3">
      <!-- 686-2 -->
      <defs>
       <path d="M 50.34375 8.453125 
L 50.34375 0 
L 3.03125 0 
Q 2.9375 3.171875 4.046875 6.109375 
Q 5.859375 10.9375 9.828125 15.625 
Q 13.8125 20.3125 21.34375 26.46875 
Q 33.015625 36.03125 37.109375 41.625 
Q 41.21875 47.21875 41.21875 52.203125 
Q 41.21875 57.421875 37.46875 61 
Q 33.734375 64.59375 27.734375 64.59375 
Q 21.390625 64.59375 17.578125 60.78125 
Q 13.765625 56.984375 13.71875 50.25 
L 4.6875 51.171875 
Q 5.609375 61.28125 11.65625 66.578125 
Q 17.71875 71.875 27.9375 71.875 
Q 38.234375 71.875 44.234375 66.15625 
Q 50.25 60.453125 50.25 52 
Q 50.25 47.703125 48.484375 43.546875 
Q 46.734375 39.40625 42.65625 34.8125 
Q 38.578125 30.21875 29.109375 22.21875 
Q 21.1875 15.578125 18.9375 13.203125 
Q 16.703125 10.84375 15.234375 8.453125 
z
" id="ArialMT-50"/>
      </defs>
      <g style="fill:#262626;" transform="translate(625.66375 511.1565)scale(0.16 -0.16)">
       <use xlink:href="#ArialMT-54"/>
       <use x="55.615234" xlink:href="#ArialMT-56"/>
       <use x="111.230469" xlink:href="#ArialMT-54"/>
       <use x="166.845703" xlink:href="#ArialMT-45"/>
       <use x="200.146484" xlink:href="#ArialMT-50"/>
      </g>
     </g>
    </g>
    <g id="text_4">
     <!-- Counter id -->
     <defs>
      <path d="M 58.796875 25.09375 
L 68.265625 22.703125 
Q 65.28125 11.03125 57.546875 4.90625 
Q 49.8125 -1.21875 38.625 -1.21875 
Q 27.046875 -1.21875 19.796875 3.484375 
Q 12.546875 8.203125 8.765625 17.140625 
Q 4.984375 26.078125 4.984375 36.328125 
Q 4.984375 47.515625 9.25 55.828125 
Q 13.53125 64.15625 21.40625 68.46875 
Q 29.296875 72.796875 38.765625 72.796875 
Q 49.515625 72.796875 56.828125 67.328125 
Q 64.15625 61.859375 67.046875 51.953125 
L 57.71875 49.75 
Q 55.21875 57.5625 50.484375 61.125 
Q 45.75 64.703125 38.578125 64.703125 
Q 30.328125 64.703125 24.78125 60.734375 
Q 19.234375 56.78125 16.984375 50.109375 
Q 14.75 43.453125 14.75 36.375 
Q 14.75 27.25 17.40625 20.4375 
Q 20.0625 13.625 25.671875 10.25 
Q 31.296875 6.890625 37.84375 6.890625 
Q 45.796875 6.890625 51.3125 11.46875 
Q 56.84375 16.0625 58.796875 25.09375 
z
" id="ArialMT-67"/>
      <path d="M 3.328125 25.921875 
Q 3.328125 40.328125 11.328125 47.265625 
Q 18.015625 53.03125 27.640625 53.03125 
Q 38.328125 53.03125 45.109375 46.015625 
Q 51.90625 39.015625 51.90625 26.65625 
Q 51.90625 16.65625 48.90625 10.90625 
Q 45.90625 5.171875 40.15625 2 
Q 34.421875 -1.171875 27.640625 -1.171875 
Q 16.75 -1.171875 10.03125 5.8125 
Q 3.328125 12.796875 3.328125 25.921875 
z
M 12.359375 25.921875 
Q 12.359375 15.96875 16.703125 11.015625 
Q 21.046875 6.0625 27.640625 6.0625 
Q 34.1875 6.0625 38.53125 11.03125 
Q 42.875 16.015625 42.875 26.21875 
Q 42.875 35.84375 38.5 40.796875 
Q 34.125 45.75 27.640625 45.75 
Q 21.046875 45.75 16.703125 40.8125 
Q 12.359375 35.890625 12.359375 25.921875 
z
" id="ArialMT-111"/>
      <path d="M 40.578125 0 
L 40.578125 7.625 
Q 34.515625 -1.171875 24.125 -1.171875 
Q 19.53125 -1.171875 15.546875 0.578125 
Q 11.578125 2.34375 9.640625 5 
Q 7.71875 7.671875 6.9375 11.53125 
Q 6.390625 14.109375 6.390625 19.734375 
L 6.390625 51.859375 
L 15.1875 51.859375 
L 15.1875 23.09375 
Q 15.1875 16.21875 15.71875 13.8125 
Q 16.546875 10.359375 19.234375 8.375 
Q 21.921875 6.390625 25.875 6.390625 
Q 29.828125 6.390625 33.296875 8.421875 
Q 36.765625 10.453125 38.203125 13.9375 
Q 39.65625 17.4375 39.65625 24.078125 
L 39.65625 51.859375 
L 48.4375 51.859375 
L 48.4375 0 
z
" id="ArialMT-117"/>
      <path d="M 6.59375 0 
L 6.59375 51.859375 
L 14.5 51.859375 
L 14.5 44.484375 
Q 20.21875 53.03125 31 53.03125 
Q 35.6875 53.03125 39.625 51.34375 
Q 43.5625 49.65625 45.515625 46.921875 
Q 47.46875 44.1875 48.25 40.4375 
Q 48.734375 37.984375 48.734375 31.890625 
L 48.734375 0 
L 39.9375 0 
L 39.9375 31.546875 
Q 39.9375 36.921875 38.90625 39.578125 
Q 37.890625 42.234375 35.28125 43.8125 
Q 32.671875 45.40625 29.15625 45.40625 
Q 23.53125 45.40625 19.453125 41.84375 
Q 15.375 38.28125 15.375 28.328125 
L 15.375 0 
z
" id="ArialMT-110"/>
      <path d="M 25.78125 7.859375 
L 27.046875 0.09375 
Q 23.34375 -0.6875 20.40625 -0.6875 
Q 15.625 -0.6875 12.984375 0.828125 
Q 10.359375 2.34375 9.28125 4.8125 
Q 8.203125 7.28125 8.203125 15.1875 
L 8.203125 45.015625 
L 1.765625 45.015625 
L 1.765625 51.859375 
L 8.203125 51.859375 
L 8.203125 64.703125 
L 16.9375 69.96875 
L 16.9375 51.859375 
L 25.78125 51.859375 
L 25.78125 45.015625 
L 16.9375 45.015625 
L 16.9375 14.703125 
Q 16.9375 10.9375 17.40625 9.859375 
Q 17.875 8.796875 18.921875 8.15625 
Q 19.96875 7.515625 21.921875 7.515625 
Q 23.390625 7.515625 25.78125 7.859375 
z
" id="ArialMT-116"/>
      <path d="M 42.09375 16.703125 
L 51.171875 15.578125 
Q 49.03125 7.625 43.21875 3.21875 
Q 37.40625 -1.171875 28.375 -1.171875 
Q 17 -1.171875 10.328125 5.828125 
Q 3.65625 12.84375 3.65625 25.484375 
Q 3.65625 38.578125 10.390625 45.796875 
Q 17.140625 53.03125 27.875 53.03125 
Q 38.28125 53.03125 44.875 45.953125 
Q 51.46875 38.875 51.46875 26.03125 
Q 51.46875 25.25 51.421875 23.6875 
L 12.75 23.6875 
Q 13.234375 15.140625 17.578125 10.59375 
Q 21.921875 6.0625 28.421875 6.0625 
Q 33.25 6.0625 36.671875 8.59375 
Q 40.09375 11.140625 42.09375 16.703125 
z
M 13.234375 30.90625 
L 42.1875 30.90625 
Q 41.609375 37.453125 38.875 40.71875 
Q 34.671875 45.796875 27.984375 45.796875 
Q 21.921875 45.796875 17.796875 41.75 
Q 13.671875 37.703125 13.234375 30.90625 
z
" id="ArialMT-101"/>
      <path d="M 6.5 0 
L 6.5 51.859375 
L 14.40625 51.859375 
L 14.40625 44 
Q 17.4375 49.515625 20 51.265625 
Q 22.5625 53.03125 25.640625 53.03125 
Q 30.078125 53.03125 34.671875 50.203125 
L 31.640625 42.046875 
Q 28.421875 43.953125 25.203125 43.953125 
Q 22.3125 43.953125 20.015625 42.21875 
Q 17.71875 40.484375 16.75 37.40625 
Q 15.28125 32.71875 15.28125 27.15625 
L 15.28125 0 
z
" id="ArialMT-114"/>
      <path id="ArialMT-32"/>
      <path d="M 6.640625 61.46875 
L 6.640625 71.578125 
L 15.4375 71.578125 
L 15.4375 61.46875 
z
M 6.640625 0 
L 6.640625 51.859375 
L 15.4375 51.859375 
L 15.4375 0 
z
" id="ArialMT-105"/>
      <path d="M 40.234375 0 
L 40.234375 6.546875 
Q 35.296875 -1.171875 25.734375 -1.171875 
Q 19.53125 -1.171875 14.328125 2.25 
Q 9.125 5.671875 6.265625 11.796875 
Q 3.421875 17.921875 3.421875 25.875 
Q 3.421875 33.640625 6 39.96875 
Q 8.59375 46.296875 13.765625 49.65625 
Q 18.953125 53.03125 25.34375 53.03125 
Q 30.03125 53.03125 33.6875 51.046875 
Q 37.359375 49.078125 39.65625 45.90625 
L 39.65625 71.578125 
L 48.390625 71.578125 
L 48.390625 0 
z
M 12.453125 25.875 
Q 12.453125 15.921875 16.640625 10.984375 
Q 20.84375 6.0625 26.5625 6.0625 
Q 32.328125 6.0625 36.34375 10.765625 
Q 40.375 15.484375 40.375 25.140625 
Q 40.375 35.796875 36.265625 40.765625 
Q 32.171875 45.75 26.171875 45.75 
Q 20.3125 45.75 16.375 40.96875 
Q 12.453125 36.1875 12.453125 25.875 
z
" id="ArialMT-100"/>
     </defs>
     <g style="fill:#262626;" transform="translate(375.763 529.789)scale(0.16 -0.16)">
      <use xlink:href="#ArialMT-67"/>
      <use x="72.216797" xlink:href="#ArialMT-111"/>
      <use x="127.832031" xlink:href="#ArialMT-117"/>
      <use x="183.447266" xlink:href="#ArialMT-110"/>
      <use x="239.0625" xlink:href="#ArialMT-116"/>
      <use x="266.845703" xlink:href="#ArialMT-101"/>
      <use x="322.460938" xlink:href="#ArialMT-114"/>
      <use x="355.761719" xlink:href="#ArialMT-32"/>
      <use x="383.544922" xlink:href="#ArialMT-105"/>
      <use x="405.761719" xlink:href="#ArialMT-100"/>
     </g>
    </g>
   </g>
   <g id="matplotlib.axis_2">
    <g id="ytick_1">
     <g id="text_5">
      <!-- 0 -->
      <g style="fill:#262626;" transform="translate(46.595 476.361886)scale(0.16 -0.16)">
       <use xlink:href="#ArialMT-48"/>
      </g>
     </g>
    </g>
    <g id="ytick_2">
     <g id="text_6">
      <!-- 100 -->
      <g style="fill:#262626;" transform="translate(28.8 401.043239)scale(0.16 -0.16)">
       <use xlink:href="#ArialMT-49"/>
       <use x="55.615234" xlink:href="#ArialMT-48"/>
       <use x="111.230469" xlink:href="#ArialMT-48"/>
      </g>
     </g>
    </g>
    <g id="ytick_3">
     <g id="text_7">
      <!-- 200 -->
      <g style="fill:#262626;" transform="translate(28.8 325.724592)scale(0.16 -0.16)">
       <use xlink:href="#ArialMT-50"/>
       <use x="55.615234" xlink:href="#ArialMT-48"/>
       <use x="111.230469" xlink:href="#ArialMT-48"/>
      </g>
     </g>
    </g>
    <g id="ytick_4">
     <g id="text_8">
      <!-- 300 -->
      <defs>
       <path d="M 4.203125 18.890625 
L 12.984375 20.0625 
Q 14.5 12.59375 18.140625 9.296875 
Q 21.78125 6 27 6 
Q 33.203125 6 37.46875 10.296875 
Q 41.75 14.59375 41.75 20.953125 
Q 41.75 27 37.796875 30.921875 
Q 33.84375 34.859375 27.734375 34.859375 
Q 25.25 34.859375 21.53125 33.890625 
L 22.515625 41.609375 
Q 23.390625 41.5 23.921875 41.5 
Q 29.546875 41.5 34.03125 44.421875 
Q 38.53125 47.359375 38.53125 53.46875 
Q 38.53125 58.296875 35.25 61.46875 
Q 31.984375 64.65625 26.8125 64.65625 
Q 21.6875 64.65625 18.265625 61.421875 
Q 14.84375 58.203125 13.875 51.765625 
L 5.078125 53.328125 
Q 6.6875 62.15625 12.390625 67.015625 
Q 18.109375 71.875 26.609375 71.875 
Q 32.46875 71.875 37.390625 69.359375 
Q 42.328125 66.84375 44.9375 62.5 
Q 47.5625 58.15625 47.5625 53.265625 
Q 47.5625 48.640625 45.0625 44.828125 
Q 42.578125 41.015625 37.703125 38.765625 
Q 44.046875 37.3125 47.5625 32.6875 
Q 51.078125 28.078125 51.078125 21.140625 
Q 51.078125 11.765625 44.234375 5.25 
Q 37.40625 -1.265625 26.953125 -1.265625 
Q 17.53125 -1.265625 11.296875 4.34375 
Q 5.078125 9.96875 4.203125 18.890625 
z
" id="ArialMT-51"/>
      </defs>
      <g style="fill:#262626;" transform="translate(28.8 250.405945)scale(0.16 -0.16)">
       <use xlink:href="#ArialMT-51"/>
       <use x="55.615234" xlink:href="#ArialMT-48"/>
       <use x="111.230469" xlink:href="#ArialMT-48"/>
      </g>
     </g>
    </g>
    <g id="ytick_5">
     <g id="text_9">
      <!-- 400 -->
      <defs>
       <path d="M 32.328125 0 
L 32.328125 17.140625 
L 1.265625 17.140625 
L 1.265625 25.203125 
L 33.9375 71.578125 
L 41.109375 71.578125 
L 41.109375 25.203125 
L 50.78125 25.203125 
L 50.78125 17.140625 
L 41.109375 17.140625 
L 41.109375 0 
z
M 32.328125 25.203125 
L 32.328125 57.46875 
L 9.90625 25.203125 
z
" id="ArialMT-52"/>
      </defs>
      <g style="fill:#262626;" transform="translate(28.8 175.087297)scale(0.16 -0.16)">
       <use xlink:href="#ArialMT-52"/>
       <use x="55.615234" xlink:href="#ArialMT-48"/>
       <use x="111.230469" xlink:href="#ArialMT-48"/>
      </g>
     </g>
    </g>
    <g id="ytick_6">
     <g id="text_10">
      <!-- 500 -->
      <g style="fill:#262626;" transform="translate(28.8 99.76865)scale(0.16 -0.16)">
       <use xlink:href="#ArialMT-53"/>
       <use x="55.615234" xlink:href="#ArialMT-48"/>
       <use x="111.230469" xlink:href="#ArialMT-48"/>
      </g>
     </g>
    </g>
    <g id="ytick_7">
     <g id="text_11">
      <!-- 600 -->
      <g style="fill:#262626;" transform="translate(28.8 24.450003)scale(0.16 -0.16)">
       <use xlink:href="#ArialMT-54"/>
       <use x="55.615234" xlink:href="#ArialMT-48"/>
       <use x="111.230469" xlink:href="#ArialMT-48"/>
      </g>
     </g>
    </g>
    <g id="text_12">
     <!-- Count [$h^{-1}$] -->
     <defs>
      <path d="M 6.78125 -19.875 
L 6.78125 71.578125 
L 26.171875 71.578125 
L 26.171875 64.3125 
L 15.578125 64.3125 
L 15.578125 -12.59375 
L 26.171875 -12.59375 
L 26.171875 -19.875 
z
" id="ArialMT-91"/>
      <path d="M 55.71875 33.015625 
L 49.3125 0 
L 40.28125 0 
L 46.6875 32.671875 
Q 47.125 34.96875 47.359375 36.71875 
Q 47.609375 38.484375 47.609375 39.5 
Q 47.609375 43.609375 45.015625 45.890625 
Q 42.4375 48.1875 37.796875 48.1875 
Q 30.5625 48.1875 25.265625 43.296875 
Q 19.96875 38.421875 18.40625 30.328125 
L 12.5 0 
L 3.515625 0 
L 18.3125 75.984375 
L 27.296875 75.984375 
L 21.484375 46.09375 
Q 24.90625 50.6875 30.21875 53.34375 
Q 35.546875 56 41.40625 56 
Q 48.640625 56 52.609375 52.09375 
Q 56.59375 48.1875 56.59375 41.109375 
Q 56.59375 39.359375 56.375 37.359375 
Q 56.15625 35.359375 55.71875 33.015625 
z
" id="DejaVuSans-Oblique-104"/>
      <path d="M 10.59375 35.5 
L 73.1875 35.5 
L 73.1875 27.203125 
L 10.59375 27.203125 
z
" id="DejaVuSans-8722"/>
      <path d="M 12.40625 8.296875 
L 28.515625 8.296875 
L 28.515625 63.921875 
L 10.984375 60.40625 
L 10.984375 69.390625 
L 28.421875 72.90625 
L 38.28125 72.90625 
L 38.28125 8.296875 
L 54.390625 8.296875 
L 54.390625 0 
L 12.40625 0 
z
" id="DejaVuSans-49"/>
      <path d="M 21.296875 -19.875 
L 1.90625 -19.875 
L 1.90625 -12.59375 
L 12.5 -12.59375 
L 12.5 64.3125 
L 1.90625 64.3125 
L 1.90625 71.578125 
L 21.296875 71.578125 
z
" id="ArialMT-93"/>
     </defs>
     <g style="fill:#262626;" transform="translate(21.6 292.112)rotate(-90)scale(0.16 -0.16)">
      <use transform="translate(0 0.684375)" xlink:href="#ArialMT-67"/>
      <use transform="translate(72.216797 0.684375)" xlink:href="#ArialMT-111"/>
      <use transform="translate(127.832031 0.684375)" xlink:href="#ArialMT-117"/>
      <use transform="translate(183.447266 0.684375)" xlink:href="#ArialMT-110"/>
      <use transform="translate(239.0625 0.684375)" xlink:href="#ArialMT-116"/>
      <use transform="translate(266.845703 0.684375)" xlink:href="#ArialMT-32"/>
      <use transform="translate(294.628906 0.684375)" xlink:href="#ArialMT-91"/>
      <use transform="translate(322.412109 0.684375)" xlink:href="#DejaVuSans-Oblique-104"/>
      <use transform="translate(393.238724 38.965625)scale(0.7)" xlink:href="#DejaVuSans-8722"/>
      <use transform="translate(451.891068 38.965625)scale(0.7)" xlink:href="#DejaVuSans-49"/>
      <use transform="translate(499.161576 0.684375)" xlink:href="#ArialMT-93"/>
     </g>
    </g>
   </g>
   <g id="PolyCollection_1">
    <defs>
     <path d="M 245.41722 -69.533364 
L 113.01978 -69.533364 
L 101.93475 -73.527534 
L 93.392578 -77.521705 
L 88.014317 -81.515876 
L 85.8377 -85.510046 
L 86.397671 -89.504217 
L 88.935962 -93.498388 
L 92.643128 -97.492558 
L 96.846174 -101.486729 
L 101.098849 -105.4809 
L 105.179395 -109.47507 
L 109.02984 -113.469241 
L 112.676834 -117.463412 
L 116.163957 -121.457583 
L 119.510191 -125.451753 
L 122.696157 -129.445924 
L 125.671799 -133.440095 
L 128.375944 -137.434265 
L 130.758151 -141.428436 
L 132.794977 -145.422607 
L 134.49583 -149.416777 
L 135.897518 -153.410948 
L 137.050747 -157.405119 
L 138.00461 -161.399289 
L 138.795254 -165.39346 
L 139.44247 -169.387631 
L 139.954279 -173.381801 
L 140.33658 -177.375972 
L 140.603461 -181.370143 
L 140.783949 -185.364314 
L 140.922301 -189.358484 
L 141.071186 -193.352655 
L 141.27992 -197.346826 
L 141.582325 -201.340996 
L 141.989464 -205.335167 
L 142.490493 -209.329338 
L 143.060975 -213.323508 
L 143.674293 -217.317679 
L 144.310613 -221.31185 
L 144.959819 -225.30602 
L 145.6186 -229.300191 
L 146.285045 -233.294362 
L 146.954822 -237.288532 
L 147.621358 -241.282703 
L 148.279429 -245.276874 
L 148.929187 -249.271045 
L 149.577063 -253.265215 
L 150.231661 -257.259386 
L 150.895791 -261.253557 
L 151.558513 -265.247727 
L 152.191647 -269.241898 
L 152.753204 -273.236069 
L 153.196743 -277.230239 
L 153.483016 -281.22441 
L 153.589929 -285.218581 
L 153.518714 -289.212751 
L 153.296335 -293.206922 
L 152.975011 -297.201093 
L 152.628861 -301.195263 
L 152.346449 -305.189434 
L 152.218167 -309.183605 
L 152.319559 -313.177775 
L 152.694845 -317.171946 
L 153.346717 -321.166117 
L 154.23716 -325.160288 
L 155.299785 -329.154458 
L 156.45907 -333.148629 
L 157.649106 -337.1428 
L 158.825348 -341.13697 
L 159.966829 -345.131141 
L 161.070618 -349.125312 
L 162.142814 -353.119482 
L 163.190185 -357.113653 
L 164.21476 -361.107824 
L 165.21172 -365.101994 
L 166.169867 -369.096165 
L 167.073868 -373.090336 
L 167.907701 -377.084506 
L 168.658819 -381.078677 
L 169.322204 -385.072848 
L 169.903136 -389.067019 
L 170.417552 -393.061189 
L 170.889509 -397.05536 
L 171.346269 -401.049531 
L 171.812394 -405.043701 
L 172.304613 -409.037872 
L 172.828998 -413.032043 
L 173.381172 -417.026213 
L 173.949175 -421.020384 
L 174.517729 -425.014555 
L 175.072245 -429.008725 
L 175.601356 -433.002896 
L 176.097647 -436.997067 
L 176.557077 -440.991237 
L 176.977919 -444.985408 
L 177.359812 -448.979579 
L 177.703095 -452.973749 
L 178.008335 -456.96792 
L 178.275959 -460.962091 
L 178.506107 -464.956262 
L 179.930893 -464.956262 
L 179.930893 -464.956262 
L 180.161041 -460.962091 
L 180.428665 -456.96792 
L 180.733905 -452.973749 
L 181.077188 -448.979579 
L 181.459081 -444.985408 
L 181.879923 -440.991237 
L 182.339353 -436.997067 
L 182.835644 -433.002896 
L 183.364755 -429.008725 
L 183.919271 -425.014555 
L 184.487825 -421.020384 
L 185.055828 -417.026213 
L 185.608002 -413.032043 
L 186.132387 -409.037872 
L 186.624606 -405.043701 
L 187.090731 -401.049531 
L 187.547491 -397.05536 
L 188.019448 -393.061189 
L 188.533864 -389.067019 
L 189.114796 -385.072848 
L 189.778181 -381.078677 
L 190.529299 -377.084506 
L 191.363132 -373.090336 
L 192.267133 -369.096165 
L 193.22528 -365.101994 
L 194.22224 -361.107824 
L 195.246815 -357.113653 
L 196.294186 -353.119482 
L 197.366382 -349.125312 
L 198.470171 -345.131141 
L 199.611652 -341.13697 
L 200.787894 -337.1428 
L 201.97793 -333.148629 
L 203.137215 -329.154458 
L 204.19984 -325.160288 
L 205.090283 -321.166117 
L 205.742155 -317.171946 
L 206.117441 -313.177775 
L 206.218833 -309.183605 
L 206.090551 -305.189434 
L 205.808139 -301.195263 
L 205.461989 -297.201093 
L 205.140665 -293.206922 
L 204.918286 -289.212751 
L 204.847071 -285.218581 
L 204.953984 -281.22441 
L 205.240257 -277.230239 
L 205.683796 -273.236069 
L 206.245353 -269.241898 
L 206.878487 -265.247727 
L 207.541209 -261.253557 
L 208.205339 -257.259386 
L 208.859937 -253.265215 
L 209.507813 -249.271045 
L 210.157571 -245.276874 
L 210.815642 -241.282703 
L 211.482178 -237.288532 
L 212.151955 -233.294362 
L 212.8184 -229.300191 
L 213.477181 -225.30602 
L 214.126387 -221.31185 
L 214.762707 -217.317679 
L 215.376025 -213.323508 
L 215.946507 -209.329338 
L 216.447536 -205.335167 
L 216.854675 -201.340996 
L 217.15708 -197.346826 
L 217.365814 -193.352655 
L 217.514699 -189.358484 
L 217.653051 -185.364314 
L 217.833539 -181.370143 
L 218.10042 -177.375972 
L 218.482721 -173.381801 
L 218.99453 -169.387631 
L 219.641746 -165.39346 
L 220.43239 -161.399289 
L 221.386253 -157.405119 
L 222.539482 -153.410948 
L 223.94117 -149.416777 
L 225.642023 -145.422607 
L 227.678849 -141.428436 
L 230.061056 -137.434265 
L 232.765201 -133.440095 
L 235.740843 -129.445924 
L 238.926809 -125.451753 
L 242.273043 -121.457583 
L 245.760166 -117.463412 
L 249.40716 -113.469241 
L 253.257605 -109.47507 
L 257.338151 -105.4809 
L 261.590826 -101.486729 
L 265.793872 -97.492558 
L 269.501038 -93.498388 
L 272.039329 -89.504217 
L 272.5993 -85.510046 
L 270.422683 -81.515876 
L 265.044422 -77.521705 
L 256.50225 -73.527534 
L 245.41722 -69.533364 
z
" id="m29b86a5b4a" style="stroke:#141414;stroke-width:1.5;"/>
    </defs>
    <g clip-path="url(#p0586e19c5f)">
     <use style="fill:#083c1d;stroke:#141414;stroke-width:1.5;" x="0" xlink:href="#m29b86a5b4a" y="540.169"/>
    </g>
   </g>
   <g id="PolyCollection_2">
    <defs>
     <path d="M 493.05551 -69.533364 
L 332.28549 -69.533364 
L 324.584137 -73.961187 
L 321.691445 -78.389011 
L 323.663122 -82.816834 
L 329.629936 -87.244658 
L 338.118076 -91.672481 
L 347.500856 -96.100305 
L 356.397304 -100.528128 
L 363.895898 -104.955952 
L 369.585069 -109.383775 
L 373.452119 -113.811599 
L 375.736359 -118.239422 
L 376.799015 -122.667246 
L 377.033035 -127.095069 
L 376.807394 -131.522893 
L 376.432139 -135.950716 
L 376.136018 -140.37854 
L 376.056727 -144.806363 
L 376.246744 -149.234187 
L 376.694261 -153.66201 
L 377.352573 -158.089834 
L 378.167293 -162.517657 
L 379.092101 -166.945481 
L 380.089634 -171.373304 
L 381.121496 -175.801128 
L 382.135951 -180.228951 
L 383.061781 -184.656775 
L 383.812606 -189.084598 
L 384.300586 -193.512422 
L 384.45434 -197.940245 
L 384.234606 -202.368069 
L 383.64238 -206.795892 
L 382.717232 -211.223716 
L 381.527175 -215.651539 
L 380.154489 -220.079363 
L 378.68293 -224.507186 
L 377.190246 -228.93501 
L 375.746534 -233.362833 
L 374.415922 -237.790657 
L 373.257963 -242.21848 
L 372.326442 -246.646304 
L 371.66568 -251.074127 
L 371.30614 -255.501951 
L 371.261312 -259.929774 
L 371.526803 -264.357598 
L 372.081268 -268.785421 
L 372.888138 -273.213245 
L 373.897234 -277.641068 
L 375.046113 -282.068892 
L 376.261803 -286.496715 
L 377.464135 -290.924539 
L 378.572012 -295.352362 
L 379.513284 -299.780186 
L 380.237456 -304.208009 
L 380.728331 -308.635833 
L 381.012105 -313.063656 
L 381.156728 -317.49148 
L 381.260925 -321.919303 
L 381.435189 -326.347127 
L 381.780007 -330.77495 
L 382.367276 -335.202774 
L 383.229207 -339.630597 
L 384.356449 -344.058421 
L 385.704713 -348.486244 
L 387.207419 -352.914068 
L 388.790797 -357.341891 
L 390.387623 -361.769715 
L 391.946652 -366.197538 
L 393.436576 -370.625362 
L 394.845204 -375.053185 
L 396.175609 -379.481009 
L 397.440915 -383.908832 
L 398.658781 -388.336656 
L 399.846164 -392.764479 
L 401.014918 -397.192303 
L 402.168956 -401.620126 
L 403.303569 -406.04795 
L 404.406899 -410.475773 
L 405.462883 -414.903597 
L 406.454567 -419.33142 
L 407.366838 -423.759244 
L 408.188129 -428.187067 
L 408.911181 -432.614891 
L 409.533252 -437.042714 
L 410.056104 -441.470538 
L 410.485883 -445.898361 
L 410.832684 -450.326185 
L 411.109573 -454.754008 
L 411.330982 -459.181832 
L 411.510771 -463.609655 
L 411.660533 -468.037479 
L 411.78868 -472.465302 
L 411.90054 -476.893126 
L 411.999256 -481.320949 
L 412.086941 -485.748773 
L 412.16556 -490.176596 
L 412.237215 -494.60442 
L 412.303866 -499.032243 
L 412.366793 -503.460067 
L 412.426187 -507.88789 
L 412.914813 -507.88789 
L 412.914813 -507.88789 
L 412.974207 -503.460067 
L 413.037134 -499.032243 
L 413.103785 -494.60442 
L 413.17544 -490.176596 
L 413.254059 -485.748773 
L 413.341744 -481.320949 
L 413.44046 -476.893126 
L 413.55232 -472.465302 
L 413.680467 -468.037479 
L 413.830229 -463.609655 
L 414.010018 -459.181832 
L 414.231427 -454.754008 
L 414.508316 -450.326185 
L 414.855117 -445.898361 
L 415.284896 -441.470538 
L 415.807748 -437.042714 
L 416.429819 -432.614891 
L 417.152871 -428.187067 
L 417.974162 -423.759244 
L 418.886433 -419.33142 
L 419.878117 -414.903597 
L 420.934101 -410.475773 
L 422.037431 -406.04795 
L 423.172044 -401.620126 
L 424.326082 -397.192303 
L 425.494836 -392.764479 
L 426.682219 -388.336656 
L 427.900085 -383.908832 
L 429.165391 -379.481009 
L 430.495796 -375.053185 
L 431.904424 -370.625362 
L 433.394348 -366.197538 
L 434.953377 -361.769715 
L 436.550203 -357.341891 
L 438.133581 -352.914068 
L 439.636287 -348.486244 
L 440.984551 -344.058421 
L 442.111793 -339.630597 
L 442.973724 -335.202774 
L 443.560993 -330.77495 
L 443.905811 -326.347127 
L 444.080075 -321.919303 
L 444.184272 -317.49148 
L 444.328895 -313.063656 
L 444.612669 -308.635833 
L 445.103544 -304.208009 
L 445.827716 -299.780186 
L 446.768988 -295.352362 
L 447.876865 -290.924539 
L 449.079197 -286.496715 
L 450.294887 -282.068892 
L 451.443766 -277.641068 
L 452.452862 -273.213245 
L 453.259732 -268.785421 
L 453.814197 -264.357598 
L 454.079688 -259.929774 
L 454.03486 -255.501951 
L 453.67532 -251.074127 
L 453.014558 -246.646304 
L 452.083037 -242.21848 
L 450.925078 -237.790657 
L 449.594466 -233.362833 
L 448.150754 -228.93501 
L 446.65807 -224.507186 
L 445.186511 -220.079363 
L 443.813825 -215.651539 
L 442.623768 -211.223716 
L 441.69862 -206.795892 
L 441.106394 -202.368069 
L 440.88666 -197.940245 
L 441.040414 -193.512422 
L 441.528394 -189.084598 
L 442.279219 -184.656775 
L 443.205049 -180.228951 
L 444.219504 -175.801128 
L 445.251366 -171.373304 
L 446.248899 -166.945481 
L 447.173707 -162.517657 
L 447.988427 -158.089834 
L 448.646739 -153.66201 
L 449.094256 -149.234187 
L 449.284273 -144.806363 
L 449.204982 -140.37854 
L 448.908861 -135.950716 
L 448.533606 -131.522893 
L 448.307965 -127.095069 
L 448.541985 -122.667246 
L 449.604641 -118.239422 
L 451.888881 -113.811599 
L 455.755931 -109.383775 
L 461.445102 -104.955952 
L 468.943696 -100.528128 
L 477.840144 -96.100305 
L 487.222924 -91.672481 
L 495.711064 -87.244658 
L 501.677878 -82.816834 
L 503.649555 -78.389011 
L 500.756863 -73.961187 
L 493.05551 -69.533364 
z
" id="m80256f90e0" style="stroke:#141414;stroke-width:1.5;"/>
    </defs>
    <g clip-path="url(#p0586e19c5f)">
     <use style="fill:#0e5f2f;stroke:#141414;stroke-width:1.5;" x="0" xlink:href="#m80256f90e0" y="540.169"/>
    </g>
   </g>
   <g id="PolyCollection_3">
    <defs>
     <path d="M 723.839755 -69.533364 
L 568.405245 -69.533364 
L 559.826362 -73.991619 
L 555.683776 -78.449874 
L 556.212597 -82.908129 
L 560.790711 -87.366385 
L 568.20655 -91.82464 
L 577.051463 -96.282895 
L 586.069626 -100.741151 
L 594.358018 -105.199406 
L 601.403339 -109.657661 
L 607.011611 -114.115916 
L 611.202588 -118.574172 
L 614.117456 -123.032427 
L 615.955094 -127.490682 
L 616.931491 -131.948938 
L 617.252979 -136.407193 
L 617.098831 -140.865448 
L 616.613274 -145.323703 
L 615.90723 -149.781959 
L 615.067258 -154.240214 
L 614.166296 -158.698469 
L 613.270373 -163.156725 
L 612.438046 -167.61498 
L 611.713738 -172.073235 
L 611.119966 -176.53149 
L 610.654369 -180.989746 
L 610.294689 -185.448001 
L 610.010114 -189.906256 
L 609.773734 -194.364511 
L 609.570601 -198.822767 
L 609.398833 -203.281022 
L 609.265033 -207.739277 
L 609.177282 -212.197533 
L 609.138532 -216.655788 
L 609.141717 -221.114043 
L 609.167088 -225.572298 
L 609.182613 -230.030554 
L 609.148551 -234.488809 
L 609.026349 -238.947064 
L 608.789814 -243.40532 
L 608.434584 -247.863575 
L 607.981803 -252.32183 
L 607.474117 -256.780085 
L 606.965626 -261.238341 
L 606.510325 -265.696596 
L 606.154093 -270.154851 
L 605.93303 -274.613107 
L 605.877053 -279.071362 
L 606.014606 -283.529617 
L 606.373968 -287.987872 
L 606.979296 -292.446128 
L 607.843214 -296.904383 
L 608.960061 -301.362638 
L 610.303356 -305.820893 
L 611.828435 -310.279149 
L 613.478705 -314.737404 
L 615.193109 -319.195659 
L 616.913134 -323.653915 
L 618.588806 -328.11217 
L 620.183377 -332.570425 
L 621.676 -337.02868 
L 623.061402 -341.486936 
L 624.346261 -345.945191 
L 625.543396 -350.403446 
L 626.666105 -354.861702 
L 627.724984 -359.319957 
L 628.728175 -363.778212 
L 629.683992 -368.236467 
L 630.603412 -372.694723 
L 631.500021 -377.152978 
L 632.386718 -381.611233 
L 633.270747 -386.069489 
L 634.150067 -390.527744 
L 635.013514 -394.985999 
L 635.844995 -399.444254 
L 636.629521 -403.90251 
L 637.357948 -408.360765 
L 638.028384 -412.81902 
L 638.644468 -417.277275 
L 639.2124 -421.735531 
L 639.738749 -426.193786 
L 640.22986 -430.652041 
L 640.69229 -435.110297 
L 641.133095 -439.568552 
L 641.559152 -444.026807 
L 641.975628 -448.485062 
L 642.384397 -452.943318 
L 642.783379 -457.401573 
L 643.167279 -461.859828 
L 643.52945 -466.318084 
L 643.864037 -470.776339 
L 644.167494 -475.234594 
L 644.439064 -479.692849 
L 644.680385 -484.151105 
L 644.894703 -488.60936 
L 645.086033 -493.067615 
L 645.25836 -497.525871 
L 645.414823 -501.984126 
L 645.557037 -506.442381 
L 645.684847 -510.900636 
L 646.560153 -510.900636 
L 646.560153 -510.900636 
L 646.687963 -506.442381 
L 646.830177 -501.984126 
L 646.98664 -497.525871 
L 647.158967 -493.067615 
L 647.350297 -488.60936 
L 647.564615 -484.151105 
L 647.805936 -479.692849 
L 648.077506 -475.234594 
L 648.380963 -470.776339 
L 648.71555 -466.318084 
L 649.077721 -461.859828 
L 649.461621 -457.401573 
L 649.860603 -452.943318 
L 650.269372 -448.485062 
L 650.685848 -444.026807 
L 651.111905 -439.568552 
L 651.55271 -435.110297 
L 652.01514 -430.652041 
L 652.506251 -426.193786 
L 653.0326 -421.735531 
L 653.600532 -417.277275 
L 654.216616 -412.81902 
L 654.887052 -408.360765 
L 655.615479 -403.90251 
L 656.400005 -399.444254 
L 657.231486 -394.985999 
L 658.094933 -390.527744 
L 658.974253 -386.069489 
L 659.858282 -381.611233 
L 660.744979 -377.152978 
L 661.641588 -372.694723 
L 662.561008 -368.236467 
L 663.516825 -363.778212 
L 664.520016 -359.319957 
L 665.578895 -354.861702 
L 666.701604 -350.403446 
L 667.898739 -345.945191 
L 669.183598 -341.486936 
L 670.569 -337.02868 
L 672.061623 -332.570425 
L 673.656194 -328.11217 
L 675.331866 -323.653915 
L 677.051891 -319.195659 
L 678.766295 -314.737404 
L 680.416565 -310.279149 
L 681.941644 -305.820893 
L 683.284939 -301.362638 
L 684.401786 -296.904383 
L 685.265704 -292.446128 
L 685.871032 -287.987872 
L 686.230394 -283.529617 
L 686.367947 -279.071362 
L 686.31197 -274.613107 
L 686.090907 -270.154851 
L 685.734675 -265.696596 
L 685.279374 -261.238341 
L 684.770883 -256.780085 
L 684.263197 -252.32183 
L 683.810416 -247.863575 
L 683.455186 -243.40532 
L 683.218651 -238.947064 
L 683.096449 -234.488809 
L 683.062387 -230.030554 
L 683.077912 -225.572298 
L 683.103283 -221.114043 
L 683.106468 -216.655788 
L 683.067718 -212.197533 
L 682.979967 -207.739277 
L 682.846167 -203.281022 
L 682.674399 -198.822767 
L 682.471266 -194.364511 
L 682.234886 -189.906256 
L 681.950311 -185.448001 
L 681.590631 -180.989746 
L 681.125034 -176.53149 
L 680.531262 -172.073235 
L 679.806954 -167.61498 
L 678.974627 -163.156725 
L 678.078704 -158.698469 
L 677.177742 -154.240214 
L 676.33777 -149.781959 
L 675.631726 -145.323703 
L 675.146169 -140.865448 
L 674.992021 -136.407193 
L 675.313509 -131.948938 
L 676.289906 -127.490682 
L 678.127544 -123.032427 
L 681.042412 -118.574172 
L 685.233389 -114.115916 
L 690.841661 -109.657661 
L 697.886982 -105.199406 
L 706.175374 -100.741151 
L 715.193537 -96.282895 
L 724.03845 -91.82464 
L 731.454289 -87.366385 
L 736.032403 -82.908129 
L 736.561224 -78.449874 
L 732.418638 -73.991619 
L 723.839755 -69.533364 
z
" id="mecac67f2a8" style="stroke:#141414;stroke-width:1.5;"/>
    </defs>
    <g clip-path="url(#p0586e19c5f)">
     <use style="fill:#307e4a;stroke:#141414;stroke-width:1.5;" x="0" xlink:href="#mecac67f2a8" y="540.169"/>
    </g>
   </g>
   <g id="line2d_1">
    <path clip-path="url(#p0586e19c5f)" d="M 179.2185 470.635636 
L 179.2185 75.212738 
" style="fill:none;stroke:#141414;stroke-linecap:round;stroke-width:1.5;"/>
   </g>
   <g id="line2d_2">
    <path clip-path="url(#p0586e19c5f)" d="M 179.2185 442.01455 
L 179.2185 290.62407 
" style="fill:none;stroke:#141414;stroke-linecap:round;stroke-width:4.5;"/>
   </g>
   <g id="line2d_3">
    <path clip-path="url(#p0586e19c5f)" d="M 412.6705 470.635636 
L 412.6705 32.28111 
" style="fill:none;stroke:#141414;stroke-linecap:round;stroke-width:1.5;"/>
   </g>
   <g id="line2d_4">
    <path clip-path="url(#p0586e19c5f)" d="M 412.6705 451.052788 
L 412.6705 259.743424 
" style="fill:none;stroke:#141414;stroke-linecap:round;stroke-width:4.5;"/>
   </g>
   <g id="line2d_5">
    <path clip-path="url(#p0586e19c5f)" d="M 646.1225 470.635636 
L 646.1225 29.268364 
" style="fill:none;stroke:#141414;stroke-linecap:round;stroke-width:1.5;"/>
   </g>
   <g id="line2d_6">
    <path clip-path="url(#p0586e19c5f)" d="M 646.1225 448.793229 
L 646.1225 259.743424 
" style="fill:none;stroke:#141414;stroke-linecap:round;stroke-width:4.5;"/>
   </g>
   <g id="patch_3">
    <path d="M 62.4925 492.704 
L 62.4925 7.2 
" style="fill:none;stroke:#262626;stroke-linecap:square;stroke-linejoin:miter;stroke-width:0.8;"/>
   </g>
   <g id="patch_4">
    <path d="M 62.4925 492.704 
L 762.8485 492.704 
" style="fill:none;stroke:#262626;stroke-linecap:square;stroke-linejoin:miter;stroke-width:0.8;"/>
   </g>
   <g id="PathCollection_1">
    <defs>
     <path d="M 0 1.5 
C 0.397805 1.5 0.77937 1.341951 1.06066 1.06066 
C 1.341951 0.77937 1.5 0.397805 1.5 0 
C 1.5 -0.397805 1.341951 -0.77937 1.06066 -1.06066 
C 0.77937 -1.341951 0.397805 -1.5 0 -1.5 
C -0.397805 -1.5 -0.77937 -1.341951 -1.06066 -1.06066 
C -1.341951 -0.77937 -1.5 -0.397805 -1.5 0 
C -1.5 0.397805 -1.341951 0.77937 -1.06066 1.06066 
C -0.77937 1.341951 -0.397805 1.5 0 1.5 
z
" id="mb51b4334a5" style="stroke:#141414;"/>
    </defs>
    <g clip-path="url(#p0586e19c5f)">
     <use style="fill:#ffffff;stroke:#141414;" x="179.2185" xlink:href="#mb51b4334a5" y="383.266006"/>
    </g>
   </g>
   <g id="PathCollection_2">
    <g clip-path="url(#p0586e19c5f)">
     <use style="fill:#ffffff;stroke:#141414;" x="412.6705" xlink:href="#mb51b4334a5" y="356.151293"/>
    </g>
   </g>
   <g id="PathCollection_3">
    <g clip-path="url(#p0586e19c5f)">
     <use style="fill:#ffffff;stroke:#141414;" x="646.1225" xlink:href="#mb51b4334a5" y="349.372614"/>
    </g>
   </g>
  </g>
 </g>
 <defs>
  <clipPath id="p0586e19c5f">
   <rect height="485.504" width="700.356" x="62.4925" y="7.2"/>
  </clipPath>
 </defs>
</svg>
