<?xml version="1.0" encoding="utf-8" standalone="no"?>
<!DOCTYPE svg PUBLIC "-//W3C//DTD SVG 1.1//EN"
  "http://www.w3.org/Graphics/SVG/1.1/DTD/svg11.dtd">
<!-- Created with matplotlib (https://matplotlib.org/) -->
<svg height="540.169pt" version="1.1" viewBox="0 0 791.118 540.169" width="791.118pt" xmlns="http://www.w3.org/2000/svg" xmlns:xlink="http://www.w3.org/1999/xlink">
 <defs>
  <style type="text/css">
*{stroke-linecap:butt;stroke-linejoin:round;white-space:pre;}
  </style>
 </defs>
 <g id="figure_1">
  <g id="patch_1">
   <path d="M 0 540.169 
L 791.118 540.169 
L 791.118 0 
L 0 0 
z
" style="fill:#ffffff;"/>
  </g>
  <g id="axes_1">
   <g id="patch_2">
    <path d="M 71.39 492.704 
L 605.559648 492.704 
L 605.559648 7.2 
L 71.39 7.2 
z
" style="fill:#ffffff;"/>
   </g>
   <g id="matplotlib.axis_1">
    <g id="xtick_1">
     <g id="text_1">
      <!-- 1003-116-1 -->
      <defs>
       <path d="M 37.25 0 
L 28.46875 0 
L 28.46875 56 
Q 25.296875 52.984375 20.140625 49.953125 
Q 14.984375 46.921875 10.890625 45.40625 
L 10.890625 53.90625 
Q 18.265625 57.375 23.78125 62.296875 
Q 29.296875 67.234375 31.59375 71.875 
L 37.25 71.875 
z
" id="ArialMT-49"/>
       <path d="M 4.15625 35.296875 
Q 4.15625 48 6.765625 55.734375 
Q 9.375 63.484375 14.515625 67.671875 
Q 19.671875 71.875 27.484375 71.875 
Q 33.25 71.875 37.59375 69.546875 
Q 41.9375 67.234375 44.765625 62.859375 
Q 47.609375 58.5 49.21875 52.21875 
Q 50.828125 45.953125 50.828125 35.296875 
Q 50.828125 22.703125 48.234375 14.96875 
Q 45.65625 7.234375 40.5 3 
Q 35.359375 -1.21875 27.484375 -1.21875 
Q 17.140625 -1.21875 11.234375 6.203125 
Q 4.15625 15.140625 4.15625 35.296875 
z
M 13.1875 35.296875 
Q 13.1875 17.671875 17.3125 11.828125 
Q 21.4375 6 27.484375 6 
Q 33.546875 6 37.671875 11.859375 
Q 41.796875 17.71875 41.796875 35.296875 
Q 41.796875 52.984375 37.671875 58.78125 
Q 33.546875 64.59375 27.390625 64.59375 
Q 21.34375 64.59375 17.71875 59.46875 
Q 13.1875 52.9375 13.1875 35.296875 
z
" id="ArialMT-48"/>
       <path d="M 4.203125 18.890625 
L 12.984375 20.0625 
Q 14.5 12.59375 18.140625 9.296875 
Q 21.78125 6 27 6 
Q 33.203125 6 37.46875 10.296875 
Q 41.75 14.59375 41.75 20.953125 
Q 41.75 27 37.796875 30.921875 
Q 33.84375 34.859375 27.734375 34.859375 
Q 25.25 34.859375 21.53125 33.890625 
L 22.515625 41.609375 
Q 23.390625 41.5 23.921875 41.5 
Q 29.546875 41.5 34.03125 44.421875 
Q 38.53125 47.359375 38.53125 53.46875 
Q 38.53125 58.296875 35.25 61.46875 
Q 31.984375 64.65625 26.8125 64.65625 
Q 21.6875 64.65625 18.265625 61.421875 
Q 14.84375 58.203125 13.875 51.765625 
L 5.078125 53.328125 
Q 6.6875 62.15625 12.390625 67.015625 
Q 18.109375 71.875 26.609375 71.875 
Q 32.46875 71.875 37.390625 69.359375 
Q 42.328125 66.84375 44.9375 62.5 
Q 47.5625 58.15625 47.5625 53.265625 
Q 47.5625 48.640625 45.0625 44.828125 
Q 42.578125 41.015625 37.703125 38.765625 
Q 44.046875 37.3125 47.5625 32.6875 
Q 51.078125 28.078125 51.078125 21.140625 
Q 51.078125 11.765625 44.234375 5.25 
Q 37.40625 -1.265625 26.953125 -1.265625 
Q 17.53125 -1.265625 11.296875 4.34375 
Q 5.078125 9.96875 4.203125 18.890625 
z
" id="ArialMT-51"/>
       <path d="M 3.171875 21.484375 
L 3.171875 30.328125 
L 30.171875 30.328125 
L 30.171875 21.484375 
z
" id="ArialMT-45"/>
       <path d="M 49.75 54.046875 
L 41.015625 53.375 
Q 39.84375 58.546875 37.703125 60.890625 
Q 34.125 64.65625 28.90625 64.65625 
Q 24.703125 64.65625 21.53125 62.3125 
Q 17.390625 59.28125 14.984375 53.46875 
Q 12.59375 47.65625 12.5 36.921875 
Q 15.671875 41.75 20.265625 44.09375 
Q 24.859375 46.4375 29.890625 46.4375 
Q 38.671875 46.4375 44.84375 39.96875 
Q 51.03125 33.5 51.03125 23.25 
Q 51.03125 16.5 48.125 10.71875 
Q 45.21875 4.9375 40.140625 1.859375 
Q 35.0625 -1.21875 28.609375 -1.21875 
Q 17.625 -1.21875 10.6875 6.859375 
Q 3.765625 14.9375 3.765625 33.5 
Q 3.765625 54.25 11.421875 63.671875 
Q 18.109375 71.875 29.4375 71.875 
Q 37.890625 71.875 43.28125 67.140625 
Q 48.6875 62.40625 49.75 54.046875 
z
M 13.875 23.1875 
Q 13.875 18.65625 15.796875 14.5 
Q 17.71875 10.359375 21.1875 8.171875 
Q 24.65625 6 28.46875 6 
Q 34.03125 6 38.03125 10.484375 
Q 42.046875 14.984375 42.046875 22.703125 
Q 42.046875 30.125 38.078125 34.390625 
Q 34.125 38.671875 28.125 38.671875 
Q 22.171875 38.671875 18.015625 34.390625 
Q 13.875 30.125 13.875 23.1875 
z
" id="ArialMT-54"/>
      </defs>
      <g style="fill:#262626;" transform="translate(83.898215 511.1565)scale(0.16 -0.16)">
       <use xlink:href="#ArialMT-49"/>
       <use x="55.615234" xlink:href="#ArialMT-48"/>
       <use x="111.230469" xlink:href="#ArialMT-48"/>
       <use x="166.845703" xlink:href="#ArialMT-51"/>
       <use x="222.460938" xlink:href="#ArialMT-45"/>
       <use x="255.761719" xlink:href="#ArialMT-49"/>
       <use x="311.267578" xlink:href="#ArialMT-49"/>
       <use x="366.882812" xlink:href="#ArialMT-54"/>
       <use x="422.498047" xlink:href="#ArialMT-45"/>
       <use x="455.798828" xlink:href="#ArialMT-49"/>
      </g>
     </g>
    </g>
    <g id="xtick_2">
     <g id="text_2">
      <!-- 1004-136-1 -->
      <defs>
       <path d="M 32.328125 0 
L 32.328125 17.140625 
L 1.265625 17.140625 
L 1.265625 25.203125 
L 33.9375 71.578125 
L 41.109375 71.578125 
L 41.109375 25.203125 
L 50.78125 25.203125 
L 50.78125 17.140625 
L 41.109375 17.140625 
L 41.109375 0 
z
M 32.328125 25.203125 
L 32.328125 57.46875 
L 9.90625 25.203125 
z
" id="ArialMT-52"/>
      </defs>
      <g style="fill:#262626;" transform="translate(190.723394 511.1565)scale(0.16 -0.16)">
       <use xlink:href="#ArialMT-49"/>
       <use x="55.615234" xlink:href="#ArialMT-48"/>
       <use x="111.230469" xlink:href="#ArialMT-48"/>
       <use x="166.845703" xlink:href="#ArialMT-52"/>
       <use x="222.460938" xlink:href="#ArialMT-45"/>
       <use x="255.761719" xlink:href="#ArialMT-49"/>
       <use x="311.376953" xlink:href="#ArialMT-51"/>
       <use x="366.992188" xlink:href="#ArialMT-54"/>
       <use x="422.607422" xlink:href="#ArialMT-45"/>
       <use x="455.908203" xlink:href="#ArialMT-49"/>
      </g>
     </g>
    </g>
    <g id="xtick_3">
     <g id="text_3">
      <!-- 1009-168-1 -->
      <defs>
       <path d="M 5.46875 16.546875 
L 13.921875 17.328125 
Q 14.984375 11.375 18.015625 8.6875 
Q 21.046875 6 25.78125 6 
Q 29.828125 6 32.875 7.859375 
Q 35.9375 9.71875 37.890625 12.8125 
Q 39.84375 15.921875 41.15625 21.1875 
Q 42.484375 26.46875 42.484375 31.9375 
Q 42.484375 32.515625 42.4375 33.6875 
Q 39.796875 29.5 35.234375 26.875 
Q 30.671875 24.265625 25.34375 24.265625 
Q 16.453125 24.265625 10.296875 30.703125 
Q 4.15625 37.15625 4.15625 47.703125 
Q 4.15625 58.59375 10.578125 65.234375 
Q 17 71.875 26.65625 71.875 
Q 33.640625 71.875 39.421875 68.109375 
Q 45.21875 64.359375 48.21875 57.390625 
Q 51.21875 50.4375 51.21875 37.25 
Q 51.21875 23.53125 48.234375 15.40625 
Q 45.265625 7.28125 39.375 3.03125 
Q 33.5 -1.21875 25.59375 -1.21875 
Q 17.1875 -1.21875 11.859375 3.4375 
Q 6.546875 8.109375 5.46875 16.546875 
z
M 41.453125 48.140625 
Q 41.453125 55.71875 37.421875 60.15625 
Q 33.40625 64.59375 27.734375 64.59375 
Q 21.875 64.59375 17.53125 59.8125 
Q 13.1875 55.03125 13.1875 47.40625 
Q 13.1875 40.578125 17.3125 36.296875 
Q 21.4375 32.03125 27.484375 32.03125 
Q 33.59375 32.03125 37.515625 36.296875 
Q 41.453125 40.578125 41.453125 48.140625 
z
" id="ArialMT-57"/>
       <path d="M 17.671875 38.8125 
Q 12.203125 40.828125 9.5625 44.53125 
Q 6.9375 48.25 6.9375 53.421875 
Q 6.9375 61.234375 12.546875 66.546875 
Q 18.171875 71.875 27.484375 71.875 
Q 36.859375 71.875 42.578125 66.421875 
Q 48.296875 60.984375 48.296875 53.171875 
Q 48.296875 48.1875 45.671875 44.5 
Q 43.0625 40.828125 37.75 38.8125 
Q 44.34375 36.671875 47.78125 31.875 
Q 51.21875 27.09375 51.21875 20.453125 
Q 51.21875 11.28125 44.71875 5.03125 
Q 38.234375 -1.21875 27.640625 -1.21875 
Q 17.046875 -1.21875 10.546875 5.046875 
Q 4.046875 11.328125 4.046875 20.703125 
Q 4.046875 27.6875 7.59375 32.390625 
Q 11.140625 37.109375 17.671875 38.8125 
z
M 15.921875 53.71875 
Q 15.921875 48.640625 19.1875 45.40625 
Q 22.46875 42.1875 27.6875 42.1875 
Q 32.765625 42.1875 36.015625 45.375 
Q 39.265625 48.578125 39.265625 53.21875 
Q 39.265625 58.0625 35.90625 61.359375 
Q 32.5625 64.65625 27.59375 64.65625 
Q 22.5625 64.65625 19.234375 61.421875 
Q 15.921875 58.203125 15.921875 53.71875 
z
M 13.09375 20.65625 
Q 13.09375 16.890625 14.875 13.375 
Q 16.65625 9.859375 20.171875 7.921875 
Q 23.6875 6 27.734375 6 
Q 34.03125 6 38.125 10.046875 
Q 42.234375 14.109375 42.234375 20.359375 
Q 42.234375 26.703125 38.015625 30.859375 
Q 33.796875 35.015625 27.4375 35.015625 
Q 21.234375 35.015625 17.15625 30.90625 
Q 13.09375 26.8125 13.09375 20.65625 
z
" id="ArialMT-56"/>
      </defs>
      <g style="fill:#262626;" transform="translate(297.557324 511.1565)scale(0.16 -0.16)">
       <use xlink:href="#ArialMT-49"/>
       <use x="55.615234" xlink:href="#ArialMT-48"/>
       <use x="111.230469" xlink:href="#ArialMT-48"/>
       <use x="166.845703" xlink:href="#ArialMT-57"/>
       <use x="222.460938" xlink:href="#ArialMT-45"/>
       <use x="255.761719" xlink:href="#ArialMT-49"/>
       <use x="311.376953" xlink:href="#ArialMT-54"/>
       <use x="366.992188" xlink:href="#ArialMT-56"/>
       <use x="422.607422" xlink:href="#ArialMT-45"/>
       <use x="455.908203" xlink:href="#ArialMT-49"/>
      </g>
     </g>
    </g>
    <g id="xtick_4">
     <g id="text_4">
      <!-- 1010-188-1 -->
      <g style="fill:#262626;" transform="translate(404.391254 511.1565)scale(0.16 -0.16)">
       <use xlink:href="#ArialMT-49"/>
       <use x="55.615234" xlink:href="#ArialMT-48"/>
       <use x="111.230469" xlink:href="#ArialMT-49"/>
       <use x="166.845703" xlink:href="#ArialMT-48"/>
       <use x="222.460938" xlink:href="#ArialMT-45"/>
       <use x="255.761719" xlink:href="#ArialMT-49"/>
       <use x="311.376953" xlink:href="#ArialMT-56"/>
       <use x="366.992188" xlink:href="#ArialMT-56"/>
       <use x="422.607422" xlink:href="#ArialMT-45"/>
       <use x="455.908203" xlink:href="#ArialMT-49"/>
      </g>
     </g>
    </g>
    <g id="xtick_5">
     <g id="text_5">
      <!-- 1025-116-1 -->
      <defs>
       <path d="M 50.34375 8.453125 
L 50.34375 0 
L 3.03125 0 
Q 2.9375 3.171875 4.046875 6.109375 
Q 5.859375 10.9375 9.828125 15.625 
Q 13.8125 20.3125 21.34375 26.46875 
Q 33.015625 36.03125 37.109375 41.625 
Q 41.21875 47.21875 41.21875 52.203125 
Q 41.21875 57.421875 37.46875 61 
Q 33.734375 64.59375 27.734375 64.59375 
Q 21.390625 64.59375 17.578125 60.78125 
Q 13.765625 56.984375 13.71875 50.25 
L 4.6875 51.171875 
Q 5.609375 61.28125 11.65625 66.578125 
Q 17.71875 71.875 27.9375 71.875 
Q 38.234375 71.875 44.234375 66.15625 
Q 50.25 60.453125 50.25 52 
Q 50.25 47.703125 48.484375 43.546875 
Q 46.734375 39.40625 42.65625 34.8125 
Q 38.578125 30.21875 29.109375 22.21875 
Q 21.1875 15.578125 18.9375 13.203125 
Q 16.703125 10.84375 15.234375 8.453125 
z
" id="ArialMT-50"/>
       <path d="M 4.15625 18.75 
L 13.375 19.53125 
Q 14.40625 12.796875 18.140625 9.390625 
Q 21.875 6 27.15625 6 
Q 33.5 6 37.890625 10.78125 
Q 42.28125 15.578125 42.28125 23.484375 
Q 42.28125 31 38.0625 35.34375 
Q 33.84375 39.703125 27 39.703125 
Q 22.75 39.703125 19.328125 37.765625 
Q 15.921875 35.84375 13.96875 32.765625 
L 5.71875 33.84375 
L 12.640625 70.609375 
L 48.25 70.609375 
L 48.25 62.203125 
L 19.671875 62.203125 
L 15.828125 42.96875 
Q 22.265625 47.46875 29.34375 47.46875 
Q 38.71875 47.46875 45.15625 40.96875 
Q 51.609375 34.46875 51.609375 24.265625 
Q 51.609375 14.546875 45.953125 7.46875 
Q 39.0625 -1.21875 27.15625 -1.21875 
Q 17.390625 -1.21875 11.203125 4.25 
Q 5.03125 9.71875 4.15625 18.75 
z
" id="ArialMT-53"/>
      </defs>
      <g style="fill:#262626;" transform="translate(511.233933 511.1565)scale(0.16 -0.16)">
       <use xlink:href="#ArialMT-49"/>
       <use x="55.615234" xlink:href="#ArialMT-48"/>
       <use x="111.230469" xlink:href="#ArialMT-50"/>
       <use x="166.845703" xlink:href="#ArialMT-53"/>
       <use x="222.460938" xlink:href="#ArialMT-45"/>
       <use x="255.761719" xlink:href="#ArialMT-49"/>
       <use x="311.267578" xlink:href="#ArialMT-49"/>
       <use x="366.882812" xlink:href="#ArialMT-54"/>
       <use x="422.498047" xlink:href="#ArialMT-45"/>
       <use x="455.798828" xlink:href="#ArialMT-49"/>
      </g>
     </g>
    </g>
    <g id="text_6">
     <!-- Counter id -->
     <defs>
      <path d="M 58.796875 25.09375 
L 68.265625 22.703125 
Q 65.28125 11.03125 57.546875 4.90625 
Q 49.8125 -1.21875 38.625 -1.21875 
Q 27.046875 -1.21875 19.796875 3.484375 
Q 12.546875 8.203125 8.765625 17.140625 
Q 4.984375 26.078125 4.984375 36.328125 
Q 4.984375 47.515625 9.25 55.828125 
Q 13.53125 64.15625 21.40625 68.46875 
Q 29.296875 72.796875 38.765625 72.796875 
Q 49.515625 72.796875 56.828125 67.328125 
Q 64.15625 61.859375 67.046875 51.953125 
L 57.71875 49.75 
Q 55.21875 57.5625 50.484375 61.125 
Q 45.75 64.703125 38.578125 64.703125 
Q 30.328125 64.703125 24.78125 60.734375 
Q 19.234375 56.78125 16.984375 50.109375 
Q 14.75 43.453125 14.75 36.375 
Q 14.75 27.25 17.40625 20.4375 
Q 20.0625 13.625 25.671875 10.25 
Q 31.296875 6.890625 37.84375 6.890625 
Q 45.796875 6.890625 51.3125 11.46875 
Q 56.84375 16.0625 58.796875 25.09375 
z
" id="ArialMT-67"/>
      <path d="M 3.328125 25.921875 
Q 3.328125 40.328125 11.328125 47.265625 
Q 18.015625 53.03125 27.640625 53.03125 
Q 38.328125 53.03125 45.109375 46.015625 
Q 51.90625 39.015625 51.90625 26.65625 
Q 51.90625 16.65625 48.90625 10.90625 
Q 45.90625 5.171875 40.15625 2 
Q 34.421875 -1.171875 27.640625 -1.171875 
Q 16.75 -1.171875 10.03125 5.8125 
Q 3.328125 12.796875 3.328125 25.921875 
z
M 12.359375 25.921875 
Q 12.359375 15.96875 16.703125 11.015625 
Q 21.046875 6.0625 27.640625 6.0625 
Q 34.1875 6.0625 38.53125 11.03125 
Q 42.875 16.015625 42.875 26.21875 
Q 42.875 35.84375 38.5 40.796875 
Q 34.125 45.75 27.640625 45.75 
Q 21.046875 45.75 16.703125 40.8125 
Q 12.359375 35.890625 12.359375 25.921875 
z
" id="ArialMT-111"/>
      <path d="M 40.578125 0 
L 40.578125 7.625 
Q 34.515625 -1.171875 24.125 -1.171875 
Q 19.53125 -1.171875 15.546875 0.578125 
Q 11.578125 2.34375 9.640625 5 
Q 7.71875 7.671875 6.9375 11.53125 
Q 6.390625 14.109375 6.390625 19.734375 
L 6.390625 51.859375 
L 15.1875 51.859375 
L 15.1875 23.09375 
Q 15.1875 16.21875 15.71875 13.8125 
Q 16.546875 10.359375 19.234375 8.375 
Q 21.921875 6.390625 25.875 6.390625 
Q 29.828125 6.390625 33.296875 8.421875 
Q 36.765625 10.453125 38.203125 13.9375 
Q 39.65625 17.4375 39.65625 24.078125 
L 39.65625 51.859375 
L 48.4375 51.859375 
L 48.4375 0 
z
" id="ArialMT-117"/>
      <path d="M 6.59375 0 
L 6.59375 51.859375 
L 14.5 51.859375 
L 14.5 44.484375 
Q 20.21875 53.03125 31 53.03125 
Q 35.6875 53.03125 39.625 51.34375 
Q 43.5625 49.65625 45.515625 46.921875 
Q 47.46875 44.1875 48.25 40.4375 
Q 48.734375 37.984375 48.734375 31.890625 
L 48.734375 0 
L 39.9375 0 
L 39.9375 31.546875 
Q 39.9375 36.921875 38.90625 39.578125 
Q 37.890625 42.234375 35.28125 43.8125 
Q 32.671875 45.40625 29.15625 45.40625 
Q 23.53125 45.40625 19.453125 41.84375 
Q 15.375 38.28125 15.375 28.328125 
L 15.375 0 
z
" id="ArialMT-110"/>
      <path d="M 25.78125 7.859375 
L 27.046875 0.09375 
Q 23.34375 -0.6875 20.40625 -0.6875 
Q 15.625 -0.6875 12.984375 0.828125 
Q 10.359375 2.34375 9.28125 4.8125 
Q 8.203125 7.28125 8.203125 15.1875 
L 8.203125 45.015625 
L 1.765625 45.015625 
L 1.765625 51.859375 
L 8.203125 51.859375 
L 8.203125 64.703125 
L 16.9375 69.96875 
L 16.9375 51.859375 
L 25.78125 51.859375 
L 25.78125 45.015625 
L 16.9375 45.015625 
L 16.9375 14.703125 
Q 16.9375 10.9375 17.40625 9.859375 
Q 17.875 8.796875 18.921875 8.15625 
Q 19.96875 7.515625 21.921875 7.515625 
Q 23.390625 7.515625 25.78125 7.859375 
z
" id="ArialMT-116"/>
      <path d="M 42.09375 16.703125 
L 51.171875 15.578125 
Q 49.03125 7.625 43.21875 3.21875 
Q 37.40625 -1.171875 28.375 -1.171875 
Q 17 -1.171875 10.328125 5.828125 
Q 3.65625 12.84375 3.65625 25.484375 
Q 3.65625 38.578125 10.390625 45.796875 
Q 17.140625 53.03125 27.875 53.03125 
Q 38.28125 53.03125 44.875 45.953125 
Q 51.46875 38.875 51.46875 26.03125 
Q 51.46875 25.25 51.421875 23.6875 
L 12.75 23.6875 
Q 13.234375 15.140625 17.578125 10.59375 
Q 21.921875 6.0625 28.421875 6.0625 
Q 33.25 6.0625 36.671875 8.59375 
Q 40.09375 11.140625 42.09375 16.703125 
z
M 13.234375 30.90625 
L 42.1875 30.90625 
Q 41.609375 37.453125 38.875 40.71875 
Q 34.671875 45.796875 27.984375 45.796875 
Q 21.921875 45.796875 17.796875 41.75 
Q 13.671875 37.703125 13.234375 30.90625 
z
" id="ArialMT-101"/>
      <path d="M 6.5 0 
L 6.5 51.859375 
L 14.40625 51.859375 
L 14.40625 44 
Q 17.4375 49.515625 20 51.265625 
Q 22.5625 53.03125 25.640625 53.03125 
Q 30.078125 53.03125 34.671875 50.203125 
L 31.640625 42.046875 
Q 28.421875 43.953125 25.203125 43.953125 
Q 22.3125 43.953125 20.015625 42.21875 
Q 17.71875 40.484375 16.75 37.40625 
Q 15.28125 32.71875 15.28125 27.15625 
L 15.28125 0 
z
" id="ArialMT-114"/>
      <path id="ArialMT-32"/>
      <path d="M 6.640625 61.46875 
L 6.640625 71.578125 
L 15.4375 71.578125 
L 15.4375 61.46875 
z
M 6.640625 0 
L 6.640625 51.859375 
L 15.4375 51.859375 
L 15.4375 0 
z
" id="ArialMT-105"/>
      <path d="M 40.234375 0 
L 40.234375 6.546875 
Q 35.296875 -1.171875 25.734375 -1.171875 
Q 19.53125 -1.171875 14.328125 2.25 
Q 9.125 5.671875 6.265625 11.796875 
Q 3.421875 17.921875 3.421875 25.875 
Q 3.421875 33.640625 6 39.96875 
Q 8.59375 46.296875 13.765625 49.65625 
Q 18.953125 53.03125 25.34375 53.03125 
Q 30.03125 53.03125 33.6875 51.046875 
Q 37.359375 49.078125 39.65625 45.90625 
L 39.65625 71.578125 
L 48.390625 71.578125 
L 48.390625 0 
z
M 12.453125 25.875 
Q 12.453125 15.921875 16.640625 10.984375 
Q 20.84375 6.0625 26.5625 6.0625 
Q 32.328125 6.0625 36.34375 10.765625 
Q 40.375 15.484375 40.375 25.140625 
Q 40.375 35.796875 36.265625 40.765625 
Q 32.171875 45.75 26.171875 45.75 
Q 20.3125 45.75 16.375 40.96875 
Q 12.453125 36.1875 12.453125 25.875 
z
" id="ArialMT-100"/>
     </defs>
     <g style="fill:#262626;" transform="translate(301.567324 529.789)scale(0.16 -0.16)">
      <use xlink:href="#ArialMT-67"/>
      <use x="72.216797" xlink:href="#ArialMT-111"/>
      <use x="127.832031" xlink:href="#ArialMT-117"/>
      <use x="183.447266" xlink:href="#ArialMT-110"/>
      <use x="239.0625" xlink:href="#ArialMT-116"/>
      <use x="266.845703" xlink:href="#ArialMT-101"/>
      <use x="322.460938" xlink:href="#ArialMT-114"/>
      <use x="355.761719" xlink:href="#ArialMT-32"/>
      <use x="383.544922" xlink:href="#ArialMT-105"/>
      <use x="405.761719" xlink:href="#ArialMT-100"/>
     </g>
    </g>
   </g>
   <g id="matplotlib.axis_2">
    <g id="ytick_1">
     <g id="text_7">
      <!-- 0 -->
      <g style="fill:#262626;" transform="translate(55.4925 476.361886)scale(0.16 -0.16)">
       <use xlink:href="#ArialMT-48"/>
      </g>
     </g>
    </g>
    <g id="ytick_2">
     <g id="text_8">
      <!-- 250 -->
      <g style="fill:#262626;" transform="translate(37.6975 419.97874)scale(0.16 -0.16)">
       <use xlink:href="#ArialMT-50"/>
       <use x="55.615234" xlink:href="#ArialMT-53"/>
       <use x="111.230469" xlink:href="#ArialMT-48"/>
      </g>
     </g>
    </g>
    <g id="ytick_3">
     <g id="text_9">
      <!-- 500 -->
      <g style="fill:#262626;" transform="translate(37.6975 363.595593)scale(0.16 -0.16)">
       <use xlink:href="#ArialMT-53"/>
       <use x="55.615234" xlink:href="#ArialMT-48"/>
       <use x="111.230469" xlink:href="#ArialMT-48"/>
      </g>
     </g>
    </g>
    <g id="ytick_4">
     <g id="text_10">
      <!-- 750 -->
      <defs>
       <path d="M 4.734375 62.203125 
L 4.734375 70.65625 
L 51.078125 70.65625 
L 51.078125 63.8125 
Q 44.234375 56.546875 37.515625 44.484375 
Q 30.8125 32.421875 27.15625 19.671875 
Q 24.515625 10.6875 23.78125 0 
L 14.75 0 
Q 14.890625 8.453125 18.0625 20.40625 
Q 21.234375 32.375 27.171875 43.484375 
Q 33.109375 54.59375 39.796875 62.203125 
z
" id="ArialMT-55"/>
      </defs>
      <g style="fill:#262626;" transform="translate(37.6975 307.212446)scale(0.16 -0.16)">
       <use xlink:href="#ArialMT-55"/>
       <use x="55.615234" xlink:href="#ArialMT-53"/>
       <use x="111.230469" xlink:href="#ArialMT-48"/>
      </g>
     </g>
    </g>
    <g id="ytick_5">
     <g id="text_11">
      <!-- 1000 -->
      <g style="fill:#262626;" transform="translate(28.8 250.829299)scale(0.16 -0.16)">
       <use xlink:href="#ArialMT-49"/>
       <use x="55.615234" xlink:href="#ArialMT-48"/>
       <use x="111.230469" xlink:href="#ArialMT-48"/>
       <use x="166.845703" xlink:href="#ArialMT-48"/>
      </g>
     </g>
    </g>
    <g id="ytick_6">
     <g id="text_12">
      <!-- 1250 -->
      <g style="fill:#262626;" transform="translate(28.8 194.446153)scale(0.16 -0.16)">
       <use xlink:href="#ArialMT-49"/>
       <use x="55.615234" xlink:href="#ArialMT-50"/>
       <use x="111.230469" xlink:href="#ArialMT-53"/>
       <use x="166.845703" xlink:href="#ArialMT-48"/>
      </g>
     </g>
    </g>
    <g id="ytick_7">
     <g id="text_13">
      <!-- 1500 -->
      <g style="fill:#262626;" transform="translate(28.8 138.063006)scale(0.16 -0.16)">
       <use xlink:href="#ArialMT-49"/>
       <use x="55.615234" xlink:href="#ArialMT-53"/>
       <use x="111.230469" xlink:href="#ArialMT-48"/>
       <use x="166.845703" xlink:href="#ArialMT-48"/>
      </g>
     </g>
    </g>
    <g id="ytick_8">
     <g id="text_14">
      <!-- 1750 -->
      <g style="fill:#262626;" transform="translate(28.8 81.679859)scale(0.16 -0.16)">
       <use xlink:href="#ArialMT-49"/>
       <use x="55.615234" xlink:href="#ArialMT-55"/>
       <use x="111.230469" xlink:href="#ArialMT-53"/>
       <use x="166.845703" xlink:href="#ArialMT-48"/>
      </g>
     </g>
    </g>
    <g id="ytick_9">
     <g id="text_15">
      <!-- 2000 -->
      <g style="fill:#262626;" transform="translate(28.8 25.296712)scale(0.16 -0.16)">
       <use xlink:href="#ArialMT-50"/>
       <use x="55.615234" xlink:href="#ArialMT-48"/>
       <use x="111.230469" xlink:href="#ArialMT-48"/>
       <use x="166.845703" xlink:href="#ArialMT-48"/>
      </g>
     </g>
    </g>
    <g id="text_16">
     <!-- Count [$h^{-1}$] -->
     <defs>
      <path d="M 6.78125 -19.875 
L 6.78125 71.578125 
L 26.171875 71.578125 
L 26.171875 64.3125 
L 15.578125 64.3125 
L 15.578125 -12.59375 
L 26.171875 -12.59375 
L 26.171875 -19.875 
z
" id="ArialMT-91"/>
      <path d="M 55.71875 33.015625 
L 49.3125 0 
L 40.28125 0 
L 46.6875 32.671875 
Q 47.125 34.96875 47.359375 36.71875 
Q 47.609375 38.484375 47.609375 39.5 
Q 47.609375 43.609375 45.015625 45.890625 
Q 42.4375 48.1875 37.796875 48.1875 
Q 30.5625 48.1875 25.265625 43.296875 
Q 19.96875 38.421875 18.40625 30.328125 
L 12.5 0 
L 3.515625 0 
L 18.3125 75.984375 
L 27.296875 75.984375 
L 21.484375 46.09375 
Q 24.90625 50.6875 30.21875 53.34375 
Q 35.546875 56 41.40625 56 
Q 48.640625 56 52.609375 52.09375 
Q 56.59375 48.1875 56.59375 41.109375 
Q 56.59375 39.359375 56.375 37.359375 
Q 56.15625 35.359375 55.71875 33.015625 
z
" id="DejaVuSans-Oblique-104"/>
      <path d="M 10.59375 35.5 
L 73.1875 35.5 
L 73.1875 27.203125 
L 10.59375 27.203125 
z
" id="DejaVuSans-8722"/>
      <path d="M 12.40625 8.296875 
L 28.515625 8.296875 
L 28.515625 63.921875 
L 10.984375 60.40625 
L 10.984375 69.390625 
L 28.421875 72.90625 
L 38.28125 72.90625 
L 38.28125 8.296875 
L 54.390625 8.296875 
L 54.390625 0 
L 12.40625 0 
z
" id="DejaVuSans-49"/>
      <path d="M 21.296875 -19.875 
L 1.90625 -19.875 
L 1.90625 -12.59375 
L 12.5 -12.59375 
L 12.5 64.3125 
L 1.90625 64.3125 
L 1.90625 71.578125 
L 21.296875 71.578125 
z
" id="ArialMT-93"/>
     </defs>
     <g style="fill:#262626;" transform="translate(21.6 292.112)rotate(-90)scale(0.16 -0.16)">
      <use transform="translate(0 0.684375)" xlink:href="#ArialMT-67"/>
      <use transform="translate(72.216797 0.684375)" xlink:href="#ArialMT-111"/>
      <use transform="translate(127.832031 0.684375)" xlink:href="#ArialMT-117"/>
      <use transform="translate(183.447266 0.684375)" xlink:href="#ArialMT-110"/>
      <use transform="translate(239.0625 0.684375)" xlink:href="#ArialMT-116"/>
      <use transform="translate(266.845703 0.684375)" xlink:href="#ArialMT-32"/>
      <use transform="translate(294.628906 0.684375)" xlink:href="#ArialMT-91"/>
      <use transform="translate(322.412109 0.684375)" xlink:href="#DejaVuSans-Oblique-104"/>
      <use transform="translate(393.238724 38.965625)scale(0.7)" xlink:href="#DejaVuSans-8722"/>
      <use transform="translate(451.891068 38.965625)scale(0.7)" xlink:href="#DejaVuSans-49"/>
      <use transform="translate(499.161576 0.684375)" xlink:href="#ArialMT-93"/>
     </g>
    </g>
   </g>
   <g id="PolyCollection_1">
    <defs>
     <path d="M 122.781599 -69.533364 
L 84.098759 -69.533364 
L 82.637548 -71.724903 
L 82.073393 -73.916441 
L 82.404934 -76.10798 
L 83.498281 -78.299519 
L 85.130997 -80.491058 
L 87.052255 -82.682597 
L 89.037863 -84.874136 
L 90.924351 -87.065675 
L 92.617126 -89.257214 
L 94.078076 -91.448752 
L 95.30352 -93.640291 
L 96.303172 -95.83183 
L 97.086524 -98.023369 
L 97.658008 -100.214908 
L 98.018653 -102.406447 
L 98.170702 -104.597986 
L 98.122129 -106.789525 
L 97.889315 -108.981063 
L 97.497391 -111.172602 
L 96.978573 -113.364141 
L 96.369259 -115.55568 
L 95.706768 -117.747219 
L 95.026562 -119.938758 
L 94.360445 -122.130297 
L 93.735813 -124.321836 
L 93.175578 -126.513374 
L 92.698158 -128.704913 
L 92.317101 -130.896452 
L 92.040295 -133.087991 
L 91.86917 -135.27953 
L 91.798507 -137.471069 
L 91.81724 -139.662608 
L 91.910218 -141.854147 
L 92.060429 -144.045685 
L 92.251038 -146.237224 
L 92.46675 -148.428763 
L 92.694413 -150.620302 
L 92.923113 -152.811841 
L 93.14418 -155.00338 
L 93.351425 -157.194919 
L 93.541654 -159.386458 
L 93.715282 -161.577996 
L 93.87668 -163.769535 
L 94.033887 -165.961074 
L 94.197467 -168.152613 
L 94.378564 -170.344152 
L 94.586536 -172.535691 
L 94.826835 -174.72723 
L 95.099831 -176.918769 
L 95.401048 -179.110307 
L 95.722817 -181.301846 
L 96.056805 -183.493385 
L 96.396542 -185.684924 
L 96.739085 -187.876463 
L 97.085259 -190.068002 
L 97.438499 -192.259541 
L 97.802794 -194.45108 
L 98.180557 -196.642618 
L 98.571168 -198.834157 
L 98.970644 -201.025696 
L 99.372407 -203.217235 
L 99.768722 -205.408774 
L 100.152197 -207.600313 
L 100.51684 -209.791852 
L 100.858424 -211.983391 
L 101.174273 -214.174929 
L 101.462752 -216.366468 
L 101.722818 -218.558007 
L 101.9538 -220.749546 
L 102.155455 -222.941085 
L 102.328132 -225.132624 
L 102.472913 -227.324163 
L 102.591606 -229.515702 
L 102.686634 -231.70724 
L 102.760877 -233.898779 
L 102.817558 -236.090318 
L 102.860188 -238.281857 
L 102.892513 -240.473396 
L 102.918375 -242.664935 
L 102.94144 -244.856474 
L 102.964833 -247.048013 
L 102.990784 -249.239551 
L 103.020437 -251.43109 
L 103.053883 -253.622629 
L 103.090413 -255.814168 
L 103.128869 -258.005707 
L 103.167956 -260.197246 
L 103.20643 -262.388785 
L 103.243137 -264.580324 
L 103.276999 -266.771862 
L 103.307016 -268.963401 
L 103.332359 -271.15494 
L 103.352525 -273.346479 
L 103.367503 -275.538018 
L 103.377847 -277.729557 
L 103.384608 -279.921096 
L 103.389131 -282.112635 
L 103.392756 -284.304173 
L 103.396544 -286.495712 
L 103.483814 -286.495712 
L 103.483814 -286.495712 
L 103.487602 -284.304173 
L 103.491227 -282.112635 
L 103.495749 -279.921096 
L 103.502511 -277.729557 
L 103.512855 -275.538018 
L 103.527833 -273.346479 
L 103.547999 -271.15494 
L 103.573342 -268.963401 
L 103.603359 -266.771862 
L 103.637221 -264.580324 
L 103.673928 -262.388785 
L 103.712401 -260.197246 
L 103.751489 -258.005707 
L 103.789944 -255.814168 
L 103.826474 -253.622629 
L 103.85992 -251.43109 
L 103.889573 -249.239551 
L 103.915525 -247.048013 
L 103.938917 -244.856474 
L 103.961983 -242.664935 
L 103.987844 -240.473396 
L 104.020169 -238.281857 
L 104.0628 -236.090318 
L 104.11948 -233.898779 
L 104.193724 -231.70724 
L 104.288752 -229.515702 
L 104.407445 -227.324163 
L 104.552225 -225.132624 
L 104.724903 -222.941085 
L 104.926558 -220.749546 
L 105.15754 -218.558007 
L 105.417605 -216.366468 
L 105.706085 -214.174929 
L 106.021933 -211.983391 
L 106.363518 -209.791852 
L 106.728161 -207.600313 
L 107.111636 -205.408774 
L 107.507951 -203.217235 
L 107.909714 -201.025696 
L 108.30919 -198.834157 
L 108.699801 -196.642618 
L 109.077564 -194.45108 
L 109.441859 -192.259541 
L 109.795099 -190.068002 
L 110.141273 -187.876463 
L 110.483815 -185.684924 
L 110.823553 -183.493385 
L 111.15754 -181.301846 
L 111.47931 -179.110307 
L 111.780527 -176.918769 
L 112.053523 -174.72723 
L 112.293822 -172.535691 
L 112.501794 -170.344152 
L 112.682891 -168.152613 
L 112.846471 -165.961074 
L 113.003678 -163.769535 
L 113.165076 -161.577996 
L 113.338704 -159.386458 
L 113.528933 -157.194919 
L 113.736178 -155.00338 
L 113.957245 -152.811841 
L 114.185944 -150.620302 
L 114.413608 -148.428763 
L 114.62932 -146.237224 
L 114.819929 -144.045685 
L 114.97014 -141.854147 
L 115.063118 -139.662608 
L 115.081851 -137.471069 
L 115.011188 -135.27953 
L 114.840063 -133.087991 
L 114.563256 -130.896452 
L 114.1822 -128.704913 
L 113.70478 -126.513374 
L 113.144545 -124.321836 
L 112.519913 -122.130297 
L 111.853796 -119.938758 
L 111.17359 -117.747219 
L 110.511099 -115.55568 
L 109.901784 -113.364141 
L 109.382967 -111.172602 
L 108.991043 -108.981063 
L 108.758228 -106.789525 
L 108.709655 -104.597986 
L 108.861705 -102.406447 
L 109.22235 -100.214908 
L 109.793834 -98.023369 
L 110.577186 -95.83183 
L 111.576838 -93.640291 
L 112.802282 -91.448752 
L 114.263231 -89.257214 
L 115.956007 -87.065675 
L 117.842495 -84.874136 
L 119.828103 -82.682597 
L 121.749361 -80.491058 
L 123.382076 -78.299519 
L 124.475423 -76.10798 
L 124.806965 -73.916441 
L 124.24281 -71.724903 
L 122.781599 -69.533364 
z
" id="m795d66bfd7" style="stroke:#141414;stroke-width:1.5;"/>
    </defs>
    <g clip-path="url(#pe7eb1d05b4)">
     <use style="fill:#083c1d;stroke:#141414;stroke-width:1.5;" x="0" xlink:href="#m795d66bfd7" y="540.169"/>
    </g>
   </g>
   <g id="PolyCollection_2">
    <defs>
     <path d="M 158.434612 -69.533364 
L 133.912889 -69.533364 
L 132.90607 -71.738571 
L 132.213952 -73.943779 
L 131.866532 -76.148986 
L 131.859945 -78.354194 
L 132.159557 -80.559401 
L 132.707911 -82.764609 
L 133.435424 -84.969816 
L 134.271292 -87.175024 
L 135.152347 -89.380231 
L 136.028458 -91.585439 
L 136.864156 -93.790646 
L 137.637153 -95.995854 
L 138.335031 -98.201061 
L 138.951509 -100.406269 
L 139.483399 -102.611476 
L 139.928832 -104.816684 
L 140.286794 -107.021891 
L 140.557555 -109.227099 
L 140.743407 -111.432306 
L 140.849164 -113.637514 
L 140.882101 -115.842721 
L 140.851276 -118.047929 
L 140.766434 -120.253137 
L 140.636834 -122.458344 
L 140.470326 -124.663552 
L 140.272942 -126.868759 
L 140.049035 -129.073967 
L 139.801895 -131.279174 
L 139.534573 -133.484382 
L 139.250664 -135.689589 
L 138.954782 -137.894797 
L 138.652601 -140.100004 
L 138.350448 -142.305212 
L 138.054558 -144.510419 
L 137.770199 -146.715627 
L 137.500873 -148.920834 
L 137.247807 -151.126042 
L 137.009859 -153.331249 
L 136.783874 -155.536457 
L 136.565473 -157.741664 
L 136.350152 -159.946872 
L 136.134546 -162.152079 
L 135.917667 -164.357287 
L 135.701897 -166.562494 
L 135.493546 -168.767702 
L 135.302787 -170.972909 
L 135.142897 -173.178117 
L 135.028827 -175.383324 
L 134.975284 -177.588532 
L 134.994627 -179.793739 
L 135.094973 -181.998947 
L 135.27887 -184.204155 
L 135.542818 -186.409362 
L 135.877727 -188.61457 
L 136.270206 -190.819777 
L 136.704414 -193.024985 
L 137.164088 -195.230192 
L 137.634382 -197.4354 
L 138.103207 -199.640607 
L 138.561928 -201.845815 
L 139.005413 -204.051022 
L 139.431555 -206.25623 
L 139.84047 -208.461437 
L 140.233583 -210.666645 
L 140.612793 -212.871852 
L 140.979818 -215.07706 
L 141.335777 -217.282267 
L 141.68101 -219.487475 
L 142.015065 -221.692682 
L 142.336832 -223.89789 
L 142.644752 -226.103097 
L 142.937069 -228.308305 
L 143.2121 -230.513512 
L 143.468491 -232.71872 
L 143.705421 -234.923927 
L 143.922724 -237.129135 
L 144.1209 -239.334342 
L 144.301 -241.53955 
L 144.46441 -243.744757 
L 144.612572 -245.949965 
L 144.746718 -248.155173 
L 144.867682 -250.36038 
L 144.975837 -252.565588 
L 145.071179 -254.770795 
L 145.15354 -256.976003 
L 145.222869 -259.18121 
L 145.279519 -261.386418 
L 145.324469 -263.591625 
L 145.35943 -265.796833 
L 145.386817 -268.00204 
L 145.409579 -270.207248 
L 145.430933 -272.412455 
L 145.45403 -274.617663 
L 145.481608 -276.82287 
L 145.515685 -279.028078 
L 145.557336 -281.233285 
L 145.606591 -283.438493 
L 145.662461 -285.6437 
L 145.723107 -287.848908 
L 146.624395 -287.848908 
L 146.624395 -287.848908 
L 146.685041 -285.6437 
L 146.74091 -283.438493 
L 146.790165 -281.233285 
L 146.831817 -279.028078 
L 146.865894 -276.82287 
L 146.893471 -274.617663 
L 146.916569 -272.412455 
L 146.937923 -270.207248 
L 146.960685 -268.00204 
L 146.988071 -265.796833 
L 147.023033 -263.591625 
L 147.067982 -261.386418 
L 147.124632 -259.18121 
L 147.193961 -256.976003 
L 147.276322 -254.770795 
L 147.371665 -252.565588 
L 147.479819 -250.36038 
L 147.600783 -248.155173 
L 147.73493 -245.949965 
L 147.883092 -243.744757 
L 148.046501 -241.53955 
L 148.226602 -239.334342 
L 148.424778 -237.129135 
L 148.64208 -234.923927 
L 148.87901 -232.71872 
L 149.135401 -230.513512 
L 149.410432 -228.308305 
L 149.702749 -226.103097 
L 150.010669 -223.89789 
L 150.332437 -221.692682 
L 150.666492 -219.487475 
L 151.011724 -217.282267 
L 151.367684 -215.07706 
L 151.734708 -212.871852 
L 152.113919 -210.666645 
L 152.507032 -208.461437 
L 152.915946 -206.25623 
L 153.342088 -204.051022 
L 153.785574 -201.845815 
L 154.244295 -199.640607 
L 154.713119 -197.4354 
L 155.183413 -195.230192 
L 155.643088 -193.024985 
L 156.077296 -190.819777 
L 156.469775 -188.61457 
L 156.804683 -186.409362 
L 157.068632 -184.204155 
L 157.252529 -181.998947 
L 157.352874 -179.793739 
L 157.372217 -177.588532 
L 157.318674 -175.383324 
L 157.204605 -173.178117 
L 157.044715 -170.972909 
L 156.853956 -168.767702 
L 156.645604 -166.562494 
L 156.429835 -164.357287 
L 156.212956 -162.152079 
L 155.99735 -159.946872 
L 155.782029 -157.741664 
L 155.563627 -155.536457 
L 155.337642 -153.331249 
L 155.099694 -151.126042 
L 154.846629 -148.920834 
L 154.577302 -146.715627 
L 154.292943 -144.510419 
L 153.997054 -142.305212 
L 153.694901 -140.100004 
L 153.39272 -137.894797 
L 153.096838 -135.689589 
L 152.812929 -133.484382 
L 152.545607 -131.279174 
L 152.298466 -129.073967 
L 152.07456 -126.868759 
L 151.877175 -124.663552 
L 151.710668 -122.458344 
L 151.581067 -120.253137 
L 151.496226 -118.047929 
L 151.4654 -115.842721 
L 151.498337 -113.637514 
L 151.604094 -111.432306 
L 151.789946 -109.227099 
L 152.060707 -107.021891 
L 152.41867 -104.816684 
L 152.864102 -102.611476 
L 153.395992 -100.406269 
L 154.012471 -98.201061 
L 154.710349 -95.995854 
L 155.483345 -93.790646 
L 156.319043 -91.585439 
L 157.195154 -89.380231 
L 158.07621 -87.175024 
L 158.912077 -84.969816 
L 159.63959 -82.764609 
L 160.187944 -80.559401 
L 160.487556 -78.354194 
L 160.48097 -76.148986 
L 160.13355 -73.943779 
L 159.441431 -71.738571 
L 158.434612 -69.533364 
z
" id="m85ce6aa3d2" style="stroke:#141414;stroke-width:1.5;"/>
    </defs>
    <g clip-path="url(#pe7eb1d05b4)">
     <use style="fill:#0e5f2f;stroke:#141414;stroke-width:1.5;" x="0" xlink:href="#m85ce6aa3d2" y="540.169"/>
    </g>
   </g>
   <g id="PolyCollection_3">
    <defs>
     <path d="M 229.703197 -69.533364 
L 190.84502 -69.533364 
L 189.694475 -70.952624 
L 189.037327 -72.371885 
L 188.907323 -73.791146 
L 189.29485 -75.210406 
L 190.149505 -76.629667 
L 191.387895 -78.048927 
L 192.905038 -79.468188 
L 194.587188 -80.887449 
L 196.323935 -82.306709 
L 198.017916 -83.72597 
L 199.591175 -85.14523 
L 200.988018 -86.564491 
L 202.174836 -87.983752 
L 203.137753 -89.403012 
L 203.879044 -90.822273 
L 204.413149 -92.241534 
L 204.762863 -93.660794 
L 204.955997 -95.080055 
L 205.022613 -96.499315 
L 204.992784 -97.918576 
L 204.894823 -99.337837 
L 204.753898 -100.757097 
L 204.591046 -102.176358 
L 204.422579 -103.595619 
L 204.259903 -105.014879 
L 204.109756 -106.43414 
L 203.974804 -107.8534 
L 203.85453 -109.272661 
L 203.746266 -110.691922 
L 203.64627 -112.111182 
L 203.550701 -113.530443 
L 203.4564 -114.949704 
L 203.361413 -116.368964 
L 203.265221 -117.788225 
L 203.168695 -119.207485 
L 203.073809 -120.626746 
L 202.983182 -122.046007 
L 202.899523 -123.465267 
L 202.825059 -124.884528 
L 202.761023 -126.303789 
L 202.707252 -127.723049 
L 202.661935 -129.14231 
L 202.621542 -130.56157 
L 202.580912 -131.980831 
L 202.53351 -133.400092 
L 202.471814 -134.819352 
L 202.387818 -136.238613 
L 202.273589 -137.657874 
L 202.121863 -139.077134 
L 201.926635 -140.496395 
L 201.683692 -141.915655 
L 201.391083 -143.334916 
L 201.049483 -144.754177 
L 200.662439 -146.173437 
L 200.236467 -147.592698 
L 199.780981 -149.011959 
L 199.308032 -150.431219 
L 198.831835 -151.85048 
L 198.368115 -153.26974 
L 197.933285 -154.689001 
L 197.543543 -156.108262 
L 197.213988 -157.527522 
L 196.957835 -158.946783 
L 196.785838 -160.366044 
L 196.705942 -161.785304 
L 196.723182 -163.204565 
L 196.839764 -164.623825 
L 197.055261 -166.043086 
L 197.366851 -167.462347 
L 197.76953 -168.881607 
L 198.256299 -170.300868 
L 198.818322 -171.720129 
L 199.44512 -173.139389 
L 200.124813 -174.55865 
L 200.844461 -175.97791 
L 201.590492 -177.397171 
L 202.349181 -178.816432 
L 203.107163 -180.235692 
L 203.851897 -181.654953 
L 204.572075 -183.074213 
L 205.257939 -184.493474 
L 205.901497 -185.912735 
L 206.49665 -187.331995 
L 207.039232 -188.751256 
L 207.526973 -190.170517 
L 207.959394 -191.589777 
L 208.337634 -193.009038 
L 208.664223 -194.428298 
L 208.942799 -195.847559 
L 209.177801 -197.26682 
L 209.374147 -198.68608 
L 209.536924 -200.105341 
L 209.671115 -201.524602 
L 209.781383 -202.943862 
L 209.871908 -204.363123 
L 209.946308 -205.782383 
L 210.00761 -207.201644 
L 210.058272 -208.620905 
L 210.100251 -210.040165 
L 210.447966 -210.040165 
L 210.447966 -210.040165 
L 210.489945 -208.620905 
L 210.540607 -207.201644 
L 210.601909 -205.782383 
L 210.676309 -204.363123 
L 210.766834 -202.943862 
L 210.877102 -201.524602 
L 211.011293 -200.105341 
L 211.17407 -198.68608 
L 211.370416 -197.26682 
L 211.605418 -195.847559 
L 211.883994 -194.428298 
L 212.210583 -193.009038 
L 212.588823 -191.589777 
L 213.021244 -190.170517 
L 213.508985 -188.751256 
L 214.051567 -187.331995 
L 214.64672 -185.912735 
L 215.290278 -184.493474 
L 215.976142 -183.074213 
L 216.69632 -181.654953 
L 217.441054 -180.235692 
L 218.199036 -178.816432 
L 218.957725 -177.397171 
L 219.703756 -175.97791 
L 220.423404 -174.55865 
L 221.103097 -173.139389 
L 221.729895 -171.720129 
L 222.291918 -170.300868 
L 222.778687 -168.881607 
L 223.181366 -167.462347 
L 223.492956 -166.043086 
L 223.708453 -164.623825 
L 223.825035 -163.204565 
L 223.842275 -161.785304 
L 223.762379 -160.366044 
L 223.590382 -158.946783 
L 223.33423 -157.527522 
L 223.004674 -156.108262 
L 222.614933 -154.689001 
L 222.180102 -153.26974 
L 221.716382 -151.85048 
L 221.240186 -150.431219 
L 220.767236 -149.011959 
L 220.31175 -147.592698 
L 219.885778 -146.173437 
L 219.498734 -144.754177 
L 219.157134 -143.334916 
L 218.864525 -141.915655 
L 218.621582 -140.496395 
L 218.426354 -139.077134 
L 218.274628 -137.657874 
L 218.160399 -136.238613 
L 218.076403 -134.819352 
L 218.014707 -133.400092 
L 217.967305 -131.980831 
L 217.926675 -130.56157 
L 217.886282 -129.14231 
L 217.840965 -127.723049 
L 217.787194 -126.303789 
L 217.723158 -124.884528 
L 217.648694 -123.465267 
L 217.565035 -122.046007 
L 217.474408 -120.626746 
L 217.379522 -119.207485 
L 217.282996 -117.788225 
L 217.186805 -116.368964 
L 217.091817 -114.949704 
L 216.997517 -113.530443 
L 216.901947 -112.111182 
L 216.801951 -110.691922 
L 216.693687 -109.272661 
L 216.573413 -107.8534 
L 216.438462 -106.43414 
L 216.288314 -105.014879 
L 216.125638 -103.595619 
L 215.957171 -102.176358 
L 215.794319 -100.757097 
L 215.653394 -99.337837 
L 215.555433 -97.918576 
L 215.525604 -96.499315 
L 215.59222 -95.080055 
L 215.785354 -93.660794 
L 216.135068 -92.241534 
L 216.669173 -90.822273 
L 217.410464 -89.403012 
L 218.373381 -87.983752 
L 219.560199 -86.564491 
L 220.957042 -85.14523 
L 222.530301 -83.72597 
L 224.224282 -82.306709 
L 225.961029 -80.887449 
L 227.643179 -79.468188 
L 229.160322 -78.048927 
L 230.398712 -76.629667 
L 231.253367 -75.210406 
L 231.640894 -73.791146 
L 231.51089 -72.371885 
L 230.853742 -70.952624 
L 229.703197 -69.533364 
z
" id="m2488d970c0" style="stroke:#141414;stroke-width:1.5;"/>
    </defs>
    <g clip-path="url(#pe7eb1d05b4)">
     <use style="fill:#083c1d;stroke:#141414;stroke-width:1.5;" x="0" xlink:href="#m2488d970c0" y="540.169"/>
    </g>
   </g>
   <g id="PolyCollection_4">
    <defs>
     <path d="M 266.794594 -69.533364 
L 239.220767 -69.533364 
L 238.593937 -71.137151 
L 238.215724 -72.740938 
L 238.099339 -74.344725 
L 238.242018 -75.948513 
L 238.625498 -77.5523 
L 239.217984 -79.156087 
L 239.977324 -80.759875 
L 240.854954 -82.363662 
L 241.800137 -83.967449 
L 242.763981 -85.571236 
L 243.702876 -87.175024 
L 244.581027 -88.778811 
L 245.37199 -90.382598 
L 246.059171 -91.986386 
L 246.635437 -93.590173 
L 247.101991 -95.19396 
L 247.466749 -96.797747 
L 247.742441 -98.401535 
L 247.94464 -100.005322 
L 248.089895 -101.609109 
L 248.194117 -103.212897 
L 248.271298 -104.816684 
L 248.33264 -106.420471 
L 248.386095 -108.024258 
L 248.436309 -109.628046 
L 248.484916 -111.231833 
L 248.531084 -112.83562 
L 248.57224 -114.439408 
L 248.604838 -116.043195 
L 248.62508 -117.646982 
L 248.629509 -119.250769 
L 248.615403 -120.854557 
L 248.580957 -122.458344 
L 248.525269 -124.062131 
L 248.448154 -125.665919 
L 248.349868 -127.269706 
L 248.230787 -128.873493 
L 248.091125 -130.47728 
L 247.930716 -132.081068 
L 247.748912 -133.684855 
L 247.544577 -135.288642 
L 247.316168 -136.89243 
L 247.061887 -138.496217 
L 246.779837 -140.100004 
L 246.468188 -141.703791 
L 246.125301 -143.307579 
L 245.749819 -144.911366 
L 245.340742 -146.515153 
L 244.897498 -148.118941 
L 244.420056 -149.722728 
L 243.909096 -151.326515 
L 243.366274 -152.930302 
L 242.794571 -154.53409 
L 242.198699 -156.137877 
L 241.585526 -157.741664 
L 240.964437 -159.345452 
L 240.347554 -160.949239 
L 239.749736 -162.553026 
L 239.18829 -164.156813 
L 238.682368 -165.760601 
L 238.252053 -167.364388 
L 237.917189 -168.968175 
L 237.696059 -170.571963 
L 237.604025 -172.17575 
L 237.652288 -173.779537 
L 237.846885 -175.383324 
L 238.188063 -176.987112 
L 238.670078 -178.590899 
L 239.281455 -180.194686 
L 240.005689 -181.798474 
L 240.82229 -183.402261 
L 241.708087 -185.006048 
L 242.638649 -186.609835 
L 243.589685 -188.213623 
L 244.538327 -189.81741 
L 245.464172 -191.421197 
L 246.35005 -193.024985 
L 247.18247 -194.628772 
L 247.951769 -196.232559 
L 248.651984 -197.836346 
L 249.280515 -199.440134 
L 249.837624 -201.043921 
L 250.325861 -202.647708 
L 250.749459 -204.251496 
L 251.113756 -205.855283 
L 251.424687 -207.45907 
L 251.688365 -209.062857 
L 251.91076 -210.666645 
L 252.097479 -212.270432 
L 252.253635 -213.874219 
L 252.383787 -215.478007 
L 252.491935 -217.081794 
L 252.581551 -218.685581 
L 252.655629 -220.289368 
L 252.716736 -221.893156 
L 252.767073 -223.496943 
L 252.808518 -225.10073 
L 252.842666 -226.704518 
L 252.87086 -228.308305 
L 253.1445 -228.308305 
L 253.1445 -228.308305 
L 253.172695 -226.704518 
L 253.206843 -225.10073 
L 253.248287 -223.496943 
L 253.298625 -221.893156 
L 253.359732 -220.289368 
L 253.433809 -218.685581 
L 253.523426 -217.081794 
L 253.631574 -215.478007 
L 253.761726 -213.874219 
L 253.917882 -212.270432 
L 254.104601 -210.666645 
L 254.326995 -209.062857 
L 254.590674 -207.45907 
L 254.901605 -205.855283 
L 255.265902 -204.251496 
L 255.689499 -202.647708 
L 256.177737 -201.043921 
L 256.734846 -199.440134 
L 257.363376 -197.836346 
L 258.063592 -196.232559 
L 258.832891 -194.628772 
L 259.665311 -193.024985 
L 260.551188 -191.421197 
L 261.477034 -189.81741 
L 262.425675 -188.213623 
L 263.376712 -186.609835 
L 264.307273 -185.006048 
L 265.193071 -183.402261 
L 266.009672 -181.798474 
L 266.733905 -180.194686 
L 267.345283 -178.590899 
L 267.827298 -176.987112 
L 268.168476 -175.383324 
L 268.363073 -173.779537 
L 268.411335 -172.17575 
L 268.319302 -170.571963 
L 268.098172 -168.968175 
L 267.763308 -167.364388 
L 267.332993 -165.760601 
L 266.827071 -164.156813 
L 266.265625 -162.553026 
L 265.667807 -160.949239 
L 265.050924 -159.345452 
L 264.429835 -157.741664 
L 263.816662 -156.137877 
L 263.22079 -154.53409 
L 262.649087 -152.930302 
L 262.106265 -151.326515 
L 261.595305 -149.722728 
L 261.117862 -148.118941 
L 260.674619 -146.515153 
L 260.265542 -144.911366 
L 259.89006 -143.307579 
L 259.547173 -141.703791 
L 259.235524 -140.100004 
L 258.953474 -138.496217 
L 258.699192 -136.89243 
L 258.470784 -135.288642 
L 258.266448 -133.684855 
L 258.084645 -132.081068 
L 257.924236 -130.47728 
L 257.784573 -128.873493 
L 257.665493 -127.269706 
L 257.567207 -125.665919 
L 257.490092 -124.062131 
L 257.434403 -122.458344 
L 257.399958 -120.854557 
L 257.385851 -119.250769 
L 257.390281 -117.646982 
L 257.410523 -116.043195 
L 257.443121 -114.439408 
L 257.484277 -112.83562 
L 257.530445 -111.231833 
L 257.579051 -109.628046 
L 257.629266 -108.024258 
L 257.682721 -106.420471 
L 257.744063 -104.816684 
L 257.821244 -103.212897 
L 257.925466 -101.609109 
L 258.070721 -100.005322 
L 258.272919 -98.401535 
L 258.548612 -96.797747 
L 258.91337 -95.19396 
L 259.379923 -93.590173 
L 259.956189 -91.986386 
L 260.643371 -90.382598 
L 261.434333 -88.778811 
L 262.312485 -87.175024 
L 263.25138 -85.571236 
L 264.215224 -83.967449 
L 265.160406 -82.363662 
L 266.038037 -80.759875 
L 266.797377 -79.156087 
L 267.389863 -77.5523 
L 267.773342 -75.948513 
L 267.916021 -74.344725 
L 267.799637 -72.740938 
L 267.421424 -71.137151 
L 266.794594 -69.533364 
z
" id="mf5bd93fd65" style="stroke:#141414;stroke-width:1.5;"/>
    </defs>
    <g clip-path="url(#pe7eb1d05b4)">
     <use style="fill:#0e5f2f;stroke:#141414;stroke-width:1.5;" x="0" xlink:href="#mf5bd93fd65" y="540.169"/>
    </g>
   </g>
   <g id="PolyCollection_5">
    <defs>
     <path d="M 334.700712 -69.533364 
L 299.515365 -69.533364 
L 297.722078 -73.524607 
L 296.450609 -77.51585 
L 295.784141 -81.507094 
L 295.741252 -85.498337 
L 296.277507 -89.48958 
L 297.297412 -93.480824 
L 298.672844 -97.472067 
L 300.263177 -101.46331 
L 301.93305 -105.454554 
L 303.565303 -109.445797 
L 305.068428 -113.437041 
L 306.379193 -117.428284 
L 307.461678 -121.419527 
L 308.304014 -125.410771 
L 308.913789 -129.402014 
L 309.312779 -133.393257 
L 309.53152 -137.384501 
L 309.604164 -141.375744 
L 309.564094 -145.366987 
L 309.440734 -149.358231 
L 309.257814 -153.349474 
L 309.033164 -157.340718 
L 308.77979 -161.331961 
L 308.507803 -165.323204 
L 308.226608 -169.314448 
L 307.946785 -173.305691 
L 307.681209 -177.296934 
L 307.445147 -181.288178 
L 307.255344 -185.279421 
L 307.128272 -189.270664 
L 307.077928 -193.261908 
L 307.1136 -197.253151 
L 307.238062 -201.244394 
L 307.446525 -205.235638 
L 307.726585 -209.226881 
L 308.059177 -213.218125 
L 308.420394 -217.209368 
L 308.783872 -221.200611 
L 309.123372 -225.191855 
L 309.415194 -229.183098 
L 309.640133 -233.174341 
L 309.784803 -237.165585 
L 309.842268 -241.156828 
L 309.812002 -245.148071 
L 309.699282 -249.139315 
L 309.5141 -253.130558 
L 309.269736 -257.121801 
L 308.981121 -261.113045 
L 308.663171 -265.104288 
L 308.329286 -269.095532 
L 307.990191 -273.086775 
L 307.653301 -277.078018 
L 307.322673 -281.069262 
L 306.999551 -285.060505 
L 306.683385 -289.051748 
L 306.373167 -293.042992 
L 306.068832 -297.034235 
L 305.772494 -301.025478 
L 305.489287 -305.016722 
L 305.22762 -309.007965 
L 304.998785 -312.999208 
L 304.815954 -316.990452 
L 304.692747 -320.981695 
L 304.641662 -324.972939 
L 304.672653 -328.964182 
L 304.79214 -332.955425 
L 305.002536 -336.946669 
L 305.302296 -340.937912 
L 305.686348 -344.929155 
L 306.146705 -348.920399 
L 306.673114 -352.911642 
L 307.253624 -356.902885 
L 307.87508 -360.894129 
L 308.523581 -364.885372 
L 309.184975 -368.876615 
L 309.845438 -372.867859 
L 310.492135 -376.859102 
L 311.113878 -380.850346 
L 311.70168 -384.841589 
L 312.249089 -388.832832 
L 312.752205 -392.824076 
L 313.209424 -396.815319 
L 313.620958 -400.806562 
L 313.98831 -404.797806 
L 314.313838 -408.789049 
L 314.600512 -412.780292 
L 314.851857 -416.771536 
L 315.072011 -420.762779 
L 315.265749 -424.754022 
L 315.438358 -428.745266 
L 315.595298 -432.736509 
L 315.741698 -436.727753 
L 315.881784 -440.718996 
L 316.018407 -444.710239 
L 316.152778 -448.701483 
L 316.284508 -452.692726 
L 316.411918 -456.683969 
L 316.532541 -460.675213 
L 316.643706 -464.666456 
L 317.57237 -464.666456 
L 317.57237 -464.666456 
L 317.683535 -460.675213 
L 317.804158 -456.683969 
L 317.931568 -452.692726 
L 318.063299 -448.701483 
L 318.19767 -444.710239 
L 318.334292 -440.718996 
L 318.474379 -436.727753 
L 318.620779 -432.736509 
L 318.777719 -428.745266 
L 318.950327 -424.754022 
L 319.144066 -420.762779 
L 319.36422 -416.771536 
L 319.615565 -412.780292 
L 319.902238 -408.789049 
L 320.227766 -404.797806 
L 320.595118 -400.806562 
L 321.006652 -396.815319 
L 321.463871 -392.824076 
L 321.966988 -388.832832 
L 322.514396 -384.841589 
L 323.102199 -380.850346 
L 323.723941 -376.859102 
L 324.370638 -372.867859 
L 325.031102 -368.876615 
L 325.692495 -364.885372 
L 326.340996 -360.894129 
L 326.962452 -356.902885 
L 327.542962 -352.911642 
L 328.069371 -348.920399 
L 328.529729 -344.929155 
L 328.91378 -340.937912 
L 329.213541 -336.946669 
L 329.423936 -332.955425 
L 329.543423 -328.964182 
L 329.574415 -324.972939 
L 329.523329 -320.981695 
L 329.400123 -316.990452 
L 329.217292 -312.999208 
L 328.988457 -309.007965 
L 328.726789 -305.016722 
L 328.443582 -301.025478 
L 328.147245 -297.034235 
L 327.842909 -293.042992 
L 327.532691 -289.051748 
L 327.216526 -285.060505 
L 326.893403 -281.069262 
L 326.562776 -277.078018 
L 326.225886 -273.086775 
L 325.886791 -269.095532 
L 325.552905 -265.104288 
L 325.234956 -261.113045 
L 324.94634 -257.121801 
L 324.701976 -253.130558 
L 324.516795 -249.139315 
L 324.404075 -245.148071 
L 324.373809 -241.156828 
L 324.431273 -237.165585 
L 324.575944 -233.174341 
L 324.800883 -229.183098 
L 325.092704 -225.191855 
L 325.432204 -221.200611 
L 325.795682 -217.209368 
L 326.156899 -213.218125 
L 326.489491 -209.226881 
L 326.769551 -205.235638 
L 326.978014 -201.244394 
L 327.102476 -197.253151 
L 327.138149 -193.261908 
L 327.087804 -189.270664 
L 326.960733 -185.279421 
L 326.770929 -181.288178 
L 326.534868 -177.296934 
L 326.269291 -173.305691 
L 325.989468 -169.314448 
L 325.708273 -165.323204 
L 325.436286 -161.331961 
L 325.182912 -157.340718 
L 324.958262 -153.349474 
L 324.775342 -149.358231 
L 324.651982 -145.366987 
L 324.611912 -141.375744 
L 324.684556 -137.384501 
L 324.903297 -133.393257 
L 325.302288 -129.402014 
L 325.912062 -125.410771 
L 326.754398 -121.419527 
L 327.836883 -117.428284 
L 329.147648 -113.437041 
L 330.650774 -109.445797 
L 332.283026 -105.454554 
L 333.952899 -101.46331 
L 335.543232 -97.472067 
L 336.918664 -93.480824 
L 337.93857 -89.48958 
L 338.474824 -85.498337 
L 338.431936 -81.507094 
L 337.765467 -77.51585 
L 336.493998 -73.524607 
L 334.700712 -69.533364 
z
" id="mf20b487c8d" style="stroke:#141414;stroke-width:1.5;"/>
    </defs>
    <g clip-path="url(#pe7eb1d05b4)">
     <use style="fill:#083c1d;stroke:#141414;stroke-width:1.5;" x="0" xlink:href="#mf20b487c8d" y="540.169"/>
    </g>
   </g>
   <g id="PolyCollection_6">
    <defs>
     <path d="M 374.682618 -69.533364 
L 345.000602 -69.533364 
L 343.016055 -73.633956 
L 341.483206 -77.734549 
L 340.520698 -81.835141 
L 340.177434 -85.935734 
L 340.4291 -90.036326 
L 341.18933 -94.136919 
L 342.330946 -98.237511 
L 343.710665 -102.338104 
L 345.191071 -106.438696 
L 346.655945 -110.539289 
L 348.017857 -114.639881 
L 349.219207 -118.740474 
L 350.229045 -122.841066 
L 351.037998 -126.941659 
L 351.652942 -131.042251 
L 352.092187 -135.142843 
L 352.381257 -139.243436 
L 352.549068 -143.344028 
L 352.624351 -147.444621 
L 352.632462 -151.545213 
L 352.592927 -155.645806 
L 352.518226 -159.746398 
L 352.414134 -163.846991 
L 352.281622 -167.947583 
L 352.119903 -172.048176 
L 351.929862 -176.148768 
L 351.716921 -180.249361 
L 351.492532 -184.349953 
L 351.273762 -188.450546 
L 351.08099 -192.551138 
L 350.934222 -196.651731 
L 350.848979 -200.752323 
L 350.832876 -204.852916 
L 350.88384 -208.953508 
L 350.990494 -213.054101 
L 351.134566 -217.154693 
L 351.294618 -221.255286 
L 351.450014 -225.355878 
L 351.58408 -229.456471 
L 351.685767 -233.557063 
L 351.749682 -237.657656 
L 351.77489 -241.758248 
L 351.763198 -245.858841 
L 351.717588 -249.959433 
L 351.641217 -254.060026 
L 351.536984 -258.160618 
L 351.407392 -262.261211 
L 351.25435 -266.361803 
L 351.07874 -270.462396 
L 350.879825 -274.562988 
L 350.654805 -278.663581 
L 350.398883 -282.764173 
L 350.106066 -286.864766 
L 349.770665 -290.965358 
L 349.389231 -295.065951 
L 348.962531 -299.166543 
L 348.497131 -303.267136 
L 348.006253 -307.367728 
L 347.509676 -311.468321 
L 347.032592 -315.568913 
L 346.60351 -319.669506 
L 346.251455 -323.770098 
L 346.002883 -327.870691 
L 345.878836 -331.971283 
L 345.89278 -336.071876 
L 346.049468 -340.172468 
L 346.344887 -344.273061 
L 346.767175 -348.373653 
L 347.298248 -352.474245 
L 347.915854 -356.574838 
L 348.595795 -360.67543 
L 349.314075 -364.776023 
L 350.048799 -368.876615 
L 350.781587 -372.977208 
L 351.498386 -377.0778 
L 352.189571 -381.178393 
L 352.849414 -385.278985 
L 353.475102 -389.379578 
L 354.065582 -393.48017 
L 354.620521 -397.580763 
L 355.139603 -401.681355 
L 355.622266 -405.781948 
L 356.067841 -409.88254 
L 356.475944 -413.983133 
L 356.846947 -418.083725 
L 357.182319 -422.184318 
L 357.484722 -426.28491 
L 357.757823 -430.385503 
L 358.005849 -434.486095 
L 358.233008 -438.586688 
L 358.442905 -442.68728 
L 358.638094 -446.787873 
L 358.819855 -450.888465 
L 358.98824 -454.989058 
L 359.142369 -459.08965 
L 359.280891 -463.190243 
L 359.4025 -467.290835 
L 359.506372 -471.391428 
L 359.592452 -475.49202 
L 360.090768 -475.49202 
L 360.090768 -475.49202 
L 360.176848 -471.391428 
L 360.28072 -467.290835 
L 360.402329 -463.190243 
L 360.540851 -459.08965 
L 360.69498 -454.989058 
L 360.863365 -450.888465 
L 361.045126 -446.787873 
L 361.240315 -442.68728 
L 361.450213 -438.586688 
L 361.677371 -434.486095 
L 361.925397 -430.385503 
L 362.198498 -426.28491 
L 362.500901 -422.184318 
L 362.836273 -418.083725 
L 363.207276 -413.983133 
L 363.61538 -409.88254 
L 364.060954 -405.781948 
L 364.543618 -401.681355 
L 365.062699 -397.580763 
L 365.617638 -393.48017 
L 366.208118 -389.379578 
L 366.833806 -385.278985 
L 367.493649 -381.178393 
L 368.184834 -377.0778 
L 368.901633 -372.977208 
L 369.634421 -368.876615 
L 370.369145 -364.776023 
L 371.087425 -360.67543 
L 371.767366 -356.574838 
L 372.384972 -352.474245 
L 372.916045 -348.373653 
L 373.338333 -344.273061 
L 373.633752 -340.172468 
L 373.79044 -336.071876 
L 373.804385 -331.971283 
L 373.680337 -327.870691 
L 373.431765 -323.770098 
L 373.07971 -319.669506 
L 372.650628 -315.568913 
L 372.173544 -311.468321 
L 371.676967 -307.367728 
L 371.18609 -303.267136 
L 370.720689 -299.166543 
L 370.293989 -295.065951 
L 369.912555 -290.965358 
L 369.577154 -286.864766 
L 369.284337 -282.764173 
L 369.028415 -278.663581 
L 368.803395 -274.562988 
L 368.60448 -270.462396 
L 368.42887 -266.361803 
L 368.275828 -262.261211 
L 368.146236 -258.160618 
L 368.042003 -254.060026 
L 367.965632 -249.959433 
L 367.920022 -245.858841 
L 367.90833 -241.758248 
L 367.933538 -237.657656 
L 367.997453 -233.557063 
L 368.09914 -229.456471 
L 368.233206 -225.355878 
L 368.388602 -221.255286 
L 368.548654 -217.154693 
L 368.692726 -213.054101 
L 368.79938 -208.953508 
L 368.850344 -204.852916 
L 368.834241 -200.752323 
L 368.748998 -196.651731 
L 368.60223 -192.551138 
L 368.409458 -188.450546 
L 368.190688 -184.349953 
L 367.966299 -180.249361 
L 367.753358 -176.148768 
L 367.563317 -172.048176 
L 367.401598 -167.947583 
L 367.269086 -163.846991 
L 367.164994 -159.746398 
L 367.090293 -155.645806 
L 367.050758 -151.545213 
L 367.058869 -147.444621 
L 367.134152 -143.344028 
L 367.301963 -139.243436 
L 367.591033 -135.142843 
L 368.030278 -131.042251 
L 368.645222 -126.941659 
L 369.454175 -122.841066 
L 370.464013 -118.740474 
L 371.665363 -114.639881 
L 373.027275 -110.539289 
L 374.492149 -106.438696 
L 375.972555 -102.338104 
L 377.352274 -98.237511 
L 378.49389 -94.136919 
L 379.25412 -90.036326 
L 379.505786 -85.935734 
L 379.162522 -81.835141 
L 378.200014 -77.734549 
L 376.667165 -73.633956 
L 374.682618 -69.533364 
z
" id="m4656d8601c" style="stroke:#141414;stroke-width:1.5;"/>
    </defs>
    <g clip-path="url(#pe7eb1d05b4)">
     <use style="fill:#0e5f2f;stroke:#141414;stroke-width:1.5;" x="0" xlink:href="#m4656d8601c" y="540.169"/>
    </g>
   </g>
   <g id="PolyCollection_7">
    <defs>
     <path d="M 441.269842 -69.533364 
L 406.614093 -69.533364 
L 404.860114 -73.991619 
L 403.555097 -78.449874 
L 402.782711 -82.908129 
L 402.575182 -87.366385 
L 402.910866 -91.82464 
L 403.720307 -96.282895 
L 404.898911 -100.741151 
L 406.323128 -105.199406 
L 407.866727 -109.657661 
L 409.414326 -114.115916 
L 410.8705 -118.574172 
L 412.164114 -123.032427 
L 413.248629 -127.490682 
L 414.099731 -131.948938 
L 414.711769 -136.407193 
L 415.094158 -140.865448 
L 415.268351 -145.323703 
L 415.265458 -149.781959 
L 415.124171 -154.240214 
L 414.888501 -158.698469 
L 414.60498 -163.156725 
L 414.319217 -167.61498 
L 414.07211 -172.073235 
L 413.896241 -176.53149 
L 413.813116 -180.989746 
L 413.831778 -185.448001 
L 413.949083 -189.906256 
L 414.151529 -194.364511 
L 414.418234 -198.822767 
L 414.724448 -203.281022 
L 415.044932 -207.739277 
L 415.356699 -212.197533 
L 415.640812 -216.655788 
L 415.883198 -221.114043 
L 416.074654 -225.572298 
L 416.210324 -230.030554 
L 416.288928 -234.488809 
L 416.31199 -238.947064 
L 416.283177 -243.40532 
L 416.207811 -247.863575 
L 416.092518 -252.32183 
L 415.944982 -256.780085 
L 415.773752 -261.238341 
L 415.588062 -265.696596 
L 415.397592 -270.154851 
L 415.212138 -274.613107 
L 415.041105 -279.071362 
L 414.892815 -283.529617 
L 414.773664 -287.987872 
L 414.687217 -292.446128 
L 414.633412 -296.904383 
L 414.608078 -301.362638 
L 414.602909 -305.820893 
L 414.606032 -310.279149 
L 414.603155 -314.737404 
L 414.579221 -319.195659 
L 414.520387 -323.653915 
L 414.416088 -328.11217 
L 414.260912 -332.570425 
L 414.055984 -337.02868 
L 413.809593 -341.486936 
L 413.536837 -345.945191 
L 413.258217 -350.403446 
L 412.997247 -354.861702 
L 412.777407 -359.319957 
L 412.618914 -363.778212 
L 412.535931 -368.236467 
L 412.534769 -372.694723 
L 412.613479 -377.152978 
L 412.762898 -381.611233 
L 412.968885 -386.069489 
L 413.215202 -390.527744 
L 413.486329 -394.985999 
L 413.769634 -399.444254 
L 414.056478 -403.90251 
L 414.342239 -408.360765 
L 414.625482 -412.81902 
L 414.906761 -417.277275 
L 415.187527 -421.735531 
L 415.46951 -426.193786 
L 415.754676 -430.652041 
L 416.045639 -435.110297 
L 416.3462 -439.568552 
L 416.661626 -444.026807 
L 416.998404 -448.485062 
L 417.363364 -452.943318 
L 417.762314 -457.401573 
L 418.19851 -461.859828 
L 418.671355 -466.318084 
L 419.175716 -470.776339 
L 419.702026 -475.234594 
L 420.237218 -479.692849 
L 420.766252 -484.151105 
L 421.273942 -488.60936 
L 421.746692 -493.067615 
L 422.173854 -497.525871 
L 422.548518 -501.984126 
L 422.867687 -506.442381 
L 423.131934 -510.900636 
L 424.752002 -510.900636 
L 424.752002 -510.900636 
L 425.016249 -506.442381 
L 425.335417 -501.984126 
L 425.710081 -497.525871 
L 426.137244 -493.067615 
L 426.609994 -488.60936 
L 427.117684 -484.151105 
L 427.646718 -479.692849 
L 428.181909 -475.234594 
L 428.70822 -470.776339 
L 429.21258 -466.318084 
L 429.685426 -461.859828 
L 430.121621 -457.401573 
L 430.520572 -452.943318 
L 430.885532 -448.485062 
L 431.222309 -444.026807 
L 431.537735 -439.568552 
L 431.838296 -435.110297 
L 432.12926 -430.652041 
L 432.414426 -426.193786 
L 432.696408 -421.735531 
L 432.977175 -417.277275 
L 433.258453 -412.81902 
L 433.541696 -408.360765 
L 433.827457 -403.90251 
L 434.114302 -399.444254 
L 434.397606 -394.985999 
L 434.668734 -390.527744 
L 434.91505 -386.069489 
L 435.121038 -381.611233 
L 435.270456 -377.152978 
L 435.349166 -372.694723 
L 435.348005 -368.236467 
L 435.265022 -363.778212 
L 435.106529 -359.319957 
L 434.886688 -354.861702 
L 434.625719 -350.403446 
L 434.347098 -345.945191 
L 434.074343 -341.486936 
L 433.827951 -337.02868 
L 433.623023 -332.570425 
L 433.467847 -328.11217 
L 433.363548 -323.653915 
L 433.304714 -319.195659 
L 433.280781 -314.737404 
L 433.277904 -310.279149 
L 433.281027 -305.820893 
L 433.275858 -301.362638 
L 433.250523 -296.904383 
L 433.196719 -292.446128 
L 433.110271 -287.987872 
L 432.991121 -283.529617 
L 432.842831 -279.071362 
L 432.671797 -274.613107 
L 432.486344 -270.154851 
L 432.295874 -265.696596 
L 432.110183 -261.238341 
L 431.938954 -256.780085 
L 431.791417 -252.32183 
L 431.676124 -247.863575 
L 431.600758 -243.40532 
L 431.571946 -238.947064 
L 431.595007 -234.488809 
L 431.673612 -230.030554 
L 431.809282 -225.572298 
L 432.000738 -221.114043 
L 432.243123 -216.655788 
L 432.527236 -212.197533 
L 432.839004 -207.739277 
L 433.159488 -203.281022 
L 433.465702 -198.822767 
L 433.732407 -194.364511 
L 433.934852 -189.906256 
L 434.052157 -185.448001 
L 434.07082 -180.989746 
L 433.987694 -176.53149 
L 433.811826 -172.073235 
L 433.564719 -167.61498 
L 433.278956 -163.156725 
L 432.995434 -158.698469 
L 432.759765 -154.240214 
L 432.618477 -149.781959 
L 432.615585 -145.323703 
L 432.789777 -140.865448 
L 433.172166 -136.407193 
L 433.784205 -131.948938 
L 434.635307 -127.490682 
L 435.719821 -123.032427 
L 437.013436 -118.574172 
L 438.469609 -114.115916 
L 440.017209 -109.657661 
L 441.560808 -105.199406 
L 442.985025 -100.741151 
L 444.163628 -96.282895 
L 444.97307 -91.82464 
L 445.308754 -87.366385 
L 445.101224 -82.908129 
L 444.328838 -78.449874 
L 443.023822 -73.991619 
L 441.269842 -69.533364 
z
" id="md4fad51237" style="stroke:#141414;stroke-width:1.5;"/>
    </defs>
    <g clip-path="url(#pe7eb1d05b4)">
     <use style="fill:#083c1d;stroke:#141414;stroke-width:1.5;" x="0" xlink:href="#md4fad51237" y="540.169"/>
    </g>
   </g>
   <g id="PolyCollection_8">
    <defs>
     <path d="M 480.899402 -69.533364 
L 452.451677 -69.533364 
L 450.46534 -73.941501 
L 448.812495 -78.349637 
L 447.613132 -82.757774 
L 446.940657 -87.165911 
L 446.812223 -91.574048 
L 447.189127 -95.982185 
L 447.986563 -100.390322 
L 449.089859 -104.798459 
L 450.373203 -109.206596 
L 451.716904 -113.614733 
L 453.020253 -118.02287 
L 454.208619 -122.431007 
L 455.234955 -126.839144 
L 456.077037 -131.247281 
L 456.732305 -135.655418 
L 457.212094 -140.063554 
L 457.536588 -144.471691 
L 457.731108 -148.879828 
L 457.82373 -153.287965 
L 457.843764 -157.696102 
L 457.820528 -162.104239 
L 457.781923 -166.512376 
L 457.752659 -170.920513 
L 457.752272 -175.32865 
L 457.793346 -179.736787 
L 457.880391 -184.144924 
L 458.009759 -188.553061 
L 458.170703 -192.961198 
L 458.347439 -197.369335 
L 458.521811 -201.777471 
L 458.676064 -206.185608 
L 458.795255 -210.593745 
L 458.868946 -215.001882 
L 458.892052 -219.410019 
L 458.864826 -223.818156 
L 458.792145 -228.226293 
L 458.682283 -232.63443 
L 458.545402 -237.042567 
L 458.391977 -241.450704 
L 458.231389 -245.858841 
L 458.070865 -250.266978 
L 457.914944 -254.675115 
L 457.765535 -259.083252 
L 457.622537 -263.491388 
L 457.484858 -267.899525 
L 457.351579 -272.307662 
L 457.222939 -276.715799 
L 457.100863 -281.123936 
L 456.988859 -285.532073 
L 456.891241 -289.94021 
L 456.81189 -294.348347 
L 456.752823 -298.756484 
L 456.712989 -303.164621 
L 456.687582 -307.572758 
L 456.668096 -311.980895 
L 456.6431 -316.389032 
L 456.599607 -320.797168 
L 456.52478 -325.205305 
L 456.407758 -329.613442 
L 456.24136 -334.021579 
L 456.023531 -338.429716 
L 455.758321 -342.837853 
L 455.45624 -347.24599 
L 455.13376 -351.654127 
L 454.811876 -356.062264 
L 454.513755 -360.470401 
L 454.261764 -364.878538 
L 454.074385 -369.286675 
L 453.963661 -373.694812 
L 453.933762 -378.102949 
L 453.981057 -382.511085 
L 454.095701 -386.919222 
L 454.264364 -391.327359 
L 454.473448 -395.735496 
L 454.711994 -400.143633 
L 454.97362 -404.55177 
L 455.257087 -408.959907 
L 455.565511 -413.368044 
L 455.904564 -417.776181 
L 456.280237 -422.184318 
L 456.696789 -426.592455 
L 457.155363 -431.000592 
L 457.653508 -435.408729 
L 458.185588 -439.816866 
L 458.743829 -444.225002 
L 459.319632 -448.633139 
L 459.904782 -453.041276 
L 460.492251 -457.449413 
L 461.07646 -461.85755 
L 461.653013 -466.265687 
L 462.218077 -470.673824 
L 462.767678 -475.081961 
L 463.297138 -479.490098 
L 463.800881 -483.898235 
L 464.272651 -488.306372 
L 464.7061 -492.714509 
L 465.095581 -497.122646 
L 465.436936 -501.530783 
L 465.728089 -505.938919 
L 467.62299 -505.938919 
L 467.62299 -505.938919 
L 467.914144 -501.530783 
L 468.255498 -497.122646 
L 468.644979 -492.714509 
L 469.078428 -488.306372 
L 469.550198 -483.898235 
L 470.053941 -479.490098 
L 470.583401 -475.081961 
L 471.133002 -470.673824 
L 471.698067 -466.265687 
L 472.274619 -461.85755 
L 472.858828 -457.449413 
L 473.446298 -453.041276 
L 474.031447 -448.633139 
L 474.60725 -444.225002 
L 475.165491 -439.816866 
L 475.697572 -435.408729 
L 476.195716 -431.000592 
L 476.65429 -426.592455 
L 477.070842 -422.184318 
L 477.446515 -417.776181 
L 477.785568 -413.368044 
L 478.093992 -408.959907 
L 478.377459 -404.55177 
L 478.639085 -400.143633 
L 478.877632 -395.735496 
L 479.086715 -391.327359 
L 479.255378 -386.919222 
L 479.370022 -382.511085 
L 479.417318 -378.102949 
L 479.387419 -373.694812 
L 479.276694 -369.286675 
L 479.089316 -364.878538 
L 478.837325 -360.470401 
L 478.539204 -356.062264 
L 478.21732 -351.654127 
L 477.894839 -347.24599 
L 477.592758 -342.837853 
L 477.327549 -338.429716 
L 477.109719 -334.021579 
L 476.943321 -329.613442 
L 476.826299 -325.205305 
L 476.751473 -320.797168 
L 476.707979 -316.389032 
L 476.682983 -311.980895 
L 476.663497 -307.572758 
L 476.63809 -303.164621 
L 476.598256 -298.756484 
L 476.53919 -294.348347 
L 476.459838 -289.94021 
L 476.362221 -285.532073 
L 476.250216 -281.123936 
L 476.128141 -276.715799 
L 475.9995 -272.307662 
L 475.866221 -267.899525 
L 475.728543 -263.491388 
L 475.585545 -259.083252 
L 475.436136 -254.675115 
L 475.280214 -250.266978 
L 475.11969 -245.858841 
L 474.959102 -241.450704 
L 474.805678 -237.042567 
L 474.668796 -232.63443 
L 474.558934 -228.226293 
L 474.486253 -223.818156 
L 474.459027 -219.410019 
L 474.482133 -215.001882 
L 474.555825 -210.593745 
L 474.675015 -206.185608 
L 474.829269 -201.777471 
L 475.003641 -197.369335 
L 475.180377 -192.961198 
L 475.34132 -188.553061 
L 475.470688 -184.144924 
L 475.557733 -179.736787 
L 475.598807 -175.32865 
L 475.59842 -170.920513 
L 475.569156 -166.512376 
L 475.530551 -162.104239 
L 475.507315 -157.696102 
L 475.52735 -153.287965 
L 475.619971 -148.879828 
L 475.814492 -144.471691 
L 476.138986 -140.063554 
L 476.618774 -135.655418 
L 477.274042 -131.247281 
L 478.116124 -126.839144 
L 479.14246 -122.431007 
L 480.330826 -118.02287 
L 481.634175 -113.614733 
L 482.977877 -109.206596 
L 484.261221 -104.798459 
L 485.364516 -100.390322 
L 486.161952 -95.982185 
L 486.538856 -91.574048 
L 486.410422 -87.165911 
L 485.737947 -82.757774 
L 484.538584 -78.349637 
L 482.88574 -73.941501 
L 480.899402 -69.533364 
z
" id="mdf54743fcf" style="stroke:#141414;stroke-width:1.5;"/>
    </defs>
    <g clip-path="url(#pe7eb1d05b4)">
     <use style="fill:#0e5f2f;stroke:#141414;stroke-width:1.5;" x="0" xlink:href="#mdf54743fcf" y="540.169"/>
    </g>
   </g>
   <g id="PolyCollection_9">
    <defs>
     <path d="M 548.367722 -69.533364 
L 513.184073 -69.533364 
L 511.158512 -70.419547 
L 509.880284 -71.305731 
L 509.409112 -72.191914 
L 509.669367 -73.078098 
L 510.482051 -73.964282 
L 511.619009 -74.850465 
L 512.85866 -75.736649 
L 514.026511 -76.622832 
L 515.013604 -77.509016 
L 515.775626 -78.3952 
L 516.320301 -79.281383 
L 516.690385 -80.167567 
L 516.946708 -81.05375 
L 517.152997 -81.939934 
L 517.363301 -82.826118 
L 517.613101 -83.712301 
L 517.91541 -84.598485 
L 518.262463 -85.484668 
L 518.632087 -86.370852 
L 518.996435 -87.257036 
L 519.330216 -88.143219 
L 519.616084 -89.029403 
L 519.846207 -89.915586 
L 520.020446 -90.80177 
L 520.142618 -91.687954 
L 520.216633 -92.574137 
L 520.244001 -93.460321 
L 520.223417 -94.346504 
L 520.15229 -95.232688 
L 520.029374 -96.118872 
L 519.857313 -97.005055 
L 519.644048 -97.891239 
L 519.402526 -98.777422 
L 519.148898 -99.663606 
L 518.90007 -100.54979 
L 518.671697 -101.435973 
L 518.477386 -102.322157 
L 518.329056 -103.20834 
L 518.237555 -104.094524 
L 518.212371 -104.980708 
L 518.259739 -105.866891 
L 518.379561 -106.753075 
L 518.562556 -107.639258 
L 518.789365 -108.525442 
L 519.032768 -109.411626 
L 519.262875 -110.297809 
L 519.453848 -111.183993 
L 519.590032 -112.070176 
L 519.669459 -112.95636 
L 519.703692 -113.842544 
L 519.71428 -114.728727 
L 519.727245 -115.614911 
L 519.767588 -116.501094 
L 519.855487 -117.387278 
L 520.004954 -118.273462 
L 520.224579 -119.159645 
L 520.519247 -120.045829 
L 520.891534 -120.932012 
L 521.342028 -121.818196 
L 521.868528 -122.70438 
L 522.464718 -123.590563 
L 523.119167 -124.476747 
L 523.815315 -125.36293 
L 524.532662 -126.249114 
L 525.248919 -127.135298 
L 525.94253 -128.021481 
L 526.594931 -128.907665 
L 527.192091 -129.793848 
L 527.725168 -130.680032 
L 528.190404 -131.566216 
L 528.588476 -132.452399 
L 528.923538 -133.338583 
L 529.202102 -134.224766 
L 529.431905 -135.11095 
L 529.620882 -135.997134 
L 529.776363 -136.883317 
L 529.904544 -137.769501 
L 530.010224 -138.655684 
L 530.096743 -139.541868 
L 530.166087 -140.428052 
L 530.219171 -141.314235 
L 530.25627 -142.200419 
L 530.277572 -143.086602 
L 530.283701 -143.972786 
L 530.276088 -144.85897 
L 530.257063 -145.745153 
L 530.229657 -146.631337 
L 530.1972 -147.51752 
L 530.162878 -148.403704 
L 530.12944 -149.289888 
L 530.099184 -150.176071 
L 530.07426 -151.062255 
L 530.057123 -151.948438 
L 530.05085 -152.834622 
L 530.058998 -153.720806 
L 530.084857 -154.606989 
L 530.13029 -155.493173 
L 530.194609 -156.379356 
L 530.274072 -157.26554 
L 531.277723 -157.26554 
L 531.277723 -157.26554 
L 531.357186 -156.379356 
L 531.421505 -155.493173 
L 531.466937 -154.606989 
L 531.492797 -153.720806 
L 531.500944 -152.834622 
L 531.494672 -151.948438 
L 531.477535 -151.062255 
L 531.452611 -150.176071 
L 531.422355 -149.289888 
L 531.388917 -148.403704 
L 531.354595 -147.51752 
L 531.322138 -146.631337 
L 531.294732 -145.745153 
L 531.275707 -144.85897 
L 531.268094 -143.972786 
L 531.274223 -143.086602 
L 531.295524 -142.200419 
L 531.332624 -141.314235 
L 531.385708 -140.428052 
L 531.455052 -139.541868 
L 531.541571 -138.655684 
L 531.647251 -137.769501 
L 531.775432 -136.883317 
L 531.930913 -135.997134 
L 532.11989 -135.11095 
L 532.349693 -134.224766 
L 532.628257 -133.338583 
L 532.963319 -132.452399 
L 533.361391 -131.566216 
L 533.826626 -130.680032 
L 534.359704 -129.793848 
L 534.956864 -128.907665 
L 535.609265 -128.021481 
L 536.302875 -127.135298 
L 537.019133 -126.249114 
L 537.73648 -125.36293 
L 538.432628 -124.476747 
L 539.087077 -123.590563 
L 539.683266 -122.70438 
L 540.209766 -121.818196 
L 540.660261 -120.932012 
L 541.032548 -120.045829 
L 541.327215 -119.159645 
L 541.546841 -118.273462 
L 541.696308 -117.387278 
L 541.784207 -116.501094 
L 541.82455 -115.614911 
L 541.837515 -114.728727 
L 541.848103 -113.842544 
L 541.882336 -112.95636 
L 541.961763 -112.070176 
L 542.097947 -111.183993 
L 542.28892 -110.297809 
L 542.519027 -109.411626 
L 542.76243 -108.525442 
L 542.989239 -107.639258 
L 543.172234 -106.753075 
L 543.292056 -105.866891 
L 543.339423 -104.980708 
L 543.314239 -104.094524 
L 543.222739 -103.20834 
L 543.074409 -102.322157 
L 542.880098 -101.435973 
L 542.651724 -100.54979 
L 542.402897 -99.663606 
L 542.149269 -98.777422 
L 541.907747 -97.891239 
L 541.694482 -97.005055 
L 541.522421 -96.118872 
L 541.399505 -95.232688 
L 541.328378 -94.346504 
L 541.307794 -93.460321 
L 541.335161 -92.574137 
L 541.409177 -91.687954 
L 541.531349 -90.80177 
L 541.705588 -89.915586 
L 541.935711 -89.029403 
L 542.221579 -88.143219 
L 542.55536 -87.257036 
L 542.919708 -86.370852 
L 543.289332 -85.484668 
L 543.636385 -84.598485 
L 543.938694 -83.712301 
L 544.188494 -82.826118 
L 544.398798 -81.939934 
L 544.605087 -81.05375 
L 544.86141 -80.167567 
L 545.231494 -79.281383 
L 545.776168 -78.3952 
L 546.538191 -77.509016 
L 547.525283 -76.622832 
L 548.693135 -75.736649 
L 549.932786 -74.850465 
L 551.069744 -73.964282 
L 551.882428 -73.078098 
L 552.142683 -72.191914 
L 551.671511 -71.305731 
L 550.393283 -70.419547 
L 548.367722 -69.533364 
z
" id="m35386b07ee" style="stroke:#141414;stroke-width:1.5;"/>
    </defs>
    <g clip-path="url(#pe7eb1d05b4)">
     <use style="fill:#083c1d;stroke:#141414;stroke-width:1.5;" x="0" xlink:href="#m35386b07ee" y="540.169"/>
    </g>
   </g>
   <g id="PolyCollection_10">
    <defs>
     <path d="M 589.096335 -69.533364 
L 557.922604 -69.533364 
L 555.791738 -70.414991 
L 554.254584 -71.296618 
L 553.387866 -72.178246 
L 553.151125 -73.059873 
L 553.410981 -73.941501 
L 553.986057 -74.823128 
L 554.694947 -75.704755 
L 555.392568 -76.586383 
L 555.988208 -77.46801 
L 556.446725 -78.349637 
L 556.77882 -79.231265 
L 557.026574 -80.112892 
L 557.248077 -80.99452 
L 557.502664 -81.876147 
L 557.83757 -82.757774 
L 558.277566 -83.639402 
L 558.819864 -84.521029 
L 559.435943 -85.402657 
L 560.079808 -86.284284 
L 560.699828 -87.165911 
L 561.250191 -88.047539 
L 561.698793 -88.929166 
L 562.030392 -89.810794 
L 562.245722 -90.692421 
L 562.358184 -91.574048 
L 562.389503 -92.455676 
L 562.365249 -93.337303 
L 562.310698 -94.21893 
L 562.247497 -95.100558 
L 562.191535 -95.982185 
L 562.152228 -96.863813 
L 562.13301 -97.74544 
L 562.132556 -98.627067 
L 562.146269 -99.508695 
L 562.167784 -100.390322 
L 562.190436 -101.27195 
L 562.208628 -102.153577 
L 562.218801 -103.035204 
L 562.219618 -103.916832 
L 562.211158 -104.798459 
L 562.193537 -105.680086 
L 562.165852 -106.561714 
L 562.126408 -107.443341 
L 562.074499 -108.324969 
L 562.013062 -109.206596 
L 561.950748 -110.088223 
L 561.902134 -110.969851 
L 561.885606 -111.851478 
L 561.91964 -112.733106 
L 562.01888 -113.614733 
L 562.191406 -114.49636 
L 562.437877 -115.377988 
L 562.752432 -116.259615 
L 563.124707 -117.141242 
L 563.542214 -118.02287 
L 563.992562 -118.904497 
L 564.465143 -119.786125 
L 564.952071 -120.667752 
L 565.44822 -121.549379 
L 565.950483 -122.431007 
L 566.456601 -123.312634 
L 566.964067 -124.194262 
L 567.46943 -125.075889 
L 567.968031 -125.957516 
L 568.453983 -126.839144 
L 568.920262 -127.720771 
L 569.359027 -128.602398 
L 569.762408 -129.484026 
L 570.123838 -130.365653 
L 570.439615 -131.247281 
L 570.710101 -132.128908 
L 570.939987 -133.010535 
L 571.137459 -133.892163 
L 571.312525 -134.77379 
L 571.475033 -135.655418 
L 571.632899 -136.537045 
L 571.790862 -137.418672 
L 571.949927 -138.3003 
L 572.107588 -139.181927 
L 572.258831 -140.063554 
L 572.397768 -140.945182 
L 572.519486 -141.826809 
L 572.621512 -142.708437 
L 572.704344 -143.590064 
L 572.770848 -144.471691 
L 572.824788 -145.353319 
L 572.869174 -146.234946 
L 572.905173 -147.116574 
L 572.932047 -147.998201 
L 572.948133 -148.879828 
L 572.952367 -149.761456 
L 572.945719 -150.643083 
L 572.931947 -151.52471 
L 572.917373 -152.406338 
L 572.909723 -153.287965 
L 572.916351 -154.169593 
L 572.942353 -155.05122 
L 572.989157 -155.932847 
L 573.054049 -156.814475 
L 573.964889 -156.814475 
L 573.964889 -156.814475 
L 574.029782 -155.932847 
L 574.076586 -155.05122 
L 574.102588 -154.169593 
L 574.109215 -153.287965 
L 574.101565 -152.406338 
L 574.086991 -151.52471 
L 574.07322 -150.643083 
L 574.066572 -149.761456 
L 574.070806 -148.879828 
L 574.086891 -147.998201 
L 574.113766 -147.116574 
L 574.149764 -146.234946 
L 574.194151 -145.353319 
L 574.248091 -144.471691 
L 574.314595 -143.590064 
L 574.397427 -142.708437 
L 574.499452 -141.826809 
L 574.621171 -140.945182 
L 574.760108 -140.063554 
L 574.91135 -139.181927 
L 575.069011 -138.3003 
L 575.228077 -137.418672 
L 575.38604 -136.537045 
L 575.543906 -135.655418 
L 575.706414 -134.77379 
L 575.881479 -133.892163 
L 576.078952 -133.010535 
L 576.308838 -132.128908 
L 576.579323 -131.247281 
L 576.895101 -130.365653 
L 577.256531 -129.484026 
L 577.659912 -128.602398 
L 578.098676 -127.720771 
L 578.564955 -126.839144 
L 579.050908 -125.957516 
L 579.549509 -125.075889 
L 580.054871 -124.194262 
L 580.562337 -123.312634 
L 581.068456 -122.431007 
L 581.570719 -121.549379 
L 582.066868 -120.667752 
L 582.553795 -119.786125 
L 583.026377 -118.904497 
L 583.476724 -118.02287 
L 583.894232 -117.141242 
L 584.266506 -116.259615 
L 584.581062 -115.377988 
L 584.827533 -114.49636 
L 585.000059 -113.614733 
L 585.099299 -112.733106 
L 585.133332 -111.851478 
L 585.116805 -110.969851 
L 585.068191 -110.088223 
L 585.005877 -109.206596 
L 584.944439 -108.324969 
L 584.892531 -107.443341 
L 584.853086 -106.561714 
L 584.825402 -105.680086 
L 584.807781 -104.798459 
L 584.799321 -103.916832 
L 584.800137 -103.035204 
L 584.810311 -102.153577 
L 584.828502 -101.27195 
L 584.851154 -100.390322 
L 584.87267 -99.508695 
L 584.886383 -98.627067 
L 584.885929 -97.74544 
L 584.86671 -96.863813 
L 584.827404 -95.982185 
L 584.771442 -95.100558 
L 584.70824 -94.21893 
L 584.65369 -93.337303 
L 584.629435 -92.455676 
L 584.660755 -91.574048 
L 584.773216 -90.692421 
L 584.988547 -89.810794 
L 585.320145 -88.929166 
L 585.768748 -88.047539 
L 586.319111 -87.165911 
L 586.939131 -86.284284 
L 587.582996 -85.402657 
L 588.199075 -84.521029 
L 588.741373 -83.639402 
L 589.181368 -82.757774 
L 589.516274 -81.876147 
L 589.770861 -80.99452 
L 589.992364 -80.112892 
L 590.240118 -79.231265 
L 590.572213 -78.349637 
L 591.03073 -77.46801 
L 591.626371 -76.586383 
L 592.323991 -75.704755 
L 593.032882 -74.823128 
L 593.607957 -73.941501 
L 593.867814 -73.059873 
L 593.631073 -72.178246 
L 592.764355 -71.296618 
L 591.2272 -70.414991 
L 589.096335 -69.533364 
z
" id="m94df4e4de5" style="stroke:#141414;stroke-width:1.5;"/>
    </defs>
    <g clip-path="url(#pe7eb1d05b4)">
     <use style="fill:#0e5f2f;stroke:#141414;stroke-width:1.5;" x="0" xlink:href="#m94df4e4de5" y="540.169"/>
    </g>
   </g>
   <g id="patch_3">
    <path clip-path="url(#pe7eb1d05b4)" d="M 124.806965 470.635636 
L 124.806965 470.635636 
L 124.806965 470.635636 
L 124.806965 470.635636 
z
" style="fill:#083c1d;stroke:#141414;stroke-linejoin:miter;stroke-width:0.75;"/>
   </g>
   <g id="patch_4">
    <path clip-path="url(#pe7eb1d05b4)" d="M 124.806965 470.635636 
L 124.806965 470.635636 
L 124.806965 470.635636 
L 124.806965 470.635636 
z
" style="fill:#0e5f2f;stroke:#141414;stroke-linejoin:miter;stroke-width:0.75;"/>
   </g>
   <g id="line2d_1">
    <path clip-path="url(#pe7eb1d05b4)" d="M 103.440179 470.635636 
L 103.440179 253.673288 
" style="fill:none;stroke:#141414;stroke-linecap:round;stroke-width:1.5;"/>
   </g>
   <g id="line2d_2">
    <path clip-path="url(#pe7eb1d05b4)" d="M 103.440179 464.43349 
L 103.440179 379.746004 
" style="fill:none;stroke:#141414;stroke-linecap:round;stroke-width:4.5;"/>
   </g>
   <g id="line2d_3">
    <path clip-path="url(#pe7eb1d05b4)" d="M 146.173751 470.635636 
L 146.173751 252.320092 
" style="fill:none;stroke:#141414;stroke-linecap:round;stroke-width:1.5;"/>
   </g>
   <g id="line2d_4">
    <path clip-path="url(#pe7eb1d05b4)" d="M 146.173751 453.946225 
L 146.173751 357.192745 
" style="fill:none;stroke:#141414;stroke-linecap:round;stroke-width:4.5;"/>
   </g>
   <g id="line2d_5">
    <path clip-path="url(#pe7eb1d05b4)" d="M 210.274109 470.635636 
L 210.274109 330.128835 
" style="fill:none;stroke:#141414;stroke-linecap:round;stroke-width:1.5;"/>
   </g>
   <g id="line2d_6">
    <path clip-path="url(#pe7eb1d05b4)" d="M 210.274109 465.448387 
L 210.274109 381.775797 
" style="fill:none;stroke:#141414;stroke-linecap:round;stroke-width:4.5;"/>
   </g>
   <g id="line2d_7">
    <path clip-path="url(#pe7eb1d05b4)" d="M 253.00768 470.635636 
L 253.00768 311.860695 
" style="fill:none;stroke:#141414;stroke-linecap:round;stroke-width:1.5;"/>
   </g>
   <g id="line2d_8">
    <path clip-path="url(#pe7eb1d05b4)" d="M 253.00768 463.53136 
L 253.00768 368.131076 
" style="fill:none;stroke:#141414;stroke-linecap:round;stroke-width:4.5;"/>
   </g>
   <g id="line2d_9">
    <path clip-path="url(#pe7eb1d05b4)" d="M 317.108038 470.635636 
L 317.108038 75.502544 
" style="fill:none;stroke:#141414;stroke-linecap:round;stroke-width:1.5;"/>
   </g>
   <g id="line2d_10">
    <path clip-path="url(#pe7eb1d05b4)" d="M 317.108038 443.120661 
L 317.108038 229.090236 
" style="fill:none;stroke:#141414;stroke-linecap:round;stroke-width:4.5;"/>
   </g>
   <g id="line2d_11">
    <path clip-path="url(#pe7eb1d05b4)" d="M 359.84161 470.635636 
L 359.84161 64.67698 
" style="fill:none;stroke:#141414;stroke-linecap:round;stroke-width:1.5;"/>
   </g>
   <g id="line2d_12">
    <path clip-path="url(#pe7eb1d05b4)" d="M 359.84161 434.775955 
L 359.84161 215.332748 
" style="fill:none;stroke:#141414;stroke-linecap:round;stroke-width:4.5;"/>
   </g>
   <g id="line2d_13">
    <path clip-path="url(#pe7eb1d05b4)" d="M 423.941968 470.635636 
L 423.941968 29.268364 
" style="fill:none;stroke:#141414;stroke-linecap:round;stroke-width:1.5;"/>
   </g>
   <g id="line2d_14">
    <path clip-path="url(#pe7eb1d05b4)" d="M 423.941968 439.286607 
L 423.941968 181.277327 
" style="fill:none;stroke:#141414;stroke-linecap:round;stroke-width:4.5;"/>
   </g>
   <g id="line2d_15">
    <path clip-path="url(#pe7eb1d05b4)" d="M 466.67554 470.635636 
L 466.67554 34.230081 
" style="fill:none;stroke:#141414;stroke-linecap:round;stroke-width:1.5;"/>
   </g>
   <g id="line2d_16">
    <path clip-path="url(#pe7eb1d05b4)" d="M 466.67554 423.048261 
L 466.67554 172.932622 
" style="fill:none;stroke:#141414;stroke-linecap:round;stroke-width:4.5;"/>
   </g>
   <g id="line2d_17">
    <path clip-path="url(#pe7eb1d05b4)" d="M 530.775897 470.635636 
L 530.775897 382.90346 
" style="fill:none;stroke:#141414;stroke-linecap:round;stroke-width:1.5;"/>
   </g>
   <g id="line2d_18">
    <path clip-path="url(#pe7eb1d05b4)" d="M 530.775897 463.644126 
L 530.775897 430.039771 
" style="fill:none;stroke:#141414;stroke-linecap:round;stroke-width:4.5;"/>
   </g>
   <g id="line2d_19">
    <path clip-path="url(#pe7eb1d05b4)" d="M 573.509469 470.635636 
L 573.509469 383.354525 
" style="fill:none;stroke:#141414;stroke-linecap:round;stroke-width:1.5;"/>
   </g>
   <g id="line2d_20">
    <path clip-path="url(#pe7eb1d05b4)" d="M 573.509469 462.516463 
L 573.509469 429.814238 
" style="fill:none;stroke:#141414;stroke-linecap:round;stroke-width:4.5;"/>
   </g>
   <g id="patch_5">
    <path d="M 71.39 492.704 
L 71.39 7.2 
" style="fill:none;stroke:#262626;stroke-linecap:square;stroke-linejoin:miter;stroke-width:0.8;"/>
   </g>
   <g id="patch_6">
    <path d="M 71.39 492.704 
L 605.559648 492.704 
" style="fill:none;stroke:#262626;stroke-linecap:square;stroke-linejoin:miter;stroke-width:0.8;"/>
   </g>
   <g id="PathCollection_1">
    <defs>
     <path d="M 0 1.5 
C 0.397805 1.5 0.77937 1.341951 1.06066 1.06066 
C 1.341951 0.77937 1.5 0.397805 1.5 0 
C 1.5 -0.397805 1.341951 -0.77937 1.06066 -1.06066 
C 0.77937 -1.341951 0.397805 -1.5 0 -1.5 
C -0.397805 -1.5 -0.77937 -1.341951 -1.06066 -1.06066 
C -1.341951 -0.77937 -1.5 -0.397805 -1.5 0 
C -1.5 0.397805 -1.341951 0.77937 -1.06066 1.06066 
C -0.77937 1.341951 -0.397805 1.5 0 1.5 
z
" id="m4c7a494a1b" style="stroke:#141414;"/>
    </defs>
    <g clip-path="url(#pe7eb1d05b4)">
     <use style="fill:#ffffff;stroke:#141414;" x="103.440179" xlink:href="#m4c7a494a1b" y="414.026957"/>
    </g>
   </g>
   <g id="PathCollection_2">
    <g clip-path="url(#pe7eb1d05b4)">
     <use style="fill:#ffffff;stroke:#141414;" x="146.173751" xlink:href="#m4c7a494a1b" y="393.503492"/>
    </g>
   </g>
   <g id="PathCollection_3">
    <g clip-path="url(#pe7eb1d05b4)">
     <use style="fill:#ffffff;stroke:#141414;" x="210.274109" xlink:href="#m4c7a494a1b" y="418.763141"/>
    </g>
   </g>
   <g id="PathCollection_4">
    <g clip-path="url(#pe7eb1d05b4)">
     <use style="fill:#ffffff;stroke:#141414;" x="253.00768" xlink:href="#m4c7a494a1b" y="397.563078"/>
    </g>
   </g>
   <g id="PathCollection_5">
    <g clip-path="url(#pe7eb1d05b4)">
     <use style="fill:#ffffff;stroke:#141414;" x="317.108038" xlink:href="#m4c7a494a1b" y="338.248008"/>
    </g>
   </g>
   <g id="PathCollection_6">
    <g clip-path="url(#pe7eb1d05b4)">
     <use style="fill:#ffffff;stroke:#141414;" x="359.84161" xlink:href="#m4c7a494a1b" y="317.047945"/>
    </g>
   </g>
   <g id="PathCollection_7">
    <g clip-path="url(#pe7eb1d05b4)">
     <use style="fill:#ffffff;stroke:#141414;" x="423.941968" xlink:href="#m4c7a494a1b" y="313.55219"/>
    </g>
   </g>
   <g id="PathCollection_8">
    <g clip-path="url(#pe7eb1d05b4)">
     <use style="fill:#ffffff;stroke:#141414;" x="466.67554" xlink:href="#m4c7a494a1b" y="287.277643"/>
    </g>
   </g>
   <g id="PathCollection_9">
    <g clip-path="url(#pe7eb1d05b4)">
     <use style="fill:#ffffff;stroke:#141414;" x="530.775897" xlink:href="#m4c7a494a1b" y="447.180247"/>
    </g>
   </g>
   <g id="PathCollection_10">
    <g clip-path="url(#pe7eb1d05b4)">
     <use style="fill:#ffffff;stroke:#141414;" x="573.509469" xlink:href="#m4c7a494a1b" y="447.856845"/>
    </g>
   </g>
  </g>
  <g id="legend_1">
   <g id="text_17">
    <!-- weather -->
    <defs>
     <path d="M 16.15625 0 
L 0.296875 51.859375 
L 9.375 51.859375 
L 17.625 21.921875 
L 20.703125 10.796875 
Q 20.90625 11.625 23.390625 21.484375 
L 31.640625 51.859375 
L 40.671875 51.859375 
L 48.4375 21.78125 
L 51.03125 11.859375 
L 54 21.875 
L 62.890625 51.859375 
L 71.4375 51.859375 
L 55.21875 0 
L 46.09375 0 
L 37.84375 31.0625 
L 35.84375 39.890625 
L 25.34375 0 
z
" id="ArialMT-119"/>
     <path d="M 40.4375 6.390625 
Q 35.546875 2.25 31.03125 0.53125 
Q 26.515625 -1.171875 21.34375 -1.171875 
Q 12.796875 -1.171875 8.203125 3 
Q 3.609375 7.171875 3.609375 13.671875 
Q 3.609375 17.484375 5.34375 20.625 
Q 7.078125 23.78125 9.890625 25.6875 
Q 12.703125 27.59375 16.21875 28.5625 
Q 18.796875 29.25 24.03125 29.890625 
Q 34.671875 31.15625 39.703125 32.90625 
Q 39.75 34.71875 39.75 35.203125 
Q 39.75 40.578125 37.25 42.78125 
Q 33.890625 45.75 27.25 45.75 
Q 21.046875 45.75 18.09375 43.578125 
Q 15.140625 41.40625 13.71875 35.890625 
L 5.125 37.0625 
Q 6.296875 42.578125 8.984375 45.96875 
Q 11.671875 49.359375 16.75 51.1875 
Q 21.828125 53.03125 28.515625 53.03125 
Q 35.15625 53.03125 39.296875 51.46875 
Q 43.453125 49.90625 45.40625 47.53125 
Q 47.359375 45.171875 48.140625 41.546875 
Q 48.578125 39.3125 48.578125 33.453125 
L 48.578125 21.734375 
Q 48.578125 9.46875 49.140625 6.21875 
Q 49.703125 2.984375 51.375 0 
L 42.1875 0 
Q 40.828125 2.734375 40.4375 6.390625 
z
M 39.703125 26.03125 
Q 34.90625 24.078125 25.34375 22.703125 
Q 19.921875 21.921875 17.671875 20.9375 
Q 15.4375 19.96875 14.203125 18.09375 
Q 12.984375 16.21875 12.984375 13.921875 
Q 12.984375 10.40625 15.640625 8.0625 
Q 18.3125 5.71875 23.4375 5.71875 
Q 28.515625 5.71875 32.46875 7.9375 
Q 36.421875 10.15625 38.28125 14.015625 
Q 39.703125 17 39.703125 22.796875 
z
" id="ArialMT-97"/>
     <path d="M 6.59375 0 
L 6.59375 71.578125 
L 15.375 71.578125 
L 15.375 45.90625 
Q 21.53125 53.03125 30.90625 53.03125 
Q 36.671875 53.03125 40.921875 50.75 
Q 45.171875 48.484375 47 44.484375 
Q 48.828125 40.484375 48.828125 32.859375 
L 48.828125 0 
L 40.046875 0 
L 40.046875 32.859375 
Q 40.046875 39.453125 37.1875 42.453125 
Q 34.328125 45.453125 29.109375 45.453125 
Q 25.203125 45.453125 21.75 43.421875 
Q 18.3125 41.40625 16.84375 37.9375 
Q 15.375 34.46875 15.375 28.375 
L 15.375 0 
z
" id="ArialMT-104"/>
    </defs>
    <g style="fill:#262626;" transform="translate(708.06425 251.4945)scale(0.16 -0.16)">
     <use xlink:href="#ArialMT-119"/>
     <use x="72.216797" xlink:href="#ArialMT-101"/>
     <use x="127.832031" xlink:href="#ArialMT-97"/>
     <use x="183.447266" xlink:href="#ArialMT-116"/>
     <use x="211.230469" xlink:href="#ArialMT-104"/>
     <use x="266.845703" xlink:href="#ArialMT-101"/>
     <use x="322.460938" xlink:href="#ArialMT-114"/>
    </g>
   </g>
   <g id="patch_7">
    <path d="M 696.328 274.127 
L 728.328 274.127 
L 728.328 262.927 
L 696.328 262.927 
z
" style="fill:#083c1d;stroke:#141414;stroke-linejoin:miter;stroke-width:0.75;"/>
   </g>
   <g id="text_18">
    <!-- bad -->
    <defs>
     <path d="M 14.703125 0 
L 6.546875 0 
L 6.546875 71.578125 
L 15.328125 71.578125 
L 15.328125 46.046875 
Q 20.90625 53.03125 29.546875 53.03125 
Q 34.328125 53.03125 38.59375 51.09375 
Q 42.875 49.171875 45.625 45.671875 
Q 48.390625 42.1875 49.953125 37.25 
Q 51.515625 32.328125 51.515625 26.703125 
Q 51.515625 13.375 44.921875 6.09375 
Q 38.328125 -1.171875 29.109375 -1.171875 
Q 19.921875 -1.171875 14.703125 6.5 
z
M 14.59375 26.3125 
Q 14.59375 17 17.140625 12.84375 
Q 21.296875 6.0625 28.375 6.0625 
Q 34.125 6.0625 38.328125 11.0625 
Q 42.53125 16.0625 42.53125 25.984375 
Q 42.53125 36.140625 38.5 40.96875 
Q 34.46875 45.796875 28.765625 45.796875 
Q 23 45.796875 18.796875 40.796875 
Q 14.59375 35.796875 14.59375 26.3125 
z
" id="ArialMT-98"/>
    </defs>
    <g style="fill:#262626;" transform="translate(741.128 274.127)scale(0.16 -0.16)">
     <use xlink:href="#ArialMT-98"/>
     <use x="55.615234" xlink:href="#ArialMT-97"/>
     <use x="111.230469" xlink:href="#ArialMT-100"/>
    </g>
   </g>
   <g id="patch_8">
    <path d="M 696.328 296.7595 
L 728.328 296.7595 
L 728.328 285.5595 
L 696.328 285.5595 
z
" style="fill:#0e5f2f;stroke:#141414;stroke-linejoin:miter;stroke-width:0.75;"/>
   </g>
   <g id="text_19">
    <!-- good -->
    <defs>
     <path d="M 4.984375 -4.296875 
L 13.53125 -5.5625 
Q 14.0625 -9.515625 16.5 -11.328125 
Q 19.78125 -13.765625 25.4375 -13.765625 
Q 31.546875 -13.765625 34.859375 -11.328125 
Q 38.1875 -8.890625 39.359375 -4.5 
Q 40.046875 -1.8125 39.984375 6.78125 
Q 34.234375 0 25.640625 0 
Q 14.9375 0 9.078125 7.71875 
Q 3.21875 15.4375 3.21875 26.21875 
Q 3.21875 33.640625 5.90625 39.90625 
Q 8.59375 46.1875 13.6875 49.609375 
Q 18.796875 53.03125 25.6875 53.03125 
Q 34.859375 53.03125 40.828125 45.609375 
L 40.828125 51.859375 
L 48.921875 51.859375 
L 48.921875 7.03125 
Q 48.921875 -5.078125 46.453125 -10.125 
Q 44 -15.1875 38.640625 -18.109375 
Q 33.296875 -21.046875 25.484375 -21.046875 
Q 16.21875 -21.046875 10.5 -16.875 
Q 4.78125 -12.703125 4.984375 -4.296875 
z
M 12.25 26.859375 
Q 12.25 16.65625 16.296875 11.96875 
Q 20.359375 7.28125 26.46875 7.28125 
Q 32.515625 7.28125 36.609375 11.9375 
Q 40.71875 16.609375 40.71875 26.5625 
Q 40.71875 36.078125 36.5 40.90625 
Q 32.28125 45.75 26.3125 45.75 
Q 20.453125 45.75 16.34375 40.984375 
Q 12.25 36.234375 12.25 26.859375 
z
" id="ArialMT-103"/>
    </defs>
    <g style="fill:#262626;" transform="translate(741.128 296.7595)scale(0.16 -0.16)">
     <use xlink:href="#ArialMT-103"/>
     <use x="55.615234" xlink:href="#ArialMT-111"/>
     <use x="111.230469" xlink:href="#ArialMT-111"/>
     <use x="166.845703" xlink:href="#ArialMT-100"/>
    </g>
   </g>
  </g>
 </g>
 <defs>
  <clipPath id="pe7eb1d05b4">
   <rect height="485.504" width="534.169648" x="71.39" y="7.2"/>
  </clipPath>
 </defs>
</svg>
