<?xml version="1.0" encoding="utf-8" standalone="no"?>
<!DOCTYPE svg PUBLIC "-//W3C//DTD SVG 1.1//EN"
  "http://www.w3.org/Graphics/SVG/1.1/DTD/svg11.dtd">
<!-- Created with matplotlib (https://matplotlib.org/) -->
<svg height="540.169pt" version="1.1" viewBox="0 0 803.5205 540.169" width="803.5205pt" xmlns="http://www.w3.org/2000/svg" xmlns:xlink="http://www.w3.org/1999/xlink">
 <defs>
  <style type="text/css">
*{stroke-linecap:butt;stroke-linejoin:round;white-space:pre;}
  </style>
 </defs>
 <g id="figure_1">
  <g id="patch_1">
   <path d="M 0 540.169 
L 803.5205 540.169 
L 803.5205 0 
L 0 0 
z
" style="fill:#ffffff;"/>
  </g>
  <g id="axes_1">
   <g id="patch_2">
    <path d="M 62.4925 492.704 
L 650.972863 492.704 
L 650.972863 7.2 
L 62.4925 7.2 
z
" style="fill:#ffffff;"/>
   </g>
   <g id="matplotlib.axis_1">
    <g id="xtick_1">
     <g id="text_1">
      <!-- 1056-186-1 -->
      <defs>
       <path d="M 37.25 0 
L 28.46875 0 
L 28.46875 56 
Q 25.296875 52.984375 20.140625 49.953125 
Q 14.984375 46.921875 10.890625 45.40625 
L 10.890625 53.90625 
Q 18.265625 57.375 23.78125 62.296875 
Q 29.296875 67.234375 31.59375 71.875 
L 37.25 71.875 
z
" id="ArialMT-49"/>
       <path d="M 4.15625 35.296875 
Q 4.15625 48 6.765625 55.734375 
Q 9.375 63.484375 14.515625 67.671875 
Q 19.671875 71.875 27.484375 71.875 
Q 33.25 71.875 37.59375 69.546875 
Q 41.9375 67.234375 44.765625 62.859375 
Q 47.609375 58.5 49.21875 52.21875 
Q 50.828125 45.953125 50.828125 35.296875 
Q 50.828125 22.703125 48.234375 14.96875 
Q 45.65625 7.234375 40.5 3 
Q 35.359375 -1.21875 27.484375 -1.21875 
Q 17.140625 -1.21875 11.234375 6.203125 
Q 4.15625 15.140625 4.15625 35.296875 
z
M 13.1875 35.296875 
Q 13.1875 17.671875 17.3125 11.828125 
Q 21.4375 6 27.484375 6 
Q 33.546875 6 37.671875 11.859375 
Q 41.796875 17.71875 41.796875 35.296875 
Q 41.796875 52.984375 37.671875 58.78125 
Q 33.546875 64.59375 27.390625 64.59375 
Q 21.34375 64.59375 17.71875 59.46875 
Q 13.1875 52.9375 13.1875 35.296875 
z
" id="ArialMT-48"/>
       <path d="M 4.15625 18.75 
L 13.375 19.53125 
Q 14.40625 12.796875 18.140625 9.390625 
Q 21.875 6 27.15625 6 
Q 33.5 6 37.890625 10.78125 
Q 42.28125 15.578125 42.28125 23.484375 
Q 42.28125 31 38.0625 35.34375 
Q 33.84375 39.703125 27 39.703125 
Q 22.75 39.703125 19.328125 37.765625 
Q 15.921875 35.84375 13.96875 32.765625 
L 5.71875 33.84375 
L 12.640625 70.609375 
L 48.25 70.609375 
L 48.25 62.203125 
L 19.671875 62.203125 
L 15.828125 42.96875 
Q 22.265625 47.46875 29.34375 47.46875 
Q 38.71875 47.46875 45.15625 40.96875 
Q 51.609375 34.46875 51.609375 24.265625 
Q 51.609375 14.546875 45.953125 7.46875 
Q 39.0625 -1.21875 27.15625 -1.21875 
Q 17.390625 -1.21875 11.203125 4.25 
Q 5.03125 9.71875 4.15625 18.75 
z
" id="ArialMT-53"/>
       <path d="M 49.75 54.046875 
L 41.015625 53.375 
Q 39.84375 58.546875 37.703125 60.890625 
Q 34.125 64.65625 28.90625 64.65625 
Q 24.703125 64.65625 21.53125 62.3125 
Q 17.390625 59.28125 14.984375 53.46875 
Q 12.59375 47.65625 12.5 36.921875 
Q 15.671875 41.75 20.265625 44.09375 
Q 24.859375 46.4375 29.890625 46.4375 
Q 38.671875 46.4375 44.84375 39.96875 
Q 51.03125 33.5 51.03125 23.25 
Q 51.03125 16.5 48.125 10.71875 
Q 45.21875 4.9375 40.140625 1.859375 
Q 35.0625 -1.21875 28.609375 -1.21875 
Q 17.625 -1.21875 10.6875 6.859375 
Q 3.765625 14.9375 3.765625 33.5 
Q 3.765625 54.25 11.421875 63.671875 
Q 18.109375 71.875 29.4375 71.875 
Q 37.890625 71.875 43.28125 67.140625 
Q 48.6875 62.40625 49.75 54.046875 
z
M 13.875 23.1875 
Q 13.875 18.65625 15.796875 14.5 
Q 17.71875 10.359375 21.1875 8.171875 
Q 24.65625 6 28.46875 6 
Q 34.03125 6 38.03125 10.484375 
Q 42.046875 14.984375 42.046875 22.703125 
Q 42.046875 30.125 38.078125 34.390625 
Q 34.125 38.671875 28.125 38.671875 
Q 22.171875 38.671875 18.015625 34.390625 
Q 13.875 30.125 13.875 23.1875 
z
" id="ArialMT-54"/>
       <path d="M 3.171875 21.484375 
L 3.171875 30.328125 
L 30.171875 30.328125 
L 30.171875 21.484375 
z
" id="ArialMT-45"/>
       <path d="M 17.671875 38.8125 
Q 12.203125 40.828125 9.5625 44.53125 
Q 6.9375 48.25 6.9375 53.421875 
Q 6.9375 61.234375 12.546875 66.546875 
Q 18.171875 71.875 27.484375 71.875 
Q 36.859375 71.875 42.578125 66.421875 
Q 48.296875 60.984375 48.296875 53.171875 
Q 48.296875 48.1875 45.671875 44.5 
Q 43.0625 40.828125 37.75 38.8125 
Q 44.34375 36.671875 47.78125 31.875 
Q 51.21875 27.09375 51.21875 20.453125 
Q 51.21875 11.28125 44.71875 5.03125 
Q 38.234375 -1.21875 27.640625 -1.21875 
Q 17.046875 -1.21875 10.546875 5.046875 
Q 4.046875 11.328125 4.046875 20.703125 
Q 4.046875 27.6875 7.59375 32.390625 
Q 11.140625 37.109375 17.671875 38.8125 
z
M 15.921875 53.71875 
Q 15.921875 48.640625 19.1875 45.40625 
Q 22.46875 42.1875 27.6875 42.1875 
Q 32.765625 42.1875 36.015625 45.375 
Q 39.265625 48.578125 39.265625 53.21875 
Q 39.265625 58.0625 35.90625 61.359375 
Q 32.5625 64.65625 27.59375 64.65625 
Q 22.5625 64.65625 19.234375 61.421875 
Q 15.921875 58.203125 15.921875 53.71875 
z
M 13.09375 20.65625 
Q 13.09375 16.890625 14.875 13.375 
Q 16.65625 9.859375 20.171875 7.921875 
Q 23.6875 6 27.734375 6 
Q 34.03125 6 38.125 10.046875 
Q 42.234375 14.109375 42.234375 20.359375 
Q 42.234375 26.703125 38.015625 30.859375 
Q 33.796875 35.015625 27.4375 35.015625 
Q 21.234375 35.015625 17.15625 30.90625 
Q 13.09375 26.8125 13.09375 20.65625 
z
" id="ArialMT-56"/>
      </defs>
      <g style="fill:#262626;" transform="translate(80.423036 511.1565)scale(0.16 -0.16)">
       <use xlink:href="#ArialMT-49"/>
       <use x="55.615234" xlink:href="#ArialMT-48"/>
       <use x="111.230469" xlink:href="#ArialMT-53"/>
       <use x="166.845703" xlink:href="#ArialMT-54"/>
       <use x="222.460938" xlink:href="#ArialMT-45"/>
       <use x="255.761719" xlink:href="#ArialMT-49"/>
       <use x="311.376953" xlink:href="#ArialMT-56"/>
       <use x="366.992188" xlink:href="#ArialMT-54"/>
       <use x="422.607422" xlink:href="#ArialMT-45"/>
       <use x="455.908203" xlink:href="#ArialMT-49"/>
      </g>
     </g>
    </g>
    <g id="xtick_2">
     <g id="text_2">
      <!-- 1927-261-1 -->
      <defs>
       <path d="M 5.46875 16.546875 
L 13.921875 17.328125 
Q 14.984375 11.375 18.015625 8.6875 
Q 21.046875 6 25.78125 6 
Q 29.828125 6 32.875 7.859375 
Q 35.9375 9.71875 37.890625 12.8125 
Q 39.84375 15.921875 41.15625 21.1875 
Q 42.484375 26.46875 42.484375 31.9375 
Q 42.484375 32.515625 42.4375 33.6875 
Q 39.796875 29.5 35.234375 26.875 
Q 30.671875 24.265625 25.34375 24.265625 
Q 16.453125 24.265625 10.296875 30.703125 
Q 4.15625 37.15625 4.15625 47.703125 
Q 4.15625 58.59375 10.578125 65.234375 
Q 17 71.875 26.65625 71.875 
Q 33.640625 71.875 39.421875 68.109375 
Q 45.21875 64.359375 48.21875 57.390625 
Q 51.21875 50.4375 51.21875 37.25 
Q 51.21875 23.53125 48.234375 15.40625 
Q 45.265625 7.28125 39.375 3.03125 
Q 33.5 -1.21875 25.59375 -1.21875 
Q 17.1875 -1.21875 11.859375 3.4375 
Q 6.546875 8.109375 5.46875 16.546875 
z
M 41.453125 48.140625 
Q 41.453125 55.71875 37.421875 60.15625 
Q 33.40625 64.59375 27.734375 64.59375 
Q 21.875 64.59375 17.53125 59.8125 
Q 13.1875 55.03125 13.1875 47.40625 
Q 13.1875 40.578125 17.3125 36.296875 
Q 21.4375 32.03125 27.484375 32.03125 
Q 33.59375 32.03125 37.515625 36.296875 
Q 41.453125 40.578125 41.453125 48.140625 
z
" id="ArialMT-57"/>
       <path d="M 50.34375 8.453125 
L 50.34375 0 
L 3.03125 0 
Q 2.9375 3.171875 4.046875 6.109375 
Q 5.859375 10.9375 9.828125 15.625 
Q 13.8125 20.3125 21.34375 26.46875 
Q 33.015625 36.03125 37.109375 41.625 
Q 41.21875 47.21875 41.21875 52.203125 
Q 41.21875 57.421875 37.46875 61 
Q 33.734375 64.59375 27.734375 64.59375 
Q 21.390625 64.59375 17.578125 60.78125 
Q 13.765625 56.984375 13.71875 50.25 
L 4.6875 51.171875 
Q 5.609375 61.28125 11.65625 66.578125 
Q 17.71875 71.875 27.9375 71.875 
Q 38.234375 71.875 44.234375 66.15625 
Q 50.25 60.453125 50.25 52 
Q 50.25 47.703125 48.484375 43.546875 
Q 46.734375 39.40625 42.65625 34.8125 
Q 38.578125 30.21875 29.109375 22.21875 
Q 21.1875 15.578125 18.9375 13.203125 
Q 16.703125 10.84375 15.234375 8.453125 
z
" id="ArialMT-50"/>
       <path d="M 4.734375 62.203125 
L 4.734375 70.65625 
L 51.078125 70.65625 
L 51.078125 63.8125 
Q 44.234375 56.546875 37.515625 44.484375 
Q 30.8125 32.421875 27.15625 19.671875 
Q 24.515625 10.6875 23.78125 0 
L 14.75 0 
Q 14.890625 8.453125 18.0625 20.40625 
Q 21.234375 32.375 27.171875 43.484375 
Q 33.109375 54.59375 39.796875 62.203125 
z
" id="ArialMT-55"/>
      </defs>
      <g style="fill:#262626;" transform="translate(198.119109 511.1565)scale(0.16 -0.16)">
       <use xlink:href="#ArialMT-49"/>
       <use x="55.615234" xlink:href="#ArialMT-57"/>
       <use x="111.230469" xlink:href="#ArialMT-50"/>
       <use x="166.845703" xlink:href="#ArialMT-55"/>
       <use x="222.460938" xlink:href="#ArialMT-45"/>
       <use x="255.761719" xlink:href="#ArialMT-50"/>
       <use x="311.376953" xlink:href="#ArialMT-54"/>
       <use x="366.992188" xlink:href="#ArialMT-49"/>
       <use x="422.607422" xlink:href="#ArialMT-45"/>
       <use x="455.908203" xlink:href="#ArialMT-49"/>
      </g>
     </g>
    </g>
    <g id="xtick_3">
     <g id="text_3">
      <!-- 1928-281-1 -->
      <g style="fill:#262626;" transform="translate(315.815181 511.1565)scale(0.16 -0.16)">
       <use xlink:href="#ArialMT-49"/>
       <use x="55.615234" xlink:href="#ArialMT-57"/>
       <use x="111.230469" xlink:href="#ArialMT-50"/>
       <use x="166.845703" xlink:href="#ArialMT-56"/>
       <use x="222.460938" xlink:href="#ArialMT-45"/>
       <use x="255.761719" xlink:href="#ArialMT-50"/>
       <use x="311.376953" xlink:href="#ArialMT-56"/>
       <use x="366.992188" xlink:href="#ArialMT-49"/>
       <use x="422.607422" xlink:href="#ArialMT-45"/>
       <use x="455.908203" xlink:href="#ArialMT-49"/>
      </g>
     </g>
    </g>
    <g id="xtick_4">
     <g id="text_4">
      <!-- 686-1 -->
      <g style="fill:#262626;" transform="translate(453.970004 511.1565)scale(0.16 -0.16)">
       <use xlink:href="#ArialMT-54"/>
       <use x="55.615234" xlink:href="#ArialMT-56"/>
       <use x="111.230469" xlink:href="#ArialMT-54"/>
       <use x="166.845703" xlink:href="#ArialMT-45"/>
       <use x="200.146484" xlink:href="#ArialMT-49"/>
      </g>
     </g>
    </g>
    <g id="xtick_5">
     <g id="text_5">
      <!-- 686-2 -->
      <g style="fill:#262626;" transform="translate(571.666077 511.1565)scale(0.16 -0.16)">
       <use xlink:href="#ArialMT-54"/>
       <use x="55.615234" xlink:href="#ArialMT-56"/>
       <use x="111.230469" xlink:href="#ArialMT-54"/>
       <use x="166.845703" xlink:href="#ArialMT-45"/>
       <use x="200.146484" xlink:href="#ArialMT-50"/>
      </g>
     </g>
    </g>
    <g id="text_6">
     <!-- Counter id -->
     <defs>
      <path d="M 58.796875 25.09375 
L 68.265625 22.703125 
Q 65.28125 11.03125 57.546875 4.90625 
Q 49.8125 -1.21875 38.625 -1.21875 
Q 27.046875 -1.21875 19.796875 3.484375 
Q 12.546875 8.203125 8.765625 17.140625 
Q 4.984375 26.078125 4.984375 36.328125 
Q 4.984375 47.515625 9.25 55.828125 
Q 13.53125 64.15625 21.40625 68.46875 
Q 29.296875 72.796875 38.765625 72.796875 
Q 49.515625 72.796875 56.828125 67.328125 
Q 64.15625 61.859375 67.046875 51.953125 
L 57.71875 49.75 
Q 55.21875 57.5625 50.484375 61.125 
Q 45.75 64.703125 38.578125 64.703125 
Q 30.328125 64.703125 24.78125 60.734375 
Q 19.234375 56.78125 16.984375 50.109375 
Q 14.75 43.453125 14.75 36.375 
Q 14.75 27.25 17.40625 20.4375 
Q 20.0625 13.625 25.671875 10.25 
Q 31.296875 6.890625 37.84375 6.890625 
Q 45.796875 6.890625 51.3125 11.46875 
Q 56.84375 16.0625 58.796875 25.09375 
z
" id="ArialMT-67"/>
      <path d="M 3.328125 25.921875 
Q 3.328125 40.328125 11.328125 47.265625 
Q 18.015625 53.03125 27.640625 53.03125 
Q 38.328125 53.03125 45.109375 46.015625 
Q 51.90625 39.015625 51.90625 26.65625 
Q 51.90625 16.65625 48.90625 10.90625 
Q 45.90625 5.171875 40.15625 2 
Q 34.421875 -1.171875 27.640625 -1.171875 
Q 16.75 -1.171875 10.03125 5.8125 
Q 3.328125 12.796875 3.328125 25.921875 
z
M 12.359375 25.921875 
Q 12.359375 15.96875 16.703125 11.015625 
Q 21.046875 6.0625 27.640625 6.0625 
Q 34.1875 6.0625 38.53125 11.03125 
Q 42.875 16.015625 42.875 26.21875 
Q 42.875 35.84375 38.5 40.796875 
Q 34.125 45.75 27.640625 45.75 
Q 21.046875 45.75 16.703125 40.8125 
Q 12.359375 35.890625 12.359375 25.921875 
z
" id="ArialMT-111"/>
      <path d="M 40.578125 0 
L 40.578125 7.625 
Q 34.515625 -1.171875 24.125 -1.171875 
Q 19.53125 -1.171875 15.546875 0.578125 
Q 11.578125 2.34375 9.640625 5 
Q 7.71875 7.671875 6.9375 11.53125 
Q 6.390625 14.109375 6.390625 19.734375 
L 6.390625 51.859375 
L 15.1875 51.859375 
L 15.1875 23.09375 
Q 15.1875 16.21875 15.71875 13.8125 
Q 16.546875 10.359375 19.234375 8.375 
Q 21.921875 6.390625 25.875 6.390625 
Q 29.828125 6.390625 33.296875 8.421875 
Q 36.765625 10.453125 38.203125 13.9375 
Q 39.65625 17.4375 39.65625 24.078125 
L 39.65625 51.859375 
L 48.4375 51.859375 
L 48.4375 0 
z
" id="ArialMT-117"/>
      <path d="M 6.59375 0 
L 6.59375 51.859375 
L 14.5 51.859375 
L 14.5 44.484375 
Q 20.21875 53.03125 31 53.03125 
Q 35.6875 53.03125 39.625 51.34375 
Q 43.5625 49.65625 45.515625 46.921875 
Q 47.46875 44.1875 48.25 40.4375 
Q 48.734375 37.984375 48.734375 31.890625 
L 48.734375 0 
L 39.9375 0 
L 39.9375 31.546875 
Q 39.9375 36.921875 38.90625 39.578125 
Q 37.890625 42.234375 35.28125 43.8125 
Q 32.671875 45.40625 29.15625 45.40625 
Q 23.53125 45.40625 19.453125 41.84375 
Q 15.375 38.28125 15.375 28.328125 
L 15.375 0 
z
" id="ArialMT-110"/>
      <path d="M 25.78125 7.859375 
L 27.046875 0.09375 
Q 23.34375 -0.6875 20.40625 -0.6875 
Q 15.625 -0.6875 12.984375 0.828125 
Q 10.359375 2.34375 9.28125 4.8125 
Q 8.203125 7.28125 8.203125 15.1875 
L 8.203125 45.015625 
L 1.765625 45.015625 
L 1.765625 51.859375 
L 8.203125 51.859375 
L 8.203125 64.703125 
L 16.9375 69.96875 
L 16.9375 51.859375 
L 25.78125 51.859375 
L 25.78125 45.015625 
L 16.9375 45.015625 
L 16.9375 14.703125 
Q 16.9375 10.9375 17.40625 9.859375 
Q 17.875 8.796875 18.921875 8.15625 
Q 19.96875 7.515625 21.921875 7.515625 
Q 23.390625 7.515625 25.78125 7.859375 
z
" id="ArialMT-116"/>
      <path d="M 42.09375 16.703125 
L 51.171875 15.578125 
Q 49.03125 7.625 43.21875 3.21875 
Q 37.40625 -1.171875 28.375 -1.171875 
Q 17 -1.171875 10.328125 5.828125 
Q 3.65625 12.84375 3.65625 25.484375 
Q 3.65625 38.578125 10.390625 45.796875 
Q 17.140625 53.03125 27.875 53.03125 
Q 38.28125 53.03125 44.875 45.953125 
Q 51.46875 38.875 51.46875 26.03125 
Q 51.46875 25.25 51.421875 23.6875 
L 12.75 23.6875 
Q 13.234375 15.140625 17.578125 10.59375 
Q 21.921875 6.0625 28.421875 6.0625 
Q 33.25 6.0625 36.671875 8.59375 
Q 40.09375 11.140625 42.09375 16.703125 
z
M 13.234375 30.90625 
L 42.1875 30.90625 
Q 41.609375 37.453125 38.875 40.71875 
Q 34.671875 45.796875 27.984375 45.796875 
Q 21.921875 45.796875 17.796875 41.75 
Q 13.671875 37.703125 13.234375 30.90625 
z
" id="ArialMT-101"/>
      <path d="M 6.5 0 
L 6.5 51.859375 
L 14.40625 51.859375 
L 14.40625 44 
Q 17.4375 49.515625 20 51.265625 
Q 22.5625 53.03125 25.640625 53.03125 
Q 30.078125 53.03125 34.671875 50.203125 
L 31.640625 42.046875 
Q 28.421875 43.953125 25.203125 43.953125 
Q 22.3125 43.953125 20.015625 42.21875 
Q 17.71875 40.484375 16.75 37.40625 
Q 15.28125 32.71875 15.28125 27.15625 
L 15.28125 0 
z
" id="ArialMT-114"/>
      <path id="ArialMT-32"/>
      <path d="M 6.640625 61.46875 
L 6.640625 71.578125 
L 15.4375 71.578125 
L 15.4375 61.46875 
z
M 6.640625 0 
L 6.640625 51.859375 
L 15.4375 51.859375 
L 15.4375 0 
z
" id="ArialMT-105"/>
      <path d="M 40.234375 0 
L 40.234375 6.546875 
Q 35.296875 -1.171875 25.734375 -1.171875 
Q 19.53125 -1.171875 14.328125 2.25 
Q 9.125 5.671875 6.265625 11.796875 
Q 3.421875 17.921875 3.421875 25.875 
Q 3.421875 33.640625 6 39.96875 
Q 8.59375 46.296875 13.765625 49.65625 
Q 18.953125 53.03125 25.34375 53.03125 
Q 30.03125 53.03125 33.6875 51.046875 
Q 37.359375 49.078125 39.65625 45.90625 
L 39.65625 71.578125 
L 48.390625 71.578125 
L 48.390625 0 
z
M 12.453125 25.875 
Q 12.453125 15.921875 16.640625 10.984375 
Q 20.84375 6.0625 26.5625 6.0625 
Q 32.328125 6.0625 36.34375 10.765625 
Q 40.375 15.484375 40.375 25.140625 
Q 40.375 35.796875 36.265625 40.765625 
Q 32.171875 45.75 26.171875 45.75 
Q 20.3125 45.75 16.375 40.96875 
Q 12.453125 36.1875 12.453125 25.875 
z
" id="ArialMT-100"/>
     </defs>
     <g style="fill:#262626;" transform="translate(319.825181 529.789)scale(0.16 -0.16)">
      <use xlink:href="#ArialMT-67"/>
      <use x="72.216797" xlink:href="#ArialMT-111"/>
      <use x="127.832031" xlink:href="#ArialMT-117"/>
      <use x="183.447266" xlink:href="#ArialMT-110"/>
      <use x="239.0625" xlink:href="#ArialMT-116"/>
      <use x="266.845703" xlink:href="#ArialMT-101"/>
      <use x="322.460938" xlink:href="#ArialMT-114"/>
      <use x="355.761719" xlink:href="#ArialMT-32"/>
      <use x="383.544922" xlink:href="#ArialMT-105"/>
      <use x="405.761719" xlink:href="#ArialMT-100"/>
     </g>
    </g>
   </g>
   <g id="matplotlib.axis_2">
    <g id="ytick_1">
     <g id="text_7">
      <!-- 0 -->
      <g style="fill:#262626;" transform="translate(46.595 476.361886)scale(0.16 -0.16)">
       <use xlink:href="#ArialMT-48"/>
      </g>
     </g>
    </g>
    <g id="ytick_2">
     <g id="text_8">
      <!-- 100 -->
      <g style="fill:#262626;" transform="translate(28.8 401.043239)scale(0.16 -0.16)">
       <use xlink:href="#ArialMT-49"/>
       <use x="55.615234" xlink:href="#ArialMT-48"/>
       <use x="111.230469" xlink:href="#ArialMT-48"/>
      </g>
     </g>
    </g>
    <g id="ytick_3">
     <g id="text_9">
      <!-- 200 -->
      <g style="fill:#262626;" transform="translate(28.8 325.724592)scale(0.16 -0.16)">
       <use xlink:href="#ArialMT-50"/>
       <use x="55.615234" xlink:href="#ArialMT-48"/>
       <use x="111.230469" xlink:href="#ArialMT-48"/>
      </g>
     </g>
    </g>
    <g id="ytick_4">
     <g id="text_10">
      <!-- 300 -->
      <defs>
       <path d="M 4.203125 18.890625 
L 12.984375 20.0625 
Q 14.5 12.59375 18.140625 9.296875 
Q 21.78125 6 27 6 
Q 33.203125 6 37.46875 10.296875 
Q 41.75 14.59375 41.75 20.953125 
Q 41.75 27 37.796875 30.921875 
Q 33.84375 34.859375 27.734375 34.859375 
Q 25.25 34.859375 21.53125 33.890625 
L 22.515625 41.609375 
Q 23.390625 41.5 23.921875 41.5 
Q 29.546875 41.5 34.03125 44.421875 
Q 38.53125 47.359375 38.53125 53.46875 
Q 38.53125 58.296875 35.25 61.46875 
Q 31.984375 64.65625 26.8125 64.65625 
Q 21.6875 64.65625 18.265625 61.421875 
Q 14.84375 58.203125 13.875 51.765625 
L 5.078125 53.328125 
Q 6.6875 62.15625 12.390625 67.015625 
Q 18.109375 71.875 26.609375 71.875 
Q 32.46875 71.875 37.390625 69.359375 
Q 42.328125 66.84375 44.9375 62.5 
Q 47.5625 58.15625 47.5625 53.265625 
Q 47.5625 48.640625 45.0625 44.828125 
Q 42.578125 41.015625 37.703125 38.765625 
Q 44.046875 37.3125 47.5625 32.6875 
Q 51.078125 28.078125 51.078125 21.140625 
Q 51.078125 11.765625 44.234375 5.25 
Q 37.40625 -1.265625 26.953125 -1.265625 
Q 17.53125 -1.265625 11.296875 4.34375 
Q 5.078125 9.96875 4.203125 18.890625 
z
" id="ArialMT-51"/>
      </defs>
      <g style="fill:#262626;" transform="translate(28.8 250.405945)scale(0.16 -0.16)">
       <use xlink:href="#ArialMT-51"/>
       <use x="55.615234" xlink:href="#ArialMT-48"/>
       <use x="111.230469" xlink:href="#ArialMT-48"/>
      </g>
     </g>
    </g>
    <g id="ytick_5">
     <g id="text_11">
      <!-- 400 -->
      <defs>
       <path d="M 32.328125 0 
L 32.328125 17.140625 
L 1.265625 17.140625 
L 1.265625 25.203125 
L 33.9375 71.578125 
L 41.109375 71.578125 
L 41.109375 25.203125 
L 50.78125 25.203125 
L 50.78125 17.140625 
L 41.109375 17.140625 
L 41.109375 0 
z
M 32.328125 25.203125 
L 32.328125 57.46875 
L 9.90625 25.203125 
z
" id="ArialMT-52"/>
      </defs>
      <g style="fill:#262626;" transform="translate(28.8 175.087297)scale(0.16 -0.16)">
       <use xlink:href="#ArialMT-52"/>
       <use x="55.615234" xlink:href="#ArialMT-48"/>
       <use x="111.230469" xlink:href="#ArialMT-48"/>
      </g>
     </g>
    </g>
    <g id="ytick_6">
     <g id="text_12">
      <!-- 500 -->
      <g style="fill:#262626;" transform="translate(28.8 99.76865)scale(0.16 -0.16)">
       <use xlink:href="#ArialMT-53"/>
       <use x="55.615234" xlink:href="#ArialMT-48"/>
       <use x="111.230469" xlink:href="#ArialMT-48"/>
      </g>
     </g>
    </g>
    <g id="ytick_7">
     <g id="text_13">
      <!-- 600 -->
      <g style="fill:#262626;" transform="translate(28.8 24.450003)scale(0.16 -0.16)">
       <use xlink:href="#ArialMT-54"/>
       <use x="55.615234" xlink:href="#ArialMT-48"/>
       <use x="111.230469" xlink:href="#ArialMT-48"/>
      </g>
     </g>
    </g>
    <g id="text_14">
     <!-- Count [$h^{-1}$] -->
     <defs>
      <path d="M 6.78125 -19.875 
L 6.78125 71.578125 
L 26.171875 71.578125 
L 26.171875 64.3125 
L 15.578125 64.3125 
L 15.578125 -12.59375 
L 26.171875 -12.59375 
L 26.171875 -19.875 
z
" id="ArialMT-91"/>
      <path d="M 55.71875 33.015625 
L 49.3125 0 
L 40.28125 0 
L 46.6875 32.671875 
Q 47.125 34.96875 47.359375 36.71875 
Q 47.609375 38.484375 47.609375 39.5 
Q 47.609375 43.609375 45.015625 45.890625 
Q 42.4375 48.1875 37.796875 48.1875 
Q 30.5625 48.1875 25.265625 43.296875 
Q 19.96875 38.421875 18.40625 30.328125 
L 12.5 0 
L 3.515625 0 
L 18.3125 75.984375 
L 27.296875 75.984375 
L 21.484375 46.09375 
Q 24.90625 50.6875 30.21875 53.34375 
Q 35.546875 56 41.40625 56 
Q 48.640625 56 52.609375 52.09375 
Q 56.59375 48.1875 56.59375 41.109375 
Q 56.59375 39.359375 56.375 37.359375 
Q 56.15625 35.359375 55.71875 33.015625 
z
" id="DejaVuSans-Oblique-104"/>
      <path d="M 10.59375 35.5 
L 73.1875 35.5 
L 73.1875 27.203125 
L 10.59375 27.203125 
z
" id="DejaVuSans-8722"/>
      <path d="M 12.40625 8.296875 
L 28.515625 8.296875 
L 28.515625 63.921875 
L 10.984375 60.40625 
L 10.984375 69.390625 
L 28.421875 72.90625 
L 38.28125 72.90625 
L 38.28125 8.296875 
L 54.390625 8.296875 
L 54.390625 0 
L 12.40625 0 
z
" id="DejaVuSans-49"/>
      <path d="M 21.296875 -19.875 
L 1.90625 -19.875 
L 1.90625 -12.59375 
L 12.5 -12.59375 
L 12.5 64.3125 
L 1.90625 64.3125 
L 1.90625 71.578125 
L 21.296875 71.578125 
z
" id="ArialMT-93"/>
     </defs>
     <g style="fill:#262626;" transform="translate(21.6 292.112)rotate(-90)scale(0.16 -0.16)">
      <use transform="translate(0 0.684375)" xlink:href="#ArialMT-67"/>
      <use transform="translate(72.216797 0.684375)" xlink:href="#ArialMT-111"/>
      <use transform="translate(127.832031 0.684375)" xlink:href="#ArialMT-117"/>
      <use transform="translate(183.447266 0.684375)" xlink:href="#ArialMT-110"/>
      <use transform="translate(239.0625 0.684375)" xlink:href="#ArialMT-116"/>
      <use transform="translate(266.845703 0.684375)" xlink:href="#ArialMT-32"/>
      <use transform="translate(294.628906 0.684375)" xlink:href="#ArialMT-91"/>
      <use transform="translate(322.412109 0.684375)" xlink:href="#DejaVuSans-Oblique-104"/>
      <use transform="translate(393.238724 38.965625)scale(0.7)" xlink:href="#DejaVuSans-8722"/>
      <use transform="translate(451.891068 38.965625)scale(0.7)" xlink:href="#DejaVuSans-49"/>
      <use transform="translate(499.161576 0.684375)" xlink:href="#ArialMT-93"/>
     </g>
    </g>
   </g>
   <g id="PolyCollection_1">
    <defs>
     <path d="M 113.09166 -69.533364 
L 82.510984 -69.533364 
L 80.11222 -72.287439 
L 78.045274 -75.041515 
L 76.413471 -77.795591 
L 75.257976 -80.549667 
L 74.561218 -83.303743 
L 74.262107 -86.057818 
L 74.276337 -88.811894 
L 74.515268 -91.56597 
L 74.899479 -94.320046 
L 75.36613 -97.074122 
L 75.871306 -99.828197 
L 76.389067 -102.582273 
L 76.908537 -105.336349 
L 77.429853 -108.090425 
L 77.959641 -110.8445 
L 78.506726 -113.598576 
L 79.078766 -116.352652 
L 79.680147 -119.106728 
L 80.310952 -121.860804 
L 80.966522 -124.614879 
L 81.637185 -127.368955 
L 82.308154 -130.123031 
L 82.960046 -132.877107 
L 83.570518 -135.631183 
L 84.117143 -138.385258 
L 84.581007 -141.139334 
L 84.950033 -143.89341 
L 85.221044 -146.647486 
L 85.400041 -149.401561 
L 85.500839 -152.155637 
L 85.54272 -154.909713 
L 85.54784 -157.663789 
L 85.538849 -160.417865 
L 85.536842 -163.17194 
L 85.559548 -165.926016 
L 85.619756 -168.680092 
L 85.724217 -171.434168 
L 85.873383 -174.188244 
L 86.062209 -176.942319 
L 86.281863 -179.696395 
L 86.521807 -182.450471 
L 86.771569 -185.204547 
L 87.021734 -187.958622 
L 87.264109 -190.712698 
L 87.49142 -193.466774 
L 87.697043 -196.22085 
L 87.875125 -198.974926 
L 88.021129 -201.729001 
L 88.132578 -204.483077 
L 88.209698 -207.237153 
L 88.255773 -209.991229 
L 88.277197 -212.745305 
L 88.28333 -215.49938 
L 88.286203 -218.253456 
L 88.300011 -221.007532 
L 88.340191 -223.761608 
L 88.421925 -226.515684 
L 88.558125 -229.269759 
L 88.757279 -232.023835 
L 89.021776 -234.777911 
L 89.347329 -237.531987 
L 89.723845 -240.286062 
L 90.137583 -243.040138 
L 90.573998 -245.794214 
L 91.020407 -248.54829 
L 91.467728 -251.302366 
L 91.910901 -254.056441 
L 92.348129 -256.810517 
L 92.779415 -259.564593 
L 93.205036 -262.318669 
L 93.624414 -265.072745 
L 94.035598 -267.82682 
L 94.435276 -270.580896 
L 94.819144 -273.334972 
L 95.18243 -276.089048 
L 95.520479 -278.843123 
L 95.829327 -281.597199 
L 96.106209 -284.351275 
L 96.349947 -287.105351 
L 96.561097 -289.859427 
L 96.741829 -292.613502 
L 96.895535 -295.367578 
L 97.026268 -298.121654 
L 97.138131 -300.87573 
L 97.234756 -303.629806 
L 97.318962 -306.383881 
L 97.392623 -309.137957 
L 97.456739 -311.892033 
L 97.51166 -314.646109 
L 97.55742 -317.400184 
L 97.594109 -320.15426 
L 97.622203 -322.908336 
L 97.642771 -325.662412 
L 97.657486 -328.416488 
L 97.668432 -331.170563 
L 97.677751 -333.924639 
L 97.687245 -336.678715 
L 97.69807 -339.432791 
L 97.710595 -342.186867 
L 97.892048 -342.186867 
L 97.892048 -342.186867 
L 97.904573 -339.432791 
L 97.915398 -336.678715 
L 97.924893 -333.924639 
L 97.934211 -331.170563 
L 97.945158 -328.416488 
L 97.959873 -325.662412 
L 97.980441 -322.908336 
L 98.008535 -320.15426 
L 98.045224 -317.400184 
L 98.090984 -314.646109 
L 98.145904 -311.892033 
L 98.21002 -309.137957 
L 98.283681 -306.383881 
L 98.367887 -303.629806 
L 98.464513 -300.87573 
L 98.576375 -298.121654 
L 98.707109 -295.367578 
L 98.860815 -292.613502 
L 99.041547 -289.859427 
L 99.252697 -287.105351 
L 99.496435 -284.351275 
L 99.773317 -281.597199 
L 100.082164 -278.843123 
L 100.420214 -276.089048 
L 100.7835 -273.334972 
L 101.167367 -270.580896 
L 101.567046 -267.82682 
L 101.978229 -265.072745 
L 102.397608 -262.318669 
L 102.823229 -259.564593 
L 103.254515 -256.810517 
L 103.691742 -254.056441 
L 104.134916 -251.302366 
L 104.582236 -248.54829 
L 105.028646 -245.794214 
L 105.46506 -243.040138 
L 105.878799 -240.286062 
L 106.255315 -237.531987 
L 106.580868 -234.777911 
L 106.845364 -232.023835 
L 107.044519 -229.269759 
L 107.180718 -226.515684 
L 107.262453 -223.761608 
L 107.302633 -221.007532 
L 107.316441 -218.253456 
L 107.319313 -215.49938 
L 107.325446 -212.745305 
L 107.346871 -209.991229 
L 107.392946 -207.237153 
L 107.470066 -204.483077 
L 107.581514 -201.729001 
L 107.727518 -198.974926 
L 107.9056 -196.22085 
L 108.111223 -193.466774 
L 108.338534 -190.712698 
L 108.58091 -187.958622 
L 108.831075 -185.204547 
L 109.080837 -182.450471 
L 109.320781 -179.696395 
L 109.540434 -176.942319 
L 109.72926 -174.188244 
L 109.878426 -171.434168 
L 109.982887 -168.680092 
L 110.043095 -165.926016 
L 110.065802 -163.17194 
L 110.063795 -160.417865 
L 110.054804 -157.663789 
L 110.059923 -154.909713 
L 110.101805 -152.155637 
L 110.202603 -149.401561 
L 110.3816 -146.647486 
L 110.652611 -143.89341 
L 111.021637 -141.139334 
L 111.4855 -138.385258 
L 112.032126 -135.631183 
L 112.642598 -132.877107 
L 113.29449 -130.123031 
L 113.965459 -127.368955 
L 114.636121 -124.614879 
L 115.291692 -121.860804 
L 115.922497 -119.106728 
L 116.523877 -116.352652 
L 117.095918 -113.598576 
L 117.643003 -110.8445 
L 118.172791 -108.090425 
L 118.694107 -105.336349 
L 119.213576 -102.582273 
L 119.731337 -99.828197 
L 120.236513 -97.074122 
L 120.703164 -94.320046 
L 121.087376 -91.56597 
L 121.326307 -88.811894 
L 121.340536 -86.057818 
L 121.041426 -83.303743 
L 120.344667 -80.549667 
L 119.189173 -77.795591 
L 117.55737 -75.041515 
L 115.490423 -72.287439 
L 113.09166 -69.533364 
z
" id="m1b3933dcc5" style="stroke:#141414;stroke-width:1.5;"/>
    </defs>
    <g clip-path="url(#pf33196f1ee)">
     <use style="fill:#083c1d;stroke:#141414;stroke-width:1.5;" x="0" xlink:href="#m1b3933dcc5" y="540.169"/>
    </g>
   </g>
   <g id="PolyCollection_2">
    <defs>
     <path d="M 157.676587 -69.533364 
L 132.082915 -69.533364 
L 130.305785 -73.527534 
L 128.920938 -77.521705 
L 128.015841 -81.515876 
L 127.609306 -85.510046 
L 127.655691 -89.504217 
L 128.063258 -93.498388 
L 128.719577 -97.492558 
L 129.51579 -101.486729 
L 130.363641 -105.4809 
L 131.202826 -109.47507 
L 131.999776 -113.469241 
L 132.741114 -117.463412 
L 133.425473 -121.457583 
L 134.056471 -125.451753 
L 134.63823 -129.445924 
L 135.173484 -133.440095 
L 135.663527 -137.434265 
L 136.108944 -141.428436 
L 136.510265 -145.422607 
L 136.868112 -149.416777 
L 137.18283 -153.410948 
L 137.453952 -157.405119 
L 137.679952 -161.399289 
L 137.858623 -165.39346 
L 137.988145 -169.387631 
L 138.0686 -173.381801 
L 138.103455 -177.375972 
L 138.10046 -181.370143 
L 138.071566 -185.364314 
L 138.031706 -189.358484 
L 137.996642 -193.352655 
L 137.98037 -197.346826 
L 137.992744 -201.340996 
L 138.037923 -205.335167 
L 138.114033 -209.329338 
L 138.21403 -213.323508 
L 138.327446 -217.317679 
L 138.442486 -221.31185 
L 138.547998 -225.30602 
L 138.634976 -229.300191 
L 138.697486 -233.294362 
L 138.733041 -237.288532 
L 138.742485 -241.282703 
L 138.729439 -245.276874 
L 138.699348 -249.271045 
L 138.658197 -253.265215 
L 138.611128 -257.259386 
L 138.561199 -261.253557 
L 138.508663 -265.247727 
L 138.450971 -269.241898 
L 138.383568 -273.236069 
L 138.301304 -277.230239 
L 138.200127 -281.22441 
L 138.078699 -285.218581 
L 137.939609 -289.212751 
L 137.789989 -293.206922 
L 137.641391 -297.201093 
L 137.508837 -301.195263 
L 137.409044 -305.189434 
L 137.357985 -309.183605 
L 137.368203 -313.177775 
L 137.446508 -317.171946 
L 137.592709 -321.166117 
L 137.79983 -325.160288 
L 138.055779 -329.154458 
L 138.345989 -333.148629 
L 138.656216 -337.1428 
L 138.974716 -341.13697 
L 139.293315 -345.131141 
L 139.607306 -349.125312 
L 139.914513 -353.119482 
L 140.21401 -357.113653 
L 140.504962 -361.107824 
L 140.785903 -365.101994 
L 141.054551 -369.096165 
L 141.308094 -373.090336 
L 141.543818 -377.084506 
L 141.759844 -381.078677 
L 141.955781 -385.072848 
L 142.133085 -389.067019 
L 142.295019 -393.061189 
L 142.446171 -397.05536 
L 142.591647 -401.049531 
L 142.736142 -405.043701 
L 142.883114 -409.037872 
L 143.034286 -413.032043 
L 143.189563 -417.026213 
L 143.347338 -421.020384 
L 143.505059 -425.014555 
L 143.659845 -429.008725 
L 143.809013 -433.002896 
L 143.950396 -436.997067 
L 144.082455 -440.991237 
L 144.204234 -444.985408 
L 144.315229 -448.979579 
L 144.415237 -452.973749 
L 144.504231 -456.96792 
L 144.582282 -460.962091 
L 144.649536 -464.956262 
L 145.109966 -464.956262 
L 145.109966 -464.956262 
L 145.17722 -460.962091 
L 145.255271 -456.96792 
L 145.344265 -452.973749 
L 145.444272 -448.979579 
L 145.555267 -444.985408 
L 145.677046 -440.991237 
L 145.809105 -436.997067 
L 145.950488 -433.002896 
L 146.099657 -429.008725 
L 146.254443 -425.014555 
L 146.412164 -421.020384 
L 146.569939 -417.026213 
L 146.725215 -413.032043 
L 146.876387 -409.037872 
L 147.023359 -405.043701 
L 147.167854 -401.049531 
L 147.313331 -397.05536 
L 147.464482 -393.061189 
L 147.626417 -389.067019 
L 147.803721 -385.072848 
L 147.999657 -381.078677 
L 148.215683 -377.084506 
L 148.451407 -373.090336 
L 148.704951 -369.096165 
L 148.973598 -365.101994 
L 149.25454 -361.107824 
L 149.545492 -357.113653 
L 149.844989 -353.119482 
L 150.152196 -349.125312 
L 150.466187 -345.131141 
L 150.784786 -341.13697 
L 151.103286 -337.1428 
L 151.413512 -333.148629 
L 151.703722 -329.154458 
L 151.959671 -325.160288 
L 152.166792 -321.166117 
L 152.312994 -317.171946 
L 152.391299 -313.177775 
L 152.401517 -309.183605 
L 152.350457 -305.189434 
L 152.250664 -301.195263 
L 152.11811 -297.201093 
L 151.969513 -293.206922 
L 151.819893 -289.212751 
L 151.680803 -285.218581 
L 151.559375 -281.22441 
L 151.458198 -277.230239 
L 151.375934 -273.236069 
L 151.308531 -269.241898 
L 151.250839 -265.247727 
L 151.198303 -261.253557 
L 151.148374 -257.259386 
L 151.101304 -253.265215 
L 151.060154 -249.271045 
L 151.030062 -245.276874 
L 151.017017 -241.282703 
L 151.026461 -237.288532 
L 151.062015 -233.294362 
L 151.124526 -229.300191 
L 151.211504 -225.30602 
L 151.317016 -221.31185 
L 151.432056 -217.317679 
L 151.545471 -213.323508 
L 151.645469 -209.329338 
L 151.721579 -205.335167 
L 151.766758 -201.340996 
L 151.779131 -197.346826 
L 151.76286 -193.352655 
L 151.727796 -189.358484 
L 151.687936 -185.364314 
L 151.659042 -181.370143 
L 151.656047 -177.375972 
L 151.690902 -173.381801 
L 151.771357 -169.387631 
L 151.900879 -165.39346 
L 152.079549 -161.399289 
L 152.30555 -157.405119 
L 152.576671 -153.410948 
L 152.891389 -149.416777 
L 153.249237 -145.422607 
L 153.650558 -141.428436 
L 154.095975 -137.434265 
L 154.586018 -133.440095 
L 155.121272 -129.445924 
L 155.70303 -125.451753 
L 156.334029 -121.457583 
L 157.018388 -117.463412 
L 157.759726 -113.469241 
L 158.556675 -109.47507 
L 159.39586 -105.4809 
L 160.243711 -101.486729 
L 161.039924 -97.492558 
L 161.696244 -93.498388 
L 162.103811 -89.504217 
L 162.150195 -85.510046 
L 161.743661 -81.515876 
L 160.838564 -77.521705 
L 159.453716 -73.527534 
L 157.676587 -69.533364 
z
" id="m8fc45b68ba" style="stroke:#141414;stroke-width:1.5;"/>
    </defs>
    <g clip-path="url(#pf33196f1ee)">
     <use style="fill:#0e5f2f;stroke:#141414;stroke-width:1.5;" x="0" xlink:href="#m8fc45b68ba" y="540.169"/>
    </g>
   </g>
   <g id="PolyCollection_3">
    <defs>
     <path d="M 234.832731 -69.533364 
L 196.162058 -69.533364 
L 193.89006 -70.704987 
L 192.463988 -71.87661 
L 191.95818 -73.048234 
L 192.29933 -74.219857 
L 193.303251 -75.391481 
L 194.733295 -76.563104 
L 196.357794 -77.734727 
L 197.989887 -78.906351 
L 199.504107 -80.077974 
L 200.833716 -81.249598 
L 201.95722 -82.421221 
L 202.882095 -83.592844 
L 203.6308 -84.764468 
L 204.231136 -85.936091 
L 204.710961 -87.107715 
L 205.096268 -88.279338 
L 205.411281 -89.450961 
L 205.679244 -90.622585 
L 205.922753 -91.794208 
L 206.162923 -92.965832 
L 206.417271 -94.137455 
L 206.696889 -95.309078 
L 207.004052 -96.480702 
L 207.33157 -97.652325 
L 207.664703 -98.823949 
L 207.985412 -99.995572 
L 208.277663 -101.167195 
L 208.531912 -102.338819 
L 208.747223 -103.510442 
L 208.930477 -104.682066 
L 209.093275 -105.853689 
L 209.247911 -107.025312 
L 209.403788 -108.196936 
L 209.565222 -109.368559 
L 209.730904 -110.540183 
L 209.89485 -111.711806 
L 210.048449 -112.883429 
L 210.183134 -114.055053 
L 210.29311 -115.226676 
L 210.377464 -116.3983 
L 210.440998 -117.569923 
L 210.49344 -118.741546 
L 210.547169 -119.91317 
L 210.61409 -121.084793 
L 210.702577 -122.256417 
L 210.815349 -123.42804 
L 210.948847 -124.599663 
L 211.094345 -125.771287 
L 211.240529 -126.94291 
L 211.376913 -128.114534 
L 211.497039 -129.286157 
L 211.600403 -130.457781 
L 211.692351 -131.629404 
L 211.782049 -132.801027 
L 211.879359 -133.972651 
L 211.99195 -135.144274 
L 212.123697 -136.315898 
L 212.274665 -137.487521 
L 212.442186 -138.659144 
L 212.622126 -139.830768 
L 212.809712 -141.002391 
L 212.999803 -142.174015 
L 213.187022 -143.345638 
L 213.366172 -144.517261 
L 213.533066 -145.688885 
L 213.685433 -146.860508 
L 213.823382 -148.032132 
L 213.949088 -149.203755 
L 214.065756 -150.375378 
L 214.176317 -151.547002 
L 214.282425 -152.718625 
L 214.384168 -153.890249 
L 214.480489 -155.061872 
L 214.570046 -156.233495 
L 214.65201 -157.405119 
L 214.726486 -158.576742 
L 214.794416 -159.748366 
L 214.85714 -160.919989 
L 214.915876 -162.091612 
L 214.971398 -163.263236 
L 215.024008 -164.434859 
L 215.07375 -165.606483 
L 215.120663 -166.778106 
L 215.164909 -167.949729 
L 215.206687 -169.121353 
L 215.246041 -170.292976 
L 215.282703 -171.4646 
L 215.316106 -172.636223 
L 215.345577 -173.807846 
L 215.370587 -174.97947 
L 215.390955 -176.151093 
L 215.406906 -177.322717 
L 215.419013 -178.49434 
L 215.428079 -179.665963 
L 215.435011 -180.837587 
L 215.440714 -182.00921 
L 215.445991 -183.180834 
L 215.451441 -184.352457 
L 215.457377 -185.52408 
L 215.537412 -185.52408 
L 215.537412 -185.52408 
L 215.543348 -184.352457 
L 215.548798 -183.180834 
L 215.554075 -182.00921 
L 215.559778 -180.837587 
L 215.566709 -179.665963 
L 215.575775 -178.49434 
L 215.587883 -177.322717 
L 215.603834 -176.151093 
L 215.624202 -174.97947 
L 215.649212 -173.807846 
L 215.678682 -172.636223 
L 215.712086 -171.4646 
L 215.748747 -170.292976 
L 215.788101 -169.121353 
L 215.82988 -167.949729 
L 215.874125 -166.778106 
L 215.921039 -165.606483 
L 215.970781 -164.434859 
L 216.023391 -163.263236 
L 216.078912 -162.091612 
L 216.137649 -160.919989 
L 216.200373 -159.748366 
L 216.268303 -158.576742 
L 216.342779 -157.405119 
L 216.424743 -156.233495 
L 216.514299 -155.061872 
L 216.610621 -153.890249 
L 216.712363 -152.718625 
L 216.818472 -151.547002 
L 216.929032 -150.375378 
L 217.0457 -149.203755 
L 217.171406 -148.032132 
L 217.309355 -146.860508 
L 217.461722 -145.688885 
L 217.628617 -144.517261 
L 217.807767 -143.345638 
L 217.994985 -142.174015 
L 218.185077 -141.002391 
L 218.372663 -139.830768 
L 218.552603 -138.659144 
L 218.720123 -137.487521 
L 218.871092 -136.315898 
L 219.002839 -135.144274 
L 219.11543 -133.972651 
L 219.212739 -132.801027 
L 219.302437 -131.629404 
L 219.394386 -130.457781 
L 219.497749 -129.286157 
L 219.617876 -128.114534 
L 219.754259 -126.94291 
L 219.900444 -125.771287 
L 220.045941 -124.599663 
L 220.17944 -123.42804 
L 220.292211 -122.256417 
L 220.380699 -121.084793 
L 220.447619 -119.91317 
L 220.501348 -118.741546 
L 220.553791 -117.569923 
L 220.617324 -116.3983 
L 220.701678 -115.226676 
L 220.811655 -114.055053 
L 220.946339 -112.883429 
L 221.099938 -111.711806 
L 221.263885 -110.540183 
L 221.429567 -109.368559 
L 221.591001 -108.196936 
L 221.746878 -107.025312 
L 221.901514 -105.853689 
L 222.064312 -104.682066 
L 222.247566 -103.510442 
L 222.462877 -102.338819 
L 222.717126 -101.167195 
L 223.009377 -99.995572 
L 223.330086 -98.823949 
L 223.663219 -97.652325 
L 223.990737 -96.480702 
L 224.297899 -95.309078 
L 224.577518 -94.137455 
L 224.831866 -92.965832 
L 225.072036 -91.794208 
L 225.315544 -90.622585 
L 225.583508 -89.450961 
L 225.898521 -88.279338 
L 226.283827 -87.107715 
L 226.763653 -85.936091 
L 227.363989 -84.764468 
L 228.112694 -83.592844 
L 229.037569 -82.421221 
L 230.161073 -81.249598 
L 231.490682 -80.077974 
L 233.004902 -78.906351 
L 234.636995 -77.734727 
L 236.261494 -76.563104 
L 237.691537 -75.391481 
L 238.695459 -74.219857 
L 239.036609 -73.048234 
L 238.5308 -71.87661 
L 237.104728 -70.704987 
L 234.832731 -69.533364 
z
" id="m092955cf72" style="stroke:#141414;stroke-width:1.5;"/>
    </defs>
    <g clip-path="url(#pf33196f1ee)">
     <use style="fill:#083c1d;stroke:#141414;stroke-width:1.5;" x="0" xlink:href="#m092955cf72" y="540.169"/>
    </g>
   </g>
   <g id="PolyCollection_4">
    <defs>
     <path d="M 274.570388 -69.533364 
L 250.581259 -69.533364 
L 249.563695 -71.412526 
L 249.262053 -73.291688 
L 249.632183 -75.17085 
L 250.49875 -77.050012 
L 251.620671 -78.929175 
L 252.766796 -80.808337 
L 253.771756 -82.687499 
L 254.556947 -84.566661 
L 255.119657 -86.445824 
L 255.504544 -88.324986 
L 255.773013 -90.204148 
L 255.980571 -92.08331 
L 256.165337 -93.962472 
L 256.345993 -95.841635 
L 256.525623 -97.720797 
L 256.698101 -99.599959 
L 256.854653 -101.479121 
L 256.989049 -103.358283 
L 257.100393 -105.237446 
L 257.19307 -107.116608 
L 257.274208 -108.99577 
L 257.350025 -110.874932 
L 257.422928 -112.754094 
L 257.490872 -114.633257 
L 257.549261 -116.512419 
L 257.594246 -118.391581 
L 257.625629 -120.270743 
L 257.647878 -122.149905 
L 257.668956 -124.029068 
L 257.697764 -125.90823 
L 257.741559 -127.787392 
L 257.804397 -129.666554 
L 257.886909 -131.545717 
L 257.986957 -133.424879 
L 258.100477 -135.304041 
L 258.222057 -137.183203 
L 258.345348 -139.062365 
L 258.463705 -140.941528 
L 258.571304 -142.82069 
L 258.664494 -144.699852 
L 258.742721 -146.579014 
L 258.80847 -148.458176 
L 258.866203 -150.337339 
L 258.920865 -152.216501 
L 258.976657 -154.095663 
L 259.036507 -155.974825 
L 259.102117 -157.853987 
L 259.174225 -159.73315 
L 259.252819 -161.612312 
L 259.337306 -163.491474 
L 259.42681 -165.370636 
L 259.520619 -167.249798 
L 259.618599 -169.128961 
L 259.721286 -171.008123 
L 259.829559 -172.887285 
L 259.944098 -174.766447 
L 260.064954 -176.64561 
L 260.191456 -178.524772 
L 260.322433 -180.403934 
L 260.456511 -182.283096 
L 260.592276 -184.162258 
L 260.72826 -186.041421 
L 260.862811 -187.920583 
L 260.994027 -189.799745 
L 261.119862 -191.678907 
L 261.238387 -193.558069 
L 261.348104 -195.437232 
L 261.448171 -197.316394 
L 261.538428 -199.195556 
L 261.619225 -201.074718 
L 261.69113 -202.95388 
L 261.754622 -204.833043 
L 261.809885 -206.712205 
L 261.85678 -208.591367 
L 261.895062 -210.470529 
L 261.924773 -212.349691 
L 261.946679 -214.228854 
L 261.962517 -216.108016 
L 261.974884 -217.987178 
L 261.986752 -219.86634 
L 262.000775 -221.745503 
L 262.018652 -223.624665 
L 262.040794 -225.503827 
L 262.066403 -227.382989 
L 262.093876 -229.262151 
L 262.121366 -231.141314 
L 262.147288 -233.020476 
L 262.17065 -234.899638 
L 262.191187 -236.7788 
L 262.209334 -238.657962 
L 262.22608 -240.537125 
L 262.242744 -242.416287 
L 262.260706 -244.295449 
L 262.281147 -246.174611 
L 262.304855 -248.053773 
L 262.332095 -249.932936 
L 262.362546 -251.812098 
L 262.395283 -253.69126 
L 262.428836 -255.570422 
L 262.722811 -255.570422 
L 262.722811 -255.570422 
L 262.756364 -253.69126 
L 262.7891 -251.812098 
L 262.819552 -249.932936 
L 262.846792 -248.053773 
L 262.870499 -246.174611 
L 262.890941 -244.295449 
L 262.908903 -242.416287 
L 262.925567 -240.537125 
L 262.942313 -238.657962 
L 262.960459 -236.7788 
L 262.980996 -234.899638 
L 263.004358 -233.020476 
L 263.03028 -231.141314 
L 263.057771 -229.262151 
L 263.085244 -227.382989 
L 263.110852 -225.503827 
L 263.132995 -223.624665 
L 263.150872 -221.745503 
L 263.164895 -219.86634 
L 263.176763 -217.987178 
L 263.18913 -216.108016 
L 263.204968 -214.228854 
L 263.226874 -212.349691 
L 263.256585 -210.470529 
L 263.294867 -208.591367 
L 263.341762 -206.712205 
L 263.397025 -204.833043 
L 263.460517 -202.95388 
L 263.532422 -201.074718 
L 263.613219 -199.195556 
L 263.703476 -197.316394 
L 263.803543 -195.437232 
L 263.91326 -193.558069 
L 264.031784 -191.678907 
L 264.15762 -189.799745 
L 264.288836 -187.920583 
L 264.423386 -186.041421 
L 264.55937 -184.162258 
L 264.695136 -182.283096 
L 264.829213 -180.403934 
L 264.960191 -178.524772 
L 265.086693 -176.64561 
L 265.207548 -174.766447 
L 265.322088 -172.887285 
L 265.430361 -171.008123 
L 265.533047 -169.128961 
L 265.631028 -167.249798 
L 265.724837 -165.370636 
L 265.814341 -163.491474 
L 265.898828 -161.612312 
L 265.977422 -159.73315 
L 266.04953 -157.853987 
L 266.115139 -155.974825 
L 266.17499 -154.095663 
L 266.230782 -152.216501 
L 266.285444 -150.337339 
L 266.343177 -148.458176 
L 266.408926 -146.579014 
L 266.487153 -144.699852 
L 266.580343 -142.82069 
L 266.687942 -140.941528 
L 266.806298 -139.062365 
L 266.92959 -137.183203 
L 267.05117 -135.304041 
L 267.164689 -133.424879 
L 267.264737 -131.545717 
L 267.347249 -129.666554 
L 267.410088 -127.787392 
L 267.453882 -125.90823 
L 267.482691 -124.029068 
L 267.503768 -122.149905 
L 267.526017 -120.270743 
L 267.5574 -118.391581 
L 267.602386 -116.512419 
L 267.660775 -114.633257 
L 267.728719 -112.754094 
L 267.801621 -110.874932 
L 267.877438 -108.99577 
L 267.958577 -107.116608 
L 268.051253 -105.237446 
L 268.162598 -103.358283 
L 268.296993 -101.479121 
L 268.453546 -99.599959 
L 268.626024 -97.720797 
L 268.805654 -95.841635 
L 268.98631 -93.962472 
L 269.171076 -92.08331 
L 269.378634 -90.204148 
L 269.647103 -88.324986 
L 270.03199 -86.445824 
L 270.594699 -84.566661 
L 271.379891 -82.687499 
L 272.38485 -80.808337 
L 273.530975 -78.929175 
L 274.652897 -77.050012 
L 275.519463 -75.17085 
L 275.889593 -73.291688 
L 275.587952 -71.412526 
L 274.570388 -69.533364 
z
" id="m41aa1bdc93" style="stroke:#141414;stroke-width:1.5;"/>
    </defs>
    <g clip-path="url(#pf33196f1ee)">
     <use style="fill:#0e5f2f;stroke:#141414;stroke-width:1.5;" x="0" xlink:href="#m41aa1bdc93" y="540.169"/>
    </g>
   </g>
   <g id="PolyCollection_5">
    <defs>
     <path d="M 350.58961 -69.533364 
L 315.797324 -69.533364 
L 313.046467 -70.682163 
L 311.023371 -71.830963 
L 309.888899 -72.979762 
L 309.654252 -74.128562 
L 310.201132 -75.277361 
L 311.329924 -76.426161 
L 312.814446 -77.574961 
L 314.446241 -78.72376 
L 316.060894 -79.87256 
L 317.547219 -81.021359 
L 318.844233 -82.170159 
L 319.931312 -83.318958 
L 320.815691 -84.467758 
L 321.520135 -85.616558 
L 322.072756 -86.765357 
L 322.500319 -87.914157 
L 322.825611 -89.062956 
L 323.068279 -90.211756 
L 323.2474 -91.360555 
L 323.383629 -92.509355 
L 323.49946 -93.658155 
L 323.617543 -94.806954 
L 323.758119 -95.955754 
L 323.936782 -97.104553 
L 324.163103 -98.253353 
L 324.439966 -99.402152 
L 324.763393 -100.550952 
L 325.122985 -101.699752 
L 325.503287 -102.848551 
L 325.885998 -103.997351 
L 326.252446 -105.14615 
L 326.585694 -106.29495 
L 326.872168 -107.443749 
L 327.103244 -108.592549 
L 327.277057 -109.741349 
L 327.399967 -110.890148 
L 327.486428 -112.038948 
L 327.556316 -113.187747 
L 327.630044 -114.336547 
L 327.723153 -115.485346 
L 327.842472 -116.634146 
L 327.985167 -117.782946 
L 328.140682 -118.931745 
L 328.294649 -120.080545 
L 328.433564 -121.229344 
L 328.549137 -122.378144 
L 328.6413 -123.526943 
L 328.718904 -124.675743 
L 328.797532 -125.824543 
L 328.89477 -126.973342 
L 329.024479 -128.122142 
L 329.192263 -129.270941 
L 329.394061 -130.419741 
L 329.618385 -131.56854 
L 329.851034 -132.71734 
L 330.080028 -133.866139 
L 330.298542 -135.014939 
L 330.504891 -136.163739 
L 330.7002 -137.312538 
L 330.885536 -138.461338 
L 331.060271 -139.610137 
L 331.222416 -140.758937 
L 331.37034 -141.907736 
L 331.504426 -143.056536 
L 331.627466 -144.205336 
L 331.743503 -145.354135 
L 331.855913 -146.502935 
L 331.965966 -147.651734 
L 332.072672 -148.800534 
L 332.173884 -149.949333 
L 332.267855 -151.098133 
L 332.354316 -152.246933 
L 332.434551 -153.395732 
L 332.510617 -154.544532 
L 332.584286 -155.693331 
L 332.656295 -156.842131 
L 332.726203 -157.99093 
L 332.792727 -159.13973 
L 332.85427 -160.28853 
L 332.909359 -161.437329 
L 332.95692 -162.586129 
L 332.996434 -163.734928 
L 333.028044 -164.883728 
L 333.052607 -166.032527 
L 333.07159 -167.181327 
L 333.086787 -168.330127 
L 333.099902 -169.478926 
L 333.112186 -170.627726 
L 333.124238 -171.776525 
L 333.136038 -172.925325 
L 333.147128 -174.074124 
L 333.156865 -175.222924 
L 333.164657 -176.371724 
L 333.170146 -177.520523 
L 333.173344 -178.669323 
L 333.174659 -179.818122 
L 333.174823 -180.966922 
L 333.174701 -182.115721 
L 333.175046 -183.264521 
L 333.211888 -183.264521 
L 333.211888 -183.264521 
L 333.212233 -182.115721 
L 333.21211 -180.966922 
L 333.212275 -179.818122 
L 333.21359 -178.669323 
L 333.216787 -177.520523 
L 333.222277 -176.371724 
L 333.230068 -175.222924 
L 333.239806 -174.074124 
L 333.250896 -172.925325 
L 333.262695 -171.776525 
L 333.274748 -170.627726 
L 333.287032 -169.478926 
L 333.300147 -168.330127 
L 333.315344 -167.181327 
L 333.334327 -166.032527 
L 333.35889 -164.883728 
L 333.3905 -163.734928 
L 333.430014 -162.586129 
L 333.477575 -161.437329 
L 333.532664 -160.28853 
L 333.594206 -159.13973 
L 333.660731 -157.99093 
L 333.730639 -156.842131 
L 333.802648 -155.693331 
L 333.876316 -154.544532 
L 333.952383 -153.395732 
L 334.032618 -152.246933 
L 334.119079 -151.098133 
L 334.21305 -149.949333 
L 334.314262 -148.800534 
L 334.420968 -147.651734 
L 334.531021 -146.502935 
L 334.643431 -145.354135 
L 334.759468 -144.205336 
L 334.882508 -143.056536 
L 335.016594 -141.907736 
L 335.164517 -140.758937 
L 335.326663 -139.610137 
L 335.501398 -138.461338 
L 335.686734 -137.312538 
L 335.882043 -136.163739 
L 336.088392 -135.014939 
L 336.306906 -133.866139 
L 336.535899 -132.71734 
L 336.768549 -131.56854 
L 336.992873 -130.419741 
L 337.194671 -129.270941 
L 337.362455 -128.122142 
L 337.492163 -126.973342 
L 337.589402 -125.824543 
L 337.668029 -124.675743 
L 337.745634 -123.526943 
L 337.837797 -122.378144 
L 337.95337 -121.229344 
L 338.092285 -120.080545 
L 338.246252 -118.931745 
L 338.401767 -117.782946 
L 338.544462 -116.634146 
L 338.663781 -115.485346 
L 338.756889 -114.336547 
L 338.830618 -113.187747 
L 338.900506 -112.038948 
L 338.986967 -110.890148 
L 339.109877 -109.741349 
L 339.28369 -108.592549 
L 339.514766 -107.443749 
L 339.80124 -106.29495 
L 340.134488 -105.14615 
L 340.500936 -103.997351 
L 340.883647 -102.848551 
L 341.263949 -101.699752 
L 341.623541 -100.550952 
L 341.946968 -99.402152 
L 342.223831 -98.253353 
L 342.450152 -97.104553 
L 342.628815 -95.955754 
L 342.76939 -94.806954 
L 342.887474 -93.658155 
L 343.003305 -92.509355 
L 343.139534 -91.360555 
L 343.318655 -90.211756 
L 343.561323 -89.062956 
L 343.886615 -87.914157 
L 344.314178 -86.765357 
L 344.866799 -85.616558 
L 345.571243 -84.467758 
L 346.455621 -83.318958 
L 347.542701 -82.170159 
L 348.839715 -81.021359 
L 350.32604 -79.87256 
L 351.940692 -78.72376 
L 353.572487 -77.574961 
L 355.05701 -76.426161 
L 356.185801 -75.277361 
L 356.732681 -74.128562 
L 356.498035 -72.979762 
L 355.363563 -71.830963 
L 353.340466 -70.682163 
L 350.58961 -69.533364 
z
" id="m93b7c3cb12" style="stroke:#141414;stroke-width:1.5;"/>
    </defs>
    <g clip-path="url(#pf33196f1ee)">
     <use style="fill:#083c1d;stroke:#141414;stroke-width:1.5;" x="0" xlink:href="#m93b7c3cb12" y="540.169"/>
    </g>
   </g>
   <g id="PolyCollection_6">
    <defs>
     <path d="M 391.763823 -69.533364 
L 368.779968 -69.533364 
L 367.530833 -71.245151 
L 366.820875 -72.956939 
L 366.670165 -74.668726 
L 367.003682 -76.380513 
L 367.682814 -78.092301 
L 368.54864 -79.804088 
L 369.46023 -81.515876 
L 370.317172 -83.227663 
L 371.064476 -84.939451 
L 371.684842 -86.651238 
L 372.185581 -88.363025 
L 372.586116 -90.074813 
L 372.909071 -91.7866 
L 373.175413 -93.498388 
L 373.402659 -95.210175 
L 373.60471 -96.921963 
L 373.7921 -98.63375 
L 373.971975 -100.345538 
L 374.147797 -102.057325 
L 374.319213 -103.769112 
L 374.482671 -105.4809 
L 374.63294 -107.192687 
L 374.765204 -108.904475 
L 374.876899 -110.616262 
L 374.968599 -112.32805 
L 375.043663 -114.039837 
L 375.107016 -115.751624 
L 375.163772 -117.463412 
L 375.218321 -119.175199 
L 375.274107 -120.886987 
L 375.333896 -122.598774 
L 375.400144 -124.310562 
L 375.475163 -126.022349 
L 375.560999 -127.734136 
L 375.659136 -129.445924 
L 375.77021 -131.157711 
L 375.893843 -132.869499 
L 376.028651 -134.581286 
L 376.172403 -136.293074 
L 376.32227 -138.004861 
L 376.475092 -139.716649 
L 376.627587 -141.428436 
L 376.776457 -143.140223 
L 376.918472 -144.852011 
L 377.050643 -146.563798 
L 377.170619 -148.275586 
L 377.277255 -149.987373 
L 377.371142 -151.699161 
L 377.454787 -153.410948 
L 377.532253 -155.122735 
L 377.608301 -156.834523 
L 377.687287 -158.54631 
L 377.772176 -160.258098 
L 377.863931 -161.969885 
L 377.961425 -163.681673 
L 378.061835 -165.39346 
L 378.161401 -167.105248 
L 378.256322 -168.817035 
L 378.34355 -170.528822 
L 378.421267 -172.24061 
L 378.48896 -173.952397 
L 378.547154 -175.664185 
L 378.597008 -177.375972 
L 378.639955 -179.08776 
L 378.6775 -180.799547 
L 378.711197 -182.511334 
L 378.742701 -184.223122 
L 378.773814 -185.934909 
L 378.806452 -187.646697 
L 378.842453 -189.358484 
L 378.883272 -191.070272 
L 378.92962 -192.782059 
L 378.981196 -194.493847 
L 379.036661 -196.205634 
L 379.093894 -197.917421 
L 379.150466 -199.629209 
L 379.204182 -201.340996 
L 379.253512 -203.052784 
L 379.297801 -204.764571 
L 379.337201 -206.476359 
L 379.372386 -208.188146 
L 379.404155 -209.899933 
L 379.43308 -211.611721 
L 379.459333 -213.323508 
L 379.482753 -215.035296 
L 379.503109 -216.747083 
L 379.520447 -218.458871 
L 379.535369 -220.170658 
L 379.549142 -221.882446 
L 379.563604 -223.594233 
L 379.58094 -225.30602 
L 379.603381 -227.017808 
L 379.632915 -228.729595 
L 379.671016 -230.441383 
L 379.718382 -232.15317 
L 379.774689 -233.864958 
L 379.838407 -235.576745 
L 379.906808 -237.288532 
L 379.976235 -239.00032 
L 380.567557 -239.00032 
L 380.567557 -239.00032 
L 380.636983 -237.288532 
L 380.705384 -235.576745 
L 380.769103 -233.864958 
L 380.825409 -232.15317 
L 380.872776 -230.441383 
L 380.910877 -228.729595 
L 380.940411 -227.017808 
L 380.962852 -225.30602 
L 380.980188 -223.594233 
L 380.99465 -221.882446 
L 381.008422 -220.170658 
L 381.023345 -218.458871 
L 381.040683 -216.747083 
L 381.061039 -215.035296 
L 381.084459 -213.323508 
L 381.110712 -211.611721 
L 381.139637 -209.899933 
L 381.171406 -208.188146 
L 381.206591 -206.476359 
L 381.245991 -204.764571 
L 381.29028 -203.052784 
L 381.33961 -201.340996 
L 381.393326 -199.629209 
L 381.449898 -197.917421 
L 381.507131 -196.205634 
L 381.562596 -194.493847 
L 381.614172 -192.782059 
L 381.660519 -191.070272 
L 381.701339 -189.358484 
L 381.73734 -187.646697 
L 381.769978 -185.934909 
L 381.801091 -184.223122 
L 381.832595 -182.511334 
L 381.866292 -180.799547 
L 381.903837 -179.08776 
L 381.946783 -177.375972 
L 381.996638 -175.664185 
L 382.054832 -173.952397 
L 382.122525 -172.24061 
L 382.200242 -170.528822 
L 382.28747 -168.817035 
L 382.382391 -167.105248 
L 382.481957 -165.39346 
L 382.582367 -163.681673 
L 382.679861 -161.969885 
L 382.771616 -160.258098 
L 382.856505 -158.54631 
L 382.935491 -156.834523 
L 383.011538 -155.122735 
L 383.089005 -153.410948 
L 383.17265 -151.699161 
L 383.266537 -149.987373 
L 383.373173 -148.275586 
L 383.493149 -146.563798 
L 383.62532 -144.852011 
L 383.767335 -143.140223 
L 383.916205 -141.428436 
L 384.068699 -139.716649 
L 384.221522 -138.004861 
L 384.371389 -136.293074 
L 384.515141 -134.581286 
L 384.649949 -132.869499 
L 384.773582 -131.157711 
L 384.884656 -129.445924 
L 384.982793 -127.734136 
L 385.068629 -126.022349 
L 385.143648 -124.310562 
L 385.209896 -122.598774 
L 385.269685 -120.886987 
L 385.325471 -119.175199 
L 385.38002 -117.463412 
L 385.436776 -115.751624 
L 385.500129 -114.039837 
L 385.575193 -112.32805 
L 385.666893 -110.616262 
L 385.778588 -108.904475 
L 385.910852 -107.192687 
L 386.061121 -105.4809 
L 386.224578 -103.769112 
L 386.395995 -102.057325 
L 386.571817 -100.345538 
L 386.751692 -98.63375 
L 386.939082 -96.921963 
L 387.141133 -95.210175 
L 387.368379 -93.498388 
L 387.634721 -91.7866 
L 387.957676 -90.074813 
L 388.358211 -88.363025 
L 388.858949 -86.651238 
L 389.479316 -84.939451 
L 390.22662 -83.227663 
L 391.083562 -81.515876 
L 391.995152 -79.804088 
L 392.860978 -78.092301 
L 393.540109 -76.380513 
L 393.873627 -74.668726 
L 393.722917 -72.956939 
L 393.012959 -71.245151 
L 391.763823 -69.533364 
z
" id="m4e8caeafaf" style="stroke:#141414;stroke-width:1.5;"/>
    </defs>
    <g clip-path="url(#pf33196f1ee)">
     <use style="fill:#0e5f2f;stroke:#141414;stroke-width:1.5;" x="0" xlink:href="#m4e8caeafaf" y="540.169"/>
    </g>
   </g>
   <g id="PolyCollection_7">
    <defs>
     <path d="M 470.410127 -69.533364 
L 431.368952 -69.533364 
L 429.332388 -73.961187 
L 427.967251 -78.389011 
L 427.350325 -82.816834 
L 427.45974 -87.244658 
L 428.18675 -91.672481 
L 429.363844 -96.100305 
L 430.800089 -100.528128 
L 432.314203 -104.955952 
L 433.758528 -109.383775 
L 435.031166 -113.811599 
L 436.077227 -118.239422 
L 436.882369 -122.667246 
L 437.462389 -127.095069 
L 437.852061 -131.522893 
L 438.095325 -135.950716 
L 438.237823 -140.37854 
L 438.321912 -144.806363 
L 438.383737 -149.234187 
L 438.451756 -153.66201 
L 438.546152 -158.089834 
L 438.678821 -162.517657 
L 438.853869 -166.945481 
L 439.068689 -171.373304 
L 439.315634 -175.801128 
L 439.584146 -180.228951 
L 439.862978 -184.656775 
L 440.142086 -189.084598 
L 440.413854 -193.512422 
L 440.673533 -197.940245 
L 440.919005 -202.368069 
L 441.150164 -206.795892 
L 441.36819 -211.223716 
L 441.574967 -215.651539 
L 441.772732 -220.079363 
L 441.963947 -224.507186 
L 442.151295 -228.93501 
L 442.337667 -233.362833 
L 442.526032 -237.790657 
L 442.719166 -242.21848 
L 442.919284 -246.646304 
L 443.127722 -251.074127 
L 443.344792 -255.501951 
L 443.569897 -259.929774 
L 443.801869 -264.357598 
L 444.039388 -268.785421 
L 444.281269 -273.213245 
L 444.526473 -277.641068 
L 444.773776 -282.068892 
L 445.021242 -286.496715 
L 445.265759 -290.924539 
L 445.502944 -295.352362 
L 445.727595 -299.780186 
L 445.934656 -304.208009 
L 446.120395 -308.635833 
L 446.283365 -313.063656 
L 446.424774 -317.49148 
L 446.548091 -321.919303 
L 446.658037 -326.347127 
L 446.759337 -330.77495 
L 446.85568 -335.202774 
L 446.949233 -339.630597 
L 447.040785 -344.058421 
L 447.130369 -348.486244 
L 447.218026 -352.914068 
L 447.304403 -357.341891 
L 447.390981 -361.769715 
L 447.47995 -366.197538 
L 447.573863 -370.625362 
L 447.67526 -375.053185 
L 447.786381 -379.481009 
L 447.908992 -383.908832 
L 448.044246 -388.336656 
L 448.19254 -392.764479 
L 448.353336 -397.192303 
L 448.525034 -401.620126 
L 448.704981 -406.04795 
L 448.889678 -410.475773 
L 449.07514 -414.903597 
L 449.257331 -419.33142 
L 449.432528 -423.759244 
L 449.597546 -428.187067 
L 449.749804 -432.614891 
L 449.887307 -437.042714 
L 450.008639 -441.470538 
L 450.113019 -445.898361 
L 450.200431 -450.326185 
L 450.271765 -454.754008 
L 450.328868 -459.181832 
L 450.374422 -463.609655 
L 450.411648 -468.037479 
L 450.443876 -472.465302 
L 450.474102 -476.893126 
L 450.504634 -481.320949 
L 450.536903 -485.748773 
L 450.571446 -490.176596 
L 450.608026 -494.60442 
L 450.645834 -499.032243 
L 450.683706 -503.460067 
L 450.720345 -507.88789 
L 451.058734 -507.88789 
L 451.058734 -507.88789 
L 451.095373 -503.460067 
L 451.133245 -499.032243 
L 451.171053 -494.60442 
L 451.207633 -490.176596 
L 451.242176 -485.748773 
L 451.274444 -481.320949 
L 451.304977 -476.893126 
L 451.335202 -472.465302 
L 451.36743 -468.037479 
L 451.404656 -463.609655 
L 451.450211 -459.181832 
L 451.507313 -454.754008 
L 451.578648 -450.326185 
L 451.66606 -445.898361 
L 451.77044 -441.470538 
L 451.891772 -437.042714 
L 452.029275 -432.614891 
L 452.181533 -428.187067 
L 452.346551 -423.759244 
L 452.521748 -419.33142 
L 452.703939 -414.903597 
L 452.889401 -410.475773 
L 453.074097 -406.04795 
L 453.254045 -401.620126 
L 453.425743 -397.192303 
L 453.586539 -392.764479 
L 453.734833 -388.336656 
L 453.870087 -383.908832 
L 453.992698 -379.481009 
L 454.103819 -375.053185 
L 454.205216 -370.625362 
L 454.299129 -366.197538 
L 454.388098 -361.769715 
L 454.474676 -357.341891 
L 454.561053 -352.914068 
L 454.64871 -348.486244 
L 454.738294 -344.058421 
L 454.829846 -339.630597 
L 454.923398 -335.202774 
L 455.019742 -330.77495 
L 455.121042 -326.347127 
L 455.230988 -321.919303 
L 455.354305 -317.49148 
L 455.495714 -313.063656 
L 455.658684 -308.635833 
L 455.844422 -304.208009 
L 456.051484 -299.780186 
L 456.276135 -295.352362 
L 456.51332 -290.924539 
L 456.757837 -286.496715 
L 457.005303 -282.068892 
L 457.252606 -277.641068 
L 457.49781 -273.213245 
L 457.739691 -268.785421 
L 457.97721 -264.357598 
L 458.209182 -259.929774 
L 458.434287 -255.501951 
L 458.651357 -251.074127 
L 458.859795 -246.646304 
L 459.059913 -242.21848 
L 459.253047 -237.790657 
L 459.441412 -233.362833 
L 459.627784 -228.93501 
L 459.815132 -224.507186 
L 460.006347 -220.079363 
L 460.204112 -215.651539 
L 460.410889 -211.223716 
L 460.628915 -206.795892 
L 460.860074 -202.368069 
L 461.105546 -197.940245 
L 461.365225 -193.512422 
L 461.636993 -189.084598 
L 461.916101 -184.656775 
L 462.194933 -180.228951 
L 462.463445 -175.801128 
L 462.71039 -171.373304 
L 462.92521 -166.945481 
L 463.100258 -162.517657 
L 463.232927 -158.089834 
L 463.327323 -153.66201 
L 463.395341 -149.234187 
L 463.457167 -144.806363 
L 463.541256 -140.37854 
L 463.683754 -135.950716 
L 463.927018 -131.522893 
L 464.31669 -127.095069 
L 464.89671 -122.667246 
L 465.701852 -118.239422 
L 466.747913 -113.811599 
L 468.020551 -109.383775 
L 469.464876 -104.955952 
L 470.97899 -100.528128 
L 472.415235 -96.100305 
L 473.592329 -91.672481 
L 474.319339 -87.244658 
L 474.428754 -82.816834 
L 473.811828 -78.389011 
L 472.446691 -73.961187 
L 470.410127 -69.533364 
z
" id="ma41c0218d4" style="stroke:#141414;stroke-width:1.5;"/>
    </defs>
    <g clip-path="url(#pf33196f1ee)">
     <use style="fill:#083c1d;stroke:#141414;stroke-width:1.5;" x="0" xlink:href="#ma41c0218d4" y="540.169"/>
    </g>
   </g>
   <g id="PolyCollection_8">
    <defs>
     <path d="M 517.805621 -69.533364 
L 478.130316 -69.533364 
L 476.634634 -73.930755 
L 476.195406 -78.328147 
L 476.806781 -82.725539 
L 478.286175 -87.122931 
L 480.329245 -91.520322 
L 482.59039 -95.917714 
L 484.760067 -100.315106 
L 486.61658 -104.712497 
L 488.044029 -109.109889 
L 489.021712 -113.507281 
L 489.597652 -117.904673 
L 489.858851 -122.302064 
L 489.906182 -126.699456 
L 489.836547 -131.096848 
L 489.731559 -135.49424 
L 489.651248 -139.891631 
L 489.631832 -144.289023 
L 489.687248 -148.686415 
L 489.813954 -153.083806 
L 489.997766 -157.481198 
L 490.220707 -161.87859 
L 490.465864 -166.275982 
L 490.719072 -170.673373 
L 490.967654 -175.070765 
L 491.197705 -179.468157 
L 491.391881 -183.865549 
L 491.529206 -188.26294 
L 491.587362 -192.660332 
L 491.54669 -197.057724 
L 491.394443 -201.455115 
L 491.127751 -205.852507 
L 490.754387 -210.249899 
L 490.291288 -214.647291 
L 489.76158 -219.044682 
L 489.191238 -223.442074 
L 488.606342 -227.839466 
L 488.031438 -232.236858 
L 487.488882 -236.634249 
L 486.998702 -241.031641 
L 486.578464 -245.429033 
L 486.242815 -249.826424 
L 486.002727 -254.223816 
L 485.864632 -258.621208 
L 485.829706 -263.0186 
L 485.893451 -267.415991 
L 486.045634 -271.813383 
L 486.270614 -276.210775 
L 486.5481 -280.608167 
L 486.854442 -285.005558 
L 487.164511 -289.40295 
L 487.45416 -293.800342 
L 487.703066 -298.197733 
L 487.897622 -302.595125 
L 488.033333 -306.992517 
L 488.11613 -311.389909 
L 488.162058 -315.7873 
L 488.195141 -320.184692 
L 488.243643 -324.582084 
L 488.335421 -328.979476 
L 488.493341 -333.376867 
L 488.731681 -337.774259 
L 489.054226 -342.171651 
L 489.454348 -346.569042 
L 489.916928 -350.966434 
L 490.421611 -355.363826 
L 490.946611 -359.761218 
L 491.472208 -364.158609 
L 491.983239 -368.556001 
L 492.470234 -372.953393 
L 492.92922 -377.350785 
L 493.360564 -381.748176 
L 493.767322 -386.145568 
L 494.153574 -390.54296 
L 494.523062 -394.940351 
L 494.878285 -399.337743 
L 495.220097 -403.735135 
L 495.547705 -408.132527 
L 495.858993 -412.529918 
L 496.151014 -416.92731 
L 496.420556 -421.324702 
L 496.664694 -425.722094 
L 496.881273 -430.119485 
L 497.069278 -434.516877 
L 497.229051 -438.914269 
L 497.362311 -443.31166 
L 497.471949 -447.709052 
L 497.561612 -452.106444 
L 497.635148 -456.503836 
L 497.696054 -460.901227 
L 497.747077 -465.298619 
L 497.790067 -469.696011 
L 497.826101 -474.093402 
L 497.855784 -478.490794 
L 497.879592 -482.888186 
L 497.898131 -487.285578 
L 497.912227 -491.682969 
L 497.922876 -496.080361 
L 497.931092 -500.477753 
L 497.937742 -504.875145 
L 497.998195 -504.875145 
L 497.998195 -504.875145 
L 498.004845 -500.477753 
L 498.013061 -496.080361 
L 498.02371 -491.682969 
L 498.037806 -487.285578 
L 498.056345 -482.888186 
L 498.080153 -478.490794 
L 498.109836 -474.093402 
L 498.14587 -469.696011 
L 498.18886 -465.298619 
L 498.239883 -460.901227 
L 498.300789 -456.503836 
L 498.374325 -452.106444 
L 498.463988 -447.709052 
L 498.573626 -443.31166 
L 498.706886 -438.914269 
L 498.866659 -434.516877 
L 499.054664 -430.119485 
L 499.271243 -425.722094 
L 499.515381 -421.324702 
L 499.784923 -416.92731 
L 500.076944 -412.529918 
L 500.388232 -408.132527 
L 500.71584 -403.735135 
L 501.057652 -399.337743 
L 501.412875 -394.940351 
L 501.782363 -390.54296 
L 502.168615 -386.145568 
L 502.575373 -381.748176 
L 503.006717 -377.350785 
L 503.465703 -372.953393 
L 503.952698 -368.556001 
L 504.463729 -364.158609 
L 504.989326 -359.761218 
L 505.514326 -355.363826 
L 506.019009 -350.966434 
L 506.481589 -346.569042 
L 506.881711 -342.171651 
L 507.204256 -337.774259 
L 507.442596 -333.376867 
L 507.600516 -328.979476 
L 507.692294 -324.582084 
L 507.740796 -320.184692 
L 507.773879 -315.7873 
L 507.819807 -311.389909 
L 507.902604 -306.992517 
L 508.038315 -302.595125 
L 508.232871 -298.197733 
L 508.481777 -293.800342 
L 508.771426 -289.40295 
L 509.081495 -285.005558 
L 509.387837 -280.608167 
L 509.665323 -276.210775 
L 509.890303 -271.813383 
L 510.042486 -267.415991 
L 510.106231 -263.0186 
L 510.071305 -258.621208 
L 509.93321 -254.223816 
L 509.693122 -249.826424 
L 509.357473 -245.429033 
L 508.937235 -241.031641 
L 508.447055 -236.634249 
L 507.904499 -232.236858 
L 507.329595 -227.839466 
L 506.744699 -223.442074 
L 506.174357 -219.044682 
L 505.644649 -214.647291 
L 505.18155 -210.249899 
L 504.808186 -205.852507 
L 504.541494 -201.455115 
L 504.389247 -197.057724 
L 504.348575 -192.660332 
L 504.406731 -188.26294 
L 504.544056 -183.865549 
L 504.738232 -179.468157 
L 504.968283 -175.070765 
L 505.216865 -170.673373 
L 505.470073 -166.275982 
L 505.71523 -161.87859 
L 505.938171 -157.481198 
L 506.121983 -153.083806 
L 506.248689 -148.686415 
L 506.304105 -144.289023 
L 506.284689 -139.891631 
L 506.204378 -135.49424 
L 506.09939 -131.096848 
L 506.029755 -126.699456 
L 506.077086 -122.302064 
L 506.338285 -117.904673 
L 506.914225 -113.507281 
L 507.891908 -109.109889 
L 509.319357 -104.712497 
L 511.17587 -100.315106 
L 513.345547 -95.917714 
L 515.606692 -91.520322 
L 517.649762 -87.122931 
L 519.129156 -82.725539 
L 519.740531 -78.328147 
L 519.301303 -73.930755 
L 517.805621 -69.533364 
z
" id="mb99a6019d0" style="stroke:#141414;stroke-width:1.5;"/>
    </defs>
    <g clip-path="url(#pf33196f1ee)">
     <use style="fill:#0e5f2f;stroke:#141414;stroke-width:1.5;" x="0" xlink:href="#mb99a6019d0" y="540.169"/>
    </g>
   </g>
   <g id="PolyCollection_9">
    <defs>
     <path d="M 588.23497 -69.533364 
L 548.936254 -69.533364 
L 546.872132 -73.991619 
L 545.545771 -78.449874 
L 545.046398 -82.908129 
L 545.349996 -87.366385 
L 546.330721 -91.82464 
L 547.792356 -96.282895 
L 549.509542 -100.741151 
L 551.267513 -105.199406 
L 552.891808 -109.657661 
L 554.264071 -114.115916 
L 555.324424 -118.574172 
L 556.063802 -123.032427 
L 556.510656 -127.490682 
L 556.716144 -131.948938 
L 556.740869 -136.407193 
L 556.644964 -140.865448 
L 556.482131 -145.323703 
L 556.297172 -149.781959 
L 556.12588 -154.240214 
L 555.995889 -158.698469 
L 555.927298 -163.156725 
L 555.93257 -167.61498 
L 556.01589 -172.073235 
L 556.172789 -176.53149 
L 556.390885 -180.989746 
L 556.652203 -185.448001 
L 556.936856 -189.906256 
L 557.227151 -194.364511 
L 557.51093 -198.822767 
L 557.783125 -203.281022 
L 558.045179 -207.739277 
L 558.302727 -212.197533 
L 558.562486 -216.655788 
L 558.829477 -221.114043 
L 559.105358 -225.572298 
L 559.388147 -230.030554 
L 559.67307 -234.488809 
L 559.953966 -238.947064 
L 560.224667 -243.40532 
L 560.480017 -247.863575 
L 560.71643 -252.32183 
L 560.932151 -256.780085 
L 561.127387 -261.238341 
L 561.304389 -265.696596 
L 561.467452 -270.154851 
L 561.622623 -274.613107 
L 561.776991 -279.071362 
L 561.937499 -283.529617 
L 562.109453 -287.987872 
L 562.295091 -292.446128 
L 562.492665 -296.904383 
L 562.696432 -301.362638 
L 562.897728 -305.820893 
L 563.086985 -310.279149 
L 563.25619 -314.737404 
L 563.40115 -319.195659 
L 563.522905 -323.653915 
L 563.627857 -328.11217 
L 563.72656 -332.570425 
L 563.831486 -337.02868 
L 563.954335 -341.486936 
L 564.103592 -345.945191 
L 564.282909 -350.403446 
L 564.49068 -354.861702 
L 564.72082 -359.319957 
L 564.96446 -363.778212 
L 565.21202 -368.236467 
L 565.455084 -372.694723 
L 565.687606 -377.152978 
L 565.906278 -381.611233 
L 566.110141 -386.069489 
L 566.299777 -390.527744 
L 566.476429 -394.985999 
L 566.641341 -399.444254 
L 566.79542 -403.90251 
L 566.939195 -408.360765 
L 567.072968 -412.81902 
L 567.197044 -417.277275 
L 567.311935 -421.735531 
L 567.418477 -426.193786 
L 567.517827 -430.652041 
L 567.611322 -435.110297 
L 567.700232 -439.568552 
L 567.785477 -444.026807 
L 567.867392 -448.485062 
L 567.945596 -452.943318 
L 568.019037 -457.401573 
L 568.086192 -461.859828 
L 568.145399 -466.318084 
L 568.195278 -470.776339 
L 568.235137 -475.234594 
L 568.265292 -479.692849 
L 568.287198 -484.151105 
L 568.303325 -488.60936 
L 568.316763 -493.067615 
L 568.330635 -497.525871 
L 568.347453 -501.984126 
L 568.368617 -506.442381 
L 568.394192 -510.900636 
L 568.777032 -510.900636 
L 568.777032 -510.900636 
L 568.802607 -506.442381 
L 568.823771 -501.984126 
L 568.840589 -497.525871 
L 568.854461 -493.067615 
L 568.867899 -488.60936 
L 568.884026 -484.151105 
L 568.905932 -479.692849 
L 568.936087 -475.234594 
L 568.975946 -470.776339 
L 569.025825 -466.318084 
L 569.085033 -461.859828 
L 569.152187 -457.401573 
L 569.225628 -452.943318 
L 569.303832 -448.485062 
L 569.385747 -444.026807 
L 569.470992 -439.568552 
L 569.559902 -435.110297 
L 569.653397 -430.652041 
L 569.752747 -426.193786 
L 569.85929 -421.735531 
L 569.97418 -417.277275 
L 570.098256 -412.81902 
L 570.232029 -408.360765 
L 570.375804 -403.90251 
L 570.529883 -399.444254 
L 570.694795 -394.985999 
L 570.871447 -390.527744 
L 571.061083 -386.069489 
L 571.264946 -381.611233 
L 571.483618 -377.152978 
L 571.71614 -372.694723 
L 571.959204 -368.236467 
L 572.206764 -363.778212 
L 572.450404 -359.319957 
L 572.680544 -354.861702 
L 572.888315 -350.403446 
L 573.067632 -345.945191 
L 573.216889 -341.486936 
L 573.339738 -337.02868 
L 573.444664 -332.570425 
L 573.543367 -328.11217 
L 573.648319 -323.653915 
L 573.770074 -319.195659 
L 573.915035 -314.737404 
L 574.084239 -310.279149 
L 574.273496 -305.820893 
L 574.474793 -301.362638 
L 574.678559 -296.904383 
L 574.876133 -292.446128 
L 575.061771 -287.987872 
L 575.233725 -283.529617 
L 575.394233 -279.071362 
L 575.548601 -274.613107 
L 575.703773 -270.154851 
L 575.866835 -265.696596 
L 576.043838 -261.238341 
L 576.239073 -256.780085 
L 576.454794 -252.32183 
L 576.691207 -247.863575 
L 576.946557 -243.40532 
L 577.217258 -238.947064 
L 577.498154 -234.488809 
L 577.783077 -230.030554 
L 578.065866 -225.572298 
L 578.341747 -221.114043 
L 578.608738 -216.655788 
L 578.868497 -212.197533 
L 579.126045 -207.739277 
L 579.388099 -203.281022 
L 579.660294 -198.822767 
L 579.944073 -194.364511 
L 580.234368 -189.906256 
L 580.519021 -185.448001 
L 580.780339 -180.989746 
L 580.998435 -176.53149 
L 581.155334 -172.073235 
L 581.238654 -167.61498 
L 581.243926 -163.156725 
L 581.175335 -158.698469 
L 581.045344 -154.240214 
L 580.874052 -149.781959 
L 580.689093 -145.323703 
L 580.52626 -140.865448 
L 580.430355 -136.407193 
L 580.45508 -131.948938 
L 580.660568 -127.490682 
L 581.107422 -123.032427 
L 581.8468 -118.574172 
L 582.907153 -114.115916 
L 584.279416 -109.657661 
L 585.903711 -105.199406 
L 587.661682 -100.741151 
L 589.378868 -96.282895 
L 590.840503 -91.82464 
L 591.821228 -87.366385 
L 592.124827 -82.908129 
L 591.625453 -78.449874 
L 590.299092 -73.991619 
L 588.23497 -69.533364 
z
" id="mab9a6db793" style="stroke:#141414;stroke-width:1.5;"/>
    </defs>
    <g clip-path="url(#pf33196f1ee)">
     <use style="fill:#083c1d;stroke:#141414;stroke-width:1.5;" x="0" xlink:href="#mab9a6db793" y="540.169"/>
    </g>
   </g>
   <g id="PolyCollection_10">
    <defs>
     <path d="M 634.940294 -69.533364 
L 596.387788 -69.533364 
L 594.61094 -73.915539 
L 593.753667 -78.297715 
L 593.85783 -82.679891 
L 594.816978 -87.062067 
L 596.415282 -91.444243 
L 598.388026 -95.826419 
L 600.481302 -100.208595 
L 602.493466 -104.59077 
L 604.291847 -108.972946 
L 605.808599 -113.355122 
L 607.025076 -117.737298 
L 607.953875 -122.119474 
L 608.624141 -126.50165 
L 609.071762 -130.883825 
L 609.333641 -135.266001 
L 609.444582 -139.648177 
L 609.435708 -144.030353 
L 609.333852 -148.412529 
L 609.16169 -152.794705 
L 608.93833 -157.17688 
L 608.680036 -161.559056 
L 608.400754 -165.941232 
L 608.112352 -170.323408 
L 607.824647 -174.705584 
L 607.545435 -179.08776 
L 607.280679 -183.469935 
L 607.034785 -187.852111 
L 606.810815 -192.234287 
L 606.610475 -196.616463 
L 606.433926 -200.998639 
L 606.279619 -205.380815 
L 606.144319 -209.76299 
L 606.023367 -214.145166 
L 605.910983 -218.527342 
L 605.800468 -222.909518 
L 605.68434 -227.291694 
L 605.554693 -231.67387 
L 605.404111 -236.056045 
L 605.227209 -240.438221 
L 605.022434 -244.820397 
L 604.793421 -249.202573 
L 604.549226 -253.584749 
L 604.303165 -257.966925 
L 604.070628 -262.349101 
L 603.866665 -266.731276 
L 603.704227 -271.113452 
L 603.593549 -275.495628 
L 603.542535 -279.877804 
L 603.557576 -284.25998 
L 603.644094 -288.642156 
L 603.80641 -293.024331 
L 604.04697 -297.406507 
L 604.365295 -301.788683 
L 604.757071 -306.170859 
L 605.213694 -310.553035 
L 605.722384 -314.935211 
L 606.266886 -319.317386 
L 606.828744 -323.699562 
L 607.389035 -328.081738 
L 607.930357 -332.463914 
L 608.438686 -336.84609 
L 608.904687 -341.228266 
L 609.324192 -345.610441 
L 609.697825 -349.992617 
L 610.029986 -354.374793 
L 610.32758 -358.756969 
L 610.598792 -363.139145 
L 610.852038 -367.521321 
L 611.095102 -371.903496 
L 611.334355 -376.285672 
L 611.574082 -380.667848 
L 611.816007 -385.050024 
L 612.059243 -389.4322 
L 612.300776 -393.814376 
L 612.536441 -398.196552 
L 612.762104 -402.578727 
L 612.974675 -406.960903 
L 613.17263 -411.343079 
L 613.35596 -415.725255 
L 613.525731 -420.107431 
L 613.683525 -424.489607 
L 613.831044 -428.871782 
L 613.969934 -433.253958 
L 614.10176 -437.636134 
L 614.227993 -442.01831 
L 614.349892 -446.400486 
L 614.46833 -450.782662 
L 614.583636 -455.164837 
L 614.695589 -459.547013 
L 614.803578 -463.929189 
L 614.906856 -468.311365 
L 615.004776 -472.693541 
L 615.096881 -477.075717 
L 615.182857 -481.457892 
L 615.2624 -485.840068 
L 615.335104 -490.222244 
L 615.40046 -494.60442 
L 615.457956 -498.986596 
L 615.507231 -503.368772 
L 615.820852 -503.368772 
L 615.820852 -503.368772 
L 615.870126 -498.986596 
L 615.927622 -494.60442 
L 615.992979 -490.222244 
L 616.065682 -485.840068 
L 616.145225 -481.457892 
L 616.231201 -477.075717 
L 616.323306 -472.693541 
L 616.421226 -468.311365 
L 616.524504 -463.929189 
L 616.632493 -459.547013 
L 616.744446 -455.164837 
L 616.859752 -450.782662 
L 616.97819 -446.400486 
L 617.100089 -442.01831 
L 617.226322 -437.636134 
L 617.358148 -433.253958 
L 617.497038 -428.871782 
L 617.644557 -424.489607 
L 617.802352 -420.107431 
L 617.972122 -415.725255 
L 618.155452 -411.343079 
L 618.353407 -406.960903 
L 618.565978 -402.578727 
L 618.791642 -398.196552 
L 619.027306 -393.814376 
L 619.268839 -389.4322 
L 619.512075 -385.050024 
L 619.754 -380.667848 
L 619.993727 -376.285672 
L 620.232981 -371.903496 
L 620.476044 -367.521321 
L 620.729291 -363.139145 
L 621.000502 -358.756969 
L 621.298096 -354.374793 
L 621.630257 -349.992617 
L 622.00389 -345.610441 
L 622.423396 -341.228266 
L 622.889396 -336.84609 
L 623.397725 -332.463914 
L 623.939047 -328.081738 
L 624.499338 -323.699562 
L 625.061196 -319.317386 
L 625.605698 -314.935211 
L 626.114388 -310.553035 
L 626.571011 -306.170859 
L 626.962787 -301.788683 
L 627.281112 -297.406507 
L 627.521672 -293.024331 
L 627.683988 -288.642156 
L 627.770506 -284.25998 
L 627.785548 -279.877804 
L 627.734533 -275.495628 
L 627.623855 -271.113452 
L 627.461417 -266.731276 
L 627.257454 -262.349101 
L 627.024917 -257.966925 
L 626.778856 -253.584749 
L 626.534661 -249.202573 
L 626.305648 -244.820397 
L 626.100873 -240.438221 
L 625.923971 -236.056045 
L 625.773389 -231.67387 
L 625.643742 -227.291694 
L 625.527614 -222.909518 
L 625.417099 -218.527342 
L 625.304715 -214.145166 
L 625.183763 -209.76299 
L 625.048463 -205.380815 
L 624.894156 -200.998639 
L 624.717608 -196.616463 
L 624.517267 -192.234287 
L 624.293297 -187.852111 
L 624.047403 -183.469935 
L 623.782647 -179.08776 
L 623.503435 -174.705584 
L 623.21573 -170.323408 
L 622.927328 -165.941232 
L 622.648046 -161.559056 
L 622.389752 -157.17688 
L 622.166393 -152.794705 
L 621.99423 -148.412529 
L 621.892374 -144.030353 
L 621.8835 -139.648177 
L 621.994441 -135.266001 
L 622.25632 -130.883825 
L 622.703941 -126.50165 
L 623.374207 -122.119474 
L 624.303006 -117.737298 
L 625.519483 -113.355122 
L 627.036236 -108.972946 
L 628.834616 -104.59077 
L 630.84678 -100.208595 
L 632.940056 -95.826419 
L 634.9128 -91.444243 
L 636.511104 -87.062067 
L 637.470253 -82.679891 
L 637.574415 -78.297715 
L 636.717142 -73.915539 
L 634.940294 -69.533364 
z
" id="m210bc3ee4f" style="stroke:#141414;stroke-width:1.5;"/>
    </defs>
    <g clip-path="url(#pf33196f1ee)">
     <use style="fill:#0e5f2f;stroke:#141414;stroke-width:1.5;" x="0" xlink:href="#m210bc3ee4f" y="540.169"/>
    </g>
   </g>
   <g id="patch_3">
    <path clip-path="url(#pf33196f1ee)" d="M 121.340536 470.635636 
L 121.340536 470.635636 
L 121.340536 470.635636 
L 121.340536 470.635636 
z
" style="fill:#083c1d;stroke:#141414;stroke-linejoin:miter;stroke-width:0.75;"/>
   </g>
   <g id="patch_4">
    <path clip-path="url(#pf33196f1ee)" d="M 121.340536 470.635636 
L 121.340536 470.635636 
L 121.340536 470.635636 
L 121.340536 470.635636 
z
" style="fill:#0e5f2f;stroke:#141414;stroke-linejoin:miter;stroke-width:0.75;"/>
   </g>
   <g id="line2d_1">
    <path clip-path="url(#pf33196f1ee)" d="M 97.801322 470.635636 
L 97.801322 208.526744 
" style="fill:none;stroke:#141414;stroke-linecap:round;stroke-width:1.5;"/>
   </g>
   <g id="line2d_2">
    <path clip-path="url(#pf33196f1ee)" d="M 97.801322 445.780483 
L 97.801322 350.125801 
" style="fill:none;stroke:#141414;stroke-linecap:round;stroke-width:4.5;"/>
   </g>
   <g id="line2d_3">
    <path clip-path="url(#pf33196f1ee)" d="M 144.879751 470.635636 
L 144.879751 75.212738 
" style="fill:none;stroke:#141414;stroke-linecap:round;stroke-width:1.5;"/>
   </g>
   <g id="line2d_4">
    <path clip-path="url(#pf33196f1ee)" d="M 144.879751 440.508177 
L 144.879751 255.224305 
" style="fill:none;stroke:#141414;stroke-linecap:round;stroke-width:4.5;"/>
   </g>
   <g id="line2d_5">
    <path clip-path="url(#pf33196f1ee)" d="M 215.497394 470.635636 
L 215.497394 382.512819 
" style="fill:none;stroke:#141414;stroke-linecap:round;stroke-width:1.5;"/>
   </g>
   <g id="line2d_6">
    <path clip-path="url(#pf33196f1ee)" d="M 215.497394 466.869704 
L 215.497394 432.976313 
" style="fill:none;stroke:#141414;stroke-linecap:round;stroke-width:4.5;"/>
   </g>
   <g id="line2d_7">
    <path clip-path="url(#pf33196f1ee)" d="M 262.575823 470.635636 
L 262.575823 301.16868 
" style="fill:none;stroke:#141414;stroke-linecap:round;stroke-width:1.5;"/>
   </g>
   <g id="line2d_8">
    <path clip-path="url(#pf33196f1ee)" d="M 262.575823 464.610145 
L 262.575823 399.082922 
" style="fill:none;stroke:#141414;stroke-linecap:round;stroke-width:4.5;"/>
   </g>
   <g id="line2d_9">
    <path clip-path="url(#pf33196f1ee)" d="M 333.193467 470.635636 
L 333.193467 390.044684 
" style="fill:none;stroke:#141414;stroke-linecap:round;stroke-width:1.5;"/>
   </g>
   <g id="line2d_10">
    <path clip-path="url(#pf33196f1ee)" d="M 333.193467 465.363331 
L 333.193467 435.235872 
" style="fill:none;stroke:#141414;stroke-linecap:round;stroke-width:4.5;"/>
   </g>
   <g id="line2d_11">
    <path clip-path="url(#pf33196f1ee)" d="M 380.271896 470.635636 
L 380.271896 322.257901 
" style="fill:none;stroke:#141414;stroke-linecap:round;stroke-width:1.5;"/>
   </g>
   <g id="line2d_12">
    <path clip-path="url(#pf33196f1ee)" d="M 380.271896 463.103772 
L 380.271896 406.614786 
" style="fill:none;stroke:#141414;stroke-linecap:round;stroke-width:4.5;"/>
   </g>
   <g id="line2d_13">
    <path clip-path="url(#pf33196f1ee)" d="M 450.889539 470.635636 
L 450.889539 80.485044 
" style="fill:none;stroke:#141414;stroke-linecap:round;stroke-width:1.5;"/>
   </g>
   <g id="line2d_14">
    <path clip-path="url(#pf33196f1ee)" d="M 450.889539 451.052788 
L 450.889539 302.675053 
" style="fill:none;stroke:#141414;stroke-linecap:round;stroke-width:4.5;"/>
   </g>
   <g id="line2d_15">
    <path clip-path="url(#pf33196f1ee)" d="M 497.967968 470.635636 
L 497.967968 35.293855 
" style="fill:none;stroke:#141414;stroke-linecap:round;stroke-width:1.5;"/>
   </g>
   <g id="line2d_16">
    <path clip-path="url(#pf33196f1ee)" d="M 497.967968 451.052788 
L 497.967968 247.692441 
" style="fill:none;stroke:#141414;stroke-linecap:round;stroke-width:4.5;"/>
   </g>
   <g id="line2d_17">
    <path clip-path="url(#pf33196f1ee)" d="M 568.585612 470.635636 
L 568.585612 72.953179 
" style="fill:none;stroke:#141414;stroke-linecap:round;stroke-width:1.5;"/>
   </g>
   <g id="line2d_18">
    <path clip-path="url(#pf33196f1ee)" d="M 568.585612 451.052788 
L 568.585612 298.909121 
" style="fill:none;stroke:#141414;stroke-linecap:round;stroke-width:4.5;"/>
   </g>
   <g id="line2d_19">
    <path clip-path="url(#pf33196f1ee)" d="M 615.664041 470.635636 
L 615.664041 36.800228 
" style="fill:none;stroke:#141414;stroke-linecap:round;stroke-width:1.5;"/>
   </g>
   <g id="line2d_20">
    <path clip-path="url(#pf33196f1ee)" d="M 615.664041 447.286856 
L 615.664041 249.952 
" style="fill:none;stroke:#141414;stroke-linecap:round;stroke-width:4.5;"/>
   </g>
   <g id="patch_5">
    <path d="M 62.4925 492.704 
L 62.4925 7.2 
" style="fill:none;stroke:#262626;stroke-linecap:square;stroke-linejoin:miter;stroke-width:0.8;"/>
   </g>
   <g id="patch_6">
    <path d="M 62.4925 492.704 
L 650.972863 492.704 
" style="fill:none;stroke:#262626;stroke-linecap:square;stroke-linejoin:miter;stroke-width:0.8;"/>
   </g>
   <g id="PathCollection_1">
    <defs>
     <path d="M 0 1.5 
C 0.397805 1.5 0.77937 1.341951 1.06066 1.06066 
C 1.341951 0.77937 1.5 0.397805 1.5 0 
C 1.5 -0.397805 1.341951 -0.77937 1.06066 -1.06066 
C 0.77937 -1.341951 0.397805 -1.5 0 -1.5 
C -0.397805 -1.5 -0.77937 -1.341951 -1.06066 -1.06066 
C -1.341951 -0.77937 -1.5 -0.397805 -1.5 0 
C -1.5 0.397805 -1.341951 0.77937 -1.06066 1.06066 
C -0.77937 1.341951 -0.397805 1.5 0 1.5 
z
" id="m587cd09e9f" style="stroke:#141414;"/>
    </defs>
    <g clip-path="url(#pf33196f1ee)">
     <use style="fill:#ffffff;stroke:#141414;" x="97.801322" xlink:href="#m587cd09e9f" y="408.874346"/>
    </g>
   </g>
   <g id="PathCollection_2">
    <g clip-path="url(#pf33196f1ee)">
     <use style="fill:#ffffff;stroke:#141414;" x="144.879751" xlink:href="#m587cd09e9f" y="365.18953"/>
    </g>
   </g>
   <g id="PathCollection_3">
    <g clip-path="url(#pf33196f1ee)">
     <use style="fill:#ffffff;stroke:#141414;" x="215.497394" xlink:href="#m587cd09e9f" y="455.195314"/>
    </g>
   </g>
   <g id="PathCollection_4">
    <g clip-path="url(#pf33196f1ee)">
     <use style="fill:#ffffff;stroke:#141414;" x="262.575823" xlink:href="#m587cd09e9f" y="436.742245"/>
    </g>
   </g>
   <g id="PathCollection_5">
    <g clip-path="url(#pf33196f1ee)">
     <use style="fill:#ffffff;stroke:#141414;" x="333.193467" xlink:href="#m587cd09e9f" y="454.81872"/>
    </g>
   </g>
   <g id="PathCollection_6">
    <g clip-path="url(#pf33196f1ee)">
     <use style="fill:#ffffff;stroke:#141414;" x="380.271896" xlink:href="#m587cd09e9f" y="441.261364"/>
    </g>
   </g>
   <g id="PathCollection_7">
    <g clip-path="url(#pf33196f1ee)">
     <use style="fill:#ffffff;stroke:#141414;" x="450.889539" xlink:href="#m587cd09e9f" y="387.785124"/>
    </g>
   </g>
   <g id="PathCollection_8">
    <g clip-path="url(#pf33196f1ee)">
     <use style="fill:#ffffff;stroke:#141414;" x="497.967968" xlink:href="#m587cd09e9f" y="327.530207"/>
    </g>
   </g>
   <g id="PathCollection_9">
    <g clip-path="url(#pf33196f1ee)">
     <use style="fill:#ffffff;stroke:#141414;" x="568.585612" xlink:href="#m587cd09e9f" y="379.500073"/>
    </g>
   </g>
   <g id="PathCollection_10">
    <g clip-path="url(#pf33196f1ee)">
     <use style="fill:#ffffff;stroke:#141414;" x="615.664041" xlink:href="#m587cd09e9f" y="332.802512"/>
    </g>
   </g>
  </g>
  <g id="legend_1">
   <g id="text_15">
    <!-- workday -->
    <defs>
     <path d="M 16.15625 0 
L 0.296875 51.859375 
L 9.375 51.859375 
L 17.625 21.921875 
L 20.703125 10.796875 
Q 20.90625 11.625 23.390625 21.484375 
L 31.640625 51.859375 
L 40.671875 51.859375 
L 48.4375 21.78125 
L 51.03125 11.859375 
L 54 21.875 
L 62.890625 51.859375 
L 71.4375 51.859375 
L 55.21875 0 
L 46.09375 0 
L 37.84375 31.0625 
L 35.84375 39.890625 
L 25.34375 0 
z
" id="ArialMT-119"/>
     <path d="M 6.640625 0 
L 6.640625 71.578125 
L 15.4375 71.578125 
L 15.4375 30.765625 
L 36.234375 51.859375 
L 47.609375 51.859375 
L 27.78125 32.625 
L 49.609375 0 
L 38.765625 0 
L 21.625 26.515625 
L 15.4375 20.5625 
L 15.4375 0 
z
" id="ArialMT-107"/>
     <path d="M 40.4375 6.390625 
Q 35.546875 2.25 31.03125 0.53125 
Q 26.515625 -1.171875 21.34375 -1.171875 
Q 12.796875 -1.171875 8.203125 3 
Q 3.609375 7.171875 3.609375 13.671875 
Q 3.609375 17.484375 5.34375 20.625 
Q 7.078125 23.78125 9.890625 25.6875 
Q 12.703125 27.59375 16.21875 28.5625 
Q 18.796875 29.25 24.03125 29.890625 
Q 34.671875 31.15625 39.703125 32.90625 
Q 39.75 34.71875 39.75 35.203125 
Q 39.75 40.578125 37.25 42.78125 
Q 33.890625 45.75 27.25 45.75 
Q 21.046875 45.75 18.09375 43.578125 
Q 15.140625 41.40625 13.71875 35.890625 
L 5.125 37.0625 
Q 6.296875 42.578125 8.984375 45.96875 
Q 11.671875 49.359375 16.75 51.1875 
Q 21.828125 53.03125 28.515625 53.03125 
Q 35.15625 53.03125 39.296875 51.46875 
Q 43.453125 49.90625 45.40625 47.53125 
Q 47.359375 45.171875 48.140625 41.546875 
Q 48.578125 39.3125 48.578125 33.453125 
L 48.578125 21.734375 
Q 48.578125 9.46875 49.140625 6.21875 
Q 49.703125 2.984375 51.375 0 
L 42.1875 0 
Q 40.828125 2.734375 40.4375 6.390625 
z
M 39.703125 26.03125 
Q 34.90625 24.078125 25.34375 22.703125 
Q 19.921875 21.921875 17.671875 20.9375 
Q 15.4375 19.96875 14.203125 18.09375 
Q 12.984375 16.21875 12.984375 13.921875 
Q 12.984375 10.40625 15.640625 8.0625 
Q 18.3125 5.71875 23.4375 5.71875 
Q 28.515625 5.71875 32.46875 7.9375 
Q 36.421875 10.15625 38.28125 14.015625 
Q 39.703125 17 39.703125 22.796875 
z
" id="ArialMT-97"/>
     <path d="M 6.203125 -19.96875 
L 5.21875 -11.71875 
Q 8.109375 -12.5 10.25 -12.5 
Q 13.1875 -12.5 14.9375 -11.515625 
Q 16.703125 -10.546875 17.828125 -8.796875 
Q 18.65625 -7.46875 20.515625 -2.25 
Q 20.75 -1.515625 21.296875 -0.09375 
L 1.609375 51.859375 
L 11.078125 51.859375 
L 21.875 21.828125 
Q 23.96875 16.109375 25.640625 9.8125 
Q 27.15625 15.875 29.25 21.625 
L 40.328125 51.859375 
L 49.125 51.859375 
L 29.390625 -0.875 
Q 26.21875 -9.421875 24.46875 -12.640625 
Q 22.125 -17 19.09375 -19.015625 
Q 16.0625 -21.046875 11.859375 -21.046875 
Q 9.328125 -21.046875 6.203125 -19.96875 
z
" id="ArialMT-121"/>
    </defs>
    <g style="fill:#262626;" transform="translate(729.5455 251.4945)scale(0.16 -0.16)">
     <use xlink:href="#ArialMT-119"/>
     <use x="72.216797" xlink:href="#ArialMT-111"/>
     <use x="127.832031" xlink:href="#ArialMT-114"/>
     <use x="161.132812" xlink:href="#ArialMT-107"/>
     <use x="211.132812" xlink:href="#ArialMT-100"/>
     <use x="266.748047" xlink:href="#ArialMT-97"/>
     <use x="322.363281" xlink:href="#ArialMT-121"/>
    </g>
   </g>
   <g id="patch_7">
    <path d="M 732.48425 274.3145 
L 764.48425 274.3145 
L 764.48425 263.1145 
L 732.48425 263.1145 
z
" style="fill:#083c1d;stroke:#141414;stroke-linejoin:miter;stroke-width:0.75;"/>
   </g>
   <g id="text_16">
    <!-- 0 -->
    <g style="fill:#262626;" transform="translate(777.28425 274.3145)scale(0.16 -0.16)">
     <use xlink:href="#ArialMT-48"/>
    </g>
   </g>
   <g id="patch_8">
    <path d="M 732.48425 296.947 
L 764.48425 296.947 
L 764.48425 285.747 
L 732.48425 285.747 
z
" style="fill:#0e5f2f;stroke:#141414;stroke-linejoin:miter;stroke-width:0.75;"/>
   </g>
   <g id="text_17">
    <!-- 1 -->
    <g style="fill:#262626;" transform="translate(777.28425 296.947)scale(0.16 -0.16)">
     <use xlink:href="#ArialMT-49"/>
    </g>
   </g>
  </g>
 </g>
 <defs>
  <clipPath id="pf33196f1ee">
   <rect height="485.504" width="588.480363" x="62.4925" y="7.2"/>
  </clipPath>
 </defs>
</svg>
