<?xml version="1.0" encoding="utf-8" standalone="no"?>
<!DOCTYPE svg PUBLIC "-//W3C//DTD SVG 1.1//EN"
  "http://www.w3.org/Graphics/SVG/1.1/DTD/svg11.dtd">
<!-- Created with matplotlib (https://matplotlib.org/) -->
<svg height="540.169pt" version="1.1" viewBox="0 0 727.98035 540.169" width="727.98035pt" xmlns="http://www.w3.org/2000/svg" xmlns:xlink="http://www.w3.org/1999/xlink">
 <defs>
  <style type="text/css">
*{stroke-linecap:butt;stroke-linejoin:round;white-space:pre;}
  </style>
 </defs>
 <g id="figure_1">
  <g id="patch_1">
   <path d="M 0 540.169 
L 727.98035 540.169 
L 727.98035 0 
L 0 0 
z
" style="fill:#ffffff;"/>
  </g>
  <g id="axes_1">
   <g id="patch_2">
    <path d="M 71.39 492.704 
L 720.78035 492.704 
L 720.78035 7.2 
L 71.39 7.2 
z
" style="fill:#ffffff;"/>
   </g>
   <g id="matplotlib.axis_1">
    <g id="xtick_1">
     <g id="text_1">
      <!-- 1003-116-1 -->
      <defs>
       <path d="M 37.25 0 
L 28.46875 0 
L 28.46875 56 
Q 25.296875 52.984375 20.140625 49.953125 
Q 14.984375 46.921875 10.890625 45.40625 
L 10.890625 53.90625 
Q 18.265625 57.375 23.78125 62.296875 
Q 29.296875 67.234375 31.59375 71.875 
L 37.25 71.875 
z
" id="ArialMT-49"/>
       <path d="M 4.15625 35.296875 
Q 4.15625 48 6.765625 55.734375 
Q 9.375 63.484375 14.515625 67.671875 
Q 19.671875 71.875 27.484375 71.875 
Q 33.25 71.875 37.59375 69.546875 
Q 41.9375 67.234375 44.765625 62.859375 
Q 47.609375 58.5 49.21875 52.21875 
Q 50.828125 45.953125 50.828125 35.296875 
Q 50.828125 22.703125 48.234375 14.96875 
Q 45.65625 7.234375 40.5 3 
Q 35.359375 -1.21875 27.484375 -1.21875 
Q 17.140625 -1.21875 11.234375 6.203125 
Q 4.15625 15.140625 4.15625 35.296875 
z
M 13.1875 35.296875 
Q 13.1875 17.671875 17.3125 11.828125 
Q 21.4375 6 27.484375 6 
Q 33.546875 6 37.671875 11.859375 
Q 41.796875 17.71875 41.796875 35.296875 
Q 41.796875 52.984375 37.671875 58.78125 
Q 33.546875 64.59375 27.390625 64.59375 
Q 21.34375 64.59375 17.71875 59.46875 
Q 13.1875 52.9375 13.1875 35.296875 
z
" id="ArialMT-48"/>
       <path d="M 4.203125 18.890625 
L 12.984375 20.0625 
Q 14.5 12.59375 18.140625 9.296875 
Q 21.78125 6 27 6 
Q 33.203125 6 37.46875 10.296875 
Q 41.75 14.59375 41.75 20.953125 
Q 41.75 27 37.796875 30.921875 
Q 33.84375 34.859375 27.734375 34.859375 
Q 25.25 34.859375 21.53125 33.890625 
L 22.515625 41.609375 
Q 23.390625 41.5 23.921875 41.5 
Q 29.546875 41.5 34.03125 44.421875 
Q 38.53125 47.359375 38.53125 53.46875 
Q 38.53125 58.296875 35.25 61.46875 
Q 31.984375 64.65625 26.8125 64.65625 
Q 21.6875 64.65625 18.265625 61.421875 
Q 14.84375 58.203125 13.875 51.765625 
L 5.078125 53.328125 
Q 6.6875 62.15625 12.390625 67.015625 
Q 18.109375 71.875 26.609375 71.875 
Q 32.46875 71.875 37.390625 69.359375 
Q 42.328125 66.84375 44.9375 62.5 
Q 47.5625 58.15625 47.5625 53.265625 
Q 47.5625 48.640625 45.0625 44.828125 
Q 42.578125 41.015625 37.703125 38.765625 
Q 44.046875 37.3125 47.5625 32.6875 
Q 51.078125 28.078125 51.078125 21.140625 
Q 51.078125 11.765625 44.234375 5.25 
Q 37.40625 -1.265625 26.953125 -1.265625 
Q 17.53125 -1.265625 11.296875 4.34375 
Q 5.078125 9.96875 4.203125 18.890625 
z
" id="ArialMT-51"/>
       <path d="M 3.171875 21.484375 
L 3.171875 30.328125 
L 30.171875 30.328125 
L 30.171875 21.484375 
z
" id="ArialMT-45"/>
       <path d="M 49.75 54.046875 
L 41.015625 53.375 
Q 39.84375 58.546875 37.703125 60.890625 
Q 34.125 64.65625 28.90625 64.65625 
Q 24.703125 64.65625 21.53125 62.3125 
Q 17.390625 59.28125 14.984375 53.46875 
Q 12.59375 47.65625 12.5 36.921875 
Q 15.671875 41.75 20.265625 44.09375 
Q 24.859375 46.4375 29.890625 46.4375 
Q 38.671875 46.4375 44.84375 39.96875 
Q 51.03125 33.5 51.03125 23.25 
Q 51.03125 16.5 48.125 10.71875 
Q 45.21875 4.9375 40.140625 1.859375 
Q 35.0625 -1.21875 28.609375 -1.21875 
Q 17.625 -1.21875 10.6875 6.859375 
Q 3.765625 14.9375 3.765625 33.5 
Q 3.765625 54.25 11.421875 63.671875 
Q 18.109375 71.875 29.4375 71.875 
Q 37.890625 71.875 43.28125 67.140625 
Q 48.6875 62.40625 49.75 54.046875 
z
M 13.875 23.1875 
Q 13.875 18.65625 15.796875 14.5 
Q 17.71875 10.359375 21.1875 8.171875 
Q 24.65625 6 28.46875 6 
Q 34.03125 6 38.03125 10.484375 
Q 42.046875 14.984375 42.046875 22.703125 
Q 42.046875 30.125 38.078125 34.390625 
Q 34.125 38.671875 28.125 38.671875 
Q 22.171875 38.671875 18.015625 34.390625 
Q 13.875 30.125 13.875 23.1875 
z
" id="ArialMT-54"/>
      </defs>
      <g style="fill:#262626;" transform="translate(95.420285 511.1565)scale(0.16 -0.16)">
       <use xlink:href="#ArialMT-49"/>
       <use x="55.615234" xlink:href="#ArialMT-48"/>
       <use x="111.230469" xlink:href="#ArialMT-48"/>
       <use x="166.845703" xlink:href="#ArialMT-51"/>
       <use x="222.460938" xlink:href="#ArialMT-45"/>
       <use x="255.761719" xlink:href="#ArialMT-49"/>
       <use x="311.267578" xlink:href="#ArialMT-49"/>
       <use x="366.882812" xlink:href="#ArialMT-54"/>
       <use x="422.498047" xlink:href="#ArialMT-45"/>
       <use x="455.798828" xlink:href="#ArialMT-49"/>
      </g>
     </g>
    </g>
    <g id="xtick_2">
     <g id="text_2">
      <!-- 1004-136-1 -->
      <defs>
       <path d="M 32.328125 0 
L 32.328125 17.140625 
L 1.265625 17.140625 
L 1.265625 25.203125 
L 33.9375 71.578125 
L 41.109375 71.578125 
L 41.109375 25.203125 
L 50.78125 25.203125 
L 50.78125 17.140625 
L 41.109375 17.140625 
L 41.109375 0 
z
M 32.328125 25.203125 
L 32.328125 57.46875 
L 9.90625 25.203125 
z
" id="ArialMT-52"/>
      </defs>
      <g style="fill:#262626;" transform="translate(225.289605 511.1565)scale(0.16 -0.16)">
       <use xlink:href="#ArialMT-49"/>
       <use x="55.615234" xlink:href="#ArialMT-48"/>
       <use x="111.230469" xlink:href="#ArialMT-48"/>
       <use x="166.845703" xlink:href="#ArialMT-52"/>
       <use x="222.460938" xlink:href="#ArialMT-45"/>
       <use x="255.761719" xlink:href="#ArialMT-49"/>
       <use x="311.376953" xlink:href="#ArialMT-51"/>
       <use x="366.992188" xlink:href="#ArialMT-54"/>
       <use x="422.607422" xlink:href="#ArialMT-45"/>
       <use x="455.908203" xlink:href="#ArialMT-49"/>
      </g>
     </g>
    </g>
    <g id="xtick_3">
     <g id="text_3">
      <!-- 1009-168-1 -->
      <defs>
       <path d="M 5.46875 16.546875 
L 13.921875 17.328125 
Q 14.984375 11.375 18.015625 8.6875 
Q 21.046875 6 25.78125 6 
Q 29.828125 6 32.875 7.859375 
Q 35.9375 9.71875 37.890625 12.8125 
Q 39.84375 15.921875 41.15625 21.1875 
Q 42.484375 26.46875 42.484375 31.9375 
Q 42.484375 32.515625 42.4375 33.6875 
Q 39.796875 29.5 35.234375 26.875 
Q 30.671875 24.265625 25.34375 24.265625 
Q 16.453125 24.265625 10.296875 30.703125 
Q 4.15625 37.15625 4.15625 47.703125 
Q 4.15625 58.59375 10.578125 65.234375 
Q 17 71.875 26.65625 71.875 
Q 33.640625 71.875 39.421875 68.109375 
Q 45.21875 64.359375 48.21875 57.390625 
Q 51.21875 50.4375 51.21875 37.25 
Q 51.21875 23.53125 48.234375 15.40625 
Q 45.265625 7.28125 39.375 3.03125 
Q 33.5 -1.21875 25.59375 -1.21875 
Q 17.1875 -1.21875 11.859375 3.4375 
Q 6.546875 8.109375 5.46875 16.546875 
z
M 41.453125 48.140625 
Q 41.453125 55.71875 37.421875 60.15625 
Q 33.40625 64.59375 27.734375 64.59375 
Q 21.875 64.59375 17.53125 59.8125 
Q 13.1875 55.03125 13.1875 47.40625 
Q 13.1875 40.578125 17.3125 36.296875 
Q 21.4375 32.03125 27.484375 32.03125 
Q 33.59375 32.03125 37.515625 36.296875 
Q 41.453125 40.578125 41.453125 48.140625 
z
" id="ArialMT-57"/>
       <path d="M 17.671875 38.8125 
Q 12.203125 40.828125 9.5625 44.53125 
Q 6.9375 48.25 6.9375 53.421875 
Q 6.9375 61.234375 12.546875 66.546875 
Q 18.171875 71.875 27.484375 71.875 
Q 36.859375 71.875 42.578125 66.421875 
Q 48.296875 60.984375 48.296875 53.171875 
Q 48.296875 48.1875 45.671875 44.5 
Q 43.0625 40.828125 37.75 38.8125 
Q 44.34375 36.671875 47.78125 31.875 
Q 51.21875 27.09375 51.21875 20.453125 
Q 51.21875 11.28125 44.71875 5.03125 
Q 38.234375 -1.21875 27.640625 -1.21875 
Q 17.046875 -1.21875 10.546875 5.046875 
Q 4.046875 11.328125 4.046875 20.703125 
Q 4.046875 27.6875 7.59375 32.390625 
Q 11.140625 37.109375 17.671875 38.8125 
z
M 15.921875 53.71875 
Q 15.921875 48.640625 19.1875 45.40625 
Q 22.46875 42.1875 27.6875 42.1875 
Q 32.765625 42.1875 36.015625 45.375 
Q 39.265625 48.578125 39.265625 53.21875 
Q 39.265625 58.0625 35.90625 61.359375 
Q 32.5625 64.65625 27.59375 64.65625 
Q 22.5625 64.65625 19.234375 61.421875 
Q 15.921875 58.203125 15.921875 53.71875 
z
M 13.09375 20.65625 
Q 13.09375 16.890625 14.875 13.375 
Q 16.65625 9.859375 20.171875 7.921875 
Q 23.6875 6 27.734375 6 
Q 34.03125 6 38.125 10.046875 
Q 42.234375 14.109375 42.234375 20.359375 
Q 42.234375 26.703125 38.015625 30.859375 
Q 33.796875 35.015625 27.4375 35.015625 
Q 21.234375 35.015625 17.15625 30.90625 
Q 13.09375 26.8125 13.09375 20.65625 
z
" id="ArialMT-56"/>
      </defs>
      <g style="fill:#262626;" transform="translate(355.167675 511.1565)scale(0.16 -0.16)">
       <use xlink:href="#ArialMT-49"/>
       <use x="55.615234" xlink:href="#ArialMT-48"/>
       <use x="111.230469" xlink:href="#ArialMT-48"/>
       <use x="166.845703" xlink:href="#ArialMT-57"/>
       <use x="222.460938" xlink:href="#ArialMT-45"/>
       <use x="255.761719" xlink:href="#ArialMT-49"/>
       <use x="311.376953" xlink:href="#ArialMT-54"/>
       <use x="366.992188" xlink:href="#ArialMT-56"/>
       <use x="422.607422" xlink:href="#ArialMT-45"/>
       <use x="455.908203" xlink:href="#ArialMT-49"/>
      </g>
     </g>
    </g>
    <g id="xtick_4">
     <g id="text_4">
      <!-- 1010-188-1 -->
      <g style="fill:#262626;" transform="translate(485.045745 511.1565)scale(0.16 -0.16)">
       <use xlink:href="#ArialMT-49"/>
       <use x="55.615234" xlink:href="#ArialMT-48"/>
       <use x="111.230469" xlink:href="#ArialMT-49"/>
       <use x="166.845703" xlink:href="#ArialMT-48"/>
       <use x="222.460938" xlink:href="#ArialMT-45"/>
       <use x="255.761719" xlink:href="#ArialMT-49"/>
       <use x="311.376953" xlink:href="#ArialMT-56"/>
       <use x="366.992188" xlink:href="#ArialMT-56"/>
       <use x="422.607422" xlink:href="#ArialMT-45"/>
       <use x="455.908203" xlink:href="#ArialMT-49"/>
      </g>
     </g>
    </g>
    <g id="xtick_5">
     <g id="text_5">
      <!-- 1025-116-1 -->
      <defs>
       <path d="M 50.34375 8.453125 
L 50.34375 0 
L 3.03125 0 
Q 2.9375 3.171875 4.046875 6.109375 
Q 5.859375 10.9375 9.828125 15.625 
Q 13.8125 20.3125 21.34375 26.46875 
Q 33.015625 36.03125 37.109375 41.625 
Q 41.21875 47.21875 41.21875 52.203125 
Q 41.21875 57.421875 37.46875 61 
Q 33.734375 64.59375 27.734375 64.59375 
Q 21.390625 64.59375 17.578125 60.78125 
Q 13.765625 56.984375 13.71875 50.25 
L 4.6875 51.171875 
Q 5.609375 61.28125 11.65625 66.578125 
Q 17.71875 71.875 27.9375 71.875 
Q 38.234375 71.875 44.234375 66.15625 
Q 50.25 60.453125 50.25 52 
Q 50.25 47.703125 48.484375 43.546875 
Q 46.734375 39.40625 42.65625 34.8125 
Q 38.578125 30.21875 29.109375 22.21875 
Q 21.1875 15.578125 18.9375 13.203125 
Q 16.703125 10.84375 15.234375 8.453125 
z
" id="ArialMT-50"/>
       <path d="M 4.15625 18.75 
L 13.375 19.53125 
Q 14.40625 12.796875 18.140625 9.390625 
Q 21.875 6 27.15625 6 
Q 33.5 6 37.890625 10.78125 
Q 42.28125 15.578125 42.28125 23.484375 
Q 42.28125 31 38.0625 35.34375 
Q 33.84375 39.703125 27 39.703125 
Q 22.75 39.703125 19.328125 37.765625 
Q 15.921875 35.84375 13.96875 32.765625 
L 5.71875 33.84375 
L 12.640625 70.609375 
L 48.25 70.609375 
L 48.25 62.203125 
L 19.671875 62.203125 
L 15.828125 42.96875 
Q 22.265625 47.46875 29.34375 47.46875 
Q 38.71875 47.46875 45.15625 40.96875 
Q 51.609375 34.46875 51.609375 24.265625 
Q 51.609375 14.546875 45.953125 7.46875 
Q 39.0625 -1.21875 27.15625 -1.21875 
Q 17.390625 -1.21875 11.203125 4.25 
Q 5.03125 9.71875 4.15625 18.75 
z
" id="ArialMT-53"/>
      </defs>
      <g style="fill:#262626;" transform="translate(614.932565 511.1565)scale(0.16 -0.16)">
       <use xlink:href="#ArialMT-49"/>
       <use x="55.615234" xlink:href="#ArialMT-48"/>
       <use x="111.230469" xlink:href="#ArialMT-50"/>
       <use x="166.845703" xlink:href="#ArialMT-53"/>
       <use x="222.460938" xlink:href="#ArialMT-45"/>
       <use x="255.761719" xlink:href="#ArialMT-49"/>
       <use x="311.267578" xlink:href="#ArialMT-49"/>
       <use x="366.882812" xlink:href="#ArialMT-54"/>
       <use x="422.498047" xlink:href="#ArialMT-45"/>
       <use x="455.798828" xlink:href="#ArialMT-49"/>
      </g>
     </g>
    </g>
    <g id="text_6">
     <!-- Counter id -->
     <defs>
      <path d="M 58.796875 25.09375 
L 68.265625 22.703125 
Q 65.28125 11.03125 57.546875 4.90625 
Q 49.8125 -1.21875 38.625 -1.21875 
Q 27.046875 -1.21875 19.796875 3.484375 
Q 12.546875 8.203125 8.765625 17.140625 
Q 4.984375 26.078125 4.984375 36.328125 
Q 4.984375 47.515625 9.25 55.828125 
Q 13.53125 64.15625 21.40625 68.46875 
Q 29.296875 72.796875 38.765625 72.796875 
Q 49.515625 72.796875 56.828125 67.328125 
Q 64.15625 61.859375 67.046875 51.953125 
L 57.71875 49.75 
Q 55.21875 57.5625 50.484375 61.125 
Q 45.75 64.703125 38.578125 64.703125 
Q 30.328125 64.703125 24.78125 60.734375 
Q 19.234375 56.78125 16.984375 50.109375 
Q 14.75 43.453125 14.75 36.375 
Q 14.75 27.25 17.40625 20.4375 
Q 20.0625 13.625 25.671875 10.25 
Q 31.296875 6.890625 37.84375 6.890625 
Q 45.796875 6.890625 51.3125 11.46875 
Q 56.84375 16.0625 58.796875 25.09375 
z
" id="ArialMT-67"/>
      <path d="M 3.328125 25.921875 
Q 3.328125 40.328125 11.328125 47.265625 
Q 18.015625 53.03125 27.640625 53.03125 
Q 38.328125 53.03125 45.109375 46.015625 
Q 51.90625 39.015625 51.90625 26.65625 
Q 51.90625 16.65625 48.90625 10.90625 
Q 45.90625 5.171875 40.15625 2 
Q 34.421875 -1.171875 27.640625 -1.171875 
Q 16.75 -1.171875 10.03125 5.8125 
Q 3.328125 12.796875 3.328125 25.921875 
z
M 12.359375 25.921875 
Q 12.359375 15.96875 16.703125 11.015625 
Q 21.046875 6.0625 27.640625 6.0625 
Q 34.1875 6.0625 38.53125 11.03125 
Q 42.875 16.015625 42.875 26.21875 
Q 42.875 35.84375 38.5 40.796875 
Q 34.125 45.75 27.640625 45.75 
Q 21.046875 45.75 16.703125 40.8125 
Q 12.359375 35.890625 12.359375 25.921875 
z
" id="ArialMT-111"/>
      <path d="M 40.578125 0 
L 40.578125 7.625 
Q 34.515625 -1.171875 24.125 -1.171875 
Q 19.53125 -1.171875 15.546875 0.578125 
Q 11.578125 2.34375 9.640625 5 
Q 7.71875 7.671875 6.9375 11.53125 
Q 6.390625 14.109375 6.390625 19.734375 
L 6.390625 51.859375 
L 15.1875 51.859375 
L 15.1875 23.09375 
Q 15.1875 16.21875 15.71875 13.8125 
Q 16.546875 10.359375 19.234375 8.375 
Q 21.921875 6.390625 25.875 6.390625 
Q 29.828125 6.390625 33.296875 8.421875 
Q 36.765625 10.453125 38.203125 13.9375 
Q 39.65625 17.4375 39.65625 24.078125 
L 39.65625 51.859375 
L 48.4375 51.859375 
L 48.4375 0 
z
" id="ArialMT-117"/>
      <path d="M 6.59375 0 
L 6.59375 51.859375 
L 14.5 51.859375 
L 14.5 44.484375 
Q 20.21875 53.03125 31 53.03125 
Q 35.6875 53.03125 39.625 51.34375 
Q 43.5625 49.65625 45.515625 46.921875 
Q 47.46875 44.1875 48.25 40.4375 
Q 48.734375 37.984375 48.734375 31.890625 
L 48.734375 0 
L 39.9375 0 
L 39.9375 31.546875 
Q 39.9375 36.921875 38.90625 39.578125 
Q 37.890625 42.234375 35.28125 43.8125 
Q 32.671875 45.40625 29.15625 45.40625 
Q 23.53125 45.40625 19.453125 41.84375 
Q 15.375 38.28125 15.375 28.328125 
L 15.375 0 
z
" id="ArialMT-110"/>
      <path d="M 25.78125 7.859375 
L 27.046875 0.09375 
Q 23.34375 -0.6875 20.40625 -0.6875 
Q 15.625 -0.6875 12.984375 0.828125 
Q 10.359375 2.34375 9.28125 4.8125 
Q 8.203125 7.28125 8.203125 15.1875 
L 8.203125 45.015625 
L 1.765625 45.015625 
L 1.765625 51.859375 
L 8.203125 51.859375 
L 8.203125 64.703125 
L 16.9375 69.96875 
L 16.9375 51.859375 
L 25.78125 51.859375 
L 25.78125 45.015625 
L 16.9375 45.015625 
L 16.9375 14.703125 
Q 16.9375 10.9375 17.40625 9.859375 
Q 17.875 8.796875 18.921875 8.15625 
Q 19.96875 7.515625 21.921875 7.515625 
Q 23.390625 7.515625 25.78125 7.859375 
z
" id="ArialMT-116"/>
      <path d="M 42.09375 16.703125 
L 51.171875 15.578125 
Q 49.03125 7.625 43.21875 3.21875 
Q 37.40625 -1.171875 28.375 -1.171875 
Q 17 -1.171875 10.328125 5.828125 
Q 3.65625 12.84375 3.65625 25.484375 
Q 3.65625 38.578125 10.390625 45.796875 
Q 17.140625 53.03125 27.875 53.03125 
Q 38.28125 53.03125 44.875 45.953125 
Q 51.46875 38.875 51.46875 26.03125 
Q 51.46875 25.25 51.421875 23.6875 
L 12.75 23.6875 
Q 13.234375 15.140625 17.578125 10.59375 
Q 21.921875 6.0625 28.421875 6.0625 
Q 33.25 6.0625 36.671875 8.59375 
Q 40.09375 11.140625 42.09375 16.703125 
z
M 13.234375 30.90625 
L 42.1875 30.90625 
Q 41.609375 37.453125 38.875 40.71875 
Q 34.671875 45.796875 27.984375 45.796875 
Q 21.921875 45.796875 17.796875 41.75 
Q 13.671875 37.703125 13.234375 30.90625 
z
" id="ArialMT-101"/>
      <path d="M 6.5 0 
L 6.5 51.859375 
L 14.40625 51.859375 
L 14.40625 44 
Q 17.4375 49.515625 20 51.265625 
Q 22.5625 53.03125 25.640625 53.03125 
Q 30.078125 53.03125 34.671875 50.203125 
L 31.640625 42.046875 
Q 28.421875 43.953125 25.203125 43.953125 
Q 22.3125 43.953125 20.015625 42.21875 
Q 17.71875 40.484375 16.75 37.40625 
Q 15.28125 32.71875 15.28125 27.15625 
L 15.28125 0 
z
" id="ArialMT-114"/>
      <path id="ArialMT-32"/>
      <path d="M 6.640625 61.46875 
L 6.640625 71.578125 
L 15.4375 71.578125 
L 15.4375 61.46875 
z
M 6.640625 0 
L 6.640625 51.859375 
L 15.4375 51.859375 
L 15.4375 0 
z
" id="ArialMT-105"/>
      <path d="M 40.234375 0 
L 40.234375 6.546875 
Q 35.296875 -1.171875 25.734375 -1.171875 
Q 19.53125 -1.171875 14.328125 2.25 
Q 9.125 5.671875 6.265625 11.796875 
Q 3.421875 17.921875 3.421875 25.875 
Q 3.421875 33.640625 6 39.96875 
Q 8.59375 46.296875 13.765625 49.65625 
Q 18.953125 53.03125 25.34375 53.03125 
Q 30.03125 53.03125 33.6875 51.046875 
Q 37.359375 49.078125 39.65625 45.90625 
L 39.65625 71.578125 
L 48.390625 71.578125 
L 48.390625 0 
z
M 12.453125 25.875 
Q 12.453125 15.921875 16.640625 10.984375 
Q 20.84375 6.0625 26.5625 6.0625 
Q 32.328125 6.0625 36.34375 10.765625 
Q 40.375 15.484375 40.375 25.140625 
Q 40.375 35.796875 36.265625 40.765625 
Q 32.171875 45.75 26.171875 45.75 
Q 20.3125 45.75 16.375 40.96875 
Q 12.453125 36.1875 12.453125 25.875 
z
" id="ArialMT-100"/>
     </defs>
     <g style="fill:#262626;" transform="translate(359.177675 529.789)scale(0.16 -0.16)">
      <use xlink:href="#ArialMT-67"/>
      <use x="72.216797" xlink:href="#ArialMT-111"/>
      <use x="127.832031" xlink:href="#ArialMT-117"/>
      <use x="183.447266" xlink:href="#ArialMT-110"/>
      <use x="239.0625" xlink:href="#ArialMT-116"/>
      <use x="266.845703" xlink:href="#ArialMT-101"/>
      <use x="322.460938" xlink:href="#ArialMT-114"/>
      <use x="355.761719" xlink:href="#ArialMT-32"/>
      <use x="383.544922" xlink:href="#ArialMT-105"/>
      <use x="405.761719" xlink:href="#ArialMT-100"/>
     </g>
    </g>
   </g>
   <g id="matplotlib.axis_2">
    <g id="ytick_1">
     <g id="text_7">
      <!-- 0 -->
      <g style="fill:#262626;" transform="translate(55.4925 476.361886)scale(0.16 -0.16)">
       <use xlink:href="#ArialMT-48"/>
      </g>
     </g>
    </g>
    <g id="ytick_2">
     <g id="text_8">
      <!-- 250 -->
      <g style="fill:#262626;" transform="translate(37.6975 419.97874)scale(0.16 -0.16)">
       <use xlink:href="#ArialMT-50"/>
       <use x="55.615234" xlink:href="#ArialMT-53"/>
       <use x="111.230469" xlink:href="#ArialMT-48"/>
      </g>
     </g>
    </g>
    <g id="ytick_3">
     <g id="text_9">
      <!-- 500 -->
      <g style="fill:#262626;" transform="translate(37.6975 363.595593)scale(0.16 -0.16)">
       <use xlink:href="#ArialMT-53"/>
       <use x="55.615234" xlink:href="#ArialMT-48"/>
       <use x="111.230469" xlink:href="#ArialMT-48"/>
      </g>
     </g>
    </g>
    <g id="ytick_4">
     <g id="text_10">
      <!-- 750 -->
      <defs>
       <path d="M 4.734375 62.203125 
L 4.734375 70.65625 
L 51.078125 70.65625 
L 51.078125 63.8125 
Q 44.234375 56.546875 37.515625 44.484375 
Q 30.8125 32.421875 27.15625 19.671875 
Q 24.515625 10.6875 23.78125 0 
L 14.75 0 
Q 14.890625 8.453125 18.0625 20.40625 
Q 21.234375 32.375 27.171875 43.484375 
Q 33.109375 54.59375 39.796875 62.203125 
z
" id="ArialMT-55"/>
      </defs>
      <g style="fill:#262626;" transform="translate(37.6975 307.212446)scale(0.16 -0.16)">
       <use xlink:href="#ArialMT-55"/>
       <use x="55.615234" xlink:href="#ArialMT-53"/>
       <use x="111.230469" xlink:href="#ArialMT-48"/>
      </g>
     </g>
    </g>
    <g id="ytick_5">
     <g id="text_11">
      <!-- 1000 -->
      <g style="fill:#262626;" transform="translate(28.8 250.829299)scale(0.16 -0.16)">
       <use xlink:href="#ArialMT-49"/>
       <use x="55.615234" xlink:href="#ArialMT-48"/>
       <use x="111.230469" xlink:href="#ArialMT-48"/>
       <use x="166.845703" xlink:href="#ArialMT-48"/>
      </g>
     </g>
    </g>
    <g id="ytick_6">
     <g id="text_12">
      <!-- 1250 -->
      <g style="fill:#262626;" transform="translate(28.8 194.446153)scale(0.16 -0.16)">
       <use xlink:href="#ArialMT-49"/>
       <use x="55.615234" xlink:href="#ArialMT-50"/>
       <use x="111.230469" xlink:href="#ArialMT-53"/>
       <use x="166.845703" xlink:href="#ArialMT-48"/>
      </g>
     </g>
    </g>
    <g id="ytick_7">
     <g id="text_13">
      <!-- 1500 -->
      <g style="fill:#262626;" transform="translate(28.8 138.063006)scale(0.16 -0.16)">
       <use xlink:href="#ArialMT-49"/>
       <use x="55.615234" xlink:href="#ArialMT-53"/>
       <use x="111.230469" xlink:href="#ArialMT-48"/>
       <use x="166.845703" xlink:href="#ArialMT-48"/>
      </g>
     </g>
    </g>
    <g id="ytick_8">
     <g id="text_14">
      <!-- 1750 -->
      <g style="fill:#262626;" transform="translate(28.8 81.679859)scale(0.16 -0.16)">
       <use xlink:href="#ArialMT-49"/>
       <use x="55.615234" xlink:href="#ArialMT-55"/>
       <use x="111.230469" xlink:href="#ArialMT-53"/>
       <use x="166.845703" xlink:href="#ArialMT-48"/>
      </g>
     </g>
    </g>
    <g id="ytick_9">
     <g id="text_15">
      <!-- 2000 -->
      <g style="fill:#262626;" transform="translate(28.8 25.296712)scale(0.16 -0.16)">
       <use xlink:href="#ArialMT-50"/>
       <use x="55.615234" xlink:href="#ArialMT-48"/>
       <use x="111.230469" xlink:href="#ArialMT-48"/>
       <use x="166.845703" xlink:href="#ArialMT-48"/>
      </g>
     </g>
    </g>
    <g id="text_16">
     <!-- Count [$h^{-1}$] -->
     <defs>
      <path d="M 6.78125 -19.875 
L 6.78125 71.578125 
L 26.171875 71.578125 
L 26.171875 64.3125 
L 15.578125 64.3125 
L 15.578125 -12.59375 
L 26.171875 -12.59375 
L 26.171875 -19.875 
z
" id="ArialMT-91"/>
      <path d="M 55.71875 33.015625 
L 49.3125 0 
L 40.28125 0 
L 46.6875 32.671875 
Q 47.125 34.96875 47.359375 36.71875 
Q 47.609375 38.484375 47.609375 39.5 
Q 47.609375 43.609375 45.015625 45.890625 
Q 42.4375 48.1875 37.796875 48.1875 
Q 30.5625 48.1875 25.265625 43.296875 
Q 19.96875 38.421875 18.40625 30.328125 
L 12.5 0 
L 3.515625 0 
L 18.3125 75.984375 
L 27.296875 75.984375 
L 21.484375 46.09375 
Q 24.90625 50.6875 30.21875 53.34375 
Q 35.546875 56 41.40625 56 
Q 48.640625 56 52.609375 52.09375 
Q 56.59375 48.1875 56.59375 41.109375 
Q 56.59375 39.359375 56.375 37.359375 
Q 56.15625 35.359375 55.71875 33.015625 
z
" id="DejaVuSans-Oblique-104"/>
      <path d="M 10.59375 35.5 
L 73.1875 35.5 
L 73.1875 27.203125 
L 10.59375 27.203125 
z
" id="DejaVuSans-8722"/>
      <path d="M 12.40625 8.296875 
L 28.515625 8.296875 
L 28.515625 63.921875 
L 10.984375 60.40625 
L 10.984375 69.390625 
L 28.421875 72.90625 
L 38.28125 72.90625 
L 38.28125 8.296875 
L 54.390625 8.296875 
L 54.390625 0 
L 12.40625 0 
z
" id="DejaVuSans-49"/>
      <path d="M 21.296875 -19.875 
L 1.90625 -19.875 
L 1.90625 -12.59375 
L 12.5 -12.59375 
L 12.5 64.3125 
L 1.90625 64.3125 
L 1.90625 71.578125 
L 21.296875 71.578125 
z
" id="ArialMT-93"/>
     </defs>
     <g style="fill:#262626;" transform="translate(21.6 292.112)rotate(-90)scale(0.16 -0.16)">
      <use transform="translate(0 0.684375)" xlink:href="#ArialMT-67"/>
      <use transform="translate(72.216797 0.684375)" xlink:href="#ArialMT-111"/>
      <use transform="translate(127.832031 0.684375)" xlink:href="#ArialMT-117"/>
      <use transform="translate(183.447266 0.684375)" xlink:href="#ArialMT-110"/>
      <use transform="translate(239.0625 0.684375)" xlink:href="#ArialMT-116"/>
      <use transform="translate(266.845703 0.684375)" xlink:href="#ArialMT-32"/>
      <use transform="translate(294.628906 0.684375)" xlink:href="#ArialMT-91"/>
      <use transform="translate(322.412109 0.684375)" xlink:href="#DejaVuSans-Oblique-104"/>
      <use transform="translate(393.238724 38.965625)scale(0.7)" xlink:href="#DejaVuSans-8722"/>
      <use transform="translate(451.891068 38.965625)scale(0.7)" xlink:href="#DejaVuSans-49"/>
      <use transform="translate(499.161576 0.684375)" xlink:href="#ArialMT-93"/>
     </g>
    </g>
   </g>
   <g id="PolyCollection_1">
    <defs>
     <path d="M 157.704491 -69.533364 
L 114.953579 -69.533364 
L 113.078167 -71.738571 
L 112.217818 -73.943779 
L 112.395319 -76.148986 
L 113.469846 -78.354194 
L 115.186539 -80.559401 
L 117.249511 -82.764609 
L 119.391498 -84.969816 
L 121.419114 -87.175024 
L 123.225828 -89.380231 
L 124.77794 -91.585439 
L 126.086519 -93.790646 
L 127.178739 -95.995854 
L 128.077631 -98.201061 
L 128.793213 -100.406269 
L 129.323338 -102.611476 
L 129.660291 -104.816684 
L 129.798986 -107.021891 
L 129.743637 -109.227099 
L 129.511129 -111.432306 
L 129.130639 -113.637514 
L 128.640123 -115.842721 
L 128.081006 -118.047929 
L 127.492732 -120.253137 
L 126.908624 -122.458344 
L 126.353837 -124.663552 
L 125.845388 -126.868759 
L 125.393526 -129.073967 
L 125.003515 -131.279174 
L 124.67712 -133.484382 
L 124.413618 -135.689589 
L 124.210472 -137.894797 
L 124.063909 -140.100004 
L 123.969406 -142.305212 
L 123.921907 -144.510419 
L 123.915626 -146.715627 
L 123.943544 -148.920834 
L 123.996991 -151.126042 
L 124.065722 -153.331249 
L 124.138663 -155.536457 
L 124.205195 -157.741664 
L 124.256641 -159.946872 
L 124.287667 -162.152079 
L 124.297441 -164.357287 
L 124.290435 -166.562494 
L 124.27668 -168.767702 
L 124.271176 -170.972909 
L 124.292243 -173.178117 
L 124.358899 -175.383324 
L 124.487765 -177.588532 
L 124.690276 -179.793739 
L 124.970927 -181.998947 
L 125.326981 -184.204155 
L 125.749571 -186.409362 
L 126.225738 -188.61457 
L 126.740763 -190.819777 
L 127.280186 -193.024985 
L 127.831152 -195.230192 
L 128.38303 -197.4354 
L 128.927488 -199.640607 
L 129.458324 -201.845815 
L 129.971236 -204.051022 
L 130.463603 -206.25623 
L 130.934186 -208.461437 
L 131.382668 -210.666645 
L 131.809073 -212.871852 
L 132.213207 -215.07706 
L 132.594359 -217.282267 
L 132.951335 -219.487475 
L 133.282765 -221.692682 
L 133.587449 -223.89789 
L 133.864555 -226.103097 
L 134.113628 -228.308305 
L 134.334531 -230.513512 
L 134.527518 -232.71872 
L 134.693508 -234.923927 
L 134.83448 -237.129135 
L 134.953756 -239.334342 
L 135.055916 -241.53955 
L 135.146261 -243.744757 
L 135.229921 -245.949965 
L 135.310881 -248.155173 
L 135.391249 -250.36038 
L 135.471044 -252.565588 
L 135.548551 -254.770795 
L 135.621121 -256.976003 
L 135.686098 -259.18121 
L 135.741586 -261.386418 
L 135.78682 -263.591625 
L 135.822171 -265.796833 
L 135.848909 -268.00204 
L 135.868924 -270.207248 
L 135.884533 -272.412455 
L 135.898355 -274.617663 
L 135.913162 -276.82287 
L 135.931606 -279.028078 
L 135.955807 -281.233285 
L 135.986903 -283.438493 
L 136.024731 -285.6437 
L 136.067775 -287.848908 
L 136.590295 -287.848908 
L 136.590295 -287.848908 
L 136.633339 -285.6437 
L 136.671167 -283.438493 
L 136.702263 -281.233285 
L 136.726464 -279.028078 
L 136.744908 -276.82287 
L 136.759715 -274.617663 
L 136.773537 -272.412455 
L 136.789146 -270.207248 
L 136.809161 -268.00204 
L 136.835899 -265.796833 
L 136.87125 -263.591625 
L 136.916484 -261.386418 
L 136.971972 -259.18121 
L 137.036949 -256.976003 
L 137.109519 -254.770795 
L 137.187026 -252.565588 
L 137.266821 -250.36038 
L 137.347189 -248.155173 
L 137.428149 -245.949965 
L 137.511809 -243.744757 
L 137.602154 -241.53955 
L 137.704314 -239.334342 
L 137.82359 -237.129135 
L 137.964562 -234.923927 
L 138.130552 -232.71872 
L 138.323539 -230.513512 
L 138.544442 -228.308305 
L 138.793515 -226.103097 
L 139.070621 -223.89789 
L 139.375305 -221.692682 
L 139.706735 -219.487475 
L 140.063711 -217.282267 
L 140.444863 -215.07706 
L 140.848997 -212.871852 
L 141.275402 -210.666645 
L 141.723884 -208.461437 
L 142.194467 -206.25623 
L 142.686834 -204.051022 
L 143.199746 -201.845815 
L 143.730582 -199.640607 
L 144.27504 -197.4354 
L 144.826918 -195.230192 
L 145.377884 -193.024985 
L 145.917307 -190.819777 
L 146.432332 -188.61457 
L 146.908499 -186.409362 
L 147.331089 -184.204155 
L 147.687143 -181.998947 
L 147.967794 -179.793739 
L 148.170305 -177.588532 
L 148.299171 -175.383324 
L 148.365827 -173.178117 
L 148.386894 -170.972909 
L 148.38139 -168.767702 
L 148.367635 -166.562494 
L 148.360629 -164.357287 
L 148.370403 -162.152079 
L 148.401429 -159.946872 
L 148.452875 -157.741664 
L 148.519407 -155.536457 
L 148.592348 -153.331249 
L 148.661079 -151.126042 
L 148.714526 -148.920834 
L 148.742444 -146.715627 
L 148.736163 -144.510419 
L 148.688664 -142.305212 
L 148.594161 -140.100004 
L 148.447598 -137.894797 
L 148.244452 -135.689589 
L 147.98095 -133.484382 
L 147.654555 -131.279174 
L 147.264544 -129.073967 
L 146.812682 -126.868759 
L 146.304233 -124.663552 
L 145.749446 -122.458344 
L 145.165338 -120.253137 
L 144.577064 -118.047929 
L 144.017947 -115.842721 
L 143.527431 -113.637514 
L 143.146941 -111.432306 
L 142.914433 -109.227099 
L 142.859084 -107.021891 
L 142.997779 -104.816684 
L 143.334732 -102.611476 
L 143.864857 -100.406269 
L 144.580439 -98.201061 
L 145.479331 -95.995854 
L 146.571551 -93.790646 
L 147.88013 -91.585439 
L 149.432242 -89.380231 
L 151.238956 -87.175024 
L 153.266572 -84.969816 
L 155.408559 -82.764609 
L 157.471531 -80.559401 
L 159.188224 -78.354194 
L 160.262751 -76.148986 
L 160.440252 -73.943779 
L 159.579903 -71.738571 
L 157.704491 -69.533364 
z
" id="m7dce8e54d8" style="stroke:#141414;stroke-width:1.5;"/>
    </defs>
    <g clip-path="url(#p71aee9fcc8)">
     <use style="fill:#083c1d;stroke:#141414;stroke-width:1.5;" x="0" xlink:href="#m7dce8e54d8" y="540.169"/>
    </g>
   </g>
   <g id="PolyCollection_2">
    <defs>
     <path d="M 293.703704 -69.533364 
L 238.710506 -69.533364 
L 236.832767 -71.137151 
L 235.901277 -72.740938 
L 235.972674 -74.344725 
L 236.994414 -75.948513 
L 238.818115 -77.5523 
L 241.228447 -79.156087 
L 243.979855 -80.759875 
L 246.832489 -82.363662 
L 249.580352 -83.967449 
L 252.067974 -85.571236 
L 254.195456 -87.175024 
L 255.914436 -88.778811 
L 257.218716 -90.382598 
L 258.133152 -91.986386 
L 258.703261 -93.590173 
L 258.986702 -95.19396 
L 259.046677 -96.797747 
L 258.9468 -98.401535 
L 258.74689 -100.005322 
L 258.499421 -101.609109 
L 258.246688 -103.212897 
L 258.018916 -104.816684 
L 257.833599 -106.420471 
L 257.696196 -108.024258 
L 257.602111 -109.628046 
L 257.539635 -111.231833 
L 257.493416 -112.83562 
L 257.44791 -114.439408 
L 257.39032 -116.043195 
L 257.312617 -117.646982 
L 257.212405 -119.250769 
L 257.092602 -120.854557 
L 256.960089 -122.458344 
L 256.82368 -124.062131 
L 256.691814 -125.665919 
L 256.570429 -127.269706 
L 256.461362 -128.873493 
L 256.361506 -130.47728 
L 256.262807 -132.081068 
L 256.153021 -133.684855 
L 256.017056 -135.288642 
L 255.83867 -136.89243 
L 255.602279 -138.496217 
L 255.294659 -140.100004 
L 254.906394 -141.703791 
L 254.432942 -143.307579 
L 253.875292 -144.911366 
L 253.240153 -146.515153 
L 252.539692 -148.118941 
L 251.790817 -149.722728 
L 251.014054 -151.326515 
L 250.232115 -152.930302 
L 249.468339 -154.53409 
L 248.745261 -156.137877 
L 248.08356 -157.741664 
L 247.501598 -159.345452 
L 247.015602 -160.949239 
L 246.640328 -162.553026 
L 246.389876 -164.156813 
L 246.278222 -165.760601 
L 246.319092 -167.364388 
L 246.525 -168.968175 
L 246.905556 -170.571963 
L 247.465405 -172.17575 
L 248.202318 -173.779537 
L 249.10592 -175.383324 
L 250.1574 -176.987112 
L 251.330285 -178.590899 
L 252.592155 -180.194686 
L 253.906985 -181.798474 
L 255.237754 -183.402261 
L 256.549001 -185.006048 
L 257.809024 -186.609835 
L 258.991564 -188.213623 
L 260.076865 -189.81741 
L 261.052091 -191.421197 
L 261.911145 -193.024985 
L 262.654003 -194.628772 
L 263.285679 -196.232559 
L 263.814982 -197.836346 
L 264.253197 -199.440134 
L 264.612815 -201.043921 
L 264.906418 -202.647708 
L 265.145797 -204.251496 
L 265.341345 -205.855283 
L 265.501744 -207.45907 
L 265.633918 -209.062857 
L 265.743191 -210.666645 
L 265.833568 -212.270432 
L 265.908069 -213.874219 
L 265.969035 -215.478007 
L 266.018389 -217.081794 
L 266.057806 -218.685581 
L 266.088825 -220.289368 
L 266.112891 -221.893156 
L 266.131363 -223.496943 
L 266.145492 -225.10073 
L 266.156387 -226.704518 
L 266.164977 -228.308305 
L 266.249233 -228.308305 
L 266.249233 -228.308305 
L 266.257823 -226.704518 
L 266.268718 -225.10073 
L 266.282847 -223.496943 
L 266.301319 -221.893156 
L 266.325385 -220.289368 
L 266.356404 -218.685581 
L 266.395821 -217.081794 
L 266.445175 -215.478007 
L 266.506141 -213.874219 
L 266.580642 -212.270432 
L 266.671019 -210.666645 
L 266.780292 -209.062857 
L 266.912466 -207.45907 
L 267.072865 -205.855283 
L 267.268413 -204.251496 
L 267.507792 -202.647708 
L 267.801395 -201.043921 
L 268.161013 -199.440134 
L 268.599228 -197.836346 
L 269.128531 -196.232559 
L 269.760207 -194.628772 
L 270.503065 -193.024985 
L 271.362119 -191.421197 
L 272.337345 -189.81741 
L 273.422646 -188.213623 
L 274.605186 -186.609835 
L 275.865209 -185.006048 
L 277.176456 -183.402261 
L 278.507225 -181.798474 
L 279.822055 -180.194686 
L 281.083925 -178.590899 
L 282.25681 -176.987112 
L 283.30829 -175.383324 
L 284.211892 -173.779537 
L 284.948805 -172.17575 
L 285.508654 -170.571963 
L 285.88921 -168.968175 
L 286.095118 -167.364388 
L 286.135988 -165.760601 
L 286.024334 -164.156813 
L 285.773882 -162.553026 
L 285.398608 -160.949239 
L 284.912612 -159.345452 
L 284.33065 -157.741664 
L 283.668949 -156.137877 
L 282.945871 -154.53409 
L 282.182095 -152.930302 
L 281.400156 -151.326515 
L 280.623393 -149.722728 
L 279.874518 -148.118941 
L 279.174057 -146.515153 
L 278.538918 -144.911366 
L 277.981268 -143.307579 
L 277.507816 -141.703791 
L 277.119551 -140.100004 
L 276.811931 -138.496217 
L 276.57554 -136.89243 
L 276.397154 -135.288642 
L 276.261189 -133.684855 
L 276.151403 -132.081068 
L 276.052704 -130.47728 
L 275.952848 -128.873493 
L 275.843781 -127.269706 
L 275.722396 -125.665919 
L 275.59053 -124.062131 
L 275.454121 -122.458344 
L 275.321608 -120.854557 
L 275.201805 -119.250769 
L 275.101593 -117.646982 
L 275.02389 -116.043195 
L 274.9663 -114.439408 
L 274.920794 -112.83562 
L 274.874575 -111.231833 
L 274.812099 -109.628046 
L 274.718014 -108.024258 
L 274.580611 -106.420471 
L 274.395294 -104.816684 
L 274.167522 -103.212897 
L 273.914789 -101.609109 
L 273.66732 -100.005322 
L 273.46741 -98.401535 
L 273.367533 -96.797747 
L 273.427508 -95.19396 
L 273.710949 -93.590173 
L 274.281058 -91.986386 
L 275.195494 -90.382598 
L 276.499774 -88.778811 
L 278.218754 -87.175024 
L 280.346236 -85.571236 
L 282.833858 -83.967449 
L 285.581721 -82.363662 
L 288.434355 -80.759875 
L 291.185763 -79.156087 
L 293.596095 -77.5523 
L 295.419796 -75.948513 
L 296.441536 -74.344725 
L 296.512933 -72.740938 
L 295.581443 -71.137151 
L 293.703704 -69.533364 
z
" id="m3aa92cf4e7" style="stroke:#141414;stroke-width:1.5;"/>
    </defs>
    <g clip-path="url(#p71aee9fcc8)">
     <use style="fill:#0e5f2f;stroke:#141414;stroke-width:1.5;" x="0" xlink:href="#m3aa92cf4e7" y="540.169"/>
    </g>
   </g>
   <g id="PolyCollection_3">
    <defs>
     <path d="M 404.573251 -69.533364 
L 387.597099 -69.533364 
L 386.391154 -73.633956 
L 385.5268 -77.734549 
L 385.080179 -81.835141 
L 385.06402 -85.935734 
L 385.431867 -90.036326 
L 386.095809 -94.136919 
L 386.949848 -98.237511 
L 387.89091 -102.338104 
L 388.832605 -106.438696 
L 389.71093 -110.539289 
L 390.484007 -114.639881 
L 391.128833 -118.740474 
L 391.637337 -122.841066 
L 392.012869 -126.941659 
L 392.267277 -131.042251 
L 392.418318 -135.142843 
L 392.487094 -139.243436 
L 392.495406 -143.344028 
L 392.463175 -147.444621 
L 392.406264 -151.545213 
L 392.335141 -155.645806 
L 392.254691 -159.746398 
L 392.165269 -163.846991 
L 392.064743 -167.947583 
L 391.951016 -172.048176 
L 391.824398 -176.148768 
L 391.689247 -180.249361 
L 391.554454 -184.349953 
L 391.432641 -188.450546 
L 391.338166 -192.551138 
L 391.284354 -196.651731 
L 391.280553 -200.752323 
L 391.329794 -204.852916 
L 391.427699 -208.953508 
L 391.563029 -213.054101 
L 391.719761 -217.154693 
L 391.880099 -221.255286 
L 392.027568 -225.355878 
L 392.149355 -229.456471 
L 392.237406 -233.557063 
L 392.288264 -237.657656 
L 392.30205 -241.758248 
L 392.281183 -245.858841 
L 392.229377 -249.959433 
L 392.151113 -254.060026 
L 392.051478 -258.160618 
L 391.936025 -262.261211 
L 391.810328 -266.361803 
L 391.679168 -270.462396 
L 391.545575 -274.562988 
L 391.410127 -278.663581 
L 391.270861 -282.764173 
L 391.123898 -286.864766 
L 390.964631 -290.965358 
L 390.789173 -295.065951 
L 390.595755 -299.166543 
L 390.385844 -303.267136 
L 390.164832 -307.367728 
L 389.942139 -311.468321 
L 389.730606 -315.568913 
L 389.545154 -319.669506 
L 389.400895 -323.770098 
L 389.311088 -327.870691 
L 389.285434 -331.971283 
L 389.329107 -336.071876 
L 389.442605 -340.172468 
L 389.622285 -344.273061 
L 389.861235 -348.373653 
L 390.150208 -352.474245 
L 390.478456 -356.574838 
L 390.834464 -360.67543 
L 391.206655 -364.776023 
L 391.584093 -368.876615 
L 391.957175 -372.977208 
L 392.318188 -377.0778 
L 392.661636 -381.178393 
L 392.984254 -385.278985 
L 393.2847 -389.379578 
L 393.563 -393.48017 
L 393.819873 -397.580763 
L 394.05611 -401.681355 
L 394.272184 -405.781948 
L 394.468184 -409.88254 
L 394.644089 -413.983133 
L 394.800224 -418.083725 
L 394.937716 -422.184318 
L 395.058718 -426.28491 
L 395.166302 -430.385503 
L 395.26402 -434.486095 
L 395.355292 -438.586688 
L 395.442787 -442.68728 
L 395.527996 -446.787873 
L 395.611094 -450.888465 
L 395.691105 -454.989058 
L 395.766302 -459.08965 
L 395.834735 -463.190243 
L 395.894714 -467.290835 
L 395.945183 -471.391428 
L 395.985872 -475.49202 
L 396.184478 -475.49202 
L 396.184478 -475.49202 
L 396.225167 -471.391428 
L 396.275636 -467.290835 
L 396.335615 -463.190243 
L 396.404048 -459.08965 
L 396.479245 -454.989058 
L 396.559256 -450.888465 
L 396.642354 -446.787873 
L 396.727563 -442.68728 
L 396.815058 -438.586688 
L 396.90633 -434.486095 
L 397.004048 -430.385503 
L 397.111632 -426.28491 
L 397.232634 -422.184318 
L 397.370126 -418.083725 
L 397.526261 -413.983133 
L 397.702166 -409.88254 
L 397.898166 -405.781948 
L 398.11424 -401.681355 
L 398.350477 -397.580763 
L 398.60735 -393.48017 
L 398.88565 -389.379578 
L 399.186096 -385.278985 
L 399.508714 -381.178393 
L 399.852162 -377.0778 
L 400.213175 -372.977208 
L 400.586257 -368.876615 
L 400.963695 -364.776023 
L 401.335886 -360.67543 
L 401.691894 -356.574838 
L 402.020142 -352.474245 
L 402.309115 -348.373653 
L 402.548065 -344.273061 
L 402.727745 -340.172468 
L 402.841243 -336.071876 
L 402.884916 -331.971283 
L 402.859262 -327.870691 
L 402.769455 -323.770098 
L 402.625196 -319.669506 
L 402.439744 -315.568913 
L 402.228211 -311.468321 
L 402.005518 -307.367728 
L 401.784506 -303.267136 
L 401.574595 -299.166543 
L 401.381177 -295.065951 
L 401.205719 -290.965358 
L 401.046452 -286.864766 
L 400.899489 -282.764173 
L 400.760223 -278.663581 
L 400.624775 -274.562988 
L 400.491182 -270.462396 
L 400.360022 -266.361803 
L 400.234325 -262.261211 
L 400.118872 -258.160618 
L 400.019237 -254.060026 
L 399.940973 -249.959433 
L 399.889167 -245.858841 
L 399.8683 -241.758248 
L 399.882086 -237.657656 
L 399.932944 -233.557063 
L 400.020995 -229.456471 
L 400.142782 -225.355878 
L 400.290251 -221.255286 
L 400.450589 -217.154693 
L 400.607321 -213.054101 
L 400.742651 -208.953508 
L 400.840556 -204.852916 
L 400.889797 -200.752323 
L 400.885996 -196.651731 
L 400.832184 -192.551138 
L 400.737709 -188.450546 
L 400.615896 -184.349953 
L 400.481103 -180.249361 
L 400.345952 -176.148768 
L 400.219334 -172.048176 
L 400.105607 -167.947583 
L 400.005081 -163.846991 
L 399.915659 -159.746398 
L 399.835209 -155.645806 
L 399.764086 -151.545213 
L 399.707175 -147.444621 
L 399.674944 -143.344028 
L 399.683256 -139.243436 
L 399.752032 -135.142843 
L 399.903073 -131.042251 
L 400.157481 -126.941659 
L 400.533013 -122.841066 
L 401.041517 -118.740474 
L 401.686343 -114.639881 
L 402.45942 -110.539289 
L 403.337745 -106.438696 
L 404.27944 -102.338104 
L 405.220502 -98.237511 
L 406.074541 -94.136919 
L 406.738483 -90.036326 
L 407.10633 -85.935734 
L 407.090171 -81.835141 
L 406.64355 -77.734549 
L 405.779196 -73.633956 
L 404.573251 -69.533364 
z
" id="m31a3dfeae8" style="stroke:#141414;stroke-width:1.5;"/>
    </defs>
    <g clip-path="url(#p71aee9fcc8)">
     <use style="fill:#307e4a;stroke:#141414;stroke-width:1.5;" x="0" xlink:href="#m31a3dfeae8" y="540.169"/>
    </g>
   </g>
   <g id="PolyCollection_4">
    <defs>
     <path d="M 532.787029 -69.533364 
L 519.139461 -69.533364 
L 518.138135 -73.991619 
L 517.357374 -78.449874 
L 516.865566 -82.908129 
L 516.69352 -87.366385 
L 516.830949 -91.82464 
L 517.231751 -96.282895 
L 517.8258 -100.741151 
L 518.533431 -105.199406 
L 519.278792 -109.657661 
L 519.999377 -114.115916 
L 520.650658 -118.574172 
L 521.206233 -123.032427 
L 521.65485 -127.490682 
L 521.996009 -131.948938 
L 522.23568 -136.407193 
L 522.383178 -140.865448 
L 522.449586 -145.323703 
L 522.447533 -149.781959 
L 522.391662 -154.240214 
L 522.29903 -158.698469 
L 522.188775 -163.156725 
L 522.080779 -167.61498 
L 521.9935 -172.073235 
L 521.941507 -176.53149 
L 521.93342 -180.989746 
L 521.97085 -185.448001 
L 522.04865 -189.906256 
L 522.156393 -194.364511 
L 522.280652 -198.822767 
L 522.407498 -203.281022 
L 522.524634 -207.739277 
L 522.622796 -212.197533 
L 522.696304 -216.655788 
L 522.742885 -221.114043 
L 522.763038 -225.572298 
L 522.759226 -230.030554 
L 522.735095 -234.488809 
L 522.694815 -238.947064 
L 522.642546 -243.40532 
L 522.582017 -247.863575 
L 522.516212 -252.32183 
L 522.447208 -256.780085 
L 522.376237 -261.238341 
L 522.303998 -265.696596 
L 522.231161 -270.154851 
L 522.158939 -274.613107 
L 522.089504 -279.071362 
L 522.026057 -283.529617 
L 521.972429 -287.987872 
L 521.932269 -292.446128 
L 521.908011 -296.904383 
L 521.899927 -301.362638 
L 521.90556 -305.820893 
L 521.91973 -310.279149 
L 521.935092 -314.737404 
L 521.943103 -319.195659 
L 521.935175 -323.653915 
L 521.903809 -328.11217 
L 521.843629 -332.570425 
L 521.752291 -337.02868 
L 521.63122 -341.486936 
L 521.486076 -345.945191 
L 521.3267 -350.403446 
L 521.16633 -354.861702 
L 521.019987 -359.319957 
L 520.902177 -363.778212 
L 520.82438 -368.236467 
L 520.792951 -372.694723 
L 520.808046 -377.152978 
L 520.863933 -381.611233 
L 520.950657 -386.069489 
L 521.056602 -390.527744 
L 521.171222 -394.985999 
L 521.287208 -399.444254 
L 521.401513 -403.90251 
L 521.515114 -408.360765 
L 521.631708 -412.81902 
L 521.755909 -417.277275 
L 521.89155 -421.735531 
L 522.040592 -426.193786 
L 522.20288 -430.652041 
L 522.37666 -435.110297 
L 522.559553 -439.568552 
L 522.749572 -444.026807 
L 522.945813 -448.485062 
L 523.148601 -452.943318 
L 523.359077 -457.401573 
L 523.578387 -461.859828 
L 523.806759 -466.318084 
L 524.042776 -470.776339 
L 524.283063 -475.234594 
L 524.522493 -479.692849 
L 524.754827 -484.151105 
L 524.973616 -488.60936 
L 525.173117 -493.067615 
L 525.349026 -497.525871 
L 525.498898 -501.984126 
L 525.622218 -506.442381 
L 525.720186 -510.900636 
L 526.206304 -510.900636 
L 526.206304 -510.900636 
L 526.304272 -506.442381 
L 526.427592 -501.984126 
L 526.577464 -497.525871 
L 526.753373 -493.067615 
L 526.952874 -488.60936 
L 527.171663 -484.151105 
L 527.403997 -479.692849 
L 527.643427 -475.234594 
L 527.883714 -470.776339 
L 528.119731 -466.318084 
L 528.348103 -461.859828 
L 528.567413 -457.401573 
L 528.777889 -452.943318 
L 528.980677 -448.485062 
L 529.176918 -444.026807 
L 529.366937 -439.568552 
L 529.54983 -435.110297 
L 529.72361 -430.652041 
L 529.885898 -426.193786 
L 530.03494 -421.735531 
L 530.170581 -417.277275 
L 530.294782 -412.81902 
L 530.411376 -408.360765 
L 530.524977 -403.90251 
L 530.639282 -399.444254 
L 530.755268 -394.985999 
L 530.869888 -390.527744 
L 530.975833 -386.069489 
L 531.062557 -381.611233 
L 531.118444 -377.152978 
L 531.133539 -372.694723 
L 531.10211 -368.236467 
L 531.024313 -363.778212 
L 530.906503 -359.319957 
L 530.76016 -354.861702 
L 530.59979 -350.403446 
L 530.440414 -345.945191 
L 530.29527 -341.486936 
L 530.174199 -337.02868 
L 530.082861 -332.570425 
L 530.022681 -328.11217 
L 529.991315 -323.653915 
L 529.983387 -319.195659 
L 529.991398 -314.737404 
L 530.00676 -310.279149 
L 530.02093 -305.820893 
L 530.026563 -301.362638 
L 530.018479 -296.904383 
L 529.994221 -292.446128 
L 529.954061 -287.987872 
L 529.900433 -283.529617 
L 529.836986 -279.071362 
L 529.767551 -274.613107 
L 529.695329 -270.154851 
L 529.622492 -265.696596 
L 529.550253 -261.238341 
L 529.479282 -256.780085 
L 529.410278 -252.32183 
L 529.344473 -247.863575 
L 529.283944 -243.40532 
L 529.231675 -238.947064 
L 529.191395 -234.488809 
L 529.167264 -230.030554 
L 529.163452 -225.572298 
L 529.183605 -221.114043 
L 529.230186 -216.655788 
L 529.303694 -212.197533 
L 529.401856 -207.739277 
L 529.518992 -203.281022 
L 529.645838 -198.822767 
L 529.770097 -194.364511 
L 529.87784 -189.906256 
L 529.95564 -185.448001 
L 529.99307 -180.989746 
L 529.984983 -176.53149 
L 529.93299 -172.073235 
L 529.845711 -167.61498 
L 529.737715 -163.156725 
L 529.62746 -158.698469 
L 529.534828 -154.240214 
L 529.478957 -149.781959 
L 529.476904 -145.323703 
L 529.543312 -140.865448 
L 529.69081 -136.407193 
L 529.930481 -131.948938 
L 530.27164 -127.490682 
L 530.720257 -123.032427 
L 531.275832 -118.574172 
L 531.927113 -114.115916 
L 532.647698 -109.657661 
L 533.393059 -105.199406 
L 534.10069 -100.741151 
L 534.694739 -96.282895 
L 535.095541 -91.82464 
L 535.23297 -87.366385 
L 535.060924 -82.908129 
L 534.569116 -78.449874 
L 533.788355 -73.991619 
L 532.787029 -69.533364 
z
" id="mae657b157f" style="stroke:#141414;stroke-width:1.5;"/>
    </defs>
    <g clip-path="url(#p71aee9fcc8)">
     <use style="fill:#4fa076;stroke:#141414;stroke-width:1.5;" x="0" xlink:href="#mae657b157f" y="540.169"/>
    </g>
   </g>
   <g id="PolyCollection_5">
    <defs>
     <path d="M 697.035097 -69.533364 
L 614.647533 -69.533364 
L 608.718277 -70.419547 
L 605.072411 -71.305731 
L 603.890087 -72.191914 
L 604.819025 -73.078098 
L 607.159322 -73.964282 
L 610.126585 -74.850465 
L 613.07017 -75.736649 
L 615.577472 -76.622832 
L 617.469765 -77.509016 
L 618.74117 -78.3952 
L 619.493684 -79.281383 
L 619.893007 -80.167567 
L 620.13997 -81.05375 
L 620.440314 -81.939934 
L 620.964422 -82.826118 
L 621.806197 -83.712301 
L 622.96032 -84.598485 
L 624.331374 -85.484668 
L 625.77163 -86.370852 
L 627.129825 -87.257036 
L 628.290477 -88.143219 
L 629.192056 -89.029403 
L 629.82455 -89.915586 
L 630.214831 -90.80177 
L 630.409023 -91.687954 
L 630.457531 -92.574137 
L 630.404553 -93.460321 
L 630.282234 -94.346504 
L 630.109552 -95.232688 
L 629.8958 -96.118872 
L 629.647164 -97.005055 
L 629.373111 -97.891239 
L 629.088946 -98.777422 
L 628.812877 -99.663606 
L 628.559648 -100.54979 
L 628.335742 -101.435973 
L 628.140675 -102.322157 
L 627.974579 -103.20834 
L 627.846713 -104.094524 
L 627.777494 -104.980708 
L 627.790417 -105.866891 
L 627.897727 -106.753075 
L 628.088897 -107.639258 
L 628.329856 -108.525442 
L 628.574206 -109.411626 
L 628.780765 -110.297809 
L 628.929007 -111.183993 
L 629.026303 -112.070176 
L 629.105434 -112.95636 
L 629.214726 -113.842544 
L 629.404845 -114.728727 
L 629.7164 -115.614911 
L 630.171671 -116.501094 
L 630.772673 -117.387278 
L 631.505935 -118.273462 
L 632.351948 -119.159645 
L 633.295046 -120.045829 
L 634.329044 -120.932012 
L 635.456123 -121.818196 
L 636.68018 -122.70438 
L 637.998712 -123.590563 
L 639.397456 -124.476747 
L 640.849804 -125.36293 
L 642.320192 -126.249114 
L 643.769084 -127.135298 
L 645.157438 -128.021481 
L 646.449933 -128.907665 
L 647.617597 -129.793848 
L 648.640638 -130.680032 
L 649.511331 -131.566216 
L 650.235601 -132.452399 
L 650.83181 -133.338583 
L 651.326516 -134.224766 
L 651.748624 -135.11095 
L 652.124072 -135.997134 
L 652.472426 -136.883317 
L 652.805363 -137.769501 
L 653.126357 -138.655684 
L 653.431233 -139.541868 
L 653.710002 -140.428052 
L 653.950379 -141.314235 
L 654.142444 -142.200419 
L 654.282705 -143.086602 
L 654.375608 -143.972786 
L 654.431649 -144.85897 
L 654.46304 -145.745153 
L 654.479182 -146.631337 
L 654.484148 -147.51752 
L 654.477074 -148.403704 
L 654.454808 -149.289888 
L 654.415385 -150.176071 
L 654.361133 -151.062255 
L 654.300757 -151.948438 
L 654.249868 -152.834622 
L 654.229133 -153.720806 
L 654.259471 -154.606989 
L 654.355113 -155.493173 
L 654.517208 -156.379356 
L 654.731416 -157.26554 
L 656.951214 -157.26554 
L 656.951214 -157.26554 
L 657.165422 -156.379356 
L 657.327517 -155.493173 
L 657.423159 -154.606989 
L 657.453497 -153.720806 
L 657.432762 -152.834622 
L 657.381873 -151.948438 
L 657.321497 -151.062255 
L 657.267245 -150.176071 
L 657.227822 -149.289888 
L 657.205556 -148.403704 
L 657.198482 -147.51752 
L 657.203448 -146.631337 
L 657.21959 -145.745153 
L 657.250981 -144.85897 
L 657.307022 -143.972786 
L 657.399925 -143.086602 
L 657.540186 -142.200419 
L 657.732251 -141.314235 
L 657.972628 -140.428052 
L 658.251397 -139.541868 
L 658.556273 -138.655684 
L 658.877267 -137.769501 
L 659.210204 -136.883317 
L 659.558558 -135.997134 
L 659.934006 -135.11095 
L 660.356114 -134.224766 
L 660.85082 -133.338583 
L 661.447029 -132.452399 
L 662.171299 -131.566216 
L 663.041992 -130.680032 
L 664.065033 -129.793848 
L 665.232697 -128.907665 
L 666.525192 -128.021481 
L 667.913546 -127.135298 
L 669.362438 -126.249114 
L 670.832826 -125.36293 
L 672.285174 -124.476747 
L 673.683918 -123.590563 
L 675.00245 -122.70438 
L 676.226507 -121.818196 
L 677.353586 -120.932012 
L 678.387584 -120.045829 
L 679.330682 -119.159645 
L 680.176695 -118.273462 
L 680.909957 -117.387278 
L 681.510959 -116.501094 
L 681.96623 -115.614911 
L 682.277785 -114.728727 
L 682.467904 -113.842544 
L 682.577196 -112.95636 
L 682.656327 -112.070176 
L 682.753623 -111.183993 
L 682.901865 -110.297809 
L 683.108424 -109.411626 
L 683.352774 -108.525442 
L 683.593733 -107.639258 
L 683.784903 -106.753075 
L 683.892213 -105.866891 
L 683.905136 -104.980708 
L 683.835917 -104.094524 
L 683.708051 -103.20834 
L 683.541955 -102.322157 
L 683.346888 -101.435973 
L 683.122982 -100.54979 
L 682.869753 -99.663606 
L 682.593684 -98.777422 
L 682.309519 -97.891239 
L 682.035466 -97.005055 
L 681.78683 -96.118872 
L 681.573078 -95.232688 
L 681.400396 -94.346504 
L 681.278077 -93.460321 
L 681.225099 -92.574137 
L 681.273607 -91.687954 
L 681.467799 -90.80177 
L 681.85808 -89.915586 
L 682.490574 -89.029403 
L 683.392153 -88.143219 
L 684.552805 -87.257036 
L 685.911 -86.370852 
L 687.351256 -85.484668 
L 688.72231 -84.598485 
L 689.876433 -83.712301 
L 690.718208 -82.826118 
L 691.242316 -81.939934 
L 691.54266 -81.05375 
L 691.789623 -80.167567 
L 692.188946 -79.281383 
L 692.94146 -78.3952 
L 694.212865 -77.509016 
L 696.105158 -76.622832 
L 698.61246 -75.736649 
L 701.556045 -74.850465 
L 704.523308 -73.964282 
L 706.863605 -73.078098 
L 707.792543 -72.191914 
L 706.610219 -71.305731 
L 702.964353 -70.419547 
L 697.035097 -69.533364 
z
" id="m25dfeaa0b2" style="stroke:#141414;stroke-width:1.5;"/>
    </defs>
    <g clip-path="url(#p71aee9fcc8)">
     <use style="fill:#72b6a0;stroke:#141414;stroke-width:1.5;" x="0" xlink:href="#m25dfeaa0b2" y="540.169"/>
    </g>
   </g>
   <g id="line2d_1">
    <path clip-path="url(#p71aee9fcc8)" d="M 136.329035 470.635636 
L 136.329035 252.320092 
" style="fill:none;stroke:#141414;stroke-linecap:round;stroke-width:1.5;"/>
   </g>
   <g id="line2d_2">
    <path clip-path="url(#p71aee9fcc8)" d="M 136.329035 460.48667 
L 136.329035 368.694907 
" style="fill:none;stroke:#141414;stroke-linecap:round;stroke-width:4.5;"/>
   </g>
   <g id="line2d_3">
    <path clip-path="url(#p71aee9fcc8)" d="M 266.207105 470.635636 
L 266.207105 311.860695 
" style="fill:none;stroke:#141414;stroke-linecap:round;stroke-width:1.5;"/>
   </g>
   <g id="line2d_4">
    <path clip-path="url(#p71aee9fcc8)" d="M 266.207105 464.771789 
L 266.207105 377.941743 
" style="fill:none;stroke:#141414;stroke-linecap:round;stroke-width:4.5;"/>
   </g>
   <g id="line2d_5">
    <path clip-path="url(#p71aee9fcc8)" d="M 396.085175 470.635636 
L 396.085175 64.67698 
" style="fill:none;stroke:#141414;stroke-linecap:round;stroke-width:1.5;"/>
   </g>
   <g id="line2d_6">
    <path clip-path="url(#p71aee9fcc8)" d="M 396.085175 439.286607 
L 396.085175 220.74553 
" style="fill:none;stroke:#141414;stroke-linecap:round;stroke-width:4.5;"/>
   </g>
   <g id="line2d_7">
    <path clip-path="url(#p71aee9fcc8)" d="M 525.963245 470.635636 
L 525.963245 29.268364 
" style="fill:none;stroke:#141414;stroke-linecap:round;stroke-width:1.5;"/>
   </g>
   <g id="line2d_8">
    <path clip-path="url(#p71aee9fcc8)" d="M 525.963245 431.167434 
L 525.963245 176.541143 
" style="fill:none;stroke:#141414;stroke-linecap:round;stroke-width:4.5;"/>
   </g>
   <g id="line2d_9">
    <path clip-path="url(#p71aee9fcc8)" d="M 655.841315 470.635636 
L 655.841315 382.90346 
" style="fill:none;stroke:#141414;stroke-linecap:round;stroke-width:1.5;"/>
   </g>
   <g id="line2d_10">
    <path clip-path="url(#p71aee9fcc8)" d="M 655.841315 462.967528 
L 655.841315 429.814238 
" style="fill:none;stroke:#141414;stroke-linecap:round;stroke-width:4.5;"/>
   </g>
   <g id="patch_3">
    <path d="M 71.39 492.704 
L 71.39 7.2 
" style="fill:none;stroke:#262626;stroke-linecap:square;stroke-linejoin:miter;stroke-width:0.8;"/>
   </g>
   <g id="patch_4">
    <path d="M 71.39 492.704 
L 720.78035 492.704 
" style="fill:none;stroke:#262626;stroke-linecap:square;stroke-linejoin:miter;stroke-width:0.8;"/>
   </g>
   <g id="PathCollection_1">
    <defs>
     <path d="M 0 1.5 
C 0.397805 1.5 0.77937 1.341951 1.06066 1.06066 
C 1.341951 0.77937 1.5 0.397805 1.5 0 
C 1.5 -0.397805 1.341951 -0.77937 1.06066 -1.06066 
C 0.77937 -1.341951 0.397805 -1.5 0 -1.5 
C -0.397805 -1.5 -0.77937 -1.341951 -1.06066 -1.06066 
C -1.341951 -0.77937 -1.5 -0.397805 -1.5 0 
C -1.5 0.397805 -1.341951 0.77937 -1.06066 1.06066 
C -0.77937 1.341951 -0.397805 1.5 0 1.5 
z
" id="m17bc1417f1" style="stroke:#141414;"/>
    </defs>
    <g clip-path="url(#p71aee9fcc8)">
     <use style="fill:#ffffff;stroke:#141414;" x="136.329035" xlink:href="#m17bc1417f1" y="407.937577"/>
    </g>
   </g>
   <g id="PathCollection_2">
    <g clip-path="url(#p71aee9fcc8)">
     <use style="fill:#ffffff;stroke:#141414;" x="266.207105" xlink:href="#m17bc1417f1" y="414.703555"/>
    </g>
   </g>
   <g id="PathCollection_3">
    <g clip-path="url(#p71aee9fcc8)">
     <use style="fill:#ffffff;stroke:#141414;" x="396.085175" xlink:href="#m17bc1417f1" y="327.873509"/>
    </g>
   </g>
   <g id="PathCollection_4">
    <g clip-path="url(#p71aee9fcc8)">
     <use style="fill:#ffffff;stroke:#141414;" x="525.963245" xlink:href="#m17bc1417f1" y="295.847881"/>
    </g>
   </g>
   <g id="PathCollection_5">
    <g clip-path="url(#p71aee9fcc8)">
     <use style="fill:#ffffff;stroke:#141414;" x="655.841315" xlink:href="#m17bc1417f1" y="447.631312"/>
    </g>
   </g>
  </g>
 </g>
 <defs>
  <clipPath id="p71aee9fcc8">
   <rect height="485.504" width="649.39035" x="71.39" y="7.2"/>
  </clipPath>
 </defs>
</svg>
