<?xml version="1.0" encoding="utf-8" standalone="no"?>
<!DOCTYPE svg PUBLIC "-//W3C//DTD SVG 1.1//EN"
  "http://www.w3.org/Graphics/SVG/1.1/DTD/svg11.dtd">
<!-- Created with matplotlib (https://matplotlib.org/) -->
<svg height="536.575754pt" version="1.1" viewBox="0 0 727.9616 536.575754" width="727.9616pt" xmlns="http://www.w3.org/2000/svg" xmlns:xlink="http://www.w3.org/1999/xlink">
 <defs>
  <style type="text/css">
*{stroke-linecap:butt;stroke-linejoin:round;white-space:pre;}
  </style>
 </defs>
 <g id="figure_1">
  <g id="patch_1">
   <path d="M 0 536.575754 
L 727.9616 536.575754 
L 727.9616 0 
L 0 0 
z
" style="fill:#ffffff;"/>
  </g>
  <g id="axes_1">
   <g id="patch_2">
    <path d="M 71.39 489.110754 
L 720.7616 489.110754 
L 720.7616 7.2 
L 71.39 7.2 
z
" style="fill:#ffffff;"/>
   </g>
   <g id="matplotlib.axis_1">
    <g id="xtick_1">
     <g id="text_1">
      <!-- 1026-136-1 -->
      <defs>
       <path d="M 37.25 0 
L 28.46875 0 
L 28.46875 56 
Q 25.296875 52.984375 20.140625 49.953125 
Q 14.984375 46.921875 10.890625 45.40625 
L 10.890625 53.90625 
Q 18.265625 57.375 23.78125 62.296875 
Q 29.296875 67.234375 31.59375 71.875 
L 37.25 71.875 
z
" id="ArialMT-49"/>
       <path d="M 4.15625 35.296875 
Q 4.15625 48 6.765625 55.734375 
Q 9.375 63.484375 14.515625 67.671875 
Q 19.671875 71.875 27.484375 71.875 
Q 33.25 71.875 37.59375 69.546875 
Q 41.9375 67.234375 44.765625 62.859375 
Q 47.609375 58.5 49.21875 52.21875 
Q 50.828125 45.953125 50.828125 35.296875 
Q 50.828125 22.703125 48.234375 14.96875 
Q 45.65625 7.234375 40.5 3 
Q 35.359375 -1.21875 27.484375 -1.21875 
Q 17.140625 -1.21875 11.234375 6.203125 
Q 4.15625 15.140625 4.15625 35.296875 
z
M 13.1875 35.296875 
Q 13.1875 17.671875 17.3125 11.828125 
Q 21.4375 6 27.484375 6 
Q 33.546875 6 37.671875 11.859375 
Q 41.796875 17.71875 41.796875 35.296875 
Q 41.796875 52.984375 37.671875 58.78125 
Q 33.546875 64.59375 27.390625 64.59375 
Q 21.34375 64.59375 17.71875 59.46875 
Q 13.1875 52.9375 13.1875 35.296875 
z
" id="ArialMT-48"/>
       <path d="M 50.34375 8.453125 
L 50.34375 0 
L 3.03125 0 
Q 2.9375 3.171875 4.046875 6.109375 
Q 5.859375 10.9375 9.828125 15.625 
Q 13.8125 20.3125 21.34375 26.46875 
Q 33.015625 36.03125 37.109375 41.625 
Q 41.21875 47.21875 41.21875 52.203125 
Q 41.21875 57.421875 37.46875 61 
Q 33.734375 64.59375 27.734375 64.59375 
Q 21.390625 64.59375 17.578125 60.78125 
Q 13.765625 56.984375 13.71875 50.25 
L 4.6875 51.171875 
Q 5.609375 61.28125 11.65625 66.578125 
Q 17.71875 71.875 27.9375 71.875 
Q 38.234375 71.875 44.234375 66.15625 
Q 50.25 60.453125 50.25 52 
Q 50.25 47.703125 48.484375 43.546875 
Q 46.734375 39.40625 42.65625 34.8125 
Q 38.578125 30.21875 29.109375 22.21875 
Q 21.1875 15.578125 18.9375 13.203125 
Q 16.703125 10.84375 15.234375 8.453125 
z
" id="ArialMT-50"/>
       <path d="M 49.75 54.046875 
L 41.015625 53.375 
Q 39.84375 58.546875 37.703125 60.890625 
Q 34.125 64.65625 28.90625 64.65625 
Q 24.703125 64.65625 21.53125 62.3125 
Q 17.390625 59.28125 14.984375 53.46875 
Q 12.59375 47.65625 12.5 36.921875 
Q 15.671875 41.75 20.265625 44.09375 
Q 24.859375 46.4375 29.890625 46.4375 
Q 38.671875 46.4375 44.84375 39.96875 
Q 51.03125 33.5 51.03125 23.25 
Q 51.03125 16.5 48.125 10.71875 
Q 45.21875 4.9375 40.140625 1.859375 
Q 35.0625 -1.21875 28.609375 -1.21875 
Q 17.625 -1.21875 10.6875 6.859375 
Q 3.765625 14.9375 3.765625 33.5 
Q 3.765625 54.25 11.421875 63.671875 
Q 18.109375 71.875 29.4375 71.875 
Q 37.890625 71.875 43.28125 67.140625 
Q 48.6875 62.40625 49.75 54.046875 
z
M 13.875 23.1875 
Q 13.875 18.65625 15.796875 14.5 
Q 17.71875 10.359375 21.1875 8.171875 
Q 24.65625 6 28.46875 6 
Q 34.03125 6 38.03125 10.484375 
Q 42.046875 14.984375 42.046875 22.703125 
Q 42.046875 30.125 38.078125 34.390625 
Q 34.125 38.671875 28.125 38.671875 
Q 22.171875 38.671875 18.015625 34.390625 
Q 13.875 30.125 13.875 23.1875 
z
" id="ArialMT-54"/>
       <path d="M 3.171875 21.484375 
L 3.171875 30.328125 
L 30.171875 30.328125 
L 30.171875 21.484375 
z
" id="ArialMT-45"/>
       <path d="M 4.203125 18.890625 
L 12.984375 20.0625 
Q 14.5 12.59375 18.140625 9.296875 
Q 21.78125 6 27 6 
Q 33.203125 6 37.46875 10.296875 
Q 41.75 14.59375 41.75 20.953125 
Q 41.75 27 37.796875 30.921875 
Q 33.84375 34.859375 27.734375 34.859375 
Q 25.25 34.859375 21.53125 33.890625 
L 22.515625 41.609375 
Q 23.390625 41.5 23.921875 41.5 
Q 29.546875 41.5 34.03125 44.421875 
Q 38.53125 47.359375 38.53125 53.46875 
Q 38.53125 58.296875 35.25 61.46875 
Q 31.984375 64.65625 26.8125 64.65625 
Q 21.6875 64.65625 18.265625 61.421875 
Q 14.84375 58.203125 13.875 51.765625 
L 5.078125 53.328125 
Q 6.6875 62.15625 12.390625 67.015625 
Q 18.109375 71.875 26.609375 71.875 
Q 32.46875 71.875 37.390625 69.359375 
Q 42.328125 66.84375 44.9375 62.5 
Q 47.5625 58.15625 47.5625 53.265625 
Q 47.5625 48.640625 45.0625 44.828125 
Q 42.578125 41.015625 37.703125 38.765625 
Q 44.046875 37.3125 47.5625 32.6875 
Q 51.078125 28.078125 51.078125 21.140625 
Q 51.078125 11.765625 44.234375 5.25 
Q 37.40625 -1.265625 26.953125 -1.265625 
Q 17.53125 -1.265625 11.296875 4.34375 
Q 5.078125 9.96875 4.203125 18.890625 
z
" id="ArialMT-51"/>
      </defs>
      <g style="fill:#262626;" transform="translate(95.40966 507.563254)scale(0.16 -0.16)">
       <use xlink:href="#ArialMT-49"/>
       <use x="55.615234" xlink:href="#ArialMT-48"/>
       <use x="111.230469" xlink:href="#ArialMT-50"/>
       <use x="166.845703" xlink:href="#ArialMT-54"/>
       <use x="222.460938" xlink:href="#ArialMT-45"/>
       <use x="255.761719" xlink:href="#ArialMT-49"/>
       <use x="311.376953" xlink:href="#ArialMT-51"/>
       <use x="366.992188" xlink:href="#ArialMT-54"/>
       <use x="422.607422" xlink:href="#ArialMT-45"/>
       <use x="455.908203" xlink:href="#ArialMT-49"/>
      </g>
     </g>
    </g>
    <g id="xtick_2">
     <g id="text_2">
      <!-- 1028-18a-1 -->
      <defs>
       <path d="M 17.671875 38.8125 
Q 12.203125 40.828125 9.5625 44.53125 
Q 6.9375 48.25 6.9375 53.421875 
Q 6.9375 61.234375 12.546875 66.546875 
Q 18.171875 71.875 27.484375 71.875 
Q 36.859375 71.875 42.578125 66.421875 
Q 48.296875 60.984375 48.296875 53.171875 
Q 48.296875 48.1875 45.671875 44.5 
Q 43.0625 40.828125 37.75 38.8125 
Q 44.34375 36.671875 47.78125 31.875 
Q 51.21875 27.09375 51.21875 20.453125 
Q 51.21875 11.28125 44.71875 5.03125 
Q 38.234375 -1.21875 27.640625 -1.21875 
Q 17.046875 -1.21875 10.546875 5.046875 
Q 4.046875 11.328125 4.046875 20.703125 
Q 4.046875 27.6875 7.59375 32.390625 
Q 11.140625 37.109375 17.671875 38.8125 
z
M 15.921875 53.71875 
Q 15.921875 48.640625 19.1875 45.40625 
Q 22.46875 42.1875 27.6875 42.1875 
Q 32.765625 42.1875 36.015625 45.375 
Q 39.265625 48.578125 39.265625 53.21875 
Q 39.265625 58.0625 35.90625 61.359375 
Q 32.5625 64.65625 27.59375 64.65625 
Q 22.5625 64.65625 19.234375 61.421875 
Q 15.921875 58.203125 15.921875 53.71875 
z
M 13.09375 20.65625 
Q 13.09375 16.890625 14.875 13.375 
Q 16.65625 9.859375 20.171875 7.921875 
Q 23.6875 6 27.734375 6 
Q 34.03125 6 38.125 10.046875 
Q 42.234375 14.109375 42.234375 20.359375 
Q 42.234375 26.703125 38.015625 30.859375 
Q 33.796875 35.015625 27.4375 35.015625 
Q 21.234375 35.015625 17.15625 30.90625 
Q 13.09375 26.8125 13.09375 20.65625 
z
" id="ArialMT-56"/>
       <path d="M 40.4375 6.390625 
Q 35.546875 2.25 31.03125 0.53125 
Q 26.515625 -1.171875 21.34375 -1.171875 
Q 12.796875 -1.171875 8.203125 3 
Q 3.609375 7.171875 3.609375 13.671875 
Q 3.609375 17.484375 5.34375 20.625 
Q 7.078125 23.78125 9.890625 25.6875 
Q 12.703125 27.59375 16.21875 28.5625 
Q 18.796875 29.25 24.03125 29.890625 
Q 34.671875 31.15625 39.703125 32.90625 
Q 39.75 34.71875 39.75 35.203125 
Q 39.75 40.578125 37.25 42.78125 
Q 33.890625 45.75 27.25 45.75 
Q 21.046875 45.75 18.09375 43.578125 
Q 15.140625 41.40625 13.71875 35.890625 
L 5.125 37.0625 
Q 6.296875 42.578125 8.984375 45.96875 
Q 11.671875 49.359375 16.75 51.1875 
Q 21.828125 53.03125 28.515625 53.03125 
Q 35.15625 53.03125 39.296875 51.46875 
Q 43.453125 49.90625 45.40625 47.53125 
Q 47.359375 45.171875 48.140625 41.546875 
Q 48.578125 39.3125 48.578125 33.453125 
L 48.578125 21.734375 
Q 48.578125 9.46875 49.140625 6.21875 
Q 49.703125 2.984375 51.375 0 
L 42.1875 0 
Q 40.828125 2.734375 40.4375 6.390625 
z
M 39.703125 26.03125 
Q 34.90625 24.078125 25.34375 22.703125 
Q 19.921875 21.921875 17.671875 20.9375 
Q 15.4375 19.96875 14.203125 18.09375 
Q 12.984375 16.21875 12.984375 13.921875 
Q 12.984375 10.40625 15.640625 8.0625 
Q 18.3125 5.71875 23.4375 5.71875 
Q 28.515625 5.71875 32.46875 7.9375 
Q 36.421875 10.15625 38.28125 14.015625 
Q 39.703125 17 39.703125 22.796875 
z
" id="ArialMT-97"/>
      </defs>
      <g style="fill:#262626;" transform="translate(225.28398 507.563254)scale(0.16 -0.16)">
       <use xlink:href="#ArialMT-49"/>
       <use x="55.615234" xlink:href="#ArialMT-48"/>
       <use x="111.230469" xlink:href="#ArialMT-50"/>
       <use x="166.845703" xlink:href="#ArialMT-56"/>
       <use x="222.460938" xlink:href="#ArialMT-45"/>
       <use x="255.761719" xlink:href="#ArialMT-49"/>
       <use x="311.376953" xlink:href="#ArialMT-56"/>
       <use x="366.992188" xlink:href="#ArialMT-97"/>
       <use x="422.607422" xlink:href="#ArialMT-45"/>
       <use x="455.908203" xlink:href="#ArialMT-49"/>
      </g>
     </g>
    </g>
    <g id="xtick_3">
     <g id="text_3">
      <!-- 1040-236-1 -->
      <defs>
       <path d="M 32.328125 0 
L 32.328125 17.140625 
L 1.265625 17.140625 
L 1.265625 25.203125 
L 33.9375 71.578125 
L 41.109375 71.578125 
L 41.109375 25.203125 
L 50.78125 25.203125 
L 50.78125 17.140625 
L 41.109375 17.140625 
L 41.109375 0 
z
M 32.328125 25.203125 
L 32.328125 57.46875 
L 9.90625 25.203125 
z
" id="ArialMT-52"/>
      </defs>
      <g style="fill:#262626;" transform="translate(355.1583 507.563254)scale(0.16 -0.16)">
       <use xlink:href="#ArialMT-49"/>
       <use x="55.615234" xlink:href="#ArialMT-48"/>
       <use x="111.230469" xlink:href="#ArialMT-52"/>
       <use x="166.845703" xlink:href="#ArialMT-48"/>
       <use x="222.460938" xlink:href="#ArialMT-45"/>
       <use x="255.761719" xlink:href="#ArialMT-50"/>
       <use x="311.376953" xlink:href="#ArialMT-51"/>
       <use x="366.992188" xlink:href="#ArialMT-54"/>
       <use x="422.607422" xlink:href="#ArialMT-45"/>
       <use x="455.908203" xlink:href="#ArialMT-49"/>
      </g>
     </g>
    </g>
    <g id="xtick_4">
     <g id="text_4">
      <!-- 1040-236-2 -->
      <g style="fill:#262626;" transform="translate(485.03262 507.563254)scale(0.16 -0.16)">
       <use xlink:href="#ArialMT-49"/>
       <use x="55.615234" xlink:href="#ArialMT-48"/>
       <use x="111.230469" xlink:href="#ArialMT-52"/>
       <use x="166.845703" xlink:href="#ArialMT-48"/>
       <use x="222.460938" xlink:href="#ArialMT-45"/>
       <use x="255.761719" xlink:href="#ArialMT-50"/>
       <use x="311.376953" xlink:href="#ArialMT-51"/>
       <use x="366.992188" xlink:href="#ArialMT-54"/>
       <use x="422.607422" xlink:href="#ArialMT-45"/>
       <use x="455.908203" xlink:href="#ArialMT-50"/>
      </g>
     </g>
    </g>
    <g id="xtick_5">
     <g id="text_5">
      <!-- 1055-166-1 -->
      <defs>
       <path d="M 4.15625 18.75 
L 13.375 19.53125 
Q 14.40625 12.796875 18.140625 9.390625 
Q 21.875 6 27.15625 6 
Q 33.5 6 37.890625 10.78125 
Q 42.28125 15.578125 42.28125 23.484375 
Q 42.28125 31 38.0625 35.34375 
Q 33.84375 39.703125 27 39.703125 
Q 22.75 39.703125 19.328125 37.765625 
Q 15.921875 35.84375 13.96875 32.765625 
L 5.71875 33.84375 
L 12.640625 70.609375 
L 48.25 70.609375 
L 48.25 62.203125 
L 19.671875 62.203125 
L 15.828125 42.96875 
Q 22.265625 47.46875 29.34375 47.46875 
Q 38.71875 47.46875 45.15625 40.96875 
Q 51.609375 34.46875 51.609375 24.265625 
Q 51.609375 14.546875 45.953125 7.46875 
Q 39.0625 -1.21875 27.15625 -1.21875 
Q 17.390625 -1.21875 11.203125 4.25 
Q 5.03125 9.71875 4.15625 18.75 
z
" id="ArialMT-53"/>
      </defs>
      <g style="fill:#262626;" transform="translate(614.90694 507.563254)scale(0.16 -0.16)">
       <use xlink:href="#ArialMT-49"/>
       <use x="55.615234" xlink:href="#ArialMT-48"/>
       <use x="111.230469" xlink:href="#ArialMT-53"/>
       <use x="166.845703" xlink:href="#ArialMT-53"/>
       <use x="222.460938" xlink:href="#ArialMT-45"/>
       <use x="255.761719" xlink:href="#ArialMT-49"/>
       <use x="311.376953" xlink:href="#ArialMT-54"/>
       <use x="366.992188" xlink:href="#ArialMT-54"/>
       <use x="422.607422" xlink:href="#ArialMT-45"/>
       <use x="455.908203" xlink:href="#ArialMT-49"/>
      </g>
     </g>
    </g>
    <g id="text_6">
     <!-- Counter id -->
     <defs>
      <path d="M 58.796875 25.09375 
L 68.265625 22.703125 
Q 65.28125 11.03125 57.546875 4.90625 
Q 49.8125 -1.21875 38.625 -1.21875 
Q 27.046875 -1.21875 19.796875 3.484375 
Q 12.546875 8.203125 8.765625 17.140625 
Q 4.984375 26.078125 4.984375 36.328125 
Q 4.984375 47.515625 9.25 55.828125 
Q 13.53125 64.15625 21.40625 68.46875 
Q 29.296875 72.796875 38.765625 72.796875 
Q 49.515625 72.796875 56.828125 67.328125 
Q 64.15625 61.859375 67.046875 51.953125 
L 57.71875 49.75 
Q 55.21875 57.5625 50.484375 61.125 
Q 45.75 64.703125 38.578125 64.703125 
Q 30.328125 64.703125 24.78125 60.734375 
Q 19.234375 56.78125 16.984375 50.109375 
Q 14.75 43.453125 14.75 36.375 
Q 14.75 27.25 17.40625 20.4375 
Q 20.0625 13.625 25.671875 10.25 
Q 31.296875 6.890625 37.84375 6.890625 
Q 45.796875 6.890625 51.3125 11.46875 
Q 56.84375 16.0625 58.796875 25.09375 
z
" id="ArialMT-67"/>
      <path d="M 3.328125 25.921875 
Q 3.328125 40.328125 11.328125 47.265625 
Q 18.015625 53.03125 27.640625 53.03125 
Q 38.328125 53.03125 45.109375 46.015625 
Q 51.90625 39.015625 51.90625 26.65625 
Q 51.90625 16.65625 48.90625 10.90625 
Q 45.90625 5.171875 40.15625 2 
Q 34.421875 -1.171875 27.640625 -1.171875 
Q 16.75 -1.171875 10.03125 5.8125 
Q 3.328125 12.796875 3.328125 25.921875 
z
M 12.359375 25.921875 
Q 12.359375 15.96875 16.703125 11.015625 
Q 21.046875 6.0625 27.640625 6.0625 
Q 34.1875 6.0625 38.53125 11.03125 
Q 42.875 16.015625 42.875 26.21875 
Q 42.875 35.84375 38.5 40.796875 
Q 34.125 45.75 27.640625 45.75 
Q 21.046875 45.75 16.703125 40.8125 
Q 12.359375 35.890625 12.359375 25.921875 
z
" id="ArialMT-111"/>
      <path d="M 40.578125 0 
L 40.578125 7.625 
Q 34.515625 -1.171875 24.125 -1.171875 
Q 19.53125 -1.171875 15.546875 0.578125 
Q 11.578125 2.34375 9.640625 5 
Q 7.71875 7.671875 6.9375 11.53125 
Q 6.390625 14.109375 6.390625 19.734375 
L 6.390625 51.859375 
L 15.1875 51.859375 
L 15.1875 23.09375 
Q 15.1875 16.21875 15.71875 13.8125 
Q 16.546875 10.359375 19.234375 8.375 
Q 21.921875 6.390625 25.875 6.390625 
Q 29.828125 6.390625 33.296875 8.421875 
Q 36.765625 10.453125 38.203125 13.9375 
Q 39.65625 17.4375 39.65625 24.078125 
L 39.65625 51.859375 
L 48.4375 51.859375 
L 48.4375 0 
z
" id="ArialMT-117"/>
      <path d="M 6.59375 0 
L 6.59375 51.859375 
L 14.5 51.859375 
L 14.5 44.484375 
Q 20.21875 53.03125 31 53.03125 
Q 35.6875 53.03125 39.625 51.34375 
Q 43.5625 49.65625 45.515625 46.921875 
Q 47.46875 44.1875 48.25 40.4375 
Q 48.734375 37.984375 48.734375 31.890625 
L 48.734375 0 
L 39.9375 0 
L 39.9375 31.546875 
Q 39.9375 36.921875 38.90625 39.578125 
Q 37.890625 42.234375 35.28125 43.8125 
Q 32.671875 45.40625 29.15625 45.40625 
Q 23.53125 45.40625 19.453125 41.84375 
Q 15.375 38.28125 15.375 28.328125 
L 15.375 0 
z
" id="ArialMT-110"/>
      <path d="M 25.78125 7.859375 
L 27.046875 0.09375 
Q 23.34375 -0.6875 20.40625 -0.6875 
Q 15.625 -0.6875 12.984375 0.828125 
Q 10.359375 2.34375 9.28125 4.8125 
Q 8.203125 7.28125 8.203125 15.1875 
L 8.203125 45.015625 
L 1.765625 45.015625 
L 1.765625 51.859375 
L 8.203125 51.859375 
L 8.203125 64.703125 
L 16.9375 69.96875 
L 16.9375 51.859375 
L 25.78125 51.859375 
L 25.78125 45.015625 
L 16.9375 45.015625 
L 16.9375 14.703125 
Q 16.9375 10.9375 17.40625 9.859375 
Q 17.875 8.796875 18.921875 8.15625 
Q 19.96875 7.515625 21.921875 7.515625 
Q 23.390625 7.515625 25.78125 7.859375 
z
" id="ArialMT-116"/>
      <path d="M 42.09375 16.703125 
L 51.171875 15.578125 
Q 49.03125 7.625 43.21875 3.21875 
Q 37.40625 -1.171875 28.375 -1.171875 
Q 17 -1.171875 10.328125 5.828125 
Q 3.65625 12.84375 3.65625 25.484375 
Q 3.65625 38.578125 10.390625 45.796875 
Q 17.140625 53.03125 27.875 53.03125 
Q 38.28125 53.03125 44.875 45.953125 
Q 51.46875 38.875 51.46875 26.03125 
Q 51.46875 25.25 51.421875 23.6875 
L 12.75 23.6875 
Q 13.234375 15.140625 17.578125 10.59375 
Q 21.921875 6.0625 28.421875 6.0625 
Q 33.25 6.0625 36.671875 8.59375 
Q 40.09375 11.140625 42.09375 16.703125 
z
M 13.234375 30.90625 
L 42.1875 30.90625 
Q 41.609375 37.453125 38.875 40.71875 
Q 34.671875 45.796875 27.984375 45.796875 
Q 21.921875 45.796875 17.796875 41.75 
Q 13.671875 37.703125 13.234375 30.90625 
z
" id="ArialMT-101"/>
      <path d="M 6.5 0 
L 6.5 51.859375 
L 14.40625 51.859375 
L 14.40625 44 
Q 17.4375 49.515625 20 51.265625 
Q 22.5625 53.03125 25.640625 53.03125 
Q 30.078125 53.03125 34.671875 50.203125 
L 31.640625 42.046875 
Q 28.421875 43.953125 25.203125 43.953125 
Q 22.3125 43.953125 20.015625 42.21875 
Q 17.71875 40.484375 16.75 37.40625 
Q 15.28125 32.71875 15.28125 27.15625 
L 15.28125 0 
z
" id="ArialMT-114"/>
      <path id="ArialMT-32"/>
      <path d="M 6.640625 61.46875 
L 6.640625 71.578125 
L 15.4375 71.578125 
L 15.4375 61.46875 
z
M 6.640625 0 
L 6.640625 51.859375 
L 15.4375 51.859375 
L 15.4375 0 
z
" id="ArialMT-105"/>
      <path d="M 40.234375 0 
L 40.234375 6.546875 
Q 35.296875 -1.171875 25.734375 -1.171875 
Q 19.53125 -1.171875 14.328125 2.25 
Q 9.125 5.671875 6.265625 11.796875 
Q 3.421875 17.921875 3.421875 25.875 
Q 3.421875 33.640625 6 39.96875 
Q 8.59375 46.296875 13.765625 49.65625 
Q 18.953125 53.03125 25.34375 53.03125 
Q 30.03125 53.03125 33.6875 51.046875 
Q 37.359375 49.078125 39.65625 45.90625 
L 39.65625 71.578125 
L 48.390625 71.578125 
L 48.390625 0 
z
M 12.453125 25.875 
Q 12.453125 15.921875 16.640625 10.984375 
Q 20.84375 6.0625 26.5625 6.0625 
Q 32.328125 6.0625 36.34375 10.765625 
Q 40.375 15.484375 40.375 25.140625 
Q 40.375 35.796875 36.265625 40.765625 
Q 32.171875 45.75 26.171875 45.75 
Q 20.3125 45.75 16.375 40.96875 
Q 12.453125 36.1875 12.453125 25.875 
z
" id="ArialMT-100"/>
     </defs>
     <g style="fill:#262626;" transform="translate(359.1683 526.195754)scale(0.16 -0.16)">
      <use xlink:href="#ArialMT-67"/>
      <use x="72.216797" xlink:href="#ArialMT-111"/>
      <use x="127.832031" xlink:href="#ArialMT-117"/>
      <use x="183.447266" xlink:href="#ArialMT-110"/>
      <use x="239.0625" xlink:href="#ArialMT-116"/>
      <use x="266.845703" xlink:href="#ArialMT-101"/>
      <use x="322.460938" xlink:href="#ArialMT-114"/>
      <use x="355.761719" xlink:href="#ArialMT-32"/>
      <use x="383.544922" xlink:href="#ArialMT-105"/>
      <use x="405.761719" xlink:href="#ArialMT-100"/>
     </g>
    </g>
   </g>
   <g id="matplotlib.axis_2">
    <g id="ytick_1">
     <g id="text_7">
      <!-- 0 -->
      <g style="fill:#262626;" transform="translate(55.4925 472.93197)scale(0.16 -0.16)">
       <use xlink:href="#ArialMT-48"/>
      </g>
     </g>
    </g>
    <g id="ytick_2">
     <g id="text_8">
      <!-- 250 -->
      <g style="fill:#262626;" transform="translate(37.6975 408.085806)scale(0.16 -0.16)">
       <use xlink:href="#ArialMT-50"/>
       <use x="55.615234" xlink:href="#ArialMT-53"/>
       <use x="111.230469" xlink:href="#ArialMT-48"/>
      </g>
     </g>
    </g>
    <g id="ytick_3">
     <g id="text_9">
      <!-- 500 -->
      <g style="fill:#262626;" transform="translate(37.6975 343.239641)scale(0.16 -0.16)">
       <use xlink:href="#ArialMT-53"/>
       <use x="55.615234" xlink:href="#ArialMT-48"/>
       <use x="111.230469" xlink:href="#ArialMT-48"/>
      </g>
     </g>
    </g>
    <g id="ytick_4">
     <g id="text_10">
      <!-- 750 -->
      <defs>
       <path d="M 4.734375 62.203125 
L 4.734375 70.65625 
L 51.078125 70.65625 
L 51.078125 63.8125 
Q 44.234375 56.546875 37.515625 44.484375 
Q 30.8125 32.421875 27.15625 19.671875 
Q 24.515625 10.6875 23.78125 0 
L 14.75 0 
Q 14.890625 8.453125 18.0625 20.40625 
Q 21.234375 32.375 27.171875 43.484375 
Q 33.109375 54.59375 39.796875 62.203125 
z
" id="ArialMT-55"/>
      </defs>
      <g style="fill:#262626;" transform="translate(37.6975 278.393477)scale(0.16 -0.16)">
       <use xlink:href="#ArialMT-55"/>
       <use x="55.615234" xlink:href="#ArialMT-53"/>
       <use x="111.230469" xlink:href="#ArialMT-48"/>
      </g>
     </g>
    </g>
    <g id="ytick_5">
     <g id="text_11">
      <!-- 1000 -->
      <g style="fill:#262626;" transform="translate(28.8 213.547313)scale(0.16 -0.16)">
       <use xlink:href="#ArialMT-49"/>
       <use x="55.615234" xlink:href="#ArialMT-48"/>
       <use x="111.230469" xlink:href="#ArialMT-48"/>
       <use x="166.845703" xlink:href="#ArialMT-48"/>
      </g>
     </g>
    </g>
    <g id="ytick_6">
     <g id="text_12">
      <!-- 1250 -->
      <g style="fill:#262626;" transform="translate(28.8 148.701149)scale(0.16 -0.16)">
       <use xlink:href="#ArialMT-49"/>
       <use x="55.615234" xlink:href="#ArialMT-50"/>
       <use x="111.230469" xlink:href="#ArialMT-53"/>
       <use x="166.845703" xlink:href="#ArialMT-48"/>
      </g>
     </g>
    </g>
    <g id="ytick_7">
     <g id="text_13">
      <!-- 1500 -->
      <g style="fill:#262626;" transform="translate(28.8 83.854984)scale(0.16 -0.16)">
       <use xlink:href="#ArialMT-49"/>
       <use x="55.615234" xlink:href="#ArialMT-53"/>
       <use x="111.230469" xlink:href="#ArialMT-48"/>
       <use x="166.845703" xlink:href="#ArialMT-48"/>
      </g>
     </g>
    </g>
    <g id="ytick_8">
     <g id="text_14">
      <!-- 1750 -->
      <g style="fill:#262626;" transform="translate(28.8 19.00882)scale(0.16 -0.16)">
       <use xlink:href="#ArialMT-49"/>
       <use x="55.615234" xlink:href="#ArialMT-55"/>
       <use x="111.230469" xlink:href="#ArialMT-53"/>
       <use x="166.845703" xlink:href="#ArialMT-48"/>
      </g>
     </g>
    </g>
    <g id="text_15">
     <!-- Count [$h^{-1}$] -->
     <defs>
      <path d="M 6.78125 -19.875 
L 6.78125 71.578125 
L 26.171875 71.578125 
L 26.171875 64.3125 
L 15.578125 64.3125 
L 15.578125 -12.59375 
L 26.171875 -12.59375 
L 26.171875 -19.875 
z
" id="ArialMT-91"/>
      <path d="M 55.71875 33.015625 
L 49.3125 0 
L 40.28125 0 
L 46.6875 32.671875 
Q 47.125 34.96875 47.359375 36.71875 
Q 47.609375 38.484375 47.609375 39.5 
Q 47.609375 43.609375 45.015625 45.890625 
Q 42.4375 48.1875 37.796875 48.1875 
Q 30.5625 48.1875 25.265625 43.296875 
Q 19.96875 38.421875 18.40625 30.328125 
L 12.5 0 
L 3.515625 0 
L 18.3125 75.984375 
L 27.296875 75.984375 
L 21.484375 46.09375 
Q 24.90625 50.6875 30.21875 53.34375 
Q 35.546875 56 41.40625 56 
Q 48.640625 56 52.609375 52.09375 
Q 56.59375 48.1875 56.59375 41.109375 
Q 56.59375 39.359375 56.375 37.359375 
Q 56.15625 35.359375 55.71875 33.015625 
z
" id="DejaVuSans-Oblique-104"/>
      <path d="M 10.59375 35.5 
L 73.1875 35.5 
L 73.1875 27.203125 
L 10.59375 27.203125 
z
" id="DejaVuSans-8722"/>
      <path d="M 12.40625 8.296875 
L 28.515625 8.296875 
L 28.515625 63.921875 
L 10.984375 60.40625 
L 10.984375 69.390625 
L 28.421875 72.90625 
L 38.28125 72.90625 
L 38.28125 8.296875 
L 54.390625 8.296875 
L 54.390625 0 
L 12.40625 0 
z
" id="DejaVuSans-49"/>
      <path d="M 21.296875 -19.875 
L 1.90625 -19.875 
L 1.90625 -12.59375 
L 12.5 -12.59375 
L 12.5 64.3125 
L 1.90625 64.3125 
L 1.90625 71.578125 
L 21.296875 71.578125 
z
" id="ArialMT-93"/>
     </defs>
     <g style="fill:#262626;" transform="translate(21.6 290.315377)rotate(-90)scale(0.16 -0.16)">
      <use transform="translate(0 0.684375)" xlink:href="#ArialMT-67"/>
      <use transform="translate(72.216797 0.684375)" xlink:href="#ArialMT-111"/>
      <use transform="translate(127.832031 0.684375)" xlink:href="#ArialMT-117"/>
      <use transform="translate(183.447266 0.684375)" xlink:href="#ArialMT-110"/>
      <use transform="translate(239.0625 0.684375)" xlink:href="#ArialMT-116"/>
      <use transform="translate(266.845703 0.684375)" xlink:href="#ArialMT-32"/>
      <use transform="translate(294.628906 0.684375)" xlink:href="#ArialMT-91"/>
      <use transform="translate(322.412109 0.684375)" xlink:href="#DejaVuSans-Oblique-104"/>
      <use transform="translate(393.238724 38.965625)scale(0.7)" xlink:href="#DejaVuSans-8722"/>
      <use transform="translate(451.891068 38.965625)scale(0.7)" xlink:href="#DejaVuSans-49"/>
      <use transform="translate(499.161576 0.684375)" xlink:href="#ArialMT-93"/>
     </g>
    </g>
   </g>
   <g id="PolyCollection_1">
    <defs>
     <path d="M 177.301331 -69.370034 
L 95.352989 -69.370034 
L 89.520934 -70.302771 
L 85.796936 -71.235508 
L 84.377432 -72.168245 
L 84.992284 -73.100981 
L 87.051892 -74.033718 
L 89.862991 -74.966455 
L 92.815573 -75.899192 
L 95.484242 -76.831928 
L 97.643675 -77.764665 
L 99.232895 -78.697402 
L 100.305274 -79.630138 
L 100.983588 -80.562875 
L 101.421938 -81.495612 
L 101.770461 -82.428349 
L 102.143248 -83.361085 
L 102.596378 -84.293822 
L 103.124069 -85.226559 
L 103.675114 -86.159296 
L 104.183153 -87.092032 
L 104.59844 -88.024769 
L 104.909024 -88.957506 
L 105.144723 -89.890243 
L 105.364731 -90.822979 
L 105.635692 -91.755716 
L 106.009442 -92.688453 
L 106.508232 -93.62119 
L 107.12094 -94.553926 
L 107.809115 -95.486663 
L 108.518732 -96.4194 
L 109.193462 -97.352137 
L 109.786766 -98.284873 
L 110.271257 -99.21761 
L 110.643441 -100.150347 
L 110.921585 -101.083084 
L 111.135909 -102.01582 
L 111.314051 -102.948557 
L 111.468328 -103.881294 
L 111.591749 -104.814031 
L 111.665582 -105.746767 
L 111.674815 -106.679504 
L 111.623059 -107.612241 
L 111.538581 -108.544978 
L 111.468174 -109.477714 
L 111.462398 -110.410451 
L 111.559974 -111.343188 
L 111.778579 -112.275925 
L 112.11478 -113.208661 
L 112.550922 -114.141398 
L 113.064449 -115.074135 
L 113.635996 -116.006872 
L 114.254646 -116.939608 
L 114.920004 -117.872345 
L 115.640871 -118.805082 
L 116.430659 -119.737819 
L 117.300738 -120.670555 
L 118.254051 -121.603292 
L 119.281128 -122.536029 
L 120.35937 -123.468766 
L 121.455208 -124.401502 
L 122.528549 -125.334239 
L 123.539229 -126.266976 
L 124.454836 -127.199713 
L 125.258045 -128.132449 
L 125.950639 -129.065186 
L 126.552081 -129.997923 
L 127.092731 -130.93066 
L 127.604377 -131.863396 
L 128.111753 -132.796133 
L 128.627876 -133.72887 
L 129.15388 -134.661607 
L 129.682098 -135.594343 
L 130.200262 -136.52708 
L 130.695128 -137.459817 
L 131.15487 -138.392554 
L 131.570551 -139.32529 
L 131.937137 -140.258027 
L 132.25407 -141.190764 
L 132.524883 -142.123501 
L 132.755406 -143.056237 
L 132.950879 -143.988974 
L 133.113252 -144.921711 
L 133.240236 -145.854447 
L 133.326935 -146.787184 
L 133.369455 -147.719921 
L 133.368748 -148.652658 
L 133.332851 -149.585394 
L 133.276629 -150.518131 
L 133.219342 -151.450868 
L 133.181159 -152.383605 
L 133.179758 -153.316341 
L 133.227743 -154.249078 
L 133.331298 -155.181815 
L 133.490237 -156.114552 
L 133.699359 -157.047288 
L 133.950456 -157.980025 
L 134.233933 -158.912762 
L 134.53919 -159.845499 
L 134.853925 -160.778235 
L 135.163532 -161.710972 
L 137.490788 -161.710972 
L 137.490788 -161.710972 
L 137.800395 -160.778235 
L 138.11513 -159.845499 
L 138.420387 -158.912762 
L 138.703864 -157.980025 
L 138.954961 -157.047288 
L 139.164083 -156.114552 
L 139.323022 -155.181815 
L 139.426577 -154.249078 
L 139.474562 -153.316341 
L 139.473161 -152.383605 
L 139.434978 -151.450868 
L 139.377691 -150.518131 
L 139.321469 -149.585394 
L 139.285572 -148.652658 
L 139.284865 -147.719921 
L 139.327385 -146.787184 
L 139.414084 -145.854447 
L 139.541068 -144.921711 
L 139.703441 -143.988974 
L 139.898914 -143.056237 
L 140.129437 -142.123501 
L 140.40025 -141.190764 
L 140.717183 -140.258027 
L 141.083769 -139.32529 
L 141.49945 -138.392554 
L 141.959192 -137.459817 
L 142.454058 -136.52708 
L 142.972222 -135.594343 
L 143.50044 -134.661607 
L 144.026444 -133.72887 
L 144.542567 -132.796133 
L 145.049943 -131.863396 
L 145.561589 -130.93066 
L 146.102239 -129.997923 
L 146.703681 -129.065186 
L 147.396275 -128.132449 
L 148.199484 -127.199713 
L 149.115091 -126.266976 
L 150.125771 -125.334239 
L 151.199112 -124.401502 
L 152.29495 -123.468766 
L 153.373192 -122.536029 
L 154.400269 -121.603292 
L 155.353582 -120.670555 
L 156.223661 -119.737819 
L 157.013449 -118.805082 
L 157.734316 -117.872345 
L 158.399674 -116.939608 
L 159.018324 -116.006872 
L 159.589871 -115.074135 
L 160.103398 -114.141398 
L 160.53954 -113.208661 
L 160.875741 -112.275925 
L 161.094346 -111.343188 
L 161.191922 -110.410451 
L 161.186146 -109.477714 
L 161.115739 -108.544978 
L 161.031261 -107.612241 
L 160.979505 -106.679504 
L 160.988738 -105.746767 
L 161.062571 -104.814031 
L 161.185992 -103.881294 
L 161.340269 -102.948557 
L 161.518411 -102.01582 
L 161.732735 -101.083084 
L 162.010879 -100.150347 
L 162.383063 -99.21761 
L 162.867554 -98.284873 
L 163.460858 -97.352137 
L 164.135588 -96.4194 
L 164.845205 -95.486663 
L 165.53338 -94.553926 
L 166.146088 -93.62119 
L 166.644878 -92.688453 
L 167.018628 -91.755716 
L 167.289589 -90.822979 
L 167.509597 -89.890243 
L 167.745296 -88.957506 
L 168.05588 -88.024769 
L 168.471167 -87.092032 
L 168.979206 -86.159296 
L 169.530251 -85.226559 
L 170.057942 -84.293822 
L 170.511072 -83.361085 
L 170.883859 -82.428349 
L 171.232382 -81.495612 
L 171.670732 -80.562875 
L 172.349046 -79.630138 
L 173.421425 -78.697402 
L 175.010645 -77.764665 
L 177.170078 -76.831928 
L 179.838747 -75.899192 
L 182.791329 -74.966455 
L 185.602428 -74.033718 
L 187.662036 -73.100981 
L 188.276888 -72.168245 
L 186.857384 -71.235508 
L 183.133386 -70.302771 
L 177.301331 -69.370034 
z
" id="m60d5f0bce8" style="stroke:#141414;stroke-width:1.5;"/>
    </defs>
    <g clip-path="url(#pef9f67308d)">
     <use style="fill:#083c1d;stroke:#141414;stroke-width:1.5;" x="0" xlink:href="#m60d5f0bce8" y="536.575754"/>
    </g>
   </g>
   <g id="PolyCollection_2">
    <defs>
     <path d="M 276.142368 -70.926342 
L 256.260592 -70.926342 
L 255.581943 -75.335881 
L 255.234611 -79.745421 
L 255.233366 -84.15496 
L 255.554394 -88.564499 
L 256.141216 -92.974038 
L 256.915958 -97.383577 
L 257.792996 -101.793116 
L 258.691839 -106.202656 
L 259.546786 -110.612195 
L 260.312153 -115.021734 
L 260.963114 -119.431273 
L 261.493133 -123.840812 
L 261.90937 -128.250351 
L 262.227393 -132.659891 
L 262.466221 -137.06943 
L 262.64431 -141.478969 
L 262.776781 -145.888508 
L 262.873941 -150.298047 
L 262.941007 -154.707586 
L 262.978862 -159.117126 
L 262.985549 -163.526665 
L 262.95815 -167.936204 
L 262.894667 -172.345743 
L 262.795506 -176.755282 
L 262.664268 -181.164821 
L 262.507725 -185.574361 
L 262.335005 -189.9839 
L 262.156211 -194.393439 
L 261.980828 -198.802978 
L 261.816277 -203.212517 
L 261.666946 -207.622056 
L 261.533886 -212.031596 
L 261.415184 -216.441135 
L 261.306893 -220.850674 
L 261.204256 -225.260213 
L 261.102969 -229.669752 
L 261.000228 -234.079291 
L 260.895418 -238.488831 
L 260.790355 -242.89837 
L 260.689104 -247.307909 
L 260.597428 -251.717448 
L 260.521976 -256.126987 
L 260.469305 -260.536527 
L 260.444892 -264.946066 
L 260.45227 -269.355605 
L 260.49242 -273.765144 
L 260.563539 -278.174683 
L 260.6612 -282.584222 
L 260.778901 -286.993762 
L 260.90886 -291.403301 
L 261.04295 -295.81284 
L 261.173591 -300.222379 
L 261.294496 -304.631918 
L 261.401211 -309.041457 
L 261.491407 -313.450997 
L 261.564952 -317.860536 
L 261.623791 -322.270075 
L 261.671663 -326.679614 
L 261.713675 -331.089153 
L 261.75579 -335.498692 
L 261.804231 -339.908232 
L 261.864866 -344.317771 
L 261.942615 -348.72731 
L 262.040942 -353.136849 
L 262.1615 -357.546388 
L 262.303992 -361.955927 
L 262.46629 -366.365467 
L 262.644788 -370.775006 
L 262.83494 -375.184545 
L 263.031884 -379.594084 
L 263.231 -384.003623 
L 263.428336 -388.413162 
L 263.62081 -392.822702 
L 263.806216 -397.232241 
L 263.983091 -401.64178 
L 264.150502 -406.051319 
L 264.307862 -410.460858 
L 264.454786 -414.870397 
L 264.591029 -419.279937 
L 264.716477 -423.689476 
L 264.831178 -428.099015 
L 264.935392 -432.508554 
L 265.029633 -436.918093 
L 265.114694 -441.327632 
L 265.191637 -445.737172 
L 265.261754 -450.146711 
L 265.326486 -454.55625 
L 265.387318 -458.965789 
L 265.44567 -463.375328 
L 265.50279 -467.784867 
L 265.559662 -472.194407 
L 265.61694 -476.603946 
L 265.674892 -481.013485 
L 265.73338 -485.423024 
L 265.791866 -489.832563 
L 265.849468 -494.242102 
L 265.905055 -498.651642 
L 265.957394 -503.061181 
L 266.005316 -507.47072 
L 266.397644 -507.47072 
L 266.397644 -507.47072 
L 266.445566 -503.061181 
L 266.497905 -498.651642 
L 266.553492 -494.242102 
L 266.611094 -489.832563 
L 266.66958 -485.423024 
L 266.728068 -481.013485 
L 266.78602 -476.603946 
L 266.843298 -472.194407 
L 266.90017 -467.784867 
L 266.95729 -463.375328 
L 267.015642 -458.965789 
L 267.076474 -454.55625 
L 267.141206 -450.146711 
L 267.211323 -445.737172 
L 267.288266 -441.327632 
L 267.373327 -436.918093 
L 267.467568 -432.508554 
L 267.571782 -428.099015 
L 267.686483 -423.689476 
L 267.811931 -419.279937 
L 267.948174 -414.870397 
L 268.095098 -410.460858 
L 268.252458 -406.051319 
L 268.419869 -401.64178 
L 268.596744 -397.232241 
L 268.78215 -392.822702 
L 268.974624 -388.413162 
L 269.17196 -384.003623 
L 269.371076 -379.594084 
L 269.56802 -375.184545 
L 269.758172 -370.775006 
L 269.93667 -366.365467 
L 270.098968 -361.955927 
L 270.24146 -357.546388 
L 270.362018 -353.136849 
L 270.460345 -348.72731 
L 270.538094 -344.317771 
L 270.598729 -339.908232 
L 270.64717 -335.498692 
L 270.689285 -331.089153 
L 270.731297 -326.679614 
L 270.779169 -322.270075 
L 270.838008 -317.860536 
L 270.911553 -313.450997 
L 271.001749 -309.041457 
L 271.108464 -304.631918 
L 271.229369 -300.222379 
L 271.36001 -295.81284 
L 271.4941 -291.403301 
L 271.624059 -286.993762 
L 271.74176 -282.584222 
L 271.839421 -278.174683 
L 271.91054 -273.765144 
L 271.95069 -269.355605 
L 271.958068 -264.946066 
L 271.933655 -260.536527 
L 271.880984 -256.126987 
L 271.805532 -251.717448 
L 271.713856 -247.307909 
L 271.612605 -242.89837 
L 271.507542 -238.488831 
L 271.402732 -234.079291 
L 271.299991 -229.669752 
L 271.198704 -225.260213 
L 271.096067 -220.850674 
L 270.987776 -216.441135 
L 270.869074 -212.031596 
L 270.736014 -207.622056 
L 270.586683 -203.212517 
L 270.422132 -198.802978 
L 270.246749 -194.393439 
L 270.067955 -189.9839 
L 269.895235 -185.574361 
L 269.738692 -181.164821 
L 269.607454 -176.755282 
L 269.508293 -172.345743 
L 269.44481 -167.936204 
L 269.417411 -163.526665 
L 269.424098 -159.117126 
L 269.461953 -154.707586 
L 269.529019 -150.298047 
L 269.626179 -145.888508 
L 269.75865 -141.478969 
L 269.936739 -137.06943 
L 270.175567 -132.659891 
L 270.49359 -128.250351 
L 270.909827 -123.840812 
L 271.439846 -119.431273 
L 272.090807 -115.021734 
L 272.856174 -110.612195 
L 273.711121 -106.202656 
L 274.609964 -101.793116 
L 275.487002 -97.383577 
L 276.261744 -92.974038 
L 276.848566 -88.564499 
L 277.169594 -84.15496 
L 277.168349 -79.745421 
L 276.821017 -75.335881 
L 276.142368 -70.926342 
z
" id="m4e1cd57d66" style="stroke:#141414;stroke-width:1.5;"/>
    </defs>
    <g clip-path="url(#pef9f67308d)">
     <use style="fill:#0e5f2f;stroke:#141414;stroke-width:1.5;" x="0" xlink:href="#m4e1cd57d66" y="536.575754"/>
    </g>
   </g>
   <g id="PolyCollection_3">
    <defs>
     <path d="M 433.794067 -69.370034 
L 358.357533 -69.370034 
L 352.831381 -70.716738 
L 350.246346 -72.063443 
L 350.769771 -73.410147 
L 353.750392 -74.756851 
L 358.050062 -76.103555 
L 362.521064 -77.450259 
L 366.377529 -78.796964 
L 369.320701 -80.143668 
L 371.438491 -81.490372 
L 372.99847 -82.837076 
L 374.257106 -84.18378 
L 375.353438 -85.530484 
L 376.294264 -86.877189 
L 377.000019 -88.223893 
L 377.370186 -89.570597 
L 377.336255 -90.917301 
L 376.887623 -92.264005 
L 376.07164 -93.61071 
L 374.977301 -94.957414 
L 373.712844 -96.304118 
L 372.384322 -97.650822 
L 371.079093 -98.997526 
L 369.856704 -100.34423 
L 368.748636 -101.690935 
L 367.766584 -103.037639 
L 366.916226 -104.384343 
L 366.2112 -105.731047 
L 365.681638 -107.077751 
L 365.373639 -108.424455 
L 365.339899 -109.77116 
L 365.625725 -111.117864 
L 366.256496 -112.464568 
L 367.231082 -113.811272 
L 368.521735 -115.157976 
L 370.077715 -116.504681 
L 371.829836 -117.851385 
L 373.695707 -119.198089 
L 375.587355 -120.544793 
L 377.421878 -121.891497 
L 379.132783 -123.238201 
L 380.677933 -124.584906 
L 382.041437 -125.93161 
L 383.229737 -127.278314 
L 384.264149 -128.625018 
L 385.172306 -129.971722 
L 385.980487 -131.318427 
L 386.708655 -132.665131 
L 387.369525 -134.011835 
L 387.971364 -135.358539 
L 388.522027 -136.705243 
L 389.030972 -138.051947 
L 389.507755 -139.398652 
L 389.958497 -140.745356 
L 390.383432 -142.09206 
L 390.777531 -143.438764 
L 391.133603 -144.785468 
L 391.445669 -146.132172 
L 391.710906 -147.478877 
L 391.929919 -148.825581 
L 392.106093 -150.172285 
L 392.244605 -151.518989 
L 392.351363 -152.865693 
L 392.43211 -154.212398 
L 392.492072 -155.559102 
L 392.53634 -156.905806 
L 392.570542 -158.25251 
L 392.60096 -159.599214 
L 392.633608 -160.945918 
L 392.672675 -162.292623 
L 392.719471 -163.639327 
L 392.772804 -164.986031 
L 392.830808 -166.332735 
L 392.893207 -167.679439 
L 392.962549 -169.026144 
L 393.043381 -170.372848 
L 393.139531 -171.719552 
L 393.250964 -173.066256 
L 393.372232 -174.41296 
L 393.49378 -175.759664 
L 393.605733 -177.106369 
L 393.702277 -178.453073 
L 393.784282 -179.799777 
L 393.858622 -181.146481 
L 393.934335 -182.493185 
L 394.017611 -183.839889 
L 394.108379 -185.186594 
L 394.200474 -186.533298 
L 394.285096 -187.880002 
L 394.355216 -189.226706 
L 394.4082 -190.57341 
L 394.4456 -191.920115 
L 394.471457 -193.266819 
L 394.491474 -194.613523 
L 394.514117 -195.960227 
L 394.552124 -197.306931 
L 394.621442 -198.653635 
L 394.736056 -200.00034 
L 394.900694 -201.347044 
L 395.105983 -202.693748 
L 397.045617 -202.693748 
L 397.045617 -202.693748 
L 397.250906 -201.347044 
L 397.415544 -200.00034 
L 397.530158 -198.653635 
L 397.599476 -197.306931 
L 397.637483 -195.960227 
L 397.660126 -194.613523 
L 397.680143 -193.266819 
L 397.706 -191.920115 
L 397.7434 -190.57341 
L 397.796384 -189.226706 
L 397.866504 -187.880002 
L 397.951126 -186.533298 
L 398.043221 -185.186594 
L 398.133989 -183.839889 
L 398.217265 -182.493185 
L 398.292978 -181.146481 
L 398.367318 -179.799777 
L 398.449323 -178.453073 
L 398.545867 -177.106369 
L 398.65782 -175.759664 
L 398.779368 -174.41296 
L 398.900636 -173.066256 
L 399.012069 -171.719552 
L 399.108219 -170.372848 
L 399.189051 -169.026144 
L 399.258393 -167.679439 
L 399.320792 -166.332735 
L 399.378796 -164.986031 
L 399.432129 -163.639327 
L 399.478925 -162.292623 
L 399.517992 -160.945918 
L 399.55064 -159.599214 
L 399.581058 -158.25251 
L 399.61526 -156.905806 
L 399.659528 -155.559102 
L 399.71949 -154.212398 
L 399.800237 -152.865693 
L 399.906995 -151.518989 
L 400.045507 -150.172285 
L 400.221681 -148.825581 
L 400.440694 -147.478877 
L 400.705931 -146.132172 
L 401.017997 -144.785468 
L 401.374069 -143.438764 
L 401.768168 -142.09206 
L 402.193103 -140.745356 
L 402.643845 -139.398652 
L 403.120628 -138.051947 
L 403.629573 -136.705243 
L 404.180236 -135.358539 
L 404.782075 -134.011835 
L 405.442945 -132.665131 
L 406.171113 -131.318427 
L 406.979294 -129.971722 
L 407.887451 -128.625018 
L 408.921863 -127.278314 
L 410.110163 -125.93161 
L 411.473667 -124.584906 
L 413.018817 -123.238201 
L 414.729722 -121.891497 
L 416.564245 -120.544793 
L 418.455893 -119.198089 
L 420.321764 -117.851385 
L 422.073885 -116.504681 
L 423.629865 -115.157976 
L 424.920518 -113.811272 
L 425.895104 -112.464568 
L 426.525875 -111.117864 
L 426.811701 -109.77116 
L 426.777961 -108.424455 
L 426.469962 -107.077751 
L 425.9404 -105.731047 
L 425.235374 -104.384343 
L 424.385016 -103.037639 
L 423.402964 -101.690935 
L 422.294896 -100.34423 
L 421.072507 -98.997526 
L 419.767278 -97.650822 
L 418.438756 -96.304118 
L 417.174299 -94.957414 
L 416.07996 -93.61071 
L 415.263977 -92.264005 
L 414.815345 -90.917301 
L 414.781414 -89.570597 
L 415.151581 -88.223893 
L 415.857336 -86.877189 
L 416.798162 -85.530484 
L 417.894494 -84.18378 
L 419.15313 -82.837076 
L 420.713109 -81.490372 
L 422.830899 -80.143668 
L 425.774071 -78.796964 
L 429.630536 -77.450259 
L 434.101538 -76.103555 
L 438.401208 -74.756851 
L 441.381829 -73.410147 
L 441.905254 -72.063443 
L 439.320219 -70.716738 
L 433.794067 -69.370034 
z
" id="m927598b452" style="stroke:#141414;stroke-width:1.5;"/>
    </defs>
    <g clip-path="url(#pef9f67308d)">
     <use style="fill:#307e4a;stroke:#141414;stroke-width:1.5;" x="0" xlink:href="#m927598b452" y="536.575754"/>
    </g>
   </g>
   <g id="PolyCollection_4">
    <defs>
     <path d="M 567.157722 -69.370034 
L 484.742518 -69.370034 
L 479.005621 -70.989223 
L 477.510011 -72.608412 
L 480.055174 -74.227601 
L 485.31878 -75.846791 
L 491.620584 -77.46598 
L 497.609937 -79.085169 
L 502.547909 -80.704358 
L 506.232198 -82.323547 
L 508.781749 -83.942736 
L 510.440514 -85.561925 
L 511.450228 -87.181114 
L 511.9882 -88.800303 
L 512.157258 -90.419492 
L 512.012614 -92.038681 
L 511.602949 -93.65787 
L 510.999439 -95.277059 
L 510.294862 -96.896248 
L 509.574562 -98.515438 
L 508.880928 -100.134627 
L 508.197949 -101.753816 
L 507.466363 -103.373005 
L 506.616038 -104.992194 
L 505.592857 -106.611383 
L 504.369859 -108.230572 
L 502.950266 -109.849761 
L 501.374228 -111.46895 
L 499.730261 -113.088139 
L 498.159908 -114.707328 
L 496.841491 -116.326517 
L 495.948926 -117.945706 
L 495.59966 -119.564895 
L 495.819001 -121.184085 
L 496.542689 -122.803274 
L 497.656143 -124.422463 
L 499.046121 -126.041652 
L 500.636649 -127.660841 
L 502.395665 -129.28003 
L 504.317199 -130.899219 
L 506.394231 -132.518408 
L 508.597571 -134.137597 
L 510.868978 -135.756786 
L 513.127603 -137.375975 
L 515.283754 -138.995164 
L 517.255003 -140.614353 
L 518.981396 -142.233542 
L 520.435261 -143.852732 
L 521.620748 -145.471921 
L 522.5635 -147.09111 
L 523.297496 -148.710299 
L 523.856481 -150.329488 
L 524.271507 -151.948677 
L 524.571132 -153.567866 
L 524.781153 -155.187055 
L 524.923533 -156.806244 
L 525.015369 -158.425433 
L 525.06798 -160.044622 
L 525.085922 -161.663811 
L 525.066945 -163.283 
L 525.004746 -164.902189 
L 524.8949 -166.521379 
L 524.741155 -168.140568 
L 524.557807 -169.759757 
L 524.366196 -171.378946 
L 524.187597 -172.998135 
L 524.037132 -174.617324 
L 523.921911 -176.236513 
L 523.843513 -177.855702 
L 523.802261 -179.474891 
L 523.799871 -181.09408 
L 523.838247 -182.713269 
L 523.915403 -184.332458 
L 524.022479 -185.951647 
L 524.14531 -187.570836 
L 524.269902 -189.190026 
L 524.38759 -190.809215 
L 524.496242 -192.428404 
L 524.597663 -194.047593 
L 524.694177 -195.666782 
L 524.787008 -197.285971 
L 524.876714 -198.90516 
L 524.964065 -200.524349 
L 525.049864 -202.143538 
L 525.133665 -203.762727 
L 525.212655 -205.381916 
L 525.281792 -207.001105 
L 525.33523 -208.620294 
L 525.368266 -210.239483 
L 525.379092 -211.858673 
L 525.369843 -213.477862 
L 525.346572 -215.097051 
L 525.318258 -216.71624 
L 525.295377 -218.335429 
L 525.288405 -219.954618 
L 525.30597 -221.573807 
L 525.352449 -223.192996 
L 525.425928 -224.812185 
L 525.518177 -226.431374 
L 525.617213 -228.050563 
L 525.711117 -229.669752 
L 526.189123 -229.669752 
L 526.189123 -229.669752 
L 526.283027 -228.050563 
L 526.382063 -226.431374 
L 526.474312 -224.812185 
L 526.547791 -223.192996 
L 526.59427 -221.573807 
L 526.611835 -219.954618 
L 526.604863 -218.335429 
L 526.581982 -216.71624 
L 526.553668 -215.097051 
L 526.530397 -213.477862 
L 526.521148 -211.858673 
L 526.531974 -210.239483 
L 526.56501 -208.620294 
L 526.618448 -207.001105 
L 526.687585 -205.381916 
L 526.766575 -203.762727 
L 526.850376 -202.143538 
L 526.936175 -200.524349 
L 527.023526 -198.90516 
L 527.113232 -197.285971 
L 527.206063 -195.666782 
L 527.302577 -194.047593 
L 527.403998 -192.428404 
L 527.51265 -190.809215 
L 527.630338 -189.190026 
L 527.75493 -187.570836 
L 527.877761 -185.951647 
L 527.984837 -184.332458 
L 528.061993 -182.713269 
L 528.100369 -181.09408 
L 528.097979 -179.474891 
L 528.056727 -177.855702 
L 527.978329 -176.236513 
L 527.863108 -174.617324 
L 527.712643 -172.998135 
L 527.534044 -171.378946 
L 527.342433 -169.759757 
L 527.159085 -168.140568 
L 527.00534 -166.521379 
L 526.895494 -164.902189 
L 526.833295 -163.283 
L 526.814318 -161.663811 
L 526.83226 -160.044622 
L 526.884871 -158.425433 
L 526.976707 -156.806244 
L 527.119087 -155.187055 
L 527.329108 -153.567866 
L 527.628733 -151.948677 
L 528.043759 -150.329488 
L 528.602744 -148.710299 
L 529.33674 -147.09111 
L 530.279492 -145.471921 
L 531.464979 -143.852732 
L 532.918844 -142.233542 
L 534.645237 -140.614353 
L 536.616486 -138.995164 
L 538.772637 -137.375975 
L 541.031262 -135.756786 
L 543.302669 -134.137597 
L 545.506009 -132.518408 
L 547.583041 -130.899219 
L 549.504575 -129.28003 
L 551.263591 -127.660841 
L 552.854119 -126.041652 
L 554.244097 -124.422463 
L 555.357551 -122.803274 
L 556.081239 -121.184085 
L 556.30058 -119.564895 
L 555.951314 -117.945706 
L 555.058749 -116.326517 
L 553.740332 -114.707328 
L 552.169979 -113.088139 
L 550.526012 -111.46895 
L 548.949974 -109.849761 
L 547.530381 -108.230572 
L 546.307383 -106.611383 
L 545.284202 -104.992194 
L 544.433877 -103.373005 
L 543.702291 -101.753816 
L 543.019312 -100.134627 
L 542.325678 -98.515438 
L 541.605378 -96.896248 
L 540.900801 -95.277059 
L 540.297291 -93.65787 
L 539.887626 -92.038681 
L 539.742982 -90.419492 
L 539.91204 -88.800303 
L 540.450012 -87.181114 
L 541.459726 -85.561925 
L 543.118491 -83.942736 
L 545.668042 -82.323547 
L 549.352331 -80.704358 
L 554.290303 -79.085169 
L 560.279656 -77.46598 
L 566.58146 -75.846791 
L 571.845066 -74.227601 
L 574.390229 -72.608412 
L 572.894619 -70.989223 
L 567.157722 -69.370034 
z
" id="m670361c2be" style="stroke:#141414;stroke-width:1.5;"/>
    </defs>
    <g clip-path="url(#pef9f67308d)">
     <use style="fill:#4fa076;stroke:#141414;stroke-width:1.5;" x="0" xlink:href="#m670361c2be" y="536.575754"/>
    </g>
   </g>
   <g id="PolyCollection_5">
    <defs>
     <path d="M 677.905893 -69.370034 
L 633.742987 -69.370034 
L 629.448167 -70.619797 
L 626.027191 -71.869559 
L 623.795069 -73.119322 
L 622.833526 -74.369084 
L 623.004886 -75.618846 
L 624.028313 -76.868609 
L 625.577429 -78.118371 
L 627.360013 -79.368134 
L 629.159905 -80.617896 
L 630.842655 -81.867659 
L 632.33881 -83.117421 
L 633.620317 -84.367184 
L 634.680829 -85.616946 
L 635.524656 -86.866708 
L 636.163993 -88.116471 
L 636.620779 -89.366233 
L 636.928335 -90.615996 
L 637.128901 -91.865758 
L 637.265993 -93.115521 
L 637.373864 -94.365283 
L 637.468621 -95.615045 
L 637.54549 -96.864808 
L 637.584266 -98.11457 
L 637.561303 -99.364333 
L 637.463347 -100.614095 
L 637.297563 -101.863858 
L 637.09365 -103.11362 
L 636.897258 -104.363383 
L 636.757361 -105.613145 
L 636.712312 -106.862907 
L 636.779274 -108.11267 
L 636.949929 -109.362432 
L 637.192864 -110.612195 
L 637.461094 -111.861957 
L 637.702198 -113.11172 
L 637.868423 -114.361482 
L 637.92464 -115.611245 
L 637.852805 -116.861007 
L 637.652737 -118.110769 
L 637.340024 -119.360532 
L 636.942321 -120.610294 
L 636.494952 -121.860057 
L 636.036153 -123.109819 
L 635.602133 -124.359582 
L 635.222673 -125.609344 
L 634.918417 -126.859106 
L 634.70063 -128.108869 
L 634.573007 -129.358631 
L 634.533981 -130.608394 
L 634.577945 -131.858156 
L 634.694974 -133.107919 
L 634.870169 -134.357681 
L 635.084389 -135.607444 
L 635.317356 -136.857206 
L 635.552486 -138.106968 
L 635.781457 -139.356731 
L 636.006466 -140.606493 
L 636.239291 -141.856256 
L 636.497936 -143.106018 
L 636.80263 -144.355781 
L 637.172981 -145.605543 
L 637.62705 -146.855305 
L 638.181726 -148.105068 
L 638.852753 -149.35483 
L 639.652763 -150.604593 
L 640.586963 -151.854355 
L 641.647895 -153.104118 
L 642.811826 -154.35388 
L 644.038985 -155.603643 
L 645.278222 -156.853405 
L 646.474868 -158.103167 
L 647.579542 -159.35293 
L 648.555755 -160.602692 
L 649.384737 -161.852455 
L 650.066744 -163.102217 
L 650.618846 -164.35198 
L 651.069928 -165.601742 
L 651.454238 -166.851504 
L 651.804936 -168.101267 
L 652.14882 -169.351029 
L 652.502882 -170.600792 
L 652.872952 -171.850554 
L 653.254481 -173.100317 
L 653.635216 -174.350079 
L 653.999163 -175.599842 
L 654.330771 -176.849604 
L 654.618274 -178.099366 
L 654.855476 -179.349129 
L 655.041931 -180.598891 
L 655.181967 -181.848654 
L 655.283172 -183.098416 
L 655.354814 -184.348179 
L 655.406439 -185.597941 
L 655.446755 -186.847703 
L 655.482811 -188.097466 
L 655.519463 -189.347228 
L 655.559135 -190.596991 
L 655.601915 -191.846753 
L 655.646026 -193.096516 
L 656.002854 -193.096516 
L 656.002854 -193.096516 
L 656.046965 -191.846753 
L 656.089745 -190.596991 
L 656.129417 -189.347228 
L 656.166069 -188.097466 
L 656.202125 -186.847703 
L 656.242441 -185.597941 
L 656.294066 -184.348179 
L 656.365708 -183.098416 
L 656.466913 -181.848654 
L 656.606949 -180.598891 
L 656.793404 -179.349129 
L 657.030606 -178.099366 
L 657.318109 -176.849604 
L 657.649717 -175.599842 
L 658.013664 -174.350079 
L 658.394399 -173.100317 
L 658.775928 -171.850554 
L 659.145998 -170.600792 
L 659.50006 -169.351029 
L 659.843944 -168.101267 
L 660.194642 -166.851504 
L 660.578952 -165.601742 
L 661.030034 -164.35198 
L 661.582136 -163.102217 
L 662.264143 -161.852455 
L 663.093125 -160.602692 
L 664.069338 -159.35293 
L 665.174012 -158.103167 
L 666.370658 -156.853405 
L 667.609895 -155.603643 
L 668.837054 -154.35388 
L 670.000985 -153.104118 
L 671.061917 -151.854355 
L 671.996117 -150.604593 
L 672.796127 -149.35483 
L 673.467154 -148.105068 
L 674.02183 -146.855305 
L 674.475899 -145.605543 
L 674.84625 -144.355781 
L 675.150944 -143.106018 
L 675.409589 -141.856256 
L 675.642414 -140.606493 
L 675.867423 -139.356731 
L 676.096394 -138.106968 
L 676.331524 -136.857206 
L 676.564491 -135.607444 
L 676.778711 -134.357681 
L 676.953906 -133.107919 
L 677.070935 -131.858156 
L 677.114899 -130.608394 
L 677.075873 -129.358631 
L 676.94825 -128.108869 
L 676.730463 -126.859106 
L 676.426207 -125.609344 
L 676.046747 -124.359582 
L 675.612727 -123.109819 
L 675.153928 -121.860057 
L 674.706559 -120.610294 
L 674.308856 -119.360532 
L 673.996143 -118.110769 
L 673.796075 -116.861007 
L 673.72424 -115.611245 
L 673.780457 -114.361482 
L 673.946682 -113.11172 
L 674.187786 -111.861957 
L 674.456016 -110.612195 
L 674.698951 -109.362432 
L 674.869606 -108.11267 
L 674.936568 -106.862907 
L 674.891519 -105.613145 
L 674.751622 -104.363383 
L 674.55523 -103.11362 
L 674.351317 -101.863858 
L 674.185533 -100.614095 
L 674.087577 -99.364333 
L 674.064614 -98.11457 
L 674.10339 -96.864808 
L 674.180259 -95.615045 
L 674.275016 -94.365283 
L 674.382887 -93.115521 
L 674.519979 -91.865758 
L 674.720545 -90.615996 
L 675.028101 -89.366233 
L 675.484887 -88.116471 
L 676.124224 -86.866708 
L 676.968051 -85.616946 
L 678.028563 -84.367184 
L 679.31007 -83.117421 
L 680.806225 -81.867659 
L 682.488975 -80.617896 
L 684.288867 -79.368134 
L 686.071451 -78.118371 
L 687.620567 -76.868609 
L 688.643994 -75.618846 
L 688.815354 -74.369084 
L 687.853811 -73.119322 
L 685.621689 -71.869559 
L 682.200713 -70.619797 
L 677.905893 -69.370034 
z
" id="mf424deefb5" style="stroke:#141414;stroke-width:1.5;"/>
    </defs>
    <g clip-path="url(#pef9f67308d)">
     <use style="fill:#72b6a0;stroke:#141414;stroke-width:1.5;" x="0" xlink:href="#mf424deefb5" y="536.575754"/>
    </g>
   </g>
   <g id="line2d_1">
    <path clip-path="url(#pef9f67308d)" d="M 136.32716 467.20572 
L 136.32716 375.902321 
" style="fill:none;stroke:#141414;stroke-linecap:round;stroke-width:1.5;"/>
   </g>
   <g id="line2d_2">
    <path clip-path="url(#pef9f67308d)" d="M 136.32716 459.42418 
L 136.32716 425.96356 
" style="fill:none;stroke:#141414;stroke-linecap:round;stroke-width:4.5;"/>
   </g>
   <g id="line2d_3">
    <path clip-path="url(#pef9f67308d)" d="M 266.20148 465.649412 
L 266.20148 29.105034 
" style="fill:none;stroke:#141414;stroke-linecap:round;stroke-width:1.5;"/>
   </g>
   <g id="line2d_4">
    <path clip-path="url(#pef9f67308d)" d="M 266.20148 448.530025 
L 266.20148 235.834606 
" style="fill:none;stroke:#141414;stroke-linecap:round;stroke-width:4.5;"/>
   </g>
   <g id="line2d_5">
    <path clip-path="url(#pef9f67308d)" d="M 396.0758 467.20572 
L 396.0758 360.858011 
" style="fill:none;stroke:#141414;stroke-linecap:round;stroke-width:1.5;"/>
   </g>
   <g id="line2d_6">
    <path clip-path="url(#pef9f67308d)" d="M 396.0758 459.42418 
L 396.0758 419.997712 
" style="fill:none;stroke:#141414;stroke-linecap:round;stroke-width:4.5;"/>
   </g>
   <g id="line2d_7">
    <path clip-path="url(#pef9f67308d)" d="M 525.95012 467.20572 
L 525.95012 343.219854 
" style="fill:none;stroke:#141414;stroke-linecap:round;stroke-width:1.5;"/>
   </g>
   <g id="line2d_8">
    <path clip-path="url(#pef9f67308d)" d="M 525.95012 461.239873 
L 525.95012 414.031865 
" style="fill:none;stroke:#141414;stroke-linecap:round;stroke-width:4.5;"/>
   </g>
   <g id="line2d_9">
    <path clip-path="url(#pef9f67308d)" d="M 655.82444 467.20572 
L 655.82444 343.479239 
" style="fill:none;stroke:#141414;stroke-linecap:round;stroke-width:1.5;"/>
   </g>
   <g id="line2d_10">
    <path clip-path="url(#pef9f67308d)" d="M 655.82444 453.198949 
L 655.82444 401.840786 
" style="fill:none;stroke:#141414;stroke-linecap:round;stroke-width:4.5;"/>
   </g>
   <g id="patch_3">
    <path d="M 71.39 489.110754 
L 71.39 7.2 
" style="fill:none;stroke:#262626;stroke-linecap:square;stroke-linejoin:miter;stroke-width:0.8;"/>
   </g>
   <g id="patch_4">
    <path d="M 71.39 489.110754 
L 720.7616 489.110754 
" style="fill:none;stroke:#262626;stroke-linecap:square;stroke-linejoin:miter;stroke-width:0.8;"/>
   </g>
   <g id="PathCollection_1">
    <defs>
     <path d="M 0 1.5 
C 0.397805 1.5 0.77937 1.341951 1.06066 1.06066 
C 1.341951 0.77937 1.5 0.397805 1.5 0 
C 1.5 -0.397805 1.341951 -0.77937 1.06066 -1.06066 
C 0.77937 -1.341951 0.397805 -1.5 0 -1.5 
C -0.397805 -1.5 -0.77937 -1.341951 -1.06066 -1.06066 
C -1.341951 -0.77937 -1.5 -0.397805 -1.5 0 
C -1.5 0.397805 -1.341951 0.77937 -1.06066 1.06066 
C -0.77937 1.341951 -0.397805 1.5 0 1.5 
z
" id="m3bfa0efa65" style="stroke:#141414;"/>
    </defs>
    <g clip-path="url(#pef9f67308d)">
     <use style="fill:#ffffff;stroke:#141414;" x="136.32716" xlink:href="#m3bfa0efa65" y="444.639255"/>
    </g>
   </g>
   <g id="PathCollection_2">
    <g clip-path="url(#pef9f67308d)">
     <use style="fill:#ffffff;stroke:#141414;" x="266.20148" xlink:href="#m3bfa0efa65" y="325.841082"/>
    </g>
   </g>
   <g id="PathCollection_3">
    <g clip-path="url(#pef9f67308d)">
     <use style="fill:#ffffff;stroke:#141414;" x="396.0758" xlink:href="#m3bfa0efa65" y="436.338946"/>
    </g>
   </g>
   <g id="PathCollection_4">
    <g clip-path="url(#pef9f67308d)">
     <use style="fill:#ffffff;stroke:#141414;" x="525.95012" xlink:href="#m3bfa0efa65" y="432.448176"/>
    </g>
   </g>
   <g id="PathCollection_5">
    <g clip-path="url(#pef9f67308d)">
     <use style="fill:#ffffff;stroke:#141414;" x="655.82444" xlink:href="#m3bfa0efa65" y="427.001098"/>
    </g>
   </g>
  </g>
 </g>
 <defs>
  <clipPath id="pef9f67308d">
   <rect height="481.910754" width="649.3716" x="71.39" y="7.2"/>
  </clipPath>
 </defs>
</svg>
