<?xml version="1.0" encoding="utf-8" standalone="no"?>
<!DOCTYPE svg PUBLIC "-//W3C//DTD SVG 1.1//EN"
  "http://www.w3.org/Graphics/SVG/1.1/DTD/svg11.dtd">
<!-- Created with matplotlib (https://matplotlib.org/) -->
<svg height="540.169pt" version="1.1" viewBox="0 0 770.0485 540.169" width="770.0485pt" xmlns="http://www.w3.org/2000/svg" xmlns:xlink="http://www.w3.org/1999/xlink">
 <defs>
  <style type="text/css">
*{stroke-linecap:butt;stroke-linejoin:round;white-space:pre;}
  </style>
 </defs>
 <g id="figure_1">
  <g id="patch_1">
   <path d="M 0 540.169 
L 770.0485 540.169 
L 770.0485 0 
L 0 0 
z
" style="fill:#ffffff;"/>
  </g>
  <g id="axes_1">
   <g id="patch_2">
    <path d="M 62.4925 492.704 
L 762.8485 492.704 
L 762.8485 7.2 
L 62.4925 7.2 
z
" style="fill:#ffffff;"/>
   </g>
   <g id="matplotlib.axis_1">
    <g id="xtick_1">
     <g id="text_1">
      <!-- 1056-186-1 -->
      <defs>
       <path d="M 37.25 0 
L 28.46875 0 
L 28.46875 56 
Q 25.296875 52.984375 20.140625 49.953125 
Q 14.984375 46.921875 10.890625 45.40625 
L 10.890625 53.90625 
Q 18.265625 57.375 23.78125 62.296875 
Q 29.296875 67.234375 31.59375 71.875 
L 37.25 71.875 
z
" id="ArialMT-49"/>
       <path d="M 4.15625 35.296875 
Q 4.15625 48 6.765625 55.734375 
Q 9.375 63.484375 14.515625 67.671875 
Q 19.671875 71.875 27.484375 71.875 
Q 33.25 71.875 37.59375 69.546875 
Q 41.9375 67.234375 44.765625 62.859375 
Q 47.609375 58.5 49.21875 52.21875 
Q 50.828125 45.953125 50.828125 35.296875 
Q 50.828125 22.703125 48.234375 14.96875 
Q 45.65625 7.234375 40.5 3 
Q 35.359375 -1.21875 27.484375 -1.21875 
Q 17.140625 -1.21875 11.234375 6.203125 
Q 4.15625 15.140625 4.15625 35.296875 
z
M 13.1875 35.296875 
Q 13.1875 17.671875 17.3125 11.828125 
Q 21.4375 6 27.484375 6 
Q 33.546875 6 37.671875 11.859375 
Q 41.796875 17.71875 41.796875 35.296875 
Q 41.796875 52.984375 37.671875 58.78125 
Q 33.546875 64.59375 27.390625 64.59375 
Q 21.34375 64.59375 17.71875 59.46875 
Q 13.1875 52.9375 13.1875 35.296875 
z
" id="ArialMT-48"/>
       <path d="M 4.15625 18.75 
L 13.375 19.53125 
Q 14.40625 12.796875 18.140625 9.390625 
Q 21.875 6 27.15625 6 
Q 33.5 6 37.890625 10.78125 
Q 42.28125 15.578125 42.28125 23.484375 
Q 42.28125 31 38.0625 35.34375 
Q 33.84375 39.703125 27 39.703125 
Q 22.75 39.703125 19.328125 37.765625 
Q 15.921875 35.84375 13.96875 32.765625 
L 5.71875 33.84375 
L 12.640625 70.609375 
L 48.25 70.609375 
L 48.25 62.203125 
L 19.671875 62.203125 
L 15.828125 42.96875 
Q 22.265625 47.46875 29.34375 47.46875 
Q 38.71875 47.46875 45.15625 40.96875 
Q 51.609375 34.46875 51.609375 24.265625 
Q 51.609375 14.546875 45.953125 7.46875 
Q 39.0625 -1.21875 27.15625 -1.21875 
Q 17.390625 -1.21875 11.203125 4.25 
Q 5.03125 9.71875 4.15625 18.75 
z
" id="ArialMT-53"/>
       <path d="M 49.75 54.046875 
L 41.015625 53.375 
Q 39.84375 58.546875 37.703125 60.890625 
Q 34.125 64.65625 28.90625 64.65625 
Q 24.703125 64.65625 21.53125 62.3125 
Q 17.390625 59.28125 14.984375 53.46875 
Q 12.59375 47.65625 12.5 36.921875 
Q 15.671875 41.75 20.265625 44.09375 
Q 24.859375 46.4375 29.890625 46.4375 
Q 38.671875 46.4375 44.84375 39.96875 
Q 51.03125 33.5 51.03125 23.25 
Q 51.03125 16.5 48.125 10.71875 
Q 45.21875 4.9375 40.140625 1.859375 
Q 35.0625 -1.21875 28.609375 -1.21875 
Q 17.625 -1.21875 10.6875 6.859375 
Q 3.765625 14.9375 3.765625 33.5 
Q 3.765625 54.25 11.421875 63.671875 
Q 18.109375 71.875 29.4375 71.875 
Q 37.890625 71.875 43.28125 67.140625 
Q 48.6875 62.40625 49.75 54.046875 
z
M 13.875 23.1875 
Q 13.875 18.65625 15.796875 14.5 
Q 17.71875 10.359375 21.1875 8.171875 
Q 24.65625 6 28.46875 6 
Q 34.03125 6 38.03125 10.484375 
Q 42.046875 14.984375 42.046875 22.703125 
Q 42.046875 30.125 38.078125 34.390625 
Q 34.125 38.671875 28.125 38.671875 
Q 22.171875 38.671875 18.015625 34.390625 
Q 13.875 30.125 13.875 23.1875 
z
" id="ArialMT-54"/>
       <path d="M 3.171875 21.484375 
L 3.171875 30.328125 
L 30.171875 30.328125 
L 30.171875 21.484375 
z
" id="ArialMT-45"/>
       <path d="M 17.671875 38.8125 
Q 12.203125 40.828125 9.5625 44.53125 
Q 6.9375 48.25 6.9375 53.421875 
Q 6.9375 61.234375 12.546875 66.546875 
Q 18.171875 71.875 27.484375 71.875 
Q 36.859375 71.875 42.578125 66.421875 
Q 48.296875 60.984375 48.296875 53.171875 
Q 48.296875 48.1875 45.671875 44.5 
Q 43.0625 40.828125 37.75 38.8125 
Q 44.34375 36.671875 47.78125 31.875 
Q 51.21875 27.09375 51.21875 20.453125 
Q 51.21875 11.28125 44.71875 5.03125 
Q 38.234375 -1.21875 27.640625 -1.21875 
Q 17.046875 -1.21875 10.546875 5.046875 
Q 4.046875 11.328125 4.046875 20.703125 
Q 4.046875 27.6875 7.59375 32.390625 
Q 11.140625 37.109375 17.671875 38.8125 
z
M 15.921875 53.71875 
Q 15.921875 48.640625 19.1875 45.40625 
Q 22.46875 42.1875 27.6875 42.1875 
Q 32.765625 42.1875 36.015625 45.375 
Q 39.265625 48.578125 39.265625 53.21875 
Q 39.265625 58.0625 35.90625 61.359375 
Q 32.5625 64.65625 27.59375 64.65625 
Q 22.5625 64.65625 19.234375 61.421875 
Q 15.921875 58.203125 15.921875 53.71875 
z
M 13.09375 20.65625 
Q 13.09375 16.890625 14.875 13.375 
Q 16.65625 9.859375 20.171875 7.921875 
Q 23.6875 6 27.734375 6 
Q 34.03125 6 38.125 10.046875 
Q 42.234375 14.109375 42.234375 20.359375 
Q 42.234375 26.703125 38.015625 30.859375 
Q 33.796875 35.015625 27.4375 35.015625 
Q 21.234375 35.015625 17.15625 30.90625 
Q 13.09375 26.8125 13.09375 20.65625 
z
" id="ArialMT-56"/>
      </defs>
      <g style="fill:#262626;" transform="translate(91.6106 511.1565)scale(0.16 -0.16)">
       <use xlink:href="#ArialMT-49"/>
       <use x="55.615234" xlink:href="#ArialMT-48"/>
       <use x="111.230469" xlink:href="#ArialMT-53"/>
       <use x="166.845703" xlink:href="#ArialMT-54"/>
       <use x="222.460938" xlink:href="#ArialMT-45"/>
       <use x="255.761719" xlink:href="#ArialMT-49"/>
       <use x="311.376953" xlink:href="#ArialMT-56"/>
       <use x="366.992188" xlink:href="#ArialMT-54"/>
       <use x="422.607422" xlink:href="#ArialMT-45"/>
       <use x="455.908203" xlink:href="#ArialMT-49"/>
      </g>
     </g>
    </g>
    <g id="xtick_2">
     <g id="text_2">
      <!-- 1927-261-1 -->
      <defs>
       <path d="M 5.46875 16.546875 
L 13.921875 17.328125 
Q 14.984375 11.375 18.015625 8.6875 
Q 21.046875 6 25.78125 6 
Q 29.828125 6 32.875 7.859375 
Q 35.9375 9.71875 37.890625 12.8125 
Q 39.84375 15.921875 41.15625 21.1875 
Q 42.484375 26.46875 42.484375 31.9375 
Q 42.484375 32.515625 42.4375 33.6875 
Q 39.796875 29.5 35.234375 26.875 
Q 30.671875 24.265625 25.34375 24.265625 
Q 16.453125 24.265625 10.296875 30.703125 
Q 4.15625 37.15625 4.15625 47.703125 
Q 4.15625 58.59375 10.578125 65.234375 
Q 17 71.875 26.65625 71.875 
Q 33.640625 71.875 39.421875 68.109375 
Q 45.21875 64.359375 48.21875 57.390625 
Q 51.21875 50.4375 51.21875 37.25 
Q 51.21875 23.53125 48.234375 15.40625 
Q 45.265625 7.28125 39.375 3.03125 
Q 33.5 -1.21875 25.59375 -1.21875 
Q 17.1875 -1.21875 11.859375 3.4375 
Q 6.546875 8.109375 5.46875 16.546875 
z
M 41.453125 48.140625 
Q 41.453125 55.71875 37.421875 60.15625 
Q 33.40625 64.59375 27.734375 64.59375 
Q 21.875 64.59375 17.53125 59.8125 
Q 13.1875 55.03125 13.1875 47.40625 
Q 13.1875 40.578125 17.3125 36.296875 
Q 21.4375 32.03125 27.484375 32.03125 
Q 33.59375 32.03125 37.515625 36.296875 
Q 41.453125 40.578125 41.453125 48.140625 
z
" id="ArialMT-57"/>
       <path d="M 50.34375 8.453125 
L 50.34375 0 
L 3.03125 0 
Q 2.9375 3.171875 4.046875 6.109375 
Q 5.859375 10.9375 9.828125 15.625 
Q 13.8125 20.3125 21.34375 26.46875 
Q 33.015625 36.03125 37.109375 41.625 
Q 41.21875 47.21875 41.21875 52.203125 
Q 41.21875 57.421875 37.46875 61 
Q 33.734375 64.59375 27.734375 64.59375 
Q 21.390625 64.59375 17.578125 60.78125 
Q 13.765625 56.984375 13.71875 50.25 
L 4.6875 51.171875 
Q 5.609375 61.28125 11.65625 66.578125 
Q 17.71875 71.875 27.9375 71.875 
Q 38.234375 71.875 44.234375 66.15625 
Q 50.25 60.453125 50.25 52 
Q 50.25 47.703125 48.484375 43.546875 
Q 46.734375 39.40625 42.65625 34.8125 
Q 38.578125 30.21875 29.109375 22.21875 
Q 21.1875 15.578125 18.9375 13.203125 
Q 16.703125 10.84375 15.234375 8.453125 
z
" id="ArialMT-50"/>
       <path d="M 4.734375 62.203125 
L 4.734375 70.65625 
L 51.078125 70.65625 
L 51.078125 63.8125 
Q 44.234375 56.546875 37.515625 44.484375 
Q 30.8125 32.421875 27.15625 19.671875 
Q 24.515625 10.6875 23.78125 0 
L 14.75 0 
Q 14.890625 8.453125 18.0625 20.40625 
Q 21.234375 32.375 27.171875 43.484375 
Q 33.109375 54.59375 39.796875 62.203125 
z
" id="ArialMT-55"/>
      </defs>
      <g style="fill:#262626;" transform="translate(231.6818 511.1565)scale(0.16 -0.16)">
       <use xlink:href="#ArialMT-49"/>
       <use x="55.615234" xlink:href="#ArialMT-57"/>
       <use x="111.230469" xlink:href="#ArialMT-50"/>
       <use x="166.845703" xlink:href="#ArialMT-55"/>
       <use x="222.460938" xlink:href="#ArialMT-45"/>
       <use x="255.761719" xlink:href="#ArialMT-50"/>
       <use x="311.376953" xlink:href="#ArialMT-54"/>
       <use x="366.992188" xlink:href="#ArialMT-49"/>
       <use x="422.607422" xlink:href="#ArialMT-45"/>
       <use x="455.908203" xlink:href="#ArialMT-49"/>
      </g>
     </g>
    </g>
    <g id="xtick_3">
     <g id="text_3">
      <!-- 1928-281-1 -->
      <g style="fill:#262626;" transform="translate(371.753 511.1565)scale(0.16 -0.16)">
       <use xlink:href="#ArialMT-49"/>
       <use x="55.615234" xlink:href="#ArialMT-57"/>
       <use x="111.230469" xlink:href="#ArialMT-50"/>
       <use x="166.845703" xlink:href="#ArialMT-56"/>
       <use x="222.460938" xlink:href="#ArialMT-45"/>
       <use x="255.761719" xlink:href="#ArialMT-50"/>
       <use x="311.376953" xlink:href="#ArialMT-56"/>
       <use x="366.992188" xlink:href="#ArialMT-49"/>
       <use x="422.607422" xlink:href="#ArialMT-45"/>
       <use x="455.908203" xlink:href="#ArialMT-49"/>
      </g>
     </g>
    </g>
    <g id="xtick_4">
     <g id="text_4">
      <!-- 686-1 -->
      <g style="fill:#262626;" transform="translate(532.28295 511.1565)scale(0.16 -0.16)">
       <use xlink:href="#ArialMT-54"/>
       <use x="55.615234" xlink:href="#ArialMT-56"/>
       <use x="111.230469" xlink:href="#ArialMT-54"/>
       <use x="166.845703" xlink:href="#ArialMT-45"/>
       <use x="200.146484" xlink:href="#ArialMT-49"/>
      </g>
     </g>
    </g>
    <g id="xtick_5">
     <g id="text_5">
      <!-- 686-2 -->
      <g style="fill:#262626;" transform="translate(672.35415 511.1565)scale(0.16 -0.16)">
       <use xlink:href="#ArialMT-54"/>
       <use x="55.615234" xlink:href="#ArialMT-56"/>
       <use x="111.230469" xlink:href="#ArialMT-54"/>
       <use x="166.845703" xlink:href="#ArialMT-45"/>
       <use x="200.146484" xlink:href="#ArialMT-50"/>
      </g>
     </g>
    </g>
    <g id="text_6">
     <!-- Counter id -->
     <defs>
      <path d="M 58.796875 25.09375 
L 68.265625 22.703125 
Q 65.28125 11.03125 57.546875 4.90625 
Q 49.8125 -1.21875 38.625 -1.21875 
Q 27.046875 -1.21875 19.796875 3.484375 
Q 12.546875 8.203125 8.765625 17.140625 
Q 4.984375 26.078125 4.984375 36.328125 
Q 4.984375 47.515625 9.25 55.828125 
Q 13.53125 64.15625 21.40625 68.46875 
Q 29.296875 72.796875 38.765625 72.796875 
Q 49.515625 72.796875 56.828125 67.328125 
Q 64.15625 61.859375 67.046875 51.953125 
L 57.71875 49.75 
Q 55.21875 57.5625 50.484375 61.125 
Q 45.75 64.703125 38.578125 64.703125 
Q 30.328125 64.703125 24.78125 60.734375 
Q 19.234375 56.78125 16.984375 50.109375 
Q 14.75 43.453125 14.75 36.375 
Q 14.75 27.25 17.40625 20.4375 
Q 20.0625 13.625 25.671875 10.25 
Q 31.296875 6.890625 37.84375 6.890625 
Q 45.796875 6.890625 51.3125 11.46875 
Q 56.84375 16.0625 58.796875 25.09375 
z
" id="ArialMT-67"/>
      <path d="M 3.328125 25.921875 
Q 3.328125 40.328125 11.328125 47.265625 
Q 18.015625 53.03125 27.640625 53.03125 
Q 38.328125 53.03125 45.109375 46.015625 
Q 51.90625 39.015625 51.90625 26.65625 
Q 51.90625 16.65625 48.90625 10.90625 
Q 45.90625 5.171875 40.15625 2 
Q 34.421875 -1.171875 27.640625 -1.171875 
Q 16.75 -1.171875 10.03125 5.8125 
Q 3.328125 12.796875 3.328125 25.921875 
z
M 12.359375 25.921875 
Q 12.359375 15.96875 16.703125 11.015625 
Q 21.046875 6.0625 27.640625 6.0625 
Q 34.1875 6.0625 38.53125 11.03125 
Q 42.875 16.015625 42.875 26.21875 
Q 42.875 35.84375 38.5 40.796875 
Q 34.125 45.75 27.640625 45.75 
Q 21.046875 45.75 16.703125 40.8125 
Q 12.359375 35.890625 12.359375 25.921875 
z
" id="ArialMT-111"/>
      <path d="M 40.578125 0 
L 40.578125 7.625 
Q 34.515625 -1.171875 24.125 -1.171875 
Q 19.53125 -1.171875 15.546875 0.578125 
Q 11.578125 2.34375 9.640625 5 
Q 7.71875 7.671875 6.9375 11.53125 
Q 6.390625 14.109375 6.390625 19.734375 
L 6.390625 51.859375 
L 15.1875 51.859375 
L 15.1875 23.09375 
Q 15.1875 16.21875 15.71875 13.8125 
Q 16.546875 10.359375 19.234375 8.375 
Q 21.921875 6.390625 25.875 6.390625 
Q 29.828125 6.390625 33.296875 8.421875 
Q 36.765625 10.453125 38.203125 13.9375 
Q 39.65625 17.4375 39.65625 24.078125 
L 39.65625 51.859375 
L 48.4375 51.859375 
L 48.4375 0 
z
" id="ArialMT-117"/>
      <path d="M 6.59375 0 
L 6.59375 51.859375 
L 14.5 51.859375 
L 14.5 44.484375 
Q 20.21875 53.03125 31 53.03125 
Q 35.6875 53.03125 39.625 51.34375 
Q 43.5625 49.65625 45.515625 46.921875 
Q 47.46875 44.1875 48.25 40.4375 
Q 48.734375 37.984375 48.734375 31.890625 
L 48.734375 0 
L 39.9375 0 
L 39.9375 31.546875 
Q 39.9375 36.921875 38.90625 39.578125 
Q 37.890625 42.234375 35.28125 43.8125 
Q 32.671875 45.40625 29.15625 45.40625 
Q 23.53125 45.40625 19.453125 41.84375 
Q 15.375 38.28125 15.375 28.328125 
L 15.375 0 
z
" id="ArialMT-110"/>
      <path d="M 25.78125 7.859375 
L 27.046875 0.09375 
Q 23.34375 -0.6875 20.40625 -0.6875 
Q 15.625 -0.6875 12.984375 0.828125 
Q 10.359375 2.34375 9.28125 4.8125 
Q 8.203125 7.28125 8.203125 15.1875 
L 8.203125 45.015625 
L 1.765625 45.015625 
L 1.765625 51.859375 
L 8.203125 51.859375 
L 8.203125 64.703125 
L 16.9375 69.96875 
L 16.9375 51.859375 
L 25.78125 51.859375 
L 25.78125 45.015625 
L 16.9375 45.015625 
L 16.9375 14.703125 
Q 16.9375 10.9375 17.40625 9.859375 
Q 17.875 8.796875 18.921875 8.15625 
Q 19.96875 7.515625 21.921875 7.515625 
Q 23.390625 7.515625 25.78125 7.859375 
z
" id="ArialMT-116"/>
      <path d="M 42.09375 16.703125 
L 51.171875 15.578125 
Q 49.03125 7.625 43.21875 3.21875 
Q 37.40625 -1.171875 28.375 -1.171875 
Q 17 -1.171875 10.328125 5.828125 
Q 3.65625 12.84375 3.65625 25.484375 
Q 3.65625 38.578125 10.390625 45.796875 
Q 17.140625 53.03125 27.875 53.03125 
Q 38.28125 53.03125 44.875 45.953125 
Q 51.46875 38.875 51.46875 26.03125 
Q 51.46875 25.25 51.421875 23.6875 
L 12.75 23.6875 
Q 13.234375 15.140625 17.578125 10.59375 
Q 21.921875 6.0625 28.421875 6.0625 
Q 33.25 6.0625 36.671875 8.59375 
Q 40.09375 11.140625 42.09375 16.703125 
z
M 13.234375 30.90625 
L 42.1875 30.90625 
Q 41.609375 37.453125 38.875 40.71875 
Q 34.671875 45.796875 27.984375 45.796875 
Q 21.921875 45.796875 17.796875 41.75 
Q 13.671875 37.703125 13.234375 30.90625 
z
" id="ArialMT-101"/>
      <path d="M 6.5 0 
L 6.5 51.859375 
L 14.40625 51.859375 
L 14.40625 44 
Q 17.4375 49.515625 20 51.265625 
Q 22.5625 53.03125 25.640625 53.03125 
Q 30.078125 53.03125 34.671875 50.203125 
L 31.640625 42.046875 
Q 28.421875 43.953125 25.203125 43.953125 
Q 22.3125 43.953125 20.015625 42.21875 
Q 17.71875 40.484375 16.75 37.40625 
Q 15.28125 32.71875 15.28125 27.15625 
L 15.28125 0 
z
" id="ArialMT-114"/>
      <path id="ArialMT-32"/>
      <path d="M 6.640625 61.46875 
L 6.640625 71.578125 
L 15.4375 71.578125 
L 15.4375 61.46875 
z
M 6.640625 0 
L 6.640625 51.859375 
L 15.4375 51.859375 
L 15.4375 0 
z
" id="ArialMT-105"/>
      <path d="M 40.234375 0 
L 40.234375 6.546875 
Q 35.296875 -1.171875 25.734375 -1.171875 
Q 19.53125 -1.171875 14.328125 2.25 
Q 9.125 5.671875 6.265625 11.796875 
Q 3.421875 17.921875 3.421875 25.875 
Q 3.421875 33.640625 6 39.96875 
Q 8.59375 46.296875 13.765625 49.65625 
Q 18.953125 53.03125 25.34375 53.03125 
Q 30.03125 53.03125 33.6875 51.046875 
Q 37.359375 49.078125 39.65625 45.90625 
L 39.65625 71.578125 
L 48.390625 71.578125 
L 48.390625 0 
z
M 12.453125 25.875 
Q 12.453125 15.921875 16.640625 10.984375 
Q 20.84375 6.0625 26.5625 6.0625 
Q 32.328125 6.0625 36.34375 10.765625 
Q 40.375 15.484375 40.375 25.140625 
Q 40.375 35.796875 36.265625 40.765625 
Q 32.171875 45.75 26.171875 45.75 
Q 20.3125 45.75 16.375 40.96875 
Q 12.453125 36.1875 12.453125 25.875 
z
" id="ArialMT-100"/>
     </defs>
     <g style="fill:#262626;" transform="translate(375.763 529.789)scale(0.16 -0.16)">
      <use xlink:href="#ArialMT-67"/>
      <use x="72.216797" xlink:href="#ArialMT-111"/>
      <use x="127.832031" xlink:href="#ArialMT-117"/>
      <use x="183.447266" xlink:href="#ArialMT-110"/>
      <use x="239.0625" xlink:href="#ArialMT-116"/>
      <use x="266.845703" xlink:href="#ArialMT-101"/>
      <use x="322.460938" xlink:href="#ArialMT-114"/>
      <use x="355.761719" xlink:href="#ArialMT-32"/>
      <use x="383.544922" xlink:href="#ArialMT-105"/>
      <use x="405.761719" xlink:href="#ArialMT-100"/>
     </g>
    </g>
   </g>
   <g id="matplotlib.axis_2">
    <g id="ytick_1">
     <g id="text_7">
      <!-- 0 -->
      <g style="fill:#262626;" transform="translate(46.595 476.361886)scale(0.16 -0.16)">
       <use xlink:href="#ArialMT-48"/>
      </g>
     </g>
    </g>
    <g id="ytick_2">
     <g id="text_8">
      <!-- 100 -->
      <g style="fill:#262626;" transform="translate(28.8 401.043239)scale(0.16 -0.16)">
       <use xlink:href="#ArialMT-49"/>
       <use x="55.615234" xlink:href="#ArialMT-48"/>
       <use x="111.230469" xlink:href="#ArialMT-48"/>
      </g>
     </g>
    </g>
    <g id="ytick_3">
     <g id="text_9">
      <!-- 200 -->
      <g style="fill:#262626;" transform="translate(28.8 325.724592)scale(0.16 -0.16)">
       <use xlink:href="#ArialMT-50"/>
       <use x="55.615234" xlink:href="#ArialMT-48"/>
       <use x="111.230469" xlink:href="#ArialMT-48"/>
      </g>
     </g>
    </g>
    <g id="ytick_4">
     <g id="text_10">
      <!-- 300 -->
      <defs>
       <path d="M 4.203125 18.890625 
L 12.984375 20.0625 
Q 14.5 12.59375 18.140625 9.296875 
Q 21.78125 6 27 6 
Q 33.203125 6 37.46875 10.296875 
Q 41.75 14.59375 41.75 20.953125 
Q 41.75 27 37.796875 30.921875 
Q 33.84375 34.859375 27.734375 34.859375 
Q 25.25 34.859375 21.53125 33.890625 
L 22.515625 41.609375 
Q 23.390625 41.5 23.921875 41.5 
Q 29.546875 41.5 34.03125 44.421875 
Q 38.53125 47.359375 38.53125 53.46875 
Q 38.53125 58.296875 35.25 61.46875 
Q 31.984375 64.65625 26.8125 64.65625 
Q 21.6875 64.65625 18.265625 61.421875 
Q 14.84375 58.203125 13.875 51.765625 
L 5.078125 53.328125 
Q 6.6875 62.15625 12.390625 67.015625 
Q 18.109375 71.875 26.609375 71.875 
Q 32.46875 71.875 37.390625 69.359375 
Q 42.328125 66.84375 44.9375 62.5 
Q 47.5625 58.15625 47.5625 53.265625 
Q 47.5625 48.640625 45.0625 44.828125 
Q 42.578125 41.015625 37.703125 38.765625 
Q 44.046875 37.3125 47.5625 32.6875 
Q 51.078125 28.078125 51.078125 21.140625 
Q 51.078125 11.765625 44.234375 5.25 
Q 37.40625 -1.265625 26.953125 -1.265625 
Q 17.53125 -1.265625 11.296875 4.34375 
Q 5.078125 9.96875 4.203125 18.890625 
z
" id="ArialMT-51"/>
      </defs>
      <g style="fill:#262626;" transform="translate(28.8 250.405945)scale(0.16 -0.16)">
       <use xlink:href="#ArialMT-51"/>
       <use x="55.615234" xlink:href="#ArialMT-48"/>
       <use x="111.230469" xlink:href="#ArialMT-48"/>
      </g>
     </g>
    </g>
    <g id="ytick_5">
     <g id="text_11">
      <!-- 400 -->
      <defs>
       <path d="M 32.328125 0 
L 32.328125 17.140625 
L 1.265625 17.140625 
L 1.265625 25.203125 
L 33.9375 71.578125 
L 41.109375 71.578125 
L 41.109375 25.203125 
L 50.78125 25.203125 
L 50.78125 17.140625 
L 41.109375 17.140625 
L 41.109375 0 
z
M 32.328125 25.203125 
L 32.328125 57.46875 
L 9.90625 25.203125 
z
" id="ArialMT-52"/>
      </defs>
      <g style="fill:#262626;" transform="translate(28.8 175.087297)scale(0.16 -0.16)">
       <use xlink:href="#ArialMT-52"/>
       <use x="55.615234" xlink:href="#ArialMT-48"/>
       <use x="111.230469" xlink:href="#ArialMT-48"/>
      </g>
     </g>
    </g>
    <g id="ytick_6">
     <g id="text_12">
      <!-- 500 -->
      <g style="fill:#262626;" transform="translate(28.8 99.76865)scale(0.16 -0.16)">
       <use xlink:href="#ArialMT-53"/>
       <use x="55.615234" xlink:href="#ArialMT-48"/>
       <use x="111.230469" xlink:href="#ArialMT-48"/>
      </g>
     </g>
    </g>
    <g id="ytick_7">
     <g id="text_13">
      <!-- 600 -->
      <g style="fill:#262626;" transform="translate(28.8 24.450003)scale(0.16 -0.16)">
       <use xlink:href="#ArialMT-54"/>
       <use x="55.615234" xlink:href="#ArialMT-48"/>
       <use x="111.230469" xlink:href="#ArialMT-48"/>
      </g>
     </g>
    </g>
    <g id="text_14">
     <!-- Count [$h^{-1}$] -->
     <defs>
      <path d="M 6.78125 -19.875 
L 6.78125 71.578125 
L 26.171875 71.578125 
L 26.171875 64.3125 
L 15.578125 64.3125 
L 15.578125 -12.59375 
L 26.171875 -12.59375 
L 26.171875 -19.875 
z
" id="ArialMT-91"/>
      <path d="M 55.71875 33.015625 
L 49.3125 0 
L 40.28125 0 
L 46.6875 32.671875 
Q 47.125 34.96875 47.359375 36.71875 
Q 47.609375 38.484375 47.609375 39.5 
Q 47.609375 43.609375 45.015625 45.890625 
Q 42.4375 48.1875 37.796875 48.1875 
Q 30.5625 48.1875 25.265625 43.296875 
Q 19.96875 38.421875 18.40625 30.328125 
L 12.5 0 
L 3.515625 0 
L 18.3125 75.984375 
L 27.296875 75.984375 
L 21.484375 46.09375 
Q 24.90625 50.6875 30.21875 53.34375 
Q 35.546875 56 41.40625 56 
Q 48.640625 56 52.609375 52.09375 
Q 56.59375 48.1875 56.59375 41.109375 
Q 56.59375 39.359375 56.375 37.359375 
Q 56.15625 35.359375 55.71875 33.015625 
z
" id="DejaVuSans-Oblique-104"/>
      <path d="M 10.59375 35.5 
L 73.1875 35.5 
L 73.1875 27.203125 
L 10.59375 27.203125 
z
" id="DejaVuSans-8722"/>
      <path d="M 12.40625 8.296875 
L 28.515625 8.296875 
L 28.515625 63.921875 
L 10.984375 60.40625 
L 10.984375 69.390625 
L 28.421875 72.90625 
L 38.28125 72.90625 
L 38.28125 8.296875 
L 54.390625 8.296875 
L 54.390625 0 
L 12.40625 0 
z
" id="DejaVuSans-49"/>
      <path d="M 21.296875 -19.875 
L 1.90625 -19.875 
L 1.90625 -12.59375 
L 12.5 -12.59375 
L 12.5 64.3125 
L 1.90625 64.3125 
L 1.90625 71.578125 
L 21.296875 71.578125 
z
" id="ArialMT-93"/>
     </defs>
     <g style="fill:#262626;" transform="translate(21.6 292.112)rotate(-90)scale(0.16 -0.16)">
      <use transform="translate(0 0.684375)" xlink:href="#ArialMT-67"/>
      <use transform="translate(72.216797 0.684375)" xlink:href="#ArialMT-111"/>
      <use transform="translate(127.832031 0.684375)" xlink:href="#ArialMT-117"/>
      <use transform="translate(183.447266 0.684375)" xlink:href="#ArialMT-110"/>
      <use transform="translate(239.0625 0.684375)" xlink:href="#ArialMT-116"/>
      <use transform="translate(266.845703 0.684375)" xlink:href="#ArialMT-32"/>
      <use transform="translate(294.628906 0.684375)" xlink:href="#ArialMT-91"/>
      <use transform="translate(322.412109 0.684375)" xlink:href="#DejaVuSans-Oblique-104"/>
      <use transform="translate(393.238724 38.965625)scale(0.7)" xlink:href="#DejaVuSans-8722"/>
      <use transform="translate(451.891068 38.965625)scale(0.7)" xlink:href="#DejaVuSans-49"/>
      <use transform="translate(499.161576 0.684375)" xlink:href="#ArialMT-93"/>
     </g>
    </g>
   </g>
   <g id="PolyCollection_1">
    <defs>
     <path d="M 144.608183 -69.533364 
L 120.448017 -69.533364 
L 118.425197 -73.527534 
L 116.866403 -77.521705 
L 115.884967 -81.515876 
L 115.487773 -85.510046 
L 115.589958 -89.504217 
L 116.053151 -93.498388 
L 116.729642 -97.492558 
L 117.496623 -101.486729 
L 118.27266 -105.4809 
L 119.017287 -109.47507 
L 119.719924 -113.469241 
L 120.385435 -117.463412 
L 121.021773 -121.457583 
L 121.632401 -125.451753 
L 122.213783 -129.445924 
L 122.756784 -133.440095 
L 123.250242 -137.434265 
L 123.684953 -141.428436 
L 124.056637 -145.422607 
L 124.367012 -149.416777 
L 124.622795 -153.410948 
L 124.833239 -157.405119 
L 125.007302 -161.399289 
L 125.15158 -165.39346 
L 125.269686 -169.387631 
L 125.363082 -173.381801 
L 125.432845 -177.375972 
L 125.481546 -181.370143 
L 125.514482 -185.364314 
L 125.539728 -189.358484 
L 125.566897 -193.352655 
L 125.604987 -197.346826 
L 125.660171 -201.340996 
L 125.734466 -205.335167 
L 125.825895 -209.329338 
L 125.929998 -213.323508 
L 126.041918 -217.317679 
L 126.158035 -221.31185 
L 126.276503 -225.30602 
L 126.396719 -229.300191 
L 126.518333 -233.294362 
L 126.640555 -237.288532 
L 126.762186 -241.282703 
L 126.882273 -245.276874 
L 127.000842 -249.271045 
L 127.119068 -253.265215 
L 127.23852 -257.259386 
L 127.359712 -261.253557 
L 127.480647 -265.247727 
L 127.596183 -269.241898 
L 127.698657 -273.236069 
L 127.779595 -277.230239 
L 127.831834 -281.22441 
L 127.851344 -285.218581 
L 127.838348 -289.212751 
L 127.797768 -293.206922 
L 127.739132 -297.201093 
L 127.675966 -301.195263 
L 127.624431 -305.189434 
L 127.601022 -309.183605 
L 127.619524 -313.177775 
L 127.688007 -317.171946 
L 127.806962 -321.166117 
L 127.969452 -325.160288 
L 128.163362 -329.154458 
L 128.374911 -333.148629 
L 128.592071 -337.1428 
L 128.806714 -341.13697 
L 129.015014 -345.131141 
L 129.216436 -349.125312 
L 129.412093 -353.119482 
L 129.603219 -357.113653 
L 129.790186 -361.107824 
L 129.972113 -365.101994 
L 130.146958 -369.096165 
L 130.311922 -373.090336 
L 130.464081 -377.084506 
L 130.601147 -381.078677 
L 130.722203 -385.072848 
L 130.828213 -389.067019 
L 130.922084 -393.061189 
L 131.008208 -397.05536 
L 131.091559 -401.049531 
L 131.176618 -405.043701 
L 131.266439 -409.037872 
L 131.36213 -413.032043 
L 131.462892 -417.026213 
L 131.566542 -421.020384 
L 131.670293 -425.014555 
L 131.771483 -429.008725 
L 131.868036 -433.002896 
L 131.9586 -436.997067 
L 132.042438 -440.991237 
L 132.119234 -444.985408 
L 132.188923 -448.979579 
L 132.251566 -452.973749 
L 132.307266 -456.96792 
L 132.356103 -460.962091 
L 132.398101 -464.956262 
L 132.658099 -464.956262 
L 132.658099 -464.956262 
L 132.700097 -460.962091 
L 132.748934 -456.96792 
L 132.804634 -452.973749 
L 132.867277 -448.979579 
L 132.936966 -444.985408 
L 133.013762 -440.991237 
L 133.0976 -436.997067 
L 133.188164 -433.002896 
L 133.284717 -429.008725 
L 133.385907 -425.014555 
L 133.489658 -421.020384 
L 133.593308 -417.026213 
L 133.69407 -413.032043 
L 133.789761 -409.037872 
L 133.879582 -405.043701 
L 133.964641 -401.049531 
L 134.047992 -397.05536 
L 134.134116 -393.061189 
L 134.227987 -389.067019 
L 134.333997 -385.072848 
L 134.455053 -381.078677 
L 134.592119 -377.084506 
L 134.744278 -373.090336 
L 134.909242 -369.096165 
L 135.084087 -365.101994 
L 135.266014 -361.107824 
L 135.452981 -357.113653 
L 135.644107 -353.119482 
L 135.839764 -349.125312 
L 136.041186 -345.131141 
L 136.249486 -341.13697 
L 136.464129 -337.1428 
L 136.681289 -333.148629 
L 136.892838 -329.154458 
L 137.086748 -325.160288 
L 137.249238 -321.166117 
L 137.368193 -317.171946 
L 137.436676 -313.177775 
L 137.455178 -309.183605 
L 137.431769 -305.189434 
L 137.380234 -301.195263 
L 137.317068 -297.201093 
L 137.258432 -293.206922 
L 137.217852 -289.212751 
L 137.204856 -285.218581 
L 137.224366 -281.22441 
L 137.276605 -277.230239 
L 137.357543 -273.236069 
L 137.460017 -269.241898 
L 137.575553 -265.247727 
L 137.696488 -261.253557 
L 137.81768 -257.259386 
L 137.937132 -253.265215 
L 138.055358 -249.271045 
L 138.173927 -245.276874 
L 138.294014 -241.282703 
L 138.415645 -237.288532 
L 138.537867 -233.294362 
L 138.659481 -229.300191 
L 138.779697 -225.30602 
L 138.898165 -221.31185 
L 139.014282 -217.317679 
L 139.126202 -213.323508 
L 139.230305 -209.329338 
L 139.321734 -205.335167 
L 139.396029 -201.340996 
L 139.451213 -197.346826 
L 139.489303 -193.352655 
L 139.516472 -189.358484 
L 139.541718 -185.364314 
L 139.574654 -181.370143 
L 139.623355 -177.375972 
L 139.693118 -173.381801 
L 139.786514 -169.387631 
L 139.90462 -165.39346 
L 140.048898 -161.399289 
L 140.222961 -157.405119 
L 140.433405 -153.410948 
L 140.689188 -149.416777 
L 140.999563 -145.422607 
L 141.371247 -141.428436 
L 141.805958 -137.434265 
L 142.299416 -133.440095 
L 142.842417 -129.445924 
L 143.423799 -125.451753 
L 144.034427 -121.457583 
L 144.670765 -117.463412 
L 145.336276 -113.469241 
L 146.038913 -109.47507 
L 146.78354 -105.4809 
L 147.559577 -101.486729 
L 148.326558 -97.492558 
L 149.003049 -93.498388 
L 149.466242 -89.504217 
L 149.568427 -85.510046 
L 149.171233 -81.515876 
L 148.189797 -77.521705 
L 146.631003 -73.527534 
L 144.608183 -69.533364 
z
" id="mb24ee2109f" style="stroke:#141414;stroke-width:1.5;"/>
    </defs>
    <g clip-path="url(#p0f6488371d)">
     <use style="fill:#083c1d;stroke:#141414;stroke-width:1.5;" x="0" xlink:href="#mb24ee2109f" y="540.169"/>
    </g>
   </g>
   <g id="PolyCollection_2">
    <defs>
     <path d="M 320.457722 -69.533364 
L 224.740878 -69.533364 
L 219.52198 -71.412526 
L 218.037996 -73.291688 
L 220.031222 -75.17085 
L 224.417379 -77.050012 
L 229.794465 -78.929175 
L 234.958793 -80.808337 
L 239.195627 -82.687499 
L 242.296721 -84.566661 
L 244.404196 -86.445824 
L 245.815417 -88.324986 
L 246.835593 -90.204148 
L 247.700378 -92.08331 
L 248.552226 -93.962472 
L 249.446363 -95.841635 
L 250.370485 -97.720797 
L 251.271773 -99.599959 
L 252.088104 -101.479121 
L 252.777521 -103.358283 
L 253.336375 -105.237446 
L 253.798036 -107.116608 
L 254.212561 -108.99577 
L 254.618546 -110.874932 
L 255.023733 -112.754094 
L 255.405825 -114.633257 
L 255.73201 -116.512419 
L 255.983768 -118.391581 
L 256.171119 -120.270743 
L 256.328846 -122.149905 
L 256.499547 -124.029068 
L 256.715751 -125.90823 
L 256.991504 -127.787392 
L 257.325819 -129.666554 
L 257.712547 -131.545717 
L 258.148362 -133.424879 
L 258.633335 -135.304041 
L 259.164436 -137.183203 
L 259.727586 -139.062365 
L 260.295301 -140.941528 
L 260.833441 -142.82069 
L 261.313972 -144.699852 
L 261.725887 -146.579014 
L 262.07729 -148.458176 
L 262.387891 -150.337339 
L 262.677781 -152.216501 
L 262.960018 -154.095663 
L 263.240341 -155.974825 
L 263.521322 -157.853987 
L 263.805678 -159.73315 
L 264.095924 -161.612312 
L 264.391993 -163.491474 
L 264.690519 -165.370636 
L 264.987433 -167.249798 
L 265.28177 -169.128961 
L 265.577069 -171.008123 
L 265.879005 -172.887285 
L 266.191427 -174.766447 
L 266.51424 -176.64561 
L 266.844409 -178.524772 
L 267.178546 -180.403934 
L 267.514659 -182.283096 
L 267.851985 -184.162258 
L 268.189562 -186.041421 
L 268.524719 -187.920583 
L 268.852427 -189.799745 
L 269.165911 -191.678907 
L 269.458374 -193.558069 
L 269.724972 -195.437232 
L 269.963956 -197.316394 
L 270.176419 -199.195556 
L 270.36509 -201.074718 
L 270.53303 -202.95388 
L 270.682628 -204.833043 
L 270.81481 -206.712205 
L 270.928531 -208.591367 
L 271.021128 -210.470529 
L 271.090007 -212.349691 
L 271.135136 -214.228854 
L 271.160911 -216.108016 
L 271.176084 -217.987178 
L 271.191563 -219.86634 
L 271.217101 -221.745503 
L 271.258385 -223.624665 
L 271.315725 -225.503827 
L 271.384761 -227.382989 
L 271.458683 -229.262151 
L 271.530783 -231.141314 
L 271.596175 -233.020476 
L 271.652325 -234.899638 
L 271.698874 -236.7788 
L 271.737379 -238.657962 
L 271.771096 -240.537125 
L 271.804426 -242.416287 
L 271.841893 -244.295449 
L 271.887088 -246.174611 
L 271.942128 -248.053773 
L 272.007726 -249.932936 
L 272.083339 -251.812098 
L 272.166917 -253.69126 
L 272.254459 -255.570422 
L 272.944141 -255.570422 
L 272.944141 -255.570422 
L 273.031683 -253.69126 
L 273.115261 -251.812098 
L 273.190874 -249.932936 
L 273.256472 -248.053773 
L 273.311512 -246.174611 
L 273.356707 -244.295449 
L 273.394174 -242.416287 
L 273.427504 -240.537125 
L 273.461221 -238.657962 
L 273.499726 -236.7788 
L 273.546275 -234.899638 
L 273.602425 -233.020476 
L 273.667817 -231.141314 
L 273.739917 -229.262151 
L 273.813839 -227.382989 
L 273.882875 -225.503827 
L 273.940215 -223.624665 
L 273.981499 -221.745503 
L 274.007037 -219.86634 
L 274.022516 -217.987178 
L 274.037689 -216.108016 
L 274.063464 -214.228854 
L 274.108593 -212.349691 
L 274.177472 -210.470529 
L 274.270069 -208.591367 
L 274.38379 -206.712205 
L 274.515972 -204.833043 
L 274.66557 -202.95388 
L 274.83351 -201.074718 
L 275.022181 -199.195556 
L 275.234644 -197.316394 
L 275.473628 -195.437232 
L 275.740226 -193.558069 
L 276.032689 -191.678907 
L 276.346173 -189.799745 
L 276.673881 -187.920583 
L 277.009038 -186.041421 
L 277.346615 -184.162258 
L 277.683941 -182.283096 
L 278.020054 -180.403934 
L 278.354191 -178.524772 
L 278.68436 -176.64561 
L 279.007173 -174.766447 
L 279.319595 -172.887285 
L 279.621531 -171.008123 
L 279.91683 -169.128961 
L 280.211167 -167.249798 
L 280.508081 -165.370636 
L 280.806607 -163.491474 
L 281.102676 -161.612312 
L 281.392922 -159.73315 
L 281.677278 -157.853987 
L 281.958259 -155.974825 
L 282.238582 -154.095663 
L 282.520819 -152.216501 
L 282.810709 -150.337339 
L 283.12131 -148.458176 
L 283.472713 -146.579014 
L 283.884628 -144.699852 
L 284.365159 -142.82069 
L 284.903299 -140.941528 
L 285.471014 -139.062365 
L 286.034164 -137.183203 
L 286.565265 -135.304041 
L 287.050238 -133.424879 
L 287.486053 -131.545717 
L 287.872781 -129.666554 
L 288.207096 -127.787392 
L 288.482849 -125.90823 
L 288.699053 -124.029068 
L 288.869754 -122.149905 
L 289.027481 -120.270743 
L 289.214832 -118.391581 
L 289.46659 -116.512419 
L 289.792775 -114.633257 
L 290.174867 -112.754094 
L 290.580054 -110.874932 
L 290.986039 -108.99577 
L 291.400564 -107.116608 
L 291.862225 -105.237446 
L 292.421079 -103.358283 
L 293.110496 -101.479121 
L 293.926827 -99.599959 
L 294.828115 -97.720797 
L 295.752237 -95.841635 
L 296.646374 -93.962472 
L 297.498222 -92.08331 
L 298.363007 -90.204148 
L 299.383183 -88.324986 
L 300.794404 -86.445824 
L 302.901879 -84.566661 
L 306.002973 -82.687499 
L 310.239807 -80.808337 
L 315.404135 -78.929175 
L 320.781221 -77.050012 
L 325.167378 -75.17085 
L 327.160604 -73.291688 
L 325.67662 -71.412526 
L 320.457722 -69.533364 
z
" id="m96dc9ae9b9" style="stroke:#141414;stroke-width:1.5;"/>
    </defs>
    <g clip-path="url(#p0f6488371d)">
     <use style="fill:#0e5f2f;stroke:#141414;stroke-width:1.5;" x="0" xlink:href="#m96dc9ae9b9" y="540.169"/>
    </g>
   </g>
   <g id="PolyCollection_3">
    <defs>
     <path d="M 458.594181 -69.533364 
L 366.746819 -69.533364 
L 360.434686 -71.245151 
L 357.02122 -72.956939 
L 356.64202 -74.668726 
L 358.77749 -76.380513 
L 362.524733 -78.092301 
L 366.93598 -79.804088 
L 371.268078 -81.515876 
L 375.07839 -83.227663 
L 378.194801 -84.939451 
L 380.627738 -86.651238 
L 382.481372 -88.363025 
L 383.890725 -90.074813 
L 384.987166 -91.7866 
L 385.884327 -93.498388 
L 386.67517 -95.210175 
L 387.432879 -96.921963 
L 388.210712 -98.63375 
L 389.038816 -100.345538 
L 389.919514 -102.057325 
L 390.825678 -103.769112 
L 391.707223 -105.4809 
L 392.507075 -107.192687 
L 393.181816 -108.904475 
L 393.717735 -110.616262 
L 394.133992 -112.32805 
L 394.471358 -114.039837 
L 394.773167 -115.751624 
L 395.069274 -117.463412 
L 395.371034 -119.175199 
L 395.677892 -120.886987 
L 395.989292 -122.598774 
L 396.313521 -124.310562 
L 396.66841 -126.022349 
L 397.074574 -127.734136 
L 397.546296 -129.445924 
L 398.085678 -131.157711 
L 398.682659 -132.869499 
L 399.319422 -134.581286 
L 399.975795 -136.293074 
L 400.63321 -138.004861 
L 401.276823 -139.716649 
L 401.89626 -141.428436 
L 402.484952 -143.140223 
L 403.037943 -144.852011 
L 403.549343 -146.563798 
L 404.011796 -148.275586 
L 404.41927 -149.987373 
L 404.771703 -151.699161 
L 405.07799 -153.410948 
L 405.354774 -155.122735 
L 405.621498 -156.834523 
L 405.89454 -158.54631 
L 406.183226 -160.258098 
L 406.488691 -161.969885 
L 406.804914 -163.681673 
L 407.120894 -165.39346 
L 407.423493 -167.105248 
L 407.700698 -168.817035 
L 407.944578 -170.528822 
L 408.152752 -172.24061 
L 408.327657 -173.952397 
L 408.474222 -175.664185 
L 408.597566 -177.375972 
L 408.701987 -179.08776 
L 408.791262 -180.799547 
L 408.869297 -182.511334 
L 408.94041 -184.223122 
L 409.009363 -185.934909 
L 409.081528 -187.646697 
L 409.162933 -189.358484 
L 409.259449 -191.070272 
L 409.374907 -192.782059 
L 409.50912 -194.493847 
L 409.657228 -196.205634 
L 409.810949 -197.917421 
L 409.96103 -199.629209 
L 410.099668 -201.340996 
L 410.222126 -203.052784 
L 410.327356 -204.764571 
L 410.417657 -206.476359 
L 410.497372 -208.188146 
L 410.570929 -209.899933 
L 410.640944 -211.611721 
L 410.707279 -213.323508 
L 410.767502 -215.035296 
L 410.81851 -216.747083 
L 410.858494 -218.458871 
L 410.888358 -220.170658 
L 410.91203 -221.882446 
L 410.935682 -223.594233 
L 410.966388 -225.30602 
L 411.010902 -227.017808 
L 411.07497 -228.729595 
L 411.16312 -230.441383 
L 411.278408 -232.15317 
L 411.421623 -233.864958 
L 411.589942 -235.576745 
L 411.775802 -237.288532 
L 411.967083 -239.00032 
L 413.373917 -239.00032 
L 413.373917 -239.00032 
L 413.565198 -237.288532 
L 413.751058 -235.576745 
L 413.919377 -233.864958 
L 414.062592 -232.15317 
L 414.17788 -230.441383 
L 414.26603 -228.729595 
L 414.330098 -227.017808 
L 414.374612 -225.30602 
L 414.405318 -223.594233 
L 414.42897 -221.882446 
L 414.452642 -220.170658 
L 414.482506 -218.458871 
L 414.52249 -216.747083 
L 414.573498 -215.035296 
L 414.633721 -213.323508 
L 414.700056 -211.611721 
L 414.770071 -209.899933 
L 414.843628 -208.188146 
L 414.923343 -206.476359 
L 415.013644 -204.764571 
L 415.118874 -203.052784 
L 415.241332 -201.340996 
L 415.37997 -199.629209 
L 415.530051 -197.917421 
L 415.683772 -196.205634 
L 415.83188 -194.493847 
L 415.966093 -192.782059 
L 416.081551 -191.070272 
L 416.178067 -189.358484 
L 416.259472 -187.646697 
L 416.331637 -185.934909 
L 416.40059 -184.223122 
L 416.471703 -182.511334 
L 416.549738 -180.799547 
L 416.639013 -179.08776 
L 416.743434 -177.375972 
L 416.866778 -175.664185 
L 417.013343 -173.952397 
L 417.188248 -172.24061 
L 417.396422 -170.528822 
L 417.640302 -168.817035 
L 417.917507 -167.105248 
L 418.220106 -165.39346 
L 418.536086 -163.681673 
L 418.852309 -161.969885 
L 419.157774 -160.258098 
L 419.44646 -158.54631 
L 419.719502 -156.834523 
L 419.986226 -155.122735 
L 420.26301 -153.410948 
L 420.569297 -151.699161 
L 420.92173 -149.987373 
L 421.329204 -148.275586 
L 421.791657 -146.563798 
L 422.303057 -144.852011 
L 422.856048 -143.140223 
L 423.44474 -141.428436 
L 424.064177 -139.716649 
L 424.70779 -138.004861 
L 425.365205 -136.293074 
L 426.021578 -134.581286 
L 426.658341 -132.869499 
L 427.255322 -131.157711 
L 427.794704 -129.445924 
L 428.266426 -127.734136 
L 428.67259 -126.022349 
L 429.027479 -124.310562 
L 429.351708 -122.598774 
L 429.663108 -120.886987 
L 429.969966 -119.175199 
L 430.271726 -117.463412 
L 430.567833 -115.751624 
L 430.869642 -114.039837 
L 431.207008 -112.32805 
L 431.623265 -110.616262 
L 432.159184 -108.904475 
L 432.833925 -107.192687 
L 433.633777 -105.4809 
L 434.515322 -103.769112 
L 435.421486 -102.057325 
L 436.302184 -100.345538 
L 437.130288 -98.63375 
L 437.908121 -96.921963 
L 438.66583 -95.210175 
L 439.456673 -93.498388 
L 440.353834 -91.7866 
L 441.450275 -90.074813 
L 442.859628 -88.363025 
L 444.713262 -86.651238 
L 447.146199 -84.939451 
L 450.26261 -83.227663 
L 454.072922 -81.515876 
L 458.40502 -79.804088 
L 462.816267 -78.092301 
L 466.56351 -76.380513 
L 468.69898 -74.668726 
L 468.31978 -72.956939 
L 464.906314 -71.245151 
L 458.594181 -69.533364 
z
" id="m6b3826b8c7" style="stroke:#141414;stroke-width:1.5;"/>
    </defs>
    <g clip-path="url(#p0f6488371d)">
     <use style="fill:#307e4a;stroke:#141414;stroke-width:1.5;" x="0" xlink:href="#m6b3826b8c7" y="540.169"/>
    </g>
   </g>
   <g id="PolyCollection_4">
    <defs>
     <path d="M 567.410527 -69.533364 
L 538.072873 -69.533364 
L 536.667513 -73.961187 
L 536.139649 -78.389011 
L 536.499445 -82.816834 
L 537.588282 -87.244658 
L 539.137215 -91.672481 
L 540.849405 -96.100305 
L 542.472848 -100.528128 
L 543.841207 -104.955952 
L 544.879379 -109.383775 
L 545.585046 -113.811599 
L 546.00188 -118.239422 
L 546.195795 -122.667246 
L 546.2385 -127.095069 
L 546.197324 -131.522893 
L 546.128847 -135.950716 
L 546.07481 -140.37854 
L 546.060341 -144.806363 
L 546.095016 -149.234187 
L 546.17668 -153.66201 
L 546.29681 -158.089834 
L 546.445482 -162.517657 
L 546.614242 -166.945481 
L 546.796274 -171.373304 
L 546.984571 -175.801128 
L 547.169691 -180.228951 
L 547.338638 -184.656775 
L 547.47565 -189.084598 
L 547.564698 -193.512422 
L 547.592755 -197.940245 
L 547.552658 -202.368069 
L 547.444587 -206.795892 
L 547.275764 -211.223716 
L 547.0586 -215.651539 
L 546.808109 -220.079363 
L 546.539576 -224.507186 
L 546.267188 -228.93501 
L 546.003736 -233.362833 
L 545.760923 -237.790657 
L 545.549617 -242.21848 
L 545.379631 -246.646304 
L 545.259053 -251.074127 
L 545.193444 -255.501951 
L 545.185263 -259.929774 
L 545.233711 -264.357598 
L 545.334891 -268.785421 
L 545.48213 -273.213245 
L 545.666272 -277.641068 
L 545.875922 -282.068892 
L 546.097764 -286.496715 
L 546.317168 -290.924539 
L 546.519336 -295.352362 
L 546.691101 -299.780186 
L 546.823249 -304.208009 
L 546.912825 -308.635833 
L 546.964609 -313.063656 
L 546.991 -317.49148 
L 547.010014 -321.919303 
L 547.041814 -326.347127 
L 547.104737 -330.77495 
L 547.211903 -335.202774 
L 547.36919 -339.630597 
L 547.574892 -344.058421 
L 547.820926 -348.486244 
L 548.095143 -352.914068 
L 548.384081 -357.341891 
L 548.675473 -361.769715 
L 548.959968 -366.197538 
L 549.231853 -370.625362 
L 549.488902 -375.053185 
L 549.731677 -379.481009 
L 549.962573 -383.908832 
L 550.184812 -388.336656 
L 550.401488 -392.764479 
L 550.614765 -397.192303 
L 550.825356 -401.620126 
L 551.032403 -406.04795 
L 551.233741 -410.475773 
L 551.426439 -414.903597 
L 551.607403 -419.33142 
L 551.773877 -423.759244 
L 551.923747 -428.187067 
L 552.055692 -432.614891 
L 552.169208 -437.042714 
L 552.26462 -441.470538 
L 552.343046 -445.898361 
L 552.406331 -450.326185 
L 552.456859 -454.754008 
L 552.497262 -459.181832 
L 552.53007 -463.609655 
L 552.557399 -468.037479 
L 552.580784 -472.465302 
L 552.601196 -476.893126 
L 552.61921 -481.320949 
L 552.635211 -485.748773 
L 552.649558 -490.176596 
L 552.662633 -494.60442 
L 552.674796 -499.032243 
L 552.686279 -503.460067 
L 552.697117 -507.88789 
L 552.786283 -507.88789 
L 552.786283 -507.88789 
L 552.797121 -503.460067 
L 552.808604 -499.032243 
L 552.820767 -494.60442 
L 552.833842 -490.176596 
L 552.848189 -485.748773 
L 552.86419 -481.320949 
L 552.882204 -476.893126 
L 552.902616 -472.465302 
L 552.926001 -468.037479 
L 552.95333 -463.609655 
L 552.986138 -459.181832 
L 553.026541 -454.754008 
L 553.077069 -450.326185 
L 553.140354 -445.898361 
L 553.21878 -441.470538 
L 553.314192 -437.042714 
L 553.427708 -432.614891 
L 553.559653 -428.187067 
L 553.709523 -423.759244 
L 553.875997 -419.33142 
L 554.056961 -414.903597 
L 554.249659 -410.475773 
L 554.450997 -406.04795 
L 554.658044 -401.620126 
L 554.868635 -397.192303 
L 555.081912 -392.764479 
L 555.298588 -388.336656 
L 555.520827 -383.908832 
L 555.751723 -379.481009 
L 555.994498 -375.053185 
L 556.251547 -370.625362 
L 556.523432 -366.197538 
L 556.807927 -361.769715 
L 557.099319 -357.341891 
L 557.388257 -352.914068 
L 557.662474 -348.486244 
L 557.908508 -344.058421 
L 558.11421 -339.630597 
L 558.271497 -335.202774 
L 558.378663 -330.77495 
L 558.441586 -326.347127 
L 558.473386 -321.919303 
L 558.4924 -317.49148 
L 558.518791 -313.063656 
L 558.570575 -308.635833 
L 558.660151 -304.208009 
L 558.792299 -299.780186 
L 558.964064 -295.352362 
L 559.166232 -290.924539 
L 559.385636 -286.496715 
L 559.607478 -282.068892 
L 559.817128 -277.641068 
L 560.00127 -273.213245 
L 560.148509 -268.785421 
L 560.249689 -264.357598 
L 560.298137 -259.929774 
L 560.289956 -255.501951 
L 560.224347 -251.074127 
L 560.103769 -246.646304 
L 559.933783 -242.21848 
L 559.722477 -237.790657 
L 559.479664 -233.362833 
L 559.216212 -228.93501 
L 558.943824 -224.507186 
L 558.675291 -220.079363 
L 558.4248 -215.651539 
L 558.207636 -211.223716 
L 558.038813 -206.795892 
L 557.930742 -202.368069 
L 557.890645 -197.940245 
L 557.918702 -193.512422 
L 558.00775 -189.084598 
L 558.144762 -184.656775 
L 558.313709 -180.228951 
L 558.498829 -175.801128 
L 558.687126 -171.373304 
L 558.869158 -166.945481 
L 559.037918 -162.517657 
L 559.18659 -158.089834 
L 559.30672 -153.66201 
L 559.388384 -149.234187 
L 559.423059 -144.806363 
L 559.40859 -140.37854 
L 559.354553 -135.950716 
L 559.286076 -131.522893 
L 559.2449 -127.095069 
L 559.287605 -122.667246 
L 559.48152 -118.239422 
L 559.898354 -113.811599 
L 560.604021 -109.383775 
L 561.642193 -104.955952 
L 563.010552 -100.528128 
L 564.633995 -96.100305 
L 566.346185 -91.672481 
L 567.895118 -87.244658 
L 568.983955 -82.816834 
L 569.343751 -78.389011 
L 568.815887 -73.961187 
L 567.410527 -69.533364 
z
" id="m6e3f3dc878" style="stroke:#141414;stroke-width:1.5;"/>
    </defs>
    <g clip-path="url(#p0f6488371d)">
     <use style="fill:#4fa076;stroke:#141414;stroke-width:1.5;" x="0" xlink:href="#m6e3f3dc878" y="540.169"/>
    </g>
   </g>
   <g id="PolyCollection_5">
    <defs>
     <path d="M 706.99491 -69.533364 
L 678.63089 -69.533364 
L 677.065398 -73.991619 
L 676.30945 -78.449874 
L 676.40595 -82.908129 
L 677.241374 -87.366385 
L 678.594632 -91.82464 
L 680.20867 -96.282895 
L 681.854324 -100.741151 
L 683.366807 -105.199406 
L 684.652452 -109.657661 
L 685.675862 -114.115916 
L 686.44064 -118.574172 
L 686.972552 -123.032427 
L 687.307888 -127.490682 
L 687.486063 -131.948938 
L 687.544729 -136.407193 
L 687.516599 -140.865448 
L 687.427994 -145.323703 
L 687.299153 -149.781959 
L 687.145873 -154.240214 
L 686.981464 -158.698469 
L 686.817974 -163.156725 
L 686.666089 -167.61498 
L 686.533916 -172.073235 
L 686.425563 -176.53149 
L 686.3406 -180.989746 
L 686.274965 -185.448001 
L 686.223035 -189.906256 
L 686.1799 -194.364511 
L 686.142832 -198.822767 
L 686.111487 -203.281022 
L 686.087071 -207.739277 
L 686.071058 -212.197533 
L 686.063987 -216.655788 
L 686.064568 -221.114043 
L 686.069198 -225.572298 
L 686.072031 -230.030554 
L 686.065815 -234.488809 
L 686.043516 -238.947064 
L 686.000352 -243.40532 
L 685.935529 -247.863575 
L 685.852905 -252.32183 
L 685.760261 -256.780085 
L 685.66747 -261.238341 
L 685.584386 -265.696596 
L 685.51938 -270.154851 
L 685.47904 -274.613107 
L 685.468825 -279.071362 
L 685.493926 -283.529617 
L 685.559503 -287.987872 
L 685.669965 -292.446128 
L 685.827615 -296.904383 
L 686.031419 -301.362638 
L 686.276547 -305.820893 
L 686.554846 -310.279149 
L 686.855991 -314.737404 
L 687.168839 -319.195659 
L 687.482713 -323.653915 
L 687.788493 -328.11217 
L 688.079474 -332.570425 
L 688.351851 -337.02868 
L 688.604662 -341.486936 
L 688.839126 -345.945191 
L 689.057581 -350.403446 
L 689.262456 -354.861702 
L 689.455682 -359.319957 
L 689.638747 -363.778212 
L 689.813166 -368.236467 
L 689.980944 -372.694723 
L 690.144559 -377.152978 
L 690.306365 -381.611233 
L 690.467685 -386.069489 
L 690.628145 -390.527744 
L 690.785709 -394.985999 
L 690.937439 -399.444254 
L 691.080601 -403.90251 
L 691.213526 -408.360765 
L 691.335869 -412.81902 
L 691.448293 -417.277275 
L 691.55193 -421.735531 
L 691.64798 -426.193786 
L 691.737598 -430.652041 
L 691.821984 -435.110297 
L 691.902423 -439.568552 
L 691.980171 -444.026807 
L 692.05617 -448.485062 
L 692.130763 -452.943318 
L 692.20357 -457.401573 
L 692.273625 -461.859828 
L 692.339715 -466.318084 
L 692.400771 -470.776339 
L 692.456146 -475.234594 
L 692.505703 -479.692849 
L 692.54974 -484.151105 
L 692.588849 -488.60936 
L 692.623763 -493.067615 
L 692.65521 -497.525871 
L 692.683762 -501.984126 
L 692.709713 -506.442381 
L 692.733036 -510.900636 
L 692.892764 -510.900636 
L 692.892764 -510.900636 
L 692.916087 -506.442381 
L 692.942038 -501.984126 
L 692.97059 -497.525871 
L 693.002037 -493.067615 
L 693.036951 -488.60936 
L 693.07606 -484.151105 
L 693.120097 -479.692849 
L 693.169654 -475.234594 
L 693.225029 -470.776339 
L 693.286085 -466.318084 
L 693.352175 -461.859828 
L 693.42223 -457.401573 
L 693.495037 -452.943318 
L 693.56963 -448.485062 
L 693.645629 -444.026807 
L 693.723377 -439.568552 
L 693.803816 -435.110297 
L 693.888202 -430.652041 
L 693.97782 -426.193786 
L 694.07387 -421.735531 
L 694.177507 -417.277275 
L 694.289931 -412.81902 
L 694.412274 -408.360765 
L 694.545199 -403.90251 
L 694.688361 -399.444254 
L 694.840091 -394.985999 
L 694.997655 -390.527744 
L 695.158115 -386.069489 
L 695.319435 -381.611233 
L 695.481241 -377.152978 
L 695.644856 -372.694723 
L 695.812634 -368.236467 
L 695.987053 -363.778212 
L 696.170118 -359.319957 
L 696.363344 -354.861702 
L 696.568219 -350.403446 
L 696.786674 -345.945191 
L 697.021138 -341.486936 
L 697.273949 -337.02868 
L 697.546326 -332.570425 
L 697.837307 -328.11217 
L 698.143087 -323.653915 
L 698.456961 -319.195659 
L 698.769809 -314.737404 
L 699.070954 -310.279149 
L 699.349253 -305.820893 
L 699.594381 -301.362638 
L 699.798185 -296.904383 
L 699.955835 -292.446128 
L 700.066297 -287.987872 
L 700.131874 -283.529617 
L 700.156975 -279.071362 
L 700.14676 -274.613107 
L 700.10642 -270.154851 
L 700.041414 -265.696596 
L 699.95833 -261.238341 
L 699.865539 -256.780085 
L 699.772895 -252.32183 
L 699.690271 -247.863575 
L 699.625448 -243.40532 
L 699.582284 -238.947064 
L 699.559985 -234.488809 
L 699.553769 -230.030554 
L 699.556602 -225.572298 
L 699.561232 -221.114043 
L 699.561813 -216.655788 
L 699.554742 -212.197533 
L 699.538729 -207.739277 
L 699.514313 -203.281022 
L 699.482968 -198.822767 
L 699.4459 -194.364511 
L 699.402765 -189.906256 
L 699.350835 -185.448001 
L 699.2852 -180.989746 
L 699.200237 -176.53149 
L 699.091884 -172.073235 
L 698.959711 -167.61498 
L 698.807826 -163.156725 
L 698.644336 -158.698469 
L 698.479927 -154.240214 
L 698.326647 -149.781959 
L 698.197806 -145.323703 
L 698.109201 -140.865448 
L 698.081071 -136.407193 
L 698.139737 -131.948938 
L 698.317912 -127.490682 
L 698.653248 -123.032427 
L 699.18516 -118.574172 
L 699.949938 -114.115916 
L 700.973348 -109.657661 
L 702.258993 -105.199406 
L 703.771476 -100.741151 
L 705.41713 -96.282895 
L 707.031168 -91.82464 
L 708.384426 -87.366385 
L 709.21985 -82.908129 
L 709.31635 -78.449874 
L 708.560402 -73.991619 
L 706.99491 -69.533364 
z
" id="me784a1e09b" style="stroke:#141414;stroke-width:1.5;"/>
    </defs>
    <g clip-path="url(#p0f6488371d)">
     <use style="fill:#72b6a0;stroke:#141414;stroke-width:1.5;" x="0" xlink:href="#me784a1e09b" y="540.169"/>
    </g>
   </g>
   <g id="line2d_1">
    <path clip-path="url(#p0f6488371d)" d="M 132.5281 470.635636 
L 132.5281 75.212738 
" style="fill:none;stroke:#141414;stroke-linecap:round;stroke-width:1.5;"/>
   </g>
   <g id="line2d_2">
    <path clip-path="url(#p0f6488371d)" d="M 132.5281 442.01455 
L 132.5281 290.62407 
" style="fill:none;stroke:#141414;stroke-linecap:round;stroke-width:4.5;"/>
   </g>
   <g id="line2d_3">
    <path clip-path="url(#p0f6488371d)" d="M 272.5993 470.635636 
L 272.5993 326.023834 
" style="fill:none;stroke:#141414;stroke-linecap:round;stroke-width:1.5;"/>
   </g>
   <g id="line2d_4">
    <path clip-path="url(#p0f6488371d)" d="M 272.5993 465.363331 
L 272.5993 409.627532 
" style="fill:none;stroke:#141414;stroke-linecap:round;stroke-width:4.5;"/>
   </g>
   <g id="line2d_5">
    <path clip-path="url(#p0f6488371d)" d="M 412.6705 470.635636 
L 412.6705 342.593936 
" style="fill:none;stroke:#141414;stroke-linecap:round;stroke-width:1.5;"/>
   </g>
   <g id="line2d_6">
    <path clip-path="url(#p0f6488371d)" d="M 412.6705 464.610145 
L 412.6705 415.653024 
" style="fill:none;stroke:#141414;stroke-linecap:round;stroke-width:4.5;"/>
   </g>
   <g id="line2d_7">
    <path clip-path="url(#p0f6488371d)" d="M 552.7417 470.635636 
L 552.7417 32.28111 
" style="fill:none;stroke:#141414;stroke-linecap:round;stroke-width:1.5;"/>
   </g>
   <g id="line2d_8">
    <path clip-path="url(#p0f6488371d)" d="M 552.7417 451.052788 
L 552.7417 259.743424 
" style="fill:none;stroke:#141414;stroke-linecap:round;stroke-width:4.5;"/>
   </g>
   <g id="line2d_9">
    <path clip-path="url(#p0f6488371d)" d="M 692.8129 470.635636 
L 692.8129 29.268364 
" style="fill:none;stroke:#141414;stroke-linecap:round;stroke-width:1.5;"/>
   </g>
   <g id="line2d_10">
    <path clip-path="url(#p0f6488371d)" d="M 692.8129 448.793229 
L 692.8129 259.743424 
" style="fill:none;stroke:#141414;stroke-linecap:round;stroke-width:4.5;"/>
   </g>
   <g id="patch_3">
    <path d="M 62.4925 492.704 
L 62.4925 7.2 
" style="fill:none;stroke:#262626;stroke-linecap:square;stroke-linejoin:miter;stroke-width:0.8;"/>
   </g>
   <g id="patch_4">
    <path d="M 62.4925 492.704 
L 762.8485 492.704 
" style="fill:none;stroke:#262626;stroke-linecap:square;stroke-linejoin:miter;stroke-width:0.8;"/>
   </g>
   <g id="PathCollection_1">
    <defs>
     <path d="M 0 1.5 
C 0.397805 1.5 0.77937 1.341951 1.06066 1.06066 
C 1.341951 0.77937 1.5 0.397805 1.5 0 
C 1.5 -0.397805 1.341951 -0.77937 1.06066 -1.06066 
C 0.77937 -1.341951 0.397805 -1.5 0 -1.5 
C -0.397805 -1.5 -0.77937 -1.341951 -1.06066 -1.06066 
C -1.341951 -0.77937 -1.5 -0.397805 -1.5 0 
C -1.5 0.397805 -1.341951 0.77937 -1.06066 1.06066 
C -0.77937 1.341951 -0.397805 1.5 0 1.5 
z
" id="m37092d80ea" style="stroke:#141414;"/>
    </defs>
    <g clip-path="url(#p0f6488371d)">
     <use style="fill:#ffffff;stroke:#141414;" x="132.5281" xlink:href="#m37092d80ea" y="383.266006"/>
    </g>
   </g>
   <g id="PathCollection_2">
    <g clip-path="url(#p0f6488371d)">
     <use style="fill:#ffffff;stroke:#141414;" x="272.5993" xlink:href="#m37092d80ea" y="444.27411"/>
    </g>
   </g>
   <g id="PathCollection_3">
    <g clip-path="url(#p0f6488371d)">
     <use style="fill:#ffffff;stroke:#141414;" x="412.6705" xlink:href="#m37092d80ea" y="446.533669"/>
    </g>
   </g>
   <g id="PathCollection_4">
    <g clip-path="url(#p0f6488371d)">
     <use style="fill:#ffffff;stroke:#141414;" x="552.7417" xlink:href="#m37092d80ea" y="356.151293"/>
    </g>
   </g>
   <g id="PathCollection_5">
    <g clip-path="url(#p0f6488371d)">
     <use style="fill:#ffffff;stroke:#141414;" x="692.8129" xlink:href="#m37092d80ea" y="349.372614"/>
    </g>
   </g>
  </g>
 </g>
 <defs>
  <clipPath id="p0f6488371d">
   <rect height="485.504" width="700.356" x="62.4925" y="7.2"/>
  </clipPath>
 </defs>
</svg>
