<?xml version="1.0" encoding="utf-8" standalone="no"?>
<!DOCTYPE svg PUBLIC "-//W3C//DTD SVG 1.1//EN"
  "http://www.w3.org/Graphics/SVG/1.1/DTD/svg11.dtd">
<!-- Created with matplotlib (https://matplotlib.org/) -->
<svg height="540.169pt" version="1.1" viewBox="0 0 803.5205 540.169" width="803.5205pt" xmlns="http://www.w3.org/2000/svg" xmlns:xlink="http://www.w3.org/1999/xlink">
 <defs>
  <style type="text/css">
*{stroke-linecap:butt;stroke-linejoin:round;white-space:pre;}
  </style>
 </defs>
 <g id="figure_1">
  <g id="patch_1">
   <path d="M 0 540.169 
L 803.5205 540.169 
L 803.5205 0 
L 0 0 
z
" style="fill:#ffffff;"/>
  </g>
  <g id="axes_1">
   <g id="patch_2">
    <path d="M 62.4925 492.704 
L 650.972863 492.704 
L 650.972863 7.2 
L 62.4925 7.2 
z
" style="fill:#ffffff;"/>
   </g>
   <g id="matplotlib.axis_1">
    <g id="xtick_1">
     <g id="text_1">
      <!-- 1056-186-1 -->
      <defs>
       <path d="M 37.25 0 
L 28.46875 0 
L 28.46875 56 
Q 25.296875 52.984375 20.140625 49.953125 
Q 14.984375 46.921875 10.890625 45.40625 
L 10.890625 53.90625 
Q 18.265625 57.375 23.78125 62.296875 
Q 29.296875 67.234375 31.59375 71.875 
L 37.25 71.875 
z
" id="ArialMT-49"/>
       <path d="M 4.15625 35.296875 
Q 4.15625 48 6.765625 55.734375 
Q 9.375 63.484375 14.515625 67.671875 
Q 19.671875 71.875 27.484375 71.875 
Q 33.25 71.875 37.59375 69.546875 
Q 41.9375 67.234375 44.765625 62.859375 
Q 47.609375 58.5 49.21875 52.21875 
Q 50.828125 45.953125 50.828125 35.296875 
Q 50.828125 22.703125 48.234375 14.96875 
Q 45.65625 7.234375 40.5 3 
Q 35.359375 -1.21875 27.484375 -1.21875 
Q 17.140625 -1.21875 11.234375 6.203125 
Q 4.15625 15.140625 4.15625 35.296875 
z
M 13.1875 35.296875 
Q 13.1875 17.671875 17.3125 11.828125 
Q 21.4375 6 27.484375 6 
Q 33.546875 6 37.671875 11.859375 
Q 41.796875 17.71875 41.796875 35.296875 
Q 41.796875 52.984375 37.671875 58.78125 
Q 33.546875 64.59375 27.390625 64.59375 
Q 21.34375 64.59375 17.71875 59.46875 
Q 13.1875 52.9375 13.1875 35.296875 
z
" id="ArialMT-48"/>
       <path d="M 4.15625 18.75 
L 13.375 19.53125 
Q 14.40625 12.796875 18.140625 9.390625 
Q 21.875 6 27.15625 6 
Q 33.5 6 37.890625 10.78125 
Q 42.28125 15.578125 42.28125 23.484375 
Q 42.28125 31 38.0625 35.34375 
Q 33.84375 39.703125 27 39.703125 
Q 22.75 39.703125 19.328125 37.765625 
Q 15.921875 35.84375 13.96875 32.765625 
L 5.71875 33.84375 
L 12.640625 70.609375 
L 48.25 70.609375 
L 48.25 62.203125 
L 19.671875 62.203125 
L 15.828125 42.96875 
Q 22.265625 47.46875 29.34375 47.46875 
Q 38.71875 47.46875 45.15625 40.96875 
Q 51.609375 34.46875 51.609375 24.265625 
Q 51.609375 14.546875 45.953125 7.46875 
Q 39.0625 -1.21875 27.15625 -1.21875 
Q 17.390625 -1.21875 11.203125 4.25 
Q 5.03125 9.71875 4.15625 18.75 
z
" id="ArialMT-53"/>
       <path d="M 49.75 54.046875 
L 41.015625 53.375 
Q 39.84375 58.546875 37.703125 60.890625 
Q 34.125 64.65625 28.90625 64.65625 
Q 24.703125 64.65625 21.53125 62.3125 
Q 17.390625 59.28125 14.984375 53.46875 
Q 12.59375 47.65625 12.5 36.921875 
Q 15.671875 41.75 20.265625 44.09375 
Q 24.859375 46.4375 29.890625 46.4375 
Q 38.671875 46.4375 44.84375 39.96875 
Q 51.03125 33.5 51.03125 23.25 
Q 51.03125 16.5 48.125 10.71875 
Q 45.21875 4.9375 40.140625 1.859375 
Q 35.0625 -1.21875 28.609375 -1.21875 
Q 17.625 -1.21875 10.6875 6.859375 
Q 3.765625 14.9375 3.765625 33.5 
Q 3.765625 54.25 11.421875 63.671875 
Q 18.109375 71.875 29.4375 71.875 
Q 37.890625 71.875 43.28125 67.140625 
Q 48.6875 62.40625 49.75 54.046875 
z
M 13.875 23.1875 
Q 13.875 18.65625 15.796875 14.5 
Q 17.71875 10.359375 21.1875 8.171875 
Q 24.65625 6 28.46875 6 
Q 34.03125 6 38.03125 10.484375 
Q 42.046875 14.984375 42.046875 22.703125 
Q 42.046875 30.125 38.078125 34.390625 
Q 34.125 38.671875 28.125 38.671875 
Q 22.171875 38.671875 18.015625 34.390625 
Q 13.875 30.125 13.875 23.1875 
z
" id="ArialMT-54"/>
       <path d="M 3.171875 21.484375 
L 3.171875 30.328125 
L 30.171875 30.328125 
L 30.171875 21.484375 
z
" id="ArialMT-45"/>
       <path d="M 17.671875 38.8125 
Q 12.203125 40.828125 9.5625 44.53125 
Q 6.9375 48.25 6.9375 53.421875 
Q 6.9375 61.234375 12.546875 66.546875 
Q 18.171875 71.875 27.484375 71.875 
Q 36.859375 71.875 42.578125 66.421875 
Q 48.296875 60.984375 48.296875 53.171875 
Q 48.296875 48.1875 45.671875 44.5 
Q 43.0625 40.828125 37.75 38.8125 
Q 44.34375 36.671875 47.78125 31.875 
Q 51.21875 27.09375 51.21875 20.453125 
Q 51.21875 11.28125 44.71875 5.03125 
Q 38.234375 -1.21875 27.640625 -1.21875 
Q 17.046875 -1.21875 10.546875 5.046875 
Q 4.046875 11.328125 4.046875 20.703125 
Q 4.046875 27.6875 7.59375 32.390625 
Q 11.140625 37.109375 17.671875 38.8125 
z
M 15.921875 53.71875 
Q 15.921875 48.640625 19.1875 45.40625 
Q 22.46875 42.1875 27.6875 42.1875 
Q 32.765625 42.1875 36.015625 45.375 
Q 39.265625 48.578125 39.265625 53.21875 
Q 39.265625 58.0625 35.90625 61.359375 
Q 32.5625 64.65625 27.59375 64.65625 
Q 22.5625 64.65625 19.234375 61.421875 
Q 15.921875 58.203125 15.921875 53.71875 
z
M 13.09375 20.65625 
Q 13.09375 16.890625 14.875 13.375 
Q 16.65625 9.859375 20.171875 7.921875 
Q 23.6875 6 27.734375 6 
Q 34.03125 6 38.125 10.046875 
Q 42.234375 14.109375 42.234375 20.359375 
Q 42.234375 26.703125 38.015625 30.859375 
Q 33.796875 35.015625 27.4375 35.015625 
Q 21.234375 35.015625 17.15625 30.90625 
Q 13.09375 26.8125 13.09375 20.65625 
z
" id="ArialMT-56"/>
      </defs>
      <g style="fill:#262626;" transform="translate(119.65506 511.1565)scale(0.16 -0.16)">
       <use xlink:href="#ArialMT-49"/>
       <use x="55.615234" xlink:href="#ArialMT-48"/>
       <use x="111.230469" xlink:href="#ArialMT-53"/>
       <use x="166.845703" xlink:href="#ArialMT-54"/>
       <use x="222.460938" xlink:href="#ArialMT-45"/>
       <use x="255.761719" xlink:href="#ArialMT-49"/>
       <use x="311.376953" xlink:href="#ArialMT-56"/>
       <use x="366.992188" xlink:href="#ArialMT-54"/>
       <use x="422.607422" xlink:href="#ArialMT-45"/>
       <use x="455.908203" xlink:href="#ArialMT-49"/>
      </g>
     </g>
    </g>
    <g id="xtick_2">
     <g id="text_2">
      <!-- 686-1 -->
      <g style="fill:#262626;" transform="translate(336.273931 511.1565)scale(0.16 -0.16)">
       <use xlink:href="#ArialMT-54"/>
       <use x="55.615234" xlink:href="#ArialMT-56"/>
       <use x="111.230469" xlink:href="#ArialMT-54"/>
       <use x="166.845703" xlink:href="#ArialMT-45"/>
       <use x="200.146484" xlink:href="#ArialMT-49"/>
      </g>
     </g>
    </g>
    <g id="xtick_3">
     <g id="text_3">
      <!-- 686-2 -->
      <defs>
       <path d="M 50.34375 8.453125 
L 50.34375 0 
L 3.03125 0 
Q 2.9375 3.171875 4.046875 6.109375 
Q 5.859375 10.9375 9.828125 15.625 
Q 13.8125 20.3125 21.34375 26.46875 
Q 33.015625 36.03125 37.109375 41.625 
Q 41.21875 47.21875 41.21875 52.203125 
Q 41.21875 57.421875 37.46875 61 
Q 33.734375 64.59375 27.734375 64.59375 
Q 21.390625 64.59375 17.578125 60.78125 
Q 13.765625 56.984375 13.71875 50.25 
L 4.6875 51.171875 
Q 5.609375 61.28125 11.65625 66.578125 
Q 17.71875 71.875 27.9375 71.875 
Q 38.234375 71.875 44.234375 66.15625 
Q 50.25 60.453125 50.25 52 
Q 50.25 47.703125 48.484375 43.546875 
Q 46.734375 39.40625 42.65625 34.8125 
Q 38.578125 30.21875 29.109375 22.21875 
Q 21.1875 15.578125 18.9375 13.203125 
Q 16.703125 10.84375 15.234375 8.453125 
z
" id="ArialMT-50"/>
      </defs>
      <g style="fill:#262626;" transform="translate(532.434052 511.1565)scale(0.16 -0.16)">
       <use xlink:href="#ArialMT-54"/>
       <use x="55.615234" xlink:href="#ArialMT-56"/>
       <use x="111.230469" xlink:href="#ArialMT-54"/>
       <use x="166.845703" xlink:href="#ArialMT-45"/>
       <use x="200.146484" xlink:href="#ArialMT-50"/>
      </g>
     </g>
    </g>
    <g id="text_4">
     <!-- Counter id -->
     <defs>
      <path d="M 58.796875 25.09375 
L 68.265625 22.703125 
Q 65.28125 11.03125 57.546875 4.90625 
Q 49.8125 -1.21875 38.625 -1.21875 
Q 27.046875 -1.21875 19.796875 3.484375 
Q 12.546875 8.203125 8.765625 17.140625 
Q 4.984375 26.078125 4.984375 36.328125 
Q 4.984375 47.515625 9.25 55.828125 
Q 13.53125 64.15625 21.40625 68.46875 
Q 29.296875 72.796875 38.765625 72.796875 
Q 49.515625 72.796875 56.828125 67.328125 
Q 64.15625 61.859375 67.046875 51.953125 
L 57.71875 49.75 
Q 55.21875 57.5625 50.484375 61.125 
Q 45.75 64.703125 38.578125 64.703125 
Q 30.328125 64.703125 24.78125 60.734375 
Q 19.234375 56.78125 16.984375 50.109375 
Q 14.75 43.453125 14.75 36.375 
Q 14.75 27.25 17.40625 20.4375 
Q 20.0625 13.625 25.671875 10.25 
Q 31.296875 6.890625 37.84375 6.890625 
Q 45.796875 6.890625 51.3125 11.46875 
Q 56.84375 16.0625 58.796875 25.09375 
z
" id="ArialMT-67"/>
      <path d="M 3.328125 25.921875 
Q 3.328125 40.328125 11.328125 47.265625 
Q 18.015625 53.03125 27.640625 53.03125 
Q 38.328125 53.03125 45.109375 46.015625 
Q 51.90625 39.015625 51.90625 26.65625 
Q 51.90625 16.65625 48.90625 10.90625 
Q 45.90625 5.171875 40.15625 2 
Q 34.421875 -1.171875 27.640625 -1.171875 
Q 16.75 -1.171875 10.03125 5.8125 
Q 3.328125 12.796875 3.328125 25.921875 
z
M 12.359375 25.921875 
Q 12.359375 15.96875 16.703125 11.015625 
Q 21.046875 6.0625 27.640625 6.0625 
Q 34.1875 6.0625 38.53125 11.03125 
Q 42.875 16.015625 42.875 26.21875 
Q 42.875 35.84375 38.5 40.796875 
Q 34.125 45.75 27.640625 45.75 
Q 21.046875 45.75 16.703125 40.8125 
Q 12.359375 35.890625 12.359375 25.921875 
z
" id="ArialMT-111"/>
      <path d="M 40.578125 0 
L 40.578125 7.625 
Q 34.515625 -1.171875 24.125 -1.171875 
Q 19.53125 -1.171875 15.546875 0.578125 
Q 11.578125 2.34375 9.640625 5 
Q 7.71875 7.671875 6.9375 11.53125 
Q 6.390625 14.109375 6.390625 19.734375 
L 6.390625 51.859375 
L 15.1875 51.859375 
L 15.1875 23.09375 
Q 15.1875 16.21875 15.71875 13.8125 
Q 16.546875 10.359375 19.234375 8.375 
Q 21.921875 6.390625 25.875 6.390625 
Q 29.828125 6.390625 33.296875 8.421875 
Q 36.765625 10.453125 38.203125 13.9375 
Q 39.65625 17.4375 39.65625 24.078125 
L 39.65625 51.859375 
L 48.4375 51.859375 
L 48.4375 0 
z
" id="ArialMT-117"/>
      <path d="M 6.59375 0 
L 6.59375 51.859375 
L 14.5 51.859375 
L 14.5 44.484375 
Q 20.21875 53.03125 31 53.03125 
Q 35.6875 53.03125 39.625 51.34375 
Q 43.5625 49.65625 45.515625 46.921875 
Q 47.46875 44.1875 48.25 40.4375 
Q 48.734375 37.984375 48.734375 31.890625 
L 48.734375 0 
L 39.9375 0 
L 39.9375 31.546875 
Q 39.9375 36.921875 38.90625 39.578125 
Q 37.890625 42.234375 35.28125 43.8125 
Q 32.671875 45.40625 29.15625 45.40625 
Q 23.53125 45.40625 19.453125 41.84375 
Q 15.375 38.28125 15.375 28.328125 
L 15.375 0 
z
" id="ArialMT-110"/>
      <path d="M 25.78125 7.859375 
L 27.046875 0.09375 
Q 23.34375 -0.6875 20.40625 -0.6875 
Q 15.625 -0.6875 12.984375 0.828125 
Q 10.359375 2.34375 9.28125 4.8125 
Q 8.203125 7.28125 8.203125 15.1875 
L 8.203125 45.015625 
L 1.765625 45.015625 
L 1.765625 51.859375 
L 8.203125 51.859375 
L 8.203125 64.703125 
L 16.9375 69.96875 
L 16.9375 51.859375 
L 25.78125 51.859375 
L 25.78125 45.015625 
L 16.9375 45.015625 
L 16.9375 14.703125 
Q 16.9375 10.9375 17.40625 9.859375 
Q 17.875 8.796875 18.921875 8.15625 
Q 19.96875 7.515625 21.921875 7.515625 
Q 23.390625 7.515625 25.78125 7.859375 
z
" id="ArialMT-116"/>
      <path d="M 42.09375 16.703125 
L 51.171875 15.578125 
Q 49.03125 7.625 43.21875 3.21875 
Q 37.40625 -1.171875 28.375 -1.171875 
Q 17 -1.171875 10.328125 5.828125 
Q 3.65625 12.84375 3.65625 25.484375 
Q 3.65625 38.578125 10.390625 45.796875 
Q 17.140625 53.03125 27.875 53.03125 
Q 38.28125 53.03125 44.875 45.953125 
Q 51.46875 38.875 51.46875 26.03125 
Q 51.46875 25.25 51.421875 23.6875 
L 12.75 23.6875 
Q 13.234375 15.140625 17.578125 10.59375 
Q 21.921875 6.0625 28.421875 6.0625 
Q 33.25 6.0625 36.671875 8.59375 
Q 40.09375 11.140625 42.09375 16.703125 
z
M 13.234375 30.90625 
L 42.1875 30.90625 
Q 41.609375 37.453125 38.875 40.71875 
Q 34.671875 45.796875 27.984375 45.796875 
Q 21.921875 45.796875 17.796875 41.75 
Q 13.671875 37.703125 13.234375 30.90625 
z
" id="ArialMT-101"/>
      <path d="M 6.5 0 
L 6.5 51.859375 
L 14.40625 51.859375 
L 14.40625 44 
Q 17.4375 49.515625 20 51.265625 
Q 22.5625 53.03125 25.640625 53.03125 
Q 30.078125 53.03125 34.671875 50.203125 
L 31.640625 42.046875 
Q 28.421875 43.953125 25.203125 43.953125 
Q 22.3125 43.953125 20.015625 42.21875 
Q 17.71875 40.484375 16.75 37.40625 
Q 15.28125 32.71875 15.28125 27.15625 
L 15.28125 0 
z
" id="ArialMT-114"/>
      <path id="ArialMT-32"/>
      <path d="M 6.640625 61.46875 
L 6.640625 71.578125 
L 15.4375 71.578125 
L 15.4375 61.46875 
z
M 6.640625 0 
L 6.640625 51.859375 
L 15.4375 51.859375 
L 15.4375 0 
z
" id="ArialMT-105"/>
      <path d="M 40.234375 0 
L 40.234375 6.546875 
Q 35.296875 -1.171875 25.734375 -1.171875 
Q 19.53125 -1.171875 14.328125 2.25 
Q 9.125 5.671875 6.265625 11.796875 
Q 3.421875 17.921875 3.421875 25.875 
Q 3.421875 33.640625 6 39.96875 
Q 8.59375 46.296875 13.765625 49.65625 
Q 18.953125 53.03125 25.34375 53.03125 
Q 30.03125 53.03125 33.6875 51.046875 
Q 37.359375 49.078125 39.65625 45.90625 
L 39.65625 71.578125 
L 48.390625 71.578125 
L 48.390625 0 
z
M 12.453125 25.875 
Q 12.453125 15.921875 16.640625 10.984375 
Q 20.84375 6.0625 26.5625 6.0625 
Q 32.328125 6.0625 36.34375 10.765625 
Q 40.375 15.484375 40.375 25.140625 
Q 40.375 35.796875 36.265625 40.765625 
Q 32.171875 45.75 26.171875 45.75 
Q 20.3125 45.75 16.375 40.96875 
Q 12.453125 36.1875 12.453125 25.875 
z
" id="ArialMT-100"/>
     </defs>
     <g style="fill:#262626;" transform="translate(319.825181 529.789)scale(0.16 -0.16)">
      <use xlink:href="#ArialMT-67"/>
      <use x="72.216797" xlink:href="#ArialMT-111"/>
      <use x="127.832031" xlink:href="#ArialMT-117"/>
      <use x="183.447266" xlink:href="#ArialMT-110"/>
      <use x="239.0625" xlink:href="#ArialMT-116"/>
      <use x="266.845703" xlink:href="#ArialMT-101"/>
      <use x="322.460938" xlink:href="#ArialMT-114"/>
      <use x="355.761719" xlink:href="#ArialMT-32"/>
      <use x="383.544922" xlink:href="#ArialMT-105"/>
      <use x="405.761719" xlink:href="#ArialMT-100"/>
     </g>
    </g>
   </g>
   <g id="matplotlib.axis_2">
    <g id="ytick_1">
     <g id="text_5">
      <!-- 0 -->
      <g style="fill:#262626;" transform="translate(46.595 476.361886)scale(0.16 -0.16)">
       <use xlink:href="#ArialMT-48"/>
      </g>
     </g>
    </g>
    <g id="ytick_2">
     <g id="text_6">
      <!-- 100 -->
      <g style="fill:#262626;" transform="translate(28.8 401.043239)scale(0.16 -0.16)">
       <use xlink:href="#ArialMT-49"/>
       <use x="55.615234" xlink:href="#ArialMT-48"/>
       <use x="111.230469" xlink:href="#ArialMT-48"/>
      </g>
     </g>
    </g>
    <g id="ytick_3">
     <g id="text_7">
      <!-- 200 -->
      <g style="fill:#262626;" transform="translate(28.8 325.724592)scale(0.16 -0.16)">
       <use xlink:href="#ArialMT-50"/>
       <use x="55.615234" xlink:href="#ArialMT-48"/>
       <use x="111.230469" xlink:href="#ArialMT-48"/>
      </g>
     </g>
    </g>
    <g id="ytick_4">
     <g id="text_8">
      <!-- 300 -->
      <defs>
       <path d="M 4.203125 18.890625 
L 12.984375 20.0625 
Q 14.5 12.59375 18.140625 9.296875 
Q 21.78125 6 27 6 
Q 33.203125 6 37.46875 10.296875 
Q 41.75 14.59375 41.75 20.953125 
Q 41.75 27 37.796875 30.921875 
Q 33.84375 34.859375 27.734375 34.859375 
Q 25.25 34.859375 21.53125 33.890625 
L 22.515625 41.609375 
Q 23.390625 41.5 23.921875 41.5 
Q 29.546875 41.5 34.03125 44.421875 
Q 38.53125 47.359375 38.53125 53.46875 
Q 38.53125 58.296875 35.25 61.46875 
Q 31.984375 64.65625 26.8125 64.65625 
Q 21.6875 64.65625 18.265625 61.421875 
Q 14.84375 58.203125 13.875 51.765625 
L 5.078125 53.328125 
Q 6.6875 62.15625 12.390625 67.015625 
Q 18.109375 71.875 26.609375 71.875 
Q 32.46875 71.875 37.390625 69.359375 
Q 42.328125 66.84375 44.9375 62.5 
Q 47.5625 58.15625 47.5625 53.265625 
Q 47.5625 48.640625 45.0625 44.828125 
Q 42.578125 41.015625 37.703125 38.765625 
Q 44.046875 37.3125 47.5625 32.6875 
Q 51.078125 28.078125 51.078125 21.140625 
Q 51.078125 11.765625 44.234375 5.25 
Q 37.40625 -1.265625 26.953125 -1.265625 
Q 17.53125 -1.265625 11.296875 4.34375 
Q 5.078125 9.96875 4.203125 18.890625 
z
" id="ArialMT-51"/>
      </defs>
      <g style="fill:#262626;" transform="translate(28.8 250.405945)scale(0.16 -0.16)">
       <use xlink:href="#ArialMT-51"/>
       <use x="55.615234" xlink:href="#ArialMT-48"/>
       <use x="111.230469" xlink:href="#ArialMT-48"/>
      </g>
     </g>
    </g>
    <g id="ytick_5">
     <g id="text_9">
      <!-- 400 -->
      <defs>
       <path d="M 32.328125 0 
L 32.328125 17.140625 
L 1.265625 17.140625 
L 1.265625 25.203125 
L 33.9375 71.578125 
L 41.109375 71.578125 
L 41.109375 25.203125 
L 50.78125 25.203125 
L 50.78125 17.140625 
L 41.109375 17.140625 
L 41.109375 0 
z
M 32.328125 25.203125 
L 32.328125 57.46875 
L 9.90625 25.203125 
z
" id="ArialMT-52"/>
      </defs>
      <g style="fill:#262626;" transform="translate(28.8 175.087297)scale(0.16 -0.16)">
       <use xlink:href="#ArialMT-52"/>
       <use x="55.615234" xlink:href="#ArialMT-48"/>
       <use x="111.230469" xlink:href="#ArialMT-48"/>
      </g>
     </g>
    </g>
    <g id="ytick_6">
     <g id="text_10">
      <!-- 500 -->
      <g style="fill:#262626;" transform="translate(28.8 99.76865)scale(0.16 -0.16)">
       <use xlink:href="#ArialMT-53"/>
       <use x="55.615234" xlink:href="#ArialMT-48"/>
       <use x="111.230469" xlink:href="#ArialMT-48"/>
      </g>
     </g>
    </g>
    <g id="ytick_7">
     <g id="text_11">
      <!-- 600 -->
      <g style="fill:#262626;" transform="translate(28.8 24.450003)scale(0.16 -0.16)">
       <use xlink:href="#ArialMT-54"/>
       <use x="55.615234" xlink:href="#ArialMT-48"/>
       <use x="111.230469" xlink:href="#ArialMT-48"/>
      </g>
     </g>
    </g>
    <g id="text_12">
     <!-- Count [$h^{-1}$] -->
     <defs>
      <path d="M 6.78125 -19.875 
L 6.78125 71.578125 
L 26.171875 71.578125 
L 26.171875 64.3125 
L 15.578125 64.3125 
L 15.578125 -12.59375 
L 26.171875 -12.59375 
L 26.171875 -19.875 
z
" id="ArialMT-91"/>
      <path d="M 55.71875 33.015625 
L 49.3125 0 
L 40.28125 0 
L 46.6875 32.671875 
Q 47.125 34.96875 47.359375 36.71875 
Q 47.609375 38.484375 47.609375 39.5 
Q 47.609375 43.609375 45.015625 45.890625 
Q 42.4375 48.1875 37.796875 48.1875 
Q 30.5625 48.1875 25.265625 43.296875 
Q 19.96875 38.421875 18.40625 30.328125 
L 12.5 0 
L 3.515625 0 
L 18.3125 75.984375 
L 27.296875 75.984375 
L 21.484375 46.09375 
Q 24.90625 50.6875 30.21875 53.34375 
Q 35.546875 56 41.40625 56 
Q 48.640625 56 52.609375 52.09375 
Q 56.59375 48.1875 56.59375 41.109375 
Q 56.59375 39.359375 56.375 37.359375 
Q 56.15625 35.359375 55.71875 33.015625 
z
" id="DejaVuSans-Oblique-104"/>
      <path d="M 10.59375 35.5 
L 73.1875 35.5 
L 73.1875 27.203125 
L 10.59375 27.203125 
z
" id="DejaVuSans-8722"/>
      <path d="M 12.40625 8.296875 
L 28.515625 8.296875 
L 28.515625 63.921875 
L 10.984375 60.40625 
L 10.984375 69.390625 
L 28.421875 72.90625 
L 38.28125 72.90625 
L 38.28125 8.296875 
L 54.390625 8.296875 
L 54.390625 0 
L 12.40625 0 
z
" id="DejaVuSans-49"/>
      <path d="M 21.296875 -19.875 
L 1.90625 -19.875 
L 1.90625 -12.59375 
L 12.5 -12.59375 
L 12.5 64.3125 
L 1.90625 64.3125 
L 1.90625 71.578125 
L 21.296875 71.578125 
z
" id="ArialMT-93"/>
     </defs>
     <g style="fill:#262626;" transform="translate(21.6 292.112)rotate(-90)scale(0.16 -0.16)">
      <use transform="translate(0 0.684375)" xlink:href="#ArialMT-67"/>
      <use transform="translate(72.216797 0.684375)" xlink:href="#ArialMT-111"/>
      <use transform="translate(127.832031 0.684375)" xlink:href="#ArialMT-117"/>
      <use transform="translate(183.447266 0.684375)" xlink:href="#ArialMT-110"/>
      <use transform="translate(239.0625 0.684375)" xlink:href="#ArialMT-116"/>
      <use transform="translate(266.845703 0.684375)" xlink:href="#ArialMT-32"/>
      <use transform="translate(294.628906 0.684375)" xlink:href="#ArialMT-91"/>
      <use transform="translate(322.412109 0.684375)" xlink:href="#DejaVuSans-Oblique-104"/>
      <use transform="translate(393.238724 38.965625)scale(0.7)" xlink:href="#DejaVuSans-8722"/>
      <use transform="translate(451.891068 38.965625)scale(0.7)" xlink:href="#DejaVuSans-49"/>
      <use transform="translate(499.161576 0.684375)" xlink:href="#ArialMT-93"/>
     </g>
    </g>
   </g>
   <g id="PolyCollection_1">
    <defs>
     <path d="M 146.824433 -69.533364 
L 95.856639 -69.533364 
L 91.8587 -72.287439 
L 88.41379 -75.041515 
L 85.694118 -77.795591 
L 83.768294 -80.549667 
L 82.60703 -83.303743 
L 82.108512 -86.057818 
L 82.132228 -88.811894 
L 82.530446 -91.56597 
L 83.170799 -94.320046 
L 83.948551 -97.074122 
L 84.79051 -99.828197 
L 85.653445 -102.582273 
L 86.519228 -105.336349 
L 87.388088 -108.090425 
L 88.271068 -110.8445 
L 89.182876 -113.598576 
L 90.136277 -116.352652 
L 91.138578 -119.106728 
L 92.189919 -121.860804 
L 93.282537 -124.614879 
L 94.400308 -127.368955 
L 95.51859 -130.123031 
L 96.605076 -132.877107 
L 97.622529 -135.631183 
L 98.533572 -138.385258 
L 99.306678 -141.139334 
L 99.921721 -143.89341 
L 100.373407 -146.647486 
L 100.671735 -149.401561 
L 100.839731 -152.155637 
L 100.909533 -154.909713 
L 100.918067 -157.663789 
L 100.903081 -160.417865 
L 100.899737 -163.17194 
L 100.93758 -165.926016 
L 101.037927 -168.680092 
L 101.212029 -171.434168 
L 101.460639 -174.188244 
L 101.775349 -176.942319 
L 102.141438 -179.696395 
L 102.541344 -182.450471 
L 102.957614 -185.204547 
L 103.374556 -187.958622 
L 103.778515 -190.712698 
L 104.157367 -193.466774 
L 104.500072 -196.22085 
L 104.796876 -198.974926 
L 105.040215 -201.729001 
L 105.225963 -204.483077 
L 105.354496 -207.237153 
L 105.431288 -209.991229 
L 105.466996 -212.745305 
L 105.477217 -215.49938 
L 105.482005 -218.253456 
L 105.505018 -221.007532 
L 105.571985 -223.761608 
L 105.708208 -226.515684 
L 105.935208 -229.269759 
L 106.267132 -232.023835 
L 106.707959 -234.777911 
L 107.250548 -237.531987 
L 107.878075 -240.286062 
L 108.567638 -243.040138 
L 109.294996 -245.794214 
L 110.039012 -248.54829 
L 110.784546 -251.302366 
L 111.523169 -254.056441 
L 112.251881 -256.810517 
L 112.970692 -259.564593 
L 113.680059 -262.318669 
L 114.379023 -265.072745 
L 115.06433 -267.82682 
L 115.73046 -270.580896 
L 116.370239 -273.334972 
L 116.975716 -276.089048 
L 117.539132 -278.843123 
L 118.053878 -281.597199 
L 118.515348 -284.351275 
L 118.921578 -287.105351 
L 119.273495 -289.859427 
L 119.574714 -292.613502 
L 119.830892 -295.367578 
L 120.04878 -298.121654 
L 120.235218 -300.87573 
L 120.39626 -303.629806 
L 120.536603 -306.383881 
L 120.659372 -309.137957 
L 120.766232 -311.892033 
L 120.857766 -314.646109 
L 120.934033 -317.400184 
L 120.995181 -320.15426 
L 121.042005 -322.908336 
L 121.076284 -325.662412 
L 121.10081 -328.416488 
L 121.119054 -331.170563 
L 121.134585 -333.924639 
L 121.150409 -336.678715 
L 121.16845 -339.432791 
L 121.189325 -342.186867 
L 121.491747 -342.186867 
L 121.491747 -342.186867 
L 121.512622 -339.432791 
L 121.530664 -336.678715 
L 121.546488 -333.924639 
L 121.562019 -331.170563 
L 121.580263 -328.416488 
L 121.604788 -325.662412 
L 121.639068 -322.908336 
L 121.685891 -320.15426 
L 121.74704 -317.400184 
L 121.823306 -314.646109 
L 121.914841 -311.892033 
L 122.0217 -309.137957 
L 122.144469 -306.383881 
L 122.284812 -303.629806 
L 122.445854 -300.87573 
L 122.632292 -298.121654 
L 122.850181 -295.367578 
L 123.106358 -292.613502 
L 123.407578 -289.859427 
L 123.759495 -287.105351 
L 124.165724 -284.351275 
L 124.627195 -281.597199 
L 125.14194 -278.843123 
L 125.705356 -276.089048 
L 126.310833 -273.334972 
L 126.950612 -270.580896 
L 127.616743 -267.82682 
L 128.302049 -265.072745 
L 129.001013 -262.318669 
L 129.710381 -259.564593 
L 130.429191 -256.810517 
L 131.157904 -254.056441 
L 131.896526 -251.302366 
L 132.642061 -248.54829 
L 133.386076 -245.794214 
L 134.113434 -243.040138 
L 134.802998 -240.286062 
L 135.430524 -237.531987 
L 135.973113 -234.777911 
L 136.413941 -232.023835 
L 136.745864 -229.269759 
L 136.972864 -226.515684 
L 137.109088 -223.761608 
L 137.176055 -221.007532 
L 137.199068 -218.253456 
L 137.203856 -215.49938 
L 137.214077 -212.745305 
L 137.249785 -209.991229 
L 137.326576 -207.237153 
L 137.45511 -204.483077 
L 137.640857 -201.729001 
L 137.884197 -198.974926 
L 138.181001 -196.22085 
L 138.523706 -193.466774 
L 138.902557 -190.712698 
L 139.306516 -187.958622 
L 139.723458 -185.204547 
L 140.139728 -182.450471 
L 140.539634 -179.696395 
L 140.905724 -176.942319 
L 141.220434 -174.188244 
L 141.469044 -171.434168 
L 141.643145 -168.680092 
L 141.743492 -165.926016 
L 141.781336 -163.17194 
L 141.777991 -160.417865 
L 141.763006 -157.663789 
L 141.771539 -154.909713 
L 141.841342 -152.155637 
L 142.009338 -149.401561 
L 142.307666 -146.647486 
L 142.759352 -143.89341 
L 143.374394 -141.139334 
L 144.147501 -138.385258 
L 145.058543 -135.631183 
L 146.075997 -132.877107 
L 147.162483 -130.123031 
L 148.280764 -127.368955 
L 149.398536 -124.614879 
L 150.491153 -121.860804 
L 151.542494 -119.106728 
L 152.544795 -116.352652 
L 153.498196 -113.598576 
L 154.410004 -110.8445 
L 155.292984 -108.090425 
L 156.161845 -105.336349 
L 157.027627 -102.582273 
L 157.890562 -99.828197 
L 158.732522 -97.074122 
L 159.510274 -94.320046 
L 160.150626 -91.56597 
L 160.548844 -88.811894 
L 160.57256 -86.057818 
L 160.074043 -83.303743 
L 158.912779 -80.549667 
L 156.986954 -77.795591 
L 154.267283 -75.041515 
L 150.822372 -72.287439 
L 146.824433 -69.533364 
z
" id="m957bcbabf8" style="stroke:#141414;stroke-width:1.5;"/>
    </defs>
    <g clip-path="url(#p1818b85cfe)">
     <use style="fill:#083c1d;stroke:#141414;stroke-width:1.5;" x="0" xlink:href="#m957bcbabf8" y="540.169"/>
    </g>
   </g>
   <g id="PolyCollection_2">
    <defs>
     <path d="M 221.132645 -69.533364 
L 178.476524 -69.533364 
L 175.514642 -73.527534 
L 173.206563 -77.521705 
L 171.698068 -81.515876 
L 171.020511 -85.510046 
L 171.097818 -89.504217 
L 171.777097 -93.498388 
L 172.870962 -97.492558 
L 174.197984 -101.486729 
L 175.611069 -105.4809 
L 177.009711 -109.47507 
L 178.33796 -113.469241 
L 179.573523 -117.463412 
L 180.714121 -121.457583 
L 181.765786 -125.451753 
L 182.735383 -129.445924 
L 183.627473 -133.440095 
L 184.444212 -137.434265 
L 185.186573 -141.428436 
L 185.855442 -145.422607 
L 186.451854 -149.416777 
L 186.976383 -153.410948 
L 187.428253 -157.405119 
L 187.80492 -161.399289 
L 188.102705 -165.39346 
L 188.318574 -169.387631 
L 188.452666 -173.381801 
L 188.510758 -177.375972 
L 188.505766 -181.370143 
L 188.45761 -185.364314 
L 188.391176 -189.358484 
L 188.332736 -193.352655 
L 188.305617 -197.346826 
L 188.326239 -201.340996 
L 188.401538 -205.335167 
L 188.528388 -209.329338 
L 188.695051 -213.323508 
L 188.884076 -217.317679 
L 189.075809 -221.31185 
L 189.251663 -225.30602 
L 189.396627 -229.300191 
L 189.50081 -233.294362 
L 189.560068 -237.288532 
L 189.575808 -241.282703 
L 189.554066 -245.276874 
L 189.503913 -249.271045 
L 189.435329 -253.265215 
L 189.35688 -257.259386 
L 189.273664 -261.253557 
L 189.186104 -265.247727 
L 189.089951 -269.241898 
L 188.977613 -273.236069 
L 188.840506 -277.230239 
L 188.671878 -281.22441 
L 188.469498 -285.218581 
L 188.237681 -289.212751 
L 187.988315 -293.206922 
L 187.740652 -297.201093 
L 187.519729 -301.195263 
L 187.353407 -305.189434 
L 187.268308 -309.183605 
L 187.285338 -313.177775 
L 187.415846 -317.171946 
L 187.659515 -321.166117 
L 188.004717 -325.160288 
L 188.431299 -329.154458 
L 188.914982 -333.148629 
L 189.432026 -337.1428 
L 189.96286 -341.13697 
L 190.493858 -345.131141 
L 191.017176 -349.125312 
L 191.529188 -353.119482 
L 192.02835 -357.113653 
L 192.513269 -361.107824 
L 192.981506 -365.101994 
L 193.429252 -369.096165 
L 193.851824 -373.090336 
L 194.244697 -377.084506 
L 194.604741 -381.078677 
L 194.931301 -385.072848 
L 195.226808 -389.067019 
L 195.496699 -393.061189 
L 195.748618 -397.05536 
L 195.991079 -401.049531 
L 196.231904 -405.043701 
L 196.476857 -409.037872 
L 196.728811 -413.032043 
L 196.987604 -417.026213 
L 197.250563 -421.020384 
L 197.513431 -425.014555 
L 197.771408 -429.008725 
L 198.020022 -433.002896 
L 198.25566 -436.997067 
L 198.475759 -440.991237 
L 198.678724 -444.985408 
L 198.863715 -448.979579 
L 199.030395 -452.973749 
L 199.178718 -456.96792 
L 199.308803 -460.962091 
L 199.420893 -464.956262 
L 200.188276 -464.956262 
L 200.188276 -464.956262 
L 200.300366 -460.962091 
L 200.430451 -456.96792 
L 200.578774 -452.973749 
L 200.745454 -448.979579 
L 200.930446 -444.985408 
L 201.133411 -440.991237 
L 201.353509 -436.997067 
L 201.589147 -433.002896 
L 201.837761 -429.008725 
L 202.095738 -425.014555 
L 202.358606 -421.020384 
L 202.621565 -417.026213 
L 202.880359 -413.032043 
L 203.132312 -409.037872 
L 203.377266 -405.043701 
L 203.61809 -401.049531 
L 203.860551 -397.05536 
L 204.112471 -393.061189 
L 204.382361 -389.067019 
L 204.677868 -385.072848 
L 205.004429 -381.078677 
L 205.364472 -377.084506 
L 205.757345 -373.090336 
L 206.179918 -369.096165 
L 206.627664 -365.101994 
L 207.0959 -361.107824 
L 207.58082 -357.113653 
L 208.079981 -353.119482 
L 208.591993 -349.125312 
L 209.115312 -345.131141 
L 209.646309 -341.13697 
L 210.177143 -337.1428 
L 210.694187 -333.148629 
L 211.17787 -329.154458 
L 211.604452 -325.160288 
L 211.949654 -321.166117 
L 212.193323 -317.171946 
L 212.323831 -313.177775 
L 212.340861 -309.183605 
L 212.255762 -305.189434 
L 212.08944 -301.195263 
L 211.868517 -297.201093 
L 211.620854 -293.206922 
L 211.371488 -289.212751 
L 211.139671 -285.218581 
L 210.937291 -281.22441 
L 210.768663 -277.230239 
L 210.631556 -273.236069 
L 210.519218 -269.241898 
L 210.423065 -265.247727 
L 210.335505 -261.253557 
L 210.25229 -257.259386 
L 210.17384 -253.265215 
L 210.105257 -249.271045 
L 210.055104 -245.276874 
L 210.033362 -241.282703 
L 210.049101 -237.288532 
L 210.108359 -233.294362 
L 210.212543 -229.300191 
L 210.357506 -225.30602 
L 210.53336 -221.31185 
L 210.725093 -217.317679 
L 210.914119 -213.323508 
L 211.080781 -209.329338 
L 211.207631 -205.335167 
L 211.28293 -201.340996 
L 211.303552 -197.346826 
L 211.276433 -193.352655 
L 211.217993 -189.358484 
L 211.15156 -185.364314 
L 211.103403 -181.370143 
L 211.098412 -177.375972 
L 211.156503 -173.381801 
L 211.290595 -169.387631 
L 211.506464 -165.39346 
L 211.804249 -161.399289 
L 212.180916 -157.405119 
L 212.632786 -153.410948 
L 213.157315 -149.416777 
L 213.753728 -145.422607 
L 214.422597 -141.428436 
L 215.164958 -137.434265 
L 215.981697 -133.440095 
L 216.873786 -129.445924 
L 217.843384 -125.451753 
L 218.895048 -121.457583 
L 220.035646 -117.463412 
L 221.271209 -113.469241 
L 222.599459 -109.47507 
L 223.998101 -105.4809 
L 225.411185 -101.486729 
L 226.738207 -97.492558 
L 227.832073 -93.498388 
L 228.511351 -89.504217 
L 228.588659 -85.510046 
L 227.911101 -81.515876 
L 226.402606 -77.521705 
L 224.094527 -73.527534 
L 221.132645 -69.533364 
z
" id="mcf5a8b3246" style="stroke:#141414;stroke-width:1.5;"/>
    </defs>
    <g clip-path="url(#p1818b85cfe)">
     <use style="fill:#0e5f2f;stroke:#141414;stroke-width:1.5;" x="0" xlink:href="#mcf5a8b3246" y="540.169"/>
    </g>
   </g>
   <g id="PolyCollection_3">
    <defs>
     <path d="M 350.034969 -69.533364 
L 284.966345 -69.533364 
L 281.572072 -73.961187 
L 279.296844 -78.389011 
L 278.268633 -82.816834 
L 278.450992 -87.244658 
L 279.662675 -91.672481 
L 281.624497 -96.100305 
L 284.018239 -100.528128 
L 286.541764 -104.955952 
L 288.948972 -109.383775 
L 291.070034 -113.811599 
L 292.813469 -118.239422 
L 294.155373 -122.667246 
L 295.122074 -127.095069 
L 295.771527 -131.522893 
L 296.176966 -135.950716 
L 296.414463 -140.37854 
L 296.554612 -144.806363 
L 296.657654 -149.234187 
L 296.771019 -153.66201 
L 296.928344 -158.089834 
L 297.149459 -162.517657 
L 297.441207 -166.945481 
L 297.79924 -171.373304 
L 298.210816 -175.801128 
L 298.658335 -180.228951 
L 299.123055 -184.656775 
L 299.588235 -189.084598 
L 300.041182 -193.512422 
L 300.47398 -197.940245 
L 300.8831 -202.368069 
L 301.268365 -206.795892 
L 301.631742 -211.223716 
L 301.97637 -215.651539 
L 302.305978 -220.079363 
L 302.62467 -224.507186 
L 302.936917 -228.93501 
L 303.247536 -233.362833 
L 303.561478 -237.790657 
L 303.883367 -242.21848 
L 304.216898 -246.646304 
L 304.564295 -251.074127 
L 304.926078 -255.501951 
L 305.301252 -259.929774 
L 305.687873 -264.357598 
L 306.083737 -268.785421 
L 306.486873 -273.213245 
L 306.895547 -277.641068 
L 307.307718 -282.068892 
L 307.720161 -286.496715 
L 308.12769 -290.924539 
L 308.522998 -295.352362 
L 308.897417 -299.780186 
L 309.242519 -304.208009 
L 309.552083 -308.635833 
L 309.8237 -313.063656 
L 310.059381 -317.49148 
L 310.264909 -321.919303 
L 310.448153 -326.347127 
L 310.616987 -330.77495 
L 310.777559 -335.202774 
L 310.93348 -339.630597 
L 311.086066 -344.058421 
L 311.235373 -348.486244 
L 311.381468 -352.914068 
L 311.525429 -357.341891 
L 311.669726 -361.769715 
L 311.818007 -366.197538 
L 311.974529 -370.625362 
L 312.143524 -375.053185 
L 312.328727 -379.481009 
L 312.533078 -383.908832 
L 312.758501 -388.336656 
L 313.005658 -392.764479 
L 313.273651 -397.192303 
L 313.559814 -401.620126 
L 313.859727 -406.04795 
L 314.167555 -410.475773 
L 314.476658 -414.903597 
L 314.780309 -419.33142 
L 315.072305 -423.759244 
L 315.347335 -428.187067 
L 315.601098 -432.614891 
L 315.83027 -437.042714 
L 316.03249 -441.470538 
L 316.206457 -445.898361 
L 316.352143 -450.326185 
L 316.471034 -454.754008 
L 316.566205 -459.181832 
L 316.642129 -463.609655 
L 316.704172 -468.037479 
L 316.757886 -472.465302 
L 316.808262 -476.893126 
L 316.859149 -481.320949 
L 316.912931 -485.748773 
L 316.970502 -490.176596 
L 317.031468 -494.60442 
L 317.094481 -499.032243 
L 317.157602 -503.460067 
L 317.218666 -507.88789 
L 317.782649 -507.88789 
L 317.782649 -507.88789 
L 317.843712 -503.460067 
L 317.906834 -499.032243 
L 317.969846 -494.60442 
L 318.030813 -490.176596 
L 318.088384 -485.748773 
L 318.142166 -481.320949 
L 318.193052 -476.893126 
L 318.243429 -472.465302 
L 318.297142 -468.037479 
L 318.359186 -463.609655 
L 318.435109 -459.181832 
L 318.530281 -454.754008 
L 318.649171 -450.326185 
L 318.794858 -445.898361 
L 318.968824 -441.470538 
L 319.171045 -437.042714 
L 319.400217 -432.614891 
L 319.653979 -428.187067 
L 319.929009 -423.759244 
L 320.221005 -419.33142 
L 320.524657 -414.903597 
L 320.83376 -410.475773 
L 321.141587 -406.04795 
L 321.4415 -401.620126 
L 321.727663 -397.192303 
L 321.995656 -392.764479 
L 322.242813 -388.336656 
L 322.468237 -383.908832 
L 322.672587 -379.481009 
L 322.85779 -375.053185 
L 323.026785 -370.625362 
L 323.183307 -366.197538 
L 323.331589 -361.769715 
L 323.475885 -357.341891 
L 323.619846 -352.914068 
L 323.765942 -348.486244 
L 323.915248 -344.058421 
L 324.067835 -339.630597 
L 324.223756 -335.202774 
L 324.384328 -330.77495 
L 324.553161 -326.347127 
L 324.736405 -321.919303 
L 324.941934 -317.49148 
L 325.177615 -313.063656 
L 325.449231 -308.635833 
L 325.758796 -304.208009 
L 326.103898 -299.780186 
L 326.478317 -295.352362 
L 326.873625 -290.924539 
L 327.281154 -286.496715 
L 327.693596 -282.068892 
L 328.105768 -277.641068 
L 328.514441 -273.213245 
L 328.917577 -268.785421 
L 329.313441 -264.357598 
L 329.700062 -259.929774 
L 330.075236 -255.501951 
L 330.437019 -251.074127 
L 330.784416 -246.646304 
L 331.117947 -242.21848 
L 331.439836 -237.790657 
L 331.753778 -233.362833 
L 332.064397 -228.93501 
L 332.376644 -224.507186 
L 332.695336 -220.079363 
L 333.024944 -215.651539 
L 333.369573 -211.223716 
L 333.732949 -206.795892 
L 334.118214 -202.368069 
L 334.527335 -197.940245 
L 334.960132 -193.512422 
L 335.41308 -189.084598 
L 335.87826 -184.656775 
L 336.342979 -180.228951 
L 336.790499 -175.801128 
L 337.202074 -171.373304 
L 337.560108 -166.945481 
L 337.851855 -162.517657 
L 338.07297 -158.089834 
L 338.230296 -153.66201 
L 338.343661 -149.234187 
L 338.446703 -144.806363 
L 338.586851 -140.37854 
L 338.824348 -135.950716 
L 339.229788 -131.522893 
L 339.879241 -127.095069 
L 340.845942 -122.667246 
L 342.187845 -118.239422 
L 343.93128 -113.811599 
L 346.052342 -109.383775 
L 348.459551 -104.955952 
L 350.983075 -100.528128 
L 353.376817 -96.100305 
L 355.338639 -91.672481 
L 356.550323 -87.244658 
L 356.732681 -82.816834 
L 355.704471 -78.389011 
L 353.429243 -73.961187 
L 350.034969 -69.533364 
z
" id="mddf77ccdf5" style="stroke:#141414;stroke-width:1.5;"/>
    </defs>
    <g clip-path="url(#p1818b85cfe)">
     <use style="fill:#083c1d;stroke:#141414;stroke-width:1.5;" x="0" xlink:href="#mddf77ccdf5" y="540.169"/>
    </g>
   </g>
   <g id="PolyCollection_4">
    <defs>
     <path d="M 429.02746 -69.533364 
L 362.901952 -69.533364 
L 360.409149 -73.930755 
L 359.677102 -78.328147 
L 360.696059 -82.725539 
L 363.161717 -87.122931 
L 366.566834 -91.520322 
L 370.335408 -95.917714 
L 373.951536 -100.315106 
L 377.045725 -104.712497 
L 379.424807 -109.109889 
L 381.054278 -113.507281 
L 382.014178 -117.904673 
L 382.449509 -122.302064 
L 382.528395 -126.699456 
L 382.412336 -131.096848 
L 382.237356 -135.49424 
L 382.103504 -139.891631 
L 382.071145 -144.289023 
L 382.163504 -148.686415 
L 382.374682 -153.083806 
L 382.681034 -157.481198 
L 383.052602 -161.87859 
L 383.461199 -166.275982 
L 383.883212 -170.673373 
L 384.297515 -175.070765 
L 384.680934 -179.468157 
L 385.004559 -183.865549 
L 385.233435 -188.26294 
L 385.330361 -192.660332 
L 385.262575 -197.057724 
L 385.00883 -201.455115 
L 384.564343 -205.852507 
L 383.94207 -210.249899 
L 383.170238 -214.647291 
L 382.287392 -219.044682 
L 381.336821 -223.442074 
L 380.361995 -227.839466 
L 379.403822 -232.236858 
L 378.499561 -236.634249 
L 377.682595 -241.031641 
L 376.982197 -245.429033 
L 376.422783 -249.826424 
L 376.022636 -254.223816 
L 375.792478 -258.621208 
L 375.734269 -263.0186 
L 375.84051 -267.415991 
L 376.094149 -271.813383 
L 376.469115 -276.210775 
L 376.931592 -280.608167 
L 377.442161 -285.005558 
L 377.958944 -289.40295 
L 378.441691 -293.800342 
L 378.856535 -298.197733 
L 379.180794 -302.595125 
L 379.40698 -306.992517 
L 379.544974 -311.389909 
L 379.621521 -315.7873 
L 379.67666 -320.184692 
L 379.757496 -324.582084 
L 379.91046 -328.979476 
L 380.17366 -333.376867 
L 380.570892 -337.774259 
L 381.108468 -342.171651 
L 381.775338 -346.569042 
L 382.546305 -350.966434 
L 383.387443 -355.363826 
L 384.262443 -359.761218 
L 385.138438 -364.158609 
L 385.990157 -368.556001 
L 386.801815 -372.953393 
L 387.566792 -377.350785 
L 388.285698 -381.748176 
L 388.963628 -386.145568 
L 389.607382 -390.54296 
L 390.223194 -394.940351 
L 390.815234 -399.337743 
L 391.384919 -403.735135 
L 391.930932 -408.132527 
L 392.449747 -412.529918 
L 392.936449 -416.92731 
L 393.385685 -421.324702 
L 393.792581 -425.722094 
L 394.153546 -430.119485 
L 394.466888 -434.516877 
L 394.733177 -438.914269 
L 394.955277 -443.31166 
L 395.138007 -447.709052 
L 395.287445 -452.106444 
L 395.410004 -456.503836 
L 395.511515 -460.901227 
L 395.596553 -465.298619 
L 395.668203 -469.696011 
L 395.728259 -474.093402 
L 395.777731 -478.490794 
L 395.817412 -482.888186 
L 395.84831 -487.285578 
L 395.871803 -491.682969 
L 395.889551 -496.080361 
L 395.903244 -500.477753 
L 395.914329 -504.875145 
L 396.015082 -504.875145 
L 396.015082 -504.875145 
L 396.026167 -500.477753 
L 396.03986 -496.080361 
L 396.057609 -491.682969 
L 396.081102 -487.285578 
L 396.111999 -482.888186 
L 396.15168 -478.490794 
L 396.201152 -474.093402 
L 396.261208 -469.696011 
L 396.332858 -465.298619 
L 396.417896 -460.901227 
L 396.519407 -456.503836 
L 396.641966 -452.106444 
L 396.791404 -447.709052 
L 396.974134 -443.31166 
L 397.196234 -438.914269 
L 397.462523 -434.516877 
L 397.775865 -430.119485 
L 398.13683 -425.722094 
L 398.543726 -421.324702 
L 398.992962 -416.92731 
L 399.479665 -412.529918 
L 399.998479 -408.132527 
L 400.544492 -403.735135 
L 401.114177 -399.337743 
L 401.706217 -394.940351 
L 402.322029 -390.54296 
L 402.965783 -386.145568 
L 403.643713 -381.748176 
L 404.362619 -377.350785 
L 405.127597 -372.953393 
L 405.939254 -368.556001 
L 406.790973 -364.158609 
L 407.666968 -359.761218 
L 408.541968 -355.363826 
L 409.383107 -350.966434 
L 410.154073 -346.569042 
L 410.820943 -342.171651 
L 411.358519 -337.774259 
L 411.755751 -333.376867 
L 412.018951 -328.979476 
L 412.171915 -324.582084 
L 412.252751 -320.184692 
L 412.30789 -315.7873 
L 412.384437 -311.389909 
L 412.522431 -306.992517 
L 412.748617 -302.595125 
L 413.072876 -298.197733 
L 413.48772 -293.800342 
L 413.970467 -289.40295 
L 414.48725 -285.005558 
L 414.99782 -280.608167 
L 415.460297 -276.210775 
L 415.835263 -271.813383 
L 416.088901 -267.415991 
L 416.195142 -263.0186 
L 416.136933 -258.621208 
L 415.906775 -254.223816 
L 415.506628 -249.826424 
L 414.947214 -245.429033 
L 414.246817 -241.031641 
L 413.42985 -236.634249 
L 412.525589 -232.236858 
L 411.567416 -227.839466 
L 410.59259 -223.442074 
L 409.642019 -219.044682 
L 408.759173 -214.647291 
L 407.987341 -210.249899 
L 407.365068 -205.852507 
L 406.920582 -201.455115 
L 406.666836 -197.057724 
L 406.59905 -192.660332 
L 406.695977 -188.26294 
L 406.924852 -183.865549 
L 407.248477 -179.468157 
L 407.631896 -175.070765 
L 408.046199 -170.673373 
L 408.468212 -166.275982 
L 408.876809 -161.87859 
L 409.248377 -157.481198 
L 409.554729 -153.083806 
L 409.765907 -148.686415 
L 409.858266 -144.289023 
L 409.825907 -139.891631 
L 409.692055 -135.49424 
L 409.517076 -131.096848 
L 409.401016 -126.699456 
L 409.479902 -122.302064 
L 409.915233 -117.904673 
L 410.875134 -113.507281 
L 412.504604 -109.109889 
L 414.883686 -104.712497 
L 417.977875 -100.315106 
L 421.594003 -95.917714 
L 425.362578 -91.520322 
L 428.767695 -87.122931 
L 431.233352 -82.725539 
L 432.25231 -78.328147 
L 431.520263 -73.930755 
L 429.02746 -69.533364 
z
" id="mc64d76e79e" style="stroke:#141414;stroke-width:1.5;"/>
    </defs>
    <g clip-path="url(#p1818b85cfe)">
     <use style="fill:#0e5f2f;stroke:#141414;stroke-width:1.5;" x="0" xlink:href="#mc64d76e79e" y="540.169"/>
    </g>
   </g>
   <g id="PolyCollection_5">
    <defs>
     <path d="M 546.409708 -69.533364 
L 480.911848 -69.533364 
L 477.471645 -73.991619 
L 475.261043 -78.449874 
L 474.428754 -82.908129 
L 474.934751 -87.366385 
L 476.569293 -91.82464 
L 479.005351 -96.282895 
L 481.867328 -100.741151 
L 484.797279 -105.199406 
L 487.504438 -109.657661 
L 489.791543 -114.115916 
L 491.558798 -118.574172 
L 492.791094 -123.032427 
L 493.535851 -127.490682 
L 493.878332 -131.948938 
L 493.91954 -136.407193 
L 493.759699 -140.865448 
L 493.48831 -145.323703 
L 493.180044 -149.781959 
L 492.894559 -154.240214 
L 492.677906 -158.698469 
L 492.563589 -163.156725 
L 492.572374 -167.61498 
L 492.711241 -172.073235 
L 492.97274 -176.53149 
L 493.336233 -180.989746 
L 493.771763 -185.448001 
L 494.246184 -189.906256 
L 494.73001 -194.364511 
L 495.202974 -198.822767 
L 495.656633 -203.281022 
L 496.09339 -207.739277 
L 496.522636 -212.197533 
L 496.955568 -216.655788 
L 497.400553 -221.114043 
L 497.860354 -225.572298 
L 498.331669 -230.030554 
L 498.806542 -234.488809 
L 499.274701 -238.947064 
L 499.72587 -243.40532 
L 500.151453 -247.863575 
L 500.545474 -252.32183 
L 500.905011 -256.780085 
L 501.230402 -261.238341 
L 501.525407 -265.696596 
L 501.797177 -270.154851 
L 502.055796 -274.613107 
L 502.313077 -279.071362 
L 502.58059 -283.529617 
L 502.86718 -287.987872 
L 503.176577 -292.446128 
L 503.505867 -296.904383 
L 503.845477 -301.362638 
L 504.180972 -305.820893 
L 504.4964 -310.279149 
L 504.778407 -314.737404 
L 505.020008 -319.195659 
L 505.222933 -323.653915 
L 505.397853 -328.11217 
L 505.562358 -332.570425 
L 505.737235 -337.02868 
L 505.941984 -341.486936 
L 506.190745 -345.945191 
L 506.489607 -350.403446 
L 506.835891 -354.861702 
L 507.219458 -359.319957 
L 507.625525 -363.778212 
L 508.038125 -368.236467 
L 508.443231 -372.694723 
L 508.830768 -377.152978 
L 509.195221 -381.611233 
L 509.534993 -386.069489 
L 509.851053 -390.527744 
L 510.145473 -394.985999 
L 510.420327 -399.444254 
L 510.677125 -403.90251 
L 510.916749 -408.360765 
L 511.139704 -412.81902 
L 511.346498 -417.277275 
L 511.537982 -421.735531 
L 511.715553 -426.193786 
L 511.881137 -430.652041 
L 512.036962 -435.110297 
L 512.185144 -439.568552 
L 512.32722 -444.026807 
L 512.463744 -448.485062 
L 512.594085 -452.943318 
L 512.716487 -457.401573 
L 512.828411 -461.859828 
L 512.92709 -466.318084 
L 513.010222 -470.776339 
L 513.076653 -475.234594 
L 513.126911 -479.692849 
L 513.163422 -484.151105 
L 513.1903 -488.60936 
L 513.212697 -493.067615 
L 513.235816 -497.525871 
L 513.263846 -501.984126 
L 513.29912 -506.442381 
L 513.341745 -510.900636 
L 513.979812 -510.900636 
L 513.979812 -510.900636 
L 514.022436 -506.442381 
L 514.05771 -501.984126 
L 514.08574 -497.525871 
L 514.108859 -493.067615 
L 514.131256 -488.60936 
L 514.158135 -484.151105 
L 514.194645 -479.692849 
L 514.244903 -475.234594 
L 514.311335 -470.776339 
L 514.394467 -466.318084 
L 514.493146 -461.859828 
L 514.605069 -457.401573 
L 514.727472 -452.943318 
L 514.857812 -448.485062 
L 514.994336 -444.026807 
L 515.136412 -439.568552 
L 515.284595 -435.110297 
L 515.440419 -430.652041 
L 515.606004 -426.193786 
L 515.783574 -421.735531 
L 515.975058 -417.277275 
L 516.181852 -412.81902 
L 516.404807 -408.360765 
L 516.644431 -403.90251 
L 516.901229 -399.444254 
L 517.176083 -394.985999 
L 517.470504 -390.527744 
L 517.786563 -386.069489 
L 518.126335 -381.611233 
L 518.490788 -377.152978 
L 518.878326 -372.694723 
L 519.283431 -368.236467 
L 519.696032 -363.778212 
L 520.102098 -359.319957 
L 520.485665 -354.861702 
L 520.831949 -350.403446 
L 521.130811 -345.945191 
L 521.379573 -341.486936 
L 521.584322 -337.02868 
L 521.759198 -332.570425 
L 521.923704 -328.11217 
L 522.098623 -323.653915 
L 522.301548 -319.195659 
L 522.543149 -314.737404 
L 522.825156 -310.279149 
L 523.140584 -305.820893 
L 523.476079 -301.362638 
L 523.815689 -296.904383 
L 524.144979 -292.446128 
L 524.454376 -287.987872 
L 524.740966 -283.529617 
L 525.00848 -279.071362 
L 525.26576 -274.613107 
L 525.524379 -270.154851 
L 525.79615 -265.696596 
L 526.091154 -261.238341 
L 526.416546 -256.780085 
L 526.776082 -252.32183 
L 527.170104 -247.863575 
L 527.595686 -243.40532 
L 528.046855 -238.947064 
L 528.515014 -234.488809 
L 528.989887 -230.030554 
L 529.461202 -225.572298 
L 529.921003 -221.114043 
L 530.365988 -216.655788 
L 530.79892 -212.197533 
L 531.228166 -207.739277 
L 531.664924 -203.281022 
L 532.118582 -198.822767 
L 532.591546 -194.364511 
L 533.075372 -189.906256 
L 533.549793 -185.448001 
L 533.985323 -180.989746 
L 534.348816 -176.53149 
L 534.610316 -172.073235 
L 534.749182 -167.61498 
L 534.757968 -163.156725 
L 534.64365 -158.698469 
L 534.426997 -154.240214 
L 534.141512 -149.781959 
L 533.833246 -145.323703 
L 533.561858 -140.865448 
L 533.402017 -136.407193 
L 533.443224 -131.948938 
L 533.785705 -127.490682 
L 534.530462 -123.032427 
L 535.762758 -118.574172 
L 537.530014 -114.115916 
L 539.817118 -109.657661 
L 542.524277 -105.199406 
L 545.454228 -100.741151 
L 548.316205 -96.282895 
L 550.752263 -91.82464 
L 552.386805 -87.366385 
L 552.892802 -82.908129 
L 552.060513 -78.449874 
L 549.849911 -73.991619 
L 546.409708 -69.533364 
z
" id="m177d453b05" style="stroke:#141414;stroke-width:1.5;"/>
    </defs>
    <g clip-path="url(#p1818b85cfe)">
     <use style="fill:#083c1d;stroke:#141414;stroke-width:1.5;" x="0" xlink:href="#m177d453b05" y="540.169"/>
    </g>
   </g>
   <g id="PolyCollection_6">
    <defs>
     <path d="M 624.251914 -69.533364 
L 559.997739 -69.533364 
L 557.036325 -73.915539 
L 555.607537 -78.297715 
L 555.781141 -82.679891 
L 557.379722 -87.062067 
L 560.043561 -91.444243 
L 563.331469 -95.826419 
L 566.820262 -100.208595 
L 570.173868 -104.59077 
L 573.171169 -108.972946 
L 575.699089 -113.355122 
L 577.726551 -117.737298 
L 579.274549 -122.119474 
L 580.39166 -126.50165 
L 581.137696 -130.883825 
L 581.574159 -135.266001 
L 581.759062 -139.648177 
L 581.744271 -144.030353 
L 581.574511 -148.412529 
L 581.287574 -152.794705 
L 580.915309 -157.17688 
L 580.484818 -161.559056 
L 580.019348 -165.941232 
L 579.538679 -170.323408 
L 579.059169 -174.705584 
L 578.593817 -179.08776 
L 578.152556 -183.469935 
L 577.742733 -187.852111 
L 577.36945 -192.234287 
L 577.035549 -196.616463 
L 576.741302 -200.998639 
L 576.484123 -205.380815 
L 576.258623 -209.76299 
L 576.057037 -214.145166 
L 575.86973 -218.527342 
L 575.685538 -222.909518 
L 575.491991 -227.291694 
L 575.275913 -231.67387 
L 575.024944 -236.056045 
L 574.730107 -240.438221 
L 574.388815 -244.820397 
L 574.007127 -249.202573 
L 573.600134 -253.584749 
L 573.190033 -257.966925 
L 572.802472 -262.349101 
L 572.462533 -266.731276 
L 572.191804 -271.113452 
L 572.007339 -275.495628 
L 571.922316 -279.877804 
L 571.947385 -284.25998 
L 572.091582 -288.642156 
L 572.362108 -293.024331 
L 572.763041 -297.406507 
L 573.293583 -301.788683 
L 573.946543 -306.170859 
L 574.707582 -310.553035 
L 575.555398 -314.935211 
L 576.462901 -319.317386 
L 577.399331 -323.699562 
L 578.33315 -328.081738 
L 579.235354 -332.463914 
L 580.082568 -336.84609 
L 580.859236 -341.228266 
L 581.558412 -345.610441 
L 582.181134 -349.992617 
L 582.734734 -354.374793 
L 583.230725 -358.756969 
L 583.682744 -363.139145 
L 584.104821 -367.521321 
L 584.509927 -371.903496 
L 584.908684 -376.285672 
L 585.308228 -380.667848 
L 585.711436 -385.050024 
L 586.11683 -389.4322 
L 586.519385 -393.814376 
L 586.912159 -398.196552 
L 587.288264 -402.578727 
L 587.642551 -406.960903 
L 587.972475 -411.343079 
L 588.278026 -415.725255 
L 588.560976 -420.107431 
L 588.823966 -424.489607 
L 589.069832 -428.871782 
L 589.301314 -433.253958 
L 589.521025 -437.636134 
L 589.731413 -442.01831 
L 589.934579 -446.400486 
L 590.131975 -450.782662 
L 590.324151 -455.164837 
L 590.51074 -459.547013 
L 590.690721 -463.929189 
L 590.862852 -468.311365 
L 591.026052 -472.693541 
L 591.17956 -477.075717 
L 591.322854 -481.457892 
L 591.455424 -485.840068 
L 591.576597 -490.222244 
L 591.685525 -494.60442 
L 591.781352 -498.986596 
L 591.863476 -503.368772 
L 592.386177 -503.368772 
L 592.386177 -503.368772 
L 592.468301 -498.986596 
L 592.564128 -494.60442 
L 592.673056 -490.222244 
L 592.794229 -485.840068 
L 592.926799 -481.457892 
L 593.070093 -477.075717 
L 593.223602 -472.693541 
L 593.386801 -468.311365 
L 593.558932 -463.929189 
L 593.738913 -459.547013 
L 593.925502 -455.164837 
L 594.117678 -450.782662 
L 594.315074 -446.400486 
L 594.51824 -442.01831 
L 594.728628 -437.636134 
L 594.948339 -433.253958 
L 595.179821 -428.871782 
L 595.425687 -424.489607 
L 595.688677 -420.107431 
L 595.971628 -415.725255 
L 596.277178 -411.343079 
L 596.607103 -406.960903 
L 596.961389 -402.578727 
L 597.337494 -398.196552 
L 597.730268 -393.814376 
L 598.132824 -389.4322 
L 598.538217 -385.050024 
L 598.941425 -380.667848 
L 599.340969 -376.285672 
L 599.739726 -371.903496 
L 600.144832 -367.521321 
L 600.566909 -363.139145 
L 601.018928 -358.756969 
L 601.514919 -354.374793 
L 602.068519 -349.992617 
L 602.691241 -345.610441 
L 603.390417 -341.228266 
L 604.167085 -336.84609 
L 605.0143 -332.463914 
L 605.916503 -328.081738 
L 606.850322 -323.699562 
L 607.786752 -319.317386 
L 608.694255 -314.935211 
L 609.542071 -310.553035 
L 610.30311 -306.170859 
L 610.95607 -301.788683 
L 611.486612 -297.406507 
L 611.887545 -293.024331 
L 612.158071 -288.642156 
L 612.302268 -284.25998 
L 612.327337 -279.877804 
L 612.242314 -275.495628 
L 612.057849 -271.113452 
L 611.78712 -266.731276 
L 611.447181 -262.349101 
L 611.05962 -257.966925 
L 610.649519 -253.584749 
L 610.242526 -249.202573 
L 609.860838 -244.820397 
L 609.519546 -240.438221 
L 609.22471 -236.056045 
L 608.97374 -231.67387 
L 608.757662 -227.291694 
L 608.564115 -222.909518 
L 608.379923 -218.527342 
L 608.192616 -214.145166 
L 607.99103 -209.76299 
L 607.76553 -205.380815 
L 607.508351 -200.998639 
L 607.214104 -196.616463 
L 606.880203 -192.234287 
L 606.50692 -187.852111 
L 606.097097 -183.469935 
L 605.655836 -179.08776 
L 605.190484 -174.705584 
L 604.710974 -170.323408 
L 604.230305 -165.941232 
L 603.764835 -161.559056 
L 603.334344 -157.17688 
L 602.962079 -152.794705 
L 602.675142 -148.412529 
L 602.505382 -144.030353 
L 602.490591 -139.648177 
L 602.675494 -135.266001 
L 603.111958 -130.883825 
L 603.857993 -126.50165 
L 604.975104 -122.119474 
L 606.523102 -117.737298 
L 608.550564 -113.355122 
L 611.078484 -108.972946 
L 614.075785 -104.59077 
L 617.429392 -100.208595 
L 620.918185 -95.826419 
L 624.206092 -91.444243 
L 626.869931 -87.062067 
L 628.468512 -82.679891 
L 628.642116 -78.297715 
L 627.213328 -73.915539 
L 624.251914 -69.533364 
z
" id="m918ebf3092" style="stroke:#141414;stroke-width:1.5;"/>
    </defs>
    <g clip-path="url(#p1818b85cfe)">
     <use style="fill:#0e5f2f;stroke:#141414;stroke-width:1.5;" x="0" xlink:href="#m918ebf3092" y="540.169"/>
    </g>
   </g>
   <g id="patch_3">
    <path clip-path="url(#p1818b85cfe)" d="M 160.57256 470.635636 
L 160.57256 470.635636 
L 160.57256 470.635636 
L 160.57256 470.635636 
z
" style="fill:#083c1d;stroke:#141414;stroke-linejoin:miter;stroke-width:0.75;"/>
   </g>
   <g id="patch_4">
    <path clip-path="url(#p1818b85cfe)" d="M 160.57256 470.635636 
L 160.57256 470.635636 
L 160.57256 470.635636 
L 160.57256 470.635636 
z
" style="fill:#0e5f2f;stroke:#141414;stroke-linejoin:miter;stroke-width:0.75;"/>
   </g>
   <g id="line2d_1">
    <path clip-path="url(#p1818b85cfe)" d="M 121.340536 470.635636 
L 121.340536 208.526744 
" style="fill:none;stroke:#141414;stroke-linecap:round;stroke-width:1.5;"/>
   </g>
   <g id="line2d_2">
    <path clip-path="url(#p1818b85cfe)" d="M 121.340536 445.780483 
L 121.340536 350.125801 
" style="fill:none;stroke:#141414;stroke-linecap:round;stroke-width:4.5;"/>
   </g>
   <g id="line2d_3">
    <path clip-path="url(#p1818b85cfe)" d="M 199.804585 470.635636 
L 199.804585 75.212738 
" style="fill:none;stroke:#141414;stroke-linecap:round;stroke-width:1.5;"/>
   </g>
   <g id="line2d_4">
    <path clip-path="url(#p1818b85cfe)" d="M 199.804585 440.508177 
L 199.804585 255.224305 
" style="fill:none;stroke:#141414;stroke-linecap:round;stroke-width:4.5;"/>
   </g>
   <g id="line2d_5">
    <path clip-path="url(#p1818b85cfe)" d="M 317.500657 470.635636 
L 317.500657 80.485044 
" style="fill:none;stroke:#141414;stroke-linecap:round;stroke-width:1.5;"/>
   </g>
   <g id="line2d_6">
    <path clip-path="url(#p1818b85cfe)" d="M 317.500657 451.052788 
L 317.500657 302.675053 
" style="fill:none;stroke:#141414;stroke-linecap:round;stroke-width:4.5;"/>
   </g>
   <g id="line2d_7">
    <path clip-path="url(#p1818b85cfe)" d="M 395.964706 470.635636 
L 395.964706 35.293855 
" style="fill:none;stroke:#141414;stroke-linecap:round;stroke-width:1.5;"/>
   </g>
   <g id="line2d_8">
    <path clip-path="url(#p1818b85cfe)" d="M 395.964706 451.052788 
L 395.964706 247.692441 
" style="fill:none;stroke:#141414;stroke-linecap:round;stroke-width:4.5;"/>
   </g>
   <g id="line2d_9">
    <path clip-path="url(#p1818b85cfe)" d="M 513.660778 470.635636 
L 513.660778 72.953179 
" style="fill:none;stroke:#141414;stroke-linecap:round;stroke-width:1.5;"/>
   </g>
   <g id="line2d_10">
    <path clip-path="url(#p1818b85cfe)" d="M 513.660778 451.052788 
L 513.660778 298.909121 
" style="fill:none;stroke:#141414;stroke-linecap:round;stroke-width:4.5;"/>
   </g>
   <g id="line2d_11">
    <path clip-path="url(#p1818b85cfe)" d="M 592.124827 470.635636 
L 592.124827 36.800228 
" style="fill:none;stroke:#141414;stroke-linecap:round;stroke-width:1.5;"/>
   </g>
   <g id="line2d_12">
    <path clip-path="url(#p1818b85cfe)" d="M 592.124827 447.286856 
L 592.124827 249.952 
" style="fill:none;stroke:#141414;stroke-linecap:round;stroke-width:4.5;"/>
   </g>
   <g id="patch_5">
    <path d="M 62.4925 492.704 
L 62.4925 7.2 
" style="fill:none;stroke:#262626;stroke-linecap:square;stroke-linejoin:miter;stroke-width:0.8;"/>
   </g>
   <g id="patch_6">
    <path d="M 62.4925 492.704 
L 650.972863 492.704 
" style="fill:none;stroke:#262626;stroke-linecap:square;stroke-linejoin:miter;stroke-width:0.8;"/>
   </g>
   <g id="PathCollection_1">
    <defs>
     <path d="M 0 1.5 
C 0.397805 1.5 0.77937 1.341951 1.06066 1.06066 
C 1.341951 0.77937 1.5 0.397805 1.5 0 
C 1.5 -0.397805 1.341951 -0.77937 1.06066 -1.06066 
C 0.77937 -1.341951 0.397805 -1.5 0 -1.5 
C -0.397805 -1.5 -0.77937 -1.341951 -1.06066 -1.06066 
C -1.341951 -0.77937 -1.5 -0.397805 -1.5 0 
C -1.5 0.397805 -1.341951 0.77937 -1.06066 1.06066 
C -0.77937 1.341951 -0.397805 1.5 0 1.5 
z
" id="m797f0402be" style="stroke:#141414;"/>
    </defs>
    <g clip-path="url(#p1818b85cfe)">
     <use style="fill:#ffffff;stroke:#141414;" x="121.340536" xlink:href="#m797f0402be" y="408.874346"/>
    </g>
   </g>
   <g id="PathCollection_2">
    <g clip-path="url(#p1818b85cfe)">
     <use style="fill:#ffffff;stroke:#141414;" x="199.804585" xlink:href="#m797f0402be" y="365.18953"/>
    </g>
   </g>
   <g id="PathCollection_3">
    <g clip-path="url(#p1818b85cfe)">
     <use style="fill:#ffffff;stroke:#141414;" x="317.500657" xlink:href="#m797f0402be" y="387.785124"/>
    </g>
   </g>
   <g id="PathCollection_4">
    <g clip-path="url(#p1818b85cfe)">
     <use style="fill:#ffffff;stroke:#141414;" x="395.964706" xlink:href="#m797f0402be" y="327.530207"/>
    </g>
   </g>
   <g id="PathCollection_5">
    <g clip-path="url(#p1818b85cfe)">
     <use style="fill:#ffffff;stroke:#141414;" x="513.660778" xlink:href="#m797f0402be" y="379.500073"/>
    </g>
   </g>
   <g id="PathCollection_6">
    <g clip-path="url(#p1818b85cfe)">
     <use style="fill:#ffffff;stroke:#141414;" x="592.124827" xlink:href="#m797f0402be" y="332.802512"/>
    </g>
   </g>
  </g>
  <g id="legend_1">
   <g id="text_13">
    <!-- workday -->
    <defs>
     <path d="M 16.15625 0 
L 0.296875 51.859375 
L 9.375 51.859375 
L 17.625 21.921875 
L 20.703125 10.796875 
Q 20.90625 11.625 23.390625 21.484375 
L 31.640625 51.859375 
L 40.671875 51.859375 
L 48.4375 21.78125 
L 51.03125 11.859375 
L 54 21.875 
L 62.890625 51.859375 
L 71.4375 51.859375 
L 55.21875 0 
L 46.09375 0 
L 37.84375 31.0625 
L 35.84375 39.890625 
L 25.34375 0 
z
" id="ArialMT-119"/>
     <path d="M 6.640625 0 
L 6.640625 71.578125 
L 15.4375 71.578125 
L 15.4375 30.765625 
L 36.234375 51.859375 
L 47.609375 51.859375 
L 27.78125 32.625 
L 49.609375 0 
L 38.765625 0 
L 21.625 26.515625 
L 15.4375 20.5625 
L 15.4375 0 
z
" id="ArialMT-107"/>
     <path d="M 40.4375 6.390625 
Q 35.546875 2.25 31.03125 0.53125 
Q 26.515625 -1.171875 21.34375 -1.171875 
Q 12.796875 -1.171875 8.203125 3 
Q 3.609375 7.171875 3.609375 13.671875 
Q 3.609375 17.484375 5.34375 20.625 
Q 7.078125 23.78125 9.890625 25.6875 
Q 12.703125 27.59375 16.21875 28.5625 
Q 18.796875 29.25 24.03125 29.890625 
Q 34.671875 31.15625 39.703125 32.90625 
Q 39.75 34.71875 39.75 35.203125 
Q 39.75 40.578125 37.25 42.78125 
Q 33.890625 45.75 27.25 45.75 
Q 21.046875 45.75 18.09375 43.578125 
Q 15.140625 41.40625 13.71875 35.890625 
L 5.125 37.0625 
Q 6.296875 42.578125 8.984375 45.96875 
Q 11.671875 49.359375 16.75 51.1875 
Q 21.828125 53.03125 28.515625 53.03125 
Q 35.15625 53.03125 39.296875 51.46875 
Q 43.453125 49.90625 45.40625 47.53125 
Q 47.359375 45.171875 48.140625 41.546875 
Q 48.578125 39.3125 48.578125 33.453125 
L 48.578125 21.734375 
Q 48.578125 9.46875 49.140625 6.21875 
Q 49.703125 2.984375 51.375 0 
L 42.1875 0 
Q 40.828125 2.734375 40.4375 6.390625 
z
M 39.703125 26.03125 
Q 34.90625 24.078125 25.34375 22.703125 
Q 19.921875 21.921875 17.671875 20.9375 
Q 15.4375 19.96875 14.203125 18.09375 
Q 12.984375 16.21875 12.984375 13.921875 
Q 12.984375 10.40625 15.640625 8.0625 
Q 18.3125 5.71875 23.4375 5.71875 
Q 28.515625 5.71875 32.46875 7.9375 
Q 36.421875 10.15625 38.28125 14.015625 
Q 39.703125 17 39.703125 22.796875 
z
" id="ArialMT-97"/>
     <path d="M 6.203125 -19.96875 
L 5.21875 -11.71875 
Q 8.109375 -12.5 10.25 -12.5 
Q 13.1875 -12.5 14.9375 -11.515625 
Q 16.703125 -10.546875 17.828125 -8.796875 
Q 18.65625 -7.46875 20.515625 -2.25 
Q 20.75 -1.515625 21.296875 -0.09375 
L 1.609375 51.859375 
L 11.078125 51.859375 
L 21.875 21.828125 
Q 23.96875 16.109375 25.640625 9.8125 
Q 27.15625 15.875 29.25 21.625 
L 40.328125 51.859375 
L 49.125 51.859375 
L 29.390625 -0.875 
Q 26.21875 -9.421875 24.46875 -12.640625 
Q 22.125 -17 19.09375 -19.015625 
Q 16.0625 -21.046875 11.859375 -21.046875 
Q 9.328125 -21.046875 6.203125 -19.96875 
z
" id="ArialMT-121"/>
    </defs>
    <g style="fill:#262626;" transform="translate(729.5455 251.4945)scale(0.16 -0.16)">
     <use xlink:href="#ArialMT-119"/>
     <use x="72.216797" xlink:href="#ArialMT-111"/>
     <use x="127.832031" xlink:href="#ArialMT-114"/>
     <use x="161.132812" xlink:href="#ArialMT-107"/>
     <use x="211.132812" xlink:href="#ArialMT-100"/>
     <use x="266.748047" xlink:href="#ArialMT-97"/>
     <use x="322.363281" xlink:href="#ArialMT-121"/>
    </g>
   </g>
   <g id="patch_7">
    <path d="M 732.48425 274.3145 
L 764.48425 274.3145 
L 764.48425 263.1145 
L 732.48425 263.1145 
z
" style="fill:#083c1d;stroke:#141414;stroke-linejoin:miter;stroke-width:0.75;"/>
   </g>
   <g id="text_14">
    <!-- 0 -->
    <g style="fill:#262626;" transform="translate(777.28425 274.3145)scale(0.16 -0.16)">
     <use xlink:href="#ArialMT-48"/>
    </g>
   </g>
   <g id="patch_8">
    <path d="M 732.48425 296.947 
L 764.48425 296.947 
L 764.48425 285.747 
L 732.48425 285.747 
z
" style="fill:#0e5f2f;stroke:#141414;stroke-linejoin:miter;stroke-width:0.75;"/>
   </g>
   <g id="text_15">
    <!-- 1 -->
    <g style="fill:#262626;" transform="translate(777.28425 296.947)scale(0.16 -0.16)">
     <use xlink:href="#ArialMT-49"/>
    </g>
   </g>
  </g>
 </g>
 <defs>
  <clipPath id="p1818b85cfe">
   <rect height="485.504" width="588.480363" x="62.4925" y="7.2"/>
  </clipPath>
 </defs>
</svg>
