<?xml version="1.0" encoding="utf-8" standalone="no"?>
<!DOCTYPE svg PUBLIC "-//W3C//DTD SVG 1.1//EN"
  "http://www.w3.org/Graphics/SVG/1.1/DTD/svg11.dtd">
<!-- Created with matplotlib (https://matplotlib.org/) -->
<svg height="537.898851pt" version="1.1" viewBox="0 0 791.118 537.898851" width="791.118pt" xmlns="http://www.w3.org/2000/svg" xmlns:xlink="http://www.w3.org/1999/xlink">
 <defs>
  <style type="text/css">
*{stroke-linecap:butt;stroke-linejoin:round;white-space:pre;}
  </style>
 </defs>
 <g id="figure_1">
  <g id="patch_1">
   <path d="M 0 537.898851 
L 791.118 537.898851 
L 791.118 0 
L 0 0 
z
" style="fill:#ffffff;"/>
  </g>
  <g id="axes_1">
   <g id="patch_2">
    <path d="M 71.39 490.433851 
L 605.559648 490.433851 
L 605.559648 7.2 
L 71.39 7.2 
z
" style="fill:#ffffff;"/>
   </g>
   <g id="matplotlib.axis_1">
    <g id="xtick_1">
     <g id="text_1">
      <!-- 1003-116-1 -->
      <defs>
       <path d="M 37.25 0 
L 28.46875 0 
L 28.46875 56 
Q 25.296875 52.984375 20.140625 49.953125 
Q 14.984375 46.921875 10.890625 45.40625 
L 10.890625 53.90625 
Q 18.265625 57.375 23.78125 62.296875 
Q 29.296875 67.234375 31.59375 71.875 
L 37.25 71.875 
z
" id="ArialMT-49"/>
       <path d="M 4.15625 35.296875 
Q 4.15625 48 6.765625 55.734375 
Q 9.375 63.484375 14.515625 67.671875 
Q 19.671875 71.875 27.484375 71.875 
Q 33.25 71.875 37.59375 69.546875 
Q 41.9375 67.234375 44.765625 62.859375 
Q 47.609375 58.5 49.21875 52.21875 
Q 50.828125 45.953125 50.828125 35.296875 
Q 50.828125 22.703125 48.234375 14.96875 
Q 45.65625 7.234375 40.5 3 
Q 35.359375 -1.21875 27.484375 -1.21875 
Q 17.140625 -1.21875 11.234375 6.203125 
Q 4.15625 15.140625 4.15625 35.296875 
z
M 13.1875 35.296875 
Q 13.1875 17.671875 17.3125 11.828125 
Q 21.4375 6 27.484375 6 
Q 33.546875 6 37.671875 11.859375 
Q 41.796875 17.71875 41.796875 35.296875 
Q 41.796875 52.984375 37.671875 58.78125 
Q 33.546875 64.59375 27.390625 64.59375 
Q 21.34375 64.59375 17.71875 59.46875 
Q 13.1875 52.9375 13.1875 35.296875 
z
" id="ArialMT-48"/>
       <path d="M 4.203125 18.890625 
L 12.984375 20.0625 
Q 14.5 12.59375 18.140625 9.296875 
Q 21.78125 6 27 6 
Q 33.203125 6 37.46875 10.296875 
Q 41.75 14.59375 41.75 20.953125 
Q 41.75 27 37.796875 30.921875 
Q 33.84375 34.859375 27.734375 34.859375 
Q 25.25 34.859375 21.53125 33.890625 
L 22.515625 41.609375 
Q 23.390625 41.5 23.921875 41.5 
Q 29.546875 41.5 34.03125 44.421875 
Q 38.53125 47.359375 38.53125 53.46875 
Q 38.53125 58.296875 35.25 61.46875 
Q 31.984375 64.65625 26.8125 64.65625 
Q 21.6875 64.65625 18.265625 61.421875 
Q 14.84375 58.203125 13.875 51.765625 
L 5.078125 53.328125 
Q 6.6875 62.15625 12.390625 67.015625 
Q 18.109375 71.875 26.609375 71.875 
Q 32.46875 71.875 37.390625 69.359375 
Q 42.328125 66.84375 44.9375 62.5 
Q 47.5625 58.15625 47.5625 53.265625 
Q 47.5625 48.640625 45.0625 44.828125 
Q 42.578125 41.015625 37.703125 38.765625 
Q 44.046875 37.3125 47.5625 32.6875 
Q 51.078125 28.078125 51.078125 21.140625 
Q 51.078125 11.765625 44.234375 5.25 
Q 37.40625 -1.265625 26.953125 -1.265625 
Q 17.53125 -1.265625 11.296875 4.34375 
Q 5.078125 9.96875 4.203125 18.890625 
z
" id="ArialMT-51"/>
       <path d="M 3.171875 21.484375 
L 3.171875 30.328125 
L 30.171875 30.328125 
L 30.171875 21.484375 
z
" id="ArialMT-45"/>
       <path d="M 49.75 54.046875 
L 41.015625 53.375 
Q 39.84375 58.546875 37.703125 60.890625 
Q 34.125 64.65625 28.90625 64.65625 
Q 24.703125 64.65625 21.53125 62.3125 
Q 17.390625 59.28125 14.984375 53.46875 
Q 12.59375 47.65625 12.5 36.921875 
Q 15.671875 41.75 20.265625 44.09375 
Q 24.859375 46.4375 29.890625 46.4375 
Q 38.671875 46.4375 44.84375 39.96875 
Q 51.03125 33.5 51.03125 23.25 
Q 51.03125 16.5 48.125 10.71875 
Q 45.21875 4.9375 40.140625 1.859375 
Q 35.0625 -1.21875 28.609375 -1.21875 
Q 17.625 -1.21875 10.6875 6.859375 
Q 3.765625 14.9375 3.765625 33.5 
Q 3.765625 54.25 11.421875 63.671875 
Q 18.109375 71.875 29.4375 71.875 
Q 37.890625 71.875 43.28125 67.140625 
Q 48.6875 62.40625 49.75 54.046875 
z
M 13.875 23.1875 
Q 13.875 18.65625 15.796875 14.5 
Q 17.71875 10.359375 21.1875 8.171875 
Q 24.65625 6 28.46875 6 
Q 34.03125 6 38.03125 10.484375 
Q 42.046875 14.984375 42.046875 22.703125 
Q 42.046875 30.125 38.078125 34.390625 
Q 34.125 38.671875 28.125 38.671875 
Q 22.171875 38.671875 18.015625 34.390625 
Q 13.875 30.125 13.875 23.1875 
z
" id="ArialMT-54"/>
      </defs>
      <g style="fill:#262626;" transform="translate(83.898215 508.886351)scale(0.16 -0.16)">
       <use xlink:href="#ArialMT-49"/>
       <use x="55.615234" xlink:href="#ArialMT-48"/>
       <use x="111.230469" xlink:href="#ArialMT-48"/>
       <use x="166.845703" xlink:href="#ArialMT-51"/>
       <use x="222.460938" xlink:href="#ArialMT-45"/>
       <use x="255.761719" xlink:href="#ArialMT-49"/>
       <use x="311.267578" xlink:href="#ArialMT-49"/>
       <use x="366.882812" xlink:href="#ArialMT-54"/>
       <use x="422.498047" xlink:href="#ArialMT-45"/>
       <use x="455.798828" xlink:href="#ArialMT-49"/>
      </g>
     </g>
    </g>
    <g id="xtick_2">
     <g id="text_2">
      <!-- 1004-136-1 -->
      <defs>
       <path d="M 32.328125 0 
L 32.328125 17.140625 
L 1.265625 17.140625 
L 1.265625 25.203125 
L 33.9375 71.578125 
L 41.109375 71.578125 
L 41.109375 25.203125 
L 50.78125 25.203125 
L 50.78125 17.140625 
L 41.109375 17.140625 
L 41.109375 0 
z
M 32.328125 25.203125 
L 32.328125 57.46875 
L 9.90625 25.203125 
z
" id="ArialMT-52"/>
      </defs>
      <g style="fill:#262626;" transform="translate(190.723394 508.886351)scale(0.16 -0.16)">
       <use xlink:href="#ArialMT-49"/>
       <use x="55.615234" xlink:href="#ArialMT-48"/>
       <use x="111.230469" xlink:href="#ArialMT-48"/>
       <use x="166.845703" xlink:href="#ArialMT-52"/>
       <use x="222.460938" xlink:href="#ArialMT-45"/>
       <use x="255.761719" xlink:href="#ArialMT-49"/>
       <use x="311.376953" xlink:href="#ArialMT-51"/>
       <use x="366.992188" xlink:href="#ArialMT-54"/>
       <use x="422.607422" xlink:href="#ArialMT-45"/>
       <use x="455.908203" xlink:href="#ArialMT-49"/>
      </g>
     </g>
    </g>
    <g id="xtick_3">
     <g id="text_3">
      <!-- 1025-116-1 -->
      <defs>
       <path d="M 50.34375 8.453125 
L 50.34375 0 
L 3.03125 0 
Q 2.9375 3.171875 4.046875 6.109375 
Q 5.859375 10.9375 9.828125 15.625 
Q 13.8125 20.3125 21.34375 26.46875 
Q 33.015625 36.03125 37.109375 41.625 
Q 41.21875 47.21875 41.21875 52.203125 
Q 41.21875 57.421875 37.46875 61 
Q 33.734375 64.59375 27.734375 64.59375 
Q 21.390625 64.59375 17.578125 60.78125 
Q 13.765625 56.984375 13.71875 50.25 
L 4.6875 51.171875 
Q 5.609375 61.28125 11.65625 66.578125 
Q 17.71875 71.875 27.9375 71.875 
Q 38.234375 71.875 44.234375 66.15625 
Q 50.25 60.453125 50.25 52 
Q 50.25 47.703125 48.484375 43.546875 
Q 46.734375 39.40625 42.65625 34.8125 
Q 38.578125 30.21875 29.109375 22.21875 
Q 21.1875 15.578125 18.9375 13.203125 
Q 16.703125 10.84375 15.234375 8.453125 
z
" id="ArialMT-50"/>
       <path d="M 4.15625 18.75 
L 13.375 19.53125 
Q 14.40625 12.796875 18.140625 9.390625 
Q 21.875 6 27.15625 6 
Q 33.5 6 37.890625 10.78125 
Q 42.28125 15.578125 42.28125 23.484375 
Q 42.28125 31 38.0625 35.34375 
Q 33.84375 39.703125 27 39.703125 
Q 22.75 39.703125 19.328125 37.765625 
Q 15.921875 35.84375 13.96875 32.765625 
L 5.71875 33.84375 
L 12.640625 70.609375 
L 48.25 70.609375 
L 48.25 62.203125 
L 19.671875 62.203125 
L 15.828125 42.96875 
Q 22.265625 47.46875 29.34375 47.46875 
Q 38.71875 47.46875 45.15625 40.96875 
Q 51.609375 34.46875 51.609375 24.265625 
Q 51.609375 14.546875 45.953125 7.46875 
Q 39.0625 -1.21875 27.15625 -1.21875 
Q 17.390625 -1.21875 11.203125 4.25 
Q 5.03125 9.71875 4.15625 18.75 
z
" id="ArialMT-53"/>
      </defs>
      <g style="fill:#262626;" transform="translate(297.566074 508.886351)scale(0.16 -0.16)">
       <use xlink:href="#ArialMT-49"/>
       <use x="55.615234" xlink:href="#ArialMT-48"/>
       <use x="111.230469" xlink:href="#ArialMT-50"/>
       <use x="166.845703" xlink:href="#ArialMT-53"/>
       <use x="222.460938" xlink:href="#ArialMT-45"/>
       <use x="255.761719" xlink:href="#ArialMT-49"/>
       <use x="311.267578" xlink:href="#ArialMT-49"/>
       <use x="366.882812" xlink:href="#ArialMT-54"/>
       <use x="422.498047" xlink:href="#ArialMT-45"/>
       <use x="455.798828" xlink:href="#ArialMT-49"/>
      </g>
     </g>
    </g>
    <g id="xtick_4">
     <g id="text_4">
      <!-- 1026-136-1 -->
      <g style="fill:#262626;" transform="translate(404.391254 508.886351)scale(0.16 -0.16)">
       <use xlink:href="#ArialMT-49"/>
       <use x="55.615234" xlink:href="#ArialMT-48"/>
       <use x="111.230469" xlink:href="#ArialMT-50"/>
       <use x="166.845703" xlink:href="#ArialMT-54"/>
       <use x="222.460938" xlink:href="#ArialMT-45"/>
       <use x="255.761719" xlink:href="#ArialMT-49"/>
       <use x="311.376953" xlink:href="#ArialMT-51"/>
       <use x="366.992188" xlink:href="#ArialMT-54"/>
       <use x="422.607422" xlink:href="#ArialMT-45"/>
       <use x="455.908203" xlink:href="#ArialMT-49"/>
      </g>
     </g>
    </g>
    <g id="xtick_5">
     <g id="text_5">
      <!-- 1040-236-1 -->
      <g style="fill:#262626;" transform="translate(511.225183 508.886351)scale(0.16 -0.16)">
       <use xlink:href="#ArialMT-49"/>
       <use x="55.615234" xlink:href="#ArialMT-48"/>
       <use x="111.230469" xlink:href="#ArialMT-52"/>
       <use x="166.845703" xlink:href="#ArialMT-48"/>
       <use x="222.460938" xlink:href="#ArialMT-45"/>
       <use x="255.761719" xlink:href="#ArialMT-50"/>
       <use x="311.376953" xlink:href="#ArialMT-51"/>
       <use x="366.992188" xlink:href="#ArialMT-54"/>
       <use x="422.607422" xlink:href="#ArialMT-45"/>
       <use x="455.908203" xlink:href="#ArialMT-49"/>
      </g>
     </g>
    </g>
    <g id="text_6">
     <!-- Counter id -->
     <defs>
      <path d="M 58.796875 25.09375 
L 68.265625 22.703125 
Q 65.28125 11.03125 57.546875 4.90625 
Q 49.8125 -1.21875 38.625 -1.21875 
Q 27.046875 -1.21875 19.796875 3.484375 
Q 12.546875 8.203125 8.765625 17.140625 
Q 4.984375 26.078125 4.984375 36.328125 
Q 4.984375 47.515625 9.25 55.828125 
Q 13.53125 64.15625 21.40625 68.46875 
Q 29.296875 72.796875 38.765625 72.796875 
Q 49.515625 72.796875 56.828125 67.328125 
Q 64.15625 61.859375 67.046875 51.953125 
L 57.71875 49.75 
Q 55.21875 57.5625 50.484375 61.125 
Q 45.75 64.703125 38.578125 64.703125 
Q 30.328125 64.703125 24.78125 60.734375 
Q 19.234375 56.78125 16.984375 50.109375 
Q 14.75 43.453125 14.75 36.375 
Q 14.75 27.25 17.40625 20.4375 
Q 20.0625 13.625 25.671875 10.25 
Q 31.296875 6.890625 37.84375 6.890625 
Q 45.796875 6.890625 51.3125 11.46875 
Q 56.84375 16.0625 58.796875 25.09375 
z
" id="ArialMT-67"/>
      <path d="M 3.328125 25.921875 
Q 3.328125 40.328125 11.328125 47.265625 
Q 18.015625 53.03125 27.640625 53.03125 
Q 38.328125 53.03125 45.109375 46.015625 
Q 51.90625 39.015625 51.90625 26.65625 
Q 51.90625 16.65625 48.90625 10.90625 
Q 45.90625 5.171875 40.15625 2 
Q 34.421875 -1.171875 27.640625 -1.171875 
Q 16.75 -1.171875 10.03125 5.8125 
Q 3.328125 12.796875 3.328125 25.921875 
z
M 12.359375 25.921875 
Q 12.359375 15.96875 16.703125 11.015625 
Q 21.046875 6.0625 27.640625 6.0625 
Q 34.1875 6.0625 38.53125 11.03125 
Q 42.875 16.015625 42.875 26.21875 
Q 42.875 35.84375 38.5 40.796875 
Q 34.125 45.75 27.640625 45.75 
Q 21.046875 45.75 16.703125 40.8125 
Q 12.359375 35.890625 12.359375 25.921875 
z
" id="ArialMT-111"/>
      <path d="M 40.578125 0 
L 40.578125 7.625 
Q 34.515625 -1.171875 24.125 -1.171875 
Q 19.53125 -1.171875 15.546875 0.578125 
Q 11.578125 2.34375 9.640625 5 
Q 7.71875 7.671875 6.9375 11.53125 
Q 6.390625 14.109375 6.390625 19.734375 
L 6.390625 51.859375 
L 15.1875 51.859375 
L 15.1875 23.09375 
Q 15.1875 16.21875 15.71875 13.8125 
Q 16.546875 10.359375 19.234375 8.375 
Q 21.921875 6.390625 25.875 6.390625 
Q 29.828125 6.390625 33.296875 8.421875 
Q 36.765625 10.453125 38.203125 13.9375 
Q 39.65625 17.4375 39.65625 24.078125 
L 39.65625 51.859375 
L 48.4375 51.859375 
L 48.4375 0 
z
" id="ArialMT-117"/>
      <path d="M 6.59375 0 
L 6.59375 51.859375 
L 14.5 51.859375 
L 14.5 44.484375 
Q 20.21875 53.03125 31 53.03125 
Q 35.6875 53.03125 39.625 51.34375 
Q 43.5625 49.65625 45.515625 46.921875 
Q 47.46875 44.1875 48.25 40.4375 
Q 48.734375 37.984375 48.734375 31.890625 
L 48.734375 0 
L 39.9375 0 
L 39.9375 31.546875 
Q 39.9375 36.921875 38.90625 39.578125 
Q 37.890625 42.234375 35.28125 43.8125 
Q 32.671875 45.40625 29.15625 45.40625 
Q 23.53125 45.40625 19.453125 41.84375 
Q 15.375 38.28125 15.375 28.328125 
L 15.375 0 
z
" id="ArialMT-110"/>
      <path d="M 25.78125 7.859375 
L 27.046875 0.09375 
Q 23.34375 -0.6875 20.40625 -0.6875 
Q 15.625 -0.6875 12.984375 0.828125 
Q 10.359375 2.34375 9.28125 4.8125 
Q 8.203125 7.28125 8.203125 15.1875 
L 8.203125 45.015625 
L 1.765625 45.015625 
L 1.765625 51.859375 
L 8.203125 51.859375 
L 8.203125 64.703125 
L 16.9375 69.96875 
L 16.9375 51.859375 
L 25.78125 51.859375 
L 25.78125 45.015625 
L 16.9375 45.015625 
L 16.9375 14.703125 
Q 16.9375 10.9375 17.40625 9.859375 
Q 17.875 8.796875 18.921875 8.15625 
Q 19.96875 7.515625 21.921875 7.515625 
Q 23.390625 7.515625 25.78125 7.859375 
z
" id="ArialMT-116"/>
      <path d="M 42.09375 16.703125 
L 51.171875 15.578125 
Q 49.03125 7.625 43.21875 3.21875 
Q 37.40625 -1.171875 28.375 -1.171875 
Q 17 -1.171875 10.328125 5.828125 
Q 3.65625 12.84375 3.65625 25.484375 
Q 3.65625 38.578125 10.390625 45.796875 
Q 17.140625 53.03125 27.875 53.03125 
Q 38.28125 53.03125 44.875 45.953125 
Q 51.46875 38.875 51.46875 26.03125 
Q 51.46875 25.25 51.421875 23.6875 
L 12.75 23.6875 
Q 13.234375 15.140625 17.578125 10.59375 
Q 21.921875 6.0625 28.421875 6.0625 
Q 33.25 6.0625 36.671875 8.59375 
Q 40.09375 11.140625 42.09375 16.703125 
z
M 13.234375 30.90625 
L 42.1875 30.90625 
Q 41.609375 37.453125 38.875 40.71875 
Q 34.671875 45.796875 27.984375 45.796875 
Q 21.921875 45.796875 17.796875 41.75 
Q 13.671875 37.703125 13.234375 30.90625 
z
" id="ArialMT-101"/>
      <path d="M 6.5 0 
L 6.5 51.859375 
L 14.40625 51.859375 
L 14.40625 44 
Q 17.4375 49.515625 20 51.265625 
Q 22.5625 53.03125 25.640625 53.03125 
Q 30.078125 53.03125 34.671875 50.203125 
L 31.640625 42.046875 
Q 28.421875 43.953125 25.203125 43.953125 
Q 22.3125 43.953125 20.015625 42.21875 
Q 17.71875 40.484375 16.75 37.40625 
Q 15.28125 32.71875 15.28125 27.15625 
L 15.28125 0 
z
" id="ArialMT-114"/>
      <path id="ArialMT-32"/>
      <path d="M 6.640625 61.46875 
L 6.640625 71.578125 
L 15.4375 71.578125 
L 15.4375 61.46875 
z
M 6.640625 0 
L 6.640625 51.859375 
L 15.4375 51.859375 
L 15.4375 0 
z
" id="ArialMT-105"/>
      <path d="M 40.234375 0 
L 40.234375 6.546875 
Q 35.296875 -1.171875 25.734375 -1.171875 
Q 19.53125 -1.171875 14.328125 2.25 
Q 9.125 5.671875 6.265625 11.796875 
Q 3.421875 17.921875 3.421875 25.875 
Q 3.421875 33.640625 6 39.96875 
Q 8.59375 46.296875 13.765625 49.65625 
Q 18.953125 53.03125 25.34375 53.03125 
Q 30.03125 53.03125 33.6875 51.046875 
Q 37.359375 49.078125 39.65625 45.90625 
L 39.65625 71.578125 
L 48.390625 71.578125 
L 48.390625 0 
z
M 12.453125 25.875 
Q 12.453125 15.921875 16.640625 10.984375 
Q 20.84375 6.0625 26.5625 6.0625 
Q 32.328125 6.0625 36.34375 10.765625 
Q 40.375 15.484375 40.375 25.140625 
Q 40.375 35.796875 36.265625 40.765625 
Q 32.171875 45.75 26.171875 45.75 
Q 20.3125 45.75 16.375 40.96875 
Q 12.453125 36.1875 12.453125 25.875 
z
" id="ArialMT-100"/>
     </defs>
     <g style="fill:#262626;" transform="translate(301.567324 527.518851)scale(0.16 -0.16)">
      <use xlink:href="#ArialMT-67"/>
      <use x="72.216797" xlink:href="#ArialMT-111"/>
      <use x="127.832031" xlink:href="#ArialMT-117"/>
      <use x="183.447266" xlink:href="#ArialMT-110"/>
      <use x="239.0625" xlink:href="#ArialMT-116"/>
      <use x="266.845703" xlink:href="#ArialMT-101"/>
      <use x="322.460938" xlink:href="#ArialMT-114"/>
      <use x="355.761719" xlink:href="#ArialMT-32"/>
      <use x="383.544922" xlink:href="#ArialMT-105"/>
      <use x="405.761719" xlink:href="#ArialMT-100"/>
     </g>
    </g>
   </g>
   <g id="matplotlib.axis_2">
    <g id="ytick_1">
     <g id="text_7">
      <!-- 0 -->
      <g style="fill:#262626;" transform="translate(55.4925 474.194926)scale(0.16 -0.16)">
       <use xlink:href="#ArialMT-48"/>
      </g>
     </g>
    </g>
    <g id="ytick_2">
     <g id="text_8">
      <!-- 200 -->
      <g style="fill:#262626;" transform="translate(37.6975 383.42974)scale(0.16 -0.16)">
       <use xlink:href="#ArialMT-50"/>
       <use x="55.615234" xlink:href="#ArialMT-48"/>
       <use x="111.230469" xlink:href="#ArialMT-48"/>
      </g>
     </g>
    </g>
    <g id="ytick_3">
     <g id="text_9">
      <!-- 400 -->
      <g style="fill:#262626;" transform="translate(37.6975 292.664554)scale(0.16 -0.16)">
       <use xlink:href="#ArialMT-52"/>
       <use x="55.615234" xlink:href="#ArialMT-48"/>
       <use x="111.230469" xlink:href="#ArialMT-48"/>
      </g>
     </g>
    </g>
    <g id="ytick_4">
     <g id="text_10">
      <!-- 600 -->
      <g style="fill:#262626;" transform="translate(37.6975 201.899368)scale(0.16 -0.16)">
       <use xlink:href="#ArialMT-54"/>
       <use x="55.615234" xlink:href="#ArialMT-48"/>
       <use x="111.230469" xlink:href="#ArialMT-48"/>
      </g>
     </g>
    </g>
    <g id="ytick_5">
     <g id="text_11">
      <!-- 800 -->
      <defs>
       <path d="M 17.671875 38.8125 
Q 12.203125 40.828125 9.5625 44.53125 
Q 6.9375 48.25 6.9375 53.421875 
Q 6.9375 61.234375 12.546875 66.546875 
Q 18.171875 71.875 27.484375 71.875 
Q 36.859375 71.875 42.578125 66.421875 
Q 48.296875 60.984375 48.296875 53.171875 
Q 48.296875 48.1875 45.671875 44.5 
Q 43.0625 40.828125 37.75 38.8125 
Q 44.34375 36.671875 47.78125 31.875 
Q 51.21875 27.09375 51.21875 20.453125 
Q 51.21875 11.28125 44.71875 5.03125 
Q 38.234375 -1.21875 27.640625 -1.21875 
Q 17.046875 -1.21875 10.546875 5.046875 
Q 4.046875 11.328125 4.046875 20.703125 
Q 4.046875 27.6875 7.59375 32.390625 
Q 11.140625 37.109375 17.671875 38.8125 
z
M 15.921875 53.71875 
Q 15.921875 48.640625 19.1875 45.40625 
Q 22.46875 42.1875 27.6875 42.1875 
Q 32.765625 42.1875 36.015625 45.375 
Q 39.265625 48.578125 39.265625 53.21875 
Q 39.265625 58.0625 35.90625 61.359375 
Q 32.5625 64.65625 27.59375 64.65625 
Q 22.5625 64.65625 19.234375 61.421875 
Q 15.921875 58.203125 15.921875 53.71875 
z
M 13.09375 20.65625 
Q 13.09375 16.890625 14.875 13.375 
Q 16.65625 9.859375 20.171875 7.921875 
Q 23.6875 6 27.734375 6 
Q 34.03125 6 38.125 10.046875 
Q 42.234375 14.109375 42.234375 20.359375 
Q 42.234375 26.703125 38.015625 30.859375 
Q 33.796875 35.015625 27.4375 35.015625 
Q 21.234375 35.015625 17.15625 30.90625 
Q 13.09375 26.8125 13.09375 20.65625 
z
" id="ArialMT-56"/>
      </defs>
      <g style="fill:#262626;" transform="translate(37.6975 111.134181)scale(0.16 -0.16)">
       <use xlink:href="#ArialMT-56"/>
       <use x="55.615234" xlink:href="#ArialMT-48"/>
       <use x="111.230469" xlink:href="#ArialMT-48"/>
      </g>
     </g>
    </g>
    <g id="ytick_6">
     <g id="text_12">
      <!-- 1000 -->
      <g style="fill:#262626;" transform="translate(28.8 20.368995)scale(0.16 -0.16)">
       <use xlink:href="#ArialMT-49"/>
       <use x="55.615234" xlink:href="#ArialMT-48"/>
       <use x="111.230469" xlink:href="#ArialMT-48"/>
       <use x="166.845703" xlink:href="#ArialMT-48"/>
      </g>
     </g>
    </g>
    <g id="text_13">
     <!-- Count [$h^{-1}$] -->
     <defs>
      <path d="M 6.78125 -19.875 
L 6.78125 71.578125 
L 26.171875 71.578125 
L 26.171875 64.3125 
L 15.578125 64.3125 
L 15.578125 -12.59375 
L 26.171875 -12.59375 
L 26.171875 -19.875 
z
" id="ArialMT-91"/>
      <path d="M 55.71875 33.015625 
L 49.3125 0 
L 40.28125 0 
L 46.6875 32.671875 
Q 47.125 34.96875 47.359375 36.71875 
Q 47.609375 38.484375 47.609375 39.5 
Q 47.609375 43.609375 45.015625 45.890625 
Q 42.4375 48.1875 37.796875 48.1875 
Q 30.5625 48.1875 25.265625 43.296875 
Q 19.96875 38.421875 18.40625 30.328125 
L 12.5 0 
L 3.515625 0 
L 18.3125 75.984375 
L 27.296875 75.984375 
L 21.484375 46.09375 
Q 24.90625 50.6875 30.21875 53.34375 
Q 35.546875 56 41.40625 56 
Q 48.640625 56 52.609375 52.09375 
Q 56.59375 48.1875 56.59375 41.109375 
Q 56.59375 39.359375 56.375 37.359375 
Q 56.15625 35.359375 55.71875 33.015625 
z
" id="DejaVuSans-Oblique-104"/>
      <path d="M 10.59375 35.5 
L 73.1875 35.5 
L 73.1875 27.203125 
L 10.59375 27.203125 
z
" id="DejaVuSans-8722"/>
      <path d="M 12.40625 8.296875 
L 28.515625 8.296875 
L 28.515625 63.921875 
L 10.984375 60.40625 
L 10.984375 69.390625 
L 28.421875 72.90625 
L 38.28125 72.90625 
L 38.28125 8.296875 
L 54.390625 8.296875 
L 54.390625 0 
L 12.40625 0 
z
" id="DejaVuSans-49"/>
      <path d="M 21.296875 -19.875 
L 1.90625 -19.875 
L 1.90625 -12.59375 
L 12.5 -12.59375 
L 12.5 64.3125 
L 1.90625 64.3125 
L 1.90625 71.578125 
L 21.296875 71.578125 
z
" id="ArialMT-93"/>
     </defs>
     <g style="fill:#262626;" transform="translate(21.6 290.976926)rotate(-90)scale(0.16 -0.16)">
      <use transform="translate(0 0.684375)" xlink:href="#ArialMT-67"/>
      <use transform="translate(72.216797 0.684375)" xlink:href="#ArialMT-111"/>
      <use transform="translate(127.832031 0.684375)" xlink:href="#ArialMT-117"/>
      <use transform="translate(183.447266 0.684375)" xlink:href="#ArialMT-110"/>
      <use transform="translate(239.0625 0.684375)" xlink:href="#ArialMT-116"/>
      <use transform="translate(266.845703 0.684375)" xlink:href="#ArialMT-32"/>
      <use transform="translate(294.628906 0.684375)" xlink:href="#ArialMT-91"/>
      <use transform="translate(322.412109 0.684375)" xlink:href="#DejaVuSans-Oblique-104"/>
      <use transform="translate(393.238724 38.965625)scale(0.7)" xlink:href="#DejaVuSans-8722"/>
      <use transform="translate(451.891068 38.965625)scale(0.7)" xlink:href="#DejaVuSans-49"/>
      <use transform="translate(499.161576 0.684375)" xlink:href="#ArialMT-93"/>
     </g>
    </g>
   </g>
   <g id="PolyCollection_1">
    <defs>
     <path d="M 122.781599 -69.430175 
L 84.098759 -69.430175 
L 82.637548 -73.84008 
L 82.073393 -78.249984 
L 82.404934 -82.659889 
L 83.498281 -87.069793 
L 85.130997 -91.479698 
L 87.052255 -95.889602 
L 89.037863 -100.299507 
L 90.924351 -104.709411 
L 92.617126 -109.119316 
L 94.078076 -113.52922 
L 95.30352 -117.939125 
L 96.303172 -122.349029 
L 97.086524 -126.758934 
L 97.658008 -131.168838 
L 98.018653 -135.578743 
L 98.170702 -139.988647 
L 98.122129 -144.398552 
L 97.889315 -148.808456 
L 97.497391 -153.218361 
L 96.978573 -157.628265 
L 96.369259 -162.03817 
L 95.706768 -166.448074 
L 95.026562 -170.857979 
L 94.360445 -175.267883 
L 93.735813 -179.677788 
L 93.175578 -184.087692 
L 92.698158 -188.497597 
L 92.317101 -192.907501 
L 92.040295 -197.317406 
L 91.86917 -201.72731 
L 91.798507 -206.137215 
L 91.81724 -210.547119 
L 91.910218 -214.957024 
L 92.060429 -219.366928 
L 92.251038 -223.776833 
L 92.46675 -228.186737 
L 92.694413 -232.596642 
L 92.923113 -237.006546 
L 93.14418 -241.416451 
L 93.351425 -245.826355 
L 93.541654 -250.23626 
L 93.715282 -254.646164 
L 93.87668 -259.056069 
L 94.033887 -263.465973 
L 94.197467 -267.875878 
L 94.378564 -272.285782 
L 94.586536 -276.695687 
L 94.826835 -281.105591 
L 95.099831 -285.515496 
L 95.401048 -289.9254 
L 95.722817 -294.335305 
L 96.056805 -298.745209 
L 96.396542 -303.155114 
L 96.739085 -307.565018 
L 97.085259 -311.974923 
L 97.438499 -316.384827 
L 97.802794 -320.794732 
L 98.180557 -325.204636 
L 98.571168 -329.614541 
L 98.970644 -334.024445 
L 99.372407 -338.43435 
L 99.768722 -342.844254 
L 100.152197 -347.254159 
L 100.51684 -351.664063 
L 100.858424 -356.073968 
L 101.174273 -360.483872 
L 101.462752 -364.893777 
L 101.722818 -369.303681 
L 101.9538 -373.713586 
L 102.155455 -378.12349 
L 102.328132 -382.533395 
L 102.472913 -386.943299 
L 102.591606 -391.353204 
L 102.686634 -395.763108 
L 102.760877 -400.173013 
L 102.817558 -404.582917 
L 102.860188 -408.992822 
L 102.892513 -413.402726 
L 102.918375 -417.812631 
L 102.94144 -422.222535 
L 102.964833 -426.63244 
L 102.990784 -431.042344 
L 103.020437 -435.452249 
L 103.053883 -439.862153 
L 103.090413 -444.272058 
L 103.128869 -448.681962 
L 103.167956 -453.091867 
L 103.20643 -457.501771 
L 103.243137 -461.911676 
L 103.276999 -466.32158 
L 103.307016 -470.731485 
L 103.332359 -475.141389 
L 103.352525 -479.551294 
L 103.367503 -483.961198 
L 103.377847 -488.371103 
L 103.384608 -492.781007 
L 103.389131 -497.190912 
L 103.392756 -501.600816 
L 103.396544 -506.010721 
L 103.483814 -506.010721 
L 103.483814 -506.010721 
L 103.487602 -501.600816 
L 103.491227 -497.190912 
L 103.495749 -492.781007 
L 103.502511 -488.371103 
L 103.512855 -483.961198 
L 103.527833 -479.551294 
L 103.547999 -475.141389 
L 103.573342 -470.731485 
L 103.603359 -466.32158 
L 103.637221 -461.911676 
L 103.673928 -457.501771 
L 103.712401 -453.091867 
L 103.751489 -448.681962 
L 103.789944 -444.272058 
L 103.826474 -439.862153 
L 103.85992 -435.452249 
L 103.889573 -431.042344 
L 103.915525 -426.63244 
L 103.938917 -422.222535 
L 103.961983 -417.812631 
L 103.987844 -413.402726 
L 104.020169 -408.992822 
L 104.0628 -404.582917 
L 104.11948 -400.173013 
L 104.193724 -395.763108 
L 104.288752 -391.353204 
L 104.407445 -386.943299 
L 104.552225 -382.533395 
L 104.724903 -378.12349 
L 104.926558 -373.713586 
L 105.15754 -369.303681 
L 105.417605 -364.893777 
L 105.706085 -360.483872 
L 106.021933 -356.073968 
L 106.363518 -351.664063 
L 106.728161 -347.254159 
L 107.111636 -342.844254 
L 107.507951 -338.43435 
L 107.909714 -334.024445 
L 108.30919 -329.614541 
L 108.699801 -325.204636 
L 109.077564 -320.794732 
L 109.441859 -316.384827 
L 109.795099 -311.974923 
L 110.141273 -307.565018 
L 110.483815 -303.155114 
L 110.823553 -298.745209 
L 111.15754 -294.335305 
L 111.47931 -289.9254 
L 111.780527 -285.515496 
L 112.053523 -281.105591 
L 112.293822 -276.695687 
L 112.501794 -272.285782 
L 112.682891 -267.875878 
L 112.846471 -263.465973 
L 113.003678 -259.056069 
L 113.165076 -254.646164 
L 113.338704 -250.23626 
L 113.528933 -245.826355 
L 113.736178 -241.416451 
L 113.957245 -237.006546 
L 114.185944 -232.596642 
L 114.413608 -228.186737 
L 114.62932 -223.776833 
L 114.819929 -219.366928 
L 114.97014 -214.957024 
L 115.063118 -210.547119 
L 115.081851 -206.137215 
L 115.011188 -201.72731 
L 114.840063 -197.317406 
L 114.563256 -192.907501 
L 114.1822 -188.497597 
L 113.70478 -184.087692 
L 113.144545 -179.677788 
L 112.519913 -175.267883 
L 111.853796 -170.857979 
L 111.17359 -166.448074 
L 110.511099 -162.03817 
L 109.901784 -157.628265 
L 109.382967 -153.218361 
L 108.991043 -148.808456 
L 108.758228 -144.398552 
L 108.709655 -139.988647 
L 108.861705 -135.578743 
L 109.22235 -131.168838 
L 109.793834 -126.758934 
L 110.577186 -122.349029 
L 111.576838 -117.939125 
L 112.802282 -113.52922 
L 114.263231 -109.119316 
L 115.956007 -104.709411 
L 117.842495 -100.299507 
L 119.828103 -95.889602 
L 121.749361 -91.479698 
L 123.382076 -87.069793 
L 124.475423 -82.659889 
L 124.806965 -78.249984 
L 124.24281 -73.84008 
L 122.781599 -69.430175 
z
" id="m300a9d949e" style="stroke:#141414;stroke-width:1.5;"/>
    </defs>
    <g clip-path="url(#p1eb70dbf88)">
     <use style="fill:#083c1d;stroke:#141414;stroke-width:1.5;" x="0" xlink:href="#m300a9d949e" y="537.898851"/>
    </g>
   </g>
   <g id="PolyCollection_2">
    <defs>
     <path d="M 158.434612 -69.430175 
L 133.912889 -69.430175 
L 132.90607 -73.867584 
L 132.213952 -78.304993 
L 131.866532 -82.742402 
L 131.859945 -87.179811 
L 132.159557 -91.617221 
L 132.707911 -96.05463 
L 133.435424 -100.492039 
L 134.271292 -104.929448 
L 135.152347 -109.366857 
L 136.028458 -113.804266 
L 136.864156 -118.241675 
L 137.637153 -122.679084 
L 138.335031 -127.116493 
L 138.951509 -131.553902 
L 139.483399 -135.991312 
L 139.928832 -140.428721 
L 140.286794 -144.86613 
L 140.557555 -149.303539 
L 140.743407 -153.740948 
L 140.849164 -158.178357 
L 140.882101 -162.615766 
L 140.851276 -167.053175 
L 140.766434 -171.490584 
L 140.636834 -175.927994 
L 140.470326 -180.365403 
L 140.272942 -184.802812 
L 140.049035 -189.240221 
L 139.801895 -193.67763 
L 139.534573 -198.115039 
L 139.250664 -202.552448 
L 138.954782 -206.989857 
L 138.652601 -211.427266 
L 138.350448 -215.864675 
L 138.054558 -220.302085 
L 137.770199 -224.739494 
L 137.500873 -229.176903 
L 137.247807 -233.614312 
L 137.009859 -238.051721 
L 136.783874 -242.48913 
L 136.565473 -246.926539 
L 136.350152 -251.363948 
L 136.134546 -255.801357 
L 135.917667 -260.238766 
L 135.701897 -264.676176 
L 135.493546 -269.113585 
L 135.302787 -273.550994 
L 135.142897 -277.988403 
L 135.028827 -282.425812 
L 134.975284 -286.863221 
L 134.994627 -291.30063 
L 135.094973 -295.738039 
L 135.27887 -300.175448 
L 135.542818 -304.612857 
L 135.877727 -309.050267 
L 136.270206 -313.487676 
L 136.704414 -317.925085 
L 137.164088 -322.362494 
L 137.634382 -326.799903 
L 138.103207 -331.237312 
L 138.561928 -335.674721 
L 139.005413 -340.11213 
L 139.431555 -344.549539 
L 139.84047 -348.986949 
L 140.233583 -353.424358 
L 140.612793 -357.861767 
L 140.979818 -362.299176 
L 141.335777 -366.736585 
L 141.68101 -371.173994 
L 142.015065 -375.611403 
L 142.336832 -380.048812 
L 142.644752 -384.486221 
L 142.937069 -388.92363 
L 143.2121 -393.36104 
L 143.468491 -397.798449 
L 143.705421 -402.235858 
L 143.922724 -406.673267 
L 144.1209 -411.110676 
L 144.301 -415.548085 
L 144.46441 -419.985494 
L 144.612572 -424.422903 
L 144.746718 -428.860312 
L 144.867682 -433.297721 
L 144.975837 -437.735131 
L 145.071179 -442.17254 
L 145.15354 -446.609949 
L 145.222869 -451.047358 
L 145.279519 -455.484767 
L 145.324469 -459.922176 
L 145.35943 -464.359585 
L 145.386817 -468.796994 
L 145.409579 -473.234403 
L 145.430933 -477.671812 
L 145.45403 -482.109222 
L 145.481608 -486.546631 
L 145.515685 -490.98404 
L 145.557336 -495.421449 
L 145.606591 -499.858858 
L 145.662461 -504.296267 
L 145.723107 -508.733676 
L 146.624395 -508.733676 
L 146.624395 -508.733676 
L 146.685041 -504.296267 
L 146.74091 -499.858858 
L 146.790165 -495.421449 
L 146.831817 -490.98404 
L 146.865894 -486.546631 
L 146.893471 -482.109222 
L 146.916569 -477.671812 
L 146.937923 -473.234403 
L 146.960685 -468.796994 
L 146.988071 -464.359585 
L 147.023033 -459.922176 
L 147.067982 -455.484767 
L 147.124632 -451.047358 
L 147.193961 -446.609949 
L 147.276322 -442.17254 
L 147.371665 -437.735131 
L 147.479819 -433.297721 
L 147.600783 -428.860312 
L 147.73493 -424.422903 
L 147.883092 -419.985494 
L 148.046501 -415.548085 
L 148.226602 -411.110676 
L 148.424778 -406.673267 
L 148.64208 -402.235858 
L 148.87901 -397.798449 
L 149.135401 -393.36104 
L 149.410432 -388.92363 
L 149.702749 -384.486221 
L 150.010669 -380.048812 
L 150.332437 -375.611403 
L 150.666492 -371.173994 
L 151.011724 -366.736585 
L 151.367684 -362.299176 
L 151.734708 -357.861767 
L 152.113919 -353.424358 
L 152.507032 -348.986949 
L 152.915946 -344.549539 
L 153.342088 -340.11213 
L 153.785574 -335.674721 
L 154.244295 -331.237312 
L 154.713119 -326.799903 
L 155.183413 -322.362494 
L 155.643088 -317.925085 
L 156.077296 -313.487676 
L 156.469775 -309.050267 
L 156.804683 -304.612857 
L 157.068632 -300.175448 
L 157.252529 -295.738039 
L 157.352874 -291.30063 
L 157.372217 -286.863221 
L 157.318674 -282.425812 
L 157.204605 -277.988403 
L 157.044715 -273.550994 
L 156.853956 -269.113585 
L 156.645604 -264.676176 
L 156.429835 -260.238766 
L 156.212956 -255.801357 
L 155.99735 -251.363948 
L 155.782029 -246.926539 
L 155.563627 -242.48913 
L 155.337642 -238.051721 
L 155.099694 -233.614312 
L 154.846629 -229.176903 
L 154.577302 -224.739494 
L 154.292943 -220.302085 
L 153.997054 -215.864675 
L 153.694901 -211.427266 
L 153.39272 -206.989857 
L 153.096838 -202.552448 
L 152.812929 -198.115039 
L 152.545607 -193.67763 
L 152.298466 -189.240221 
L 152.07456 -184.802812 
L 151.877175 -180.365403 
L 151.710668 -175.927994 
L 151.581067 -171.490584 
L 151.496226 -167.053175 
L 151.4654 -162.615766 
L 151.498337 -158.178357 
L 151.604094 -153.740948 
L 151.789946 -149.303539 
L 152.060707 -144.86613 
L 152.41867 -140.428721 
L 152.864102 -135.991312 
L 153.395992 -131.553902 
L 154.012471 -127.116493 
L 154.710349 -122.679084 
L 155.483345 -118.241675 
L 156.319043 -113.804266 
L 157.195154 -109.366857 
L 158.07621 -104.929448 
L 158.912077 -100.492039 
L 159.63959 -96.05463 
L 160.187944 -91.617221 
L 160.487556 -87.179811 
L 160.48097 -82.742402 
L 160.13355 -78.304993 
L 159.441431 -73.867584 
L 158.434612 -69.430175 
z
" id="m4ca988ffea" style="stroke:#141414;stroke-width:1.5;"/>
    </defs>
    <g clip-path="url(#p1eb70dbf88)">
     <use style="fill:#0e5f2f;stroke:#141414;stroke-width:1.5;" x="0" xlink:href="#m4ca988ffea" y="537.898851"/>
    </g>
   </g>
   <g id="PolyCollection_3">
    <defs>
     <path d="M 229.703197 -69.430175 
L 190.84502 -69.430175 
L 189.694475 -72.28607 
L 189.037327 -75.141964 
L 188.907323 -77.997859 
L 189.29485 -80.853753 
L 190.149505 -83.709648 
L 191.387895 -86.565542 
L 192.905038 -89.421437 
L 194.587188 -92.277331 
L 196.323935 -95.133226 
L 198.017916 -97.98912 
L 199.591175 -100.845014 
L 200.988018 -103.700909 
L 202.174836 -106.556803 
L 203.137753 -109.412698 
L 203.879044 -112.268592 
L 204.413149 -115.124487 
L 204.762863 -117.980381 
L 204.955997 -120.836276 
L 205.022613 -123.69217 
L 204.992784 -126.548065 
L 204.894823 -129.403959 
L 204.753898 -132.259854 
L 204.591046 -135.115748 
L 204.422579 -137.971643 
L 204.259903 -140.827537 
L 204.109756 -143.683432 
L 203.974804 -146.539326 
L 203.85453 -149.395221 
L 203.746266 -152.251115 
L 203.64627 -155.10701 
L 203.550701 -157.962904 
L 203.4564 -160.818799 
L 203.361413 -163.674693 
L 203.265221 -166.530588 
L 203.168695 -169.386482 
L 203.073809 -172.242377 
L 202.983182 -175.098271 
L 202.899523 -177.954166 
L 202.825059 -180.81006 
L 202.761023 -183.665955 
L 202.707252 -186.521849 
L 202.661935 -189.377744 
L 202.621542 -192.233638 
L 202.580912 -195.089533 
L 202.53351 -197.945427 
L 202.471814 -200.801322 
L 202.387818 -203.657216 
L 202.273589 -206.513111 
L 202.121863 -209.369005 
L 201.926635 -212.2249 
L 201.683692 -215.080794 
L 201.391083 -217.936689 
L 201.049483 -220.792583 
L 200.662439 -223.648478 
L 200.236467 -226.504372 
L 199.780981 -229.360267 
L 199.308032 -232.216161 
L 198.831835 -235.072056 
L 198.368115 -237.92795 
L 197.933285 -240.783845 
L 197.543543 -243.639739 
L 197.213988 -246.495634 
L 196.957835 -249.351528 
L 196.785838 -252.207423 
L 196.705942 -255.063317 
L 196.723182 -257.919212 
L 196.839764 -260.775106 
L 197.055261 -263.631001 
L 197.366851 -266.486895 
L 197.76953 -269.34279 
L 198.256299 -272.198684 
L 198.818322 -275.054579 
L 199.44512 -277.910473 
L 200.124813 -280.766368 
L 200.844461 -283.622262 
L 201.590492 -286.478157 
L 202.349181 -289.334051 
L 203.107163 -292.189946 
L 203.851897 -295.04584 
L 204.572075 -297.901735 
L 205.257939 -300.757629 
L 205.901497 -303.613524 
L 206.49665 -306.469418 
L 207.039232 -309.325313 
L 207.526973 -312.181207 
L 207.959394 -315.037102 
L 208.337634 -317.892996 
L 208.664223 -320.748891 
L 208.942799 -323.604785 
L 209.177801 -326.46068 
L 209.374147 -329.316574 
L 209.536924 -332.172469 
L 209.671115 -335.028363 
L 209.781383 -337.884258 
L 209.871908 -340.740152 
L 209.946308 -343.596047 
L 210.00761 -346.451941 
L 210.058272 -349.307836 
L 210.100251 -352.16373 
L 210.447966 -352.16373 
L 210.447966 -352.16373 
L 210.489945 -349.307836 
L 210.540607 -346.451941 
L 210.601909 -343.596047 
L 210.676309 -340.740152 
L 210.766834 -337.884258 
L 210.877102 -335.028363 
L 211.011293 -332.172469 
L 211.17407 -329.316574 
L 211.370416 -326.46068 
L 211.605418 -323.604785 
L 211.883994 -320.748891 
L 212.210583 -317.892996 
L 212.588823 -315.037102 
L 213.021244 -312.181207 
L 213.508985 -309.325313 
L 214.051567 -306.469418 
L 214.64672 -303.613524 
L 215.290278 -300.757629 
L 215.976142 -297.901735 
L 216.69632 -295.04584 
L 217.441054 -292.189946 
L 218.199036 -289.334051 
L 218.957725 -286.478157 
L 219.703756 -283.622262 
L 220.423404 -280.766368 
L 221.103097 -277.910473 
L 221.729895 -275.054579 
L 222.291918 -272.198684 
L 222.778687 -269.34279 
L 223.181366 -266.486895 
L 223.492956 -263.631001 
L 223.708453 -260.775106 
L 223.825035 -257.919212 
L 223.842275 -255.063317 
L 223.762379 -252.207423 
L 223.590382 -249.351528 
L 223.33423 -246.495634 
L 223.004674 -243.639739 
L 222.614933 -240.783845 
L 222.180102 -237.92795 
L 221.716382 -235.072056 
L 221.240186 -232.216161 
L 220.767236 -229.360267 
L 220.31175 -226.504372 
L 219.885778 -223.648478 
L 219.498734 -220.792583 
L 219.157134 -217.936689 
L 218.864525 -215.080794 
L 218.621582 -212.2249 
L 218.426354 -209.369005 
L 218.274628 -206.513111 
L 218.160399 -203.657216 
L 218.076403 -200.801322 
L 218.014707 -197.945427 
L 217.967305 -195.089533 
L 217.926675 -192.233638 
L 217.886282 -189.377744 
L 217.840965 -186.521849 
L 217.787194 -183.665955 
L 217.723158 -180.81006 
L 217.648694 -177.954166 
L 217.565035 -175.098271 
L 217.474408 -172.242377 
L 217.379522 -169.386482 
L 217.282996 -166.530588 
L 217.186805 -163.674693 
L 217.091817 -160.818799 
L 216.997517 -157.962904 
L 216.901947 -155.10701 
L 216.801951 -152.251115 
L 216.693687 -149.395221 
L 216.573413 -146.539326 
L 216.438462 -143.683432 
L 216.288314 -140.827537 
L 216.125638 -137.971643 
L 215.957171 -135.115748 
L 215.794319 -132.259854 
L 215.653394 -129.403959 
L 215.555433 -126.548065 
L 215.525604 -123.69217 
L 215.59222 -120.836276 
L 215.785354 -117.980381 
L 216.135068 -115.124487 
L 216.669173 -112.268592 
L 217.410464 -109.412698 
L 218.373381 -106.556803 
L 219.560199 -103.700909 
L 220.957042 -100.845014 
L 222.530301 -97.98912 
L 224.224282 -95.133226 
L 225.961029 -92.277331 
L 227.643179 -89.421437 
L 229.160322 -86.565542 
L 230.398712 -83.709648 
L 231.253367 -80.853753 
L 231.640894 -77.997859 
L 231.51089 -75.141964 
L 230.853742 -72.28607 
L 229.703197 -69.430175 
z
" id="m3278f0f5dc" style="stroke:#141414;stroke-width:1.5;"/>
    </defs>
    <g clip-path="url(#p1eb70dbf88)">
     <use style="fill:#083c1d;stroke:#141414;stroke-width:1.5;" x="0" xlink:href="#m3278f0f5dc" y="537.898851"/>
    </g>
   </g>
   <g id="PolyCollection_4">
    <defs>
     <path d="M 266.794594 -69.430175 
L 239.220767 -69.430175 
L 238.593937 -72.657382 
L 238.215724 -75.884588 
L 238.099339 -79.111795 
L 238.242018 -82.339002 
L 238.625498 -85.566208 
L 239.217984 -88.793415 
L 239.977324 -92.020621 
L 240.854954 -95.247828 
L 241.800137 -98.475035 
L 242.763981 -101.702241 
L 243.702876 -104.929448 
L 244.581027 -108.156654 
L 245.37199 -111.383861 
L 246.059171 -114.611068 
L 246.635437 -117.838274 
L 247.101991 -121.065481 
L 247.466749 -124.292688 
L 247.742441 -127.519894 
L 247.94464 -130.747101 
L 248.089895 -133.974307 
L 248.194117 -137.201514 
L 248.271298 -140.428721 
L 248.33264 -143.655927 
L 248.386095 -146.883134 
L 248.436309 -150.110341 
L 248.484916 -153.337547 
L 248.531084 -156.564754 
L 248.57224 -159.79196 
L 248.604838 -163.019167 
L 248.62508 -166.246374 
L 248.629509 -169.47358 
L 248.615403 -172.700787 
L 248.580957 -175.927994 
L 248.525269 -179.1552 
L 248.448154 -182.382407 
L 248.349868 -185.609613 
L 248.230787 -188.83682 
L 248.091125 -192.064027 
L 247.930716 -195.291233 
L 247.748912 -198.51844 
L 247.544577 -201.745646 
L 247.316168 -204.972853 
L 247.061887 -208.20006 
L 246.779837 -211.427266 
L 246.468188 -214.654473 
L 246.125301 -217.88168 
L 245.749819 -221.108886 
L 245.340742 -224.336093 
L 244.897498 -227.563299 
L 244.420056 -230.790506 
L 243.909096 -234.017713 
L 243.366274 -237.244919 
L 242.794571 -240.472126 
L 242.198699 -243.699333 
L 241.585526 -246.926539 
L 240.964437 -250.153746 
L 240.347554 -253.380952 
L 239.749736 -256.608159 
L 239.18829 -259.835366 
L 238.682368 -263.062572 
L 238.252053 -266.289779 
L 237.917189 -269.516985 
L 237.696059 -272.744192 
L 237.604025 -275.971399 
L 237.652288 -279.198605 
L 237.846885 -282.425812 
L 238.188063 -285.653019 
L 238.670078 -288.880225 
L 239.281455 -292.107432 
L 240.005689 -295.334638 
L 240.82229 -298.561845 
L 241.708087 -301.789052 
L 242.638649 -305.016258 
L 243.589685 -308.243465 
L 244.538327 -311.470672 
L 245.464172 -314.697878 
L 246.35005 -317.925085 
L 247.18247 -321.152291 
L 247.951769 -324.379498 
L 248.651984 -327.606705 
L 249.280515 -330.833911 
L 249.837624 -334.061118 
L 250.325861 -337.288325 
L 250.749459 -340.515531 
L 251.113756 -343.742738 
L 251.424687 -346.969944 
L 251.688365 -350.197151 
L 251.91076 -353.424358 
L 252.097479 -356.651564 
L 252.253635 -359.878771 
L 252.383787 -363.105977 
L 252.491935 -366.333184 
L 252.581551 -369.560391 
L 252.655629 -372.787597 
L 252.716736 -376.014804 
L 252.767073 -379.242011 
L 252.808518 -382.469217 
L 252.842666 -385.696424 
L 252.87086 -388.92363 
L 253.1445 -388.92363 
L 253.1445 -388.92363 
L 253.172695 -385.696424 
L 253.206843 -382.469217 
L 253.248287 -379.242011 
L 253.298625 -376.014804 
L 253.359732 -372.787597 
L 253.433809 -369.560391 
L 253.523426 -366.333184 
L 253.631574 -363.105977 
L 253.761726 -359.878771 
L 253.917882 -356.651564 
L 254.104601 -353.424358 
L 254.326995 -350.197151 
L 254.590674 -346.969944 
L 254.901605 -343.742738 
L 255.265902 -340.515531 
L 255.689499 -337.288325 
L 256.177737 -334.061118 
L 256.734846 -330.833911 
L 257.363376 -327.606705 
L 258.063592 -324.379498 
L 258.832891 -321.152291 
L 259.665311 -317.925085 
L 260.551188 -314.697878 
L 261.477034 -311.470672 
L 262.425675 -308.243465 
L 263.376712 -305.016258 
L 264.307273 -301.789052 
L 265.193071 -298.561845 
L 266.009672 -295.334638 
L 266.733905 -292.107432 
L 267.345283 -288.880225 
L 267.827298 -285.653019 
L 268.168476 -282.425812 
L 268.363073 -279.198605 
L 268.411335 -275.971399 
L 268.319302 -272.744192 
L 268.098172 -269.516985 
L 267.763308 -266.289779 
L 267.332993 -263.062572 
L 266.827071 -259.835366 
L 266.265625 -256.608159 
L 265.667807 -253.380952 
L 265.050924 -250.153746 
L 264.429835 -246.926539 
L 263.816662 -243.699333 
L 263.22079 -240.472126 
L 262.649087 -237.244919 
L 262.106265 -234.017713 
L 261.595305 -230.790506 
L 261.117862 -227.563299 
L 260.674619 -224.336093 
L 260.265542 -221.108886 
L 259.89006 -217.88168 
L 259.547173 -214.654473 
L 259.235524 -211.427266 
L 258.953474 -208.20006 
L 258.699192 -204.972853 
L 258.470784 -201.745646 
L 258.266448 -198.51844 
L 258.084645 -195.291233 
L 257.924236 -192.064027 
L 257.784573 -188.83682 
L 257.665493 -185.609613 
L 257.567207 -182.382407 
L 257.490092 -179.1552 
L 257.434403 -175.927994 
L 257.399958 -172.700787 
L 257.385851 -169.47358 
L 257.390281 -166.246374 
L 257.410523 -163.019167 
L 257.443121 -159.79196 
L 257.484277 -156.564754 
L 257.530445 -153.337547 
L 257.579051 -150.110341 
L 257.629266 -146.883134 
L 257.682721 -143.655927 
L 257.744063 -140.428721 
L 257.821244 -137.201514 
L 257.925466 -133.974307 
L 258.070721 -130.747101 
L 258.272919 -127.519894 
L 258.548612 -124.292688 
L 258.91337 -121.065481 
L 259.379923 -117.838274 
L 259.956189 -114.611068 
L 260.643371 -111.383861 
L 261.434333 -108.156654 
L 262.312485 -104.929448 
L 263.25138 -101.702241 
L 264.215224 -98.475035 
L 265.160406 -95.247828 
L 266.038037 -92.020621 
L 266.797377 -88.793415 
L 267.389863 -85.566208 
L 267.773342 -82.339002 
L 267.916021 -79.111795 
L 267.799637 -75.884588 
L 267.421424 -72.657382 
L 266.794594 -69.430175 
z
" id="mce848d7159" style="stroke:#141414;stroke-width:1.5;"/>
    </defs>
    <g clip-path="url(#p1eb70dbf88)">
     <use style="fill:#0e5f2f;stroke:#141414;stroke-width:1.5;" x="0" xlink:href="#mce848d7159" y="537.898851"/>
    </g>
   </g>
   <g id="PolyCollection_5">
    <defs>
     <path d="M 334.699863 -69.430175 
L 299.516213 -69.430175 
L 297.490652 -71.21339 
L 296.212424 -72.996605 
L 295.741252 -74.77982 
L 296.001508 -76.563035 
L 296.814192 -78.34625 
L 297.95115 -80.129465 
L 299.190801 -81.91268 
L 300.358652 -83.695895 
L 301.345745 -85.47911 
L 302.107767 -87.262325 
L 302.652442 -89.04554 
L 303.022526 -90.828755 
L 303.278849 -92.61197 
L 303.485138 -94.395185 
L 303.695442 -96.1784 
L 303.945242 -97.961615 
L 304.247551 -99.74483 
L 304.594604 -101.528045 
L 304.964227 -103.31126 
L 305.328576 -105.094475 
L 305.662357 -106.877691 
L 305.948225 -108.660906 
L 306.178348 -110.444121 
L 306.352587 -112.227336 
L 306.474759 -114.010551 
L 306.548774 -115.793766 
L 306.576142 -117.576981 
L 306.555557 -119.360196 
L 306.484431 -121.143411 
L 306.361515 -122.926626 
L 306.189454 -124.709841 
L 305.976189 -126.493056 
L 305.734666 -128.276271 
L 305.481039 -130.059486 
L 305.232211 -131.842701 
L 305.003838 -133.625916 
L 304.809527 -135.409131 
L 304.661197 -137.192346 
L 304.569696 -138.975561 
L 304.544512 -140.758776 
L 304.59188 -142.541991 
L 304.711702 -144.325206 
L 304.894697 -146.108421 
L 305.121505 -147.891636 
L 305.364909 -149.674851 
L 305.595015 -151.458066 
L 305.785989 -153.241281 
L 305.922173 -155.024496 
L 306.001599 -156.807711 
L 306.035833 -158.590926 
L 306.046421 -160.374141 
L 306.059386 -162.157356 
L 306.099728 -163.940571 
L 306.187628 -165.723786 
L 306.337095 -167.507001 
L 306.55672 -169.290216 
L 306.851387 -171.073431 
L 307.223674 -172.856646 
L 307.674169 -174.639861 
L 308.200669 -176.423076 
L 308.796858 -178.206291 
L 309.451308 -179.989506 
L 310.147455 -181.772721 
L 310.864803 -183.555936 
L 311.58106 -185.339151 
L 312.274671 -187.122366 
L 312.927072 -188.905581 
L 313.524232 -190.688797 
L 314.057309 -192.472012 
L 314.522545 -194.255227 
L 314.920617 -196.038442 
L 315.255679 -197.821657 
L 315.534243 -199.604872 
L 315.764046 -201.388087 
L 315.953023 -203.171302 
L 316.108503 -204.954517 
L 316.236685 -206.737732 
L 316.342365 -208.520947 
L 316.428883 -210.304162 
L 316.498228 -212.087377 
L 316.551311 -213.870592 
L 316.588411 -215.653807 
L 316.609713 -217.437022 
L 316.615842 -219.220237 
L 316.608229 -221.003452 
L 316.589204 -222.786667 
L 316.561798 -224.569882 
L 316.529341 -226.353097 
L 316.495019 -228.136312 
L 316.46158 -229.919527 
L 316.431325 -231.702742 
L 316.406401 -233.485957 
L 316.389264 -235.269172 
L 316.382991 -237.052387 
L 316.391139 -238.835602 
L 316.416998 -240.618817 
L 316.462431 -242.402032 
L 316.52675 -244.185247 
L 316.606213 -245.968462 
L 317.609863 -245.968462 
L 317.609863 -245.968462 
L 317.689326 -244.185247 
L 317.753646 -242.402032 
L 317.799078 -240.618817 
L 317.824938 -238.835602 
L 317.833085 -237.052387 
L 317.826812 -235.269172 
L 317.809676 -233.485957 
L 317.784752 -231.702742 
L 317.754496 -229.919527 
L 317.721058 -228.136312 
L 317.686736 -226.353097 
L 317.654278 -224.569882 
L 317.626872 -222.786667 
L 317.607848 -221.003452 
L 317.600235 -219.220237 
L 317.606364 -217.437022 
L 317.627665 -215.653807 
L 317.664765 -213.870592 
L 317.717849 -212.087377 
L 317.787193 -210.304162 
L 317.873711 -208.520947 
L 317.979392 -206.737732 
L 318.107573 -204.954517 
L 318.263053 -203.171302 
L 318.45203 -201.388087 
L 318.681833 -199.604872 
L 318.960398 -197.821657 
L 319.295459 -196.038442 
L 319.693532 -194.255227 
L 320.158767 -192.472012 
L 320.691844 -190.688797 
L 321.289004 -188.905581 
L 321.941406 -187.122366 
L 322.635016 -185.339151 
L 323.351273 -183.555936 
L 324.068621 -181.772721 
L 324.764769 -179.989506 
L 325.419218 -178.206291 
L 326.015407 -176.423076 
L 326.541907 -174.639861 
L 326.992402 -172.856646 
L 327.364689 -171.073431 
L 327.659356 -169.290216 
L 327.878982 -167.507001 
L 328.028448 -165.723786 
L 328.116348 -163.940571 
L 328.156691 -162.157356 
L 328.169656 -160.374141 
L 328.180244 -158.590926 
L 328.214477 -156.807711 
L 328.293904 -155.024496 
L 328.430088 -153.241281 
L 328.621061 -151.458066 
L 328.851167 -149.674851 
L 329.094571 -147.891636 
L 329.32138 -146.108421 
L 329.504374 -144.325206 
L 329.624197 -142.541991 
L 329.671564 -140.758776 
L 329.64638 -138.975561 
L 329.55488 -137.192346 
L 329.406549 -135.409131 
L 329.212238 -133.625916 
L 328.983865 -131.842701 
L 328.735038 -130.059486 
L 328.48141 -128.276271 
L 328.239887 -126.493056 
L 328.026623 -124.709841 
L 327.854562 -122.926626 
L 327.731646 -121.143411 
L 327.660519 -119.360196 
L 327.639934 -117.576981 
L 327.667302 -115.793766 
L 327.741317 -114.010551 
L 327.863489 -112.227336 
L 328.037729 -110.444121 
L 328.267852 -108.660906 
L 328.553719 -106.877691 
L 328.8875 -105.094475 
L 329.251849 -103.31126 
L 329.621472 -101.528045 
L 329.968525 -99.74483 
L 330.270835 -97.961615 
L 330.520634 -96.1784 
L 330.730938 -94.395185 
L 330.937228 -92.61197 
L 331.193551 -90.828755 
L 331.563635 -89.04554 
L 332.108309 -87.262325 
L 332.870332 -85.47911 
L 333.857424 -83.695895 
L 335.025275 -81.91268 
L 336.264927 -80.129465 
L 337.401884 -78.34625 
L 338.214568 -76.563035 
L 338.474824 -74.77982 
L 338.003652 -72.996605 
L 336.725424 -71.21339 
L 334.699863 -69.430175 
z
" id="m0e27a8f98b" style="stroke:#141414;stroke-width:1.5;"/>
    </defs>
    <g clip-path="url(#p1eb70dbf88)">
     <use style="fill:#083c1d;stroke:#141414;stroke-width:1.5;" x="0" xlink:href="#m0e27a8f98b" y="537.898851"/>
    </g>
   </g>
   <g id="PolyCollection_6">
    <defs>
     <path d="M 375.428476 -69.430175 
L 344.254744 -69.430175 
L 342.123879 -71.204222 
L 340.586724 -72.978269 
L 339.720006 -74.752316 
L 339.483266 -76.526362 
L 339.743122 -78.300409 
L 340.318198 -80.074456 
L 341.027088 -81.848503 
L 341.724709 -83.62255 
L 342.320349 -85.396596 
L 342.778866 -87.170643 
L 343.110961 -88.94469 
L 343.358715 -90.718737 
L 343.580218 -92.492784 
L 343.834805 -94.266831 
L 344.169711 -96.040877 
L 344.609706 -97.814924 
L 345.152005 -99.588971 
L 345.768084 -101.363018 
L 346.411949 -103.137065 
L 347.031969 -104.911111 
L 347.582331 -106.685158 
L 348.030934 -108.459205 
L 348.362533 -110.233252 
L 348.577863 -112.007299 
L 348.690325 -113.781346 
L 348.721644 -115.555392 
L 348.69739 -117.329439 
L 348.642839 -119.103486 
L 348.579637 -120.877533 
L 348.523676 -122.65158 
L 348.484369 -124.425627 
L 348.465151 -126.199673 
L 348.464696 -127.97372 
L 348.47841 -129.747767 
L 348.499925 -131.521814 
L 348.522577 -133.295861 
L 348.540768 -135.069907 
L 348.550942 -136.843954 
L 348.551759 -138.618001 
L 348.543299 -140.392048 
L 348.525678 -142.166095 
L 348.497993 -143.940142 
L 348.458548 -145.714188 
L 348.40664 -147.488235 
L 348.345202 -149.262282 
L 348.282889 -151.036329 
L 348.234275 -152.810376 
L 348.217747 -154.584422 
L 348.25178 -156.358469 
L 348.35102 -158.132516 
L 348.523547 -159.906563 
L 348.770017 -161.68061 
L 349.084573 -163.454657 
L 349.456848 -165.228703 
L 349.874355 -167.00275 
L 350.324703 -168.776797 
L 350.797284 -170.550844 
L 351.284212 -172.324891 
L 351.780361 -174.098937 
L 352.282624 -175.872984 
L 352.788742 -177.647031 
L 353.296208 -179.421078 
L 353.80157 -181.195125 
L 354.300171 -182.969172 
L 354.786124 -184.743218 
L 355.252403 -186.517265 
L 355.691168 -188.291312 
L 356.094549 -190.065359 
L 356.455979 -191.839406 
L 356.771756 -193.613453 
L 357.042242 -195.387499 
L 357.272127 -197.161546 
L 357.4696 -198.935593 
L 357.644666 -200.70964 
L 357.807174 -202.483687 
L 357.96504 -204.257733 
L 358.123003 -206.03178 
L 358.282068 -207.805827 
L 358.439729 -209.579874 
L 358.590972 -211.353921 
L 358.729909 -213.127968 
L 358.851627 -214.902014 
L 358.953653 -216.676061 
L 359.036485 -218.450108 
L 359.102988 -220.224155 
L 359.156928 -221.998202 
L 359.201315 -223.772248 
L 359.237313 -225.546295 
L 359.264188 -227.320342 
L 359.280274 -229.094389 
L 359.284507 -230.868436 
L 359.27786 -232.642483 
L 359.264088 -234.416529 
L 359.249514 -236.190576 
L 359.241864 -237.964623 
L 359.248491 -239.73867 
L 359.274493 -241.512717 
L 359.321297 -243.286764 
L 359.38619 -245.06081 
L 360.29703 -245.06081 
L 360.29703 -245.06081 
L 360.361923 -243.286764 
L 360.408727 -241.512717 
L 360.434729 -239.73867 
L 360.441356 -237.964623 
L 360.433706 -236.190576 
L 360.419132 -234.416529 
L 360.40536 -232.642483 
L 360.398713 -230.868436 
L 360.402946 -229.094389 
L 360.419032 -227.320342 
L 360.445907 -225.546295 
L 360.481905 -223.772248 
L 360.526292 -221.998202 
L 360.580232 -220.224155 
L 360.646735 -218.450108 
L 360.729567 -216.676061 
L 360.831593 -214.902014 
L 360.953311 -213.127968 
L 361.092248 -211.353921 
L 361.243491 -209.579874 
L 361.401152 -207.805827 
L 361.560217 -206.03178 
L 361.71818 -204.257733 
L 361.876046 -202.483687 
L 362.038554 -200.70964 
L 362.21362 -198.935593 
L 362.411093 -197.161546 
L 362.640979 -195.387499 
L 362.911464 -193.613453 
L 363.227241 -191.839406 
L 363.588671 -190.065359 
L 363.992052 -188.291312 
L 364.430817 -186.517265 
L 364.897096 -184.743218 
L 365.383049 -182.969172 
L 365.88165 -181.195125 
L 366.387012 -179.421078 
L 366.894478 -177.647031 
L 367.400596 -175.872984 
L 367.902859 -174.098937 
L 368.399009 -172.324891 
L 368.885936 -170.550844 
L 369.358518 -168.776797 
L 369.808865 -167.00275 
L 370.226372 -165.228703 
L 370.598647 -163.454657 
L 370.913203 -161.68061 
L 371.159673 -159.906563 
L 371.3322 -158.132516 
L 371.43144 -156.358469 
L 371.465473 -154.584422 
L 371.448945 -152.810376 
L 371.400331 -151.036329 
L 371.338018 -149.262282 
L 371.27658 -147.488235 
L 371.224672 -145.714188 
L 371.185227 -143.940142 
L 371.157542 -142.166095 
L 371.139921 -140.392048 
L 371.131461 -138.618001 
L 371.132278 -136.843954 
L 371.142452 -135.069907 
L 371.160643 -133.295861 
L 371.183295 -131.521814 
L 371.20481 -129.747767 
L 371.218524 -127.97372 
L 371.218069 -126.199673 
L 371.198851 -124.425627 
L 371.159544 -122.65158 
L 371.103583 -120.877533 
L 371.040381 -119.103486 
L 370.98583 -117.329439 
L 370.961576 -115.555392 
L 370.992895 -113.781346 
L 371.105357 -112.007299 
L 371.320687 -110.233252 
L 371.652286 -108.459205 
L 372.100889 -106.685158 
L 372.651251 -104.911111 
L 373.271271 -103.137065 
L 373.915136 -101.363018 
L 374.531215 -99.588971 
L 375.073514 -97.814924 
L 375.513509 -96.040877 
L 375.848415 -94.266831 
L 376.103002 -92.492784 
L 376.324505 -90.718737 
L 376.572259 -88.94469 
L 376.904354 -87.170643 
L 377.362871 -85.396596 
L 377.958511 -83.62255 
L 378.656132 -81.848503 
L 379.365022 -80.074456 
L 379.940098 -78.300409 
L 380.199954 -76.526362 
L 379.963214 -74.752316 
L 379.096496 -72.978269 
L 377.559341 -71.204222 
L 375.428476 -69.430175 
z
" id="m4aef1367f2" style="stroke:#141414;stroke-width:1.5;"/>
    </defs>
    <g clip-path="url(#p1eb70dbf88)">
     <use style="fill:#0e5f2f;stroke:#141414;stroke-width:1.5;" x="0" xlink:href="#m4aef1367f2" y="537.898851"/>
    </g>
   </g>
   <g id="PolyCollection_7">
    <defs>
     <path d="M 441.728737 -69.430175 
L 406.155199 -69.430175 
L 404.226374 -71.062115 
L 403.014312 -72.694054 
L 402.575182 -74.325994 
L 402.843521 -75.957934 
L 403.657474 -77.589874 
L 404.803987 -79.221813 
L 406.068022 -80.853753 
L 407.271778 -82.485693 
L 408.296442 -84.117632 
L 409.086238 -85.749572 
L 409.6394 -87.381512 
L 409.992169 -89.013452 
L 410.201067 -90.645391 
L 410.326925 -92.277331 
L 410.422643 -93.909271 
L 410.525646 -95.54121 
L 410.655245 -97.17315 
L 410.814364 -98.80509 
L 410.994372 -100.43703 
L 411.181278 -102.068969 
L 411.361538 -103.700909 
L 411.526148 -105.332849 
L 411.672408 -106.964788 
L 411.803453 -108.596728 
L 411.926178 -110.228668 
L 412.048432 -111.860608 
L 412.176378 -113.492547 
L 412.312719 -115.124487 
L 412.456186 -116.756427 
L 412.602302 -118.388366 
L 412.745035 -120.020306 
L 412.878737 -121.652246 
L 412.999657 -123.284186 
L 413.106542 -124.916125 
L 413.200189 -126.548065 
L 413.282308 -128.180005 
L 413.354323 -129.811944 
L 413.416768 -131.443884 
L 413.469601 -133.075824 
L 413.51325 -134.707764 
L 413.549811 -136.339703 
L 413.583713 -137.971643 
L 413.621423 -139.603583 
L 413.670212 -141.235522 
L 413.73642 -142.867462 
L 413.823903 -144.499402 
L 413.933269 -146.131341 
L 414.062251 -147.763281 
L 414.207204 -149.395221 
L 414.365254 -151.027161 
L 414.536354 -152.6591 
L 414.72442 -154.29104 
L 414.936957 -155.92298 
L 415.183172 -157.554919 
L 415.471117 -159.186859 
L 415.804856 -160.818799 
L 416.182586 -162.450739 
L 416.596329 -164.082678 
L 417.033225 -165.714618 
L 417.477971 -167.346558 
L 417.915658 -168.978497 
L 418.334237 -170.610437 
L 418.726023 -172.242377 
L 419.088022 -173.874317 
L 419.421232 -175.506256 
L 419.729311 -177.138196 
L 420.017126 -178.770136 
L 420.289502 -180.402075 
L 420.550331 -182.034015 
L 420.802026 -183.665955 
L 421.045267 -185.297895 
L 421.279042 -186.929834 
L 421.501007 -188.561774 
L 421.708148 -190.193714 
L 421.897637 -191.825653 
L 422.0676 -193.457593 
L 422.217582 -195.089533 
L 422.348486 -196.721473 
L 422.462037 -198.353412 
L 422.559961 -199.985352 
L 422.643246 -201.617292 
L 422.711821 -203.249231 
L 422.764828 -204.881171 
L 422.801432 -206.513111 
L 422.821831 -208.145051 
L 422.828047 -209.77699 
L 422.824125 -211.40893 
L 422.815655 -213.04087 
L 422.808763 -214.672809 
L 422.808995 -216.304749 
L 422.820489 -217.936689 
L 422.845697 -219.568628 
L 422.885617 -221.200568 
L 422.940293 -222.832508 
L 423.009207 -224.464448 
L 423.09135 -226.096387 
L 423.184951 -227.728327 
L 423.287114 -229.360267 
L 423.39366 -230.992206 
L 424.490276 -230.992206 
L 424.490276 -230.992206 
L 424.596821 -229.360267 
L 424.698984 -227.728327 
L 424.792586 -226.096387 
L 424.874728 -224.464448 
L 424.943643 -222.832508 
L 424.998318 -221.200568 
L 425.038239 -219.568628 
L 425.063447 -217.936689 
L 425.074941 -216.304749 
L 425.075173 -214.672809 
L 425.068281 -213.04087 
L 425.05981 -211.40893 
L 425.055889 -209.77699 
L 425.062104 -208.145051 
L 425.082504 -206.513111 
L 425.119108 -204.881171 
L 425.172115 -203.249231 
L 425.240689 -201.617292 
L 425.323975 -199.985352 
L 425.421899 -198.353412 
L 425.535449 -196.721473 
L 425.666353 -195.089533 
L 425.816335 -193.457593 
L 425.986299 -191.825653 
L 426.175787 -190.193714 
L 426.382929 -188.561774 
L 426.604893 -186.929834 
L 426.838668 -185.297895 
L 427.08191 -183.665955 
L 427.333604 -182.034015 
L 427.594433 -180.402075 
L 427.866809 -178.770136 
L 428.154625 -177.138196 
L 428.462704 -175.506256 
L 428.795913 -173.874317 
L 429.157913 -172.242377 
L 429.549699 -170.610437 
L 429.968277 -168.978497 
L 430.405965 -167.346558 
L 430.85071 -165.714618 
L 431.287606 -164.082678 
L 431.70135 -162.450739 
L 432.079079 -160.818799 
L 432.412818 -159.186859 
L 432.700764 -157.554919 
L 432.946978 -155.92298 
L 433.159516 -154.29104 
L 433.347581 -152.6591 
L 433.518682 -151.027161 
L 433.676731 -149.395221 
L 433.821685 -147.763281 
L 433.950667 -146.131341 
L 434.060032 -144.499402 
L 434.147515 -142.867462 
L 434.213723 -141.235522 
L 434.262512 -139.603583 
L 434.300223 -137.971643 
L 434.334125 -136.339703 
L 434.370685 -134.707764 
L 434.414334 -133.075824 
L 434.467168 -131.443884 
L 434.529613 -129.811944 
L 434.601628 -128.180005 
L 434.683747 -126.548065 
L 434.777394 -124.916125 
L 434.884278 -123.284186 
L 435.005199 -121.652246 
L 435.138901 -120.020306 
L 435.281634 -118.388366 
L 435.427749 -116.756427 
L 435.571217 -115.124487 
L 435.707557 -113.492547 
L 435.835503 -111.860608 
L 435.957758 -110.228668 
L 436.080482 -108.596728 
L 436.211527 -106.964788 
L 436.357787 -105.332849 
L 436.522398 -103.700909 
L 436.702658 -102.068969 
L 436.889563 -100.43703 
L 437.069571 -98.80509 
L 437.228691 -97.17315 
L 437.35829 -95.54121 
L 437.461293 -93.909271 
L 437.557011 -92.277331 
L 437.682869 -90.645391 
L 437.891767 -89.013452 
L 438.244536 -87.381512 
L 438.797697 -85.749572 
L 439.587494 -84.117632 
L 440.612157 -82.485693 
L 441.815914 -80.853753 
L 443.079949 -79.221813 
L 444.226462 -77.589874 
L 445.040415 -75.957934 
L 445.308754 -74.325994 
L 444.869624 -72.694054 
L 443.657562 -71.062115 
L 441.728737 -69.430175 
z
" id="m98d41cec67" style="stroke:#141414;stroke-width:1.5;"/>
    </defs>
    <g clip-path="url(#p1eb70dbf88)">
     <use style="fill:#083c1d;stroke:#141414;stroke-width:1.5;" x="0" xlink:href="#m98d41cec67" y="537.898851"/>
    </g>
   </g>
   <g id="PolyCollection_8">
    <defs>
     <path d="M 481.711294 -69.430175 
L 451.639785 -69.430175 
L 449.505526 -71.057531 
L 447.892107 -72.684886 
L 446.885554 -74.312242 
L 446.471899 -75.939597 
L 446.554885 -77.566953 
L 446.991161 -79.194309 
L 447.628705 -80.821664 
L 448.336705 -82.44902 
L 449.021602 -84.076376 
L 449.630281 -85.703731 
L 450.144605 -87.331087 
L 450.571648 -88.958442 
L 450.93252 -90.585798 
L 451.25158 -92.213154 
L 451.547546 -93.840509 
L 451.828145 -95.467865 
L 452.08957 -97.09522 
L 452.32076 -98.722576 
L 452.510798 -100.349932 
L 452.656457 -101.977287 
L 452.766795 -103.604643 
L 452.862886 -105.231998 
L 452.972768 -106.859354 
L 453.123558 -108.48671 
L 453.333686 -110.114065 
L 453.60794 -111.741421 
L 453.93667 -113.368777 
L 454.298921 -114.996132 
L 454.668024 -116.623488 
L 455.017782 -118.250843 
L 455.327661 -119.878199 
L 455.585924 -121.505555 
L 455.790245 -123.13291 
L 455.945825 -124.760266 
L 456.061691 -126.387621 
L 456.146475 -128.014977 
L 456.20532 -129.642333 
L 456.239239 -131.269688 
L 456.247175 -132.897044 
L 456.229739 -134.524399 
L 456.192674 -136.151755 
L 456.148196 -137.779111 
L 456.113439 -139.406466 
L 456.106702 -141.033822 
L 456.143238 -142.661178 
L 456.232427 -144.288533 
L 456.377258 -145.915889 
L 456.575814 -147.543244 
L 456.823586 -149.1706 
L 457.115357 -150.797956 
L 457.446065 -152.425311 
L 457.81077 -154.052667 
L 458.204279 -155.680022 
L 458.62093 -157.307378 
L 459.054623 -158.934734 
L 459.498948 -160.562089 
L 459.947142 -162.189445 
L 460.391825 -163.8168 
L 460.824706 -165.444156 
L 461.236655 -167.071512 
L 461.618464 -168.698867 
L 461.962395 -170.326223 
L 462.264119 -171.953579 
L 462.524304 -173.580934 
L 462.749007 -175.20829 
L 462.948445 -176.835645 
L 463.134393 -178.463001 
L 463.317141 -180.090357 
L 463.503141 -181.717712 
L 463.694151 -183.345068 
L 463.887931 -184.972423 
L 464.079929 -186.599779 
L 464.265087 -188.227135 
L 464.439124 -189.85449 
L 464.599065 -191.481846 
L 464.743183 -193.109201 
L 464.870661 -194.736557 
L 464.98119 -196.363913 
L 465.074628 -197.991268 
L 465.150789 -199.618624 
L 465.209408 -201.24598 
L 465.250376 -202.873335 
L 465.274158 -204.500691 
L 465.282271 -206.128046 
L 465.277595 -207.755402 
L 465.264382 -209.382758 
L 465.247975 -211.010113 
L 465.234374 -212.637469 
L 465.22976 -214.264824 
L 465.240006 -215.89218 
L 465.270117 -217.519536 
L 465.32357 -219.146891 
L 465.401668 -220.774247 
L 465.503121 -222.401602 
L 465.624085 -224.028958 
L 465.758684 -225.656314 
L 465.899859 -227.283669 
L 466.040311 -228.911025 
L 466.173315 -230.538381 
L 467.177764 -230.538381 
L 467.177764 -230.538381 
L 467.310768 -228.911025 
L 467.451221 -227.283669 
L 467.592396 -225.656314 
L 467.726994 -224.028958 
L 467.847959 -222.401602 
L 467.949412 -220.774247 
L 468.027509 -219.146891 
L 468.080963 -217.519536 
L 468.111073 -215.89218 
L 468.121319 -214.264824 
L 468.116705 -212.637469 
L 468.103104 -211.010113 
L 468.086697 -209.382758 
L 468.073484 -207.755402 
L 468.068809 -206.128046 
L 468.076922 -204.500691 
L 468.100703 -202.873335 
L 468.141671 -201.24598 
L 468.200291 -199.618624 
L 468.276451 -197.991268 
L 468.36989 -196.363913 
L 468.480418 -194.736557 
L 468.607896 -193.109201 
L 468.752015 -191.481846 
L 468.911955 -189.85449 
L 469.085993 -188.227135 
L 469.271151 -186.599779 
L 469.463148 -184.972423 
L 469.656928 -183.345068 
L 469.847938 -181.717712 
L 470.033939 -180.090357 
L 470.216686 -178.463001 
L 470.402634 -176.835645 
L 470.602072 -175.20829 
L 470.826775 -173.580934 
L 471.08696 -171.953579 
L 471.388684 -170.326223 
L 471.732615 -168.698867 
L 472.114425 -167.071512 
L 472.526373 -165.444156 
L 472.959255 -163.8168 
L 473.403937 -162.189445 
L 473.852131 -160.562089 
L 474.296457 -158.934734 
L 474.73015 -157.307378 
L 475.1468 -155.680022 
L 475.540309 -154.052667 
L 475.905014 -152.425311 
L 476.235723 -150.797956 
L 476.527493 -149.1706 
L 476.775265 -147.543244 
L 476.973822 -145.915889 
L 477.118652 -144.288533 
L 477.207841 -142.661178 
L 477.244378 -141.033822 
L 477.23764 -139.406466 
L 477.202884 -137.779111 
L 477.158405 -136.151755 
L 477.12134 -134.524399 
L 477.103905 -132.897044 
L 477.111841 -131.269688 
L 477.145759 -129.642333 
L 477.204605 -128.014977 
L 477.289388 -126.387621 
L 477.405254 -124.760266 
L 477.560835 -123.13291 
L 477.765156 -121.505555 
L 478.023419 -119.878199 
L 478.333297 -118.250843 
L 478.683056 -116.623488 
L 479.052158 -114.996132 
L 479.414409 -113.368777 
L 479.743139 -111.741421 
L 480.017393 -110.114065 
L 480.227522 -108.48671 
L 480.378311 -106.859354 
L 480.488194 -105.231998 
L 480.584285 -103.604643 
L 480.694622 -101.977287 
L 480.840281 -100.349932 
L 481.030319 -98.722576 
L 481.261509 -97.09522 
L 481.522935 -95.467865 
L 481.803533 -93.840509 
L 482.099499 -92.213154 
L 482.41856 -90.585798 
L 482.779431 -88.958442 
L 483.206474 -87.331087 
L 483.720799 -85.703731 
L 484.329477 -84.076376 
L 485.014375 -82.44902 
L 485.722374 -80.821664 
L 486.359918 -79.194309 
L 486.796194 -77.566953 
L 486.879181 -75.939597 
L 486.465526 -74.312242 
L 485.458973 -72.684886 
L 483.845553 -71.057531 
L 481.711294 -69.430175 
z
" id="mb3c521d2b1" style="stroke:#141414;stroke-width:1.5;"/>
    </defs>
    <g clip-path="url(#p1eb70dbf88)">
     <use style="fill:#0e5f2f;stroke:#141414;stroke-width:1.5;" x="0" xlink:href="#mb3c521d2b1" y="537.898851"/>
    </g>
   </g>
   <g id="PolyCollection_9">
    <defs>
     <path d="M 549.187067 -69.430175 
L 512.364728 -69.430175 
L 510.379462 -71.781819 
L 509.409112 -74.133462 
L 509.484061 -76.485105 
L 510.433757 -78.836749 
L 511.955941 -81.188392 
L 513.717287 -83.540036 
L 515.442748 -85.891679 
L 516.963192 -88.243323 
L 518.214964 -90.594966 
L 519.206079 -92.94661 
L 519.972629 -95.298253 
L 520.545108 -97.649897 
L 520.933661 -100.00154 
L 521.130727 -102.353183 
L 521.123537 -104.704827 
L 520.908017 -107.05647 
L 520.498296 -109.408114 
L 519.929568 -111.759757 
L 519.254895 -114.111401 
L 518.537822 -116.463044 
L 517.842984 -118.814688 
L 517.226668 -121.166331 
L 516.729276 -123.517975 
L 516.371488 -125.869618 
L 516.155323 -128.221262 
L 516.069865 -130.572905 
L 516.099674 -132.924548 
L 516.232632 -135.276192 
L 516.464165 -137.627835 
L 516.796454 -139.979479 
L 517.233567 -142.331122 
L 517.775181 -144.682766 
L 518.411854 -147.034409 
L 519.123713 -149.386053 
L 519.88271 -151.737696 
L 520.657266 -154.08934 
L 521.417503 -156.440983 
L 522.139499 -158.792627 
L 522.807633 -161.14427 
L 523.414871 -163.495913 
L 523.961484 -165.847557 
L 524.452982 -168.1992 
L 524.897976 -170.550844 
L 525.306328 -172.902487 
L 525.687548 -175.254131 
L 526.049373 -177.605774 
L 526.396619 -179.957418 
L 526.730616 -182.309061 
L 527.049487 -184.660705 
L 527.349183 -187.012348 
L 527.624821 -189.363992 
L 527.871868 -191.715635 
L 528.08694 -194.067278 
L 528.268314 -196.418922 
L 528.416297 -198.770565 
L 528.533421 -201.122209 
L 528.62422 -203.473852 
L 528.694482 -205.825496 
L 528.750123 -208.177139 
L 528.796151 -210.528783 
L 528.83614 -212.880426 
L 528.872377 -215.23207 
L 528.90648 -217.583713 
L 528.940052 -219.935357 
L 528.975006 -222.287 
L 529.013351 -224.638643 
L 529.056534 -226.990287 
L 529.104672 -229.34193 
L 529.156122 -231.693574 
L 529.207805 -234.045217 
L 529.256343 -236.396861 
L 529.299599 -238.748504 
L 529.337856 -241.100148 
L 529.373902 -243.451791 
L 529.41177 -245.803435 
L 529.454663 -248.155078 
L 529.503096 -250.506721 
L 529.554277 -252.858365 
L 529.603146 -255.210008 
L 529.644639 -257.561652 
L 529.676093 -259.913295 
L 529.698622 -262.264939 
L 529.716801 -264.616582 
L 529.736786 -266.968226 
L 529.763753 -269.319869 
L 529.799837 -271.671513 
L 529.843437 -274.023156 
L 529.890101 -276.3748 
L 529.934416 -278.726443 
L 529.972022 -281.078086 
L 530.00098 -283.42973 
L 530.022222 -285.781373 
L 530.039221 -288.133017 
L 530.057215 -290.48466 
L 530.08214 -292.836304 
L 530.119345 -295.187947 
L 530.172202 -297.539591 
L 530.240957 -299.891234 
L 530.322299 -302.242878 
L 531.229496 -302.242878 
L 531.229496 -302.242878 
L 531.310838 -299.891234 
L 531.379593 -297.539591 
L 531.43245 -295.187947 
L 531.469654 -292.836304 
L 531.494579 -290.48466 
L 531.512574 -288.133017 
L 531.529573 -285.781373 
L 531.550814 -283.42973 
L 531.579773 -281.078086 
L 531.617379 -278.726443 
L 531.661694 -276.3748 
L 531.708358 -274.023156 
L 531.751958 -271.671513 
L 531.788041 -269.319869 
L 531.815009 -266.968226 
L 531.834994 -264.616582 
L 531.853173 -262.264939 
L 531.875702 -259.913295 
L 531.907156 -257.561652 
L 531.948649 -255.210008 
L 531.997518 -252.858365 
L 532.048699 -250.506721 
L 532.097132 -248.155078 
L 532.140025 -245.803435 
L 532.177893 -243.451791 
L 532.213939 -241.100148 
L 532.252196 -238.748504 
L 532.295451 -236.396861 
L 532.343989 -234.045217 
L 532.395673 -231.693574 
L 532.447123 -229.34193 
L 532.49526 -226.990287 
L 532.538444 -224.638643 
L 532.576788 -222.287 
L 532.611743 -219.935357 
L 532.645315 -217.583713 
L 532.679418 -215.23207 
L 532.715655 -212.880426 
L 532.755644 -210.528783 
L 532.801672 -208.177139 
L 532.857313 -205.825496 
L 532.927575 -203.473852 
L 533.018374 -201.122209 
L 533.135498 -198.770565 
L 533.283481 -196.418922 
L 533.464855 -194.067278 
L 533.679927 -191.715635 
L 533.926974 -189.363992 
L 534.202612 -187.012348 
L 534.502308 -184.660705 
L 534.821179 -182.309061 
L 535.155176 -179.957418 
L 535.502422 -177.605774 
L 535.864247 -175.254131 
L 536.245467 -172.902487 
L 536.653818 -170.550844 
L 537.098813 -168.1992 
L 537.590311 -165.847557 
L 538.136924 -163.495913 
L 538.744162 -161.14427 
L 539.412295 -158.792627 
L 540.134292 -156.440983 
L 540.894529 -154.08934 
L 541.669085 -151.737696 
L 542.428082 -149.386053 
L 543.139941 -147.034409 
L 543.776614 -144.682766 
L 544.318228 -142.331122 
L 544.755341 -139.979479 
L 545.08763 -137.627835 
L 545.319163 -135.276192 
L 545.45212 -132.924548 
L 545.48193 -130.572905 
L 545.396472 -128.221262 
L 545.180307 -125.869618 
L 544.822519 -123.517975 
L 544.325127 -121.166331 
L 543.708811 -118.814688 
L 543.013973 -116.463044 
L 542.2969 -114.111401 
L 541.622226 -111.759757 
L 541.053499 -109.408114 
L 540.643778 -107.05647 
L 540.428258 -104.704827 
L 540.421068 -102.353183 
L 540.618134 -100.00154 
L 541.006687 -97.649897 
L 541.579166 -95.298253 
L 542.345716 -92.94661 
L 543.336831 -90.594966 
L 544.588603 -88.243323 
L 546.109047 -85.891679 
L 547.834507 -83.540036 
L 549.595854 -81.188392 
L 551.118037 -78.836749 
L 552.067734 -76.485105 
L 552.142683 -74.133462 
L 551.172333 -71.781819 
L 549.187067 -69.430175 
z
" id="mbd5ae6fc2c" style="stroke:#141414;stroke-width:1.5;"/>
    </defs>
    <g clip-path="url(#p1eb70dbf88)">
     <use style="fill:#083c1d;stroke:#141414;stroke-width:1.5;" x="0" xlink:href="#mbd5ae6fc2c" y="537.898851"/>
    </g>
   </g>
   <g id="PolyCollection_10">
    <defs>
     <path d="M 589.749951 -69.430175 
L 557.268988 -69.430175 
L 554.9934 -71.786403 
L 553.686156 -74.14263 
L 553.451561 -76.498858 
L 554.157908 -78.855085 
L 555.500208 -81.211313 
L 557.115042 -83.56754 
L 558.693667 -85.923768 
L 560.049448 -88.279996 
L 561.125157 -90.636223 
L 561.954839 -92.992451 
L 562.609095 -95.348678 
L 563.149719 -97.704906 
L 563.606819 -100.061133 
L 563.978149 -102.417361 
L 564.242161 -104.773588 
L 564.374479 -107.129816 
L 564.360232 -109.486044 
L 564.19905 -111.842271 
L 563.903418 -114.198499 
L 563.493277 -116.554726 
L 562.990326 -118.910954 
L 562.414671 -121.267181 
L 561.784866 -123.623409 
L 561.120565 -125.979637 
L 560.445729 -128.335864 
L 559.79023 -130.692092 
L 559.188767 -133.048319 
L 558.677571 -135.404547 
L 558.290438 -137.760774 
L 558.055592 -140.117002 
L 557.993995 -142.473229 
L 558.118753 -144.829457 
L 558.434724 -147.185685 
L 558.937649 -149.541912 
L 559.612732 -151.89814 
L 560.433459 -154.254367 
L 561.361906 -156.610595 
L 562.351588 -158.966822 
L 563.352963 -161.32305 
L 564.320349 -163.679277 
L 565.218142 -166.035505 
L 566.02436 -168.391733 
L 566.73064 -170.74796 
L 567.339317 -173.104188 
L 567.859218 -175.460415 
L 568.301924 -177.816643 
L 568.67956 -180.17287 
L 569.004127 -182.529098 
L 569.287627 -184.885326 
L 569.542063 -187.241553 
L 569.778777 -189.597781 
L 570.007195 -191.954008 
L 570.233464 -194.310236 
L 570.459556 -196.666463 
L 570.68323 -199.022691 
L 570.898925 -201.378918 
L 571.099418 -203.735146 
L 571.277815 -206.091374 
L 571.429286 -208.447601 
L 571.552017 -210.803829 
L 571.647112 -213.160056 
L 571.717644 -215.516284 
L 571.767413 -217.872511 
L 571.799998 -220.228739 
L 571.818458 -222.584966 
L 571.825615 -224.941194 
L 571.824586 -227.297422 
L 571.819179 -229.653649 
L 571.813854 -232.009877 
L 571.813192 -234.366104 
L 571.821006 -236.722332 
L 571.839465 -239.078559 
L 571.868657 -241.434787 
L 571.906878 -243.791015 
L 571.951555 -246.147242 
L 572.000353 -248.50347 
L 572.05192 -250.859697 
L 572.105949 -253.215925 
L 572.162667 -255.572152 
L 572.222117 -257.92838 
L 572.283633 -260.284607 
L 572.345702 -262.640835 
L 572.406189 -264.997063 
L 572.462752 -267.35329 
L 572.513332 -269.709518 
L 572.55657 -272.065745 
L 572.592079 -274.421973 
L 572.620467 -276.7782 
L 572.643092 -279.134428 
L 572.66164 -281.490656 
L 572.67778 -283.846883 
L 572.693154 -286.203111 
L 572.709778 -288.559338 
L 572.730616 -290.915566 
L 572.759786 -293.271793 
L 572.801916 -295.628021 
L 572.860619 -297.984248 
L 572.936658 -300.340476 
L 573.026792 -302.696704 
L 573.992146 -302.696704 
L 573.992146 -302.696704 
L 574.082281 -300.340476 
L 574.15832 -297.984248 
L 574.217023 -295.628021 
L 574.259153 -293.271793 
L 574.288322 -290.915566 
L 574.30916 -288.559338 
L 574.325785 -286.203111 
L 574.341158 -283.846883 
L 574.357299 -281.490656 
L 574.375847 -279.134428 
L 574.398472 -276.7782 
L 574.42686 -274.421973 
L 574.462368 -272.065745 
L 574.505606 -269.709518 
L 574.556186 -267.35329 
L 574.61275 -264.997063 
L 574.673236 -262.640835 
L 574.735306 -260.284607 
L 574.796822 -257.92838 
L 574.856271 -255.572152 
L 574.912989 -253.215925 
L 574.967018 -250.859697 
L 575.018585 -248.50347 
L 575.067384 -246.147242 
L 575.112061 -243.791015 
L 575.150282 -241.434787 
L 575.179474 -239.078559 
L 575.197933 -236.722332 
L 575.205747 -234.366104 
L 575.205084 -232.009877 
L 575.199759 -229.653649 
L 575.194352 -227.297422 
L 575.193324 -224.941194 
L 575.200481 -222.584966 
L 575.218941 -220.228739 
L 575.251526 -217.872511 
L 575.301294 -215.516284 
L 575.371827 -213.160056 
L 575.466921 -210.803829 
L 575.589653 -208.447601 
L 575.741124 -206.091374 
L 575.919521 -203.735146 
L 576.120014 -201.378918 
L 576.335708 -199.022691 
L 576.559382 -196.666463 
L 576.785475 -194.310236 
L 577.011743 -191.954008 
L 577.240161 -189.597781 
L 577.476876 -187.241553 
L 577.731312 -184.885326 
L 578.014812 -182.529098 
L 578.339379 -180.17287 
L 578.717015 -177.816643 
L 579.15972 -175.460415 
L 579.679621 -173.104188 
L 580.288299 -170.74796 
L 580.994579 -168.391733 
L 581.800797 -166.035505 
L 582.69859 -163.679277 
L 583.665976 -161.32305 
L 584.667351 -158.966822 
L 585.657033 -156.610595 
L 586.585479 -154.254367 
L 587.406207 -151.89814 
L 588.08129 -149.541912 
L 588.584215 -147.185685 
L 588.900186 -144.829457 
L 589.024943 -142.473229 
L 588.963347 -140.117002 
L 588.728501 -137.760774 
L 588.341368 -135.404547 
L 587.830171 -133.048319 
L 587.228708 -130.692092 
L 586.57321 -128.335864 
L 585.898374 -125.979637 
L 585.234072 -123.623409 
L 584.604268 -121.267181 
L 584.028613 -118.910954 
L 583.525662 -116.554726 
L 583.115521 -114.198499 
L 582.819889 -111.842271 
L 582.658707 -109.486044 
L 582.644459 -107.129816 
L 582.776778 -104.773588 
L 583.040789 -102.417361 
L 583.412119 -100.061133 
L 583.869219 -97.704906 
L 584.409843 -95.348678 
L 585.064099 -92.992451 
L 585.893781 -90.636223 
L 586.969491 -88.279996 
L 588.325272 -85.923768 
L 589.903897 -83.56754 
L 591.51873 -81.211313 
L 592.861031 -78.855085 
L 593.567378 -76.498858 
L 593.332783 -74.14263 
L 592.025539 -71.786403 
L 589.749951 -69.430175 
z
" id="m78579a7f4b" style="stroke:#141414;stroke-width:1.5;"/>
    </defs>
    <g clip-path="url(#p1eb70dbf88)">
     <use style="fill:#0e5f2f;stroke:#141414;stroke-width:1.5;" x="0" xlink:href="#m78579a7f4b" y="537.898851"/>
    </g>
   </g>
   <g id="patch_3">
    <path clip-path="url(#p1eb70dbf88)" d="M 124.806965 468.468676 
L 124.806965 468.468676 
L 124.806965 468.468676 
L 124.806965 468.468676 
z
" style="fill:#083c1d;stroke:#141414;stroke-linejoin:miter;stroke-width:0.75;"/>
   </g>
   <g id="patch_4">
    <path clip-path="url(#p1eb70dbf88)" d="M 124.806965 468.468676 
L 124.806965 468.468676 
L 124.806965 468.468676 
L 124.806965 468.468676 
z
" style="fill:#0e5f2f;stroke:#141414;stroke-linejoin:miter;stroke-width:0.75;"/>
   </g>
   <g id="line2d_1">
    <path clip-path="url(#p1eb70dbf88)" d="M 103.440179 468.468676 
L 103.440179 31.888131 
" style="fill:none;stroke:#141414;stroke-linecap:round;stroke-width:1.5;"/>
   </g>
   <g id="line2d_2">
    <path clip-path="url(#p1eb70dbf88)" d="M 103.440179 455.988463 
L 103.440179 285.576826 
" style="fill:none;stroke:#141414;stroke-linecap:round;stroke-width:4.5;"/>
   </g>
   <g id="line2d_3">
    <path clip-path="url(#p1eb70dbf88)" d="M 146.173751 468.468676 
L 146.173751 29.165175 
" style="fill:none;stroke:#141414;stroke-linecap:round;stroke-width:1.5;"/>
   </g>
   <g id="line2d_4">
    <path clip-path="url(#p1eb70dbf88)" d="M 146.173751 434.885557 
L 146.173751 240.194233 
" style="fill:none;stroke:#141414;stroke-linecap:round;stroke-width:4.5;"/>
   </g>
   <g id="line2d_5">
    <path clip-path="url(#p1eb70dbf88)" d="M 210.274109 468.468676 
L 210.274109 185.735121 
" style="fill:none;stroke:#141414;stroke-linecap:round;stroke-width:1.5;"/>
   </g>
   <g id="line2d_6">
    <path clip-path="url(#p1eb70dbf88)" d="M 210.274109 458.03068 
L 210.274109 289.661259 
" style="fill:none;stroke:#141414;stroke-linecap:round;stroke-width:4.5;"/>
   </g>
   <g id="line2d_7">
    <path clip-path="url(#p1eb70dbf88)" d="M 253.00768 468.468676 
L 253.00768 148.975221 
" style="fill:none;stroke:#141414;stroke-linecap:round;stroke-width:1.5;"/>
   </g>
   <g id="line2d_8">
    <path clip-path="url(#p1eb70dbf88)" d="M 253.00768 454.173159 
L 253.00768 262.204791 
" style="fill:none;stroke:#141414;stroke-linecap:round;stroke-width:4.5;"/>
   </g>
   <g id="line2d_9">
    <path clip-path="url(#p1eb70dbf88)" d="M 317.108038 468.468676 
L 317.108038 291.930389 
" style="fill:none;stroke:#141414;stroke-linecap:round;stroke-width:1.5;"/>
   </g>
   <g id="line2d_10">
    <path clip-path="url(#p1eb70dbf88)" d="M 317.108038 454.400072 
L 317.108038 386.780009 
" style="fill:none;stroke:#141414;stroke-linecap:round;stroke-width:4.5;"/>
   </g>
   <g id="line2d_11">
    <path clip-path="url(#p1eb70dbf88)" d="M 359.84161 468.468676 
L 359.84161 292.838041 
" style="fill:none;stroke:#141414;stroke-linecap:round;stroke-width:1.5;"/>
   </g>
   <g id="line2d_12">
    <path clip-path="url(#p1eb70dbf88)" d="M 359.84161 452.130943 
L 359.84161 386.326183 
" style="fill:none;stroke:#141414;stroke-linecap:round;stroke-width:4.5;"/>
   </g>
   <g id="line2d_13">
    <path clip-path="url(#p1eb70dbf88)" d="M 423.941968 468.468676 
L 423.941968 306.906645 
" style="fill:none;stroke:#141414;stroke-linecap:round;stroke-width:1.5;"/>
   </g>
   <g id="line2d_14">
    <path clip-path="url(#p1eb70dbf88)" d="M 423.941968 456.669202 
L 423.941968 395.402701 
" style="fill:none;stroke:#141414;stroke-linecap:round;stroke-width:4.5;"/>
   </g>
   <g id="line2d_15">
    <path clip-path="url(#p1eb70dbf88)" d="M 466.67554 468.468676 
L 466.67554 310.991078 
" style="fill:none;stroke:#141414;stroke-linecap:round;stroke-width:1.5;"/>
   </g>
   <g id="line2d_16">
    <path clip-path="url(#p1eb70dbf88)" d="M 466.67554 453.946246 
L 466.67554 396.764179 
" style="fill:none;stroke:#141414;stroke-linecap:round;stroke-width:4.5;"/>
   </g>
   <g id="line2d_17">
    <path clip-path="url(#p1eb70dbf88)" d="M 530.775897 468.468676 
L 530.775897 286.484478 
" style="fill:none;stroke:#141414;stroke-linecap:round;stroke-width:1.5;"/>
   </g>
   <g id="line2d_18">
    <path clip-path="url(#p1eb70dbf88)" d="M 530.775897 457.576854 
L 530.775897 389.049138 
" style="fill:none;stroke:#141414;stroke-linecap:round;stroke-width:4.5;"/>
   </g>
   <g id="line2d_19">
    <path clip-path="url(#p1eb70dbf88)" d="M 573.509469 468.468676 
L 573.509469 280.584741 
" style="fill:none;stroke:#141414;stroke-linecap:round;stroke-width:1.5;"/>
   </g>
   <g id="line2d_20">
    <path clip-path="url(#p1eb70dbf88)" d="M 573.509469 453.038595 
L 573.509469 384.057053 
" style="fill:none;stroke:#141414;stroke-linecap:round;stroke-width:4.5;"/>
   </g>
   <g id="patch_5">
    <path d="M 71.39 490.433851 
L 71.39 7.2 
" style="fill:none;stroke:#262626;stroke-linecap:square;stroke-linejoin:miter;stroke-width:0.8;"/>
   </g>
   <g id="patch_6">
    <path d="M 71.39 490.433851 
L 605.559648 490.433851 
" style="fill:none;stroke:#262626;stroke-linecap:square;stroke-linejoin:miter;stroke-width:0.8;"/>
   </g>
   <g id="PathCollection_1">
    <defs>
     <path d="M 0 1.5 
C 0.397805 1.5 0.77937 1.341951 1.06066 1.06066 
C 1.341951 0.77937 1.5 0.397805 1.5 0 
C 1.5 -0.397805 1.341951 -0.77937 1.06066 -1.06066 
C 0.77937 -1.341951 0.397805 -1.5 0 -1.5 
C -0.397805 -1.5 -0.77937 -1.341951 -1.06066 -1.06066 
C -1.341951 -0.77937 -1.5 -0.397805 -1.5 0 
C -1.5 0.397805 -1.341951 0.77937 -1.06066 1.06066 
C -0.77937 1.341951 -0.397805 1.5 0 1.5 
z
" id="m21dcd8fc2d" style="stroke:#141414;"/>
    </defs>
    <g clip-path="url(#p1eb70dbf88)">
     <use style="fill:#ffffff;stroke:#141414;" x="103.440179" xlink:href="#m21dcd8fc2d" y="354.558368"/>
    </g>
   </g>
   <g id="PathCollection_2">
    <g clip-path="url(#p1eb70dbf88)">
     <use style="fill:#ffffff;stroke:#141414;" x="146.173751" xlink:href="#m21dcd8fc2d" y="313.260208"/>
    </g>
   </g>
   <g id="PathCollection_3">
    <g clip-path="url(#p1eb70dbf88)">
     <use style="fill:#ffffff;stroke:#141414;" x="210.274109" xlink:href="#m21dcd8fc2d" y="364.088712"/>
    </g>
   </g>
   <g id="PathCollection_4">
    <g clip-path="url(#p1eb70dbf88)">
     <use style="fill:#ffffff;stroke:#141414;" x="253.00768" xlink:href="#m21dcd8fc2d" y="321.429075"/>
    </g>
   </g>
   <g id="PathCollection_5">
    <g clip-path="url(#p1eb70dbf88)">
     <use style="fill:#ffffff;stroke:#141414;" x="317.108038" xlink:href="#m21dcd8fc2d" y="421.270779"/>
    </g>
   </g>
   <g id="PathCollection_6">
    <g clip-path="url(#p1eb70dbf88)">
     <use style="fill:#ffffff;stroke:#141414;" x="359.84161" xlink:href="#m21dcd8fc2d" y="422.632257"/>
    </g>
   </g>
   <g id="PathCollection_7">
    <g clip-path="url(#p1eb70dbf88)">
     <use style="fill:#ffffff;stroke:#141414;" x="423.941968" xlink:href="#m21dcd8fc2d" y="428.531994"/>
    </g>
   </g>
   <g id="PathCollection_8">
    <g clip-path="url(#p1eb70dbf88)">
     <use style="fill:#ffffff;stroke:#141414;" x="466.67554" xlink:href="#m21dcd8fc2d" y="429.439646"/>
    </g>
   </g>
   <g id="PathCollection_9">
    <g clip-path="url(#p1eb70dbf88)">
     <use style="fill:#ffffff;stroke:#141414;" x="530.775897" xlink:href="#m21dcd8fc2d" y="417.640172"/>
    </g>
   </g>
   <g id="PathCollection_10">
    <g clip-path="url(#p1eb70dbf88)">
     <use style="fill:#ffffff;stroke:#141414;" x="573.509469" xlink:href="#m21dcd8fc2d" y="411.286609"/>
    </g>
   </g>
  </g>
  <g id="legend_1">
   <g id="text_14">
    <!-- weather -->
    <defs>
     <path d="M 16.15625 0 
L 0.296875 51.859375 
L 9.375 51.859375 
L 17.625 21.921875 
L 20.703125 10.796875 
Q 20.90625 11.625 23.390625 21.484375 
L 31.640625 51.859375 
L 40.671875 51.859375 
L 48.4375 21.78125 
L 51.03125 11.859375 
L 54 21.875 
L 62.890625 51.859375 
L 71.4375 51.859375 
L 55.21875 0 
L 46.09375 0 
L 37.84375 31.0625 
L 35.84375 39.890625 
L 25.34375 0 
z
" id="ArialMT-119"/>
     <path d="M 40.4375 6.390625 
Q 35.546875 2.25 31.03125 0.53125 
Q 26.515625 -1.171875 21.34375 -1.171875 
Q 12.796875 -1.171875 8.203125 3 
Q 3.609375 7.171875 3.609375 13.671875 
Q 3.609375 17.484375 5.34375 20.625 
Q 7.078125 23.78125 9.890625 25.6875 
Q 12.703125 27.59375 16.21875 28.5625 
Q 18.796875 29.25 24.03125 29.890625 
Q 34.671875 31.15625 39.703125 32.90625 
Q 39.75 34.71875 39.75 35.203125 
Q 39.75 40.578125 37.25 42.78125 
Q 33.890625 45.75 27.25 45.75 
Q 21.046875 45.75 18.09375 43.578125 
Q 15.140625 41.40625 13.71875 35.890625 
L 5.125 37.0625 
Q 6.296875 42.578125 8.984375 45.96875 
Q 11.671875 49.359375 16.75 51.1875 
Q 21.828125 53.03125 28.515625 53.03125 
Q 35.15625 53.03125 39.296875 51.46875 
Q 43.453125 49.90625 45.40625 47.53125 
Q 47.359375 45.171875 48.140625 41.546875 
Q 48.578125 39.3125 48.578125 33.453125 
L 48.578125 21.734375 
Q 48.578125 9.46875 49.140625 6.21875 
Q 49.703125 2.984375 51.375 0 
L 42.1875 0 
Q 40.828125 2.734375 40.4375 6.390625 
z
M 39.703125 26.03125 
Q 34.90625 24.078125 25.34375 22.703125 
Q 19.921875 21.921875 17.671875 20.9375 
Q 15.4375 19.96875 14.203125 18.09375 
Q 12.984375 16.21875 12.984375 13.921875 
Q 12.984375 10.40625 15.640625 8.0625 
Q 18.3125 5.71875 23.4375 5.71875 
Q 28.515625 5.71875 32.46875 7.9375 
Q 36.421875 10.15625 38.28125 14.015625 
Q 39.703125 17 39.703125 22.796875 
z
" id="ArialMT-97"/>
     <path d="M 6.59375 0 
L 6.59375 71.578125 
L 15.375 71.578125 
L 15.375 45.90625 
Q 21.53125 53.03125 30.90625 53.03125 
Q 36.671875 53.03125 40.921875 50.75 
Q 45.171875 48.484375 47 44.484375 
Q 48.828125 40.484375 48.828125 32.859375 
L 48.828125 0 
L 40.046875 0 
L 40.046875 32.859375 
Q 40.046875 39.453125 37.1875 42.453125 
Q 34.328125 45.453125 29.109375 45.453125 
Q 25.203125 45.453125 21.75 43.421875 
Q 18.3125 41.40625 16.84375 37.9375 
Q 15.375 34.46875 15.375 28.375 
L 15.375 0 
z
" id="ArialMT-104"/>
    </defs>
    <g style="fill:#262626;" transform="translate(708.06425 250.359426)scale(0.16 -0.16)">
     <use xlink:href="#ArialMT-119"/>
     <use x="72.216797" xlink:href="#ArialMT-101"/>
     <use x="127.832031" xlink:href="#ArialMT-97"/>
     <use x="183.447266" xlink:href="#ArialMT-116"/>
     <use x="211.230469" xlink:href="#ArialMT-104"/>
     <use x="266.845703" xlink:href="#ArialMT-101"/>
     <use x="322.460938" xlink:href="#ArialMT-114"/>
    </g>
   </g>
   <g id="patch_7">
    <path d="M 696.328 272.991926 
L 728.328 272.991926 
L 728.328 261.791926 
L 696.328 261.791926 
z
" style="fill:#083c1d;stroke:#141414;stroke-linejoin:miter;stroke-width:0.75;"/>
   </g>
   <g id="text_15">
    <!-- bad -->
    <defs>
     <path d="M 14.703125 0 
L 6.546875 0 
L 6.546875 71.578125 
L 15.328125 71.578125 
L 15.328125 46.046875 
Q 20.90625 53.03125 29.546875 53.03125 
Q 34.328125 53.03125 38.59375 51.09375 
Q 42.875 49.171875 45.625 45.671875 
Q 48.390625 42.1875 49.953125 37.25 
Q 51.515625 32.328125 51.515625 26.703125 
Q 51.515625 13.375 44.921875 6.09375 
Q 38.328125 -1.171875 29.109375 -1.171875 
Q 19.921875 -1.171875 14.703125 6.5 
z
M 14.59375 26.3125 
Q 14.59375 17 17.140625 12.84375 
Q 21.296875 6.0625 28.375 6.0625 
Q 34.125 6.0625 38.328125 11.0625 
Q 42.53125 16.0625 42.53125 25.984375 
Q 42.53125 36.140625 38.5 40.96875 
Q 34.46875 45.796875 28.765625 45.796875 
Q 23 45.796875 18.796875 40.796875 
Q 14.59375 35.796875 14.59375 26.3125 
z
" id="ArialMT-98"/>
    </defs>
    <g style="fill:#262626;" transform="translate(741.128 272.991926)scale(0.16 -0.16)">
     <use xlink:href="#ArialMT-98"/>
     <use x="55.615234" xlink:href="#ArialMT-97"/>
     <use x="111.230469" xlink:href="#ArialMT-100"/>
    </g>
   </g>
   <g id="patch_8">
    <path d="M 696.328 295.624426 
L 728.328 295.624426 
L 728.328 284.424426 
L 696.328 284.424426 
z
" style="fill:#0e5f2f;stroke:#141414;stroke-linejoin:miter;stroke-width:0.75;"/>
   </g>
   <g id="text_16">
    <!-- good -->
    <defs>
     <path d="M 4.984375 -4.296875 
L 13.53125 -5.5625 
Q 14.0625 -9.515625 16.5 -11.328125 
Q 19.78125 -13.765625 25.4375 -13.765625 
Q 31.546875 -13.765625 34.859375 -11.328125 
Q 38.1875 -8.890625 39.359375 -4.5 
Q 40.046875 -1.8125 39.984375 6.78125 
Q 34.234375 0 25.640625 0 
Q 14.9375 0 9.078125 7.71875 
Q 3.21875 15.4375 3.21875 26.21875 
Q 3.21875 33.640625 5.90625 39.90625 
Q 8.59375 46.1875 13.6875 49.609375 
Q 18.796875 53.03125 25.6875 53.03125 
Q 34.859375 53.03125 40.828125 45.609375 
L 40.828125 51.859375 
L 48.921875 51.859375 
L 48.921875 7.03125 
Q 48.921875 -5.078125 46.453125 -10.125 
Q 44 -15.1875 38.640625 -18.109375 
Q 33.296875 -21.046875 25.484375 -21.046875 
Q 16.21875 -21.046875 10.5 -16.875 
Q 4.78125 -12.703125 4.984375 -4.296875 
z
M 12.25 26.859375 
Q 12.25 16.65625 16.296875 11.96875 
Q 20.359375 7.28125 26.46875 7.28125 
Q 32.515625 7.28125 36.609375 11.9375 
Q 40.71875 16.609375 40.71875 26.5625 
Q 40.71875 36.078125 36.5 40.90625 
Q 32.28125 45.75 26.3125 45.75 
Q 20.453125 45.75 16.34375 40.984375 
Q 12.25 36.234375 12.25 26.859375 
z
" id="ArialMT-103"/>
    </defs>
    <g style="fill:#262626;" transform="translate(741.128 295.624426)scale(0.16 -0.16)">
     <use xlink:href="#ArialMT-103"/>
     <use x="55.615234" xlink:href="#ArialMT-111"/>
     <use x="111.230469" xlink:href="#ArialMT-111"/>
     <use x="166.845703" xlink:href="#ArialMT-100"/>
    </g>
   </g>
  </g>
 </g>
 <defs>
  <clipPath id="p1eb70dbf88">
   <rect height="483.233851" width="534.169648" x="71.39" y="7.2"/>
  </clipPath>
 </defs>
</svg>
