<?xml version="1.0" encoding="utf-8" standalone="no"?>
<!DOCTYPE svg PUBLIC "-//W3C//DTD SVG 1.1//EN"
  "http://www.w3.org/Graphics/SVG/1.1/DTD/svg11.dtd">
<!-- Created with matplotlib (https://matplotlib.org/) -->
<svg height="537.898851pt" version="1.1" viewBox="0 0 791.118 537.898851" width="791.118pt" xmlns="http://www.w3.org/2000/svg" xmlns:xlink="http://www.w3.org/1999/xlink">
 <defs>
  <style type="text/css">
*{stroke-linecap:butt;stroke-linejoin:round;white-space:pre;}
  </style>
 </defs>
 <g id="figure_1">
  <g id="patch_1">
   <path d="M 0 537.898851 
L 791.118 537.898851 
L 791.118 0 
L 0 0 
z
" style="fill:#ffffff;"/>
  </g>
  <g id="axes_1">
   <g id="patch_2">
    <path d="M 71.39 490.433851 
L 638.570363 490.433851 
L 638.570363 7.2 
L 71.39 7.2 
z
" style="fill:#ffffff;"/>
   </g>
   <g id="matplotlib.axis_1">
    <g id="xtick_1">
     <g id="text_1">
      <!-- 1003-116-1 -->
      <defs>
       <path d="M 37.25 0 
L 28.46875 0 
L 28.46875 56 
Q 25.296875 52.984375 20.140625 49.953125 
Q 14.984375 46.921875 10.890625 45.40625 
L 10.890625 53.90625 
Q 18.265625 57.375 23.78125 62.296875 
Q 29.296875 67.234375 31.59375 71.875 
L 37.25 71.875 
z
" id="ArialMT-49"/>
       <path d="M 4.15625 35.296875 
Q 4.15625 48 6.765625 55.734375 
Q 9.375 63.484375 14.515625 67.671875 
Q 19.671875 71.875 27.484375 71.875 
Q 33.25 71.875 37.59375 69.546875 
Q 41.9375 67.234375 44.765625 62.859375 
Q 47.609375 58.5 49.21875 52.21875 
Q 50.828125 45.953125 50.828125 35.296875 
Q 50.828125 22.703125 48.234375 14.96875 
Q 45.65625 7.234375 40.5 3 
Q 35.359375 -1.21875 27.484375 -1.21875 
Q 17.140625 -1.21875 11.234375 6.203125 
Q 4.15625 15.140625 4.15625 35.296875 
z
M 13.1875 35.296875 
Q 13.1875 17.671875 17.3125 11.828125 
Q 21.4375 6 27.484375 6 
Q 33.546875 6 37.671875 11.859375 
Q 41.796875 17.71875 41.796875 35.296875 
Q 41.796875 52.984375 37.671875 58.78125 
Q 33.546875 64.59375 27.390625 64.59375 
Q 21.34375 64.59375 17.71875 59.46875 
Q 13.1875 52.9375 13.1875 35.296875 
z
" id="ArialMT-48"/>
       <path d="M 4.203125 18.890625 
L 12.984375 20.0625 
Q 14.5 12.59375 18.140625 9.296875 
Q 21.78125 6 27 6 
Q 33.203125 6 37.46875 10.296875 
Q 41.75 14.59375 41.75 20.953125 
Q 41.75 27 37.796875 30.921875 
Q 33.84375 34.859375 27.734375 34.859375 
Q 25.25 34.859375 21.53125 33.890625 
L 22.515625 41.609375 
Q 23.390625 41.5 23.921875 41.5 
Q 29.546875 41.5 34.03125 44.421875 
Q 38.53125 47.359375 38.53125 53.46875 
Q 38.53125 58.296875 35.25 61.46875 
Q 31.984375 64.65625 26.8125 64.65625 
Q 21.6875 64.65625 18.265625 61.421875 
Q 14.84375 58.203125 13.875 51.765625 
L 5.078125 53.328125 
Q 6.6875 62.15625 12.390625 67.015625 
Q 18.109375 71.875 26.609375 71.875 
Q 32.46875 71.875 37.390625 69.359375 
Q 42.328125 66.84375 44.9375 62.5 
Q 47.5625 58.15625 47.5625 53.265625 
Q 47.5625 48.640625 45.0625 44.828125 
Q 42.578125 41.015625 37.703125 38.765625 
Q 44.046875 37.3125 47.5625 32.6875 
Q 51.078125 28.078125 51.078125 21.140625 
Q 51.078125 11.765625 44.234375 5.25 
Q 37.40625 -1.265625 26.953125 -1.265625 
Q 17.53125 -1.265625 11.296875 4.34375 
Q 5.078125 9.96875 4.203125 18.890625 
z
" id="ArialMT-51"/>
       <path d="M 3.171875 21.484375 
L 3.171875 30.328125 
L 30.171875 30.328125 
L 30.171875 21.484375 
z
" id="ArialMT-45"/>
       <path d="M 49.75 54.046875 
L 41.015625 53.375 
Q 39.84375 58.546875 37.703125 60.890625 
Q 34.125 64.65625 28.90625 64.65625 
Q 24.703125 64.65625 21.53125 62.3125 
Q 17.390625 59.28125 14.984375 53.46875 
Q 12.59375 47.65625 12.5 36.921875 
Q 15.671875 41.75 20.265625 44.09375 
Q 24.859375 46.4375 29.890625 46.4375 
Q 38.671875 46.4375 44.84375 39.96875 
Q 51.03125 33.5 51.03125 23.25 
Q 51.03125 16.5 48.125 10.71875 
Q 45.21875 4.9375 40.140625 1.859375 
Q 35.0625 -1.21875 28.609375 -1.21875 
Q 17.625 -1.21875 10.6875 6.859375 
Q 3.765625 14.9375 3.765625 33.5 
Q 3.765625 54.25 11.421875 63.671875 
Q 18.109375 71.875 29.4375 71.875 
Q 37.890625 71.875 43.28125 67.140625 
Q 48.6875 62.40625 49.75 54.046875 
z
M 13.875 23.1875 
Q 13.875 18.65625 15.796875 14.5 
Q 17.71875 10.359375 21.1875 8.171875 
Q 24.65625 6 28.46875 6 
Q 34.03125 6 38.03125 10.484375 
Q 42.046875 14.984375 42.046875 22.703125 
Q 42.046875 30.125 38.078125 34.390625 
Q 34.125 38.671875 28.125 38.671875 
Q 22.171875 38.671875 18.015625 34.390625 
Q 13.875 30.125 13.875 23.1875 
z
" id="ArialMT-54"/>
      </defs>
      <g style="fill:#262626;" transform="translate(87.199286 508.886351)scale(0.16 -0.16)">
       <use xlink:href="#ArialMT-49"/>
       <use x="55.615234" xlink:href="#ArialMT-48"/>
       <use x="111.230469" xlink:href="#ArialMT-48"/>
       <use x="166.845703" xlink:href="#ArialMT-51"/>
       <use x="222.460938" xlink:href="#ArialMT-45"/>
       <use x="255.761719" xlink:href="#ArialMT-49"/>
       <use x="311.267578" xlink:href="#ArialMT-49"/>
       <use x="366.882812" xlink:href="#ArialMT-54"/>
       <use x="422.498047" xlink:href="#ArialMT-45"/>
       <use x="455.798828" xlink:href="#ArialMT-49"/>
      </g>
     </g>
    </g>
    <g id="xtick_2">
     <g id="text_2">
      <!-- 1004-136-1 -->
      <defs>
       <path d="M 32.328125 0 
L 32.328125 17.140625 
L 1.265625 17.140625 
L 1.265625 25.203125 
L 33.9375 71.578125 
L 41.109375 71.578125 
L 41.109375 25.203125 
L 50.78125 25.203125 
L 50.78125 17.140625 
L 41.109375 17.140625 
L 41.109375 0 
z
M 32.328125 25.203125 
L 32.328125 57.46875 
L 9.90625 25.203125 
z
" id="ArialMT-52"/>
      </defs>
      <g style="fill:#262626;" transform="translate(200.626609 508.886351)scale(0.16 -0.16)">
       <use xlink:href="#ArialMT-49"/>
       <use x="55.615234" xlink:href="#ArialMT-48"/>
       <use x="111.230469" xlink:href="#ArialMT-48"/>
       <use x="166.845703" xlink:href="#ArialMT-52"/>
       <use x="222.460938" xlink:href="#ArialMT-45"/>
       <use x="255.761719" xlink:href="#ArialMT-49"/>
       <use x="311.376953" xlink:href="#ArialMT-51"/>
       <use x="366.992188" xlink:href="#ArialMT-54"/>
       <use x="422.607422" xlink:href="#ArialMT-45"/>
       <use x="455.908203" xlink:href="#ArialMT-49"/>
      </g>
     </g>
    </g>
    <g id="xtick_3">
     <g id="text_3">
      <!-- 1025-116-1 -->
      <defs>
       <path d="M 50.34375 8.453125 
L 50.34375 0 
L 3.03125 0 
Q 2.9375 3.171875 4.046875 6.109375 
Q 5.859375 10.9375 9.828125 15.625 
Q 13.8125 20.3125 21.34375 26.46875 
Q 33.015625 36.03125 37.109375 41.625 
Q 41.21875 47.21875 41.21875 52.203125 
Q 41.21875 57.421875 37.46875 61 
Q 33.734375 64.59375 27.734375 64.59375 
Q 21.390625 64.59375 17.578125 60.78125 
Q 13.765625 56.984375 13.71875 50.25 
L 4.6875 51.171875 
Q 5.609375 61.28125 11.65625 66.578125 
Q 17.71875 71.875 27.9375 71.875 
Q 38.234375 71.875 44.234375 66.15625 
Q 50.25 60.453125 50.25 52 
Q 50.25 47.703125 48.484375 43.546875 
Q 46.734375 39.40625 42.65625 34.8125 
Q 38.578125 30.21875 29.109375 22.21875 
Q 21.1875 15.578125 18.9375 13.203125 
Q 16.703125 10.84375 15.234375 8.453125 
z
" id="ArialMT-50"/>
       <path d="M 4.15625 18.75 
L 13.375 19.53125 
Q 14.40625 12.796875 18.140625 9.390625 
Q 21.875 6 27.15625 6 
Q 33.5 6 37.890625 10.78125 
Q 42.28125 15.578125 42.28125 23.484375 
Q 42.28125 31 38.0625 35.34375 
Q 33.84375 39.703125 27 39.703125 
Q 22.75 39.703125 19.328125 37.765625 
Q 15.921875 35.84375 13.96875 32.765625 
L 5.71875 33.84375 
L 12.640625 70.609375 
L 48.25 70.609375 
L 48.25 62.203125 
L 19.671875 62.203125 
L 15.828125 42.96875 
Q 22.265625 47.46875 29.34375 47.46875 
Q 38.71875 47.46875 45.15625 40.96875 
Q 51.609375 34.46875 51.609375 24.265625 
Q 51.609375 14.546875 45.953125 7.46875 
Q 39.0625 -1.21875 27.15625 -1.21875 
Q 17.390625 -1.21875 11.203125 4.25 
Q 5.03125 9.71875 4.15625 18.75 
z
" id="ArialMT-53"/>
      </defs>
      <g style="fill:#262626;" transform="translate(314.071431 508.886351)scale(0.16 -0.16)">
       <use xlink:href="#ArialMT-49"/>
       <use x="55.615234" xlink:href="#ArialMT-48"/>
       <use x="111.230469" xlink:href="#ArialMT-50"/>
       <use x="166.845703" xlink:href="#ArialMT-53"/>
       <use x="222.460938" xlink:href="#ArialMT-45"/>
       <use x="255.761719" xlink:href="#ArialMT-49"/>
       <use x="311.267578" xlink:href="#ArialMT-49"/>
       <use x="366.882812" xlink:href="#ArialMT-54"/>
       <use x="422.498047" xlink:href="#ArialMT-45"/>
       <use x="455.798828" xlink:href="#ArialMT-49"/>
      </g>
     </g>
    </g>
    <g id="xtick_4">
     <g id="text_4">
      <!-- 1026-136-1 -->
      <g style="fill:#262626;" transform="translate(427.498754 508.886351)scale(0.16 -0.16)">
       <use xlink:href="#ArialMT-49"/>
       <use x="55.615234" xlink:href="#ArialMT-48"/>
       <use x="111.230469" xlink:href="#ArialMT-50"/>
       <use x="166.845703" xlink:href="#ArialMT-54"/>
       <use x="222.460938" xlink:href="#ArialMT-45"/>
       <use x="255.761719" xlink:href="#ArialMT-49"/>
       <use x="311.376953" xlink:href="#ArialMT-51"/>
       <use x="366.992188" xlink:href="#ArialMT-54"/>
       <use x="422.607422" xlink:href="#ArialMT-45"/>
       <use x="455.908203" xlink:href="#ArialMT-49"/>
      </g>
     </g>
    </g>
    <g id="xtick_5">
     <g id="text_5">
      <!-- 1040-236-1 -->
      <g style="fill:#262626;" transform="translate(540.934827 508.886351)scale(0.16 -0.16)">
       <use xlink:href="#ArialMT-49"/>
       <use x="55.615234" xlink:href="#ArialMT-48"/>
       <use x="111.230469" xlink:href="#ArialMT-52"/>
       <use x="166.845703" xlink:href="#ArialMT-48"/>
       <use x="222.460938" xlink:href="#ArialMT-45"/>
       <use x="255.761719" xlink:href="#ArialMT-50"/>
       <use x="311.376953" xlink:href="#ArialMT-51"/>
       <use x="366.992188" xlink:href="#ArialMT-54"/>
       <use x="422.607422" xlink:href="#ArialMT-45"/>
       <use x="455.908203" xlink:href="#ArialMT-49"/>
      </g>
     </g>
    </g>
    <g id="text_6">
     <!-- Counter id -->
     <defs>
      <path d="M 58.796875 25.09375 
L 68.265625 22.703125 
Q 65.28125 11.03125 57.546875 4.90625 
Q 49.8125 -1.21875 38.625 -1.21875 
Q 27.046875 -1.21875 19.796875 3.484375 
Q 12.546875 8.203125 8.765625 17.140625 
Q 4.984375 26.078125 4.984375 36.328125 
Q 4.984375 47.515625 9.25 55.828125 
Q 13.53125 64.15625 21.40625 68.46875 
Q 29.296875 72.796875 38.765625 72.796875 
Q 49.515625 72.796875 56.828125 67.328125 
Q 64.15625 61.859375 67.046875 51.953125 
L 57.71875 49.75 
Q 55.21875 57.5625 50.484375 61.125 
Q 45.75 64.703125 38.578125 64.703125 
Q 30.328125 64.703125 24.78125 60.734375 
Q 19.234375 56.78125 16.984375 50.109375 
Q 14.75 43.453125 14.75 36.375 
Q 14.75 27.25 17.40625 20.4375 
Q 20.0625 13.625 25.671875 10.25 
Q 31.296875 6.890625 37.84375 6.890625 
Q 45.796875 6.890625 51.3125 11.46875 
Q 56.84375 16.0625 58.796875 25.09375 
z
" id="ArialMT-67"/>
      <path d="M 3.328125 25.921875 
Q 3.328125 40.328125 11.328125 47.265625 
Q 18.015625 53.03125 27.640625 53.03125 
Q 38.328125 53.03125 45.109375 46.015625 
Q 51.90625 39.015625 51.90625 26.65625 
Q 51.90625 16.65625 48.90625 10.90625 
Q 45.90625 5.171875 40.15625 2 
Q 34.421875 -1.171875 27.640625 -1.171875 
Q 16.75 -1.171875 10.03125 5.8125 
Q 3.328125 12.796875 3.328125 25.921875 
z
M 12.359375 25.921875 
Q 12.359375 15.96875 16.703125 11.015625 
Q 21.046875 6.0625 27.640625 6.0625 
Q 34.1875 6.0625 38.53125 11.03125 
Q 42.875 16.015625 42.875 26.21875 
Q 42.875 35.84375 38.5 40.796875 
Q 34.125 45.75 27.640625 45.75 
Q 21.046875 45.75 16.703125 40.8125 
Q 12.359375 35.890625 12.359375 25.921875 
z
" id="ArialMT-111"/>
      <path d="M 40.578125 0 
L 40.578125 7.625 
Q 34.515625 -1.171875 24.125 -1.171875 
Q 19.53125 -1.171875 15.546875 0.578125 
Q 11.578125 2.34375 9.640625 5 
Q 7.71875 7.671875 6.9375 11.53125 
Q 6.390625 14.109375 6.390625 19.734375 
L 6.390625 51.859375 
L 15.1875 51.859375 
L 15.1875 23.09375 
Q 15.1875 16.21875 15.71875 13.8125 
Q 16.546875 10.359375 19.234375 8.375 
Q 21.921875 6.390625 25.875 6.390625 
Q 29.828125 6.390625 33.296875 8.421875 
Q 36.765625 10.453125 38.203125 13.9375 
Q 39.65625 17.4375 39.65625 24.078125 
L 39.65625 51.859375 
L 48.4375 51.859375 
L 48.4375 0 
z
" id="ArialMT-117"/>
      <path d="M 6.59375 0 
L 6.59375 51.859375 
L 14.5 51.859375 
L 14.5 44.484375 
Q 20.21875 53.03125 31 53.03125 
Q 35.6875 53.03125 39.625 51.34375 
Q 43.5625 49.65625 45.515625 46.921875 
Q 47.46875 44.1875 48.25 40.4375 
Q 48.734375 37.984375 48.734375 31.890625 
L 48.734375 0 
L 39.9375 0 
L 39.9375 31.546875 
Q 39.9375 36.921875 38.90625 39.578125 
Q 37.890625 42.234375 35.28125 43.8125 
Q 32.671875 45.40625 29.15625 45.40625 
Q 23.53125 45.40625 19.453125 41.84375 
Q 15.375 38.28125 15.375 28.328125 
L 15.375 0 
z
" id="ArialMT-110"/>
      <path d="M 25.78125 7.859375 
L 27.046875 0.09375 
Q 23.34375 -0.6875 20.40625 -0.6875 
Q 15.625 -0.6875 12.984375 0.828125 
Q 10.359375 2.34375 9.28125 4.8125 
Q 8.203125 7.28125 8.203125 15.1875 
L 8.203125 45.015625 
L 1.765625 45.015625 
L 1.765625 51.859375 
L 8.203125 51.859375 
L 8.203125 64.703125 
L 16.9375 69.96875 
L 16.9375 51.859375 
L 25.78125 51.859375 
L 25.78125 45.015625 
L 16.9375 45.015625 
L 16.9375 14.703125 
Q 16.9375 10.9375 17.40625 9.859375 
Q 17.875 8.796875 18.921875 8.15625 
Q 19.96875 7.515625 21.921875 7.515625 
Q 23.390625 7.515625 25.78125 7.859375 
z
" id="ArialMT-116"/>
      <path d="M 42.09375 16.703125 
L 51.171875 15.578125 
Q 49.03125 7.625 43.21875 3.21875 
Q 37.40625 -1.171875 28.375 -1.171875 
Q 17 -1.171875 10.328125 5.828125 
Q 3.65625 12.84375 3.65625 25.484375 
Q 3.65625 38.578125 10.390625 45.796875 
Q 17.140625 53.03125 27.875 53.03125 
Q 38.28125 53.03125 44.875 45.953125 
Q 51.46875 38.875 51.46875 26.03125 
Q 51.46875 25.25 51.421875 23.6875 
L 12.75 23.6875 
Q 13.234375 15.140625 17.578125 10.59375 
Q 21.921875 6.0625 28.421875 6.0625 
Q 33.25 6.0625 36.671875 8.59375 
Q 40.09375 11.140625 42.09375 16.703125 
z
M 13.234375 30.90625 
L 42.1875 30.90625 
Q 41.609375 37.453125 38.875 40.71875 
Q 34.671875 45.796875 27.984375 45.796875 
Q 21.921875 45.796875 17.796875 41.75 
Q 13.671875 37.703125 13.234375 30.90625 
z
" id="ArialMT-101"/>
      <path d="M 6.5 0 
L 6.5 51.859375 
L 14.40625 51.859375 
L 14.40625 44 
Q 17.4375 49.515625 20 51.265625 
Q 22.5625 53.03125 25.640625 53.03125 
Q 30.078125 53.03125 34.671875 50.203125 
L 31.640625 42.046875 
Q 28.421875 43.953125 25.203125 43.953125 
Q 22.3125 43.953125 20.015625 42.21875 
Q 17.71875 40.484375 16.75 37.40625 
Q 15.28125 32.71875 15.28125 27.15625 
L 15.28125 0 
z
" id="ArialMT-114"/>
      <path id="ArialMT-32"/>
      <path d="M 6.640625 61.46875 
L 6.640625 71.578125 
L 15.4375 71.578125 
L 15.4375 61.46875 
z
M 6.640625 0 
L 6.640625 51.859375 
L 15.4375 51.859375 
L 15.4375 0 
z
" id="ArialMT-105"/>
      <path d="M 40.234375 0 
L 40.234375 6.546875 
Q 35.296875 -1.171875 25.734375 -1.171875 
Q 19.53125 -1.171875 14.328125 2.25 
Q 9.125 5.671875 6.265625 11.796875 
Q 3.421875 17.921875 3.421875 25.875 
Q 3.421875 33.640625 6 39.96875 
Q 8.59375 46.296875 13.765625 49.65625 
Q 18.953125 53.03125 25.34375 53.03125 
Q 30.03125 53.03125 33.6875 51.046875 
Q 37.359375 49.078125 39.65625 45.90625 
L 39.65625 71.578125 
L 48.390625 71.578125 
L 48.390625 0 
z
M 12.453125 25.875 
Q 12.453125 15.921875 16.640625 10.984375 
Q 20.84375 6.0625 26.5625 6.0625 
Q 32.328125 6.0625 36.34375 10.765625 
Q 40.375 15.484375 40.375 25.140625 
Q 40.375 35.796875 36.265625 40.765625 
Q 32.171875 45.75 26.171875 45.75 
Q 20.3125 45.75 16.375 40.96875 
Q 12.453125 36.1875 12.453125 25.875 
z
" id="ArialMT-100"/>
     </defs>
     <g style="fill:#262626;" transform="translate(318.072681 527.518851)scale(0.16 -0.16)">
      <use xlink:href="#ArialMT-67"/>
      <use x="72.216797" xlink:href="#ArialMT-111"/>
      <use x="127.832031" xlink:href="#ArialMT-117"/>
      <use x="183.447266" xlink:href="#ArialMT-110"/>
      <use x="239.0625" xlink:href="#ArialMT-116"/>
      <use x="266.845703" xlink:href="#ArialMT-101"/>
      <use x="322.460938" xlink:href="#ArialMT-114"/>
      <use x="355.761719" xlink:href="#ArialMT-32"/>
      <use x="383.544922" xlink:href="#ArialMT-105"/>
      <use x="405.761719" xlink:href="#ArialMT-100"/>
     </g>
    </g>
   </g>
   <g id="matplotlib.axis_2">
    <g id="ytick_1">
     <g id="text_7">
      <!-- 0 -->
      <g style="fill:#262626;" transform="translate(55.4925 474.194926)scale(0.16 -0.16)">
       <use xlink:href="#ArialMT-48"/>
      </g>
     </g>
    </g>
    <g id="ytick_2">
     <g id="text_8">
      <!-- 200 -->
      <g style="fill:#262626;" transform="translate(37.6975 383.42974)scale(0.16 -0.16)">
       <use xlink:href="#ArialMT-50"/>
       <use x="55.615234" xlink:href="#ArialMT-48"/>
       <use x="111.230469" xlink:href="#ArialMT-48"/>
      </g>
     </g>
    </g>
    <g id="ytick_3">
     <g id="text_9">
      <!-- 400 -->
      <g style="fill:#262626;" transform="translate(37.6975 292.664554)scale(0.16 -0.16)">
       <use xlink:href="#ArialMT-52"/>
       <use x="55.615234" xlink:href="#ArialMT-48"/>
       <use x="111.230469" xlink:href="#ArialMT-48"/>
      </g>
     </g>
    </g>
    <g id="ytick_4">
     <g id="text_10">
      <!-- 600 -->
      <g style="fill:#262626;" transform="translate(37.6975 201.899368)scale(0.16 -0.16)">
       <use xlink:href="#ArialMT-54"/>
       <use x="55.615234" xlink:href="#ArialMT-48"/>
       <use x="111.230469" xlink:href="#ArialMT-48"/>
      </g>
     </g>
    </g>
    <g id="ytick_5">
     <g id="text_11">
      <!-- 800 -->
      <defs>
       <path d="M 17.671875 38.8125 
Q 12.203125 40.828125 9.5625 44.53125 
Q 6.9375 48.25 6.9375 53.421875 
Q 6.9375 61.234375 12.546875 66.546875 
Q 18.171875 71.875 27.484375 71.875 
Q 36.859375 71.875 42.578125 66.421875 
Q 48.296875 60.984375 48.296875 53.171875 
Q 48.296875 48.1875 45.671875 44.5 
Q 43.0625 40.828125 37.75 38.8125 
Q 44.34375 36.671875 47.78125 31.875 
Q 51.21875 27.09375 51.21875 20.453125 
Q 51.21875 11.28125 44.71875 5.03125 
Q 38.234375 -1.21875 27.640625 -1.21875 
Q 17.046875 -1.21875 10.546875 5.046875 
Q 4.046875 11.328125 4.046875 20.703125 
Q 4.046875 27.6875 7.59375 32.390625 
Q 11.140625 37.109375 17.671875 38.8125 
z
M 15.921875 53.71875 
Q 15.921875 48.640625 19.1875 45.40625 
Q 22.46875 42.1875 27.6875 42.1875 
Q 32.765625 42.1875 36.015625 45.375 
Q 39.265625 48.578125 39.265625 53.21875 
Q 39.265625 58.0625 35.90625 61.359375 
Q 32.5625 64.65625 27.59375 64.65625 
Q 22.5625 64.65625 19.234375 61.421875 
Q 15.921875 58.203125 15.921875 53.71875 
z
M 13.09375 20.65625 
Q 13.09375 16.890625 14.875 13.375 
Q 16.65625 9.859375 20.171875 7.921875 
Q 23.6875 6 27.734375 6 
Q 34.03125 6 38.125 10.046875 
Q 42.234375 14.109375 42.234375 20.359375 
Q 42.234375 26.703125 38.015625 30.859375 
Q 33.796875 35.015625 27.4375 35.015625 
Q 21.234375 35.015625 17.15625 30.90625 
Q 13.09375 26.8125 13.09375 20.65625 
z
" id="ArialMT-56"/>
      </defs>
      <g style="fill:#262626;" transform="translate(37.6975 111.134181)scale(0.16 -0.16)">
       <use xlink:href="#ArialMT-56"/>
       <use x="55.615234" xlink:href="#ArialMT-48"/>
       <use x="111.230469" xlink:href="#ArialMT-48"/>
      </g>
     </g>
    </g>
    <g id="ytick_6">
     <g id="text_12">
      <!-- 1000 -->
      <g style="fill:#262626;" transform="translate(28.8 20.368995)scale(0.16 -0.16)">
       <use xlink:href="#ArialMT-49"/>
       <use x="55.615234" xlink:href="#ArialMT-48"/>
       <use x="111.230469" xlink:href="#ArialMT-48"/>
       <use x="166.845703" xlink:href="#ArialMT-48"/>
      </g>
     </g>
    </g>
    <g id="text_13">
     <!-- Count [$h^{-1}$] -->
     <defs>
      <path d="M 6.78125 -19.875 
L 6.78125 71.578125 
L 26.171875 71.578125 
L 26.171875 64.3125 
L 15.578125 64.3125 
L 15.578125 -12.59375 
L 26.171875 -12.59375 
L 26.171875 -19.875 
z
" id="ArialMT-91"/>
      <path d="M 55.71875 33.015625 
L 49.3125 0 
L 40.28125 0 
L 46.6875 32.671875 
Q 47.125 34.96875 47.359375 36.71875 
Q 47.609375 38.484375 47.609375 39.5 
Q 47.609375 43.609375 45.015625 45.890625 
Q 42.4375 48.1875 37.796875 48.1875 
Q 30.5625 48.1875 25.265625 43.296875 
Q 19.96875 38.421875 18.40625 30.328125 
L 12.5 0 
L 3.515625 0 
L 18.3125 75.984375 
L 27.296875 75.984375 
L 21.484375 46.09375 
Q 24.90625 50.6875 30.21875 53.34375 
Q 35.546875 56 41.40625 56 
Q 48.640625 56 52.609375 52.09375 
Q 56.59375 48.1875 56.59375 41.109375 
Q 56.59375 39.359375 56.375 37.359375 
Q 56.15625 35.359375 55.71875 33.015625 
z
" id="DejaVuSans-Oblique-104"/>
      <path d="M 10.59375 35.5 
L 73.1875 35.5 
L 73.1875 27.203125 
L 10.59375 27.203125 
z
" id="DejaVuSans-8722"/>
      <path d="M 12.40625 8.296875 
L 28.515625 8.296875 
L 28.515625 63.921875 
L 10.984375 60.40625 
L 10.984375 69.390625 
L 28.421875 72.90625 
L 38.28125 72.90625 
L 38.28125 8.296875 
L 54.390625 8.296875 
L 54.390625 0 
L 12.40625 0 
z
" id="DejaVuSans-49"/>
      <path d="M 21.296875 -19.875 
L 1.90625 -19.875 
L 1.90625 -12.59375 
L 12.5 -12.59375 
L 12.5 64.3125 
L 1.90625 64.3125 
L 1.90625 71.578125 
L 21.296875 71.578125 
z
" id="ArialMT-93"/>
     </defs>
     <g style="fill:#262626;" transform="translate(21.6 290.976926)rotate(-90)scale(0.16 -0.16)">
      <use transform="translate(0 0.684375)" xlink:href="#ArialMT-67"/>
      <use transform="translate(72.216797 0.684375)" xlink:href="#ArialMT-111"/>
      <use transform="translate(127.832031 0.684375)" xlink:href="#ArialMT-117"/>
      <use transform="translate(183.447266 0.684375)" xlink:href="#ArialMT-110"/>
      <use transform="translate(239.0625 0.684375)" xlink:href="#ArialMT-116"/>
      <use transform="translate(266.845703 0.684375)" xlink:href="#ArialMT-32"/>
      <use transform="translate(294.628906 0.684375)" xlink:href="#ArialMT-91"/>
      <use transform="translate(322.412109 0.684375)" xlink:href="#DejaVuSans-Oblique-104"/>
      <use transform="translate(393.238724 38.965625)scale(0.7)" xlink:href="#DejaVuSans-8722"/>
      <use transform="translate(451.891068 38.965625)scale(0.7)" xlink:href="#DejaVuSans-49"/>
      <use transform="translate(499.161576 0.684375)" xlink:href="#ArialMT-93"/>
     </g>
    </g>
   </g>
   <g id="PolyCollection_1">
    <defs>
     <path d="M 124.485207 -69.430175 
L 86.356437 -69.430175 
L 84.934676 -72.111874 
L 83.835837 -74.793572 
L 83.097836 -77.475271 
L 82.734039 -80.15697 
L 82.733607 -82.838668 
L 83.064572 -85.520367 
L 83.678932 -88.202066 
L 84.518802 -90.883765 
L 85.52263 -93.565463 
L 86.630607 -96.247162 
L 87.788749 -98.928861 
L 88.951406 -101.610559 
L 90.082291 -104.292258 
L 91.154338 -106.973957 
L 92.148752 -109.655655 
L 93.053669 -112.337354 
L 93.862718 -115.019053 
L 94.573709 -117.700751 
L 95.187533 -120.38245 
L 95.707313 -123.064149 
L 96.13776 -125.745847 
L 96.484685 -128.427546 
L 96.754613 -131.109245 
L 96.954442 -133.790943 
L 97.091129 -136.472642 
L 97.171393 -139.154341 
L 97.201437 -141.836039 
L 97.18671 -144.517738 
L 97.131743 -147.199437 
L 97.040078 -149.881136 
L 96.914297 -152.562834 
L 96.756177 -155.244533 
L 96.566922 -157.926232 
L 96.347482 -160.60793 
L 96.098882 -163.289629 
L 95.822553 -165.971328 
L 95.520609 -168.653026 
L 95.196052 -171.334725 
L 94.852889 -174.016424 
L 94.496162 -176.698122 
L 94.131891 -179.379821 
L 93.766941 -182.06152 
L 93.408803 -184.743218 
L 93.065311 -187.424917 
L 92.744286 -190.106616 
L 92.453129 -192.788314 
L 92.198383 -195.470013 
L 91.985322 -198.151712 
L 91.817595 -200.833411 
L 91.697006 -203.515109 
L 91.62345 -206.196808 
L 91.595034 -208.878507 
L 91.608383 -211.560205 
L 91.659076 -214.241904 
L 91.742167 -216.923603 
L 91.852723 -219.605301 
L 91.986312 -222.287 
L 92.139387 -224.968699 
L 92.309544 -227.650397 
L 92.495628 -230.332096 
L 92.697694 -233.013795 
L 92.916825 -235.695493 
L 93.154832 -238.377192 
L 93.413854 -241.058891 
L 93.695907 -243.740589 
L 94.002421 -246.422288 
L 94.333844 -249.103987 
L 94.689362 -251.785685 
L 95.0668 -254.467384 
L 95.462735 -257.149083 
L 95.872806 -259.830782 
L 96.29218 -262.51248 
L 96.716101 -265.194179 
L 97.140408 -267.875878 
L 97.561943 -270.557576 
L 97.978776 -273.239275 
L 98.390193 -275.920974 
L 98.796494 -278.602672 
L 99.198619 -281.284371 
L 99.5977 -283.96607 
L 99.994613 -286.647768 
L 100.389622 -289.329467 
L 100.782147 -292.011166 
L 101.170699 -294.692864 
L 101.552968 -297.374563 
L 101.926024 -300.056262 
L 102.286603 -302.73796 
L 102.631419 -305.419659 
L 102.957448 -308.101358 
L 103.262166 -310.783056 
L 103.543713 -313.464755 
L 103.800961 -316.146454 
L 104.033518 -318.828153 
L 104.241655 -321.509851 
L 104.4262 -324.19155 
L 104.588397 -326.873249 
L 104.729776 -329.554947 
L 104.852026 -332.236646 
L 104.956895 -334.918345 
L 105.884748 -334.918345 
L 105.884748 -334.918345 
L 105.989617 -332.236646 
L 106.111867 -329.554947 
L 106.253247 -326.873249 
L 106.415444 -324.19155 
L 106.599988 -321.509851 
L 106.808126 -318.828153 
L 107.040682 -316.146454 
L 107.297931 -313.464755 
L 107.579477 -310.783056 
L 107.884196 -308.101358 
L 108.210224 -305.419659 
L 108.55504 -302.73796 
L 108.91562 -300.056262 
L 109.288676 -297.374563 
L 109.670945 -294.692864 
L 110.059497 -292.011166 
L 110.452022 -289.329467 
L 110.84703 -286.647768 
L 111.243944 -283.96607 
L 111.643024 -281.284371 
L 112.04515 -278.602672 
L 112.451451 -275.920974 
L 112.862868 -273.239275 
L 113.2797 -270.557576 
L 113.701236 -267.875878 
L 114.125542 -265.194179 
L 114.549463 -262.51248 
L 114.968838 -259.830782 
L 115.378909 -257.149083 
L 115.774844 -254.467384 
L 116.152282 -251.785685 
L 116.507799 -249.103987 
L 116.839222 -246.422288 
L 117.145737 -243.740589 
L 117.42779 -241.058891 
L 117.686812 -238.377192 
L 117.924819 -235.695493 
L 118.14395 -233.013795 
L 118.346015 -230.332096 
L 118.532099 -227.650397 
L 118.702256 -224.968699 
L 118.855331 -222.287 
L 118.98892 -219.605301 
L 119.099477 -216.923603 
L 119.182568 -214.241904 
L 119.233261 -211.560205 
L 119.24661 -208.878507 
L 119.218194 -206.196808 
L 119.144637 -203.515109 
L 119.024048 -200.833411 
L 118.856322 -198.151712 
L 118.64326 -195.470013 
L 118.388515 -192.788314 
L 118.097357 -190.106616 
L 117.776332 -187.424917 
L 117.43284 -184.743218 
L 117.074702 -182.06152 
L 116.709752 -179.379821 
L 116.345482 -176.698122 
L 115.988755 -174.016424 
L 115.645591 -171.334725 
L 115.321034 -168.653026 
L 115.019091 -165.971328 
L 114.742762 -163.289629 
L 114.494162 -160.60793 
L 114.274721 -157.926232 
L 114.085467 -155.244533 
L 113.927346 -152.562834 
L 113.801566 -149.881136 
L 113.7099 -147.199437 
L 113.654933 -144.517738 
L 113.640206 -141.836039 
L 113.67025 -139.154341 
L 113.750515 -136.472642 
L 113.887202 -133.790943 
L 114.08703 -131.109245 
L 114.356958 -128.427546 
L 114.703884 -125.745847 
L 115.13433 -123.064149 
L 115.65411 -120.38245 
L 116.267935 -117.700751 
L 116.978925 -115.019053 
L 117.787975 -112.337354 
L 118.692892 -109.655655 
L 119.687306 -106.973957 
L 120.759352 -104.292258 
L 121.890238 -101.610559 
L 123.052894 -98.928861 
L 124.211037 -96.247162 
L 125.319014 -93.565463 
L 126.322841 -90.883765 
L 127.162712 -88.202066 
L 127.777071 -85.520367 
L 128.108036 -82.838668 
L 128.107604 -80.15697 
L 127.743807 -77.475271 
L 127.005807 -74.793572 
L 125.906968 -72.111874 
L 124.485207 -69.430175 
z
" id="m7cddf10365" style="stroke:#141414;stroke-width:1.5;"/>
    </defs>
    <g clip-path="url(#p0d6f753a8c)">
     <use style="fill:#083c1d;stroke:#141414;stroke-width:1.5;" x="0" xlink:href="#m7cddf10365" y="537.898851"/>
    </g>
   </g>
   <g id="PolyCollection_2">
    <defs>
     <path d="M 165.996747 -69.430175 
L 135.593755 -69.430175 
L 134.534209 -73.867584 
L 134.049973 -78.304993 
L 134.151797 -82.742402 
L 134.776762 -87.179811 
L 135.806334 -91.617221 
L 137.094423 -96.05463 
L 138.496851 -100.492039 
L 139.894323 -104.929448 
L 141.204228 -109.366857 
L 142.380826 -113.804266 
L 143.406934 -118.241675 
L 144.281953 -122.679084 
L 145.010835 -127.116493 
L 145.596976 -131.553902 
L 146.039939 -135.991312 
L 146.337118 -140.428721 
L 146.487528 -144.86613 
L 146.495672 -149.303539 
L 146.37398 -153.740948 
L 146.143037 -158.178357 
L 145.82968 -162.615766 
L 145.463638 -167.053175 
L 145.07372 -171.490584 
L 144.684523 -175.927994 
L 144.314338 -180.365403 
L 143.974499 -184.802812 
L 143.670049 -189.240221 
L 143.401262 -193.67763 
L 143.165508 -198.115039 
L 142.958973 -202.552448 
L 142.777889 -206.989857 
L 142.61911 -211.427266 
L 142.480023 -215.864675 
L 142.357959 -220.302085 
L 142.249377 -224.739494 
L 142.14916 -229.176903 
L 142.050362 -233.614312 
L 141.94459 -238.051721 
L 141.823048 -242.48913 
L 141.678035 -246.926539 
L 141.504573 -251.363948 
L 141.301781 -255.801357 
L 141.073684 -260.238766 
L 140.829295 -264.676176 
L 140.581948 -269.113585 
L 140.347997 -273.550994 
L 140.145102 -277.988403 
L 139.990355 -282.425812 
L 139.898512 -286.863221 
L 139.880591 -291.30063 
L 139.942986 -295.738039 
L 140.087209 -300.175448 
L 140.310206 -304.612857 
L 140.605139 -309.050267 
L 140.962448 -313.487676 
L 141.370978 -317.925085 
L 141.819031 -322.362494 
L 142.295217 -326.799903 
L 142.789067 -331.237312 
L 143.291425 -335.674721 
L 143.794625 -340.11213 
L 144.292481 -344.549539 
L 144.780137 -348.986949 
L 145.253793 -353.424358 
L 145.710393 -357.861767 
L 146.147334 -362.299176 
L 146.56227 -366.736585 
L 146.95304 -371.173994 
L 147.31769 -375.611403 
L 147.654575 -380.048812 
L 147.962461 -384.486221 
L 148.240634 -388.92363 
L 148.489004 -393.36104 
L 148.70822 -397.798449 
L 148.899781 -402.235858 
L 149.066107 -406.673267 
L 149.210488 -411.110676 
L 149.33686 -415.548085 
L 149.449401 -419.985494 
L 149.552013 -424.422903 
L 149.647802 -428.860312 
L 149.738713 -433.297721 
L 149.825405 -437.735131 
L 149.907416 -442.17254 
L 149.983551 -446.609949 
L 150.052384 -451.047358 
L 150.11273 -455.484767 
L 150.164 -459.922176 
L 150.206366 -464.359585 
L 150.240783 -468.796994 
L 150.268873 -473.234403 
L 150.292752 -477.671812 
L 150.314797 -482.109222 
L 150.337391 -486.546631 
L 150.362637 -490.98404 
L 150.392069 -495.421449 
L 150.426423 -499.858858 
L 150.465503 -504.296267 
L 150.508217 -508.733676 
L 151.082285 -508.733676 
L 151.082285 -508.733676 
L 151.124999 -504.296267 
L 151.164079 -499.858858 
L 151.198433 -495.421449 
L 151.227865 -490.98404 
L 151.25311 -486.546631 
L 151.275705 -482.109222 
L 151.29775 -477.671812 
L 151.321628 -473.234403 
L 151.349719 -468.796994 
L 151.384136 -464.359585 
L 151.426502 -459.922176 
L 151.477771 -455.484767 
L 151.538118 -451.047358 
L 151.606951 -446.609949 
L 151.683086 -442.17254 
L 151.765097 -437.735131 
L 151.851789 -433.297721 
L 151.942699 -428.860312 
L 152.038489 -424.422903 
L 152.1411 -419.985494 
L 152.253642 -415.548085 
L 152.380013 -411.110676 
L 152.524395 -406.673267 
L 152.690721 -402.235858 
L 152.882282 -397.798449 
L 153.101497 -393.36104 
L 153.349867 -388.92363 
L 153.628041 -384.486221 
L 153.935927 -380.048812 
L 154.272811 -375.611403 
L 154.637462 -371.173994 
L 155.028231 -366.736585 
L 155.443168 -362.299176 
L 155.880109 -357.861767 
L 156.336709 -353.424358 
L 156.810365 -348.986949 
L 157.298021 -344.549539 
L 157.795877 -340.11213 
L 158.299076 -335.674721 
L 158.801435 -331.237312 
L 159.295285 -326.799903 
L 159.77147 -322.362494 
L 160.219524 -317.925085 
L 160.628054 -313.487676 
L 160.985362 -309.050267 
L 161.280296 -304.612857 
L 161.503293 -300.175448 
L 161.647516 -295.738039 
L 161.709911 -291.30063 
L 161.691989 -286.863221 
L 161.600147 -282.425812 
L 161.4454 -277.988403 
L 161.242505 -273.550994 
L 161.008554 -269.113585 
L 160.761206 -264.676176 
L 160.516818 -260.238766 
L 160.288721 -255.801357 
L 160.085929 -251.363948 
L 159.912467 -246.926539 
L 159.767454 -242.48913 
L 159.645912 -238.051721 
L 159.54014 -233.614312 
L 159.441342 -229.176903 
L 159.341125 -224.739494 
L 159.232542 -220.302085 
L 159.110479 -215.864675 
L 158.971392 -211.427266 
L 158.812613 -206.989857 
L 158.631529 -202.552448 
L 158.424993 -198.115039 
L 158.189239 -193.67763 
L 157.920453 -189.240221 
L 157.616003 -184.802812 
L 157.276164 -180.365403 
L 156.905978 -175.927994 
L 156.516782 -171.490584 
L 156.126864 -167.053175 
L 155.760821 -162.615766 
L 155.447464 -158.178357 
L 155.216521 -153.740948 
L 155.094829 -149.303539 
L 155.102974 -144.86613 
L 155.253383 -140.428721 
L 155.550563 -135.991312 
L 155.993525 -131.553902 
L 156.579667 -127.116493 
L 157.308548 -122.679084 
L 158.183568 -118.241675 
L 159.209676 -113.804266 
L 160.386273 -109.366857 
L 161.696178 -104.929448 
L 163.093651 -100.492039 
L 164.496078 -96.05463 
L 165.784167 -91.617221 
L 166.813739 -87.179811 
L 167.438704 -82.742402 
L 167.540529 -78.304993 
L 167.056292 -73.867584 
L 165.996747 -69.430175 
z
" id="m6f1682c5fd" style="stroke:#141414;stroke-width:1.5;"/>
    </defs>
    <g clip-path="url(#p0d6f753a8c)">
     <use style="fill:#0e5f2f;stroke:#141414;stroke-width:1.5;" x="0" xlink:href="#m6f1682c5fd" y="537.898851"/>
    </g>
   </g>
   <g id="PolyCollection_3">
    <defs>
     <path d="M 239.025692 -69.430175 
L 198.688097 -69.430175 
L 197.589242 -71.621375 
L 196.788192 -73.812575 
L 196.311702 -76.003775 
L 196.16968 -78.194975 
L 196.354934 -80.386175 
L 196.844397 -82.577375 
L 197.601622 -84.768575 
L 198.58019 -86.959775 
L 199.727602 -89.150975 
L 200.989203 -91.342175 
L 202.311752 -93.533374 
L 203.646347 -95.724574 
L 204.950526 -97.915774 
L 206.189518 -100.106974 
L 207.336701 -102.298174 
L 208.373404 -104.489374 
L 209.28824 -106.680574 
L 210.076145 -108.871774 
L 210.737282 -111.062974 
L 211.275943 -113.254174 
L 211.699528 -115.445374 
L 212.017641 -117.636574 
L 212.241319 -119.827774 
L 212.382394 -122.018974 
L 212.452954 -124.210174 
L 212.464907 -126.401374 
L 212.429609 -128.592574 
L 212.357555 -130.783774 
L 212.258132 -132.974974 
L 212.139416 -135.166174 
L 212.008038 -137.357373 
L 211.869097 -139.548573 
L 211.726153 -141.739773 
L 211.58128 -143.930973 
L 211.435183 -146.122173 
L 211.287391 -148.313373 
L 211.136502 -150.504573 
L 210.980472 -152.695773 
L 210.816946 -154.886973 
L 210.643593 -157.078173 
L 210.458439 -159.269373 
L 210.260166 -161.460573 
L 210.048362 -163.651773 
L 209.823697 -165.842973 
L 209.588003 -168.034173 
L 209.344269 -170.225373 
L 209.096522 -172.416573 
L 208.84962 -174.607773 
L 208.608965 -176.798973 
L 208.380162 -178.990173 
L 208.168646 -181.181372 
L 207.979322 -183.372572 
L 207.816242 -185.563772 
L 207.682355 -187.754972 
L 207.579338 -189.946172 
L 207.507549 -192.137372 
L 207.466073 -194.328572 
L 207.452877 -196.519772 
L 207.465042 -198.710972 
L 207.499051 -200.902172 
L 207.551105 -203.093372 
L 207.617439 -205.284572 
L 207.694612 -207.475772 
L 207.779743 -209.666972 
L 207.8707 -211.858172 
L 207.966219 -214.049372 
L 208.065967 -216.240572 
L 208.170544 -218.431772 
L 208.281443 -220.622972 
L 208.400965 -222.814172 
L 208.532092 -225.005371 
L 208.678332 -227.196571 
L 208.843512 -229.387771 
L 209.031552 -231.578971 
L 209.246198 -233.770171 
L 209.490741 -235.961371 
L 209.767726 -238.152571 
L 210.078687 -240.343771 
L 210.423929 -242.534971 
L 210.802374 -244.726171 
L 211.211508 -246.917371 
L 211.647432 -249.108571 
L 212.105024 -251.299771 
L 212.578188 -253.490971 
L 213.060191 -255.682171 
L 213.544029 -257.873371 
L 214.022806 -260.064571 
L 214.490079 -262.255771 
L 214.940146 -264.446971 
L 215.368255 -266.63817 
L 215.770717 -268.82937 
L 216.144939 -271.02057 
L 216.489379 -273.21177 
L 216.803435 -275.40297 
L 217.087306 -277.59417 
L 217.341828 -279.78537 
L 217.568314 -281.97657 
L 217.768401 -284.16777 
L 217.94393 -286.35897 
L 219.769859 -286.35897 
L 219.769859 -286.35897 
L 219.945388 -284.16777 
L 220.145475 -281.97657 
L 220.37196 -279.78537 
L 220.626483 -277.59417 
L 220.910354 -275.40297 
L 221.22441 -273.21177 
L 221.56885 -271.02057 
L 221.943072 -268.82937 
L 222.345534 -266.63817 
L 222.773642 -264.446971 
L 223.22371 -262.255771 
L 223.690983 -260.064571 
L 224.16976 -257.873371 
L 224.653598 -255.682171 
L 225.135601 -253.490971 
L 225.608765 -251.299771 
L 226.066356 -249.108571 
L 226.502281 -246.917371 
L 226.911415 -244.726171 
L 227.28986 -242.534971 
L 227.635102 -240.343771 
L 227.946063 -238.152571 
L 228.223048 -235.961371 
L 228.46759 -233.770171 
L 228.682237 -231.578971 
L 228.870277 -229.387771 
L 229.035457 -227.196571 
L 229.181696 -225.005371 
L 229.312824 -222.814172 
L 229.432346 -220.622972 
L 229.543245 -218.431772 
L 229.647822 -216.240572 
L 229.747569 -214.049372 
L 229.843089 -211.858172 
L 229.934046 -209.666972 
L 230.019177 -207.475772 
L 230.096349 -205.284572 
L 230.162684 -203.093372 
L 230.214738 -200.902172 
L 230.248746 -198.710972 
L 230.260911 -196.519772 
L 230.247716 -194.328572 
L 230.20624 -192.137372 
L 230.134451 -189.946172 
L 230.031434 -187.754972 
L 229.897546 -185.563772 
L 229.734467 -183.372572 
L 229.545143 -181.181372 
L 229.333626 -178.990173 
L 229.104823 -176.798973 
L 228.864169 -174.607773 
L 228.617267 -172.416573 
L 228.36952 -170.225373 
L 228.125786 -168.034173 
L 227.890092 -165.842973 
L 227.665426 -163.651773 
L 227.453623 -161.460573 
L 227.25535 -159.269373 
L 227.070195 -157.078173 
L 226.896842 -154.886973 
L 226.733316 -152.695773 
L 226.577287 -150.504573 
L 226.426397 -148.313373 
L 226.278606 -146.122173 
L 226.132509 -143.930973 
L 225.987635 -141.739773 
L 225.844692 -139.548573 
L 225.705751 -137.357373 
L 225.574372 -135.166174 
L 225.455657 -132.974974 
L 225.356234 -130.783774 
L 225.28418 -128.592574 
L 225.248882 -126.401374 
L 225.260835 -124.210174 
L 225.331395 -122.018974 
L 225.47247 -119.827774 
L 225.696148 -117.636574 
L 226.014261 -115.445374 
L 226.437846 -113.254174 
L 226.976507 -111.062974 
L 227.637643 -108.871774 
L 228.425548 -106.680574 
L 229.340385 -104.489374 
L 230.377088 -102.298174 
L 231.52427 -100.106974 
L 232.763262 -97.915774 
L 234.067441 -95.724574 
L 235.402036 -93.533374 
L 236.724586 -91.342175 
L 237.986187 -89.150975 
L 239.133598 -86.959775 
L 240.112166 -84.768575 
L 240.869391 -82.577375 
L 241.358855 -80.386175 
L 241.544109 -78.194975 
L 241.402087 -76.003775 
L 240.925597 -73.812575 
L 240.124547 -71.621375 
L 239.025692 -69.430175 
z
" id="m499a080df1" style="stroke:#141414;stroke-width:1.5;"/>
    </defs>
    <g clip-path="url(#p0d6f753a8c)">
     <use style="fill:#083c1d;stroke:#141414;stroke-width:1.5;" x="0" xlink:href="#m499a080df1" y="537.898851"/>
    </g>
   </g>
   <g id="PolyCollection_4">
    <defs>
     <path d="M 279.153612 -69.430175 
L 249.309035 -69.430175 
L 248.470542 -72.657382 
L 248.059838 -75.884588 
L 248.099323 -79.111795 
L 248.570607 -82.339002 
L 249.418053 -85.566208 
L 250.557475 -88.793415 
L 251.888062 -92.020621 
L 253.305204 -95.247828 
L 254.711991 -98.475035 
L 256.027799 -101.702241 
L 257.193244 -104.929448 
L 258.17159 -108.156654 
L 258.947315 -111.383861 
L 259.522829 -114.611068 
L 259.914292 -117.838274 
L 260.147285 -121.065481 
L 260.252803 -124.292688 
L 260.263787 -127.519894 
L 260.212264 -130.747101 
L 260.127093 -133.974307 
L 260.032324 -137.201514 
L 259.946183 -140.428721 
L 259.880689 -143.655927 
L 259.8419 -146.883134 
L 259.830689 -150.110341 
L 259.843936 -153.337547 
L 259.87593 -156.564754 
L 259.919775 -159.79196 
L 259.96861 -163.019167 
L 260.016494 -166.246374 
L 260.058877 -169.47358 
L 260.092651 -172.700787 
L 260.115861 -175.927994 
L 260.12717 -179.1552 
L 260.125237 -182.382407 
L 260.108118 -185.609613 
L 260.072813 -188.83682 
L 260.015013 -192.064027 
L 259.929084 -195.291233 
L 259.808266 -198.51844 
L 259.645074 -201.745646 
L 259.431831 -204.972853 
L 259.16129 -208.20006 
L 258.827285 -211.427266 
L 258.425356 -214.654473 
L 257.953287 -217.88168 
L 257.411536 -221.108886 
L 256.803489 -224.336093 
L 256.135559 -227.563299 
L 255.417094 -230.790506 
L 254.660148 -234.017713 
L 253.87912 -237.244919 
L 253.090333 -240.472126 
L 252.311591 -243.699333 
L 251.56175 -246.926539 
L 250.860321 -250.153746 
L 250.227086 -253.380952 
L 249.681666 -256.608159 
L 249.243005 -259.835366 
L 248.92868 -263.062572 
L 248.754038 -266.289779 
L 248.731186 -269.516985 
L 248.867927 -272.744192 
L 249.166788 -275.971399 
L 249.624312 -279.198605 
L 250.230753 -282.425812 
L 250.970291 -285.653019 
L 251.821759 -288.880225 
L 252.759847 -292.107432 
L 253.756644 -295.334638 
L 254.783356 -298.561845 
L 255.812012 -301.789052 
L 256.817001 -305.016258 
L 257.776317 -308.243465 
L 258.672414 -311.470672 
L 259.492651 -314.697878 
L 260.22933 -317.925085 
L 260.87938 -321.152291 
L 261.443754 -324.379498 
L 261.926649 -327.606705 
L 262.334612 -330.833911 
L 262.675661 -334.061118 
L 262.958467 -337.288325 
L 263.191669 -340.515531 
L 263.38336 -343.742738 
L 263.540751 -346.969944 
L 263.670005 -350.197151 
L 263.776216 -353.424358 
L 263.863493 -356.651564 
L 263.935106 -359.878771 
L 263.993663 -363.105977 
L 264.041272 -366.333184 
L 264.079687 -369.560391 
L 264.11041 -372.787597 
L 264.134762 -376.014804 
L 264.153918 -379.242011 
L 264.168923 -382.469217 
L 264.180687 -385.696424 
L 264.189982 -388.92363 
L 264.272665 -388.92363 
L 264.272665 -388.92363 
L 264.28196 -385.696424 
L 264.293724 -382.469217 
L 264.308729 -379.242011 
L 264.327885 -376.014804 
L 264.352237 -372.787597 
L 264.38296 -369.560391 
L 264.421375 -366.333184 
L 264.468984 -363.105977 
L 264.527541 -359.878771 
L 264.599154 -356.651564 
L 264.68643 -353.424358 
L 264.792642 -350.197151 
L 264.921896 -346.969944 
L 265.079287 -343.742738 
L 265.270978 -340.515531 
L 265.50418 -337.288325 
L 265.786986 -334.061118 
L 266.128035 -330.833911 
L 266.535998 -327.606705 
L 267.018892 -324.379498 
L 267.583267 -321.152291 
L 268.233316 -317.925085 
L 268.969996 -314.697878 
L 269.790233 -311.470672 
L 270.68633 -308.243465 
L 271.645646 -305.016258 
L 272.650635 -301.789052 
L 273.67929 -298.561845 
L 274.706003 -295.334638 
L 275.7028 -292.107432 
L 276.640888 -288.880225 
L 277.492356 -285.653019 
L 278.231894 -282.425812 
L 278.838335 -279.198605 
L 279.295858 -275.971399 
L 279.594719 -272.744192 
L 279.731461 -269.516985 
L 279.708609 -266.289779 
L 279.533967 -263.062572 
L 279.219641 -259.835366 
L 278.78098 -256.608159 
L 278.235561 -253.380952 
L 277.602325 -250.153746 
L 276.900897 -246.926539 
L 276.151056 -243.699333 
L 275.372314 -240.472126 
L 274.583527 -237.244919 
L 273.802499 -234.017713 
L 273.045553 -230.790506 
L 272.327088 -227.563299 
L 271.659157 -224.336093 
L 271.051111 -221.108886 
L 270.509359 -217.88168 
L 270.037291 -214.654473 
L 269.635361 -211.427266 
L 269.301357 -208.20006 
L 269.030816 -204.972853 
L 268.817573 -201.745646 
L 268.654381 -198.51844 
L 268.533563 -195.291233 
L 268.447633 -192.064027 
L 268.389833 -188.83682 
L 268.354528 -185.609613 
L 268.337409 -182.382407 
L 268.335476 -179.1552 
L 268.346786 -175.927994 
L 268.369996 -172.700787 
L 268.40377 -169.47358 
L 268.446153 -166.246374 
L 268.494037 -163.019167 
L 268.542872 -159.79196 
L 268.586716 -156.564754 
L 268.61871 -153.337547 
L 268.631958 -150.110341 
L 268.620747 -146.883134 
L 268.581957 -143.655927 
L 268.516464 -140.428721 
L 268.430323 -137.201514 
L 268.335554 -133.974307 
L 268.250383 -130.747101 
L 268.198859 -127.519894 
L 268.209844 -124.292688 
L 268.315362 -121.065481 
L 268.548355 -117.838274 
L 268.939817 -114.611068 
L 269.515332 -111.383861 
L 270.291057 -108.156654 
L 271.269402 -104.929448 
L 272.434848 -101.702241 
L 273.750656 -98.475035 
L 275.157442 -95.247828 
L 276.574584 -92.020621 
L 277.905171 -88.793415 
L 279.044593 -85.566208 
L 279.89204 -82.339002 
L 280.363324 -79.111795 
L 280.402809 -75.884588 
L 279.992105 -72.657382 
L 279.153612 -69.430175 
z
" id="maf71977cda" style="stroke:#141414;stroke-width:1.5;"/>
    </defs>
    <g clip-path="url(#p0d6f753a8c)">
     <use style="fill:#0e5f2f;stroke:#141414;stroke-width:1.5;" x="0" xlink:href="#maf71977cda" y="537.898851"/>
    </g>
   </g>
   <g id="PolyCollection_5">
    <defs>
     <path d="M 350.287803 -69.430175 
L 314.298131 -69.430175 
L 311.526022 -71.153797 
L 310.161463 -72.877418 
L 310.076296 -74.60104 
L 310.709925 -76.324662 
L 311.381655 -78.048284 
L 311.618336 -79.771905 
L 311.312057 -81.495527 
L 310.663986 -83.219149 
L 310.003259 -84.942771 
L 309.607642 -86.666392 
L 309.605752 -88.390014 
L 309.97147 -90.113636 
L 310.577527 -91.837257 
L 311.265804 -93.560879 
L 311.903132 -95.284501 
L 312.409434 -97.008123 
L 312.760784 -98.731744 
L 312.977271 -100.455366 
L 313.104403 -102.178988 
L 313.193566 -103.902609 
L 313.286106 -105.626231 
L 313.404316 -107.349853 
L 313.54832 -109.073475 
L 313.695622 -110.797096 
L 313.803934 -112.520718 
L 313.822643 -114.24434 
L 313.715115 -115.967961 
L 313.484308 -117.691583 
L 313.187548 -119.415205 
L 312.929119 -121.138827 
L 312.830079 -122.862448 
L 312.987839 -124.58607 
L 313.446 -126.309692 
L 314.190086 -128.033313 
L 315.167078 -129.756935 
L 316.309841 -131.480557 
L 317.548416 -133.204179 
L 318.808714 -134.9278 
L 320.015017 -136.651422 
L 321.10737 -138.375044 
L 322.064084 -140.098665 
L 322.908001 -141.822287 
L 323.687112 -143.545909 
L 324.443175 -145.269531 
L 325.191785 -146.993152 
L 325.925332 -148.716774 
L 326.630242 -150.440396 
L 327.300746 -152.164017 
L 327.938618 -153.887639 
L 328.542581 -155.611261 
L 329.099571 -157.334883 
L 329.587064 -159.058504 
L 329.985339 -160.782126 
L 330.290133 -162.505748 
L 330.516173 -164.22937 
L 330.689691 -165.952991 
L 330.836189 -167.676613 
L 330.971953 -169.400235 
L 331.103383 -171.123856 
L 331.231671 -172.847478 
L 331.357342 -174.5711 
L 331.481211 -176.294722 
L 331.602513 -178.018343 
L 331.717202 -179.741965 
L 331.818503 -181.465587 
L 331.899548 -183.189208 
L 331.956482 -184.91283 
L 331.990471 -186.636452 
L 332.007712 -188.360074 
L 332.017436 -190.083695 
L 332.028621 -191.807317 
L 332.046779 -193.530939 
L 332.072333 -195.25456 
L 332.101455 -196.978182 
L 332.128939 -198.701804 
L 332.151387 -200.425426 
L 332.168813 -202.149047 
L 332.183853 -203.872669 
L 332.199416 -205.596291 
L 332.216512 -207.319912 
L 332.233643 -209.043534 
L 332.247902 -210.767156 
L 332.256865 -212.490778 
L 332.26004 -214.214399 
L 332.259146 -215.938021 
L 332.257216 -217.661643 
L 332.257117 -219.385264 
L 332.260282 -221.108886 
L 332.266321 -222.832508 
L 332.273566 -224.55613 
L 332.280076 -226.279751 
L 332.284401 -228.003373 
L 332.285793 -229.726995 
L 332.284057 -231.450616 
L 332.279444 -233.174238 
L 332.272789 -234.89786 
L 332.265659 -236.621482 
L 332.260126 -238.345103 
L 332.258036 -240.068725 
L 332.327898 -240.068725 
L 332.327898 -240.068725 
L 332.325808 -238.345103 
L 332.320275 -236.621482 
L 332.313145 -234.89786 
L 332.30649 -233.174238 
L 332.301877 -231.450616 
L 332.30014 -229.726995 
L 332.301533 -228.003373 
L 332.305858 -226.279751 
L 332.312368 -224.55613 
L 332.319613 -222.832508 
L 332.325652 -221.108886 
L 332.328817 -219.385264 
L 332.328718 -217.661643 
L 332.326788 -215.938021 
L 332.325894 -214.214399 
L 332.329069 -212.490778 
L 332.338032 -210.767156 
L 332.352291 -209.043534 
L 332.369421 -207.319912 
L 332.386518 -205.596291 
L 332.402081 -203.872669 
L 332.417121 -202.149047 
L 332.434547 -200.425426 
L 332.456995 -198.701804 
L 332.484479 -196.978182 
L 332.513601 -195.25456 
L 332.539155 -193.530939 
L 332.557313 -191.807317 
L 332.568498 -190.083695 
L 332.578222 -188.360074 
L 332.595463 -186.636452 
L 332.629451 -184.91283 
L 332.686386 -183.189208 
L 332.76743 -181.465587 
L 332.868732 -179.741965 
L 332.98342 -178.018343 
L 333.104723 -176.294722 
L 333.228592 -174.5711 
L 333.354262 -172.847478 
L 333.482551 -171.123856 
L 333.613981 -169.400235 
L 333.749745 -167.676613 
L 333.896243 -165.952991 
L 334.069761 -164.22937 
L 334.295801 -162.505748 
L 334.600595 -160.782126 
L 334.99887 -159.058504 
L 335.486362 -157.334883 
L 336.043353 -155.611261 
L 336.647316 -153.887639 
L 337.285188 -152.164017 
L 337.955692 -150.440396 
L 338.660602 -148.716774 
L 339.394149 -146.993152 
L 340.142759 -145.269531 
L 340.898822 -143.545909 
L 341.677933 -141.822287 
L 342.52185 -140.098665 
L 343.478564 -138.375044 
L 344.570917 -136.651422 
L 345.77722 -134.9278 
L 347.037518 -133.204179 
L 348.276093 -131.480557 
L 349.418855 -129.756935 
L 350.395847 -128.033313 
L 351.139934 -126.309692 
L 351.598095 -124.58607 
L 351.755855 -122.862448 
L 351.656815 -121.138827 
L 351.398385 -119.415205 
L 351.101626 -117.691583 
L 350.870819 -115.967961 
L 350.763291 -114.24434 
L 350.782 -112.520718 
L 350.890312 -110.797096 
L 351.037614 -109.073475 
L 351.181618 -107.349853 
L 351.299827 -105.626231 
L 351.392368 -103.902609 
L 351.481531 -102.178988 
L 351.608663 -100.455366 
L 351.825149 -98.731744 
L 352.176499 -97.008123 
L 352.682802 -95.284501 
L 353.32013 -93.560879 
L 354.008407 -91.837257 
L 354.614464 -90.113636 
L 354.980181 -88.390014 
L 354.978291 -86.666392 
L 354.582674 -84.942771 
L 353.921948 -83.219149 
L 353.273876 -81.495527 
L 352.967598 -79.771905 
L 353.204279 -78.048284 
L 353.876009 -76.324662 
L 354.509638 -74.60104 
L 354.424471 -72.877418 
L 353.059912 -71.153797 
L 350.287803 -69.430175 
z
" id="mc215170cec" style="stroke:#141414;stroke-width:1.5;"/>
    </defs>
    <g clip-path="url(#p0d6f753a8c)">
     <use style="fill:#083c1d;stroke:#141414;stroke-width:1.5;" x="0" xlink:href="#mc215170cec" y="537.898851"/>
    </g>
   </g>
   <g id="PolyCollection_6">
    <defs>
     <path d="M 393.79907 -69.430175 
L 361.535722 -69.430175 
L 359.516295 -71.21339 
L 358.203857 -72.996605 
L 357.689894 -74.77982 
L 357.932568 -76.563035 
L 358.776997 -78.34625 
L 360.000513 -80.129465 
L 361.366024 -81.91268 
L 362.668031 -83.695895 
L 363.762444 -85.47911 
L 364.578606 -87.262325 
L 365.116325 -89.04554 
L 365.431984 -90.828755 
L 365.617396 -92.61197 
L 365.774909 -94.395185 
L 365.993021 -96.1784 
L 366.327485 -97.961615 
L 366.792297 -99.74483 
L 367.362374 -101.528045 
L 367.98609 -103.31126 
L 368.602746 -105.094475 
L 369.159056 -106.877691 
L 369.620024 -108.660906 
L 369.97227 -110.444121 
L 370.220562 -112.227336 
L 370.38012 -114.010551 
L 370.467785 -115.793766 
L 370.494886 -117.576981 
L 370.46366 -119.360196 
L 370.36787 -121.143411 
L 370.196882 -122.926626 
L 369.941394 -124.709841 
L 369.598536 -126.493056 
L 369.174587 -128.276271 
L 368.684705 -130.059486 
L 368.150377 -131.842701 
L 367.595996 -133.625916 
L 367.045833 -135.409131 
L 366.521893 -137.192346 
L 366.042367 -138.975561 
L 365.620169 -140.758776 
L 365.261396 -142.541991 
L 364.964259 -144.325206 
L 364.719365 -146.108421 
L 364.511973 -147.891636 
L 364.32609 -149.674851 
L 364.149385 -151.458066 
L 363.977372 -153.241281 
L 363.815478 -155.024496 
L 363.678231 -156.807711 
L 363.585816 -158.590926 
L 363.559103 -160.374141 
L 363.61478 -162.157356 
L 363.762099 -163.940571 
L 364.002139 -165.723786 
L 364.329514 -167.507001 
L 364.735562 -169.290216 
L 365.211577 -171.073431 
L 365.750812 -172.856646 
L 366.348652 -174.639861 
L 367.001223 -176.423076 
L 367.703281 -178.206291 
L 368.446391 -179.989506 
L 369.218059 -181.772721 
L 370.002003 -183.555936 
L 370.779358 -185.339151 
L 371.530418 -187.122366 
L 372.236627 -188.905581 
L 372.882546 -190.688797 
L 373.457566 -192.472012 
L 373.957063 -194.255227 
L 374.382663 -196.038442 
L 374.741467 -197.821657 
L 375.044353 -199.604872 
L 375.303779 -201.388087 
L 375.531621 -203.171302 
L 375.737481 -204.954517 
L 375.927693 -206.737732 
L 376.105044 -208.520947 
L 376.269145 -210.304162 
L 376.417373 -212.087377 
L 376.54621 -213.870592 
L 376.652698 -215.653807 
L 376.735601 -217.437022 
L 376.795889 -219.220237 
L 376.836419 -221.003452 
L 376.860979 -222.786667 
L 376.873173 -224.569882 
L 376.875639 -226.353097 
L 376.869921 -228.136312 
L 376.857022 -229.919527 
L 376.83837 -231.702742 
L 376.816802 -233.485957 
L 376.797161 -235.269172 
L 376.786144 -237.052387 
L 376.791296 -238.835602 
L 376.819262 -240.618817 
L 376.873805 -242.402032 
L 376.954285 -244.185247 
L 377.055287 -245.968462 
L 378.279504 -245.968462 
L 378.279504 -245.968462 
L 378.380507 -244.185247 
L 378.460987 -242.402032 
L 378.51553 -240.618817 
L 378.543496 -238.835602 
L 378.548648 -237.052387 
L 378.537631 -235.269172 
L 378.517989 -233.485957 
L 378.496422 -231.702742 
L 378.47777 -229.919527 
L 378.464871 -228.136312 
L 378.459153 -226.353097 
L 378.461619 -224.569882 
L 378.473813 -222.786667 
L 378.498373 -221.003452 
L 378.538903 -219.220237 
L 378.599191 -217.437022 
L 378.682094 -215.653807 
L 378.788582 -213.870592 
L 378.917419 -212.087377 
L 379.065647 -210.304162 
L 379.229748 -208.520947 
L 379.407099 -206.737732 
L 379.597311 -204.954517 
L 379.803171 -203.171302 
L 380.031013 -201.388087 
L 380.290439 -199.604872 
L 380.593325 -197.821657 
L 380.952129 -196.038442 
L 381.377729 -194.255227 
L 381.877226 -192.472012 
L 382.452246 -190.688797 
L 383.098165 -188.905581 
L 383.804374 -187.122366 
L 384.555434 -185.339151 
L 385.332788 -183.555936 
L 386.116733 -181.772721 
L 386.8884 -179.989506 
L 387.631511 -178.206291 
L 388.333569 -176.423076 
L 388.98614 -174.639861 
L 389.58398 -172.856646 
L 390.123214 -171.073431 
L 390.599229 -169.290216 
L 391.005278 -167.507001 
L 391.332653 -165.723786 
L 391.572693 -163.940571 
L 391.720012 -162.157356 
L 391.775689 -160.374141 
L 391.748976 -158.590926 
L 391.65656 -156.807711 
L 391.519314 -155.024496 
L 391.35742 -153.241281 
L 391.185407 -151.458066 
L 391.008701 -149.674851 
L 390.822819 -147.891636 
L 390.615427 -146.108421 
L 390.370533 -144.325206 
L 390.073396 -142.541991 
L 389.714623 -140.758776 
L 389.292424 -138.975561 
L 388.812899 -137.192346 
L 388.288959 -135.409131 
L 387.738796 -133.625916 
L 387.184415 -131.842701 
L 386.650087 -130.059486 
L 386.160205 -128.276271 
L 385.736256 -126.493056 
L 385.393398 -124.709841 
L 385.13791 -122.926626 
L 384.966922 -121.143411 
L 384.871132 -119.360196 
L 384.839906 -117.576981 
L 384.867007 -115.793766 
L 384.954672 -114.010551 
L 385.114229 -112.227336 
L 385.362522 -110.444121 
L 385.714768 -108.660906 
L 386.175736 -106.877691 
L 386.732046 -105.094475 
L 387.348702 -103.31126 
L 387.972418 -101.528045 
L 388.542495 -99.74483 
L 389.007307 -97.961615 
L 389.341771 -96.1784 
L 389.559883 -94.395185 
L 389.717396 -92.61197 
L 389.902808 -90.828755 
L 390.218467 -89.04554 
L 390.756186 -87.262325 
L 391.572348 -85.47911 
L 392.666761 -83.695895 
L 393.968767 -81.91268 
L 395.334279 -80.129465 
L 396.557794 -78.34625 
L 397.402223 -76.563035 
L 397.644898 -74.77982 
L 397.130935 -72.996605 
L 395.818496 -71.21339 
L 393.79907 -69.430175 
z
" id="md2e4730ee4" style="stroke:#141414;stroke-width:1.5;"/>
    </defs>
    <g clip-path="url(#p0d6f753a8c)">
     <use style="fill:#0e5f2f;stroke:#141414;stroke-width:1.5;" x="0" xlink:href="#md2e4730ee4" y="537.898851"/>
    </g>
   </g>
   <g id="PolyCollection_7">
    <defs>
     <path d="M 464.299012 -69.430175 
L 427.159066 -69.430175 
L 424.531912 -70.860414 
L 423.198345 -72.290654 
L 423.041825 -73.720893 
L 423.583992 -75.151132 
L 424.235533 -76.581372 
L 424.568971 -78.011611 
L 424.466495 -79.44185 
L 424.090037 -80.872089 
L 423.725966 -82.302329 
L 423.608336 -83.732568 
L 423.81053 -85.162807 
L 424.241755 -86.593047 
L 424.726731 -88.023286 
L 425.11014 -89.453525 
L 425.325673 -90.883765 
L 425.399826 -92.314004 
L 425.403355 -93.744243 
L 425.391671 -95.174482 
L 425.373605 -96.604722 
L 425.321595 -98.034961 
L 425.207087 -99.4652 
L 425.032811 -100.89544 
L 424.842563 -102.325679 
L 424.707622 -103.755918 
L 424.702027 -105.186157 
L 424.880143 -106.616397 
L 425.263398 -108.046636 
L 425.836772 -109.476875 
L 426.553961 -110.907115 
L 427.350983 -112.337354 
L 428.166402 -113.767593 
L 428.961258 -115.197833 
L 429.728184 -116.628072 
L 430.48348 -118.058311 
L 431.247092 -119.48855 
L 432.024719 -120.91879 
L 432.804473 -122.349029 
L 433.568481 -123.779268 
L 434.30809 -125.209508 
L 435.029907 -126.639747 
L 435.748976 -128.069986 
L 436.475554 -129.500226 
L 437.205051 -130.930465 
L 437.916383 -132.360704 
L 438.578325 -133.790943 
L 439.160731 -135.221183 
L 439.647176 -136.651422 
L 440.044734 -138.081661 
L 440.385528 -139.511901 
L 440.716539 -140.94214 
L 441.080441 -142.372379 
L 441.497157 -143.802619 
L 441.956872 -145.232858 
L 442.428333 -146.663097 
L 442.876191 -148.093336 
L 443.276041 -149.523576 
L 443.619371 -150.953815 
L 443.909009 -152.384054 
L 444.151784 -153.814294 
L 444.354481 -155.244533 
L 444.523961 -156.674772 
L 444.66813 -158.105011 
L 444.794899 -159.535251 
L 444.909658 -160.96549 
L 445.014017 -162.395729 
L 445.107267 -163.825969 
L 445.18918 -165.256208 
L 445.261539 -166.686447 
L 445.327251 -168.116687 
L 445.388251 -169.546926 
L 445.444146 -170.977165 
L 445.492433 -172.407404 
L 445.52969 -173.837644 
L 445.552798 -175.267883 
L 445.559947 -176.698122 
L 445.551616 -178.128362 
L 445.531465 -179.558601 
L 445.50639 -180.98884 
L 445.485075 -182.41908 
L 445.475228 -183.849319 
L 445.480763 -185.279558 
L 445.500439 -186.709797 
L 445.528661 -188.140037 
L 445.557933 -189.570276 
L 445.581733 -191.000515 
L 445.596681 -192.430755 
L 445.603282 -193.860994 
L 445.60509 -195.291233 
L 445.606648 -196.721473 
L 445.61117 -198.151712 
L 445.619187 -199.581951 
L 445.628802 -201.01219 
L 445.637201 -202.44243 
L 445.642355 -203.872669 
L 445.644002 -205.302908 
L 445.643646 -206.733148 
L 445.643832 -208.163387 
L 445.647073 -209.593626 
L 445.654802 -211.023866 
L 445.803277 -211.023866 
L 445.803277 -211.023866 
L 445.811006 -209.593626 
L 445.814247 -208.163387 
L 445.814433 -206.733148 
L 445.814077 -205.302908 
L 445.815724 -203.872669 
L 445.820878 -202.44243 
L 445.829277 -201.01219 
L 445.838892 -199.581951 
L 445.846909 -198.151712 
L 445.851431 -196.721473 
L 445.852989 -195.291233 
L 445.854797 -193.860994 
L 445.861398 -192.430755 
L 445.876346 -191.000515 
L 445.900146 -189.570276 
L 445.929418 -188.140037 
L 445.95764 -186.709797 
L 445.977316 -185.279558 
L 445.982851 -183.849319 
L 445.973004 -182.41908 
L 445.951689 -180.98884 
L 445.926614 -179.558601 
L 445.906463 -178.128362 
L 445.898132 -176.698122 
L 445.905281 -175.267883 
L 445.928389 -173.837644 
L 445.965646 -172.407404 
L 446.013933 -170.977165 
L 446.069828 -169.546926 
L 446.130828 -168.116687 
L 446.19654 -166.686447 
L 446.268898 -165.256208 
L 446.350812 -163.825969 
L 446.444062 -162.395729 
L 446.548421 -160.96549 
L 446.66318 -159.535251 
L 446.789949 -158.105011 
L 446.934118 -156.674772 
L 447.103598 -155.244533 
L 447.306295 -153.814294 
L 447.54907 -152.384054 
L 447.838708 -150.953815 
L 448.182038 -149.523576 
L 448.581888 -148.093336 
L 449.029746 -146.663097 
L 449.501207 -145.232858 
L 449.960922 -143.802619 
L 450.377638 -142.372379 
L 450.74154 -140.94214 
L 451.072551 -139.511901 
L 451.413345 -138.081661 
L 451.810903 -136.651422 
L 452.297348 -135.221183 
L 452.879754 -133.790943 
L 453.541696 -132.360704 
L 454.253028 -130.930465 
L 454.982525 -129.500226 
L 455.709103 -128.069986 
L 456.428172 -126.639747 
L 457.149989 -125.209508 
L 457.889598 -123.779268 
L 458.653606 -122.349029 
L 459.43336 -120.91879 
L 460.210987 -119.48855 
L 460.974599 -118.058311 
L 461.729895 -116.628072 
L 462.496821 -115.197833 
L 463.291677 -113.767593 
L 464.107096 -112.337354 
L 464.904117 -110.907115 
L 465.621307 -109.476875 
L 466.194681 -108.046636 
L 466.577936 -106.616397 
L 466.756052 -105.186157 
L 466.750457 -103.755918 
L 466.615516 -102.325679 
L 466.425268 -100.89544 
L 466.250992 -99.4652 
L 466.136484 -98.034961 
L 466.084474 -96.604722 
L 466.066408 -95.174482 
L 466.054724 -93.744243 
L 466.058253 -92.314004 
L 466.132406 -90.883765 
L 466.347939 -89.453525 
L 466.731348 -88.023286 
L 467.216324 -86.593047 
L 467.647549 -85.162807 
L 467.849743 -83.732568 
L 467.732113 -82.302329 
L 467.368041 -80.872089 
L 466.991584 -79.44185 
L 466.889108 -78.011611 
L 467.222546 -76.581372 
L 467.874087 -75.151132 
L 468.416254 -73.720893 
L 468.259734 -72.290654 
L 466.926167 -70.860414 
L 464.299012 -69.430175 
z
" id="mf8b1db9192" style="stroke:#141414;stroke-width:1.5;"/>
    </defs>
    <g clip-path="url(#p0d6f753a8c)">
     <use style="fill:#083c1d;stroke:#141414;stroke-width:1.5;" x="0" xlink:href="#mf8b1db9192" y="537.898851"/>
    </g>
   </g>
   <g id="PolyCollection_8">
    <defs>
     <path d="M 505.925742 -69.430175 
L 476.281195 -69.430175 
L 474.44675 -71.062115 
L 473.225831 -72.694054 
L 472.704781 -74.325994 
L 472.857781 -75.957934 
L 473.5605 -77.589874 
L 474.625867 -79.221813 
L 475.849303 -80.853753 
L 477.050145 -82.485693 
L 478.099812 -84.117632 
L 478.933004 -85.749572 
L 479.543296 -87.381512 
L 479.96775 -89.013452 
L 480.266383 -90.645391 
L 480.502003 -92.277331 
L 480.724577 -93.909271 
L 480.962478 -95.54121 
L 481.221052 -97.17315 
L 481.487311 -98.80509 
L 481.738415 -100.43703 
L 481.951136 -102.068969 
L 482.109646 -103.700909 
L 482.2098 -105.332849 
L 482.259201 -106.964788 
L 482.27363 -108.596728 
L 482.271356 -110.228668 
L 482.267315 -111.860608 
L 482.268912 -113.492547 
L 482.274552 -115.124487 
L 482.27505 -116.756427 
L 482.257207 -118.388366 
L 482.208258 -120.020306 
L 482.119719 -121.652246 
L 481.989429 -123.284186 
L 481.82129 -124.916125 
L 481.623075 -126.548065 
L 481.40343 -128.180005 
L 481.169455 -129.811944 
L 480.925901 -131.443884 
L 480.676162 -133.075824 
L 480.424313 -134.707764 
L 480.176964 -136.339703 
L 479.943868 -137.971643 
L 479.736949 -139.603583 
L 479.568235 -141.235522 
L 479.447661 -142.867462 
L 479.38162 -144.499402 
L 479.372673 -146.131341 
L 479.420302 -147.763281 
L 479.522257 -149.395221 
L 479.675983 -151.027161 
L 479.879729 -152.6591 
L 480.133029 -154.29104 
L 480.43643 -155.92298 
L 480.790487 -157.554919 
L 481.194289 -159.186859 
L 481.64396 -160.818799 
L 482.131628 -162.450739 
L 482.645245 -164.082678 
L 483.16945 -165.714618 
L 483.687402 -167.346558 
L 484.183272 -168.978497 
L 484.644821 -170.610437 
L 485.065399 -172.242377 
L 485.444717 -173.874317 
L 485.788112 -175.506256 
L 486.104486 -177.138196 
L 486.403598 -178.770136 
L 486.693551 -180.402075 
L 486.979182 -182.034015 
L 487.26165 -183.665955 
L 487.539039 -185.297895 
L 487.807529 -186.929834 
L 488.062632 -188.561774 
L 488.300197 -190.193714 
L 488.517044 -191.825653 
L 488.711274 -193.457593 
L 488.882278 -195.089533 
L 489.030482 -196.721473 
L 489.156862 -198.353412 
L 489.26236 -199.985352 
L 489.347439 -201.617292 
L 489.412 -203.249231 
L 489.455809 -204.881171 
L 489.479293 -206.513111 
L 489.484433 -208.145051 
L 489.475353 -209.77699 
L 489.458341 -211.40893 
L 489.44126 -213.04087 
L 489.432481 -214.672809 
L 489.439674 -216.304749 
L 489.468753 -217.936689 
L 489.523208 -219.568628 
L 489.603925 -221.200568 
L 489.709416 -222.832508 
L 489.836273 -224.464448 
L 489.979643 -226.096387 
L 490.133606 -227.728327 
L 490.291489 -229.360267 
L 490.446243 -230.992206 
L 491.760694 -230.992206 
L 491.760694 -230.992206 
L 491.915448 -229.360267 
L 492.073331 -227.728327 
L 492.227294 -226.096387 
L 492.370664 -224.464448 
L 492.497521 -222.832508 
L 492.603012 -221.200568 
L 492.683729 -219.568628 
L 492.738184 -217.936689 
L 492.767263 -216.304749 
L 492.774456 -214.672809 
L 492.765677 -213.04087 
L 492.748596 -211.40893 
L 492.731584 -209.77699 
L 492.722504 -208.145051 
L 492.727644 -206.513111 
L 492.751128 -204.881171 
L 492.794937 -203.249231 
L 492.859498 -201.617292 
L 492.944577 -199.985352 
L 493.050075 -198.353412 
L 493.176455 -196.721473 
L 493.324659 -195.089533 
L 493.495663 -193.457593 
L 493.689893 -191.825653 
L 493.90674 -190.193714 
L 494.144305 -188.561774 
L 494.399408 -186.929834 
L 494.667898 -185.297895 
L 494.945287 -183.665955 
L 495.227755 -182.034015 
L 495.513386 -180.402075 
L 495.803339 -178.770136 
L 496.102451 -177.138196 
L 496.418825 -175.506256 
L 496.76222 -173.874317 
L 497.141538 -172.242377 
L 497.562116 -170.610437 
L 498.023665 -168.978497 
L 498.519535 -167.346558 
L 499.037487 -165.714618 
L 499.561692 -164.082678 
L 500.075309 -162.450739 
L 500.562977 -160.818799 
L 501.012648 -159.186859 
L 501.41645 -157.554919 
L 501.770507 -155.92298 
L 502.073908 -154.29104 
L 502.327208 -152.6591 
L 502.530954 -151.027161 
L 502.68468 -149.395221 
L 502.786635 -147.763281 
L 502.834264 -146.131341 
L 502.825317 -144.499402 
L 502.759276 -142.867462 
L 502.638702 -141.235522 
L 502.469988 -139.603583 
L 502.263069 -137.971643 
L 502.029973 -136.339703 
L 501.782624 -134.707764 
L 501.530775 -133.075824 
L 501.281036 -131.443884 
L 501.037482 -129.811944 
L 500.803507 -128.180005 
L 500.583862 -126.548065 
L 500.385647 -124.916125 
L 500.217508 -123.284186 
L 500.087218 -121.652246 
L 499.998679 -120.020306 
L 499.94973 -118.388366 
L 499.931887 -116.756427 
L 499.932385 -115.124487 
L 499.938025 -113.492547 
L 499.939622 -111.860608 
L 499.935581 -110.228668 
L 499.933307 -108.596728 
L 499.947736 -106.964788 
L 499.997137 -105.332849 
L 500.097291 -103.700909 
L 500.255801 -102.068969 
L 500.468522 -100.43703 
L 500.719626 -98.80509 
L 500.985885 -97.17315 
L 501.244459 -95.54121 
L 501.48236 -93.909271 
L 501.704934 -92.277331 
L 501.940554 -90.645391 
L 502.239187 -89.013452 
L 502.663641 -87.381512 
L 503.273933 -85.749572 
L 504.107125 -84.117632 
L 505.156792 -82.485693 
L 506.357634 -80.853753 
L 507.58107 -79.221813 
L 508.646437 -77.589874 
L 509.349156 -75.957934 
L 509.502156 -74.325994 
L 508.981106 -72.694054 
L 507.760187 -71.062115 
L 505.925742 -69.430175 
z
" id="m176638dbf6" style="stroke:#141414;stroke-width:1.5;"/>
    </defs>
    <g clip-path="url(#p0d6f753a8c)">
     <use style="fill:#0e5f2f;stroke:#141414;stroke-width:1.5;" x="0" xlink:href="#m176638dbf6" y="537.898851"/>
    </g>
   </g>
   <g id="PolyCollection_9">
    <defs>
     <path d="M 574.928138 -69.430175 
L 543.402086 -69.430175 
L 540.92271 -70.883335 
L 538.887313 -72.336495 
L 537.439307 -73.789654 
L 536.642059 -75.242814 
L 536.477898 -76.695974 
L 536.864225 -78.149134 
L 537.678814 -79.602294 
L 538.785374 -81.055453 
L 540.05311 -82.508613 
L 541.368145 -83.961773 
L 542.638224 -85.414933 
L 543.793623 -86.868093 
L 544.78676 -88.321252 
L 545.591575 -89.774412 
L 546.202356 -91.227572 
L 546.631199 -92.680732 
L 546.903704 -94.133892 
L 547.053365 -95.587051 
L 547.115901 -97.040211 
L 547.124818 -98.493371 
L 547.108933 -99.946531 
L 547.09172 -101.399691 
L 547.091636 -102.85285 
L 547.122484 -104.30601 
L 547.193188 -105.75917 
L 547.307001 -107.21233 
L 547.460603 -108.66549 
L 547.643769 -110.118649 
L 547.840167 -111.571809 
L 548.029452 -113.024969 
L 548.190397 -114.478129 
L 548.304329 -115.931289 
L 548.357955 -117.384448 
L 548.344826 -118.837608 
L 548.265204 -120.290768 
L 548.124769 -121.743928 
L 547.932988 -123.197088 
L 547.701897 -124.650247 
L 547.445521 -126.103407 
L 547.179548 -127.556567 
L 546.920644 -129.009727 
L 546.685034 -130.462887 
L 546.486629 -131.916046 
L 546.335489 -133.369206 
L 546.23742 -134.822366 
L 546.195008 -136.275526 
L 546.209625 -137.728686 
L 546.28335 -139.181845 
L 546.419785 -140.635005 
L 546.623256 -142.088165 
L 546.896741 -143.541325 
L 547.239504 -144.994485 
L 547.645589 -146.447644 
L 548.103937 -147.900804 
L 548.600144 -149.353964 
L 549.119149 -150.807124 
L 549.647821 -152.260284 
L 550.176591 -153.713443 
L 550.699782 -155.166603 
L 551.214916 -156.619763 
L 551.721554 -158.072923 
L 552.220211 -159.526083 
L 552.711577 -160.979242 
L 553.195997 -162.432402 
L 553.673043 -163.885562 
L 554.14112 -165.338722 
L 554.597188 -166.791882 
L 555.036843 -168.245041 
L 555.454847 -169.698201 
L 555.846064 -171.151361 
L 556.206476 -172.604521 
L 556.533939 -174.057681 
L 556.828429 -175.51084 
L 557.091751 -176.964 
L 557.326922 -178.41716 
L 557.537468 -179.87032 
L 557.726854 -181.32348 
L 557.89813 -182.776639 
L 558.053761 -184.229799 
L 558.195604 -185.682959 
L 558.324964 -187.136119 
L 558.4427 -188.589279 
L 558.549349 -190.042438 
L 558.645238 -191.495598 
L 558.730595 -192.948758 
L 558.80564 -194.401918 
L 558.870679 -195.855078 
L 558.926181 -197.308237 
L 558.972809 -198.761397 
L 559.011397 -200.214557 
L 559.042865 -201.667717 
L 559.068115 -203.120877 
L 559.087972 -204.574036 
L 559.103176 -206.027196 
L 559.114444 -207.480356 
L 559.12254 -208.933516 
L 559.128299 -210.386676 
L 559.132583 -211.839835 
L 559.136169 -213.292995 
L 559.194055 -213.292995 
L 559.194055 -213.292995 
L 559.197641 -211.839835 
L 559.201925 -210.386676 
L 559.207684 -208.933516 
L 559.21578 -207.480356 
L 559.227049 -206.027196 
L 559.242252 -204.574036 
L 559.262109 -203.120877 
L 559.28736 -201.667717 
L 559.318827 -200.214557 
L 559.357415 -198.761397 
L 559.404043 -197.308237 
L 559.459545 -195.855078 
L 559.524584 -194.401918 
L 559.599629 -192.948758 
L 559.684986 -191.495598 
L 559.780875 -190.042438 
L 559.887524 -188.589279 
L 560.005261 -187.136119 
L 560.13462 -185.682959 
L 560.276463 -184.229799 
L 560.432094 -182.776639 
L 560.60337 -181.32348 
L 560.792756 -179.87032 
L 561.003302 -178.41716 
L 561.238473 -176.964 
L 561.501795 -175.51084 
L 561.796285 -174.057681 
L 562.123749 -172.604521 
L 562.48416 -171.151361 
L 562.875377 -169.698201 
L 563.293381 -168.245041 
L 563.733036 -166.791882 
L 564.189104 -165.338722 
L 564.657181 -163.885562 
L 565.134227 -162.432402 
L 565.618647 -160.979242 
L 566.110013 -159.526083 
L 566.60867 -158.072923 
L 567.115308 -156.619763 
L 567.630442 -155.166603 
L 568.153633 -153.713443 
L 568.682403 -152.260284 
L 569.211076 -150.807124 
L 569.73008 -149.353964 
L 570.226287 -147.900804 
L 570.684635 -146.447644 
L 571.09072 -144.994485 
L 571.433483 -143.541325 
L 571.706968 -142.088165 
L 571.910439 -140.635005 
L 572.046874 -139.181845 
L 572.120599 -137.728686 
L 572.135216 -136.275526 
L 572.092805 -134.822366 
L 571.994735 -133.369206 
L 571.843595 -131.916046 
L 571.64519 -130.462887 
L 571.40958 -129.009727 
L 571.150676 -127.556567 
L 570.884703 -126.103407 
L 570.628327 -124.650247 
L 570.397236 -123.197088 
L 570.205456 -121.743928 
L 570.06502 -120.290768 
L 569.985398 -118.837608 
L 569.972269 -117.384448 
L 570.025895 -115.931289 
L 570.139827 -114.478129 
L 570.300772 -113.024969 
L 570.490057 -111.571809 
L 570.686455 -110.118649 
L 570.869621 -108.66549 
L 571.023223 -107.21233 
L 571.137036 -105.75917 
L 571.20774 -104.30601 
L 571.238588 -102.85285 
L 571.238504 -101.399691 
L 571.221291 -99.946531 
L 571.205406 -98.493371 
L 571.214323 -97.040211 
L 571.276859 -95.587051 
L 571.42652 -94.133892 
L 571.699025 -92.680732 
L 572.127869 -91.227572 
L 572.738649 -89.774412 
L 573.543464 -88.321252 
L 574.536601 -86.868093 
L 575.692 -85.414933 
L 576.962079 -83.961773 
L 578.277114 -82.508613 
L 579.54485 -81.055453 
L 580.65141 -79.602294 
L 581.465999 -78.149134 
L 581.852327 -76.695974 
L 581.688165 -75.242814 
L 580.890917 -73.789654 
L 579.442911 -72.336495 
L 577.407514 -70.883335 
L 574.928138 -69.430175 
z
" id="mbdefb11f87" style="stroke:#141414;stroke-width:1.5;"/>
    </defs>
    <g clip-path="url(#p0d6f753a8c)">
     <use style="fill:#083c1d;stroke:#141414;stroke-width:1.5;" x="0" xlink:href="#mbdefb11f87" y="537.898851"/>
    </g>
   </g>
   <g id="PolyCollection_10">
    <defs>
     <path d="M 618.113071 -69.430175 
L 590.966012 -69.430175 
L 589.527542 -71.786403 
L 588.918841 -74.14263 
L 589.155187 -76.498858 
L 590.075376 -78.855085 
L 591.405769 -81.211313 
L 592.855207 -83.56754 
L 594.198906 -85.923768 
L 595.320446 -88.279996 
L 596.204934 -90.636223 
L 596.898729 -92.992451 
L 597.460934 -95.348678 
L 597.927959 -97.704906 
L 598.300702 -100.061133 
L 598.552083 -102.417361 
L 598.645626 -104.773588 
L 598.554797 -107.129816 
L 598.275744 -109.486044 
L 597.830629 -111.842271 
L 597.262555 -114.198499 
L 596.625378 -116.554726 
L 595.972316 -118.910954 
L 595.346684 -121.267181 
L 594.77687 -123.623409 
L 594.276144 -125.979637 
L 593.846538 -128.335864 
L 593.484978 -130.692092 
L 593.189392 -133.048319 
L 592.96281 -135.404547 
L 592.814384 -137.760774 
L 592.757524 -140.117002 
L 592.806287 -142.473229 
L 592.971441 -144.829457 
L 593.25728 -147.185685 
L 593.659607 -149.541912 
L 594.164959 -151.89814 
L 594.751081 -154.254367 
L 595.388827 -156.610595 
L 596.045526 -158.966822 
L 596.689409 -161.32305 
L 597.294104 -163.679277 
L 597.84201 -166.035505 
L 598.325592 -168.391733 
L 598.746403 -170.74796 
L 599.112362 -173.104188 
L 599.434313 -175.460415 
L 599.72296 -177.816643 
L 599.986968 -180.17287 
L 600.232446 -182.529098 
L 600.463464 -184.885326 
L 600.682931 -187.241553 
L 600.893171 -189.597781 
L 601.095894 -191.954008 
L 601.291778 -194.310236 
L 601.480084 -196.666463 
L 601.658701 -199.022691 
L 601.82469 -201.378918 
L 601.975078 -203.735146 
L 602.10759 -206.091374 
L 602.221077 -208.447601 
L 602.315601 -210.803829 
L 602.392268 -213.160056 
L 602.452954 -215.516284 
L 602.500035 -217.872511 
L 602.536203 -220.228739 
L 602.564335 -222.584966 
L 602.587377 -224.941194 
L 602.608145 -227.297422 
L 602.62905 -229.653649 
L 602.651843 -232.009877 
L 602.677526 -234.366104 
L 602.706529 -236.722332 
L 602.739097 -239.078559 
L 602.775671 -241.434787 
L 602.817004 -243.791015 
L 602.863888 -246.147242 
L 602.916583 -248.50347 
L 602.974273 -250.859697 
L 603.034927 -253.215925 
L 603.095734 -255.572152 
L 603.154007 -257.92838 
L 603.208129 -260.284607 
L 603.258065 -262.640835 
L 603.305145 -264.997063 
L 603.351211 -267.35329 
L 603.397539 -269.709518 
L 603.444097 -272.065745 
L 603.489484 -274.421973 
L 603.531536 -276.7782 
L 603.568243 -279.134428 
L 603.59856 -281.490656 
L 603.622859 -283.846883 
L 603.64306 -286.203111 
L 603.662588 -288.559338 
L 603.686163 -290.915566 
L 603.71926 -293.271793 
L 603.767031 -295.628021 
L 603.832777 -297.984248 
L 603.916479 -300.340476 
L 604.014124 -302.696704 
L 605.064958 -302.696704 
L 605.064958 -302.696704 
L 605.162603 -300.340476 
L 605.246305 -297.984248 
L 605.312051 -295.628021 
L 605.359822 -293.271793 
L 605.392919 -290.915566 
L 605.416494 -288.559338 
L 605.436022 -286.203111 
L 605.456223 -283.846883 
L 605.480522 -281.490656 
L 605.510839 -279.134428 
L 605.547547 -276.7782 
L 605.589598 -274.421973 
L 605.634985 -272.065745 
L 605.681543 -269.709518 
L 605.727871 -267.35329 
L 605.773937 -264.997063 
L 605.821017 -262.640835 
L 605.870953 -260.284607 
L 605.925075 -257.92838 
L 605.983348 -255.572152 
L 606.044155 -253.215925 
L 606.104809 -250.859697 
L 606.162499 -248.50347 
L 606.215194 -246.147242 
L 606.262078 -243.791015 
L 606.303412 -241.434787 
L 606.339985 -239.078559 
L 606.372553 -236.722332 
L 606.401556 -234.366104 
L 606.427239 -232.009877 
L 606.450032 -229.653649 
L 606.470937 -227.297422 
L 606.491705 -224.941194 
L 606.514747 -222.584966 
L 606.542879 -220.228739 
L 606.579047 -217.872511 
L 606.626128 -215.516284 
L 606.686814 -213.160056 
L 606.763481 -210.803829 
L 606.858005 -208.447601 
L 606.971492 -206.091374 
L 607.104005 -203.735146 
L 607.254393 -201.378918 
L 607.420381 -199.022691 
L 607.598998 -196.666463 
L 607.787304 -194.310236 
L 607.983188 -191.954008 
L 608.185911 -189.597781 
L 608.396151 -187.241553 
L 608.615619 -184.885326 
L 608.846636 -182.529098 
L 609.092114 -180.17287 
L 609.356122 -177.816643 
L 609.644769 -175.460415 
L 609.96672 -173.104188 
L 610.332679 -170.74796 
L 610.75349 -168.391733 
L 611.237072 -166.035505 
L 611.784978 -163.679277 
L 612.389674 -161.32305 
L 613.033556 -158.966822 
L 613.690255 -156.610595 
L 614.328001 -154.254367 
L 614.914123 -151.89814 
L 615.419475 -149.541912 
L 615.821802 -147.185685 
L 616.107641 -144.829457 
L 616.272795 -142.473229 
L 616.321558 -140.117002 
L 616.264698 -137.760774 
L 616.116272 -135.404547 
L 615.88969 -133.048319 
L 615.594104 -130.692092 
L 615.232544 -128.335864 
L 614.802938 -125.979637 
L 614.302212 -123.623409 
L 613.732398 -121.267181 
L 613.106767 -118.910954 
L 612.453704 -116.554726 
L 611.816527 -114.198499 
L 611.248453 -111.842271 
L 610.803338 -109.486044 
L 610.524285 -107.129816 
L 610.433456 -104.773588 
L 610.527 -102.417361 
L 610.77838 -100.061133 
L 611.151124 -97.704906 
L 611.618148 -95.348678 
L 612.180353 -92.992451 
L 612.874148 -90.636223 
L 613.758637 -88.279996 
L 614.880177 -85.923768 
L 616.223876 -83.56754 
L 617.673313 -81.211313 
L 619.003707 -78.855085 
L 619.923895 -76.498858 
L 620.160241 -74.14263 
L 619.55154 -71.786403 
L 618.113071 -69.430175 
z
" id="ma7862bda20" style="stroke:#141414;stroke-width:1.5;"/>
    </defs>
    <g clip-path="url(#p0d6f753a8c)">
     <use style="fill:#0e5f2f;stroke:#141414;stroke-width:1.5;" x="0" xlink:href="#ma7862bda20" y="537.898851"/>
    </g>
   </g>
   <g id="patch_3">
    <path clip-path="url(#p0d6f753a8c)" d="M 128.108036 468.468676 
L 128.108036 468.468676 
L 128.108036 468.468676 
L 128.108036 468.468676 
z
" style="fill:#083c1d;stroke:#141414;stroke-linejoin:miter;stroke-width:0.75;"/>
   </g>
   <g id="patch_4">
    <path clip-path="url(#p0d6f753a8c)" d="M 128.108036 468.468676 
L 128.108036 468.468676 
L 128.108036 468.468676 
L 128.108036 468.468676 
z
" style="fill:#0e5f2f;stroke:#141414;stroke-linejoin:miter;stroke-width:0.75;"/>
   </g>
   <g id="line2d_1">
    <path clip-path="url(#p0d6f753a8c)" d="M 105.420822 468.468676 
L 105.420822 202.980507 
" style="fill:none;stroke:#141414;stroke-linecap:round;stroke-width:1.5;"/>
   </g>
   <g id="line2d_2">
    <path clip-path="url(#p0d6f753a8c)" d="M 105.420822 448.954161 
L 105.420822 316.890815 
" style="fill:none;stroke:#141414;stroke-linecap:round;stroke-width:4.5;"/>
   </g>
   <g id="line2d_3">
    <path clip-path="url(#p0d6f753a8c)" d="M 150.795251 468.468676 
L 150.795251 29.165175 
" style="fill:none;stroke:#141414;stroke-linecap:round;stroke-width:1.5;"/>
   </g>
   <g id="line2d_4">
    <path clip-path="url(#p0d6f753a8c)" d="M 150.795251 447.138857 
L 150.795251 243.371014 
" style="fill:none;stroke:#141414;stroke-linecap:round;stroke-width:4.5;"/>
   </g>
   <g id="line2d_5">
    <path clip-path="url(#p0d6f753a8c)" d="M 218.856894 468.468676 
L 218.856894 251.539881 
" style="fill:none;stroke:#141414;stroke-linecap:round;stroke-width:1.5;"/>
   </g>
   <g id="line2d_6">
    <path clip-path="url(#p0d6f753a8c)" d="M 218.856894 460.299809 
L 218.856894 336.632243 
" style="fill:none;stroke:#141414;stroke-linecap:round;stroke-width:4.5;"/>
   </g>
   <g id="line2d_7">
    <path clip-path="url(#p0d6f753a8c)" d="M 264.231323 468.468676 
L 264.231323 148.975221 
" style="fill:none;stroke:#141414;stroke-linecap:round;stroke-width:1.5;"/>
   </g>
   <g id="line2d_8">
    <path clip-path="url(#p0d6f753a8c)" d="M 264.231323 455.76155 
L 264.231323 269.239093 
" style="fill:none;stroke:#141414;stroke-linecap:round;stroke-width:4.5;"/>
   </g>
   <g id="line2d_9">
    <path clip-path="url(#p0d6f753a8c)" d="M 332.292967 468.468676 
L 332.292967 355.919845 
" style="fill:none;stroke:#141414;stroke-linecap:round;stroke-width:1.5;"/>
   </g>
   <g id="line2d_10">
    <path clip-path="url(#p0d6f753a8c)" d="M 332.292967 453.49242 
L 332.292967 414.009564 
" style="fill:none;stroke:#141414;stroke-linecap:round;stroke-width:4.5;"/>
   </g>
   <g id="line2d_11">
    <path clip-path="url(#p0d6f753a8c)" d="M 377.667396 468.468676 
L 377.667396 291.930389 
" style="fill:none;stroke:#141414;stroke-linecap:round;stroke-width:1.5;"/>
   </g>
   <g id="line2d_12">
    <path clip-path="url(#p0d6f753a8c)" d="M 377.667396 452.584769 
L 377.667396 377.249664 
" style="fill:none;stroke:#141414;stroke-linecap:round;stroke-width:4.5;"/>
   </g>
   <g id="line2d_13">
    <path clip-path="url(#p0d6f753a8c)" d="M 445.729039 468.468676 
L 445.729039 375.888186 
" style="fill:none;stroke:#141414;stroke-linecap:round;stroke-width:1.5;"/>
   </g>
   <g id="line2d_14">
    <path clip-path="url(#p0d6f753a8c)" d="M 445.729039 455.76155 
L 445.729039 423.539909 
" style="fill:none;stroke:#141414;stroke-linecap:round;stroke-width:4.5;"/>
   </g>
   <g id="line2d_15">
    <path clip-path="url(#p0d6f753a8c)" d="M 491.103468 468.468676 
L 491.103468 306.906645 
" style="fill:none;stroke:#141414;stroke-linecap:round;stroke-width:1.5;"/>
   </g>
   <g id="line2d_16">
    <path clip-path="url(#p0d6f753a8c)" d="M 491.103468 453.946246 
L 491.103468 386.780009 
" style="fill:none;stroke:#141414;stroke-linecap:round;stroke-width:4.5;"/>
   </g>
   <g id="line2d_17">
    <path clip-path="url(#p0d6f753a8c)" d="M 559.165112 468.468676 
L 559.165112 324.605856 
" style="fill:none;stroke:#141414;stroke-linecap:round;stroke-width:1.5;"/>
   </g>
   <g id="line2d_18">
    <path clip-path="url(#p0d6f753a8c)" d="M 559.165112 456.669202 
L 559.165112 401.302438 
" style="fill:none;stroke:#141414;stroke-linecap:round;stroke-width:4.5;"/>
   </g>
   <g id="line2d_19">
    <path clip-path="url(#p0d6f753a8c)" d="M 604.539541 468.468676 
L 604.539541 265.608485 
" style="fill:none;stroke:#141414;stroke-linecap:round;stroke-width:1.5;"/>
   </g>
   <g id="line2d_20">
    <path clip-path="url(#p0d6f753a8c)" d="M 604.539541 452.584769 
L 604.539541 377.70349 
" style="fill:none;stroke:#141414;stroke-linecap:round;stroke-width:4.5;"/>
   </g>
   <g id="patch_5">
    <path d="M 71.39 490.433851 
L 71.39 7.2 
" style="fill:none;stroke:#262626;stroke-linecap:square;stroke-linejoin:miter;stroke-width:0.8;"/>
   </g>
   <g id="patch_6">
    <path d="M 71.39 490.433851 
L 638.570363 490.433851 
" style="fill:none;stroke:#262626;stroke-linecap:square;stroke-linejoin:miter;stroke-width:0.8;"/>
   </g>
   <g id="PathCollection_1">
    <defs>
     <path d="M 0 1.5 
C 0.397805 1.5 0.77937 1.341951 1.06066 1.06066 
C 1.341951 0.77937 1.5 0.397805 1.5 0 
C 1.5 -0.397805 1.341951 -0.77937 1.06066 -1.06066 
C 0.77937 -1.341951 0.397805 -1.5 0 -1.5 
C -0.397805 -1.5 -0.77937 -1.341951 -1.06066 -1.06066 
C -1.341951 -0.77937 -1.5 -0.397805 -1.5 0 
C -1.5 0.397805 -1.341951 0.77937 -1.06066 1.06066 
C -0.77937 1.341951 -0.397805 1.5 0 1.5 
z
" id="m4d5239fdf9" style="stroke:#141414;"/>
    </defs>
    <g clip-path="url(#p0d6f753a8c)">
     <use style="fill:#ffffff;stroke:#141414;" x="105.420822" xlink:href="#m4d5239fdf9" y="378.611142"/>
    </g>
   </g>
   <g id="PathCollection_2">
    <g clip-path="url(#p0d6f753a8c)">
     <use style="fill:#ffffff;stroke:#141414;" x="150.795251" xlink:href="#m4d5239fdf9" y="321.8829"/>
    </g>
   </g>
   <g id="PathCollection_3">
    <g clip-path="url(#p0d6f753a8c)">
     <use style="fill:#ffffff;stroke:#141414;" x="218.856894" xlink:href="#m4d5239fdf9" y="396.764179"/>
    </g>
   </g>
   <g id="PathCollection_4">
    <g clip-path="url(#p0d6f753a8c)">
     <use style="fill:#ffffff;stroke:#141414;" x="264.231323" xlink:href="#m4d5239fdf9" y="320.975249"/>
    </g>
   </g>
   <g id="PathCollection_5">
    <g clip-path="url(#p0d6f753a8c)">
     <use style="fill:#ffffff;stroke:#141414;" x="332.292967" xlink:href="#m4d5239fdf9" y="434.431731"/>
    </g>
   </g>
   <g id="PathCollection_6">
    <g clip-path="url(#p0d6f753a8c)">
     <use style="fill:#ffffff;stroke:#141414;" x="377.667396" xlink:href="#m4d5239fdf9" y="408.563653"/>
    </g>
   </g>
   <g id="PathCollection_7">
    <g clip-path="url(#p0d6f753a8c)">
     <use style="fill:#ffffff;stroke:#141414;" x="445.729039" xlink:href="#m4d5239fdf9" y="440.331468"/>
    </g>
   </g>
   <g id="PathCollection_8">
    <g clip-path="url(#p0d6f753a8c)">
     <use style="fill:#ffffff;stroke:#141414;" x="491.103468" xlink:href="#m4d5239fdf9" y="418.547824"/>
    </g>
   </g>
   <g id="PathCollection_9">
    <g clip-path="url(#p0d6f753a8c)">
     <use style="fill:#ffffff;stroke:#141414;" x="559.165112" xlink:href="#m4d5239fdf9" y="430.801124"/>
    </g>
   </g>
   <g id="PathCollection_10">
    <g clip-path="url(#p0d6f753a8c)">
     <use style="fill:#ffffff;stroke:#141414;" x="604.539541" xlink:href="#m4d5239fdf9" y="407.656001"/>
    </g>
   </g>
  </g>
  <g id="legend_1">
   <g id="text_14">
    <!-- workday -->
    <defs>
     <path d="M 16.15625 0 
L 0.296875 51.859375 
L 9.375 51.859375 
L 17.625 21.921875 
L 20.703125 10.796875 
Q 20.90625 11.625 23.390625 21.484375 
L 31.640625 51.859375 
L 40.671875 51.859375 
L 48.4375 21.78125 
L 51.03125 11.859375 
L 54 21.875 
L 62.890625 51.859375 
L 71.4375 51.859375 
L 55.21875 0 
L 46.09375 0 
L 37.84375 31.0625 
L 35.84375 39.890625 
L 25.34375 0 
z
" id="ArialMT-119"/>
     <path d="M 6.640625 0 
L 6.640625 71.578125 
L 15.4375 71.578125 
L 15.4375 30.765625 
L 36.234375 51.859375 
L 47.609375 51.859375 
L 27.78125 32.625 
L 49.609375 0 
L 38.765625 0 
L 21.625 26.515625 
L 15.4375 20.5625 
L 15.4375 0 
z
" id="ArialMT-107"/>
     <path d="M 40.4375 6.390625 
Q 35.546875 2.25 31.03125 0.53125 
Q 26.515625 -1.171875 21.34375 -1.171875 
Q 12.796875 -1.171875 8.203125 3 
Q 3.609375 7.171875 3.609375 13.671875 
Q 3.609375 17.484375 5.34375 20.625 
Q 7.078125 23.78125 9.890625 25.6875 
Q 12.703125 27.59375 16.21875 28.5625 
Q 18.796875 29.25 24.03125 29.890625 
Q 34.671875 31.15625 39.703125 32.90625 
Q 39.75 34.71875 39.75 35.203125 
Q 39.75 40.578125 37.25 42.78125 
Q 33.890625 45.75 27.25 45.75 
Q 21.046875 45.75 18.09375 43.578125 
Q 15.140625 41.40625 13.71875 35.890625 
L 5.125 37.0625 
Q 6.296875 42.578125 8.984375 45.96875 
Q 11.671875 49.359375 16.75 51.1875 
Q 21.828125 53.03125 28.515625 53.03125 
Q 35.15625 53.03125 39.296875 51.46875 
Q 43.453125 49.90625 45.40625 47.53125 
Q 47.359375 45.171875 48.140625 41.546875 
Q 48.578125 39.3125 48.578125 33.453125 
L 48.578125 21.734375 
Q 48.578125 9.46875 49.140625 6.21875 
Q 49.703125 2.984375 51.375 0 
L 42.1875 0 
Q 40.828125 2.734375 40.4375 6.390625 
z
M 39.703125 26.03125 
Q 34.90625 24.078125 25.34375 22.703125 
Q 19.921875 21.921875 17.671875 20.9375 
Q 15.4375 19.96875 14.203125 18.09375 
Q 12.984375 16.21875 12.984375 13.921875 
Q 12.984375 10.40625 15.640625 8.0625 
Q 18.3125 5.71875 23.4375 5.71875 
Q 28.515625 5.71875 32.46875 7.9375 
Q 36.421875 10.15625 38.28125 14.015625 
Q 39.703125 17 39.703125 22.796875 
z
" id="ArialMT-97"/>
     <path d="M 6.203125 -19.96875 
L 5.21875 -11.71875 
Q 8.109375 -12.5 10.25 -12.5 
Q 13.1875 -12.5 14.9375 -11.515625 
Q 16.703125 -10.546875 17.828125 -8.796875 
Q 18.65625 -7.46875 20.515625 -2.25 
Q 20.75 -1.515625 21.296875 -0.09375 
L 1.609375 51.859375 
L 11.078125 51.859375 
L 21.875 21.828125 
Q 23.96875 16.109375 25.640625 9.8125 
Q 27.15625 15.875 29.25 21.625 
L 40.328125 51.859375 
L 49.125 51.859375 
L 29.390625 -0.875 
Q 26.21875 -9.421875 24.46875 -12.640625 
Q 22.125 -17 19.09375 -19.015625 
Q 16.0625 -21.046875 11.859375 -21.046875 
Q 9.328125 -21.046875 6.203125 -19.96875 
z
" id="ArialMT-121"/>
    </defs>
    <g style="fill:#262626;" transform="translate(717.143 250.359426)scale(0.16 -0.16)">
     <use xlink:href="#ArialMT-119"/>
     <use x="72.216797" xlink:href="#ArialMT-111"/>
     <use x="127.832031" xlink:href="#ArialMT-114"/>
     <use x="161.132812" xlink:href="#ArialMT-107"/>
     <use x="211.132812" xlink:href="#ArialMT-100"/>
     <use x="266.748047" xlink:href="#ArialMT-97"/>
     <use x="322.363281" xlink:href="#ArialMT-121"/>
    </g>
   </g>
   <g id="patch_7">
    <path d="M 720.08175 273.179426 
L 752.08175 273.179426 
L 752.08175 261.979426 
L 720.08175 261.979426 
z
" style="fill:#083c1d;stroke:#141414;stroke-linejoin:miter;stroke-width:0.75;"/>
   </g>
   <g id="text_15">
    <!-- 0 -->
    <g style="fill:#262626;" transform="translate(764.88175 273.179426)scale(0.16 -0.16)">
     <use xlink:href="#ArialMT-48"/>
    </g>
   </g>
   <g id="patch_8">
    <path d="M 720.08175 295.811926 
L 752.08175 295.811926 
L 752.08175 284.611926 
L 720.08175 284.611926 
z
" style="fill:#0e5f2f;stroke:#141414;stroke-linejoin:miter;stroke-width:0.75;"/>
   </g>
   <g id="text_16">
    <!-- 1 -->
    <g style="fill:#262626;" transform="translate(764.88175 295.811926)scale(0.16 -0.16)">
     <use xlink:href="#ArialMT-49"/>
    </g>
   </g>
  </g>
 </g>
 <defs>
  <clipPath id="p0d6f753a8c">
   <rect height="483.233851" width="567.180363" x="71.39" y="7.2"/>
  </clipPath>
 </defs>
</svg>
